<?xml version="1.0" encoding="UTF-8" standalone="no"?>
<!DOCTYPE svg PUBLIC "-//W3C//DTD SVG 1.1//EN"
 "http://www.w3.org/Graphics/SVG/1.1/DTD/svg11.dtd">
<!-- Generated by graphviz version 2.43.0 (0)
 -->
<!-- Title: includes/libserv/bootstrap.cpp Pages: 1 -->
<!--zoomable 375 -->
<svg id="main" version="1.1" xmlns="http://www.w3.org/2000/svg" xmlns:xlink="http://www.w3.org/1999/xlink" xml:space="preserve" onload="init(evt)">
<style type="text/css"><![CDATA[
.edge:hover path { stroke: red; }
.edge:hover polygon { stroke: red; fill: red; }
]]></style>
<script type="text/javascript"><![CDATA[
var edges = document.getElementsByTagName('g');
if (edges && edges.length) {
  for (var i=0;i<edges.length;i++) {
    if (edges[i].id.substr(0,4)=='edge') {
      edges[i].setAttribute('class','edge');
    }
  }
}
]]></script>
        <defs>
                <circle id="rim" cx="0" cy="0" r="7"/>
                <circle id="rim2" cx="0" cy="0" r="3.5"/>
                <g id="zoomPlus">
                        <use xlink:href="#rim" fill="#404040">
                                <set attributeName="fill" to="#808080" begin="zoomplus.mouseover" end="zoomplus.mouseout"/>
                        </use>
                        <path d="M-4,0h8M0,-4v8" fill="none" stroke="white" stroke-width="1.5" pointer-events="none"/>
                </g>
                <g id="zoomMin">
                        <use xlink:href="#rim" fill="#404040">
                                <set attributeName="fill" to="#808080" begin="zoomminus.mouseover" end="zoomminus.mouseout"/>
                        </use>
                        <path d="M-4,0h8" fill="none" stroke="white" stroke-width="1.5" pointer-events="none"/>
                </g>
                <g id="dirArrow">
                        <path fill="none" stroke="white" stroke-width="1.5" d="M0,-3.0v7 M-2.5,-0.5L0,-3.0L2.5,-0.5"/>
                </g>
               <g id="resetDef">
                       <use xlink:href="#rim2" fill="#404040">
                               <set attributeName="fill" to="#808080" begin="reset.mouseover" end="reset.mouseout"/>
                       </use>
               </g>
        </defs>

<script type="text/javascript">
var viewWidth = 2662;
var viewHeight = 375;
var sectionId = 'dynsection-0';
</script>
<script xlink:href="svgpan.js"/>
<svg id="graph" class="graph">
<g id="viewport">
<title>includes/libserv/bootstrap.cpp</title>
<polygon fill="white" stroke="transparent" points="-4,4 -4,-371 2658.46,-371 2658.46,4 -4,4"/>
<!-- Node1 -->
<g id="node1" class="node">
<title>Node1</title>
<g id="a_node1"><a xlink:title=" ">
<polygon fill="#bfbfbf" stroke="black" points="1007.5,-347.5 1007.5,-366.5 1170.5,-366.5 1170.5,-347.5 1007.5,-347.5"/>
<text text-anchor="middle" x="1089" y="-354.5" font-family="Helvetica,sans-Serif" font-size="10.00">includes/libserv/bootstrap.cpp</text>
</a>
</g>
</g>
<!-- Node2 -->
<g id="node2" class="node">
<title>Node2</title>
<g id="a_node2"><a xlink:href="bootstrap_8hpp.html" target="_top" xlink:title=" ">
<polygon fill="white" stroke="black" points="931,-235.5 931,-254.5 1015,-254.5 1015,-235.5 931,-235.5"/>
<text text-anchor="middle" x="973" y="-242.5" font-family="Helvetica,sans-Serif" font-size="10.00">bootstrap.hpp</text>
</a>
</g>
</g>
<!-- Node1&#45;&gt;Node2 -->
<g id="edge1" class="edge">
<title>Node1&#45;&gt;Node2</title>
<path fill="none" stroke="midnightblue" d="M1079.9,-347.37C1060.42,-328.89 1014.44,-285.29 989.6,-261.74"/>
<polygon fill="midnightblue" stroke="midnightblue" points="991.72,-258.93 982.06,-254.59 986.91,-264.01 991.72,-258.93"/>
</g>
<!-- Node5 -->
<g id="node5" class="node">
<title>Node5</title>
<g id="a_node5"><a xlink:href="serv__types_8hpp.html" target="_top" xlink:title=" ">
<polygon fill="white" stroke="black" points="991.5,-56.5 991.5,-75.5 1082.5,-75.5 1082.5,-56.5 991.5,-56.5"/>
<text text-anchor="middle" x="1037" y="-63.5" font-family="Helvetica,sans-Serif" font-size="10.00">serv_types.hpp</text>
</a>
</g>
</g>
<!-- Node1&#45;&gt;Node5 -->
<g id="edge44" class="edge">
<title>Node1&#45;&gt;Node5</title>
<path fill="none" stroke="midnightblue" d="M1007.15,-356.3C753.89,-356.14 0,-347.19 0,-246 0,-246 0,-246 0,-188 0,-101.16 95.37,-131.46 180,-112 333.18,-76.78 816.01,-69.05 981.05,-67.42"/>
<polygon fill="midnightblue" stroke="midnightblue" points="981.49,-70.91 991.45,-67.32 981.42,-63.91 981.49,-70.91"/>
</g>
<!-- Node13 -->
<g id="node13" class="node">
<title>Node13</title>
<g id="a_node13"><a xlink:title=" ">
<polygon fill="white" stroke="#bfbfbf" points="242.5,-118 242.5,-137 381.5,-137 381.5,-118 242.5,-118"/>
<text text-anchor="middle" x="312" y="-125" font-family="Helvetica,sans-Serif" font-size="10.00">smart_ptr/shared_ptr.hpp</text>
</a>
</g>
</g>
<!-- Node1&#45;&gt;Node13 -->
<g id="edge69" class="edge">
<title>Node1&#45;&gt;Node13</title>
<path fill="none" stroke="midnightblue" d="M1007.33,-353.28C817.32,-345.9 351.14,-321.38 211,-255 172.11,-236.58 125.53,-213.69 151,-179 169.93,-153.22 202,-140.24 232.56,-133.84"/>
<polygon fill="midnightblue" stroke="midnightblue" points="233.23,-137.28 242.41,-131.98 231.93,-130.4 233.23,-137.28"/>
</g>
<!-- Node15 -->
<g id="node15" class="node">
<title>Node15</title>
<g id="a_node15"><a xlink:title=" ">
<polygon fill="white" stroke="#bfbfbf" points="1189,-118 1189,-137 1233,-137 1233,-118 1189,-118"/>
<text text-anchor="middle" x="1211" y="-125" font-family="Helvetica,sans-Serif" font-size="10.00">string</text>
</a>
</g>
</g>
<!-- Node1&#45;&gt;Node15 -->
<g id="edge71" class="edge">
<title>Node1&#45;&gt;Node15</title>
<path fill="none" stroke="midnightblue" d="M1095.19,-347.35C1107.32,-330.22 1134.69,-290.55 1154,-255 1174.32,-217.59 1193.75,-171.53 1203.84,-146.61"/>
<polygon fill="midnightblue" stroke="midnightblue" points="1207.09,-147.89 1207.56,-137.3 1200.6,-145.29 1207.09,-147.89"/>
</g>
<!-- Node16 -->
<g id="node16" class="node">
<title>Node16</title>
<g id="a_node16"><a xlink:href="event__worker__group_8hpp.html" target="_top" xlink:title=" ">
<polygon fill="white" stroke="black" points="636.5,-291.5 636.5,-310.5 773.5,-310.5 773.5,-291.5 636.5,-291.5"/>
<text text-anchor="middle" x="705" y="-298.5" font-family="Helvetica,sans-Serif" font-size="10.00">event_worker_group.hpp</text>
</a>
</g>
</g>
<!-- Node1&#45;&gt;Node16 -->
<g id="edge19" class="edge">
<title>Node1&#45;&gt;Node16</title>
<path fill="none" stroke="midnightblue" d="M1028.15,-347.44C959.48,-337.79 847.93,-322.1 775.51,-311.92"/>
<polygon fill="midnightblue" stroke="midnightblue" points="775.95,-308.44 765.56,-310.52 774.98,-315.37 775.95,-308.44"/>
</g>
<!-- Node23 -->
<g id="node23" class="node">
<title>Node23</title>
<g id="a_node23"><a xlink:href="logger_8hpp.html" target="_top" xlink:title=" ">
<polygon fill="white" stroke="black" points="1364,-179.5 1364,-198.5 1432,-198.5 1432,-179.5 1364,-179.5"/>
<text text-anchor="middle" x="1398" y="-186.5" font-family="Helvetica,sans-Serif" font-size="10.00">logger.hpp</text>
</a>
</g>
</g>
<!-- Node1&#45;&gt;Node23 -->
<g id="edge34" class="edge">
<title>Node1&#45;&gt;Node23</title>
<path fill="none" stroke="midnightblue" d="M1118.86,-347.44C1144.71,-339.52 1182.75,-326.63 1214,-311 1277.77,-279.12 1346.26,-229.48 1378.76,-204.87"/>
<polygon fill="midnightblue" stroke="midnightblue" points="1381.12,-207.48 1386.94,-198.63 1376.87,-201.92 1381.12,-207.48"/>
</g>
<!-- Node29 -->
<g id="node29" class="node">
<title>Node29</title>
<g id="a_node29"><a xlink:href="server__channel_8hpp.html" target="_top" xlink:title=" ">
<polygon fill="white" stroke="black" points="1033,-235.5 1033,-254.5 1145,-254.5 1145,-235.5 1033,-235.5"/>
<text text-anchor="middle" x="1089" y="-242.5" font-family="Helvetica,sans-Serif" font-size="10.00">server_channel.hpp</text>
</a>
</g>
</g>
<!-- Node1&#45;&gt;Node29 -->
<g id="edge45" class="edge">
<title>Node1&#45;&gt;Node29</title>
<path fill="none" stroke="midnightblue" d="M1089,-347.37C1089,-329.62 1089,-288.67 1089,-264.6"/>
<polygon fill="midnightblue" stroke="midnightblue" points="1092.5,-264.59 1089,-254.59 1085.5,-264.59 1092.5,-264.59"/>
</g>
<!-- Node30 -->
<g id="node30" class="node">
<title>Node30</title>
<g id="a_node30"><a xlink:href="socket__utils_8hpp.html" target="_top" xlink:title=" ">
<polygon fill="white" stroke="black" points="1957.5,-179.5 1957.5,-198.5 2052.5,-198.5 2052.5,-179.5 1957.5,-179.5"/>
<text text-anchor="middle" x="2005" y="-186.5" font-family="Helvetica,sans-Serif" font-size="10.00">socket_utils.hpp</text>
</a>
</g>
</g>
<!-- Node1&#45;&gt;Node30 -->
<g id="edge50" class="edge">
<title>Node1&#45;&gt;Node30</title>
<path fill="none" stroke="midnightblue" d="M1136,-347.48C1290.18,-319.54 1780.29,-230.72 1948.04,-200.32"/>
<polygon fill="midnightblue" stroke="midnightblue" points="1948.7,-203.76 1957.91,-198.53 1947.45,-196.87 1948.7,-203.76"/>
</g>
<!-- Node33 -->
<g id="node33" class="node">
<title>Node33</title>
<g id="a_node33"><a xlink:title=" ">
<polygon fill="white" stroke="#bfbfbf" points="2405.5,-56.5 2405.5,-75.5 2470.5,-75.5 2470.5,-56.5 2405.5,-56.5"/>
<text text-anchor="middle" x="2438" y="-63.5" font-family="Helvetica,sans-Serif" font-size="10.00">exception</text>
</a>
</g>
</g>
<!-- Node1&#45;&gt;Node33 -->
<g id="edge70" class="edge">
<title>Node1&#45;&gt;Node33</title>
<path fill="none" stroke="midnightblue" d="M1170.61,-354.57C1492.03,-348.43 2653,-321.05 2653,-246 2653,-246 2653,-246 2653,-188 2653,-153.18 2658.86,-136.38 2634,-112 2612.61,-91.01 2531.76,-77.94 2480.83,-71.6"/>
<polygon fill="midnightblue" stroke="midnightblue" points="2481.1,-68.11 2470.75,-70.39 2480.26,-75.06 2481.1,-68.11"/>
</g>
<!-- Node3 -->
<g id="node3" class="node">
<title>Node3</title>
<g id="a_node3"><a xlink:href="event__channel__base_8hpp.html" target="_top" xlink:title=" ">
<polygon fill="white" stroke="black" points="847.5,-179.5 847.5,-198.5 984.5,-198.5 984.5,-179.5 847.5,-179.5"/>
<text text-anchor="middle" x="916" y="-186.5" font-family="Helvetica,sans-Serif" font-size="10.00">event_channel_base.hpp</text>
</a>
</g>
</g>
<!-- Node2&#45;&gt;Node3 -->
<g id="edge2" class="edge">
<title>Node2&#45;&gt;Node3</title>
<path fill="none" stroke="midnightblue" d="M963.84,-235.32C955.5,-227.42 942.97,-215.55 932.82,-205.94"/>
<polygon fill="midnightblue" stroke="midnightblue" points="934.99,-203.17 925.32,-198.83 930.18,-208.25 934.99,-203.17"/>
</g>
<!-- Node2&#45;&gt;Node5 -->
<g id="edge16" class="edge">
<title>Node2&#45;&gt;Node5</title>
<path fill="none" stroke="midnightblue" d="M977.51,-235.18C982,-226.2 988.94,-211.83 994,-199 1009.64,-159.35 1024.19,-111.5 1031.69,-85.69"/>
<polygon fill="midnightblue" stroke="midnightblue" points="1035.14,-86.36 1034.54,-75.78 1028.42,-84.42 1035.14,-86.36"/>
</g>
<!-- Node2&#45;&gt;Node13 -->
<g id="edge17" class="edge">
<title>Node2&#45;&gt;Node13</title>
<path fill="none" stroke="midnightblue" d="M939.62,-235.43C886.3,-221.97 778.51,-195.69 686,-179 584.95,-160.77 467.47,-145.94 391.53,-137.17"/>
<polygon fill="midnightblue" stroke="midnightblue" points="391.9,-133.69 381.56,-136.03 391.1,-140.64 391.9,-133.69"/>
</g>
<!-- Node2&#45;&gt;Node15 -->
<g id="edge18" class="edge">
<title>Node2&#45;&gt;Node15</title>
<path fill="none" stroke="midnightblue" d="M990.89,-235.32C1032.34,-215.2 1135.16,-165.31 1184.18,-141.52"/>
<polygon fill="midnightblue" stroke="midnightblue" points="1185.76,-144.64 1193.23,-137.12 1182.7,-138.34 1185.76,-144.64"/>
</g>
<!-- Node4 -->
<g id="node4" class="node">
<title>Node4</title>
<g id="a_node4"><a xlink:href="byte__buffer_8hpp.html" target="_top" xlink:title=" ">
<polygon fill="white" stroke="black" points="1079,-118 1079,-137 1171,-137 1171,-118 1079,-118"/>
<text text-anchor="middle" x="1125" y="-125" font-family="Helvetica,sans-Serif" font-size="10.00">byte_buffer.hpp</text>
</a>
</g>
</g>
<!-- Node3&#45;&gt;Node4 -->
<g id="edge3" class="edge">
<title>Node3&#45;&gt;Node4</title>
<path fill="none" stroke="midnightblue" d="M945.94,-179.48C982.57,-169.05 1044.7,-151.36 1085.28,-139.81"/>
<polygon fill="midnightblue" stroke="midnightblue" points="1086.45,-143.11 1095.11,-137.01 1084.53,-136.38 1086.45,-143.11"/>
</g>
<!-- Node3&#45;&gt;Node5 -->
<g id="edge11" class="edge">
<title>Node3&#45;&gt;Node5</title>
<path fill="none" stroke="midnightblue" d="M851.43,-179.49C787.74,-170.43 698.42,-155.68 688,-143 679.25,-132.36 678.9,-122.35 688,-112 707.03,-90.36 887.58,-76.17 981.23,-70.21"/>
<polygon fill="midnightblue" stroke="midnightblue" points="981.62,-73.69 991.39,-69.57 981.19,-66.71 981.62,-73.69"/>
</g>
<!-- Node12 -->
<g id="node12" class="node">
<title>Node12</title>
<g id="a_node12"><a xlink:title=" ">
<polygon fill="white" stroke="#bfbfbf" points="697,-112.5 697,-142.5 835,-142.5 835,-112.5 697,-112.5"/>
<text text-anchor="start" x="705" y="-130.5" font-family="Helvetica,sans-Serif" font-size="10.00">smart_ptr/enable_shared</text>
<text text-anchor="middle" x="766" y="-119.5" font-family="Helvetica,sans-Serif" font-size="10.00">_from_this.hpp</text>
</a>
</g>
</g>
<!-- Node3&#45;&gt;Node12 -->
<g id="edge12" class="edge">
<title>Node3&#45;&gt;Node12</title>
<path fill="none" stroke="midnightblue" d="M894.51,-179.48C872.77,-170.85 838.51,-157.26 810.84,-146.29"/>
<polygon fill="midnightblue" stroke="midnightblue" points="811.94,-142.96 801.35,-142.52 809.36,-149.46 811.94,-142.96"/>
</g>
<!-- Node3&#45;&gt;Node13 -->
<g id="edge13" class="edge">
<title>Node3&#45;&gt;Node13</title>
<path fill="none" stroke="midnightblue" d="M847.16,-180.47C842.37,-179.97 837.61,-179.47 833,-179 676.78,-162.96 494.05,-145.56 391.8,-135.95"/>
<polygon fill="midnightblue" stroke="midnightblue" points="391.83,-132.44 381.55,-134.99 391.18,-139.41 391.83,-132.44"/>
</g>
<!-- Node14 -->
<g id="node14" class="node">
<title>Node14</title>
<g id="a_node14"><a xlink:title=" ">
<polygon fill="white" stroke="#bfbfbf" points="853,-118 853,-137 985,-137 985,-118 853,-118"/>
<text text-anchor="middle" x="919" y="-125" font-family="Helvetica,sans-Serif" font-size="10.00">smart_ptr/weak_ptr.hpp</text>
</a>
</g>
</g>
<!-- Node3&#45;&gt;Node14 -->
<g id="edge14" class="edge">
<title>Node3&#45;&gt;Node14</title>
<path fill="none" stroke="midnightblue" d="M916.43,-179.48C916.85,-171.08 917.51,-157.98 918.06,-147.16"/>
<polygon fill="midnightblue" stroke="midnightblue" points="921.56,-147.17 918.57,-137.01 914.57,-146.82 921.56,-147.17"/>
</g>
<!-- Node3&#45;&gt;Node15 -->
<g id="edge15" class="edge">
<title>Node3&#45;&gt;Node15</title>
<path fill="none" stroke="midnightblue" d="M984.73,-181.41C1038.72,-175.01 1115.32,-163.23 1180,-143 1181.87,-142.41 1183.78,-141.74 1185.67,-141.01"/>
<polygon fill="midnightblue" stroke="midnightblue" points="1187.12,-144.19 1194.92,-137.02 1184.35,-137.77 1187.12,-144.19"/>
</g>
<!-- Node4&#45;&gt;Node5 -->
<g id="edge4" class="edge">
<title>Node4&#45;&gt;Node5</title>
<path fill="none" stroke="midnightblue" d="M1112.39,-117.98C1098.28,-108.43 1075.17,-92.81 1058.25,-81.37"/>
<polygon fill="midnightblue" stroke="midnightblue" points="1059.83,-78.21 1049.58,-75.51 1055.91,-84.01 1059.83,-78.21"/>
</g>
<!-- Node10 -->
<g id="node10" class="node">
<title>Node10</title>
<g id="a_node10"><a xlink:title=" ">
<polygon fill="white" stroke="#bfbfbf" points="1112,-56.5 1112,-75.5 1164,-75.5 1164,-56.5 1112,-56.5"/>
<text text-anchor="middle" x="1138" y="-63.5" font-family="Helvetica,sans-Serif" font-size="10.00">cassert</text>
</a>
</g>
</g>
<!-- Node4&#45;&gt;Node10 -->
<g id="edge9" class="edge">
<title>Node4&#45;&gt;Node10</title>
<path fill="none" stroke="midnightblue" d="M1126.86,-117.98C1128.72,-109.49 1131.62,-96.2 1134,-85.32"/>
<polygon fill="midnightblue" stroke="midnightblue" points="1137.43,-86.03 1136.14,-75.51 1130.59,-84.53 1137.43,-86.03"/>
</g>
<!-- Node11 -->
<g id="node11" class="node">
<title>Node11</title>
<g id="a_node11"><a xlink:title=" ">
<polygon fill="white" stroke="#bfbfbf" points="2041,-56.5 2041,-75.5 2091,-75.5 2091,-56.5 2041,-56.5"/>
<text text-anchor="middle" x="2066" y="-63.5" font-family="Helvetica,sans-Serif" font-size="10.00">cstring</text>
</a>
</g>
</g>
<!-- Node4&#45;&gt;Node11 -->
<g id="edge10" class="edge">
<title>Node4&#45;&gt;Node11</title>
<path fill="none" stroke="midnightblue" d="M1152.74,-117.99C1161.39,-115.66 1171.02,-113.4 1180,-112 1348.33,-85.83 1887.32,-71.29 2030.69,-67.82"/>
<polygon fill="midnightblue" stroke="midnightblue" points="2030.79,-71.32 2040.7,-67.58 2030.62,-64.32 2030.79,-71.32"/>
</g>
<!-- Node6 -->
<g id="node6" class="node">
<title>Node6</title>
<g id="a_node6"><a xlink:title=" ">
<polygon fill="white" stroke="#bfbfbf" points="926.5,-0.5 926.5,-19.5 973.5,-19.5 973.5,-0.5 926.5,-0.5"/>
<text text-anchor="middle" x="950" y="-7.5" font-family="Helvetica,sans-Serif" font-size="10.00">deque</text>
</a>
</g>
</g>
<!-- Node5&#45;&gt;Node6 -->
<g id="edge5" class="edge">
<title>Node5&#45;&gt;Node6</title>
<path fill="none" stroke="midnightblue" d="M1023.02,-56.32C1009.45,-47.9 988.62,-34.97 972.68,-25.07"/>
<polygon fill="midnightblue" stroke="midnightblue" points="974.29,-21.95 963.94,-19.65 970.59,-27.9 974.29,-21.95"/>
</g>
<!-- Node7 -->
<g id="node7" class="node">
<title>Node7</title>
<g id="a_node7"><a xlink:title=" ">
<polygon fill="white" stroke="#bfbfbf" points="992,-0.5 992,-19.5 1030,-19.5 1030,-0.5 992,-0.5"/>
<text text-anchor="middle" x="1011" y="-7.5" font-family="Helvetica,sans-Serif" font-size="10.00">map</text>
</a>
</g>
</g>
<!-- Node5&#45;&gt;Node7 -->
<g id="edge6" class="edge">
<title>Node5&#45;&gt;Node7</title>
<path fill="none" stroke="midnightblue" d="M1032.71,-56.08C1029.15,-48.69 1023.98,-37.95 1019.58,-28.81"/>
<polygon fill="midnightblue" stroke="midnightblue" points="1022.71,-27.24 1015.21,-19.75 1016.4,-30.28 1022.71,-27.24"/>
</g>
<!-- Node8 -->
<g id="node8" class="node">
<title>Node8</title>
<g id="a_node8"><a xlink:title=" ">
<polygon fill="white" stroke="#bfbfbf" points="1048,-0.5 1048,-19.5 1080,-19.5 1080,-0.5 1048,-0.5"/>
<text text-anchor="middle" x="1064" y="-7.5" font-family="Helvetica,sans-Serif" font-size="10.00">set</text>
</a>
</g>
</g>
<!-- Node5&#45;&gt;Node8 -->
<g id="edge7" class="edge">
<title>Node5&#45;&gt;Node8</title>
<path fill="none" stroke="midnightblue" d="M1041.46,-56.08C1045.15,-48.69 1050.52,-37.95 1055.09,-28.81"/>
<polygon fill="midnightblue" stroke="midnightblue" points="1058.28,-30.26 1059.62,-19.75 1052.02,-27.13 1058.28,-30.26"/>
</g>
<!-- Node9 -->
<g id="node9" class="node">
<title>Node9</title>
<g id="a_node9"><a xlink:title=" ">
<polygon fill="white" stroke="#bfbfbf" points="1098.5,-0.5 1098.5,-19.5 1145.5,-19.5 1145.5,-0.5 1098.5,-0.5"/>
<text text-anchor="middle" x="1122" y="-7.5" font-family="Helvetica,sans-Serif" font-size="10.00">vector</text>
</a>
</g>
</g>
<!-- Node5&#45;&gt;Node9 -->
<g id="edge8" class="edge">
<title>Node5&#45;&gt;Node9</title>
<path fill="none" stroke="midnightblue" d="M1050.66,-56.32C1063.92,-47.9 1084.27,-34.97 1099.85,-25.07"/>
<polygon fill="midnightblue" stroke="midnightblue" points="1101.81,-27.97 1108.38,-19.65 1098.06,-22.06 1101.81,-27.97"/>
</g>
<!-- Node16&#45;&gt;Node3 -->
<g id="edge20" class="edge">
<title>Node16&#45;&gt;Node3</title>
<path fill="none" stroke="midnightblue" d="M721.56,-291.37C758.3,-272.21 846.88,-226.04 890.65,-203.22"/>
<polygon fill="midnightblue" stroke="midnightblue" points="892.27,-206.32 899.52,-198.59 889.03,-200.11 892.27,-206.32"/>
</g>
<!-- Node16&#45;&gt;Node5 -->
<g id="edge30" class="edge">
<title>Node16&#45;&gt;Node5</title>
<path fill="none" stroke="midnightblue" d="M709.37,-291.31C713.56,-282.44 719.6,-268.14 722,-255 723.6,-246.26 723.23,-243.8 722,-235 718.41,-209.37 717.72,-202.08 706,-179 696.83,-160.93 684.58,-162.17 678,-143 673.53,-129.97 668.88,-122.33 678,-112 697.72,-89.65 885.6,-75.7 981.4,-69.99"/>
<polygon fill="midnightblue" stroke="midnightblue" points="981.72,-73.47 991.5,-69.39 981.31,-66.48 981.72,-73.47"/>
</g>
<!-- Node16&#45;&gt;Node13 -->
<g id="edge31" class="edge">
<title>Node16&#45;&gt;Node13</title>
<path fill="none" stroke="midnightblue" d="M636.46,-298.22C503.29,-293.1 217.66,-273.5 161,-199 136.42,-166.68 184.17,-148.61 232.33,-138.88"/>
<polygon fill="midnightblue" stroke="midnightblue" points="233.09,-142.3 242.26,-136.98 231.78,-135.42 233.09,-142.3"/>
</g>
<!-- Node17 -->
<g id="node17" class="node">
<title>Node17</title>
<g id="a_node17"><a xlink:href="event__worker_8hpp.html" target="_top" xlink:title=" ">
<polygon fill="white" stroke="black" points="372.5,-235.5 372.5,-254.5 475.5,-254.5 475.5,-235.5 372.5,-235.5"/>
<text text-anchor="middle" x="424" y="-242.5" font-family="Helvetica,sans-Serif" font-size="10.00">event_worker.hpp</text>
</a>
</g>
</g>
<!-- Node16&#45;&gt;Node17 -->
<g id="edge21" class="edge">
<title>Node16&#45;&gt;Node17</title>
<path fill="none" stroke="midnightblue" d="M660.47,-291.44C611.04,-281.94 531.25,-266.61 478.22,-256.42"/>
<polygon fill="midnightblue" stroke="midnightblue" points="478.8,-252.97 468.32,-254.52 477.48,-259.84 478.8,-252.97"/>
</g>
<!-- Node20 -->
<g id="node20" class="node">
<title>Node20</title>
<g id="a_node20"><a xlink:title=" ">
<polygon fill="white" stroke="#bfbfbf" points="499,-118 499,-137 603,-137 603,-118 499,-118"/>
<text text-anchor="middle" x="551" y="-125" font-family="Helvetica,sans-Serif" font-size="10.00">thread/mutex.hpp</text>
</a>
</g>
</g>
<!-- Node16&#45;&gt;Node20 -->
<g id="edge32" class="edge">
<title>Node16&#45;&gt;Node20</title>
<path fill="none" stroke="midnightblue" d="M706.36,-291.21C709.21,-269.49 713.42,-212.61 686,-179 674.12,-164.44 629.72,-149.58 595.05,-139.79"/>
<polygon fill="midnightblue" stroke="midnightblue" points="595.67,-136.33 585.1,-137.04 593.81,-143.08 595.67,-136.33"/>
</g>
<!-- Node21 -->
<g id="node21" class="node">
<title>Node21</title>
<g id="a_node21"><a xlink:title=" ">
<polygon fill="white" stroke="#bfbfbf" points="573,-179.5 573,-198.5 677,-198.5 677,-179.5 573,-179.5"/>
<text text-anchor="middle" x="625" y="-186.5" font-family="Helvetica,sans-Serif" font-size="10.00">thread/thread.hpp</text>
</a>
</g>
</g>
<!-- Node16&#45;&gt;Node21 -->
<g id="edge33" class="edge">
<title>Node16&#45;&gt;Node21</title>
<path fill="none" stroke="midnightblue" d="M698.72,-291.37C685.52,-273.22 654.67,-230.8 637.36,-206.99"/>
<polygon fill="midnightblue" stroke="midnightblue" points="639.96,-204.62 631.25,-198.59 634.3,-208.74 639.96,-204.62"/>
</g>
<!-- Node17&#45;&gt;Node3 -->
<g id="edge22" class="edge">
<title>Node17&#45;&gt;Node3</title>
<path fill="none" stroke="midnightblue" d="M475.72,-238.32C561.95,-228.86 735.61,-209.8 837.16,-198.65"/>
<polygon fill="midnightblue" stroke="midnightblue" points="837.8,-202.1 847.36,-197.53 837.04,-195.15 837.8,-202.1"/>
</g>
<!-- Node17&#45;&gt;Node5 -->
<g id="edge23" class="edge">
<title>Node17&#45;&gt;Node5</title>
<path fill="none" stroke="midnightblue" d="M372.45,-242.77C303.69,-239.91 187.51,-230.43 161,-199 155.27,-192.21 157.45,-187.15 161,-179 178.45,-138.92 192.78,-129.13 233,-112 301.34,-82.89 810.36,-71.1 981.25,-67.93"/>
<polygon fill="midnightblue" stroke="midnightblue" points="981.35,-71.43 991.29,-67.75 981.23,-64.43 981.35,-71.43"/>
</g>
<!-- Node17&#45;&gt;Node13 -->
<g id="edge25" class="edge">
<title>Node17&#45;&gt;Node13</title>
<path fill="none" stroke="midnightblue" d="M372.42,-242.37C306.03,-239.05 196.18,-229.05 171,-199 145.02,-167.99 196.05,-149.29 243.82,-139.02"/>
<polygon fill="midnightblue" stroke="midnightblue" points="244.53,-142.44 253.62,-137.01 243.12,-135.59 244.53,-142.44"/>
</g>
<!-- Node18 -->
<g id="node18" class="node">
<title>Node18</title>
<g id="a_node18"><a xlink:href="task__base_8hpp.html" target="_top" xlink:title=" ">
<polygon fill="white" stroke="black" points="467.5,-179.5 467.5,-198.5 554.5,-198.5 554.5,-179.5 467.5,-179.5"/>
<text text-anchor="middle" x="511" y="-186.5" font-family="Helvetica,sans-Serif" font-size="10.00">task_base.hpp</text>
</a>
</g>
</g>
<!-- Node17&#45;&gt;Node18 -->
<g id="edge24" class="edge">
<title>Node17&#45;&gt;Node18</title>
<path fill="none" stroke="midnightblue" d="M437.98,-235.32C451.55,-226.9 472.38,-213.97 488.32,-204.07"/>
<polygon fill="midnightblue" stroke="midnightblue" points="490.41,-206.9 497.06,-198.65 486.71,-200.95 490.41,-206.9"/>
</g>
<!-- Node19 -->
<g id="node19" class="node">
<title>Node19</title>
<g id="a_node19"><a xlink:title=" ">
<polygon fill="white" stroke="#bfbfbf" points="180,-179.5 180,-198.5 342,-198.5 342,-179.5 180,-179.5"/>
<text text-anchor="middle" x="261" y="-186.5" font-family="Helvetica,sans-Serif" font-size="10.00">thread/condition_variable.hpp</text>
</a>
</g>
</g>
<!-- Node17&#45;&gt;Node19 -->
<g id="edge26" class="edge">
<title>Node17&#45;&gt;Node19</title>
<path fill="none" stroke="midnightblue" d="M398.17,-235.44C370.75,-226.36 327.22,-211.94 296.57,-201.78"/>
<polygon fill="midnightblue" stroke="midnightblue" points="297.3,-198.34 286.71,-198.52 295.1,-204.98 297.3,-198.34"/>
</g>
<!-- Node17&#45;&gt;Node20 -->
<g id="edge27" class="edge">
<title>Node17&#45;&gt;Node20</title>
<path fill="none" stroke="midnightblue" d="M412.96,-235.13C398.19,-222.17 375.33,-197.58 389,-179 411.72,-148.12 453.21,-135.58 488.52,-130.72"/>
<polygon fill="midnightblue" stroke="midnightblue" points="489.25,-134.16 498.77,-129.5 488.42,-127.21 489.25,-134.16"/>
</g>
<!-- Node17&#45;&gt;Node21 -->
<g id="edge28" class="edge">
<title>Node17&#45;&gt;Node21</title>
<path fill="none" stroke="midnightblue" d="M455.85,-235.44C490.4,-226.16 545.68,-211.31 583.58,-201.13"/>
<polygon fill="midnightblue" stroke="midnightblue" points="584.55,-204.49 593.3,-198.52 582.73,-197.73 584.55,-204.49"/>
</g>
<!-- Node22 -->
<g id="node22" class="node">
<title>Node22</title>
<g id="a_node22"><a xlink:title=" ">
<polygon fill="white" stroke="#bfbfbf" points="398.5,-179.5 398.5,-198.5 449.5,-198.5 449.5,-179.5 398.5,-179.5"/>
<text text-anchor="middle" x="424" y="-186.5" font-family="Helvetica,sans-Serif" font-size="10.00">csignal</text>
</a>
</g>
</g>
<!-- Node17&#45;&gt;Node22 -->
<g id="edge29" class="edge">
<title>Node17&#45;&gt;Node22</title>
<path fill="none" stroke="midnightblue" d="M424,-235.08C424,-228.01 424,-217.86 424,-208.99"/>
<polygon fill="midnightblue" stroke="midnightblue" points="427.5,-208.75 424,-198.75 420.5,-208.75 427.5,-208.75"/>
</g>
<!-- Node23&#45;&gt;Node5 -->
<g id="edge35" class="edge">
<title>Node23&#45;&gt;Node5</title>
<path fill="none" stroke="midnightblue" d="M1432.37,-182.56C1484.8,-172.92 1575.14,-150.15 1540,-112 1506.99,-76.16 1151.43,-81.29 1103,-76 1099.72,-75.64 1096.36,-75.25 1092.97,-74.84"/>
<polygon fill="midnightblue" stroke="midnightblue" points="1093.12,-71.33 1082.76,-73.56 1092.25,-78.28 1093.12,-71.33"/>
</g>
<!-- Node23&#45;&gt;Node10 -->
<g id="edge43" class="edge">
<title>Node23&#45;&gt;Node10</title>
<path fill="none" stroke="midnightblue" d="M1432.36,-185.08C1494.61,-178.56 1615.82,-159.47 1573,-112 1546.48,-82.59 1274.23,-71.23 1174.42,-68.03"/>
<polygon fill="midnightblue" stroke="midnightblue" points="1174.32,-64.53 1164.22,-67.71 1174.1,-71.52 1174.32,-64.53"/>
</g>
<!-- Node23&#45;&gt;Node15 -->
<g id="edge42" class="edge">
<title>Node23&#45;&gt;Node15</title>
<path fill="none" stroke="midnightblue" d="M1363.72,-179.76C1331.78,-171.7 1283.03,-158.41 1242,-143 1240.57,-142.46 1239.12,-141.89 1237.67,-141.29"/>
<polygon fill="midnightblue" stroke="midnightblue" points="1238.74,-137.94 1228.17,-137.12 1235.92,-144.35 1238.74,-137.94"/>
</g>
<!-- Node23&#45;&gt;Node20 -->
<g id="edge36" class="edge">
<title>Node23&#45;&gt;Node20</title>
<path fill="none" stroke="midnightblue" d="M1363.97,-186.35C1261.62,-181.29 947.68,-164.96 688,-143 663.61,-140.94 636.82,-138.21 613.45,-135.67"/>
<polygon fill="midnightblue" stroke="midnightblue" points="613.64,-132.17 603.32,-134.56 612.88,-139.13 613.64,-132.17"/>
</g>
<!-- Node24 -->
<g id="node24" class="node">
<title>Node24</title>
<g id="a_node24"><a xlink:title=" ">
<polygon fill="white" stroke="#bfbfbf" points="1251,-118 1251,-137 1319,-137 1319,-118 1251,-118"/>
<text text-anchor="middle" x="1285" y="-125" font-family="Helvetica,sans-Serif" font-size="10.00">sys/time.h</text>
</a>
</g>
</g>
<!-- Node23&#45;&gt;Node24 -->
<g id="edge37" class="edge">
<title>Node23&#45;&gt;Node24</title>
<path fill="none" stroke="midnightblue" d="M1381.81,-179.48C1363.1,-169.62 1332.08,-153.29 1310.2,-141.77"/>
<polygon fill="midnightblue" stroke="midnightblue" points="1311.64,-138.57 1301.16,-137.01 1308.38,-144.77 1311.64,-138.57"/>
</g>
<!-- Node25 -->
<g id="node25" class="node">
<title>Node25</title>
<g id="a_node25"><a xlink:title=" ">
<polygon fill="white" stroke="#bfbfbf" points="1337.5,-118 1337.5,-137 1390.5,-137 1390.5,-118 1337.5,-118"/>
<text text-anchor="middle" x="1364" y="-125" font-family="Helvetica,sans-Serif" font-size="10.00">cstdarg</text>
</a>
</g>
</g>
<!-- Node23&#45;&gt;Node25 -->
<g id="edge38" class="edge">
<title>Node23&#45;&gt;Node25</title>
<path fill="none" stroke="midnightblue" d="M1393.13,-179.48C1388.13,-170.73 1380.21,-156.87 1373.89,-145.81"/>
<polygon fill="midnightblue" stroke="midnightblue" points="1376.86,-143.96 1368.86,-137.01 1370.78,-147.43 1376.86,-143.96"/>
</g>
<!-- Node26 -->
<g id="node26" class="node">
<title>Node26</title>
<g id="a_node26"><a xlink:title=" ">
<polygon fill="white" stroke="#bfbfbf" points="1409,-118 1409,-137 1453,-137 1453,-118 1409,-118"/>
<text text-anchor="middle" x="1431" y="-125" font-family="Helvetica,sans-Serif" font-size="10.00">ctime</text>
</a>
</g>
</g>
<!-- Node23&#45;&gt;Node26 -->
<g id="edge39" class="edge">
<title>Node23&#45;&gt;Node26</title>
<path fill="none" stroke="midnightblue" d="M1402.73,-179.48C1407.58,-170.73 1415.27,-156.87 1421.4,-145.81"/>
<polygon fill="midnightblue" stroke="midnightblue" points="1424.49,-147.45 1426.28,-137.01 1418.37,-144.06 1424.49,-147.45"/>
</g>
<!-- Node27 -->
<g id="node27" class="node">
<title>Node27</title>
<g id="a_node27"><a xlink:title=" ">
<polygon fill="white" stroke="#bfbfbf" points="1471,-118 1471,-137 1531,-137 1531,-118 1471,-118"/>
<text text-anchor="middle" x="1501" y="-125" font-family="Helvetica,sans-Serif" font-size="10.00">iostream</text>
</a>
</g>
</g>
<!-- Node23&#45;&gt;Node27 -->
<g id="edge40" class="edge">
<title>Node23&#45;&gt;Node27</title>
<path fill="none" stroke="midnightblue" d="M1412.76,-179.48C1429.66,-169.71 1457.58,-153.58 1477.49,-142.08"/>
<polygon fill="midnightblue" stroke="midnightblue" points="1479.36,-145.04 1486.27,-137.01 1475.86,-138.98 1479.36,-145.04"/>
</g>
<!-- Node28 -->
<g id="node28" class="node">
<title>Node28</title>
<g id="a_node28"><a xlink:title=" ">
<polygon fill="white" stroke="#bfbfbf" points="1625,-118 1625,-137 1681,-137 1681,-118 1625,-118"/>
<text text-anchor="middle" x="1653" y="-125" font-family="Helvetica,sans-Serif" font-size="10.00">sstream</text>
</a>
</g>
</g>
<!-- Node23&#45;&gt;Node28 -->
<g id="edge41" class="edge">
<title>Node23&#45;&gt;Node28</title>
<path fill="none" stroke="midnightblue" d="M1432.25,-182.12C1474.6,-174.54 1548.72,-160.26 1611,-143 1613.95,-142.18 1617,-141.27 1620.04,-140.31"/>
<polygon fill="midnightblue" stroke="midnightblue" points="1621.22,-143.61 1629.62,-137.15 1619.02,-136.96 1621.22,-143.61"/>
</g>
<!-- Node29&#45;&gt;Node3 -->
<g id="edge46" class="edge">
<title>Node29&#45;&gt;Node3</title>
<path fill="none" stroke="midnightblue" d="M1061.59,-235.44C1032.23,-226.28 985.48,-211.69 952.9,-201.52"/>
<polygon fill="midnightblue" stroke="midnightblue" points="953.87,-198.16 943.28,-198.52 951.79,-204.84 953.87,-198.16"/>
</g>
<!-- Node29&#45;&gt;Node5 -->
<g id="edge47" class="edge">
<title>Node29&#45;&gt;Node5</title>
<path fill="none" stroke="midnightblue" d="M1086.49,-235.46C1078.52,-208.31 1053.6,-123.51 1042.47,-85.62"/>
<polygon fill="midnightblue" stroke="midnightblue" points="1045.78,-84.48 1039.61,-75.87 1039.07,-86.45 1045.78,-84.48"/>
</g>
<!-- Node29&#45;&gt;Node13 -->
<g id="edge48" class="edge">
<title>Node29&#45;&gt;Node13</title>
<path fill="none" stroke="midnightblue" d="M1038.14,-235.43C987.55,-226.77 907.76,-212.74 839,-199 798.39,-190.89 788.84,-185.84 748,-179 624.38,-158.31 479.62,-143.36 391.92,-135.31"/>
<polygon fill="midnightblue" stroke="midnightblue" points="392.05,-131.81 381.78,-134.39 391.42,-138.78 392.05,-131.81"/>
</g>
<!-- Node29&#45;&gt;Node15 -->
<g id="edge49" class="edge">
<title>Node29&#45;&gt;Node15</title>
<path fill="none" stroke="midnightblue" d="M1098.17,-235.32C1118.66,-215.92 1168.4,-168.83 1194.46,-144.16"/>
<polygon fill="midnightblue" stroke="midnightblue" points="1196.87,-146.7 1201.72,-137.28 1192.06,-141.62 1196.87,-146.7"/>
</g>
<!-- Node30&#45;&gt;Node5 -->
<g id="edge56" class="edge">
<title>Node30&#45;&gt;Node5</title>
<path fill="none" stroke="midnightblue" d="M1957.29,-187.66C1900.33,-185.62 1803.31,-176.87 1728,-143 1708.12,-134.06 1710.3,-119.94 1690,-112 1568.29,-64.4 1233.06,-88.84 1103,-76 1099.72,-75.68 1096.35,-75.31 1092.96,-74.92"/>
<polygon fill="midnightblue" stroke="midnightblue" points="1093.1,-71.41 1082.75,-73.69 1092.26,-78.36 1093.1,-71.41"/>
</g>
<!-- Node30&#45;&gt;Node11 -->
<g id="edge65" class="edge">
<title>Node30&#45;&gt;Node11</title>
<path fill="none" stroke="midnightblue" d="M2015.57,-179.47C2025.18,-171.15 2039.04,-157.65 2047,-143 2056.72,-125.12 2061.57,-102.17 2063.92,-86.19"/>
<polygon fill="midnightblue" stroke="midnightblue" points="2067.43,-86.32 2065.23,-75.95 2060.49,-85.43 2067.43,-86.32"/>
</g>
<!-- Node30&#45;&gt;Node15 -->
<g id="edge68" class="edge">
<title>Node30&#45;&gt;Node15</title>
<path fill="none" stroke="midnightblue" d="M1957.47,-187.53C1812.64,-185.75 1378.43,-177.58 1242,-143 1240.01,-142.5 1238,-141.87 1236,-141.15"/>
<polygon fill="midnightblue" stroke="midnightblue" points="1236.92,-137.74 1226.34,-137.07 1234.2,-144.19 1236.92,-137.74"/>
</g>
<!-- Node30&#45;&gt;Node28 -->
<g id="edge66" class="edge">
<title>Node30&#45;&gt;Node28</title>
<path fill="none" stroke="midnightblue" d="M1957.47,-183.91C1896.17,-177.99 1786.56,-165.24 1695,-143 1691.78,-142.22 1688.45,-141.29 1685.15,-140.28"/>
<polygon fill="midnightblue" stroke="midnightblue" points="1686.03,-136.89 1675.44,-137.12 1683.86,-143.55 1686.03,-136.89"/>
</g>
<!-- Node31 -->
<g id="node31" class="node">
<title>Node31</title>
<g id="a_node31"><a xlink:href="serv__exception_8hpp.html" target="_top" xlink:title=" ">
<polygon fill="white" stroke="black" points="2094,-118 2094,-137 2206,-137 2206,-118 2094,-118"/>
<text text-anchor="middle" x="2150" y="-125" font-family="Helvetica,sans-Serif" font-size="10.00">serv_exception.hpp</text>
</a>
</g>
</g>
<!-- Node30&#45;&gt;Node31 -->
<g id="edge51" class="edge">
<title>Node30&#45;&gt;Node31</title>
<path fill="none" stroke="midnightblue" d="M2025.77,-179.48C2050.43,-169.36 2091.75,-152.4 2119.9,-140.85"/>
<polygon fill="midnightblue" stroke="midnightblue" points="2121.34,-144.04 2129.26,-137.01 2118.68,-137.57 2121.34,-144.04"/>
</g>
<!-- Node34 -->
<g id="node34" class="node">
<title>Node34</title>
<g id="a_node34"><a xlink:title=" ">
<polygon fill="white" stroke="#bfbfbf" points="2224.5,-118 2224.5,-137 2271.5,-137 2271.5,-118 2224.5,-118"/>
<text text-anchor="middle" x="2248" y="-125" font-family="Helvetica,sans-Serif" font-size="10.00">fcntl.h</text>
</a>
</g>
</g>
<!-- Node30&#45;&gt;Node34 -->
<g id="edge57" class="edge">
<title>Node30&#45;&gt;Node34</title>
<path fill="none" stroke="midnightblue" d="M2052.85,-180.6C2095.89,-173.27 2160.54,-160.6 2215,-143 2216.92,-142.38 2218.88,-141.69 2220.84,-140.95"/>
<polygon fill="midnightblue" stroke="midnightblue" points="2222.52,-144.04 2230.45,-137 2219.87,-137.56 2222.52,-144.04"/>
</g>
<!-- Node35 -->
<g id="node35" class="node">
<title>Node35</title>
<g id="a_node35"><a xlink:title=" ">
<polygon fill="white" stroke="#bfbfbf" points="2289.5,-118 2289.5,-137 2342.5,-137 2342.5,-118 2289.5,-118"/>
<text text-anchor="middle" x="2316" y="-125" font-family="Helvetica,sans-Serif" font-size="10.00">netdb.h</text>
</a>
</g>
</g>
<!-- Node30&#45;&gt;Node35 -->
<g id="edge58" class="edge">
<title>Node30&#45;&gt;Node35</title>
<path fill="none" stroke="midnightblue" d="M2052.61,-183.62C2108.2,-177.72 2202.55,-165.32 2281,-143 2283.3,-142.35 2285.64,-141.59 2287.98,-140.77"/>
<polygon fill="midnightblue" stroke="midnightblue" points="2289.32,-144 2297.39,-137.14 2286.8,-137.47 2289.32,-144"/>
</g>
<!-- Node36 -->
<g id="node36" class="node">
<title>Node36</title>
<g id="a_node36"><a xlink:title=" ">
<polygon fill="white" stroke="#bfbfbf" points="2361,-118 2361,-137 2433,-137 2433,-118 2361,-118"/>
<text text-anchor="middle" x="2397" y="-125" font-family="Helvetica,sans-Serif" font-size="10.00">netinet/in.h</text>
</a>
</g>
</g>
<!-- Node30&#45;&gt;Node36 -->
<g id="edge59" class="edge">
<title>Node30&#45;&gt;Node36</title>
<path fill="none" stroke="midnightblue" d="M2052.62,-184.59C2119.94,-179.16 2246.48,-166.63 2352,-143 2355.66,-142.18 2359.45,-141.19 2363.2,-140.12"/>
<polygon fill="midnightblue" stroke="midnightblue" points="2364.39,-143.41 2372.94,-137.15 2362.35,-136.72 2364.39,-143.41"/>
</g>
<!-- Node37 -->
<g id="node37" class="node">
<title>Node37</title>
<g id="a_node37"><a xlink:title=" ">
<polygon fill="white" stroke="#bfbfbf" points="2451,-118 2451,-137 2529,-137 2529,-118 2451,-118"/>
<text text-anchor="middle" x="2490" y="-125" font-family="Helvetica,sans-Serif" font-size="10.00">netinet/tcp.h</text>
</a>
</g>
</g>
<!-- Node30&#45;&gt;Node37 -->
<g id="edge60" class="edge">
<title>Node30&#45;&gt;Node37</title>
<path fill="none" stroke="midnightblue" d="M2052.65,-186.07C2133.44,-182.13 2302.16,-171.05 2442,-143 2446.22,-142.15 2450.61,-141.09 2454.94,-139.93"/>
<polygon fill="midnightblue" stroke="midnightblue" points="2456.17,-143.21 2464.82,-137.09 2454.24,-136.49 2456.17,-143.21"/>
</g>
<!-- Node38 -->
<g id="node38" class="node">
<title>Node38</title>
<g id="a_node38"><a xlink:title=" ">
<polygon fill="white" stroke="#bfbfbf" points="2547.5,-118 2547.5,-137 2624.5,-137 2624.5,-118 2547.5,-118"/>
<text text-anchor="middle" x="2586" y="-125" font-family="Helvetica,sans-Serif" font-size="10.00">sys/socket.h</text>
</a>
</g>
</g>
<!-- Node30&#45;&gt;Node38 -->
<g id="edge61" class="edge">
<title>Node30&#45;&gt;Node38</title>
<path fill="none" stroke="midnightblue" d="M2052.51,-187.31C2146.2,-185.22 2361.05,-176.81 2538,-143 2542.45,-142.15 2547.07,-141.05 2551.62,-139.83"/>
<polygon fill="midnightblue" stroke="midnightblue" points="2552.69,-143.16 2561.33,-137.03 2550.76,-136.43 2552.69,-143.16"/>
</g>
<!-- Node39 -->
<g id="node39" class="node">
<title>Node39</title>
<g id="a_node39"><a xlink:title=" ">
<polygon fill="white" stroke="#bfbfbf" points="1737,-118 1737,-137 1809,-137 1809,-118 1737,-118"/>
<text text-anchor="middle" x="1773" y="-125" font-family="Helvetica,sans-Serif" font-size="10.00">sys/types.h</text>
</a>
</g>
</g>
<!-- Node30&#45;&gt;Node39 -->
<g id="edge62" class="edge">
<title>Node30&#45;&gt;Node39</title>
<path fill="none" stroke="midnightblue" d="M1965.74,-179.46C1927.74,-170.98 1868.63,-157.23 1818,-143 1814.84,-142.11 1811.57,-141.15 1808.3,-140.15"/>
<polygon fill="midnightblue" stroke="midnightblue" points="1809.19,-136.76 1798.6,-137.12 1807.1,-143.44 1809.19,-136.76"/>
</g>
<!-- Node40 -->
<g id="node40" class="node">
<title>Node40</title>
<g id="a_node40"><a xlink:title=" ">
<polygon fill="white" stroke="#bfbfbf" points="1827,-118 1827,-137 1883,-137 1883,-118 1827,-118"/>
<text text-anchor="middle" x="1855" y="-125" font-family="Helvetica,sans-Serif" font-size="10.00">unistd.h</text>
</a>
</g>
</g>
<!-- Node30&#45;&gt;Node40 -->
<g id="edge63" class="edge">
<title>Node30&#45;&gt;Node40</title>
<path fill="none" stroke="midnightblue" d="M1983.51,-179.48C1957.89,-169.31 1914.89,-152.26 1885.76,-140.7"/>
<polygon fill="midnightblue" stroke="midnightblue" points="1887.04,-137.44 1876.45,-137.01 1884.46,-143.95 1887.04,-137.44"/>
</g>
<!-- Node41 -->
<g id="node41" class="node">
<title>Node41</title>
<g id="a_node41"><a xlink:title=" ">
<polygon fill="white" stroke="#bfbfbf" points="1901.5,-118 1901.5,-137 1954.5,-137 1954.5,-118 1901.5,-118"/>
<text text-anchor="middle" x="1928" y="-125" font-family="Helvetica,sans-Serif" font-size="10.00">cstddef</text>
</a>
</g>
</g>
<!-- Node30&#45;&gt;Node41 -->
<g id="edge64" class="edge">
<title>Node30&#45;&gt;Node41</title>
<path fill="none" stroke="midnightblue" d="M1993.97,-179.48C1981.73,-170.02 1961.77,-154.6 1947.01,-143.19"/>
<polygon fill="midnightblue" stroke="midnightblue" points="1949.06,-140.35 1939.01,-137.01 1944.78,-145.89 1949.06,-140.35"/>
</g>
<!-- Node42 -->
<g id="node42" class="node">
<title>Node42</title>
<g id="a_node42"><a xlink:title=" ">
<polygon fill="white" stroke="#bfbfbf" points="1972.5,-118 1972.5,-137 2037.5,-137 2037.5,-118 1972.5,-118"/>
<text text-anchor="middle" x="2005" y="-125" font-family="Helvetica,sans-Serif" font-size="10.00">stdexcept</text>
</a>
</g>
</g>
<!-- Node30&#45;&gt;Node42 -->
<g id="edge67" class="edge">
<title>Node30&#45;&gt;Node42</title>
<path fill="none" stroke="midnightblue" d="M2005,-179.48C2005,-171.08 2005,-157.98 2005,-147.16"/>
<polygon fill="midnightblue" stroke="midnightblue" points="2008.5,-147.01 2005,-137.01 2001.5,-147.01 2008.5,-147.01"/>
</g>
<!-- Node31&#45;&gt;Node5 -->
<g id="edge52" class="edge">
<title>Node31&#45;&gt;Node5</title>
<path fill="none" stroke="midnightblue" d="M2096.93,-117.98C2080.92,-115.69 2063.28,-113.45 2047,-112 1628.8,-74.69 1521.28,-112.41 1103,-76 1099.72,-75.71 1096.35,-75.38 1092.95,-75.01"/>
<polygon fill="midnightblue" stroke="midnightblue" points="1093.07,-71.5 1082.74,-73.82 1092.26,-78.46 1093.07,-71.5"/>
</g>
<!-- Node31&#45;&gt;Node11 -->
<g id="edge54" class="edge">
<title>Node31&#45;&gt;Node11</title>
<path fill="none" stroke="midnightblue" d="M2137.96,-117.98C2124.49,-108.43 2102.43,-92.81 2086.28,-81.37"/>
<polygon fill="midnightblue" stroke="midnightblue" points="2088.2,-78.43 2078.01,-75.51 2084.15,-84.15 2088.2,-78.43"/>
</g>
<!-- Node32 -->
<g id="node32" class="node">
<title>Node32</title>
<g id="a_node32"><a xlink:title=" ">
<polygon fill="white" stroke="#bfbfbf" points="2126.5,-56.5 2126.5,-75.5 2173.5,-75.5 2173.5,-56.5 2126.5,-56.5"/>
<text text-anchor="middle" x="2150" y="-63.5" font-family="Helvetica,sans-Serif" font-size="10.00">cerrno</text>
</a>
</g>
</g>
<!-- Node31&#45;&gt;Node32 -->
<g id="edge53" class="edge">
<title>Node31&#45;&gt;Node32</title>
<path fill="none" stroke="midnightblue" d="M2150,-117.98C2150,-109.58 2150,-96.48 2150,-85.66"/>
<polygon fill="midnightblue" stroke="midnightblue" points="2153.5,-85.51 2150,-75.51 2146.5,-85.51 2153.5,-85.51"/>
</g>
<!-- Node31&#45;&gt;Node33 -->
<g id="edge55" class="edge">
<title>Node31&#45;&gt;Node33</title>
<path fill="none" stroke="midnightblue" d="M2188.37,-117.96C2197.42,-115.98 2207.05,-113.89 2216,-112 2278.29,-98.85 2350.58,-84.33 2395.31,-75.44"/>
<polygon fill="midnightblue" stroke="midnightblue" points="2396.11,-78.85 2405.24,-73.47 2394.75,-71.98 2396.11,-78.85"/>
</g>
</g>
</svg>
        <g id="navigator" transform="translate(0 0)" fill="#404254">
                <rect fill="#f2f5e9" fill-opacity="0.5" stroke="#606060" stroke-width=".5" x="0" y="0" width="60" height="60"/>
                <use id="zoomplus" xlink:href="#zoomPlus" x="17" y="9" onmousedown="handleZoom(evt,'in')"/>
                <use id="zoomminus" xlink:href="#zoomMin" x="42" y="9" onmousedown="handleZoom(evt,'out')"/>
                <use id="reset" xlink:href="#resetDef" x="30" y="36" onmousedown="handleReset()"/>
                <g id="arrowUp" xlink:href="#dirArrow" transform="translate(30 24)" onmousedown="handlePan(0,-1)">
                  <use xlink:href="#rim" fill="#404040">
                        <set attributeName="fill" to="#808080" begin="arrowUp.mouseover" end="arrowUp.mouseout"/>
                  </use>
                  <path fill="none" stroke="white" stroke-width="1.5" d="M0,-3.0v7 M-2.5,-0.5L0,-3.0L2.5,-0.5"/>
                </g>
                <g id="arrowRight" xlink:href="#dirArrow" transform="rotate(90) translate(36 -43)" onmousedown="handlePan(1,0)">
                  <use xlink:href="#rim" fill="#404040">
                        <set attributeName="fill" to="#808080" begin="arrowRight.mouseover" end="arrowRight.mouseout"/>
                  </use>
                  <path fill="none" stroke="white" stroke-width="1.5" d="M0,-3.0v7 M-2.5,-0.5L0,-3.0L2.5,-0.5"/>
                </g>
                <g id="arrowDown" xlink:href="#dirArrow" transform="rotate(180) translate(-30 -48)" onmousedown="handlePan(0,1)">
                  <use xlink:href="#rim" fill="#404040">
                        <set attributeName="fill" to="#808080" begin="arrowDown.mouseover" end="arrowDown.mouseout"/>
                  </use>
                  <path fill="none" stroke="white" stroke-width="1.5" d="M0,-3.0v7 M-2.5,-0.5L0,-3.0L2.5,-0.5"/>
                </g>
                <g id="arrowLeft" xlink:href="#dirArrow" transform="rotate(270) translate(-36 17)" onmousedown="handlePan(-1,0)">
                  <use xlink:href="#rim" fill="#404040">
                        <set attributeName="fill" to="#808080" begin="arrowLeft.mouseover" end="arrowLeft.mouseout"/>
                  </use>
                  <path fill="none" stroke="white" stroke-width="1.5" d="M0,-3.0v7 M-2.5,-0.5L0,-3.0L2.5,-0.5"/>
                </g>
        </g>
        <svg viewBox="0 0 15 15" width="100%" height="30px" preserveAspectRatio="xMaxYMin meet">
         <g id="arrow_out" transform="scale(0.3 0.3)">
          <a xlink:href="bootstrap_8cpp__incl_org.svg" target="_base">
           <rect id="button" ry="5" rx="5" y="6" x="6" height="38" width="38"
                fill="#f2f5e9" fill-opacity="0.5" stroke="#606060" stroke-width="1.0"/>
           <path id="arrow"
             d="M 11.500037,31.436501 C 11.940474,20.09759 22.043105,11.32322 32.158766,21.979434 L 37.068811,17.246167 C 37.068811,17.246167 37.088388,32 37.088388,32 L 22.160133,31.978069 C 22.160133,31.978069 26.997745,27.140456 26.997745,27.140456 C 18.528582,18.264221 13.291696,25.230495 11.500037,31.436501 z"
             style="fill:#404040;"/>
          </a>
         </g>
        </svg>
</svg>
