<?xml version="1.0" encoding="UTF-8" standalone="no"?>
<!DOCTYPE svg PUBLIC "-//W3C//DTD SVG 1.1//EN"
 "http://www.w3.org/Graphics/SVG/1.1/DTD/svg11.dtd">
<!-- Generated by graphviz version 2.43.0 (0)
 -->
<!-- Title: includes/libserv/bootstrap.cpp Pages: 1 -->
<!--zoomable 375 -->
<svg id="main" version="1.1" xmlns="http://www.w3.org/2000/svg" xmlns:xlink="http://www.w3.org/1999/xlink" xml:space="preserve" onload="init(evt)">
<style type="text/css"><![CDATA[
.edge:hover path { stroke: red; }
.edge:hover polygon { stroke: red; fill: red; }
]]></style>
<script type="text/javascript"><![CDATA[
var edges = document.getElementsByTagName('g');
if (edges && edges.length) {
  for (var i=0;i<edges.length;i++) {
    if (edges[i].id.substr(0,4)=='edge') {
      edges[i].setAttribute('class','edge');
    }
  }
}
]]></script>
        <defs>
                <circle id="rim" cx="0" cy="0" r="7"/>
                <circle id="rim2" cx="0" cy="0" r="3.5"/>
                <g id="zoomPlus">
                        <use xlink:href="#rim" fill="#404040">
                                <set attributeName="fill" to="#808080" begin="zoomplus.mouseover" end="zoomplus.mouseout"/>
                        </use>
                        <path d="M-4,0h8M0,-4v8" fill="none" stroke="white" stroke-width="1.5" pointer-events="none"/>
                </g>
                <g id="zoomMin">
                        <use xlink:href="#rim" fill="#404040">
                                <set attributeName="fill" to="#808080" begin="zoomminus.mouseover" end="zoomminus.mouseout"/>
                        </use>
                        <path d="M-4,0h8" fill="none" stroke="white" stroke-width="1.5" pointer-events="none"/>
                </g>
                <g id="dirArrow">
                        <path fill="none" stroke="white" stroke-width="1.5" d="M0,-3.0v7 M-2.5,-0.5L0,-3.0L2.5,-0.5"/>
                </g>
               <g id="resetDef">
                       <use xlink:href="#rim2" fill="#404040">
                               <set attributeName="fill" to="#808080" begin="reset.mouseover" end="reset.mouseout"/>
                       </use>
               </g>
        </defs>

<script type="text/javascript">
var viewWidth = 2593;
var viewHeight = 375;
var sectionId = 'dynsection-0';
</script>
<script xlink:href="svgpan.js"/>
<svg id="graph" class="graph">
<g id="viewport">
<title>includes/libserv/bootstrap.cpp</title>
<polygon fill="white" stroke="transparent" points="-4,4 -4,-371 2588.59,-371 2588.59,4 -4,4"/>
<!-- Node1 -->
<g id="node1" class="node">
<title>Node1</title>
<g id="a_node1"><a xlink:title=" ">
<polygon fill="#bfbfbf" stroke="black" points="970.5,-347.5 970.5,-366.5 1133.5,-366.5 1133.5,-347.5 970.5,-347.5"/>
<text text-anchor="middle" x="1052" y="-354.5" font-family="Helvetica,sans-Serif" font-size="10.00">includes/libserv/bootstrap.cpp</text>
</a>
</g>
</g>
<!-- Node2 -->
<g id="node2" class="node">
<title>Node2</title>
<g id="a_node2"><a xlink:href="bootstrap_8hpp.html" target="_top" xlink:title=" ">
<polygon fill="white" stroke="black" points="894,-235.5 894,-254.5 978,-254.5 978,-235.5 894,-235.5"/>
<text text-anchor="middle" x="936" y="-242.5" font-family="Helvetica,sans-Serif" font-size="10.00">bootstrap.hpp</text>
</a>
</g>
</g>
<!-- Node1&#45;&gt;Node2 -->
<g id="edge1" class="edge">
<title>Node1&#45;&gt;Node2</title>
<path fill="none" stroke="midnightblue" d="M1042.9,-347.37C1023.42,-328.89 977.44,-285.29 952.6,-261.74"/>
<polygon fill="midnightblue" stroke="midnightblue" points="954.72,-258.93 945.06,-254.59 949.91,-264.01 954.72,-258.93"/>
</g>
<!-- Node5 -->
<g id="node5" class="node">
<title>Node5</title>
<g id="a_node5"><a xlink:href="serv__types_8hpp.html" target="_top" xlink:title=" ">
<polygon fill="white" stroke="black" points="992.5,-56.5 992.5,-75.5 1083.5,-75.5 1083.5,-56.5 992.5,-56.5"/>
<text text-anchor="middle" x="1038" y="-63.5" font-family="Helvetica,sans-Serif" font-size="10.00">serv_types.hpp</text>
</a>
</g>
</g>
<!-- Node1&#45;&gt;Node5 -->
<g id="edge44" class="edge">
<title>Node1&#45;&gt;Node5</title>
<path fill="none" stroke="midnightblue" d="M970.33,-356C723.15,-354.92 0,-343.44 0,-246 0,-246 0,-246 0,-188 0,-134.62 43.16,-131.12 93,-112 175.86,-80.21 792.48,-70.02 982.45,-67.62"/>
<polygon fill="midnightblue" stroke="midnightblue" points="982.54,-71.12 992.5,-67.5 982.46,-64.12 982.54,-71.12"/>
</g>
<!-- Node13 -->
<g id="node13" class="node">
<title>Node13</title>
<g id="a_node13"><a xlink:title=" ">
<polygon fill="white" stroke="#bfbfbf" points="102.5,-118 102.5,-137 241.5,-137 241.5,-118 102.5,-118"/>
<text text-anchor="middle" x="172" y="-125" font-family="Helvetica,sans-Serif" font-size="10.00">smart_ptr/shared_ptr.hpp</text>
</a>
</g>
</g>
<!-- Node1&#45;&gt;Node13 -->
<g id="edge68" class="edge">
<title>Node1&#45;&gt;Node13</title>
<path fill="none" stroke="midnightblue" d="M970.32,-355.65C779.91,-353.41 313.02,-339.23 185,-255 154.09,-234.66 143.76,-215.29 151,-179 153.27,-167.65 158.14,-155.66 162.62,-146.21"/>
<polygon fill="midnightblue" stroke="midnightblue" points="165.83,-147.61 167.18,-137.1 159.57,-144.47 165.83,-147.61"/>
</g>
<!-- Node15 -->
<g id="node15" class="node">
<title>Node15</title>
<g id="a_node15"><a xlink:title=" ">
<polygon fill="white" stroke="#bfbfbf" points="1190,-118 1190,-137 1234,-137 1234,-118 1190,-118"/>
<text text-anchor="middle" x="1212" y="-125" font-family="Helvetica,sans-Serif" font-size="10.00">string</text>
</a>
</g>
</g>
<!-- Node1&#45;&gt;Node15 -->
<g id="edge70" class="edge">
<title>Node1&#45;&gt;Node15</title>
<path fill="none" stroke="midnightblue" d="M1058.08,-347.36C1081.79,-313.65 1168.34,-190.58 1200.16,-145.34"/>
<polygon fill="midnightblue" stroke="midnightblue" points="1203.03,-147.34 1205.92,-137.15 1197.3,-143.32 1203.03,-147.34"/>
</g>
<!-- Node16 -->
<g id="node16" class="node">
<title>Node16</title>
<g id="a_node16"><a xlink:href="event__worker__group_8hpp.html" target="_top" xlink:title=" ">
<polygon fill="white" stroke="black" points="595.5,-291.5 595.5,-310.5 732.5,-310.5 732.5,-291.5 595.5,-291.5"/>
<text text-anchor="middle" x="664" y="-298.5" font-family="Helvetica,sans-Serif" font-size="10.00">event_worker_group.hpp</text>
</a>
</g>
</g>
<!-- Node1&#45;&gt;Node16 -->
<g id="edge19" class="edge">
<title>Node1&#45;&gt;Node16</title>
<path fill="none" stroke="midnightblue" d="M990.52,-347.44C921.13,-337.79 808.42,-322.1 735.25,-311.92"/>
<polygon fill="midnightblue" stroke="midnightblue" points="735.58,-308.43 725.19,-310.52 734.61,-315.36 735.58,-308.43"/>
</g>
<!-- Node23 -->
<g id="node23" class="node">
<title>Node23</title>
<g id="a_node23"><a xlink:href="logger_8hpp.html" target="_top" xlink:title=" ">
<polygon fill="white" stroke="black" points="1331,-179.5 1331,-198.5 1399,-198.5 1399,-179.5 1331,-179.5"/>
<text text-anchor="middle" x="1365" y="-186.5" font-family="Helvetica,sans-Serif" font-size="10.00">logger.hpp</text>
</a>
</g>
</g>
<!-- Node1&#45;&gt;Node23 -->
<g id="edge34" class="edge">
<title>Node1&#45;&gt;Node23</title>
<path fill="none" stroke="midnightblue" d="M1107.16,-347.47C1141.06,-340.75 1184.62,-329.35 1220,-311 1273.84,-283.07 1325.58,-232.33 1350.14,-206.32"/>
<polygon fill="midnightblue" stroke="midnightblue" points="1352.88,-208.51 1357.13,-198.81 1347.76,-203.75 1352.88,-208.51"/>
</g>
<!-- Node29 -->
<g id="node29" class="node">
<title>Node29</title>
<g id="a_node29"><a xlink:href="server__channel_8hpp.html" target="_top" xlink:title=" ">
<polygon fill="white" stroke="black" points="996,-235.5 996,-254.5 1108,-254.5 1108,-235.5 996,-235.5"/>
<text text-anchor="middle" x="1052" y="-242.5" font-family="Helvetica,sans-Serif" font-size="10.00">server_channel.hpp</text>
</a>
</g>
</g>
<!-- Node1&#45;&gt;Node29 -->
<g id="edge45" class="edge">
<title>Node1&#45;&gt;Node29</title>
<path fill="none" stroke="midnightblue" d="M1052,-347.37C1052,-329.62 1052,-288.67 1052,-264.6"/>
<polygon fill="midnightblue" stroke="midnightblue" points="1055.5,-264.59 1052,-254.59 1048.5,-264.59 1055.5,-264.59"/>
</g>
<!-- Node30 -->
<g id="node30" class="node">
<title>Node30</title>
<g id="a_node30"><a xlink:href="socket__utils_8hpp.html" target="_top" xlink:title=" ">
<polygon fill="white" stroke="black" points="1900.5,-179.5 1900.5,-198.5 1995.5,-198.5 1995.5,-179.5 1900.5,-179.5"/>
<text text-anchor="middle" x="1948" y="-186.5" font-family="Helvetica,sans-Serif" font-size="10.00">socket_utils.hpp</text>
</a>
</g>
</g>
<!-- Node1&#45;&gt;Node30 -->
<g id="edge50" class="edge">
<title>Node1&#45;&gt;Node30</title>
<path fill="none" stroke="midnightblue" d="M1097.97,-347.48C1248.72,-319.55 1727.72,-230.81 1892.04,-200.37"/>
<polygon fill="midnightblue" stroke="midnightblue" points="1892.75,-203.8 1901.94,-198.53 1891.47,-196.91 1892.75,-203.8"/>
</g>
<!-- Node33 -->
<g id="node33" class="node">
<title>Node33</title>
<g id="a_node33"><a xlink:title=" ">
<polygon fill="white" stroke="#bfbfbf" points="2290.5,-56.5 2290.5,-75.5 2355.5,-75.5 2355.5,-56.5 2290.5,-56.5"/>
<text text-anchor="middle" x="2323" y="-63.5" font-family="Helvetica,sans-Serif" font-size="10.00">exception</text>
</a>
</g>
</g>
<!-- Node1&#45;&gt;Node33 -->
<g id="edge69" class="edge">
<title>Node1&#45;&gt;Node33</title>
<path fill="none" stroke="midnightblue" d="M1133.5,-354.45C1450.39,-347.9 2583,-319.35 2583,-246 2583,-246 2583,-246 2583,-188 2583,-153.18 2589.35,-135.87 2564,-112 2535.95,-85.59 2427.06,-74.03 2365.69,-69.52"/>
<polygon fill="midnightblue" stroke="midnightblue" points="2365.76,-66.02 2355.54,-68.81 2365.27,-73 2365.76,-66.02"/>
</g>
<!-- Node3 -->
<g id="node3" class="node">
<title>Node3</title>
<g id="a_node3"><a xlink:href="event__channel__base_8hpp.html" target="_top" xlink:title=" ">
<polygon fill="white" stroke="black" points="848.5,-179.5 848.5,-198.5 985.5,-198.5 985.5,-179.5 848.5,-179.5"/>
<text text-anchor="middle" x="917" y="-186.5" font-family="Helvetica,sans-Serif" font-size="10.00">event_channel_base.hpp</text>
</a>
</g>
</g>
<!-- Node2&#45;&gt;Node3 -->
<g id="edge2" class="edge">
<title>Node2&#45;&gt;Node3</title>
<path fill="none" stroke="midnightblue" d="M932.86,-235.08C930.32,-227.85 926.64,-217.41 923.47,-208.4"/>
<polygon fill="midnightblue" stroke="midnightblue" points="926.7,-207.02 920.08,-198.75 920.1,-209.35 926.7,-207.02"/>
</g>
<!-- Node2&#45;&gt;Node5 -->
<g id="edge16" class="edge">
<title>Node2&#45;&gt;Node5</title>
<path fill="none" stroke="midnightblue" d="M952.22,-235.35C965.48,-227.5 983.82,-214.76 995,-199 1020.14,-163.57 1031.19,-112.59 1035.54,-85.53"/>
<polygon fill="midnightblue" stroke="midnightblue" points="1039.02,-85.91 1037.01,-75.51 1032.09,-84.89 1039.02,-85.91"/>
</g>
<!-- Node2&#45;&gt;Node13 -->
<g id="edge17" class="edge">
<title>Node2&#45;&gt;Node13</title>
<path fill="none" stroke="midnightblue" d="M896.37,-235.44C861.94,-227.51 810.99,-214.62 768,-199 748.19,-191.8 745.36,-184.44 725,-179 545.7,-131.14 493.73,-160.77 309,-143 290.43,-141.21 270.47,-139.17 251.67,-137.19"/>
<polygon fill="midnightblue" stroke="midnightblue" points="251.98,-133.71 241.67,-136.13 251.25,-140.67 251.98,-133.71"/>
</g>
<!-- Node2&#45;&gt;Node15 -->
<g id="edge18" class="edge">
<title>Node2&#45;&gt;Node15</title>
<path fill="none" stroke="midnightblue" d="M957.77,-235.42C1000.73,-218.4 1099.3,-178.93 1181,-143 1182.19,-142.48 1183.41,-141.93 1184.64,-141.38"/>
<polygon fill="midnightblue" stroke="midnightblue" points="1186.4,-144.42 1194.03,-137.08 1183.48,-138.06 1186.4,-144.42"/>
</g>
<!-- Node4 -->
<g id="node4" class="node">
<title>Node4</title>
<g id="a_node4"><a xlink:href="byte__buffer_8hpp.html" target="_top" xlink:title=" ">
<polygon fill="white" stroke="black" points="1080,-118 1080,-137 1172,-137 1172,-118 1080,-118"/>
<text text-anchor="middle" x="1126" y="-125" font-family="Helvetica,sans-Serif" font-size="10.00">byte_buffer.hpp</text>
</a>
</g>
</g>
<!-- Node3&#45;&gt;Node4 -->
<g id="edge3" class="edge">
<title>Node3&#45;&gt;Node4</title>
<path fill="none" stroke="midnightblue" d="M946.94,-179.48C983.57,-169.05 1045.7,-151.36 1086.28,-139.81"/>
<polygon fill="midnightblue" stroke="midnightblue" points="1087.45,-143.11 1096.11,-137.01 1085.53,-136.38 1087.45,-143.11"/>
</g>
<!-- Node3&#45;&gt;Node5 -->
<g id="edge11" class="edge">
<title>Node3&#45;&gt;Node5</title>
<path fill="none" stroke="midnightblue" d="M887.88,-179.44C870.36,-172.62 849.48,-161.14 839,-143 832.11,-131.07 830.4,-122.76 839,-112 856.62,-89.95 929.43,-77.91 981.88,-71.97"/>
<polygon fill="midnightblue" stroke="midnightblue" points="982.52,-75.42 992.08,-70.86 981.76,-68.46 982.52,-75.42"/>
</g>
<!-- Node12 -->
<g id="node12" class="node">
<title>Node12</title>
<g id="a_node12"><a xlink:title=" ">
<polygon fill="white" stroke="#bfbfbf" points="848,-112.5 848,-142.5 986,-142.5 986,-112.5 848,-112.5"/>
<text text-anchor="start" x="856" y="-130.5" font-family="Helvetica,sans-Serif" font-size="10.00">smart_ptr/enable_shared</text>
<text text-anchor="middle" x="917" y="-119.5" font-family="Helvetica,sans-Serif" font-size="10.00">_from_this.hpp</text>
</a>
</g>
</g>
<!-- Node3&#45;&gt;Node12 -->
<g id="edge12" class="edge">
<title>Node3&#45;&gt;Node12</title>
<path fill="none" stroke="midnightblue" d="M917,-179.48C917,-172.47 917,-162.19 917,-152.7"/>
<polygon fill="midnightblue" stroke="midnightblue" points="920.5,-152.52 917,-142.52 913.5,-152.52 920.5,-152.52"/>
</g>
<!-- Node3&#45;&gt;Node13 -->
<g id="edge13" class="edge">
<title>Node3&#45;&gt;Node13</title>
<path fill="none" stroke="midnightblue" d="M848.21,-182.88C831.15,-181.61 812.91,-180.25 796,-179 579.56,-162.95 525.16,-162.42 309,-143 290.42,-141.33 270.45,-139.33 251.66,-137.36"/>
<polygon fill="midnightblue" stroke="midnightblue" points="251.97,-133.87 241.65,-136.3 251.23,-140.84 251.97,-133.87"/>
</g>
<!-- Node14 -->
<g id="node14" class="node">
<title>Node14</title>
<g id="a_node14"><a xlink:title=" ">
<polygon fill="white" stroke="#bfbfbf" points="660,-118 660,-137 792,-137 792,-118 660,-118"/>
<text text-anchor="middle" x="726" y="-125" font-family="Helvetica,sans-Serif" font-size="10.00">smart_ptr/weak_ptr.hpp</text>
</a>
</g>
</g>
<!-- Node3&#45;&gt;Node14 -->
<g id="edge14" class="edge">
<title>Node3&#45;&gt;Node14</title>
<path fill="none" stroke="midnightblue" d="M889.63,-179.48C856.45,-169.14 800.35,-151.66 763.24,-140.1"/>
<polygon fill="midnightblue" stroke="midnightblue" points="763.9,-136.64 753.31,-137.01 761.82,-143.32 763.9,-136.64"/>
</g>
<!-- Node3&#45;&gt;Node15 -->
<g id="edge15" class="edge">
<title>Node3&#45;&gt;Node15</title>
<path fill="none" stroke="midnightblue" d="M985.73,-181.41C1039.72,-175.01 1116.32,-163.23 1181,-143 1182.87,-142.41 1184.78,-141.74 1186.67,-141.01"/>
<polygon fill="midnightblue" stroke="midnightblue" points="1188.12,-144.19 1195.92,-137.02 1185.35,-137.77 1188.12,-144.19"/>
</g>
<!-- Node4&#45;&gt;Node5 -->
<g id="edge4" class="edge">
<title>Node4&#45;&gt;Node5</title>
<path fill="none" stroke="midnightblue" d="M1113.39,-117.98C1099.28,-108.43 1076.17,-92.81 1059.25,-81.37"/>
<polygon fill="midnightblue" stroke="midnightblue" points="1060.83,-78.21 1050.58,-75.51 1056.91,-84.01 1060.83,-78.21"/>
</g>
<!-- Node10 -->
<g id="node10" class="node">
<title>Node10</title>
<g id="a_node10"><a xlink:title=" ">
<polygon fill="white" stroke="#bfbfbf" points="1113,-56.5 1113,-75.5 1165,-75.5 1165,-56.5 1113,-56.5"/>
<text text-anchor="middle" x="1139" y="-63.5" font-family="Helvetica,sans-Serif" font-size="10.00">cassert</text>
</a>
</g>
</g>
<!-- Node4&#45;&gt;Node10 -->
<g id="edge9" class="edge">
<title>Node4&#45;&gt;Node10</title>
<path fill="none" stroke="midnightblue" d="M1127.86,-117.98C1129.72,-109.49 1132.62,-96.2 1135,-85.32"/>
<polygon fill="midnightblue" stroke="midnightblue" points="1138.43,-86.03 1137.14,-75.51 1131.59,-84.53 1138.43,-86.03"/>
</g>
<!-- Node11 -->
<g id="node11" class="node">
<title>Node11</title>
<g id="a_node11"><a xlink:title=" ">
<polygon fill="white" stroke="#bfbfbf" points="1881,-56.5 1881,-75.5 1931,-75.5 1931,-56.5 1881,-56.5"/>
<text text-anchor="middle" x="1906" y="-63.5" font-family="Helvetica,sans-Serif" font-size="10.00">cstring</text>
</a>
</g>
</g>
<!-- Node4&#45;&gt;Node11 -->
<g id="edge10" class="edge">
<title>Node4&#45;&gt;Node11</title>
<path fill="none" stroke="midnightblue" d="M1154.04,-117.98C1162.61,-115.68 1172.13,-113.43 1181,-112 1443.4,-69.69 1765.15,-66.54 1870.66,-66.75"/>
<polygon fill="midnightblue" stroke="midnightblue" points="1870.75,-70.26 1880.76,-66.79 1870.77,-63.26 1870.75,-70.26"/>
</g>
<!-- Node6 -->
<g id="node6" class="node">
<title>Node6</title>
<g id="a_node6"><a xlink:title=" ">
<polygon fill="white" stroke="#bfbfbf" points="927.5,-0.5 927.5,-19.5 974.5,-19.5 974.5,-0.5 927.5,-0.5"/>
<text text-anchor="middle" x="951" y="-7.5" font-family="Helvetica,sans-Serif" font-size="10.00">deque</text>
</a>
</g>
</g>
<!-- Node5&#45;&gt;Node6 -->
<g id="edge5" class="edge">
<title>Node5&#45;&gt;Node6</title>
<path fill="none" stroke="midnightblue" d="M1024.02,-56.32C1010.45,-47.9 989.62,-34.97 973.68,-25.07"/>
<polygon fill="midnightblue" stroke="midnightblue" points="975.29,-21.95 964.94,-19.65 971.59,-27.9 975.29,-21.95"/>
</g>
<!-- Node7 -->
<g id="node7" class="node">
<title>Node7</title>
<g id="a_node7"><a xlink:title=" ">
<polygon fill="white" stroke="#bfbfbf" points="993,-0.5 993,-19.5 1031,-19.5 1031,-0.5 993,-0.5"/>
<text text-anchor="middle" x="1012" y="-7.5" font-family="Helvetica,sans-Serif" font-size="10.00">map</text>
</a>
</g>
</g>
<!-- Node5&#45;&gt;Node7 -->
<g id="edge6" class="edge">
<title>Node5&#45;&gt;Node7</title>
<path fill="none" stroke="midnightblue" d="M1033.71,-56.08C1030.15,-48.69 1024.98,-37.95 1020.58,-28.81"/>
<polygon fill="midnightblue" stroke="midnightblue" points="1023.71,-27.24 1016.21,-19.75 1017.4,-30.28 1023.71,-27.24"/>
</g>
<!-- Node8 -->
<g id="node8" class="node">
<title>Node8</title>
<g id="a_node8"><a xlink:title=" ">
<polygon fill="white" stroke="#bfbfbf" points="1049,-0.5 1049,-19.5 1081,-19.5 1081,-0.5 1049,-0.5"/>
<text text-anchor="middle" x="1065" y="-7.5" font-family="Helvetica,sans-Serif" font-size="10.00">set</text>
</a>
</g>
</g>
<!-- Node5&#45;&gt;Node8 -->
<g id="edge7" class="edge">
<title>Node5&#45;&gt;Node8</title>
<path fill="none" stroke="midnightblue" d="M1042.46,-56.08C1046.15,-48.69 1051.52,-37.95 1056.09,-28.81"/>
<polygon fill="midnightblue" stroke="midnightblue" points="1059.28,-30.26 1060.62,-19.75 1053.02,-27.13 1059.28,-30.26"/>
</g>
<!-- Node9 -->
<g id="node9" class="node">
<title>Node9</title>
<g id="a_node9"><a xlink:title=" ">
<polygon fill="white" stroke="#bfbfbf" points="1099.5,-0.5 1099.5,-19.5 1146.5,-19.5 1146.5,-0.5 1099.5,-0.5"/>
<text text-anchor="middle" x="1123" y="-7.5" font-family="Helvetica,sans-Serif" font-size="10.00">vector</text>
</a>
</g>
</g>
<!-- Node5&#45;&gt;Node9 -->
<g id="edge8" class="edge">
<title>Node5&#45;&gt;Node9</title>
<path fill="none" stroke="midnightblue" d="M1051.66,-56.32C1064.92,-47.9 1085.27,-34.97 1100.85,-25.07"/>
<polygon fill="midnightblue" stroke="midnightblue" points="1102.81,-27.97 1109.38,-19.65 1099.06,-22.06 1102.81,-27.97"/>
</g>
<!-- Node16&#45;&gt;Node3 -->
<g id="edge20" class="edge">
<title>Node16&#45;&gt;Node3</title>
<path fill="none" stroke="midnightblue" d="M718.07,-291.49C752.51,-284.7 797.37,-273.22 834,-255 859.96,-242.09 885.57,-220.27 901.32,-205.51"/>
<polygon fill="midnightblue" stroke="midnightblue" points="903.82,-207.97 908.61,-198.52 898.97,-202.92 903.82,-207.97"/>
</g>
<!-- Node16&#45;&gt;Node5 -->
<g id="edge30" class="edge">
<title>Node16&#45;&gt;Node5</title>
<path fill="none" stroke="midnightblue" d="M674.36,-291.5C697.65,-271.33 750.2,-219.29 725,-179 705.6,-147.99 670.4,-174.01 651,-143 643.69,-131.32 641.84,-122.29 651,-112 672.64,-87.7 880.33,-74.51 982.2,-69.45"/>
<polygon fill="midnightblue" stroke="midnightblue" points="982.5,-72.94 992.31,-68.96 982.16,-65.95 982.5,-72.94"/>
</g>
<!-- Node16&#45;&gt;Node13 -->
<g id="edge31" class="edge">
<title>Node16&#45;&gt;Node13</title>
<path fill="none" stroke="midnightblue" d="M595.39,-297.46C490.45,-292.81 295.42,-280.9 231,-255 193.39,-239.88 176.81,-235.42 159,-199 150.83,-182.29 156.63,-161.05 162.88,-146.27"/>
<polygon fill="midnightblue" stroke="midnightblue" points="166.05,-147.75 167.11,-137.21 159.71,-144.79 166.05,-147.75"/>
</g>
<!-- Node17 -->
<g id="node17" class="node">
<title>Node17</title>
<g id="a_node17"><a xlink:href="event__worker_8hpp.html" target="_top" xlink:title=" ">
<polygon fill="white" stroke="black" points="426.5,-235.5 426.5,-254.5 529.5,-254.5 529.5,-235.5 426.5,-235.5"/>
<text text-anchor="middle" x="478" y="-242.5" font-family="Helvetica,sans-Serif" font-size="10.00">event_worker.hpp</text>
</a>
</g>
</g>
<!-- Node16&#45;&gt;Node17 -->
<g id="edge21" class="edge">
<title>Node16&#45;&gt;Node17</title>
<path fill="none" stroke="midnightblue" d="M634.53,-291.44C602.83,-282.24 552.27,-267.56 517.23,-257.39"/>
<polygon fill="midnightblue" stroke="midnightblue" points="517.91,-253.94 507.33,-254.52 515.96,-260.67 517.91,-253.94"/>
</g>
<!-- Node20 -->
<g id="node20" class="node">
<title>Node20</title>
<g id="a_node20"><a xlink:title=" ">
<polygon fill="white" stroke="#bfbfbf" points="318,-118 318,-137 422,-137 422,-118 318,-118"/>
<text text-anchor="middle" x="370" y="-125" font-family="Helvetica,sans-Serif" font-size="10.00">thread/mutex.hpp</text>
</a>
</g>
</g>
<!-- Node16&#45;&gt;Node20 -->
<g id="edge32" class="edge">
<title>Node16&#45;&gt;Node20</title>
<path fill="none" stroke="midnightblue" d="M595.34,-296.42C472.51,-288.4 223.11,-264.3 171,-199 165.46,-192.05 165.54,-186.02 171,-179 187.77,-157.44 255.8,-143.59 307.7,-135.95"/>
<polygon fill="midnightblue" stroke="midnightblue" points="308.43,-139.38 317.84,-134.51 307.45,-132.45 308.43,-139.38"/>
</g>
<!-- Node21 -->
<g id="node21" class="node">
<title>Node21</title>
<g id="a_node21"><a xlink:title=" ">
<polygon fill="white" stroke="#bfbfbf" points="612,-179.5 612,-198.5 716,-198.5 716,-179.5 612,-179.5"/>
<text text-anchor="middle" x="664" y="-186.5" font-family="Helvetica,sans-Serif" font-size="10.00">thread/thread.hpp</text>
</a>
</g>
</g>
<!-- Node16&#45;&gt;Node21 -->
<g id="edge33" class="edge">
<title>Node16&#45;&gt;Node21</title>
<path fill="none" stroke="midnightblue" d="M664,-291.37C664,-273.62 664,-232.67 664,-208.6"/>
<polygon fill="midnightblue" stroke="midnightblue" points="667.5,-208.59 664,-198.59 660.5,-208.59 667.5,-208.59"/>
</g>
<!-- Node17&#45;&gt;Node3 -->
<g id="edge22" class="edge">
<title>Node17&#45;&gt;Node3</title>
<path fill="none" stroke="midnightblue" d="M529.65,-237.65C605.82,-228.28 748.87,-210.68 838.19,-199.69"/>
<polygon fill="midnightblue" stroke="midnightblue" points="838.77,-203.15 848.27,-198.45 837.92,-196.2 838.77,-203.15"/>
</g>
<!-- Node17&#45;&gt;Node5 -->
<g id="edge23" class="edge">
<title>Node17&#45;&gt;Node5</title>
<path fill="none" stroke="midnightblue" d="M478.46,-235.48C479.58,-222.08 483.49,-195.89 497,-179 535.4,-131 559.39,-130.53 618,-112 743.9,-72.2 900.46,-66.12 982.27,-66.02"/>
<polygon fill="midnightblue" stroke="midnightblue" points="982.35,-69.52 992.35,-66.04 982.36,-62.52 982.35,-69.52"/>
</g>
<!-- Node17&#45;&gt;Node13 -->
<g id="edge25" class="edge">
<title>Node17&#45;&gt;Node13</title>
<path fill="none" stroke="midnightblue" d="M426.5,-244.22C347.82,-243.34 203.4,-236.5 171,-199 158.77,-184.85 161.49,-162.49 165.68,-146.75"/>
<polygon fill="midnightblue" stroke="midnightblue" points="169.05,-147.68 168.64,-137.09 162.36,-145.63 169.05,-147.68"/>
</g>
<!-- Node18 -->
<g id="node18" class="node">
<title>Node18</title>
<g id="a_node18"><a xlink:href="task__base_8hpp.html" target="_top" xlink:title=" ">
<polygon fill="white" stroke="black" points="506.5,-179.5 506.5,-198.5 593.5,-198.5 593.5,-179.5 506.5,-179.5"/>
<text text-anchor="middle" x="550" y="-186.5" font-family="Helvetica,sans-Serif" font-size="10.00">task_base.hpp</text>
</a>
</g>
</g>
<!-- Node17&#45;&gt;Node18 -->
<g id="edge24" class="edge">
<title>Node17&#45;&gt;Node18</title>
<path fill="none" stroke="midnightblue" d="M489.57,-235.32C500.42,-227.18 516.88,-214.84 529.88,-205.09"/>
<polygon fill="midnightblue" stroke="midnightblue" points="532.32,-207.63 538.22,-198.83 528.12,-202.03 532.32,-207.63"/>
</g>
<!-- Node19 -->
<g id="node19" class="node">
<title>Node19</title>
<g id="a_node19"><a xlink:title=" ">
<polygon fill="white" stroke="#bfbfbf" points="180,-179.5 180,-198.5 342,-198.5 342,-179.5 180,-179.5"/>
<text text-anchor="middle" x="261" y="-186.5" font-family="Helvetica,sans-Serif" font-size="10.00">thread/condition_variable.hpp</text>
</a>
</g>
</g>
<!-- Node17&#45;&gt;Node19 -->
<g id="edge26" class="edge">
<title>Node17&#45;&gt;Node19</title>
<path fill="none" stroke="midnightblue" d="M443.62,-235.44C406.08,-226.1 345.87,-211.12 304.93,-200.93"/>
<polygon fill="midnightblue" stroke="midnightblue" points="305.77,-197.53 295.22,-198.52 304.08,-204.33 305.77,-197.53"/>
</g>
<!-- Node17&#45;&gt;Node20 -->
<g id="edge27" class="edge">
<title>Node17&#45;&gt;Node20</title>
<path fill="none" stroke="midnightblue" d="M447.03,-235.5C427.69,-228.65 403.75,-217.13 389,-199 377.14,-184.43 372.65,-163.09 370.96,-147.72"/>
<polygon fill="midnightblue" stroke="midnightblue" points="374.42,-147.02 370.15,-137.33 367.44,-147.57 374.42,-147.02"/>
</g>
<!-- Node17&#45;&gt;Node21 -->
<g id="edge28" class="edge">
<title>Node17&#45;&gt;Node21</title>
<path fill="none" stroke="midnightblue" d="M507.47,-235.44C539.17,-226.24 589.73,-211.56 624.77,-201.39"/>
<polygon fill="midnightblue" stroke="midnightblue" points="626.04,-204.67 634.67,-198.52 624.09,-197.94 626.04,-204.67"/>
</g>
<!-- Node22 -->
<g id="node22" class="node">
<title>Node22</title>
<g id="a_node22"><a xlink:title=" ">
<polygon fill="white" stroke="#bfbfbf" points="398.5,-179.5 398.5,-198.5 449.5,-198.5 449.5,-179.5 398.5,-179.5"/>
<text text-anchor="middle" x="424" y="-186.5" font-family="Helvetica,sans-Serif" font-size="10.00">csignal</text>
</a>
</g>
</g>
<!-- Node17&#45;&gt;Node22 -->
<g id="edge29" class="edge">
<title>Node17&#45;&gt;Node22</title>
<path fill="none" stroke="midnightblue" d="M469.08,-235.08C461.22,-227.22 449.57,-215.57 440.08,-206.08"/>
<polygon fill="midnightblue" stroke="midnightblue" points="442.3,-203.35 432.75,-198.75 437.35,-208.3 442.3,-203.35"/>
</g>
<!-- Node23&#45;&gt;Node5 -->
<g id="edge35" class="edge">
<title>Node23&#45;&gt;Node5</title>
<path fill="none" stroke="midnightblue" d="M1346.73,-179.48C1329.31,-171.07 1302.61,-157.41 1281,-143 1262.87,-130.91 1262.62,-121.48 1243,-112 1217.09,-99.48 1145.1,-85.27 1093.76,-76.23"/>
<polygon fill="midnightblue" stroke="midnightblue" points="1094.24,-72.76 1083.79,-74.5 1093.04,-79.66 1094.24,-72.76"/>
</g>
<!-- Node23&#45;&gt;Node10 -->
<g id="edge43" class="edge">
<title>Node23&#45;&gt;Node10</title>
<path fill="none" stroke="midnightblue" d="M1399.1,-187.07C1471.9,-183.96 1631.78,-170.45 1579,-112 1552.13,-82.24 1276.15,-71.08 1175.49,-67.99"/>
<polygon fill="midnightblue" stroke="midnightblue" points="1175.3,-64.48 1165.2,-67.68 1175.1,-71.48 1175.3,-64.48"/>
</g>
<!-- Node23&#45;&gt;Node15 -->
<g id="edge42" class="edge">
<title>Node23&#45;&gt;Node15</title>
<path fill="none" stroke="midnightblue" d="M1342.53,-179.48C1318.94,-170.5 1280.81,-155.91 1248,-143 1246.36,-142.36 1244.68,-141.69 1242.99,-141.02"/>
<polygon fill="midnightblue" stroke="midnightblue" points="1243.88,-137.61 1233.3,-137.14 1241.28,-144.11 1243.88,-137.61"/>
</g>
<!-- Node23&#45;&gt;Node20 -->
<g id="edge36" class="edge">
<title>Node23&#45;&gt;Node20</title>
<path fill="none" stroke="midnightblue" d="M1330.75,-185.95C1185.79,-177.28 621.55,-143.54 432.29,-132.22"/>
<polygon fill="midnightblue" stroke="midnightblue" points="432.42,-128.73 422.23,-131.62 432,-135.71 432.42,-128.73"/>
</g>
<!-- Node24 -->
<g id="node24" class="node">
<title>Node24</title>
<g id="a_node24"><a xlink:title=" ">
<polygon fill="white" stroke="#bfbfbf" points="1290,-118 1290,-137 1358,-137 1358,-118 1290,-118"/>
<text text-anchor="middle" x="1324" y="-125" font-family="Helvetica,sans-Serif" font-size="10.00">sys/time.h</text>
</a>
</g>
</g>
<!-- Node23&#45;&gt;Node24 -->
<g id="edge37" class="edge">
<title>Node23&#45;&gt;Node24</title>
<path fill="none" stroke="midnightblue" d="M1359.13,-179.48C1353.04,-170.64 1343.36,-156.59 1335.7,-145.48"/>
<polygon fill="midnightblue" stroke="midnightblue" points="1338.42,-143.26 1329.86,-137.01 1332.66,-147.23 1338.42,-143.26"/>
</g>
<!-- Node25 -->
<g id="node25" class="node">
<title>Node25</title>
<g id="a_node25"><a xlink:title=" ">
<polygon fill="white" stroke="#bfbfbf" points="1376.5,-118 1376.5,-137 1429.5,-137 1429.5,-118 1376.5,-118"/>
<text text-anchor="middle" x="1403" y="-125" font-family="Helvetica,sans-Serif" font-size="10.00">cstdarg</text>
</a>
</g>
</g>
<!-- Node23&#45;&gt;Node25 -->
<g id="edge38" class="edge">
<title>Node23&#45;&gt;Node25</title>
<path fill="none" stroke="midnightblue" d="M1370.44,-179.48C1376.09,-170.64 1385.06,-156.59 1392.16,-145.48"/>
<polygon fill="midnightblue" stroke="midnightblue" points="1395.13,-147.32 1397.57,-137.01 1389.23,-143.55 1395.13,-147.32"/>
</g>
<!-- Node26 -->
<g id="node26" class="node">
<title>Node26</title>
<g id="a_node26"><a xlink:title=" ">
<polygon fill="white" stroke="#bfbfbf" points="1448,-118 1448,-137 1492,-137 1492,-118 1448,-118"/>
<text text-anchor="middle" x="1470" y="-125" font-family="Helvetica,sans-Serif" font-size="10.00">ctime</text>
</a>
</g>
</g>
<!-- Node23&#45;&gt;Node26 -->
<g id="edge39" class="edge">
<title>Node23&#45;&gt;Node26</title>
<path fill="none" stroke="midnightblue" d="M1380.04,-179.48C1397.28,-169.71 1425.74,-153.58 1446.03,-142.08"/>
<polygon fill="midnightblue" stroke="midnightblue" points="1448.01,-144.98 1454.98,-137.01 1444.56,-138.89 1448.01,-144.98"/>
</g>
<!-- Node27 -->
<g id="node27" class="node">
<title>Node27</title>
<g id="a_node27"><a xlink:title=" ">
<polygon fill="white" stroke="#bfbfbf" points="1510,-118 1510,-137 1570,-137 1570,-118 1510,-118"/>
<text text-anchor="middle" x="1540" y="-125" font-family="Helvetica,sans-Serif" font-size="10.00">iostream</text>
</a>
</g>
</g>
<!-- Node23&#45;&gt;Node27 -->
<g id="edge40" class="edge">
<title>Node23&#45;&gt;Node27</title>
<path fill="none" stroke="midnightblue" d="M1391.68,-179.49C1419.17,-170.65 1463.22,-156.27 1501,-143 1503.24,-142.21 1505.55,-141.39 1507.88,-140.55"/>
<polygon fill="midnightblue" stroke="midnightblue" points="1509.18,-143.8 1517.37,-137.07 1506.77,-137.23 1509.18,-143.8"/>
</g>
<!-- Node28 -->
<g id="node28" class="node">
<title>Node28</title>
<g id="a_node28"><a xlink:title=" ">
<polygon fill="white" stroke="#bfbfbf" points="1626,-118 1626,-137 1682,-137 1682,-118 1626,-118"/>
<text text-anchor="middle" x="1654" y="-125" font-family="Helvetica,sans-Serif" font-size="10.00">sstream</text>
</a>
</g>
</g>
<!-- Node23&#45;&gt;Node28 -->
<g id="edge41" class="edge">
<title>Node23&#45;&gt;Node28</title>
<path fill="none" stroke="midnightblue" d="M1399.32,-183.43C1447.36,-176.66 1537.16,-162.61 1612,-143 1615.04,-142.2 1618.17,-141.3 1621.29,-140.33"/>
<polygon fill="midnightblue" stroke="midnightblue" points="1622.68,-143.56 1631.09,-137.12 1620.49,-136.91 1622.68,-143.56"/>
</g>
<!-- Node29&#45;&gt;Node3 -->
<g id="edge46" class="edge">
<title>Node29&#45;&gt;Node3</title>
<path fill="none" stroke="midnightblue" d="M1030.61,-235.44C1008.29,-226.52 973.1,-212.44 947.79,-202.32"/>
<polygon fill="midnightblue" stroke="midnightblue" points="948.88,-198.98 938.29,-198.52 946.28,-205.48 948.88,-198.98"/>
</g>
<!-- Node29&#45;&gt;Node5 -->
<g id="edge47" class="edge">
<title>Node29&#45;&gt;Node5</title>
<path fill="none" stroke="midnightblue" d="M1051.32,-235.46C1049.19,-208.43 1042.53,-124.24 1039.51,-86.11"/>
<polygon fill="midnightblue" stroke="midnightblue" points="1042.98,-85.56 1038.7,-75.87 1036,-86.11 1042.98,-85.56"/>
</g>
<!-- Node29&#45;&gt;Node13 -->
<g id="edge48" class="edge">
<title>Node29&#45;&gt;Node13</title>
<path fill="none" stroke="midnightblue" d="M1009.67,-235.48C966.8,-226.74 898.66,-212.55 840,-199 804.29,-190.75 796.17,-184.92 760,-179 561.56,-146.5 509.22,-161.58 309,-143 290.43,-141.28 270.46,-139.26 251.66,-137.28"/>
<polygon fill="midnightblue" stroke="midnightblue" points="251.97,-133.8 241.66,-136.22 251.24,-140.76 251.97,-133.8"/>
</g>
<!-- Node29&#45;&gt;Node15 -->
<g id="edge49" class="edge">
<title>Node29&#45;&gt;Node15</title>
<path fill="none" stroke="midnightblue" d="M1064.03,-235.32C1091.25,-215.67 1157.82,-167.61 1191.61,-143.22"/>
<polygon fill="midnightblue" stroke="midnightblue" points="1193.77,-145.97 1199.83,-137.28 1189.68,-140.3 1193.77,-145.97"/>
</g>
<!-- Node30&#45;&gt;Node5 -->
<g id="edge56" class="edge">
<title>Node30&#45;&gt;Node5</title>
<path fill="none" stroke="midnightblue" d="M1900.21,-184.79C1854.39,-180.22 1784.22,-169.23 1729,-143 1709.31,-133.65 1711.3,-119.94 1691,-112 1569.29,-64.4 1234.06,-88.84 1104,-76 1100.72,-75.68 1097.35,-75.31 1093.96,-74.92"/>
<polygon fill="midnightblue" stroke="midnightblue" points="1094.1,-71.41 1083.75,-73.69 1093.26,-78.36 1094.1,-71.41"/>
</g>
<!-- Node30&#45;&gt;Node11 -->
<g id="edge64" class="edge">
<title>Node30&#45;&gt;Node11</title>
<path fill="none" stroke="midnightblue" d="M1942.8,-179.31C1937.68,-170.44 1929.93,-156.14 1925,-143 1917.85,-123.94 1912.57,-101.19 1909.41,-85.58"/>
<polygon fill="midnightblue" stroke="midnightblue" points="1912.82,-84.78 1907.49,-75.63 1905.95,-86.11 1912.82,-84.78"/>
</g>
<!-- Node30&#45;&gt;Node15 -->
<g id="edge67" class="edge">
<title>Node30&#45;&gt;Node15</title>
<path fill="none" stroke="midnightblue" d="M1900.46,-187.07C1790.79,-184.43 1511.8,-174.88 1281,-143 1268.93,-141.33 1255.82,-138.77 1244.29,-136.26"/>
<polygon fill="midnightblue" stroke="midnightblue" points="1244.76,-132.78 1234.24,-134 1243.22,-139.61 1244.76,-132.78"/>
</g>
<!-- Node30&#45;&gt;Node28 -->
<g id="edge65" class="edge">
<title>Node30&#45;&gt;Node28</title>
<path fill="none" stroke="midnightblue" d="M1900.15,-181.72C1849.1,-174.5 1766.11,-161.24 1696,-143 1692.96,-142.21 1689.83,-141.3 1686.71,-140.34"/>
<polygon fill="midnightblue" stroke="midnightblue" points="1687.5,-136.92 1676.91,-137.13 1685.32,-143.57 1687.5,-136.92"/>
</g>
<!-- Node31 -->
<g id="node31" class="node">
<title>Node31</title>
<g id="a_node31"><a xlink:href="serv__exception_8hpp.html" target="_top" xlink:title=" ">
<polygon fill="white" stroke="black" points="1934,-118 1934,-137 2046,-137 2046,-118 1934,-118"/>
<text text-anchor="middle" x="1990" y="-125" font-family="Helvetica,sans-Serif" font-size="10.00">serv_exception.hpp</text>
</a>
</g>
</g>
<!-- Node30&#45;&gt;Node31 -->
<g id="edge51" class="edge">
<title>Node30&#45;&gt;Node31</title>
<path fill="none" stroke="midnightblue" d="M1954.02,-179.48C1960.26,-170.64 1970.17,-156.59 1978.02,-145.48"/>
<polygon fill="midnightblue" stroke="midnightblue" points="1981.09,-147.2 1983.99,-137.01 1975.37,-143.16 1981.09,-147.2"/>
</g>
<!-- Node34 -->
<g id="node34" class="node">
<title>Node34</title>
<g id="a_node34"><a xlink:title=" ">
<polygon fill="white" stroke="#bfbfbf" points="2064.5,-118 2064.5,-137 2111.5,-137 2111.5,-118 2064.5,-118"/>
<text text-anchor="middle" x="2088" y="-125" font-family="Helvetica,sans-Serif" font-size="10.00">fcntl.h</text>
</a>
</g>
</g>
<!-- Node30&#45;&gt;Node34 -->
<g id="edge57" class="edge">
<title>Node30&#45;&gt;Node34</title>
<path fill="none" stroke="midnightblue" d="M1968.55,-179.47C1990.13,-170.49 2025.01,-155.9 2055,-143 2056.37,-142.41 2057.76,-141.81 2059.17,-141.2"/>
<polygon fill="midnightblue" stroke="midnightblue" points="2060.71,-144.35 2068.48,-137.14 2057.91,-137.93 2060.71,-144.35"/>
</g>
<!-- Node35 -->
<g id="node35" class="node">
<title>Node35</title>
<g id="a_node35"><a xlink:title=" ">
<polygon fill="white" stroke="#bfbfbf" points="2129.5,-118 2129.5,-137 2182.5,-137 2182.5,-118 2129.5,-118"/>
<text text-anchor="middle" x="2156" y="-125" font-family="Helvetica,sans-Serif" font-size="10.00">netdb.h</text>
</a>
</g>
</g>
<!-- Node30&#45;&gt;Node35 -->
<g id="edge58" class="edge">
<title>Node30&#45;&gt;Node35</title>
<path fill="none" stroke="midnightblue" d="M1986.93,-179.5C2022.29,-171.4 2075.69,-158.2 2121,-143 2122.92,-142.36 2124.88,-141.66 2126.85,-140.93"/>
<polygon fill="midnightblue" stroke="midnightblue" points="2128.53,-144.03 2136.56,-137.11 2125.97,-137.51 2128.53,-144.03"/>
</g>
<!-- Node36 -->
<g id="node36" class="node">
<title>Node36</title>
<g id="a_node36"><a xlink:title=" ">
<polygon fill="white" stroke="#bfbfbf" points="2201,-118 2201,-137 2273,-137 2273,-118 2201,-118"/>
<text text-anchor="middle" x="2237" y="-125" font-family="Helvetica,sans-Serif" font-size="10.00">netinet/in.h</text>
</a>
</g>
</g>
<!-- Node30&#45;&gt;Node36 -->
<g id="edge59" class="edge">
<title>Node30&#45;&gt;Node36</title>
<path fill="none" stroke="midnightblue" d="M1995.62,-181.09C2045.09,-173.47 2124.55,-160.01 2192,-143 2195.45,-142.13 2199.02,-141.14 2202.57,-140.1"/>
<polygon fill="midnightblue" stroke="midnightblue" points="2203.89,-143.35 2212.41,-137.06 2201.82,-136.66 2203.89,-143.35"/>
</g>
<!-- Node37 -->
<g id="node37" class="node">
<title>Node37</title>
<g id="a_node37"><a xlink:title=" ">
<polygon fill="white" stroke="#bfbfbf" points="2291,-118 2291,-137 2369,-137 2369,-118 2291,-118"/>
<text text-anchor="middle" x="2330" y="-125" font-family="Helvetica,sans-Serif" font-size="10.00">netinet/tcp.h</text>
</a>
</g>
</g>
<!-- Node30&#45;&gt;Node37 -->
<g id="edge60" class="edge">
<title>Node30&#45;&gt;Node37</title>
<path fill="none" stroke="midnightblue" d="M1995.7,-183.99C2060.89,-177.95 2181.22,-164.86 2282,-143 2286.16,-142.1 2290.49,-141.01 2294.76,-139.84"/>
<polygon fill="midnightblue" stroke="midnightblue" points="2295.9,-143.15 2304.54,-137.01 2293.96,-136.43 2295.9,-143.15"/>
</g>
<!-- Node38 -->
<g id="node38" class="node">
<title>Node38</title>
<g id="a_node38"><a xlink:title=" ">
<polygon fill="white" stroke="#bfbfbf" points="2387.5,-118 2387.5,-137 2464.5,-137 2464.5,-118 2387.5,-118"/>
<text text-anchor="middle" x="2426" y="-125" font-family="Helvetica,sans-Serif" font-size="10.00">sys/socket.h</text>
</a>
</g>
</g>
<!-- Node30&#45;&gt;Node38 -->
<g id="edge61" class="edge">
<title>Node30&#45;&gt;Node38</title>
<path fill="none" stroke="midnightblue" d="M1995.53,-185.96C2075.27,-181.9 2240.77,-170.65 2378,-143 2382.22,-142.15 2386.61,-141.08 2390.94,-139.92"/>
<polygon fill="midnightblue" stroke="midnightblue" points="2392.17,-143.21 2400.82,-137.08 2390.24,-136.48 2392.17,-143.21"/>
</g>
<!-- Node39 -->
<g id="node39" class="node">
<title>Node39</title>
<g id="a_node39"><a xlink:title=" ">
<polygon fill="white" stroke="#bfbfbf" points="2483,-118 2483,-137 2555,-137 2555,-118 2483,-118"/>
<text text-anchor="middle" x="2519" y="-125" font-family="Helvetica,sans-Serif" font-size="10.00">sys/types.h</text>
</a>
</g>
</g>
<!-- Node30&#45;&gt;Node39 -->
<g id="edge62" class="edge">
<title>Node30&#45;&gt;Node39</title>
<path fill="none" stroke="midnightblue" d="M1995.66,-187.52C2088.59,-185.79 2300.13,-177.98 2474,-143 2477.96,-142.2 2482.06,-141.18 2486.1,-140.04"/>
<polygon fill="midnightblue" stroke="midnightblue" points="2487.37,-143.31 2495.91,-137.05 2485.32,-136.62 2487.37,-143.31"/>
</g>
<!-- Node40 -->
<g id="node40" class="node">
<title>Node40</title>
<g id="a_node40"><a xlink:title=" ">
<polygon fill="white" stroke="#bfbfbf" points="1738,-118 1738,-137 1794,-137 1794,-118 1738,-118"/>
<text text-anchor="middle" x="1766" y="-125" font-family="Helvetica,sans-Serif" font-size="10.00">unistd.h</text>
</a>
</g>
</g>
<!-- Node30&#45;&gt;Node40 -->
<g id="edge63" class="edge">
<title>Node30&#45;&gt;Node40</title>
<path fill="none" stroke="midnightblue" d="M1918.87,-179.47C1889.66,-170.78 1843.47,-156.68 1804,-143 1801.75,-142.22 1799.43,-141.39 1797.1,-140.55"/>
<polygon fill="midnightblue" stroke="midnightblue" points="1798.21,-137.22 1787.62,-137.01 1795.77,-143.78 1798.21,-137.22"/>
</g>
<!-- Node41 -->
<g id="node41" class="node">
<title>Node41</title>
<g id="a_node41"><a xlink:title=" ">
<polygon fill="white" stroke="#bfbfbf" points="1812.5,-118 1812.5,-137 1877.5,-137 1877.5,-118 1812.5,-118"/>
<text text-anchor="middle" x="1845" y="-125" font-family="Helvetica,sans-Serif" font-size="10.00">stdexcept</text>
</a>
</g>
</g>
<!-- Node30&#45;&gt;Node41 -->
<g id="edge66" class="edge">
<title>Node30&#45;&gt;Node41</title>
<path fill="none" stroke="midnightblue" d="M1933.24,-179.48C1916.34,-169.71 1888.42,-153.58 1868.51,-142.08"/>
<polygon fill="midnightblue" stroke="midnightblue" points="1870.14,-138.98 1859.73,-137.01 1866.64,-145.04 1870.14,-138.98"/>
</g>
<!-- Node31&#45;&gt;Node5 -->
<g id="edge52" class="edge">
<title>Node31&#45;&gt;Node5</title>
<path fill="none" stroke="midnightblue" d="M1936.39,-117.98C1920.52,-115.72 1903.09,-113.5 1887,-112 1540.13,-79.68 1450.93,-107.57 1104,-76 1100.72,-75.7 1097.35,-75.36 1093.95,-74.98"/>
<polygon fill="midnightblue" stroke="midnightblue" points="1094.08,-71.47 1083.74,-73.78 1093.26,-78.43 1094.08,-71.47"/>
</g>
<!-- Node31&#45;&gt;Node11 -->
<g id="edge54" class="edge">
<title>Node31&#45;&gt;Node11</title>
<path fill="none" stroke="midnightblue" d="M1977.96,-117.98C1964.49,-108.43 1942.43,-92.81 1926.28,-81.37"/>
<polygon fill="midnightblue" stroke="midnightblue" points="1928.2,-78.43 1918.01,-75.51 1924.15,-84.15 1928.2,-78.43"/>
</g>
<!-- Node32 -->
<g id="node32" class="node">
<title>Node32</title>
<g id="a_node32"><a xlink:title=" ">
<polygon fill="white" stroke="#bfbfbf" points="1966.5,-56.5 1966.5,-75.5 2013.5,-75.5 2013.5,-56.5 1966.5,-56.5"/>
<text text-anchor="middle" x="1990" y="-63.5" font-family="Helvetica,sans-Serif" font-size="10.00">cerrno</text>
</a>
</g>
</g>
<!-- Node31&#45;&gt;Node32 -->
<g id="edge53" class="edge">
<title>Node31&#45;&gt;Node32</title>
<path fill="none" stroke="midnightblue" d="M1990,-117.98C1990,-109.58 1990,-96.48 1990,-85.66"/>
<polygon fill="midnightblue" stroke="midnightblue" points="1993.5,-85.51 1990,-75.51 1986.5,-85.51 1993.5,-85.51"/>
</g>
<!-- Node31&#45;&gt;Node33 -->
<g id="edge55" class="edge">
<title>Node31&#45;&gt;Node33</title>
<path fill="none" stroke="midnightblue" d="M2027.28,-117.97C2036.64,-115.93 2046.67,-113.81 2056,-112 2134.96,-96.68 2227.63,-81.74 2280.43,-73.51"/>
<polygon fill="midnightblue" stroke="midnightblue" points="2281.09,-76.95 2290.44,-71.96 2280.02,-70.03 2281.09,-76.95"/>
</g>
</g>
</svg>
        <g id="navigator" transform="translate(0 0)" fill="#404254">
                <rect fill="#f2f5e9" fill-opacity="0.5" stroke="#606060" stroke-width=".5" x="0" y="0" width="60" height="60"/>
                <use id="zoomplus" xlink:href="#zoomPlus" x="17" y="9" onmousedown="handleZoom(evt,'in')"/>
                <use id="zoomminus" xlink:href="#zoomMin" x="42" y="9" onmousedown="handleZoom(evt,'out')"/>
                <use id="reset" xlink:href="#resetDef" x="30" y="36" onmousedown="handleReset()"/>
                <g id="arrowUp" xlink:href="#dirArrow" transform="translate(30 24)" onmousedown="handlePan(0,-1)">
                  <use xlink:href="#rim" fill="#404040">
                        <set attributeName="fill" to="#808080" begin="arrowUp.mouseover" end="arrowUp.mouseout"/>
                  </use>
                  <path fill="none" stroke="white" stroke-width="1.5" d="M0,-3.0v7 M-2.5,-0.5L0,-3.0L2.5,-0.5"/>
                </g>
                <g id="arrowRight" xlink:href="#dirArrow" transform="rotate(90) translate(36 -43)" onmousedown="handlePan(1,0)">
                  <use xlink:href="#rim" fill="#404040">
                        <set attributeName="fill" to="#808080" begin="arrowRight.mouseover" end="arrowRight.mouseout"/>
                  </use>
                  <path fill="none" stroke="white" stroke-width="1.5" d="M0,-3.0v7 M-2.5,-0.5L0,-3.0L2.5,-0.5"/>
                </g>
                <g id="arrowDown" xlink:href="#dirArrow" transform="rotate(180) translate(-30 -48)" onmousedown="handlePan(0,1)">
                  <use xlink:href="#rim" fill="#404040">
                        <set attributeName="fill" to="#808080" begin="arrowDown.mouseover" end="arrowDown.mouseout"/>
                  </use>
                  <path fill="none" stroke="white" stroke-width="1.5" d="M0,-3.0v7 M-2.5,-0.5L0,-3.0L2.5,-0.5"/>
                </g>
                <g id="arrowLeft" xlink:href="#dirArrow" transform="rotate(270) translate(-36 17)" onmousedown="handlePan(-1,0)">
                  <use xlink:href="#rim" fill="#404040">
                        <set attributeName="fill" to="#808080" begin="arrowLeft.mouseover" end="arrowLeft.mouseout"/>
                  </use>
                  <path fill="none" stroke="white" stroke-width="1.5" d="M0,-3.0v7 M-2.5,-0.5L0,-3.0L2.5,-0.5"/>
                </g>
        </g>
        <svg viewBox="0 0 15 15" width="100%" height="30px" preserveAspectRatio="xMaxYMin meet">
         <g id="arrow_out" transform="scale(0.3 0.3)">
          <a xlink:href="bootstrap_8cpp__incl_org.svg" target="_base">
           <rect id="button" ry="5" rx="5" y="6" x="6" height="38" width="38"
                fill="#f2f5e9" fill-opacity="0.5" stroke="#606060" stroke-width="1.0"/>
           <path id="arrow"
             d="M 11.500037,31.436501 C 11.940474,20.09759 22.043105,11.32322 32.158766,21.979434 L 37.068811,17.246167 C 37.068811,17.246167 37.088388,32 37.088388,32 L 22.160133,31.978069 C 22.160133,31.978069 26.997745,27.140456 26.997745,27.140456 C 18.528582,18.264221 13.291696,25.230495 11.500037,31.436501 z"
             style="fill:#404040;"/>
          </a>
         </g>
        </svg>
</svg>
