<?xml version="1.0" encoding="UTF-8" standalone="no"?>
<!DOCTYPE svg PUBLIC "-//W3C//DTD SVG 1.1//EN"
 "http://www.w3.org/Graphics/SVG/1.1/DTD/svg11.dtd">
<!-- Generated by graphviz version 2.43.0 (0)
 -->
<!-- Title: includes/libserv/bootstrap.cpp Pages: 1 -->
<svg width="2026pt" height="375pt"
 viewBox="0.00 0.00 2025.81 375.00" xmlns="http://www.w3.org/2000/svg" xmlns:xlink="http://www.w3.org/1999/xlink">
<g id="graph0" class="graph" transform="scale(1 1) rotate(0) translate(4 371)">
<title>includes/libserv/bootstrap.cpp</title>
<polygon fill="white" stroke="transparent" points="-4,4 -4,-371 2021.81,-371 2021.81,4 -4,4"/>
<!-- Node1 -->
<g id="node1" class="node">
<title>Node1</title>
<g id="a_node1"><a xlink:title=" ">
<polygon fill="#bfbfbf" stroke="black" points="426.55,-347.5 426.55,-366.5 589.55,-366.5 589.55,-347.5 426.55,-347.5"/>
<text text-anchor="middle" x="508.05" y="-354.5" font-family="Helvetica,sans-Serif" font-size="10.00">includes/libserv/bootstrap.cpp</text>
</a>
</g>
</g>
<!-- Node2 -->
<g id="node2" class="node">
<title>Node2</title>
<g id="a_node2"><a xlink:href="bootstrap_8hpp.html" target="_top" xlink:title=" ">
<polygon fill="white" stroke="black" points="45.05,-235.5 45.05,-254.5 129.05,-254.5 129.05,-235.5 45.05,-235.5"/>
<text text-anchor="middle" x="87.05" y="-242.5" font-family="Helvetica,sans-Serif" font-size="10.00">bootstrap.hpp</text>
</a>
</g>
</g>
<!-- Node1&#45;&gt;Node2 -->
<g id="edge1" class="edge">
<title>Node1&#45;&gt;Node2</title>
<path fill="none" stroke="midnightblue" d="M462.08,-347.44C419.15,-339.15 353.41,-325.7 297.05,-311 234.62,-294.72 163.06,-271.59 121.66,-257.76"/>
<polygon fill="midnightblue" stroke="midnightblue" points="122.65,-254.4 112.05,-254.54 120.42,-261.04 122.65,-254.4"/>
</g>
<!-- Node5 -->
<g id="node5" class="node">
<title>Node5</title>
<g id="a_node5"><a xlink:href="serv__types_8hpp.html" target="_top" xlink:title=" ">
<polygon fill="white" stroke="black" points="787.55,-56.5 787.55,-75.5 878.55,-75.5 878.55,-56.5 787.55,-56.5"/>
<text text-anchor="middle" x="833.05" y="-63.5" font-family="Helvetica,sans-Serif" font-size="10.00">serv_types.hpp</text>
</a>
</g>
</g>
<!-- Node1&#45;&gt;Node5 -->
<g id="edge34" class="edge">
<title>Node1&#45;&gt;Node5</title>
<path fill="none" stroke="midnightblue" d="M589.62,-348.87C742.36,-333.44 1060.72,-290.69 1111.05,-199 1129.56,-165.28 1078.46,-162.06 1045.05,-143 1021.68,-129.67 1017.77,-122.62 993.05,-112 958.12,-96.99 916.77,-85.51 884.86,-77.91"/>
<polygon fill="midnightblue" stroke="midnightblue" points="885.38,-74.43 874.85,-75.57 883.79,-81.25 885.38,-74.43"/>
</g>
<!-- Node13 -->
<g id="node13" class="node">
<title>Node13</title>
<g id="a_node13"><a xlink:title=" ">
<polygon fill="white" stroke="#bfbfbf" points="575.55,-118 575.55,-137 714.55,-137 714.55,-118 575.55,-118"/>
<text text-anchor="middle" x="645.05" y="-125" font-family="Helvetica,sans-Serif" font-size="10.00">smart_ptr/shared_ptr.hpp</text>
</a>
</g>
</g>
<!-- Node1&#45;&gt;Node13 -->
<g id="edge58" class="edge">
<title>Node1&#45;&gt;Node13</title>
<path fill="none" stroke="midnightblue" d="M499.53,-347.35C473.63,-320 400.14,-233.96 443.05,-179 452.15,-167.34 532.19,-149.95 588.73,-138.92"/>
<polygon fill="midnightblue" stroke="midnightblue" points="589.49,-142.34 598.64,-137 588.16,-135.46 589.49,-142.34"/>
</g>
<!-- Node15 -->
<g id="node15" class="node">
<title>Node15</title>
<g id="a_node15"><a xlink:title=" ">
<polygon fill="white" stroke="#bfbfbf" points="21.05,-118 21.05,-137 65.05,-137 65.05,-118 21.05,-118"/>
<text text-anchor="middle" x="43.05" y="-125" font-family="Helvetica,sans-Serif" font-size="10.00">string</text>
</a>
</g>
</g>
<!-- Node1&#45;&gt;Node15 -->
<g id="edge60" class="edge">
<title>Node1&#45;&gt;Node15</title>
<path fill="none" stroke="midnightblue" d="M426.38,-350.74C304.31,-340.96 83.51,-315.22 36.05,-255 11.4,-223.72 25.12,-173.41 35.26,-146.64"/>
<polygon fill="midnightblue" stroke="midnightblue" points="38.65,-147.6 39.14,-137.02 32.16,-144.98 38.65,-147.6"/>
</g>
<!-- Node16 -->
<g id="node16" class="node">
<title>Node16</title>
<g id="a_node16"><a xlink:href="event__worker__group_8hpp.html" target="_top" xlink:title=" ">
<polygon fill="white" stroke="black" points="630.55,-291.5 630.55,-310.5 767.55,-310.5 767.55,-291.5 630.55,-291.5"/>
<text text-anchor="middle" x="699.05" y="-298.5" font-family="Helvetica,sans-Serif" font-size="10.00">event_worker_group.hpp</text>
</a>
</g>
</g>
<!-- Node1&#45;&gt;Node16 -->
<g id="edge19" class="edge">
<title>Node1&#45;&gt;Node16</title>
<path fill="none" stroke="midnightblue" d="M538.31,-347.44C571.01,-338.2 623.23,-323.44 659.23,-313.26"/>
<polygon fill="midnightblue" stroke="midnightblue" points="660.26,-316.61 668.93,-310.52 658.35,-309.87 660.26,-316.61"/>
</g>
<!-- Node23 -->
<g id="node23" class="node">
<title>Node23</title>
<g id="a_node23"><a xlink:href="server__channel_8hpp.html" target="_top" xlink:title=" ">
<polygon fill="white" stroke="black" points="147.05,-235.5 147.05,-254.5 259.05,-254.5 259.05,-235.5 147.05,-235.5"/>
<text text-anchor="middle" x="203.05" y="-242.5" font-family="Helvetica,sans-Serif" font-size="10.00">server_channel.hpp</text>
</a>
</g>
</g>
<!-- Node1&#45;&gt;Node23 -->
<g id="edge35" class="edge">
<title>Node1&#45;&gt;Node23</title>
<path fill="none" stroke="midnightblue" d="M472.22,-347.42C439.69,-339.27 390.59,-326.04 349.05,-311 306.16,-295.47 258.14,-273.08 229.27,-259.04"/>
<polygon fill="midnightblue" stroke="midnightblue" points="230.77,-255.88 220.25,-254.63 227.69,-262.17 230.77,-255.88"/>
</g>
<!-- Node24 -->
<g id="node24" class="node">
<title>Node24</title>
<g id="a_node24"><a xlink:href="socket__utils_8hpp.html" target="_top" xlink:title=" ">
<polygon fill="white" stroke="black" points="1350.55,-179.5 1350.55,-198.5 1445.55,-198.5 1445.55,-179.5 1350.55,-179.5"/>
<text text-anchor="middle" x="1398.05" y="-186.5" font-family="Helvetica,sans-Serif" font-size="10.00">socket_utils.hpp</text>
</a>
</g>
</g>
<!-- Node1&#45;&gt;Node24 -->
<g id="edge40" class="edge">
<title>Node1&#45;&gt;Node24</title>
<path fill="none" stroke="midnightblue" d="M589.67,-354.61C741.32,-351.35 1060.76,-341.03 1167.05,-311 1250.54,-287.41 1338.48,-231.33 1377.42,-204.63"/>
<polygon fill="midnightblue" stroke="midnightblue" points="1379.59,-207.38 1385.81,-198.8 1375.6,-201.63 1379.59,-207.38"/>
</g>
<!-- Node27 -->
<g id="node27" class="node">
<title>Node27</title>
<g id="a_node27"><a xlink:title=" ">
<polygon fill="white" stroke="#bfbfbf" points="1607.55,-56.5 1607.55,-75.5 1672.55,-75.5 1672.55,-56.5 1607.55,-56.5"/>
<text text-anchor="middle" x="1640.05" y="-63.5" font-family="Helvetica,sans-Serif" font-size="10.00">exception</text>
</a>
</g>
</g>
<!-- Node1&#45;&gt;Node27 -->
<g id="edge59" class="edge">
<title>Node1&#45;&gt;Node27</title>
<path fill="none" stroke="midnightblue" d="M589.66,-354.36C903.62,-347.51 2016.05,-318.15 2016.05,-246 2016.05,-246 2016.05,-246 2016.05,-188 2016.05,-153.18 2023.1,-135.1 1997.05,-112 1951.35,-71.46 1767.08,-66.6 1682.67,-66.56"/>
<polygon fill="midnightblue" stroke="midnightblue" points="1682.64,-63.06 1672.64,-66.58 1682.65,-70.06 1682.64,-63.06"/>
</g>
<!-- Node3 -->
<g id="node3" class="node">
<title>Node3</title>
<g id="a_node3"><a xlink:href="event__channel__base_8hpp.html" target="_top" xlink:title=" ">
<polygon fill="white" stroke="black" points="121.55,-179.5 121.55,-198.5 258.55,-198.5 258.55,-179.5 121.55,-179.5"/>
<text text-anchor="middle" x="190.05" y="-186.5" font-family="Helvetica,sans-Serif" font-size="10.00">event_channel_base.hpp</text>
</a>
</g>
</g>
<!-- Node2&#45;&gt;Node3 -->
<g id="edge2" class="edge">
<title>Node2&#45;&gt;Node3</title>
<path fill="none" stroke="midnightblue" d="M103.6,-235.32C120.04,-226.7 145.48,-213.36 164.52,-203.39"/>
<polygon fill="midnightblue" stroke="midnightblue" points="166.31,-206.4 173.54,-198.65 163.06,-200.2 166.31,-206.4"/>
</g>
<!-- Node2&#45;&gt;Node5 -->
<g id="edge16" class="edge">
<title>Node2&#45;&gt;Node5</title>
<path fill="none" stroke="midnightblue" d="M72.87,-235.24C60.81,-227.15 43.79,-214.12 33.05,-199 10.02,-166.57 -15.3,-140.89 12.05,-112 38.36,-84.21 596.77,-71.4 777.3,-67.97"/>
<polygon fill="midnightblue" stroke="midnightblue" points="777.44,-71.47 787.38,-67.79 777.31,-64.47 777.44,-71.47"/>
</g>
<!-- Node2&#45;&gt;Node13 -->
<g id="edge17" class="edge">
<title>Node2&#45;&gt;Node13</title>
<path fill="none" stroke="midnightblue" d="M126.96,-235.42C171.9,-225.52 241.93,-209.28 267.05,-199 283.28,-192.36 284.48,-184.74 301.05,-179 413.37,-140.11 448.68,-161.73 566.05,-143 573.98,-141.73 582.34,-140.3 590.53,-138.85"/>
<polygon fill="midnightblue" stroke="midnightblue" points="591.19,-142.29 600.41,-137.07 589.95,-135.4 591.19,-142.29"/>
</g>
<!-- Node2&#45;&gt;Node15 -->
<g id="edge18" class="edge">
<title>Node2&#45;&gt;Node15</title>
<path fill="none" stroke="midnightblue" d="M73.26,-235.19C62.22,-227.24 47.55,-214.45 41.05,-199 34.09,-182.45 35.76,-161.73 38.45,-147.05"/>
<polygon fill="midnightblue" stroke="midnightblue" points="41.9,-147.68 40.59,-137.16 35.06,-146.2 41.9,-147.68"/>
</g>
<!-- Node4 -->
<g id="node4" class="node">
<title>Node4</title>
<g id="a_node4"><a xlink:href="byte__buffer_8hpp.html" target="_top" xlink:title=" ">
<polygon fill="white" stroke="black" points="121.05,-118 121.05,-137 213.05,-137 213.05,-118 121.05,-118"/>
<text text-anchor="middle" x="167.05" y="-125" font-family="Helvetica,sans-Serif" font-size="10.00">byte_buffer.hpp</text>
</a>
</g>
</g>
<!-- Node3&#45;&gt;Node4 -->
<g id="edge3" class="edge">
<title>Node3&#45;&gt;Node4</title>
<path fill="none" stroke="midnightblue" d="M186.75,-179.48C183.44,-170.9 178.23,-157.43 174,-146.48"/>
<polygon fill="midnightblue" stroke="midnightblue" points="177.21,-145.07 170.34,-137.01 170.68,-147.6 177.21,-145.07"/>
</g>
<!-- Node3&#45;&gt;Node5 -->
<g id="edge11" class="edge">
<title>Node3&#45;&gt;Node5</title>
<path fill="none" stroke="midnightblue" d="M196.74,-179.26C210.94,-160.98 244.08,-119.76 260.05,-112 350.18,-68.19 651.6,-65.43 777.28,-66.27"/>
<polygon fill="midnightblue" stroke="midnightblue" points="777.43,-69.77 787.46,-66.35 777.49,-62.77 777.43,-69.77"/>
</g>
<!-- Node12 -->
<g id="node12" class="node">
<title>Node12</title>
<g id="a_node12"><a xlink:title=" ">
<polygon fill="white" stroke="#bfbfbf" points="269.05,-112.5 269.05,-142.5 407.05,-142.5 407.05,-112.5 269.05,-112.5"/>
<text text-anchor="start" x="277.05" y="-130.5" font-family="Helvetica,sans-Serif" font-size="10.00">smart_ptr/enable_shared</text>
<text text-anchor="middle" x="338.05" y="-119.5" font-family="Helvetica,sans-Serif" font-size="10.00">_from_this.hpp</text>
</a>
</g>
</g>
<!-- Node3&#45;&gt;Node12 -->
<g id="edge12" class="edge">
<title>Node3&#45;&gt;Node12</title>
<path fill="none" stroke="midnightblue" d="M211.25,-179.48C232.7,-170.85 266.5,-157.26 293.81,-146.29"/>
<polygon fill="midnightblue" stroke="midnightblue" points="295.2,-149.5 303.17,-142.52 292.59,-143.01 295.2,-149.5"/>
</g>
<!-- Node3&#45;&gt;Node13 -->
<g id="edge13" class="edge">
<title>Node3&#45;&gt;Node13</title>
<path fill="none" stroke="midnightblue" d="M258.94,-180.28C350.8,-169.89 508.52,-151.71 566.05,-143 574.19,-141.77 582.77,-140.33 591.16,-138.86"/>
<polygon fill="midnightblue" stroke="midnightblue" points="592.03,-142.25 601.26,-137.04 590.79,-135.36 592.03,-142.25"/>
</g>
<!-- Node14 -->
<g id="node14" class="node">
<title>Node14</title>
<g id="a_node14"><a xlink:title=" ">
<polygon fill="white" stroke="#bfbfbf" points="425.05,-118 425.05,-137 557.05,-137 557.05,-118 425.05,-118"/>
<text text-anchor="middle" x="491.05" y="-125" font-family="Helvetica,sans-Serif" font-size="10.00">smart_ptr/weak_ptr.hpp</text>
</a>
</g>
</g>
<!-- Node3&#45;&gt;Node14 -->
<g id="edge14" class="edge">
<title>Node3&#45;&gt;Node14</title>
<path fill="none" stroke="midnightblue" d="M233.18,-179.48C287.15,-168.8 379.59,-150.53 437.89,-139.01"/>
<polygon fill="midnightblue" stroke="midnightblue" points="438.87,-142.38 448,-137.01 437.51,-135.51 438.87,-142.38"/>
</g>
<!-- Node3&#45;&gt;Node15 -->
<g id="edge15" class="edge">
<title>Node3&#45;&gt;Node15</title>
<path fill="none" stroke="midnightblue" d="M168.99,-179.48C143.99,-169.36 102.11,-152.4 73.56,-140.85"/>
<polygon fill="midnightblue" stroke="midnightblue" points="74.65,-137.52 64.07,-137.01 72.03,-144.01 74.65,-137.52"/>
</g>
<!-- Node4&#45;&gt;Node5 -->
<g id="edge4" class="edge">
<title>Node4&#45;&gt;Node5</title>
<path fill="none" stroke="midnightblue" d="M198.31,-117.93C207.5,-115.68 217.63,-113.48 227.05,-112 428.02,-80.47 670.06,-70.91 777.27,-68.11"/>
<polygon fill="midnightblue" stroke="midnightblue" points="777.62,-71.6 787.53,-67.85 777.44,-64.6 777.62,-71.6"/>
</g>
<!-- Node10 -->
<g id="node10" class="node">
<title>Node10</title>
<g id="a_node10"><a xlink:title=" ">
<polygon fill="white" stroke="#bfbfbf" points="141.05,-56.5 141.05,-75.5 193.05,-75.5 193.05,-56.5 141.05,-56.5"/>
<text text-anchor="middle" x="167.05" y="-63.5" font-family="Helvetica,sans-Serif" font-size="10.00">cassert</text>
</a>
</g>
</g>
<!-- Node4&#45;&gt;Node10 -->
<g id="edge9" class="edge">
<title>Node4&#45;&gt;Node10</title>
<path fill="none" stroke="midnightblue" d="M167.05,-117.98C167.05,-109.58 167.05,-96.48 167.05,-85.66"/>
<polygon fill="midnightblue" stroke="midnightblue" points="170.55,-85.51 167.05,-75.51 163.55,-85.51 170.55,-85.51"/>
</g>
<!-- Node11 -->
<g id="node11" class="node">
<title>Node11</title>
<g id="a_node11"><a xlink:title=" ">
<polygon fill="white" stroke="#bfbfbf" points="1082.05,-56.5 1082.05,-75.5 1132.05,-75.5 1132.05,-56.5 1082.05,-56.5"/>
<text text-anchor="middle" x="1107.05" y="-63.5" font-family="Helvetica,sans-Serif" font-size="10.00">cstring</text>
</a>
</g>
</g>
<!-- Node4&#45;&gt;Node11 -->
<g id="edge10" class="edge">
<title>Node4&#45;&gt;Node11</title>
<path fill="none" stroke="midnightblue" d="M213.29,-118.34C228.18,-115.97 244.77,-113.59 260.05,-112 421.35,-95.18 932.11,-73.99 1071.57,-68.4"/>
<polygon fill="midnightblue" stroke="midnightblue" points="1071.85,-71.89 1081.7,-68 1071.57,-64.9 1071.85,-71.89"/>
</g>
<!-- Node6 -->
<g id="node6" class="node">
<title>Node6</title>
<g id="a_node6"><a xlink:title=" ">
<polygon fill="white" stroke="#bfbfbf" points="721.55,-0.5 721.55,-19.5 768.55,-19.5 768.55,-0.5 721.55,-0.5"/>
<text text-anchor="middle" x="745.05" y="-7.5" font-family="Helvetica,sans-Serif" font-size="10.00">deque</text>
</a>
</g>
</g>
<!-- Node5&#45;&gt;Node6 -->
<g id="edge5" class="edge">
<title>Node5&#45;&gt;Node6</title>
<path fill="none" stroke="midnightblue" d="M818.91,-56.32C805.18,-47.9 784.11,-34.97 767.99,-25.07"/>
<polygon fill="midnightblue" stroke="midnightblue" points="769.51,-21.9 759.15,-19.65 765.85,-27.87 769.51,-21.9"/>
</g>
<!-- Node7 -->
<g id="node7" class="node">
<title>Node7</title>
<g id="a_node7"><a xlink:title=" ">
<polygon fill="white" stroke="#bfbfbf" points="787.05,-0.5 787.05,-19.5 825.05,-19.5 825.05,-0.5 787.05,-0.5"/>
<text text-anchor="middle" x="806.05" y="-7.5" font-family="Helvetica,sans-Serif" font-size="10.00">map</text>
</a>
</g>
</g>
<!-- Node5&#45;&gt;Node7 -->
<g id="edge6" class="edge">
<title>Node5&#45;&gt;Node7</title>
<path fill="none" stroke="midnightblue" d="M828.59,-56.08C824.9,-48.69 819.53,-37.95 814.96,-28.81"/>
<polygon fill="midnightblue" stroke="midnightblue" points="818.03,-27.13 810.43,-19.75 811.77,-30.26 818.03,-27.13"/>
</g>
<!-- Node8 -->
<g id="node8" class="node">
<title>Node8</title>
<g id="a_node8"><a xlink:title=" ">
<polygon fill="white" stroke="#bfbfbf" points="843.05,-0.5 843.05,-19.5 875.05,-19.5 875.05,-0.5 843.05,-0.5"/>
<text text-anchor="middle" x="859.05" y="-7.5" font-family="Helvetica,sans-Serif" font-size="10.00">set</text>
</a>
</g>
</g>
<!-- Node5&#45;&gt;Node8 -->
<g id="edge7" class="edge">
<title>Node5&#45;&gt;Node8</title>
<path fill="none" stroke="midnightblue" d="M837.34,-56.08C840.9,-48.69 846.07,-37.95 850.47,-28.81"/>
<polygon fill="midnightblue" stroke="midnightblue" points="853.65,-30.28 854.84,-19.75 847.34,-27.24 853.65,-30.28"/>
</g>
<!-- Node9 -->
<g id="node9" class="node">
<title>Node9</title>
<g id="a_node9"><a xlink:title=" ">
<polygon fill="white" stroke="#bfbfbf" points="893.55,-0.5 893.55,-19.5 940.55,-19.5 940.55,-0.5 893.55,-0.5"/>
<text text-anchor="middle" x="917.05" y="-7.5" font-family="Helvetica,sans-Serif" font-size="10.00">vector</text>
</a>
</g>
</g>
<!-- Node5&#45;&gt;Node9 -->
<g id="edge8" class="edge">
<title>Node5&#45;&gt;Node9</title>
<path fill="none" stroke="midnightblue" d="M846.55,-56.32C859.65,-47.9 879.76,-34.97 895.16,-25.07"/>
<polygon fill="midnightblue" stroke="midnightblue" points="897.07,-28.01 903.59,-19.65 893.28,-22.12 897.07,-28.01"/>
</g>
<!-- Node16&#45;&gt;Node3 -->
<g id="edge20" class="edge">
<title>Node16&#45;&gt;Node3</title>
<path fill="none" stroke="midnightblue" d="M630.54,-293.61C566.9,-286.86 469.76,-274.45 387.05,-255 327.35,-240.96 259.91,-216.84 221.44,-202.26"/>
<polygon fill="midnightblue" stroke="midnightblue" points="222.44,-198.89 211.85,-198.59 219.94,-205.43 222.44,-198.89"/>
</g>
<!-- Node16&#45;&gt;Node5 -->
<g id="edge30" class="edge">
<title>Node16&#45;&gt;Node5</title>
<path fill="none" stroke="midnightblue" d="M767.78,-292.61C870.49,-279.98 1056.25,-250.49 1096.05,-199 1101.49,-191.97 1100.95,-186.42 1096.05,-179 1092.61,-173.8 932.27,-107.65 863.66,-79.52"/>
<polygon fill="midnightblue" stroke="midnightblue" points="864.82,-76.21 854.24,-75.66 862.16,-82.69 864.82,-76.21"/>
</g>
<!-- Node16&#45;&gt;Node13 -->
<g id="edge31" class="edge">
<title>Node16&#45;&gt;Node13</title>
<path fill="none" stroke="midnightblue" d="M630.5,-292.96C571.61,-282.87 490.05,-258.39 450.05,-199 445.08,-191.63 444.61,-186.03 450.05,-179 458.82,-167.68 536.2,-150.17 590.8,-139.03"/>
<polygon fill="midnightblue" stroke="midnightblue" points="591.6,-142.43 600.71,-137.02 590.22,-135.57 591.6,-142.43"/>
</g>
<!-- Node17 -->
<g id="node17" class="node">
<title>Node17</title>
<g id="a_node17"><a xlink:href="event__worker_8hpp.html" target="_top" xlink:title=" ">
<polygon fill="white" stroke="black" points="647.55,-235.5 647.55,-254.5 750.55,-254.5 750.55,-235.5 647.55,-235.5"/>
<text text-anchor="middle" x="699.05" y="-242.5" font-family="Helvetica,sans-Serif" font-size="10.00">event_worker.hpp</text>
</a>
</g>
</g>
<!-- Node16&#45;&gt;Node17 -->
<g id="edge21" class="edge">
<title>Node16&#45;&gt;Node17</title>
<path fill="none" stroke="midnightblue" d="M699.05,-291.08C699.05,-284.01 699.05,-273.86 699.05,-264.99"/>
<polygon fill="midnightblue" stroke="midnightblue" points="702.55,-264.75 699.05,-254.75 695.55,-264.75 702.55,-264.75"/>
</g>
<!-- Node20 -->
<g id="node20" class="node">
<title>Node20</title>
<g id="a_node20"><a xlink:title=" ">
<polygon fill="white" stroke="#bfbfbf" points="861.05,-179.5 861.05,-198.5 965.05,-198.5 965.05,-179.5 861.05,-179.5"/>
<text text-anchor="middle" x="913.05" y="-186.5" font-family="Helvetica,sans-Serif" font-size="10.00">thread/mutex.hpp</text>
</a>
</g>
</g>
<!-- Node16&#45;&gt;Node20 -->
<g id="edge32" class="edge">
<title>Node16&#45;&gt;Node20</title>
<path fill="none" stroke="midnightblue" d="M715.84,-291.37C753.11,-272.21 842.94,-226.04 887.34,-203.22"/>
<polygon fill="midnightblue" stroke="midnightblue" points="889.04,-206.28 896.34,-198.59 885.84,-200.05 889.04,-206.28"/>
</g>
<!-- Node21 -->
<g id="node21" class="node">
<title>Node21</title>
<g id="a_node21"><a xlink:title=" ">
<polygon fill="white" stroke="#bfbfbf" points="983.05,-179.5 983.05,-198.5 1087.05,-198.5 1087.05,-179.5 983.05,-179.5"/>
<text text-anchor="middle" x="1035.05" y="-186.5" font-family="Helvetica,sans-Serif" font-size="10.00">thread/thread.hpp</text>
</a>
</g>
</g>
<!-- Node16&#45;&gt;Node21 -->
<g id="edge33" class="edge">
<title>Node16&#45;&gt;Node21</title>
<path fill="none" stroke="midnightblue" d="M725.14,-291.46C784.68,-271.97 930.71,-224.16 998.89,-201.84"/>
<polygon fill="midnightblue" stroke="midnightblue" points="1000.33,-205.05 1008.75,-198.61 998.16,-198.4 1000.33,-205.05"/>
</g>
<!-- Node17&#45;&gt;Node3 -->
<g id="edge22" class="edge">
<title>Node17&#45;&gt;Node3</title>
<path fill="none" stroke="midnightblue" d="M647.44,-238.53C558.17,-229.05 374.36,-209.55 268.96,-198.37"/>
<polygon fill="midnightblue" stroke="midnightblue" points="269.01,-194.86 258.7,-197.28 268.27,-201.82 269.01,-194.86"/>
</g>
<!-- Node17&#45;&gt;Node5 -->
<g id="edge23" class="edge">
<title>Node17&#45;&gt;Node5</title>
<path fill="none" stroke="midnightblue" d="M750.75,-235.83C773.54,-229.55 798.6,-218.49 814.05,-199 840.22,-165.99 838.79,-113.23 835.77,-85.47"/>
<polygon fill="midnightblue" stroke="midnightblue" points="839.24,-85 834.5,-75.53 832.3,-85.89 839.24,-85"/>
</g>
<!-- Node17&#45;&gt;Node13 -->
<g id="edge25" class="edge">
<title>Node17&#45;&gt;Node13</title>
<path fill="none" stroke="midnightblue" d="M647.44,-241.84C583.95,-237.98 481.64,-227.4 458.05,-199 452.37,-192.16 452.65,-186.06 458.05,-179 466.43,-168.06 540.76,-150.42 593.14,-139.15"/>
<polygon fill="midnightblue" stroke="midnightblue" points="593.92,-142.56 602.97,-137.05 592.46,-135.72 593.92,-142.56"/>
</g>
<!-- Node18 -->
<g id="node18" class="node">
<title>Node18</title>
<g id="a_node18"><a xlink:href="task__base_8hpp.html" target="_top" xlink:title=" ">
<polygon fill="white" stroke="black" points="467.55,-179.5 467.55,-198.5 554.55,-198.5 554.55,-179.5 467.55,-179.5"/>
<text text-anchor="middle" x="511.05" y="-186.5" font-family="Helvetica,sans-Serif" font-size="10.00">task_base.hpp</text>
</a>
</g>
</g>
<!-- Node17&#45;&gt;Node18 -->
<g id="edge24" class="edge">
<title>Node17&#45;&gt;Node18</title>
<path fill="none" stroke="midnightblue" d="M669.26,-235.44C637.22,-226.24 586.12,-211.56 550.7,-201.39"/>
<polygon fill="midnightblue" stroke="midnightblue" points="551.28,-197.91 540.7,-198.52 549.34,-204.64 551.28,-197.91"/>
</g>
<!-- Node19 -->
<g id="node19" class="node">
<title>Node19</title>
<g id="a_node19"><a xlink:title=" ">
<polygon fill="white" stroke="#bfbfbf" points="573.05,-179.5 573.05,-198.5 735.05,-198.5 735.05,-179.5 573.05,-179.5"/>
<text text-anchor="middle" x="654.05" y="-186.5" font-family="Helvetica,sans-Serif" font-size="10.00">thread/condition_variable.hpp</text>
</a>
</g>
</g>
<!-- Node17&#45;&gt;Node19 -->
<g id="edge26" class="edge">
<title>Node17&#45;&gt;Node19</title>
<path fill="none" stroke="midnightblue" d="M691.62,-235.08C685.2,-227.38 675.74,-216.03 667.93,-206.65"/>
<polygon fill="midnightblue" stroke="midnightblue" points="670.43,-204.19 661.34,-198.75 665.06,-208.67 670.43,-204.19"/>
</g>
<!-- Node17&#45;&gt;Node20 -->
<g id="edge27" class="edge">
<title>Node17&#45;&gt;Node20</title>
<path fill="none" stroke="midnightblue" d="M732.96,-235.44C769.9,-226.12 829.1,-211.18 869.47,-201"/>
<polygon fill="midnightblue" stroke="midnightblue" points="870.46,-204.36 879.3,-198.52 868.75,-197.57 870.46,-204.36"/>
</g>
<!-- Node17&#45;&gt;Node21 -->
<g id="edge28" class="edge">
<title>Node17&#45;&gt;Node21</title>
<path fill="none" stroke="midnightblue" d="M750.81,-235.68C810.66,-226.06 909.11,-210.24 973,-199.97"/>
<polygon fill="midnightblue" stroke="midnightblue" points="973.63,-203.42 982.95,-198.37 972.52,-196.5 973.63,-203.42"/>
</g>
<!-- Node22 -->
<g id="node22" class="node">
<title>Node22</title>
<g id="a_node22"><a xlink:title=" ">
<polygon fill="white" stroke="#bfbfbf" points="753.55,-179.5 753.55,-198.5 804.55,-198.5 804.55,-179.5 753.55,-179.5"/>
<text text-anchor="middle" x="779.05" y="-186.5" font-family="Helvetica,sans-Serif" font-size="10.00">csignal</text>
</a>
</g>
</g>
<!-- Node17&#45;&gt;Node22 -->
<g id="edge29" class="edge">
<title>Node17&#45;&gt;Node22</title>
<path fill="none" stroke="midnightblue" d="M711.9,-235.32C724.27,-226.98 743.18,-214.21 757.79,-204.35"/>
<polygon fill="midnightblue" stroke="midnightblue" points="759.9,-207.15 766.23,-198.65 755.98,-201.35 759.9,-207.15"/>
</g>
<!-- Node23&#45;&gt;Node3 -->
<g id="edge36" class="edge">
<title>Node23&#45;&gt;Node3</title>
<path fill="none" stroke="midnightblue" d="M200.9,-235.08C199.18,-227.93 196.7,-217.64 194.55,-208.69"/>
<polygon fill="midnightblue" stroke="midnightblue" points="197.9,-207.65 192.16,-198.75 191.09,-209.29 197.9,-207.65"/>
</g>
<!-- Node23&#45;&gt;Node5 -->
<g id="edge37" class="edge">
<title>Node23&#45;&gt;Node5</title>
<path fill="none" stroke="midnightblue" d="M165.08,-235.41C145.64,-228.88 123.67,-217.72 112.05,-199 91.65,-166.15 85.57,-140.18 112.05,-112 134.74,-87.85 611.43,-72.9 776.99,-68.42"/>
<polygon fill="midnightblue" stroke="midnightblue" points="777.54,-71.91 787.44,-68.15 777.35,-64.91 777.54,-71.91"/>
</g>
<!-- Node23&#45;&gt;Node13 -->
<g id="edge38" class="edge">
<title>Node23&#45;&gt;Node13</title>
<path fill="none" stroke="midnightblue" d="M221.48,-235.48C257.76,-218.75 336.06,-182.9 349.05,-179 442.68,-150.89 469.75,-159.83 566.05,-143 573.5,-141.7 581.34,-140.3 589.07,-138.9"/>
<polygon fill="midnightblue" stroke="midnightblue" points="589.91,-142.3 599.12,-137.07 588.66,-135.42 589.91,-142.3"/>
</g>
<!-- Node23&#45;&gt;Node15 -->
<g id="edge39" class="edge">
<title>Node23&#45;&gt;Node15</title>
<path fill="none" stroke="midnightblue" d="M155.12,-235.44C130.09,-228.94 100.34,-217.8 79.05,-199 63.31,-185.1 53.54,-162.69 48.22,-146.87"/>
<polygon fill="midnightblue" stroke="midnightblue" points="51.51,-145.69 45.22,-137.16 44.82,-147.75 51.51,-145.69"/>
</g>
<!-- Node24&#45;&gt;Node5 -->
<g id="edge46" class="edge">
<title>Node24&#45;&gt;Node5</title>
<path fill="none" stroke="midnightblue" d="M1350.53,-185.44C1291.65,-181.2 1188.86,-170.28 1105.05,-143 1076.51,-133.71 1073.32,-122.1 1045.05,-112 993.55,-93.61 932.19,-81.59 888.77,-74.64"/>
<polygon fill="midnightblue" stroke="midnightblue" points="889.1,-71.15 878.68,-73.07 888.02,-78.07 889.1,-71.15"/>
</g>
<!-- Node24&#45;&gt;Node11 -->
<g id="edge54" class="edge">
<title>Node24&#45;&gt;Node11</title>
<path fill="none" stroke="midnightblue" d="M1350.46,-186.27C1281.36,-182.76 1157.98,-172.45 1126.05,-143 1110.3,-128.48 1106.74,-103.06 1106.33,-85.65"/>
<polygon fill="midnightblue" stroke="midnightblue" points="1109.83,-85.59 1106.42,-75.56 1102.83,-85.52 1109.83,-85.59"/>
</g>
<!-- Node24&#45;&gt;Node15 -->
<g id="edge57" class="edge">
<title>Node24&#45;&gt;Node15</title>
<path fill="none" stroke="midnightblue" d="M1350.3,-186.56C1124.77,-179.73 174.56,-150.6 112.05,-143 99.96,-141.53 86.84,-139.01 75.32,-136.48"/>
<polygon fill="midnightblue" stroke="midnightblue" points="75.79,-133 65.26,-134.18 74.23,-139.82 75.79,-133"/>
</g>
<!-- Node25 -->
<g id="node25" class="node">
<title>Node25</title>
<g id="a_node25"><a xlink:href="serv__exception_8hpp.html" target="_top" xlink:title=" ">
<polygon fill="white" stroke="black" points="1135.05,-118 1135.05,-137 1247.05,-137 1247.05,-118 1135.05,-118"/>
<text text-anchor="middle" x="1191.05" y="-125" font-family="Helvetica,sans-Serif" font-size="10.00">serv_exception.hpp</text>
</a>
</g>
</g>
<!-- Node24&#45;&gt;Node25 -->
<g id="edge41" class="edge">
<title>Node24&#45;&gt;Node25</title>
<path fill="none" stroke="midnightblue" d="M1368.39,-179.48C1332.12,-169.05 1270.59,-151.36 1230.39,-139.81"/>
<polygon fill="midnightblue" stroke="midnightblue" points="1231.23,-136.41 1220.65,-137.01 1229.3,-143.14 1231.23,-136.41"/>
</g>
<!-- Node28 -->
<g id="node28" class="node">
<title>Node28</title>
<g id="a_node28"><a xlink:title=" ">
<polygon fill="white" stroke="#bfbfbf" points="1265.55,-118 1265.55,-137 1312.55,-137 1312.55,-118 1265.55,-118"/>
<text text-anchor="middle" x="1289.05" y="-125" font-family="Helvetica,sans-Serif" font-size="10.00">fcntl.h</text>
</a>
</g>
</g>
<!-- Node24&#45;&gt;Node28 -->
<g id="edge47" class="edge">
<title>Node24&#45;&gt;Node28</title>
<path fill="none" stroke="midnightblue" d="M1382.43,-179.48C1364.46,-169.67 1334.73,-153.43 1313.64,-141.92"/>
<polygon fill="midnightblue" stroke="midnightblue" points="1315.09,-138.73 1304.64,-137.01 1311.74,-144.87 1315.09,-138.73"/>
</g>
<!-- Node29 -->
<g id="node29" class="node">
<title>Node29</title>
<g id="a_node29"><a xlink:title=" ">
<polygon fill="white" stroke="#bfbfbf" points="1330.55,-118 1330.55,-137 1383.55,-137 1383.55,-118 1330.55,-118"/>
<text text-anchor="middle" x="1357.05" y="-125" font-family="Helvetica,sans-Serif" font-size="10.00">netdb.h</text>
</a>
</g>
</g>
<!-- Node24&#45;&gt;Node29 -->
<g id="edge48" class="edge">
<title>Node24&#45;&gt;Node29</title>
<path fill="none" stroke="midnightblue" d="M1392.18,-179.48C1386.09,-170.64 1376.41,-156.59 1368.75,-145.48"/>
<polygon fill="midnightblue" stroke="midnightblue" points="1371.47,-143.26 1362.91,-137.01 1365.71,-147.23 1371.47,-143.26"/>
</g>
<!-- Node30 -->
<g id="node30" class="node">
<title>Node30</title>
<g id="a_node30"><a xlink:title=" ">
<polygon fill="white" stroke="#bfbfbf" points="1402.05,-118 1402.05,-137 1474.05,-137 1474.05,-118 1402.05,-118"/>
<text text-anchor="middle" x="1438.05" y="-125" font-family="Helvetica,sans-Serif" font-size="10.00">netinet/in.h</text>
</a>
</g>
</g>
<!-- Node24&#45;&gt;Node30 -->
<g id="edge49" class="edge">
<title>Node24&#45;&gt;Node30</title>
<path fill="none" stroke="midnightblue" d="M1403.78,-179.48C1409.72,-170.64 1419.17,-156.59 1426.64,-145.48"/>
<polygon fill="midnightblue" stroke="midnightblue" points="1429.65,-147.26 1432.33,-137.01 1423.85,-143.36 1429.65,-147.26"/>
</g>
<!-- Node31 -->
<g id="node31" class="node">
<title>Node31</title>
<g id="a_node31"><a xlink:title=" ">
<polygon fill="white" stroke="#bfbfbf" points="1492.05,-118 1492.05,-137 1570.05,-137 1570.05,-118 1492.05,-118"/>
<text text-anchor="middle" x="1531.05" y="-125" font-family="Helvetica,sans-Serif" font-size="10.00">netinet/tcp.h</text>
</a>
</g>
</g>
<!-- Node24&#45;&gt;Node31 -->
<g id="edge50" class="edge">
<title>Node24&#45;&gt;Node31</title>
<path fill="none" stroke="midnightblue" d="M1417.11,-179.48C1439.52,-169.45 1476.96,-152.7 1502.76,-141.15"/>
<polygon fill="midnightblue" stroke="midnightblue" points="1504.33,-144.29 1512.03,-137.01 1501.47,-137.9 1504.33,-144.29"/>
</g>
<!-- Node32 -->
<g id="node32" class="node">
<title>Node32</title>
<g id="a_node32"><a xlink:title=" ">
<polygon fill="white" stroke="#bfbfbf" points="1588.55,-118 1588.55,-137 1665.55,-137 1665.55,-118 1588.55,-118"/>
<text text-anchor="middle" x="1627.05" y="-125" font-family="Helvetica,sans-Serif" font-size="10.00">sys/socket.h</text>
</a>
</g>
</g>
<!-- Node24&#45;&gt;Node32 -->
<g id="edge51" class="edge">
<title>Node24&#45;&gt;Node32</title>
<path fill="none" stroke="midnightblue" d="M1434.59,-179.48C1471.25,-170.8 1529.25,-156.7 1579.05,-143 1582.62,-142.02 1586.32,-140.96 1590.02,-139.89"/>
<polygon fill="midnightblue" stroke="midnightblue" points="1591.11,-143.21 1599.7,-137.02 1589.12,-136.5 1591.11,-143.21"/>
</g>
<!-- Node33 -->
<g id="node33" class="node">
<title>Node33</title>
<g id="a_node33"><a xlink:title=" ">
<polygon fill="white" stroke="#bfbfbf" points="1684.05,-118 1684.05,-137 1756.05,-137 1756.05,-118 1684.05,-118"/>
<text text-anchor="middle" x="1720.05" y="-125" font-family="Helvetica,sans-Serif" font-size="10.00">sys/types.h</text>
</a>
</g>
</g>
<!-- Node24&#45;&gt;Node33 -->
<g id="edge52" class="edge">
<title>Node24&#45;&gt;Node33</title>
<path fill="none" stroke="midnightblue" d="M1446.03,-182.44C1501.61,-175.48 1595.71,-162.11 1675.05,-143 1678.7,-142.12 1682.47,-141.1 1686.22,-140"/>
<polygon fill="midnightblue" stroke="midnightblue" points="1687.43,-143.29 1695.95,-137 1685.36,-136.6 1687.43,-143.29"/>
</g>
<!-- Node34 -->
<g id="node34" class="node">
<title>Node34</title>
<g id="a_node34"><a xlink:title=" ">
<polygon fill="white" stroke="#bfbfbf" points="1774.05,-118 1774.05,-137 1830.05,-137 1830.05,-118 1774.05,-118"/>
<text text-anchor="middle" x="1802.05" y="-125" font-family="Helvetica,sans-Serif" font-size="10.00">unistd.h</text>
</a>
</g>
</g>
<!-- Node24&#45;&gt;Node34 -->
<g id="edge53" class="edge">
<title>Node24&#45;&gt;Node34</title>
<path fill="none" stroke="midnightblue" d="M1445.67,-185.98C1516.34,-182.13 1652.72,-171.41 1765.05,-143 1767.72,-142.33 1770.45,-141.51 1773.17,-140.61"/>
<polygon fill="midnightblue" stroke="midnightblue" points="1774.57,-143.83 1782.76,-137.11 1772.17,-137.25 1774.57,-143.83"/>
</g>
<!-- Node35 -->
<g id="node35" class="node">
<title>Node35</title>
<g id="a_node35"><a xlink:title=" ">
<polygon fill="white" stroke="#bfbfbf" points="1848.05,-118 1848.05,-137 1904.05,-137 1904.05,-118 1848.05,-118"/>
<text text-anchor="middle" x="1876.05" y="-125" font-family="Helvetica,sans-Serif" font-size="10.00">sstream</text>
</a>
</g>
</g>
<!-- Node24&#45;&gt;Node35 -->
<g id="edge55" class="edge">
<title>Node24&#45;&gt;Node35</title>
<path fill="none" stroke="midnightblue" d="M1445.75,-187.35C1527.43,-185.32 1698.8,-176.96 1839.05,-143 1841.88,-142.31 1844.78,-141.46 1847.65,-140.51"/>
<polygon fill="midnightblue" stroke="midnightblue" points="1848.97,-143.76 1857.17,-137.04 1846.57,-137.18 1848.97,-143.76"/>
</g>
<!-- Node36 -->
<g id="node36" class="node">
<title>Node36</title>
<g id="a_node36"><a xlink:title=" ">
<polygon fill="white" stroke="#bfbfbf" points="1922.55,-118 1922.55,-137 1987.55,-137 1987.55,-118 1922.55,-118"/>
<text text-anchor="middle" x="1955.05" y="-125" font-family="Helvetica,sans-Serif" font-size="10.00">stdexcept</text>
</a>
</g>
</g>
<!-- Node24&#45;&gt;Node36 -->
<g id="edge56" class="edge">
<title>Node24&#45;&gt;Node36</title>
<path fill="none" stroke="midnightblue" d="M1445.84,-187.71C1537.49,-186.31 1743.85,-179.03 1913.05,-143 1916.55,-142.25 1920.16,-141.3 1923.73,-140.24"/>
<polygon fill="midnightblue" stroke="midnightblue" points="1925.11,-143.48 1933.54,-137.06 1922.95,-136.82 1925.11,-143.48"/>
</g>
<!-- Node25&#45;&gt;Node5 -->
<g id="edge42" class="edge">
<title>Node25&#45;&gt;Node5</title>
<path fill="none" stroke="midnightblue" d="M1139.76,-117.98C1073.19,-106.91 957.44,-87.67 888.77,-76.26"/>
<polygon fill="midnightblue" stroke="midnightblue" points="889.02,-72.75 878.58,-74.57 887.87,-79.66 889.02,-72.75"/>
</g>
<!-- Node25&#45;&gt;Node11 -->
<g id="edge44" class="edge">
<title>Node25&#45;&gt;Node11</title>
<path fill="none" stroke="midnightblue" d="M1179.01,-117.98C1165.54,-108.43 1143.48,-92.81 1127.33,-81.37"/>
<polygon fill="midnightblue" stroke="midnightblue" points="1129.25,-78.43 1119.06,-75.51 1125.2,-84.15 1129.25,-78.43"/>
</g>
<!-- Node26 -->
<g id="node26" class="node">
<title>Node26</title>
<g id="a_node26"><a xlink:title=" ">
<polygon fill="white" stroke="#bfbfbf" points="1167.55,-56.5 1167.55,-75.5 1214.55,-75.5 1214.55,-56.5 1167.55,-56.5"/>
<text text-anchor="middle" x="1191.05" y="-63.5" font-family="Helvetica,sans-Serif" font-size="10.00">cerrno</text>
</a>
</g>
</g>
<!-- Node25&#45;&gt;Node26 -->
<g id="edge43" class="edge">
<title>Node25&#45;&gt;Node26</title>
<path fill="none" stroke="midnightblue" d="M1191.05,-117.98C1191.05,-109.58 1191.05,-96.48 1191.05,-85.66"/>
<polygon fill="midnightblue" stroke="midnightblue" points="1194.55,-85.51 1191.05,-75.51 1187.55,-85.51 1194.55,-85.51"/>
</g>
<!-- Node25&#45;&gt;Node27 -->
<g id="edge45" class="edge">
<title>Node25&#45;&gt;Node27</title>
<path fill="none" stroke="midnightblue" d="M1226.89,-117.95C1236.64,-115.81 1247.22,-113.65 1257.05,-112 1379.67,-91.38 1525.94,-76.99 1597.02,-70.65"/>
<polygon fill="midnightblue" stroke="midnightblue" points="1597.71,-74.1 1607.36,-69.74 1597.09,-67.13 1597.71,-74.1"/>
</g>
</g>
</svg>
