<?xml version="1.0" encoding="UTF-8" standalone="no"?>
<!DOCTYPE svg PUBLIC "-//W3C//DTD SVG 1.1//EN"
 "http://www.w3.org/Graphics/SVG/1.1/DTD/svg11.dtd">
<!-- Generated by graphviz version 2.43.0 (0)
 -->
<!-- Title: main Pages: 1 -->
<svg width="670pt" height="307pt"
 viewBox="0.00 0.00 670.00 306.50" xmlns="http://www.w3.org/2000/svg" xmlns:xlink="http://www.w3.org/1999/xlink">
<g id="graph0" class="graph" transform="scale(1 1) rotate(0) translate(4 302.5)">
<title>main</title>
<polygon fill="white" stroke="transparent" points="-4,4 -4,-302.5 666,-302.5 666,4 -4,4"/>
<!-- Node1 -->
<g id="node1" class="node">
<title>Node1</title>
<g id="a_node1"><a xlink:title=" ">
<polygon fill="#bfbfbf" stroke="black" points="0,-175 0,-194 41,-194 41,-175 0,-175"/>
<text text-anchor="middle" x="20.5" y="-182" font-family="Helvetica,sans-Serif" font-size="10.00">main</text>
</a>
</g>
</g>
<!-- Node2 -->
<g id="node2" class="node">
<title>Node2</title>
<g id="a_node2"><a xlink:href="namespaceft_1_1irc.html#a9036d887eb28cf0fe185eea0a70d1844" target="_top" xlink:title=" ">
<polygon fill="white" stroke="black" points="82,-279 82,-298 194,-298 194,-279 82,-279"/>
<text text-anchor="middle" x="138" y="-286" font-family="Helvetica,sans-Serif" font-size="10.00">ft::irc::_make_client</text>
</a>
</g>
</g>
<!-- Node1&#45;&gt;Node2 -->
<g id="edge1" class="edge">
<title>Node1&#45;&gt;Node2</title>
<path fill="none" stroke="midnightblue" d="M25.23,-194.22C32.49,-211.85 50.19,-249.14 77,-269.5 79.49,-271.39 82.17,-273.09 84.96,-274.63"/>
<polygon fill="midnightblue" stroke="midnightblue" points="83.67,-277.89 94.21,-278.99 86.66,-271.56 83.67,-277.89"/>
</g>
<!-- Node3 -->
<g id="node3" class="node">
<title>Node3</title>
<g id="a_node3"><a xlink:href="structft_1_1serv_1_1logger.html#a27e4ab1c4bf29bd34bb166a3ecd76449" target="_top" xlink:title=" ">
<polygon fill="white" stroke="black" points="80,-241 80,-260 196,-260 196,-241 80,-241"/>
<text text-anchor="middle" x="138" y="-248" font-family="Helvetica,sans-Serif" font-size="10.00">ft::serv::logger::error</text>
</a>
</g>
</g>
<!-- Node1&#45;&gt;Node3 -->
<g id="edge2" class="edge">
<title>Node1&#45;&gt;Node3</title>
<path fill="none" stroke="midnightblue" d="M30.45,-194.08C40.76,-204.61 58.65,-221.37 77,-231.5 80.93,-233.67 85.14,-235.63 89.44,-237.4"/>
<polygon fill="midnightblue" stroke="midnightblue" points="88.33,-240.72 98.92,-240.95 90.79,-234.16 88.33,-240.72"/>
</g>
<!-- Node7 -->
<g id="node7" class="node">
<title>Node7</title>
<g id="a_node7"><a xlink:href="classft_1_1serv_1_1bootstrap.html#aa6e5ff5dc242e571b22a4625e4ad8f5f" target="_top" xlink:title=" ">
<polygon fill="white" stroke="black" points="87,-191.5 87,-221.5 189,-221.5 189,-191.5 87,-191.5"/>
<text text-anchor="start" x="95" y="-209.5" font-family="Helvetica,sans-Serif" font-size="10.00">ft::serv::bootstrap</text>
<text text-anchor="middle" x="138" y="-198.5" font-family="Helvetica,sans-Serif" font-size="10.00">::set_success</text>
</a>
</g>
</g>
<!-- Node1&#45;&gt;Node7 -->
<g id="edge6" class="edge">
<title>Node1&#45;&gt;Node7</title>
<path fill="none" stroke="midnightblue" d="M41.09,-188.23C51.15,-190.15 63.99,-192.59 76.99,-195.07"/>
<polygon fill="midnightblue" stroke="midnightblue" points="76.43,-198.53 86.91,-196.96 77.74,-191.65 76.43,-198.53"/>
</g>
<!-- Node8 -->
<g id="node8" class="node">
<title>Node8</title>
<g id="a_node8"><a xlink:href="classft_1_1serv_1_1bootstrap.html#acd923d6b838022038f437dad3e58abf0" target="_top" xlink:title=" ">
<polygon fill="white" stroke="black" points="87,-103.5 87,-133.5 189,-133.5 189,-103.5 87,-103.5"/>
<text text-anchor="start" x="95" y="-121.5" font-family="Helvetica,sans-Serif" font-size="10.00">ft::serv::bootstrap</text>
<text text-anchor="middle" x="138" y="-110.5" font-family="Helvetica,sans-Serif" font-size="10.00">::start_client</text>
</a>
</g>
</g>
<!-- Node1&#45;&gt;Node8 -->
<g id="edge7" class="edge">
<title>Node1&#45;&gt;Node8</title>
<path fill="none" stroke="midnightblue" d="M32.85,-174.84C43.69,-165.92 60.74,-152.71 77,-143.5 80.44,-141.55 84.05,-139.67 87.74,-137.87"/>
<polygon fill="midnightblue" stroke="midnightblue" points="89.38,-140.97 96.98,-133.59 86.43,-134.62 89.38,-140.97"/>
</g>
<!-- Node18 -->
<g id="node18" class="node">
<title>Node18</title>
<g id="a_node18"><a xlink:href="structft_1_1serv_1_1logger.html#aeb3f8c326c1e3b607121cf351df5fb55" target="_top" xlink:title=" ">
<polygon fill="white" stroke="black" points="80,-153 80,-172 196,-172 196,-153 80,-153"/>
<text text-anchor="middle" x="138" y="-160" font-family="Helvetica,sans-Serif" font-size="10.00">ft::serv::logger::warn</text>
</a>
</g>
</g>
<!-- Node1&#45;&gt;Node18 -->
<g id="edge17" class="edge">
<title>Node1&#45;&gt;Node18</title>
<path fill="none" stroke="midnightblue" d="M41.09,-180.77C51.15,-178.85 63.99,-176.41 76.99,-173.93"/>
<polygon fill="midnightblue" stroke="midnightblue" points="77.74,-177.35 86.91,-172.04 76.43,-170.47 77.74,-177.35"/>
</g>
<!-- Node19 -->
<g id="node19" class="node">
<title>Node19</title>
<g id="a_node19"><a xlink:href="classft_1_1serv_1_1syscall__failed.html#a75eee00e267e027bb79a3de94a408bf1" target="_top" xlink:title=" ">
<polygon fill="white" stroke="black" points="77,-54.5 77,-84.5 199,-84.5 199,-54.5 77,-54.5"/>
<text text-anchor="start" x="85" y="-72.5" font-family="Helvetica,sans-Serif" font-size="10.00">ft::serv::syscall_failed</text>
<text text-anchor="middle" x="138" y="-61.5" font-family="Helvetica,sans-Serif" font-size="10.00">::what</text>
</a>
</g>
</g>
<!-- Node1&#45;&gt;Node19 -->
<g id="edge19" class="edge">
<title>Node1&#45;&gt;Node19</title>
<path fill="none" stroke="midnightblue" d="M24.97,-174.87C32.03,-156.57 49.73,-116.56 77,-93.5 78.51,-92.22 80.1,-91.01 81.74,-89.85"/>
<polygon fill="midnightblue" stroke="midnightblue" points="83.68,-92.77 90.38,-84.56 80.02,-86.8 83.68,-92.77"/>
</g>
<!-- Node4 -->
<g id="node4" class="node">
<title>Node4</title>
<g id="a_node4"><a xlink:href="namespaceft_1_1serv_1_1__internal.html#a4dfb80be7b817fc0ee18658f313a6274" target="_top" xlink:title=" ">
<polygon fill="white" stroke="black" points="242.5,-235.5 242.5,-265.5 340.5,-265.5 340.5,-235.5 242.5,-235.5"/>
<text text-anchor="start" x="250.5" y="-253.5" font-family="Helvetica,sans-Serif" font-size="10.00">ft::serv::_internal</text>
<text text-anchor="middle" x="291.5" y="-242.5" font-family="Helvetica,sans-Serif" font-size="10.00">::print</text>
</a>
</g>
</g>
<!-- Node3&#45;&gt;Node4 -->
<g id="edge3" class="edge">
<title>Node3&#45;&gt;Node4</title>
<path fill="none" stroke="midnightblue" d="M196.28,-250.5C207.94,-250.5 220.23,-250.5 231.94,-250.5"/>
<polygon fill="midnightblue" stroke="midnightblue" points="232.05,-254 242.05,-250.5 232.05,-247 232.05,-254"/>
</g>
<!-- Node5 -->
<g id="node5" class="node">
<title>Node5</title>
<g id="a_node5"><a xlink:href="namespaceft_1_1serv_1_1__internal.html#aff49349b58dc84fa69076e9cd27a1db4" target="_top" xlink:title=" ">
<polygon fill="white" stroke="black" points="384,-264.5 384,-294.5 528,-294.5 528,-264.5 384,-264.5"/>
<text text-anchor="start" x="392" y="-282.5" font-family="Helvetica,sans-Serif" font-size="10.00">ft::serv::_internal</text>
<text text-anchor="middle" x="456" y="-271.5" font-family="Helvetica,sans-Serif" font-size="10.00">::make_format_string_line</text>
</a>
</g>
</g>
<!-- Node4&#45;&gt;Node5 -->
<g id="edge4" class="edge">
<title>Node4&#45;&gt;Node5</title>
<path fill="none" stroke="midnightblue" d="M340.82,-259.12C351.24,-260.98 362.52,-263 373.81,-265.01"/>
<polygon fill="midnightblue" stroke="midnightblue" points="373.25,-268.47 383.71,-266.78 374.48,-261.58 373.25,-268.47"/>
</g>
<!-- Node6 -->
<g id="node6" class="node">
<title>Node6</title>
<g id="a_node6"><a xlink:href="namespaceft_1_1serv_1_1__internal.html#aad4af39d62c2b1687b0bef7a91bf6c60" target="_top" xlink:title=" ">
<polygon fill="white" stroke="black" points="404.5,-215.5 404.5,-245.5 507.5,-245.5 507.5,-215.5 404.5,-215.5"/>
<text text-anchor="start" x="412.5" y="-233.5" font-family="Helvetica,sans-Serif" font-size="10.00">ft::serv::_internal</text>
<text text-anchor="middle" x="456" y="-222.5" font-family="Helvetica,sans-Serif" font-size="10.00">::make_utc_string</text>
</a>
</g>
</g>
<!-- Node4&#45;&gt;Node6 -->
<g id="edge5" class="edge">
<title>Node4&#45;&gt;Node6</title>
<path fill="none" stroke="midnightblue" d="M340.82,-244.55C357.55,-242.49 376.53,-240.16 394.15,-237.99"/>
<polygon fill="midnightblue" stroke="midnightblue" points="394.83,-241.43 404.33,-236.74 393.98,-234.48 394.83,-241.43"/>
</g>
<!-- Node9 -->
<g id="node9" class="node">
<title>Node9</title>
<g id="a_node9"><a xlink:href="bootstrap_8cpp.html#acf03e66a45bc7cc346d17d294290c024" target="_top" xlink:title=" ">
<polygon fill="white" stroke="black" points="239.5,-197 239.5,-216 343.5,-216 343.5,-197 239.5,-197"/>
<text text-anchor="middle" x="291.5" y="-204" font-family="Helvetica,sans-Serif" font-size="10.00">_to_c_str_nullable</text>
</a>
</g>
</g>
<!-- Node8&#45;&gt;Node9 -->
<g id="edge8" class="edge">
<title>Node8&#45;&gt;Node9</title>
<path fill="none" stroke="midnightblue" d="M182.36,-133.52C188.21,-136.41 193.93,-139.73 199,-143.5 219.27,-158.59 214.25,-173.08 235,-187.5 237.85,-189.48 240.92,-191.27 244.1,-192.88"/>
<polygon fill="midnightblue" stroke="midnightblue" points="242.73,-196.1 253.29,-196.98 245.58,-189.71 242.73,-196.1"/>
</g>
<!-- Node10 -->
<g id="node10" class="node">
<title>Node10</title>
<g id="a_node10"><a xlink:href="structft_1_1serv_1_1socket__utils.html#ad0dccc18b1c71b736ffcd2328c3f3ccd" target="_top" xlink:title=" ">
<polygon fill="white" stroke="black" points="235,-147.5 235,-177.5 348,-177.5 348,-147.5 235,-147.5"/>
<text text-anchor="start" x="243" y="-165.5" font-family="Helvetica,sans-Serif" font-size="10.00">ft::serv::socket_utils</text>
<text text-anchor="middle" x="291.5" y="-154.5" font-family="Helvetica,sans-Serif" font-size="10.00">::close_socket</text>
</a>
</g>
</g>
<!-- Node8&#45;&gt;Node10 -->
<g id="edge9" class="edge">
<title>Node8&#45;&gt;Node10</title>
<path fill="none" stroke="midnightblue" d="M189.03,-133.03C201.73,-136.72 215.53,-140.73 228.75,-144.57"/>
<polygon fill="midnightblue" stroke="midnightblue" points="228.13,-148.03 238.71,-147.46 230.08,-141.31 228.13,-148.03"/>
</g>
<!-- Node11 -->
<g id="node11" class="node">
<title>Node11</title>
<g id="a_node11"><a xlink:href="structft_1_1serv_1_1socket__utils.html#a56120e0cd1c6aef9b5bef57bc37b85eb" target="_top" xlink:title=" ">
<polygon fill="white" stroke="black" points="235,-98.5 235,-128.5 348,-128.5 348,-98.5 235,-98.5"/>
<text text-anchor="start" x="243" y="-116.5" font-family="Helvetica,sans-Serif" font-size="10.00">ft::serv::socket_utils</text>
<text text-anchor="middle" x="291.5" y="-105.5" font-family="Helvetica,sans-Serif" font-size="10.00">::connect_socket</text>
</a>
</g>
</g>
<!-- Node8&#45;&gt;Node11 -->
<g id="edge10" class="edge">
<title>Node8&#45;&gt;Node11</title>
<path fill="none" stroke="midnightblue" d="M189.03,-116.85C200.36,-116.47 212.56,-116.07 224.44,-115.68"/>
<polygon fill="midnightblue" stroke="midnightblue" points="224.89,-119.17 234.77,-115.34 224.66,-112.17 224.89,-119.17"/>
</g>
<!-- Node15 -->
<g id="node15" class="node">
<title>Node15</title>
<g id="a_node15"><a xlink:href="structft_1_1serv_1_1socket__utils.html#af26c480a74e72a232aca84cd17e2de61" target="_top" xlink:title=" ">
<polygon fill="white" stroke="black" points="235,-49.5 235,-79.5 348,-79.5 348,-49.5 235,-49.5"/>
<text text-anchor="start" x="243" y="-67.5" font-family="Helvetica,sans-Serif" font-size="10.00">ft::serv::socket_utils</text>
<text text-anchor="middle" x="291.5" y="-56.5" font-family="Helvetica,sans-Serif" font-size="10.00">::name_socket</text>
</a>
</g>
</g>
<!-- Node8&#45;&gt;Node15 -->
<g id="edge14" class="edge">
<title>Node8&#45;&gt;Node15</title>
<path fill="none" stroke="midnightblue" d="M181.2,-103.46C199.02,-97.11 219.94,-89.65 238.69,-82.97"/>
<polygon fill="midnightblue" stroke="midnightblue" points="240.02,-86.21 248.26,-79.55 237.67,-79.62 240.02,-86.21"/>
</g>
<!-- Node17 -->
<g id="node17" class="node">
<title>Node17</title>
<g id="a_node17"><a xlink:href="structft_1_1serv_1_1socket__utils.html#a818575bfd7756e64e4226b85a7492bc7" target="_top" xlink:title=" ">
<polygon fill="white" stroke="black" points="235,-0.5 235,-30.5 348,-30.5 348,-0.5 235,-0.5"/>
<text text-anchor="start" x="243" y="-18.5" font-family="Helvetica,sans-Serif" font-size="10.00">ft::serv::socket_utils</text>
<text text-anchor="middle" x="291.5" y="-7.5" font-family="Helvetica,sans-Serif" font-size="10.00">::set_nonblocking</text>
</a>
</g>
</g>
<!-- Node8&#45;&gt;Node17 -->
<g id="edge16" class="edge">
<title>Node8&#45;&gt;Node17</title>
<path fill="none" stroke="midnightblue" d="M183.64,-103.44C189.11,-100.6 194.38,-97.3 199,-93.5 221.27,-75.17 212.85,-57.98 235,-39.5 236.51,-38.24 238.1,-37.03 239.74,-35.88"/>
<polygon fill="midnightblue" stroke="midnightblue" points="241.68,-38.8 248.35,-30.58 238,-32.84 241.68,-38.8"/>
</g>
<!-- Node12 -->
<g id="node12" class="node">
<title>Node12</title>
<g id="a_node12"><a xlink:href="structft_1_1serv_1_1socket__utils.html#af1553b9c3e9cdc5e38f7ecf6c10fb3c1" target="_top" xlink:title=" ">
<polygon fill="white" stroke="black" points="399.5,-147.5 399.5,-177.5 512.5,-177.5 512.5,-147.5 399.5,-147.5"/>
<text text-anchor="start" x="407.5" y="-165.5" font-family="Helvetica,sans-Serif" font-size="10.00">ft::serv::socket_utils</text>
<text text-anchor="middle" x="456" y="-154.5" font-family="Helvetica,sans-Serif" font-size="10.00">::forward_lookup</text>
</a>
</g>
</g>
<!-- Node11&#45;&gt;Node12 -->
<g id="edge11" class="edge">
<title>Node11&#45;&gt;Node12</title>
<path fill="none" stroke="midnightblue" d="M342.58,-128.6C359.19,-133.61 377.84,-139.23 395.1,-144.44"/>
<polygon fill="midnightblue" stroke="midnightblue" points="394.5,-147.91 405.08,-147.45 396.52,-141.21 394.5,-147.91"/>
</g>
<!-- Node14 -->
<g id="node14" class="node">
<title>Node14</title>
<g id="a_node14"><a xlink:href="structft_1_1serv_1_1socket__utils.html#aae3d021284dea2fa5ae81820b522cfe4" target="_top" xlink:title=" ">
<polygon fill="white" stroke="black" points="399.5,-98.5 399.5,-128.5 512.5,-128.5 512.5,-98.5 399.5,-98.5"/>
<text text-anchor="start" x="407.5" y="-116.5" font-family="Helvetica,sans-Serif" font-size="10.00">ft::serv::socket_utils</text>
<text text-anchor="middle" x="456" y="-105.5" font-family="Helvetica,sans-Serif" font-size="10.00">::nosigpipe_connect</text>
</a>
</g>
</g>
<!-- Node11&#45;&gt;Node14 -->
<g id="edge13" class="edge">
<title>Node11&#45;&gt;Node14</title>
<path fill="none" stroke="midnightblue" d="M348.42,-113.5C361.52,-113.5 375.59,-113.5 389.08,-113.5"/>
<polygon fill="midnightblue" stroke="midnightblue" points="389.25,-117 399.25,-113.5 389.25,-110 389.25,-117"/>
</g>
<!-- Node13 -->
<g id="node13" class="node">
<title>Node13</title>
<g id="a_node13"><a xlink:href="classft_1_1serv_1_1__internal_1_1ai__failed.html#ad3aa900794508d370ef6e1b3c104a39e" target="_top" xlink:title=" ">
<polygon fill="white" stroke="black" points="564,-147.5 564,-177.5 662,-177.5 662,-147.5 564,-147.5"/>
<text text-anchor="start" x="572" y="-165.5" font-family="Helvetica,sans-Serif" font-size="10.00">ft::serv::_internal</text>
<text text-anchor="middle" x="613" y="-154.5" font-family="Helvetica,sans-Serif" font-size="10.00">::ai_failed::error</text>
</a>
</g>
</g>
<!-- Node12&#45;&gt;Node13 -->
<g id="edge12" class="edge">
<title>Node12&#45;&gt;Node13</title>
<path fill="none" stroke="midnightblue" d="M512.52,-162.5C525.88,-162.5 540.19,-162.5 553.67,-162.5"/>
<polygon fill="midnightblue" stroke="midnightblue" points="553.79,-166 563.79,-162.5 553.79,-159 553.79,-166"/>
</g>
<!-- Node16 -->
<g id="node16" class="node">
<title>Node16</title>
<g id="a_node16"><a xlink:href="structft_1_1serv_1_1socket__utils.html#aef0594e2d9bdc8b8e15bcab89950e093" target="_top" xlink:title=" ">
<polygon fill="white" stroke="black" points="399.5,-49.5 399.5,-79.5 512.5,-79.5 512.5,-49.5 399.5,-49.5"/>
<text text-anchor="start" x="407.5" y="-67.5" font-family="Helvetica,sans-Serif" font-size="10.00">ft::serv::socket_utils</text>
<text text-anchor="middle" x="456" y="-56.5" font-family="Helvetica,sans-Serif" font-size="10.00">::reverse_lookup</text>
</a>
</g>
</g>
<!-- Node15&#45;&gt;Node16 -->
<g id="edge15" class="edge">
<title>Node15&#45;&gt;Node16</title>
<path fill="none" stroke="midnightblue" d="M348.42,-64.5C361.52,-64.5 375.59,-64.5 389.08,-64.5"/>
<polygon fill="midnightblue" stroke="midnightblue" points="389.25,-68 399.25,-64.5 389.25,-61 389.25,-68"/>
</g>
<!-- Node18&#45;&gt;Node4 -->
<g id="edge18" class="edge">
<title>Node18&#45;&gt;Node4</title>
<path fill="none" stroke="midnightblue" d="M178.25,-172.1C185.49,-174.82 192.74,-178.24 199,-182.5 219.6,-196.53 215.14,-210.45 235,-225.5 237.29,-227.24 239.72,-228.88 242.23,-230.45"/>
<polygon fill="midnightblue" stroke="midnightblue" points="240.59,-233.54 251.02,-235.41 244.04,-227.45 240.59,-233.54"/>
</g>
</g>
</svg>
