<?xml version="1.0" encoding="UTF-8" standalone="no"?>
<!DOCTYPE svg PUBLIC "-//W3C//DTD SVG 1.1//EN"
 "http://www.w3.org/Graphics/SVG/1.1/DTD/svg11.dtd">
<!-- Generated by graphviz version 2.43.0 (0)
 -->
<!-- Title: main Pages: 1 -->
<svg width="639pt" height="186pt"
 viewBox="0.00 0.00 639.00 186.00" xmlns="http://www.w3.org/2000/svg" xmlns:xlink="http://www.w3.org/1999/xlink">
<g id="graph0" class="graph" transform="scale(1 1) rotate(0) translate(4 182)">
<title>main</title>
<polygon fill="white" stroke="transparent" points="-4,4 -4,-182 635,-182 635,4 -4,4"/>
<!-- Node1 -->
<g id="node1" class="node">
<title>Node1</title>
<g id="a_node1"><a xlink:title=" ">
<polygon fill="#bfbfbf" stroke="black" points="0,-79 0,-98 41,-98 41,-79 0,-79"/>
<text text-anchor="middle" x="20.5" y="-86" font-family="Helvetica,sans-Serif" font-size="10.00">main</text>
</a>
</g>
</g>
<!-- Node2 -->
<g id="node2" class="node">
<title>Node2</title>
<g id="a_node2"><a xlink:href="namespaceft_1_1irc.html#a9036d887eb28cf0fe185eea0a70d1844" target="_top" xlink:title=" ">
<polygon fill="white" stroke="black" points="82,-123 82,-142 194,-142 194,-123 82,-123"/>
<text text-anchor="middle" x="138" y="-130" font-family="Helvetica,sans-Serif" font-size="10.00">ft::irc::_make_client</text>
</a>
</g>
</g>
<!-- Node1&#45;&gt;Node2 -->
<g id="edge1" class="edge">
<title>Node1&#45;&gt;Node2</title>
<path fill="none" stroke="midnightblue" d="M41.11,-97.47C51.65,-102.17 64.94,-107.89 77,-112.5 83.41,-114.95 90.26,-117.39 96.97,-119.69"/>
<polygon fill="midnightblue" stroke="midnightblue" points="96.01,-123.06 106.6,-122.93 98.24,-116.43 96.01,-123.06"/>
</g>
<!-- Node3 -->
<g id="node3" class="node">
<title>Node3</title>
<g id="a_node3"><a xlink:href="classft_1_1serv_1_1bootstrap.html#acd923d6b838022038f437dad3e58abf0" target="_top" xlink:title=" ">
<polygon fill="white" stroke="black" points="87,-73.5 87,-103.5 189,-103.5 189,-73.5 87,-73.5"/>
<text text-anchor="start" x="95" y="-91.5" font-family="Helvetica,sans-Serif" font-size="10.00">ft::serv::bootstrap</text>
<text text-anchor="middle" x="138" y="-80.5" font-family="Helvetica,sans-Serif" font-size="10.00">::start_client</text>
</a>
</g>
</g>
<!-- Node1&#45;&gt;Node3 -->
<g id="edge2" class="edge">
<title>Node1&#45;&gt;Node3</title>
<path fill="none" stroke="midnightblue" d="M41.09,-88.5C51.05,-88.5 63.74,-88.5 76.6,-88.5"/>
<polygon fill="midnightblue" stroke="midnightblue" points="76.91,-92 86.91,-88.5 76.91,-85 76.91,-92"/>
</g>
<!-- Node12 -->
<g id="node12" class="node">
<title>Node12</title>
<g id="a_node12"><a xlink:href="classft_1_1serv_1_1syscall__failed.html#a75eee00e267e027bb79a3de94a408bf1" target="_top" xlink:title=" ">
<polygon fill="white" stroke="black" points="77,-24.5 77,-54.5 199,-54.5 199,-24.5 77,-24.5"/>
<text text-anchor="start" x="85" y="-42.5" font-family="Helvetica,sans-Serif" font-size="10.00">ft::serv::syscall_failed</text>
<text text-anchor="middle" x="138" y="-31.5" font-family="Helvetica,sans-Serif" font-size="10.00">::what</text>
</a>
</g>
</g>
<!-- Node1&#45;&gt;Node12 -->
<g id="edge11" class="edge">
<title>Node1&#45;&gt;Node12</title>
<path fill="none" stroke="midnightblue" d="M41.19,-79.38C51.76,-74.55 65.04,-68.58 77,-63.5 80.89,-61.85 84.94,-60.16 89.01,-58.48"/>
<polygon fill="midnightblue" stroke="midnightblue" points="90.55,-61.64 98.49,-54.62 87.91,-55.15 90.55,-61.64"/>
</g>
<!-- Node4 -->
<g id="node4" class="node">
<title>Node4</title>
<g id="a_node4"><a xlink:href="structft_1_1serv_1_1socket__utils.html#ad0dccc18b1c71b736ffcd2328c3f3ccd" target="_top" xlink:title=" ">
<polygon fill="white" stroke="black" points="235,-147.5 235,-177.5 348,-177.5 348,-147.5 235,-147.5"/>
<text text-anchor="start" x="243" y="-165.5" font-family="Helvetica,sans-Serif" font-size="10.00">ft::serv::socket_utils</text>
<text text-anchor="middle" x="291.5" y="-154.5" font-family="Helvetica,sans-Serif" font-size="10.00">::close_socket</text>
</a>
</g>
</g>
<!-- Node3&#45;&gt;Node4 -->
<g id="edge3" class="edge">
<title>Node3&#45;&gt;Node4</title>
<path fill="none" stroke="midnightblue" d="M178.24,-103.56C185.26,-106.62 192.43,-109.99 199,-113.5 215.95,-122.57 218.18,-128.19 235,-137.5 238.44,-139.4 242.05,-141.28 245.71,-143.1"/>
<polygon fill="midnightblue" stroke="midnightblue" points="244.31,-146.31 254.84,-147.49 247.34,-140 244.31,-146.31"/>
</g>
<!-- Node5 -->
<g id="node5" class="node">
<title>Node5</title>
<g id="a_node5"><a xlink:href="structft_1_1serv_1_1socket__utils.html#a56120e0cd1c6aef9b5bef57bc37b85eb" target="_top" xlink:title=" ">
<polygon fill="white" stroke="black" points="235,-98.5 235,-128.5 348,-128.5 348,-98.5 235,-98.5"/>
<text text-anchor="start" x="243" y="-116.5" font-family="Helvetica,sans-Serif" font-size="10.00">ft::serv::socket_utils</text>
<text text-anchor="middle" x="291.5" y="-105.5" font-family="Helvetica,sans-Serif" font-size="10.00">::connect_socket</text>
</a>
</g>
</g>
<!-- Node3&#45;&gt;Node5 -->
<g id="edge4" class="edge">
<title>Node3&#45;&gt;Node5</title>
<path fill="none" stroke="midnightblue" d="M189.03,-96.76C200.47,-98.64 212.81,-100.68 224.8,-102.66"/>
<polygon fill="midnightblue" stroke="midnightblue" points="224.33,-106.13 234.77,-104.3 225.47,-99.22 224.33,-106.13"/>
</g>
<!-- Node9 -->
<g id="node9" class="node">
<title>Node9</title>
<g id="a_node9"><a xlink:href="structft_1_1serv_1_1socket__utils.html#af26c480a74e72a232aca84cd17e2de61" target="_top" xlink:title=" ">
<polygon fill="white" stroke="black" points="235,-49.5 235,-79.5 348,-79.5 348,-49.5 235,-49.5"/>
<text text-anchor="start" x="243" y="-67.5" font-family="Helvetica,sans-Serif" font-size="10.00">ft::serv::socket_utils</text>
<text text-anchor="middle" x="291.5" y="-56.5" font-family="Helvetica,sans-Serif" font-size="10.00">::name_socket</text>
</a>
</g>
</g>
<!-- Node3&#45;&gt;Node9 -->
<g id="edge8" class="edge">
<title>Node3&#45;&gt;Node9</title>
<path fill="none" stroke="midnightblue" d="M189.03,-80.57C200.47,-78.76 212.81,-76.81 224.8,-74.91"/>
<polygon fill="midnightblue" stroke="midnightblue" points="225.44,-78.35 234.77,-73.33 224.35,-71.44 225.44,-78.35"/>
</g>
<!-- Node11 -->
<g id="node11" class="node">
<title>Node11</title>
<g id="a_node11"><a xlink:href="structft_1_1serv_1_1socket__utils.html#a818575bfd7756e64e4226b85a7492bc7" target="_top" xlink:title=" ">
<polygon fill="white" stroke="black" points="235,-0.5 235,-30.5 348,-30.5 348,-0.5 235,-0.5"/>
<text text-anchor="start" x="243" y="-18.5" font-family="Helvetica,sans-Serif" font-size="10.00">ft::serv::socket_utils</text>
<text text-anchor="middle" x="291.5" y="-7.5" font-family="Helvetica,sans-Serif" font-size="10.00">::set_nonblocking</text>
</a>
</g>
</g>
<!-- Node3&#45;&gt;Node11 -->
<g id="edge10" class="edge">
<title>Node3&#45;&gt;Node11</title>
<path fill="none" stroke="midnightblue" d="M178.24,-73.44C185.26,-70.38 192.43,-67.01 199,-63.5 215.95,-54.43 218.11,-48.69 235,-39.5 237.86,-37.95 240.84,-36.42 243.87,-34.93"/>
<polygon fill="midnightblue" stroke="midnightblue" points="245.49,-38.03 253.04,-30.6 242.5,-31.7 245.49,-38.03"/>
</g>
<!-- Node6 -->
<g id="node6" class="node">
<title>Node6</title>
<g id="a_node6"><a xlink:href="structft_1_1serv_1_1socket__utils.html#af1553b9c3e9cdc5e38f7ecf6c10fb3c1" target="_top" xlink:title=" ">
<polygon fill="white" stroke="black" points="384,-147.5 384,-177.5 497,-177.5 497,-147.5 384,-147.5"/>
<text text-anchor="start" x="392" y="-165.5" font-family="Helvetica,sans-Serif" font-size="10.00">ft::serv::socket_utils</text>
<text text-anchor="middle" x="440.5" y="-154.5" font-family="Helvetica,sans-Serif" font-size="10.00">::forward_lookup</text>
</a>
</g>
</g>
<!-- Node5&#45;&gt;Node6 -->
<g id="edge5" class="edge">
<title>Node5&#45;&gt;Node6</title>
<path fill="none" stroke="midnightblue" d="M337.8,-128.6C352.54,-133.51 369.07,-139.02 384.44,-144.15"/>
<polygon fill="midnightblue" stroke="midnightblue" points="383.75,-147.61 394.35,-147.45 385.97,-140.97 383.75,-147.61"/>
</g>
<!-- Node8 -->
<g id="node8" class="node">
<title>Node8</title>
<g id="a_node8"><a xlink:href="structft_1_1serv_1_1socket__utils.html#aae3d021284dea2fa5ae81820b522cfe4" target="_top" xlink:title=" ">
<polygon fill="white" stroke="black" points="384,-98.5 384,-128.5 497,-128.5 497,-98.5 384,-98.5"/>
<text text-anchor="start" x="392" y="-116.5" font-family="Helvetica,sans-Serif" font-size="10.00">ft::serv::socket_utils</text>
<text text-anchor="middle" x="440.5" y="-105.5" font-family="Helvetica,sans-Serif" font-size="10.00">::nosigpipe_connect</text>
</a>
</g>
</g>
<!-- Node5&#45;&gt;Node8 -->
<g id="edge7" class="edge">
<title>Node5&#45;&gt;Node8</title>
<path fill="none" stroke="midnightblue" d="M348.07,-113.5C356.49,-113.5 365.24,-113.5 373.84,-113.5"/>
<polygon fill="midnightblue" stroke="midnightblue" points="373.85,-117 383.85,-113.5 373.85,-110 373.85,-117"/>
</g>
<!-- Node7 -->
<g id="node7" class="node">
<title>Node7</title>
<g id="a_node7"><a xlink:href="classft_1_1serv_1_1__internal_1_1ai__failed.html#ad3aa900794508d370ef6e1b3c104a39e" target="_top" xlink:title=" ">
<polygon fill="white" stroke="black" points="533,-147.5 533,-177.5 631,-177.5 631,-147.5 533,-147.5"/>
<text text-anchor="start" x="541" y="-165.5" font-family="Helvetica,sans-Serif" font-size="10.00">ft::serv::_internal</text>
<text text-anchor="middle" x="582" y="-154.5" font-family="Helvetica,sans-Serif" font-size="10.00">::ai_failed::error</text>
</a>
</g>
</g>
<!-- Node6&#45;&gt;Node7 -->
<g id="edge6" class="edge">
<title>Node6&#45;&gt;Node7</title>
<path fill="none" stroke="midnightblue" d="M497.03,-162.5C505.46,-162.5 514.18,-162.5 522.66,-162.5"/>
<polygon fill="midnightblue" stroke="midnightblue" points="522.86,-166 532.86,-162.5 522.86,-159 522.86,-166"/>
</g>
<!-- Node10 -->
<g id="node10" class="node">
<title>Node10</title>
<g id="a_node10"><a xlink:href="structft_1_1serv_1_1socket__utils.html#aef0594e2d9bdc8b8e15bcab89950e093" target="_top" xlink:title=" ">
<polygon fill="white" stroke="black" points="384,-49.5 384,-79.5 497,-79.5 497,-49.5 384,-49.5"/>
<text text-anchor="start" x="392" y="-67.5" font-family="Helvetica,sans-Serif" font-size="10.00">ft::serv::socket_utils</text>
<text text-anchor="middle" x="440.5" y="-56.5" font-family="Helvetica,sans-Serif" font-size="10.00">::reverse_lookup</text>
</a>
</g>
</g>
<!-- Node9&#45;&gt;Node10 -->
<g id="edge9" class="edge">
<title>Node9&#45;&gt;Node10</title>
<path fill="none" stroke="midnightblue" d="M348.07,-64.5C356.49,-64.5 365.24,-64.5 373.84,-64.5"/>
<polygon fill="midnightblue" stroke="midnightblue" points="373.85,-68 383.85,-64.5 373.85,-61 373.85,-68"/>
</g>
</g>
</svg>
