<?xml version="1.0" encoding="UTF-8" standalone="no"?>
<!DOCTYPE svg PUBLIC "-//W3C//DTD SVG 1.1//EN"
 "http://www.w3.org/Graphics/SVG/1.1/DTD/svg11.dtd">
<!-- Generated by graphviz version 2.43.0 (0)
 -->
<!-- Title: includes/libserv/bytes_encoder.cpp Pages: 1 -->
<!--zoomable 319 -->
<svg id="main" version="1.1" xmlns="http://www.w3.org/2000/svg" xmlns:xlink="http://www.w3.org/1999/xlink" xml:space="preserve" onload="init(evt)">
<style type="text/css"><![CDATA[
.edge:hover path { stroke: red; }
.edge:hover polygon { stroke: red; fill: red; }
]]></style>
<script type="text/javascript"><![CDATA[
var edges = document.getElementsByTagName('g');
if (edges && edges.length) {
  for (var i=0;i<edges.length;i++) {
    if (edges[i].id.substr(0,4)=='edge') {
      edges[i].setAttribute('class','edge');
    }
  }
}
]]></script>
        <defs>
                <circle id="rim" cx="0" cy="0" r="7"/>
                <circle id="rim2" cx="0" cy="0" r="3.5"/>
                <g id="zoomPlus">
                        <use xlink:href="#rim" fill="#404040">
                                <set attributeName="fill" to="#808080" begin="zoomplus.mouseover" end="zoomplus.mouseout"/>
                        </use>
                        <path d="M-4,0h8M0,-4v8" fill="none" stroke="white" stroke-width="1.5" pointer-events="none"/>
                </g>
                <g id="zoomMin">
                        <use xlink:href="#rim" fill="#404040">
                                <set attributeName="fill" to="#808080" begin="zoomminus.mouseover" end="zoomminus.mouseout"/>
                        </use>
                        <path d="M-4,0h8" fill="none" stroke="white" stroke-width="1.5" pointer-events="none"/>
                </g>
                <g id="dirArrow">
                        <path fill="none" stroke="white" stroke-width="1.5" d="M0,-3.0v7 M-2.5,-0.5L0,-3.0L2.5,-0.5"/>
                </g>
               <g id="resetDef">
                       <use xlink:href="#rim2" fill="#404040">
                               <set attributeName="fill" to="#808080" begin="reset.mouseover" end="reset.mouseout"/>
                       </use>
               </g>
        </defs>

<script type="text/javascript">
var viewWidth = 944;
var viewHeight = 319;
var sectionId = 'dynsection-0';
</script>
<script xlink:href="svgpan.js"/>
<svg id="graph" class="graph">
<g id="viewport">
<title>includes/libserv/bytes_encoder.cpp</title>
<polygon fill="white" stroke="transparent" points="-4,4 -4,-315 940.2,-315 940.2,4 -4,4"/>
<!-- Node1 -->
<g id="node1" class="node">
<title>Node1</title>
<g id="a_node1"><a xlink:title=" ">
<polygon fill="#bfbfbf" stroke="black" points="285.2,-280.5 285.2,-310.5 408.2,-310.5 408.2,-280.5 285.2,-280.5"/>
<text text-anchor="start" x="293.2" y="-298.5" font-family="Helvetica,sans-Serif" font-size="10.00">includes/libserv/bytes</text>
<text text-anchor="middle" x="346.7" y="-287.5" font-family="Helvetica,sans-Serif" font-size="10.00">_encoder.cpp</text>
</a>
</g>
</g>
<!-- Node2 -->
<g id="node2" class="node">
<title>Node2</title>
<g id="a_node2"><a xlink:href="bytes__encoder_8hpp.html" target="_top" xlink:title=" ">
<polygon fill="white" stroke="black" points="292.7,-224.5 292.7,-243.5 400.7,-243.5 400.7,-224.5 292.7,-224.5"/>
<text text-anchor="middle" x="346.7" y="-231.5" font-family="Helvetica,sans-Serif" font-size="10.00">bytes_encoder.hpp</text>
</a>
</g>
</g>
<!-- Node1&#45;&gt;Node2 -->
<g id="edge1" class="edge">
<title>Node1&#45;&gt;Node2</title>
<path fill="none" stroke="midnightblue" d="M346.7,-280.4C346.7,-272.47 346.7,-262.46 346.7,-253.86"/>
<polygon fill="midnightblue" stroke="midnightblue" points="350.2,-253.66 346.7,-243.66 343.2,-253.66 350.2,-253.66"/>
</g>
<!-- Node3 -->
<g id="node3" class="node">
<title>Node3</title>
<g id="a_node3"><a xlink:href="byte__buffer_8hpp.html" target="_top" xlink:title=" ">
<polygon fill="white" stroke="black" points="78.7,-168.5 78.7,-187.5 170.7,-187.5 170.7,-168.5 78.7,-168.5"/>
<text text-anchor="middle" x="124.7" y="-175.5" font-family="Helvetica,sans-Serif" font-size="10.00">byte_buffer.hpp</text>
</a>
</g>
</g>
<!-- Node1&#45;&gt;Node3 -->
<g id="edge23" class="edge">
<title>Node1&#45;&gt;Node3</title>
<path fill="none" stroke="midnightblue" d="M319.48,-280.34C276.19,-257.82 192.26,-214.15 150.13,-192.23"/>
<polygon fill="midnightblue" stroke="midnightblue" points="151.57,-189.03 141.08,-187.52 148.34,-195.24 151.57,-189.03"/>
</g>
<!-- Node4 -->
<g id="node4" class="node">
<title>Node4</title>
<g id="a_node4"><a xlink:href="serv__types_8hpp.html" target="_top" xlink:title=" ">
<polygon fill="white" stroke="black" points="153.2,-56.5 153.2,-75.5 244.2,-75.5 244.2,-56.5 153.2,-56.5"/>
<text text-anchor="middle" x="198.7" y="-63.5" font-family="Helvetica,sans-Serif" font-size="10.00">serv_types.hpp</text>
</a>
</g>
</g>
<!-- Node1&#45;&gt;Node4 -->
<g id="edge26" class="edge">
<title>Node1&#45;&gt;Node4</title>
<path fill="none" stroke="midnightblue" d="M285.01,-288.19C200.38,-275.63 53.12,-238.74 3.7,-132 -0.03,-123.93 -1.83,-118.96 3.7,-112 20.84,-90.46 91.45,-78.35 142.79,-72.24"/>
<polygon fill="midnightblue" stroke="midnightblue" points="143.24,-75.71 152.78,-71.1 142.44,-68.76 143.24,-75.71"/>
</g>
<!-- Node11 -->
<g id="node11" class="node">
<title>Node11</title>
<g id="a_node11"><a xlink:href="event__handler__base_8hpp.html" target="_top" xlink:title=" ">
<polygon fill="white" stroke="black" points="264.7,-112.5 264.7,-131.5 400.7,-131.5 400.7,-112.5 264.7,-112.5"/>
<text text-anchor="middle" x="332.7" y="-119.5" font-family="Helvetica,sans-Serif" font-size="10.00">event_handler_base.hpp</text>
</a>
</g>
</g>
<!-- Node1&#45;&gt;Node11 -->
<g id="edge24" class="edge">
<title>Node1&#45;&gt;Node11</title>
<path fill="none" stroke="midnightblue" d="M319.4,-280.36C306,-271.81 291.16,-259.54 283.7,-244 266.14,-207.42 297.1,-162.83 317.31,-139.32"/>
<polygon fill="midnightblue" stroke="midnightblue" points="320.1,-141.45 324.16,-131.67 314.88,-136.79 320.1,-141.45"/>
</g>
<!-- Node12 -->
<g id="node12" class="node">
<title>Node12</title>
<g id="a_node12"><a xlink:title=" ">
<polygon fill="white" stroke="#bfbfbf" points="597.2,-56.5 597.2,-75.5 736.2,-75.5 736.2,-56.5 597.2,-56.5"/>
<text text-anchor="middle" x="666.7" y="-63.5" font-family="Helvetica,sans-Serif" font-size="10.00">smart_ptr/shared_ptr.hpp</text>
</a>
</g>
</g>
<!-- Node1&#45;&gt;Node12 -->
<g id="edge28" class="edge">
<title>Node1&#45;&gt;Node12</title>
<path fill="none" stroke="midnightblue" d="M408.21,-289.16C495.99,-277.72 653.26,-242.1 713.7,-132 723.8,-113.6 705.71,-94.33 689.13,-81.6"/>
<polygon fill="midnightblue" stroke="midnightblue" points="690.92,-78.57 680.75,-75.58 686.83,-84.26 690.92,-78.57"/>
</g>
<!-- Node14 -->
<g id="node14" class="node">
<title>Node14</title>
<g id="a_node14"><a xlink:href="event__layer_8hpp.html" target="_top" xlink:title=" ">
<polygon fill="white" stroke="black" points="381.2,-168.5 381.2,-187.5 476.2,-187.5 476.2,-168.5 381.2,-168.5"/>
<text text-anchor="middle" x="428.7" y="-175.5" font-family="Helvetica,sans-Serif" font-size="10.00">event_layer.hpp</text>
</a>
</g>
</g>
<!-- Node1&#45;&gt;Node14 -->
<g id="edge25" class="edge">
<title>Node1&#45;&gt;Node14</title>
<path fill="none" stroke="midnightblue" d="M370.72,-280.43C383.97,-271.54 399.72,-258.91 409.7,-244 419,-230.11 423.83,-211.59 426.29,-197.88"/>
<polygon fill="midnightblue" stroke="midnightblue" points="429.79,-198.11 427.84,-187.7 422.87,-197.05 429.79,-198.11"/>
</g>
<!-- Node17 -->
<g id="node17" class="node">
<title>Node17</title>
<g id="a_node17"><a xlink:title=" ">
<polygon fill="white" stroke="#bfbfbf" points="783.2,-224.5 783.2,-243.5 936.2,-243.5 936.2,-224.5 783.2,-224.5"/>
<text text-anchor="middle" x="859.7" y="-231.5" font-family="Helvetica,sans-Serif" font-size="10.00">smart_ptr/make_shared.hpp</text>
</a>
</g>
</g>
<!-- Node1&#45;&gt;Node17 -->
<g id="edge27" class="edge">
<title>Node1&#45;&gt;Node17</title>
<path fill="none" stroke="midnightblue" d="M408.33,-287.35C500.17,-276.7 673.2,-256.63 776.29,-244.67"/>
<polygon fill="midnightblue" stroke="midnightblue" points="776.82,-248.14 786.35,-243.51 776.01,-241.18 776.82,-248.14"/>
</g>
<!-- Node2&#45;&gt;Node3 -->
<g id="edge2" class="edge">
<title>Node2&#45;&gt;Node3</title>
<path fill="none" stroke="midnightblue" d="M311.52,-224.44C273.12,-215.1 211.52,-200.12 169.65,-189.93"/>
<polygon fill="midnightblue" stroke="midnightblue" points="170.26,-186.48 159.71,-187.52 168.6,-193.28 170.26,-186.48"/>
</g>
<!-- Node2&#45;&gt;Node4 -->
<g id="edge21" class="edge">
<title>Node2&#45;&gt;Node4</title>
<path fill="none" stroke="midnightblue" d="M333.38,-224.47C309.64,-208.7 259.61,-172.86 228.7,-132 217.93,-117.77 209.8,-99.05 204.74,-85.35"/>
<polygon fill="midnightblue" stroke="midnightblue" points="207.95,-83.92 201.35,-75.63 201.34,-86.23 207.95,-83.92"/>
</g>
<!-- Node2&#45;&gt;Node11 -->
<g id="edge10" class="edge">
<title>Node2&#45;&gt;Node11</title>
<path fill="none" stroke="midnightblue" d="M345.6,-224.37C343.34,-206.62 338.13,-165.67 335.07,-141.6"/>
<polygon fill="midnightblue" stroke="midnightblue" points="338.53,-141.07 333.79,-131.59 331.58,-141.95 338.53,-141.07"/>
</g>
<!-- Node2&#45;&gt;Node12 -->
<g id="edge22" class="edge">
<title>Node2&#45;&gt;Node12</title>
<path fill="none" stroke="midnightblue" d="M400.96,-225.38C490.28,-211.6 661.95,-179.49 697.7,-132 709.14,-116.8 696.03,-96.71 683.52,-82.91"/>
<polygon fill="midnightblue" stroke="midnightblue" points="685.89,-80.33 676.4,-75.6 680.87,-85.21 685.89,-80.33"/>
</g>
<!-- Node2&#45;&gt;Node14 -->
<g id="edge14" class="edge">
<title>Node2&#45;&gt;Node14</title>
<path fill="none" stroke="midnightblue" d="M359.88,-224.32C372.55,-215.98 391.93,-203.21 406.91,-193.35"/>
<polygon fill="midnightblue" stroke="midnightblue" points="409.13,-196.08 415.56,-187.65 405.28,-190.23 409.13,-196.08"/>
</g>
<!-- Node3&#45;&gt;Node4 -->
<g id="edge3" class="edge">
<title>Node3&#45;&gt;Node4</title>
<path fill="none" stroke="midnightblue" d="M130.51,-168.37C142.72,-150.22 171.25,-107.8 187.27,-83.99"/>
<polygon fill="midnightblue" stroke="midnightblue" points="190.24,-85.84 192.92,-75.59 184.43,-81.94 190.24,-85.84"/>
</g>
<!-- Node9 -->
<g id="node9" class="node">
<title>Node9</title>
<g id="a_node9"><a xlink:title=" ">
<polygon fill="white" stroke="#bfbfbf" points="12.7,-112.5 12.7,-131.5 64.7,-131.5 64.7,-112.5 12.7,-112.5"/>
<text text-anchor="middle" x="38.7" y="-119.5" font-family="Helvetica,sans-Serif" font-size="10.00">cassert</text>
</a>
</g>
</g>
<!-- Node3&#45;&gt;Node9 -->
<g id="edge8" class="edge">
<title>Node3&#45;&gt;Node9</title>
<path fill="none" stroke="midnightblue" d="M110.88,-168.32C97.47,-159.9 76.88,-146.97 61.11,-137.07"/>
<polygon fill="midnightblue" stroke="midnightblue" points="62.81,-134.01 52.48,-131.65 59.09,-139.94 62.81,-134.01"/>
</g>
<!-- Node10 -->
<g id="node10" class="node">
<title>Node10</title>
<g id="a_node10"><a xlink:title=" ">
<polygon fill="white" stroke="#bfbfbf" points="82.7,-112.5 82.7,-131.5 132.7,-131.5 132.7,-112.5 82.7,-112.5"/>
<text text-anchor="middle" x="107.7" y="-119.5" font-family="Helvetica,sans-Serif" font-size="10.00">cstring</text>
</a>
</g>
</g>
<!-- Node3&#45;&gt;Node10 -->
<g id="edge9" class="edge">
<title>Node3&#45;&gt;Node10</title>
<path fill="none" stroke="midnightblue" d="M121.89,-168.08C119.62,-160.85 116.33,-150.41 113.49,-141.4"/>
<polygon fill="midnightblue" stroke="midnightblue" points="116.8,-140.24 110.46,-131.75 110.12,-142.34 116.8,-140.24"/>
</g>
<!-- Node5 -->
<g id="node5" class="node">
<title>Node5</title>
<g id="a_node5"><a xlink:title=" ">
<polygon fill="white" stroke="#bfbfbf" points="88.2,-0.5 88.2,-19.5 135.2,-19.5 135.2,-0.5 88.2,-0.5"/>
<text text-anchor="middle" x="111.7" y="-7.5" font-family="Helvetica,sans-Serif" font-size="10.00">deque</text>
</a>
</g>
</g>
<!-- Node4&#45;&gt;Node5 -->
<g id="edge4" class="edge">
<title>Node4&#45;&gt;Node5</title>
<path fill="none" stroke="midnightblue" d="M184.72,-56.32C171.15,-47.9 150.32,-34.97 134.38,-25.07"/>
<polygon fill="midnightblue" stroke="midnightblue" points="135.99,-21.95 125.64,-19.65 132.29,-27.9 135.99,-21.95"/>
</g>
<!-- Node6 -->
<g id="node6" class="node">
<title>Node6</title>
<g id="a_node6"><a xlink:title=" ">
<polygon fill="white" stroke="#bfbfbf" points="153.7,-0.5 153.7,-19.5 191.7,-19.5 191.7,-0.5 153.7,-0.5"/>
<text text-anchor="middle" x="172.7" y="-7.5" font-family="Helvetica,sans-Serif" font-size="10.00">map</text>
</a>
</g>
</g>
<!-- Node4&#45;&gt;Node6 -->
<g id="edge5" class="edge">
<title>Node4&#45;&gt;Node6</title>
<path fill="none" stroke="midnightblue" d="M194.41,-56.08C190.85,-48.69 185.68,-37.95 181.28,-28.81"/>
<polygon fill="midnightblue" stroke="midnightblue" points="184.41,-27.24 176.91,-19.75 178.1,-30.28 184.41,-27.24"/>
</g>
<!-- Node7 -->
<g id="node7" class="node">
<title>Node7</title>
<g id="a_node7"><a xlink:title=" ">
<polygon fill="white" stroke="#bfbfbf" points="209.7,-0.5 209.7,-19.5 241.7,-19.5 241.7,-0.5 209.7,-0.5"/>
<text text-anchor="middle" x="225.7" y="-7.5" font-family="Helvetica,sans-Serif" font-size="10.00">set</text>
</a>
</g>
</g>
<!-- Node4&#45;&gt;Node7 -->
<g id="edge6" class="edge">
<title>Node4&#45;&gt;Node7</title>
<path fill="none" stroke="midnightblue" d="M203.16,-56.08C206.85,-48.69 212.22,-37.95 216.79,-28.81"/>
<polygon fill="midnightblue" stroke="midnightblue" points="219.98,-30.26 221.32,-19.75 213.72,-27.13 219.98,-30.26"/>
</g>
<!-- Node8 -->
<g id="node8" class="node">
<title>Node8</title>
<g id="a_node8"><a xlink:title=" ">
<polygon fill="white" stroke="#bfbfbf" points="260.2,-0.5 260.2,-19.5 307.2,-19.5 307.2,-0.5 260.2,-0.5"/>
<text text-anchor="middle" x="283.7" y="-7.5" font-family="Helvetica,sans-Serif" font-size="10.00">vector</text>
</a>
</g>
</g>
<!-- Node4&#45;&gt;Node8 -->
<g id="edge7" class="edge">
<title>Node4&#45;&gt;Node8</title>
<path fill="none" stroke="midnightblue" d="M212.36,-56.32C225.62,-47.9 245.97,-34.97 261.55,-25.07"/>
<polygon fill="midnightblue" stroke="midnightblue" points="263.51,-27.97 270.08,-19.65 259.76,-22.06 263.51,-27.97"/>
</g>
<!-- Node11&#45;&gt;Node4 -->
<g id="edge11" class="edge">
<title>Node11&#45;&gt;Node4</title>
<path fill="none" stroke="midnightblue" d="M311.47,-112.44C289.32,-103.52 254.38,-89.44 229.26,-79.32"/>
<polygon fill="midnightblue" stroke="midnightblue" points="230.42,-76.01 219.83,-75.52 227.8,-82.5 230.42,-76.01"/>
</g>
<!-- Node11&#45;&gt;Node12 -->
<g id="edge12" class="edge">
<title>Node11&#45;&gt;Node12</title>
<path fill="none" stroke="midnightblue" d="M385.62,-112.44C444.87,-102.87 540.8,-87.36 603.82,-77.17"/>
<polygon fill="midnightblue" stroke="midnightblue" points="604.71,-80.57 614.02,-75.52 603.59,-73.66 604.71,-80.57"/>
</g>
<!-- Node13 -->
<g id="node13" class="node">
<title>Node13</title>
<g id="a_node13"><a xlink:title=" ">
<polygon fill="white" stroke="#bfbfbf" points="348.2,-56.5 348.2,-75.5 413.2,-75.5 413.2,-56.5 348.2,-56.5"/>
<text text-anchor="middle" x="380.7" y="-63.5" font-family="Helvetica,sans-Serif" font-size="10.00">exception</text>
</a>
</g>
</g>
<!-- Node11&#45;&gt;Node13 -->
<g id="edge13" class="edge">
<title>Node11&#45;&gt;Node13</title>
<path fill="none" stroke="midnightblue" d="M340.63,-112.08C347.55,-104.3 357.77,-92.8 366.15,-83.37"/>
<polygon fill="midnightblue" stroke="midnightblue" points="368.89,-85.55 372.92,-75.75 363.66,-80.9 368.89,-85.55"/>
</g>
<!-- Node14&#45;&gt;Node4 -->
<g id="edge16" class="edge">
<title>Node14&#45;&gt;Node4</title>
<path fill="none" stroke="midnightblue" d="M380.93,-172.28C344.42,-166.92 294,-155.62 255.7,-132 236.21,-119.98 219.7,-99.2 209.55,-84.37"/>
<polygon fill="midnightblue" stroke="midnightblue" points="212.23,-82.08 203.83,-75.63 206.38,-85.92 212.23,-82.08"/>
</g>
<!-- Node14&#45;&gt;Node11 -->
<g id="edge15" class="edge">
<title>Node14&#45;&gt;Node11</title>
<path fill="none" stroke="midnightblue" d="M413.28,-168.32C398.16,-159.82 374.89,-146.73 357.23,-136.8"/>
<polygon fill="midnightblue" stroke="midnightblue" points="358.52,-133.51 348.09,-131.65 355.09,-139.61 358.52,-133.51"/>
</g>
<!-- Node14&#45;&gt;Node12 -->
<g id="edge17" class="edge">
<title>Node14&#45;&gt;Node12</title>
<path fill="none" stroke="midnightblue" d="M476.24,-170.78C511.48,-164.68 559.76,-153.12 597.7,-132 620.06,-119.56 640.71,-98.25 653.48,-83.44"/>
<polygon fill="midnightblue" stroke="midnightblue" points="656.32,-85.5 660.04,-75.58 650.95,-81.01 656.32,-85.5"/>
</g>
<!-- Node14&#45;&gt;Node13 -->
<g id="edge19" class="edge">
<title>Node14&#45;&gt;Node13</title>
<path fill="none" stroke="midnightblue" d="M427,-168.3C424.31,-155.56 418.49,-131.25 409.7,-112 405.21,-102.17 398.82,-91.99 393.18,-83.8"/>
<polygon fill="midnightblue" stroke="midnightblue" points="395.93,-81.63 387.27,-75.53 390.23,-85.7 395.93,-81.63"/>
</g>
<!-- Node15 -->
<g id="node15" class="node">
<title>Node15</title>
<g id="a_node15"><a xlink:title=" ">
<polygon fill="white" stroke="#bfbfbf" points="456.7,-112.5 456.7,-131.5 588.7,-131.5 588.7,-112.5 456.7,-112.5"/>
<text text-anchor="middle" x="522.7" y="-119.5" font-family="Helvetica,sans-Serif" font-size="10.00">smart_ptr/weak_ptr.hpp</text>
</a>
</g>
</g>
<!-- Node14&#45;&gt;Node15 -->
<g id="edge18" class="edge">
<title>Node14&#45;&gt;Node15</title>
<path fill="none" stroke="midnightblue" d="M443.8,-168.32C458.6,-159.82 481.39,-146.73 498.68,-136.8"/>
<polygon fill="midnightblue" stroke="midnightblue" points="500.71,-139.67 507.64,-131.65 497.22,-133.6 500.71,-139.67"/>
</g>
<!-- Node16 -->
<g id="node16" class="node">
<title>Node16</title>
<g id="a_node16"><a xlink:title=" ">
<polygon fill="white" stroke="#bfbfbf" points="644.7,-112.5 644.7,-131.5 688.7,-131.5 688.7,-112.5 644.7,-112.5"/>
<text text-anchor="middle" x="666.7" y="-119.5" font-family="Helvetica,sans-Serif" font-size="10.00">string</text>
</a>
</g>
</g>
<!-- Node14&#45;&gt;Node16 -->
<g id="edge20" class="edge">
<title>Node14&#45;&gt;Node16</title>
<path fill="none" stroke="midnightblue" d="M468.63,-168.42C509.43,-159.58 574.58,-145.26 630.7,-132 631.97,-131.7 633.26,-131.39 634.57,-131.08"/>
<polygon fill="midnightblue" stroke="midnightblue" points="635.76,-134.39 644.64,-128.61 634.09,-127.59 635.76,-134.39"/>
</g>
</g>
</svg>
        <g id="navigator" transform="translate(0 0)" fill="#404254">
                <rect fill="#f2f5e9" fill-opacity="0.5" stroke="#606060" stroke-width=".5" x="0" y="0" width="60" height="60"/>
                <use id="zoomplus" xlink:href="#zoomPlus" x="17" y="9" onmousedown="handleZoom(evt,'in')"/>
                <use id="zoomminus" xlink:href="#zoomMin" x="42" y="9" onmousedown="handleZoom(evt,'out')"/>
                <use id="reset" xlink:href="#resetDef" x="30" y="36" onmousedown="handleReset()"/>
                <g id="arrowUp" xlink:href="#dirArrow" transform="translate(30 24)" onmousedown="handlePan(0,-1)">
                  <use xlink:href="#rim" fill="#404040">
                        <set attributeName="fill" to="#808080" begin="arrowUp.mouseover" end="arrowUp.mouseout"/>
                  </use>
                  <path fill="none" stroke="white" stroke-width="1.5" d="M0,-3.0v7 M-2.5,-0.5L0,-3.0L2.5,-0.5"/>
                </g>
                <g id="arrowRight" xlink:href="#dirArrow" transform="rotate(90) translate(36 -43)" onmousedown="handlePan(1,0)">
                  <use xlink:href="#rim" fill="#404040">
                        <set attributeName="fill" to="#808080" begin="arrowRight.mouseover" end="arrowRight.mouseout"/>
                  </use>
                  <path fill="none" stroke="white" stroke-width="1.5" d="M0,-3.0v7 M-2.5,-0.5L0,-3.0L2.5,-0.5"/>
                </g>
                <g id="arrowDown" xlink:href="#dirArrow" transform="rotate(180) translate(-30 -48)" onmousedown="handlePan(0,1)">
                  <use xlink:href="#rim" fill="#404040">
                        <set attributeName="fill" to="#808080" begin="arrowDown.mouseover" end="arrowDown.mouseout"/>
                  </use>
                  <path fill="none" stroke="white" stroke-width="1.5" d="M0,-3.0v7 M-2.5,-0.5L0,-3.0L2.5,-0.5"/>
                </g>
                <g id="arrowLeft" xlink:href="#dirArrow" transform="rotate(270) translate(-36 17)" onmousedown="handlePan(-1,0)">
                  <use xlink:href="#rim" fill="#404040">
                        <set attributeName="fill" to="#808080" begin="arrowLeft.mouseover" end="arrowLeft.mouseout"/>
                  </use>
                  <path fill="none" stroke="white" stroke-width="1.5" d="M0,-3.0v7 M-2.5,-0.5L0,-3.0L2.5,-0.5"/>
                </g>
        </g>
        <svg viewBox="0 0 15 15" width="100%" height="30px" preserveAspectRatio="xMaxYMin meet">
         <g id="arrow_out" transform="scale(0.3 0.3)">
          <a xlink:href="bytes__encoder_8cpp__incl_org.svg" target="_base">
           <rect id="button" ry="5" rx="5" y="6" x="6" height="38" width="38"
                fill="#f2f5e9" fill-opacity="0.5" stroke="#606060" stroke-width="1.0"/>
           <path id="arrow"
             d="M 11.500037,31.436501 C 11.940474,20.09759 22.043105,11.32322 32.158766,21.979434 L 37.068811,17.246167 C 37.068811,17.246167 37.088388,32 37.088388,32 L 22.160133,31.978069 C 22.160133,31.978069 26.997745,27.140456 26.997745,27.140456 C 18.528582,18.264221 13.291696,25.230495 11.500037,31.436501 z"
             style="fill:#404040;"/>
          </a>
         </g>
        </svg>
</svg>
