<?xml version="1.0" encoding="UTF-8" standalone="no"?>
<!DOCTYPE svg PUBLIC "-//W3C//DTD SVG 1.1//EN"
 "http://www.w3.org/Graphics/SVG/1.1/DTD/svg11.dtd">
<!-- Generated by graphviz version 2.43.0 (0)
 -->
<!-- Title: includes/libserv/bytes_decoder.hpp Pages: 1 -->
<svg width="2202pt" height="442pt"
 viewBox="0.00 0.00 2202.00 442.00" xmlns="http://www.w3.org/2000/svg" xmlns:xlink="http://www.w3.org/1999/xlink">
<g id="graph0" class="graph" transform="scale(1 1) rotate(0) translate(4 438)">
<title>includes/libserv/bytes_decoder.hpp</title>
<polygon fill="white" stroke="transparent" points="-4,4 -4,-438 2198,-438 2198,4 -4,4"/>
<!-- Node1 -->
<g id="node1" class="node">
<title>Node1</title>
<g id="a_node1"><a xlink:title=" ">
<polygon fill="#bfbfbf" stroke="black" points="1046.5,-403.5 1046.5,-433.5 1169.5,-433.5 1169.5,-403.5 1046.5,-403.5"/>
<text text-anchor="start" x="1054.5" y="-421.5" font-family="Helvetica,sans-Serif" font-size="10.00">includes/libserv/bytes</text>
<text text-anchor="middle" x="1108" y="-410.5" font-family="Helvetica,sans-Serif" font-size="10.00">_decoder.hpp</text>
</a>
</g>
</g>
<!-- Node2 -->
<g id="node2" class="node">
<title>Node2</title>
<g id="a_node2"><a xlink:href="bytes__decoder_8cpp.html" target="_top" xlink:title=" ">
<polygon fill="white" stroke="black" points="969.5,-336.5 969.5,-366.5 1092.5,-366.5 1092.5,-336.5 969.5,-336.5"/>
<text text-anchor="start" x="977.5" y="-354.5" font-family="Helvetica,sans-Serif" font-size="10.00">includes/libserv/bytes</text>
<text text-anchor="middle" x="1031" y="-343.5" font-family="Helvetica,sans-Serif" font-size="10.00">_decoder.cpp</text>
</a>
</g>
</g>
<!-- Node1&#45;&gt;Node2 -->
<g id="edge1" class="edge">
<title>Node1&#45;&gt;Node2</title>
<path fill="none" stroke="midnightblue" d="M1083.58,-396.88C1071.88,-387.01 1058.16,-375.43 1047.68,-366.58"/>
<polygon fill="midnightblue" stroke="midnightblue" points="1081.39,-399.62 1091.29,-403.4 1085.91,-394.27 1081.39,-399.62"/>
</g>
<!-- Node3 -->
<g id="node3" class="node">
<title>Node3</title>
<g id="a_node3"><a xlink:href="libserv_8hpp.html" target="_top" xlink:title=" ">
<polygon fill="white" stroke="black" points="1110.5,-342 1110.5,-361 1259.5,-361 1259.5,-342 1110.5,-342"/>
<text text-anchor="middle" x="1185" y="-349" font-family="Helvetica,sans-Serif" font-size="10.00">includes/libserv/libserv.hpp</text>
</a>
</g>
</g>
<!-- Node1&#45;&gt;Node3 -->
<g id="edge2" class="edge">
<title>Node1&#45;&gt;Node3</title>
<path fill="none" stroke="midnightblue" d="M1132.67,-396.67C1146.89,-384.67 1164.01,-370.22 1174.7,-361.19"/>
<polygon fill="midnightblue" stroke="midnightblue" points="1130.09,-394.27 1124.71,-403.4 1134.61,-399.62 1130.09,-394.27"/>
</g>
<!-- Node4 -->
<g id="node4" class="node">
<title>Node4</title>
<g id="a_node4"><a xlink:href="bot_8cpp.html" target="_top" xlink:title=" ">
<polygon fill="white" stroke="black" points="1642.5,-168.5 1642.5,-187.5 1695.5,-187.5 1695.5,-168.5 1642.5,-168.5"/>
<text text-anchor="middle" x="1669" y="-175.5" font-family="Helvetica,sans-Serif" font-size="10.00">bot.cpp</text>
</a>
</g>
</g>
<!-- Node3&#45;&gt;Node4 -->
<g id="edge3" class="edge">
<title>Node3&#45;&gt;Node4</title>
<path fill="none" stroke="midnightblue" d="M1214.92,-337.88C1272.07,-314.01 1400.96,-261.31 1512,-224 1557.29,-208.78 1610.98,-194.1 1642.39,-185.84"/>
<polygon fill="midnightblue" stroke="midnightblue" points="1213.3,-334.77 1205.42,-341.86 1216,-341.22 1213.3,-334.77"/>
</g>
<!-- Node5 -->
<g id="node5" class="node">
<title>Node5</title>
<g id="a_node5"><a xlink:href="channel_8cpp.html" target="_top" xlink:title=" ">
<polygon fill="white" stroke="black" points="114.5,-112.5 114.5,-131.5 189.5,-131.5 189.5,-112.5 114.5,-112.5"/>
<text text-anchor="middle" x="152" y="-119.5" font-family="Helvetica,sans-Serif" font-size="10.00">channel.cpp</text>
</a>
</g>
</g>
<!-- Node3&#45;&gt;Node5 -->
<g id="edge4" class="edge">
<title>Node3&#45;&gt;Node5</title>
<path fill="none" stroke="midnightblue" d="M1131.92,-340.23C1122,-338.6 1111.71,-337.09 1102,-336 785.36,-300.52 696.64,-370.89 386,-300 260.94,-271.46 190.95,-294.86 120,-188 107.48,-169.14 128.38,-144.67 141.9,-131.8"/>
<polygon fill="midnightblue" stroke="midnightblue" points="1131.62,-343.73 1142.07,-341.97 1132.8,-336.83 1131.62,-343.73"/>
</g>
<!-- Node6 -->
<g id="node6" class="node">
<title>Node6</title>
<g id="a_node6"><a xlink:href="channel_8hpp.html" target="_top" xlink:title=" ">
<polygon fill="white" stroke="black" points="370,-168.5 370,-187.5 446,-187.5 446,-168.5 370,-168.5"/>
<text text-anchor="middle" x="408" y="-175.5" font-family="Helvetica,sans-Serif" font-size="10.00">channel.hpp</text>
</a>
</g>
</g>
<!-- Node3&#45;&gt;Node6 -->
<g id="edge5" class="edge">
<title>Node3&#45;&gt;Node6</title>
<path fill="none" stroke="midnightblue" d="M1131.24,-340.24C1121.53,-338.63 1111.49,-337.13 1102,-336 979.72,-321.38 665.64,-339.5 549,-300 485.14,-278.38 431.57,-211.41 414.06,-187.55"/>
<polygon fill="midnightblue" stroke="midnightblue" points="1130.75,-343.7 1141.19,-341.94 1131.93,-336.8 1130.75,-343.7"/>
</g>
<!-- Node8 -->
<g id="node8" class="node">
<title>Node8</title>
<g id="a_node8"><a xlink:href="processor_8cpp.html" target="_top" xlink:title=" ">
<polygon fill="white" stroke="black" points="1034.5,-56.5 1034.5,-75.5 1117.5,-75.5 1117.5,-56.5 1034.5,-56.5"/>
<text text-anchor="middle" x="1076" y="-63.5" font-family="Helvetica,sans-Serif" font-size="10.00">processor.cpp</text>
</a>
</g>
</g>
<!-- Node3&#45;&gt;Node8 -->
<g id="edge73" class="edge">
<title>Node3&#45;&gt;Node8</title>
<path fill="none" stroke="midnightblue" d="M1132.57,-340.28C1122.46,-338.61 1111.93,-337.07 1102,-336 730.05,-295.72 631.28,-353.48 261,-300 142.68,-282.91 0,-354.54 0,-235 0,-235 0,-235 0,-177 0,-122.12 52.57,-128.24 105,-112 194.57,-84.26 860.47,-70.77 1034.49,-67.69"/>
<polygon fill="midnightblue" stroke="midnightblue" points="1132.05,-343.74 1142.5,-341.98 1133.24,-336.84 1132.05,-343.74"/>
</g>
<!-- Node10 -->
<g id="node10" class="node">
<title>Node10</title>
<g id="a_node10"><a xlink:href="server_8cpp.html" target="_top" xlink:title=" ">
<polygon fill="white" stroke="black" points="341.5,-112.5 341.5,-131.5 408.5,-131.5 408.5,-112.5 341.5,-112.5"/>
<text text-anchor="middle" x="375" y="-119.5" font-family="Helvetica,sans-Serif" font-size="10.00">server.cpp</text>
</a>
</g>
</g>
<!-- Node3&#45;&gt;Node10 -->
<g id="edge76" class="edge">
<title>Node3&#45;&gt;Node10</title>
<path fill="none" stroke="midnightblue" d="M1131.58,-340.21C1121.77,-338.6 1111.6,-337.1 1102,-336 957.61,-319.47 588.2,-341.78 449,-300 401.69,-285.8 379.85,-285.46 353,-244 334.58,-215.56 337.69,-200.58 347,-168 350.99,-154.02 360.72,-140.16 367.59,-131.59"/>
<polygon fill="midnightblue" stroke="midnightblue" points="1131.19,-343.7 1141.63,-341.93 1132.36,-336.8 1131.19,-343.7"/>
</g>
<!-- Node11 -->
<g id="node11" class="node">
<title>Node11</title>
<g id="a_node11"><a xlink:href="user_8cpp.html" target="_top" xlink:title=" ">
<polygon fill="white" stroke="black" points="483.5,-112.5 483.5,-131.5 540.5,-131.5 540.5,-112.5 483.5,-112.5"/>
<text text-anchor="middle" x="512" y="-119.5" font-family="Helvetica,sans-Serif" font-size="10.00">user.cpp</text>
</a>
</g>
</g>
<!-- Node3&#45;&gt;Node11 -->
<g id="edge91" class="edge">
<title>Node3&#45;&gt;Node11</title>
<path fill="none" stroke="midnightblue" d="M1131.58,-340.26C1121.77,-338.63 1111.6,-337.12 1102,-336 970.44,-320.58 631.09,-346.34 507,-300 425.05,-269.4 308.72,-238.14 361,-168 375.63,-148.37 443.63,-134.19 483.21,-127.44"/>
<polygon fill="midnightblue" stroke="midnightblue" points="1131.18,-343.74 1141.63,-341.97 1132.36,-336.84 1131.18,-343.74"/>
</g>
<!-- Node12 -->
<g id="node12" class="node">
<title>Node12</title>
<g id="a_node12"><a xlink:href="client__handler_8hpp.html" target="_top" xlink:title=" ">
<polygon fill="white" stroke="black" points="1523,-112.5 1523,-131.5 1629,-131.5 1629,-112.5 1523,-112.5"/>
<text text-anchor="middle" x="1576" y="-119.5" font-family="Helvetica,sans-Serif" font-size="10.00">client_handler.hpp</text>
</a>
</g>
</g>
<!-- Node3&#45;&gt;Node12 -->
<g id="edge13" class="edge">
<title>Node3&#45;&gt;Node12</title>
<path fill="none" stroke="midnightblue" d="M1269.9,-347.03C1486.3,-337.3 2045.31,-306.33 2099,-244 2162.52,-170.26 1774.21,-136.3 1629.1,-126.29"/>
<polygon fill="midnightblue" stroke="midnightblue" points="1269.69,-343.54 1259.85,-347.48 1270,-350.53 1269.69,-343.54"/>
</g>
<!-- Node13 -->
<g id="node13" class="node">
<title>Node13</title>
<g id="a_node13"><a xlink:href="server__handler_8hpp.html" target="_top" xlink:title=" ">
<polygon fill="white" stroke="black" points="1817,-56.5 1817,-75.5 1927,-75.5 1927,-56.5 1817,-56.5"/>
<text text-anchor="middle" x="1872" y="-63.5" font-family="Helvetica,sans-Serif" font-size="10.00">server_handler.hpp</text>
</a>
</g>
</g>
<!-- Node3&#45;&gt;Node13 -->
<g id="edge78" class="edge">
<title>Node3&#45;&gt;Node13</title>
<path fill="none" stroke="midnightblue" d="M1269.85,-349.25C1506.41,-344.63 2156,-323.87 2156,-235 2156,-235 2156,-235 2156,-177 2156,-127.17 2002.02,-91.08 1920.82,-75.52"/>
<polygon fill="midnightblue" stroke="midnightblue" points="1269.51,-345.75 1259.58,-349.44 1269.65,-352.75 1269.51,-345.75"/>
</g>
<!-- Node14 -->
<g id="node14" class="node">
<title>Node14</title>
<g id="a_node14"><a xlink:href="main_8cpp.html" target="_top" xlink:title=" ">
<polygon fill="white" stroke="black" points="1841,-0.5 1841,-19.5 1903,-19.5 1903,-0.5 1841,-0.5"/>
<text text-anchor="middle" x="1872" y="-7.5" font-family="Helvetica,sans-Serif" font-size="10.00">main.cpp</text>
</a>
</g>
</g>
<!-- Node3&#45;&gt;Node14 -->
<g id="edge16" class="edge">
<title>Node3&#45;&gt;Node14</title>
<path fill="none" stroke="midnightblue" d="M1269.7,-349.75C1458.87,-347.41 1910.65,-337.91 2058,-300 2122.88,-283.31 2194,-301.99 2194,-235 2194,-235 2194,-235 2194,-121 2194,-59.93 1983.98,-25.76 1903.17,-14.87"/>
<polygon fill="midnightblue" stroke="midnightblue" points="1269.48,-346.26 1259.53,-349.88 1269.57,-353.26 1269.48,-346.26"/>
</g>
<!-- Node15 -->
<g id="node15" class="node">
<title>Node15</title>
<g id="a_node15"><a xlink:href="message_8cpp.html" target="_top" xlink:title=" ">
<polygon fill="white" stroke="black" points="622.5,-224.5 622.5,-243.5 703.5,-243.5 703.5,-224.5 622.5,-224.5"/>
<text text-anchor="middle" x="663" y="-231.5" font-family="Helvetica,sans-Serif" font-size="10.00">message.cpp</text>
</a>
</g>
</g>
<!-- Node3&#45;&gt;Node15 -->
<g id="edge17" class="edge">
<title>Node3&#45;&gt;Node15</title>
<path fill="none" stroke="midnightblue" d="M1136.37,-339.74C1033.41,-316.96 795.24,-264.26 701.71,-243.56"/>
<polygon fill="midnightblue" stroke="midnightblue" points="1135.67,-343.17 1146.19,-341.91 1137.18,-336.34 1135.67,-343.17"/>
</g>
<!-- Node16 -->
<g id="node16" class="node">
<title>Node16</title>
<g id="a_node16"><a xlink:href="message_8hpp.html" target="_top" xlink:title=" ">
<polygon fill="white" stroke="black" points="1110,-280.5 1110,-299.5 1192,-299.5 1192,-280.5 1110,-280.5"/>
<text text-anchor="middle" x="1151" y="-287.5" font-family="Helvetica,sans-Serif" font-size="10.00">message.hpp</text>
</a>
</g>
</g>
<!-- Node3&#45;&gt;Node16 -->
<g id="edge18" class="edge">
<title>Node3&#45;&gt;Node16</title>
<path fill="none" stroke="midnightblue" d="M1175.1,-333.17C1168.78,-322.11 1160.86,-308.25 1155.86,-299.51"/>
<polygon fill="midnightblue" stroke="midnightblue" points="1172.13,-335.03 1180.13,-341.98 1178.21,-331.56 1172.13,-335.03"/>
</g>
<!-- Node17 -->
<g id="node17" class="node">
<title>Node17</title>
<g id="a_node17"><a xlink:href="message__decoder_8hpp.html" target="_top" xlink:title=" ">
<polygon fill="white" stroke="black" points="1821.5,-224.5 1821.5,-243.5 1946.5,-243.5 1946.5,-224.5 1821.5,-224.5"/>
<text text-anchor="middle" x="1884" y="-231.5" font-family="Helvetica,sans-Serif" font-size="10.00">message_decoder.hpp</text>
</a>
</g>
</g>
<!-- Node3&#45;&gt;Node17 -->
<g id="edge71" class="edge">
<title>Node3&#45;&gt;Node17</title>
<path fill="none" stroke="midnightblue" d="M1269.76,-342.05C1351.15,-333.42 1477.4,-318.64 1586,-300 1682.29,-283.47 1794.57,-257 1849.78,-243.51"/>
<polygon fill="midnightblue" stroke="midnightblue" points="1269.15,-338.6 1259.57,-343.13 1269.88,-345.56 1269.15,-338.6"/>
</g>
<!-- Node18 -->
<g id="node18" class="node">
<title>Node18</title>
<g id="a_node18"><a xlink:href="message__encoder_8hpp.html" target="_top" xlink:title=" ">
<polygon fill="white" stroke="black" points="1964.5,-224.5 1964.5,-243.5 2089.5,-243.5 2089.5,-224.5 1964.5,-224.5"/>
<text text-anchor="middle" x="2027" y="-231.5" font-family="Helvetica,sans-Serif" font-size="10.00">message_encoder.hpp</text>
</a>
</g>
</g>
<!-- Node3&#45;&gt;Node18 -->
<g id="edge72" class="edge">
<title>Node3&#45;&gt;Node18</title>
<path fill="none" stroke="midnightblue" d="M1269.73,-342.87C1362.9,-334.1 1516.93,-318.52 1649,-300 1770.17,-283 1912.14,-256.92 1982.62,-243.55"/>
<polygon fill="midnightblue" stroke="midnightblue" points="1269.14,-339.41 1259.51,-343.82 1269.79,-346.38 1269.14,-339.41"/>
</g>
<!-- Node19 -->
<g id="node19" class="node">
<title>Node19</title>
<g id="a_node19"><a xlink:href="processor_8hpp.html" target="_top" xlink:title=" ">
<polygon fill="white" stroke="black" points="1388,-168.5 1388,-187.5 1472,-187.5 1472,-168.5 1388,-168.5"/>
<text text-anchor="middle" x="1430" y="-175.5" font-family="Helvetica,sans-Serif" font-size="10.00">processor.hpp</text>
</a>
</g>
</g>
<!-- Node3&#45;&gt;Node19 -->
<g id="edge74" class="edge">
<title>Node3&#45;&gt;Node19</title>
<path fill="none" stroke="midnightblue" d="M1205.43,-336.2C1254.6,-301.78 1378.4,-215.12 1417.78,-187.56"/>
<polygon fill="midnightblue" stroke="midnightblue" points="1203.33,-333.39 1197.15,-342 1207.35,-339.13 1203.33,-333.39"/>
</g>
<!-- Node23 -->
<g id="node23" class="node">
<title>Node23</title>
<g id="a_node23"><a xlink:href="reply_8hpp.html" target="_top" xlink:title=" ">
<polygon fill="white" stroke="black" points="966.5,-224.5 966.5,-243.5 1027.5,-243.5 1027.5,-224.5 966.5,-224.5"/>
<text text-anchor="middle" x="997" y="-231.5" font-family="Helvetica,sans-Serif" font-size="10.00">reply.hpp</text>
</a>
</g>
</g>
<!-- Node3&#45;&gt;Node23 -->
<g id="edge75" class="edge">
<title>Node3&#45;&gt;Node23</title>
<path fill="none" stroke="midnightblue" d="M1162.03,-336.84C1145.11,-326.74 1121.56,-312.61 1101,-300 1068.51,-280.08 1030.61,-256.24 1010.75,-243.7"/>
<polygon fill="midnightblue" stroke="midnightblue" points="1160.3,-339.88 1170.69,-342 1163.89,-333.87 1160.3,-339.88"/>
</g>
<!-- Node24 -->
<g id="node24" class="node">
<title>Node24</title>
<g id="a_node24"><a xlink:href="server_8hpp.html" target="_top" xlink:title=" ">
<polygon fill="white" stroke="black" points="844,-168.5 844,-187.5 912,-187.5 912,-168.5 844,-168.5"/>
<text text-anchor="middle" x="878" y="-175.5" font-family="Helvetica,sans-Serif" font-size="10.00">server.hpp</text>
</a>
</g>
</g>
<!-- Node3&#45;&gt;Node24 -->
<g id="edge77" class="edge">
<title>Node3&#45;&gt;Node24</title>
<path fill="none" stroke="midnightblue" d="M1126.73,-340.19C1118.43,-338.76 1110,-337.33 1102,-336 993.13,-317.93 683.3,-329.88 614,-244 608.42,-237.08 608.27,-230.79 614,-224 621.39,-215.24 774.13,-193.26 843.84,-183.64"/>
<polygon fill="midnightblue" stroke="midnightblue" points="1126.29,-343.67 1136.75,-341.93 1127.49,-336.77 1126.29,-343.67"/>
</g>
<!-- Node25 -->
<g id="node25" class="node">
<title>Node25</title>
<g id="a_node25"><a xlink:href="string__line__encoder_8hpp.html" target="_top" xlink:title=" ">
<polygon fill="white" stroke="black" points="1671,-224.5 1671,-243.5 1803,-243.5 1803,-224.5 1671,-224.5"/>
<text text-anchor="middle" x="1737" y="-231.5" font-family="Helvetica,sans-Serif" font-size="10.00">string_line_encoder.hpp</text>
</a>
</g>
</g>
<!-- Node3&#45;&gt;Node25 -->
<g id="edge82" class="edge">
<title>Node3&#45;&gt;Node25</title>
<path fill="none" stroke="midnightblue" d="M1269.94,-342.37C1341.5,-334.54 1446.25,-320.81 1536,-300 1602.27,-284.63 1678.04,-257.41 1714.74,-243.58"/>
<polygon fill="midnightblue" stroke="midnightblue" points="1269.2,-338.93 1259.63,-343.48 1269.95,-345.89 1269.2,-338.93"/>
</g>
<!-- Node26 -->
<g id="node26" class="node">
<title>Node26</title>
<g id="a_node26"><a xlink:href="string__line__decoder_8hpp.html" target="_top" xlink:title=" ">
<polygon fill="white" stroke="black" points="1521,-224.5 1521,-243.5 1653,-243.5 1653,-224.5 1521,-224.5"/>
<text text-anchor="middle" x="1587" y="-231.5" font-family="Helvetica,sans-Serif" font-size="10.00">string_line_decoder.hpp</text>
</a>
</g>
</g>
<!-- Node3&#45;&gt;Node26 -->
<g id="edge79" class="edge">
<title>Node3&#45;&gt;Node26</title>
<path fill="none" stroke="midnightblue" d="M1269.8,-349.19C1336.79,-345.38 1431.28,-333.72 1507,-300 1537.41,-286.46 1565.86,-258.28 1579.15,-243.88"/>
<polygon fill="midnightblue" stroke="midnightblue" points="1269.51,-345.7 1259.71,-349.72 1269.88,-352.69 1269.51,-345.7"/>
</g>
<!-- Node27 -->
<g id="node27" class="node">
<title>Node27</title>
<g id="a_node27"><a xlink:href="string__utils_8hpp.html" target="_top" xlink:title=" ">
<polygon fill="white" stroke="black" points="474,-224.5 474,-243.5 566,-243.5 566,-224.5 474,-224.5"/>
<text text-anchor="middle" x="520" y="-231.5" font-family="Helvetica,sans-Serif" font-size="10.00">string_utils.hpp</text>
</a>
</g>
</g>
<!-- Node3&#45;&gt;Node27 -->
<g id="edge83" class="edge">
<title>Node3&#45;&gt;Node27</title>
<path fill="none" stroke="midnightblue" d="M1131.24,-340.27C1121.53,-338.66 1111.48,-337.15 1102,-336 986.57,-321.98 684.85,-350.27 580,-300 553.97,-287.52 533.81,-258.31 524.94,-243.68"/>
<polygon fill="midnightblue" stroke="midnightblue" points="1130.74,-343.73 1141.19,-341.97 1131.92,-336.83 1130.74,-343.73"/>
</g>
<!-- Node28 -->
<g id="node28" class="node">
<title>Node28</title>
<g id="a_node28"><a xlink:href="user_8hpp.html" target="_top" xlink:title=" ">
<polygon fill="white" stroke="black" points="1179,-224.5 1179,-243.5 1237,-243.5 1237,-224.5 1179,-224.5"/>
<text text-anchor="middle" x="1208" y="-231.5" font-family="Helvetica,sans-Serif" font-size="10.00">user.hpp</text>
</a>
</g>
</g>
<!-- Node3&#45;&gt;Node28 -->
<g id="edge92" class="edge">
<title>Node3&#45;&gt;Node28</title>
<path fill="none" stroke="midnightblue" d="M1191.78,-332.17C1195.04,-322.69 1198.72,-310.86 1201,-300 1205.15,-280.23 1206.92,-256.53 1207.6,-243.92"/>
<polygon fill="midnightblue" stroke="midnightblue" points="1188.44,-331.11 1188.38,-341.7 1195.04,-333.46 1188.44,-331.11"/>
</g>
<!-- Node6&#45;&gt;Node5 -->
<g id="edge6" class="edge">
<title>Node6&#45;&gt;Node5</title>
<path fill="none" stroke="midnightblue" d="M360.16,-166.91C310.89,-156.52 235.09,-140.53 189.84,-130.98"/>
<polygon fill="midnightblue" stroke="midnightblue" points="359.44,-170.33 369.95,-168.97 360.89,-163.49 359.44,-170.33"/>
</g>
<!-- Node7 -->
<g id="node7" class="node">
<title>Node7</title>
<g id="a_node7"><a xlink:href="processor__channel_8hpp.html" target="_top" xlink:title=" ">
<polygon fill="white" stroke="black" points="1012,-112.5 1012,-131.5 1140,-131.5 1140,-112.5 1012,-112.5"/>
<text text-anchor="middle" x="1076" y="-119.5" font-family="Helvetica,sans-Serif" font-size="10.00">processor_channel.hpp</text>
</a>
</g>
</g>
<!-- Node6&#45;&gt;Node7 -->
<g id="edge7" class="edge">
<title>Node6&#45;&gt;Node7</title>
<path fill="none" stroke="midnightblue" d="M456.52,-173.08C574.94,-163.51 878.76,-138.94 1011.89,-128.18"/>
<polygon fill="midnightblue" stroke="midnightblue" points="456,-169.61 446.31,-173.9 456.56,-176.59 456,-169.61"/>
</g>
<!-- Node9 -->
<g id="node9" class="node">
<title>Node9</title>
<g id="a_node9"><a xlink:href="processor__send__message_8hpp.html" target="_top" xlink:title=" ">
<polygon fill="white" stroke="black" points="754.5,-112.5 754.5,-131.5 917.5,-131.5 917.5,-112.5 754.5,-112.5"/>
<text text-anchor="middle" x="836" y="-119.5" font-family="Helvetica,sans-Serif" font-size="10.00">processor_send_message.hpp</text>
</a>
</g>
</g>
<!-- Node6&#45;&gt;Node9 -->
<g id="edge9" class="edge">
<title>Node6&#45;&gt;Node9</title>
<path fill="none" stroke="midnightblue" d="M456.65,-170.86C533.09,-161.22 681.54,-142.49 768.34,-131.54"/>
<polygon fill="midnightblue" stroke="midnightblue" points="455.84,-167.44 446.36,-172.16 456.72,-174.38 455.84,-167.44"/>
</g>
<!-- Node6&#45;&gt;Node10 -->
<g id="edge11" class="edge">
<title>Node6&#45;&gt;Node10</title>
<path fill="none" stroke="midnightblue" d="M397.17,-159.27C391.53,-150.05 384.88,-139.17 380.35,-131.75"/>
<polygon fill="midnightblue" stroke="midnightblue" points="394.35,-161.38 402.55,-168.08 400.32,-157.73 394.35,-161.38"/>
</g>
<!-- Node6&#45;&gt;Node11 -->
<g id="edge12" class="edge">
<title>Node6&#45;&gt;Node11</title>
<path fill="none" stroke="midnightblue" d="M433.83,-163.59C453.06,-153.61 478.74,-140.27 495.33,-131.65"/>
<polygon fill="midnightblue" stroke="midnightblue" points="431.97,-160.61 424.71,-168.32 435.2,-166.82 431.97,-160.61"/>
</g>
<!-- Node7&#45;&gt;Node8 -->
<g id="edge8" class="edge">
<title>Node7&#45;&gt;Node8</title>
<path fill="none" stroke="midnightblue" d="M1076,-101.8C1076,-92.91 1076,-82.78 1076,-75.75"/>
<polygon fill="midnightblue" stroke="midnightblue" points="1072.5,-102.08 1076,-112.08 1079.5,-102.08 1072.5,-102.08"/>
</g>
<!-- Node9&#45;&gt;Node8 -->
<g id="edge10" class="edge">
<title>Node9&#45;&gt;Node8</title>
<path fill="none" stroke="midnightblue" d="M883.92,-110.22C929.27,-100.01 996.44,-84.9 1038.15,-75.52"/>
<polygon fill="midnightblue" stroke="midnightblue" points="883.02,-106.83 874.03,-112.44 884.55,-113.66 883.02,-106.83"/>
</g>
<!-- Node12&#45;&gt;Node13 -->
<g id="edge14" class="edge">
<title>Node12&#45;&gt;Node13</title>
<path fill="none" stroke="midnightblue" d="M1633,-110.6C1688.94,-100.4 1773.23,-85.02 1825.32,-75.52"/>
<polygon fill="midnightblue" stroke="midnightblue" points="1632.11,-107.21 1622.9,-112.44 1633.37,-114.09 1632.11,-107.21"/>
</g>
<!-- Node13&#45;&gt;Node14 -->
<g id="edge15" class="edge">
<title>Node13&#45;&gt;Node14</title>
<path fill="none" stroke="midnightblue" d="M1872,-45.8C1872,-36.91 1872,-26.78 1872,-19.75"/>
<polygon fill="midnightblue" stroke="midnightblue" points="1868.5,-46.08 1872,-56.08 1875.5,-46.08 1868.5,-46.08"/>
</g>
<!-- Node16&#45;&gt;Node4 -->
<g id="edge19" class="edge">
<title>Node16&#45;&gt;Node4</title>
<path fill="none" stroke="midnightblue" d="M1202.27,-280.19C1251.35,-271.59 1327.41,-257.81 1393,-244 1405.37,-241.39 1575.73,-201.09 1642.46,-185.29"/>
<polygon fill="midnightblue" stroke="midnightblue" points="1201.47,-276.78 1192.22,-281.95 1202.68,-283.68 1201.47,-276.78"/>
</g>
<!-- Node16&#45;&gt;Node5 -->
<g id="edge20" class="edge">
<title>Node16&#45;&gt;Node5</title>
<path fill="none" stroke="midnightblue" d="M1099.36,-288.74C975.52,-287.5 652.05,-280.71 385,-244 269.19,-228.08 201.34,-279.04 128,-188 114.27,-170.95 132.19,-145.29 143.7,-131.88"/>
<polygon fill="midnightblue" stroke="midnightblue" points="1099.65,-292.24 1109.68,-288.83 1099.71,-285.24 1099.65,-292.24"/>
</g>
<!-- Node16&#45;&gt;Node7 -->
<g id="edge38" class="edge">
<title>Node16&#45;&gt;Node7</title>
<path fill="none" stroke="midnightblue" d="M1156.33,-270.38C1162.38,-245.32 1169.22,-200.18 1151,-168 1140.83,-150.03 1120.29,-138.45 1103.28,-131.55"/>
<polygon fill="midnightblue" stroke="midnightblue" points="1152.87,-269.8 1153.7,-280.36 1159.63,-271.58 1152.87,-269.8"/>
</g>
<!-- Node16&#45;&gt;Node9 -->
<g id="edge41" class="edge">
<title>Node16&#45;&gt;Node9</title>
<path fill="none" stroke="midnightblue" d="M1099.94,-281.18C1015.77,-267.08 854.04,-234.48 823,-188 811.37,-170.58 822.85,-145.08 830.45,-131.79"/>
<polygon fill="midnightblue" stroke="midnightblue" points="1099.38,-284.63 1109.81,-282.81 1100.51,-277.73 1099.38,-284.63"/>
</g>
<!-- Node16&#45;&gt;Node10 -->
<g id="edge66" class="edge">
<title>Node16&#45;&gt;Node10</title>
<path fill="none" stroke="midnightblue" d="M1099.52,-288.23C961.33,-285.76 584.63,-276.18 465,-244 410.87,-229.44 381.55,-235.63 352,-188 340.51,-169.49 356.98,-144.44 367.47,-131.51"/>
<polygon fill="midnightblue" stroke="midnightblue" points="1099.77,-291.74 1109.83,-288.41 1099.89,-284.74 1099.77,-291.74"/>
</g>
<!-- Node16&#45;&gt;Node11 -->
<g id="edge70" class="edge">
<title>Node16&#45;&gt;Node11</title>
<path fill="none" stroke="midnightblue" d="M1099.66,-285.83C1002.58,-278.43 786.77,-255.21 619,-188 581.47,-172.97 541.99,-145.46 523.21,-131.55"/>
<polygon fill="midnightblue" stroke="midnightblue" points="1099.56,-289.34 1109.8,-286.58 1100.08,-282.35 1099.56,-289.34"/>
</g>
<!-- Node16&#45;&gt;Node12 -->
<g id="edge21" class="edge">
<title>Node16&#45;&gt;Node12</title>
<path fill="none" stroke="midnightblue" d="M1202.23,-281.38C1243.9,-274.3 1303.8,-262.1 1354,-244 1372.33,-237.39 1374.75,-230.81 1393,-224 1456.02,-200.49 1486.56,-228.85 1540,-188 1559.06,-173.43 1569.43,-145.72 1573.67,-131.65"/>
<polygon fill="midnightblue" stroke="midnightblue" points="1201.6,-277.93 1192.31,-283.03 1202.75,-284.84 1201.6,-277.93"/>
</g>
<!-- Node16&#45;&gt;Node15 -->
<g id="edge22" class="edge">
<title>Node16&#45;&gt;Node15</title>
<path fill="none" stroke="midnightblue" d="M1099.26,-284.61C1017.93,-277.49 855.29,-262.35 718,-244 713.3,-243.37 708.39,-242.65 703.51,-241.9"/>
<polygon fill="midnightblue" stroke="midnightblue" points="1099.44,-288.14 1109.71,-285.52 1100.05,-281.17 1099.44,-288.14"/>
</g>
<!-- Node16&#45;&gt;Node17 -->
<g id="edge23" class="edge">
<title>Node16&#45;&gt;Node17</title>
<path fill="none" stroke="midnightblue" d="M1202.32,-286.49C1313.57,-280.84 1585.18,-265.88 1812,-244 1815.01,-243.71 1818.09,-243.39 1821.19,-243.06"/>
<polygon fill="midnightblue" stroke="midnightblue" points="1201.87,-283.01 1192.06,-287.01 1202.23,-290 1201.87,-283.01"/>
</g>
<!-- Node16&#45;&gt;Node18 -->
<g id="edge26" class="edge">
<title>Node16&#45;&gt;Node18</title>
<path fill="none" stroke="midnightblue" d="M1202.38,-287.38C1330.06,-283.08 1671.95,-269.91 1956,-244 1958.72,-243.75 1961.5,-243.48 1964.31,-243.19"/>
<polygon fill="midnightblue" stroke="midnightblue" points="1202,-283.89 1192.12,-287.72 1202.24,-290.89 1202,-283.89"/>
</g>
<!-- Node16&#45;&gt;Node19 -->
<g id="edge29" class="edge">
<title>Node16&#45;&gt;Node19</title>
<path fill="none" stroke="midnightblue" d="M1186.9,-277.11C1212.69,-268.39 1248.2,-256.03 1279,-244 1304.39,-234.09 1375.95,-202.78 1410.65,-187.53"/>
<polygon fill="midnightblue" stroke="midnightblue" points="1185.54,-273.88 1177.18,-280.38 1187.77,-280.51 1185.54,-273.88"/>
</g>
<!-- Node20 -->
<g id="node20" class="node">
<title>Node20</title>
<g id="a_node20"><a xlink:href="processor__misc_8hpp.html" target="_top" xlink:title=" ">
<polygon fill="white" stroke="black" points="1303.5,-112.5 1303.5,-131.5 1416.5,-131.5 1416.5,-112.5 1303.5,-112.5"/>
<text text-anchor="middle" x="1360" y="-119.5" font-family="Helvetica,sans-Serif" font-size="10.00">processor_misc.hpp</text>
</a>
</g>
</g>
<!-- Node16&#45;&gt;Node20 -->
<g id="edge39" class="edge">
<title>Node16&#45;&gt;Node20</title>
<path fill="none" stroke="midnightblue" d="M1197.03,-278.04C1230.37,-269.72 1276.37,-257.44 1316,-244 1338.28,-236.45 1342.86,-231.94 1365,-224 1415.81,-205.78 1448.98,-231.46 1481,-188 1502.85,-158.34 1454.26,-140.8 1412.29,-131.56"/>
<polygon fill="midnightblue" stroke="midnightblue" points="1195.97,-274.7 1187.11,-280.49 1197.65,-281.49 1195.97,-274.7"/>
</g>
<!-- Node21 -->
<g id="node21" class="node">
<title>Node21</title>
<g id="a_node21"><a xlink:href="processor__register_8hpp.html" target="_top" xlink:title=" ">
<polygon fill="white" stroke="black" points="1158.5,-112.5 1158.5,-131.5 1285.5,-131.5 1285.5,-112.5 1158.5,-112.5"/>
<text text-anchor="middle" x="1222" y="-119.5" font-family="Helvetica,sans-Serif" font-size="10.00">processor_register.hpp</text>
</a>
</g>
</g>
<!-- Node16&#45;&gt;Node21 -->
<g id="edge40" class="edge">
<title>Node16&#45;&gt;Node21</title>
<path fill="none" stroke="midnightblue" d="M1190.37,-276.97C1208.98,-269.75 1230.46,-259 1246,-244 1266.17,-224.54 1268.37,-215.23 1275,-188 1277.1,-179.36 1278.73,-176.07 1275,-168 1267.5,-151.79 1250.96,-139.28 1238.33,-131.61"/>
<polygon fill="midnightblue" stroke="midnightblue" points="1189.13,-273.7 1180.95,-280.43 1191.55,-280.27 1189.13,-273.7"/>
</g>
<!-- Node22 -->
<g id="node22" class="node">
<title>Node22</title>
<g id="a_node22"><a xlink:href="reply_8cpp.html" target="_top" xlink:title=" ">
<polygon fill="white" stroke="black" points="1082,-168.5 1082,-187.5 1142,-187.5 1142,-168.5 1082,-168.5"/>
<text text-anchor="middle" x="1112" y="-175.5" font-family="Helvetica,sans-Serif" font-size="10.00">reply.cpp</text>
</a>
</g>
</g>
<!-- Node16&#45;&gt;Node22 -->
<g id="edge42" class="edge">
<title>Node16&#45;&gt;Node22</title>
<path fill="none" stroke="midnightblue" d="M1144.5,-270.67C1135.98,-246.62 1121.36,-205.39 1115.05,-187.59"/>
<polygon fill="midnightblue" stroke="midnightblue" points="1141.3,-272.11 1147.94,-280.37 1147.9,-269.77 1141.3,-272.11"/>
</g>
<!-- Node16&#45;&gt;Node23 -->
<g id="edge43" class="edge">
<title>Node16&#45;&gt;Node23</title>
<path fill="none" stroke="midnightblue" d="M1116.89,-277.04C1087.91,-266.88 1047.04,-252.55 1021.29,-243.52"/>
<polygon fill="midnightblue" stroke="midnightblue" points="1116,-280.44 1126.6,-280.44 1118.32,-273.83 1116,-280.44"/>
</g>
<!-- Node16&#45;&gt;Node25 -->
<g id="edge67" class="edge">
<title>Node16&#45;&gt;Node25</title>
<path fill="none" stroke="midnightblue" d="M1202.27,-285.02C1294.39,-277.76 1493.97,-261.48 1662,-244 1664.87,-243.7 1667.8,-243.39 1670.76,-243.06"/>
<polygon fill="midnightblue" stroke="midnightblue" points="1201.8,-281.55 1192.11,-285.82 1202.35,-288.53 1201.8,-281.55"/>
</g>
<!-- Node17&#45;&gt;Node4 -->
<g id="edge24" class="edge">
<title>Node17&#45;&gt;Node4</title>
<path fill="none" stroke="midnightblue" d="M1840.22,-222.01C1796.9,-211.12 1731.95,-194.81 1695.78,-185.73"/>
<polygon fill="midnightblue" stroke="midnightblue" points="1839.38,-225.4 1849.93,-224.44 1841.09,-218.61 1839.38,-225.4"/>
</g>
<!-- Node17&#45;&gt;Node13 -->
<g id="edge25" class="edge">
<title>Node17&#45;&gt;Node13</title>
<path fill="none" stroke="midnightblue" d="M1886.23,-214.31C1888.64,-190.43 1891.45,-147.88 1886,-112 1884.03,-99.06 1879.06,-84.72 1875.6,-75.78"/>
<polygon fill="midnightblue" stroke="midnightblue" points="1882.73,-214.1 1885.12,-224.43 1889.69,-214.87 1882.73,-214.1"/>
</g>
<!-- Node18&#45;&gt;Node4 -->
<g id="edge27" class="edge">
<title>Node18&#45;&gt;Node4</title>
<path fill="none" stroke="midnightblue" d="M1960.35,-222.95C1880.81,-210.95 1751.6,-191.46 1695.92,-183.06"/>
<polygon fill="midnightblue" stroke="midnightblue" points="1959.86,-226.41 1970.27,-224.44 1960.91,-219.49 1959.86,-226.41"/>
</g>
<!-- Node18&#45;&gt;Node13 -->
<g id="edge28" class="edge">
<title>Node18&#45;&gt;Node13</title>
<path fill="none" stroke="midnightblue" d="M2011.73,-216.65C1979.32,-181.94 1904.59,-101.9 1880,-75.57"/>
<polygon fill="midnightblue" stroke="midnightblue" points="2009.28,-219.15 2018.67,-224.08 2014.4,-214.38 2009.28,-219.15"/>
</g>
<!-- Node19&#45;&gt;Node7 -->
<g id="edge32" class="edge">
<title>Node19&#45;&gt;Node7</title>
<path fill="none" stroke="midnightblue" d="M1377.49,-168.99C1311.62,-158.94 1199.16,-141.79 1131.78,-131.51"/>
<polygon fill="midnightblue" stroke="midnightblue" points="1377.24,-172.49 1387.65,-170.54 1378.29,-165.57 1377.24,-172.49"/>
</g>
<!-- Node19&#45;&gt;Node8 -->
<g id="edge31" class="edge">
<title>Node19&#45;&gt;Node8</title>
<path fill="none" stroke="midnightblue" d="M1434.64,-158.17C1436.99,-143.67 1437.33,-124.1 1426,-112 1405.2,-89.77 1205.74,-74.93 1117.56,-69.41"/>
<polygon fill="midnightblue" stroke="midnightblue" points="1431.19,-157.57 1432.6,-168.07 1438.04,-158.98 1431.19,-157.57"/>
</g>
<!-- Node19&#45;&gt;Node9 -->
<g id="edge37" class="edge">
<title>Node19&#45;&gt;Node9</title>
<path fill="none" stroke="midnightblue" d="M1377.53,-172.23C1273.75,-162.8 1041.62,-141.69 917.67,-130.42"/>
<polygon fill="midnightblue" stroke="midnightblue" points="1377.48,-175.74 1387.76,-173.16 1378.12,-168.77 1377.48,-175.74"/>
</g>
<!-- Node19&#45;&gt;Node12 -->
<g id="edge30" class="edge">
<title>Node19&#45;&gt;Node12</title>
<path fill="none" stroke="midnightblue" d="M1462.7,-164.91C1490.15,-154.75 1528.67,-140.51 1552.97,-131.52"/>
<polygon fill="midnightblue" stroke="midnightblue" points="1461.3,-161.69 1453.13,-168.44 1463.73,-168.26 1461.3,-161.69"/>
</g>
<!-- Node19&#45;&gt;Node20 -->
<g id="edge33" class="edge">
<title>Node19&#45;&gt;Node20</title>
<path fill="none" stroke="midnightblue" d="M1410.69,-162.1C1398.09,-152.38 1382.07,-140.03 1371.45,-131.83"/>
<polygon fill="midnightblue" stroke="midnightblue" points="1408.7,-164.99 1418.75,-168.32 1412.97,-159.44 1408.7,-164.99"/>
</g>
<!-- Node19&#45;&gt;Node21 -->
<g id="edge35" class="edge">
<title>Node19&#45;&gt;Node21</title>
<path fill="none" stroke="midnightblue" d="M1387.22,-165.89C1347.94,-155.7 1290.57,-140.8 1254.8,-131.52"/>
<polygon fill="midnightblue" stroke="midnightblue" points="1386.48,-169.32 1397.04,-168.44 1388.24,-162.54 1386.48,-169.32"/>
</g>
<!-- Node20&#45;&gt;Node8 -->
<g id="edge34" class="edge">
<title>Node20&#45;&gt;Node8</title>
<path fill="none" stroke="midnightblue" d="M1305.1,-110.56C1250.25,-100.13 1167.15,-84.33 1117.56,-74.9"/>
<polygon fill="midnightblue" stroke="midnightblue" points="1304.52,-114.01 1315,-112.44 1305.83,-107.14 1304.52,-114.01"/>
</g>
<!-- Node21&#45;&gt;Node8 -->
<g id="edge36" class="edge">
<title>Node21&#45;&gt;Node8</title>
<path fill="none" stroke="midnightblue" d="M1189.3,-108.91C1161.85,-98.75 1123.33,-84.51 1099.03,-75.52"/>
<polygon fill="midnightblue" stroke="midnightblue" points="1188.27,-112.26 1198.87,-112.44 1190.7,-105.69 1188.27,-112.26"/>
</g>
<!-- Node23&#45;&gt;Node4 -->
<g id="edge44" class="edge">
<title>Node23&#45;&gt;Node4</title>
<path fill="none" stroke="midnightblue" d="M1037.92,-229.71C1163.11,-219.65 1538.77,-189.47 1642.32,-181.14"/>
<polygon fill="midnightblue" stroke="midnightblue" points="1037.31,-226.25 1027.62,-230.54 1037.87,-233.23 1037.31,-226.25"/>
</g>
<!-- Node23&#45;&gt;Node5 -->
<g id="edge45" class="edge">
<title>Node23&#45;&gt;Node5</title>
<path fill="none" stroke="midnightblue" d="M956.29,-231.49C800.32,-225.6 247.94,-203.7 214,-188 187.39,-175.69 166.43,-146.41 157.17,-131.72"/>
<polygon fill="midnightblue" stroke="midnightblue" points="956.27,-234.99 966.4,-231.87 956.54,-228 956.27,-234.99"/>
</g>
<!-- Node23&#45;&gt;Node6 -->
<g id="edge46" class="edge">
<title>Node23&#45;&gt;Node6</title>
<path fill="none" stroke="midnightblue" d="M955.92,-229.23C847.01,-219.25 552.06,-192.21 446.35,-182.52"/>
<polygon fill="midnightblue" stroke="midnightblue" points="955.88,-232.75 966.16,-230.17 956.52,-225.77 955.88,-232.75"/>
</g>
<!-- Node23&#45;&gt;Node7 -->
<g id="edge49" class="edge">
<title>Node23&#45;&gt;Node7</title>
<path fill="none" stroke="midnightblue" d="M994.09,-214.01C992.97,-200.25 993.58,-181.71 1002,-168 1012.86,-150.32 1033.51,-138.62 1050.25,-131.6"/>
<polygon fill="midnightblue" stroke="midnightblue" points="990.65,-214.73 995.31,-224.25 997.6,-213.9 990.65,-214.73"/>
</g>
<!-- Node23&#45;&gt;Node8 -->
<g id="edge48" class="edge">
<title>Node23&#45;&gt;Node8</title>
<path fill="none" stroke="midnightblue" d="M956.31,-228.53C870.22,-217.54 682.57,-184.67 746,-112 782.98,-69.64 954.26,-65.67 1034.42,-66.21"/>
<polygon fill="midnightblue" stroke="midnightblue" points="955.92,-232.01 966.28,-229.76 956.78,-225.06 955.92,-232.01"/>
</g>
<!-- Node23&#45;&gt;Node9 -->
<g id="edge52" class="edge">
<title>Node23&#45;&gt;Node9</title>
<path fill="none" stroke="midnightblue" d="M956.58,-227.4C913.56,-220.51 849.68,-207.31 835,-188 822.43,-171.47 828.45,-145.12 832.83,-131.61"/>
<polygon fill="midnightblue" stroke="midnightblue" points="956.08,-230.86 966.49,-228.93 957.15,-223.94 956.08,-230.86"/>
</g>
<!-- Node23&#45;&gt;Node11 -->
<g id="edge65" class="edge">
<title>Node23&#45;&gt;Node11</title>
<path fill="none" stroke="midnightblue" d="M956.18,-229.79C896.55,-224.5 782.41,-212.03 688,-188 629.29,-173.06 562.98,-145.52 531.11,-131.57"/>
<polygon fill="midnightblue" stroke="midnightblue" points="956.06,-233.3 966.32,-230.67 956.66,-226.32 956.06,-233.3"/>
</g>
<!-- Node23&#45;&gt;Node12 -->
<g id="edge47" class="edge">
<title>Node23&#45;&gt;Node12</title>
<path fill="none" stroke="midnightblue" d="M1037.96,-230.38C1147.17,-223.21 1439.81,-202.87 1481,-188 1490.16,-184.69 1540.49,-148.71 1563.95,-131.75"/>
<polygon fill="midnightblue" stroke="midnightblue" points="1037.43,-226.9 1027.68,-231.05 1037.88,-233.89 1037.43,-226.9"/>
</g>
<!-- Node23&#45;&gt;Node20 -->
<g id="edge50" class="edge">
<title>Node23&#45;&gt;Node20</title>
<path fill="none" stroke="midnightblue" d="M1011.22,-216.45C1025.28,-201.25 1048.25,-179.4 1073,-168 1083.36,-163.23 1222.54,-142.71 1303.2,-131.1"/>
<polygon fill="midnightblue" stroke="midnightblue" points="1008.42,-214.32 1004.36,-224.11 1013.64,-218.99 1008.42,-214.32"/>
</g>
<!-- Node23&#45;&gt;Node21 -->
<g id="edge51" class="edge">
<title>Node23&#45;&gt;Node21</title>
<path fill="none" stroke="midnightblue" d="M1004.32,-215.15C1011.32,-200.31 1023.29,-179.79 1040,-168 1060.75,-153.37 1123.79,-139.86 1169.88,-131.54"/>
<polygon fill="midnightblue" stroke="midnightblue" points="1001.11,-213.77 1000.27,-224.33 1007.51,-216.59 1001.11,-213.77"/>
</g>
<!-- Node23&#45;&gt;Node22 -->
<g id="edge53" class="edge">
<title>Node23&#45;&gt;Node22</title>
<path fill="none" stroke="midnightblue" d="M1024.48,-220.1C1045.97,-210.01 1075.22,-196.27 1093.86,-187.52"/>
<polygon fill="midnightblue" stroke="midnightblue" points="1022.79,-217.02 1015.22,-224.44 1025.76,-223.36 1022.79,-217.02"/>
</g>
<!-- Node23&#45;&gt;Node24 -->
<g id="edge54" class="edge">
<title>Node23&#45;&gt;Node24</title>
<path fill="none" stroke="midnightblue" d="M968.86,-220.23C946.6,-210.13 916.14,-196.31 896.77,-187.52"/>
<polygon fill="midnightblue" stroke="midnightblue" points="967.59,-223.5 978.14,-224.44 970.48,-217.12 967.59,-223.5"/>
</g>
<!-- Node24&#45;&gt;Node5 -->
<g id="edge55" class="edge">
<title>Node24&#45;&gt;Node5</title>
<path fill="none" stroke="midnightblue" d="M833.82,-173.71C702.01,-163.91 313,-134.98 189.84,-125.81"/>
<polygon fill="midnightblue" stroke="midnightblue" points="833.73,-177.22 843.96,-174.47 834.24,-170.24 833.73,-177.22"/>
</g>
<!-- Node24&#45;&gt;Node7 -->
<g id="edge58" class="edge">
<title>Node24&#45;&gt;Node7</title>
<path fill="none" stroke="midnightblue" d="M919.44,-165.7C956.81,-155.51 1010.94,-140.74 1044.77,-131.52"/>
<polygon fill="midnightblue" stroke="midnightblue" points="918.1,-162.44 909.37,-168.44 919.94,-169.19 918.1,-162.44"/>
</g>
<!-- Node24&#45;&gt;Node9 -->
<g id="edge61" class="edge">
<title>Node24&#45;&gt;Node9</title>
<path fill="none" stroke="midnightblue" d="M864.89,-160.14C857.57,-150.74 848.76,-139.4 842.81,-131.75"/>
<polygon fill="midnightblue" stroke="midnightblue" points="862.16,-162.34 871.06,-168.08 867.69,-158.04 862.16,-162.34"/>
</g>
<!-- Node24&#45;&gt;Node10 -->
<g id="edge62" class="edge">
<title>Node24&#45;&gt;Node10</title>
<path fill="none" stroke="midnightblue" d="M833.84,-172.26C734.8,-161.63 496.71,-136.07 408.56,-126.6"/>
<polygon fill="midnightblue" stroke="midnightblue" points="833.51,-175.74 843.82,-173.33 834.25,-168.78 833.51,-175.74"/>
</g>
<!-- Node24&#45;&gt;Node11 -->
<g id="edge64" class="edge">
<title>Node24&#45;&gt;Node11</title>
<path fill="none" stroke="midnightblue" d="M833.69,-170.46C757.56,-159.23 604.02,-136.58 540.5,-127.21"/>
<polygon fill="midnightblue" stroke="midnightblue" points="833.49,-173.97 843.9,-171.97 834.51,-167.05 833.49,-173.97"/>
</g>
<!-- Node24&#45;&gt;Node12 -->
<g id="edge56" class="edge">
<title>Node24&#45;&gt;Node12</title>
<path fill="none" stroke="midnightblue" d="M922.31,-173.57C1045.18,-164.07 1389.93,-137.4 1522.82,-127.11"/>
<polygon fill="midnightblue" stroke="midnightblue" points="921.84,-170.1 912.14,-174.36 922.38,-177.08 921.84,-170.1"/>
</g>
<!-- Node24&#45;&gt;Node13 -->
<g id="edge63" class="edge">
<title>Node24&#45;&gt;Node13</title>
<path fill="none" stroke="midnightblue" d="M902.6,-163.49C935.92,-145.3 992.47,-114.86 1003,-112 1157.34,-70.01 1650.9,-66.7 1816.92,-66.81"/>
<polygon fill="midnightblue" stroke="midnightblue" points="900.57,-160.61 893.47,-168.48 903.93,-166.75 900.57,-160.61"/>
</g>
<!-- Node24&#45;&gt;Node14 -->
<g id="edge57" class="edge">
<title>Node24&#45;&gt;Node14</title>
<path fill="none" stroke="midnightblue" d="M895.43,-161.71C931.18,-130.51 1010.74,-61.91 1026,-56 1103.07,-26.17 1696.88,-14.03 1840.7,-11.51"/>
<polygon fill="midnightblue" stroke="midnightblue" points="892.95,-159.23 887.73,-168.45 897.56,-164.5 892.95,-159.23"/>
</g>
<!-- Node24&#45;&gt;Node20 -->
<g id="edge59" class="edge">
<title>Node24&#45;&gt;Node20</title>
<path fill="none" stroke="midnightblue" d="M922.27,-172.66C998.49,-165.1 1159.37,-148.7 1295,-132 1297.71,-131.67 1300.49,-131.32 1303.29,-130.95"/>
<polygon fill="midnightblue" stroke="midnightblue" points="921.7,-169.2 912.09,-173.67 922.39,-176.17 921.7,-169.2"/>
</g>
<!-- Node24&#45;&gt;Node21 -->
<g id="edge60" class="edge">
<title>Node24&#45;&gt;Node21</title>
<path fill="none" stroke="midnightblue" d="M922.14,-168.66C923.44,-168.44 924.73,-168.22 926,-168 1007.48,-154.17 1101.93,-140.16 1161.81,-131.53"/>
<polygon fill="midnightblue" stroke="midnightblue" points="921.29,-165.26 912.06,-170.46 922.52,-172.15 921.29,-165.26"/>
</g>
<!-- Node25&#45;&gt;Node4 -->
<g id="edge68" class="edge">
<title>Node25&#45;&gt;Node4</title>
<path fill="none" stroke="midnightblue" d="M1718.24,-218.1C1706,-208.38 1690.44,-196.03 1680.12,-187.83"/>
<polygon fill="midnightblue" stroke="midnightblue" points="1716.07,-220.85 1726.07,-224.32 1720.42,-215.36 1716.07,-220.85"/>
</g>
<!-- Node25&#45;&gt;Node13 -->
<g id="edge69" class="edge">
<title>Node25&#45;&gt;Node13</title>
<path fill="none" stroke="midnightblue" d="M1755.94,-217.72C1765.71,-209.42 1777.53,-198.68 1787,-188 1821.4,-149.19 1854.43,-96.29 1866.84,-75.7"/>
<polygon fill="midnightblue" stroke="midnightblue" points="1753.44,-215.25 1747.99,-224.34 1757.92,-220.63 1753.44,-215.25"/>
</g>
<!-- Node26&#45;&gt;Node4 -->
<g id="edge80" class="edge">
<title>Node26&#45;&gt;Node4</title>
<path fill="none" stroke="midnightblue" d="M1608.83,-218.62C1623.81,-208.76 1643.2,-195.99 1655.86,-187.65"/>
<polygon fill="midnightblue" stroke="midnightblue" points="1606.6,-215.9 1600.17,-224.32 1610.45,-221.75 1606.6,-215.9"/>
</g>
<!-- Node26&#45;&gt;Node13 -->
<g id="edge81" class="edge">
<title>Node26&#45;&gt;Node13</title>
<path fill="none" stroke="midnightblue" d="M1625.25,-221.27C1648.91,-213.32 1679.52,-201.78 1705,-188 1769.25,-153.26 1837.15,-97.05 1862.08,-75.65"/>
<polygon fill="midnightblue" stroke="midnightblue" points="1623.98,-218 1615.57,-224.45 1626.16,-224.65 1623.98,-218"/>
</g>
<!-- Node27&#45;&gt;Node4 -->
<g id="edge84" class="edge">
<title>Node27&#45;&gt;Node4</title>
<path fill="none" stroke="midnightblue" d="M576.52,-227.09C588.86,-225.94 601.86,-224.83 614,-224 998.76,-197.61 1095.72,-205.22 1481,-188 1538.45,-185.43 1605.77,-182.14 1642.23,-180.34"/>
<polygon fill="midnightblue" stroke="midnightblue" points="575.96,-223.63 566.34,-228.06 576.62,-230.6 575.96,-223.63"/>
</g>
<!-- Node27&#45;&gt;Node5 -->
<g id="edge85" class="edge">
<title>Node27&#45;&gt;Node5</title>
<path fill="none" stroke="midnightblue" d="M463.78,-230.43C362.82,-225.24 159.26,-211.91 138,-188 123.89,-172.13 137.29,-145.49 145.95,-131.77"/>
<polygon fill="midnightblue" stroke="midnightblue" points="463.65,-233.93 473.81,-230.94 464,-226.94 463.65,-233.93"/>
</g>
<!-- Node27&#45;&gt;Node7 -->
<g id="edge86" class="edge">
<title>Node27&#45;&gt;Node7</title>
<path fill="none" stroke="midnightblue" d="M570.15,-222.35C632.26,-209.22 741.32,-186.41 835,-168 902.24,-154.79 980.23,-140.39 1028.85,-131.53"/>
<polygon fill="midnightblue" stroke="midnightblue" points="569.29,-218.95 560.23,-224.45 570.74,-225.8 569.29,-218.95"/>
</g>
<!-- Node27&#45;&gt;Node9 -->
<g id="edge88" class="edge">
<title>Node27&#45;&gt;Node9</title>
<path fill="none" stroke="midnightblue" d="M529.83,-215.23C539.16,-200.14 554.62,-179.2 574,-168 604.02,-150.66 689.05,-138.17 754.18,-130.81"/>
<polygon fill="midnightblue" stroke="midnightblue" points="526.64,-213.74 524.6,-224.14 532.68,-217.28 526.64,-213.74"/>
</g>
<!-- Node27&#45;&gt;Node10 -->
<g id="edge89" class="edge">
<title>Node27&#45;&gt;Node10</title>
<path fill="none" stroke="midnightblue" d="M463.87,-224.41C423.34,-216.93 373.6,-204.66 361,-188 348.19,-171.06 361.03,-144.89 369.26,-131.51"/>
<polygon fill="midnightblue" stroke="midnightblue" points="463.49,-227.9 473.95,-226.21 464.72,-221.01 463.49,-227.9"/>
</g>
<!-- Node27&#45;&gt;Node11 -->
<g id="edge90" class="edge">
<title>Node27&#45;&gt;Node11</title>
<path fill="none" stroke="midnightblue" d="M509.24,-215.69C504.82,-207.59 500.23,-197.64 498,-188 493.37,-167.98 501.95,-144.38 507.6,-131.85"/>
<polygon fill="midnightblue" stroke="midnightblue" points="506.3,-217.6 514.36,-224.48 512.35,-214.08 506.3,-217.6"/>
</g>
<!-- Node27&#45;&gt;Node21 -->
<g id="edge87" class="edge">
<title>Node27&#45;&gt;Node21</title>
<path fill="none" stroke="midnightblue" d="M576.52,-227.37C670.78,-217.86 856.11,-198.62 921,-188 933.96,-185.88 1104.37,-148.72 1182.88,-131.56"/>
<polygon fill="midnightblue" stroke="midnightblue" points="575.92,-223.91 566.32,-228.4 576.62,-230.88 575.92,-223.91"/>
</g>
<!-- Node28&#45;&gt;Node5 -->
<g id="edge93" class="edge">
<title>Node28&#45;&gt;Node5</title>
<path fill="none" stroke="midnightblue" d="M1168.67,-230.93C1002.13,-222.15 363.52,-188.45 361,-188 290.49,-175.37 210.5,-146.1 173.22,-131.54"/>
<polygon fill="midnightblue" stroke="midnightblue" points="1168.77,-234.44 1178.94,-231.47 1169.14,-227.45 1168.77,-234.44"/>
</g>
<!-- Node28&#45;&gt;Node7 -->
<g id="edge96" class="edge">
<title>Node28&#45;&gt;Node7</title>
<path fill="none" stroke="midnightblue" d="M1219.01,-214.95C1226.01,-200.91 1232.04,-181.6 1222,-168 1210.19,-152 1162.09,-139.3 1124.29,-131.52"/>
<polygon fill="midnightblue" stroke="midnightblue" points="1215.74,-213.64 1213.96,-224.08 1221.86,-217.03 1215.74,-213.64"/>
</g>
<!-- Node28&#45;&gt;Node9 -->
<g id="edge99" class="edge">
<title>Node28&#45;&gt;Node9</title>
<path fill="none" stroke="midnightblue" d="M1197.75,-215.52C1187.83,-200.3 1171.33,-179.01 1151,-168 1111.9,-146.82 997.39,-134.48 917.79,-128.24"/>
<polygon fill="midnightblue" stroke="midnightblue" points="1194.8,-217.41 1203.05,-224.06 1200.75,-213.72 1194.8,-217.41"/>
</g>
<!-- Node28&#45;&gt;Node10 -->
<g id="edge100" class="edge">
<title>Node28&#45;&gt;Node10</title>
<path fill="none" stroke="midnightblue" d="M1168.72,-230.59C1086,-225.24 887.88,-211 723,-188 607.04,-171.83 470.96,-143.73 408.91,-130.41"/>
<polygon fill="midnightblue" stroke="midnightblue" points="1168.72,-234.09 1178.92,-231.24 1169.16,-227.11 1168.72,-234.09"/>
</g>
<!-- Node28&#45;&gt;Node11 -->
<g id="edge101" class="edge">
<title>Node28&#45;&gt;Node11</title>
<path fill="none" stroke="midnightblue" d="M1168.6,-229.27C1100.4,-222.6 956.04,-207.45 835,-188 725.72,-170.44 597.1,-142.29 540.82,-129.59"/>
<polygon fill="midnightblue" stroke="midnightblue" points="1168.58,-232.79 1178.87,-230.27 1169.26,-225.82 1168.58,-232.79"/>
</g>
<!-- Node28&#45;&gt;Node12 -->
<g id="edge94" class="edge">
<title>Node28&#45;&gt;Node12</title>
<path fill="none" stroke="midnightblue" d="M1247.17,-230.42C1318.9,-225.17 1468.2,-211.7 1514,-188 1539.76,-174.67 1560.82,-146.4 1570.41,-131.93"/>
<polygon fill="midnightblue" stroke="midnightblue" points="1246.89,-226.93 1237.17,-231.13 1247.39,-233.91 1246.89,-226.93"/>
</g>
<!-- Node28&#45;&gt;Node19 -->
<g id="edge95" class="edge">
<title>Node28&#45;&gt;Node19</title>
<path fill="none" stroke="midnightblue" d="M1246.83,-223.55C1288.6,-213.4 1354.42,-197.38 1394.74,-187.58"/>
<polygon fill="midnightblue" stroke="midnightblue" points="1245.91,-220.18 1237.02,-225.94 1247.57,-226.98 1245.91,-220.18"/>
</g>
<!-- Node28&#45;&gt;Node20 -->
<g id="edge97" class="edge">
<title>Node28&#45;&gt;Node20</title>
<path fill="none" stroke="midnightblue" d="M1229.71,-218.9C1242.94,-210.2 1260.1,-198.68 1275,-188 1302.17,-168.51 1333.16,-144.29 1349.16,-131.63"/>
<polygon fill="midnightblue" stroke="midnightblue" points="1227.71,-216.03 1221.26,-224.44 1231.54,-221.89 1227.71,-216.03"/>
</g>
<!-- Node28&#45;&gt;Node21 -->
<g id="edge98" class="edge">
<title>Node28&#45;&gt;Node21</title>
<path fill="none" stroke="midnightblue" d="M1232.37,-218.73C1242.95,-211.09 1254.22,-200.64 1260,-188 1269.67,-166.84 1247.52,-143.68 1233.13,-131.53"/>
<polygon fill="midnightblue" stroke="midnightblue" points="1230.15,-216 1223.78,-224.47 1234.04,-221.82 1230.15,-216"/>
</g>
</g>
</svg>
