<?xml version="1.0" encoding="UTF-8" standalone="no"?>
<!DOCTYPE svg PUBLIC "-//W3C//DTD SVG 1.1//EN"
 "http://www.w3.org/Graphics/SVG/1.1/DTD/svg11.dtd">
<!-- Generated by graphviz version 2.43.0 (0)
 -->
<!-- Title: ft::serv::_internal::ai_failed Pages: 1 -->
<svg width="235pt" height="106pt"
 viewBox="0.00 0.00 234.50 106.00" xmlns="http://www.w3.org/2000/svg" xmlns:xlink="http://www.w3.org/1999/xlink">
<g id="graph0" class="graph" transform="scale(1 1) rotate(0) translate(4 102)">
<title>ft::serv::_internal::ai_failed</title>
<polygon fill="white" stroke="transparent" points="-4,4 -4,-102 230.5,-102 230.5,4 -4,4"/>
<!-- Node1 -->
<g id="node1" class="node">
<title>Node1</title>
<g id="a_node1"><a xlink:title=" ">
<polygon fill="#bfbfbf" stroke="black" points="70,-0.5 70,-30.5 168,-30.5 168,-0.5 70,-0.5"/>
<text text-anchor="start" x="78" y="-18.5" font-family="Helvetica,sans-Serif" font-size="10.00">ft::serv::_internal</text>
<text text-anchor="middle" x="119" y="-7.5" font-family="Helvetica,sans-Serif" font-size="10.00">::ai_failed</text>
</a>
</g>
</g>
<!-- Node2 -->
<g id="node2" class="node">
<title>Node2</title>
<g id="a_node2"><a xlink:title=" ">
<polygon fill="white" stroke="#bfbfbf" points="0,-78.5 0,-97.5 86,-97.5 86,-78.5 0,-78.5"/>
<text text-anchor="middle" x="43" y="-85.5" font-family="Helvetica,sans-Serif" font-size="10.00">std::exception</text>
</a>
</g>
</g>
<!-- Node2&#45;&gt;Node1 -->
<g id="edge1" class="edge">
<title>Node2&#45;&gt;Node1</title>
<path fill="none" stroke="midnightblue" d="M59.77,-71.44C72.93,-59.23 91.09,-42.39 103.83,-30.58"/>
<polygon fill="midnightblue" stroke="midnightblue" points="57.27,-68.99 52.32,-78.36 62.03,-74.12 57.27,-68.99"/>
</g>
<!-- Node3 -->
<g id="node3" class="node">
<title>Node3</title>
<g id="a_node3"><a xlink:title=" ">
<polygon fill="white" stroke="#bfbfbf" points="104.5,-78.5 104.5,-97.5 133.5,-97.5 133.5,-78.5 104.5,-78.5"/>
<text text-anchor="middle" x="119" y="-85.5" font-family="Helvetica,sans-Serif" font-size="10.00">int</text>
</a>
</g>
</g>
<!-- Node3&#45;&gt;Node1 -->
<g id="edge2" class="edge">
<title>Node3&#45;&gt;Node1</title>
<path fill="none" stroke="#9a32cd" stroke-dasharray="5,2" d="M119,-68.24C119,-56.41 119,-41.38 119,-30.58"/>
<polygon fill="#9a32cd" stroke="#9a32cd" points="115.5,-68.36 119,-78.36 122.5,-68.36 115.5,-68.36"/>
<text text-anchor="middle" x="124" y="-52" font-family="Helvetica,sans-Serif" font-size="10.00"> e</text>
</g>
<!-- Node4 -->
<g id="node4" class="node">
<title>Node4</title>
<g id="a_node4"><a xlink:title=" ">
<polygon fill="white" stroke="#bfbfbf" points="151.5,-78.5 151.5,-97.5 226.5,-97.5 226.5,-78.5 151.5,-78.5"/>
<text text-anchor="middle" x="189" y="-85.5" font-family="Helvetica,sans-Serif" font-size="10.00">const char *</text>
</a>
</g>
</g>
<!-- Node4&#45;&gt;Node1 -->
<g id="edge3" class="edge">
<title>Node4&#45;&gt;Node1</title>
<path fill="none" stroke="#9a32cd" stroke-dasharray="5,2" d="M173.21,-71.09C161.11,-58.91 144.59,-42.27 132.98,-30.58"/>
<polygon fill="#9a32cd" stroke="#9a32cd" points="170.89,-73.73 180.42,-78.36 175.85,-68.79 170.89,-73.73"/>
<text text-anchor="middle" x="164.5" y="-52" font-family="Helvetica,sans-Serif" font-size="10.00"> s</text>
</g>
</g>
</svg>
