<?xml version="1.0" encoding="UTF-8" standalone="no"?>
<!DOCTYPE svg PUBLIC "-//W3C//DTD SVG 1.1//EN"
 "http://www.w3.org/Graphics/SVG/1.1/DTD/svg11.dtd">
<!-- Generated by graphviz version 2.43.0 (0)
 -->
<!-- Title: ft::irc::channel Pages: 1 -->
<!--zoomable 391 -->
<svg id="main" version="1.1" xmlns="http://www.w3.org/2000/svg" xmlns:xlink="http://www.w3.org/1999/xlink" xml:space="preserve" onload="init(evt)">
<style type="text/css"><![CDATA[
.edge:hover path { stroke: red; }
.edge:hover polygon { stroke: red; fill: red; }
]]></style>
<script type="text/javascript"><![CDATA[
var edges = document.getElementsByTagName('g');
if (edges && edges.length) {
  for (var i=0;i<edges.length;i++) {
    if (edges[i].id.substr(0,4)=='edge') {
      edges[i].setAttribute('class','edge');
    }
  }
}
]]></script>
        <defs>
                <circle id="rim" cx="0" cy="0" r="7"/>
                <circle id="rim2" cx="0" cy="0" r="3.5"/>
                <g id="zoomPlus">
                        <use xlink:href="#rim" fill="#404040">
                                <set attributeName="fill" to="#808080" begin="zoomplus.mouseover" end="zoomplus.mouseout"/>
                        </use>
                        <path d="M-4,0h8M0,-4v8" fill="none" stroke="white" stroke-width="1.5" pointer-events="none"/>
                </g>
                <g id="zoomMin">
                        <use xlink:href="#rim" fill="#404040">
                                <set attributeName="fill" to="#808080" begin="zoomminus.mouseover" end="zoomminus.mouseout"/>
                        </use>
                        <path d="M-4,0h8" fill="none" stroke="white" stroke-width="1.5" pointer-events="none"/>
                </g>
                <g id="dirArrow">
                        <path fill="none" stroke="white" stroke-width="1.5" d="M0,-3.0v7 M-2.5,-0.5L0,-3.0L2.5,-0.5"/>
                </g>
               <g id="resetDef">
                       <use xlink:href="#rim2" fill="#404040">
                               <set attributeName="fill" to="#808080" begin="reset.mouseover" end="reset.mouseout"/>
                       </use>
               </g>
        </defs>

<script type="text/javascript">
var viewWidth = 684;
var viewHeight = 391;
var sectionId = 'dynsection-1';
</script>
<script xlink:href="svgpan.js"/>
<svg id="graph" class="graph">
<g id="viewport">
<title>ft::irc::channel</title>
<polygon fill="white" stroke="transparent" points="-4,4 -4,-387 680,-387 680,4 -4,4"/>
<!-- Node1 -->
<g id="node1" class="node">
<title>Node1</title>
<g id="a_node1"><a xlink:title=" ">
<polygon fill="#bfbfbf" stroke="black" points="590,-212 590,-231 676,-231 676,-212 590,-212"/>
<text text-anchor="middle" x="633" y="-219" font-family="Helvetica,sans-Serif" font-size="10.00">ft::irc::channel</text>
</a>
</g>
</g>
<!-- Node2 -->
<g id="node2" class="node">
<title>Node2</title>
<g id="a_node2"><a xlink:title=" ">
<polygon fill="white" stroke="#bfbfbf" points="364.5,-352.5 364.5,-382.5 493.5,-382.5 493.5,-352.5 364.5,-352.5"/>
<text text-anchor="start" x="372.5" y="-370.5" font-family="Helvetica,sans-Serif" font-size="10.00">ft::enable_shared_from</text>
<text text-anchor="middle" x="429" y="-359.5" font-family="Helvetica,sans-Serif" font-size="10.00">_this&lt; channel &gt;</text>
</a>
</g>
</g>
<!-- Node2&#45;&gt;Node1 -->
<g id="edge1" class="edge">
<title>Node2&#45;&gt;Node1</title>
<path fill="none" stroke="midnightblue" d="M503.46,-355.06C527.14,-348.36 552.33,-338.11 572,-322.5 603.47,-297.52 622.04,-251.18 628.92,-231.14"/>
<polygon fill="midnightblue" stroke="midnightblue" points="502.54,-351.68 493.78,-357.63 504.34,-358.44 502.54,-351.68"/>
</g>
<!-- Node3 -->
<g id="node3" class="node">
<title>Node3</title>
<g id="a_node3"><a xlink:title=" ">
<polygon fill="white" stroke="#bfbfbf" points="362,-303.5 362,-333.5 496,-333.5 496,-303.5 362,-303.5"/>
<text text-anchor="start" x="370" y="-321.5" font-family="Helvetica,sans-Serif" font-size="10.00">std::bitset&lt; NUMBEROF</text>
<text text-anchor="middle" x="429" y="-310.5" font-family="Helvetica,sans-Serif" font-size="10.00">_CHANNEL_MODE &gt;</text>
</a>
</g>
</g>
<!-- Node3&#45;&gt;Node1 -->
<g id="edge2" class="edge">
<title>Node3&#45;&gt;Node1</title>
<path fill="none" stroke="#9a32cd" stroke-dasharray="5,2" d="M506.43,-310.73C528.63,-306.17 552.2,-298.94 572,-287.5 596.4,-273.4 616.43,-245.99 625.98,-231.32"/>
<polygon fill="#9a32cd" stroke="#9a32cd" points="505.52,-307.34 496.34,-312.64 506.82,-314.21 505.52,-307.34"/>
<text text-anchor="middle" x="543" y="-310.5" font-family="Helvetica,sans-Serif" font-size="10.00"> mode</text>
</g>
<!-- Node4 -->
<g id="node4" class="node">
<title>Node4</title>
<g id="a_node4"><a xlink:title=" ">
<polygon fill="white" stroke="#bfbfbf" points="165.5,-264 165.5,-283 254.5,-283 254.5,-264 165.5,-264"/>
<text text-anchor="middle" x="210" y="-271" font-family="Helvetica,sans-Serif" font-size="10.00">readwrite_lock</text>
</a>
</g>
</g>
<!-- Node4&#45;&gt;Node1 -->
<g id="edge3" class="edge">
<title>Node4&#45;&gt;Node1</title>
<path fill="none" stroke="#9a32cd" stroke-dasharray="5,2" d="M264.72,-270.88C335.61,-266.76 464.05,-257.03 572,-236.5 580.02,-234.98 588.56,-233.03 596.61,-231.06"/>
<polygon fill="#9a32cd" stroke="#9a32cd" points="264.48,-267.38 254.69,-271.44 264.87,-274.37 264.48,-267.38"/>
<text text-anchor="middle" x="429" y="-265.5" font-family="Helvetica,sans-Serif" font-size="10.00"> lock</text>
</g>
<!-- Node9 -->
<g id="node9" class="node">
<title>Node9</title>
<g id="a_node9"><a xlink:href="classft_1_1irc_1_1server.html" target="_top" xlink:title=" ">
<polygon fill="white" stroke="black" points="390,-130 390,-149 468,-149 468,-130 390,-130"/>
<text text-anchor="middle" x="429" y="-137" font-family="Helvetica,sans-Serif" font-size="10.00">ft::irc::server</text>
</a>
</g>
</g>
<!-- Node4&#45;&gt;Node9 -->
<g id="edge10" class="edge">
<title>Node4&#45;&gt;Node9</title>
<path fill="none" stroke="#9a32cd" stroke-dasharray="5,2" d="M264.34,-261.01C269.41,-259.11 274.38,-256.95 279,-254.5 312.44,-236.78 321.37,-229.83 344,-199.5 355.9,-183.55 347.02,-171.6 362,-158.5 369.81,-151.67 379.93,-147.29 389.89,-144.48"/>
<polygon fill="#9a32cd" stroke="#9a32cd" points="262.86,-257.81 254.52,-264.35 265.12,-264.44 262.86,-257.81"/>
<text text-anchor="middle" x="320.5" y="-246.5" font-family="Helvetica,sans-Serif" font-size="10.00"> lock</text>
</g>
<!-- Node5 -->
<g id="node5" class="node">
<title>Node5</title>
<g id="a_node5"><a xlink:href="structft_1_1serv_1_1dynamic__array.html" target="_top" xlink:title=" ">
<polygon fill="white" stroke="black" points="365,-206.5 365,-236.5 493,-236.5 493,-206.5 365,-206.5"/>
<text text-anchor="start" x="373" y="-224.5" font-family="Helvetica,sans-Serif" font-size="10.00">ft::serv::dynamic_array</text>
<text text-anchor="middle" x="429" y="-213.5" font-family="Helvetica,sans-Serif" font-size="10.00">&lt; member &gt;</text>
</a>
</g>
</g>
<!-- Node5&#45;&gt;Node1 -->
<g id="edge4" class="edge">
<title>Node5&#45;&gt;Node1</title>
<path fill="none" stroke="#9a32cd" stroke-dasharray="5,2" d="M503.22,-221.5C532.32,-221.5 564.76,-221.5 589.8,-221.5"/>
<polygon fill="#9a32cd" stroke="#9a32cd" points="503.08,-218 493.08,-221.5 503.08,-225 503.08,-218"/>
<text text-anchor="middle" x="543" y="-224.5" font-family="Helvetica,sans-Serif" font-size="10.00"> members</text>
</g>
<!-- Node6 -->
<g id="node6" class="node">
<title>Node6</title>
<g id="a_node6"><a xlink:title=" ">
<polygon fill="white" stroke="#bfbfbf" points="410,-168 410,-187 448,-187 448,-168 410,-168"/>
<text text-anchor="middle" x="429" y="-175" font-family="Helvetica,sans-Serif" font-size="10.00">bool</text>
</a>
</g>
</g>
<!-- Node6&#45;&gt;Node1 -->
<g id="edge5" class="edge">
<title>Node6&#45;&gt;Node1</title>
<path fill="none" stroke="#9a32cd" stroke-dasharray="5,2" d="M458.58,-182.96C487.31,-188.53 532.84,-197.61 572,-206.5 579.43,-208.19 587.36,-210.09 594.93,-211.97"/>
<polygon fill="#9a32cd" stroke="#9a32cd" points="458.92,-179.46 448.44,-181 457.59,-186.33 458.92,-179.46"/>
<text text-anchor="middle" x="543" y="-209.5" font-family="Helvetica,sans-Serif" font-size="10.00"> invalidated</text>
</g>
<!-- Node7 -->
<g id="node7" class="node">
<title>Node7</title>
<g id="a_node7"><a xlink:title=" ">
<polygon fill="white" stroke="#bfbfbf" points="177.5,-6 177.5,-25 242.5,-25 242.5,-6 177.5,-6"/>
<text text-anchor="middle" x="210" y="-13" font-family="Helvetica,sans-Serif" font-size="10.00">std::string</text>
</a>
</g>
</g>
<!-- Node7&#45;&gt;Node1 -->
<g id="edge6" class="edge">
<title>Node7&#45;&gt;Node1</title>
<path fill="none" stroke="#9a32cd" stroke-dasharray="5,2" d="M252.69,-22.08C310.1,-32.35 415.51,-55.6 496,-98.5 532.79,-118.11 541.13,-125.47 572,-153.5 592.75,-172.34 613.65,-197.85 624.46,-211.65"/>
<polygon fill="#9a32cd" stroke="#9a32cd" points="253,-18.58 242.55,-20.31 251.8,-25.48 253,-18.58"/>
<text text-anchor="middle" x="429" y="-112.5" font-family="Helvetica,sans-Serif" font-size="10.00"> name</text>
<text text-anchor="middle" x="429" y="-101.5" font-family="Helvetica,sans-Serif" font-size="10.00">topic</text>
</g>
<!-- Node7&#45;&gt;Node9 -->
<g id="edge14" class="edge">
<title>Node7&#45;&gt;Node9</title>
<path fill="none" stroke="#9a32cd" stroke-dasharray="5,2" d="M252.51,-24.67C261.46,-27.31 270.71,-30.57 279,-34.5 335.61,-61.37 393.78,-109.49 417.24,-129.91"/>
<polygon fill="#9a32cd" stroke="#9a32cd" points="253.18,-21.22 242.61,-21.95 251.33,-27.97 253.18,-21.22"/>
<text text-anchor="middle" x="320.5" y="-75.5" font-family="Helvetica,sans-Serif" font-size="10.00"> pass</text>
</g>
<!-- Node8 -->
<g id="node8" class="node">
<title>Node8</title>
<g id="a_node8"><a xlink:title=" ">
<polygon fill="white" stroke="#bfbfbf" points="0,-0.5 0,-30.5 104,-30.5 104,-0.5 0,-0.5"/>
<text text-anchor="start" x="8" y="-18.5" font-family="Helvetica,sans-Serif" font-size="10.00">std::basic_string&lt;</text>
<text text-anchor="middle" x="52" y="-7.5" font-family="Helvetica,sans-Serif" font-size="10.00"> Char &gt;</text>
</a>
</g>
</g>
<!-- Node8&#45;&gt;Node7 -->
<g id="edge7" class="edge">
<title>Node8&#45;&gt;Node7</title>
<path fill="none" stroke="midnightblue" d="M114.19,-15.5C135.8,-15.5 159.23,-15.5 177.38,-15.5"/>
<polygon fill="midnightblue" stroke="midnightblue" points="114.08,-12 104.08,-15.5 114.08,-19 114.08,-12"/>
</g>
<!-- Node9&#45;&gt;Node1 -->
<g id="edge8" class="edge">
<title>Node9&#45;&gt;Node1</title>
<path fill="none" stroke="#9a32cd" stroke-dasharray="5,2" d="M478.03,-148.8C506.24,-155.28 542.11,-165.33 572,-179.5 590.38,-188.21 609.23,-202.44 620.77,-211.89"/>
<polygon fill="#9a32cd" stroke="#9a32cd" points="478.53,-145.32 468.01,-146.57 477.01,-152.15 478.53,-145.32"/>
<text text-anchor="middle" x="543" y="-182.5" font-family="Helvetica,sans-Serif" font-size="10.00"> server</text>
</g>
<!-- Node10 -->
<g id="node10" class="node">
<title>Node10</title>
<g id="a_node10"><a xlink:title=" ">
<polygon fill="white" stroke="#bfbfbf" points="145.5,-214.5 145.5,-244.5 274.5,-244.5 274.5,-214.5 145.5,-214.5"/>
<text text-anchor="start" x="153.5" y="-232.5" font-family="Helvetica,sans-Serif" font-size="10.00">ft::enable_shared_from</text>
<text text-anchor="middle" x="210" y="-221.5" font-family="Helvetica,sans-Serif" font-size="10.00">_this&lt; server &gt;</text>
</a>
</g>
</g>
<!-- Node10&#45;&gt;Node9 -->
<g id="edge9" class="edge">
<title>Node10&#45;&gt;Node9</title>
<path fill="none" stroke="midnightblue" d="M263.23,-210.78C268.58,-208.72 273.92,-206.6 279,-204.5 308.4,-192.33 317.38,-191.92 344,-174.5 352.96,-168.64 352.62,-163.66 362,-158.5 370.56,-153.78 380.41,-150.14 389.85,-147.36"/>
<polygon fill="midnightblue" stroke="midnightblue" points="261.75,-207.6 253.64,-214.42 264.23,-214.14 261.75,-207.6"/>
</g>
<!-- Node11 -->
<g id="node11" class="node">
<title>Node11</title>
<g id="a_node11"><a xlink:href="structft_1_1serv_1_1dynamic__array.html" target="_top" xlink:title=" ">
<polygon fill="white" stroke="black" points="146,-154 146,-195 274,-195 274,-154 146,-154"/>
<text text-anchor="start" x="154" y="-183" font-family="Helvetica,sans-Serif" font-size="10.00">ft::serv::dynamic_array</text>
<text text-anchor="start" x="154" y="-172" font-family="Helvetica,sans-Serif" font-size="10.00">&lt; ft::shared_ptr&lt; ft::</text>
<text text-anchor="middle" x="210" y="-161" font-family="Helvetica,sans-Serif" font-size="10.00">irc::user &gt; &gt;</text>
</a>
</g>
</g>
<!-- Node11&#45;&gt;Node9 -->
<g id="edge11" class="edge">
<title>Node11&#45;&gt;Node9</title>
<path fill="none" stroke="#9a32cd" stroke-dasharray="5,2" d="M284.37,-162.67C319.82,-156.95 360.87,-150.33 389.99,-145.63"/>
<polygon fill="#9a32cd" stroke="#9a32cd" points="283.37,-159.28 274.06,-164.33 284.49,-166.19 283.37,-159.28"/>
<text text-anchor="middle" x="320.5" y="-162.5" font-family="Helvetica,sans-Serif" font-size="10.00"> users</text>
</g>
<!-- Node12 -->
<g id="node12" class="node">
<title>Node12</title>
<g id="a_node12"><a xlink:href="structft_1_1serv_1_1unique__set.html" target="_top" xlink:title=" ">
<polygon fill="white" stroke="black" points="155.5,-104.5 155.5,-134.5 264.5,-134.5 264.5,-104.5 155.5,-104.5"/>
<text text-anchor="start" x="163.5" y="-122.5" font-family="Helvetica,sans-Serif" font-size="10.00">ft::serv::unique_set</text>
<text text-anchor="middle" x="210" y="-111.5" font-family="Helvetica,sans-Serif" font-size="10.00">&lt; std::string &gt;</text>
</a>
</g>
</g>
<!-- Node12&#45;&gt;Node9 -->
<g id="edge12" class="edge">
<title>Node12&#45;&gt;Node9</title>
<path fill="none" stroke="#9a32cd" stroke-dasharray="5,2" d="M274.94,-125.39C312.3,-128.84 358.21,-133.07 389.95,-135.99"/>
<polygon fill="#9a32cd" stroke="#9a32cd" points="274.92,-121.88 264.64,-124.44 274.28,-128.85 274.92,-121.88"/>
<text text-anchor="middle" x="320.5" y="-133.5" font-family="Helvetica,sans-Serif" font-size="10.00"> nicks</text>
</g>
<!-- Node13 -->
<g id="node13" class="node">
<title>Node13</title>
<g id="a_node13"><a xlink:href="structft_1_1serv_1_1fast__dictionary.html" target="_top" xlink:title=" ">
<polygon fill="white" stroke="black" points="141,-44 141,-85 279,-85 279,-44 141,-44"/>
<text text-anchor="start" x="149" y="-73" font-family="Helvetica,sans-Serif" font-size="10.00">ft::serv::fast_dictionary</text>
<text text-anchor="start" x="149" y="-62" font-family="Helvetica,sans-Serif" font-size="10.00">&lt; std::string, ft::shared</text>
<text text-anchor="middle" x="210" y="-51" font-family="Helvetica,sans-Serif" font-size="10.00">_ptr&lt; ft::irc::channel &gt; &gt;</text>
</a>
</g>
</g>
<!-- Node13&#45;&gt;Node9 -->
<g id="edge13" class="edge">
<title>Node13&#45;&gt;Node9</title>
<path fill="none" stroke="#9a32cd" stroke-dasharray="5,2" d="M280.22,-88.42C321.03,-102.53 370.42,-119.6 400.51,-130"/>
<polygon fill="#9a32cd" stroke="#9a32cd" points="281.18,-85.05 270.58,-85.09 278.89,-91.67 281.18,-85.05"/>
<text text-anchor="middle" x="320.5" y="-112.5" font-family="Helvetica,sans-Serif" font-size="10.00"> channels</text>
</g>
</g>
</svg>
        <g id="navigator" transform="translate(0 0)" fill="#404254">
                <rect fill="#f2f5e9" fill-opacity="0.5" stroke="#606060" stroke-width=".5" x="0" y="0" width="60" height="60"/>
                <use id="zoomplus" xlink:href="#zoomPlus" x="17" y="9" onmousedown="handleZoom(evt,'in')"/>
                <use id="zoomminus" xlink:href="#zoomMin" x="42" y="9" onmousedown="handleZoom(evt,'out')"/>
                <use id="reset" xlink:href="#resetDef" x="30" y="36" onmousedown="handleReset()"/>
                <g id="arrowUp" xlink:href="#dirArrow" transform="translate(30 24)" onmousedown="handlePan(0,-1)">
                  <use xlink:href="#rim" fill="#404040">
                        <set attributeName="fill" to="#808080" begin="arrowUp.mouseover" end="arrowUp.mouseout"/>
                  </use>
                  <path fill="none" stroke="white" stroke-width="1.5" d="M0,-3.0v7 M-2.5,-0.5L0,-3.0L2.5,-0.5"/>
                </g>
                <g id="arrowRight" xlink:href="#dirArrow" transform="rotate(90) translate(36 -43)" onmousedown="handlePan(1,0)">
                  <use xlink:href="#rim" fill="#404040">
                        <set attributeName="fill" to="#808080" begin="arrowRight.mouseover" end="arrowRight.mouseout"/>
                  </use>
                  <path fill="none" stroke="white" stroke-width="1.5" d="M0,-3.0v7 M-2.5,-0.5L0,-3.0L2.5,-0.5"/>
                </g>
                <g id="arrowDown" xlink:href="#dirArrow" transform="rotate(180) translate(-30 -48)" onmousedown="handlePan(0,1)">
                  <use xlink:href="#rim" fill="#404040">
                        <set attributeName="fill" to="#808080" begin="arrowDown.mouseover" end="arrowDown.mouseout"/>
                  </use>
                  <path fill="none" stroke="white" stroke-width="1.5" d="M0,-3.0v7 M-2.5,-0.5L0,-3.0L2.5,-0.5"/>
                </g>
                <g id="arrowLeft" xlink:href="#dirArrow" transform="rotate(270) translate(-36 17)" onmousedown="handlePan(-1,0)">
                  <use xlink:href="#rim" fill="#404040">
                        <set attributeName="fill" to="#808080" begin="arrowLeft.mouseover" end="arrowLeft.mouseout"/>
                  </use>
                  <path fill="none" stroke="white" stroke-width="1.5" d="M0,-3.0v7 M-2.5,-0.5L0,-3.0L2.5,-0.5"/>
                </g>
        </g>
        <svg viewBox="0 0 15 15" width="100%" height="30px" preserveAspectRatio="xMaxYMin meet">
         <g id="arrow_out" transform="scale(0.3 0.3)">
          <a xlink:href="classft_1_1irc_1_1channel__coll__graph_org.svg" target="_base">
           <rect id="button" ry="5" rx="5" y="6" x="6" height="38" width="38"
                fill="#f2f5e9" fill-opacity="0.5" stroke="#606060" stroke-width="1.0"/>
           <path id="arrow"
             d="M 11.500037,31.436501 C 11.940474,20.09759 22.043105,11.32322 32.158766,21.979434 L 37.068811,17.246167 C 37.068811,17.246167 37.088388,32 37.088388,32 L 22.160133,31.978069 C 22.160133,31.978069 26.997745,27.140456 26.997745,27.140456 C 18.528582,18.264221 13.291696,25.230495 11.500037,31.436501 z"
             style="fill:#404040;"/>
          </a>
         </g>
        </svg>
</svg>
