<?xml version="1.0" encoding="UTF-8" standalone="no"?>
<!DOCTYPE svg PUBLIC "-//W3C//DTD SVG 1.1//EN"
 "http://www.w3.org/Graphics/SVG/1.1/DTD/svg11.dtd">
<!-- Generated by graphviz version 2.43.0 (0)
 -->
<!-- Title: ft::irc::message::param_size Pages: 1 -->
<svg width="516pt" height="470pt"
 viewBox="0.00 0.00 516.00 470.00" xmlns="http://www.w3.org/2000/svg" xmlns:xlink="http://www.w3.org/1999/xlink">
<g id="graph0" class="graph" transform="scale(1 1) rotate(0) translate(4 466)">
<title>ft::irc::message::param_size</title>
<polygon fill="white" stroke="transparent" points="-4,4 -4,-466 512,-466 512,4 -4,4"/>
<!-- Node1 -->
<g id="node1" class="node">
<title>Node1</title>
<g id="a_node1"><a xlink:title=" ">
<polygon fill="#bfbfbf" stroke="black" points="354,-226 354,-245 508,-245 508,-226 354,-226"/>
<text text-anchor="middle" x="431" y="-233" font-family="Helvetica,sans-Serif" font-size="10.00">ft::irc::message::param_size</text>
</a>
</g>
</g>
<!-- Node2 -->
<g id="node2" class="node">
<title>Node2</title>
<g id="a_node2"><a xlink:href="classft_1_1irc_1_1processor__dictionary.html#a50bd8e9f89f6f6a911f5495272cd7d41" target="_top" xlink:title=" ">
<polygon fill="white" stroke="black" points="178,-431.5 178,-461.5 292,-461.5 292,-431.5 178,-431.5"/>
<text text-anchor="start" x="186" y="-449.5" font-family="Helvetica,sans-Serif" font-size="10.00">ft::irc::processor</text>
<text text-anchor="middle" x="235" y="-438.5" font-family="Helvetica,sans-Serif" font-size="10.00">_dictionary::execute</text>
</a>
</g>
</g>
<!-- Node1&#45;&gt;Node2 -->
<g id="edge1" class="edge">
<title>Node1&#45;&gt;Node2</title>
<path fill="none" stroke="midnightblue" d="M423.67,-255.27C410.41,-293.48 376.05,-377.64 318,-422.5 310.37,-428.4 301.33,-432.84 292.09,-436.2"/>
<polygon fill="midnightblue" stroke="midnightblue" points="427.12,-255.98 426.98,-245.38 420.49,-253.75 427.12,-255.98"/>
</g>
<!-- Node4 -->
<g id="node4" class="node">
<title>Node4</title>
<g id="a_node4"><a xlink:href="classft_1_1irc_1_1processor__join.html#a7005b0403c1e6e10aa6f6f05339df357" target="_top" xlink:title=" ">
<polygon fill="white" stroke="black" points="187.5,-382.5 187.5,-412.5 282.5,-412.5 282.5,-382.5 187.5,-382.5"/>
<text text-anchor="start" x="195.5" y="-400.5" font-family="Helvetica,sans-Serif" font-size="10.00">ft::irc::processor</text>
<text text-anchor="middle" x="235" y="-389.5" font-family="Helvetica,sans-Serif" font-size="10.00">_join::execute</text>
</a>
</g>
</g>
<!-- Node1&#45;&gt;Node4 -->
<g id="edge3" class="edge">
<title>Node1&#45;&gt;Node4</title>
<path fill="none" stroke="midnightblue" d="M418.73,-254.14C400.75,-282.41 362.99,-336.13 318,-367.5 307.43,-374.87 294.84,-380.65 282.74,-385.09"/>
<polygon fill="midnightblue" stroke="midnightblue" points="421.93,-255.62 424.24,-245.29 415.98,-251.93 421.93,-255.62"/>
</g>
<!-- Node5 -->
<g id="node5" class="node">
<title>Node5</title>
<g id="a_node5"><a xlink:href="classft_1_1irc_1_1processor__mode.html#ad013987a789be47379c13f61364135a6" target="_top" xlink:title=" ">
<polygon fill="white" stroke="black" points="10.5,-169.5 10.5,-199.5 105.5,-199.5 105.5,-169.5 10.5,-169.5"/>
<text text-anchor="start" x="18.5" y="-187.5" font-family="Helvetica,sans-Serif" font-size="10.00">ft::irc::processor</text>
<text text-anchor="middle" x="58" y="-176.5" font-family="Helvetica,sans-Serif" font-size="10.00">_mode::execute</text>
</a>
</g>
</g>
<!-- Node1&#45;&gt;Node5 -->
<g id="edge4" class="edge">
<title>Node1&#45;&gt;Node5</title>
<path fill="none" stroke="midnightblue" d="M416.97,-253.18C398.2,-276.98 361.04,-318.2 318,-334.5 249,-360.62 216.46,-370.38 152,-334.5 98.99,-304.99 72.35,-231.4 62.99,-199.57"/>
<polygon fill="midnightblue" stroke="midnightblue" points="419.93,-255.07 423.23,-245 414.37,-250.81 419.93,-255.07"/>
</g>
<!-- Node6 -->
<g id="node6" class="node">
<title>Node6</title>
<g id="a_node6"><a xlink:href="classft_1_1irc_1_1processor__topic.html#ae4eec2a7267b66791a72bbab1d4842c0" target="_top" xlink:title=" ">
<polygon fill="white" stroke="black" points="187.5,-294.5 187.5,-324.5 282.5,-324.5 282.5,-294.5 187.5,-294.5"/>
<text text-anchor="start" x="195.5" y="-312.5" font-family="Helvetica,sans-Serif" font-size="10.00">ft::irc::processor</text>
<text text-anchor="middle" x="235" y="-301.5" font-family="Helvetica,sans-Serif" font-size="10.00">_topic::execute</text>
</a>
</g>
</g>
<!-- Node1&#45;&gt;Node6 -->
<g id="edge5" class="edge">
<title>Node1&#45;&gt;Node6</title>
<path fill="none" stroke="midnightblue" d="M401.25,-249.63C378.89,-260.3 346.9,-274.87 318,-285.5 306.72,-289.65 294.37,-293.57 282.76,-297"/>
<polygon fill="midnightblue" stroke="midnightblue" points="403.01,-252.66 410.51,-245.17 399.98,-246.36 403.01,-252.66"/>
</g>
<!-- Node7 -->
<g id="node7" class="node">
<title>Node7</title>
<g id="a_node7"><a xlink:href="classft_1_1irc_1_1processor__names.html#a95f660c1020ac7f26cceacd932f48f09" target="_top" xlink:title=" ">
<polygon fill="white" stroke="black" points="185.5,-245.5 185.5,-275.5 284.5,-275.5 284.5,-245.5 185.5,-245.5"/>
<text text-anchor="start" x="193.5" y="-263.5" font-family="Helvetica,sans-Serif" font-size="10.00">ft::irc::processor</text>
<text text-anchor="middle" x="235" y="-252.5" font-family="Helvetica,sans-Serif" font-size="10.00">_names::execute</text>
</a>
</g>
</g>
<!-- Node1&#45;&gt;Node7 -->
<g id="edge6" class="edge">
<title>Node1&#45;&gt;Node7</title>
<path fill="none" stroke="midnightblue" d="M345.93,-246.33C325.04,-249.03 303.33,-251.82 284.78,-254.21"/>
<polygon fill="midnightblue" stroke="midnightblue" points="346.63,-249.77 356.1,-245.02 345.74,-242.83 346.63,-249.77"/>
</g>
<!-- Node8 -->
<g id="node8" class="node">
<title>Node8</title>
<g id="a_node8"><a xlink:href="classft_1_1irc_1_1processor__list.html#aa4ed52d03d87a5f03d9c6d2e53e0409b" target="_top" xlink:title=" ">
<polygon fill="white" stroke="black" points="187.5,-196.5 187.5,-226.5 282.5,-226.5 282.5,-196.5 187.5,-196.5"/>
<text text-anchor="start" x="195.5" y="-214.5" font-family="Helvetica,sans-Serif" font-size="10.00">ft::irc::processor</text>
<text text-anchor="middle" x="235" y="-203.5" font-family="Helvetica,sans-Serif" font-size="10.00">_list::execute</text>
</a>
</g>
</g>
<!-- Node1&#45;&gt;Node8 -->
<g id="edge7" class="edge">
<title>Node1&#45;&gt;Node8</title>
<path fill="none" stroke="midnightblue" d="M343.91,-224.85C322.79,-222.24 300.96,-219.54 282.52,-217.25"/>
<polygon fill="midnightblue" stroke="midnightblue" points="343.53,-228.33 353.88,-226.08 344.39,-221.38 343.53,-228.33"/>
</g>
<!-- Node9 -->
<g id="node9" class="node">
<title>Node9</title>
<g id="a_node9"><a xlink:href="classft_1_1irc_1_1processor__kick.html#ac453ac8376e577bb0a2b4f074fe9be1b" target="_top" xlink:title=" ">
<polygon fill="white" stroke="black" points="187.5,-147.5 187.5,-177.5 282.5,-177.5 282.5,-147.5 187.5,-147.5"/>
<text text-anchor="start" x="195.5" y="-165.5" font-family="Helvetica,sans-Serif" font-size="10.00">ft::irc::processor</text>
<text text-anchor="middle" x="235" y="-154.5" font-family="Helvetica,sans-Serif" font-size="10.00">_kick::execute</text>
</a>
</g>
</g>
<!-- Node1&#45;&gt;Node9 -->
<g id="edge8" class="edge">
<title>Node1&#45;&gt;Node9</title>
<path fill="none" stroke="midnightblue" d="M400.34,-221.74C377.97,-211.62 346.39,-197.87 318,-187.5 306.68,-183.36 294.31,-179.34 282.69,-175.77"/>
<polygon fill="midnightblue" stroke="midnightblue" points="399.08,-225.01 409.63,-225.97 401.98,-218.64 399.08,-225.01"/>
</g>
<!-- Node10 -->
<g id="node10" class="node">
<title>Node10</title>
<g id="a_node10"><a xlink:href="classft_1_1irc_1_1processor__away.html#aa27e728b610738f26ae7264183da2808" target="_top" xlink:title=" ">
<polygon fill="white" stroke="black" points="187.5,-98.5 187.5,-128.5 282.5,-128.5 282.5,-98.5 187.5,-98.5"/>
<text text-anchor="start" x="195.5" y="-116.5" font-family="Helvetica,sans-Serif" font-size="10.00">ft::irc::processor</text>
<text text-anchor="middle" x="235" y="-105.5" font-family="Helvetica,sans-Serif" font-size="10.00">_away::execute</text>
</a>
</g>
</g>
<!-- Node1&#45;&gt;Node10 -->
<g id="edge9" class="edge">
<title>Node1&#45;&gt;Node10</title>
<path fill="none" stroke="midnightblue" d="M414.57,-218.28C394.37,-196.72 356.93,-160.01 318,-138.5 307.19,-132.53 294.77,-127.8 282.92,-124.13"/>
<polygon fill="midnightblue" stroke="midnightblue" points="412.08,-220.75 421.43,-225.73 417.23,-216.01 412.08,-220.75"/>
</g>
<!-- Node11 -->
<g id="node11" class="node">
<title>Node11</title>
<g id="a_node11"><a xlink:href="classft_1_1irc_1_1processor__quit.html#a013c9c33d3e8cd471ca3de624447d359" target="_top" xlink:title=" ">
<polygon fill="white" stroke="black" points="187.5,-49.5 187.5,-79.5 282.5,-79.5 282.5,-49.5 187.5,-49.5"/>
<text text-anchor="start" x="195.5" y="-67.5" font-family="Helvetica,sans-Serif" font-size="10.00">ft::irc::processor</text>
<text text-anchor="middle" x="235" y="-56.5" font-family="Helvetica,sans-Serif" font-size="10.00">_quit::execute</text>
</a>
</g>
</g>
<!-- Node1&#45;&gt;Node11 -->
<g id="edge10" class="edge">
<title>Node1&#45;&gt;Node11</title>
<path fill="none" stroke="midnightblue" d="M420.62,-216.71C404.14,-185.61 367.04,-123.5 318,-89.5 307.48,-82.21 294.78,-76.99 282.54,-73.28"/>
<polygon fill="midnightblue" stroke="midnightblue" points="417.54,-218.36 425.23,-225.64 423.75,-215.15 417.54,-218.36"/>
</g>
<!-- Node12 -->
<g id="node12" class="node">
<title>Node12</title>
<g id="a_node12"><a xlink:href="classft_1_1irc_1_1processor__mode.html#a37bfb22efb064cf555ec39b0cc173a38" target="_top" xlink:title=" ">
<polygon fill="white" stroke="black" points="152,-0.5 152,-30.5 318,-30.5 318,-0.5 152,-0.5"/>
<text text-anchor="start" x="160" y="-18.5" font-family="Helvetica,sans-Serif" font-size="10.00">ft::irc::processor</text>
<text text-anchor="middle" x="235" y="-7.5" font-family="Helvetica,sans-Serif" font-size="10.00">_mode::update_channel_mode</text>
</a>
</g>
</g>
<!-- Node1&#45;&gt;Node12 -->
<g id="edge11" class="edge">
<title>Node1&#45;&gt;Node12</title>
<path fill="none" stroke="midnightblue" d="M424.29,-215.85C411.78,-176.34 378.18,-87 318,-39.5 313.69,-36.1 308.92,-33.18 303.9,-30.68"/>
<polygon fill="midnightblue" stroke="midnightblue" points="421,-217.06 427.26,-225.6 427.69,-215.01 421,-217.06"/>
</g>
<!-- Node3 -->
<g id="node3" class="node">
<title>Node3</title>
<g id="a_node3"><a xlink:href="classft_1_1irc_1_1client__handler.html#a239d2ec2a936d74893455a83468669b3" target="_top" xlink:title=" ">
<polygon fill="white" stroke="black" points="0,-431.5 0,-461.5 116,-461.5 116,-431.5 0,-431.5"/>
<text text-anchor="start" x="8" y="-449.5" font-family="Helvetica,sans-Serif" font-size="10.00">ft::irc::client_handler</text>
<text text-anchor="middle" x="58" y="-438.5" font-family="Helvetica,sans-Serif" font-size="10.00">::on_read</text>
</a>
</g>
</g>
<!-- Node2&#45;&gt;Node3 -->
<g id="edge2" class="edge">
<title>Node2&#45;&gt;Node3</title>
<path fill="none" stroke="midnightblue" d="M167.33,-446.5C150.45,-446.5 132.48,-446.5 116.13,-446.5"/>
<polygon fill="midnightblue" stroke="midnightblue" points="167.67,-450 177.67,-446.5 167.67,-443 167.67,-450"/>
</g>
<!-- Node12&#45;&gt;Node5 -->
<g id="edge12" class="edge">
<title>Node12&#45;&gt;Node5</title>
<path fill="none" stroke="midnightblue" d="M157.87,-35.52C155.84,-36.77 153.88,-38.09 152,-39.5 105.55,-74.27 76.09,-139.61 64.55,-169.22"/>
<polygon fill="midnightblue" stroke="midnightblue" points="159.98,-38.36 167.11,-30.53 156.65,-32.2 159.98,-38.36"/>
</g>
</g>
</svg>
