<?xml version="1.0" encoding="UTF-8" standalone="no"?>
<!DOCTYPE svg PUBLIC "-//W3C//DTD SVG 1.1//EN"
 "http://www.w3.org/Graphics/SVG/1.1/DTD/svg11.dtd">
<!-- Generated by graphviz version 2.43.0 (0)
 -->
<!-- Title: ft::irc::bot_handler::on_read Pages: 1 -->
<!--zoomable 610 -->
<svg id="main" version="1.1" xmlns="http://www.w3.org/2000/svg" xmlns:xlink="http://www.w3.org/1999/xlink" xml:space="preserve" onload="init(evt)">
<style type="text/css"><![CDATA[
.edge:hover path { stroke: red; }
.edge:hover polygon { stroke: red; fill: red; }
]]></style>
<script type="text/javascript"><![CDATA[
var edges = document.getElementsByTagName('g');
if (edges && edges.length) {
  for (var i=0;i<edges.length;i++) {
    if (edges[i].id.substr(0,4)=='edge') {
      edges[i].setAttribute('class','edge');
    }
  }
}
]]></script>
        <defs>
                <circle id="rim" cx="0" cy="0" r="7"/>
                <circle id="rim2" cx="0" cy="0" r="3.5"/>
                <g id="zoomPlus">
                        <use xlink:href="#rim" fill="#404040">
                                <set attributeName="fill" to="#808080" begin="zoomplus.mouseover" end="zoomplus.mouseout"/>
                        </use>
                        <path d="M-4,0h8M0,-4v8" fill="none" stroke="white" stroke-width="1.5" pointer-events="none"/>
                </g>
                <g id="zoomMin">
                        <use xlink:href="#rim" fill="#404040">
                                <set attributeName="fill" to="#808080" begin="zoomminus.mouseover" end="zoomminus.mouseout"/>
                        </use>
                        <path d="M-4,0h8" fill="none" stroke="white" stroke-width="1.5" pointer-events="none"/>
                </g>
                <g id="dirArrow">
                        <path fill="none" stroke="white" stroke-width="1.5" d="M0,-3.0v7 M-2.5,-0.5L0,-3.0L2.5,-0.5"/>
                </g>
               <g id="resetDef">
                       <use xlink:href="#rim2" fill="#404040">
                               <set attributeName="fill" to="#808080" begin="reset.mouseover" end="reset.mouseout"/>
                       </use>
               </g>
        </defs>

<script type="text/javascript">
var viewWidth = 881;
var viewHeight = 610;
var sectionId = 'dynsection-5';
</script>
<script xlink:href="svgpan.js"/>
<svg id="graph" class="graph">
<g id="viewport">
<title>ft::irc::bot_handler::on_read</title>
<polygon fill="white" stroke="transparent" points="-4,4 -4,-606 877,-606 877,4 -4,4"/>
<!-- Node1 -->
<g id="node1" class="node">
<title>Node1</title>
<g id="a_node1"><a xlink:title=" ">
<polygon fill="#bfbfbf" stroke="black" points="0,-284.5 0,-314.5 105,-314.5 105,-284.5 0,-284.5"/>
<text text-anchor="start" x="8" y="-302.5" font-family="Helvetica,sans-Serif" font-size="10.00">ft::irc::bot_handler</text>
<text text-anchor="middle" x="52.5" y="-291.5" font-family="Helvetica,sans-Serif" font-size="10.00">::on_read</text>
</a>
</g>
</g>
<!-- Node2 -->
<g id="node2" class="node">
<title>Node2</title>
<g id="a_node2"><a xlink:href="structft_1_1serv_1_1logger.html#a83649a4f3bb804c8fed6dfd130de5ee6" target="_top" xlink:title=" ">
<polygon fill="white" stroke="black" points="141,-440 141,-459 263,-459 263,-440 141,-440"/>
<text text-anchor="middle" x="202" y="-447" font-family="Helvetica,sans-Serif" font-size="10.00">ft::serv::logger::debug</text>
</a>
</g>
</g>
<!-- Node1&#45;&gt;Node2 -->
<g id="edge1" class="edge">
<title>Node1&#45;&gt;Node2</title>
<path fill="none" stroke="midnightblue" d="M68.45,-314.71C96.17,-342.89 155.32,-403.05 184.3,-432.52"/>
<polygon fill="midnightblue" stroke="midnightblue" points="182.12,-435.29 191.62,-439.96 187.11,-430.38 182.12,-435.29"/>
</g>
<!-- Node6 -->
<g id="node6" class="node">
<title>Node6</title>
<g id="a_node6"><a xlink:href="classft_1_1irc_1_1bot.html#a0b595213781ed0e5aaf1d48fdb602d98" target="_top" xlink:title=" ">
<polygon fill="white" stroke="black" points="142.5,-290 142.5,-309 261.5,-309 261.5,-290 142.5,-290"/>
<text text-anchor="middle" x="202" y="-297" font-family="Helvetica,sans-Serif" font-size="10.00">ft::irc::bot::on_packet</text>
</a>
</g>
</g>
<!-- Node1&#45;&gt;Node6 -->
<g id="edge5" class="edge">
<title>Node1&#45;&gt;Node6</title>
<path fill="none" stroke="midnightblue" d="M105.09,-299.5C113.84,-299.5 123.05,-299.5 132.16,-299.5"/>
<polygon fill="midnightblue" stroke="midnightblue" points="132.38,-303 142.38,-299.5 132.38,-296 132.38,-303"/>
</g>
<!-- Node23 -->
<g id="node23" class="node">
<title>Node23</title>
<g id="a_node23"><a xlink:href="classft_1_1irc_1_1message.html#a076fdbb740cb752dd153e207f076183a" target="_top" xlink:title=" ">
<polygon fill="white" stroke="black" points="148.5,-240.5 148.5,-270.5 255.5,-270.5 255.5,-240.5 148.5,-240.5"/>
<text text-anchor="start" x="156.5" y="-258.5" font-family="Helvetica,sans-Serif" font-size="10.00">ft::irc::message::to</text>
<text text-anchor="middle" x="202" y="-247.5" font-family="Helvetica,sans-Serif" font-size="10.00">_pretty_string</text>
</a>
</g>
</g>
<!-- Node1&#45;&gt;Node23 -->
<g id="edge24" class="edge">
<title>Node1&#45;&gt;Node23</title>
<path fill="none" stroke="midnightblue" d="M103.85,-284.48C115.77,-280.93 128.6,-277.1 140.9,-273.43"/>
<polygon fill="midnightblue" stroke="midnightblue" points="142.05,-276.74 150.63,-270.53 140.04,-270.03 142.05,-276.74"/>
</g>
<!-- Node3 -->
<g id="node3" class="node">
<title>Node3</title>
<g id="a_node3"><a xlink:href="namespaceft_1_1serv_1_1__internal.html#a4dfb80be7b817fc0ee18658f313a6274" target="_top" xlink:title=" ">
<polygon fill="white" stroke="black" points="315.5,-547.5 315.5,-577.5 413.5,-577.5 413.5,-547.5 315.5,-547.5"/>
<text text-anchor="start" x="323.5" y="-565.5" font-family="Helvetica,sans-Serif" font-size="10.00">ft::serv::_internal</text>
<text text-anchor="middle" x="364.5" y="-554.5" font-family="Helvetica,sans-Serif" font-size="10.00">::print</text>
</a>
</g>
</g>
<!-- Node2&#45;&gt;Node3 -->
<g id="edge2" class="edge">
<title>Node2&#45;&gt;Node3</title>
<path fill="none" stroke="midnightblue" d="M211.33,-459.23C226.93,-476.94 262.32,-514.71 299,-537.5 302.14,-539.45 305.46,-541.3 308.87,-543.03"/>
<polygon fill="midnightblue" stroke="midnightblue" points="307.51,-546.26 318.05,-547.36 310.5,-539.93 307.51,-546.26"/>
</g>
<!-- Node4 -->
<g id="node4" class="node">
<title>Node4</title>
<g id="a_node4"><a xlink:href="namespaceft_1_1serv_1_1__internal.html#aff49349b58dc84fa69076e9cd27a1db4" target="_top" xlink:title=" ">
<polygon fill="white" stroke="black" points="466,-571.5 466,-601.5 610,-601.5 610,-571.5 466,-571.5"/>
<text text-anchor="start" x="474" y="-589.5" font-family="Helvetica,sans-Serif" font-size="10.00">ft::serv::_internal</text>
<text text-anchor="middle" x="538" y="-578.5" font-family="Helvetica,sans-Serif" font-size="10.00">::make_format_string_line</text>
</a>
</g>
</g>
<!-- Node3&#45;&gt;Node4 -->
<g id="edge3" class="edge">
<title>Node3&#45;&gt;Node4</title>
<path fill="none" stroke="midnightblue" d="M413.73,-569.25C426.85,-571.09 441.43,-573.13 455.84,-575.14"/>
<polygon fill="midnightblue" stroke="midnightblue" points="455.38,-578.61 465.77,-576.53 456.35,-571.68 455.38,-578.61"/>
</g>
<!-- Node5 -->
<g id="node5" class="node">
<title>Node5</title>
<g id="a_node5"><a xlink:href="namespaceft_1_1serv_1_1__internal.html#aad4af39d62c2b1687b0bef7a91bf6c60" target="_top" xlink:title=" ">
<polygon fill="white" stroke="black" points="486.5,-522.5 486.5,-552.5 589.5,-552.5 589.5,-522.5 486.5,-522.5"/>
<text text-anchor="start" x="494.5" y="-540.5" font-family="Helvetica,sans-Serif" font-size="10.00">ft::serv::_internal</text>
<text text-anchor="middle" x="538" y="-529.5" font-family="Helvetica,sans-Serif" font-size="10.00">::make_utc_string</text>
</a>
</g>
</g>
<!-- Node3&#45;&gt;Node5 -->
<g id="edge4" class="edge">
<title>Node3&#45;&gt;Node5</title>
<path fill="none" stroke="midnightblue" d="M413.73,-555.47C433.23,-552.63 455.95,-549.32 476.53,-546.31"/>
<polygon fill="midnightblue" stroke="midnightblue" points="477.05,-549.78 486.44,-544.87 476.04,-542.85 477.05,-549.78"/>
</g>
<!-- Node7 -->
<g id="node7" class="node">
<title>Node7</title>
<g id="a_node7"><a xlink:href="classft_1_1irc_1_1bot.html#ab9626c6fee28a7fa7cb968c76362834c" target="_top" xlink:title=" ">
<polygon fill="white" stroke="black" points="302.5,-471 302.5,-490 426.5,-490 426.5,-471 302.5,-471"/>
<text text-anchor="middle" x="364.5" y="-478" font-family="Helvetica,sans-Serif" font-size="10.00">ft::irc::bot::add_inviter</text>
</a>
</g>
</g>
<!-- Node6&#45;&gt;Node7 -->
<g id="edge6" class="edge">
<title>Node6&#45;&gt;Node7</title>
<path fill="none" stroke="midnightblue" d="M205.94,-309.23C214.93,-337.34 244.81,-419.34 299,-461.5 301.33,-463.31 303.83,-464.96 306.45,-466.44"/>
<polygon fill="midnightblue" stroke="midnightblue" points="305.17,-469.71 315.69,-470.91 308.21,-463.41 305.17,-469.71"/>
</g>
<!-- Node8 -->
<g id="node8" class="node">
<title>Node8</title>
<g id="a_node8"><a xlink:href="classft_1_1irc_1_1bot.html#aef50e26ad9e418841745fec737a929e1" target="_top" xlink:title=" ">
<polygon fill="white" stroke="black" points="321,-421.5 321,-451.5 408,-451.5 408,-421.5 321,-421.5"/>
<text text-anchor="start" x="329" y="-439.5" font-family="Helvetica,sans-Serif" font-size="10.00">ft::irc::bot::find</text>
<text text-anchor="middle" x="364.5" y="-428.5" font-family="Helvetica,sans-Serif" font-size="10.00">_channels</text>
</a>
</g>
</g>
<!-- Node6&#45;&gt;Node8 -->
<g id="edge7" class="edge">
<title>Node6&#45;&gt;Node8</title>
<path fill="none" stroke="midnightblue" d="M208.72,-309.11C221.96,-330.6 256.84,-382.95 299,-412.5 302.95,-415.27 307.26,-417.76 311.71,-420"/>
<polygon fill="midnightblue" stroke="midnightblue" points="310.45,-423.27 321,-424.23 313.35,-416.89 310.45,-423.27"/>
</g>
<!-- Node12 -->
<g id="node12" class="node">
<title>Node12</title>
<g id="a_node12"><a xlink:href="classft_1_1irc_1_1message.html#ad323e99c45f6feec038a7de683f812a2" target="_top" xlink:title=" ">
<polygon fill="white" stroke="black" points="308,-372.5 308,-402.5 421,-402.5 421,-372.5 308,-372.5"/>
<text text-anchor="start" x="316" y="-390.5" font-family="Helvetica,sans-Serif" font-size="10.00">ft::irc::message::get</text>
<text text-anchor="middle" x="364.5" y="-379.5" font-family="Helvetica,sans-Serif" font-size="10.00">_command</text>
</a>
</g>
</g>
<!-- Node6&#45;&gt;Node12 -->
<g id="edge11" class="edge">
<title>Node6&#45;&gt;Node12</title>
<path fill="none" stroke="midnightblue" d="M215.82,-309.18C233.74,-322.42 267.63,-346.35 299,-362.5 303.01,-364.57 307.24,-366.56 311.53,-368.47"/>
<polygon fill="midnightblue" stroke="midnightblue" points="310.38,-371.79 320.95,-372.48 313.12,-365.34 310.38,-371.79"/>
</g>
<!-- Node13 -->
<g id="node13" class="node">
<title>Node13</title>
<g id="a_node13"><a xlink:href="classft_1_1irc_1_1bot.html#a38baf3c513838c769c61c825a4b8a8a2" target="_top" xlink:title=" ">
<polygon fill="white" stroke="black" points="309.5,-334 309.5,-353 419.5,-353 419.5,-334 309.5,-334"/>
<text text-anchor="middle" x="364.5" y="-341" font-family="Helvetica,sans-Serif" font-size="10.00">ft::irc::bot::get_nick</text>
</a>
</g>
</g>
<!-- Node6&#45;&gt;Node13 -->
<g id="edge12" class="edge">
<title>Node6&#45;&gt;Node13</title>
<path fill="none" stroke="midnightblue" d="M237.83,-309.05C261.59,-315.56 293.28,-324.25 318.9,-331.27"/>
<polygon fill="midnightblue" stroke="midnightblue" points="318.17,-334.7 328.74,-333.97 320.02,-327.95 318.17,-334.7"/>
</g>
<!-- Node14 -->
<g id="node14" class="node">
<title>Node14</title>
<g id="a_node14"><a xlink:href="classft_1_1irc_1_1message.html#a254aec48aa7b7872331cd5644d9e918c" target="_top" xlink:title=" ">
<polygon fill="white" stroke="black" points="308,-284.5 308,-314.5 421,-314.5 421,-284.5 308,-284.5"/>
<text text-anchor="start" x="316" y="-302.5" font-family="Helvetica,sans-Serif" font-size="10.00">ft::irc::message::get</text>
<text text-anchor="middle" x="364.5" y="-291.5" font-family="Helvetica,sans-Serif" font-size="10.00">_prefix</text>
</a>
</g>
</g>
<!-- Node6&#45;&gt;Node14 -->
<g id="edge13" class="edge">
<title>Node6&#45;&gt;Node14</title>
<path fill="none" stroke="midnightblue" d="M261.85,-299.5C273.48,-299.5 285.75,-299.5 297.59,-299.5"/>
<polygon fill="midnightblue" stroke="midnightblue" points="297.86,-303 307.86,-299.5 297.86,-296 297.86,-303"/>
</g>
<!-- Node15 -->
<g id="node15" class="node">
<title>Node15</title>
<g id="a_node15"><a xlink:href="classft_1_1irc_1_1bot.html#a8cdd94dface1cee6c920a6fba82c1624" target="_top" xlink:title=" ">
<polygon fill="white" stroke="black" points="307.5,-246 307.5,-265 421.5,-265 421.5,-246 307.5,-246"/>
<text text-anchor="middle" x="364.5" y="-253" font-family="Helvetica,sans-Serif" font-size="10.00">ft::irc::bot::is_inviter</text>
</a>
</g>
</g>
<!-- Node6&#45;&gt;Node15 -->
<g id="edge14" class="edge">
<title>Node6&#45;&gt;Node15</title>
<path fill="none" stroke="midnightblue" d="M237.83,-289.95C261.59,-283.44 293.28,-274.75 318.9,-267.73"/>
<polygon fill="midnightblue" stroke="midnightblue" points="320.02,-271.05 328.74,-265.03 318.17,-264.3 320.02,-271.05"/>
</g>
<!-- Node16 -->
<g id="node16" class="node">
<title>Node16</title>
<g id="a_node16"><a xlink:href="structft_1_1irc_1_1string__utils.html#a38cd804a5b73843f0fd63a027dd0dee0" target="_top" xlink:title=" ">
<polygon fill="white" stroke="black" points="299,-196.5 299,-226.5 430,-226.5 430,-196.5 299,-196.5"/>
<text text-anchor="start" x="307" y="-214.5" font-family="Helvetica,sans-Serif" font-size="10.00">ft::irc::string_utils</text>
<text text-anchor="middle" x="364.5" y="-203.5" font-family="Helvetica,sans-Serif" font-size="10.00">::is_valid_channelname</text>
</a>
</g>
</g>
<!-- Node6&#45;&gt;Node16 -->
<g id="edge16" class="edge">
<title>Node6&#45;&gt;Node16</title>
<path fill="none" stroke="midnightblue" d="M244.17,-289.97C250.78,-287.48 257.3,-284.36 263,-280.5 283.91,-266.32 278.55,-251.33 299,-236.5 301.63,-234.6 304.41,-232.82 307.3,-231.15"/>
<polygon fill="midnightblue" stroke="midnightblue" points="308.95,-234.24 316.21,-226.52 305.72,-228.03 308.95,-234.24"/>
</g>
<!-- Node18 -->
<g id="node18" class="node">
<title>Node18</title>
<g id="a_node18"><a xlink:href="structft_1_1irc_1_1string__utils.html#ac1e75b32f508ffe5a1a1875d1e1cd2ea" target="_top" xlink:title=" ">
<polygon fill="white" stroke="black" points="314,-147.5 314,-177.5 415,-177.5 415,-147.5 314,-147.5"/>
<text text-anchor="start" x="322" y="-165.5" font-family="Helvetica,sans-Serif" font-size="10.00">ft::irc::string_utils</text>
<text text-anchor="middle" x="364.5" y="-154.5" font-family="Helvetica,sans-Serif" font-size="10.00">::pick_nick</text>
</a>
</g>
</g>
<!-- Node6&#45;&gt;Node18 -->
<g id="edge18" class="edge">
<title>Node6&#45;&gt;Node18</title>
<path fill="none" stroke="midnightblue" d="M248.7,-289.96C253.94,-287.5 258.87,-284.4 263,-280.5 295.55,-249.81 267.22,-217.98 299,-186.5 300.89,-184.62 302.95,-182.89 305.12,-181.29"/>
<polygon fill="midnightblue" stroke="midnightblue" points="307.35,-184.03 313.99,-175.77 303.65,-178.09 307.35,-184.03"/>
</g>
<!-- Node19 -->
<g id="node19" class="node">
<title>Node19</title>
<g id="a_node19"><a xlink:href="classft_1_1serv_1_1event__layer.html#a854a0764bd67adfc716ec4237cd52672" target="_top" xlink:title=" ">
<polygon fill="white" stroke="black" points="308,-98.5 308,-128.5 421,-128.5 421,-98.5 308,-98.5"/>
<text text-anchor="start" x="316" y="-116.5" font-family="Helvetica,sans-Serif" font-size="10.00">ft::serv::event_layer</text>
<text text-anchor="middle" x="364.5" y="-105.5" font-family="Helvetica,sans-Serif" font-size="10.00">::post_flush</text>
</a>
</g>
</g>
<!-- Node6&#45;&gt;Node19 -->
<g id="edge19" class="edge">
<title>Node6&#45;&gt;Node19</title>
<path fill="none" stroke="midnightblue" d="M250.05,-289.97C254.87,-287.5 259.33,-284.4 263,-280.5 307.93,-232.79 255.26,-186.31 299,-137.5 299.87,-136.52 300.79,-135.59 301.75,-134.69"/>
<polygon fill="midnightblue" stroke="midnightblue" points="303.96,-137.4 309.74,-128.52 299.68,-131.86 303.96,-137.4"/>
</g>
<!-- Node20 -->
<g id="node20" class="node">
<title>Node20</title>
<g id="a_node20"><a xlink:href="classft_1_1serv_1_1event__layer.html#add4946138f5f8a5870d52c44ca435aab" target="_top" xlink:title=" ">
<polygon fill="white" stroke="black" points="308,-49.5 308,-79.5 421,-79.5 421,-49.5 308,-49.5"/>
<text text-anchor="start" x="316" y="-67.5" font-family="Helvetica,sans-Serif" font-size="10.00">ft::serv::event_layer</text>
<text text-anchor="middle" x="364.5" y="-56.5" font-family="Helvetica,sans-Serif" font-size="10.00">::post_write</text>
</a>
</g>
</g>
<!-- Node6&#45;&gt;Node20 -->
<g id="edge20" class="edge">
<title>Node6&#45;&gt;Node20</title>
<path fill="none" stroke="midnightblue" d="M250.87,-289.87C255.42,-287.42 259.6,-284.34 263,-280.5 320.56,-215.5 243.07,-154.91 299,-88.5 299.73,-87.63 300.5,-86.8 301.29,-85.99"/>
<polygon fill="midnightblue" stroke="midnightblue" points="303.68,-88.56 309.2,-79.52 299.25,-83.14 303.68,-88.56"/>
</g>
<!-- Node21 -->
<g id="node21" class="node">
<title>Node21</title>
<g id="a_node21"><a xlink:href="classft_1_1irc_1_1bot.html#af8c852e58073043cd63ace5d56c558fe" target="_top" xlink:title=" ">
<polygon fill="white" stroke="black" points="311,-0.5 311,-30.5 418,-30.5 418,-0.5 311,-0.5"/>
<text text-anchor="start" x="319" y="-18.5" font-family="Helvetica,sans-Serif" font-size="10.00">ft::irc::bot::remove</text>
<text text-anchor="middle" x="364.5" y="-7.5" font-family="Helvetica,sans-Serif" font-size="10.00">_inviter</text>
</a>
</g>
</g>
<!-- Node6&#45;&gt;Node21 -->
<g id="edge21" class="edge">
<title>Node6&#45;&gt;Node21</title>
<path fill="none" stroke="midnightblue" d="M251.01,-290C255.54,-287.52 259.67,-284.41 263,-280.5 333.28,-198.1 230.78,-123.61 299,-39.5 300.14,-38.1 301.37,-36.77 302.67,-35.53"/>
<polygon fill="midnightblue" stroke="midnightblue" points="305.09,-38.09 310.87,-29.22 300.82,-32.54 305.09,-38.09"/>
</g>
<!-- Node22 -->
<g id="node22" class="node">
<title>Node22</title>
<g id="a_node22"><a xlink:href="classft_1_1irc_1_1bot.html#a6bea4a41bf2e963f84660531719b1515" target="_top" xlink:title=" ">
<polygon fill="white" stroke="black" points="300.5,-509 300.5,-528 428.5,-528 428.5,-509 300.5,-509"/>
<text text-anchor="middle" x="364.5" y="-516" font-family="Helvetica,sans-Serif" font-size="10.00">ft::irc::bot::update_nick</text>
</a>
</g>
</g>
<!-- Node6&#45;&gt;Node22 -->
<g id="edge22" class="edge">
<title>Node6&#45;&gt;Node22</title>
<path fill="none" stroke="midnightblue" d="M207.32,-309.04C224.94,-347.91 290.88,-492.59 299,-499.5 300.98,-501.19 303.11,-502.73 305.34,-504.13"/>
<polygon fill="midnightblue" stroke="midnightblue" points="303.9,-507.32 314.38,-508.88 307.16,-501.13 303.9,-507.32"/>
</g>
<!-- Node9 -->
<g id="node9" class="node">
<title>Node9</title>
<g id="a_node9"><a xlink:href="structft_1_1irc_1_1string__utils.html#abd73422cb93e7f7f26cfd59a221933a2" target="_top" xlink:title=" ">
<polygon fill="white" stroke="black" points="487.5,-421.5 487.5,-451.5 588.5,-451.5 588.5,-421.5 487.5,-421.5"/>
<text text-anchor="start" x="495.5" y="-439.5" font-family="Helvetica,sans-Serif" font-size="10.00">ft::irc::string_utils</text>
<text text-anchor="middle" x="538" y="-428.5" font-family="Helvetica,sans-Serif" font-size="10.00">::is_same</text>
</a>
</g>
</g>
<!-- Node8&#45;&gt;Node9 -->
<g id="edge8" class="edge">
<title>Node8&#45;&gt;Node9</title>
<path fill="none" stroke="midnightblue" d="M408.33,-436.5C429.16,-436.5 454.52,-436.5 477.21,-436.5"/>
<polygon fill="midnightblue" stroke="midnightblue" points="477.43,-440 487.43,-436.5 477.43,-433 477.43,-440"/>
</g>
<!-- Node10 -->
<g id="node10" class="node">
<title>Node10</title>
<g id="a_node10"><a xlink:href="structft_1_1irc_1_1string__utils.html#a367a22012cc0d2d25959ac3f4e5d33a9" target="_top" xlink:title=" ">
<polygon fill="white" stroke="black" points="646,-421.5 646,-451.5 747,-451.5 747,-421.5 646,-421.5"/>
<text text-anchor="start" x="654" y="-439.5" font-family="Helvetica,sans-Serif" font-size="10.00">ft::irc::string_utils</text>
<text text-anchor="middle" x="696.5" y="-428.5" font-family="Helvetica,sans-Serif" font-size="10.00">::to_lower</text>
</a>
</g>
</g>
<!-- Node9&#45;&gt;Node10 -->
<g id="edge9" class="edge">
<title>Node9&#45;&gt;Node10</title>
<path fill="none" stroke="midnightblue" d="M588.52,-436.5C603.5,-436.5 620.12,-436.5 635.7,-436.5"/>
<polygon fill="midnightblue" stroke="midnightblue" points="635.77,-440 645.77,-436.5 635.77,-433 635.77,-440"/>
</g>
<!-- Node11 -->
<g id="node11" class="node">
<title>Node11</title>
<g id="a_node11"><a xlink:href="namespaceft_1_1irc_1_1__internal.html#aa76c3a369f64725f8b2b52b2131c1111" target="_top" xlink:title=" ">
<polygon fill="white" stroke="black" points="783,-421.5 783,-451.5 873,-451.5 873,-421.5 783,-421.5"/>
<text text-anchor="start" x="791" y="-439.5" font-family="Helvetica,sans-Serif" font-size="10.00">ft::irc::_internal</text>
<text text-anchor="middle" x="828" y="-428.5" font-family="Helvetica,sans-Serif" font-size="10.00">::_to_lower</text>
</a>
</g>
</g>
<!-- Node10&#45;&gt;Node11 -->
<g id="edge10" class="edge">
<title>Node10&#45;&gt;Node11</title>
<path fill="none" stroke="midnightblue" d="M747.2,-436.5C755.51,-436.5 764.18,-436.5 772.61,-436.5"/>
<polygon fill="midnightblue" stroke="midnightblue" points="772.73,-440 782.73,-436.5 772.73,-433 772.73,-440"/>
</g>
<!-- Node15&#45;&gt;Node9 -->
<g id="edge15" class="edge">
<title>Node15&#45;&gt;Node9</title>
<path fill="none" stroke="midnightblue" d="M410.46,-265.05C417.4,-267.73 424.18,-271.14 430,-275.5 478.18,-311.55 511.36,-376.08 526.92,-411.51"/>
<polygon fill="midnightblue" stroke="midnightblue" points="523.86,-413.27 531,-421.1 530.3,-410.53 523.86,-413.27"/>
</g>
<!-- Node17 -->
<g id="node17" class="node">
<title>Node17</title>
<g id="a_node17"><a xlink:href="namespaceft_1_1irc_1_1__internal.html#ac421a738f6d955bab8b862fca8bd7159" target="_top" xlink:title=" ">
<polygon fill="white" stroke="black" points="493,-196.5 493,-226.5 583,-226.5 583,-196.5 493,-196.5"/>
<text text-anchor="start" x="501" y="-214.5" font-family="Helvetica,sans-Serif" font-size="10.00">ft::irc::_internal</text>
<text text-anchor="middle" x="538" y="-203.5" font-family="Helvetica,sans-Serif" font-size="10.00">::_is_except</text>
</a>
</g>
</g>
<!-- Node16&#45;&gt;Node17 -->
<g id="edge17" class="edge">
<title>Node16&#45;&gt;Node17</title>
<path fill="none" stroke="midnightblue" d="M430.34,-211.5C447.62,-211.5 466.11,-211.5 482.75,-211.5"/>
<polygon fill="midnightblue" stroke="midnightblue" points="482.86,-215 492.86,-211.5 482.86,-208 482.86,-215"/>
</g>
<!-- Node22&#45;&gt;Node9 -->
<g id="edge23" class="edge">
<title>Node22&#45;&gt;Node9</title>
<path fill="none" stroke="midnightblue" d="M403.57,-508.97C412.4,-506.3 421.65,-503.12 430,-499.5 456.99,-487.79 485.62,-470.66 506.47,-457.21"/>
<polygon fill="midnightblue" stroke="midnightblue" points="508.44,-460.1 514.9,-451.7 504.61,-454.24 508.44,-460.1"/>
</g>
</g>
</svg>
        <g id="navigator" transform="translate(0 0)" fill="#404254">
                <rect fill="#f2f5e9" fill-opacity="0.5" stroke="#606060" stroke-width=".5" x="0" y="0" width="60" height="60"/>
                <use id="zoomplus" xlink:href="#zoomPlus" x="17" y="9" onmousedown="handleZoom(evt,'in')"/>
                <use id="zoomminus" xlink:href="#zoomMin" x="42" y="9" onmousedown="handleZoom(evt,'out')"/>
                <use id="reset" xlink:href="#resetDef" x="30" y="36" onmousedown="handleReset()"/>
                <g id="arrowUp" xlink:href="#dirArrow" transform="translate(30 24)" onmousedown="handlePan(0,-1)">
                  <use xlink:href="#rim" fill="#404040">
                        <set attributeName="fill" to="#808080" begin="arrowUp.mouseover" end="arrowUp.mouseout"/>
                  </use>
                  <path fill="none" stroke="white" stroke-width="1.5" d="M0,-3.0v7 M-2.5,-0.5L0,-3.0L2.5,-0.5"/>
                </g>
                <g id="arrowRight" xlink:href="#dirArrow" transform="rotate(90) translate(36 -43)" onmousedown="handlePan(1,0)">
                  <use xlink:href="#rim" fill="#404040">
                        <set attributeName="fill" to="#808080" begin="arrowRight.mouseover" end="arrowRight.mouseout"/>
                  </use>
                  <path fill="none" stroke="white" stroke-width="1.5" d="M0,-3.0v7 M-2.5,-0.5L0,-3.0L2.5,-0.5"/>
                </g>
                <g id="arrowDown" xlink:href="#dirArrow" transform="rotate(180) translate(-30 -48)" onmousedown="handlePan(0,1)">
                  <use xlink:href="#rim" fill="#404040">
                        <set attributeName="fill" to="#808080" begin="arrowDown.mouseover" end="arrowDown.mouseout"/>
                  </use>
                  <path fill="none" stroke="white" stroke-width="1.5" d="M0,-3.0v7 M-2.5,-0.5L0,-3.0L2.5,-0.5"/>
                </g>
                <g id="arrowLeft" xlink:href="#dirArrow" transform="rotate(270) translate(-36 17)" onmousedown="handlePan(-1,0)">
                  <use xlink:href="#rim" fill="#404040">
                        <set attributeName="fill" to="#808080" begin="arrowLeft.mouseover" end="arrowLeft.mouseout"/>
                  </use>
                  <path fill="none" stroke="white" stroke-width="1.5" d="M0,-3.0v7 M-2.5,-0.5L0,-3.0L2.5,-0.5"/>
                </g>
        </g>
        <svg viewBox="0 0 15 15" width="100%" height="30px" preserveAspectRatio="xMaxYMin meet">
         <g id="arrow_out" transform="scale(0.3 0.3)">
          <a xlink:href="classft_1_1irc_1_1bot__handler_a0723185e483ae21fa0f2116ca05165fe_cgraph_org.svg" target="_base">
           <rect id="button" ry="5" rx="5" y="6" x="6" height="38" width="38"
                fill="#f2f5e9" fill-opacity="0.5" stroke="#606060" stroke-width="1.0"/>
           <path id="arrow"
             d="M 11.500037,31.436501 C 11.940474,20.09759 22.043105,11.32322 32.158766,21.979434 L 37.068811,17.246167 C 37.068811,17.246167 37.088388,32 37.088388,32 L 22.160133,31.978069 C 22.160133,31.978069 26.997745,27.140456 26.997745,27.140456 C 18.528582,18.264221 13.291696,25.230495 11.500037,31.436501 z"
             style="fill:#404040;"/>
          </a>
         </g>
        </svg>
</svg>
