<?xml version="1.0" encoding="UTF-8" standalone="no"?>
<!DOCTYPE svg PUBLIC "-//W3C//DTD SVG 1.1//EN"
 "http://www.w3.org/Graphics/SVG/1.1/DTD/svg11.dtd">
<!-- Generated by graphviz version 2.43.0 (0)
 -->
<!-- Title: ft::irc::channel Pages: 1 -->
<!--zoomable 505 -->
<svg id="main" version="1.1" xmlns="http://www.w3.org/2000/svg" xmlns:xlink="http://www.w3.org/1999/xlink" xml:space="preserve" onload="init(evt)">
<style type="text/css"><![CDATA[
.edge:hover path { stroke: red; }
.edge:hover polygon { stroke: red; fill: red; }
]]></style>
<script type="text/javascript"><![CDATA[
var edges = document.getElementsByTagName('g');
if (edges && edges.length) {
  for (var i=0;i<edges.length;i++) {
    if (edges[i].id.substr(0,4)=='edge') {
      edges[i].setAttribute('class','edge');
    }
  }
}
]]></script>
        <defs>
                <circle id="rim" cx="0" cy="0" r="7"/>
                <circle id="rim2" cx="0" cy="0" r="3.5"/>
                <g id="zoomPlus">
                        <use xlink:href="#rim" fill="#404040">
                                <set attributeName="fill" to="#808080" begin="zoomplus.mouseover" end="zoomplus.mouseout"/>
                        </use>
                        <path d="M-4,0h8M0,-4v8" fill="none" stroke="white" stroke-width="1.5" pointer-events="none"/>
                </g>
                <g id="zoomMin">
                        <use xlink:href="#rim" fill="#404040">
                                <set attributeName="fill" to="#808080" begin="zoomminus.mouseover" end="zoomminus.mouseout"/>
                        </use>
                        <path d="M-4,0h8" fill="none" stroke="white" stroke-width="1.5" pointer-events="none"/>
                </g>
                <g id="dirArrow">
                        <path fill="none" stroke="white" stroke-width="1.5" d="M0,-3.0v7 M-2.5,-0.5L0,-3.0L2.5,-0.5"/>
                </g>
               <g id="resetDef">
                       <use xlink:href="#rim2" fill="#404040">
                               <set attributeName="fill" to="#808080" begin="reset.mouseover" end="reset.mouseout"/>
                       </use>
               </g>
        </defs>

<script type="text/javascript">
var viewWidth = 574;
var viewHeight = 505;
var sectionId = 'dynsection-1';
</script>
<script xlink:href="svgpan.js"/>
<svg id="graph" class="graph">
<g id="viewport">
<title>ft::irc::channel</title>
<polygon fill="white" stroke="transparent" points="-4,4 -4,-500.5 570,-500.5 570,4 -4,4"/>
<!-- Node1 -->
<g id="node1" class="node">
<title>Node1</title>
<g id="a_node1"><a xlink:title=" ">
<polygon fill="#bfbfbf" stroke="black" points="480,-303.5 480,-322.5 566,-322.5 566,-303.5 480,-303.5"/>
<text text-anchor="middle" x="523" y="-310.5" font-family="Helvetica,sans-Serif" font-size="10.00">ft::irc::channel</text>
</a>
</g>
</g>
<!-- Node2 -->
<g id="node2" class="node">
<title>Node2</title>
<g id="a_node2"><a xlink:title=" ">
<polygon fill="white" stroke="#bfbfbf" points="239,-466 239,-496 368,-496 368,-466 239,-466"/>
<text text-anchor="start" x="247" y="-484" font-family="Helvetica,sans-Serif" font-size="10.00">ft::enable_shared_from</text>
<text text-anchor="middle" x="303.5" y="-473" font-family="Helvetica,sans-Serif" font-size="10.00">_this&lt; channel &gt;</text>
</a>
</g>
</g>
<!-- Node2&#45;&gt;Node1 -->
<g id="edge1" class="edge">
<title>Node2&#45;&gt;Node1</title>
<path fill="none" stroke="midnightblue" d="M378.19,-480.76C406.95,-477.26 438.57,-468.8 462,-450 503.72,-416.53 517.15,-348.21 520.8,-322.81"/>
<polygon fill="midnightblue" stroke="midnightblue" points="377.74,-477.29 368.15,-481.8 378.46,-484.25 377.74,-477.29"/>
</g>
<!-- Node3 -->
<g id="node3" class="node">
<title>Node3</title>
<g id="a_node3"><a xlink:title=" ">
<polygon fill="white" stroke="#bfbfbf" points="24.5,-377.5 24.5,-396.5 113.5,-396.5 113.5,-377.5 24.5,-377.5"/>
<text text-anchor="middle" x="69" y="-384.5" font-family="Helvetica,sans-Serif" font-size="10.00">readwrite_lock</text>
</a>
</g>
</g>
<!-- Node3&#45;&gt;Node1 -->
<g id="edge2" class="edge">
<title>Node3&#45;&gt;Node1</title>
<path fill="none" stroke="#9a32cd" stroke-dasharray="5,2" d="M116.97,-398.76C179.28,-412.45 292.34,-430.59 386,-409 422.61,-400.56 431.32,-393.68 462,-372 482.76,-357.33 503.02,-335.35 513.87,-322.77"/>
<polygon fill="#9a32cd" stroke="#9a32cd" points="117.57,-395.31 107.04,-396.52 116.03,-402.14 117.57,-395.31"/>
<text text-anchor="middle" x="303.5" y="-421" font-family="Helvetica,sans-Serif" font-size="10.00"> lock</text>
</g>
<!-- Node9 -->
<g id="node9" class="node">
<title>Node9</title>
<g id="a_node9"><a xlink:href="classft_1_1irc_1_1server.html" target="_top" xlink:title=" ">
<polygon fill="white" stroke="black" points="264.5,-136.5 264.5,-155.5 342.5,-155.5 342.5,-136.5 264.5,-136.5"/>
<text text-anchor="middle" x="303.5" y="-143.5" font-family="Helvetica,sans-Serif" font-size="10.00">ft::irc::server</text>
</a>
</g>
</g>
<!-- Node3&#45;&gt;Node9 -->
<g id="edge10" class="edge">
<title>Node3&#45;&gt;Node9</title>
<path fill="none" stroke="#9a32cd" stroke-dasharray="5,2" d="M86.8,-370.06C114.51,-341.28 170.01,-280.02 203,-219 215.03,-196.75 202.3,-182.04 221,-165 232.7,-154.33 249.22,-149.31 264.32,-147.05"/>
<polygon fill="#9a32cd" stroke="#9a32cd" points="84.23,-367.68 79.77,-377.28 89.25,-372.56 84.23,-367.68"/>
<text text-anchor="middle" x="179.5" y="-290" font-family="Helvetica,sans-Serif" font-size="10.00"> lock</text>
</g>
<!-- Node4 -->
<g id="node4" class="node">
<title>Node4</title>
<g id="a_node4"><a xlink:href="structft_1_1serv_1_1dynamic__array.html" target="_top" xlink:title=" ">
<polygon fill="white" stroke="black" points="239.5,-369 239.5,-399 367.5,-399 367.5,-369 239.5,-369"/>
<text text-anchor="start" x="247.5" y="-387" font-family="Helvetica,sans-Serif" font-size="10.00">ft::serv::dynamic_array</text>
<text text-anchor="middle" x="303.5" y="-376" font-family="Helvetica,sans-Serif" font-size="10.00">&lt; member &gt;</text>
</a>
</g>
</g>
<!-- Node4&#45;&gt;Node1 -->
<g id="edge3" class="edge">
<title>Node4&#45;&gt;Node1</title>
<path fill="none" stroke="#9a32cd" stroke-dasharray="5,2" d="M374.13,-366.21C401.75,-358.61 433.62,-349.15 462,-339 475.47,-334.18 490.21,-327.81 501.72,-322.58"/>
<polygon fill="#9a32cd" stroke="#9a32cd" points="372.9,-362.92 364.17,-368.93 374.73,-369.68 372.9,-362.92"/>
<text text-anchor="middle" x="433" y="-360" font-family="Helvetica,sans-Serif" font-size="10.00"> members</text>
</g>
<!-- Node5 -->
<g id="node5" class="node">
<title>Node5</title>
<g id="a_node5"><a xlink:title=" ">
<polygon fill="white" stroke="#bfbfbf" points="221,-320 221,-350 386,-350 386,-320 221,-320"/>
<text text-anchor="start" x="229" y="-338" font-family="Helvetica,sans-Serif" font-size="10.00">bitset&lt; NUMBEROF_CHANNEL</text>
<text text-anchor="middle" x="303.5" y="-327" font-family="Helvetica,sans-Serif" font-size="10.00">_MODE &gt;</text>
</a>
</g>
</g>
<!-- Node5&#45;&gt;Node1 -->
<g id="edge4" class="edge">
<title>Node5&#45;&gt;Node1</title>
<path fill="none" stroke="#9a32cd" stroke-dasharray="5,2" d="M396.31,-325.71C425.4,-322.77 456.14,-319.66 479.94,-317.25"/>
<polygon fill="#9a32cd" stroke="#9a32cd" points="395.7,-322.26 386.11,-326.75 396.41,-329.22 395.7,-322.26"/>
<text text-anchor="middle" x="433" y="-327" font-family="Helvetica,sans-Serif" font-size="10.00"> mode</text>
</g>
<!-- Node6 -->
<g id="node6" class="node">
<title>Node6</title>
<g id="a_node6"><a xlink:title=" ">
<polygon fill="white" stroke="#bfbfbf" points="284.5,-281.5 284.5,-300.5 322.5,-300.5 322.5,-281.5 284.5,-281.5"/>
<text text-anchor="middle" x="303.5" y="-288.5" font-family="Helvetica,sans-Serif" font-size="10.00">bool</text>
</a>
</g>
</g>
<!-- Node6&#45;&gt;Node1 -->
<g id="edge5" class="edge">
<title>Node6&#45;&gt;Node1</title>
<path fill="none" stroke="#9a32cd" stroke-dasharray="5,2" d="M333.24,-292.8C364.86,-294.91 417.14,-298.79 462,-304 467.75,-304.67 473.81,-305.46 479.76,-306.3"/>
<polygon fill="#9a32cd" stroke="#9a32cd" points="333.17,-289.28 322.97,-292.12 332.72,-296.27 333.17,-289.28"/>
<text text-anchor="middle" x="433" y="-307" font-family="Helvetica,sans-Serif" font-size="10.00"> invalidated</text>
</g>
<!-- Node7 -->
<g id="node7" class="node">
<title>Node7</title>
<g id="a_node7"><a xlink:title=" ">
<polygon fill="white" stroke="#bfbfbf" points="47,-220.5 47,-239.5 91,-239.5 91,-220.5 47,-220.5"/>
<text text-anchor="middle" x="69" y="-227.5" font-family="Helvetica,sans-Serif" font-size="10.00">string</text>
</a>
</g>
</g>
<!-- Node7&#45;&gt;Node1 -->
<g id="edge6" class="edge">
<title>Node7&#45;&gt;Node1</title>
<path fill="none" stroke="#9a32cd" stroke-dasharray="5,2" d="M101.46,-226.14C159.08,-220.1 284.94,-211.75 386,-239 435.31,-252.3 486.34,-286.62 509.38,-303.43"/>
<polygon fill="#9a32cd" stroke="#9a32cd" points="100.75,-222.7 91.19,-227.27 101.52,-229.65 100.75,-222.7"/>
<text text-anchor="middle" x="303.5" y="-264" font-family="Helvetica,sans-Serif" font-size="10.00"> key</text>
<text text-anchor="middle" x="303.5" y="-253" font-family="Helvetica,sans-Serif" font-size="10.00">name</text>
<text text-anchor="middle" x="303.5" y="-242" font-family="Helvetica,sans-Serif" font-size="10.00">topic</text>
</g>
<!-- Node7&#45;&gt;Node9 -->
<g id="edge14" class="edge">
<title>Node7&#45;&gt;Node9</title>
<path fill="none" stroke="#9a32cd" stroke-dasharray="5,2" d="M100.92,-222.48C112.66,-219.33 126.08,-215.39 138,-211 167.86,-200.02 176.38,-198.42 203,-181 211.96,-175.14 211.5,-169.92 221,-165 234.29,-158.12 250.08,-153.7 264.2,-150.87"/>
<polygon fill="#9a32cd" stroke="#9a32cd" points="99.91,-219.13 91.11,-225.03 101.67,-225.9 99.91,-219.13"/>
<text text-anchor="middle" x="179.5" y="-207" font-family="Helvetica,sans-Serif" font-size="10.00"> pass</text>
</g>
<!-- Node8 -->
<g id="node8" class="node">
<title>Node8</title>
<g id="a_node8"><a xlink:title=" ">
<polygon fill="white" stroke="#bfbfbf" points="281,-174.5 281,-193.5 326,-193.5 326,-174.5 281,-174.5"/>
<text text-anchor="middle" x="303.5" y="-181.5" font-family="Helvetica,sans-Serif" font-size="10.00">size_t</text>
</a>
</g>
</g>
<!-- Node8&#45;&gt;Node1 -->
<g id="edge7" class="edge">
<title>Node8&#45;&gt;Node1</title>
<path fill="none" stroke="#9a32cd" stroke-dasharray="5,2" d="M336.56,-180.31C370.64,-178.08 424.66,-179.56 462,-205 497.45,-229.16 514.13,-281.49 519.73,-303.22"/>
<polygon fill="#9a32cd" stroke="#9a32cd" points="335.93,-176.85 326.24,-181.14 336.49,-183.82 335.93,-176.85"/>
<text text-anchor="middle" x="433" y="-208" font-family="Helvetica,sans-Serif" font-size="10.00"> limit</text>
</g>
<!-- Node9&#45;&gt;Node1 -->
<g id="edge8" class="edge">
<title>Node9&#45;&gt;Node1</title>
<path fill="none" stroke="#9a32cd" stroke-dasharray="5,2" d="M352.71,-140.9C386.61,-139.93 431.23,-144.19 462,-168 506.81,-202.68 518.41,-276.73 521.19,-303.28"/>
<polygon fill="#9a32cd" stroke="#9a32cd" points="352.4,-137.42 342.56,-141.36 352.71,-144.41 352.4,-137.42"/>
<text text-anchor="middle" x="433" y="-171" font-family="Helvetica,sans-Serif" font-size="10.00"> server</text>
</g>
<!-- Node10 -->
<g id="node10" class="node">
<title>Node10</title>
<g id="a_node10"><a xlink:title=" ">
<polygon fill="white" stroke="#bfbfbf" points="4.5,-171 4.5,-201 133.5,-201 133.5,-171 4.5,-171"/>
<text text-anchor="start" x="12.5" y="-189" font-family="Helvetica,sans-Serif" font-size="10.00">ft::enable_shared_from</text>
<text text-anchor="middle" x="69" y="-178" font-family="Helvetica,sans-Serif" font-size="10.00">_this&lt; server &gt;</text>
</a>
</g>
</g>
<!-- Node10&#45;&gt;Node9 -->
<g id="edge9" class="edge">
<title>Node10&#45;&gt;Node9</title>
<path fill="none" stroke="midnightblue" d="M143.56,-173.34C183.74,-166.43 231.82,-158.16 264.5,-152.54"/>
<polygon fill="midnightblue" stroke="midnightblue" points="142.79,-169.92 133.53,-175.07 143.98,-176.82 142.79,-169.92"/>
</g>
<!-- Node11 -->
<g id="node11" class="node">
<title>Node11</title>
<g id="a_node11"><a xlink:href="structft_1_1serv_1_1dynamic__array.html" target="_top" xlink:title=" ">
<polygon fill="white" stroke="black" points="5,-110.5 5,-151.5 133,-151.5 133,-110.5 5,-110.5"/>
<text text-anchor="start" x="13" y="-139.5" font-family="Helvetica,sans-Serif" font-size="10.00">ft::serv::dynamic_array</text>
<text text-anchor="start" x="13" y="-128.5" font-family="Helvetica,sans-Serif" font-size="10.00">&lt; ft::shared_ptr&lt; ft::</text>
<text text-anchor="middle" x="69" y="-117.5" font-family="Helvetica,sans-Serif" font-size="10.00">irc::user &gt; &gt;</text>
</a>
</g>
</g>
<!-- Node11&#45;&gt;Node9 -->
<g id="edge11" class="edge">
<title>Node11&#45;&gt;Node9</title>
<path fill="none" stroke="#9a32cd" stroke-dasharray="5,2" d="M143.26,-135.73C183.46,-138.32 231.64,-141.43 264.4,-143.54"/>
<polygon fill="#9a32cd" stroke="#9a32cd" points="143.43,-132.23 133.22,-135.08 142.98,-139.22 143.43,-132.23"/>
<text text-anchor="middle" x="179.5" y="-143" font-family="Helvetica,sans-Serif" font-size="10.00"> users</text>
</g>
<!-- Node12 -->
<g id="node12" class="node">
<title>Node12</title>
<g id="a_node12"><a xlink:href="structft_1_1serv_1_1unique__set.html" target="_top" xlink:title=" ">
<polygon fill="white" stroke="black" points="14.5,-61 14.5,-91 123.5,-91 123.5,-61 14.5,-61"/>
<text text-anchor="start" x="22.5" y="-79" font-family="Helvetica,sans-Serif" font-size="10.00">ft::serv::unique_set</text>
<text text-anchor="middle" x="69" y="-68" font-family="Helvetica,sans-Serif" font-size="10.00">&lt; std::string &gt;</text>
</a>
</g>
</g>
<!-- Node12&#45;&gt;Node9 -->
<g id="edge12" class="edge">
<title>Node12&#45;&gt;Node9</title>
<path fill="none" stroke="#9a32cd" stroke-dasharray="5,2" d="M129.54,-93.93C174.59,-107.49 234.71,-125.59 270.9,-136.49"/>
<polygon fill="#9a32cd" stroke="#9a32cd" points="130.46,-90.55 119.88,-91.02 128.44,-97.25 130.46,-90.55"/>
<text text-anchor="middle" x="179.5" y="-119" font-family="Helvetica,sans-Serif" font-size="10.00"> nicks</text>
</g>
<!-- Node13 -->
<g id="node13" class="node">
<title>Node13</title>
<g id="a_node13"><a xlink:href="structft_1_1serv_1_1fast__dictionary.html" target="_top" xlink:title=" ">
<polygon fill="white" stroke="black" points="0,-0.5 0,-41.5 138,-41.5 138,-0.5 0,-0.5"/>
<text text-anchor="start" x="8" y="-29.5" font-family="Helvetica,sans-Serif" font-size="10.00">ft::serv::fast_dictionary</text>
<text text-anchor="start" x="8" y="-18.5" font-family="Helvetica,sans-Serif" font-size="10.00">&lt; std::string, ft::shared</text>
<text text-anchor="middle" x="69" y="-7.5" font-family="Helvetica,sans-Serif" font-size="10.00">_ptr&lt; ft::irc::channel &gt; &gt;</text>
</a>
</g>
</g>
<!-- Node13&#45;&gt;Node9 -->
<g id="edge13" class="edge">
<title>Node13&#45;&gt;Node9</title>
<path fill="none" stroke="#9a32cd" stroke-dasharray="5,2" d="M127.31,-45.78C130.94,-47.5 134.53,-49.25 138,-51 194.55,-79.48 258.81,-118.68 287.4,-136.5"/>
<polygon fill="#9a32cd" stroke="#9a32cd" points="128.75,-42.59 118.21,-41.54 125.8,-48.93 128.75,-42.59"/>
<text text-anchor="middle" x="179.5" y="-89" font-family="Helvetica,sans-Serif" font-size="10.00"> channels</text>
</g>
</g>
</svg>
        <g id="navigator" transform="translate(0 0)" fill="#404254">
                <rect fill="#f2f5e9" fill-opacity="0.5" stroke="#606060" stroke-width=".5" x="0" y="0" width="60" height="60"/>
                <use id="zoomplus" xlink:href="#zoomPlus" x="17" y="9" onmousedown="handleZoom(evt,'in')"/>
                <use id="zoomminus" xlink:href="#zoomMin" x="42" y="9" onmousedown="handleZoom(evt,'out')"/>
                <use id="reset" xlink:href="#resetDef" x="30" y="36" onmousedown="handleReset()"/>
                <g id="arrowUp" xlink:href="#dirArrow" transform="translate(30 24)" onmousedown="handlePan(0,-1)">
                  <use xlink:href="#rim" fill="#404040">
                        <set attributeName="fill" to="#808080" begin="arrowUp.mouseover" end="arrowUp.mouseout"/>
                  </use>
                  <path fill="none" stroke="white" stroke-width="1.5" d="M0,-3.0v7 M-2.5,-0.5L0,-3.0L2.5,-0.5"/>
                </g>
                <g id="arrowRight" xlink:href="#dirArrow" transform="rotate(90) translate(36 -43)" onmousedown="handlePan(1,0)">
                  <use xlink:href="#rim" fill="#404040">
                        <set attributeName="fill" to="#808080" begin="arrowRight.mouseover" end="arrowRight.mouseout"/>
                  </use>
                  <path fill="none" stroke="white" stroke-width="1.5" d="M0,-3.0v7 M-2.5,-0.5L0,-3.0L2.5,-0.5"/>
                </g>
                <g id="arrowDown" xlink:href="#dirArrow" transform="rotate(180) translate(-30 -48)" onmousedown="handlePan(0,1)">
                  <use xlink:href="#rim" fill="#404040">
                        <set attributeName="fill" to="#808080" begin="arrowDown.mouseover" end="arrowDown.mouseout"/>
                  </use>
                  <path fill="none" stroke="white" stroke-width="1.5" d="M0,-3.0v7 M-2.5,-0.5L0,-3.0L2.5,-0.5"/>
                </g>
                <g id="arrowLeft" xlink:href="#dirArrow" transform="rotate(270) translate(-36 17)" onmousedown="handlePan(-1,0)">
                  <use xlink:href="#rim" fill="#404040">
                        <set attributeName="fill" to="#808080" begin="arrowLeft.mouseover" end="arrowLeft.mouseout"/>
                  </use>
                  <path fill="none" stroke="white" stroke-width="1.5" d="M0,-3.0v7 M-2.5,-0.5L0,-3.0L2.5,-0.5"/>
                </g>
        </g>
        <svg viewBox="0 0 15 15" width="100%" height="30px" preserveAspectRatio="xMaxYMin meet">
         <g id="arrow_out" transform="scale(0.3 0.3)">
          <a xlink:href="classft_1_1irc_1_1channel__coll__graph_org.svg" target="_base">
           <rect id="button" ry="5" rx="5" y="6" x="6" height="38" width="38"
                fill="#f2f5e9" fill-opacity="0.5" stroke="#606060" stroke-width="1.0"/>
           <path id="arrow"
             d="M 11.500037,31.436501 C 11.940474,20.09759 22.043105,11.32322 32.158766,21.979434 L 37.068811,17.246167 C 37.068811,17.246167 37.088388,32 37.088388,32 L 22.160133,31.978069 C 22.160133,31.978069 26.997745,27.140456 26.997745,27.140456 C 18.528582,18.264221 13.291696,25.230495 11.500037,31.436501 z"
             style="fill:#404040;"/>
          </a>
         </g>
        </svg>
</svg>
