<?xml version="1.0" encoding="UTF-8" standalone="no"?>
<!DOCTYPE svg PUBLIC "-//W3C//DTD SVG 1.1//EN"
 "http://www.w3.org/Graphics/SVG/1.1/DTD/svg11.dtd">
<!-- Generated by graphviz version 2.43.0 (0)
 -->
<!-- Title: ft::irc::client_handler::on_read Pages: 1 -->
<!--zoomable 880 -->
<svg id="main" version="1.1" xmlns="http://www.w3.org/2000/svg" xmlns:xlink="http://www.w3.org/1999/xlink" xml:space="preserve" onload="init(evt)">
<style type="text/css"><![CDATA[
.edge:hover path { stroke: red; }
.edge:hover polygon { stroke: red; fill: red; }
]]></style>
<script type="text/javascript"><![CDATA[
var edges = document.getElementsByTagName('g');
if (edges && edges.length) {
  for (var i=0;i<edges.length;i++) {
    if (edges[i].id.substr(0,4)=='edge') {
      edges[i].setAttribute('class','edge');
    }
  }
}
]]></script>
        <defs>
                <circle id="rim" cx="0" cy="0" r="7"/>
                <circle id="rim2" cx="0" cy="0" r="3.5"/>
                <g id="zoomPlus">
                        <use xlink:href="#rim" fill="#404040">
                                <set attributeName="fill" to="#808080" begin="zoomplus.mouseover" end="zoomplus.mouseout"/>
                        </use>
                        <path d="M-4,0h8M0,-4v8" fill="none" stroke="white" stroke-width="1.5" pointer-events="none"/>
                </g>
                <g id="zoomMin">
                        <use xlink:href="#rim" fill="#404040">
                                <set attributeName="fill" to="#808080" begin="zoomminus.mouseover" end="zoomminus.mouseout"/>
                        </use>
                        <path d="M-4,0h8" fill="none" stroke="white" stroke-width="1.5" pointer-events="none"/>
                </g>
                <g id="dirArrow">
                        <path fill="none" stroke="white" stroke-width="1.5" d="M0,-3.0v7 M-2.5,-0.5L0,-3.0L2.5,-0.5"/>
                </g>
               <g id="resetDef">
                       <use xlink:href="#rim2" fill="#404040">
                               <set attributeName="fill" to="#808080" begin="reset.mouseover" end="reset.mouseout"/>
                       </use>
               </g>
        </defs>

<script type="text/javascript">
var viewWidth = 603;
var viewHeight = 880;
var sectionId = 'dynsection-5';
</script>
<script xlink:href="svgpan.js"/>
<svg id="graph" class="graph">
<g id="viewport">
<title>ft::irc::client_handler::on_read</title>
<polygon fill="white" stroke="transparent" points="-4,4 -4,-876 599,-876 599,4 -4,4"/>
<!-- Node1 -->
<g id="node1" class="node">
<title>Node1</title>
<g id="a_node1"><a xlink:title=" ">
<polygon fill="#bfbfbf" stroke="black" points="0,-406.5 0,-436.5 116,-436.5 116,-406.5 0,-406.5"/>
<text text-anchor="start" x="8" y="-424.5" font-family="Helvetica,sans-Serif" font-size="10.00">ft::irc::client_handler</text>
<text text-anchor="middle" x="58" y="-413.5" font-family="Helvetica,sans-Serif" font-size="10.00">::on_read</text>
</a>
</g>
</g>
<!-- Node2 -->
<g id="node2" class="node">
<title>Node2</title>
<g id="a_node2"><a xlink:href="structft_1_1serv_1_1logger.html#a83649a4f3bb804c8fed6dfd130de5ee6" target="_top" xlink:title=" ">
<polygon fill="white" stroke="black" points="152,-798 152,-817 274,-817 274,-798 152,-798"/>
<text text-anchor="middle" x="213" y="-805" font-family="Helvetica,sans-Serif" font-size="10.00">ft::serv::logger::debug</text>
</a>
</g>
</g>
<!-- Node1&#45;&gt;Node2 -->
<g id="edge1" class="edge">
<title>Node1&#45;&gt;Node2</title>
<path fill="none" stroke="midnightblue" d="M65,-436.63C88.96,-497.1 177.84,-721.33 204.44,-788.42"/>
<polygon fill="midnightblue" stroke="midnightblue" points="201.21,-789.78 208.15,-797.79 207.72,-787.2 201.21,-789.78"/>
</g>
<!-- Node5 -->
<g id="node5" class="node">
<title>Node5</title>
<g id="a_node5"><a xlink:href="classft_1_1irc_1_1processor__dictionary.html#a50bd8e9f89f6f6a911f5495272cd7d41" target="_top" xlink:title=" ">
<polygon fill="white" stroke="black" points="156,-406.5 156,-436.5 270,-436.5 270,-406.5 156,-406.5"/>
<text text-anchor="start" x="164" y="-424.5" font-family="Helvetica,sans-Serif" font-size="10.00">ft::irc::processor</text>
<text text-anchor="middle" x="213" y="-413.5" font-family="Helvetica,sans-Serif" font-size="10.00">_dictionary::execute</text>
</a>
</g>
</g>
<!-- Node1&#45;&gt;Node5 -->
<g id="edge4" class="edge">
<title>Node1&#45;&gt;Node5</title>
<path fill="none" stroke="midnightblue" d="M116.41,-421.5C125.97,-421.5 135.96,-421.5 145.73,-421.5"/>
<polygon fill="midnightblue" stroke="midnightblue" points="145.8,-425 155.8,-421.5 145.8,-418 145.8,-425"/>
</g>
<!-- Node24 -->
<g id="node24" class="node">
<title>Node24</title>
<g id="a_node24"><a xlink:href="classft_1_1irc_1_1message.html#a076fdbb740cb752dd153e207f076183a" target="_top" xlink:title=" ">
<polygon fill="white" stroke="black" points="159.5,-357.5 159.5,-387.5 266.5,-387.5 266.5,-357.5 159.5,-357.5"/>
<text text-anchor="start" x="167.5" y="-375.5" font-family="Helvetica,sans-Serif" font-size="10.00">ft::irc::message::to</text>
<text text-anchor="middle" x="213" y="-364.5" font-family="Helvetica,sans-Serif" font-size="10.00">_pretty_string</text>
</a>
</g>
</g>
<!-- Node1&#45;&gt;Node24 -->
<g id="edge23" class="edge">
<title>Node1&#45;&gt;Node24</title>
<path fill="none" stroke="midnightblue" d="M106.15,-406.4C121.64,-401.44 139.02,-395.87 155.15,-390.71"/>
<polygon fill="midnightblue" stroke="midnightblue" points="156.55,-393.93 165,-387.55 154.41,-387.27 156.55,-393.93"/>
</g>
<!-- Node3 -->
<g id="node3" class="node">
<title>Node3</title>
<g id="a_node3"><a xlink:href="namespaceft_1_1serv_1_1__internal.html#a909a2a84f5b086a5535cf537c8aca885" target="_top" xlink:title=" ">
<polygon fill="white" stroke="black" points="326.5,-841.5 326.5,-871.5 447.5,-871.5 447.5,-841.5 326.5,-841.5"/>
<text text-anchor="start" x="334.5" y="-859.5" font-family="Helvetica,sans-Serif" font-size="10.00">ft::serv::_internal</text>
<text text-anchor="middle" x="387" y="-848.5" font-family="Helvetica,sans-Serif" font-size="10.00">::make_format_string</text>
</a>
</g>
</g>
<!-- Node2&#45;&gt;Node3 -->
<g id="edge2" class="edge">
<title>Node2&#45;&gt;Node3</title>
<path fill="none" stroke="midnightblue" d="M247.57,-817.06C269.16,-823.21 297.87,-831.39 323.55,-838.71"/>
<polygon fill="midnightblue" stroke="midnightblue" points="322.64,-842.09 333.22,-841.46 324.56,-835.36 322.64,-842.09"/>
</g>
<!-- Node4 -->
<g id="node4" class="node">
<title>Node4</title>
<g id="a_node4"><a xlink:href="namespaceft_1_1serv_1_1__internal.html#aad4af39d62c2b1687b0bef7a91bf6c60" target="_top" xlink:title=" ">
<polygon fill="white" stroke="black" points="335.5,-792.5 335.5,-822.5 438.5,-822.5 438.5,-792.5 335.5,-792.5"/>
<text text-anchor="start" x="343.5" y="-810.5" font-family="Helvetica,sans-Serif" font-size="10.00">ft::serv::_internal</text>
<text text-anchor="middle" x="387" y="-799.5" font-family="Helvetica,sans-Serif" font-size="10.00">::make_utc_string</text>
</a>
</g>
</g>
<!-- Node2&#45;&gt;Node4 -->
<g id="edge3" class="edge">
<title>Node2&#45;&gt;Node4</title>
<path fill="none" stroke="midnightblue" d="M274.16,-807.5C290.68,-807.5 308.61,-807.5 325.18,-807.5"/>
<polygon fill="midnightblue" stroke="midnightblue" points="325.29,-811 335.29,-807.5 325.29,-804 325.29,-811"/>
</g>
<!-- Node6 -->
<g id="node6" class="node">
<title>Node6</title>
<g id="a_node6"><a xlink:href="classft_1_1irc_1_1processor__dictionary.html#a4a332e955e92eb2af421b69d2cf8ecf9" target="_top" xlink:title=" ">
<polygon fill="white" stroke="black" points="339.5,-743.5 339.5,-773.5 434.5,-773.5 434.5,-743.5 339.5,-743.5"/>
<text text-anchor="start" x="347.5" y="-761.5" font-family="Helvetica,sans-Serif" font-size="10.00">ft::irc::processor</text>
<text text-anchor="middle" x="387" y="-750.5" font-family="Helvetica,sans-Serif" font-size="10.00">_dictionary::get</text>
</a>
</g>
</g>
<!-- Node5&#45;&gt;Node6 -->
<g id="edge5" class="edge">
<title>Node5&#45;&gt;Node6</title>
<path fill="none" stroke="midnightblue" d="M213.98,-436.68C214.77,-486.69 224.15,-647.93 310,-734.5 315.62,-740.16 322.56,-744.49 329.95,-747.8"/>
<polygon fill="midnightblue" stroke="midnightblue" points="328.88,-751.15 339.47,-751.47 331.4,-744.61 328.88,-751.15"/>
</g>
<!-- Node8 -->
<g id="node8" class="node">
<title>Node8</title>
<g id="a_node8"><a xlink:href="classft_1_1irc_1_1message.html#ad323e99c45f6feec038a7de683f812a2" target="_top" xlink:title=" ">
<polygon fill="white" stroke="black" points="330.5,-694.5 330.5,-724.5 443.5,-724.5 443.5,-694.5 330.5,-694.5"/>
<text text-anchor="start" x="338.5" y="-712.5" font-family="Helvetica,sans-Serif" font-size="10.00">ft::irc::message::get</text>
<text text-anchor="middle" x="387" y="-701.5" font-family="Helvetica,sans-Serif" font-size="10.00">_command</text>
</a>
</g>
</g>
<!-- Node5&#45;&gt;Node8 -->
<g id="edge7" class="edge">
<title>Node5&#45;&gt;Node8</title>
<path fill="none" stroke="midnightblue" d="M215.05,-436.73C218.96,-481.38 236.5,-613.33 310,-684.5 313.35,-687.74 317.12,-690.56 321.15,-693.01"/>
<polygon fill="midnightblue" stroke="midnightblue" points="319.84,-696.28 330.32,-697.83 323.09,-690.08 319.84,-696.28"/>
</g>
<!-- Node9 -->
<g id="node9" class="node">
<title>Node9</title>
<g id="a_node9"><a xlink:href="classft_1_1irc_1_1user.html#a6abd166e9093025e349bd851099f8f9e" target="_top" xlink:title=" ">
<polygon fill="white" stroke="black" points="325.5,-656 325.5,-675 448.5,-675 448.5,-656 325.5,-656"/>
<text text-anchor="middle" x="387" y="-663" font-family="Helvetica,sans-Serif" font-size="10.00">ft::irc::user::get_mode</text>
</a>
</g>
</g>
<!-- Node5&#45;&gt;Node9 -->
<g id="edge8" class="edge">
<title>Node5&#45;&gt;Node9</title>
<path fill="none" stroke="midnightblue" d="M215.81,-436.51C221.53,-477.01 242.95,-589.31 310,-646.5 311.99,-648.2 314.11,-649.75 316.34,-651.17"/>
<polygon fill="midnightblue" stroke="midnightblue" points="314.86,-654.35 325.33,-655.98 318.17,-648.18 314.86,-654.35"/>
</g>
<!-- Node10 -->
<g id="node10" class="node">
<title>Node10</title>
<g id="a_node10"><a xlink:href="classft_1_1irc_1_1user.html#ae476cc31795df7fbb726b193ab887e75" target="_top" xlink:title=" ">
<polygon fill="white" stroke="black" points="342,-606.5 342,-636.5 432,-636.5 432,-606.5 342,-606.5"/>
<text text-anchor="start" x="350" y="-624.5" font-family="Helvetica,sans-Serif" font-size="10.00">ft::irc::user::get</text>
<text text-anchor="middle" x="387" y="-613.5" font-family="Helvetica,sans-Serif" font-size="10.00">_server</text>
</a>
</g>
</g>
<!-- Node5&#45;&gt;Node10 -->
<g id="edge9" class="edge">
<title>Node5&#45;&gt;Node10</title>
<path fill="none" stroke="midnightblue" d="M218.12,-436.6C228.09,-470.31 256.7,-552.2 310,-596.5 316.53,-601.92 324.27,-606.18 332.27,-609.52"/>
<polygon fill="midnightblue" stroke="midnightblue" points="331.13,-612.84 341.73,-613.04 333.57,-606.27 331.13,-612.84"/>
</g>
<!-- Node11 -->
<g id="node11" class="node">
<title>Node11</title>
<g id="a_node11"><a xlink:href="classft_1_1irc_1_1user.html#a7d133deb3a63faa2627b50cbbdf3a607" target="_top" xlink:title=" ">
<polygon fill="white" stroke="black" points="318.5,-568 318.5,-587 455.5,-587 455.5,-568 318.5,-568"/>
<text text-anchor="middle" x="387" y="-575" font-family="Helvetica,sans-Serif" font-size="10.00">ft::irc::user::is_registered</text>
</a>
</g>
</g>
<!-- Node5&#45;&gt;Node11 -->
<g id="edge10" class="edge">
<title>Node5&#45;&gt;Node11</title>
<path fill="none" stroke="midnightblue" d="M220.19,-436.54C232.7,-465 263.81,-526.74 310,-558.5 312.89,-560.49 315.97,-562.27 319.17,-563.86"/>
<polygon fill="midnightblue" stroke="midnightblue" points="317.88,-567.12 328.45,-567.87 320.66,-560.69 317.88,-567.12"/>
</g>
<!-- Node12 -->
<g id="node12" class="node">
<title>Node12</title>
<g id="a_node12"><a xlink:href="classft_1_1irc_1_1user.html#a7277f06aa83459f6f9b409858d602e3b" target="_top" xlink:title=" ">
<polygon fill="white" stroke="black" points="326.5,-530 326.5,-549 447.5,-549 447.5,-530 326.5,-530"/>
<text text-anchor="middle" x="387" y="-537" font-family="Helvetica,sans-Serif" font-size="10.00">ft::irc::user::load_nick</text>
</a>
</g>
</g>
<!-- Node5&#45;&gt;Node12 -->
<g id="edge11" class="edge">
<title>Node5&#45;&gt;Node12</title>
<path fill="none" stroke="midnightblue" d="M224.49,-436.81C240.37,-458.78 272.66,-498.98 310,-520.5 313.88,-522.74 318.03,-524.71 322.3,-526.46"/>
<polygon fill="midnightblue" stroke="midnightblue" points="321.21,-529.79 331.8,-529.92 323.6,-523.21 321.21,-529.79"/>
</g>
<!-- Node13 -->
<g id="node13" class="node">
<title>Node13</title>
<g id="a_node13"><a xlink:href="classft_1_1irc_1_1server.html#a5b8f9b83d37b40f6ee717fc93513e512" target="_top" xlink:title=" ">
<polygon fill="white" stroke="black" points="331.5,-480.5 331.5,-510.5 442.5,-510.5 442.5,-480.5 331.5,-480.5"/>
<text text-anchor="start" x="339.5" y="-498.5" font-family="Helvetica,sans-Serif" font-size="10.00">ft::irc::server::make</text>
<text text-anchor="middle" x="387" y="-487.5" font-family="Helvetica,sans-Serif" font-size="10.00">_full_name</text>
</a>
</g>
</g>
<!-- Node5&#45;&gt;Node13 -->
<g id="edge12" class="edge">
<title>Node5&#45;&gt;Node13</title>
<path fill="none" stroke="midnightblue" d="M239.89,-436.56C258.89,-447.21 285.52,-461.35 310,-471.5 314.67,-473.44 319.56,-475.31 324.51,-477.1"/>
<polygon fill="midnightblue" stroke="midnightblue" points="323.46,-480.44 334.05,-480.43 325.76,-473.83 323.46,-480.44"/>
</g>
<!-- Node14 -->
<g id="node14" class="node">
<title>Node14</title>
<g id="a_node14"><a xlink:href="classft_1_1irc_1_1user.html#a7406ed193e13a3c39ee16c9ac7a8b16e" target="_top" xlink:title=" ">
<polygon fill="white" stroke="black" points="336.5,-431.5 336.5,-461.5 437.5,-461.5 437.5,-431.5 336.5,-431.5"/>
<text text-anchor="start" x="344.5" y="-449.5" font-family="Helvetica,sans-Serif" font-size="10.00">ft::irc::user::make</text>
<text text-anchor="middle" x="387" y="-438.5" font-family="Helvetica,sans-Serif" font-size="10.00">_full_name</text>
</a>
</g>
</g>
<!-- Node5&#45;&gt;Node14 -->
<g id="edge13" class="edge">
<title>Node5&#45;&gt;Node14</title>
<path fill="none" stroke="midnightblue" d="M270.32,-429.69C288.17,-432.28 307.98,-435.16 326.07,-437.79"/>
<polygon fill="midnightblue" stroke="midnightblue" points="325.82,-441.29 336.22,-439.26 326.83,-434.36 325.82,-441.29"/>
</g>
<!-- Node15 -->
<g id="node15" class="node">
<title>Node15</title>
<g id="a_node15"><a xlink:href="structft_1_1irc_1_1make__error.html#a9ce67256e955eeced06d90b853fa01fa" target="_top" xlink:title=" ">
<polygon fill="white" stroke="black" points="317.5,-382.5 317.5,-412.5 456.5,-412.5 456.5,-382.5 317.5,-382.5"/>
<text text-anchor="start" x="325.5" y="-400.5" font-family="Helvetica,sans-Serif" font-size="10.00">ft::irc::make_error</text>
<text text-anchor="middle" x="387" y="-389.5" font-family="Helvetica,sans-Serif" font-size="10.00">::need_more_parameters</text>
</a>
</g>
</g>
<!-- Node5&#45;&gt;Node15 -->
<g id="edge14" class="edge">
<title>Node5&#45;&gt;Node15</title>
<path fill="none" stroke="midnightblue" d="M270.32,-413.64C282.15,-411.99 294.83,-410.22 307.3,-408.48"/>
<polygon fill="midnightblue" stroke="midnightblue" points="307.82,-411.94 317.24,-407.09 306.86,-405.01 307.82,-411.94"/>
</g>
<!-- Node16 -->
<g id="node16" class="node">
<title>Node16</title>
<g id="a_node16"><a xlink:href="structft_1_1irc_1_1make__error.html#a7d1376947e09efd6feb04512a2029ebb" target="_top" xlink:title=" ">
<polygon fill="white" stroke="black" points="335.5,-333.5 335.5,-363.5 438.5,-363.5 438.5,-333.5 335.5,-333.5"/>
<text text-anchor="start" x="343.5" y="-351.5" font-family="Helvetica,sans-Serif" font-size="10.00">ft::irc::make_error</text>
<text text-anchor="middle" x="387" y="-340.5" font-family="Helvetica,sans-Serif" font-size="10.00">::no_privileges</text>
</a>
</g>
</g>
<!-- Node5&#45;&gt;Node16 -->
<g id="edge15" class="edge">
<title>Node5&#45;&gt;Node16</title>
<path fill="none" stroke="midnightblue" d="M254.86,-406.48C261.37,-403.72 267.94,-400.69 274,-397.5 291.02,-388.55 292.71,-381.91 310,-373.5 315,-371.07 320.29,-368.79 325.66,-366.67"/>
<polygon fill="midnightblue" stroke="midnightblue" points="327.23,-369.82 335.36,-363.03 324.77,-363.26 327.23,-369.82"/>
</g>
<!-- Node17 -->
<g id="node17" class="node">
<title>Node17</title>
<g id="a_node17"><a xlink:href="structft_1_1irc_1_1make__error.html#a49645e4bd33462f78ef25521c290437f" target="_top" xlink:title=" ">
<polygon fill="white" stroke="black" points="335.5,-284.5 335.5,-314.5 438.5,-314.5 438.5,-284.5 335.5,-284.5"/>
<text text-anchor="start" x="343.5" y="-302.5" font-family="Helvetica,sans-Serif" font-size="10.00">ft::irc::make_error</text>
<text text-anchor="middle" x="387" y="-291.5" font-family="Helvetica,sans-Serif" font-size="10.00">::not_registered</text>
</a>
</g>
</g>
<!-- Node5&#45;&gt;Node17 -->
<g id="edge16" class="edge">
<title>Node5&#45;&gt;Node17</title>
<path fill="none" stroke="midnightblue" d="M261.54,-406.45C266.04,-403.89 270.29,-400.93 274,-397.5 300.55,-372.93 282.69,-348.22 310,-324.5 314.75,-320.38 320.19,-316.93 325.94,-314.05"/>
<polygon fill="midnightblue" stroke="midnightblue" points="327.44,-317.21 335.17,-309.97 324.61,-310.81 327.44,-317.21"/>
</g>
<!-- Node18 -->
<g id="node18" class="node">
<title>Node18</title>
<g id="a_node18"><a xlink:href="classft_1_1irc_1_1message.html#a34f457ead0453ad914af2cb0482a40b9" target="_top" xlink:title=" ">
<polygon fill="white" stroke="black" points="310,-246 310,-265 464,-265 464,-246 310,-246"/>
<text text-anchor="middle" x="387" y="-253" font-family="Helvetica,sans-Serif" font-size="10.00">ft::irc::message::param_size</text>
</a>
</g>
</g>
<!-- Node5&#45;&gt;Node18 -->
<g id="edge17" class="edge">
<title>Node5&#45;&gt;Node18</title>
<path fill="none" stroke="midnightblue" d="M263.32,-406.35C267.26,-403.83 270.9,-400.9 274,-397.5 312.06,-355.7 269.44,-314.88 310,-275.5 311.93,-273.63 314.01,-271.93 316.21,-270.38"/>
<polygon fill="midnightblue" stroke="midnightblue" points="318.31,-273.2 325.2,-265.15 314.79,-267.15 318.31,-273.2"/>
</g>
<!-- Node19 -->
<g id="node19" class="node">
<title>Node19</title>
<g id="a_node19"><a xlink:href="classft_1_1irc_1_1user.html#a1db558d6d694ca943224c2440fe36c50" target="_top" xlink:title=" ">
<polygon fill="white" stroke="black" points="338,-196.5 338,-226.5 436,-226.5 436,-196.5 338,-196.5"/>
<text text-anchor="start" x="346" y="-214.5" font-family="Helvetica,sans-Serif" font-size="10.00">ft::irc::user::send</text>
<text text-anchor="middle" x="387" y="-203.5" font-family="Helvetica,sans-Serif" font-size="10.00">_message</text>
</a>
</g>
</g>
<!-- Node5&#45;&gt;Node19 -->
<g id="edge18" class="edge">
<title>Node5&#45;&gt;Node19</title>
<path fill="none" stroke="midnightblue" d="M263.85,-406.37C267.63,-403.85 271.09,-400.92 274,-397.5 321.52,-341.66 260.75,-290.82 310,-236.5 315.07,-230.91 321.41,-226.57 328.25,-223.19"/>
<polygon fill="midnightblue" stroke="midnightblue" points="329.96,-226.27 337.82,-219.17 327.24,-219.82 329.96,-226.27"/>
</g>
<!-- Node20 -->
<g id="node20" class="node">
<title>Node20</title>
<g id="a_node20"><a xlink:href="structft_1_1irc_1_1make__reply__base.html#a0286978513d0078fa15b5a0b68b326a4" target="_top" xlink:title=" ">
<polygon fill="white" stroke="black" points="319.5,-147.5 319.5,-177.5 454.5,-177.5 454.5,-147.5 319.5,-147.5"/>
<text text-anchor="start" x="327.5" y="-165.5" font-family="Helvetica,sans-Serif" font-size="10.00">ft::irc::make_reply</text>
<text text-anchor="middle" x="387" y="-154.5" font-family="Helvetica,sans-Serif" font-size="10.00">_base::set_server_name</text>
</a>
</g>
</g>
<!-- Node5&#45;&gt;Node20 -->
<g id="edge19" class="edge">
<title>Node5&#45;&gt;Node20</title>
<path fill="none" stroke="midnightblue" d="M264.32,-406.33C267.94,-403.82 271.25,-400.9 274,-397.5 333.55,-323.87 248.18,-259.23 310,-187.5 311.15,-186.16 312.38,-184.89 313.67,-183.7"/>
<polygon fill="midnightblue" stroke="midnightblue" points="315.88,-186.41 321.67,-177.54 311.61,-180.86 315.88,-186.41"/>
</g>
<!-- Node21 -->
<g id="node21" class="node">
<title>Node21</title>
<g id="a_node21"><a xlink:href="structft_1_1irc_1_1make__reply__base.html#a488f2be061e722bd858d7285d1028eaf" target="_top" xlink:title=" ">
<polygon fill="white" stroke="black" points="324.5,-98.5 324.5,-128.5 449.5,-128.5 449.5,-98.5 324.5,-98.5"/>
<text text-anchor="start" x="332.5" y="-116.5" font-family="Helvetica,sans-Serif" font-size="10.00">ft::irc::make_reply</text>
<text text-anchor="middle" x="387" y="-105.5" font-family="Helvetica,sans-Serif" font-size="10.00">_base::set_user_name</text>
</a>
</g>
</g>
<!-- Node5&#45;&gt;Node21 -->
<g id="edge20" class="edge">
<title>Node5&#45;&gt;Node21</title>
<path fill="none" stroke="midnightblue" d="M264.43,-406.43C268.03,-403.9 271.3,-400.95 274,-397.5 345.64,-305.99 235.53,-227.72 310,-138.5 311.75,-136.4 313.68,-134.48 315.76,-132.71"/>
<polygon fill="midnightblue" stroke="midnightblue" points="318.2,-135.28 324.38,-126.67 314.18,-129.54 318.2,-135.28"/>
</g>
<!-- Node22 -->
<g id="node22" class="node">
<title>Node22</title>
<g id="a_node22"><a xlink:href="structft_1_1irc_1_1make__reply__base.html#a05d12bbf99ce4c8fde3cbb731135ff26" target="_top" xlink:title=" ">
<polygon fill="white" stroke="black" points="328,-49.5 328,-79.5 446,-79.5 446,-49.5 328,-49.5"/>
<text text-anchor="start" x="336" y="-67.5" font-family="Helvetica,sans-Serif" font-size="10.00">ft::irc::make_reply</text>
<text text-anchor="middle" x="387" y="-56.5" font-family="Helvetica,sans-Serif" font-size="10.00">_base::set_user_nick</text>
</a>
</g>
</g>
<!-- Node5&#45;&gt;Node22 -->
<g id="edge21" class="edge">
<title>Node5&#45;&gt;Node22</title>
<path fill="none" stroke="midnightblue" d="M264.51,-406.49C268.1,-403.95 271.34,-400.97 274,-397.5 357.77,-288.06 222.84,-196.26 310,-89.5 312.72,-86.17 315.89,-83.28 319.36,-80.77"/>
<polygon fill="midnightblue" stroke="midnightblue" points="321.2,-83.75 327.95,-75.59 317.58,-77.76 321.2,-83.75"/>
</g>
<!-- Node23 -->
<g id="node23" class="node">
<title>Node23</title>
<g id="a_node23"><a xlink:href="structft_1_1irc_1_1make__error.html#a67e1d93a440b1db3ddbf9bff22cd2d8b" target="_top" xlink:title=" ">
<polygon fill="white" stroke="black" points="326.5,-0.5 326.5,-30.5 447.5,-30.5 447.5,-0.5 326.5,-0.5"/>
<text text-anchor="start" x="334.5" y="-18.5" font-family="Helvetica,sans-Serif" font-size="10.00">ft::irc::make_error</text>
<text text-anchor="middle" x="387" y="-7.5" font-family="Helvetica,sans-Serif" font-size="10.00">::unknown_command</text>
</a>
</g>
</g>
<!-- Node5&#45;&gt;Node23 -->
<g id="edge22" class="edge">
<title>Node5&#45;&gt;Node23</title>
<path fill="none" stroke="midnightblue" d="M264.85,-406.34C268.31,-403.83 271.44,-400.91 274,-397.5 369.92,-270.1 210.13,-164.83 310,-40.5 312.29,-37.65 314.91,-35.13 317.77,-32.88"/>
<polygon fill="midnightblue" stroke="midnightblue" points="319.9,-35.67 326.38,-27.29 316.09,-29.8 319.9,-35.67"/>
</g>
<!-- Node7 -->
<g id="node7" class="node">
<title>Node7</title>
<g id="a_node7"><a xlink:href="classft_1_1irc_1_1processor__dictionary.html#ad4ae0363dd8c877b12114b358b0c2673" target="_top" xlink:title=" ">
<polygon fill="white" stroke="black" points="500,-743.5 500,-773.5 595,-773.5 595,-743.5 500,-743.5"/>
<text text-anchor="start" x="508" y="-761.5" font-family="Helvetica,sans-Serif" font-size="10.00">ft::irc::processor</text>
<text text-anchor="middle" x="547.5" y="-750.5" font-family="Helvetica,sans-Serif" font-size="10.00">_dictionary::init</text>
</a>
</g>
</g>
<!-- Node6&#45;&gt;Node7 -->
<g id="edge6" class="edge">
<title>Node6&#45;&gt;Node7</title>
<path fill="none" stroke="midnightblue" d="M434.7,-758.5C451.95,-758.5 471.7,-758.5 489.75,-758.5"/>
<polygon fill="midnightblue" stroke="midnightblue" points="489.86,-762 499.86,-758.5 489.86,-755 489.86,-762"/>
</g>
</g>
</svg>
        <g id="navigator" transform="translate(0 0)" fill="#404254">
                <rect fill="#f2f5e9" fill-opacity="0.5" stroke="#606060" stroke-width=".5" x="0" y="0" width="60" height="60"/>
                <use id="zoomplus" xlink:href="#zoomPlus" x="17" y="9" onmousedown="handleZoom(evt,'in')"/>
                <use id="zoomminus" xlink:href="#zoomMin" x="42" y="9" onmousedown="handleZoom(evt,'out')"/>
                <use id="reset" xlink:href="#resetDef" x="30" y="36" onmousedown="handleReset()"/>
                <g id="arrowUp" xlink:href="#dirArrow" transform="translate(30 24)" onmousedown="handlePan(0,-1)">
                  <use xlink:href="#rim" fill="#404040">
                        <set attributeName="fill" to="#808080" begin="arrowUp.mouseover" end="arrowUp.mouseout"/>
                  </use>
                  <path fill="none" stroke="white" stroke-width="1.5" d="M0,-3.0v7 M-2.5,-0.5L0,-3.0L2.5,-0.5"/>
                </g>
                <g id="arrowRight" xlink:href="#dirArrow" transform="rotate(90) translate(36 -43)" onmousedown="handlePan(1,0)">
                  <use xlink:href="#rim" fill="#404040">
                        <set attributeName="fill" to="#808080" begin="arrowRight.mouseover" end="arrowRight.mouseout"/>
                  </use>
                  <path fill="none" stroke="white" stroke-width="1.5" d="M0,-3.0v7 M-2.5,-0.5L0,-3.0L2.5,-0.5"/>
                </g>
                <g id="arrowDown" xlink:href="#dirArrow" transform="rotate(180) translate(-30 -48)" onmousedown="handlePan(0,1)">
                  <use xlink:href="#rim" fill="#404040">
                        <set attributeName="fill" to="#808080" begin="arrowDown.mouseover" end="arrowDown.mouseout"/>
                  </use>
                  <path fill="none" stroke="white" stroke-width="1.5" d="M0,-3.0v7 M-2.5,-0.5L0,-3.0L2.5,-0.5"/>
                </g>
                <g id="arrowLeft" xlink:href="#dirArrow" transform="rotate(270) translate(-36 17)" onmousedown="handlePan(-1,0)">
                  <use xlink:href="#rim" fill="#404040">
                        <set attributeName="fill" to="#808080" begin="arrowLeft.mouseover" end="arrowLeft.mouseout"/>
                  </use>
                  <path fill="none" stroke="white" stroke-width="1.5" d="M0,-3.0v7 M-2.5,-0.5L0,-3.0L2.5,-0.5"/>
                </g>
        </g>
        <svg viewBox="0 0 15 15" width="100%" height="30px" preserveAspectRatio="xMaxYMin meet">
         <g id="arrow_out" transform="scale(0.3 0.3)">
          <a xlink:href="classft_1_1irc_1_1client__handler_a239d2ec2a936d74893455a83468669b3_cgraph_org.svg" target="_base">
           <rect id="button" ry="5" rx="5" y="6" x="6" height="38" width="38"
                fill="#f2f5e9" fill-opacity="0.5" stroke="#606060" stroke-width="1.0"/>
           <path id="arrow"
             d="M 11.500037,31.436501 C 11.940474,20.09759 22.043105,11.32322 32.158766,21.979434 L 37.068811,17.246167 C 37.068811,17.246167 37.088388,32 37.088388,32 L 22.160133,31.978069 C 22.160133,31.978069 26.997745,27.140456 26.997745,27.140456 C 18.528582,18.264221 13.291696,25.230495 11.500037,31.436501 z"
             style="fill:#404040;"/>
          </a>
         </g>
        </svg>
</svg>
