<?xml version="1.0" encoding="UTF-8" standalone="no"?>
<!DOCTYPE svg PUBLIC "-//W3C//DTD SVG 1.1//EN"
 "http://www.w3.org/Graphics/SVG/1.1/DTD/svg11.dtd">
<!-- Generated by graphviz version 2.43.0 (0)
 -->
<!-- Title: ft::irc::processor_message_base::execute Pages: 1 -->
<svg width="455pt" height="733pt"
 viewBox="0.00 0.00 455.00 733.00" xmlns="http://www.w3.org/2000/svg" xmlns:xlink="http://www.w3.org/1999/xlink">
<g id="graph0" class="graph" transform="scale(1 1) rotate(0) translate(4 729)">
<title>ft::irc::processor_message_base::execute</title>
<polygon fill="white" stroke="transparent" points="-4,4 -4,-729 451,-729 451,4 -4,4"/>
<!-- Node1 -->
<g id="node1" class="node">
<title>Node1</title>
<g id="a_node1"><a xlink:title=" ">
<polygon fill="#bfbfbf" stroke="black" points="0,-347 0,-377 139,-377 139,-347 0,-347"/>
<text text-anchor="start" x="8" y="-365" font-family="Helvetica,sans-Serif" font-size="10.00">ft::irc::processor</text>
<text text-anchor="middle" x="69.5" y="-354" font-family="Helvetica,sans-Serif" font-size="10.00">_message_base::execute</text>
</a>
</g>
</g>
<!-- Node2 -->
<g id="node2" class="node">
<title>Node2</title>
<g id="a_node2"><a xlink:href="classft_1_1irc_1_1channel.html#a4250c6f755016a2f80ae04de5ffed80f" target="_top" xlink:title=" ">
<polygon fill="white" stroke="black" points="178,-705.5 178,-724.5 318,-724.5 318,-705.5 178,-705.5"/>
<text text-anchor="middle" x="248" y="-712.5" font-family="Helvetica,sans-Serif" font-size="10.00">ft::irc::channel::broadcast</text>
</a>
</g>
</g>
<!-- Node1&#45;&gt;Node2 -->
<g id="edge1" class="edge">
<title>Node1&#45;&gt;Node2</title>
<path fill="none" stroke="midnightblue" d="M70.41,-377.27C70.96,-429.88 80.13,-605.32 175,-696 176.51,-697.44 178.11,-698.77 179.79,-700.01"/>
<polygon fill="midnightblue" stroke="midnightblue" points="178.38,-703.25 188.76,-705.41 181.99,-697.25 178.38,-703.25"/>
</g>
<!-- Node3 -->
<g id="node3" class="node">
<title>Node3</title>
<g id="a_node3"><a xlink:href="structft_1_1irc_1_1make__error.html#a5a9846752fac4af2481d02af3856ac1e" target="_top" xlink:title=" ">
<polygon fill="white" stroke="black" points="176.5,-656 176.5,-686 319.5,-686 319.5,-656 176.5,-656"/>
<text text-anchor="start" x="184.5" y="-674" font-family="Helvetica,sans-Serif" font-size="10.00">ft::irc::make_error</text>
<text text-anchor="middle" x="248" y="-663" font-family="Helvetica,sans-Serif" font-size="10.00">::cannot_send_to_channel</text>
</a>
</g>
</g>
<!-- Node1&#45;&gt;Node3 -->
<g id="edge2" class="edge">
<title>Node1&#45;&gt;Node3</title>
<path fill="none" stroke="midnightblue" d="M71.57,-377.13C75.69,-424.12 94.65,-569 175,-647 176.09,-648.06 177.23,-649.08 178.42,-650.04"/>
<polygon fill="midnightblue" stroke="midnightblue" points="176.54,-653 186.76,-655.81 180.52,-647.25 176.54,-653"/>
</g>
<!-- Node4 -->
<g id="node4" class="node">
<title>Node4</title>
<g id="a_node4"><a xlink:href="classft_1_1irc_1_1server.html#a0e7dee7efef3f36af15d1a3b97f3bad9" target="_top" xlink:title=" ">
<polygon fill="white" stroke="black" points="197,-607 197,-637 299,-637 299,-607 197,-607"/>
<text text-anchor="start" x="205" y="-625" font-family="Helvetica,sans-Serif" font-size="10.00">ft::irc::server::find</text>
<text text-anchor="middle" x="248" y="-614" font-family="Helvetica,sans-Serif" font-size="10.00">_channel</text>
</a>
</g>
</g>
<!-- Node1&#45;&gt;Node4 -->
<g id="edge3" class="edge">
<title>Node1&#45;&gt;Node4</title>
<path fill="none" stroke="midnightblue" d="M72.93,-377.06C80.37,-418.3 106.62,-534.15 175,-597 178.8,-600.49 183.11,-603.5 187.69,-606.09"/>
<polygon fill="midnightblue" stroke="midnightblue" points="186.26,-609.28 196.77,-610.58 189.36,-603.01 186.26,-609.28"/>
</g>
<!-- Node5 -->
<g id="node5" class="node">
<title>Node5</title>
<g id="a_node5"><a xlink:href="classft_1_1irc_1_1server.html#a7a7b03083500fa8c2c3008ff55e6eafb" target="_top" xlink:title=" ">
<polygon fill="white" stroke="black" points="184,-568.5 184,-587.5 312,-587.5 312,-568.5 184,-568.5"/>
<text text-anchor="middle" x="248" y="-575.5" font-family="Helvetica,sans-Serif" font-size="10.00">ft::irc::server::find_user</text>
</a>
</g>
</g>
<!-- Node1&#45;&gt;Node5 -->
<g id="edge4" class="edge">
<title>Node1&#45;&gt;Node5</title>
<path fill="none" stroke="midnightblue" d="M74.02,-377.01C83.5,-413.96 113.12,-509.92 175,-559 177.28,-560.81 179.71,-562.44 182.26,-563.93"/>
<polygon fill="midnightblue" stroke="midnightblue" points="180.76,-567.09 191.27,-568.39 183.87,-560.82 180.76,-567.09"/>
</g>
<!-- Node6 -->
<g id="node6" class="node">
<title>Node6</title>
<g id="a_node6"><a xlink:href="classft_1_1irc_1_1message.html#ad323e99c45f6feec038a7de683f812a2" target="_top" xlink:title=" ">
<polygon fill="white" stroke="black" points="191.5,-519 191.5,-549 304.5,-549 304.5,-519 191.5,-519"/>
<text text-anchor="start" x="199.5" y="-537" font-family="Helvetica,sans-Serif" font-size="10.00">ft::irc::message::get</text>
<text text-anchor="middle" x="248" y="-526" font-family="Helvetica,sans-Serif" font-size="10.00">_command</text>
</a>
</g>
</g>
<!-- Node1&#45;&gt;Node6 -->
<g id="edge5" class="edge">
<title>Node1&#45;&gt;Node6</title>
<path fill="none" stroke="midnightblue" d="M77.3,-377.44C91.26,-407.38 126.01,-473.61 175,-510 177.33,-511.73 179.79,-513.34 182.35,-514.84"/>
<polygon fill="midnightblue" stroke="midnightblue" points="180.84,-518 191.33,-519.51 184.07,-511.79 180.84,-518"/>
</g>
<!-- Node7 -->
<g id="node7" class="node">
<title>Node7</title>
<g id="a_node7"><a xlink:href="classft_1_1irc_1_1user.html#ae476cc31795df7fbb726b193ab887e75" target="_top" xlink:title=" ">
<polygon fill="white" stroke="black" points="203,-470 203,-500 293,-500 293,-470 203,-470"/>
<text text-anchor="start" x="211" y="-488" font-family="Helvetica,sans-Serif" font-size="10.00">ft::irc::user::get</text>
<text text-anchor="middle" x="248" y="-477" font-family="Helvetica,sans-Serif" font-size="10.00">_server</text>
</a>
</g>
</g>
<!-- Node1&#45;&gt;Node7 -->
<g id="edge6" class="edge">
<title>Node1&#45;&gt;Node7</title>
<path fill="none" stroke="midnightblue" d="M82.76,-377.24C100.83,-398.76 136.63,-438 175,-461 180.56,-464.33 186.65,-467.27 192.85,-469.85"/>
<polygon fill="midnightblue" stroke="midnightblue" points="192.04,-473.29 202.63,-473.59 194.54,-466.75 192.04,-473.29"/>
</g>
<!-- Node8 -->
<g id="node8" class="node">
<title>Node8</title>
<g id="a_node8"><a xlink:href="classft_1_1irc_1_1user.html#a43fb91fff5e13afd67f9e642137eca40" target="_top" xlink:title=" ">
<polygon fill="white" stroke="black" points="185,-421 185,-451 311,-451 311,-421 185,-421"/>
<text text-anchor="start" x="193" y="-439" font-family="Helvetica,sans-Serif" font-size="10.00">ft::irc::user::is_channel</text>
<text text-anchor="middle" x="248" y="-428" font-family="Helvetica,sans-Serif" font-size="10.00">_member</text>
</a>
</g>
</g>
<!-- Node1&#45;&gt;Node8 -->
<g id="edge7" class="edge">
<title>Node1&#45;&gt;Node8</title>
<path fill="none" stroke="midnightblue" d="M99.79,-377.22C120.5,-387.69 149.08,-401.53 175,-412 179.69,-413.9 184.59,-415.76 189.54,-417.57"/>
<polygon fill="midnightblue" stroke="midnightblue" points="188.46,-420.9 199.06,-420.95 190.81,-414.3 188.46,-420.9"/>
</g>
<!-- Node9 -->
<g id="node9" class="node">
<title>Node9</title>
<g id="a_node9"><a xlink:href="classft_1_1irc_1_1channel.html#ac85a7f4044ab3646afe91ae7b3224f4a" target="_top" xlink:title=" ">
<polygon fill="white" stroke="black" points="196,-372 196,-402 300,-402 300,-372 196,-372"/>
<text text-anchor="start" x="204" y="-390" font-family="Helvetica,sans-Serif" font-size="10.00">ft::irc::channel::is</text>
<text text-anchor="middle" x="248" y="-379" font-family="Helvetica,sans-Serif" font-size="10.00">_channel_speaker</text>
</a>
</g>
</g>
<!-- Node1&#45;&gt;Node9 -->
<g id="edge8" class="edge">
<title>Node1&#45;&gt;Node9</title>
<path fill="none" stroke="midnightblue" d="M139.24,-371.74C154.58,-373.91 170.74,-376.2 185.75,-378.32"/>
<polygon fill="midnightblue" stroke="midnightblue" points="185.54,-381.83 195.94,-379.77 186.53,-374.9 185.54,-381.83"/>
</g>
<!-- Node10 -->
<g id="node10" class="node">
<title>Node10</title>
<g id="a_node10"><a xlink:href="structft_1_1irc_1_1string__utils.html#a38cd804a5b73843f0fd63a027dd0dee0" target="_top" xlink:title=" ">
<polygon fill="white" stroke="black" points="182.5,-323 182.5,-353 313.5,-353 313.5,-323 182.5,-323"/>
<text text-anchor="start" x="190.5" y="-341" font-family="Helvetica,sans-Serif" font-size="10.00">ft::irc::string_utils</text>
<text text-anchor="middle" x="248" y="-330" font-family="Helvetica,sans-Serif" font-size="10.00">::is_valid_channelname</text>
</a>
</g>
</g>
<!-- Node1&#45;&gt;Node10 -->
<g id="edge9" class="edge">
<title>Node1&#45;&gt;Node10</title>
<path fill="none" stroke="midnightblue" d="M139.24,-352.65C150.14,-351.17 161.45,-349.63 172.47,-348.13"/>
<polygon fill="midnightblue" stroke="midnightblue" points="173.05,-351.59 182.49,-346.77 172.1,-344.65 173.05,-351.59"/>
</g>
<!-- Node12 -->
<g id="node12" class="node">
<title>Node12</title>
<g id="a_node12"><a xlink:href="classft_1_1irc_1_1channel.html#a01d060ed582406cbe40ec0889408d5b2" target="_top" xlink:title=" ">
<polygon fill="white" stroke="black" points="175,-284.5 175,-303.5 321,-303.5 321,-284.5 175,-284.5"/>
<text text-anchor="middle" x="248" y="-291.5" font-family="Helvetica,sans-Serif" font-size="10.00">ft::irc::channel::load_mode</text>
</a>
</g>
</g>
<!-- Node1&#45;&gt;Node12 -->
<g id="edge11" class="edge">
<title>Node1&#45;&gt;Node12</title>
<path fill="none" stroke="midnightblue" d="M100.15,-346.84C120.78,-336.68 149.13,-323.47 175,-314 182.45,-311.27 190.45,-308.71 198.32,-306.38"/>
<polygon fill="midnightblue" stroke="midnightblue" points="199.5,-309.68 208.15,-303.57 197.58,-302.95 199.5,-309.68"/>
</g>
<!-- Node13 -->
<g id="node13" class="node">
<title>Node13</title>
<g id="a_node13"><a xlink:href="structft_1_1irc_1_1make__error.html#a81db31c143f2945735f9cd85394c55b8" target="_top" xlink:title=" ">
<polygon fill="white" stroke="black" points="196.5,-235 196.5,-265 299.5,-265 299.5,-235 196.5,-235"/>
<text text-anchor="start" x="204.5" y="-253" font-family="Helvetica,sans-Serif" font-size="10.00">ft::irc::make_error</text>
<text text-anchor="middle" x="248" y="-242" font-family="Helvetica,sans-Serif" font-size="10.00">::no_recipient</text>
</a>
</g>
</g>
<!-- Node1&#45;&gt;Node13 -->
<g id="edge12" class="edge">
<title>Node1&#45;&gt;Node13</title>
<path fill="none" stroke="midnightblue" d="M85.12,-346.83C104.22,-327.76 139.44,-295.09 175,-275 178.86,-272.82 182.95,-270.78 187.13,-268.88"/>
<polygon fill="midnightblue" stroke="midnightblue" points="188.56,-272.08 196.4,-264.96 185.83,-265.63 188.56,-272.08"/>
</g>
<!-- Node14 -->
<g id="node14" class="node">
<title>Node14</title>
<g id="a_node14"><a xlink:href="structft_1_1irc_1_1make__error.html#a18a46423a4bca983ad1a6edff1b6c504" target="_top" xlink:title=" ">
<polygon fill="white" stroke="black" points="190,-186 190,-216 306,-216 306,-186 190,-186"/>
<text text-anchor="start" x="198" y="-204" font-family="Helvetica,sans-Serif" font-size="10.00">ft::irc::make_error</text>
<text text-anchor="middle" x="248" y="-193" font-family="Helvetica,sans-Serif" font-size="10.00">::no_such_nickname</text>
</a>
</g>
</g>
<!-- Node1&#45;&gt;Node14 -->
<g id="edge13" class="edge">
<title>Node1&#45;&gt;Node14</title>
<path fill="none" stroke="midnightblue" d="M78.37,-346.58C93.41,-318.6 128.88,-259.27 175,-226 177.63,-224.1 180.41,-222.34 183.3,-220.7"/>
<polygon fill="midnightblue" stroke="midnightblue" points="184.9,-223.82 192.22,-216.16 181.72,-217.58 184.9,-223.82"/>
</g>
<!-- Node15 -->
<g id="node15" class="node">
<title>Node15</title>
<g id="a_node15"><a xlink:href="structft_1_1irc_1_1make__error.html#a9d3c9cf4a786758994595a531fab4109" target="_top" xlink:title=" ">
<polygon fill="white" stroke="black" points="196.5,-137 196.5,-167 299.5,-167 299.5,-137 196.5,-137"/>
<text text-anchor="start" x="204.5" y="-155" font-family="Helvetica,sans-Serif" font-size="10.00">ft::irc::make_error</text>
<text text-anchor="middle" x="248" y="-144" font-family="Helvetica,sans-Serif" font-size="10.00">::no_text_to_send</text>
</a>
</g>
</g>
<!-- Node1&#45;&gt;Node15 -->
<g id="edge14" class="edge">
<title>Node1&#45;&gt;Node15</title>
<path fill="none" stroke="midnightblue" d="M74.93,-346.89C85.96,-311.89 117.93,-224.62 175,-177 178.74,-173.88 182.89,-171.14 187.26,-168.73"/>
<polygon fill="midnightblue" stroke="midnightblue" points="189.01,-171.78 196.48,-164.26 185.95,-165.48 189.01,-171.78"/>
</g>
<!-- Node16 -->
<g id="node16" class="node">
<title>Node16</title>
<g id="a_node16"><a xlink:href="structft_1_1irc_1_1make__reply.html#a5bc514d5b05cc15d799aba1944a18386" target="_top" xlink:title=" ">
<polygon fill="white" stroke="black" points="196,-88 196,-118 300,-118 300,-88 196,-88"/>
<text text-anchor="start" x="204" y="-106" font-family="Helvetica,sans-Serif" font-size="10.00">ft::irc::make_reply</text>
<text text-anchor="middle" x="248" y="-95" font-family="Helvetica,sans-Serif" font-size="10.00">::replicate</text>
</a>
</g>
</g>
<!-- Node1&#45;&gt;Node16 -->
<g id="edge15" class="edge">
<title>Node1&#45;&gt;Node16</title>
<path fill="none" stroke="midnightblue" d="M73.01,-346.71C80.57,-305.39 106.98,-190.42 175,-128 178.53,-124.76 182.5,-121.94 186.72,-119.48"/>
<polygon fill="midnightblue" stroke="midnightblue" points="188.35,-122.58 195.67,-114.92 185.17,-116.34 188.35,-122.58"/>
</g>
<!-- Node17 -->
<g id="node17" class="node">
<title>Node17</title>
<g id="a_node17"><a xlink:href="classft_1_1irc_1_1user.html#a1db558d6d694ca943224c2440fe36c50" target="_top" xlink:title=" ">
<polygon fill="white" stroke="black" points="199,-39 199,-69 297,-69 297,-39 199,-39"/>
<text text-anchor="start" x="207" y="-57" font-family="Helvetica,sans-Serif" font-size="10.00">ft::irc::user::send</text>
<text text-anchor="middle" x="248" y="-46" font-family="Helvetica,sans-Serif" font-size="10.00">_message</text>
</a>
</g>
</g>
<!-- Node1&#45;&gt;Node17 -->
<g id="edge16" class="edge">
<title>Node1&#45;&gt;Node17</title>
<path fill="none" stroke="midnightblue" d="M71.67,-346.68C76.08,-299.8 95.72,-156.74 175,-79 179.24,-74.85 184.2,-71.38 189.5,-68.49"/>
<polygon fill="midnightblue" stroke="midnightblue" points="191.14,-71.59 198.68,-64.14 188.14,-65.26 191.14,-71.59"/>
</g>
<!-- Node18 -->
<g id="node18" class="node">
<title>Node18</title>
<g id="a_node18"><a xlink:href="classft_1_1irc_1_1message.html#adf434fdc28e74fb166c6046c0ac5c6d5" target="_top" xlink:title=" ">
<polygon fill="white" stroke="black" points="188.5,-0.5 188.5,-19.5 307.5,-19.5 307.5,-0.5 188.5,-0.5"/>
<text text-anchor="middle" x="248" y="-7.5" font-family="Helvetica,sans-Serif" font-size="10.00">ft::irc::message::split</text>
</a>
</g>
</g>
<!-- Node1&#45;&gt;Node18 -->
<g id="edge17" class="edge">
<title>Node1&#45;&gt;Node18</title>
<path fill="none" stroke="midnightblue" d="M70.48,-346.86C71.28,-294.7 81.15,-120.71 175,-30 176.96,-28.11 179.08,-26.39 181.33,-24.83"/>
<polygon fill="midnightblue" stroke="midnightblue" points="183.57,-27.58 190.51,-19.58 180.09,-21.51 183.57,-27.58"/>
</g>
<!-- Node11 -->
<g id="node11" class="node">
<title>Node11</title>
<g id="a_node11"><a xlink:href="namespaceft_1_1irc_1_1__internal.html#ac421a738f6d955bab8b862fca8bd7159" target="_top" xlink:title=" ">
<polygon fill="white" stroke="black" points="357,-323 357,-353 447,-353 447,-323 357,-323"/>
<text text-anchor="start" x="365" y="-341" font-family="Helvetica,sans-Serif" font-size="10.00">ft::irc::_internal</text>
<text text-anchor="middle" x="402" y="-330" font-family="Helvetica,sans-Serif" font-size="10.00">::_is_except</text>
</a>
</g>
</g>
<!-- Node10&#45;&gt;Node11 -->
<g id="edge10" class="edge">
<title>Node10&#45;&gt;Node11</title>
<path fill="none" stroke="midnightblue" d="M313.9,-338C324.91,-338 336.23,-338 346.92,-338"/>
<polygon fill="midnightblue" stroke="midnightblue" points="346.95,-341.5 356.95,-338 346.95,-334.5 346.95,-341.5"/>
</g>
</g>
</svg>
