<?xml version="1.0" encoding="UTF-8" standalone="no"?>
<!DOCTYPE svg PUBLIC "-//W3C//DTD SVG 1.1//EN"
 "http://www.w3.org/Graphics/SVG/1.1/DTD/svg11.dtd">
<!-- Generated by graphviz version 2.43.0 (0)
 -->
<!-- Title: ft::irc::bot_handler::on_read Pages: 1 -->
<!--zoomable 723 -->
<svg id="main" version="1.1" xmlns="http://www.w3.org/2000/svg" xmlns:xlink="http://www.w3.org/1999/xlink" xml:space="preserve" onload="init(evt)">
<style type="text/css"><![CDATA[
.edge:hover path { stroke: red; }
.edge:hover polygon { stroke: red; fill: red; }
]]></style>
<script type="text/javascript"><![CDATA[
var edges = document.getElementsByTagName('g');
if (edges && edges.length) {
  for (var i=0;i<edges.length;i++) {
    if (edges[i].id.substr(0,4)=='edge') {
      edges[i].setAttribute('class','edge');
    }
  }
}
]]></script>
        <defs>
                <circle id="rim" cx="0" cy="0" r="7"/>
                <circle id="rim2" cx="0" cy="0" r="3.5"/>
                <g id="zoomPlus">
                        <use xlink:href="#rim" fill="#404040">
                                <set attributeName="fill" to="#808080" begin="zoomplus.mouseover" end="zoomplus.mouseout"/>
                        </use>
                        <path d="M-4,0h8M0,-4v8" fill="none" stroke="white" stroke-width="1.5" pointer-events="none"/>
                </g>
                <g id="zoomMin">
                        <use xlink:href="#rim" fill="#404040">
                                <set attributeName="fill" to="#808080" begin="zoomminus.mouseover" end="zoomminus.mouseout"/>
                        </use>
                        <path d="M-4,0h8" fill="none" stroke="white" stroke-width="1.5" pointer-events="none"/>
                </g>
                <g id="dirArrow">
                        <path fill="none" stroke="white" stroke-width="1.5" d="M0,-3.0v7 M-2.5,-0.5L0,-3.0L2.5,-0.5"/>
                </g>
               <g id="resetDef">
                       <use xlink:href="#rim2" fill="#404040">
                               <set attributeName="fill" to="#808080" begin="reset.mouseover" end="reset.mouseout"/>
                       </use>
               </g>
        </defs>

<script type="text/javascript">
var viewWidth = 612;
var viewHeight = 723;
var sectionId = 'dynsection-5';
</script>
<script xlink:href="svgpan.js"/>
<svg id="graph" class="graph">
<g id="viewport">
<title>ft::irc::bot_handler::on_read</title>
<polygon fill="white" stroke="transparent" points="-4,4 -4,-718.5 608,-718.5 608,4 -4,4"/>
<!-- Node1 -->
<g id="node1" class="node">
<title>Node1</title>
<g id="a_node1"><a xlink:title=" ">
<polygon fill="#bfbfbf" stroke="black" points="0,-357.5 0,-387.5 105,-387.5 105,-357.5 0,-357.5"/>
<text text-anchor="start" x="8" y="-375.5" font-family="Helvetica,sans-Serif" font-size="10.00">ft::irc::bot_handler</text>
<text text-anchor="middle" x="52.5" y="-364.5" font-family="Helvetica,sans-Serif" font-size="10.00">::on_read</text>
</a>
</g>
</g>
<!-- Node2 -->
<g id="node2" class="node">
<title>Node2</title>
<g id="a_node2"><a xlink:href="classft_1_1irc_1_1bot.html#ab9626c6fee28a7fa7cb968c76362834c" target="_top" xlink:title=" ">
<polygon fill="white" stroke="black" points="153.5,-695 153.5,-714 277.5,-714 277.5,-695 153.5,-695"/>
<text text-anchor="middle" x="215.5" y="-702" font-family="Helvetica,sans-Serif" font-size="10.00">ft::irc::bot::add_inviter</text>
</a>
</g>
</g>
<!-- Node1&#45;&gt;Node2 -->
<g id="edge1" class="edge">
<title>Node1&#45;&gt;Node2</title>
<path fill="none" stroke="midnightblue" d="M52.84,-387.83C51.55,-438.28 54.58,-600.76 141,-685.5 142.48,-686.95 144.06,-688.3 145.72,-689.55"/>
<polygon fill="midnightblue" stroke="midnightblue" points="144.22,-692.74 154.57,-694.99 147.89,-686.77 144.22,-692.74"/>
</g>
<!-- Node3 -->
<g id="node3" class="node">
<title>Node3</title>
<g id="a_node3"><a xlink:href="classft_1_1irc_1_1bot.html#adf4606e06fe57fead9970ce51853ba0a" target="_top" xlink:title=" ">
<polygon fill="white" stroke="black" points="166.5,-645.5 166.5,-675.5 264.5,-675.5 264.5,-645.5 166.5,-645.5"/>
<text text-anchor="start" x="174.5" y="-663.5" font-family="Helvetica,sans-Serif" font-size="10.00">ft::irc::bot::check</text>
<text text-anchor="middle" x="215.5" y="-652.5" font-family="Helvetica,sans-Serif" font-size="10.00">_is_inviter</text>
</a>
</g>
</g>
<!-- Node1&#45;&gt;Node3 -->
<g id="edge2" class="edge">
<title>Node1&#45;&gt;Node3</title>
<path fill="none" stroke="midnightblue" d="M54.04,-387.66C56.46,-432.13 69.61,-563.64 141,-635.5 145.55,-640.08 150.97,-643.82 156.78,-646.88"/>
<polygon fill="midnightblue" stroke="midnightblue" points="155.6,-650.19 166.15,-651.14 158.5,-643.82 155.6,-650.19"/>
</g>
<!-- Node4 -->
<g id="node4" class="node">
<title>Node4</title>
<g id="a_node4"><a xlink:href="structft_1_1serv_1_1logger.html#a83649a4f3bb804c8fed6dfd130de5ee6" target="_top" xlink:title=" ">
<polygon fill="white" stroke="black" points="154.5,-607 154.5,-626 276.5,-626 276.5,-607 154.5,-607"/>
<text text-anchor="middle" x="215.5" y="-614" font-family="Helvetica,sans-Serif" font-size="10.00">ft::serv::logger::debug</text>
</a>
</g>
</g>
<!-- Node1&#45;&gt;Node4 -->
<g id="edge3" class="edge">
<title>Node1&#45;&gt;Node4</title>
<path fill="none" stroke="midnightblue" d="M54.76,-387.74C58.96,-428.33 76.14,-539.87 141,-597.5 142.76,-599.06 144.63,-600.5 146.6,-601.83"/>
<polygon fill="midnightblue" stroke="midnightblue" points="145.25,-605.08 155.69,-606.92 148.67,-598.98 145.25,-605.08"/>
</g>
<!-- Node8 -->
<g id="node8" class="node">
<title>Node8</title>
<g id="a_node8"><a xlink:href="classft_1_1irc_1_1bot.html#adc2d6b015e096552cc531c457061bd77" target="_top" xlink:title=" ">
<polygon fill="white" stroke="black" points="172,-557.5 172,-587.5 259,-587.5 259,-557.5 172,-557.5"/>
<text text-anchor="start" x="180" y="-575.5" font-family="Helvetica,sans-Serif" font-size="10.00">ft::irc::bot::find</text>
<text text-anchor="middle" x="215.5" y="-564.5" font-family="Helvetica,sans-Serif" font-size="10.00">_channels</text>
</a>
</g>
</g>
<!-- Node1&#45;&gt;Node8 -->
<g id="edge7" class="edge">
<title>Node1&#45;&gt;Node8</title>
<path fill="none" stroke="midnightblue" d="M56.82,-387.68C65,-421.56 89.36,-503.88 141,-548.5 147.21,-553.87 154.65,-558.04 162.37,-561.28"/>
<polygon fill="midnightblue" stroke="midnightblue" points="161.27,-564.61 171.87,-564.79 163.7,-558.04 161.27,-564.61"/>
</g>
<!-- Node9 -->
<g id="node9" class="node">
<title>Node9</title>
<g id="a_node9"><a xlink:href="classft_1_1irc_1_1message.html#ad323e99c45f6feec038a7de683f812a2" target="_top" xlink:title=" ">
<polygon fill="white" stroke="black" points="159,-508.5 159,-538.5 272,-538.5 272,-508.5 159,-508.5"/>
<text text-anchor="start" x="167" y="-526.5" font-family="Helvetica,sans-Serif" font-size="10.00">ft::irc::message::get</text>
<text text-anchor="middle" x="215.5" y="-515.5" font-family="Helvetica,sans-Serif" font-size="10.00">_command</text>
</a>
</g>
</g>
<!-- Node1&#45;&gt;Node9 -->
<g id="edge8" class="edge">
<title>Node1&#45;&gt;Node9</title>
<path fill="none" stroke="midnightblue" d="M60.08,-387.65C72.27,-413.97 100.8,-468.21 141,-498.5 143.78,-500.59 146.74,-502.52 149.82,-504.28"/>
<polygon fill="midnightblue" stroke="midnightblue" points="148.27,-507.43 158.77,-508.87 151.47,-501.19 148.27,-507.43"/>
</g>
<!-- Node10 -->
<g id="node10" class="node">
<title>Node10</title>
<g id="a_node10"><a xlink:href="classft_1_1irc_1_1bot.html#af00201ff653e89960e762d7b12297c13" target="_top" xlink:title=" ">
<polygon fill="white" stroke="black" points="160.5,-470 160.5,-489 270.5,-489 270.5,-470 160.5,-470"/>
<text text-anchor="middle" x="215.5" y="-477" font-family="Helvetica,sans-Serif" font-size="10.00">ft::irc::bot::get_nick</text>
</a>
</g>
</g>
<!-- Node1&#45;&gt;Node10 -->
<g id="edge9" class="edge">
<title>Node1&#45;&gt;Node10</title>
<path fill="none" stroke="midnightblue" d="M64.41,-387.72C79.41,-407.51 108.29,-441.75 141,-460.5 144.9,-462.74 149.07,-464.71 153.36,-466.46"/>
<polygon fill="midnightblue" stroke="midnightblue" points="152.3,-469.8 162.9,-469.93 154.7,-463.22 152.3,-469.8"/>
</g>
<!-- Node11 -->
<g id="node11" class="node">
<title>Node11</title>
<g id="a_node11"><a xlink:href="classft_1_1irc_1_1message.html#a254aec48aa7b7872331cd5644d9e918c" target="_top" xlink:title=" ">
<polygon fill="white" stroke="black" points="159,-420.5 159,-450.5 272,-450.5 272,-420.5 159,-420.5"/>
<text text-anchor="start" x="167" y="-438.5" font-family="Helvetica,sans-Serif" font-size="10.00">ft::irc::message::get</text>
<text text-anchor="middle" x="215.5" y="-427.5" font-family="Helvetica,sans-Serif" font-size="10.00">_prefix</text>
</a>
</g>
</g>
<!-- Node1&#45;&gt;Node11 -->
<g id="edge10" class="edge">
<title>Node1&#45;&gt;Node11</title>
<path fill="none" stroke="midnightblue" d="M86.48,-387.58C102.76,-394.83 122.77,-403.46 141,-410.5 146.78,-412.73 152.84,-414.97 158.92,-417.13"/>
<polygon fill="midnightblue" stroke="midnightblue" points="157.82,-420.46 168.42,-420.47 160.14,-413.86 157.82,-420.46"/>
</g>
<!-- Node12 -->
<g id="node12" class="node">
<title>Node12</title>
<g id="a_node12"><a xlink:href="classft_1_1irc_1_1bot.html#af82f7c44d8f68db0fe3026e42fcf3f69" target="_top" xlink:title=" ">
<polygon fill="white" stroke="black" points="141,-382 141,-401 290,-401 290,-382 141,-382"/>
<text text-anchor="middle" x="215.5" y="-389" font-family="Helvetica,sans-Serif" font-size="10.00">ft::irc::bot::get_servername</text>
</a>
</g>
</g>
<!-- Node1&#45;&gt;Node12 -->
<g id="edge11" class="edge">
<title>Node1&#45;&gt;Node12</title>
<path fill="none" stroke="midnightblue" d="M105.33,-378.62C113.45,-379.58 122.03,-380.59 130.66,-381.61"/>
<polygon fill="midnightblue" stroke="midnightblue" points="130.44,-385.1 140.78,-382.8 131.26,-378.15 130.44,-385.1"/>
</g>
<!-- Node13 -->
<g id="node13" class="node">
<title>Node13</title>
<g id="a_node13"><a xlink:href="classft_1_1irc_1_1bot.html#a8c884ab295df9308e688762a387fd666" target="_top" xlink:title=" ">
<polygon fill="white" stroke="black" points="146,-344 146,-363 285,-363 285,-344 146,-344"/>
<text text-anchor="middle" x="215.5" y="-351" font-family="Helvetica,sans-Serif" font-size="10.00">ft::irc::bot::get_username</text>
</a>
</g>
</g>
<!-- Node1&#45;&gt;Node13 -->
<g id="edge12" class="edge">
<title>Node1&#45;&gt;Node13</title>
<path fill="none" stroke="midnightblue" d="M105.33,-366.38C114.98,-365.24 125.26,-364.03 135.52,-362.82"/>
<polygon fill="midnightblue" stroke="midnightblue" points="136.21,-366.26 145.73,-361.62 135.39,-359.31 136.21,-366.26"/>
</g>
<!-- Node14 -->
<g id="node14" class="node">
<title>Node14</title>
<g id="a_node14"><a xlink:href="structft_1_1irc_1_1string__utils.html#a02d1713c6a0329a583a631d836ec717d" target="_top" xlink:title=" ">
<polygon fill="white" stroke="black" points="165,-294.5 165,-324.5 266,-324.5 266,-294.5 165,-294.5"/>
<text text-anchor="start" x="173" y="-312.5" font-family="Helvetica,sans-Serif" font-size="10.00">ft::irc::string_utils</text>
<text text-anchor="middle" x="215.5" y="-301.5" font-family="Helvetica,sans-Serif" font-size="10.00">::pick_nick</text>
</a>
</g>
</g>
<!-- Node1&#45;&gt;Node14 -->
<g id="edge13" class="edge">
<title>Node1&#45;&gt;Node14</title>
<path fill="none" stroke="midnightblue" d="M86.48,-357.42C102.76,-350.17 122.77,-341.54 141,-334.5 146.78,-332.27 152.84,-330.03 158.92,-327.87"/>
<polygon fill="midnightblue" stroke="midnightblue" points="160.14,-331.14 168.42,-324.53 157.82,-324.54 160.14,-331.14"/>
</g>
<!-- Node15 -->
<g id="node15" class="node">
<title>Node15</title>
<g id="a_node15"><a xlink:href="classft_1_1serv_1_1event__layer.html#a854a0764bd67adfc716ec4237cd52672" target="_top" xlink:title=" ">
<polygon fill="white" stroke="black" points="159,-245.5 159,-275.5 272,-275.5 272,-245.5 159,-245.5"/>
<text text-anchor="start" x="167" y="-263.5" font-family="Helvetica,sans-Serif" font-size="10.00">ft::serv::event_layer</text>
<text text-anchor="middle" x="215.5" y="-252.5" font-family="Helvetica,sans-Serif" font-size="10.00">::post_flush</text>
</a>
</g>
</g>
<!-- Node1&#45;&gt;Node15 -->
<g id="edge14" class="edge">
<title>Node1&#45;&gt;Node15</title>
<path fill="none" stroke="midnightblue" d="M64.93,-357.49C80.29,-338.28 109.32,-305.15 141,-285.5 144.32,-283.44 147.83,-281.53 151.45,-279.75"/>
<polygon fill="midnightblue" stroke="midnightblue" points="152.92,-282.93 160.6,-275.63 150.04,-276.55 152.92,-282.93"/>
</g>
<!-- Node16 -->
<g id="node16" class="node">
<title>Node16</title>
<g id="a_node16"><a xlink:href="classft_1_1serv_1_1event__layer.html#add4946138f5f8a5870d52c44ca435aab" target="_top" xlink:title=" ">
<polygon fill="white" stroke="black" points="159,-196.5 159,-226.5 272,-226.5 272,-196.5 159,-196.5"/>
<text text-anchor="start" x="167" y="-214.5" font-family="Helvetica,sans-Serif" font-size="10.00">ft::serv::event_layer</text>
<text text-anchor="middle" x="215.5" y="-203.5" font-family="Helvetica,sans-Serif" font-size="10.00">::post_write</text>
</a>
</g>
</g>
<!-- Node1&#45;&gt;Node16 -->
<g id="edge15" class="edge">
<title>Node1&#45;&gt;Node16</title>
<path fill="none" stroke="midnightblue" d="M59.21,-357.47C70.55,-329.6 98.53,-269.7 141,-236.5 143.74,-234.36 146.67,-232.4 149.73,-230.6"/>
<polygon fill="midnightblue" stroke="midnightblue" points="151.39,-233.68 158.63,-225.95 148.15,-227.48 151.39,-233.68"/>
</g>
<!-- Node17 -->
<g id="node17" class="node">
<title>Node17</title>
<g id="a_node17"><a xlink:href="structft_1_1irc_1_1make__reply__base.html#a0286978513d0078fa15b5a0b68b326a4" target="_top" xlink:title=" ">
<polygon fill="white" stroke="black" points="148,-147.5 148,-177.5 283,-177.5 283,-147.5 148,-147.5"/>
<text text-anchor="start" x="156" y="-165.5" font-family="Helvetica,sans-Serif" font-size="10.00">ft::irc::make_reply</text>
<text text-anchor="middle" x="215.5" y="-154.5" font-family="Helvetica,sans-Serif" font-size="10.00">_base::set_server_name</text>
</a>
</g>
</g>
<!-- Node1&#45;&gt;Node17 -->
<g id="edge16" class="edge">
<title>Node1&#45;&gt;Node17</title>
<path fill="none" stroke="midnightblue" d="M56.44,-357.4C64.04,-322.41 87.58,-235.16 141,-187.5 142.76,-185.93 144.62,-184.46 146.56,-183.08"/>
<polygon fill="midnightblue" stroke="midnightblue" points="148.8,-185.81 155.51,-177.61 145.15,-179.84 148.8,-185.81"/>
</g>
<!-- Node18 -->
<g id="node18" class="node">
<title>Node18</title>
<g id="a_node18"><a xlink:href="structft_1_1irc_1_1make__reply__base.html#a488f2be061e722bd858d7285d1028eaf" target="_top" xlink:title=" ">
<polygon fill="white" stroke="black" points="153,-98.5 153,-128.5 278,-128.5 278,-98.5 153,-98.5"/>
<text text-anchor="start" x="161" y="-116.5" font-family="Helvetica,sans-Serif" font-size="10.00">ft::irc::make_reply</text>
<text text-anchor="middle" x="215.5" y="-105.5" font-family="Helvetica,sans-Serif" font-size="10.00">_base::set_user_name</text>
</a>
</g>
</g>
<!-- Node1&#45;&gt;Node18 -->
<g id="edge17" class="edge">
<title>Node1&#45;&gt;Node18</title>
<path fill="none" stroke="midnightblue" d="M54.78,-357.23C59.04,-315.98 76.42,-201.18 141,-138.5 142.49,-137.06 144.06,-135.7 145.71,-134.42"/>
<polygon fill="midnightblue" stroke="midnightblue" points="148.03,-137.07 154.44,-128.64 144.17,-131.23 148.03,-137.07"/>
</g>
<!-- Node19 -->
<g id="node19" class="node">
<title>Node19</title>
<g id="a_node19"><a xlink:href="structft_1_1irc_1_1make__reply__base.html#a05d12bbf99ce4c8fde3cbb731135ff26" target="_top" xlink:title=" ">
<polygon fill="white" stroke="black" points="156.5,-49.5 156.5,-79.5 274.5,-79.5 274.5,-49.5 156.5,-49.5"/>
<text text-anchor="start" x="164.5" y="-67.5" font-family="Helvetica,sans-Serif" font-size="10.00">ft::irc::make_reply</text>
<text text-anchor="middle" x="215.5" y="-56.5" font-family="Helvetica,sans-Serif" font-size="10.00">_base::set_user_nick</text>
</a>
</g>
</g>
<!-- Node1&#45;&gt;Node19 -->
<g id="edge18" class="edge">
<title>Node1&#45;&gt;Node19</title>
<path fill="none" stroke="midnightblue" d="M53.63,-357.22C54.87,-310.45 64.99,-167.66 141,-89.5 143.07,-87.37 145.33,-85.42 147.73,-83.64"/>
<polygon fill="midnightblue" stroke="midnightblue" points="149.76,-86.5 156.35,-78.2 146.03,-80.58 149.76,-86.5"/>
</g>
<!-- Node20 -->
<g id="node20" class="node">
<title>Node20</title>
<g id="a_node20"><a xlink:href="classft_1_1irc_1_1message.html#a076fdbb740cb752dd153e207f076183a" target="_top" xlink:title=" ">
<polygon fill="white" stroke="black" points="162,-0.5 162,-30.5 269,-30.5 269,-0.5 162,-0.5"/>
<text text-anchor="start" x="170" y="-18.5" font-family="Helvetica,sans-Serif" font-size="10.00">ft::irc::message::to</text>
<text text-anchor="middle" x="215.5" y="-7.5" font-family="Helvetica,sans-Serif" font-size="10.00">_pretty_string</text>
</a>
</g>
</g>
<!-- Node1&#45;&gt;Node20 -->
<g id="edge19" class="edge">
<title>Node1&#45;&gt;Node20</title>
<path fill="none" stroke="midnightblue" d="M52.8,-357.26C51.28,-305.49 53.41,-134.46 141,-40.5 144.38,-36.87 148.31,-33.77 152.56,-31.12"/>
<polygon fill="midnightblue" stroke="midnightblue" points="154.47,-34.06 161.66,-26.28 151.19,-27.88 154.47,-34.06"/>
</g>
<!-- Node5 -->
<g id="node5" class="node">
<title>Node5</title>
<g id="a_node5"><a xlink:href="namespaceft_1_1serv_1_1__internal.html#a4dfb80be7b817fc0ee18658f313a6274" target="_top" xlink:title=" ">
<polygon fill="white" stroke="black" points="326,-601.5 326,-631.5 424,-631.5 424,-601.5 326,-601.5"/>
<text text-anchor="start" x="334" y="-619.5" font-family="Helvetica,sans-Serif" font-size="10.00">ft::serv::_internal</text>
<text text-anchor="middle" x="375" y="-608.5" font-family="Helvetica,sans-Serif" font-size="10.00">::print</text>
</a>
</g>
</g>
<!-- Node4&#45;&gt;Node5 -->
<g id="edge4" class="edge">
<title>Node4&#45;&gt;Node5</title>
<path fill="none" stroke="midnightblue" d="M276.94,-616.5C289.55,-616.5 302.82,-616.5 315.36,-616.5"/>
<polygon fill="midnightblue" stroke="midnightblue" points="315.69,-620 325.69,-616.5 315.69,-613 315.69,-620"/>
</g>
<!-- Node6 -->
<g id="node6" class="node">
<title>Node6</title>
<g id="a_node6"><a xlink:href="namespaceft_1_1serv_1_1__internal.html#aff49349b58dc84fa69076e9cd27a1db4" target="_top" xlink:title=" ">
<polygon fill="white" stroke="black" points="460,-626.5 460,-656.5 604,-656.5 604,-626.5 460,-626.5"/>
<text text-anchor="start" x="468" y="-644.5" font-family="Helvetica,sans-Serif" font-size="10.00">ft::serv::_internal</text>
<text text-anchor="middle" x="532" y="-633.5" font-family="Helvetica,sans-Serif" font-size="10.00">::make_format_string_line</text>
</a>
</g>
</g>
<!-- Node5&#45;&gt;Node6 -->
<g id="edge5" class="edge">
<title>Node5&#45;&gt;Node6</title>
<path fill="none" stroke="midnightblue" d="M424.19,-624.27C432.39,-625.6 441.11,-627 449.88,-628.42"/>
<polygon fill="midnightblue" stroke="midnightblue" points="449.36,-631.88 459.79,-630.01 450.48,-624.97 449.36,-631.88"/>
</g>
<!-- Node7 -->
<g id="node7" class="node">
<title>Node7</title>
<g id="a_node7"><a xlink:href="namespaceft_1_1serv_1_1__internal.html#aad4af39d62c2b1687b0bef7a91bf6c60" target="_top" xlink:title=" ">
<polygon fill="white" stroke="black" points="480.5,-577.5 480.5,-607.5 583.5,-607.5 583.5,-577.5 480.5,-577.5"/>
<text text-anchor="start" x="488.5" y="-595.5" font-family="Helvetica,sans-Serif" font-size="10.00">ft::serv::_internal</text>
<text text-anchor="middle" x="532" y="-584.5" font-family="Helvetica,sans-Serif" font-size="10.00">::make_utc_string</text>
</a>
</g>
</g>
<!-- Node5&#45;&gt;Node7 -->
<g id="edge6" class="edge">
<title>Node5&#45;&gt;Node7</title>
<path fill="none" stroke="midnightblue" d="M424.19,-609.04C438.85,-606.77 455.14,-604.25 470.49,-601.87"/>
<polygon fill="midnightblue" stroke="midnightblue" points="471.08,-605.32 480.42,-600.33 470.01,-598.4 471.08,-605.32"/>
</g>
</g>
</svg>
        <g id="navigator" transform="translate(0 0)" fill="#404254">
                <rect fill="#f2f5e9" fill-opacity="0.5" stroke="#606060" stroke-width=".5" x="0" y="0" width="60" height="60"/>
                <use id="zoomplus" xlink:href="#zoomPlus" x="17" y="9" onmousedown="handleZoom(evt,'in')"/>
                <use id="zoomminus" xlink:href="#zoomMin" x="42" y="9" onmousedown="handleZoom(evt,'out')"/>
                <use id="reset" xlink:href="#resetDef" x="30" y="36" onmousedown="handleReset()"/>
                <g id="arrowUp" xlink:href="#dirArrow" transform="translate(30 24)" onmousedown="handlePan(0,-1)">
                  <use xlink:href="#rim" fill="#404040">
                        <set attributeName="fill" to="#808080" begin="arrowUp.mouseover" end="arrowUp.mouseout"/>
                  </use>
                  <path fill="none" stroke="white" stroke-width="1.5" d="M0,-3.0v7 M-2.5,-0.5L0,-3.0L2.5,-0.5"/>
                </g>
                <g id="arrowRight" xlink:href="#dirArrow" transform="rotate(90) translate(36 -43)" onmousedown="handlePan(1,0)">
                  <use xlink:href="#rim" fill="#404040">
                        <set attributeName="fill" to="#808080" begin="arrowRight.mouseover" end="arrowRight.mouseout"/>
                  </use>
                  <path fill="none" stroke="white" stroke-width="1.5" d="M0,-3.0v7 M-2.5,-0.5L0,-3.0L2.5,-0.5"/>
                </g>
                <g id="arrowDown" xlink:href="#dirArrow" transform="rotate(180) translate(-30 -48)" onmousedown="handlePan(0,1)">
                  <use xlink:href="#rim" fill="#404040">
                        <set attributeName="fill" to="#808080" begin="arrowDown.mouseover" end="arrowDown.mouseout"/>
                  </use>
                  <path fill="none" stroke="white" stroke-width="1.5" d="M0,-3.0v7 M-2.5,-0.5L0,-3.0L2.5,-0.5"/>
                </g>
                <g id="arrowLeft" xlink:href="#dirArrow" transform="rotate(270) translate(-36 17)" onmousedown="handlePan(-1,0)">
                  <use xlink:href="#rim" fill="#404040">
                        <set attributeName="fill" to="#808080" begin="arrowLeft.mouseover" end="arrowLeft.mouseout"/>
                  </use>
                  <path fill="none" stroke="white" stroke-width="1.5" d="M0,-3.0v7 M-2.5,-0.5L0,-3.0L2.5,-0.5"/>
                </g>
        </g>
        <svg viewBox="0 0 15 15" width="100%" height="30px" preserveAspectRatio="xMaxYMin meet">
         <g id="arrow_out" transform="scale(0.3 0.3)">
          <a xlink:href="classft_1_1irc_1_1bot__handler_a0723185e483ae21fa0f2116ca05165fe_cgraph_org.svg" target="_base">
           <rect id="button" ry="5" rx="5" y="6" x="6" height="38" width="38"
                fill="#f2f5e9" fill-opacity="0.5" stroke="#606060" stroke-width="1.0"/>
           <path id="arrow"
             d="M 11.500037,31.436501 C 11.940474,20.09759 22.043105,11.32322 32.158766,21.979434 L 37.068811,17.246167 C 37.068811,17.246167 37.088388,32 37.088388,32 L 22.160133,31.978069 C 22.160133,31.978069 26.997745,27.140456 26.997745,27.140456 C 18.528582,18.264221 13.291696,25.230495 11.500037,31.436501 z"
             style="fill:#404040;"/>
          </a>
         </g>
        </svg>
</svg>
