<?xml version="1.0" encoding="UTF-8" standalone="no"?>
<!DOCTYPE svg PUBLIC "-//W3C//DTD SVG 1.1//EN"
 "http://www.w3.org/Graphics/SVG/1.1/DTD/svg11.dtd">
<!-- Generated by graphviz version 2.43.0 (0)
 -->
<!-- Title: ft::irc::bot::get_owner Pages: 1 -->
<svg width="716pt" height="110pt"
 viewBox="0.00 0.00 716.00 109.50" xmlns="http://www.w3.org/2000/svg" xmlns:xlink="http://www.w3.org/1999/xlink">
<g id="graph0" class="graph" transform="scale(1 1) rotate(0) translate(4 105.5)">
<title>ft::irc::bot::get_owner</title>
<polygon fill="white" stroke="transparent" points="-4,4 -4,-105.5 712,-105.5 712,4 -4,4"/>
<!-- Node1 -->
<g id="node1" class="node">
<title>Node1</title>
<g id="a_node1"><a xlink:title=" ">
<polygon fill="#bfbfbf" stroke="black" points="588,-28 588,-47 708,-47 708,-28 588,-28"/>
<text text-anchor="middle" x="648" y="-35" font-family="Helvetica,sans-Serif" font-size="10.00">ft::irc::bot::get_owner</text>
</a>
</g>
</g>
<!-- Node2 -->
<g id="node2" class="node">
<title>Node2</title>
<g id="a_node2"><a xlink:href="classft_1_1irc_1_1bot.html#aa5023ae6a16be90f32f2d9188dd44af3" target="_top" xlink:title=" ">
<polygon fill="white" stroke="black" points="439,-50 439,-69 552,-69 552,-50 439,-50"/>
<text text-anchor="middle" x="495.5" y="-57" font-family="Helvetica,sans-Serif" font-size="10.00">ft::irc::bot::is_owner</text>
</a>
</g>
</g>
<!-- Node1&#45;&gt;Node2 -->
<g id="edge1" class="edge">
<title>Node1&#45;&gt;Node2</title>
<path fill="none" stroke="midnightblue" d="M577.98,-47.59C569.42,-48.84 560.76,-50.11 552.43,-51.32"/>
<polygon fill="midnightblue" stroke="midnightblue" points="578.56,-51.04 587.95,-46.13 577.55,-44.12 578.56,-51.04"/>
</g>
<!-- Node7 -->
<g id="node7" class="node">
<title>Node7</title>
<g id="a_node7"><a xlink:href="classft_1_1irc_1_1bot.html#a58ddd18dec0b8d177e34479d609ba47b" target="_top" xlink:title=" ">
<polygon fill="white" stroke="black" points="443.5,-0.5 443.5,-30.5 547.5,-30.5 547.5,-0.5 443.5,-0.5"/>
<text text-anchor="start" x="451.5" y="-18.5" font-family="Helvetica,sans-Serif" font-size="10.00">ft::irc::bot::on_bad</text>
<text text-anchor="middle" x="495.5" y="-7.5" font-family="Helvetica,sans-Serif" font-size="10.00">_error</text>
</a>
</g>
</g>
<!-- Node1&#45;&gt;Node7 -->
<g id="edge7" class="edge">
<title>Node1&#45;&gt;Node7</title>
<path fill="none" stroke="midnightblue" d="M577.84,-27.39C567.65,-25.9 557.31,-24.39 547.58,-22.97"/>
<polygon fill="midnightblue" stroke="midnightblue" points="577.55,-30.88 587.95,-28.87 578.56,-23.96 577.55,-30.88"/>
</g>
<!-- Node3 -->
<g id="node3" class="node">
<title>Node3</title>
<g id="a_node3"><a xlink:href="classft_1_1irc_1_1bot.html#aaffa46673180d49934480ec84b9ed18e" target="_top" xlink:title=" ">
<polygon fill="white" stroke="black" points="296,-82 296,-101 403,-101 403,-82 296,-82"/>
<text text-anchor="middle" x="349.5" y="-89" font-family="Helvetica,sans-Serif" font-size="10.00">ft::irc::bot::on_kick</text>
</a>
</g>
</g>
<!-- Node2&#45;&gt;Node3 -->
<g id="edge2" class="edge">
<title>Node2&#45;&gt;Node3</title>
<path fill="none" stroke="midnightblue" d="M441.5,-71.28C425.66,-74.8 408.5,-78.61 393.4,-81.97"/>
<polygon fill="midnightblue" stroke="midnightblue" points="442.68,-74.6 451.69,-69.01 441.16,-67.77 442.68,-74.6"/>
</g>
<!-- Node6 -->
<g id="node6" class="node">
<title>Node6</title>
<g id="a_node6"><a xlink:href="classft_1_1irc_1_1bot.html#adb61ddab4c1cb4fc70bec293666bed90" target="_top" xlink:title=" ">
<polygon fill="white" stroke="black" points="296.5,-44 296.5,-63 402.5,-63 402.5,-44 296.5,-44"/>
<text text-anchor="middle" x="349.5" y="-51" font-family="Helvetica,sans-Serif" font-size="10.00">ft::irc::bot::on_part</text>
</a>
</g>
</g>
<!-- Node2&#45;&gt;Node6 -->
<g id="edge5" class="edge">
<title>Node2&#45;&gt;Node6</title>
<path fill="none" stroke="midnightblue" d="M428.69,-56.76C419.99,-56.4 411.16,-56.03 402.72,-55.68"/>
<polygon fill="midnightblue" stroke="midnightblue" points="428.69,-60.26 438.83,-57.18 428.98,-53.27 428.69,-60.26"/>
</g>
<!-- Node4 -->
<g id="node4" class="node">
<title>Node4</title>
<g id="a_node4"><a xlink:href="classft_1_1irc_1_1bot.html#a0b595213781ed0e5aaf1d48fdb602d98" target="_top" xlink:title=" ">
<polygon fill="white" stroke="black" points="141,-44 141,-63 260,-63 260,-44 141,-44"/>
<text text-anchor="middle" x="200.5" y="-51" font-family="Helvetica,sans-Serif" font-size="10.00">ft::irc::bot::on_packet</text>
</a>
</g>
</g>
<!-- Node3&#45;&gt;Node4 -->
<g id="edge3" class="edge">
<title>Node3&#45;&gt;Node4</title>
<path fill="none" stroke="midnightblue" d="M301.65,-79.39C281.17,-74.1 257.51,-67.98 238.33,-63.02"/>
<polygon fill="midnightblue" stroke="midnightblue" points="300.85,-82.8 311.41,-81.91 302.6,-76.02 300.85,-82.8"/>
</g>
<!-- Node5 -->
<g id="node5" class="node">
<title>Node5</title>
<g id="a_node5"><a xlink:href="classft_1_1irc_1_1bot__handler.html#a0723185e483ae21fa0f2116ca05165fe" target="_top" xlink:title=" ">
<polygon fill="white" stroke="black" points="0,-38.5 0,-68.5 105,-68.5 105,-38.5 0,-38.5"/>
<text text-anchor="start" x="8" y="-56.5" font-family="Helvetica,sans-Serif" font-size="10.00">ft::irc::bot_handler</text>
<text text-anchor="middle" x="52.5" y="-45.5" font-family="Helvetica,sans-Serif" font-size="10.00">::on_read</text>
</a>
</g>
</g>
<!-- Node4&#45;&gt;Node5 -->
<g id="edge4" class="edge">
<title>Node4&#45;&gt;Node5</title>
<path fill="none" stroke="midnightblue" d="M130.96,-53.5C122.38,-53.5 113.72,-53.5 105.46,-53.5"/>
<polygon fill="midnightblue" stroke="midnightblue" points="130.96,-57 140.96,-53.5 130.96,-50 130.96,-57"/>
</g>
<!-- Node6&#45;&gt;Node4 -->
<g id="edge6" class="edge">
<title>Node6&#45;&gt;Node4</title>
<path fill="none" stroke="midnightblue" d="M286.21,-53.5C277.55,-53.5 268.67,-53.5 260.08,-53.5"/>
<polygon fill="midnightblue" stroke="midnightblue" points="286.26,-57 296.26,-53.5 286.26,-50 286.26,-57"/>
</g>
<!-- Node7&#45;&gt;Node4 -->
<g id="edge8" class="edge">
<title>Node7&#45;&gt;Node4</title>
<path fill="none" stroke="midnightblue" d="M433.36,-19.72C394.01,-22.83 341.84,-27.72 296,-34.5 278.95,-37.02 260.32,-40.59 244.15,-43.96"/>
<polygon fill="midnightblue" stroke="midnightblue" points="433.63,-23.21 443.33,-18.94 433.09,-16.23 433.63,-23.21"/>
</g>
</g>
</svg>
