<?xml version="1.0" encoding="UTF-8" standalone="no"?>
<!DOCTYPE svg PUBLIC "-//W3C//DTD SVG 1.1//EN"
 "http://www.w3.org/Graphics/SVG/1.1/DTD/svg11.dtd">
<!-- Generated by graphviz version 2.43.0 (0)
 -->
<!-- Title: ft::irc::client_handler::on_active Pages: 1 -->
<svg width="288pt" height="78pt"
 viewBox="0.00 0.00 288.00 77.50" xmlns="http://www.w3.org/2000/svg" xmlns:xlink="http://www.w3.org/1999/xlink">
<g id="graph0" class="graph" transform="scale(1 1) rotate(0) translate(4 73.5)">
<title>ft::irc::client_handler::on_active</title>
<polygon fill="white" stroke="transparent" points="-4,4 -4,-73.5 284,-73.5 284,4 -4,4"/>
<!-- Node1 -->
<g id="node1" class="node">
<title>Node1</title>
<g id="a_node1"><a xlink:title=" ">
<polygon fill="#bfbfbf" stroke="black" points="0,-22.5 0,-52.5 116,-52.5 116,-22.5 0,-22.5"/>
<text text-anchor="start" x="8" y="-40.5" font-family="Helvetica,sans-Serif" font-size="10.00">ft::irc::client_handler</text>
<text text-anchor="middle" x="58" y="-29.5" font-family="Helvetica,sans-Serif" font-size="10.00">::on_active</text>
</a>
</g>
</g>
<!-- Node2 -->
<g id="node2" class="node">
<title>Node2</title>
<g id="a_node2"><a xlink:href="structft_1_1serv_1_1logger.html#a318b50018ef710a34d9ceea9fcac623c" target="_top" xlink:title=" ">
<polygon fill="white" stroke="black" points="155,-50 155,-69 277,-69 277,-50 155,-50"/>
<text text-anchor="middle" x="216" y="-57" font-family="Helvetica,sans-Serif" font-size="10.00">ft::serv::logger::debug</text>
</a>
</g>
</g>
<!-- Node1&#45;&gt;Node2 -->
<g id="edge1" class="edge">
<title>Node1&#45;&gt;Node2</title>
<path fill="none" stroke="midnightblue" d="M116.2,-45.57C125.56,-46.89 135.35,-48.27 144.98,-49.62"/>
<polygon fill="midnightblue" stroke="midnightblue" points="144.53,-53.1 154.92,-51.03 145.51,-46.17 144.53,-53.1"/>
</g>
<!-- Node3 -->
<g id="node3" class="node">
<title>Node3</title>
<g id="a_node3"><a xlink:href="classft_1_1serv_1_1event__layer.html#a3153c0b405c034e066e5d488617d7ea7" target="_top" xlink:title=" ">
<polygon fill="white" stroke="black" points="152,-0.5 152,-30.5 280,-30.5 280,-0.5 152,-0.5"/>
<text text-anchor="start" x="160" y="-18.5" font-family="Helvetica,sans-Serif" font-size="10.00">ft::serv::event_layer</text>
<text text-anchor="middle" x="216" y="-7.5" font-family="Helvetica,sans-Serif" font-size="10.00">::shared_from_channel</text>
</a>
</g>
</g>
<!-- Node1&#45;&gt;Node3 -->
<g id="edge2" class="edge">
<title>Node1&#45;&gt;Node3</title>
<path fill="none" stroke="midnightblue" d="M116.2,-29.43C124.52,-28.26 133.17,-27.04 141.74,-25.83"/>
<polygon fill="midnightblue" stroke="midnightblue" points="142.34,-29.28 151.75,-24.42 141.36,-22.35 142.34,-29.28"/>
</g>
</g>
</svg>
