<?xml version="1.0" encoding="UTF-8" standalone="no"?>
<!DOCTYPE svg PUBLIC "-//W3C//DTD SVG 1.1//EN"
 "http://www.w3.org/Graphics/SVG/1.1/DTD/svg11.dtd">
<!-- Generated by graphviz version 2.43.0 (0)
 -->
<!-- Title: ft::irc::user::is_channel_member Pages: 1 -->
<svg width="444pt" height="412pt"
 viewBox="0.00 0.00 444.00 412.14" xmlns="http://www.w3.org/2000/svg" xmlns:xlink="http://www.w3.org/1999/xlink">
<g id="graph0" class="graph" transform="scale(1 1) rotate(0) translate(4 408.14)">
<title>ft::irc::user::is_channel_member</title>
<polygon fill="white" stroke="transparent" points="-4,4 -4,-408.14 440,-408.14 440,4 -4,4"/>
<!-- Node1 -->
<g id="node1" class="node">
<title>Node1</title>
<g id="a_node1"><a xlink:title=" ">
<polygon fill="#bfbfbf" stroke="black" points="310,-194.5 310,-224.5 436,-224.5 436,-194.5 310,-194.5"/>
<text text-anchor="start" x="318" y="-212.5" font-family="Helvetica,sans-Serif" font-size="10.00">ft::irc::user::is_channel</text>
<text text-anchor="middle" x="373" y="-201.5" font-family="Helvetica,sans-Serif" font-size="10.00">_member</text>
</a>
</g>
</g>
<!-- Node2 -->
<g id="node2" class="node">
<title>Node2</title>
<g id="a_node2"><a xlink:href="classft_1_1irc_1_1processor__join.html#a7005b0403c1e6e10aa6f6f05339df357" target="_top" xlink:title=" ">
<polygon fill="white" stroke="black" points="2,-241.5 2,-271.5 97,-271.5 97,-241.5 2,-241.5"/>
<text text-anchor="start" x="10" y="-259.5" font-family="Helvetica,sans-Serif" font-size="10.00">ft::irc::processor</text>
<text text-anchor="middle" x="49.5" y="-248.5" font-family="Helvetica,sans-Serif" font-size="10.00">_join::execute</text>
</a>
</g>
</g>
<!-- Node1&#45;&gt;Node2 -->
<g id="edge1" class="edge">
<title>Node1&#45;&gt;Node2</title>
<path fill="none" stroke="midnightblue" d="M366.26,-234.46C355.68,-273.93 328.98,-349.55 274,-381.5 220.59,-412.54 189.56,-410.47 135,-381.5 90.58,-357.91 65.26,-299.39 55.37,-271.61"/>
<polygon fill="midnightblue" stroke="midnightblue" points="369.7,-235.13 368.77,-224.57 362.91,-233.4 369.7,-235.13"/>
</g>
<!-- Node3 -->
<g id="node3" class="node">
<title>Node3</title>
<g id="a_node3"><a xlink:href="classft_1_1irc_1_1processor__part.html#a4075107cb360cd04c0a11a9904104ad0" target="_top" xlink:title=" ">
<polygon fill="white" stroke="black" points="157,-341.5 157,-371.5 252,-371.5 252,-341.5 157,-341.5"/>
<text text-anchor="start" x="165" y="-359.5" font-family="Helvetica,sans-Serif" font-size="10.00">ft::irc::processor</text>
<text text-anchor="middle" x="204.5" y="-348.5" font-family="Helvetica,sans-Serif" font-size="10.00">_part::execute</text>
</a>
</g>
</g>
<!-- Node1&#45;&gt;Node3 -->
<g id="edge2" class="edge">
<title>Node1&#45;&gt;Node3</title>
<path fill="none" stroke="midnightblue" d="M358.53,-233.61C341.98,-261.18 311.44,-305.91 274,-332.5 267.42,-337.17 259.86,-341 252.2,-344.13"/>
<polygon fill="midnightblue" stroke="midnightblue" points="361.75,-235.03 363.79,-224.63 355.71,-231.49 361.75,-235.03"/>
</g>
<!-- Node4 -->
<g id="node4" class="node">
<title>Node4</title>
<g id="a_node4"><a xlink:href="classft_1_1irc_1_1processor__mode.html#ad013987a789be47379c13f61364135a6" target="_top" xlink:title=" ">
<polygon fill="white" stroke="black" points="157,-292.5 157,-322.5 252,-322.5 252,-292.5 157,-292.5"/>
<text text-anchor="start" x="165" y="-310.5" font-family="Helvetica,sans-Serif" font-size="10.00">ft::irc::processor</text>
<text text-anchor="middle" x="204.5" y="-299.5" font-family="Helvetica,sans-Serif" font-size="10.00">_mode::execute</text>
</a>
</g>
</g>
<!-- Node1&#45;&gt;Node4 -->
<g id="edge3" class="edge">
<title>Node1&#45;&gt;Node4</title>
<path fill="none" stroke="midnightblue" d="M347.83,-231.15C328.83,-247.29 301.13,-268.96 274,-283.5 267.11,-287.19 259.54,-290.5 252.03,-293.4"/>
<polygon fill="midnightblue" stroke="midnightblue" points="350.12,-233.79 355.41,-224.61 345.55,-228.49 350.12,-233.79"/>
</g>
<!-- Node5 -->
<g id="node5" class="node">
<title>Node5</title>
<g id="a_node5"><a xlink:href="classft_1_1irc_1_1processor__topic.html#ae4eec2a7267b66791a72bbab1d4842c0" target="_top" xlink:title=" ">
<polygon fill="white" stroke="black" points="157,-243.5 157,-273.5 252,-273.5 252,-243.5 157,-243.5"/>
<text text-anchor="start" x="165" y="-261.5" font-family="Helvetica,sans-Serif" font-size="10.00">ft::irc::processor</text>
<text text-anchor="middle" x="204.5" y="-250.5" font-family="Helvetica,sans-Serif" font-size="10.00">_topic::execute</text>
</a>
</g>
</g>
<!-- Node1&#45;&gt;Node5 -->
<g id="edge4" class="edge">
<title>Node1&#45;&gt;Node5</title>
<path fill="none" stroke="midnightblue" d="M311,-227.45C291.56,-233.17 270.37,-239.41 252.12,-244.78"/>
<polygon fill="midnightblue" stroke="midnightblue" points="312.08,-230.78 320.69,-224.6 310.1,-224.07 312.08,-230.78"/>
</g>
<!-- Node6 -->
<g id="node6" class="node">
<title>Node6</title>
<g id="a_node6"><a xlink:href="classft_1_1irc_1_1processor__invite.html#a558fbe35293f4a0783af9a50f7146eeb" target="_top" xlink:title=" ">
<polygon fill="white" stroke="black" points="157,-194.5 157,-224.5 252,-224.5 252,-194.5 157,-194.5"/>
<text text-anchor="start" x="165" y="-212.5" font-family="Helvetica,sans-Serif" font-size="10.00">ft::irc::processor</text>
<text text-anchor="middle" x="204.5" y="-201.5" font-family="Helvetica,sans-Serif" font-size="10.00">_invite::execute</text>
</a>
</g>
</g>
<!-- Node1&#45;&gt;Node6 -->
<g id="edge5" class="edge">
<title>Node1&#45;&gt;Node6</title>
<path fill="none" stroke="midnightblue" d="M299.16,-209.5C283.22,-209.5 266.77,-209.5 252.19,-209.5"/>
<polygon fill="midnightblue" stroke="midnightblue" points="299.53,-213 309.53,-209.5 299.53,-206 299.53,-213"/>
</g>
<!-- Node7 -->
<g id="node7" class="node">
<title>Node7</title>
<g id="a_node7"><a xlink:href="classft_1_1irc_1_1processor__kick.html#ac453ac8376e577bb0a2b4f074fe9be1b" target="_top" xlink:title=" ">
<polygon fill="white" stroke="black" points="157,-145.5 157,-175.5 252,-175.5 252,-145.5 157,-145.5"/>
<text text-anchor="start" x="165" y="-163.5" font-family="Helvetica,sans-Serif" font-size="10.00">ft::irc::processor</text>
<text text-anchor="middle" x="204.5" y="-152.5" font-family="Helvetica,sans-Serif" font-size="10.00">_kick::execute</text>
</a>
</g>
</g>
<!-- Node1&#45;&gt;Node7 -->
<g id="edge6" class="edge">
<title>Node1&#45;&gt;Node7</title>
<path fill="none" stroke="midnightblue" d="M311,-191.55C291.56,-185.83 270.37,-179.59 252.12,-174.22"/>
<polygon fill="midnightblue" stroke="midnightblue" points="310.1,-194.93 320.69,-194.4 312.08,-188.22 310.1,-194.93"/>
</g>
<!-- Node8 -->
<g id="node8" class="node">
<title>Node8</title>
<g id="a_node8"><a xlink:href="classft_1_1irc_1_1processor__message__base.html#ab3fba6f27483543b9c7a559fd2e1402b" target="_top" xlink:title=" ">
<polygon fill="white" stroke="black" points="135,-96.5 135,-126.5 274,-126.5 274,-96.5 135,-96.5"/>
<text text-anchor="start" x="143" y="-114.5" font-family="Helvetica,sans-Serif" font-size="10.00">ft::irc::processor</text>
<text text-anchor="middle" x="204.5" y="-103.5" font-family="Helvetica,sans-Serif" font-size="10.00">_message_base::execute</text>
</a>
</g>
</g>
<!-- Node1&#45;&gt;Node8 -->
<g id="edge7" class="edge">
<title>Node1&#45;&gt;Node8</title>
<path fill="none" stroke="midnightblue" d="M347.12,-187.77C328.09,-171.96 300.67,-150.9 274,-136.5 267.2,-132.83 259.76,-129.49 252.36,-126.53"/>
<polygon fill="midnightblue" stroke="midnightblue" points="345.09,-190.63 354.99,-194.4 349.6,-185.28 345.09,-190.63"/>
</g>
<!-- Node9 -->
<g id="node9" class="node">
<title>Node9</title>
<g id="a_node9"><a xlink:href="classft_1_1irc_1_1server.html#a3f4e06d5a9cf57441582f77b95f87135" target="_top" xlink:title=" ">
<polygon fill="white" stroke="black" points="140.5,-8 140.5,-27 268.5,-27 268.5,-8 140.5,-8"/>
<text text-anchor="middle" x="204.5" y="-15" font-family="Helvetica,sans-Serif" font-size="10.00">ft::irc::server::send_list</text>
</a>
</g>
</g>
<!-- Node1&#45;&gt;Node9 -->
<g id="edge8" class="edge">
<title>Node1&#45;&gt;Node9</title>
<path fill="none" stroke="midnightblue" d="M364.55,-184.63C352.02,-147.12 323.18,-76.34 274,-37.5 268.46,-33.12 261.99,-29.7 255.28,-27.03"/>
<polygon fill="midnightblue" stroke="midnightblue" points="361.25,-185.83 367.65,-194.27 367.92,-183.68 361.25,-185.83"/>
</g>
<!-- Node11 -->
<g id="node11" class="node">
<title>Node11</title>
<g id="a_node11"><a xlink:href="classft_1_1irc_1_1channel.html#a5b005d44090820196503e46e45724a51" target="_top" xlink:title=" ">
<polygon fill="white" stroke="black" points="147,-47.5 147,-77.5 262,-77.5 262,-47.5 147,-47.5"/>
<text text-anchor="start" x="155" y="-65.5" font-family="Helvetica,sans-Serif" font-size="10.00">ft::irc::channel::send</text>
<text text-anchor="middle" x="204.5" y="-54.5" font-family="Helvetica,sans-Serif" font-size="10.00">_names</text>
</a>
</g>
</g>
<!-- Node1&#45;&gt;Node11 -->
<g id="edge10" class="edge">
<title>Node1&#45;&gt;Node11</title>
<path fill="none" stroke="midnightblue" d="M358.15,-185.24C341.44,-157.94 310.93,-113.98 274,-87.5 268.65,-83.66 262.65,-80.36 256.48,-77.52"/>
<polygon fill="midnightblue" stroke="midnightblue" points="355.34,-187.35 363.48,-194.14 361.35,-183.76 355.34,-187.35"/>
</g>
<!-- Node10 -->
<g id="node10" class="node">
<title>Node10</title>
<g id="a_node10"><a xlink:href="classft_1_1irc_1_1processor__list.html#aa4ed52d03d87a5f03d9c6d2e53e0409b" target="_top" xlink:title=" ">
<polygon fill="white" stroke="black" points="2,-0.5 2,-30.5 97,-30.5 97,-0.5 2,-0.5"/>
<text text-anchor="start" x="10" y="-18.5" font-family="Helvetica,sans-Serif" font-size="10.00">ft::irc::processor</text>
<text text-anchor="middle" x="49.5" y="-7.5" font-family="Helvetica,sans-Serif" font-size="10.00">_list::execute</text>
</a>
</g>
</g>
<!-- Node9&#45;&gt;Node10 -->
<g id="edge9" class="edge">
<title>Node9&#45;&gt;Node10</title>
<path fill="none" stroke="midnightblue" d="M130.12,-16.54C118.88,-16.39 107.55,-16.25 97.11,-16.11"/>
<polygon fill="midnightblue" stroke="midnightblue" points="130.34,-20.04 140.39,-16.67 130.43,-13.04 130.34,-20.04"/>
</g>
<!-- Node11&#45;&gt;Node2 -->
<g id="edge11" class="edge">
<title>Node11&#45;&gt;Node2</title>
<path fill="none" stroke="midnightblue" d="M141.04,-82.74C138.93,-84.22 136.9,-85.8 135,-87.5 86.54,-130.74 62.49,-208.19 54.08,-241.07"/>
<polygon fill="midnightblue" stroke="midnightblue" points="142.88,-85.72 149.61,-77.54 139.25,-79.74 142.88,-85.72"/>
</g>
<!-- Node12 -->
<g id="node12" class="node">
<title>Node12</title>
<g id="a_node12"><a xlink:href="classft_1_1irc_1_1processor__names.html#a95f660c1020ac7f26cceacd932f48f09" target="_top" xlink:title=" ">
<polygon fill="white" stroke="black" points="0,-49.5 0,-79.5 99,-79.5 99,-49.5 0,-49.5"/>
<text text-anchor="start" x="8" y="-67.5" font-family="Helvetica,sans-Serif" font-size="10.00">ft::irc::processor</text>
<text text-anchor="middle" x="49.5" y="-56.5" font-family="Helvetica,sans-Serif" font-size="10.00">_names::execute</text>
</a>
</g>
</g>
<!-- Node11&#45;&gt;Node12 -->
<g id="edge12" class="edge">
<title>Node11&#45;&gt;Node12</title>
<path fill="none" stroke="midnightblue" d="M136.92,-63.37C124.26,-63.54 111.24,-63.71 99.26,-63.86"/>
<polygon fill="midnightblue" stroke="midnightblue" points="137.01,-66.87 146.96,-63.24 136.92,-59.87 137.01,-66.87"/>
</g>
</g>
</svg>
