<?xml version="1.0" encoding="UTF-8" standalone="no"?>
<!DOCTYPE svg PUBLIC "-//W3C//DTD SVG 1.1//EN"
 "http://www.w3.org/Graphics/SVG/1.1/DTD/svg11.dtd">
<!-- Generated by graphviz version 2.43.0 (0)
 -->
<!-- Title: ft::irc::user::load_mode Pages: 1 -->
<svg width="610pt" height="134pt"
 viewBox="0.00 0.00 610.00 134.00" xmlns="http://www.w3.org/2000/svg" xmlns:xlink="http://www.w3.org/1999/xlink">
<g id="graph0" class="graph" transform="scale(1 1) rotate(0) translate(4 130)">
<title>ft::irc::user::load_mode</title>
<polygon fill="white" stroke="transparent" points="-4,4 -4,-130 606,-130 606,4 -4,4"/>
<!-- Node1 -->
<g id="node1" class="node">
<title>Node1</title>
<g id="a_node1"><a xlink:title=" ">
<polygon fill="#bfbfbf" stroke="black" points="474,-55 474,-74 602,-74 602,-55 474,-55"/>
<text text-anchor="middle" x="538" y="-62" font-family="Helvetica,sans-Serif" font-size="10.00">ft::irc::user::load_mode</text>
</a>
</g>
</g>
<!-- Node2 -->
<g id="node2" class="node">
<title>Node2</title>
<g id="a_node2"><a xlink:href="classft_1_1irc_1_1channel.html#a548d09eca34e5aff0c20939ab28c7cc6" target="_top" xlink:title=" ">
<polygon fill="white" stroke="black" points="295,-99 295,-118 438,-118 438,-99 295,-99"/>
<text text-anchor="middle" x="366.5" y="-106" font-family="Helvetica,sans-Serif" font-size="10.00">ft::irc::channel::enter_user</text>
</a>
</g>
</g>
<!-- Node1&#45;&gt;Node2 -->
<g id="edge1" class="edge">
<title>Node1&#45;&gt;Node2</title>
<path fill="none" stroke="midnightblue" d="M490.53,-76.56C463.35,-83.62 429.51,-92.4 404.21,-98.97"/>
<polygon fill="midnightblue" stroke="midnightblue" points="491.42,-79.95 500.22,-74.05 489.66,-73.17 491.42,-79.95"/>
</g>
<!-- Node4 -->
<g id="node4" class="node">
<title>Node4</title>
<g id="a_node4"><a xlink:href="classft_1_1irc_1_1processor__dictionary.html#a50bd8e9f89f6f6a911f5495272cd7d41" target="_top" xlink:title=" ">
<polygon fill="white" stroke="black" points="309.5,-49.5 309.5,-79.5 423.5,-79.5 423.5,-49.5 309.5,-49.5"/>
<text text-anchor="start" x="317.5" y="-67.5" font-family="Helvetica,sans-Serif" font-size="10.00">ft::irc::processor</text>
<text text-anchor="middle" x="366.5" y="-56.5" font-family="Helvetica,sans-Serif" font-size="10.00">_dictionary::execute</text>
</a>
</g>
</g>
<!-- Node1&#45;&gt;Node4 -->
<g id="edge3" class="edge">
<title>Node1&#45;&gt;Node4</title>
<path fill="none" stroke="midnightblue" d="M463.73,-64.5C450.31,-64.5 436.51,-64.5 423.69,-64.5"/>
<polygon fill="midnightblue" stroke="midnightblue" points="463.88,-68 473.88,-64.5 463.88,-61 463.88,-68"/>
</g>
<!-- Node6 -->
<g id="node6" class="node">
<title>Node6</title>
<g id="a_node6"><a xlink:href="classft_1_1irc_1_1channel.html#a100e4675a208e92a535b7ff338b70706" target="_top" xlink:title=" ">
<polygon fill="white" stroke="black" points="307,-0.5 307,-30.5 426,-30.5 426,-0.5 307,-0.5"/>
<text text-anchor="start" x="315" y="-18.5" font-family="Helvetica,sans-Serif" font-size="10.00">ft::irc::channel::make</text>
<text text-anchor="middle" x="366.5" y="-7.5" font-family="Helvetica,sans-Serif" font-size="10.00">_list_packet</text>
</a>
</g>
</g>
<!-- Node1&#45;&gt;Node6 -->
<g id="edge5" class="edge">
<title>Node1&#45;&gt;Node6</title>
<path fill="none" stroke="midnightblue" d="M494.22,-52.13C471.53,-45.57 443.46,-37.46 419.52,-30.54"/>
<polygon fill="midnightblue" stroke="midnightblue" points="493.34,-55.52 503.92,-54.94 495.28,-48.8 493.34,-55.52"/>
</g>
<!-- Node3 -->
<g id="node3" class="node">
<title>Node3</title>
<g id="a_node3"><a xlink:href="classft_1_1irc_1_1processor__join.html#a7005b0403c1e6e10aa6f6f05339df357" target="_top" xlink:title=" ">
<polygon fill="white" stroke="black" points="147.5,-95.5 147.5,-125.5 242.5,-125.5 242.5,-95.5 147.5,-95.5"/>
<text text-anchor="start" x="155.5" y="-113.5" font-family="Helvetica,sans-Serif" font-size="10.00">ft::irc::processor</text>
<text text-anchor="middle" x="195" y="-102.5" font-family="Helvetica,sans-Serif" font-size="10.00">_join::execute</text>
</a>
</g>
</g>
<!-- Node2&#45;&gt;Node3 -->
<g id="edge2" class="edge">
<title>Node2&#45;&gt;Node3</title>
<path fill="none" stroke="midnightblue" d="M284.32,-109.46C270.15,-109.63 255.84,-109.79 242.99,-109.95"/>
<polygon fill="midnightblue" stroke="midnightblue" points="284.64,-112.95 294.6,-109.34 284.56,-105.95 284.64,-112.95"/>
</g>
<!-- Node5 -->
<g id="node5" class="node">
<title>Node5</title>
<g id="a_node5"><a xlink:href="classft_1_1irc_1_1client__handler.html#a239d2ec2a936d74893455a83468669b3" target="_top" xlink:title=" ">
<polygon fill="white" stroke="black" points="137,-46.5 137,-76.5 253,-76.5 253,-46.5 137,-46.5"/>
<text text-anchor="start" x="145" y="-64.5" font-family="Helvetica,sans-Serif" font-size="10.00">ft::irc::client_handler</text>
<text text-anchor="middle" x="195" y="-53.5" font-family="Helvetica,sans-Serif" font-size="10.00">::on_read</text>
</a>
</g>
</g>
<!-- Node4&#45;&gt;Node5 -->
<g id="edge4" class="edge">
<title>Node4&#45;&gt;Node5</title>
<path fill="none" stroke="midnightblue" d="M298.75,-63.32C283.64,-63.05 267.73,-62.77 253.06,-62.51"/>
<polygon fill="midnightblue" stroke="midnightblue" points="299,-66.82 309.06,-63.5 299.12,-59.82 299,-66.82"/>
</g>
<!-- Node7 -->
<g id="node7" class="node">
<title>Node7</title>
<g id="a_node7"><a xlink:href="classft_1_1irc_1_1server.html#a3f4e06d5a9cf57441582f77b95f87135" target="_top" xlink:title=" ">
<polygon fill="white" stroke="black" points="131,-6 131,-25 259,-25 259,-6 131,-6"/>
<text text-anchor="middle" x="195" y="-13" font-family="Helvetica,sans-Serif" font-size="10.00">ft::irc::server::send_list</text>
</a>
</g>
</g>
<!-- Node6&#45;&gt;Node7 -->
<g id="edge6" class="edge">
<title>Node6&#45;&gt;Node7</title>
<path fill="none" stroke="midnightblue" d="M296.43,-15.5C284.06,-15.5 271.23,-15.5 259.04,-15.5"/>
<polygon fill="midnightblue" stroke="midnightblue" points="296.69,-19 306.69,-15.5 296.69,-12 296.69,-19"/>
</g>
<!-- Node8 -->
<g id="node8" class="node">
<title>Node8</title>
<g id="a_node8"><a xlink:href="classft_1_1irc_1_1processor__list.html#aa4ed52d03d87a5f03d9c6d2e53e0409b" target="_top" xlink:title=" ">
<polygon fill="white" stroke="black" points="0,-0.5 0,-30.5 95,-30.5 95,-0.5 0,-0.5"/>
<text text-anchor="start" x="8" y="-18.5" font-family="Helvetica,sans-Serif" font-size="10.00">ft::irc::processor</text>
<text text-anchor="middle" x="47.5" y="-7.5" font-family="Helvetica,sans-Serif" font-size="10.00">_list::execute</text>
</a>
</g>
</g>
<!-- Node7&#45;&gt;Node8 -->
<g id="edge7" class="edge">
<title>Node7&#45;&gt;Node8</title>
<path fill="none" stroke="midnightblue" d="M120.47,-15.5C111.82,-15.5 103.19,-15.5 95.06,-15.5"/>
<polygon fill="midnightblue" stroke="midnightblue" points="120.6,-19 130.6,-15.5 120.6,-12 120.6,-19"/>
</g>
</g>
</svg>
