<?xml version="1.0" encoding="UTF-8" standalone="no"?>
<!DOCTYPE svg PUBLIC "-//W3C//DTD SVG 1.1//EN"
 "http://www.w3.org/Graphics/SVG/1.1/DTD/svg11.dtd">
<!-- Generated by graphviz version 2.43.0 (0)
 -->
<!-- Title: ft::irc::processor_user::execute Pages: 1 -->
<svg width="460pt" height="470pt"
 viewBox="0.00 0.00 460.00 469.50" xmlns="http://www.w3.org/2000/svg" xmlns:xlink="http://www.w3.org/1999/xlink">
<g id="graph0" class="graph" transform="scale(1 1) rotate(0) translate(4 465.5)">
<title>ft::irc::processor_user::execute</title>
<polygon fill="white" stroke="transparent" points="-4,4 -4,-465.5 456,-465.5 456,4 -4,4"/>
<!-- Node1 -->
<g id="node1" class="node">
<title>Node1</title>
<g id="a_node1"><a xlink:title=" ">
<polygon fill="#bfbfbf" stroke="black" points="0,-185 0,-215 95,-215 95,-185 0,-185"/>
<text text-anchor="start" x="8" y="-203" font-family="Helvetica,sans-Serif" font-size="10.00">ft::irc::processor</text>
<text text-anchor="middle" x="47.5" y="-192" font-family="Helvetica,sans-Serif" font-size="10.00">_user::execute</text>
</a>
</g>
</g>
<!-- Node2 -->
<g id="node2" class="node">
<title>Node2</title>
<g id="a_node2"><a xlink:href="structft_1_1irc_1_1make__error.html#a6f8fa7cb4070da5f43099f44a0cb6c66" target="_top" xlink:title=" ">
<polygon fill="white" stroke="black" points="142.5,-347 142.5,-377 256.5,-377 256.5,-347 142.5,-347"/>
<text text-anchor="start" x="150.5" y="-365" font-family="Helvetica,sans-Serif" font-size="10.00">ft::irc::make_error</text>
<text text-anchor="middle" x="199.5" y="-354" font-family="Helvetica,sans-Serif" font-size="10.00">::already_registered</text>
</a>
</g>
</g>
<!-- Node1&#45;&gt;Node2 -->
<g id="edge1" class="edge">
<title>Node1&#45;&gt;Node2</title>
<path fill="none" stroke="midnightblue" d="M53.62,-215.19C63.87,-243.38 89.56,-304.02 131,-338 132.55,-339.27 134.17,-340.48 135.85,-341.62"/>
<polygon fill="midnightblue" stroke="midnightblue" points="134.28,-344.76 144.66,-346.85 137.85,-338.74 134.28,-344.76"/>
</g>
<!-- Node3 -->
<g id="node3" class="node">
<title>Node3</title>
<g id="a_node3"><a xlink:href="classft_1_1irc_1_1user.html#a080531f81f28fd4b65d15f603d1af818" target="_top" xlink:title=" ">
<polygon fill="white" stroke="black" points="154.5,-298 154.5,-328 244.5,-328 244.5,-298 154.5,-298"/>
<text text-anchor="start" x="162.5" y="-316" font-family="Helvetica,sans-Serif" font-size="10.00">ft::irc::user::get</text>
<text text-anchor="middle" x="199.5" y="-305" font-family="Helvetica,sans-Serif" font-size="10.00">_register_state</text>
</a>
</g>
</g>
<!-- Node1&#45;&gt;Node3 -->
<g id="edge2" class="edge">
<title>Node1&#45;&gt;Node3</title>
<path fill="none" stroke="midnightblue" d="M59.13,-215.1C73.44,-234.43 100.64,-267.84 131,-288 135.31,-290.86 140,-293.46 144.82,-295.79"/>
<polygon fill="midnightblue" stroke="midnightblue" points="143.65,-299.1 154.21,-299.96 146.49,-292.7 143.65,-299.1"/>
</g>
<!-- Node4 -->
<g id="node4" class="node">
<title>Node4</title>
<g id="a_node4"><a xlink:href="classft_1_1irc_1_1user.html#a7d133deb3a63faa2627b50cbbdf3a607" target="_top" xlink:title=" ">
<polygon fill="white" stroke="black" points="131,-259.5 131,-278.5 268,-278.5 268,-259.5 131,-259.5"/>
<text text-anchor="middle" x="199.5" y="-266.5" font-family="Helvetica,sans-Serif" font-size="10.00">ft::irc::user::is_registered</text>
</a>
</g>
</g>
<!-- Node1&#45;&gt;Node4 -->
<g id="edge3" class="edge">
<title>Node1&#45;&gt;Node4</title>
<path fill="none" stroke="midnightblue" d="M69.69,-215.05C85.86,-225.98 109.03,-240.46 131,-250 136.44,-252.36 142.25,-254.51 148.09,-256.44"/>
<polygon fill="midnightblue" stroke="midnightblue" points="147.31,-259.87 157.9,-259.49 149.39,-253.18 147.31,-259.87"/>
</g>
<!-- Node5 -->
<g id="node5" class="node">
<title>Node5</title>
<g id="a_node5"><a xlink:href="classft_1_1irc_1_1user.html#affa6016f0c81205cd3c60ea6e9706132" target="_top" xlink:title=" ">
<polygon fill="white" stroke="black" points="143.5,-210 143.5,-240 255.5,-240 255.5,-210 143.5,-210"/>
<text text-anchor="start" x="151.5" y="-228" font-family="Helvetica,sans-Serif" font-size="10.00">ft::irc::user::register</text>
<text text-anchor="middle" x="199.5" y="-217" font-family="Helvetica,sans-Serif" font-size="10.00">_to_server</text>
</a>
</g>
</g>
<!-- Node1&#45;&gt;Node5 -->
<g id="edge4" class="edge">
<title>Node1&#45;&gt;Node5</title>
<path fill="none" stroke="midnightblue" d="M95.14,-207.77C107.22,-209.79 120.45,-211.99 133.29,-214.13"/>
<polygon fill="midnightblue" stroke="midnightblue" points="133.03,-217.64 143.47,-215.83 134.19,-210.73 133.03,-217.64"/>
</g>
<!-- Node16 -->
<g id="node16" class="node">
<title>Node16</title>
<g id="a_node16"><a xlink:href="classft_1_1irc_1_1user.html#a1db558d6d694ca943224c2440fe36c50" target="_top" xlink:title=" ">
<polygon fill="white" stroke="black" points="150.5,-161 150.5,-191 248.5,-191 248.5,-161 150.5,-161"/>
<text text-anchor="start" x="158.5" y="-179" font-family="Helvetica,sans-Serif" font-size="10.00">ft::irc::user::send</text>
<text text-anchor="middle" x="199.5" y="-168" font-family="Helvetica,sans-Serif" font-size="10.00">_message</text>
</a>
</g>
</g>
<!-- Node1&#45;&gt;Node16 -->
<g id="edge15" class="edge">
<title>Node1&#45;&gt;Node16</title>
<path fill="none" stroke="midnightblue" d="M95.14,-192.54C109.39,-190.26 125.25,-187.72 140.18,-185.33"/>
<polygon fill="midnightblue" stroke="midnightblue" points="141.01,-188.74 150.34,-183.71 139.91,-181.83 141.01,-188.74"/>
</g>
<!-- Node17 -->
<g id="node17" class="node">
<title>Node17</title>
<g id="a_node17"><a xlink:href="classft_1_1irc_1_1user.html#a4c180ab232dc971d05a466d72daf1e3a" target="_top" xlink:title=" ">
<polygon fill="white" stroke="black" points="155,-112 155,-142 244,-142 244,-112 155,-112"/>
<text text-anchor="start" x="163" y="-130" font-family="Helvetica,sans-Serif" font-size="10.00">ft::irc::user::set</text>
<text text-anchor="middle" x="199.5" y="-119" font-family="Helvetica,sans-Serif" font-size="10.00">_realname</text>
</a>
</g>
</g>
<!-- Node1&#45;&gt;Node17 -->
<g id="edge16" class="edge">
<title>Node1&#45;&gt;Node17</title>
<path fill="none" stroke="midnightblue" d="M72.1,-184.81C88.28,-174.75 110.47,-161.69 131,-152 135.61,-149.82 140.47,-147.7 145.38,-145.68"/>
<polygon fill="midnightblue" stroke="midnightblue" points="146.84,-148.87 154.83,-141.92 144.25,-142.37 146.84,-148.87"/>
</g>
<!-- Node18 -->
<g id="node18" class="node">
<title>Node18</title>
<g id="a_node18"><a xlink:href="classft_1_1irc_1_1user.html#a9bf0e20ae3e94760f4d135790e2877d8" target="_top" xlink:title=" ">
<polygon fill="white" stroke="black" points="155,-63 155,-93 244,-93 244,-63 155,-63"/>
<text text-anchor="start" x="163" y="-81" font-family="Helvetica,sans-Serif" font-size="10.00">ft::irc::user::set</text>
<text text-anchor="middle" x="199.5" y="-70" font-family="Helvetica,sans-Serif" font-size="10.00">_register_state</text>
</a>
</g>
</g>
<!-- Node1&#45;&gt;Node18 -->
<g id="edge17" class="edge">
<title>Node1&#45;&gt;Node18</title>
<path fill="none" stroke="midnightblue" d="M57.83,-184.75C71.46,-163.64 98.75,-125.55 131,-103 135.48,-99.87 140.4,-97.07 145.48,-94.6"/>
<polygon fill="midnightblue" stroke="midnightblue" points="147.02,-97.74 154.73,-90.47 144.17,-91.35 147.02,-97.74"/>
</g>
<!-- Node19 -->
<g id="node19" class="node">
<title>Node19</title>
<g id="a_node19"><a xlink:href="classft_1_1irc_1_1user.html#a1e0a86674053819cccf1589b95db4060" target="_top" xlink:title=" ">
<polygon fill="white" stroke="black" points="155,-14 155,-44 244,-44 244,-14 155,-14"/>
<text text-anchor="start" x="163" y="-32" font-family="Helvetica,sans-Serif" font-size="10.00">ft::irc::user::set</text>
<text text-anchor="middle" x="199.5" y="-21" font-family="Helvetica,sans-Serif" font-size="10.00">_username</text>
</a>
</g>
</g>
<!-- Node1&#45;&gt;Node19 -->
<g id="edge18" class="edge">
<title>Node1&#45;&gt;Node19</title>
<path fill="none" stroke="midnightblue" d="M53.11,-184.9C62.8,-155.59 88,-90.63 131,-54 135.45,-50.21 140.52,-46.97 145.85,-44.21"/>
<polygon fill="midnightblue" stroke="midnightblue" points="147.37,-47.36 154.98,-39.99 144.44,-41.01 147.37,-47.36"/>
</g>
<!-- Node6 -->
<g id="node6" class="node">
<title>Node6</title>
<g id="a_node6"><a xlink:href="structft_1_1irc_1_1make__reply.html#ad65f94ea29a9d677937915bf6d92aed2" target="_top" xlink:title=" ">
<polygon fill="white" stroke="black" points="326,-431 326,-461 430,-461 430,-431 326,-431"/>
<text text-anchor="start" x="334" y="-449" font-family="Helvetica,sans-Serif" font-size="10.00">ft::irc::make_reply</text>
<text text-anchor="middle" x="378" y="-438" font-family="Helvetica,sans-Serif" font-size="10.00">::end_of_motd</text>
</a>
</g>
</g>
<!-- Node5&#45;&gt;Node6 -->
<g id="edge5" class="edge">
<title>Node5&#45;&gt;Node6</title>
<path fill="none" stroke="midnightblue" d="M255.64,-239.67C260.26,-242.52 264.49,-245.93 268,-250 318.98,-309.17 251.93,-363.79 304,-422 307.58,-426 311.83,-429.33 316.46,-432.11"/>
<polygon fill="midnightblue" stroke="midnightblue" points="315.25,-435.42 325.76,-436.81 318.41,-429.18 315.25,-435.42"/>
</g>
<!-- Node7 -->
<g id="node7" class="node">
<title>Node7</title>
<g id="a_node7"><a xlink:href="structft_1_1irc_1_1make__reply.html#af8641b515a8bfe338b4b3ed793cb4677" target="_top" xlink:title=" ">
<polygon fill="white" stroke="black" points="326,-382 326,-412 430,-412 430,-382 326,-382"/>
<text text-anchor="start" x="334" y="-400" font-family="Helvetica,sans-Serif" font-size="10.00">ft::irc::make_reply</text>
<text text-anchor="middle" x="378" y="-389" font-family="Helvetica,sans-Serif" font-size="10.00">::luser_channels</text>
</a>
</g>
</g>
<!-- Node5&#45;&gt;Node7 -->
<g id="edge6" class="edge">
<title>Node5&#45;&gt;Node7</title>
<path fill="none" stroke="midnightblue" d="M255.64,-240.15C260.2,-242.91 264.42,-246.16 268,-250 306.84,-291.66 264.39,-332.07 304,-373 307.67,-376.8 311.96,-379.99 316.58,-382.69"/>
<polygon fill="midnightblue" stroke="midnightblue" points="315.29,-385.95 325.8,-387.26 318.4,-379.68 315.29,-385.95"/>
</g>
<!-- Node8 -->
<g id="node8" class="node">
<title>Node8</title>
<g id="a_node8"><a xlink:href="structft_1_1irc_1_1make__reply.html#a03397f6e9db01891c6cf1f1526ead9a5" target="_top" xlink:title=" ">
<polygon fill="white" stroke="black" points="326,-333 326,-363 430,-363 430,-333 326,-333"/>
<text text-anchor="start" x="334" y="-351" font-family="Helvetica,sans-Serif" font-size="10.00">ft::irc::make_reply</text>
<text text-anchor="middle" x="378" y="-340" font-family="Helvetica,sans-Serif" font-size="10.00">::luser_client</text>
</a>
</g>
</g>
<!-- Node5&#45;&gt;Node8 -->
<g id="edge7" class="edge">
<title>Node5&#45;&gt;Node8</title>
<path fill="none" stroke="midnightblue" d="M253.65,-240.07C258.83,-242.86 263.74,-246.14 268,-250 295.1,-274.56 276.45,-299.94 304,-324 307.86,-327.37 312.2,-330.27 316.8,-332.76"/>
<polygon fill="midnightblue" stroke="midnightblue" points="315.35,-335.95 325.88,-337.07 318.35,-329.62 315.35,-335.95"/>
</g>
<!-- Node9 -->
<g id="node9" class="node">
<title>Node9</title>
<g id="a_node9"><a xlink:href="structft_1_1irc_1_1make__reply.html#ad75b7d6f4b115c9a700e87ed7a947531" target="_top" xlink:title=" ">
<polygon fill="white" stroke="black" points="326,-284 326,-314 430,-314 430,-284 326,-284"/>
<text text-anchor="start" x="334" y="-302" font-family="Helvetica,sans-Serif" font-size="10.00">ft::irc::make_reply</text>
<text text-anchor="middle" x="378" y="-291" font-family="Helvetica,sans-Serif" font-size="10.00">::luser_me</text>
</a>
</g>
</g>
<!-- Node5&#45;&gt;Node9 -->
<g id="edge8" class="edge">
<title>Node5&#45;&gt;Node9</title>
<path fill="none" stroke="midnightblue" d="M246.21,-240.14C253.63,-243.1 261.13,-246.42 268,-250 285.27,-259.01 286.57,-266.31 304,-275 308,-277 312.21,-278.88 316.5,-280.65"/>
<polygon fill="midnightblue" stroke="midnightblue" points="315.38,-283.97 325.97,-284.33 317.92,-277.44 315.38,-283.97"/>
</g>
<!-- Node10 -->
<g id="node10" class="node">
<title>Node10</title>
<g id="a_node10"><a xlink:href="structft_1_1irc_1_1make__reply.html#a71059f2ecea0dcf5b7c3d48a49b27652" target="_top" xlink:title=" ">
<polygon fill="white" stroke="black" points="326,-235 326,-265 430,-265 430,-235 326,-235"/>
<text text-anchor="start" x="334" y="-253" font-family="Helvetica,sans-Serif" font-size="10.00">ft::irc::make_reply</text>
<text text-anchor="middle" x="378" y="-242" font-family="Helvetica,sans-Serif" font-size="10.00">::luser_operator</text>
</a>
</g>
</g>
<!-- Node5&#45;&gt;Node10 -->
<g id="edge9" class="edge">
<title>Node5&#45;&gt;Node10</title>
<path fill="none" stroke="midnightblue" d="M255.86,-232.84C274.89,-235.54 296.29,-238.57 315.76,-241.33"/>
<polygon fill="midnightblue" stroke="midnightblue" points="315.35,-244.8 325.74,-242.74 316.33,-237.87 315.35,-244.8"/>
</g>
<!-- Node11 -->
<g id="node11" class="node">
<title>Node11</title>
<g id="a_node11"><a xlink:href="structft_1_1irc_1_1make__reply.html#abb3d19d7dff24cc11ae000c27f2d42f3" target="_top" xlink:title=" ">
<polygon fill="white" stroke="black" points="326,-186 326,-216 430,-216 430,-186 326,-186"/>
<text text-anchor="start" x="334" y="-204" font-family="Helvetica,sans-Serif" font-size="10.00">ft::irc::make_reply</text>
<text text-anchor="middle" x="378" y="-193" font-family="Helvetica,sans-Serif" font-size="10.00">::luser_unknown</text>
</a>
</g>
</g>
<!-- Node5&#45;&gt;Node11 -->
<g id="edge10" class="edge">
<title>Node5&#45;&gt;Node11</title>
<path fill="none" stroke="midnightblue" d="M255.86,-217.47C274.89,-214.88 296.29,-211.97 315.76,-209.33"/>
<polygon fill="midnightblue" stroke="midnightblue" points="316.3,-212.79 325.74,-207.97 315.36,-205.85 316.3,-212.79"/>
</g>
<!-- Node12 -->
<g id="node12" class="node">
<title>Node12</title>
<g id="a_node12"><a xlink:href="structft_1_1irc_1_1make__reply.html#a09ef279f20aef8d899a8a1f6e1f843c8" target="_top" xlink:title=" ">
<polygon fill="white" stroke="black" points="326,-137 326,-167 430,-167 430,-137 326,-137"/>
<text text-anchor="start" x="334" y="-155" font-family="Helvetica,sans-Serif" font-size="10.00">ft::irc::make_reply</text>
<text text-anchor="middle" x="378" y="-144" font-family="Helvetica,sans-Serif" font-size="10.00">::motd</text>
</a>
</g>
</g>
<!-- Node5&#45;&gt;Node12 -->
<g id="edge11" class="edge">
<title>Node5&#45;&gt;Node12</title>
<path fill="none" stroke="midnightblue" d="M247.6,-209.94C254.56,-207.23 261.55,-204.23 268,-201 285.19,-192.38 286.76,-185.52 304,-177 308.35,-174.85 312.93,-172.81 317.59,-170.89"/>
<polygon fill="midnightblue" stroke="midnightblue" points="319.18,-174.02 327.21,-167.12 316.62,-167.51 319.18,-174.02"/>
</g>
<!-- Node13 -->
<g id="node13" class="node">
<title>Node13</title>
<g id="a_node13"><a xlink:href="structft_1_1irc_1_1make__reply.html#ac487f0bab92e860c91305ed0b7f02dbe" target="_top" xlink:title=" ">
<polygon fill="white" stroke="black" points="326,-88 326,-118 430,-118 430,-88 326,-88"/>
<text text-anchor="start" x="334" y="-106" font-family="Helvetica,sans-Serif" font-size="10.00">ft::irc::make_reply</text>
<text text-anchor="middle" x="378" y="-95" font-family="Helvetica,sans-Serif" font-size="10.00">::motd_start</text>
</a>
</g>
</g>
<!-- Node5&#45;&gt;Node13 -->
<g id="edge12" class="edge">
<title>Node5&#45;&gt;Node13</title>
<path fill="none" stroke="midnightblue" d="M255.3,-209.82C259.87,-207.31 264.19,-204.39 268,-201 295.03,-176.95 276.83,-151.89 304,-128 307.86,-124.6 312.21,-121.66 316.8,-119.12"/>
<polygon fill="midnightblue" stroke="midnightblue" points="318.43,-122.22 325.89,-114.7 315.37,-115.93 318.43,-122.22"/>
</g>
<!-- Node14 -->
<g id="node14" class="node">
<title>Node14</title>
<g id="a_node14"><a xlink:href="structft_1_1irc_1_1make__error.html#ab15f6ba737319065faa48589151ce227" target="_top" xlink:title=" ">
<polygon fill="white" stroke="black" points="326.5,-39 326.5,-69 429.5,-69 429.5,-39 326.5,-39"/>
<text text-anchor="start" x="334.5" y="-57" font-family="Helvetica,sans-Serif" font-size="10.00">ft::irc::make_error</text>
<text text-anchor="middle" x="378" y="-46" font-family="Helvetica,sans-Serif" font-size="10.00">::no_motd</text>
</a>
</g>
</g>
<!-- Node5&#45;&gt;Node14 -->
<g id="edge13" class="edge">
<title>Node5&#45;&gt;Node14</title>
<path fill="none" stroke="midnightblue" d="M255.62,-210.68C260.18,-207.99 264.41,-204.79 268,-201 306.87,-159.95 264.89,-119.83 304,-79 307.82,-75.01 312.31,-71.66 317.14,-68.84"/>
<polygon fill="midnightblue" stroke="midnightblue" points="318.79,-71.93 326.16,-64.32 315.65,-65.67 318.79,-71.93"/>
</g>
<!-- Node15 -->
<g id="node15" class="node">
<title>Node15</title>
<g id="a_node15"><a xlink:href="classft_1_1irc_1_1server.html#a9bd0c0f5521a9d823a4d097099ebe4da" target="_top" xlink:title=" ">
<polygon fill="white" stroke="black" points="304,-0.5 304,-19.5 452,-19.5 452,-0.5 304,-0.5"/>
<text text-anchor="middle" x="378" y="-7.5" font-family="Helvetica,sans-Serif" font-size="10.00">ft::irc::server::register_user</text>
</a>
</g>
</g>
<!-- Node5&#45;&gt;Node15 -->
<g id="edge14" class="edge">
<title>Node5&#45;&gt;Node15</title>
<path fill="none" stroke="midnightblue" d="M255.62,-211.17C260.24,-208.38 264.48,-205.03 268,-201 319.37,-142.17 250.12,-85.54 304,-29 305.24,-27.7 306.56,-26.48 307.95,-25.34"/>
<polygon fill="midnightblue" stroke="midnightblue" points="310.11,-28.1 316.51,-19.65 306.24,-22.27 310.11,-28.1"/>
</g>
</g>
</svg>
