<?xml version="1.0" encoding="UTF-8" standalone="no"?>
<!DOCTYPE svg PUBLIC "-//W3C//DTD SVG 1.1//EN"
 "http://www.w3.org/Graphics/SVG/1.1/DTD/svg11.dtd">
<!-- Generated by graphviz version 2.43.0 (0)
 -->
<!-- Title: ft::irc::channel::is_channel_operator Pages: 1 -->
<svg width="246pt" height="88pt"
 viewBox="0.00 0.00 246.00 88.00" xmlns="http://www.w3.org/2000/svg" xmlns:xlink="http://www.w3.org/1999/xlink">
<g id="graph0" class="graph" transform="scale(1 1) rotate(0) translate(4 84)">
<title>ft::irc::channel::is_channel_operator</title>
<polygon fill="white" stroke="transparent" points="-4,4 -4,-84 242,-84 242,4 -4,4"/>
<!-- Node1 -->
<g id="node1" class="node">
<title>Node1</title>
<g id="a_node1"><a xlink:title=" ">
<polygon fill="#bfbfbf" stroke="black" points="131,-24.5 131,-54.5 238,-54.5 238,-24.5 131,-24.5"/>
<text text-anchor="start" x="139" y="-42.5" font-family="Helvetica,sans-Serif" font-size="10.00">ft::irc::channel::is</text>
<text text-anchor="middle" x="184.5" y="-31.5" font-family="Helvetica,sans-Serif" font-size="10.00">_channel_operator</text>
</a>
</g>
</g>
<!-- Node2 -->
<g id="node2" class="node">
<title>Node2</title>
<g id="a_node2"><a xlink:href="classft_1_1irc_1_1processor__invite.html#a558fbe35293f4a0783af9a50f7146eeb" target="_top" xlink:title=" ">
<polygon fill="white" stroke="black" points="0,-49.5 0,-79.5 95,-79.5 95,-49.5 0,-49.5"/>
<text text-anchor="start" x="8" y="-67.5" font-family="Helvetica,sans-Serif" font-size="10.00">ft::irc::processor</text>
<text text-anchor="middle" x="47.5" y="-56.5" font-family="Helvetica,sans-Serif" font-size="10.00">_invite::execute</text>
</a>
</g>
</g>
<!-- Node1&#45;&gt;Node2 -->
<g id="edge1" class="edge">
<title>Node1&#45;&gt;Node2</title>
<path fill="none" stroke="midnightblue" d="M120.81,-51.11C112.12,-52.72 103.33,-54.35 95.01,-55.89"/>
<polygon fill="midnightblue" stroke="midnightblue" points="121.72,-54.5 130.92,-49.24 120.45,-47.62 121.72,-54.5"/>
</g>
<!-- Node3 -->
<g id="node3" class="node">
<title>Node3</title>
<g id="a_node3"><a xlink:href="classft_1_1irc_1_1processor__kick.html#ac453ac8376e577bb0a2b4f074fe9be1b" target="_top" xlink:title=" ">
<polygon fill="white" stroke="black" points="0,-0.5 0,-30.5 95,-30.5 95,-0.5 0,-0.5"/>
<text text-anchor="start" x="8" y="-18.5" font-family="Helvetica,sans-Serif" font-size="10.00">ft::irc::processor</text>
<text text-anchor="middle" x="47.5" y="-7.5" font-family="Helvetica,sans-Serif" font-size="10.00">_kick::execute</text>
</a>
</g>
</g>
<!-- Node1&#45;&gt;Node3 -->
<g id="edge2" class="edge">
<title>Node1&#45;&gt;Node3</title>
<path fill="none" stroke="midnightblue" d="M120.81,-28.35C112.12,-26.81 103.33,-25.25 95.01,-23.77"/>
<polygon fill="midnightblue" stroke="midnightblue" points="120.46,-31.85 130.92,-30.15 121.69,-24.96 120.46,-31.85"/>
</g>
</g>
</svg>
