<?xml version="1.0" encoding="UTF-8" standalone="no"?>
<!DOCTYPE svg PUBLIC "-//W3C//DTD SVG 1.1//EN"
 "http://www.w3.org/Graphics/SVG/1.1/DTD/svg11.dtd">
<!-- Generated by graphviz version 2.43.0 (0)
 -->
<!-- Title: byte_buffer_dump_logger_handler::on_write Pages: 1 -->
<svg width="675pt" height="222pt"
 viewBox="0.00 0.00 675.00 221.50" xmlns="http://www.w3.org/2000/svg" xmlns:xlink="http://www.w3.org/1999/xlink">
<g id="graph0" class="graph" transform="scale(1 1) rotate(0) translate(4 217.5)">
<title>byte_buffer_dump_logger_handler::on_write</title>
<polygon fill="white" stroke="transparent" points="-4,4 -4,-217.5 671,-217.5 671,4 -4,4"/>
<!-- Node1 -->
<g id="node1" class="node">
<title>Node1</title>
<g id="a_node1"><a xlink:title=" ">
<polygon fill="#bfbfbf" stroke="black" points="0,-92.5 0,-122.5 141,-122.5 141,-92.5 0,-92.5"/>
<text text-anchor="start" x="8" y="-110.5" font-family="Helvetica,sans-Serif" font-size="10.00">byte_buffer_dump_logger</text>
<text text-anchor="middle" x="70.5" y="-99.5" font-family="Helvetica,sans-Serif" font-size="10.00">_handler::on_write</text>
</a>
</g>
</g>
<!-- Node2 -->
<g id="node2" class="node">
<title>Node2</title>
<g id="a_node2"><a xlink:href="classbyte__buffer__dump__logger__handler.html#ada037fe82180c1ff6d92d17b6d4143b9" target="_top" xlink:title=" ">
<polygon fill="white" stroke="black" points="177,-166.5 177,-196.5 318,-196.5 318,-166.5 177,-166.5"/>
<text text-anchor="start" x="185" y="-184.5" font-family="Helvetica,sans-Serif" font-size="10.00">byte_buffer_dump_logger</text>
<text text-anchor="middle" x="247.5" y="-173.5" font-family="Helvetica,sans-Serif" font-size="10.00">_handler::_dump</text>
</a>
</g>
</g>
<!-- Node1&#45;&gt;Node2 -->
<g id="edge1" class="edge">
<title>Node1&#45;&gt;Node2</title>
<path fill="none" stroke="midnightblue" d="M101.12,-122.61C122.05,-133.03 150.92,-146.85 177,-157.5 181.49,-159.33 186.18,-161.15 190.91,-162.92"/>
<polygon fill="midnightblue" stroke="midnightblue" points="190.03,-166.32 200.62,-166.46 192.43,-159.75 190.03,-166.32"/>
</g>
<!-- Node5 -->
<g id="node5" class="node">
<title>Node5</title>
<g id="a_node5"><a xlink:href="classft_1_1serv_1_1event__layer.html#afb682e88c5660a03763f1bd4fab1b462" target="_top" xlink:title=" ">
<polygon fill="white" stroke="black" points="191,-117.5 191,-147.5 304,-147.5 304,-117.5 191,-117.5"/>
<text text-anchor="start" x="199" y="-135.5" font-family="Helvetica,sans-Serif" font-size="10.00">ft::serv::event_layer</text>
<text text-anchor="middle" x="247.5" y="-124.5" font-family="Helvetica,sans-Serif" font-size="10.00">::get_ident</text>
</a>
</g>
</g>
<!-- Node1&#45;&gt;Node5 -->
<g id="edge4" class="edge">
<title>Node1&#45;&gt;Node5</title>
<path fill="none" stroke="midnightblue" d="M141.17,-117.45C154.18,-119.31 167.74,-121.25 180.63,-123.09"/>
<polygon fill="midnightblue" stroke="midnightblue" points="180.41,-126.59 190.8,-124.54 181.4,-119.66 180.41,-126.59"/>
</g>
<!-- Node6 -->
<g id="node6" class="node">
<title>Node6</title>
<g id="a_node6"><a xlink:href="classft_1_1serv_1_1event__layer.html#add4946138f5f8a5870d52c44ca435aab" target="_top" xlink:title=" ">
<polygon fill="white" stroke="black" points="191,-68.5 191,-98.5 304,-98.5 304,-68.5 191,-68.5"/>
<text text-anchor="start" x="199" y="-86.5" font-family="Helvetica,sans-Serif" font-size="10.00">ft::serv::event_layer</text>
<text text-anchor="middle" x="247.5" y="-75.5" font-family="Helvetica,sans-Serif" font-size="10.00">::post_write</text>
</a>
</g>
</g>
<!-- Node1&#45;&gt;Node6 -->
<g id="edge5" class="edge">
<title>Node1&#45;&gt;Node6</title>
<path fill="none" stroke="midnightblue" d="M141.17,-97.95C154.18,-96.16 167.74,-94.3 180.63,-92.53"/>
<polygon fill="midnightblue" stroke="midnightblue" points="181.37,-95.96 190.8,-91.14 180.42,-89.03 181.37,-95.96"/>
</g>
<!-- Node7 -->
<g id="node7" class="node">
<title>Node7</title>
<g id="a_node7"><a xlink:href="structft_1_1serv_1_1logger.html#af77e51bd1d1172d9ebff34eb9fe1db6a" target="_top" xlink:title=" ">
<polygon fill="white" stroke="black" points="189,-30 189,-49 306,-49 306,-30 189,-30"/>
<text text-anchor="middle" x="247.5" y="-37" font-family="Helvetica,sans-Serif" font-size="10.00">ft::serv::logger::trace</text>
</a>
</g>
</g>
<!-- Node1&#45;&gt;Node7 -->
<g id="edge6" class="edge">
<title>Node1&#45;&gt;Node7</title>
<path fill="none" stroke="midnightblue" d="M101.48,-92.44C122.33,-82.31 150.95,-69.12 177,-59.5 184.29,-56.81 192.11,-54.25 199.79,-51.92"/>
<polygon fill="midnightblue" stroke="midnightblue" points="200.78,-55.28 209.38,-49.09 198.8,-48.56 200.78,-55.28"/>
</g>
<!-- Node3 -->
<g id="node3" class="node">
<title>Node3</title>
<g id="a_node3"><a xlink:href="classft_1_1serv_1_1byte__buffer.html#ae2e9e14f5f7ed2e9d35d44319383674a" target="_top" xlink:title=" ">
<polygon fill="white" stroke="black" points="354,-194 354,-213 487,-213 487,-194 354,-194"/>
<text text-anchor="middle" x="420.5" y="-201" font-family="Helvetica,sans-Serif" font-size="10.00">ft::serv::byte_buffer::get</text>
</a>
</g>
</g>
<!-- Node2&#45;&gt;Node3 -->
<g id="edge2" class="edge">
<title>Node2&#45;&gt;Node3</title>
<path fill="none" stroke="midnightblue" d="M318.05,-190.45C326.56,-191.54 335.28,-192.67 343.87,-193.77"/>
<polygon fill="midnightblue" stroke="midnightblue" points="343.51,-197.25 353.88,-195.06 344.4,-190.31 343.51,-197.25"/>
</g>
<!-- Node4 -->
<g id="node4" class="node">
<title>Node4</title>
<g id="a_node4"><a xlink:href="classft_1_1serv_1_1byte__buffer.html#a3d0dc198cfaa114acaa7e485de9b42d8" target="_top" xlink:title=" ">
<polygon fill="white" stroke="black" points="365,-144.5 365,-174.5 476,-174.5 476,-144.5 365,-144.5"/>
<text text-anchor="start" x="373" y="-162.5" font-family="Helvetica,sans-Serif" font-size="10.00">ft::serv::byte_buffer</text>
<text text-anchor="middle" x="420.5" y="-151.5" font-family="Helvetica,sans-Serif" font-size="10.00">::raw_length</text>
</a>
</g>
</g>
<!-- Node2&#45;&gt;Node4 -->
<g id="edge3" class="edge">
<title>Node2&#45;&gt;Node4</title>
<path fill="none" stroke="midnightblue" d="M318.05,-172.55C330.26,-170.98 342.92,-169.35 354.98,-167.8"/>
<polygon fill="midnightblue" stroke="midnightblue" points="355.48,-171.27 364.95,-166.52 354.59,-164.32 355.48,-171.27"/>
</g>
<!-- Node8 -->
<g id="node8" class="node">
<title>Node8</title>
<g id="a_node8"><a xlink:href="namespaceft_1_1serv_1_1__internal.html#a4dfb80be7b817fc0ee18658f313a6274" target="_top" xlink:title=" ">
<polygon fill="white" stroke="black" points="371.5,-24.5 371.5,-54.5 469.5,-54.5 469.5,-24.5 371.5,-24.5"/>
<text text-anchor="start" x="379.5" y="-42.5" font-family="Helvetica,sans-Serif" font-size="10.00">ft::serv::_internal</text>
<text text-anchor="middle" x="420.5" y="-31.5" font-family="Helvetica,sans-Serif" font-size="10.00">::print</text>
</a>
</g>
</g>
<!-- Node7&#45;&gt;Node8 -->
<g id="edge7" class="edge">
<title>Node7&#45;&gt;Node8</title>
<path fill="none" stroke="midnightblue" d="M306.39,-39.5C324.05,-39.5 343.47,-39.5 361.15,-39.5"/>
<polygon fill="midnightblue" stroke="midnightblue" points="361.34,-43 371.34,-39.5 361.34,-36 361.34,-43"/>
</g>
<!-- Node9 -->
<g id="node9" class="node">
<title>Node9</title>
<g id="a_node9"><a xlink:href="namespaceft_1_1serv_1_1__internal.html#aff49349b58dc84fa69076e9cd27a1db4" target="_top" xlink:title=" ">
<polygon fill="white" stroke="black" points="523,-49.5 523,-79.5 667,-79.5 667,-49.5 523,-49.5"/>
<text text-anchor="start" x="531" y="-67.5" font-family="Helvetica,sans-Serif" font-size="10.00">ft::serv::_internal</text>
<text text-anchor="middle" x="595" y="-56.5" font-family="Helvetica,sans-Serif" font-size="10.00">::make_format_string_line</text>
</a>
</g>
</g>
<!-- Node8&#45;&gt;Node9 -->
<g id="edge8" class="edge">
<title>Node8&#45;&gt;Node9</title>
<path fill="none" stroke="midnightblue" d="M469.55,-46.46C483,-48.41 497.99,-50.59 512.79,-52.73"/>
<polygon fill="midnightblue" stroke="midnightblue" points="512.59,-56.24 522.99,-54.21 513.59,-49.31 512.59,-56.24"/>
</g>
<!-- Node10 -->
<g id="node10" class="node">
<title>Node10</title>
<g id="a_node10"><a xlink:href="namespaceft_1_1serv_1_1__internal.html#aad4af39d62c2b1687b0bef7a91bf6c60" target="_top" xlink:title=" ">
<polygon fill="white" stroke="black" points="543.5,-0.5 543.5,-30.5 646.5,-30.5 646.5,-0.5 543.5,-0.5"/>
<text text-anchor="start" x="551.5" y="-18.5" font-family="Helvetica,sans-Serif" font-size="10.00">ft::serv::_internal</text>
<text text-anchor="middle" x="595" y="-7.5" font-family="Helvetica,sans-Serif" font-size="10.00">::make_utc_string</text>
</a>
</g>
</g>
<!-- Node8&#45;&gt;Node10 -->
<g id="edge9" class="edge">
<title>Node8&#45;&gt;Node10</title>
<path fill="none" stroke="midnightblue" d="M469.55,-32.81C489.34,-30.06 512.49,-26.84 533.43,-23.93"/>
<polygon fill="midnightblue" stroke="midnightblue" points="534.08,-27.37 543.5,-22.53 533.11,-20.44 534.08,-27.37"/>
</g>
</g>
</svg>
