<?xml version="1.0" encoding="UTF-8" standalone="no"?>
<!DOCTYPE svg PUBLIC "-//W3C//DTD SVG 1.1//EN"
 "http://www.w3.org/Graphics/SVG/1.1/DTD/svg11.dtd">
<!-- Generated by graphviz version 2.43.0 (0)
 -->
<!-- Title: ft::serv::bootstrap::start_server Pages: 1 -->
<svg width="548pt" height="274pt"
 viewBox="0.00 0.00 548.00 273.50" xmlns="http://www.w3.org/2000/svg" xmlns:xlink="http://www.w3.org/1999/xlink">
<g id="graph0" class="graph" transform="scale(1 1) rotate(0) translate(4 269.5)">
<title>ft::serv::bootstrap::start_server</title>
<polygon fill="white" stroke="transparent" points="-4,4 -4,-269.5 544,-269.5 544,4 -4,4"/>
<!-- Node1 -->
<g id="node1" class="node">
<title>Node1</title>
<g id="a_node1"><a xlink:title=" ">
<polygon fill="#bfbfbf" stroke="black" points="0,-122.5 0,-152.5 102,-152.5 102,-122.5 0,-122.5"/>
<text text-anchor="start" x="8" y="-140.5" font-family="Helvetica,sans-Serif" font-size="10.00">ft::serv::bootstrap</text>
<text text-anchor="middle" x="51" y="-129.5" font-family="Helvetica,sans-Serif" font-size="10.00">::start_server</text>
</a>
</g>
</g>
<!-- Node2 -->
<g id="node2" class="node">
<title>Node2</title>
<g id="a_node2"><a xlink:href="bootstrap_8cpp.html#acf03e66a45bc7cc346d17d294290c024" target="_top" xlink:title=" ">
<polygon fill="white" stroke="black" points="142.5,-246 142.5,-265 246.5,-265 246.5,-246 142.5,-246"/>
<text text-anchor="middle" x="194.5" y="-253" font-family="Helvetica,sans-Serif" font-size="10.00">_to_c_str_nullable</text>
</a>
</g>
</g>
<!-- Node1&#45;&gt;Node2 -->
<g id="edge1" class="edge">
<title>Node1&#45;&gt;Node2</title>
<path fill="none" stroke="midnightblue" d="M61.49,-152.8C75.62,-174.4 104.2,-213.74 138,-236.5 140.92,-238.47 144.06,-240.25 147.31,-241.86"/>
<polygon fill="midnightblue" stroke="midnightblue" points="146.11,-245.15 156.67,-245.96 148.91,-238.74 146.11,-245.15"/>
</g>
<!-- Node3 -->
<g id="node3" class="node">
<title>Node3</title>
<g id="a_node3"><a xlink:href="structft_1_1serv_1_1socket__utils.html#a6ad8ff64c40ce8341bee05803ca0b2bd" target="_top" xlink:title=" ">
<polygon fill="white" stroke="black" points="138,-196.5 138,-226.5 251,-226.5 251,-196.5 138,-196.5"/>
<text text-anchor="start" x="146" y="-214.5" font-family="Helvetica,sans-Serif" font-size="10.00">ft::serv::socket_utils</text>
<text text-anchor="middle" x="194.5" y="-203.5" font-family="Helvetica,sans-Serif" font-size="10.00">::bind_socket</text>
</a>
</g>
</g>
<!-- Node1&#45;&gt;Node3 -->
<g id="edge2" class="edge">
<title>Node1&#45;&gt;Node3</title>
<path fill="none" stroke="midnightblue" d="M76.04,-152.51C93.06,-162.87 116.57,-176.68 138,-187.5 141.14,-189.09 144.41,-190.67 147.72,-192.22"/>
<polygon fill="midnightblue" stroke="midnightblue" points="146.54,-195.53 157.09,-196.49 149.44,-189.16 146.54,-195.53"/>
</g>
<!-- Node7 -->
<g id="node7" class="node">
<title>Node7</title>
<g id="a_node7"><a xlink:href="structft_1_1serv_1_1socket__utils.html#ad0dccc18b1c71b736ffcd2328c3f3ccd" target="_top" xlink:title=" ">
<polygon fill="white" stroke="black" points="138,-147.5 138,-177.5 251,-177.5 251,-147.5 138,-147.5"/>
<text text-anchor="start" x="146" y="-165.5" font-family="Helvetica,sans-Serif" font-size="10.00">ft::serv::socket_utils</text>
<text text-anchor="middle" x="194.5" y="-154.5" font-family="Helvetica,sans-Serif" font-size="10.00">::close_socket</text>
</a>
</g>
</g>
<!-- Node1&#45;&gt;Node7 -->
<g id="edge6" class="edge">
<title>Node1&#45;&gt;Node7</title>
<path fill="none" stroke="midnightblue" d="M102.29,-146.38C110.51,-147.84 119.13,-149.36 127.66,-150.87"/>
<polygon fill="midnightblue" stroke="midnightblue" points="127.14,-154.33 137.6,-152.62 128.36,-147.44 127.14,-154.33"/>
</g>
<!-- Node8 -->
<g id="node8" class="node">
<title>Node8</title>
<g id="a_node8"><a xlink:href="structft_1_1serv_1_1socket__utils.html#af0c7d126407d94cc7a1b083141ff2388" target="_top" xlink:title=" ">
<polygon fill="white" stroke="black" points="138,-98.5 138,-128.5 251,-128.5 251,-98.5 138,-98.5"/>
<text text-anchor="start" x="146" y="-116.5" font-family="Helvetica,sans-Serif" font-size="10.00">ft::serv::socket_utils</text>
<text text-anchor="middle" x="194.5" y="-105.5" font-family="Helvetica,sans-Serif" font-size="10.00">::listen_socket</text>
</a>
</g>
</g>
<!-- Node1&#45;&gt;Node8 -->
<g id="edge7" class="edge">
<title>Node1&#45;&gt;Node8</title>
<path fill="none" stroke="midnightblue" d="M102.29,-128.97C110.51,-127.58 119.13,-126.11 127.66,-124.67"/>
<polygon fill="midnightblue" stroke="midnightblue" points="128.33,-128.1 137.6,-122.98 127.16,-121.2 128.33,-128.1"/>
</g>
<!-- Node9 -->
<g id="node9" class="node">
<title>Node9</title>
<g id="a_node9"><a xlink:href="structft_1_1serv_1_1socket__utils.html#af26c480a74e72a232aca84cd17e2de61" target="_top" xlink:title=" ">
<polygon fill="white" stroke="black" points="138,-49.5 138,-79.5 251,-79.5 251,-49.5 138,-49.5"/>
<text text-anchor="start" x="146" y="-67.5" font-family="Helvetica,sans-Serif" font-size="10.00">ft::serv::socket_utils</text>
<text text-anchor="middle" x="194.5" y="-56.5" font-family="Helvetica,sans-Serif" font-size="10.00">::name_socket</text>
</a>
</g>
</g>
<!-- Node1&#45;&gt;Node9 -->
<g id="edge8" class="edge">
<title>Node1&#45;&gt;Node9</title>
<path fill="none" stroke="midnightblue" d="M76.82,-122.4C93.79,-112.31 116.94,-99.02 138,-88.5 141.15,-86.93 144.42,-85.36 147.74,-83.81"/>
<polygon fill="midnightblue" stroke="midnightblue" points="149.46,-86.88 157.11,-79.55 146.56,-80.5 149.46,-86.88"/>
</g>
<!-- Node11 -->
<g id="node11" class="node">
<title>Node11</title>
<g id="a_node11"><a xlink:href="structft_1_1serv_1_1socket__utils.html#a818575bfd7756e64e4226b85a7492bc7" target="_top" xlink:title=" ">
<polygon fill="white" stroke="black" points="138,-0.5 138,-30.5 251,-30.5 251,-0.5 138,-0.5"/>
<text text-anchor="start" x="146" y="-18.5" font-family="Helvetica,sans-Serif" font-size="10.00">ft::serv::socket_utils</text>
<text text-anchor="middle" x="194.5" y="-7.5" font-family="Helvetica,sans-Serif" font-size="10.00">::set_nonblocking</text>
</a>
</g>
</g>
<!-- Node1&#45;&gt;Node11 -->
<g id="edge10" class="edge">
<title>Node1&#45;&gt;Node11</title>
<path fill="none" stroke="midnightblue" d="M62.01,-122.36C76.57,-101.33 105.43,-63.22 138,-39.5 139.86,-38.14 141.81,-36.85 143.82,-35.6"/>
<polygon fill="midnightblue" stroke="midnightblue" points="145.9,-38.45 152.93,-30.51 142.49,-32.34 145.9,-38.45"/>
</g>
<!-- Node4 -->
<g id="node4" class="node">
<title>Node4</title>
<g id="a_node4"><a xlink:href="structft_1_1serv_1_1socket__utils.html#af1553b9c3e9cdc5e38f7ecf6c10fb3c1" target="_top" xlink:title=" ">
<polygon fill="white" stroke="black" points="290,-220.5 290,-250.5 403,-250.5 403,-220.5 290,-220.5"/>
<text text-anchor="start" x="298" y="-238.5" font-family="Helvetica,sans-Serif" font-size="10.00">ft::serv::socket_utils</text>
<text text-anchor="middle" x="346.5" y="-227.5" font-family="Helvetica,sans-Serif" font-size="10.00">::forward_lookup</text>
</a>
</g>
</g>
<!-- Node3&#45;&gt;Node4 -->
<g id="edge3" class="edge">
<title>Node3&#45;&gt;Node4</title>
<path fill="none" stroke="midnightblue" d="M251.35,-220.44C260.59,-221.91 270.24,-223.46 279.7,-224.97"/>
<polygon fill="midnightblue" stroke="midnightblue" points="279.42,-228.47 289.85,-226.6 280.53,-221.56 279.42,-228.47"/>
</g>
<!-- Node6 -->
<g id="node6" class="node">
<title>Node6</title>
<g id="a_node6"><a xlink:href="structft_1_1serv_1_1socket__utils.html#a579854fb614efa2584ff58edb79974f1" target="_top" xlink:title=" ">
<polygon fill="white" stroke="black" points="287,-171.5 287,-201.5 406,-201.5 406,-171.5 287,-171.5"/>
<text text-anchor="start" x="295" y="-189.5" font-family="Helvetica,sans-Serif" font-size="10.00">ft::serv::socket_utils</text>
<text text-anchor="middle" x="346.5" y="-178.5" font-family="Helvetica,sans-Serif" font-size="10.00">::reuse_address_bind</text>
</a>
</g>
</g>
<!-- Node3&#45;&gt;Node6 -->
<g id="edge5" class="edge">
<title>Node3&#45;&gt;Node6</title>
<path fill="none" stroke="midnightblue" d="M251.35,-202.19C259.68,-200.8 268.33,-199.36 276.88,-197.94"/>
<polygon fill="midnightblue" stroke="midnightblue" points="277.55,-201.37 286.84,-196.28 276.4,-194.47 277.55,-201.37"/>
</g>
<!-- Node5 -->
<g id="node5" class="node">
<title>Node5</title>
<g id="a_node5"><a xlink:href="classft_1_1serv_1_1__internal_1_1ai__failed.html#ad3aa900794508d370ef6e1b3c104a39e" target="_top" xlink:title=" ">
<polygon fill="white" stroke="black" points="442,-220.5 442,-250.5 540,-250.5 540,-220.5 442,-220.5"/>
<text text-anchor="start" x="450" y="-238.5" font-family="Helvetica,sans-Serif" font-size="10.00">ft::serv::_internal</text>
<text text-anchor="middle" x="491" y="-227.5" font-family="Helvetica,sans-Serif" font-size="10.00">::ai_failed::error</text>
</a>
</g>
</g>
<!-- Node4&#45;&gt;Node5 -->
<g id="edge4" class="edge">
<title>Node4&#45;&gt;Node5</title>
<path fill="none" stroke="midnightblue" d="M403,-235.5C412.41,-235.5 422.21,-235.5 431.69,-235.5"/>
<polygon fill="midnightblue" stroke="midnightblue" points="431.82,-239 441.82,-235.5 431.82,-232 431.82,-239"/>
</g>
<!-- Node10 -->
<g id="node10" class="node">
<title>Node10</title>
<g id="a_node10"><a xlink:href="structft_1_1serv_1_1socket__utils.html#aef0594e2d9bdc8b8e15bcab89950e093" target="_top" xlink:title=" ">
<polygon fill="white" stroke="black" points="290,-49.5 290,-79.5 403,-79.5 403,-49.5 290,-49.5"/>
<text text-anchor="start" x="298" y="-67.5" font-family="Helvetica,sans-Serif" font-size="10.00">ft::serv::socket_utils</text>
<text text-anchor="middle" x="346.5" y="-56.5" font-family="Helvetica,sans-Serif" font-size="10.00">::reverse_lookup</text>
</a>
</g>
</g>
<!-- Node9&#45;&gt;Node10 -->
<g id="edge9" class="edge">
<title>Node9&#45;&gt;Node10</title>
<path fill="none" stroke="midnightblue" d="M251.35,-64.5C260.59,-64.5 270.24,-64.5 279.7,-64.5"/>
<polygon fill="midnightblue" stroke="midnightblue" points="279.85,-68 289.85,-64.5 279.85,-61 279.85,-68"/>
</g>
</g>
</svg>
