<?xml version="1.0" encoding="UTF-8" standalone="no"?>
<!DOCTYPE svg PUBLIC "-//W3C//DTD SVG 1.1//EN"
 "http://www.w3.org/Graphics/SVG/1.1/DTD/svg11.dtd">
<!-- Generated by graphviz version 2.43.0 (0)
 -->
<!-- Title: ft::irc::message::get_prefix Pages: 1 -->
<svg width="579pt" height="180pt"
 viewBox="0.00 0.00 579.00 180.00" xmlns="http://www.w3.org/2000/svg" xmlns:xlink="http://www.w3.org/1999/xlink">
<g id="graph0" class="graph" transform="scale(1 1) rotate(0) translate(4 176)">
<title>ft::irc::message::get_prefix</title>
<polygon fill="white" stroke="transparent" points="-4,4 -4,-176 575,-176 575,4 -4,4"/>
<!-- Node1 -->
<g id="node1" class="node">
<title>Node1</title>
<g id="a_node1"><a xlink:title=" ">
<polygon fill="#bfbfbf" stroke="black" points="458,-71 458,-101 571,-101 571,-71 458,-71"/>
<text text-anchor="start" x="466" y="-89" font-family="Helvetica,sans-Serif" font-size="10.00">ft::irc::message::get</text>
<text text-anchor="middle" x="514.5" y="-78" font-family="Helvetica,sans-Serif" font-size="10.00">_prefix</text>
</a>
</g>
</g>
<!-- Node2 -->
<g id="node2" class="node">
<title>Node2</title>
<g id="a_node2"><a xlink:href="classft_1_1irc_1_1bot.html#a936e0acfe2ebe64ec87b0856c11d68da" target="_top" xlink:title=" ">
<polygon fill="white" stroke="black" points="302,-152.5 302,-171.5 416,-171.5 416,-152.5 302,-152.5"/>
<text text-anchor="middle" x="359" y="-159.5" font-family="Helvetica,sans-Serif" font-size="10.00">ft::irc::bot::on_invite</text>
</a>
</g>
</g>
<!-- Node1&#45;&gt;Node2 -->
<g id="edge1" class="edge">
<title>Node1&#45;&gt;Node2</title>
<path fill="none" stroke="midnightblue" d="M483.99,-107.13C466.58,-118.88 443.76,-133.09 422,-143 414.01,-146.64 405.13,-149.82 396.65,-152.49"/>
<polygon fill="midnightblue" stroke="midnightblue" points="486.31,-109.79 492.57,-101.24 482.34,-104.01 486.31,-109.79"/>
</g>
<!-- Node5 -->
<g id="node5" class="node">
<title>Node5</title>
<g id="a_node5"><a xlink:href="classft_1_1irc_1_1bot.html#ac44a6bb9edd7bde3e8e4e45121914ae6" target="_top" xlink:title=" ">
<polygon fill="white" stroke="black" points="305.5,-114.5 305.5,-133.5 412.5,-133.5 412.5,-114.5 305.5,-114.5"/>
<text text-anchor="middle" x="359" y="-121.5" font-family="Helvetica,sans-Serif" font-size="10.00">ft::irc::bot::on_nick</text>
</a>
</g>
</g>
<!-- Node1&#45;&gt;Node5 -->
<g id="edge4" class="edge">
<title>Node1&#45;&gt;Node5</title>
<path fill="none" stroke="midnightblue" d="M447.9,-102.24C431.15,-106.39 413.68,-110.71 398.76,-114.4"/>
<polygon fill="midnightblue" stroke="midnightblue" points="448.78,-105.63 457.65,-99.83 447.1,-98.83 448.78,-105.63"/>
</g>
<!-- Node6 -->
<g id="node6" class="node">
<title>Node6</title>
<g id="a_node6"><a xlink:href="classft_1_1irc_1_1bot.html#adb61ddab4c1cb4fc70bec293666bed90" target="_top" xlink:title=" ">
<polygon fill="white" stroke="black" points="306,-76.5 306,-95.5 412,-95.5 412,-76.5 306,-76.5"/>
<text text-anchor="middle" x="359" y="-83.5" font-family="Helvetica,sans-Serif" font-size="10.00">ft::irc::bot::on_part</text>
</a>
</g>
</g>
<!-- Node1&#45;&gt;Node6 -->
<g id="edge6" class="edge">
<title>Node1&#45;&gt;Node6</title>
<path fill="none" stroke="midnightblue" d="M447.42,-86C435.66,-86 423.55,-86 412.23,-86"/>
<polygon fill="midnightblue" stroke="midnightblue" points="447.65,-89.5 457.65,-86 447.65,-82.5 447.65,-89.5"/>
</g>
<!-- Node7 -->
<g id="node7" class="node">
<title>Node7</title>
<g id="a_node7"><a xlink:href="classft_1_1irc_1_1bot.html#a0ec513cb8cc2ce581bd105edb6563562" target="_top" xlink:title=" ">
<polygon fill="white" stroke="black" points="296,-38.5 296,-57.5 422,-57.5 422,-38.5 296,-38.5"/>
<text text-anchor="middle" x="359" y="-45.5" font-family="Helvetica,sans-Serif" font-size="10.00">ft::irc::bot::on_privmsg</text>
</a>
</g>
</g>
<!-- Node1&#45;&gt;Node7 -->
<g id="edge8" class="edge">
<title>Node1&#45;&gt;Node7</title>
<path fill="none" stroke="midnightblue" d="M447.9,-69.76C431.15,-65.61 413.68,-61.29 398.76,-57.6"/>
<polygon fill="midnightblue" stroke="midnightblue" points="447.1,-73.17 457.65,-72.17 448.78,-66.37 447.1,-73.17"/>
</g>
<!-- Node8 -->
<g id="node8" class="node">
<title>Node8</title>
<g id="a_node8"><a xlink:href="classft_1_1irc_1_1bot.html#afaa3557fd9c3562f2a81095c9f917360" target="_top" xlink:title=" ">
<polygon fill="white" stroke="black" points="306.5,-0.5 306.5,-19.5 411.5,-19.5 411.5,-0.5 306.5,-0.5"/>
<text text-anchor="middle" x="359" y="-7.5" font-family="Helvetica,sans-Serif" font-size="10.00">ft::irc::bot::on_quit</text>
</a>
</g>
</g>
<!-- Node1&#45;&gt;Node8 -->
<g id="edge10" class="edge">
<title>Node1&#45;&gt;Node8</title>
<path fill="none" stroke="midnightblue" d="M483.99,-64.87C466.58,-53.12 443.76,-38.91 422,-29 414.01,-25.36 405.13,-22.18 396.65,-19.51"/>
<polygon fill="midnightblue" stroke="midnightblue" points="482.34,-67.99 492.57,-70.76 486.31,-62.21 482.34,-67.99"/>
</g>
<!-- Node3 -->
<g id="node3" class="node">
<title>Node3</title>
<g id="a_node3"><a xlink:href="classft_1_1irc_1_1bot.html#a0b595213781ed0e5aaf1d48fdb602d98" target="_top" xlink:title=" ">
<polygon fill="white" stroke="black" points="141,-76.5 141,-95.5 260,-95.5 260,-76.5 141,-76.5"/>
<text text-anchor="middle" x="200.5" y="-83.5" font-family="Helvetica,sans-Serif" font-size="10.00">ft::irc::bot::on_packet</text>
</a>
</g>
</g>
<!-- Node2&#45;&gt;Node3 -->
<g id="edge2" class="edge">
<title>Node2&#45;&gt;Node3</title>
<path fill="none" stroke="midnightblue" d="M311.74,-149.21C306.36,-147.31 301.01,-145.24 296,-143 265.56,-129.4 232.84,-107.96 215.01,-95.61"/>
<polygon fill="midnightblue" stroke="midnightblue" points="310.8,-152.58 321.39,-152.41 313,-145.94 310.8,-152.58"/>
</g>
<!-- Node4 -->
<g id="node4" class="node">
<title>Node4</title>
<g id="a_node4"><a xlink:href="classft_1_1irc_1_1bot__handler.html#a0723185e483ae21fa0f2116ca05165fe" target="_top" xlink:title=" ">
<polygon fill="white" stroke="black" points="0,-71 0,-101 105,-101 105,-71 0,-71"/>
<text text-anchor="start" x="8" y="-89" font-family="Helvetica,sans-Serif" font-size="10.00">ft::irc::bot_handler</text>
<text text-anchor="middle" x="52.5" y="-78" font-family="Helvetica,sans-Serif" font-size="10.00">::on_read</text>
</a>
</g>
</g>
<!-- Node3&#45;&gt;Node4 -->
<g id="edge3" class="edge">
<title>Node3&#45;&gt;Node4</title>
<path fill="none" stroke="midnightblue" d="M130.96,-86C122.38,-86 113.72,-86 105.46,-86"/>
<polygon fill="midnightblue" stroke="midnightblue" points="130.96,-89.5 140.96,-86 130.96,-82.5 130.96,-89.5"/>
</g>
<!-- Node5&#45;&gt;Node3 -->
<g id="edge5" class="edge">
<title>Node5&#45;&gt;Node3</title>
<path fill="none" stroke="midnightblue" d="M308.71,-112.03C286.78,-106.71 261.32,-100.52 240.71,-95.52"/>
<polygon fill="midnightblue" stroke="midnightblue" points="307.96,-115.45 318.51,-114.41 309.62,-108.65 307.96,-115.45"/>
</g>
<!-- Node6&#45;&gt;Node3 -->
<g id="edge7" class="edge">
<title>Node6&#45;&gt;Node3</title>
<path fill="none" stroke="midnightblue" d="M295.73,-86C283.99,-86 271.76,-86 260.13,-86"/>
<polygon fill="midnightblue" stroke="midnightblue" points="295.89,-89.5 305.89,-86 295.89,-82.5 295.89,-89.5"/>
</g>
<!-- Node7&#45;&gt;Node3 -->
<g id="edge9" class="edge">
<title>Node7&#45;&gt;Node3</title>
<path fill="none" stroke="midnightblue" d="M308.71,-59.97C286.78,-65.29 261.32,-71.48 240.71,-76.48"/>
<polygon fill="midnightblue" stroke="midnightblue" points="309.62,-63.35 318.51,-57.59 307.96,-56.55 309.62,-63.35"/>
</g>
<!-- Node8&#45;&gt;Node3 -->
<g id="edge11" class="edge">
<title>Node8&#45;&gt;Node3</title>
<path fill="none" stroke="midnightblue" d="M311.74,-22.79C306.36,-24.69 301.01,-26.76 296,-29 265.56,-42.6 232.84,-64.04 215.01,-76.39"/>
<polygon fill="midnightblue" stroke="midnightblue" points="313,-26.06 321.39,-19.59 310.8,-19.42 313,-26.06"/>
</g>
</g>
</svg>
