<?xml version="1.0" encoding="UTF-8" standalone="no"?>
<!DOCTYPE svg PUBLIC "-//W3C//DTD SVG 1.1//EN"
 "http://www.w3.org/Graphics/SVG/1.1/DTD/svg11.dtd">
<!-- Generated by graphviz version 2.43.0 (0)
 -->
<!-- Title: ft::irc::processor_list::execute Pages: 1 -->
<svg width="433pt" height="219pt"
 viewBox="0.00 0.00 433.00 219.00" xmlns="http://www.w3.org/2000/svg" xmlns:xlink="http://www.w3.org/1999/xlink">
<g id="graph0" class="graph" transform="scale(1 1) rotate(0) translate(4 215)">
<title>ft::irc::processor_list::execute</title>
<polygon fill="white" stroke="transparent" points="-4,4 -4,-215 429,-215 429,4 -4,4"/>
<!-- Node1 -->
<g id="node1" class="node">
<title>Node1</title>
<g id="a_node1"><a xlink:title=" ">
<polygon fill="#bfbfbf" stroke="black" points="0,-87.5 0,-117.5 95,-117.5 95,-87.5 0,-87.5"/>
<text text-anchor="start" x="8" y="-105.5" font-family="Helvetica,sans-Serif" font-size="10.00">ft::irc::processor</text>
<text text-anchor="middle" x="47.5" y="-94.5" font-family="Helvetica,sans-Serif" font-size="10.00">_list::execute</text>
</a>
</g>
</g>
<!-- Node2 -->
<g id="node2" class="node">
<title>Node2</title>
<g id="a_node2"><a xlink:href="classft_1_1irc_1_1user.html#ae7ad74d915c3414aa58fd2fc92791539" target="_top" xlink:title=" ">
<polygon fill="white" stroke="black" points="151.5,-180.5 151.5,-210.5 264.5,-210.5 264.5,-180.5 151.5,-180.5"/>
<text text-anchor="start" x="159.5" y="-198.5" font-family="Helvetica,sans-Serif" font-size="10.00">ft::irc::user::channel</text>
<text text-anchor="middle" x="208" y="-187.5" font-family="Helvetica,sans-Serif" font-size="10.00">_names_snapshot</text>
</a>
</g>
</g>
<!-- Node1&#45;&gt;Node2 -->
<g id="edge1" class="edge">
<title>Node1&#45;&gt;Node2</title>
<path fill="none" stroke="midnightblue" d="M62.97,-117.7C78.48,-133.2 104.47,-156.97 131,-171.5 134.45,-173.39 138.07,-175.16 141.79,-176.8"/>
<polygon fill="midnightblue" stroke="midnightblue" points="140.57,-180.09 151.15,-180.65 143.24,-173.62 140.57,-180.09"/>
</g>
<!-- Node3 -->
<g id="node3" class="node">
<title>Node3</title>
<g id="a_node3"><a xlink:href="classft_1_1irc_1_1user.html#ae476cc31795df7fbb726b193ab887e75" target="_top" xlink:title=" ">
<polygon fill="white" stroke="black" points="163,-131.5 163,-161.5 253,-161.5 253,-131.5 163,-131.5"/>
<text text-anchor="start" x="171" y="-149.5" font-family="Helvetica,sans-Serif" font-size="10.00">ft::irc::user::get</text>
<text text-anchor="middle" x="208" y="-138.5" font-family="Helvetica,sans-Serif" font-size="10.00">_server</text>
</a>
</g>
</g>
<!-- Node1&#45;&gt;Node3 -->
<g id="edge2" class="edge">
<title>Node1&#45;&gt;Node3</title>
<path fill="none" stroke="midnightblue" d="M95.2,-115.46C113.31,-120.49 134.17,-126.28 152.93,-131.49"/>
<polygon fill="midnightblue" stroke="midnightblue" points="152.24,-134.93 162.81,-134.23 154.11,-128.19 152.24,-134.93"/>
</g>
<!-- Node4 -->
<g id="node4" class="node">
<title>Node4</title>
<g id="a_node4"><a xlink:href="classft_1_1irc_1_1message.html#a34f457ead0453ad914af2cb0482a40b9" target="_top" xlink:title=" ">
<polygon fill="white" stroke="black" points="131,-93 131,-112 285,-112 285,-93 131,-93"/>
<text text-anchor="middle" x="208" y="-100" font-family="Helvetica,sans-Serif" font-size="10.00">ft::irc::message::param_size</text>
</a>
</g>
</g>
<!-- Node1&#45;&gt;Node4 -->
<g id="edge3" class="edge">
<title>Node1&#45;&gt;Node4</title>
<path fill="none" stroke="midnightblue" d="M95.2,-102.5C103.27,-102.5 111.89,-102.5 120.62,-102.5"/>
<polygon fill="midnightblue" stroke="midnightblue" points="120.91,-106 130.91,-102.5 120.91,-99 120.91,-106"/>
</g>
<!-- Node5 -->
<g id="node5" class="node">
<title>Node5</title>
<g id="a_node5"><a xlink:href="classft_1_1irc_1_1server.html#a3f4e06d5a9cf57441582f77b95f87135" target="_top" xlink:title=" ">
<polygon fill="white" stroke="black" points="144,-55 144,-74 272,-74 272,-55 144,-55"/>
<text text-anchor="middle" x="208" y="-62" font-family="Helvetica,sans-Serif" font-size="10.00">ft::irc::server::send_list</text>
</a>
</g>
</g>
<!-- Node1&#45;&gt;Node5 -->
<g id="edge4" class="edge">
<title>Node1&#45;&gt;Node5</title>
<path fill="none" stroke="midnightblue" d="M95.2,-91.3C114.81,-86.6 137.63,-81.13 157.53,-76.36"/>
<polygon fill="midnightblue" stroke="midnightblue" points="158.42,-79.75 167.33,-74.01 156.79,-72.94 158.42,-79.75"/>
</g>
<!-- Node9 -->
<g id="node9" class="node">
<title>Node9</title>
<g id="a_node9"><a xlink:href="classft_1_1irc_1_1message.html#adf434fdc28e74fb166c6046c0ac5c6d5" target="_top" xlink:title=" ">
<polygon fill="white" stroke="black" points="148.5,-17 148.5,-36 267.5,-36 267.5,-17 148.5,-17"/>
<text text-anchor="middle" x="208" y="-24" font-family="Helvetica,sans-Serif" font-size="10.00">ft::irc::message::split</text>
</a>
</g>
</g>
<!-- Node1&#45;&gt;Node9 -->
<g id="edge8" class="edge">
<title>Node1&#45;&gt;Node9</title>
<path fill="none" stroke="midnightblue" d="M66.35,-87.32C82.33,-74.46 106.89,-56.41 131,-45.5 136.4,-43.06 142.16,-40.9 148.01,-38.99"/>
<polygon fill="midnightblue" stroke="midnightblue" points="149.3,-42.26 157.87,-36.02 147.29,-35.55 149.3,-42.26"/>
</g>
<!-- Node6 -->
<g id="node6" class="node">
<title>Node6</title>
<g id="a_node6"><a xlink:href="structft_1_1irc_1_1make__reply.html#aea322ae93b5998963dca3923cb91d19d" target="_top" xlink:title=" ">
<polygon fill="white" stroke="black" points="321,-98.5 321,-128.5 425,-128.5 425,-98.5 321,-98.5"/>
<text text-anchor="start" x="329" y="-116.5" font-family="Helvetica,sans-Serif" font-size="10.00">ft::irc::make_reply</text>
<text text-anchor="middle" x="373" y="-105.5" font-family="Helvetica,sans-Serif" font-size="10.00">::list_end</text>
</a>
</g>
</g>
<!-- Node5&#45;&gt;Node6 -->
<g id="edge5" class="edge">
<title>Node5&#45;&gt;Node6</title>
<path fill="none" stroke="midnightblue" d="M249.8,-74.01C261.25,-76.86 273.66,-80.13 285,-83.5 296.73,-86.98 309.22,-91.06 320.97,-95.07"/>
<polygon fill="midnightblue" stroke="midnightblue" points="320.05,-98.46 330.64,-98.41 322.33,-91.84 320.05,-98.46"/>
</g>
<!-- Node7 -->
<g id="node7" class="node">
<title>Node7</title>
<g id="a_node7"><a xlink:href="structft_1_1irc_1_1make__reply.html#a63b855359274d17192e7dc8ca199a438" target="_top" xlink:title=" ">
<polygon fill="white" stroke="black" points="321,-49.5 321,-79.5 425,-79.5 425,-49.5 321,-49.5"/>
<text text-anchor="start" x="329" y="-67.5" font-family="Helvetica,sans-Serif" font-size="10.00">ft::irc::make_reply</text>
<text text-anchor="middle" x="373" y="-56.5" font-family="Helvetica,sans-Serif" font-size="10.00">::list_start</text>
</a>
</g>
</g>
<!-- Node5&#45;&gt;Node7 -->
<g id="edge6" class="edge">
<title>Node5&#45;&gt;Node7</title>
<path fill="none" stroke="midnightblue" d="M272.02,-64.5C284.62,-64.5 297.84,-64.5 310.39,-64.5"/>
<polygon fill="midnightblue" stroke="midnightblue" points="310.74,-68 320.74,-64.5 310.74,-61 310.74,-68"/>
</g>
<!-- Node8 -->
<g id="node8" class="node">
<title>Node8</title>
<g id="a_node8"><a xlink:href="classft_1_1irc_1_1user.html#a1db558d6d694ca943224c2440fe36c50" target="_top" xlink:title=" ">
<polygon fill="white" stroke="black" points="324,-0.5 324,-30.5 422,-30.5 422,-0.5 324,-0.5"/>
<text text-anchor="start" x="332" y="-18.5" font-family="Helvetica,sans-Serif" font-size="10.00">ft::irc::user::send</text>
<text text-anchor="middle" x="373" y="-7.5" font-family="Helvetica,sans-Serif" font-size="10.00">_message</text>
</a>
</g>
</g>
<!-- Node5&#45;&gt;Node8 -->
<g id="edge7" class="edge">
<title>Node5&#45;&gt;Node8</title>
<path fill="none" stroke="midnightblue" d="M249.8,-54.99C261.25,-52.14 273.66,-48.87 285,-45.5 296.73,-42.02 309.22,-37.94 320.97,-33.93"/>
<polygon fill="midnightblue" stroke="midnightblue" points="322.33,-37.16 330.64,-30.59 320.05,-30.54 322.33,-37.16"/>
</g>
</g>
</svg>
