<?xml version="1.0" encoding="UTF-8" standalone="no"?>
<!DOCTYPE svg PUBLIC "-//W3C//DTD SVG 1.1//EN"
 "http://www.w3.org/Graphics/SVG/1.1/DTD/svg11.dtd">
<!-- Generated by graphviz version 2.43.0 (0)
 -->
<!-- Title: ft::irc::bot::on_invite Pages: 1 -->
<svg width="426pt" height="176pt"
 viewBox="0.00 0.00 426.00 175.50" xmlns="http://www.w3.org/2000/svg" xmlns:xlink="http://www.w3.org/1999/xlink">
<g id="graph0" class="graph" transform="scale(1 1) rotate(0) translate(4 171.5)">
<title>ft::irc::bot::on_invite</title>
<polygon fill="white" stroke="transparent" points="-4,4 -4,-171.5 422,-171.5 422,4 -4,4"/>
<!-- Node1 -->
<g id="node1" class="node">
<title>Node1</title>
<g id="a_node1"><a xlink:title=" ">
<polygon fill="#bfbfbf" stroke="black" points="0,-68.5 0,-87.5 114,-87.5 114,-68.5 0,-68.5"/>
<text text-anchor="middle" x="57" y="-75.5" font-family="Helvetica,sans-Serif" font-size="10.00">ft::irc::bot::on_invite</text>
</a>
</g>
</g>
<!-- Node2 -->
<g id="node2" class="node">
<title>Node2</title>
<g id="a_node2"><a xlink:href="classft_1_1irc_1_1message.html#a254aec48aa7b7872331cd5644d9e918c" target="_top" xlink:title=" ">
<polygon fill="white" stroke="black" points="153,-137 153,-167 266,-167 266,-137 153,-137"/>
<text text-anchor="start" x="161" y="-155" font-family="Helvetica,sans-Serif" font-size="10.00">ft::irc::message::get</text>
<text text-anchor="middle" x="209.5" y="-144" font-family="Helvetica,sans-Serif" font-size="10.00">_prefix</text>
</a>
</g>
</g>
<!-- Node1&#45;&gt;Node2 -->
<g id="edge1" class="edge">
<title>Node1&#45;&gt;Node2</title>
<path fill="none" stroke="midnightblue" d="M74.34,-87.58C92.52,-98.08 122.91,-115.13 150,-128 153.52,-129.67 157.2,-131.35 160.91,-132.99"/>
<polygon fill="midnightblue" stroke="midnightblue" points="159.59,-136.23 170.16,-136.97 162.36,-129.8 159.59,-136.23"/>
</g>
<!-- Node3 -->
<g id="node3" class="node">
<title>Node3</title>
<g id="a_node3"><a xlink:href="structft_1_1irc_1_1string__utils.html#ac1e75b32f508ffe5a1a1875d1e1cd2ea" target="_top" xlink:title=" ">
<polygon fill="white" stroke="black" points="159,-88 159,-118 260,-118 260,-88 159,-88"/>
<text text-anchor="start" x="167" y="-106" font-family="Helvetica,sans-Serif" font-size="10.00">ft::irc::string_utils</text>
<text text-anchor="middle" x="209.5" y="-95" font-family="Helvetica,sans-Serif" font-size="10.00">::pick_nick</text>
</a>
</g>
</g>
<!-- Node1&#45;&gt;Node3 -->
<g id="edge2" class="edge">
<title>Node1&#45;&gt;Node3</title>
<path fill="none" stroke="midnightblue" d="M114.04,-87.31C125.42,-89.2 137.42,-91.19 148.91,-93.1"/>
<polygon fill="midnightblue" stroke="midnightblue" points="148.42,-96.57 158.86,-94.75 149.56,-89.66 148.42,-96.57"/>
</g>
<!-- Node4 -->
<g id="node4" class="node">
<title>Node4</title>
<g id="a_node4"><a xlink:href="classft_1_1irc_1_1bot.html#a970f653872cc4a26d1fd9729552cd9b1" target="_top" xlink:title=" ">
<polygon fill="white" stroke="black" points="163.5,-39 163.5,-69 255.5,-69 255.5,-39 163.5,-39"/>
<text text-anchor="start" x="171.5" y="-57" font-family="Helvetica,sans-Serif" font-size="10.00">ft::irc::bot::send</text>
<text text-anchor="middle" x="209.5" y="-46" font-family="Helvetica,sans-Serif" font-size="10.00">_packet</text>
</a>
</g>
</g>
<!-- Node1&#45;&gt;Node4 -->
<g id="edge3" class="edge">
<title>Node1&#45;&gt;Node4</title>
<path fill="none" stroke="midnightblue" d="M114.04,-69.06C126.83,-67.02 140.42,-64.86 153.18,-62.82"/>
<polygon fill="midnightblue" stroke="midnightblue" points="153.89,-66.25 163.21,-61.22 152.78,-59.34 153.89,-66.25"/>
</g>
<!-- Node7 -->
<g id="node7" class="node">
<title>Node7</title>
<g id="a_node7"><a xlink:href="classft_1_1irc_1_1bot.html#a89399b02bcc254a4e7a33a0916fe875e" target="_top" xlink:title=" ">
<polygon fill="white" stroke="black" points="150,-0.5 150,-19.5 269,-19.5 269,-0.5 150,-0.5"/>
<text text-anchor="middle" x="209.5" y="-7.5" font-family="Helvetica,sans-Serif" font-size="10.00">ft::irc::bot::set_owner</text>
</a>
</g>
</g>
<!-- Node1&#45;&gt;Node7 -->
<g id="edge6" class="edge">
<title>Node1&#45;&gt;Node7</title>
<path fill="none" stroke="midnightblue" d="M74.58,-68.37C92.73,-58.07 122.85,-41.65 150,-30 155.83,-27.5 162.08,-25.09 168.25,-22.86"/>
<polygon fill="midnightblue" stroke="midnightblue" points="169.52,-26.12 177.81,-19.52 167.21,-19.52 169.52,-26.12"/>
</g>
<!-- Node5 -->
<g id="node5" class="node">
<title>Node5</title>
<g id="a_node5"><a xlink:href="classft_1_1serv_1_1event__layer.html#a854a0764bd67adfc716ec4237cd52672" target="_top" xlink:title=" ">
<polygon fill="white" stroke="black" points="305,-64 305,-94 418,-94 418,-64 305,-64"/>
<text text-anchor="start" x="313" y="-82" font-family="Helvetica,sans-Serif" font-size="10.00">ft::serv::event_layer</text>
<text text-anchor="middle" x="361.5" y="-71" font-family="Helvetica,sans-Serif" font-size="10.00">::post_flush</text>
</a>
</g>
</g>
<!-- Node4&#45;&gt;Node5 -->
<g id="edge4" class="edge">
<title>Node4&#45;&gt;Node5</title>
<path fill="none" stroke="midnightblue" d="M255.5,-61.5C267.88,-63.56 281.57,-65.84 294.85,-68.06"/>
<polygon fill="midnightblue" stroke="midnightblue" points="294.47,-71.54 304.91,-69.73 295.62,-64.64 294.47,-71.54"/>
</g>
<!-- Node6 -->
<g id="node6" class="node">
<title>Node6</title>
<g id="a_node6"><a xlink:href="classft_1_1serv_1_1event__layer.html#add4946138f5f8a5870d52c44ca435aab" target="_top" xlink:title=" ">
<polygon fill="white" stroke="black" points="305,-15 305,-45 418,-45 418,-15 305,-15"/>
<text text-anchor="start" x="313" y="-33" font-family="Helvetica,sans-Serif" font-size="10.00">ft::serv::event_layer</text>
<text text-anchor="middle" x="361.5" y="-22" font-family="Helvetica,sans-Serif" font-size="10.00">::post_write</text>
</a>
</g>
</g>
<!-- Node4&#45;&gt;Node6 -->
<g id="edge5" class="edge">
<title>Node4&#45;&gt;Node6</title>
<path fill="none" stroke="midnightblue" d="M255.5,-46.8C267.88,-44.82 281.57,-42.63 294.85,-40.5"/>
<polygon fill="midnightblue" stroke="midnightblue" points="295.58,-43.93 304.91,-38.9 294.48,-37.02 295.58,-43.93"/>
</g>
</g>
</svg>
