<?xml version="1.0" encoding="UTF-8" standalone="no"?>
<!DOCTYPE svg PUBLIC "-//W3C//DTD SVG 1.1//EN"
 "http://www.w3.org/Graphics/SVG/1.1/DTD/svg11.dtd">
<!-- Generated by graphviz version 2.43.0 (0)
 -->
<!-- Title: ft::irc::bot::update_nick Pages: 1 -->
<svg width="575pt" height="39pt"
 viewBox="0.00 0.00 575.00 39.00" xmlns="http://www.w3.org/2000/svg" xmlns:xlink="http://www.w3.org/1999/xlink">
<g id="graph0" class="graph" transform="scale(1 1) rotate(0) translate(4 35)">
<title>ft::irc::bot::update_nick</title>
<polygon fill="white" stroke="transparent" points="-4,4 -4,-35 571,-35 571,4 -4,4"/>
<!-- Node1 -->
<g id="node1" class="node">
<title>Node1</title>
<g id="a_node1"><a xlink:title=" ">
<polygon fill="#bfbfbf" stroke="black" points="439,-6 439,-25 567,-25 567,-6 439,-6"/>
<text text-anchor="middle" x="503" y="-13" font-family="Helvetica,sans-Serif" font-size="10.00">ft::irc::bot::update_nick</text>
</a>
</g>
</g>
<!-- Node2 -->
<g id="node2" class="node">
<title>Node2</title>
<g id="a_node2"><a xlink:href="classft_1_1irc_1_1bot.html#ac44a6bb9edd7bde3e8e4e45121914ae6" target="_top" xlink:title=" ">
<polygon fill="white" stroke="black" points="296,-6 296,-25 403,-25 403,-6 296,-6"/>
<text text-anchor="middle" x="349.5" y="-13" font-family="Helvetica,sans-Serif" font-size="10.00">ft::irc::bot::on_nick</text>
</a>
</g>
</g>
<!-- Node1&#45;&gt;Node2 -->
<g id="edge1" class="edge">
<title>Node1&#45;&gt;Node2</title>
<path fill="none" stroke="midnightblue" d="M428.57,-15.5C419.96,-15.5 411.31,-15.5 403.07,-15.5"/>
<polygon fill="midnightblue" stroke="midnightblue" points="428.63,-19 438.63,-15.5 428.63,-12 428.63,-19"/>
</g>
<!-- Node3 -->
<g id="node3" class="node">
<title>Node3</title>
<g id="a_node3"><a xlink:href="classft_1_1irc_1_1bot.html#a0b595213781ed0e5aaf1d48fdb602d98" target="_top" xlink:title=" ">
<polygon fill="white" stroke="black" points="141,-6 141,-25 260,-25 260,-6 141,-6"/>
<text text-anchor="middle" x="200.5" y="-13" font-family="Helvetica,sans-Serif" font-size="10.00">ft::irc::bot::on_packet</text>
</a>
</g>
</g>
<!-- Node2&#45;&gt;Node3 -->
<g id="edge2" class="edge">
<title>Node2&#45;&gt;Node3</title>
<path fill="none" stroke="midnightblue" d="M285.61,-15.5C277.12,-15.5 268.44,-15.5 260.02,-15.5"/>
<polygon fill="midnightblue" stroke="midnightblue" points="285.84,-19 295.84,-15.5 285.84,-12 285.84,-19"/>
</g>
<!-- Node4 -->
<g id="node4" class="node">
<title>Node4</title>
<g id="a_node4"><a xlink:href="classft_1_1irc_1_1bot__handler.html#a0723185e483ae21fa0f2116ca05165fe" target="_top" xlink:title=" ">
<polygon fill="white" stroke="black" points="0,-0.5 0,-30.5 105,-30.5 105,-0.5 0,-0.5"/>
<text text-anchor="start" x="8" y="-18.5" font-family="Helvetica,sans-Serif" font-size="10.00">ft::irc::bot_handler</text>
<text text-anchor="middle" x="52.5" y="-7.5" font-family="Helvetica,sans-Serif" font-size="10.00">::on_read</text>
</a>
</g>
</g>
<!-- Node3&#45;&gt;Node4 -->
<g id="edge3" class="edge">
<title>Node3&#45;&gt;Node4</title>
<path fill="none" stroke="midnightblue" d="M130.96,-15.5C122.38,-15.5 113.72,-15.5 105.46,-15.5"/>
<polygon fill="midnightblue" stroke="midnightblue" points="130.96,-19 140.96,-15.5 130.96,-12 130.96,-19"/>
</g>
</g>
</svg>
