<?xml version="1.0" encoding="UTF-8" standalone="no"?>
<!DOCTYPE svg PUBLIC "-//W3C//DTD SVG 1.1//EN"
 "http://www.w3.org/Graphics/SVG/1.1/DTD/svg11.dtd">
<!-- Generated by graphviz version 2.43.0 (0)
 -->
<!-- Title: ft::serv::byte_buffer Pages: 1 -->
<svg width="218pt" height="106pt"
 viewBox="0.00 0.00 217.50 106.00" xmlns="http://www.w3.org/2000/svg" xmlns:xlink="http://www.w3.org/1999/xlink">
<g id="graph0" class="graph" transform="scale(1 1) rotate(0) translate(4 102)">
<title>ft::serv::byte_buffer</title>
<polygon fill="white" stroke="transparent" points="-4,4 -4,-102 213.5,-102 213.5,4 -4,4"/>
<!-- Node1 -->
<g id="node1" class="node">
<title>Node1</title>
<g id="a_node1"><a xlink:title=" ">
<polygon fill="#bfbfbf" stroke="black" points="65.5,-0.5 65.5,-19.5 176.5,-19.5 176.5,-0.5 65.5,-0.5"/>
<text text-anchor="middle" x="121" y="-7.5" font-family="Helvetica,sans-Serif" font-size="10.00">ft::serv::byte_buffer</text>
</a>
</g>
</g>
<!-- Node2 -->
<g id="node2" class="node">
<title>Node2</title>
<g id="a_node2"><a xlink:href="structft_1_1serv_1_1dynamic__array.html" target="_top" xlink:title=" ">
<polygon fill="white" stroke="black" points="0,-67.5 0,-97.5 128,-97.5 128,-67.5 0,-67.5"/>
<text text-anchor="start" x="8" y="-85.5" font-family="Helvetica,sans-Serif" font-size="10.00">ft::serv::dynamic_array</text>
<text text-anchor="middle" x="64" y="-74.5" font-family="Helvetica,sans-Serif" font-size="10.00">&lt; byte_t &gt;</text>
</a>
</g>
</g>
<!-- Node2&#45;&gt;Node1 -->
<g id="edge1" class="edge">
<title>Node2&#45;&gt;Node1</title>
<path fill="none" stroke="#9a32cd" stroke-dasharray="5,2" d="M81.88,-59.38C92.67,-46.04 105.84,-29.76 113.81,-19.89"/>
<polygon fill="#9a32cd" stroke="#9a32cd" points="79.1,-57.26 75.53,-67.23 84.54,-61.66 79.1,-57.26"/>
<text text-anchor="middle" x="114" y="-41" font-family="Helvetica,sans-Serif" font-size="10.00"> buffer</text>
</g>
<!-- Node3 -->
<g id="node3" class="node">
<title>Node3</title>
<g id="a_node3"><a xlink:title=" ">
<polygon fill="white" stroke="#bfbfbf" points="146.5,-73 146.5,-92 209.5,-92 209.5,-73 146.5,-73"/>
<text text-anchor="middle" x="178" y="-80" font-family="Helvetica,sans-Serif" font-size="10.00">size_type</text>
</a>
</g>
</g>
<!-- Node3&#45;&gt;Node1 -->
<g id="edge2" class="edge">
<title>Node3&#45;&gt;Node1</title>
<path fill="none" stroke="#9a32cd" stroke-dasharray="5,2" d="M164.58,-64.9C153.13,-50.74 137.14,-30.96 128.05,-19.72"/>
<polygon fill="#9a32cd" stroke="#9a32cd" points="162,-67.28 171.01,-72.86 167.45,-62.88 162,-67.28"/>
<text text-anchor="middle" x="172.5" y="-41" font-family="Helvetica,sans-Serif" font-size="10.00"> position</text>
</g>
</g>
</svg>
