<?xml version="1.0" encoding="UTF-8" standalone="no"?>
<!DOCTYPE svg PUBLIC "-//W3C//DTD SVG 1.1//EN"
 "http://www.w3.org/Graphics/SVG/1.1/DTD/svg11.dtd">
<!-- Generated by graphviz version 2.43.0 (0)
 -->
<!-- Title: ft::irc::channel::is_banned Pages: 1 -->
<svg width="556pt" height="219pt"
 viewBox="0.00 0.00 556.00 219.00" xmlns="http://www.w3.org/2000/svg" xmlns:xlink="http://www.w3.org/1999/xlink">
<g id="graph0" class="graph" transform="scale(1 1) rotate(0) translate(4 215)">
<title>ft::irc::channel::is_banned</title>
<polygon fill="white" stroke="transparent" points="-4,4 -4,-215 552,-215 552,4 -4,4"/>
<!-- Node1 -->
<g id="node1" class="node">
<title>Node1</title>
<g id="a_node1"><a xlink:title=" ">
<polygon fill="#bfbfbf" stroke="black" points="0,-87.5 0,-117.5 100,-117.5 100,-87.5 0,-87.5"/>
<text text-anchor="start" x="8" y="-105.5" font-family="Helvetica,sans-Serif" font-size="10.00">ft::irc::channel::is</text>
<text text-anchor="middle" x="50" y="-94.5" font-family="Helvetica,sans-Serif" font-size="10.00">_banned</text>
</a>
</g>
</g>
<!-- Node2 -->
<g id="node2" class="node">
<title>Node2</title>
<g id="a_node2"><a xlink:href="classft_1_1irc_1_1user.html#a4ef9a652a7bc6cae05b12c90ad5fb5c9" target="_top" xlink:title=" ">
<polygon fill="white" stroke="black" points="165.5,-180.5 165.5,-210.5 255.5,-210.5 255.5,-180.5 165.5,-180.5"/>
<text text-anchor="start" x="173.5" y="-198.5" font-family="Helvetica,sans-Serif" font-size="10.00">ft::irc::user::get</text>
<text text-anchor="middle" x="210.5" y="-187.5" font-family="Helvetica,sans-Serif" font-size="10.00">_hostname</text>
</a>
</g>
</g>
<!-- Node1&#45;&gt;Node2 -->
<g id="edge1" class="edge">
<title>Node1&#45;&gt;Node2</title>
<path fill="none" stroke="midnightblue" d="M66.03,-117.62C82.1,-133.05 108.96,-156.77 136,-171.5 142.1,-174.82 148.73,-177.78 155.44,-180.39"/>
<polygon fill="midnightblue" stroke="midnightblue" points="154.67,-183.83 165.26,-183.96 157.06,-177.25 154.67,-183.83"/>
</g>
<!-- Node3 -->
<g id="node3" class="node">
<title>Node3</title>
<g id="a_node3"><a xlink:href="classft_1_1irc_1_1user.html#ac8f0fd6e5ecd71a825fc82a763defedb" target="_top" xlink:title=" ">
<polygon fill="white" stroke="black" points="165.5,-131.5 165.5,-161.5 255.5,-161.5 255.5,-131.5 165.5,-131.5"/>
<text text-anchor="start" x="173.5" y="-149.5" font-family="Helvetica,sans-Serif" font-size="10.00">ft::irc::user::get</text>
<text text-anchor="middle" x="210.5" y="-138.5" font-family="Helvetica,sans-Serif" font-size="10.00">_username</text>
</a>
</g>
</g>
<!-- Node1&#45;&gt;Node3 -->
<g id="edge2" class="edge">
<title>Node1&#45;&gt;Node3</title>
<path fill="none" stroke="midnightblue" d="M100.28,-116.18C117.84,-121.06 137.7,-126.57 155.63,-131.54"/>
<polygon fill="midnightblue" stroke="midnightblue" points="154.79,-134.94 165.36,-134.25 156.66,-128.2 154.79,-134.94"/>
</g>
<!-- Node4 -->
<g id="node4" class="node">
<title>Node4</title>
<g id="a_node4"><a xlink:href="classft_1_1irc_1_1user.html#a7277f06aa83459f6f9b409858d602e3b" target="_top" xlink:title=" ">
<polygon fill="white" stroke="black" points="150,-93 150,-112 271,-112 271,-93 150,-93"/>
<text text-anchor="middle" x="210.5" y="-100" font-family="Helvetica,sans-Serif" font-size="10.00">ft::irc::user::load_nick</text>
</a>
</g>
</g>
<!-- Node1&#45;&gt;Node4 -->
<g id="edge3" class="edge">
<title>Node1&#45;&gt;Node4</title>
<path fill="none" stroke="midnightblue" d="M100.28,-102.5C112.81,-102.5 126.51,-102.5 139.84,-102.5"/>
<polygon fill="midnightblue" stroke="midnightblue" points="139.94,-106 149.94,-102.5 139.94,-99 139.94,-106"/>
</g>
<!-- Node5 -->
<g id="node5" class="node">
<title>Node5</title>
<g id="a_node5"><a xlink:href="structft_1_1irc_1_1string__utils.html#a357019bbfad30d20e56d2fb4f2a4319c" target="_top" xlink:title=" ">
<polygon fill="white" stroke="black" points="321,-49.5 321,-79.5 422,-79.5 422,-49.5 321,-49.5"/>
<text text-anchor="start" x="329" y="-67.5" font-family="Helvetica,sans-Serif" font-size="10.00">ft::irc::string_utils</text>
<text text-anchor="middle" x="371.5" y="-56.5" font-family="Helvetica,sans-Serif" font-size="10.00">::match_mask</text>
</a>
</g>
</g>
<!-- Node1&#45;&gt;Node5 -->
<g id="edge4" class="edge">
<title>Node1&#45;&gt;Node5</title>
<path fill="none" stroke="midnightblue" d="M100.22,-90.28C111.89,-87.72 124.34,-85.27 136,-83.5 195.07,-74.55 263.19,-69.62 310.74,-67.05"/>
<polygon fill="midnightblue" stroke="midnightblue" points="311.06,-70.53 320.86,-66.52 310.69,-63.54 311.06,-70.53"/>
</g>
<!-- Node6 -->
<g id="node6" class="node">
<title>Node6</title>
<g id="a_node6"><a xlink:href="structft_1_1irc_1_1string__utils.html#a4d870ac385b6f7fcdacaa1b071810876" target="_top" xlink:title=" ">
<polygon fill="white" stroke="black" points="136,-5.5 136,-35.5 285,-35.5 285,-5.5 136,-5.5"/>
<text text-anchor="start" x="144" y="-23.5" font-family="Helvetica,sans-Serif" font-size="10.00">ft::irc::string_utils</text>
<text text-anchor="middle" x="210.5" y="-12.5" font-family="Helvetica,sans-Serif" font-size="10.00">::match_mask_ignore_case</text>
</a>
</g>
</g>
<!-- Node1&#45;&gt;Node6 -->
<g id="edge5" class="edge">
<title>Node1&#45;&gt;Node6</title>
<path fill="none" stroke="midnightblue" d="M73.51,-87.34C90.32,-76.37 114.08,-61.59 136,-50.5 143.6,-46.65 151.82,-42.92 159.91,-39.46"/>
<polygon fill="midnightblue" stroke="midnightblue" points="161.42,-42.62 169.3,-35.54 158.73,-36.16 161.42,-42.62"/>
</g>
<!-- Node6&#45;&gt;Node5 -->
<g id="edge6" class="edge">
<title>Node6&#45;&gt;Node5</title>
<path fill="none" stroke="midnightblue" d="M265.77,-35.52C280.25,-39.52 295.96,-43.87 310.71,-47.96"/>
<polygon fill="midnightblue" stroke="midnightblue" points="310.17,-51.44 320.75,-50.73 312.04,-44.69 310.17,-51.44"/>
</g>
<!-- Node7 -->
<g id="node7" class="node">
<title>Node7</title>
<g id="a_node7"><a xlink:href="structft_1_1irc_1_1string__utils.html#a367a22012cc0d2d25959ac3f4e5d33a9" target="_top" xlink:title=" ">
<polygon fill="white" stroke="black" points="321,-0.5 321,-30.5 422,-30.5 422,-0.5 321,-0.5"/>
<text text-anchor="start" x="329" y="-18.5" font-family="Helvetica,sans-Serif" font-size="10.00">ft::irc::string_utils</text>
<text text-anchor="middle" x="371.5" y="-7.5" font-family="Helvetica,sans-Serif" font-size="10.00">::to_lower</text>
</a>
</g>
</g>
<!-- Node6&#45;&gt;Node7 -->
<g id="edge7" class="edge">
<title>Node6&#45;&gt;Node7</title>
<path fill="none" stroke="midnightblue" d="M285.41,-18.18C293.85,-17.91 302.38,-17.64 310.6,-17.38"/>
<polygon fill="midnightblue" stroke="midnightblue" points="310.95,-20.87 320.83,-17.06 310.73,-13.88 310.95,-20.87"/>
</g>
<!-- Node8 -->
<g id="node8" class="node">
<title>Node8</title>
<g id="a_node8"><a xlink:href="namespaceft_1_1irc_1_1__internal.html#aa76c3a369f64725f8b2b52b2131c1111" target="_top" xlink:title=" ">
<polygon fill="white" stroke="black" points="458,-0.5 458,-30.5 548,-30.5 548,-0.5 458,-0.5"/>
<text text-anchor="start" x="466" y="-18.5" font-family="Helvetica,sans-Serif" font-size="10.00">ft::irc::_internal</text>
<text text-anchor="middle" x="503" y="-7.5" font-family="Helvetica,sans-Serif" font-size="10.00">::_to_lower</text>
</a>
</g>
</g>
<!-- Node7&#45;&gt;Node8 -->
<g id="edge8" class="edge">
<title>Node7&#45;&gt;Node8</title>
<path fill="none" stroke="midnightblue" d="M422.2,-15.5C430.51,-15.5 439.18,-15.5 447.61,-15.5"/>
<polygon fill="midnightblue" stroke="midnightblue" points="447.73,-19 457.73,-15.5 447.73,-12 447.73,-19"/>
</g>
</g>
</svg>
