<?xml version="1.0" encoding="UTF-8" standalone="no"?>
<!DOCTYPE svg PUBLIC "-//W3C//DTD SVG 1.1//EN"
 "http://www.w3.org/Graphics/SVG/1.1/DTD/svg11.dtd">
<!-- Generated by graphviz version 2.43.0 (0)
 -->
<!-- Title: ft::irc::bot_handler::on_active Pages: 1 -->
<svg width="455pt" height="384pt"
 viewBox="0.00 0.00 455.00 384.00" xmlns="http://www.w3.org/2000/svg" xmlns:xlink="http://www.w3.org/1999/xlink">
<g id="graph0" class="graph" transform="scale(1 1) rotate(0) translate(4 380)">
<title>ft::irc::bot_handler::on_active</title>
<polygon fill="white" stroke="transparent" points="-4,4 -4,-380 451,-380 451,4 -4,4"/>
<!-- Node1 -->
<g id="node1" class="node">
<title>Node1</title>
<g id="a_node1"><a xlink:title=" ">
<polygon fill="#bfbfbf" stroke="black" points="0,-169.5 0,-199.5 105,-199.5 105,-169.5 0,-169.5"/>
<text text-anchor="start" x="8" y="-187.5" font-family="Helvetica,sans-Serif" font-size="10.00">ft::irc::bot_handler</text>
<text text-anchor="middle" x="52.5" y="-176.5" font-family="Helvetica,sans-Serif" font-size="10.00">::on_active</text>
</a>
</g>
</g>
<!-- Node2 -->
<g id="node2" class="node">
<title>Node2</title>
<g id="a_node2"><a xlink:href="structft_1_1serv_1_1logger.html#a83649a4f3bb804c8fed6dfd130de5ee6" target="_top" xlink:title=" ">
<polygon fill="white" stroke="black" points="154.5,-327 154.5,-346 276.5,-346 276.5,-327 154.5,-327"/>
<text text-anchor="middle" x="215.5" y="-334" font-family="Helvetica,sans-Serif" font-size="10.00">ft::serv::logger::debug</text>
</a>
</g>
</g>
<!-- Node1&#45;&gt;Node2 -->
<g id="edge1" class="edge">
<title>Node1&#45;&gt;Node2</title>
<path fill="none" stroke="midnightblue" d="M59.25,-199.93C70.49,-227.87 98.06,-286.79 141,-317.5 143.73,-319.46 146.65,-321.21 149.69,-322.78"/>
<polygon fill="midnightblue" stroke="midnightblue" points="148.55,-326.11 159.11,-326.98 151.4,-319.71 148.55,-326.11"/>
</g>
<!-- Node5 -->
<g id="node5" class="node">
<title>Node5</title>
<g id="a_node5"><a xlink:href="classft_1_1irc_1_1bot.html#abd5d4f4f5d1690e333978ee4c090047d" target="_top" xlink:title=" ">
<polygon fill="white" stroke="black" points="146,-289 146,-308 285,-308 285,-289 146,-289"/>
<text text-anchor="middle" x="215.5" y="-296" font-family="Helvetica,sans-Serif" font-size="10.00">ft::irc::bot::get_hostname</text>
</a>
</g>
</g>
<!-- Node1&#45;&gt;Node5 -->
<g id="edge4" class="edge">
<title>Node1&#45;&gt;Node5</title>
<path fill="none" stroke="midnightblue" d="M63.14,-199.52C77.51,-220.65 106.57,-258.87 141,-279.5 144.63,-281.67 148.5,-283.6 152.49,-285.3"/>
<polygon fill="midnightblue" stroke="midnightblue" points="151.4,-288.63 161.99,-288.9 153.88,-282.09 151.4,-288.63"/>
</g>
<!-- Node6 -->
<g id="node6" class="node">
<title>Node6</title>
<g id="a_node6"><a xlink:href="classft_1_1irc_1_1bot.html#af00201ff653e89960e762d7b12297c13" target="_top" xlink:title=" ">
<polygon fill="white" stroke="black" points="160.5,-251 160.5,-270 270.5,-270 270.5,-251 160.5,-251"/>
<text text-anchor="middle" x="215.5" y="-258" font-family="Helvetica,sans-Serif" font-size="10.00">ft::irc::bot::get_nick</text>
</a>
</g>
</g>
<!-- Node1&#45;&gt;Node6 -->
<g id="edge5" class="edge">
<title>Node1&#45;&gt;Node6</title>
<path fill="none" stroke="midnightblue" d="M72.6,-199.57C89.66,-212.37 115.78,-230.38 141,-241.5 146.49,-243.92 152.34,-246.08 158.26,-247.99"/>
<polygon fill="midnightblue" stroke="midnightblue" points="157.66,-251.46 168.24,-250.99 159.67,-244.76 157.66,-251.46"/>
</g>
<!-- Node7 -->
<g id="node7" class="node">
<title>Node7</title>
<g id="a_node7"><a xlink:href="classft_1_1irc_1_1bot.html#a974fe87cc09db5c7298164e092b3a866" target="_top" xlink:title=" ">
<polygon fill="white" stroke="black" points="159,-213 159,-232 272,-232 272,-213 159,-213"/>
<text text-anchor="middle" x="215.5" y="-220" font-family="Helvetica,sans-Serif" font-size="10.00">ft::irc::bot::get_pass</text>
</a>
</g>
</g>
<!-- Node1&#45;&gt;Node7 -->
<g id="edge6" class="edge">
<title>Node1&#45;&gt;Node7</title>
<path fill="none" stroke="midnightblue" d="M105.33,-196.73C124.18,-201.18 145.46,-206.2 164.18,-210.62"/>
<polygon fill="midnightblue" stroke="midnightblue" points="163.46,-214.05 174,-212.94 165.07,-207.24 163.46,-214.05"/>
</g>
<!-- Node8 -->
<g id="node8" class="node">
<title>Node8</title>
<g id="a_node8"><a xlink:href="classft_1_1irc_1_1bot.html#a8b8da859f139a8bc65c6722fb9c324f1" target="_top" xlink:title=" ">
<polygon fill="white" stroke="black" points="147,-175 147,-194 284,-194 284,-175 147,-175"/>
<text text-anchor="middle" x="215.5" y="-182" font-family="Helvetica,sans-Serif" font-size="10.00">ft::irc::bot::get_realname</text>
</a>
</g>
</g>
<!-- Node1&#45;&gt;Node8 -->
<g id="edge7" class="edge">
<title>Node1&#45;&gt;Node8</title>
<path fill="none" stroke="midnightblue" d="M105.33,-184.5C115.36,-184.5 126.07,-184.5 136.72,-184.5"/>
<polygon fill="midnightblue" stroke="midnightblue" points="136.89,-188 146.89,-184.5 136.89,-181 136.89,-188"/>
</g>
<!-- Node9 -->
<g id="node9" class="node">
<title>Node9</title>
<g id="a_node9"><a xlink:href="classft_1_1irc_1_1bot.html#af82f7c44d8f68db0fe3026e42fcf3f69" target="_top" xlink:title=" ">
<polygon fill="white" stroke="black" points="141,-137 141,-156 290,-156 290,-137 141,-137"/>
<text text-anchor="middle" x="215.5" y="-144" font-family="Helvetica,sans-Serif" font-size="10.00">ft::irc::bot::get_servername</text>
</a>
</g>
</g>
<!-- Node1&#45;&gt;Node9 -->
<g id="edge8" class="edge">
<title>Node1&#45;&gt;Node9</title>
<path fill="none" stroke="midnightblue" d="M105.33,-172.27C124.18,-167.82 145.46,-162.8 164.18,-158.38"/>
<polygon fill="midnightblue" stroke="midnightblue" points="165.07,-161.76 174,-156.06 163.46,-154.95 165.07,-161.76"/>
</g>
<!-- Node10 -->
<g id="node10" class="node">
<title>Node10</title>
<g id="a_node10"><a xlink:href="classft_1_1irc_1_1bot.html#a8c884ab295df9308e688762a387fd666" target="_top" xlink:title=" ">
<polygon fill="white" stroke="black" points="146,-99 146,-118 285,-118 285,-99 146,-99"/>
<text text-anchor="middle" x="215.5" y="-106" font-family="Helvetica,sans-Serif" font-size="10.00">ft::irc::bot::get_username</text>
</a>
</g>
</g>
<!-- Node1&#45;&gt;Node10 -->
<g id="edge9" class="edge">
<title>Node1&#45;&gt;Node10</title>
<path fill="none" stroke="midnightblue" d="M72.6,-169.43C89.66,-156.63 115.78,-138.62 141,-127.5 146.49,-125.08 152.34,-122.92 158.26,-121.01"/>
<polygon fill="midnightblue" stroke="midnightblue" points="159.67,-124.24 168.24,-118.01 157.66,-117.54 159.67,-124.24"/>
</g>
<!-- Node11 -->
<g id="node11" class="node">
<title>Node11</title>
<g id="a_node11"><a xlink:href="classft_1_1serv_1_1event__layer.html#a854a0764bd67adfc716ec4237cd52672" target="_top" xlink:title=" ">
<polygon fill="white" stroke="black" points="159,-49.5 159,-79.5 272,-79.5 272,-49.5 159,-49.5"/>
<text text-anchor="start" x="167" y="-67.5" font-family="Helvetica,sans-Serif" font-size="10.00">ft::serv::event_layer</text>
<text text-anchor="middle" x="215.5" y="-56.5" font-family="Helvetica,sans-Serif" font-size="10.00">::post_flush</text>
</a>
</g>
</g>
<!-- Node1&#45;&gt;Node11 -->
<g id="edge10" class="edge">
<title>Node1&#45;&gt;Node11</title>
<path fill="none" stroke="midnightblue" d="M63.6,-169.48C78.32,-148.7 107.55,-111.28 141,-89.5 144.12,-87.47 147.42,-85.58 150.83,-83.84"/>
<polygon fill="midnightblue" stroke="midnightblue" points="152.47,-86.94 160.05,-79.54 149.51,-80.59 152.47,-86.94"/>
</g>
<!-- Node12 -->
<g id="node12" class="node">
<title>Node12</title>
<g id="a_node12"><a xlink:href="classft_1_1serv_1_1event__layer.html#add4946138f5f8a5870d52c44ca435aab" target="_top" xlink:title=" ">
<polygon fill="white" stroke="black" points="159,-0.5 159,-30.5 272,-30.5 272,-0.5 159,-0.5"/>
<text text-anchor="start" x="167" y="-18.5" font-family="Helvetica,sans-Serif" font-size="10.00">ft::serv::event_layer</text>
<text text-anchor="middle" x="215.5" y="-7.5" font-family="Helvetica,sans-Serif" font-size="10.00">::post_write</text>
</a>
</g>
</g>
<!-- Node1&#45;&gt;Node12 -->
<g id="edge11" class="edge">
<title>Node1&#45;&gt;Node12</title>
<path fill="none" stroke="midnightblue" d="M58.55,-169.35C69.12,-139.97 96.35,-75 141,-39.5 143.76,-37.3 146.73,-35.3 149.84,-33.49"/>
<polygon fill="midnightblue" stroke="midnightblue" points="151.61,-36.51 158.9,-28.83 148.4,-30.29 151.61,-36.51"/>
</g>
<!-- Node3 -->
<g id="node3" class="node">
<title>Node3</title>
<g id="a_node3"><a xlink:href="namespaceft_1_1serv_1_1__internal.html#a909a2a84f5b086a5535cf537c8aca885" target="_top" xlink:title=" ">
<polygon fill="white" stroke="black" points="326,-345.5 326,-375.5 447,-375.5 447,-345.5 326,-345.5"/>
<text text-anchor="start" x="334" y="-363.5" font-family="Helvetica,sans-Serif" font-size="10.00">ft::serv::_internal</text>
<text text-anchor="middle" x="386.5" y="-352.5" font-family="Helvetica,sans-Serif" font-size="10.00">::make_format_string</text>
</a>
</g>
</g>
<!-- Node2&#45;&gt;Node3 -->
<g id="edge2" class="edge">
<title>Node2&#45;&gt;Node3</title>
<path fill="none" stroke="midnightblue" d="M276.56,-345.03C289.21,-346.83 302.66,-348.74 315.64,-350.58"/>
<polygon fill="midnightblue" stroke="midnightblue" points="315.53,-354.1 325.92,-352.04 316.51,-347.17 315.53,-354.1"/>
</g>
<!-- Node4 -->
<g id="node4" class="node">
<title>Node4</title>
<g id="a_node4"><a xlink:href="namespaceft_1_1serv_1_1__internal.html#aad4af39d62c2b1687b0bef7a91bf6c60" target="_top" xlink:title=" ">
<polygon fill="white" stroke="black" points="335,-296.5 335,-326.5 438,-326.5 438,-296.5 335,-296.5"/>
<text text-anchor="start" x="343" y="-314.5" font-family="Helvetica,sans-Serif" font-size="10.00">ft::serv::_internal</text>
<text text-anchor="middle" x="386.5" y="-303.5" font-family="Helvetica,sans-Serif" font-size="10.00">::make_utc_string</text>
</a>
</g>
</g>
<!-- Node2&#45;&gt;Node4 -->
<g id="edge3" class="edge">
<title>Node2&#45;&gt;Node4</title>
<path fill="none" stroke="midnightblue" d="M276.56,-327.62C292.2,-325.3 309.07,-322.81 324.75,-320.49"/>
<polygon fill="midnightblue" stroke="midnightblue" points="325.47,-323.92 334.85,-318.99 324.45,-316.99 325.47,-323.92"/>
</g>
</g>
</svg>
