<?xml version="1.0" encoding="UTF-8" standalone="no"?>
<!DOCTYPE svg PUBLIC "-//W3C//DTD SVG 1.1//EN"
 "http://www.w3.org/Graphics/SVG/1.1/DTD/svg11.dtd">
<!-- Generated by graphviz version 2.43.0 (0)
 -->
<!-- Title: ft::irc::bot::on_quit Pages: 1 -->
<svg width="674pt" height="259pt"
 viewBox="0.00 0.00 674.00 259.00" xmlns="http://www.w3.org/2000/svg" xmlns:xlink="http://www.w3.org/1999/xlink">
<g id="graph0" class="graph" transform="scale(1 1) rotate(0) translate(4 255)">
<title>ft::irc::bot::on_quit</title>
<polygon fill="white" stroke="transparent" points="-4,4 -4,-255 670,-255 670,4 -4,4"/>
<!-- Node1 -->
<g id="node1" class="node">
<title>Node1</title>
<g id="a_node1"><a xlink:title=" ">
<polygon fill="#bfbfbf" stroke="black" points="0,-128 0,-147 105,-147 105,-128 0,-128"/>
<text text-anchor="middle" x="52.5" y="-135" font-family="Helvetica,sans-Serif" font-size="10.00">ft::irc::bot::on_quit</text>
</a>
</g>
</g>
<!-- Node2 -->
<g id="node2" class="node">
<title>Node2</title>
<g id="a_node2"><a xlink:href="classft_1_1irc_1_1bot.html#af0797d5cc3b307629e5967bfcdd21c3a" target="_top" xlink:title=" ">
<polygon fill="white" stroke="black" points="152,-220.5 152,-250.5 243,-250.5 243,-220.5 152,-220.5"/>
<text text-anchor="start" x="160" y="-238.5" font-family="Helvetica,sans-Serif" font-size="10.00">ft::irc::bot::find</text>
<text text-anchor="middle" x="197.5" y="-227.5" font-family="Helvetica,sans-Serif" font-size="10.00">_own_channels</text>
</a>
</g>
</g>
<!-- Node1&#45;&gt;Node2 -->
<g id="edge1" class="edge">
<title>Node1&#45;&gt;Node2</title>
<path fill="none" stroke="midnightblue" d="M62.99,-147.19C78.3,-162.42 109.89,-192.21 141,-211.5 143.43,-213 145.96,-214.46 148.56,-215.86"/>
<polygon fill="midnightblue" stroke="midnightblue" points="147.04,-219.01 157.54,-220.4 150.19,-212.76 147.04,-219.01"/>
</g>
<!-- Node6 -->
<g id="node6" class="node">
<title>Node6</title>
<g id="a_node6"><a xlink:href="classft_1_1irc_1_1message.html#a254aec48aa7b7872331cd5644d9e918c" target="_top" xlink:title=" ">
<polygon fill="white" stroke="black" points="141,-171.5 141,-201.5 254,-201.5 254,-171.5 141,-171.5"/>
<text text-anchor="start" x="149" y="-189.5" font-family="Helvetica,sans-Serif" font-size="10.00">ft::irc::message::get</text>
<text text-anchor="middle" x="197.5" y="-178.5" font-family="Helvetica,sans-Serif" font-size="10.00">_prefix</text>
</a>
</g>
</g>
<!-- Node1&#45;&gt;Node6 -->
<g id="edge5" class="edge">
<title>Node1&#45;&gt;Node6</title>
<path fill="none" stroke="midnightblue" d="M81.41,-147.06C98.88,-153.05 121.97,-160.96 142.88,-168.13"/>
<polygon fill="midnightblue" stroke="midnightblue" points="142.02,-171.53 152.62,-171.46 144.29,-164.91 142.02,-171.53"/>
</g>
<!-- Node7 -->
<g id="node7" class="node">
<title>Node7</title>
<g id="a_node7"><a xlink:href="classft_1_1irc_1_1bot.html#a44a61e7ca9d9af3bf9d2e2dd484b2c29" target="_top" xlink:title=" ">
<polygon fill="white" stroke="black" points="149.5,-122.5 149.5,-152.5 245.5,-152.5 245.5,-122.5 149.5,-122.5"/>
<text text-anchor="start" x="157.5" y="-140.5" font-family="Helvetica,sans-Serif" font-size="10.00">ft::irc::bot::leave</text>
<text text-anchor="middle" x="197.5" y="-129.5" font-family="Helvetica,sans-Serif" font-size="10.00">_channel</text>
</a>
</g>
</g>
<!-- Node1&#45;&gt;Node7 -->
<g id="edge6" class="edge">
<title>Node1&#45;&gt;Node7</title>
<path fill="none" stroke="midnightblue" d="M105.13,-137.5C116.15,-137.5 127.86,-137.5 139.09,-137.5"/>
<polygon fill="midnightblue" stroke="midnightblue" points="139.23,-141 149.23,-137.5 139.23,-134 139.23,-141"/>
</g>
<!-- Node8 -->
<g id="node8" class="node">
<title>Node8</title>
<g id="a_node8"><a xlink:href="structft_1_1irc_1_1string__utils.html#ac1e75b32f508ffe5a1a1875d1e1cd2ea" target="_top" xlink:title=" ">
<polygon fill="white" stroke="black" points="147,-73.5 147,-103.5 248,-103.5 248,-73.5 147,-73.5"/>
<text text-anchor="start" x="155" y="-91.5" font-family="Helvetica,sans-Serif" font-size="10.00">ft::irc::string_utils</text>
<text text-anchor="middle" x="197.5" y="-80.5" font-family="Helvetica,sans-Serif" font-size="10.00">::pick_nick</text>
</a>
</g>
</g>
<!-- Node1&#45;&gt;Node8 -->
<g id="edge7" class="edge">
<title>Node1&#45;&gt;Node8</title>
<path fill="none" stroke="midnightblue" d="M81.41,-127.94C98.88,-121.95 121.97,-114.04 142.88,-106.87"/>
<polygon fill="midnightblue" stroke="midnightblue" points="144.29,-110.09 152.62,-103.54 142.02,-103.47 144.29,-110.09"/>
</g>
<!-- Node9 -->
<g id="node9" class="node">
<title>Node9</title>
<g id="a_node9"><a xlink:href="classft_1_1irc_1_1bot.html#a970f653872cc4a26d1fd9729552cd9b1" target="_top" xlink:title=" ">
<polygon fill="white" stroke="black" points="151.5,-24.5 151.5,-54.5 243.5,-54.5 243.5,-24.5 151.5,-24.5"/>
<text text-anchor="start" x="159.5" y="-42.5" font-family="Helvetica,sans-Serif" font-size="10.00">ft::irc::bot::send</text>
<text text-anchor="middle" x="197.5" y="-31.5" font-family="Helvetica,sans-Serif" font-size="10.00">_packet</text>
</a>
</g>
</g>
<!-- Node1&#45;&gt;Node9 -->
<g id="edge8" class="edge">
<title>Node1&#45;&gt;Node9</title>
<path fill="none" stroke="midnightblue" d="M62.99,-127.81C78.3,-112.58 109.89,-82.79 141,-63.5 143.43,-62 145.96,-60.54 148.56,-59.14"/>
<polygon fill="midnightblue" stroke="midnightblue" points="150.19,-62.24 157.54,-54.6 147.04,-55.99 150.19,-62.24"/>
</g>
<!-- Node3 -->
<g id="node3" class="node">
<title>Node3</title>
<g id="a_node3"><a xlink:href="structft_1_1irc_1_1string__utils.html#abd73422cb93e7f7f26cfd59a221933a2" target="_top" xlink:title=" ">
<polygon fill="white" stroke="black" points="296,-220.5 296,-250.5 397,-250.5 397,-220.5 296,-220.5"/>
<text text-anchor="start" x="304" y="-238.5" font-family="Helvetica,sans-Serif" font-size="10.00">ft::irc::string_utils</text>
<text text-anchor="middle" x="346.5" y="-227.5" font-family="Helvetica,sans-Serif" font-size="10.00">::is_same</text>
</a>
</g>
</g>
<!-- Node2&#45;&gt;Node3 -->
<g id="edge2" class="edge">
<title>Node2&#45;&gt;Node3</title>
<path fill="none" stroke="midnightblue" d="M243,-235.5C256.4,-235.5 271.33,-235.5 285.55,-235.5"/>
<polygon fill="midnightblue" stroke="midnightblue" points="285.75,-239 295.75,-235.5 285.75,-232 285.75,-239"/>
</g>
<!-- Node4 -->
<g id="node4" class="node">
<title>Node4</title>
<g id="a_node4"><a xlink:href="structft_1_1irc_1_1string__utils.html#a367a22012cc0d2d25959ac3f4e5d33a9" target="_top" xlink:title=" ">
<polygon fill="white" stroke="black" points="439,-220.5 439,-250.5 540,-250.5 540,-220.5 439,-220.5"/>
<text text-anchor="start" x="447" y="-238.5" font-family="Helvetica,sans-Serif" font-size="10.00">ft::irc::string_utils</text>
<text text-anchor="middle" x="489.5" y="-227.5" font-family="Helvetica,sans-Serif" font-size="10.00">::to_lower</text>
</a>
</g>
</g>
<!-- Node3&#45;&gt;Node4 -->
<g id="edge3" class="edge">
<title>Node3&#45;&gt;Node4</title>
<path fill="none" stroke="midnightblue" d="M397.21,-235.5C407.32,-235.5 418.06,-235.5 428.48,-235.5"/>
<polygon fill="midnightblue" stroke="midnightblue" points="428.76,-239 438.76,-235.5 428.76,-232 428.76,-239"/>
</g>
<!-- Node5 -->
<g id="node5" class="node">
<title>Node5</title>
<g id="a_node5"><a xlink:href="namespaceft_1_1irc_1_1__internal.html#aa76c3a369f64725f8b2b52b2131c1111" target="_top" xlink:title=" ">
<polygon fill="white" stroke="black" points="576,-220.5 576,-250.5 666,-250.5 666,-220.5 576,-220.5"/>
<text text-anchor="start" x="584" y="-238.5" font-family="Helvetica,sans-Serif" font-size="10.00">ft::irc::_internal</text>
<text text-anchor="middle" x="621" y="-227.5" font-family="Helvetica,sans-Serif" font-size="10.00">::_to_lower</text>
</a>
</g>
</g>
<!-- Node4&#45;&gt;Node5 -->
<g id="edge4" class="edge">
<title>Node4&#45;&gt;Node5</title>
<path fill="none" stroke="midnightblue" d="M540.2,-235.5C548.51,-235.5 557.18,-235.5 565.61,-235.5"/>
<polygon fill="midnightblue" stroke="midnightblue" points="565.73,-239 575.73,-235.5 565.73,-232 565.73,-239"/>
</g>
<!-- Node10 -->
<g id="node10" class="node">
<title>Node10</title>
<g id="a_node10"><a xlink:href="classft_1_1serv_1_1event__layer.html#a854a0764bd67adfc716ec4237cd52672" target="_top" xlink:title=" ">
<polygon fill="white" stroke="black" points="290,-49.5 290,-79.5 403,-79.5 403,-49.5 290,-49.5"/>
<text text-anchor="start" x="298" y="-67.5" font-family="Helvetica,sans-Serif" font-size="10.00">ft::serv::event_layer</text>
<text text-anchor="middle" x="346.5" y="-56.5" font-family="Helvetica,sans-Serif" font-size="10.00">::post_flush</text>
</a>
</g>
</g>
<!-- Node9&#45;&gt;Node10 -->
<g id="edge9" class="edge">
<title>Node9&#45;&gt;Node10</title>
<path fill="none" stroke="midnightblue" d="M243.8,-47.2C255.21,-49.14 267.67,-51.26 279.85,-53.34"/>
<polygon fill="midnightblue" stroke="midnightblue" points="279.54,-56.83 289.98,-55.06 280.71,-49.93 279.54,-56.83"/>
</g>
<!-- Node11 -->
<g id="node11" class="node">
<title>Node11</title>
<g id="a_node11"><a xlink:href="classft_1_1serv_1_1event__layer.html#add4946138f5f8a5870d52c44ca435aab" target="_top" xlink:title=" ">
<polygon fill="white" stroke="black" points="290,-0.5 290,-30.5 403,-30.5 403,-0.5 290,-0.5"/>
<text text-anchor="start" x="298" y="-18.5" font-family="Helvetica,sans-Serif" font-size="10.00">ft::serv::event_layer</text>
<text text-anchor="middle" x="346.5" y="-7.5" font-family="Helvetica,sans-Serif" font-size="10.00">::post_write</text>
</a>
</g>
</g>
<!-- Node9&#45;&gt;Node11 -->
<g id="edge10" class="edge">
<title>Node9&#45;&gt;Node11</title>
<path fill="none" stroke="midnightblue" d="M243.8,-32.1C255.21,-30.24 267.67,-28.21 279.85,-26.22"/>
<polygon fill="midnightblue" stroke="midnightblue" points="280.68,-29.63 289.98,-24.56 279.55,-22.72 280.68,-29.63"/>
</g>
</g>
</svg>
