<?xml version="1.0" encoding="UTF-8" standalone="no"?>
<!DOCTYPE svg PUBLIC "-//W3C//DTD SVG 1.1//EN"
 "http://www.w3.org/Graphics/SVG/1.1/DTD/svg11.dtd">
<!-- Generated by graphviz version 2.43.0 (0)
 -->
<!-- Title: ft::irc::processor_who::execute Pages: 1 -->
<svg width="765pt" height="187pt"
 viewBox="0.00 0.00 765.00 187.00" xmlns="http://www.w3.org/2000/svg" xmlns:xlink="http://www.w3.org/1999/xlink">
<g id="graph0" class="graph" transform="scale(1 1) rotate(0) translate(4 183)">
<title>ft::irc::processor_who::execute</title>
<polygon fill="white" stroke="transparent" points="-4,4 -4,-183 761,-183 761,4 -4,4"/>
<!-- Node1 -->
<g id="node1" class="node">
<title>Node1</title>
<g id="a_node1"><a xlink:title=" ">
<polygon fill="#bfbfbf" stroke="black" points="0,-85.5 0,-115.5 95,-115.5 95,-85.5 0,-85.5"/>
<text text-anchor="start" x="8" y="-103.5" font-family="Helvetica,sans-Serif" font-size="10.00">ft::irc::processor</text>
<text text-anchor="middle" x="47.5" y="-92.5" font-family="Helvetica,sans-Serif" font-size="10.00">_who::execute</text>
</a>
</g>
</g>
<!-- Node2 -->
<g id="node2" class="node">
<title>Node2</title>
<g id="a_node2"><a xlink:href="structft_1_1irc_1_1make__reply.html#af2d605d0680387255d2ba2de0bd1957a" target="_top" xlink:title=" ">
<polygon fill="white" stroke="black" points="156,-148.5 156,-178.5 260,-178.5 260,-148.5 156,-148.5"/>
<text text-anchor="start" x="164" y="-166.5" font-family="Helvetica,sans-Serif" font-size="10.00">ft::irc::make_reply</text>
<text text-anchor="middle" x="208" y="-155.5" font-family="Helvetica,sans-Serif" font-size="10.00">::end_of_who</text>
</a>
</g>
</g>
<!-- Node1&#45;&gt;Node2 -->
<g id="edge1" class="edge">
<title>Node1&#45;&gt;Node2</title>
<path fill="none" stroke="midnightblue" d="M79.09,-115.6C94.48,-122.94 113.54,-131.63 131,-138.5 136.77,-140.77 142.83,-143.01 148.92,-145.15"/>
<polygon fill="midnightblue" stroke="midnightblue" points="147.86,-148.49 158.46,-148.45 150.15,-141.88 147.86,-148.49"/>
</g>
<!-- Node3 -->
<g id="node3" class="node">
<title>Node3</title>
<g id="a_node3"><a xlink:href="classft_1_1irc_1_1user.html#a7277f06aa83459f6f9b409858d602e3b" target="_top" xlink:title=" ">
<polygon fill="white" stroke="black" points="147.5,-110 147.5,-129 268.5,-129 268.5,-110 147.5,-110"/>
<text text-anchor="middle" x="208" y="-117" font-family="Helvetica,sans-Serif" font-size="10.00">ft::irc::user::load_nick</text>
</a>
</g>
</g>
<!-- Node1&#45;&gt;Node3 -->
<g id="edge2" class="edge">
<title>Node1&#45;&gt;Node3</title>
<path fill="none" stroke="midnightblue" d="M95.2,-106.1C108.35,-107.67 122.95,-109.42 137.15,-111.13"/>
<polygon fill="midnightblue" stroke="midnightblue" points="137.04,-114.64 147.38,-112.35 137.87,-107.69 137.04,-114.64"/>
</g>
<!-- Node4 -->
<g id="node4" class="node">
<title>Node4</title>
<g id="a_node4"><a xlink:href="classft_1_1irc_1_1message.html#a34f457ead0453ad914af2cb0482a40b9" target="_top" xlink:title=" ">
<polygon fill="white" stroke="black" points="131,-72 131,-91 285,-91 285,-72 131,-72"/>
<text text-anchor="middle" x="208" y="-79" font-family="Helvetica,sans-Serif" font-size="10.00">ft::irc::message::param_size</text>
</a>
</g>
</g>
<!-- Node1&#45;&gt;Node4 -->
<g id="edge3" class="edge">
<title>Node1&#45;&gt;Node4</title>
<path fill="none" stroke="midnightblue" d="M95.2,-94.9C103.36,-93.92 112.08,-92.88 120.91,-91.82"/>
<polygon fill="midnightblue" stroke="midnightblue" points="121.39,-95.29 130.91,-90.62 120.56,-88.34 121.39,-95.29"/>
</g>
<!-- Node5 -->
<g id="node5" class="node">
<title>Node5</title>
<g id="a_node5"><a xlink:href="classft_1_1irc_1_1user.html#a1db558d6d694ca943224c2440fe36c50" target="_top" xlink:title=" ">
<polygon fill="white" stroke="black" points="159,-22.5 159,-52.5 257,-52.5 257,-22.5 159,-22.5"/>
<text text-anchor="start" x="167" y="-40.5" font-family="Helvetica,sans-Serif" font-size="10.00">ft::irc::user::send</text>
<text text-anchor="middle" x="208" y="-29.5" font-family="Helvetica,sans-Serif" font-size="10.00">_message</text>
</a>
</g>
</g>
<!-- Node1&#45;&gt;Node5 -->
<g id="edge4" class="edge">
<title>Node1&#45;&gt;Node5</title>
<path fill="none" stroke="midnightblue" d="M79.09,-85.4C94.48,-78.06 113.54,-69.37 131,-62.5 136.85,-60.2 143.01,-57.93 149.19,-55.75"/>
<polygon fill="midnightblue" stroke="midnightblue" points="150.55,-58.98 158.86,-52.42 148.27,-52.37 150.55,-58.98"/>
</g>
<!-- Node6 -->
<g id="node6" class="node">
<title>Node6</title>
<g id="a_node6"><a xlink:href="structft_1_1serv_1_1logger.html#a83649a4f3bb804c8fed6dfd130de5ee6" target="_top" xlink:title=" ">
<polygon fill="white" stroke="black" points="321,-50 321,-69 443,-69 443,-50 321,-50"/>
<text text-anchor="middle" x="382" y="-57" font-family="Helvetica,sans-Serif" font-size="10.00">ft::serv::logger::debug</text>
</a>
</g>
</g>
<!-- Node5&#45;&gt;Node6 -->
<g id="edge5" class="edge">
<title>Node5&#45;&gt;Node6</title>
<path fill="none" stroke="midnightblue" d="M257.37,-43.69C273.82,-45.79 292.55,-48.19 310.37,-50.47"/>
<polygon fill="midnightblue" stroke="midnightblue" points="310.37,-53.99 320.74,-51.79 311.26,-47.05 310.37,-53.99"/>
</g>
<!-- Node10 -->
<g id="node10" class="node">
<title>Node10</title>
<g id="a_node10"><a xlink:href="classft_1_1irc_1_1message.html#a076fdbb740cb752dd153e207f076183a" target="_top" xlink:title=" ">
<polygon fill="white" stroke="black" points="328.5,-0.5 328.5,-30.5 435.5,-30.5 435.5,-0.5 328.5,-0.5"/>
<text text-anchor="start" x="336.5" y="-18.5" font-family="Helvetica,sans-Serif" font-size="10.00">ft::irc::message::to</text>
<text text-anchor="middle" x="382" y="-7.5" font-family="Helvetica,sans-Serif" font-size="10.00">_pretty_string</text>
</a>
</g>
</g>
<!-- Node5&#45;&gt;Node10 -->
<g id="edge9" class="edge">
<title>Node5&#45;&gt;Node10</title>
<path fill="none" stroke="midnightblue" d="M257.37,-31.31C276.32,-28.89 298.32,-26.08 318.45,-23.5"/>
<polygon fill="midnightblue" stroke="midnightblue" points="319,-26.96 328.48,-22.22 318.11,-20.02 319,-26.96"/>
</g>
<!-- Node7 -->
<g id="node7" class="node">
<title>Node7</title>
<g id="a_node7"><a xlink:href="namespaceft_1_1serv_1_1__internal.html#a4dfb80be7b817fc0ee18658f313a6274" target="_top" xlink:title=" ">
<polygon fill="white" stroke="black" points="479,-44.5 479,-74.5 577,-74.5 577,-44.5 479,-44.5"/>
<text text-anchor="start" x="487" y="-62.5" font-family="Helvetica,sans-Serif" font-size="10.00">ft::serv::_internal</text>
<text text-anchor="middle" x="528" y="-51.5" font-family="Helvetica,sans-Serif" font-size="10.00">::print</text>
</a>
</g>
</g>
<!-- Node6&#45;&gt;Node7 -->
<g id="edge6" class="edge">
<title>Node6&#45;&gt;Node7</title>
<path fill="none" stroke="midnightblue" d="M443.23,-59.5C451.67,-59.5 460.33,-59.5 468.73,-59.5"/>
<polygon fill="midnightblue" stroke="midnightblue" points="468.82,-63 478.82,-59.5 468.82,-56 468.82,-63"/>
</g>
<!-- Node8 -->
<g id="node8" class="node">
<title>Node8</title>
<g id="a_node8"><a xlink:href="namespaceft_1_1serv_1_1__internal.html#aff49349b58dc84fa69076e9cd27a1db4" target="_top" xlink:title=" ">
<polygon fill="white" stroke="black" points="613,-69.5 613,-99.5 757,-99.5 757,-69.5 613,-69.5"/>
<text text-anchor="start" x="621" y="-87.5" font-family="Helvetica,sans-Serif" font-size="10.00">ft::serv::_internal</text>
<text text-anchor="middle" x="685" y="-76.5" font-family="Helvetica,sans-Serif" font-size="10.00">::make_format_string_line</text>
</a>
</g>
</g>
<!-- Node7&#45;&gt;Node8 -->
<g id="edge7" class="edge">
<title>Node7&#45;&gt;Node8</title>
<path fill="none" stroke="midnightblue" d="M577.19,-67.27C585.39,-68.6 594.11,-70 602.88,-71.42"/>
<polygon fill="midnightblue" stroke="midnightblue" points="602.36,-74.88 612.79,-73.01 603.48,-67.97 602.36,-74.88"/>
</g>
<!-- Node9 -->
<g id="node9" class="node">
<title>Node9</title>
<g id="a_node9"><a xlink:href="namespaceft_1_1serv_1_1__internal.html#aad4af39d62c2b1687b0bef7a91bf6c60" target="_top" xlink:title=" ">
<polygon fill="white" stroke="black" points="633.5,-20.5 633.5,-50.5 736.5,-50.5 736.5,-20.5 633.5,-20.5"/>
<text text-anchor="start" x="641.5" y="-38.5" font-family="Helvetica,sans-Serif" font-size="10.00">ft::serv::_internal</text>
<text text-anchor="middle" x="685" y="-27.5" font-family="Helvetica,sans-Serif" font-size="10.00">::make_utc_string</text>
</a>
</g>
</g>
<!-- Node7&#45;&gt;Node9 -->
<g id="edge8" class="edge">
<title>Node7&#45;&gt;Node9</title>
<path fill="none" stroke="midnightblue" d="M577.19,-52.04C591.85,-49.77 608.14,-47.25 623.49,-44.87"/>
<polygon fill="midnightblue" stroke="midnightblue" points="624.08,-48.32 633.42,-43.33 623.01,-41.4 624.08,-48.32"/>
</g>
</g>
</svg>
