<?xml version="1.0" encoding="UTF-8" standalone="no"?>
<!DOCTYPE svg PUBLIC "-//W3C//DTD SVG 1.1//EN"
 "http://www.w3.org/Graphics/SVG/1.1/DTD/svg11.dtd">
<!-- Generated by graphviz version 2.43.0 (0)
 -->
<!-- Title: ft::irc::user::change_nick Pages: 1 -->
<svg width="588pt" height="66pt"
 viewBox="0.00 0.00 588.00 66.00" xmlns="http://www.w3.org/2000/svg" xmlns:xlink="http://www.w3.org/1999/xlink">
<g id="graph0" class="graph" transform="scale(1 1) rotate(0) translate(4 62)">
<title>ft::irc::user::change_nick</title>
<polygon fill="white" stroke="transparent" points="-4,4 -4,-62 584,-62 584,4 -4,4"/>
<!-- Node1 -->
<g id="node1" class="node">
<title>Node1</title>
<g id="a_node1"><a xlink:title=" ">
<polygon fill="#bfbfbf" stroke="black" points="0,-19.5 0,-38.5 135,-38.5 135,-19.5 0,-19.5"/>
<text text-anchor="middle" x="67.5" y="-26.5" font-family="Helvetica,sans-Serif" font-size="10.00">ft::irc::user::change_nick</text>
</a>
</g>
</g>
<!-- Node2 -->
<g id="node2" class="node">
<title>Node2</title>
<g id="a_node2"><a xlink:href="classft_1_1irc_1_1server.html#ab534369c5d538fbf60852889a7d8127b" target="_top" xlink:title=" ">
<polygon fill="white" stroke="black" points="178.5,-38.5 178.5,-57.5 309.5,-57.5 309.5,-38.5 178.5,-38.5"/>
<text text-anchor="middle" x="244" y="-45.5" font-family="Helvetica,sans-Serif" font-size="10.00">ft::irc::server::hold_nick</text>
</a>
</g>
</g>
<!-- Node1&#45;&gt;Node2 -->
<g id="edge1" class="edge">
<title>Node1&#45;&gt;Node2</title>
<path fill="none" stroke="midnightblue" d="M135.47,-36.29C146.1,-37.45 157.16,-38.65 167.97,-39.83"/>
<polygon fill="midnightblue" stroke="midnightblue" points="167.9,-43.34 178.22,-40.95 168.66,-36.39 167.9,-43.34"/>
</g>
<!-- Node5 -->
<g id="node5" class="node">
<title>Node5</title>
<g id="a_node5"><a xlink:href="classft_1_1irc_1_1server.html#a2f4c8826af7867f18ed67c1b9dabf65f" target="_top" xlink:title=" ">
<polygon fill="white" stroke="black" points="171,-0.5 171,-19.5 317,-19.5 317,-0.5 171,-0.5"/>
<text text-anchor="middle" x="244" y="-7.5" font-family="Helvetica,sans-Serif" font-size="10.00">ft::irc::server::release_nick</text>
</a>
</g>
</g>
<!-- Node1&#45;&gt;Node5 -->
<g id="edge4" class="edge">
<title>Node1&#45;&gt;Node5</title>
<path fill="none" stroke="midnightblue" d="M135.47,-21.71C143.83,-20.8 152.45,-19.86 161,-18.93"/>
<polygon fill="midnightblue" stroke="midnightblue" points="161.43,-22.4 170.99,-17.84 160.67,-15.44 161.43,-22.4"/>
</g>
<!-- Node3 -->
<g id="node3" class="node">
<title>Node3</title>
<g id="a_node3"><a xlink:href="structft_1_1irc_1_1string__utils.html#a367a22012cc0d2d25959ac3f4e5d33a9" target="_top" xlink:title=" ">
<polygon fill="white" stroke="black" points="353,-14 353,-44 454,-44 454,-14 353,-14"/>
<text text-anchor="start" x="361" y="-32" font-family="Helvetica,sans-Serif" font-size="10.00">ft::irc::string_utils</text>
<text text-anchor="middle" x="403.5" y="-21" font-family="Helvetica,sans-Serif" font-size="10.00">::to_lower</text>
</a>
</g>
</g>
<!-- Node2&#45;&gt;Node3 -->
<g id="edge2" class="edge">
<title>Node2&#45;&gt;Node3</title>
<path fill="none" stroke="midnightblue" d="M309.52,-40.22C320.46,-38.9 331.78,-37.53 342.6,-36.23"/>
<polygon fill="midnightblue" stroke="midnightblue" points="343.28,-39.67 352.79,-35 342.45,-32.72 343.28,-39.67"/>
</g>
<!-- Node4 -->
<g id="node4" class="node">
<title>Node4</title>
<g id="a_node4"><a xlink:href="namespaceft_1_1irc_1_1__internal.html#aa76c3a369f64725f8b2b52b2131c1111" target="_top" xlink:title=" ">
<polygon fill="white" stroke="black" points="490,-14 490,-44 580,-44 580,-14 490,-14"/>
<text text-anchor="start" x="498" y="-32" font-family="Helvetica,sans-Serif" font-size="10.00">ft::irc::_internal</text>
<text text-anchor="middle" x="535" y="-21" font-family="Helvetica,sans-Serif" font-size="10.00">::_to_lower</text>
</a>
</g>
</g>
<!-- Node3&#45;&gt;Node4 -->
<g id="edge3" class="edge">
<title>Node3&#45;&gt;Node4</title>
<path fill="none" stroke="midnightblue" d="M454.2,-29C462.51,-29 471.18,-29 479.61,-29"/>
<polygon fill="midnightblue" stroke="midnightblue" points="479.73,-32.5 489.73,-29 479.73,-25.5 479.73,-32.5"/>
</g>
<!-- Node5&#45;&gt;Node3 -->
<g id="edge5" class="edge">
<title>Node5&#45;&gt;Node3</title>
<path fill="none" stroke="midnightblue" d="M317.3,-18.72C325.81,-19.75 334.42,-20.79 342.73,-21.79"/>
<polygon fill="midnightblue" stroke="midnightblue" points="342.34,-25.27 352.69,-22.99 343.18,-18.32 342.34,-25.27"/>
</g>
</g>
</svg>
