<?xml version="1.0" encoding="UTF-8" standalone="no"?>
<!DOCTYPE svg PUBLIC "-//W3C//DTD SVG 1.1//EN"
 "http://www.w3.org/Graphics/SVG/1.1/DTD/svg11.dtd">
<!-- Generated by graphviz version 2.43.0 (0)
 -->
<!-- Title: ft::irc::processor_base Pages: 1 -->
<svg width="426pt" height="684pt"
 viewBox="0.00 0.00 426.00 684.00" xmlns="http://www.w3.org/2000/svg" xmlns:xlink="http://www.w3.org/1999/xlink">
<g id="graph0" class="graph" transform="scale(1 1) rotate(0) translate(4 680)">
<title>ft::irc::processor_base</title>
<polygon fill="white" stroke="transparent" points="-4,4 -4,-680 422,-680 422,4 -4,4"/>
<!-- Node1 -->
<g id="node1" class="node">
<title>Node1</title>
<g id="a_node1"><a xlink:title=" ">
<polygon fill="#bfbfbf" stroke="black" points="0,-328.5 0,-347.5 123,-347.5 123,-328.5 0,-328.5"/>
<text text-anchor="middle" x="61.5" y="-335.5" font-family="Helvetica,sans-Serif" font-size="10.00">ft::irc::processor_base</text>
</a>
</g>
</g>
<!-- Node2 -->
<g id="node2" class="node">
<title>Node2</title>
<g id="a_node2"><a xlink:href="classft_1_1irc_1_1processor__away.html" target="_top" xlink:title=" ">
<polygon fill="white" stroke="black" points="160,-656.5 160,-675.5 286,-675.5 286,-656.5 160,-656.5"/>
<text text-anchor="middle" x="223" y="-663.5" font-family="Helvetica,sans-Serif" font-size="10.00">ft::irc::processor_away</text>
</a>
</g>
</g>
<!-- Node1&#45;&gt;Node2 -->
<g id="edge1" class="edge">
<title>Node1&#45;&gt;Node2</title>
<path fill="none" stroke="midnightblue" d="M62.64,-357.69C64.12,-411.89 75.86,-564.67 159,-647 162.9,-650.86 167.55,-653.94 172.53,-656.39"/>
<polygon fill="midnightblue" stroke="midnightblue" points="66.14,-357.62 62.46,-347.68 59.14,-357.75 66.14,-357.62"/>
</g>
<!-- Node3 -->
<g id="node3" class="node">
<title>Node3</title>
<g id="a_node3"><a xlink:href="classft_1_1irc_1_1processor__cap.html" target="_top" xlink:title=" ">
<polygon fill="white" stroke="black" points="164.5,-618.5 164.5,-637.5 281.5,-637.5 281.5,-618.5 164.5,-618.5"/>
<text text-anchor="middle" x="223" y="-625.5" font-family="Helvetica,sans-Serif" font-size="10.00">ft::irc::processor_cap</text>
</a>
</g>
</g>
<!-- Node1&#45;&gt;Node3 -->
<g id="edge2" class="edge">
<title>Node1&#45;&gt;Node3</title>
<path fill="none" stroke="midnightblue" d="M63.63,-357.55C67.57,-407.06 84.84,-538.4 159,-609 163.05,-612.86 167.86,-615.94 172.99,-618.39"/>
<polygon fill="midnightblue" stroke="midnightblue" points="67.12,-357.28 62.94,-347.54 60.14,-357.76 67.12,-357.28"/>
</g>
<!-- Node4 -->
<g id="node4" class="node">
<title>Node4</title>
<g id="a_node4"><a xlink:href="classft_1_1irc_1_1processor__invite.html" target="_top" xlink:title=" ">
<polygon fill="white" stroke="black" points="175.5,-569 175.5,-599 270.5,-599 270.5,-569 175.5,-569"/>
<text text-anchor="start" x="183.5" y="-587" font-family="Helvetica,sans-Serif" font-size="10.00">ft::irc::processor</text>
<text text-anchor="middle" x="223" y="-576" font-family="Helvetica,sans-Serif" font-size="10.00">_invite</text>
</a>
</g>
</g>
<!-- Node1&#45;&gt;Node4 -->
<g id="edge3" class="edge">
<title>Node1&#45;&gt;Node4</title>
<path fill="none" stroke="midnightblue" d="M65.9,-357.84C74.19,-400.4 99.31,-501.31 159,-559 163.74,-563.58 169.42,-567.35 175.4,-570.45"/>
<polygon fill="midnightblue" stroke="midnightblue" points="69.32,-357.1 64.07,-347.9 62.44,-358.37 69.32,-357.1"/>
</g>
<!-- Node5 -->
<g id="node5" class="node">
<title>Node5</title>
<g id="a_node5"><a xlink:href="classft_1_1irc_1_1processor__join.html" target="_top" xlink:title=" ">
<polygon fill="white" stroke="black" points="164,-530.5 164,-549.5 282,-549.5 282,-530.5 164,-530.5"/>
<text text-anchor="middle" x="223" y="-537.5" font-family="Helvetica,sans-Serif" font-size="10.00">ft::irc::processor_join</text>
</a>
</g>
</g>
<!-- Node1&#45;&gt;Node5 -->
<g id="edge4" class="edge">
<title>Node1&#45;&gt;Node5</title>
<path fill="none" stroke="midnightblue" d="M67.43,-357.77C77.81,-395.26 105.49,-476.91 159,-521 163.67,-524.85 169.11,-527.92 174.8,-530.37"/>
<polygon fill="midnightblue" stroke="midnightblue" points="70.69,-356.41 64.76,-347.64 63.93,-358.2 70.69,-356.41"/>
</g>
<!-- Node6 -->
<g id="node6" class="node">
<title>Node6</title>
<g id="a_node6"><a xlink:href="classft_1_1irc_1_1processor__kick.html" target="_top" xlink:title=" ">
<polygon fill="white" stroke="black" points="163,-492.5 163,-511.5 283,-511.5 283,-492.5 163,-492.5"/>
<text text-anchor="middle" x="223" y="-499.5" font-family="Helvetica,sans-Serif" font-size="10.00">ft::irc::processor_kick</text>
</a>
</g>
</g>
<!-- Node1&#45;&gt;Node6 -->
<g id="edge5" class="edge">
<title>Node1&#45;&gt;Node6</title>
<path fill="none" stroke="midnightblue" d="M70.07,-357.09C83.36,-388.15 113.83,-449.49 159,-483 164.23,-486.88 170.25,-489.97 176.46,-492.44"/>
<polygon fill="midnightblue" stroke="midnightblue" points="73.29,-355.7 66.23,-347.8 66.82,-358.38 73.29,-355.7"/>
</g>
<!-- Node7 -->
<g id="node7" class="node">
<title>Node7</title>
<g id="a_node7"><a xlink:href="classft_1_1irc_1_1processor__kill.html" target="_top" xlink:title=" ">
<polygon fill="white" stroke="black" points="165.5,-454.5 165.5,-473.5 280.5,-473.5 280.5,-454.5 165.5,-454.5"/>
<text text-anchor="middle" x="223" y="-461.5" font-family="Helvetica,sans-Serif" font-size="10.00">ft::irc::processor_kill</text>
</a>
</g>
</g>
<!-- Node1&#45;&gt;Node7 -->
<g id="edge6" class="edge">
<title>Node1&#45;&gt;Node7</title>
<path fill="none" stroke="midnightblue" d="M74.08,-356.04C90.26,-379.85 121.88,-421.47 159,-445 165.08,-448.85 171.98,-451.96 178.93,-454.46"/>
<polygon fill="midnightblue" stroke="midnightblue" points="76.91,-353.99 68.47,-347.59 71.08,-357.86 76.91,-353.99"/>
</g>
<!-- Node8 -->
<g id="node8" class="node">
<title>Node8</title>
<g id="a_node8"><a xlink:href="classft_1_1irc_1_1processor__list.html" target="_top" xlink:title=" ">
<polygon fill="white" stroke="black" points="165.5,-416.5 165.5,-435.5 280.5,-435.5 280.5,-416.5 165.5,-416.5"/>
<text text-anchor="middle" x="223" y="-423.5" font-family="Helvetica,sans-Serif" font-size="10.00">ft::irc::processor_list</text>
</a>
</g>
</g>
<!-- Node1&#45;&gt;Node8 -->
<g id="edge7" class="edge">
<title>Node1&#45;&gt;Node8</title>
<path fill="none" stroke="midnightblue" d="M81.41,-353.99C100.1,-369.13 130.02,-391.62 159,-406 167.22,-410.08 176.46,-413.56 185.27,-416.43"/>
<polygon fill="midnightblue" stroke="midnightblue" points="83.6,-351.26 73.65,-347.6 79.15,-356.66 83.6,-351.26"/>
</g>
<!-- Node9 -->
<g id="node9" class="node">
<title>Node9</title>
<g id="a_node9"><a xlink:href="classft_1_1irc_1_1processor__message__base.html" target="_top" xlink:title=" ">
<polygon fill="white" stroke="black" points="175.5,-367 175.5,-397 270.5,-397 270.5,-367 175.5,-367"/>
<text text-anchor="start" x="183.5" y="-385" font-family="Helvetica,sans-Serif" font-size="10.00">ft::irc::processor</text>
<text text-anchor="middle" x="223" y="-374" font-family="Helvetica,sans-Serif" font-size="10.00">_message_base</text>
</a>
</g>
</g>
<!-- Node1&#45;&gt;Node9 -->
<g id="edge8" class="edge">
<title>Node1&#45;&gt;Node9</title>
<path fill="none" stroke="midnightblue" d="M106.89,-350.24C128.2,-356.13 153.75,-363.17 175.35,-369.13"/>
<polygon fill="midnightblue" stroke="midnightblue" points="107.68,-346.83 97.11,-347.55 105.82,-353.58 107.68,-346.83"/>
</g>
<!-- Node12 -->
<g id="node12" class="node">
<title>Node12</title>
<g id="a_node12"><a xlink:href="classft_1_1irc_1_1processor__mode.html" target="_top" xlink:title=" ">
<polygon fill="white" stroke="black" points="159,-328.5 159,-347.5 287,-347.5 287,-328.5 159,-328.5"/>
<text text-anchor="middle" x="223" y="-335.5" font-family="Helvetica,sans-Serif" font-size="10.00">ft::irc::processor_mode</text>
</a>
</g>
</g>
<!-- Node1&#45;&gt;Node12 -->
<g id="edge11" class="edge">
<title>Node1&#45;&gt;Node12</title>
<path fill="none" stroke="midnightblue" d="M133.45,-338C141.88,-338 150.45,-338 158.76,-338"/>
<polygon fill="midnightblue" stroke="midnightblue" points="133.26,-334.5 123.26,-338 133.26,-341.5 133.26,-334.5"/>
</g>
<!-- Node13 -->
<g id="node13" class="node">
<title>Node13</title>
<g id="a_node13"><a xlink:href="classft_1_1irc_1_1processor__names.html" target="_top" xlink:title=" ">
<polygon fill="white" stroke="black" points="175.5,-279 175.5,-309 270.5,-309 270.5,-279 175.5,-279"/>
<text text-anchor="start" x="183.5" y="-297" font-family="Helvetica,sans-Serif" font-size="10.00">ft::irc::processor</text>
<text text-anchor="middle" x="223" y="-286" font-family="Helvetica,sans-Serif" font-size="10.00">_names</text>
</a>
</g>
</g>
<!-- Node1&#45;&gt;Node13 -->
<g id="edge12" class="edge">
<title>Node1&#45;&gt;Node13</title>
<path fill="none" stroke="midnightblue" d="M106.89,-325.76C128.2,-319.87 153.75,-312.83 175.35,-306.87"/>
<polygon fill="midnightblue" stroke="midnightblue" points="105.82,-322.42 97.11,-328.45 107.68,-329.17 105.82,-322.42"/>
</g>
<!-- Node14 -->
<g id="node14" class="node">
<title>Node14</title>
<g id="a_node14"><a xlink:href="classft_1_1irc_1_1processor__nick.html" target="_top" xlink:title=" ">
<polygon fill="white" stroke="black" points="163,-240.5 163,-259.5 283,-259.5 283,-240.5 163,-240.5"/>
<text text-anchor="middle" x="223" y="-247.5" font-family="Helvetica,sans-Serif" font-size="10.00">ft::irc::processor_nick</text>
</a>
</g>
</g>
<!-- Node1&#45;&gt;Node14 -->
<g id="edge13" class="edge">
<title>Node1&#45;&gt;Node14</title>
<path fill="none" stroke="midnightblue" d="M81.01,-321.92C99.62,-306.48 129.67,-283.42 159,-269 166.59,-265.27 175.05,-262.11 183.25,-259.5"/>
<polygon fill="midnightblue" stroke="midnightblue" points="78.7,-319.3 73.31,-328.42 83.21,-324.64 78.7,-319.3"/>
</g>
<!-- Node15 -->
<g id="node15" class="node">
<title>Node15</title>
<g id="a_node15"><a xlink:href="classft_1_1irc_1_1processor__oper.html" target="_top" xlink:title=" ">
<polygon fill="white" stroke="black" points="162,-202.5 162,-221.5 284,-221.5 284,-202.5 162,-202.5"/>
<text text-anchor="middle" x="223" y="-209.5" font-family="Helvetica,sans-Serif" font-size="10.00">ft::irc::processor_oper</text>
</a>
</g>
</g>
<!-- Node1&#45;&gt;Node15 -->
<g id="edge14" class="edge">
<title>Node1&#45;&gt;Node15</title>
<path fill="none" stroke="midnightblue" d="M74.08,-319.96C90.26,-296.15 121.88,-254.53 159,-231 165.08,-227.15 171.98,-224.04 178.93,-221.54"/>
<polygon fill="midnightblue" stroke="midnightblue" points="71.08,-318.14 68.47,-328.41 76.91,-322.01 71.08,-318.14"/>
</g>
<!-- Node16 -->
<g id="node16" class="node">
<title>Node16</title>
<g id="a_node16"><a xlink:href="classft_1_1irc_1_1processor__part.html" target="_top" xlink:title=" ">
<polygon fill="white" stroke="black" points="163.5,-164.5 163.5,-183.5 282.5,-183.5 282.5,-164.5 163.5,-164.5"/>
<text text-anchor="middle" x="223" y="-171.5" font-family="Helvetica,sans-Serif" font-size="10.00">ft::irc::processor_part</text>
</a>
</g>
</g>
<!-- Node1&#45;&gt;Node16 -->
<g id="edge15" class="edge">
<title>Node1&#45;&gt;Node16</title>
<path fill="none" stroke="midnightblue" d="M70.07,-318.91C83.36,-287.85 113.83,-226.51 159,-193 164.23,-189.12 170.25,-186.03 176.46,-183.56"/>
<polygon fill="midnightblue" stroke="midnightblue" points="66.82,-317.62 66.23,-328.2 73.29,-320.3 66.82,-317.62"/>
</g>
<!-- Node17 -->
<g id="node17" class="node">
<title>Node17</title>
<g id="a_node17"><a xlink:href="classft_1_1irc_1_1processor__pass.html" target="_top" xlink:title=" ">
<polygon fill="white" stroke="black" points="162,-126.5 162,-145.5 284,-145.5 284,-126.5 162,-126.5"/>
<text text-anchor="middle" x="223" y="-133.5" font-family="Helvetica,sans-Serif" font-size="10.00">ft::irc::processor_pass</text>
</a>
</g>
</g>
<!-- Node1&#45;&gt;Node17 -->
<g id="edge16" class="edge">
<title>Node1&#45;&gt;Node17</title>
<path fill="none" stroke="midnightblue" d="M67.43,-318.23C77.81,-280.74 105.49,-199.09 159,-155 163.67,-151.15 169.11,-148.08 174.8,-145.63"/>
<polygon fill="midnightblue" stroke="midnightblue" points="63.93,-317.8 64.76,-328.36 70.69,-319.59 63.93,-317.8"/>
</g>
<!-- Node18 -->
<g id="node18" class="node">
<title>Node18</title>
<g id="a_node18"><a xlink:href="classft_1_1irc_1_1processor__quit.html" target="_top" xlink:title=" ">
<polygon fill="white" stroke="black" points="163.5,-88.5 163.5,-107.5 282.5,-107.5 282.5,-88.5 163.5,-88.5"/>
<text text-anchor="middle" x="223" y="-95.5" font-family="Helvetica,sans-Serif" font-size="10.00">ft::irc::processor_quit</text>
</a>
</g>
</g>
<!-- Node1&#45;&gt;Node18 -->
<g id="edge17" class="edge">
<title>Node1&#45;&gt;Node18</title>
<path fill="none" stroke="midnightblue" d="M65.43,-318.37C72.9,-275.38 96.63,-172.37 159,-117 163.36,-113.13 168.48,-110.05 173.89,-107.6"/>
<polygon fill="midnightblue" stroke="midnightblue" points="61.96,-317.94 63.81,-328.37 68.87,-319.07 61.96,-317.94"/>
</g>
<!-- Node19 -->
<g id="node19" class="node">
<title>Node19</title>
<g id="a_node19"><a xlink:href="classft_1_1irc_1_1processor__topic.html" target="_top" xlink:title=" ">
<polygon fill="white" stroke="black" points="175.5,-39 175.5,-69 270.5,-69 270.5,-39 175.5,-39"/>
<text text-anchor="start" x="183.5" y="-57" font-family="Helvetica,sans-Serif" font-size="10.00">ft::irc::processor</text>
<text text-anchor="middle" x="223" y="-46" font-family="Helvetica,sans-Serif" font-size="10.00">_topic</text>
</a>
</g>
</g>
<!-- Node1&#45;&gt;Node19 -->
<g id="edge18" class="edge">
<title>Node1&#45;&gt;Node19</title>
<path fill="none" stroke="midnightblue" d="M64.45,-318.09C70.15,-270.41 90.93,-148.53 159,-79 163.69,-74.21 169.42,-70.31 175.49,-67.15"/>
<polygon fill="midnightblue" stroke="midnightblue" points="60.94,-317.97 63.33,-328.3 67.9,-318.74 60.94,-317.97"/>
</g>
<!-- Node20 -->
<g id="node20" class="node">
<title>Node20</title>
<g id="a_node20"><a xlink:href="classft_1_1irc_1_1processor__user.html" target="_top" xlink:title=" ">
<polygon fill="white" stroke="black" points="162.5,-0.5 162.5,-19.5 283.5,-19.5 283.5,-0.5 162.5,-0.5"/>
<text text-anchor="middle" x="223" y="-7.5" font-family="Helvetica,sans-Serif" font-size="10.00">ft::irc::processor_user</text>
</a>
</g>
</g>
<!-- Node1&#45;&gt;Node20 -->
<g id="edge19" class="edge">
<title>Node1&#45;&gt;Node20</title>
<path fill="none" stroke="midnightblue" d="M62.64,-318.31C64.12,-264.11 75.86,-111.33 159,-29 162.9,-25.14 167.55,-22.06 172.53,-19.61"/>
<polygon fill="midnightblue" stroke="midnightblue" points="59.14,-318.25 62.46,-328.32 66.14,-318.38 59.14,-318.25"/>
</g>
<!-- Node10 -->
<g id="node10" class="node">
<title>Node10</title>
<g id="a_node10"><a xlink:href="classft_1_1irc_1_1processor__notice.html" target="_top" xlink:title=" ">
<polygon fill="white" stroke="black" points="323,-391 323,-421 418,-421 418,-391 323,-391"/>
<text text-anchor="start" x="331" y="-409" font-family="Helvetica,sans-Serif" font-size="10.00">ft::irc::processor</text>
<text text-anchor="middle" x="370.5" y="-398" font-family="Helvetica,sans-Serif" font-size="10.00">_notice</text>
</a>
</g>
</g>
<!-- Node9&#45;&gt;Node10 -->
<g id="edge9" class="edge">
<title>Node9&#45;&gt;Node10</title>
<path fill="none" stroke="midnightblue" d="M280.78,-391.37C294.67,-393.66 309.39,-396.08 322.75,-398.29"/>
<polygon fill="midnightblue" stroke="midnightblue" points="281.27,-387.9 270.84,-389.73 280.14,-394.81 281.27,-387.9"/>
</g>
<!-- Node11 -->
<g id="node11" class="node">
<title>Node11</title>
<g id="a_node11"><a xlink:href="classft_1_1irc_1_1processor__privmsg.html" target="_top" xlink:title=" ">
<polygon fill="white" stroke="black" points="323,-342 323,-372 418,-372 418,-342 323,-342"/>
<text text-anchor="start" x="331" y="-360" font-family="Helvetica,sans-Serif" font-size="10.00">ft::irc::processor</text>
<text text-anchor="middle" x="370.5" y="-349" font-family="Helvetica,sans-Serif" font-size="10.00">_privmsg</text>
</a>
</g>
</g>
<!-- Node9&#45;&gt;Node11 -->
<g id="edge10" class="edge">
<title>Node9&#45;&gt;Node11</title>
<path fill="none" stroke="midnightblue" d="M280.78,-372.24C294.67,-369.86 309.39,-367.33 322.75,-365.03"/>
<polygon fill="midnightblue" stroke="midnightblue" points="280.1,-368.81 270.84,-373.95 281.29,-375.71 280.1,-368.81"/>
</g>
</g>
</svg>
