<?xml version="1.0" encoding="UTF-8" standalone="no"?>
<!DOCTYPE svg PUBLIC "-//W3C//DTD SVG 1.1//EN"
 "http://www.w3.org/Graphics/SVG/1.1/DTD/svg11.dtd">
<!-- Generated by graphviz version 2.43.0 (0)
 -->
<!-- Title: ft::irc::bot::on_kick Pages: 1 -->
<svg width="683pt" height="230pt"
 viewBox="0.00 0.00 683.00 229.50" xmlns="http://www.w3.org/2000/svg" xmlns:xlink="http://www.w3.org/1999/xlink">
<g id="graph0" class="graph" transform="scale(1 1) rotate(0) translate(4 225.5)">
<title>ft::irc::bot::on_kick</title>
<polygon fill="white" stroke="transparent" points="-4,4 -4,-225.5 679,-225.5 679,4 -4,4"/>
<!-- Node1 -->
<g id="node1" class="node">
<title>Node1</title>
<g id="a_node1"><a xlink:title=" ">
<polygon fill="#bfbfbf" stroke="black" points="0,-126 0,-145 107,-145 107,-126 0,-126"/>
<text text-anchor="middle" x="53.5" y="-133" font-family="Helvetica,sans-Serif" font-size="10.00">ft::irc::bot::on_kick</text>
</a>
</g>
</g>
<!-- Node2 -->
<g id="node2" class="node">
<title>Node2</title>
<g id="a_node2"><a xlink:href="classft_1_1irc_1_1bot.html#a38baf3c513838c769c61c825a4b8a8a2" target="_top" xlink:title=" ">
<polygon fill="white" stroke="black" points="144.5,-202 144.5,-221 254.5,-221 254.5,-202 144.5,-202"/>
<text text-anchor="middle" x="199.5" y="-209" font-family="Helvetica,sans-Serif" font-size="10.00">ft::irc::bot::get_nick</text>
</a>
</g>
</g>
<!-- Node1&#45;&gt;Node2 -->
<g id="edge1" class="edge">
<title>Node1&#45;&gt;Node2</title>
<path fill="none" stroke="midnightblue" d="M67.11,-145.03C83.78,-157.29 114.38,-178.64 143,-192.5 147.35,-194.61 152,-196.59 156.69,-198.42"/>
<polygon fill="midnightblue" stroke="midnightblue" points="155.68,-201.77 166.27,-201.94 158.09,-195.2 155.68,-201.77"/>
</g>
<!-- Node3 -->
<g id="node3" class="node">
<title>Node3</title>
<g id="a_node3"><a xlink:href="classft_1_1irc_1_1bot.html#aa5023ae6a16be90f32f2d9188dd44af3" target="_top" xlink:title=" ">
<polygon fill="white" stroke="black" points="143,-164 143,-183 256,-183 256,-164 143,-164"/>
<text text-anchor="middle" x="199.5" y="-171" font-family="Helvetica,sans-Serif" font-size="10.00">ft::irc::bot::is_owner</text>
</a>
</g>
</g>
<!-- Node1&#45;&gt;Node3 -->
<g id="edge2" class="edge">
<title>Node1&#45;&gt;Node3</title>
<path fill="none" stroke="midnightblue" d="M90.84,-145.09C109.58,-150.04 132.64,-156.12 152.61,-161.39"/>
<polygon fill="midnightblue" stroke="midnightblue" points="151.86,-164.81 162.42,-163.98 153.65,-158.04 151.86,-164.81"/>
</g>
<!-- Node5 -->
<g id="node5" class="node">
<title>Node5</title>
<g id="a_node5"><a xlink:href="structft_1_1irc_1_1string__utils.html#abd73422cb93e7f7f26cfd59a221933a2" target="_top" xlink:title=" ">
<polygon fill="white" stroke="black" points="301.5,-120.5 301.5,-150.5 402.5,-150.5 402.5,-120.5 301.5,-120.5"/>
<text text-anchor="start" x="309.5" y="-138.5" font-family="Helvetica,sans-Serif" font-size="10.00">ft::irc::string_utils</text>
<text text-anchor="middle" x="352" y="-127.5" font-family="Helvetica,sans-Serif" font-size="10.00">::is_same</text>
</a>
</g>
</g>
<!-- Node1&#45;&gt;Node5 -->
<g id="edge7" class="edge">
<title>Node1&#45;&gt;Node5</title>
<path fill="none" stroke="midnightblue" d="M107.17,-135.5C158.76,-135.5 237.27,-135.5 291.19,-135.5"/>
<polygon fill="midnightblue" stroke="midnightblue" points="291.29,-139 301.29,-135.5 291.29,-132 291.29,-139"/>
</g>
<!-- Node8 -->
<g id="node8" class="node">
<title>Node8</title>
<g id="a_node8"><a xlink:href="classft_1_1irc_1_1bot.html#a44a61e7ca9d9af3bf9d2e2dd484b2c29" target="_top" xlink:title=" ">
<polygon fill="white" stroke="black" points="151.5,-76.5 151.5,-106.5 247.5,-106.5 247.5,-76.5 151.5,-76.5"/>
<text text-anchor="start" x="159.5" y="-94.5" font-family="Helvetica,sans-Serif" font-size="10.00">ft::irc::bot::leave</text>
<text text-anchor="middle" x="199.5" y="-83.5" font-family="Helvetica,sans-Serif" font-size="10.00">_channel</text>
</a>
</g>
</g>
<!-- Node1&#45;&gt;Node8 -->
<g id="edge8" class="edge">
<title>Node1&#45;&gt;Node8</title>
<path fill="none" stroke="midnightblue" d="M85.75,-125.95C102.09,-120.96 122.61,-114.69 141.65,-108.87"/>
<polygon fill="midnightblue" stroke="midnightblue" points="142.9,-112.15 151.44,-105.88 140.85,-105.46 142.9,-112.15"/>
</g>
<!-- Node9 -->
<g id="node9" class="node">
<title>Node9</title>
<g id="a_node9"><a xlink:href="classft_1_1irc_1_1bot.html#a970f653872cc4a26d1fd9729552cd9b1" target="_top" xlink:title=" ">
<polygon fill="white" stroke="black" points="153.5,-27.5 153.5,-57.5 245.5,-57.5 245.5,-27.5 153.5,-27.5"/>
<text text-anchor="start" x="161.5" y="-45.5" font-family="Helvetica,sans-Serif" font-size="10.00">ft::irc::bot::send</text>
<text text-anchor="middle" x="199.5" y="-34.5" font-family="Helvetica,sans-Serif" font-size="10.00">_packet</text>
</a>
</g>
</g>
<!-- Node1&#45;&gt;Node9 -->
<g id="edge9" class="edge">
<title>Node1&#45;&gt;Node9</title>
<path fill="none" stroke="midnightblue" d="M65.03,-125.83C80.99,-111.53 112.67,-84.48 143,-66.5 145.62,-64.94 148.37,-63.43 151.17,-61.97"/>
<polygon fill="midnightblue" stroke="midnightblue" points="152.81,-65.07 160.24,-57.51 149.73,-58.78 152.81,-65.07"/>
</g>
<!-- Node4 -->
<g id="node4" class="node">
<title>Node4</title>
<g id="a_node4"><a xlink:href="classft_1_1irc_1_1bot.html#a15a5cfd31f2138b9e38e5ae0db055f0b" target="_top" xlink:title=" ">
<polygon fill="white" stroke="black" points="292,-170 292,-189 412,-189 412,-170 292,-170"/>
<text text-anchor="middle" x="352" y="-177" font-family="Helvetica,sans-Serif" font-size="10.00">ft::irc::bot::get_owner</text>
</a>
</g>
</g>
<!-- Node3&#45;&gt;Node4 -->
<g id="edge3" class="edge">
<title>Node3&#45;&gt;Node4</title>
<path fill="none" stroke="midnightblue" d="M256.11,-175.72C264.48,-176.05 273.19,-176.4 281.8,-176.74"/>
<polygon fill="midnightblue" stroke="midnightblue" points="281.7,-180.24 291.83,-177.14 281.98,-173.25 281.7,-180.24"/>
</g>
<!-- Node3&#45;&gt;Node5 -->
<g id="edge4" class="edge">
<title>Node3&#45;&gt;Node5</title>
<path fill="none" stroke="midnightblue" d="M238.48,-163.91C254.57,-159.85 273.7,-155.02 291.58,-150.5"/>
<polygon fill="midnightblue" stroke="midnightblue" points="292.52,-153.87 301.36,-148.03 290.81,-147.09 292.52,-153.87"/>
</g>
<!-- Node6 -->
<g id="node6" class="node">
<title>Node6</title>
<g id="a_node6"><a xlink:href="structft_1_1irc_1_1string__utils.html#a367a22012cc0d2d25959ac3f4e5d33a9" target="_top" xlink:title=" ">
<polygon fill="white" stroke="black" points="448,-120.5 448,-150.5 549,-150.5 549,-120.5 448,-120.5"/>
<text text-anchor="start" x="456" y="-138.5" font-family="Helvetica,sans-Serif" font-size="10.00">ft::irc::string_utils</text>
<text text-anchor="middle" x="498.5" y="-127.5" font-family="Helvetica,sans-Serif" font-size="10.00">::to_lower</text>
</a>
</g>
</g>
<!-- Node5&#45;&gt;Node6 -->
<g id="edge5" class="edge">
<title>Node5&#45;&gt;Node6</title>
<path fill="none" stroke="midnightblue" d="M402.73,-135.5C413.97,-135.5 426.02,-135.5 437.62,-135.5"/>
<polygon fill="midnightblue" stroke="midnightblue" points="437.68,-139 447.68,-135.5 437.68,-132 437.68,-139"/>
</g>
<!-- Node7 -->
<g id="node7" class="node">
<title>Node7</title>
<g id="a_node7"><a xlink:href="namespaceft_1_1irc_1_1__internal.html#aa76c3a369f64725f8b2b52b2131c1111" target="_top" xlink:title=" ">
<polygon fill="white" stroke="black" points="585,-120.5 585,-150.5 675,-150.5 675,-120.5 585,-120.5"/>
<text text-anchor="start" x="593" y="-138.5" font-family="Helvetica,sans-Serif" font-size="10.00">ft::irc::_internal</text>
<text text-anchor="middle" x="630" y="-127.5" font-family="Helvetica,sans-Serif" font-size="10.00">::_to_lower</text>
</a>
</g>
</g>
<!-- Node6&#45;&gt;Node7 -->
<g id="edge6" class="edge">
<title>Node6&#45;&gt;Node7</title>
<path fill="none" stroke="midnightblue" d="M549.2,-135.5C557.51,-135.5 566.18,-135.5 574.61,-135.5"/>
<polygon fill="midnightblue" stroke="midnightblue" points="574.73,-139 584.73,-135.5 574.73,-132 574.73,-139"/>
</g>
<!-- Node10 -->
<g id="node10" class="node">
<title>Node10</title>
<g id="a_node10"><a xlink:href="classft_1_1serv_1_1event__layer.html#a854a0764bd67adfc716ec4237cd52672" target="_top" xlink:title=" ">
<polygon fill="white" stroke="black" points="295.5,-49.5 295.5,-79.5 408.5,-79.5 408.5,-49.5 295.5,-49.5"/>
<text text-anchor="start" x="303.5" y="-67.5" font-family="Helvetica,sans-Serif" font-size="10.00">ft::serv::event_layer</text>
<text text-anchor="middle" x="352" y="-56.5" font-family="Helvetica,sans-Serif" font-size="10.00">::post_flush</text>
</a>
</g>
</g>
<!-- Node9&#45;&gt;Node10 -->
<g id="edge10" class="edge">
<title>Node9&#45;&gt;Node10</title>
<path fill="none" stroke="midnightblue" d="M245.65,-49.1C258.14,-50.93 271.96,-52.95 285.35,-54.9"/>
<polygon fill="midnightblue" stroke="midnightblue" points="285.09,-58.4 295.49,-56.39 286.1,-51.48 285.09,-58.4"/>
</g>
<!-- Node11 -->
<g id="node11" class="node">
<title>Node11</title>
<g id="a_node11"><a xlink:href="classft_1_1serv_1_1event__layer.html#add4946138f5f8a5870d52c44ca435aab" target="_top" xlink:title=" ">
<polygon fill="white" stroke="black" points="295.5,-0.5 295.5,-30.5 408.5,-30.5 408.5,-0.5 295.5,-0.5"/>
<text text-anchor="start" x="303.5" y="-18.5" font-family="Helvetica,sans-Serif" font-size="10.00">ft::serv::event_layer</text>
<text text-anchor="middle" x="352" y="-7.5" font-family="Helvetica,sans-Serif" font-size="10.00">::post_write</text>
</a>
</g>
</g>
<!-- Node9&#45;&gt;Node11 -->
<g id="edge11" class="edge">
<title>Node9&#45;&gt;Node11</title>
<path fill="none" stroke="midnightblue" d="M245.65,-34.4C258.14,-32.16 271.96,-29.68 285.35,-27.28"/>
<polygon fill="midnightblue" stroke="midnightblue" points="286.27,-30.67 295.49,-25.46 285.03,-23.78 286.27,-30.67"/>
</g>
</g>
</svg>
