<?xml version="1.0" encoding="UTF-8" standalone="no"?>
<!DOCTYPE svg PUBLIC "-//W3C//DTD SVG 1.1//EN"
 "http://www.w3.org/Graphics/SVG/1.1/DTD/svg11.dtd">
<!-- Generated by graphviz version 2.43.0 (0)
 -->
<!-- Title: ft::irc::processor_who::execute Pages: 1 -->
<svg width="293pt" height="165pt"
 viewBox="0.00 0.00 293.00 165.00" xmlns="http://www.w3.org/2000/svg" xmlns:xlink="http://www.w3.org/1999/xlink">
<g id="graph0" class="graph" transform="scale(1 1) rotate(0) translate(4 161)">
<title>ft::irc::processor_who::execute</title>
<polygon fill="white" stroke="transparent" points="-4,4 -4,-161 289,-161 289,4 -4,4"/>
<!-- Node1 -->
<g id="node1" class="node">
<title>Node1</title>
<g id="a_node1"><a xlink:title=" ">
<polygon fill="#bfbfbf" stroke="black" points="0,-63.5 0,-93.5 95,-93.5 95,-63.5 0,-63.5"/>
<text text-anchor="start" x="8" y="-81.5" font-family="Helvetica,sans-Serif" font-size="10.00">ft::irc::processor</text>
<text text-anchor="middle" x="47.5" y="-70.5" font-family="Helvetica,sans-Serif" font-size="10.00">_who::execute</text>
</a>
</g>
</g>
<!-- Node2 -->
<g id="node2" class="node">
<title>Node2</title>
<g id="a_node2"><a xlink:href="structft_1_1irc_1_1make__reply.html#af2d605d0680387255d2ba2de0bd1957a" target="_top" xlink:title=" ">
<polygon fill="white" stroke="black" points="156,-126.5 156,-156.5 260,-156.5 260,-126.5 156,-126.5"/>
<text text-anchor="start" x="164" y="-144.5" font-family="Helvetica,sans-Serif" font-size="10.00">ft::irc::make_reply</text>
<text text-anchor="middle" x="208" y="-133.5" font-family="Helvetica,sans-Serif" font-size="10.00">::end_of_who</text>
</a>
</g>
</g>
<!-- Node1&#45;&gt;Node2 -->
<g id="edge1" class="edge">
<title>Node1&#45;&gt;Node2</title>
<path fill="none" stroke="midnightblue" d="M79.09,-93.6C94.48,-100.94 113.54,-109.63 131,-116.5 136.77,-118.77 142.83,-121.01 148.92,-123.15"/>
<polygon fill="midnightblue" stroke="midnightblue" points="147.86,-126.49 158.46,-126.45 150.15,-119.88 147.86,-126.49"/>
</g>
<!-- Node3 -->
<g id="node3" class="node">
<title>Node3</title>
<g id="a_node3"><a xlink:href="classft_1_1irc_1_1user.html#a7277f06aa83459f6f9b409858d602e3b" target="_top" xlink:title=" ">
<polygon fill="white" stroke="black" points="147.5,-88 147.5,-107 268.5,-107 268.5,-88 147.5,-88"/>
<text text-anchor="middle" x="208" y="-95" font-family="Helvetica,sans-Serif" font-size="10.00">ft::irc::user::load_nick</text>
</a>
</g>
</g>
<!-- Node1&#45;&gt;Node3 -->
<g id="edge2" class="edge">
<title>Node1&#45;&gt;Node3</title>
<path fill="none" stroke="midnightblue" d="M95.2,-84.1C108.35,-85.67 122.95,-87.42 137.15,-89.13"/>
<polygon fill="midnightblue" stroke="midnightblue" points="137.04,-92.64 147.38,-90.35 137.87,-85.69 137.04,-92.64"/>
</g>
<!-- Node4 -->
<g id="node4" class="node">
<title>Node4</title>
<g id="a_node4"><a xlink:href="classft_1_1irc_1_1message.html#a34f457ead0453ad914af2cb0482a40b9" target="_top" xlink:title=" ">
<polygon fill="white" stroke="black" points="131,-50 131,-69 285,-69 285,-50 131,-50"/>
<text text-anchor="middle" x="208" y="-57" font-family="Helvetica,sans-Serif" font-size="10.00">ft::irc::message::param_size</text>
</a>
</g>
</g>
<!-- Node1&#45;&gt;Node4 -->
<g id="edge3" class="edge">
<title>Node1&#45;&gt;Node4</title>
<path fill="none" stroke="midnightblue" d="M95.2,-72.9C103.36,-71.92 112.08,-70.88 120.91,-69.82"/>
<polygon fill="midnightblue" stroke="midnightblue" points="121.39,-73.29 130.91,-68.62 120.56,-66.34 121.39,-73.29"/>
</g>
<!-- Node5 -->
<g id="node5" class="node">
<title>Node5</title>
<g id="a_node5"><a xlink:href="classft_1_1irc_1_1user.html#a1db558d6d694ca943224c2440fe36c50" target="_top" xlink:title=" ">
<polygon fill="white" stroke="black" points="159,-0.5 159,-30.5 257,-30.5 257,-0.5 159,-0.5"/>
<text text-anchor="start" x="167" y="-18.5" font-family="Helvetica,sans-Serif" font-size="10.00">ft::irc::user::send</text>
<text text-anchor="middle" x="208" y="-7.5" font-family="Helvetica,sans-Serif" font-size="10.00">_message</text>
</a>
</g>
</g>
<!-- Node1&#45;&gt;Node5 -->
<g id="edge4" class="edge">
<title>Node1&#45;&gt;Node5</title>
<path fill="none" stroke="midnightblue" d="M79.09,-63.4C94.48,-56.06 113.54,-47.37 131,-40.5 136.85,-38.2 143.01,-35.93 149.19,-33.75"/>
<polygon fill="midnightblue" stroke="midnightblue" points="150.55,-36.98 158.86,-30.42 148.27,-30.37 150.55,-36.98"/>
</g>
</g>
</svg>
