<?xml version="1.0" encoding="UTF-8" standalone="no"?>
<!DOCTYPE svg PUBLIC "-//W3C//DTD SVG 1.1//EN"
 "http://www.w3.org/Graphics/SVG/1.1/DTD/svg11.dtd">
<!-- Generated by graphviz version 2.43.0 (0)
 -->
<!-- Title: ft::irc::processor_oper::execute Pages: 1 -->
<!--zoomable 497 -->
<svg id="main" version="1.1" xmlns="http://www.w3.org/2000/svg" xmlns:xlink="http://www.w3.org/1999/xlink" xml:space="preserve" onload="init(evt)">
<style type="text/css"><![CDATA[
.edge:hover path { stroke: red; }
.edge:hover polygon { stroke: red; fill: red; }
]]></style>
<script type="text/javascript"><![CDATA[
var edges = document.getElementsByTagName('g');
if (edges && edges.length) {
  for (var i=0;i<edges.length;i++) {
    if (edges[i].id.substr(0,4)=='edge') {
      edges[i].setAttribute('class','edge');
    }
  }
}
]]></script>
        <defs>
                <circle id="rim" cx="0" cy="0" r="7"/>
                <circle id="rim2" cx="0" cy="0" r="3.5"/>
                <g id="zoomPlus">
                        <use xlink:href="#rim" fill="#404040">
                                <set attributeName="fill" to="#808080" begin="zoomplus.mouseover" end="zoomplus.mouseout"/>
                        </use>
                        <path d="M-4,0h8M0,-4v8" fill="none" stroke="white" stroke-width="1.5" pointer-events="none"/>
                </g>
                <g id="zoomMin">
                        <use xlink:href="#rim" fill="#404040">
                                <set attributeName="fill" to="#808080" begin="zoomminus.mouseover" end="zoomminus.mouseout"/>
                        </use>
                        <path d="M-4,0h8" fill="none" stroke="white" stroke-width="1.5" pointer-events="none"/>
                </g>
                <g id="dirArrow">
                        <path fill="none" stroke="white" stroke-width="1.5" d="M0,-3.0v7 M-2.5,-0.5L0,-3.0L2.5,-0.5"/>
                </g>
               <g id="resetDef">
                       <use xlink:href="#rim2" fill="#404040">
                               <set attributeName="fill" to="#808080" begin="reset.mouseover" end="reset.mouseout"/>
                       </use>
               </g>
        </defs>

<script type="text/javascript">
var viewWidth = 422;
var viewHeight = 497;
var sectionId = 'dynsection-2';
</script>
<script xlink:href="svgpan.js"/>
<svg id="graph" class="graph">
<g id="viewport">
<title>ft::irc::processor_oper::execute</title>
<polygon fill="white" stroke="transparent" points="-4,4 -4,-493 418,-493 418,4 -4,4"/>
<!-- Node1 -->
<g id="node1" class="node">
<title>Node1</title>
<g id="a_node1"><a xlink:title=" ">
<polygon fill="#bfbfbf" stroke="black" points="0,-235 0,-265 95,-265 95,-235 0,-235"/>
<text text-anchor="start" x="8" y="-253" font-family="Helvetica,sans-Serif" font-size="10.00">ft::irc::processor</text>
<text text-anchor="middle" x="47.5" y="-242" font-family="Helvetica,sans-Serif" font-size="10.00">_oper::execute</text>
</a>
</g>
</g>
<!-- Node2 -->
<g id="node2" class="node">
<title>Node2</title>
<g id="a_node2"><a xlink:href="classft_1_1irc_1_1server.html#a773440405607167a9478a54fd8ab90f3" target="_top" xlink:title=" ">
<polygon fill="white" stroke="black" points="131,-469.5 131,-488.5 280,-488.5 280,-469.5 131,-469.5"/>
<text text-anchor="middle" x="205.5" y="-476.5" font-family="Helvetica,sans-Serif" font-size="10.00">ft::irc::server::broadcast_all</text>
</a>
</g>
</g>
<!-- Node1&#45;&gt;Node2 -->
<g id="edge1" class="edge">
<title>Node1&#45;&gt;Node2</title>
<path fill="none" stroke="midnightblue" d="M50.22,-265.05C55.3,-302.62 73.7,-401.41 131,-455 135.33,-459.05 140.36,-462.42 145.72,-465.22"/>
<polygon fill="midnightblue" stroke="midnightblue" points="144.42,-468.48 154.97,-469.42 147.31,-462.1 144.42,-468.48"/>
</g>
<!-- Node3 -->
<g id="node3" class="node">
<title>Node3</title>
<g id="a_node3"><a xlink:href="classft_1_1irc_1_1user.html#a1db558d6d694ca943224c2440fe36c50" target="_top" xlink:title=" ">
<polygon fill="white" stroke="black" points="316,-445 316,-475 414,-475 414,-445 316,-445"/>
<text text-anchor="start" x="324" y="-463" font-family="Helvetica,sans-Serif" font-size="10.00">ft::irc::user::send</text>
<text text-anchor="middle" x="365" y="-452" font-family="Helvetica,sans-Serif" font-size="10.00">_message</text>
</a>
</g>
</g>
<!-- Node1&#45;&gt;Node3 -->
<g id="edge11" class="edge">
<title>Node1&#45;&gt;Node3</title>
<path fill="none" stroke="midnightblue" d="M50.96,-265.14C57.35,-299.24 77.84,-382.21 131,-422 157.91,-442.14 245.97,-452.07 305.79,-456.61"/>
<polygon fill="midnightblue" stroke="midnightblue" points="305.64,-460.11 315.87,-457.34 306.15,-453.13 305.64,-460.11"/>
</g>
<!-- Node4 -->
<g id="node4" class="node">
<title>Node4</title>
<g id="a_node4"><a xlink:href="classft_1_1irc_1_1server.html#abbf2cc92532e72a060b811286acf971f" target="_top" xlink:title=" ">
<polygon fill="white" stroke="black" points="149,-382 149,-412 262,-412 262,-382 149,-382"/>
<text text-anchor="start" x="157" y="-400" font-family="Helvetica,sans-Serif" font-size="10.00">ft::irc::server::check</text>
<text text-anchor="middle" x="205.5" y="-389" font-family="Helvetica,sans-Serif" font-size="10.00">_signature</text>
</a>
</g>
</g>
<!-- Node1&#45;&gt;Node4 -->
<g id="edge3" class="edge">
<title>Node1&#45;&gt;Node4</title>
<path fill="none" stroke="midnightblue" d="M54.71,-265.25C66.03,-291.17 92.45,-343.83 131,-373 133.76,-375.09 136.71,-377 139.78,-378.75"/>
<polygon fill="midnightblue" stroke="midnightblue" points="138.21,-381.87 148.71,-383.26 141.36,-375.63 138.21,-381.87"/>
</g>
<!-- Node5 -->
<g id="node5" class="node">
<title>Node5</title>
<g id="a_node5"><a xlink:href="structft_1_1irc_1_1make__reply.html#a0f6316e46b6733cefcdcada148b007fe" target="_top" xlink:title=" ">
<polygon fill="white" stroke="black" points="153.5,-333 153.5,-363 257.5,-363 257.5,-333 153.5,-333"/>
<text text-anchor="start" x="161.5" y="-351" font-family="Helvetica,sans-Serif" font-size="10.00">ft::irc::make_reply</text>
<text text-anchor="middle" x="205.5" y="-340" font-family="Helvetica,sans-Serif" font-size="10.00">::create</text>
</a>
</g>
</g>
<!-- Node1&#45;&gt;Node5 -->
<g id="edge4" class="edge">
<title>Node1&#45;&gt;Node5</title>
<path fill="none" stroke="midnightblue" d="M61.66,-265.09C76.86,-281.66 103.34,-308.04 131,-324 135.14,-326.39 139.55,-328.58 144.08,-330.58"/>
<polygon fill="midnightblue" stroke="midnightblue" points="142.91,-333.88 153.49,-334.42 145.55,-327.4 142.91,-333.88"/>
</g>
<!-- Node6 -->
<g id="node6" class="node">
<title>Node6</title>
<g id="a_node6"><a xlink:href="classft_1_1irc_1_1user.html#a080531f81f28fd4b65d15f603d1af818" target="_top" xlink:title=" ">
<polygon fill="white" stroke="black" points="160.5,-284 160.5,-314 250.5,-314 250.5,-284 160.5,-284"/>
<text text-anchor="start" x="168.5" y="-302" font-family="Helvetica,sans-Serif" font-size="10.00">ft::irc::user::get</text>
<text text-anchor="middle" x="205.5" y="-291" font-family="Helvetica,sans-Serif" font-size="10.00">_register_state</text>
</a>
</g>
</g>
<!-- Node1&#45;&gt;Node6 -->
<g id="edge5" class="edge">
<title>Node1&#45;&gt;Node6</title>
<path fill="none" stroke="midnightblue" d="M95.31,-264.7C112.72,-270.17 132.62,-276.42 150.62,-282.08"/>
<polygon fill="midnightblue" stroke="midnightblue" points="149.81,-285.49 160.4,-285.15 151.91,-278.81 149.81,-285.49"/>
</g>
<!-- Node7 -->
<g id="node7" class="node">
<title>Node7</title>
<g id="a_node7"><a xlink:href="classft_1_1irc_1_1user.html#ae476cc31795df7fbb726b193ab887e75" target="_top" xlink:title=" ">
<polygon fill="white" stroke="black" points="160.5,-235 160.5,-265 250.5,-265 250.5,-235 160.5,-235"/>
<text text-anchor="start" x="168.5" y="-253" font-family="Helvetica,sans-Serif" font-size="10.00">ft::irc::user::get</text>
<text text-anchor="middle" x="205.5" y="-242" font-family="Helvetica,sans-Serif" font-size="10.00">_server</text>
</a>
</g>
</g>
<!-- Node1&#45;&gt;Node7 -->
<g id="edge6" class="edge">
<title>Node1&#45;&gt;Node7</title>
<path fill="none" stroke="midnightblue" d="M95.31,-250C112.64,-250 132.44,-250 150.37,-250"/>
<polygon fill="midnightblue" stroke="midnightblue" points="150.4,-253.5 160.4,-250 150.4,-246.5 150.4,-253.5"/>
</g>
<!-- Node8 -->
<g id="node8" class="node">
<title>Node8</title>
<g id="a_node8"><a xlink:href="classft_1_1irc_1_1user.html#a7406ed193e13a3c39ee16c9ac7a8b16e" target="_top" xlink:title=" ">
<polygon fill="white" stroke="black" points="155,-186 155,-216 256,-216 256,-186 155,-186"/>
<text text-anchor="start" x="163" y="-204" font-family="Helvetica,sans-Serif" font-size="10.00">ft::irc::user::make</text>
<text text-anchor="middle" x="205.5" y="-193" font-family="Helvetica,sans-Serif" font-size="10.00">_full_name</text>
</a>
</g>
</g>
<!-- Node1&#45;&gt;Node8 -->
<g id="edge7" class="edge">
<title>Node1&#45;&gt;Node8</title>
<path fill="none" stroke="midnightblue" d="M95.31,-235.3C111.51,-230.21 129.87,-224.44 146.84,-219.11"/>
<polygon fill="midnightblue" stroke="midnightblue" points="148.16,-222.37 156.65,-216.03 146.06,-215.69 148.16,-222.37"/>
</g>
<!-- Node9 -->
<g id="node9" class="node">
<title>Node9</title>
<g id="a_node9"><a xlink:href="structft_1_1irc_1_1make__error.html#aa06713d534596aaec95dbb27bfbc5c04" target="_top" xlink:title=" ">
<polygon fill="white" stroke="black" points="152,-137 152,-167 259,-167 259,-137 152,-137"/>
<text text-anchor="start" x="160" y="-155" font-family="Helvetica,sans-Serif" font-size="10.00">ft::irc::make_error</text>
<text text-anchor="middle" x="205.5" y="-144" font-family="Helvetica,sans-Serif" font-size="10.00">::no_operator_host</text>
</a>
</g>
</g>
<!-- Node1&#45;&gt;Node9 -->
<g id="edge8" class="edge">
<title>Node1&#45;&gt;Node9</title>
<path fill="none" stroke="midnightblue" d="M62.02,-234.89C77.33,-218.59 103.71,-192.85 131,-177 134.67,-174.87 138.55,-172.88 142.54,-171.04"/>
<polygon fill="midnightblue" stroke="midnightblue" points="144.15,-174.15 151.96,-166.99 141.39,-167.72 144.15,-174.15"/>
</g>
<!-- Node10 -->
<g id="node10" class="node">
<title>Node10</title>
<g id="a_node10"><a xlink:href="structft_1_1irc_1_1make__reply.html#aae00da90d0ee120265c4712affebebc5" target="_top" xlink:title=" ">
<polygon fill="white" stroke="black" points="153.5,-88 153.5,-118 257.5,-118 257.5,-88 153.5,-88"/>
<text text-anchor="start" x="161.5" y="-106" font-family="Helvetica,sans-Serif" font-size="10.00">ft::irc::make_reply</text>
<text text-anchor="middle" x="205.5" y="-95" font-family="Helvetica,sans-Serif" font-size="10.00">::now_operator</text>
</a>
</g>
</g>
<!-- Node1&#45;&gt;Node10 -->
<g id="edge9" class="edge">
<title>Node1&#45;&gt;Node10</title>
<path fill="none" stroke="midnightblue" d="M54.78,-234.92C66.21,-209.29 92.79,-157.17 131,-128 135.05,-124.91 139.5,-122.19 144.15,-119.79"/>
<polygon fill="midnightblue" stroke="midnightblue" points="145.68,-122.94 153.29,-115.57 142.74,-116.59 145.68,-122.94"/>
</g>
<!-- Node11 -->
<g id="node11" class="node">
<title>Node11</title>
<g id="a_node11"><a xlink:href="structft_1_1irc_1_1make__error.html#a701c9cf7a26b2996019a5f2522f0c2b4" target="_top" xlink:title=" ">
<polygon fill="white" stroke="black" points="144,-39 144,-69 267,-69 267,-39 144,-39"/>
<text text-anchor="start" x="152" y="-57" font-family="Helvetica,sans-Serif" font-size="10.00">ft::irc::make_error</text>
<text text-anchor="middle" x="205.5" y="-46" font-family="Helvetica,sans-Serif" font-size="10.00">::password_mismatch</text>
</a>
</g>
</g>
<!-- Node1&#45;&gt;Node11 -->
<g id="edge10" class="edge">
<title>Node1&#45;&gt;Node11</title>
<path fill="none" stroke="midnightblue" d="M51.64,-234.81C59.28,-201.69 81.88,-122.48 131,-79 132.76,-77.44 134.63,-75.98 136.57,-74.6"/>
<polygon fill="midnightblue" stroke="midnightblue" points="138.82,-77.33 145.54,-69.14 135.18,-71.35 138.82,-77.33"/>
</g>
<!-- Node12 -->
<g id="node12" class="node">
<title>Node12</title>
<g id="a_node12"><a xlink:href="classft_1_1irc_1_1user.html#afacc4bf97c3923011c969a5a617f12dc" target="_top" xlink:title=" ">
<polygon fill="white" stroke="black" points="144.5,-0.5 144.5,-19.5 266.5,-19.5 266.5,-0.5 144.5,-0.5"/>
<text text-anchor="middle" x="205.5" y="-7.5" font-family="Helvetica,sans-Serif" font-size="10.00">ft::irc::user::set_mode</text>
</a>
</g>
</g>
<!-- Node1&#45;&gt;Node12 -->
<g id="edge12" class="edge">
<title>Node1&#45;&gt;Node12</title>
<path fill="none" stroke="midnightblue" d="M49.58,-234.87C53.24,-195.08 68.73,-86.73 131,-30 133.32,-27.89 135.84,-25.99 138.51,-24.3"/>
<polygon fill="midnightblue" stroke="midnightblue" points="140.27,-27.32 147.44,-19.52 136.97,-21.15 140.27,-27.32"/>
</g>
<!-- Node2&#45;&gt;Node3 -->
<g id="edge2" class="edge">
<title>Node2&#45;&gt;Node3</title>
<path fill="none" stroke="midnightblue" d="M280.18,-470.11C288.72,-469.08 297.33,-468.04 305.63,-467.04"/>
<polygon fill="midnightblue" stroke="midnightblue" points="306.05,-470.52 315.56,-465.84 305.21,-463.57 306.05,-470.52"/>
</g>
</g>
</svg>
        <g id="navigator" transform="translate(0 0)" fill="#404254">
                <rect fill="#f2f5e9" fill-opacity="0.5" stroke="#606060" stroke-width=".5" x="0" y="0" width="60" height="60"/>
                <use id="zoomplus" xlink:href="#zoomPlus" x="17" y="9" onmousedown="handleZoom(evt,'in')"/>
                <use id="zoomminus" xlink:href="#zoomMin" x="42" y="9" onmousedown="handleZoom(evt,'out')"/>
                <use id="reset" xlink:href="#resetDef" x="30" y="36" onmousedown="handleReset()"/>
                <g id="arrowUp" xlink:href="#dirArrow" transform="translate(30 24)" onmousedown="handlePan(0,-1)">
                  <use xlink:href="#rim" fill="#404040">
                        <set attributeName="fill" to="#808080" begin="arrowUp.mouseover" end="arrowUp.mouseout"/>
                  </use>
                  <path fill="none" stroke="white" stroke-width="1.5" d="M0,-3.0v7 M-2.5,-0.5L0,-3.0L2.5,-0.5"/>
                </g>
                <g id="arrowRight" xlink:href="#dirArrow" transform="rotate(90) translate(36 -43)" onmousedown="handlePan(1,0)">
                  <use xlink:href="#rim" fill="#404040">
                        <set attributeName="fill" to="#808080" begin="arrowRight.mouseover" end="arrowRight.mouseout"/>
                  </use>
                  <path fill="none" stroke="white" stroke-width="1.5" d="M0,-3.0v7 M-2.5,-0.5L0,-3.0L2.5,-0.5"/>
                </g>
                <g id="arrowDown" xlink:href="#dirArrow" transform="rotate(180) translate(-30 -48)" onmousedown="handlePan(0,1)">
                  <use xlink:href="#rim" fill="#404040">
                        <set attributeName="fill" to="#808080" begin="arrowDown.mouseover" end="arrowDown.mouseout"/>
                  </use>
                  <path fill="none" stroke="white" stroke-width="1.5" d="M0,-3.0v7 M-2.5,-0.5L0,-3.0L2.5,-0.5"/>
                </g>
                <g id="arrowLeft" xlink:href="#dirArrow" transform="rotate(270) translate(-36 17)" onmousedown="handlePan(-1,0)">
                  <use xlink:href="#rim" fill="#404040">
                        <set attributeName="fill" to="#808080" begin="arrowLeft.mouseover" end="arrowLeft.mouseout"/>
                  </use>
                  <path fill="none" stroke="white" stroke-width="1.5" d="M0,-3.0v7 M-2.5,-0.5L0,-3.0L2.5,-0.5"/>
                </g>
        </g>
        <svg viewBox="0 0 15 15" width="100%" height="30px" preserveAspectRatio="xMaxYMin meet">
         <g id="arrow_out" transform="scale(0.3 0.3)">
          <a xlink:href="classft_1_1irc_1_1processor__oper_a941691cbab81d134cb4ffc30bd270d04_cgraph_org.svg" target="_base">
           <rect id="button" ry="5" rx="5" y="6" x="6" height="38" width="38"
                fill="#f2f5e9" fill-opacity="0.5" stroke="#606060" stroke-width="1.0"/>
           <path id="arrow"
             d="M 11.500037,31.436501 C 11.940474,20.09759 22.043105,11.32322 32.158766,21.979434 L 37.068811,17.246167 C 37.068811,17.246167 37.088388,32 37.088388,32 L 22.160133,31.978069 C 22.160133,31.978069 26.997745,27.140456 26.997745,27.140456 C 18.528582,18.264221 13.291696,25.230495 11.500037,31.436501 z"
             style="fill:#404040;"/>
          </a>
         </g>
        </svg>
</svg>
