<?xml version="1.0" encoding="UTF-8" standalone="no"?>
<!DOCTYPE svg PUBLIC "-//W3C//DTD SVG 1.1//EN"
 "http://www.w3.org/Graphics/SVG/1.1/DTD/svg11.dtd">
<!-- Generated by graphviz version 2.43.0 (0)
 -->
<!-- Title: ft::irc::processor_invite::execute Pages: 1 -->
<!--zoomable 618 -->
<svg id="main" version="1.1" xmlns="http://www.w3.org/2000/svg" xmlns:xlink="http://www.w3.org/1999/xlink" xml:space="preserve" onload="init(evt)">
<style type="text/css"><![CDATA[
.edge:hover path { stroke: red; }
.edge:hover polygon { stroke: red; fill: red; }
]]></style>
<script type="text/javascript"><![CDATA[
var edges = document.getElementsByTagName('g');
if (edges && edges.length) {
  for (var i=0;i<edges.length;i++) {
    if (edges[i].id.substr(0,4)=='edge') {
      edges[i].setAttribute('class','edge');
    }
  }
}
]]></script>
        <defs>
                <circle id="rim" cx="0" cy="0" r="7"/>
                <circle id="rim2" cx="0" cy="0" r="3.5"/>
                <g id="zoomPlus">
                        <use xlink:href="#rim" fill="#404040">
                                <set attributeName="fill" to="#808080" begin="zoomplus.mouseover" end="zoomplus.mouseout"/>
                        </use>
                        <path d="M-4,0h8M0,-4v8" fill="none" stroke="white" stroke-width="1.5" pointer-events="none"/>
                </g>
                <g id="zoomMin">
                        <use xlink:href="#rim" fill="#404040">
                                <set attributeName="fill" to="#808080" begin="zoomminus.mouseover" end="zoomminus.mouseout"/>
                        </use>
                        <path d="M-4,0h8" fill="none" stroke="white" stroke-width="1.5" pointer-events="none"/>
                </g>
                <g id="dirArrow">
                        <path fill="none" stroke="white" stroke-width="1.5" d="M0,-3.0v7 M-2.5,-0.5L0,-3.0L2.5,-0.5"/>
                </g>
               <g id="resetDef">
                       <use xlink:href="#rim2" fill="#404040">
                               <set attributeName="fill" to="#808080" begin="reset.mouseover" end="reset.mouseout"/>
                       </use>
               </g>
        </defs>

<script type="text/javascript">
var viewWidth = 300;
var viewHeight = 618;
var sectionId = 'dynsection-2';
</script>
<script xlink:href="svgpan.js"/>
<svg id="graph" class="graph">
<g id="viewport">
<title>ft::irc::processor_invite::execute</title>
<polygon fill="white" stroke="transparent" points="-4,4 -4,-614 296,-614 296,4 -4,4"/>
<!-- Node1 -->
<g id="node1" class="node">
<title>Node1</title>
<g id="a_node1"><a xlink:title=" ">
<polygon fill="#bfbfbf" stroke="black" points="0,-294.5 0,-324.5 95,-324.5 95,-294.5 0,-294.5"/>
<text text-anchor="start" x="8" y="-312.5" font-family="Helvetica,sans-Serif" font-size="10.00">ft::irc::processor</text>
<text text-anchor="middle" x="47.5" y="-301.5" font-family="Helvetica,sans-Serif" font-size="10.00">_invite::execute</text>
</a>
</g>
</g>
<!-- Node2 -->
<g id="node2" class="node">
<title>Node2</title>
<g id="a_node2"><a xlink:href="structft_1_1irc_1_1make__reply.html#a39a9c136371879c1ab19ebe282fdd199" target="_top" xlink:title=" ">
<polygon fill="white" stroke="black" points="159.5,-579.5 159.5,-609.5 263.5,-609.5 263.5,-579.5 159.5,-579.5"/>
<text text-anchor="start" x="167.5" y="-597.5" font-family="Helvetica,sans-Serif" font-size="10.00">ft::irc::make_reply</text>
<text text-anchor="middle" x="211.5" y="-586.5" font-family="Helvetica,sans-Serif" font-size="10.00">::away</text>
</a>
</g>
</g>
<!-- Node1&#45;&gt;Node2 -->
<g id="edge1" class="edge">
<title>Node1&#45;&gt;Node2</title>
<path fill="none" stroke="midnightblue" d="M48.7,-324.55C50.13,-368.68 60.42,-499.1 131,-569.5 136.35,-574.84 142.83,-579.04 149.76,-582.34"/>
<polygon fill="midnightblue" stroke="midnightblue" points="148.83,-585.75 159.41,-586.32 151.49,-579.27 148.83,-585.75"/>
</g>
<!-- Node3 -->
<g id="node3" class="node">
<title>Node3</title>
<g id="a_node3"><a xlink:href="structft_1_1irc_1_1make__error.html#aca1c9bea6c7e51af32e12989b1ff36fd" target="_top" xlink:title=" ">
<polygon fill="white" stroke="black" points="131,-519 131,-560 292,-560 292,-519 131,-519"/>
<text text-anchor="start" x="139" y="-548" font-family="Helvetica,sans-Serif" font-size="10.00">ft::irc::make_error</text>
<text text-anchor="start" x="139" y="-537" font-family="Helvetica,sans-Serif" font-size="10.00">::channel_operator_privileges</text>
<text text-anchor="middle" x="211.5" y="-526" font-family="Helvetica,sans-Serif" font-size="10.00">_needed</text>
</a>
</g>
</g>
<!-- Node1&#45;&gt;Node3 -->
<g id="edge2" class="edge">
<title>Node1&#45;&gt;Node3</title>
<path fill="none" stroke="midnightblue" d="M50.56,-324.57C56.37,-361.29 76.14,-456.28 131,-509.5 132.13,-510.59 133.29,-511.64 134.5,-512.66"/>
<polygon fill="midnightblue" stroke="midnightblue" points="132.81,-515.76 142.96,-518.83 136.94,-510.11 132.81,-515.76"/>
</g>
<!-- Node4 -->
<g id="node4" class="node">
<title>Node4</title>
<g id="a_node4"><a xlink:href="classft_1_1irc_1_1server.html#a0e7dee7efef3f36af15d1a3b97f3bad9" target="_top" xlink:title=" ">
<polygon fill="white" stroke="black" points="160.5,-469.5 160.5,-499.5 262.5,-499.5 262.5,-469.5 160.5,-469.5"/>
<text text-anchor="start" x="168.5" y="-487.5" font-family="Helvetica,sans-Serif" font-size="10.00">ft::irc::server::find</text>
<text text-anchor="middle" x="211.5" y="-476.5" font-family="Helvetica,sans-Serif" font-size="10.00">_channel</text>
</a>
</g>
</g>
<!-- Node1&#45;&gt;Node4 -->
<g id="edge3" class="edge">
<title>Node1&#45;&gt;Node4</title>
<path fill="none" stroke="midnightblue" d="M52.68,-324.74C61.77,-354.97 86.17,-422.77 131,-459.5 136.85,-464.29 143.62,-468.17 150.7,-471.3"/>
<polygon fill="midnightblue" stroke="midnightblue" points="149.89,-474.75 160.48,-475.14 152.44,-468.23 149.89,-474.75"/>
</g>
<!-- Node5 -->
<g id="node5" class="node">
<title>Node5</title>
<g id="a_node5"><a xlink:href="classft_1_1irc_1_1server.html#a7a7b03083500fa8c2c3008ff55e6eafb" target="_top" xlink:title=" ">
<polygon fill="white" stroke="black" points="147.5,-431 147.5,-450 275.5,-450 275.5,-431 147.5,-431"/>
<text text-anchor="middle" x="211.5" y="-438" font-family="Helvetica,sans-Serif" font-size="10.00">ft::irc::server::find_user</text>
</a>
</g>
</g>
<!-- Node1&#45;&gt;Node5 -->
<g id="edge4" class="edge">
<title>Node1&#45;&gt;Node5</title>
<path fill="none" stroke="midnightblue" d="M55.42,-324.87C67.26,-349.32 93.76,-396.82 131,-421.5 134.08,-423.54 137.35,-425.36 140.75,-426.99"/>
<polygon fill="midnightblue" stroke="midnightblue" points="139.42,-430.22 149.99,-430.86 142.12,-423.77 139.42,-430.22"/>
</g>
<!-- Node6 -->
<g id="node6" class="node">
<title>Node6</title>
<g id="a_node6"><a xlink:href="classft_1_1irc_1_1channel.html#a12e5601d953c913418b0d5d9f64721fc" target="_top" xlink:title=" ">
<polygon fill="white" stroke="black" points="141.5,-393 141.5,-412 281.5,-412 281.5,-393 141.5,-393"/>
<text text-anchor="middle" x="211.5" y="-400" font-family="Helvetica,sans-Serif" font-size="10.00">ft::irc::channel::get_mode</text>
</a>
</g>
</g>
<!-- Node1&#45;&gt;Node6 -->
<g id="edge5" class="edge">
<title>Node1&#45;&gt;Node6</title>
<path fill="none" stroke="midnightblue" d="M61.16,-324.7C76.1,-341.64 102.54,-368.58 131,-383.5 135.52,-385.87 140.34,-387.95 145.28,-389.77"/>
<polygon fill="midnightblue" stroke="midnightblue" points="144.3,-393.13 154.9,-392.97 146.51,-386.49 144.3,-393.13"/>
</g>
<!-- Node7 -->
<g id="node7" class="node">
<title>Node7</title>
<g id="a_node7"><a xlink:href="classft_1_1irc_1_1user.html#ae476cc31795df7fbb726b193ab887e75" target="_top" xlink:title=" ">
<polygon fill="white" stroke="black" points="166.5,-343.5 166.5,-373.5 256.5,-373.5 256.5,-343.5 166.5,-343.5"/>
<text text-anchor="start" x="174.5" y="-361.5" font-family="Helvetica,sans-Serif" font-size="10.00">ft::irc::user::get</text>
<text text-anchor="middle" x="211.5" y="-350.5" font-family="Helvetica,sans-Serif" font-size="10.00">_server</text>
</a>
</g>
</g>
<!-- Node1&#45;&gt;Node7 -->
<g id="edge6" class="edge">
<title>Node1&#45;&gt;Node7</title>
<path fill="none" stroke="midnightblue" d="M95.18,-323.66C106.88,-327.2 119.4,-330.99 131,-334.5 139.32,-337.02 148.13,-339.68 156.75,-342.28"/>
<polygon fill="midnightblue" stroke="midnightblue" points="155.76,-345.64 166.34,-345.18 157.78,-338.94 155.76,-345.64"/>
</g>
<!-- Node8 -->
<g id="node8" class="node">
<title>Node8</title>
<g id="a_node8"><a xlink:href="structft_1_1irc_1_1make__reply.html#a17caef351b5584fe277db1d1a6d246e0" target="_top" xlink:title=" ">
<polygon fill="white" stroke="black" points="159.5,-294.5 159.5,-324.5 263.5,-324.5 263.5,-294.5 159.5,-294.5"/>
<text text-anchor="start" x="167.5" y="-312.5" font-family="Helvetica,sans-Serif" font-size="10.00">ft::irc::make_reply</text>
<text text-anchor="middle" x="211.5" y="-301.5" font-family="Helvetica,sans-Serif" font-size="10.00">::inviting</text>
</a>
</g>
</g>
<!-- Node1&#45;&gt;Node8 -->
<g id="edge7" class="edge">
<title>Node1&#45;&gt;Node8</title>
<path fill="none" stroke="midnightblue" d="M95.36,-309.5C112.23,-309.5 131.52,-309.5 149.43,-309.5"/>
<polygon fill="midnightblue" stroke="midnightblue" points="149.5,-313 159.5,-309.5 149.5,-306 149.5,-313"/>
</g>
<!-- Node9 -->
<g id="node9" class="node">
<title>Node9</title>
<g id="a_node9"><a xlink:href="classft_1_1irc_1_1user.html#a43fb91fff5e13afd67f9e642137eca40" target="_top" xlink:title=" ">
<polygon fill="white" stroke="black" points="148.5,-245.5 148.5,-275.5 274.5,-275.5 274.5,-245.5 148.5,-245.5"/>
<text text-anchor="start" x="156.5" y="-263.5" font-family="Helvetica,sans-Serif" font-size="10.00">ft::irc::user::is_channel</text>
<text text-anchor="middle" x="211.5" y="-252.5" font-family="Helvetica,sans-Serif" font-size="10.00">_member</text>
</a>
</g>
</g>
<!-- Node1&#45;&gt;Node9 -->
<g id="edge8" class="edge">
<title>Node1&#45;&gt;Node9</title>
<path fill="none" stroke="midnightblue" d="M95.36,-295.33C112.7,-290.08 132.61,-284.06 150.94,-278.52"/>
<polygon fill="midnightblue" stroke="midnightblue" points="152.08,-281.83 160.64,-275.58 150.06,-275.13 152.08,-281.83"/>
</g>
<!-- Node10 -->
<g id="node10" class="node">
<title>Node10</title>
<g id="a_node10"><a xlink:href="classft_1_1irc_1_1channel.html#a09f80cecbaa60df112b6eb082c1cd2e5" target="_top" xlink:title=" ">
<polygon fill="white" stroke="black" points="158,-196.5 158,-226.5 265,-226.5 265,-196.5 158,-196.5"/>
<text text-anchor="start" x="166" y="-214.5" font-family="Helvetica,sans-Serif" font-size="10.00">ft::irc::channel::is</text>
<text text-anchor="middle" x="211.5" y="-203.5" font-family="Helvetica,sans-Serif" font-size="10.00">_channel_operator</text>
</a>
</g>
</g>
<!-- Node1&#45;&gt;Node10 -->
<g id="edge9" class="edge">
<title>Node1&#45;&gt;Node10</title>
<path fill="none" stroke="midnightblue" d="M61.95,-294.27C77.2,-277.87 103.53,-252.03 131,-236.5 136.46,-233.42 142.34,-230.66 148.35,-228.21"/>
<polygon fill="midnightblue" stroke="midnightblue" points="149.75,-231.42 157.86,-224.61 147.27,-224.88 149.75,-231.42"/>
</g>
<!-- Node11 -->
<g id="node11" class="node">
<title>Node11</title>
<g id="a_node11"><a xlink:href="structft_1_1irc_1_1make__error.html#a18a46423a4bca983ad1a6edff1b6c504" target="_top" xlink:title=" ">
<polygon fill="white" stroke="black" points="153.5,-147.5 153.5,-177.5 269.5,-177.5 269.5,-147.5 153.5,-147.5"/>
<text text-anchor="start" x="161.5" y="-165.5" font-family="Helvetica,sans-Serif" font-size="10.00">ft::irc::make_error</text>
<text text-anchor="middle" x="211.5" y="-154.5" font-family="Helvetica,sans-Serif" font-size="10.00">::no_such_nickname</text>
</a>
</g>
</g>
<!-- Node1&#45;&gt;Node11 -->
<g id="edge10" class="edge">
<title>Node1&#45;&gt;Node11</title>
<path fill="none" stroke="midnightblue" d="M54.71,-294.33C66.03,-268.55 92.46,-216.22 131,-187.5 135.1,-184.44 139.58,-181.76 144.27,-179.39"/>
<polygon fill="midnightblue" stroke="midnightblue" points="145.8,-182.54 153.47,-175.23 142.91,-176.16 145.8,-182.54"/>
</g>
<!-- Node12 -->
<g id="node12" class="node">
<title>Node12</title>
<g id="a_node12"><a xlink:href="structft_1_1irc_1_1make__error.html#a85c1af0e7b2940c1aff650d1a78b9847" target="_top" xlink:title=" ">
<polygon fill="white" stroke="black" points="160,-98.5 160,-128.5 263,-128.5 263,-98.5 160,-98.5"/>
<text text-anchor="start" x="168" y="-116.5" font-family="Helvetica,sans-Serif" font-size="10.00">ft::irc::make_error</text>
<text text-anchor="middle" x="211.5" y="-105.5" font-family="Helvetica,sans-Serif" font-size="10.00">::not_on_channel</text>
</a>
</g>
</g>
<!-- Node1&#45;&gt;Node12 -->
<g id="edge11" class="edge">
<title>Node1&#45;&gt;Node12</title>
<path fill="none" stroke="midnightblue" d="M51.51,-294.47C58.94,-261.33 81.26,-181.51 131,-138.5 136.64,-133.62 143.24,-129.69 150.17,-126.53"/>
<polygon fill="midnightblue" stroke="midnightblue" points="151.8,-129.65 159.78,-122.68 149.2,-123.15 151.8,-129.65"/>
</g>
<!-- Node13 -->
<g id="node13" class="node">
<title>Node13</title>
<g id="a_node13"><a xlink:href="classft_1_1irc_1_1user.html#a1db558d6d694ca943224c2440fe36c50" target="_top" xlink:title=" ">
<polygon fill="white" stroke="black" points="162.5,-49.5 162.5,-79.5 260.5,-79.5 260.5,-49.5 162.5,-49.5"/>
<text text-anchor="start" x="170.5" y="-67.5" font-family="Helvetica,sans-Serif" font-size="10.00">ft::irc::user::send</text>
<text text-anchor="middle" x="211.5" y="-56.5" font-family="Helvetica,sans-Serif" font-size="10.00">_message</text>
</a>
</g>
</g>
<!-- Node1&#45;&gt;Node13 -->
<g id="edge12" class="edge">
<title>Node1&#45;&gt;Node13</title>
<path fill="none" stroke="midnightblue" d="M49.73,-294.21C53.75,-254.53 70,-147.29 131,-89.5 137.19,-83.64 144.74,-79.15 152.71,-75.71"/>
<polygon fill="midnightblue" stroke="midnightblue" points="154.06,-78.94 162.18,-72.14 151.59,-72.39 154.06,-78.94"/>
</g>
<!-- Node14 -->
<g id="node14" class="node">
<title>Node14</title>
<g id="a_node14"><a xlink:href="structft_1_1irc_1_1make__error.html#a9e96e2fcd1a0685a851ee65879cc11f6" target="_top" xlink:title=" ">
<polygon fill="white" stroke="black" points="159.5,-0.5 159.5,-30.5 263.5,-30.5 263.5,-0.5 159.5,-0.5"/>
<text text-anchor="start" x="167.5" y="-18.5" font-family="Helvetica,sans-Serif" font-size="10.00">ft::irc::make_error</text>
<text text-anchor="middle" x="211.5" y="-7.5" font-family="Helvetica,sans-Serif" font-size="10.00">::user_on_channel</text>
</a>
</g>
</g>
<!-- Node1&#45;&gt;Node14 -->
<g id="edge13" class="edge">
<title>Node1&#45;&gt;Node14</title>
<path fill="none" stroke="midnightblue" d="M48.52,-294.27C49.42,-248.95 58.38,-113.64 131,-40.5 136.33,-35.14 142.79,-30.92 149.71,-27.61"/>
<polygon fill="midnightblue" stroke="midnightblue" points="151.44,-30.68 159.35,-23.63 148.77,-24.21 151.44,-30.68"/>
</g>
</g>
</svg>
        <g id="navigator" transform="translate(0 0)" fill="#404254">
                <rect fill="#f2f5e9" fill-opacity="0.5" stroke="#606060" stroke-width=".5" x="0" y="0" width="60" height="60"/>
                <use id="zoomplus" xlink:href="#zoomPlus" x="17" y="9" onmousedown="handleZoom(evt,'in')"/>
                <use id="zoomminus" xlink:href="#zoomMin" x="42" y="9" onmousedown="handleZoom(evt,'out')"/>
                <use id="reset" xlink:href="#resetDef" x="30" y="36" onmousedown="handleReset()"/>
                <g id="arrowUp" xlink:href="#dirArrow" transform="translate(30 24)" onmousedown="handlePan(0,-1)">
                  <use xlink:href="#rim" fill="#404040">
                        <set attributeName="fill" to="#808080" begin="arrowUp.mouseover" end="arrowUp.mouseout"/>
                  </use>
                  <path fill="none" stroke="white" stroke-width="1.5" d="M0,-3.0v7 M-2.5,-0.5L0,-3.0L2.5,-0.5"/>
                </g>
                <g id="arrowRight" xlink:href="#dirArrow" transform="rotate(90) translate(36 -43)" onmousedown="handlePan(1,0)">
                  <use xlink:href="#rim" fill="#404040">
                        <set attributeName="fill" to="#808080" begin="arrowRight.mouseover" end="arrowRight.mouseout"/>
                  </use>
                  <path fill="none" stroke="white" stroke-width="1.5" d="M0,-3.0v7 M-2.5,-0.5L0,-3.0L2.5,-0.5"/>
                </g>
                <g id="arrowDown" xlink:href="#dirArrow" transform="rotate(180) translate(-30 -48)" onmousedown="handlePan(0,1)">
                  <use xlink:href="#rim" fill="#404040">
                        <set attributeName="fill" to="#808080" begin="arrowDown.mouseover" end="arrowDown.mouseout"/>
                  </use>
                  <path fill="none" stroke="white" stroke-width="1.5" d="M0,-3.0v7 M-2.5,-0.5L0,-3.0L2.5,-0.5"/>
                </g>
                <g id="arrowLeft" xlink:href="#dirArrow" transform="rotate(270) translate(-36 17)" onmousedown="handlePan(-1,0)">
                  <use xlink:href="#rim" fill="#404040">
                        <set attributeName="fill" to="#808080" begin="arrowLeft.mouseover" end="arrowLeft.mouseout"/>
                  </use>
                  <path fill="none" stroke="white" stroke-width="1.5" d="M0,-3.0v7 M-2.5,-0.5L0,-3.0L2.5,-0.5"/>
                </g>
        </g>
        <svg viewBox="0 0 15 15" width="100%" height="30px" preserveAspectRatio="xMaxYMin meet">
         <g id="arrow_out" transform="scale(0.3 0.3)">
          <a xlink:href="classft_1_1irc_1_1processor__invite_a558fbe35293f4a0783af9a50f7146eeb_cgraph_org.svg" target="_base">
           <rect id="button" ry="5" rx="5" y="6" x="6" height="38" width="38"
                fill="#f2f5e9" fill-opacity="0.5" stroke="#606060" stroke-width="1.0"/>
           <path id="arrow"
             d="M 11.500037,31.436501 C 11.940474,20.09759 22.043105,11.32322 32.158766,21.979434 L 37.068811,17.246167 C 37.068811,17.246167 37.088388,32 37.088388,32 L 22.160133,31.978069 C 22.160133,31.978069 26.997745,27.140456 26.997745,27.140456 C 18.528582,18.264221 13.291696,25.230495 11.500037,31.436501 z"
             style="fill:#404040;"/>
          </a>
         </g>
        </svg>
</svg>
