<?xml version="1.0" encoding="UTF-8" standalone="no"?>
<!DOCTYPE svg PUBLIC "-//W3C//DTD SVG 1.1//EN"
 "http://www.w3.org/Graphics/SVG/1.1/DTD/svg11.dtd">
<!-- Generated by graphviz version 2.43.0 (0)
 -->
<!-- Title: ft::irc::channel::broadcast_unique Pages: 1 -->
<svg width="417pt" height="88pt"
 viewBox="0.00 0.00 417.00 88.00" xmlns="http://www.w3.org/2000/svg" xmlns:xlink="http://www.w3.org/1999/xlink">
<g id="graph0" class="graph" transform="scale(1 1) rotate(0) translate(4 84)">
<title>ft::irc::channel::broadcast_unique</title>
<polygon fill="white" stroke="transparent" points="-4,4 -4,-84 413,-84 413,4 -4,4"/>
<!-- Node1 -->
<g id="node1" class="node">
<title>Node1</title>
<g id="a_node1"><a xlink:title=" ">
<polygon fill="#bfbfbf" stroke="black" points="269,-24.5 269,-54.5 409,-54.5 409,-24.5 269,-24.5"/>
<text text-anchor="start" x="277" y="-42.5" font-family="Helvetica,sans-Serif" font-size="10.00">ft::irc::channel::broadcast</text>
<text text-anchor="middle" x="339" y="-31.5" font-family="Helvetica,sans-Serif" font-size="10.00">_unique</text>
</a>
</g>
</g>
<!-- Node2 -->
<g id="node2" class="node">
<title>Node2</title>
<g id="a_node2"><a xlink:href="classft_1_1irc_1_1user.html#a29eb92f8b7e66851cd4634d98aa57dc6" target="_top" xlink:title=" ">
<polygon fill="white" stroke="black" points="131,-24.5 131,-54.5 233,-54.5 233,-24.5 131,-24.5"/>
<text text-anchor="start" x="139" y="-42.5" font-family="Helvetica,sans-Serif" font-size="10.00">ft::irc::user::notify</text>
<text text-anchor="middle" x="182" y="-31.5" font-family="Helvetica,sans-Serif" font-size="10.00">_message</text>
</a>
</g>
</g>
<!-- Node1&#45;&gt;Node2 -->
<g id="edge1" class="edge">
<title>Node1&#45;&gt;Node2</title>
<path fill="none" stroke="midnightblue" d="M258.56,-39.5C249.94,-39.5 241.36,-39.5 233.24,-39.5"/>
<polygon fill="midnightblue" stroke="midnightblue" points="258.66,-43 268.66,-39.5 258.66,-36 258.66,-43"/>
</g>
<!-- Node3 -->
<g id="node3" class="node">
<title>Node3</title>
<g id="a_node3"><a xlink:href="classft_1_1irc_1_1processor__nick.html#a7a2f0f709488328c04b6ccf0c41ce78e" target="_top" xlink:title=" ">
<polygon fill="white" stroke="black" points="0,-49.5 0,-79.5 95,-79.5 95,-49.5 0,-49.5"/>
<text text-anchor="start" x="8" y="-67.5" font-family="Helvetica,sans-Serif" font-size="10.00">ft::irc::processor</text>
<text text-anchor="middle" x="47.5" y="-56.5" font-family="Helvetica,sans-Serif" font-size="10.00">_nick::execute</text>
</a>
</g>
</g>
<!-- Node2&#45;&gt;Node3 -->
<g id="edge2" class="edge">
<title>Node2&#45;&gt;Node3</title>
<path fill="none" stroke="midnightblue" d="M120.88,-50.84C112.25,-52.47 103.48,-54.13 95.17,-55.69"/>
<polygon fill="midnightblue" stroke="midnightblue" points="121.73,-54.24 130.91,-48.95 120.43,-47.37 121.73,-54.24"/>
</g>
<!-- Node4 -->
<g id="node4" class="node">
<title>Node4</title>
<g id="a_node4"><a xlink:href="classft_1_1irc_1_1processor__quit.html#a013c9c33d3e8cd471ca3de624447d359" target="_top" xlink:title=" ">
<polygon fill="white" stroke="black" points="0,-0.5 0,-30.5 95,-30.5 95,-0.5 0,-0.5"/>
<text text-anchor="start" x="8" y="-18.5" font-family="Helvetica,sans-Serif" font-size="10.00">ft::irc::processor</text>
<text text-anchor="middle" x="47.5" y="-7.5" font-family="Helvetica,sans-Serif" font-size="10.00">_quit::execute</text>
</a>
</g>
</g>
<!-- Node2&#45;&gt;Node4 -->
<g id="edge3" class="edge">
<title>Node2&#45;&gt;Node4</title>
<path fill="none" stroke="midnightblue" d="M120.88,-28.61C112.25,-27.05 103.48,-25.46 95.17,-23.95"/>
<polygon fill="midnightblue" stroke="midnightblue" points="120.44,-32.09 130.91,-30.43 121.69,-25.2 120.44,-32.09"/>
</g>
</g>
</svg>
