<?xml version="1.0" encoding="UTF-8" standalone="no"?>
<!DOCTYPE svg PUBLIC "-//W3C//DTD SVG 1.1//EN"
 "http://www.w3.org/Graphics/SVG/1.1/DTD/svg11.dtd">
<!-- Generated by graphviz version 2.43.0 (0)
 -->
<!-- Title: ft::serv::bootstrap::start_client Pages: 1 -->
<svg width="542pt" height="186pt"
 viewBox="0.00 0.00 542.00 186.00" xmlns="http://www.w3.org/2000/svg" xmlns:xlink="http://www.w3.org/1999/xlink">
<g id="graph0" class="graph" transform="scale(1 1) rotate(0) translate(4 182)">
<title>ft::serv::bootstrap::start_client</title>
<polygon fill="white" stroke="transparent" points="-4,4 -4,-182 538,-182 538,4 -4,4"/>
<!-- Node1 -->
<g id="node1" class="node">
<title>Node1</title>
<g id="a_node1"><a xlink:title=" ">
<polygon fill="#bfbfbf" stroke="black" points="0,-73.5 0,-103.5 102,-103.5 102,-73.5 0,-73.5"/>
<text text-anchor="start" x="8" y="-91.5" font-family="Helvetica,sans-Serif" font-size="10.00">ft::serv::bootstrap</text>
<text text-anchor="middle" x="51" y="-80.5" font-family="Helvetica,sans-Serif" font-size="10.00">::start_client</text>
</a>
</g>
</g>
<!-- Node2 -->
<g id="node2" class="node">
<title>Node2</title>
<g id="a_node2"><a xlink:href="structft_1_1serv_1_1socket__utils.html#ad0dccc18b1c71b736ffcd2328c3f3ccd" target="_top" xlink:title=" ">
<polygon fill="white" stroke="black" points="138,-147.5 138,-177.5 251,-177.5 251,-147.5 138,-147.5"/>
<text text-anchor="start" x="146" y="-165.5" font-family="Helvetica,sans-Serif" font-size="10.00">ft::serv::socket_utils</text>
<text text-anchor="middle" x="194.5" y="-154.5" font-family="Helvetica,sans-Serif" font-size="10.00">::close_socket</text>
</a>
</g>
</g>
<!-- Node1&#45;&gt;Node2 -->
<g id="edge1" class="edge">
<title>Node1&#45;&gt;Node2</title>
<path fill="none" stroke="midnightblue" d="M76.87,-103.5C93.86,-113.54 117.02,-126.83 138,-137.5 141.71,-139.39 145.59,-141.28 149.5,-143.14"/>
<polygon fill="midnightblue" stroke="midnightblue" points="148.08,-146.34 158.62,-147.4 151.04,-140 148.08,-146.34"/>
</g>
<!-- Node3 -->
<g id="node3" class="node">
<title>Node3</title>
<g id="a_node3"><a xlink:href="structft_1_1serv_1_1socket__utils.html#a56120e0cd1c6aef9b5bef57bc37b85eb" target="_top" xlink:title=" ">
<polygon fill="white" stroke="black" points="138,-98.5 138,-128.5 251,-128.5 251,-98.5 138,-98.5"/>
<text text-anchor="start" x="146" y="-116.5" font-family="Helvetica,sans-Serif" font-size="10.00">ft::serv::socket_utils</text>
<text text-anchor="middle" x="194.5" y="-105.5" font-family="Helvetica,sans-Serif" font-size="10.00">::connect_socket</text>
</a>
</g>
</g>
<!-- Node1&#45;&gt;Node3 -->
<g id="edge2" class="edge">
<title>Node1&#45;&gt;Node3</title>
<path fill="none" stroke="midnightblue" d="M102.29,-97.38C110.51,-98.84 119.13,-100.36 127.66,-101.87"/>
<polygon fill="midnightblue" stroke="midnightblue" points="127.14,-105.33 137.6,-103.62 128.36,-98.44 127.14,-105.33"/>
</g>
<!-- Node7 -->
<g id="node7" class="node">
<title>Node7</title>
<g id="a_node7"><a xlink:href="structft_1_1serv_1_1socket__utils.html#af26c480a74e72a232aca84cd17e2de61" target="_top" xlink:title=" ">
<polygon fill="white" stroke="black" points="138,-49.5 138,-79.5 251,-79.5 251,-49.5 138,-49.5"/>
<text text-anchor="start" x="146" y="-67.5" font-family="Helvetica,sans-Serif" font-size="10.00">ft::serv::socket_utils</text>
<text text-anchor="middle" x="194.5" y="-56.5" font-family="Helvetica,sans-Serif" font-size="10.00">::name_socket</text>
</a>
</g>
</g>
<!-- Node1&#45;&gt;Node7 -->
<g id="edge6" class="edge">
<title>Node1&#45;&gt;Node7</title>
<path fill="none" stroke="midnightblue" d="M102.29,-79.97C110.51,-78.58 119.13,-77.11 127.66,-75.67"/>
<polygon fill="midnightblue" stroke="midnightblue" points="128.33,-79.1 137.6,-73.98 127.16,-72.2 128.33,-79.1"/>
</g>
<!-- Node9 -->
<g id="node9" class="node">
<title>Node9</title>
<g id="a_node9"><a xlink:href="structft_1_1serv_1_1socket__utils.html#a818575bfd7756e64e4226b85a7492bc7" target="_top" xlink:title=" ">
<polygon fill="white" stroke="black" points="138,-0.5 138,-30.5 251,-30.5 251,-0.5 138,-0.5"/>
<text text-anchor="start" x="146" y="-18.5" font-family="Helvetica,sans-Serif" font-size="10.00">ft::serv::socket_utils</text>
<text text-anchor="middle" x="194.5" y="-7.5" font-family="Helvetica,sans-Serif" font-size="10.00">::set_nonblocking</text>
</a>
</g>
</g>
<!-- Node1&#45;&gt;Node9 -->
<g id="edge8" class="edge">
<title>Node1&#45;&gt;Node9</title>
<path fill="none" stroke="midnightblue" d="M76.82,-73.4C93.79,-63.31 116.94,-50.02 138,-39.5 141.15,-37.93 144.42,-36.36 147.74,-34.81"/>
<polygon fill="midnightblue" stroke="midnightblue" points="149.46,-37.88 157.11,-30.55 146.56,-31.5 149.46,-37.88"/>
</g>
<!-- Node4 -->
<g id="node4" class="node">
<title>Node4</title>
<g id="a_node4"><a xlink:href="structft_1_1serv_1_1socket__utils.html#af1553b9c3e9cdc5e38f7ecf6c10fb3c1" target="_top" xlink:title=" ">
<polygon fill="white" stroke="black" points="287,-147.5 287,-177.5 400,-177.5 400,-147.5 287,-147.5"/>
<text text-anchor="start" x="295" y="-165.5" font-family="Helvetica,sans-Serif" font-size="10.00">ft::serv::socket_utils</text>
<text text-anchor="middle" x="343.5" y="-154.5" font-family="Helvetica,sans-Serif" font-size="10.00">::forward_lookup</text>
</a>
</g>
</g>
<!-- Node3&#45;&gt;Node4 -->
<g id="edge3" class="edge">
<title>Node3&#45;&gt;Node4</title>
<path fill="none" stroke="midnightblue" d="M240.8,-128.6C255.54,-133.51 272.07,-139.02 287.44,-144.15"/>
<polygon fill="midnightblue" stroke="midnightblue" points="286.75,-147.61 297.35,-147.45 288.97,-140.97 286.75,-147.61"/>
</g>
<!-- Node6 -->
<g id="node6" class="node">
<title>Node6</title>
<g id="a_node6"><a xlink:href="structft_1_1serv_1_1socket__utils.html#aae3d021284dea2fa5ae81820b522cfe4" target="_top" xlink:title=" ">
<polygon fill="white" stroke="black" points="287,-98.5 287,-128.5 400,-128.5 400,-98.5 287,-98.5"/>
<text text-anchor="start" x="295" y="-116.5" font-family="Helvetica,sans-Serif" font-size="10.00">ft::serv::socket_utils</text>
<text text-anchor="middle" x="343.5" y="-105.5" font-family="Helvetica,sans-Serif" font-size="10.00">::nosigpipe_connect</text>
</a>
</g>
</g>
<!-- Node3&#45;&gt;Node6 -->
<g id="edge5" class="edge">
<title>Node3&#45;&gt;Node6</title>
<path fill="none" stroke="midnightblue" d="M251.07,-113.5C259.49,-113.5 268.24,-113.5 276.84,-113.5"/>
<polygon fill="midnightblue" stroke="midnightblue" points="276.85,-117 286.85,-113.5 276.85,-110 276.85,-117"/>
</g>
<!-- Node5 -->
<g id="node5" class="node">
<title>Node5</title>
<g id="a_node5"><a xlink:href="classft_1_1serv_1_1__internal_1_1ai__failed.html#ad3aa900794508d370ef6e1b3c104a39e" target="_top" xlink:title=" ">
<polygon fill="white" stroke="black" points="436,-147.5 436,-177.5 534,-177.5 534,-147.5 436,-147.5"/>
<text text-anchor="start" x="444" y="-165.5" font-family="Helvetica,sans-Serif" font-size="10.00">ft::serv::_internal</text>
<text text-anchor="middle" x="485" y="-154.5" font-family="Helvetica,sans-Serif" font-size="10.00">::ai_failed::error</text>
</a>
</g>
</g>
<!-- Node4&#45;&gt;Node5 -->
<g id="edge4" class="edge">
<title>Node4&#45;&gt;Node5</title>
<path fill="none" stroke="midnightblue" d="M400.03,-162.5C408.46,-162.5 417.18,-162.5 425.66,-162.5"/>
<polygon fill="midnightblue" stroke="midnightblue" points="425.86,-166 435.86,-162.5 425.86,-159 425.86,-166"/>
</g>
<!-- Node8 -->
<g id="node8" class="node">
<title>Node8</title>
<g id="a_node8"><a xlink:href="structft_1_1serv_1_1socket__utils.html#aef0594e2d9bdc8b8e15bcab89950e093" target="_top" xlink:title=" ">
<polygon fill="white" stroke="black" points="287,-49.5 287,-79.5 400,-79.5 400,-49.5 287,-49.5"/>
<text text-anchor="start" x="295" y="-67.5" font-family="Helvetica,sans-Serif" font-size="10.00">ft::serv::socket_utils</text>
<text text-anchor="middle" x="343.5" y="-56.5" font-family="Helvetica,sans-Serif" font-size="10.00">::reverse_lookup</text>
</a>
</g>
</g>
<!-- Node7&#45;&gt;Node8 -->
<g id="edge7" class="edge">
<title>Node7&#45;&gt;Node8</title>
<path fill="none" stroke="midnightblue" d="M251.07,-64.5C259.49,-64.5 268.24,-64.5 276.84,-64.5"/>
<polygon fill="midnightblue" stroke="midnightblue" points="276.85,-68 286.85,-64.5 276.85,-61 276.85,-68"/>
</g>
</g>
</svg>
