<?xml version="1.0" encoding="UTF-8" standalone="no"?>
<!DOCTYPE svg PUBLIC "-//W3C//DTD SVG 1.1//EN"
 "http://www.w3.org/Graphics/SVG/1.1/DTD/svg11.dtd">
<!-- Generated by graphviz version 2.43.0 (0)
 -->
<!-- Title: ft::irc::bot_handler::on_read Pages: 1 -->
<!--zoomable 649 -->
<svg id="main" version="1.1" xmlns="http://www.w3.org/2000/svg" xmlns:xlink="http://www.w3.org/1999/xlink" xml:space="preserve" onload="init(evt)">
<style type="text/css"><![CDATA[
.edge:hover path { stroke: red; }
.edge:hover polygon { stroke: red; fill: red; }
]]></style>
<script type="text/javascript"><![CDATA[
var edges = document.getElementsByTagName('g');
if (edges && edges.length) {
  for (var i=0;i<edges.length;i++) {
    if (edges[i].id.substr(0,4)=='edge') {
      edges[i].setAttribute('class','edge');
    }
  }
}
]]></script>
        <defs>
                <circle id="rim" cx="0" cy="0" r="7"/>
                <circle id="rim2" cx="0" cy="0" r="3.5"/>
                <g id="zoomPlus">
                        <use xlink:href="#rim" fill="#404040">
                                <set attributeName="fill" to="#808080" begin="zoomplus.mouseover" end="zoomplus.mouseout"/>
                        </use>
                        <path d="M-4,0h8M0,-4v8" fill="none" stroke="white" stroke-width="1.5" pointer-events="none"/>
                </g>
                <g id="zoomMin">
                        <use xlink:href="#rim" fill="#404040">
                                <set attributeName="fill" to="#808080" begin="zoomminus.mouseover" end="zoomminus.mouseout"/>
                        </use>
                        <path d="M-4,0h8" fill="none" stroke="white" stroke-width="1.5" pointer-events="none"/>
                </g>
                <g id="dirArrow">
                        <path fill="none" stroke="white" stroke-width="1.5" d="M0,-3.0v7 M-2.5,-0.5L0,-3.0L2.5,-0.5"/>
                </g>
               <g id="resetDef">
                       <use xlink:href="#rim2" fill="#404040">
                               <set attributeName="fill" to="#808080" begin="reset.mouseover" end="reset.mouseout"/>
                       </use>
               </g>
        </defs>

<script type="text/javascript">
var viewWidth = 881;
var viewHeight = 649;
var sectionId = 'dynsection-5';
</script>
<script xlink:href="svgpan.js"/>
<svg id="graph" class="graph">
<g id="viewport">
<title>ft::irc::bot_handler::on_read</title>
<polygon fill="white" stroke="transparent" points="-4,4 -4,-645 877,-645 877,4 -4,4"/>
<!-- Node1 -->
<g id="node1" class="node">
<title>Node1</title>
<g id="a_node1"><a xlink:title=" ">
<polygon fill="#bfbfbf" stroke="black" points="0,-306.5 0,-336.5 105,-336.5 105,-306.5 0,-306.5"/>
<text text-anchor="start" x="8" y="-324.5" font-family="Helvetica,sans-Serif" font-size="10.00">ft::irc::bot_handler</text>
<text text-anchor="middle" x="52.5" y="-313.5" font-family="Helvetica,sans-Serif" font-size="10.00">::on_read</text>
</a>
</g>
</g>
<!-- Node2 -->
<g id="node2" class="node">
<title>Node2</title>
<g id="a_node2"><a xlink:href="structft_1_1serv_1_1logger.html#a83649a4f3bb804c8fed6dfd130de5ee6" target="_top" xlink:title=" ">
<polygon fill="white" stroke="black" points="141,-482 141,-501 263,-501 263,-482 141,-482"/>
<text text-anchor="middle" x="202" y="-489" font-family="Helvetica,sans-Serif" font-size="10.00">ft::serv::logger::debug</text>
</a>
</g>
</g>
<!-- Node1&#45;&gt;Node2 -->
<g id="edge1" class="edge">
<title>Node1&#45;&gt;Node2</title>
<path fill="none" stroke="midnightblue" d="M66.59,-336.59C93.89,-368.05 156.77,-440.52 185.8,-473.98"/>
<polygon fill="midnightblue" stroke="midnightblue" points="183.21,-476.34 192.41,-481.6 188.5,-471.75 183.21,-476.34"/>
</g>
<!-- Node6 -->
<g id="node6" class="node">
<title>Node6</title>
<g id="a_node6"><a xlink:href="classft_1_1irc_1_1bot.html#a0b595213781ed0e5aaf1d48fdb602d98" target="_top" xlink:title=" ">
<polygon fill="white" stroke="black" points="142.5,-312 142.5,-331 261.5,-331 261.5,-312 142.5,-312"/>
<text text-anchor="middle" x="202" y="-319" font-family="Helvetica,sans-Serif" font-size="10.00">ft::irc::bot::on_packet</text>
</a>
</g>
</g>
<!-- Node1&#45;&gt;Node6 -->
<g id="edge5" class="edge">
<title>Node1&#45;&gt;Node6</title>
<path fill="none" stroke="midnightblue" d="M105.09,-321.5C113.84,-321.5 123.05,-321.5 132.16,-321.5"/>
<polygon fill="midnightblue" stroke="midnightblue" points="132.38,-325 142.38,-321.5 132.38,-318 132.38,-325"/>
</g>
<!-- Node23 -->
<g id="node23" class="node">
<title>Node23</title>
<g id="a_node23"><a xlink:href="classft_1_1irc_1_1message.html#a076fdbb740cb752dd153e207f076183a" target="_top" xlink:title=" ">
<polygon fill="white" stroke="black" points="148.5,-262.5 148.5,-292.5 255.5,-292.5 255.5,-262.5 148.5,-262.5"/>
<text text-anchor="start" x="156.5" y="-280.5" font-family="Helvetica,sans-Serif" font-size="10.00">ft::irc::message::to</text>
<text text-anchor="middle" x="202" y="-269.5" font-family="Helvetica,sans-Serif" font-size="10.00">_pretty_string</text>
</a>
</g>
</g>
<!-- Node1&#45;&gt;Node23 -->
<g id="edge25" class="edge">
<title>Node1&#45;&gt;Node23</title>
<path fill="none" stroke="midnightblue" d="M103.85,-306.48C115.77,-302.93 128.6,-299.1 140.9,-295.43"/>
<polygon fill="midnightblue" stroke="midnightblue" points="142.05,-298.74 150.63,-292.53 140.04,-292.03 142.05,-298.74"/>
</g>
<!-- Node3 -->
<g id="node3" class="node">
<title>Node3</title>
<g id="a_node3"><a xlink:href="namespaceft_1_1serv_1_1__internal.html#a4dfb80be7b817fc0ee18658f313a6274" target="_top" xlink:title=" ">
<polygon fill="white" stroke="black" points="315.5,-586.5 315.5,-616.5 413.5,-616.5 413.5,-586.5 315.5,-586.5"/>
<text text-anchor="start" x="323.5" y="-604.5" font-family="Helvetica,sans-Serif" font-size="10.00">ft::serv::_internal</text>
<text text-anchor="middle" x="364.5" y="-593.5" font-family="Helvetica,sans-Serif" font-size="10.00">::print</text>
</a>
</g>
</g>
<!-- Node2&#45;&gt;Node3 -->
<g id="edge2" class="edge">
<title>Node2&#45;&gt;Node3</title>
<path fill="none" stroke="midnightblue" d="M211.65,-501.15C227.5,-518.33 262.88,-554.49 299,-576.5 302.21,-578.46 305.61,-580.31 309.09,-582.06"/>
<polygon fill="midnightblue" stroke="midnightblue" points="307.91,-585.37 318.45,-586.42 310.86,-579.02 307.91,-585.37"/>
</g>
<!-- Node4 -->
<g id="node4" class="node">
<title>Node4</title>
<g id="a_node4"><a xlink:href="namespaceft_1_1serv_1_1__internal.html#aff49349b58dc84fa69076e9cd27a1db4" target="_top" xlink:title=" ">
<polygon fill="white" stroke="black" points="466,-610.5 466,-640.5 610,-640.5 610,-610.5 466,-610.5"/>
<text text-anchor="start" x="474" y="-628.5" font-family="Helvetica,sans-Serif" font-size="10.00">ft::serv::_internal</text>
<text text-anchor="middle" x="538" y="-617.5" font-family="Helvetica,sans-Serif" font-size="10.00">::make_format_string_line</text>
</a>
</g>
</g>
<!-- Node3&#45;&gt;Node4 -->
<g id="edge3" class="edge">
<title>Node3&#45;&gt;Node4</title>
<path fill="none" stroke="midnightblue" d="M413.73,-608.25C426.85,-610.09 441.43,-612.13 455.84,-614.14"/>
<polygon fill="midnightblue" stroke="midnightblue" points="455.38,-617.61 465.77,-615.53 456.35,-610.68 455.38,-617.61"/>
</g>
<!-- Node5 -->
<g id="node5" class="node">
<title>Node5</title>
<g id="a_node5"><a xlink:href="namespaceft_1_1serv_1_1__internal.html#aad4af39d62c2b1687b0bef7a91bf6c60" target="_top" xlink:title=" ">
<polygon fill="white" stroke="black" points="486.5,-561.5 486.5,-591.5 589.5,-591.5 589.5,-561.5 486.5,-561.5"/>
<text text-anchor="start" x="494.5" y="-579.5" font-family="Helvetica,sans-Serif" font-size="10.00">ft::serv::_internal</text>
<text text-anchor="middle" x="538" y="-568.5" font-family="Helvetica,sans-Serif" font-size="10.00">::make_utc_string</text>
</a>
</g>
</g>
<!-- Node3&#45;&gt;Node5 -->
<g id="edge4" class="edge">
<title>Node3&#45;&gt;Node5</title>
<path fill="none" stroke="midnightblue" d="M413.73,-594.47C433.23,-591.63 455.95,-588.32 476.53,-585.31"/>
<polygon fill="midnightblue" stroke="midnightblue" points="477.05,-588.78 486.44,-583.87 476.04,-581.85 477.05,-588.78"/>
</g>
<!-- Node7 -->
<g id="node7" class="node">
<title>Node7</title>
<g id="a_node7"><a xlink:href="classft_1_1irc_1_1bot.html#ab9626c6fee28a7fa7cb968c76362834c" target="_top" xlink:title=" ">
<polygon fill="white" stroke="black" points="302.5,-510 302.5,-529 426.5,-529 426.5,-510 302.5,-510"/>
<text text-anchor="middle" x="364.5" y="-517" font-family="Helvetica,sans-Serif" font-size="10.00">ft::irc::bot::add_inviter</text>
</a>
</g>
</g>
<!-- Node6&#45;&gt;Node7 -->
<g id="edge6" class="edge">
<title>Node6&#45;&gt;Node7</title>
<path fill="none" stroke="midnightblue" d="M205.39,-331.37C213.22,-361.53 240.99,-453.35 299,-500.5 301.25,-502.33 303.67,-503.98 306.21,-505.48"/>
<polygon fill="midnightblue" stroke="midnightblue" points="304.7,-508.63 315.21,-509.97 307.82,-502.37 304.7,-508.63"/>
</g>
<!-- Node8 -->
<g id="node8" class="node">
<title>Node8</title>
<g id="a_node8"><a xlink:href="classft_1_1irc_1_1bot.html#aef50e26ad9e418841745fec737a929e1" target="_top" xlink:title=" ">
<polygon fill="white" stroke="black" points="321,-460.5 321,-490.5 408,-490.5 408,-460.5 321,-460.5"/>
<text text-anchor="start" x="329" y="-478.5" font-family="Helvetica,sans-Serif" font-size="10.00">ft::irc::bot::find</text>
<text text-anchor="middle" x="364.5" y="-467.5" font-family="Helvetica,sans-Serif" font-size="10.00">_channels</text>
</a>
</g>
</g>
<!-- Node6&#45;&gt;Node8 -->
<g id="edge7" class="edge">
<title>Node6&#45;&gt;Node8</title>
<path fill="none" stroke="midnightblue" d="M208.28,-331.14C221.1,-353.82 256.02,-411.19 299,-445.5 303.64,-449.2 308.81,-452.57 314.14,-455.6"/>
<polygon fill="midnightblue" stroke="midnightblue" points="312.74,-458.82 323.22,-460.38 316,-452.63 312.74,-458.82"/>
</g>
<!-- Node9 -->
<g id="node9" class="node">
<title>Node9</title>
<g id="a_node9"><a xlink:href="structft_1_1irc_1_1string__utils.html#abd73422cb93e7f7f26cfd59a221933a2" target="_top" xlink:title=" ">
<polygon fill="white" stroke="black" points="487.5,-438.5 487.5,-468.5 588.5,-468.5 588.5,-438.5 487.5,-438.5"/>
<text text-anchor="start" x="495.5" y="-456.5" font-family="Helvetica,sans-Serif" font-size="10.00">ft::irc::string_utils</text>
<text text-anchor="middle" x="538" y="-445.5" font-family="Helvetica,sans-Serif" font-size="10.00">::is_same</text>
</a>
</g>
</g>
<!-- Node6&#45;&gt;Node9 -->
<g id="edge16" class="edge">
<title>Node6&#45;&gt;Node9</title>
<path fill="none" stroke="midnightblue" d="M209.94,-331.12C224.22,-350.14 258.97,-392.43 299,-412.5 355.28,-440.71 427.42,-449.93 477.45,-452.74"/>
<polygon fill="midnightblue" stroke="midnightblue" points="477.31,-456.23 487.46,-453.23 477.65,-449.24 477.31,-456.23"/>
</g>
<!-- Node12 -->
<g id="node12" class="node">
<title>Node12</title>
<g id="a_node12"><a xlink:href="classft_1_1irc_1_1message.html#ad323e99c45f6feec038a7de683f812a2" target="_top" xlink:title=" ">
<polygon fill="white" stroke="black" points="308,-372.5 308,-402.5 421,-402.5 421,-372.5 308,-372.5"/>
<text text-anchor="start" x="316" y="-390.5" font-family="Helvetica,sans-Serif" font-size="10.00">ft::irc::message::get</text>
<text text-anchor="middle" x="364.5" y="-379.5" font-family="Helvetica,sans-Serif" font-size="10.00">_command</text>
</a>
</g>
</g>
<!-- Node6&#45;&gt;Node12 -->
<g id="edge11" class="edge">
<title>Node6&#45;&gt;Node12</title>
<path fill="none" stroke="midnightblue" d="M225.03,-331.16C244.43,-339.6 273.49,-352.11 299,-362.5 304.01,-364.54 309.24,-366.63 314.48,-368.7"/>
<polygon fill="midnightblue" stroke="midnightblue" points="313.26,-371.98 323.85,-372.37 315.82,-365.46 313.26,-371.98"/>
</g>
<!-- Node13 -->
<g id="node13" class="node">
<title>Node13</title>
<g id="a_node13"><a xlink:href="classft_1_1irc_1_1bot.html#a38baf3c513838c769c61c825a4b8a8a2" target="_top" xlink:title=" ">
<polygon fill="white" stroke="black" points="309.5,-334 309.5,-353 419.5,-353 419.5,-334 309.5,-334"/>
<text text-anchor="middle" x="364.5" y="-341" font-family="Helvetica,sans-Serif" font-size="10.00">ft::irc::bot::get_nick</text>
</a>
</g>
</g>
<!-- Node6&#45;&gt;Node13 -->
<g id="edge12" class="edge">
<title>Node6&#45;&gt;Node13</title>
<path fill="none" stroke="midnightblue" d="M261.85,-329.57C274.01,-331.23 286.88,-333 299.23,-334.69"/>
<polygon fill="midnightblue" stroke="midnightblue" points="299.06,-338.2 309.45,-336.09 300.01,-331.26 299.06,-338.2"/>
</g>
<!-- Node14 -->
<g id="node14" class="node">
<title>Node14</title>
<g id="a_node14"><a xlink:href="classft_1_1irc_1_1message.html#a254aec48aa7b7872331cd5644d9e918c" target="_top" xlink:title=" ">
<polygon fill="white" stroke="black" points="308,-284.5 308,-314.5 421,-314.5 421,-284.5 308,-284.5"/>
<text text-anchor="start" x="316" y="-302.5" font-family="Helvetica,sans-Serif" font-size="10.00">ft::irc::message::get</text>
<text text-anchor="middle" x="364.5" y="-291.5" font-family="Helvetica,sans-Serif" font-size="10.00">_prefix</text>
</a>
</g>
</g>
<!-- Node6&#45;&gt;Node14 -->
<g id="edge13" class="edge">
<title>Node6&#45;&gt;Node14</title>
<path fill="none" stroke="midnightblue" d="M261.85,-313.43C273.6,-311.82 286,-310.12 297.95,-308.49"/>
<polygon fill="midnightblue" stroke="midnightblue" points="298.43,-311.95 307.86,-307.13 297.47,-305.02 298.43,-311.95"/>
</g>
<!-- Node15 -->
<g id="node15" class="node">
<title>Node15</title>
<g id="a_node15"><a xlink:href="classft_1_1irc_1_1bot.html#a8cdd94dface1cee6c920a6fba82c1624" target="_top" xlink:title=" ">
<polygon fill="white" stroke="black" points="307.5,-246 307.5,-265 421.5,-265 421.5,-246 307.5,-246"/>
<text text-anchor="middle" x="364.5" y="-253" font-family="Helvetica,sans-Serif" font-size="10.00">ft::irc::bot::is_inviter</text>
</a>
</g>
</g>
<!-- Node6&#45;&gt;Node15 -->
<g id="edge14" class="edge">
<title>Node6&#45;&gt;Node15</title>
<path fill="none" stroke="midnightblue" d="M239.96,-311.95C247.76,-309.35 255.81,-306.2 263,-302.5 280.79,-293.35 281.19,-284.59 299,-275.5 304.22,-272.84 309.86,-270.45 315.55,-268.33"/>
<polygon fill="midnightblue" stroke="midnightblue" points="316.82,-271.6 325.13,-265.03 314.53,-264.98 316.82,-271.6"/>
</g>
<!-- Node16 -->
<g id="node16" class="node">
<title>Node16</title>
<g id="a_node16"><a xlink:href="structft_1_1irc_1_1string__utils.html#a38cd804a5b73843f0fd63a027dd0dee0" target="_top" xlink:title=" ">
<polygon fill="white" stroke="black" points="299,-196.5 299,-226.5 430,-226.5 430,-196.5 299,-196.5"/>
<text text-anchor="start" x="307" y="-214.5" font-family="Helvetica,sans-Serif" font-size="10.00">ft::irc::string_utils</text>
<text text-anchor="middle" x="364.5" y="-203.5" font-family="Helvetica,sans-Serif" font-size="10.00">::is_valid_channelname</text>
</a>
</g>
</g>
<!-- Node6&#45;&gt;Node16 -->
<g id="edge17" class="edge">
<title>Node6&#45;&gt;Node16</title>
<path fill="none" stroke="midnightblue" d="M247,-311.95C252.75,-309.49 258.28,-306.39 263,-302.5 288.79,-281.26 273.89,-258.55 299,-236.5 300.76,-234.95 302.63,-233.5 304.57,-232.13"/>
<polygon fill="midnightblue" stroke="midnightblue" points="306.82,-234.86 313.53,-226.66 303.17,-228.88 306.82,-234.86"/>
</g>
<!-- Node18 -->
<g id="node18" class="node">
<title>Node18</title>
<g id="a_node18"><a xlink:href="structft_1_1irc_1_1string__utils.html#ac1e75b32f508ffe5a1a1875d1e1cd2ea" target="_top" xlink:title=" ">
<polygon fill="white" stroke="black" points="314,-147.5 314,-177.5 415,-177.5 415,-147.5 314,-147.5"/>
<text text-anchor="start" x="322" y="-165.5" font-family="Helvetica,sans-Serif" font-size="10.00">ft::irc::string_utils</text>
<text text-anchor="middle" x="364.5" y="-154.5" font-family="Helvetica,sans-Serif" font-size="10.00">::pick_nick</text>
</a>
</g>
</g>
<!-- Node6&#45;&gt;Node18 -->
<g id="edge19" class="edge">
<title>Node6&#45;&gt;Node18</title>
<path fill="none" stroke="midnightblue" d="M249.54,-311.92C254.51,-309.46 259.15,-306.37 263,-302.5 301.06,-264.22 261.9,-225.71 299,-186.5 300.83,-184.56 302.84,-182.78 304.96,-181.14"/>
<polygon fill="midnightblue" stroke="midnightblue" points="307.2,-183.86 313.72,-175.51 303.41,-177.98 307.2,-183.86"/>
</g>
<!-- Node19 -->
<g id="node19" class="node">
<title>Node19</title>
<g id="a_node19"><a xlink:href="classft_1_1serv_1_1event__layer.html#a854a0764bd67adfc716ec4237cd52672" target="_top" xlink:title=" ">
<polygon fill="white" stroke="black" points="308,-98.5 308,-128.5 421,-128.5 421,-98.5 308,-98.5"/>
<text text-anchor="start" x="316" y="-116.5" font-family="Helvetica,sans-Serif" font-size="10.00">ft::serv::event_layer</text>
<text text-anchor="middle" x="364.5" y="-105.5" font-family="Helvetica,sans-Serif" font-size="10.00">::post_flush</text>
</a>
</g>
</g>
<!-- Node6&#45;&gt;Node19 -->
<g id="edge20" class="edge">
<title>Node6&#45;&gt;Node19</title>
<path fill="none" stroke="midnightblue" d="M250.46,-311.93C255.15,-309.46 259.47,-306.37 263,-302.5 313.58,-247.04 249.81,-194.19 299,-137.5 299.74,-136.64 300.52,-135.82 301.33,-135.02"/>
<polygon fill="midnightblue" stroke="midnightblue" points="303.71,-137.6 309.31,-128.61 299.33,-132.14 303.71,-137.6"/>
</g>
<!-- Node20 -->
<g id="node20" class="node">
<title>Node20</title>
<g id="a_node20"><a xlink:href="classft_1_1serv_1_1event__layer.html#add4946138f5f8a5870d52c44ca435aab" target="_top" xlink:title=" ">
<polygon fill="white" stroke="black" points="308,-49.5 308,-79.5 421,-79.5 421,-49.5 308,-49.5"/>
<text text-anchor="start" x="316" y="-67.5" font-family="Helvetica,sans-Serif" font-size="10.00">ft::serv::event_layer</text>
<text text-anchor="middle" x="364.5" y="-56.5" font-family="Helvetica,sans-Serif" font-size="10.00">::post_write</text>
</a>
</g>
</g>
<!-- Node6&#45;&gt;Node20 -->
<g id="edge21" class="edge">
<title>Node6&#45;&gt;Node20</title>
<path fill="none" stroke="midnightblue" d="M250.94,-311.94C255.48,-309.47 259.63,-306.38 263,-302.5 326.26,-229.7 237.56,-162.85 299,-88.5 299.62,-87.75 300.26,-87.03 300.92,-86.33"/>
<polygon fill="midnightblue" stroke="midnightblue" points="303.45,-88.78 308.84,-79.66 298.93,-83.43 303.45,-88.78"/>
</g>
<!-- Node21 -->
<g id="node21" class="node">
<title>Node21</title>
<g id="a_node21"><a xlink:href="classft_1_1irc_1_1bot.html#af8c852e58073043cd63ace5d56c558fe" target="_top" xlink:title=" ">
<polygon fill="white" stroke="black" points="311,-0.5 311,-30.5 418,-30.5 418,-0.5 311,-0.5"/>
<text text-anchor="start" x="319" y="-18.5" font-family="Helvetica,sans-Serif" font-size="10.00">ft::irc::bot::remove</text>
<text text-anchor="middle" x="364.5" y="-7.5" font-family="Helvetica,sans-Serif" font-size="10.00">_inviter</text>
</a>
</g>
</g>
<!-- Node6&#45;&gt;Node21 -->
<g id="edge22" class="edge">
<title>Node6&#45;&gt;Node21</title>
<path fill="none" stroke="midnightblue" d="M251.35,-311.88C255.75,-309.42 259.76,-306.34 263,-302.5 339.01,-212.27 225.25,-131.58 299,-39.5 300.13,-38.09 301.35,-36.76 302.65,-35.51"/>
<polygon fill="midnightblue" stroke="midnightblue" points="305.06,-38.07 310.82,-29.17 300.78,-32.54 305.06,-38.07"/>
</g>
<!-- Node22 -->
<g id="node22" class="node">
<title>Node22</title>
<g id="a_node22"><a xlink:href="classft_1_1irc_1_1bot.html#a6bea4a41bf2e963f84660531719b1515" target="_top" xlink:title=" ">
<polygon fill="white" stroke="black" points="300.5,-548 300.5,-567 428.5,-567 428.5,-548 300.5,-548"/>
<text text-anchor="middle" x="364.5" y="-555" font-family="Helvetica,sans-Serif" font-size="10.00">ft::irc::bot::update_nick</text>
</a>
</g>
</g>
<!-- Node6&#45;&gt;Node22 -->
<g id="edge23" class="edge">
<title>Node6&#45;&gt;Node22</title>
<path fill="none" stroke="midnightblue" d="M206.72,-331.17C222.24,-371.31 281.82,-523.42 299,-538.5 300.78,-540.06 302.69,-541.5 304.69,-542.82"/>
<polygon fill="midnightblue" stroke="midnightblue" points="303.49,-546.15 313.94,-547.87 306.84,-540.01 303.49,-546.15"/>
</g>
<!-- Node8&#45;&gt;Node9 -->
<g id="edge8" class="edge">
<title>Node8&#45;&gt;Node9</title>
<path fill="none" stroke="midnightblue" d="M408.33,-470.01C429.16,-467.33 454.52,-464.08 477.21,-461.17"/>
<polygon fill="midnightblue" stroke="midnightblue" points="477.95,-464.6 487.43,-459.86 477.06,-457.66 477.95,-464.6"/>
</g>
<!-- Node10 -->
<g id="node10" class="node">
<title>Node10</title>
<g id="a_node10"><a xlink:href="structft_1_1irc_1_1string__utils.html#a367a22012cc0d2d25959ac3f4e5d33a9" target="_top" xlink:title=" ">
<polygon fill="white" stroke="black" points="646,-438.5 646,-468.5 747,-468.5 747,-438.5 646,-438.5"/>
<text text-anchor="start" x="654" y="-456.5" font-family="Helvetica,sans-Serif" font-size="10.00">ft::irc::string_utils</text>
<text text-anchor="middle" x="696.5" y="-445.5" font-family="Helvetica,sans-Serif" font-size="10.00">::to_lower</text>
</a>
</g>
</g>
<!-- Node9&#45;&gt;Node10 -->
<g id="edge9" class="edge">
<title>Node9&#45;&gt;Node10</title>
<path fill="none" stroke="midnightblue" d="M588.52,-453.5C603.5,-453.5 620.12,-453.5 635.7,-453.5"/>
<polygon fill="midnightblue" stroke="midnightblue" points="635.77,-457 645.77,-453.5 635.77,-450 635.77,-457"/>
</g>
<!-- Node11 -->
<g id="node11" class="node">
<title>Node11</title>
<g id="a_node11"><a xlink:href="namespaceft_1_1irc_1_1__internal.html#aa76c3a369f64725f8b2b52b2131c1111" target="_top" xlink:title=" ">
<polygon fill="white" stroke="black" points="783,-438.5 783,-468.5 873,-468.5 873,-438.5 783,-438.5"/>
<text text-anchor="start" x="791" y="-456.5" font-family="Helvetica,sans-Serif" font-size="10.00">ft::irc::_internal</text>
<text text-anchor="middle" x="828" y="-445.5" font-family="Helvetica,sans-Serif" font-size="10.00">::_to_lower</text>
</a>
</g>
</g>
<!-- Node10&#45;&gt;Node11 -->
<g id="edge10" class="edge">
<title>Node10&#45;&gt;Node11</title>
<path fill="none" stroke="midnightblue" d="M747.2,-453.5C755.51,-453.5 764.18,-453.5 772.61,-453.5"/>
<polygon fill="midnightblue" stroke="midnightblue" points="772.73,-457 782.73,-453.5 772.73,-450 772.73,-457"/>
</g>
<!-- Node15&#45;&gt;Node9 -->
<g id="edge15" class="edge">
<title>Node15&#45;&gt;Node9</title>
<path fill="none" stroke="midnightblue" d="M411.3,-265.08C417.98,-267.75 424.47,-271.16 430,-275.5 482,-316.28 514.38,-389.9 528.59,-428.44"/>
<polygon fill="midnightblue" stroke="midnightblue" points="525.46,-430.08 532.11,-438.32 532.05,-427.73 525.46,-430.08"/>
</g>
<!-- Node17 -->
<g id="node17" class="node">
<title>Node17</title>
<g id="a_node17"><a xlink:href="namespaceft_1_1irc_1_1__internal.html#ac421a738f6d955bab8b862fca8bd7159" target="_top" xlink:title=" ">
<polygon fill="white" stroke="black" points="493,-196.5 493,-226.5 583,-226.5 583,-196.5 493,-196.5"/>
<text text-anchor="start" x="501" y="-214.5" font-family="Helvetica,sans-Serif" font-size="10.00">ft::irc::_internal</text>
<text text-anchor="middle" x="538" y="-203.5" font-family="Helvetica,sans-Serif" font-size="10.00">::_is_except</text>
</a>
</g>
</g>
<!-- Node16&#45;&gt;Node17 -->
<g id="edge18" class="edge">
<title>Node16&#45;&gt;Node17</title>
<path fill="none" stroke="midnightblue" d="M430.34,-211.5C447.62,-211.5 466.11,-211.5 482.75,-211.5"/>
<polygon fill="midnightblue" stroke="midnightblue" points="482.86,-215 492.86,-211.5 482.86,-208 482.86,-215"/>
</g>
<!-- Node22&#45;&gt;Node9 -->
<g id="edge24" class="edge">
<title>Node22&#45;&gt;Node9</title>
<path fill="none" stroke="midnightblue" d="M406.68,-547.95C414.64,-545.39 422.75,-542.27 430,-538.5 462.3,-521.73 494.31,-494.54 514.78,-475.43"/>
<polygon fill="midnightblue" stroke="midnightblue" points="517.19,-477.97 522.04,-468.55 512.37,-472.89 517.19,-477.97"/>
</g>
</g>
</svg>
        <g id="navigator" transform="translate(0 0)" fill="#404254">
                <rect fill="#f2f5e9" fill-opacity="0.5" stroke="#606060" stroke-width=".5" x="0" y="0" width="60" height="60"/>
                <use id="zoomplus" xlink:href="#zoomPlus" x="17" y="9" onmousedown="handleZoom(evt,'in')"/>
                <use id="zoomminus" xlink:href="#zoomMin" x="42" y="9" onmousedown="handleZoom(evt,'out')"/>
                <use id="reset" xlink:href="#resetDef" x="30" y="36" onmousedown="handleReset()"/>
                <g id="arrowUp" xlink:href="#dirArrow" transform="translate(30 24)" onmousedown="handlePan(0,-1)">
                  <use xlink:href="#rim" fill="#404040">
                        <set attributeName="fill" to="#808080" begin="arrowUp.mouseover" end="arrowUp.mouseout"/>
                  </use>
                  <path fill="none" stroke="white" stroke-width="1.5" d="M0,-3.0v7 M-2.5,-0.5L0,-3.0L2.5,-0.5"/>
                </g>
                <g id="arrowRight" xlink:href="#dirArrow" transform="rotate(90) translate(36 -43)" onmousedown="handlePan(1,0)">
                  <use xlink:href="#rim" fill="#404040">
                        <set attributeName="fill" to="#808080" begin="arrowRight.mouseover" end="arrowRight.mouseout"/>
                  </use>
                  <path fill="none" stroke="white" stroke-width="1.5" d="M0,-3.0v7 M-2.5,-0.5L0,-3.0L2.5,-0.5"/>
                </g>
                <g id="arrowDown" xlink:href="#dirArrow" transform="rotate(180) translate(-30 -48)" onmousedown="handlePan(0,1)">
                  <use xlink:href="#rim" fill="#404040">
                        <set attributeName="fill" to="#808080" begin="arrowDown.mouseover" end="arrowDown.mouseout"/>
                  </use>
                  <path fill="none" stroke="white" stroke-width="1.5" d="M0,-3.0v7 M-2.5,-0.5L0,-3.0L2.5,-0.5"/>
                </g>
                <g id="arrowLeft" xlink:href="#dirArrow" transform="rotate(270) translate(-36 17)" onmousedown="handlePan(-1,0)">
                  <use xlink:href="#rim" fill="#404040">
                        <set attributeName="fill" to="#808080" begin="arrowLeft.mouseover" end="arrowLeft.mouseout"/>
                  </use>
                  <path fill="none" stroke="white" stroke-width="1.5" d="M0,-3.0v7 M-2.5,-0.5L0,-3.0L2.5,-0.5"/>
                </g>
        </g>
        <svg viewBox="0 0 15 15" width="100%" height="30px" preserveAspectRatio="xMaxYMin meet">
         <g id="arrow_out" transform="scale(0.3 0.3)">
          <a xlink:href="classft_1_1irc_1_1bot__handler_a0723185e483ae21fa0f2116ca05165fe_cgraph_org.svg" target="_base">
           <rect id="button" ry="5" rx="5" y="6" x="6" height="38" width="38"
                fill="#f2f5e9" fill-opacity="0.5" stroke="#606060" stroke-width="1.0"/>
           <path id="arrow"
             d="M 11.500037,31.436501 C 11.940474,20.09759 22.043105,11.32322 32.158766,21.979434 L 37.068811,17.246167 C 37.068811,17.246167 37.088388,32 37.088388,32 L 22.160133,31.978069 C 22.160133,31.978069 26.997745,27.140456 26.997745,27.140456 C 18.528582,18.264221 13.291696,25.230495 11.500037,31.436501 z"
             style="fill:#404040;"/>
          </a>
         </g>
        </svg>
</svg>
