<?xml version="1.0" encoding="UTF-8" standalone="no"?>
<!DOCTYPE svg PUBLIC "-//W3C//DTD SVG 1.1//EN"
 "http://www.w3.org/Graphics/SVG/1.1/DTD/svg11.dtd">
<!-- Generated by graphviz version 2.43.0 (0)
 -->
<!-- Title: ft::irc::bot::on_part Pages: 1 -->
<!--zoomable 225 -->
<svg id="main" version="1.1" xmlns="http://www.w3.org/2000/svg" xmlns:xlink="http://www.w3.org/1999/xlink" xml:space="preserve" onload="init(evt)">
<style type="text/css"><![CDATA[
.edge:hover path { stroke: red; }
.edge:hover polygon { stroke: red; fill: red; }
]]></style>
<script type="text/javascript"><![CDATA[
var edges = document.getElementsByTagName('g');
if (edges && edges.length) {
  for (var i=0;i<edges.length;i++) {
    if (edges[i].id.substr(0,4)=='edge') {
      edges[i].setAttribute('class','edge');
    }
  }
}
]]></script>
        <defs>
                <circle id="rim" cx="0" cy="0" r="7"/>
                <circle id="rim2" cx="0" cy="0" r="3.5"/>
                <g id="zoomPlus">
                        <use xlink:href="#rim" fill="#404040">
                                <set attributeName="fill" to="#808080" begin="zoomplus.mouseover" end="zoomplus.mouseout"/>
                        </use>
                        <path d="M-4,0h8M0,-4v8" fill="none" stroke="white" stroke-width="1.5" pointer-events="none"/>
                </g>
                <g id="zoomMin">
                        <use xlink:href="#rim" fill="#404040">
                                <set attributeName="fill" to="#808080" begin="zoomminus.mouseover" end="zoomminus.mouseout"/>
                        </use>
                        <path d="M-4,0h8" fill="none" stroke="white" stroke-width="1.5" pointer-events="none"/>
                </g>
                <g id="dirArrow">
                        <path fill="none" stroke="white" stroke-width="1.5" d="M0,-3.0v7 M-2.5,-0.5L0,-3.0L2.5,-0.5"/>
                </g>
               <g id="resetDef">
                       <use xlink:href="#rim2" fill="#404040">
                               <set attributeName="fill" to="#808080" begin="reset.mouseover" end="reset.mouseout"/>
                       </use>
               </g>
        </defs>

<script type="text/javascript">
var viewWidth = 682;
var viewHeight = 225;
var sectionId = 'dynsection-30';
</script>
<script xlink:href="svgpan.js"/>
<svg id="graph" class="graph">
<g id="viewport">
<title>ft::irc::bot::on_part</title>
<polygon fill="white" stroke="transparent" points="-4,4 -4,-221 678,-221 678,4 -4,4"/>
<!-- Node1 -->
<g id="node1" class="node">
<title>Node1</title>
<g id="a_node1"><a xlink:title=" ">
<polygon fill="#bfbfbf" stroke="black" points="0,-104 0,-123 106,-123 106,-104 0,-104"/>
<text text-anchor="middle" x="53" y="-111" font-family="Helvetica,sans-Serif" font-size="10.00">ft::irc::bot::on_part</text>
</a>
</g>
</g>
<!-- Node2 -->
<g id="node2" class="node">
<title>Node2</title>
<g id="a_node2"><a xlink:href="classft_1_1irc_1_1message.html#a254aec48aa7b7872331cd5644d9e918c" target="_top" xlink:title=" ">
<polygon fill="white" stroke="black" points="142,-186.5 142,-216.5 255,-216.5 255,-186.5 142,-186.5"/>
<text text-anchor="start" x="150" y="-204.5" font-family="Helvetica,sans-Serif" font-size="10.00">ft::irc::message::get</text>
<text text-anchor="middle" x="198.5" y="-193.5" font-family="Helvetica,sans-Serif" font-size="10.00">_prefix</text>
</a>
</g>
</g>
<!-- Node1&#45;&gt;Node2 -->
<g id="edge1" class="edge">
<title>Node1&#45;&gt;Node2</title>
<path fill="none" stroke="midnightblue" d="M65.73,-123.06C82.14,-136.14 113.18,-159.91 142,-176.5 145.21,-178.35 148.58,-180.16 152.01,-181.91"/>
<polygon fill="midnightblue" stroke="midnightblue" points="150.63,-185.13 161.15,-186.38 153.71,-178.84 150.63,-185.13"/>
</g>
<!-- Node3 -->
<g id="node3" class="node">
<title>Node3</title>
<g id="a_node3"><a xlink:href="classft_1_1irc_1_1bot.html#aa5023ae6a16be90f32f2d9188dd44af3" target="_top" xlink:title=" ">
<polygon fill="white" stroke="black" points="142,-148 142,-167 255,-167 255,-148 142,-148"/>
<text text-anchor="middle" x="198.5" y="-155" font-family="Helvetica,sans-Serif" font-size="10.00">ft::irc::bot::is_owner</text>
</a>
</g>
</g>
<!-- Node1&#45;&gt;Node3 -->
<g id="edge2" class="edge">
<title>Node1&#45;&gt;Node3</title>
<path fill="none" stroke="midnightblue" d="M85.14,-123.05C106.1,-129.48 133.97,-138.02 156.71,-144.99"/>
<polygon fill="midnightblue" stroke="midnightblue" points="155.84,-148.39 166.42,-147.97 157.89,-141.69 155.84,-148.39"/>
</g>
<!-- Node8 -->
<g id="node8" class="node">
<title>Node8</title>
<g id="a_node8"><a xlink:href="classft_1_1irc_1_1bot.html#a44a61e7ca9d9af3bf9d2e2dd484b2c29" target="_top" xlink:title=" ">
<polygon fill="white" stroke="black" points="150.5,-98.5 150.5,-128.5 246.5,-128.5 246.5,-98.5 150.5,-98.5"/>
<text text-anchor="start" x="158.5" y="-116.5" font-family="Helvetica,sans-Serif" font-size="10.00">ft::irc::bot::leave</text>
<text text-anchor="middle" x="198.5" y="-105.5" font-family="Helvetica,sans-Serif" font-size="10.00">_channel</text>
</a>
</g>
</g>
<!-- Node1&#45;&gt;Node8 -->
<g id="edge7" class="edge">
<title>Node1&#45;&gt;Node8</title>
<path fill="none" stroke="midnightblue" d="M106.21,-113.5C117.26,-113.5 128.97,-113.5 140.19,-113.5"/>
<polygon fill="midnightblue" stroke="midnightblue" points="140.32,-117 150.32,-113.5 140.32,-110 140.32,-117"/>
</g>
<!-- Node9 -->
<g id="node9" class="node">
<title>Node9</title>
<g id="a_node9"><a xlink:href="structft_1_1irc_1_1string__utils.html#ac1e75b32f508ffe5a1a1875d1e1cd2ea" target="_top" xlink:title=" ">
<polygon fill="white" stroke="black" points="148,-49.5 148,-79.5 249,-79.5 249,-49.5 148,-49.5"/>
<text text-anchor="start" x="156" y="-67.5" font-family="Helvetica,sans-Serif" font-size="10.00">ft::irc::string_utils</text>
<text text-anchor="middle" x="198.5" y="-56.5" font-family="Helvetica,sans-Serif" font-size="10.00">::pick_nick</text>
</a>
</g>
</g>
<!-- Node1&#45;&gt;Node9 -->
<g id="edge8" class="edge">
<title>Node1&#45;&gt;Node9</title>
<path fill="none" stroke="midnightblue" d="M82.01,-103.94C99.62,-97.92 122.92,-89.97 143.98,-82.78"/>
<polygon fill="midnightblue" stroke="midnightblue" points="145.13,-86.08 153.46,-79.54 142.87,-79.46 145.13,-86.08"/>
</g>
<!-- Node10 -->
<g id="node10" class="node">
<title>Node10</title>
<g id="a_node10"><a xlink:href="classft_1_1irc_1_1bot.html#a970f653872cc4a26d1fd9729552cd9b1" target="_top" xlink:title=" ">
<polygon fill="white" stroke="black" points="152.5,-0.5 152.5,-30.5 244.5,-30.5 244.5,-0.5 152.5,-0.5"/>
<text text-anchor="start" x="160.5" y="-18.5" font-family="Helvetica,sans-Serif" font-size="10.00">ft::irc::bot::send</text>
<text text-anchor="middle" x="198.5" y="-7.5" font-family="Helvetica,sans-Serif" font-size="10.00">_packet</text>
</a>
</g>
</g>
<!-- Node1&#45;&gt;Node10 -->
<g id="edge9" class="edge">
<title>Node1&#45;&gt;Node10</title>
<path fill="none" stroke="midnightblue" d="M63.55,-103.82C78.97,-88.59 110.76,-58.81 142,-39.5 144.43,-38 146.97,-36.55 149.56,-35.15"/>
<polygon fill="midnightblue" stroke="midnightblue" points="151.2,-38.24 158.55,-30.62 148.05,-31.99 151.2,-38.24"/>
</g>
<!-- Node4 -->
<g id="node4" class="node">
<title>Node4</title>
<g id="a_node4"><a xlink:href="classft_1_1irc_1_1bot.html#a15a5cfd31f2138b9e38e5ae0db055f0b" target="_top" xlink:title=" ">
<polygon fill="white" stroke="black" points="291,-170 291,-189 411,-189 411,-170 291,-170"/>
<text text-anchor="middle" x="351" y="-177" font-family="Helvetica,sans-Serif" font-size="10.00">ft::irc::bot::get_owner</text>
</a>
</g>
</g>
<!-- Node3&#45;&gt;Node4 -->
<g id="edge3" class="edge">
<title>Node3&#45;&gt;Node4</title>
<path fill="none" stroke="midnightblue" d="M255.11,-165.63C263.48,-166.85 272.19,-168.13 280.8,-169.38"/>
<polygon fill="midnightblue" stroke="midnightblue" points="280.43,-172.87 290.83,-170.85 281.44,-165.94 280.43,-172.87"/>
</g>
<!-- Node5 -->
<g id="node5" class="node">
<title>Node5</title>
<g id="a_node5"><a xlink:href="structft_1_1irc_1_1string__utils.html#abd73422cb93e7f7f26cfd59a221933a2" target="_top" xlink:title=" ">
<polygon fill="white" stroke="black" points="300.5,-120.5 300.5,-150.5 401.5,-150.5 401.5,-120.5 300.5,-120.5"/>
<text text-anchor="start" x="308.5" y="-138.5" font-family="Helvetica,sans-Serif" font-size="10.00">ft::irc::string_utils</text>
<text text-anchor="middle" x="351" y="-127.5" font-family="Helvetica,sans-Serif" font-size="10.00">::is_same</text>
</a>
</g>
</g>
<!-- Node3&#45;&gt;Node5 -->
<g id="edge4" class="edge">
<title>Node3&#45;&gt;Node5</title>
<path fill="none" stroke="midnightblue" d="M255.11,-149.37C266.51,-147.7 278.56,-145.94 290.1,-144.26"/>
<polygon fill="midnightblue" stroke="midnightblue" points="290.69,-147.71 300.08,-142.8 289.68,-140.78 290.69,-147.71"/>
</g>
<!-- Node6 -->
<g id="node6" class="node">
<title>Node6</title>
<g id="a_node6"><a xlink:href="structft_1_1irc_1_1string__utils.html#a367a22012cc0d2d25959ac3f4e5d33a9" target="_top" xlink:title=" ">
<polygon fill="white" stroke="black" points="447,-120.5 447,-150.5 548,-150.5 548,-120.5 447,-120.5"/>
<text text-anchor="start" x="455" y="-138.5" font-family="Helvetica,sans-Serif" font-size="10.00">ft::irc::string_utils</text>
<text text-anchor="middle" x="497.5" y="-127.5" font-family="Helvetica,sans-Serif" font-size="10.00">::to_lower</text>
</a>
</g>
</g>
<!-- Node5&#45;&gt;Node6 -->
<g id="edge5" class="edge">
<title>Node5&#45;&gt;Node6</title>
<path fill="none" stroke="midnightblue" d="M401.73,-135.5C412.97,-135.5 425.02,-135.5 436.62,-135.5"/>
<polygon fill="midnightblue" stroke="midnightblue" points="436.68,-139 446.68,-135.5 436.68,-132 436.68,-139"/>
</g>
<!-- Node7 -->
<g id="node7" class="node">
<title>Node7</title>
<g id="a_node7"><a xlink:href="namespaceft_1_1irc_1_1__internal.html#aa76c3a369f64725f8b2b52b2131c1111" target="_top" xlink:title=" ">
<polygon fill="white" stroke="black" points="584,-120.5 584,-150.5 674,-150.5 674,-120.5 584,-120.5"/>
<text text-anchor="start" x="592" y="-138.5" font-family="Helvetica,sans-Serif" font-size="10.00">ft::irc::_internal</text>
<text text-anchor="middle" x="629" y="-127.5" font-family="Helvetica,sans-Serif" font-size="10.00">::_to_lower</text>
</a>
</g>
</g>
<!-- Node6&#45;&gt;Node7 -->
<g id="edge6" class="edge">
<title>Node6&#45;&gt;Node7</title>
<path fill="none" stroke="midnightblue" d="M548.2,-135.5C556.51,-135.5 565.18,-135.5 573.61,-135.5"/>
<polygon fill="midnightblue" stroke="midnightblue" points="573.73,-139 583.73,-135.5 573.73,-132 573.73,-139"/>
</g>
<!-- Node11 -->
<g id="node11" class="node">
<title>Node11</title>
<g id="a_node11"><a xlink:href="classft_1_1serv_1_1event__layer.html#a854a0764bd67adfc716ec4237cd52672" target="_top" xlink:title=" ">
<polygon fill="white" stroke="black" points="294.5,-49.5 294.5,-79.5 407.5,-79.5 407.5,-49.5 294.5,-49.5"/>
<text text-anchor="start" x="302.5" y="-67.5" font-family="Helvetica,sans-Serif" font-size="10.00">ft::serv::event_layer</text>
<text text-anchor="middle" x="351" y="-56.5" font-family="Helvetica,sans-Serif" font-size="10.00">::post_flush</text>
</a>
</g>
</g>
<!-- Node10&#45;&gt;Node11 -->
<g id="edge10" class="edge">
<title>Node10&#45;&gt;Node11</title>
<path fill="none" stroke="midnightblue" d="M244.65,-30.2C260.14,-35.24 277.67,-40.95 293.91,-46.24"/>
<polygon fill="midnightblue" stroke="midnightblue" points="293.24,-49.7 303.84,-49.47 295.41,-43.05 293.24,-49.7"/>
</g>
<!-- Node12 -->
<g id="node12" class="node">
<title>Node12</title>
<g id="a_node12"><a xlink:href="classft_1_1serv_1_1event__layer.html#add4946138f5f8a5870d52c44ca435aab" target="_top" xlink:title=" ">
<polygon fill="white" stroke="black" points="294.5,-0.5 294.5,-30.5 407.5,-30.5 407.5,-0.5 294.5,-0.5"/>
<text text-anchor="start" x="302.5" y="-18.5" font-family="Helvetica,sans-Serif" font-size="10.00">ft::serv::event_layer</text>
<text text-anchor="middle" x="351" y="-7.5" font-family="Helvetica,sans-Serif" font-size="10.00">::post_write</text>
</a>
</g>
</g>
<!-- Node10&#45;&gt;Node12 -->
<g id="edge11" class="edge">
<title>Node10&#45;&gt;Node12</title>
<path fill="none" stroke="midnightblue" d="M244.65,-15.5C257.14,-15.5 270.96,-15.5 284.35,-15.5"/>
<polygon fill="midnightblue" stroke="midnightblue" points="284.49,-19 294.49,-15.5 284.49,-12 284.49,-19"/>
</g>
</g>
</svg>
        <g id="navigator" transform="translate(0 0)" fill="#404254">
                <rect fill="#f2f5e9" fill-opacity="0.5" stroke="#606060" stroke-width=".5" x="0" y="0" width="60" height="60"/>
                <use id="zoomplus" xlink:href="#zoomPlus" x="17" y="9" onmousedown="handleZoom(evt,'in')"/>
                <use id="zoomminus" xlink:href="#zoomMin" x="42" y="9" onmousedown="handleZoom(evt,'out')"/>
                <use id="reset" xlink:href="#resetDef" x="30" y="36" onmousedown="handleReset()"/>
                <g id="arrowUp" xlink:href="#dirArrow" transform="translate(30 24)" onmousedown="handlePan(0,-1)">
                  <use xlink:href="#rim" fill="#404040">
                        <set attributeName="fill" to="#808080" begin="arrowUp.mouseover" end="arrowUp.mouseout"/>
                  </use>
                  <path fill="none" stroke="white" stroke-width="1.5" d="M0,-3.0v7 M-2.5,-0.5L0,-3.0L2.5,-0.5"/>
                </g>
                <g id="arrowRight" xlink:href="#dirArrow" transform="rotate(90) translate(36 -43)" onmousedown="handlePan(1,0)">
                  <use xlink:href="#rim" fill="#404040">
                        <set attributeName="fill" to="#808080" begin="arrowRight.mouseover" end="arrowRight.mouseout"/>
                  </use>
                  <path fill="none" stroke="white" stroke-width="1.5" d="M0,-3.0v7 M-2.5,-0.5L0,-3.0L2.5,-0.5"/>
                </g>
                <g id="arrowDown" xlink:href="#dirArrow" transform="rotate(180) translate(-30 -48)" onmousedown="handlePan(0,1)">
                  <use xlink:href="#rim" fill="#404040">
                        <set attributeName="fill" to="#808080" begin="arrowDown.mouseover" end="arrowDown.mouseout"/>
                  </use>
                  <path fill="none" stroke="white" stroke-width="1.5" d="M0,-3.0v7 M-2.5,-0.5L0,-3.0L2.5,-0.5"/>
                </g>
                <g id="arrowLeft" xlink:href="#dirArrow" transform="rotate(270) translate(-36 17)" onmousedown="handlePan(-1,0)">
                  <use xlink:href="#rim" fill="#404040">
                        <set attributeName="fill" to="#808080" begin="arrowLeft.mouseover" end="arrowLeft.mouseout"/>
                  </use>
                  <path fill="none" stroke="white" stroke-width="1.5" d="M0,-3.0v7 M-2.5,-0.5L0,-3.0L2.5,-0.5"/>
                </g>
        </g>
        <svg viewBox="0 0 15 15" width="100%" height="30px" preserveAspectRatio="xMaxYMin meet">
         <g id="arrow_out" transform="scale(0.3 0.3)">
          <a xlink:href="classft_1_1irc_1_1bot_adb61ddab4c1cb4fc70bec293666bed90_cgraph_org.svg" target="_base">
           <rect id="button" ry="5" rx="5" y="6" x="6" height="38" width="38"
                fill="#f2f5e9" fill-opacity="0.5" stroke="#606060" stroke-width="1.0"/>
           <path id="arrow"
             d="M 11.500037,31.436501 C 11.940474,20.09759 22.043105,11.32322 32.158766,21.979434 L 37.068811,17.246167 C 37.068811,17.246167 37.088388,32 37.088388,32 L 22.160133,31.978069 C 22.160133,31.978069 26.997745,27.140456 26.997745,27.140456 C 18.528582,18.264221 13.291696,25.230495 11.500037,31.436501 z"
             style="fill:#404040;"/>
          </a>
         </g>
        </svg>
</svg>
