<?xml version="1.0" encoding="UTF-8" standalone="no"?>
<!DOCTYPE svg PUBLIC "-//W3C//DTD SVG 1.1//EN"
 "http://www.w3.org/Graphics/SVG/1.1/DTD/svg11.dtd">
<!-- Generated by graphviz version 2.43.0 (0)
 -->
<!-- Title: ft::irc::bot::get_nick Pages: 1 -->
<svg width="414pt" height="88pt"
 viewBox="0.00 0.00 414.00 88.00" xmlns="http://www.w3.org/2000/svg" xmlns:xlink="http://www.w3.org/1999/xlink">
<g id="graph0" class="graph" transform="scale(1 1) rotate(0) translate(4 84)">
<title>ft::irc::bot::get_nick</title>
<polygon fill="white" stroke="transparent" points="-4,4 -4,-84 410,-84 410,4 -4,4"/>
<!-- Node1 -->
<g id="node1" class="node">
<title>Node1</title>
<g id="a_node1"><a xlink:title=" ">
<polygon fill="#bfbfbf" stroke="black" points="296,-30 296,-49 406,-49 406,-30 296,-30"/>
<text text-anchor="middle" x="351" y="-37" font-family="Helvetica,sans-Serif" font-size="10.00">ft::irc::bot::get_nick</text>
</a>
</g>
</g>
<!-- Node2 -->
<g id="node2" class="node">
<title>Node2</title>
<g id="a_node2"><a xlink:href="classft_1_1irc_1_1bot.html#a0b595213781ed0e5aaf1d48fdb602d98" target="_top" xlink:title=" ">
<polygon fill="white" stroke="black" points="141,-52 141,-71 260,-71 260,-52 141,-52"/>
<text text-anchor="middle" x="200.5" y="-59" font-family="Helvetica,sans-Serif" font-size="10.00">ft::irc::bot::on_packet</text>
</a>
</g>
</g>
<!-- Node1&#45;&gt;Node2 -->
<g id="edge1" class="edge">
<title>Node1&#45;&gt;Node2</title>
<path fill="none" stroke="midnightblue" d="M285.96,-48.99C277.33,-50.27 268.52,-51.57 260,-52.83"/>
<polygon fill="midnightblue" stroke="midnightblue" points="286.59,-52.43 295.97,-47.5 285.56,-45.51 286.59,-52.43"/>
</g>
<!-- Node4 -->
<g id="node4" class="node">
<title>Node4</title>
<g id="a_node4"><a xlink:href="classft_1_1irc_1_1bot.html#ad4c2de451c251f239abbde2678a603c8" target="_top" xlink:title=" ">
<polygon fill="white" stroke="black" points="141,-11 141,-30 260,-30 260,-11 141,-11"/>
<text text-anchor="middle" x="200.5" y="-18" font-family="Helvetica,sans-Serif" font-size="10.00">ft::irc::bot::send_auth</text>
</a>
</g>
</g>
<!-- Node1&#45;&gt;Node4 -->
<g id="edge3" class="edge">
<title>Node1&#45;&gt;Node4</title>
<path fill="none" stroke="midnightblue" d="M285.96,-31.31C277.33,-30.2 268.52,-29.08 260,-27.99"/>
<polygon fill="midnightblue" stroke="midnightblue" points="285.6,-34.79 295.97,-32.59 286.49,-27.85 285.6,-34.79"/>
</g>
<!-- Node3 -->
<g id="node3" class="node">
<title>Node3</title>
<g id="a_node3"><a xlink:href="classft_1_1irc_1_1bot__handler.html#a0723185e483ae21fa0f2116ca05165fe" target="_top" xlink:title=" ">
<polygon fill="white" stroke="black" points="0,-49.5 0,-79.5 105,-79.5 105,-49.5 0,-49.5"/>
<text text-anchor="start" x="8" y="-67.5" font-family="Helvetica,sans-Serif" font-size="10.00">ft::irc::bot_handler</text>
<text text-anchor="middle" x="52.5" y="-56.5" font-family="Helvetica,sans-Serif" font-size="10.00">::on_read</text>
</a>
</g>
</g>
<!-- Node2&#45;&gt;Node3 -->
<g id="edge2" class="edge">
<title>Node2&#45;&gt;Node3</title>
<path fill="none" stroke="midnightblue" d="M130.96,-62.91C122.38,-63.08 113.72,-63.26 105.46,-63.43"/>
<polygon fill="midnightblue" stroke="midnightblue" points="131.03,-66.41 140.96,-62.7 130.89,-59.41 131.03,-66.41"/>
</g>
<!-- Node5 -->
<g id="node5" class="node">
<title>Node5</title>
<g id="a_node5"><a xlink:href="classft_1_1irc_1_1bot__handler.html#a4f6f0c2ea6bf628048019d6793978658" target="_top" xlink:title=" ">
<polygon fill="white" stroke="black" points="0,-0.5 0,-30.5 105,-30.5 105,-0.5 0,-0.5"/>
<text text-anchor="start" x="8" y="-18.5" font-family="Helvetica,sans-Serif" font-size="10.00">ft::irc::bot_handler</text>
<text text-anchor="middle" x="52.5" y="-7.5" font-family="Helvetica,sans-Serif" font-size="10.00">::on_active</text>
</a>
</g>
</g>
<!-- Node4&#45;&gt;Node5 -->
<g id="edge4" class="edge">
<title>Node4&#45;&gt;Node5</title>
<path fill="none" stroke="midnightblue" d="M130.96,-18.15C122.38,-17.86 113.72,-17.56 105.46,-17.28"/>
<polygon fill="midnightblue" stroke="midnightblue" points="130.84,-21.65 140.96,-18.5 131.08,-14.65 130.84,-21.65"/>
</g>
</g>
</svg>
