<?xml version="1.0" encoding="UTF-8" standalone="no"?>
<!DOCTYPE svg PUBLIC "-//W3C//DTD SVG 1.1//EN"
 "http://www.w3.org/Graphics/SVG/1.1/DTD/svg11.dtd">
<!-- Generated by graphviz version 2.43.0 (0)
 -->
<!-- Title: ft::irc::user::change_nick Pages: 1 -->
<svg width="588pt" height="154pt"
 viewBox="0.00 0.00 588.00 153.50" xmlns="http://www.w3.org/2000/svg" xmlns:xlink="http://www.w3.org/1999/xlink">
<g id="graph0" class="graph" transform="scale(1 1) rotate(0) translate(4 149.5)">
<title>ft::irc::user::change_nick</title>
<polygon fill="white" stroke="transparent" points="-4,4 -4,-149.5 584,-149.5 584,4 -4,4"/>
<!-- Node1 -->
<g id="node1" class="node">
<title>Node1</title>
<g id="a_node1"><a xlink:title=" ">
<polygon fill="#bfbfbf" stroke="black" points="0,-69 0,-88 135,-88 135,-69 0,-69"/>
<text text-anchor="middle" x="67.5" y="-76" font-family="Helvetica,sans-Serif" font-size="10.00">ft::irc::user::change_nick</text>
</a>
</g>
</g>
<!-- Node2 -->
<g id="node2" class="node">
<title>Node2</title>
<g id="a_node2"><a xlink:href="classft_1_1irc_1_1server.html#ab534369c5d538fbf60852889a7d8127b" target="_top" xlink:title=" ">
<polygon fill="white" stroke="black" points="178.5,-126 178.5,-145 309.5,-145 309.5,-126 178.5,-126"/>
<text text-anchor="middle" x="244" y="-133" font-family="Helvetica,sans-Serif" font-size="10.00">ft::irc::server::hold_nick</text>
</a>
</g>
</g>
<!-- Node1&#45;&gt;Node2 -->
<g id="edge1" class="edge">
<title>Node1&#45;&gt;Node2</title>
<path fill="none" stroke="midnightblue" d="M97.71,-88.04C126.9,-97.58 171.96,-112.29 204.15,-122.81"/>
<polygon fill="midnightblue" stroke="midnightblue" points="203.1,-126.15 213.7,-125.93 205.28,-119.5 203.1,-126.15"/>
</g>
<!-- Node3 -->
<g id="node3" class="node">
<title>Node3</title>
<g id="a_node3"><a xlink:href="structft_1_1irc_1_1string__utils.html#a367a22012cc0d2d25959ac3f4e5d33a9" target="_top" xlink:title=" ">
<polygon fill="white" stroke="black" points="353,-82.5 353,-112.5 454,-112.5 454,-82.5 353,-82.5"/>
<text text-anchor="start" x="361" y="-100.5" font-family="Helvetica,sans-Serif" font-size="10.00">ft::irc::string_utils</text>
<text text-anchor="middle" x="403.5" y="-89.5" font-family="Helvetica,sans-Serif" font-size="10.00">::to_lower</text>
</a>
</g>
</g>
<!-- Node1&#45;&gt;Node3 -->
<g id="edge7" class="edge">
<title>Node1&#45;&gt;Node3</title>
<path fill="none" stroke="midnightblue" d="M135.29,-82.3C195.9,-85.75 284.46,-90.78 342.77,-94.1"/>
<polygon fill="midnightblue" stroke="midnightblue" points="342.75,-97.61 352.93,-94.68 343.14,-90.62 342.75,-97.61"/>
</g>
<!-- Node5 -->
<g id="node5" class="node">
<title>Node5</title>
<g id="a_node5"><a xlink:href="classft_1_1irc_1_1server.html#a2f4c8826af7867f18ed67c1b9dabf65f" target="_top" xlink:title=" ">
<polygon fill="white" stroke="black" points="171,-50 171,-69 317,-69 317,-50 171,-50"/>
<text text-anchor="middle" x="244" y="-57" font-family="Helvetica,sans-Serif" font-size="10.00">ft::irc::server::release_nick</text>
</a>
</g>
</g>
<!-- Node1&#45;&gt;Node5 -->
<g id="edge4" class="edge">
<title>Node1&#45;&gt;Node5</title>
<path fill="none" stroke="midnightblue" d="M135.47,-71.21C143.83,-70.3 152.45,-69.36 161,-68.43"/>
<polygon fill="midnightblue" stroke="midnightblue" points="161.43,-71.9 170.99,-67.34 160.67,-64.94 161.43,-71.9"/>
</g>
<!-- Node6 -->
<g id="node6" class="node">
<title>Node6</title>
<g id="a_node6"><a xlink:href="structft_1_1irc_1_1make__reply__base.html#a05d12bbf99ce4c8fde3cbb731135ff26" target="_top" xlink:title=" ">
<polygon fill="white" stroke="black" points="185,-0.5 185,-30.5 303,-30.5 303,-0.5 185,-0.5"/>
<text text-anchor="start" x="193" y="-18.5" font-family="Helvetica,sans-Serif" font-size="10.00">ft::irc::make_reply</text>
<text text-anchor="middle" x="244" y="-7.5" font-family="Helvetica,sans-Serif" font-size="10.00">_base::set_user_nick</text>
</a>
</g>
</g>
<!-- Node1&#45;&gt;Node6 -->
<g id="edge6" class="edge">
<title>Node1&#45;&gt;Node6</title>
<path fill="none" stroke="midnightblue" d="M93.72,-68.98C114.44,-61.21 144.56,-49.99 171,-40.5 176.97,-38.36 183.22,-36.14 189.45,-33.96"/>
<polygon fill="midnightblue" stroke="midnightblue" points="190.88,-37.16 199.16,-30.56 188.57,-30.56 190.88,-37.16"/>
</g>
<!-- Node2&#45;&gt;Node3 -->
<g id="edge2" class="edge">
<title>Node2&#45;&gt;Node3</title>
<path fill="none" stroke="midnightblue" d="M284.74,-125.91C302.36,-121.66 323.46,-116.57 342.9,-111.88"/>
<polygon fill="midnightblue" stroke="midnightblue" points="343.99,-115.22 352.89,-109.47 342.35,-108.41 343.99,-115.22"/>
</g>
<!-- Node4 -->
<g id="node4" class="node">
<title>Node4</title>
<g id="a_node4"><a xlink:href="namespaceft_1_1irc_1_1__internal.html#aa76c3a369f64725f8b2b52b2131c1111" target="_top" xlink:title=" ">
<polygon fill="white" stroke="black" points="490,-82.5 490,-112.5 580,-112.5 580,-82.5 490,-82.5"/>
<text text-anchor="start" x="498" y="-100.5" font-family="Helvetica,sans-Serif" font-size="10.00">ft::irc::_internal</text>
<text text-anchor="middle" x="535" y="-89.5" font-family="Helvetica,sans-Serif" font-size="10.00">::_to_lower</text>
</a>
</g>
</g>
<!-- Node3&#45;&gt;Node4 -->
<g id="edge3" class="edge">
<title>Node3&#45;&gt;Node4</title>
<path fill="none" stroke="midnightblue" d="M454.2,-97.5C462.51,-97.5 471.18,-97.5 479.61,-97.5"/>
<polygon fill="midnightblue" stroke="midnightblue" points="479.73,-101 489.73,-97.5 479.73,-94 479.73,-101"/>
</g>
<!-- Node5&#45;&gt;Node3 -->
<g id="edge5" class="edge">
<title>Node5&#45;&gt;Node3</title>
<path fill="none" stroke="midnightblue" d="M284.74,-69.09C302.36,-73.34 323.46,-78.43 342.9,-83.12"/>
<polygon fill="midnightblue" stroke="midnightblue" points="342.35,-86.59 352.89,-85.53 343.99,-79.78 342.35,-86.59"/>
</g>
</g>
</svg>
