<?xml version="1.0" encoding="UTF-8" standalone="no"?>
<!DOCTYPE svg PUBLIC "-//W3C//DTD SVG 1.1//EN"
 "http://www.w3.org/Graphics/SVG/1.1/DTD/svg11.dtd">
<!-- Generated by graphviz version 2.43.0 (0)
 -->
<!-- Title: ft::irc::processor_list::execute Pages: 1 -->
<svg width="597pt" height="263pt"
 viewBox="0.00 0.00 597.00 263.00" xmlns="http://www.w3.org/2000/svg" xmlns:xlink="http://www.w3.org/1999/xlink">
<g id="graph0" class="graph" transform="scale(1 1) rotate(0) translate(4 259)">
<title>ft::irc::processor_list::execute</title>
<polygon fill="white" stroke="transparent" points="-4,4 -4,-259 593,-259 593,4 -4,4"/>
<!-- Node1 -->
<g id="node1" class="node">
<title>Node1</title>
<g id="a_node1"><a xlink:title=" ">
<polygon fill="#bfbfbf" stroke="black" points="0,-131.5 0,-161.5 95,-161.5 95,-131.5 0,-131.5"/>
<text text-anchor="start" x="8" y="-149.5" font-family="Helvetica,sans-Serif" font-size="10.00">ft::irc::processor</text>
<text text-anchor="middle" x="47.5" y="-138.5" font-family="Helvetica,sans-Serif" font-size="10.00">_list::execute</text>
</a>
</g>
</g>
<!-- Node2 -->
<g id="node2" class="node">
<title>Node2</title>
<g id="a_node2"><a xlink:href="classft_1_1irc_1_1user.html#ae7ad74d915c3414aa58fd2fc92791539" target="_top" xlink:title=" ">
<polygon fill="white" stroke="black" points="151.5,-224.5 151.5,-254.5 264.5,-254.5 264.5,-224.5 151.5,-224.5"/>
<text text-anchor="start" x="159.5" y="-242.5" font-family="Helvetica,sans-Serif" font-size="10.00">ft::irc::user::channel</text>
<text text-anchor="middle" x="208" y="-231.5" font-family="Helvetica,sans-Serif" font-size="10.00">_names_snapshot</text>
</a>
</g>
</g>
<!-- Node1&#45;&gt;Node2 -->
<g id="edge1" class="edge">
<title>Node1&#45;&gt;Node2</title>
<path fill="none" stroke="midnightblue" d="M62.97,-161.7C78.48,-177.2 104.47,-200.97 131,-215.5 134.45,-217.39 138.07,-219.16 141.79,-220.8"/>
<polygon fill="midnightblue" stroke="midnightblue" points="140.57,-224.09 151.15,-224.65 143.24,-217.62 140.57,-224.09"/>
</g>
<!-- Node3 -->
<g id="node3" class="node">
<title>Node3</title>
<g id="a_node3"><a xlink:href="classft_1_1irc_1_1user.html#ae476cc31795df7fbb726b193ab887e75" target="_top" xlink:title=" ">
<polygon fill="white" stroke="black" points="163,-175.5 163,-205.5 253,-205.5 253,-175.5 163,-175.5"/>
<text text-anchor="start" x="171" y="-193.5" font-family="Helvetica,sans-Serif" font-size="10.00">ft::irc::user::get</text>
<text text-anchor="middle" x="208" y="-182.5" font-family="Helvetica,sans-Serif" font-size="10.00">_server</text>
</a>
</g>
</g>
<!-- Node1&#45;&gt;Node3 -->
<g id="edge2" class="edge">
<title>Node1&#45;&gt;Node3</title>
<path fill="none" stroke="midnightblue" d="M95.2,-159.46C113.31,-164.49 134.17,-170.28 152.93,-175.49"/>
<polygon fill="midnightblue" stroke="midnightblue" points="152.24,-178.93 162.81,-178.23 154.11,-172.19 152.24,-178.93"/>
</g>
<!-- Node4 -->
<g id="node4" class="node">
<title>Node4</title>
<g id="a_node4"><a xlink:href="classft_1_1irc_1_1message.html#a34f457ead0453ad914af2cb0482a40b9" target="_top" xlink:title=" ">
<polygon fill="white" stroke="black" points="131,-137 131,-156 285,-156 285,-137 131,-137"/>
<text text-anchor="middle" x="208" y="-144" font-family="Helvetica,sans-Serif" font-size="10.00">ft::irc::message::param_size</text>
</a>
</g>
</g>
<!-- Node1&#45;&gt;Node4 -->
<g id="edge3" class="edge">
<title>Node1&#45;&gt;Node4</title>
<path fill="none" stroke="midnightblue" d="M95.2,-146.5C103.27,-146.5 111.89,-146.5 120.62,-146.5"/>
<polygon fill="midnightblue" stroke="midnightblue" points="120.91,-150 130.91,-146.5 120.91,-143 120.91,-150"/>
</g>
<!-- Node5 -->
<g id="node5" class="node">
<title>Node5</title>
<g id="a_node5"><a xlink:href="classft_1_1irc_1_1server.html#a3f4e06d5a9cf57441582f77b95f87135" target="_top" xlink:title=" ">
<polygon fill="white" stroke="black" points="144,-99 144,-118 272,-118 272,-99 144,-99"/>
<text text-anchor="middle" x="208" y="-106" font-family="Helvetica,sans-Serif" font-size="10.00">ft::irc::server::send_list</text>
</a>
</g>
</g>
<!-- Node1&#45;&gt;Node5 -->
<g id="edge4" class="edge">
<title>Node1&#45;&gt;Node5</title>
<path fill="none" stroke="midnightblue" d="M95.2,-135.3C114.81,-130.6 137.63,-125.13 157.53,-120.36"/>
<polygon fill="midnightblue" stroke="midnightblue" points="158.42,-123.75 167.33,-118.01 156.79,-116.94 158.42,-123.75"/>
</g>
<!-- Node12 -->
<g id="node12" class="node">
<title>Node12</title>
<g id="a_node12"><a xlink:href="classft_1_1irc_1_1message.html#adf434fdc28e74fb166c6046c0ac5c6d5" target="_top" xlink:title=" ">
<polygon fill="white" stroke="black" points="148.5,-61 148.5,-80 267.5,-80 267.5,-61 148.5,-61"/>
<text text-anchor="middle" x="208" y="-68" font-family="Helvetica,sans-Serif" font-size="10.00">ft::irc::message::split</text>
</a>
</g>
</g>
<!-- Node1&#45;&gt;Node12 -->
<g id="edge11" class="edge">
<title>Node1&#45;&gt;Node12</title>
<path fill="none" stroke="midnightblue" d="M66.35,-131.32C82.33,-118.46 106.89,-100.41 131,-89.5 136.4,-87.06 142.16,-84.9 148.01,-82.99"/>
<polygon fill="midnightblue" stroke="midnightblue" points="149.3,-86.26 157.87,-80.02 147.29,-79.55 149.3,-86.26"/>
</g>
<!-- Node6 -->
<g id="node6" class="node">
<title>Node6</title>
<g id="a_node6"><a xlink:href="structft_1_1irc_1_1make__reply.html#aea322ae93b5998963dca3923cb91d19d" target="_top" xlink:title=" ">
<polygon fill="white" stroke="black" points="333,-186.5 333,-216.5 437,-216.5 437,-186.5 333,-186.5"/>
<text text-anchor="start" x="341" y="-204.5" font-family="Helvetica,sans-Serif" font-size="10.00">ft::irc::make_reply</text>
<text text-anchor="middle" x="385" y="-193.5" font-family="Helvetica,sans-Serif" font-size="10.00">::list_end</text>
</a>
</g>
</g>
<!-- Node5&#45;&gt;Node6 -->
<g id="edge5" class="edge">
<title>Node5&#45;&gt;Node6</title>
<path fill="none" stroke="midnightblue" d="M266.11,-118.05C272.79,-120.51 279.26,-123.61 285,-127.5 307.66,-142.87 299.29,-160.81 321,-177.5 322.81,-178.89 324.71,-180.21 326.67,-181.46"/>
<polygon fill="midnightblue" stroke="midnightblue" points="325.2,-184.65 335.64,-186.5 328.63,-178.54 325.2,-184.65"/>
</g>
<!-- Node7 -->
<g id="node7" class="node">
<title>Node7</title>
<g id="a_node7"><a xlink:href="structft_1_1irc_1_1make__reply.html#a63b855359274d17192e7dc8ca199a438" target="_top" xlink:title=" ">
<polygon fill="white" stroke="black" points="333,-137.5 333,-167.5 437,-167.5 437,-137.5 333,-137.5"/>
<text text-anchor="start" x="341" y="-155.5" font-family="Helvetica,sans-Serif" font-size="10.00">ft::irc::make_reply</text>
<text text-anchor="middle" x="385" y="-144.5" font-family="Helvetica,sans-Serif" font-size="10.00">::list_start</text>
</a>
</g>
</g>
<!-- Node5&#45;&gt;Node7 -->
<g id="edge6" class="edge">
<title>Node5&#45;&gt;Node7</title>
<path fill="none" stroke="midnightblue" d="M247.28,-118.05C259.35,-121.07 272.73,-124.42 285,-127.5 297.28,-130.58 310.41,-133.89 322.96,-137.06"/>
<polygon fill="midnightblue" stroke="midnightblue" points="322.33,-140.51 332.88,-139.57 324.04,-133.72 322.33,-140.51"/>
</g>
<!-- Node8 -->
<g id="node8" class="node">
<title>Node8</title>
<g id="a_node8"><a xlink:href="classft_1_1irc_1_1user.html#a3cfeaf12c0bdb6ac02debf5e19ce50d2" target="_top" xlink:title=" ">
<polygon fill="white" stroke="black" points="321,-99 321,-118 449,-118 449,-99 321,-99"/>
<text text-anchor="middle" x="385" y="-106" font-family="Helvetica,sans-Serif" font-size="10.00">ft::irc::user::load_mode</text>
</a>
</g>
</g>
<!-- Node5&#45;&gt;Node8 -->
<g id="edge7" class="edge">
<title>Node5&#45;&gt;Node8</title>
<path fill="none" stroke="midnightblue" d="M272.18,-108.5C284.69,-108.5 297.93,-108.5 310.75,-108.5"/>
<polygon fill="midnightblue" stroke="midnightblue" points="310.91,-112 320.91,-108.5 310.91,-105 310.91,-112"/>
</g>
<!-- Node9 -->
<g id="node9" class="node">
<title>Node9</title>
<g id="a_node9"><a xlink:href="classft_1_1irc_1_1channel.html#a36cc8e5ae9be4cb22ae4a31779c62282" target="_top" xlink:title=" ">
<polygon fill="white" stroke="black" points="325.5,-49.5 325.5,-79.5 444.5,-79.5 444.5,-49.5 325.5,-49.5"/>
<text text-anchor="start" x="333.5" y="-67.5" font-family="Helvetica,sans-Serif" font-size="10.00">ft::irc::channel::make</text>
<text text-anchor="middle" x="385" y="-56.5" font-family="Helvetica,sans-Serif" font-size="10.00">_list_packet</text>
</a>
</g>
</g>
<!-- Node5&#45;&gt;Node9 -->
<g id="edge8" class="edge">
<title>Node5&#45;&gt;Node9</title>
<path fill="none" stroke="midnightblue" d="M247.28,-98.95C259.35,-95.93 272.73,-92.58 285,-89.5 294.9,-87.01 305.36,-84.38 315.62,-81.79"/>
<polygon fill="midnightblue" stroke="midnightblue" points="316.54,-85.17 325.37,-79.33 314.82,-78.38 316.54,-85.17"/>
</g>
<!-- Node11 -->
<g id="node11" class="node">
<title>Node11</title>
<g id="a_node11"><a xlink:href="classft_1_1irc_1_1user.html#a1db558d6d694ca943224c2440fe36c50" target="_top" xlink:title=" ">
<polygon fill="white" stroke="black" points="336,-0.5 336,-30.5 434,-30.5 434,-0.5 336,-0.5"/>
<text text-anchor="start" x="344" y="-18.5" font-family="Helvetica,sans-Serif" font-size="10.00">ft::irc::user::send</text>
<text text-anchor="middle" x="385" y="-7.5" font-family="Helvetica,sans-Serif" font-size="10.00">_message</text>
</a>
</g>
</g>
<!-- Node5&#45;&gt;Node11 -->
<g id="edge10" class="edge">
<title>Node5&#45;&gt;Node11</title>
<path fill="none" stroke="midnightblue" d="M266.07,-98.9C272.76,-96.44 279.24,-93.37 285,-89.5 307.44,-74.44 299.61,-57.01 321,-40.5 323.31,-38.71 325.77,-37.04 328.32,-35.47"/>
<polygon fill="midnightblue" stroke="midnightblue" points="330.22,-38.42 337.3,-30.54 326.85,-32.29 330.22,-38.42"/>
</g>
<!-- Node10 -->
<g id="node10" class="node">
<title>Node10</title>
<g id="a_node10"><a xlink:href="structft_1_1irc_1_1make__reply.html#a049c4169cd8f3b5e8d855183c8106001" target="_top" xlink:title=" ">
<polygon fill="white" stroke="black" points="485,-49.5 485,-79.5 589,-79.5 589,-49.5 485,-49.5"/>
<text text-anchor="start" x="493" y="-67.5" font-family="Helvetica,sans-Serif" font-size="10.00">ft::irc::make_reply</text>
<text text-anchor="middle" x="537" y="-56.5" font-family="Helvetica,sans-Serif" font-size="10.00">::list</text>
</a>
</g>
</g>
<!-- Node9&#45;&gt;Node10 -->
<g id="edge9" class="edge">
<title>Node9&#45;&gt;Node10</title>
<path fill="none" stroke="midnightblue" d="M444.85,-64.5C454.6,-64.5 464.73,-64.5 474.54,-64.5"/>
<polygon fill="midnightblue" stroke="midnightblue" points="474.61,-68 484.61,-64.5 474.61,-61 474.61,-68"/>
</g>
</g>
</svg>
