<?xml version="1.0" encoding="UTF-8" standalone="no"?>
<!DOCTYPE svg PUBLIC "-//W3C//DTD SVG 1.1//EN"
 "http://www.w3.org/Graphics/SVG/1.1/DTD/svg11.dtd">
<!-- Generated by graphviz version 2.43.0 (0)
 -->
<!-- Title: ft::irc::server Pages: 1 -->
<svg width="307pt" height="286pt"
 viewBox="0.00 0.00 307.00 285.50" xmlns="http://www.w3.org/2000/svg" xmlns:xlink="http://www.w3.org/1999/xlink">
<g id="graph0" class="graph" transform="scale(1 1) rotate(0) translate(4 281.5)">
<title>ft::irc::server</title>
<polygon fill="white" stroke="transparent" points="-4,4 -4,-281.5 303,-281.5 303,4 -4,4"/>
<!-- Node1 -->
<g id="node1" class="node">
<title>Node1</title>
<g id="a_node1"><a xlink:title=" ">
<polygon fill="#bfbfbf" stroke="black" points="221,-131.5 221,-150.5 299,-150.5 299,-131.5 221,-131.5"/>
<text text-anchor="middle" x="260" y="-138.5" font-family="Helvetica,sans-Serif" font-size="10.00">ft::irc::server</text>
</a>
</g>
</g>
<!-- Node2 -->
<g id="node2" class="node">
<title>Node2</title>
<g id="a_node2"><a xlink:title=" ">
<polygon fill="white" stroke="#bfbfbf" points="4.5,-247 4.5,-277 133.5,-277 133.5,-247 4.5,-247"/>
<text text-anchor="start" x="12.5" y="-265" font-family="Helvetica,sans-Serif" font-size="10.00">ft::enable_shared_from</text>
<text text-anchor="middle" x="69" y="-254" font-family="Helvetica,sans-Serif" font-size="10.00">_this&lt; server &gt;</text>
</a>
</g>
</g>
<!-- Node2&#45;&gt;Node1 -->
<g id="edge1" class="edge">
<title>Node2&#45;&gt;Node1</title>
<path fill="none" stroke="midnightblue" d="M133,-243.52C156.41,-234.78 182.28,-222.74 203,-207 224.54,-190.63 243.47,-164.65 252.82,-150.67"/>
<polygon fill="midnightblue" stroke="midnightblue" points="131.71,-240.27 123.49,-246.95 134.08,-246.85 131.71,-240.27"/>
</g>
<!-- Node3 -->
<g id="node3" class="node">
<title>Node3</title>
<g id="a_node3"><a xlink:title=" ">
<polygon fill="white" stroke="#bfbfbf" points="24.5,-208.5 24.5,-227.5 113.5,-227.5 113.5,-208.5 24.5,-208.5"/>
<text text-anchor="middle" x="69" y="-215.5" font-family="Helvetica,sans-Serif" font-size="10.00">readwrite_lock</text>
</a>
</g>
</g>
<!-- Node3&#45;&gt;Node1 -->
<g id="edge2" class="edge">
<title>Node3&#45;&gt;Node1</title>
<path fill="none" stroke="#9a32cd" stroke-dasharray="5,2" d="M117.92,-205.57C124.71,-203.53 131.57,-201.32 138,-199 167.76,-188.27 174.5,-183.72 203,-170 215.92,-163.78 230.28,-156.33 241.23,-150.54"/>
<polygon fill="#9a32cd" stroke="#9a32cd" points="116.71,-202.28 108.08,-208.42 118.66,-209 116.71,-202.28"/>
<text text-anchor="middle" x="179.5" y="-195" font-family="Helvetica,sans-Serif" font-size="10.00"> lock</text>
</g>
<!-- Node4 -->
<g id="node4" class="node">
<title>Node4</title>
<g id="a_node4"><a xlink:href="structft_1_1serv_1_1dynamic__array.html" target="_top" xlink:title=" ">
<polygon fill="white" stroke="black" points="5,-148.5 5,-189.5 133,-189.5 133,-148.5 5,-148.5"/>
<text text-anchor="start" x="13" y="-177.5" font-family="Helvetica,sans-Serif" font-size="10.00">ft::serv::dynamic_array</text>
<text text-anchor="start" x="13" y="-166.5" font-family="Helvetica,sans-Serif" font-size="10.00">&lt; ft::shared_ptr&lt; ft::</text>
<text text-anchor="middle" x="69" y="-155.5" font-family="Helvetica,sans-Serif" font-size="10.00">irc::user &gt; &gt;</text>
</a>
</g>
</g>
<!-- Node4&#45;&gt;Node1 -->
<g id="edge3" class="edge">
<title>Node4&#45;&gt;Node1</title>
<path fill="none" stroke="#9a32cd" stroke-dasharray="5,2" d="M143.23,-158.15C169.77,-154.22 198.67,-149.94 220.95,-146.64"/>
<polygon fill="#9a32cd" stroke="#9a32cd" points="142.58,-154.71 133.2,-159.64 143.6,-161.63 142.58,-154.71"/>
<text text-anchor="middle" x="179.5" y="-158" font-family="Helvetica,sans-Serif" font-size="10.00"> users</text>
</g>
<!-- Node5 -->
<g id="node5" class="node">
<title>Node5</title>
<g id="a_node5"><a xlink:href="structft_1_1serv_1_1unique__set.html" target="_top" xlink:title=" ">
<polygon fill="white" stroke="black" points="14.5,-99 14.5,-129 123.5,-129 123.5,-99 14.5,-99"/>
<text text-anchor="start" x="22.5" y="-117" font-family="Helvetica,sans-Serif" font-size="10.00">ft::serv::unique_set</text>
<text text-anchor="middle" x="69" y="-106" font-family="Helvetica,sans-Serif" font-size="10.00">&lt; std::string &gt;</text>
</a>
</g>
</g>
<!-- Node5&#45;&gt;Node1 -->
<g id="edge4" class="edge">
<title>Node5&#45;&gt;Node1</title>
<path fill="none" stroke="#9a32cd" stroke-dasharray="5,2" d="M133.68,-123.1C162.6,-127.23 195.85,-131.98 220.82,-135.55"/>
<polygon fill="#9a32cd" stroke="#9a32cd" points="134.05,-119.61 123.65,-121.66 133.06,-126.54 134.05,-119.61"/>
<text text-anchor="middle" x="179.5" y="-135" font-family="Helvetica,sans-Serif" font-size="10.00"> nicks</text>
</g>
<!-- Node6 -->
<g id="node6" class="node">
<title>Node6</title>
<g id="a_node6"><a xlink:href="structft_1_1serv_1_1fast__dictionary.html" target="_top" xlink:title=" ">
<polygon fill="white" stroke="black" points="0,-38.5 0,-79.5 138,-79.5 138,-38.5 0,-38.5"/>
<text text-anchor="start" x="8" y="-67.5" font-family="Helvetica,sans-Serif" font-size="10.00">ft::serv::fast_dictionary</text>
<text text-anchor="start" x="8" y="-56.5" font-family="Helvetica,sans-Serif" font-size="10.00">&lt; std::string, ft::shared</text>
<text text-anchor="middle" x="69" y="-45.5" font-family="Helvetica,sans-Serif" font-size="10.00">_ptr&lt; ft::irc::channel &gt; &gt;</text>
</a>
</g>
</g>
<!-- Node6&#45;&gt;Node1 -->
<g id="edge5" class="edge">
<title>Node6&#45;&gt;Node1</title>
<path fill="none" stroke="#9a32cd" stroke-dasharray="5,2" d="M136.31,-83.14C157.81,-91.44 181.62,-101.14 203,-111 216.42,-117.19 231.13,-125.12 242.11,-131.27"/>
<polygon fill="#9a32cd" stroke="#9a32cd" points="137.52,-79.85 126.93,-79.55 135.01,-86.39 137.52,-79.85"/>
<text text-anchor="middle" x="179.5" y="-114" font-family="Helvetica,sans-Serif" font-size="10.00"> channels</text>
</g>
<!-- Node7 -->
<g id="node7" class="node">
<title>Node7</title>
<g id="a_node7"><a xlink:title=" ">
<polygon fill="white" stroke="#bfbfbf" points="47,-0.5 47,-19.5 91,-19.5 91,-0.5 47,-0.5"/>
<text text-anchor="middle" x="69" y="-7.5" font-family="Helvetica,sans-Serif" font-size="10.00">string</text>
</a>
</g>
</g>
<!-- Node7&#45;&gt;Node1 -->
<g id="edge6" class="edge">
<title>Node7&#45;&gt;Node1</title>
<path fill="none" stroke="#9a32cd" stroke-dasharray="5,2" d="M101.13,-16.31C113,-19.33 126.44,-23.5 138,-29 169.96,-44.21 176.9,-51.1 203,-75 222.73,-93.07 242.09,-117.92 252.07,-131.38"/>
<polygon fill="#9a32cd" stroke="#9a32cd" points="101.74,-12.86 91.2,-13.96 100.12,-19.67 101.74,-12.86"/>
<text text-anchor="middle" x="179.5" y="-78" font-family="Helvetica,sans-Serif" font-size="10.00"> pass</text>
</g>
</g>
</svg>
