<?xml version="1.0" encoding="UTF-8" standalone="no"?>
<!DOCTYPE svg PUBLIC "-//W3C//DTD SVG 1.1//EN"
 "http://www.w3.org/Graphics/SVG/1.1/DTD/svg11.dtd">
<!-- Generated by graphviz version 2.43.0 (0)
 -->
<!-- Title: ft::irc::channel::is_banned Pages: 1 -->
<svg width="265pt" height="127pt"
 viewBox="0.00 0.00 265.00 126.50" xmlns="http://www.w3.org/2000/svg" xmlns:xlink="http://www.w3.org/1999/xlink">
<g id="graph0" class="graph" transform="scale(1 1) rotate(0) translate(4 122.5)">
<title>ft::irc::channel::is_banned</title>
<polygon fill="white" stroke="transparent" points="-4,4 -4,-122.5 261,-122.5 261,4 -4,4"/>
<!-- Node1 -->
<g id="node1" class="node">
<title>Node1</title>
<g id="a_node1"><a xlink:title=" ">
<polygon fill="#bfbfbf" stroke="black" points="0,-39 0,-69 100,-69 100,-39 0,-39"/>
<text text-anchor="start" x="8" y="-57" font-family="Helvetica,sans-Serif" font-size="10.00">ft::irc::channel::is</text>
<text text-anchor="middle" x="50" y="-46" font-family="Helvetica,sans-Serif" font-size="10.00">_banned</text>
</a>
</g>
</g>
<!-- Node2 -->
<g id="node2" class="node">
<title>Node2</title>
<g id="a_node2"><a xlink:href="classft_1_1irc_1_1user.html#a4ef9a652a7bc6cae05b12c90ad5fb5c9" target="_top" xlink:title=" ">
<polygon fill="white" stroke="black" points="151.5,-88 151.5,-118 241.5,-118 241.5,-88 151.5,-88"/>
<text text-anchor="start" x="159.5" y="-106" font-family="Helvetica,sans-Serif" font-size="10.00">ft::irc::user::get</text>
<text text-anchor="middle" x="196.5" y="-95" font-family="Helvetica,sans-Serif" font-size="10.00">_hostname</text>
</a>
</g>
</g>
<!-- Node1&#45;&gt;Node2 -->
<g id="edge1" class="edge">
<title>Node1&#45;&gt;Node2</title>
<path fill="none" stroke="midnightblue" d="M95.53,-69.1C110.09,-74.04 126.42,-79.57 141.59,-84.72"/>
<polygon fill="midnightblue" stroke="midnightblue" points="140.77,-88.14 151.36,-88.03 143.02,-81.51 140.77,-88.14"/>
</g>
<!-- Node3 -->
<g id="node3" class="node">
<title>Node3</title>
<g id="a_node3"><a xlink:href="classft_1_1irc_1_1user.html#ac8f0fd6e5ecd71a825fc82a763defedb" target="_top" xlink:title=" ">
<polygon fill="white" stroke="black" points="151.5,-39 151.5,-69 241.5,-69 241.5,-39 151.5,-39"/>
<text text-anchor="start" x="159.5" y="-57" font-family="Helvetica,sans-Serif" font-size="10.00">ft::irc::user::get</text>
<text text-anchor="middle" x="196.5" y="-46" font-family="Helvetica,sans-Serif" font-size="10.00">_username</text>
</a>
</g>
</g>
<!-- Node1&#45;&gt;Node3 -->
<g id="edge2" class="edge">
<title>Node1&#45;&gt;Node3</title>
<path fill="none" stroke="midnightblue" d="M100.32,-54C113.49,-54 127.78,-54 141.19,-54"/>
<polygon fill="midnightblue" stroke="midnightblue" points="141.24,-57.5 151.24,-54 141.24,-50.5 141.24,-57.5"/>
</g>
<!-- Node4 -->
<g id="node4" class="node">
<title>Node4</title>
<g id="a_node4"><a xlink:href="classft_1_1irc_1_1user.html#a7277f06aa83459f6f9b409858d602e3b" target="_top" xlink:title=" ">
<polygon fill="white" stroke="black" points="136,-0.5 136,-19.5 257,-19.5 257,-0.5 136,-0.5"/>
<text text-anchor="middle" x="196.5" y="-7.5" font-family="Helvetica,sans-Serif" font-size="10.00">ft::irc::user::load_nick</text>
</a>
</g>
</g>
<!-- Node1&#45;&gt;Node4 -->
<g id="edge3" class="edge">
<title>Node1&#45;&gt;Node4</title>
<path fill="none" stroke="midnightblue" d="M100.32,-38.98C117.79,-33.66 137.26,-27.74 154.01,-22.63"/>
<polygon fill="midnightblue" stroke="midnightblue" points="155.5,-25.84 164.04,-19.58 153.46,-19.14 155.5,-25.84"/>
</g>
</g>
</svg>
