<?xml version="1.0" encoding="UTF-8" standalone="no"?>
<!DOCTYPE svg PUBLIC "-//W3C//DTD SVG 1.1//EN"
 "http://www.w3.org/Graphics/SVG/1.1/DTD/svg11.dtd">
<!-- Generated by graphviz version 2.43.0 (0)
 -->
<!-- Title: ft::irc::processor_quit::execute Pages: 1 -->
<svg width="293pt" height="176pt"
 viewBox="0.00 0.00 293.00 176.00" xmlns="http://www.w3.org/2000/svg" xmlns:xlink="http://www.w3.org/1999/xlink">
<g id="graph0" class="graph" transform="scale(1 1) rotate(0) translate(4 172)">
<title>ft::irc::processor_quit::execute</title>
<polygon fill="white" stroke="transparent" points="-4,4 -4,-172 289,-172 289,4 -4,4"/>
<!-- Node1 -->
<g id="node1" class="node">
<title>Node1</title>
<g id="a_node1"><a xlink:title=" ">
<polygon fill="#bfbfbf" stroke="black" points="0,-71.5 0,-101.5 95,-101.5 95,-71.5 0,-71.5"/>
<text text-anchor="start" x="8" y="-89.5" font-family="Helvetica,sans-Serif" font-size="10.00">ft::irc::processor</text>
<text text-anchor="middle" x="47.5" y="-78.5" font-family="Helvetica,sans-Serif" font-size="10.00">_quit::execute</text>
</a>
</g>
</g>
<!-- Node2 -->
<g id="node2" class="node">
<title>Node2</title>
<g id="a_node2"><a xlink:href="classft_1_1irc_1_1user.html#ae6c526bd968ba5d22988c9ffc4d9e896" target="_top" xlink:title=" ">
<polygon fill="white" stroke="black" points="161.5,-137.5 161.5,-167.5 254.5,-167.5 254.5,-137.5 161.5,-137.5"/>
<text text-anchor="start" x="169.5" y="-155.5" font-family="Helvetica,sans-Serif" font-size="10.00">ft::irc::user::exit</text>
<text text-anchor="middle" x="208" y="-144.5" font-family="Helvetica,sans-Serif" font-size="10.00">_client</text>
</a>
</g>
</g>
<!-- Node1&#45;&gt;Node2 -->
<g id="edge1" class="edge">
<title>Node1&#45;&gt;Node2</title>
<path fill="none" stroke="midnightblue" d="M76.29,-101.56C92.08,-109.8 112.36,-119.85 131,-127.5 137.63,-130.22 144.67,-132.86 151.68,-135.34"/>
<polygon fill="midnightblue" stroke="midnightblue" points="150.61,-138.67 161.2,-138.61 152.88,-132.05 150.61,-138.67"/>
</g>
<!-- Node3 -->
<g id="node3" class="node">
<title>Node3</title>
<g id="a_node3"><a xlink:href="classft_1_1irc_1_1message.html#a34f457ead0453ad914af2cb0482a40b9" target="_top" xlink:title=" ">
<polygon fill="white" stroke="black" points="131,-99 131,-118 285,-118 285,-99 131,-99"/>
<text text-anchor="middle" x="208" y="-106" font-family="Helvetica,sans-Serif" font-size="10.00">ft::irc::message::param_size</text>
</a>
</g>
</g>
<!-- Node1&#45;&gt;Node3 -->
<g id="edge2" class="edge">
<title>Node1&#45;&gt;Node3</title>
<path fill="none" stroke="midnightblue" d="M95.2,-92.98C105.65,-94.43 117.02,-96.01 128.37,-97.59"/>
<polygon fill="midnightblue" stroke="midnightblue" points="127.93,-101.06 138.32,-98.97 128.89,-94.12 127.93,-101.06"/>
</g>
<!-- Node4 -->
<g id="node4" class="node">
<title>Node4</title>
<g id="a_node4"><a xlink:href="classft_1_1irc_1_1user.html#aacaa9de941624f6a4ef5bce34d1957e6" target="_top" xlink:title=" ">
<polygon fill="white" stroke="black" points="158.5,-49.5 158.5,-79.5 257.5,-79.5 257.5,-49.5 158.5,-49.5"/>
<text text-anchor="start" x="166.5" y="-67.5" font-family="Helvetica,sans-Serif" font-size="10.00">ft::irc::user::reset</text>
<text text-anchor="middle" x="208" y="-56.5" font-family="Helvetica,sans-Serif" font-size="10.00">_quit_message</text>
</a>
</g>
</g>
<!-- Node1&#45;&gt;Node4 -->
<g id="edge3" class="edge">
<title>Node1&#45;&gt;Node4</title>
<path fill="none" stroke="midnightblue" d="M95.2,-80.02C111.84,-77.71 130.8,-75.08 148.32,-72.65"/>
<polygon fill="midnightblue" stroke="midnightblue" points="149.01,-76.08 158.44,-71.24 148.05,-69.15 149.01,-76.08"/>
</g>
<!-- Node5 -->
<g id="node5" class="node">
<title>Node5</title>
<g id="a_node5"><a xlink:href="classft_1_1irc_1_1user.html#a3e269dfc45670655e0c3593639053e45" target="_top" xlink:title=" ">
<polygon fill="white" stroke="black" points="158.5,-0.5 158.5,-30.5 257.5,-30.5 257.5,-0.5 158.5,-0.5"/>
<text text-anchor="start" x="166.5" y="-18.5" font-family="Helvetica,sans-Serif" font-size="10.00">ft::irc::user::store</text>
<text text-anchor="middle" x="208" y="-7.5" font-family="Helvetica,sans-Serif" font-size="10.00">_quit_message</text>
</a>
</g>
</g>
<!-- Node1&#45;&gt;Node5 -->
<g id="edge4" class="edge">
<title>Node1&#45;&gt;Node5</title>
<path fill="none" stroke="midnightblue" d="M72.78,-71.34C88.89,-61.7 110.72,-49.39 131,-40.5 136.68,-38.01 142.68,-35.63 148.73,-33.4"/>
<polygon fill="midnightblue" stroke="midnightblue" points="149.99,-36.66 158.23,-30.01 147.64,-30.07 149.99,-36.66"/>
</g>
</g>
</svg>
