<?xml version="1.0" encoding="UTF-8" standalone="no"?>
<!DOCTYPE svg PUBLIC "-//W3C//DTD SVG 1.1//EN"
 "http://www.w3.org/Graphics/SVG/1.1/DTD/svg11.dtd">
<!-- Generated by graphviz version 2.43.0 (0)
 -->
<!-- Title: ft::irc::bot_handler::on_read Pages: 1 -->
<svg width="881pt" height="571pt"
 viewBox="0.00 0.00 881.00 571.00" xmlns="http://www.w3.org/2000/svg" xmlns:xlink="http://www.w3.org/1999/xlink">
<g id="graph0" class="graph" transform="scale(1 1) rotate(0) translate(4 567)">
<title>ft::irc::bot_handler::on_read</title>
<polygon fill="white" stroke="transparent" points="-4,4 -4,-567 877,-567 877,4 -4,4"/>
<!-- Node1 -->
<g id="node1" class="node">
<title>Node1</title>
<g id="a_node1"><a xlink:title=" ">
<polygon fill="#bfbfbf" stroke="black" points="0,-262.5 0,-292.5 105,-292.5 105,-262.5 0,-262.5"/>
<text text-anchor="start" x="8" y="-280.5" font-family="Helvetica,sans-Serif" font-size="10.00">ft::irc::bot_handler</text>
<text text-anchor="middle" x="52.5" y="-269.5" font-family="Helvetica,sans-Serif" font-size="10.00">::on_read</text>
</a>
</g>
</g>
<!-- Node2 -->
<g id="node2" class="node">
<title>Node2</title>
<g id="a_node2"><a xlink:href="structft_1_1serv_1_1logger.html#a83649a4f3bb804c8fed6dfd130de5ee6" target="_top" xlink:title=" ">
<polygon fill="white" stroke="black" points="141,-421 141,-440 263,-440 263,-421 141,-421"/>
<text text-anchor="middle" x="202" y="-428" font-family="Helvetica,sans-Serif" font-size="10.00">ft::serv::logger::debug</text>
</a>
</g>
</g>
<!-- Node1&#45;&gt;Node2 -->
<g id="edge1" class="edge">
<title>Node1&#45;&gt;Node2</title>
<path fill="none" stroke="midnightblue" d="M68.18,-292.73C95.87,-321.45 155.63,-383.44 184.6,-413.49"/>
<polygon fill="midnightblue" stroke="midnightblue" points="182.12,-415.96 191.58,-420.73 187.16,-411.1 182.12,-415.96"/>
</g>
<!-- Node6 -->
<g id="node6" class="node">
<title>Node6</title>
<g id="a_node6"><a xlink:href="classft_1_1irc_1_1bot.html#a0b595213781ed0e5aaf1d48fdb602d98" target="_top" xlink:title=" ">
<polygon fill="white" stroke="black" points="142.5,-268 142.5,-287 261.5,-287 261.5,-268 142.5,-268"/>
<text text-anchor="middle" x="202" y="-275" font-family="Helvetica,sans-Serif" font-size="10.00">ft::irc::bot::on_packet</text>
</a>
</g>
</g>
<!-- Node1&#45;&gt;Node6 -->
<g id="edge5" class="edge">
<title>Node1&#45;&gt;Node6</title>
<path fill="none" stroke="midnightblue" d="M105.09,-277.5C113.84,-277.5 123.05,-277.5 132.16,-277.5"/>
<polygon fill="midnightblue" stroke="midnightblue" points="132.38,-281 142.38,-277.5 132.38,-274 132.38,-281"/>
</g>
<!-- Node22 -->
<g id="node22" class="node">
<title>Node22</title>
<g id="a_node22"><a xlink:href="classft_1_1irc_1_1message.html#a076fdbb740cb752dd153e207f076183a" target="_top" xlink:title=" ">
<polygon fill="white" stroke="black" points="148.5,-218.5 148.5,-248.5 255.5,-248.5 255.5,-218.5 148.5,-218.5"/>
<text text-anchor="start" x="156.5" y="-236.5" font-family="Helvetica,sans-Serif" font-size="10.00">ft::irc::message::to</text>
<text text-anchor="middle" x="202" y="-225.5" font-family="Helvetica,sans-Serif" font-size="10.00">_pretty_string</text>
</a>
</g>
</g>
<!-- Node1&#45;&gt;Node22 -->
<g id="edge23" class="edge">
<title>Node1&#45;&gt;Node22</title>
<path fill="none" stroke="midnightblue" d="M103.85,-262.48C115.77,-258.93 128.6,-255.1 140.9,-251.43"/>
<polygon fill="midnightblue" stroke="midnightblue" points="142.05,-254.74 150.63,-248.53 140.04,-248.03 142.05,-254.74"/>
</g>
<!-- Node3 -->
<g id="node3" class="node">
<title>Node3</title>
<g id="a_node3"><a xlink:href="namespaceft_1_1serv_1_1__internal.html#a4dfb80be7b817fc0ee18658f313a6274" target="_top" xlink:title=" ">
<polygon fill="white" stroke="black" points="315.5,-508.5 315.5,-538.5 413.5,-538.5 413.5,-508.5 315.5,-508.5"/>
<text text-anchor="start" x="323.5" y="-526.5" font-family="Helvetica,sans-Serif" font-size="10.00">ft::serv::_internal</text>
<text text-anchor="middle" x="364.5" y="-515.5" font-family="Helvetica,sans-Serif" font-size="10.00">::print</text>
</a>
</g>
</g>
<!-- Node2&#45;&gt;Node3 -->
<g id="edge2" class="edge">
<title>Node2&#45;&gt;Node3</title>
<path fill="none" stroke="midnightblue" d="M214.51,-440.08C231.93,-454.26 266.43,-481 299,-498.5 302.75,-500.51 306.7,-502.45 310.71,-504.29"/>
<polygon fill="midnightblue" stroke="midnightblue" points="309.59,-507.62 320.16,-508.4 312.39,-501.2 309.59,-507.62"/>
</g>
<!-- Node4 -->
<g id="node4" class="node">
<title>Node4</title>
<g id="a_node4"><a xlink:href="namespaceft_1_1serv_1_1__internal.html#aff49349b58dc84fa69076e9cd27a1db4" target="_top" xlink:title=" ">
<polygon fill="white" stroke="black" points="466,-532.5 466,-562.5 610,-562.5 610,-532.5 466,-532.5"/>
<text text-anchor="start" x="474" y="-550.5" font-family="Helvetica,sans-Serif" font-size="10.00">ft::serv::_internal</text>
<text text-anchor="middle" x="538" y="-539.5" font-family="Helvetica,sans-Serif" font-size="10.00">::make_format_string_line</text>
</a>
</g>
</g>
<!-- Node3&#45;&gt;Node4 -->
<g id="edge3" class="edge">
<title>Node3&#45;&gt;Node4</title>
<path fill="none" stroke="midnightblue" d="M413.73,-530.25C426.85,-532.09 441.43,-534.13 455.84,-536.14"/>
<polygon fill="midnightblue" stroke="midnightblue" points="455.38,-539.61 465.77,-537.53 456.35,-532.68 455.38,-539.61"/>
</g>
<!-- Node5 -->
<g id="node5" class="node">
<title>Node5</title>
<g id="a_node5"><a xlink:href="namespaceft_1_1serv_1_1__internal.html#aad4af39d62c2b1687b0bef7a91bf6c60" target="_top" xlink:title=" ">
<polygon fill="white" stroke="black" points="486.5,-483.5 486.5,-513.5 589.5,-513.5 589.5,-483.5 486.5,-483.5"/>
<text text-anchor="start" x="494.5" y="-501.5" font-family="Helvetica,sans-Serif" font-size="10.00">ft::serv::_internal</text>
<text text-anchor="middle" x="538" y="-490.5" font-family="Helvetica,sans-Serif" font-size="10.00">::make_utc_string</text>
</a>
</g>
</g>
<!-- Node3&#45;&gt;Node5 -->
<g id="edge4" class="edge">
<title>Node3&#45;&gt;Node5</title>
<path fill="none" stroke="midnightblue" d="M413.73,-516.47C433.23,-513.63 455.95,-510.32 476.53,-507.31"/>
<polygon fill="midnightblue" stroke="midnightblue" points="477.05,-510.78 486.44,-505.87 476.04,-503.85 477.05,-510.78"/>
</g>
<!-- Node7 -->
<g id="node7" class="node">
<title>Node7</title>
<g id="a_node7"><a xlink:href="classft_1_1irc_1_1bot.html#ab9626c6fee28a7fa7cb968c76362834c" target="_top" xlink:title=" ">
<polygon fill="white" stroke="black" points="302.5,-432 302.5,-451 426.5,-451 426.5,-432 302.5,-432"/>
<text text-anchor="middle" x="364.5" y="-439" font-family="Helvetica,sans-Serif" font-size="10.00">ft::irc::bot::add_inviter</text>
</a>
</g>
</g>
<!-- Node6&#45;&gt;Node7 -->
<g id="edge6" class="edge">
<title>Node6&#45;&gt;Node7</title>
<path fill="none" stroke="midnightblue" d="M206.68,-287.32C216.99,-313.48 248.73,-385.37 299,-422.5 301.63,-424.44 304.45,-426.19 307.4,-427.75"/>
<polygon fill="midnightblue" stroke="midnightblue" points="305.99,-430.96 316.54,-431.94 308.91,-424.59 305.99,-430.96"/>
</g>
<!-- Node8 -->
<g id="node8" class="node">
<title>Node8</title>
<g id="a_node8"><a xlink:href="classft_1_1irc_1_1bot.html#aef50e26ad9e418841745fec737a929e1" target="_top" xlink:title=" ">
<polygon fill="white" stroke="black" points="321,-382.5 321,-412.5 408,-412.5 408,-382.5 321,-382.5"/>
<text text-anchor="start" x="329" y="-400.5" font-family="Helvetica,sans-Serif" font-size="10.00">ft::irc::bot::find</text>
<text text-anchor="middle" x="364.5" y="-389.5" font-family="Helvetica,sans-Serif" font-size="10.00">_channels</text>
</a>
</g>
</g>
<!-- Node6&#45;&gt;Node8 -->
<g id="edge7" class="edge">
<title>Node6&#45;&gt;Node8</title>
<path fill="none" stroke="midnightblue" d="M210.17,-287.02C224.87,-305.96 260.32,-348.67 299,-373.5 303,-376.07 307.31,-378.42 311.75,-380.55"/>
<polygon fill="midnightblue" stroke="midnightblue" points="310.4,-383.78 320.96,-384.64 313.24,-377.39 310.4,-383.78"/>
</g>
<!-- Node12 -->
<g id="node12" class="node">
<title>Node12</title>
<g id="a_node12"><a xlink:href="classft_1_1irc_1_1message.html#ad323e99c45f6feec038a7de683f812a2" target="_top" xlink:title=" ">
<polygon fill="white" stroke="black" points="308,-333.5 308,-363.5 421,-363.5 421,-333.5 308,-333.5"/>
<text text-anchor="start" x="316" y="-351.5" font-family="Helvetica,sans-Serif" font-size="10.00">ft::irc::message::get</text>
<text text-anchor="middle" x="364.5" y="-340.5" font-family="Helvetica,sans-Serif" font-size="10.00">_command</text>
</a>
</g>
</g>
<!-- Node6&#45;&gt;Node12 -->
<g id="edge11" class="edge">
<title>Node6&#45;&gt;Node12</title>
<path fill="none" stroke="midnightblue" d="M221.15,-287.06C240.27,-296.96 271.38,-312.63 299,-324.5 303.13,-326.27 307.43,-328.04 311.77,-329.77"/>
<polygon fill="midnightblue" stroke="midnightblue" points="310.69,-333.11 321.28,-333.48 313.23,-326.58 310.69,-333.11"/>
</g>
<!-- Node13 -->
<g id="node13" class="node">
<title>Node13</title>
<g id="a_node13"><a xlink:href="classft_1_1irc_1_1message.html#a254aec48aa7b7872331cd5644d9e918c" target="_top" xlink:title=" ">
<polygon fill="white" stroke="black" points="308,-284.5 308,-314.5 421,-314.5 421,-284.5 308,-284.5"/>
<text text-anchor="start" x="316" y="-302.5" font-family="Helvetica,sans-Serif" font-size="10.00">ft::irc::message::get</text>
<text text-anchor="middle" x="364.5" y="-291.5" font-family="Helvetica,sans-Serif" font-size="10.00">_prefix</text>
</a>
</g>
</g>
<!-- Node6&#45;&gt;Node13 -->
<g id="edge12" class="edge">
<title>Node6&#45;&gt;Node13</title>
<path fill="none" stroke="midnightblue" d="M261.85,-285.57C273.6,-287.18 286,-288.88 297.95,-290.51"/>
<polygon fill="midnightblue" stroke="midnightblue" points="297.47,-293.98 307.86,-291.87 298.43,-287.05 297.47,-293.98"/>
</g>
<!-- Node14 -->
<g id="node14" class="node">
<title>Node14</title>
<g id="a_node14"><a xlink:href="classft_1_1irc_1_1bot.html#a8cdd94dface1cee6c920a6fba82c1624" target="_top" xlink:title=" ">
<polygon fill="white" stroke="black" points="307.5,-246 307.5,-265 421.5,-265 421.5,-246 307.5,-246"/>
<text text-anchor="middle" x="364.5" y="-253" font-family="Helvetica,sans-Serif" font-size="10.00">ft::irc::bot::is_inviter</text>
</a>
</g>
</g>
<!-- Node6&#45;&gt;Node14 -->
<g id="edge13" class="edge">
<title>Node6&#45;&gt;Node14</title>
<path fill="none" stroke="midnightblue" d="M261.85,-269.43C273.34,-267.86 285.46,-266.2 297.17,-264.59"/>
<polygon fill="midnightblue" stroke="midnightblue" points="297.89,-268.03 307.33,-263.2 296.94,-261.09 297.89,-268.03"/>
</g>
<!-- Node15 -->
<g id="node15" class="node">
<title>Node15</title>
<g id="a_node15"><a xlink:href="structft_1_1irc_1_1string__utils.html#a38cd804a5b73843f0fd63a027dd0dee0" target="_top" xlink:title=" ">
<polygon fill="white" stroke="black" points="299,-196.5 299,-226.5 430,-226.5 430,-196.5 299,-196.5"/>
<text text-anchor="start" x="307" y="-214.5" font-family="Helvetica,sans-Serif" font-size="10.00">ft::irc::string_utils</text>
<text text-anchor="middle" x="364.5" y="-203.5" font-family="Helvetica,sans-Serif" font-size="10.00">::is_valid_channelname</text>
</a>
</g>
</g>
<!-- Node6&#45;&gt;Node15 -->
<g id="edge15" class="edge">
<title>Node6&#45;&gt;Node15</title>
<path fill="none" stroke="midnightblue" d="M235.85,-267.9C244.8,-264.93 254.4,-261.39 263,-257.5 279.88,-249.86 282.31,-244.54 299,-236.5 303.3,-234.43 307.83,-232.39 312.4,-230.44"/>
<polygon fill="midnightblue" stroke="midnightblue" points="313.89,-233.61 321.8,-226.55 311.22,-227.14 313.89,-233.61"/>
</g>
<!-- Node17 -->
<g id="node17" class="node">
<title>Node17</title>
<g id="a_node17"><a xlink:href="structft_1_1irc_1_1string__utils.html#ac1e75b32f508ffe5a1a1875d1e1cd2ea" target="_top" xlink:title=" ">
<polygon fill="white" stroke="black" points="314,-147.5 314,-177.5 415,-177.5 415,-147.5 314,-147.5"/>
<text text-anchor="start" x="322" y="-165.5" font-family="Helvetica,sans-Serif" font-size="10.00">ft::irc::string_utils</text>
<text text-anchor="middle" x="364.5" y="-154.5" font-family="Helvetica,sans-Serif" font-size="10.00">::pick_nick</text>
</a>
</g>
</g>
<!-- Node6&#45;&gt;Node17 -->
<g id="edge17" class="edge">
<title>Node6&#45;&gt;Node17</title>
<path fill="none" stroke="midnightblue" d="M245.57,-267.98C251.87,-265.3 257.93,-261.87 263,-257.5 289.79,-234.39 272.61,-210.06 299,-186.5 300.91,-184.79 302.95,-183.21 305.09,-181.73"/>
<polygon fill="midnightblue" stroke="midnightblue" points="306.96,-184.69 313.75,-176.55 303.37,-178.68 306.96,-184.69"/>
</g>
<!-- Node18 -->
<g id="node18" class="node">
<title>Node18</title>
<g id="a_node18"><a xlink:href="classft_1_1serv_1_1event__layer.html#a854a0764bd67adfc716ec4237cd52672" target="_top" xlink:title=" ">
<polygon fill="white" stroke="black" points="308,-98.5 308,-128.5 421,-128.5 421,-98.5 308,-98.5"/>
<text text-anchor="start" x="316" y="-116.5" font-family="Helvetica,sans-Serif" font-size="10.00">ft::serv::event_layer</text>
<text text-anchor="middle" x="364.5" y="-105.5" font-family="Helvetica,sans-Serif" font-size="10.00">::post_flush</text>
</a>
</g>
</g>
<!-- Node6&#45;&gt;Node18 -->
<g id="edge18" class="edge">
<title>Node6&#45;&gt;Node18</title>
<path fill="none" stroke="midnightblue" d="M248.1,-267.89C253.63,-265.23 258.79,-261.83 263,-257.5 301.77,-217.54 260.92,-178.13 299,-137.5 299.9,-136.54 300.83,-135.63 301.81,-134.74"/>
<polygon fill="midnightblue" stroke="midnightblue" points="304,-137.47 309.9,-128.67 299.8,-131.87 304,-137.47"/>
</g>
<!-- Node19 -->
<g id="node19" class="node">
<title>Node19</title>
<g id="a_node19"><a xlink:href="classft_1_1serv_1_1event__layer.html#add4946138f5f8a5870d52c44ca435aab" target="_top" xlink:title=" ">
<polygon fill="white" stroke="black" points="308,-49.5 308,-79.5 421,-79.5 421,-49.5 308,-49.5"/>
<text text-anchor="start" x="316" y="-67.5" font-family="Helvetica,sans-Serif" font-size="10.00">ft::serv::event_layer</text>
<text text-anchor="middle" x="364.5" y="-56.5" font-family="Helvetica,sans-Serif" font-size="10.00">::post_write</text>
</a>
</g>
</g>
<!-- Node6&#45;&gt;Node19 -->
<g id="edge19" class="edge">
<title>Node6&#45;&gt;Node19</title>
<path fill="none" stroke="midnightblue" d="M249.03,-267.9C254.28,-265.24 259.12,-261.84 263,-257.5 314.18,-200.25 248.81,-146.63 299,-88.5 299.74,-87.64 300.52,-86.81 301.32,-86.01"/>
<polygon fill="midnightblue" stroke="midnightblue" points="303.7,-88.59 309.3,-79.59 299.31,-83.14 303.7,-88.59"/>
</g>
<!-- Node20 -->
<g id="node20" class="node">
<title>Node20</title>
<g id="a_node20"><a xlink:href="classft_1_1irc_1_1bot.html#af8c852e58073043cd63ace5d56c558fe" target="_top" xlink:title=" ">
<polygon fill="white" stroke="black" points="311,-0.5 311,-30.5 418,-30.5 418,-0.5 311,-0.5"/>
<text text-anchor="start" x="319" y="-18.5" font-family="Helvetica,sans-Serif" font-size="10.00">ft::irc::bot::remove</text>
<text text-anchor="middle" x="364.5" y="-7.5" font-family="Helvetica,sans-Serif" font-size="10.00">_inviter</text>
</a>
</g>
</g>
<!-- Node6&#45;&gt;Node20 -->
<g id="edge20" class="edge">
<title>Node6&#45;&gt;Node20</title>
<path fill="none" stroke="midnightblue" d="M249.52,-267.91C254.62,-265.25 259.29,-261.84 263,-257.5 326.74,-182.8 236.56,-115.29 299,-39.5 300.15,-38.11 301.39,-36.79 302.7,-35.55"/>
<polygon fill="midnightblue" stroke="midnightblue" points="305.11,-38.12 310.94,-29.27 300.87,-32.55 305.11,-38.12"/>
</g>
<!-- Node21 -->
<g id="node21" class="node">
<title>Node21</title>
<g id="a_node21"><a xlink:href="classft_1_1irc_1_1bot.html#a6bea4a41bf2e963f84660531719b1515" target="_top" xlink:title=" ">
<polygon fill="white" stroke="black" points="300.5,-470 300.5,-489 428.5,-489 428.5,-470 300.5,-470"/>
<text text-anchor="middle" x="364.5" y="-477" font-family="Helvetica,sans-Serif" font-size="10.00">ft::irc::bot::update_nick</text>
</a>
</g>
</g>
<!-- Node6&#45;&gt;Node21 -->
<g id="edge21" class="edge">
<title>Node6&#45;&gt;Node21</title>
<path fill="none" stroke="midnightblue" d="M206.91,-287.23C220.85,-321.49 268.91,-435.81 299,-460.5 301.05,-462.18 303.25,-463.72 305.55,-465.12"/>
<polygon fill="midnightblue" stroke="midnightblue" points="304.35,-468.43 314.84,-469.87 307.53,-462.2 304.35,-468.43"/>
</g>
<!-- Node9 -->
<g id="node9" class="node">
<title>Node9</title>
<g id="a_node9"><a xlink:href="structft_1_1irc_1_1string__utils.html#abd73422cb93e7f7f26cfd59a221933a2" target="_top" xlink:title=" ">
<polygon fill="white" stroke="black" points="487.5,-382.5 487.5,-412.5 588.5,-412.5 588.5,-382.5 487.5,-382.5"/>
<text text-anchor="start" x="495.5" y="-400.5" font-family="Helvetica,sans-Serif" font-size="10.00">ft::irc::string_utils</text>
<text text-anchor="middle" x="538" y="-389.5" font-family="Helvetica,sans-Serif" font-size="10.00">::is_same</text>
</a>
</g>
</g>
<!-- Node8&#45;&gt;Node9 -->
<g id="edge8" class="edge">
<title>Node8&#45;&gt;Node9</title>
<path fill="none" stroke="midnightblue" d="M408.33,-397.5C429.16,-397.5 454.52,-397.5 477.21,-397.5"/>
<polygon fill="midnightblue" stroke="midnightblue" points="477.43,-401 487.43,-397.5 477.43,-394 477.43,-401"/>
</g>
<!-- Node10 -->
<g id="node10" class="node">
<title>Node10</title>
<g id="a_node10"><a xlink:href="structft_1_1irc_1_1string__utils.html#a367a22012cc0d2d25959ac3f4e5d33a9" target="_top" xlink:title=" ">
<polygon fill="white" stroke="black" points="646,-382.5 646,-412.5 747,-412.5 747,-382.5 646,-382.5"/>
<text text-anchor="start" x="654" y="-400.5" font-family="Helvetica,sans-Serif" font-size="10.00">ft::irc::string_utils</text>
<text text-anchor="middle" x="696.5" y="-389.5" font-family="Helvetica,sans-Serif" font-size="10.00">::to_lower</text>
</a>
</g>
</g>
<!-- Node9&#45;&gt;Node10 -->
<g id="edge9" class="edge">
<title>Node9&#45;&gt;Node10</title>
<path fill="none" stroke="midnightblue" d="M588.52,-397.5C603.5,-397.5 620.12,-397.5 635.7,-397.5"/>
<polygon fill="midnightblue" stroke="midnightblue" points="635.77,-401 645.77,-397.5 635.77,-394 635.77,-401"/>
</g>
<!-- Node11 -->
<g id="node11" class="node">
<title>Node11</title>
<g id="a_node11"><a xlink:href="namespaceft_1_1irc_1_1__internal.html#aa76c3a369f64725f8b2b52b2131c1111" target="_top" xlink:title=" ">
<polygon fill="white" stroke="black" points="783,-382.5 783,-412.5 873,-412.5 873,-382.5 783,-382.5"/>
<text text-anchor="start" x="791" y="-400.5" font-family="Helvetica,sans-Serif" font-size="10.00">ft::irc::_internal</text>
<text text-anchor="middle" x="828" y="-389.5" font-family="Helvetica,sans-Serif" font-size="10.00">::_to_lower</text>
</a>
</g>
</g>
<!-- Node10&#45;&gt;Node11 -->
<g id="edge10" class="edge">
<title>Node10&#45;&gt;Node11</title>
<path fill="none" stroke="midnightblue" d="M747.2,-397.5C755.51,-397.5 764.18,-397.5 772.61,-397.5"/>
<polygon fill="midnightblue" stroke="midnightblue" points="772.73,-401 782.73,-397.5 772.73,-394 772.73,-401"/>
</g>
<!-- Node14&#45;&gt;Node9 -->
<g id="edge14" class="edge">
<title>Node14&#45;&gt;Node9</title>
<path fill="none" stroke="midnightblue" d="M408.28,-265.11C415.85,-267.82 423.41,-271.22 430,-275.5 469.91,-301.41 503.74,-346.24 522.13,-373.74"/>
<polygon fill="midnightblue" stroke="midnightblue" points="519.36,-375.9 527.77,-382.35 525.22,-372.07 519.36,-375.9"/>
</g>
<!-- Node16 -->
<g id="node16" class="node">
<title>Node16</title>
<g id="a_node16"><a xlink:href="namespaceft_1_1irc_1_1__internal.html#ac421a738f6d955bab8b862fca8bd7159" target="_top" xlink:title=" ">
<polygon fill="white" stroke="black" points="493,-196.5 493,-226.5 583,-226.5 583,-196.5 493,-196.5"/>
<text text-anchor="start" x="501" y="-214.5" font-family="Helvetica,sans-Serif" font-size="10.00">ft::irc::_internal</text>
<text text-anchor="middle" x="538" y="-203.5" font-family="Helvetica,sans-Serif" font-size="10.00">::_is_except</text>
</a>
</g>
</g>
<!-- Node15&#45;&gt;Node16 -->
<g id="edge16" class="edge">
<title>Node15&#45;&gt;Node16</title>
<path fill="none" stroke="midnightblue" d="M430.34,-211.5C447.62,-211.5 466.11,-211.5 482.75,-211.5"/>
<polygon fill="midnightblue" stroke="midnightblue" points="482.86,-215 492.86,-211.5 482.86,-208 482.86,-215"/>
</g>
<!-- Node21&#45;&gt;Node9 -->
<g id="edge22" class="edge">
<title>Node21&#45;&gt;Node9</title>
<path fill="none" stroke="midnightblue" d="M403.57,-469.97C412.4,-467.3 421.65,-464.12 430,-460.5 456.99,-448.79 485.62,-431.66 506.47,-418.21"/>
<polygon fill="midnightblue" stroke="midnightblue" points="508.44,-421.1 514.9,-412.7 504.61,-415.24 508.44,-421.1"/>
</g>
</g>
</svg>
