<?xml version="1.0" encoding="UTF-8" standalone="no"?>
<!DOCTYPE svg PUBLIC "-//W3C//DTD SVG 1.1//EN"
 "http://www.w3.org/Graphics/SVG/1.1/DTD/svg11.dtd">
<!-- Generated by graphviz version 2.43.0 (0)
 -->
<!-- Title: ft::irc::processor_topic::execute Pages: 1 -->
<!--zoomable 619 -->
<svg id="main" version="1.1" xmlns="http://www.w3.org/2000/svg" xmlns:xlink="http://www.w3.org/1999/xlink" xml:space="preserve" onload="init(evt)">
<style type="text/css"><![CDATA[
.edge:hover path { stroke: red; }
.edge:hover polygon { stroke: red; fill: red; }
]]></style>
<script type="text/javascript"><![CDATA[
var edges = document.getElementsByTagName('g');
if (edges && edges.length) {
  for (var i=0;i<edges.length;i++) {
    if (edges[i].id.substr(0,4)=='edge') {
      edges[i].setAttribute('class','edge');
    }
  }
}
]]></script>
        <defs>
                <circle id="rim" cx="0" cy="0" r="7"/>
                <circle id="rim2" cx="0" cy="0" r="3.5"/>
                <g id="zoomPlus">
                        <use xlink:href="#rim" fill="#404040">
                                <set attributeName="fill" to="#808080" begin="zoomplus.mouseover" end="zoomplus.mouseout"/>
                        </use>
                        <path d="M-4,0h8M0,-4v8" fill="none" stroke="white" stroke-width="1.5" pointer-events="none"/>
                </g>
                <g id="zoomMin">
                        <use xlink:href="#rim" fill="#404040">
                                <set attributeName="fill" to="#808080" begin="zoomminus.mouseover" end="zoomminus.mouseout"/>
                        </use>
                        <path d="M-4,0h8" fill="none" stroke="white" stroke-width="1.5" pointer-events="none"/>
                </g>
                <g id="dirArrow">
                        <path fill="none" stroke="white" stroke-width="1.5" d="M0,-3.0v7 M-2.5,-0.5L0,-3.0L2.5,-0.5"/>
                </g>
               <g id="resetDef">
                       <use xlink:href="#rim2" fill="#404040">
                               <set attributeName="fill" to="#808080" begin="reset.mouseover" end="reset.mouseout"/>
                       </use>
               </g>
        </defs>

<script type="text/javascript">
var viewWidth = 300;
var viewHeight = 619;
var sectionId = 'dynsection-2';
</script>
<script xlink:href="svgpan.js"/>
<svg id="graph" class="graph">
<g id="viewport">
<title>ft::irc::processor_topic::execute</title>
<polygon fill="white" stroke="transparent" points="-4,4 -4,-614.5 296,-614.5 296,4 -4,4"/>
<!-- Node1 -->
<g id="node1" class="node">
<title>Node1</title>
<g id="a_node1"><a xlink:title=" ">
<polygon fill="#bfbfbf" stroke="black" points="0,-284.5 0,-314.5 95,-314.5 95,-284.5 0,-284.5"/>
<text text-anchor="start" x="8" y="-302.5" font-family="Helvetica,sans-Serif" font-size="10.00">ft::irc::processor</text>
<text text-anchor="middle" x="47.5" y="-291.5" font-family="Helvetica,sans-Serif" font-size="10.00">_topic::execute</text>
</a>
</g>
</g>
<!-- Node2 -->
<g id="node2" class="node">
<title>Node2</title>
<g id="a_node2"><a xlink:href="classft_1_1irc_1_1channel.html#a4250c6f755016a2f80ae04de5ffed80f" target="_top" xlink:title=" ">
<polygon fill="white" stroke="black" points="141.5,-591 141.5,-610 281.5,-610 281.5,-591 141.5,-591"/>
<text text-anchor="middle" x="211.5" y="-598" font-family="Helvetica,sans-Serif" font-size="10.00">ft::irc::channel::broadcast</text>
</a>
</g>
</g>
<!-- Node1&#45;&gt;Node2 -->
<g id="edge1" class="edge">
<title>Node1&#45;&gt;Node2</title>
<path fill="none" stroke="midnightblue" d="M48.03,-314.69C47.46,-361.8 52.46,-506.79 131,-581.5 132.5,-582.93 134.1,-584.26 135.76,-585.49"/>
<polygon fill="midnightblue" stroke="midnightblue" points="134.26,-588.68 144.62,-590.91 137.91,-582.71 134.26,-588.68"/>
</g>
<!-- Node3 -->
<g id="node3" class="node">
<title>Node3</title>
<g id="a_node3"><a xlink:href="classft_1_1irc_1_1channel.html#a19309fc55536d05d94761a698d45eebd" target="_top" xlink:title=" ">
<polygon fill="white" stroke="black" points="148,-541.5 148,-571.5 275,-571.5 275,-541.5 148,-541.5"/>
<text text-anchor="start" x="156" y="-559.5" font-family="Helvetica,sans-Serif" font-size="10.00">ft::irc::channel::change</text>
<text text-anchor="middle" x="211.5" y="-548.5" font-family="Helvetica,sans-Serif" font-size="10.00">_topic</text>
</a>
</g>
</g>
<!-- Node1&#45;&gt;Node3 -->
<g id="edge2" class="edge">
<title>Node1&#45;&gt;Node3</title>
<path fill="none" stroke="midnightblue" d="M49.38,-314.7C52.6,-355.76 67.13,-469.95 131,-531.5 133.45,-533.86 136.12,-536 138.94,-537.93"/>
<polygon fill="midnightblue" stroke="midnightblue" points="137.45,-541.11 147.85,-543.15 140.99,-535.07 137.45,-541.11"/>
</g>
<!-- Node4 -->
<g id="node4" class="node">
<title>Node4</title>
<g id="a_node4"><a xlink:href="structft_1_1irc_1_1make__error.html#aca1c9bea6c7e51af32e12989b1ff36fd" target="_top" xlink:title=" ">
<polygon fill="white" stroke="black" points="131,-481 131,-522 292,-522 292,-481 131,-481"/>
<text text-anchor="start" x="139" y="-510" font-family="Helvetica,sans-Serif" font-size="10.00">ft::irc::make_error</text>
<text text-anchor="start" x="139" y="-499" font-family="Helvetica,sans-Serif" font-size="10.00">::channel_operator_privileges</text>
<text text-anchor="middle" x="211.5" y="-488" font-family="Helvetica,sans-Serif" font-size="10.00">_needed</text>
</a>
</g>
</g>
<!-- Node1&#45;&gt;Node4 -->
<g id="edge3" class="edge">
<title>Node1&#45;&gt;Node4</title>
<path fill="none" stroke="midnightblue" d="M51.72,-314.66C59.52,-347.73 82.43,-426.95 131,-471.5 132.31,-472.7 133.67,-473.85 135.07,-474.96"/>
<polygon fill="midnightblue" stroke="midnightblue" points="133.34,-478.02 143.56,-480.83 137.33,-472.26 133.34,-478.02"/>
</g>
<!-- Node5 -->
<g id="node5" class="node">
<title>Node5</title>
<g id="a_node5"><a xlink:href="classft_1_1irc_1_1server.html#a0e7dee7efef3f36af15d1a3b97f3bad9" target="_top" xlink:title=" ">
<polygon fill="white" stroke="black" points="160.5,-431.5 160.5,-461.5 262.5,-461.5 262.5,-431.5 160.5,-431.5"/>
<text text-anchor="start" x="168.5" y="-449.5" font-family="Helvetica,sans-Serif" font-size="10.00">ft::irc::server::find</text>
<text text-anchor="middle" x="211.5" y="-438.5" font-family="Helvetica,sans-Serif" font-size="10.00">_channel</text>
</a>
</g>
</g>
<!-- Node1&#45;&gt;Node5 -->
<g id="edge4" class="edge">
<title>Node1&#45;&gt;Node5</title>
<path fill="none" stroke="midnightblue" d="M54.64,-314.84C65.86,-340.9 92.13,-393.76 131,-422.5 136.9,-426.86 143.59,-430.44 150.53,-433.36"/>
<polygon fill="midnightblue" stroke="midnightblue" points="149.5,-436.72 160.1,-436.97 151.98,-430.17 149.5,-436.72"/>
</g>
<!-- Node6 -->
<g id="node6" class="node">
<title>Node6</title>
<g id="a_node6"><a xlink:href="classft_1_1irc_1_1user.html#ae476cc31795df7fbb726b193ab887e75" target="_top" xlink:title=" ">
<polygon fill="white" stroke="black" points="166.5,-382.5 166.5,-412.5 256.5,-412.5 256.5,-382.5 166.5,-382.5"/>
<text text-anchor="start" x="174.5" y="-400.5" font-family="Helvetica,sans-Serif" font-size="10.00">ft::irc::user::get</text>
<text text-anchor="middle" x="211.5" y="-389.5" font-family="Helvetica,sans-Serif" font-size="10.00">_server</text>
</a>
</g>
</g>
<!-- Node1&#45;&gt;Node6 -->
<g id="edge5" class="edge">
<title>Node1&#45;&gt;Node6</title>
<path fill="none" stroke="midnightblue" d="M61.6,-314.7C76.74,-331.38 103.16,-357.85 131,-373.5 138.94,-377.96 147.8,-381.68 156.64,-384.76"/>
<polygon fill="midnightblue" stroke="midnightblue" points="155.59,-388.1 166.19,-387.84 157.75,-381.44 155.59,-388.1"/>
</g>
<!-- Node7 -->
<g id="node7" class="node">
<title>Node7</title>
<g id="a_node7"><a xlink:href="classft_1_1irc_1_1channel.html#a9dc33679c51d9af9cc251bbdac49f30c" target="_top" xlink:title=" ">
<polygon fill="white" stroke="black" points="155,-333.5 155,-363.5 268,-363.5 268,-333.5 155,-333.5"/>
<text text-anchor="start" x="163" y="-351.5" font-family="Helvetica,sans-Serif" font-size="10.00">ft::irc::channel::load</text>
<text text-anchor="middle" x="211.5" y="-340.5" font-family="Helvetica,sans-Serif" font-size="10.00">_topic</text>
</a>
</g>
</g>
<!-- Node1&#45;&gt;Node7 -->
<g id="edge6" class="edge">
<title>Node1&#45;&gt;Node7</title>
<path fill="none" stroke="midnightblue" d="M95.18,-313.66C106.88,-317.2 119.4,-320.99 131,-324.5 137.4,-326.43 144.09,-328.46 150.75,-330.47"/>
<polygon fill="midnightblue" stroke="midnightblue" points="149.87,-333.86 160.46,-333.4 151.89,-327.16 149.87,-333.86"/>
</g>
<!-- Node8 -->
<g id="node8" class="node">
<title>Node8</title>
<g id="a_node8"><a xlink:href="structft_1_1irc_1_1make__error.html#a8ad003c713b8ee5ebbf4691dd2be83fe" target="_top" xlink:title=" ">
<polygon fill="white" stroke="black" points="158.5,-284.5 158.5,-314.5 264.5,-314.5 264.5,-284.5 158.5,-284.5"/>
<text text-anchor="start" x="166.5" y="-302.5" font-family="Helvetica,sans-Serif" font-size="10.00">ft::irc::make_error</text>
<text text-anchor="middle" x="211.5" y="-291.5" font-family="Helvetica,sans-Serif" font-size="10.00">::no_such_channel</text>
</a>
</g>
</g>
<!-- Node1&#45;&gt;Node8 -->
<g id="edge7" class="edge">
<title>Node1&#45;&gt;Node8</title>
<path fill="none" stroke="midnightblue" d="M95.36,-299.5C111.84,-299.5 130.63,-299.5 148.18,-299.5"/>
<polygon fill="midnightblue" stroke="midnightblue" points="148.35,-303 158.35,-299.5 148.35,-296 148.35,-303"/>
</g>
<!-- Node9 -->
<g id="node9" class="node">
<title>Node9</title>
<g id="a_node9"><a xlink:href="structft_1_1irc_1_1make__reply.html#a5f4e76b2d18a4ef47181e986720325f0" target="_top" xlink:title=" ">
<polygon fill="white" stroke="black" points="159.5,-235.5 159.5,-265.5 263.5,-265.5 263.5,-235.5 159.5,-235.5"/>
<text text-anchor="start" x="167.5" y="-253.5" font-family="Helvetica,sans-Serif" font-size="10.00">ft::irc::make_reply</text>
<text text-anchor="middle" x="211.5" y="-242.5" font-family="Helvetica,sans-Serif" font-size="10.00">::no_topic</text>
</a>
</g>
</g>
<!-- Node1&#45;&gt;Node9 -->
<g id="edge8" class="edge">
<title>Node1&#45;&gt;Node9</title>
<path fill="none" stroke="midnightblue" d="M95.36,-285.33C112.7,-280.08 132.61,-274.06 150.94,-268.52"/>
<polygon fill="midnightblue" stroke="midnightblue" points="152.08,-271.83 160.64,-265.58 150.06,-265.13 152.08,-271.83"/>
</g>
<!-- Node10 -->
<g id="node10" class="node">
<title>Node10</title>
<g id="a_node10"><a xlink:href="structft_1_1irc_1_1make__error.html#a85c1af0e7b2940c1aff650d1a78b9847" target="_top" xlink:title=" ">
<polygon fill="white" stroke="black" points="160,-186.5 160,-216.5 263,-216.5 263,-186.5 160,-186.5"/>
<text text-anchor="start" x="168" y="-204.5" font-family="Helvetica,sans-Serif" font-size="10.00">ft::irc::make_error</text>
<text text-anchor="middle" x="211.5" y="-193.5" font-family="Helvetica,sans-Serif" font-size="10.00">::not_on_channel</text>
</a>
</g>
</g>
<!-- Node1&#45;&gt;Node10 -->
<g id="edge9" class="edge">
<title>Node1&#45;&gt;Node10</title>
<path fill="none" stroke="midnightblue" d="M61.95,-284.27C77.2,-267.87 103.53,-242.03 131,-226.5 137.01,-223.1 143.54,-220.1 150.19,-217.47"/>
<polygon fill="midnightblue" stroke="midnightblue" points="151.79,-220.61 159.96,-213.88 149.37,-214.04 151.79,-220.61"/>
</g>
<!-- Node11 -->
<g id="node11" class="node">
<title>Node11</title>
<g id="a_node11"><a xlink:href="classft_1_1irc_1_1message.html#a34f457ead0453ad914af2cb0482a40b9" target="_top" xlink:title=" ">
<polygon fill="white" stroke="black" points="134.5,-148 134.5,-167 288.5,-167 288.5,-148 134.5,-148"/>
<text text-anchor="middle" x="211.5" y="-155" font-family="Helvetica,sans-Serif" font-size="10.00">ft::irc::message::param_size</text>
</a>
</g>
</g>
<!-- Node1&#45;&gt;Node11 -->
<g id="edge10" class="edge">
<title>Node1&#45;&gt;Node11</title>
<path fill="none" stroke="midnightblue" d="M54.54,-284.09C65.6,-257.95 91.64,-205.09 131,-177.5 134.47,-175.06 138.22,-172.93 142.12,-171.05"/>
<polygon fill="midnightblue" stroke="midnightblue" points="143.6,-174.22 151.46,-167.12 140.89,-167.77 143.6,-174.22"/>
</g>
<!-- Node12 -->
<g id="node12" class="node">
<title>Node12</title>
<g id="a_node12"><a xlink:href="structft_1_1irc_1_1make__reply.html#a5bc514d5b05cc15d799aba1944a18386" target="_top" xlink:title=" ">
<polygon fill="white" stroke="black" points="159.5,-98.5 159.5,-128.5 263.5,-128.5 263.5,-98.5 159.5,-98.5"/>
<text text-anchor="start" x="167.5" y="-116.5" font-family="Helvetica,sans-Serif" font-size="10.00">ft::irc::make_reply</text>
<text text-anchor="middle" x="211.5" y="-105.5" font-family="Helvetica,sans-Serif" font-size="10.00">::replicate</text>
</a>
</g>
</g>
<!-- Node1&#45;&gt;Node12 -->
<g id="edge11" class="edge">
<title>Node1&#45;&gt;Node12</title>
<path fill="none" stroke="midnightblue" d="M52.09,-284.15C60.35,-252.23 83.72,-178.41 131,-138.5 136.63,-133.75 143.15,-129.9 150.01,-126.79"/>
<polygon fill="midnightblue" stroke="midnightblue" points="151.52,-129.95 159.49,-122.97 148.91,-123.45 151.52,-129.95"/>
</g>
<!-- Node13 -->
<g id="node13" class="node">
<title>Node13</title>
<g id="a_node13"><a xlink:href="classft_1_1irc_1_1user.html#a1db558d6d694ca943224c2440fe36c50" target="_top" xlink:title=" ">
<polygon fill="white" stroke="black" points="162.5,-49.5 162.5,-79.5 260.5,-79.5 260.5,-49.5 162.5,-49.5"/>
<text text-anchor="start" x="170.5" y="-67.5" font-family="Helvetica,sans-Serif" font-size="10.00">ft::irc::user::send</text>
<text text-anchor="middle" x="211.5" y="-56.5" font-family="Helvetica,sans-Serif" font-size="10.00">_message</text>
</a>
</g>
</g>
<!-- Node1&#45;&gt;Node13 -->
<g id="edge12" class="edge">
<title>Node1&#45;&gt;Node13</title>
<path fill="none" stroke="midnightblue" d="M50.03,-284.34C54.7,-245.98 72.28,-144.27 131,-89.5 137.24,-83.68 144.81,-79.22 152.79,-75.8"/>
<polygon fill="midnightblue" stroke="midnightblue" points="154.14,-79.03 162.27,-72.23 151.68,-72.47 154.14,-79.03"/>
</g>
<!-- Node14 -->
<g id="node14" class="node">
<title>Node14</title>
<g id="a_node14"><a xlink:href="structft_1_1irc_1_1make__reply.html#a39ce3be333c36d7d0ce54cfc7ef59451" target="_top" xlink:title=" ">
<polygon fill="white" stroke="black" points="159.5,-0.5 159.5,-30.5 263.5,-30.5 263.5,-0.5 159.5,-0.5"/>
<text text-anchor="start" x="167.5" y="-18.5" font-family="Helvetica,sans-Serif" font-size="10.00">ft::irc::make_reply</text>
<text text-anchor="middle" x="211.5" y="-7.5" font-family="Helvetica,sans-Serif" font-size="10.00">::topic</text>
</a>
</g>
</g>
<!-- Node1&#45;&gt;Node14 -->
<g id="edge13" class="edge">
<title>Node1&#45;&gt;Node14</title>
<path fill="none" stroke="midnightblue" d="M48.73,-284.19C50.25,-239.92 60.8,-110.45 131,-40.5 136.36,-35.16 142.84,-30.97 149.76,-27.66"/>
<polygon fill="midnightblue" stroke="midnightblue" points="151.5,-30.73 159.41,-23.69 148.83,-24.26 151.5,-30.73"/>
</g>
</g>
</svg>
        <g id="navigator" transform="translate(0 0)" fill="#404254">
                <rect fill="#f2f5e9" fill-opacity="0.5" stroke="#606060" stroke-width=".5" x="0" y="0" width="60" height="60"/>
                <use id="zoomplus" xlink:href="#zoomPlus" x="17" y="9" onmousedown="handleZoom(evt,'in')"/>
                <use id="zoomminus" xlink:href="#zoomMin" x="42" y="9" onmousedown="handleZoom(evt,'out')"/>
                <use id="reset" xlink:href="#resetDef" x="30" y="36" onmousedown="handleReset()"/>
                <g id="arrowUp" xlink:href="#dirArrow" transform="translate(30 24)" onmousedown="handlePan(0,-1)">
                  <use xlink:href="#rim" fill="#404040">
                        <set attributeName="fill" to="#808080" begin="arrowUp.mouseover" end="arrowUp.mouseout"/>
                  </use>
                  <path fill="none" stroke="white" stroke-width="1.5" d="M0,-3.0v7 M-2.5,-0.5L0,-3.0L2.5,-0.5"/>
                </g>
                <g id="arrowRight" xlink:href="#dirArrow" transform="rotate(90) translate(36 -43)" onmousedown="handlePan(1,0)">
                  <use xlink:href="#rim" fill="#404040">
                        <set attributeName="fill" to="#808080" begin="arrowRight.mouseover" end="arrowRight.mouseout"/>
                  </use>
                  <path fill="none" stroke="white" stroke-width="1.5" d="M0,-3.0v7 M-2.5,-0.5L0,-3.0L2.5,-0.5"/>
                </g>
                <g id="arrowDown" xlink:href="#dirArrow" transform="rotate(180) translate(-30 -48)" onmousedown="handlePan(0,1)">
                  <use xlink:href="#rim" fill="#404040">
                        <set attributeName="fill" to="#808080" begin="arrowDown.mouseover" end="arrowDown.mouseout"/>
                  </use>
                  <path fill="none" stroke="white" stroke-width="1.5" d="M0,-3.0v7 M-2.5,-0.5L0,-3.0L2.5,-0.5"/>
                </g>
                <g id="arrowLeft" xlink:href="#dirArrow" transform="rotate(270) translate(-36 17)" onmousedown="handlePan(-1,0)">
                  <use xlink:href="#rim" fill="#404040">
                        <set attributeName="fill" to="#808080" begin="arrowLeft.mouseover" end="arrowLeft.mouseout"/>
                  </use>
                  <path fill="none" stroke="white" stroke-width="1.5" d="M0,-3.0v7 M-2.5,-0.5L0,-3.0L2.5,-0.5"/>
                </g>
        </g>
        <svg viewBox="0 0 15 15" width="100%" height="30px" preserveAspectRatio="xMaxYMin meet">
         <g id="arrow_out" transform="scale(0.3 0.3)">
          <a xlink:href="classft_1_1irc_1_1processor__topic_ae4eec2a7267b66791a72bbab1d4842c0_cgraph_org.svg" target="_base">
           <rect id="button" ry="5" rx="5" y="6" x="6" height="38" width="38"
                fill="#f2f5e9" fill-opacity="0.5" stroke="#606060" stroke-width="1.0"/>
           <path id="arrow"
             d="M 11.500037,31.436501 C 11.940474,20.09759 22.043105,11.32322 32.158766,21.979434 L 37.068811,17.246167 C 37.068811,17.246167 37.088388,32 37.088388,32 L 22.160133,31.978069 C 22.160133,31.978069 26.997745,27.140456 26.997745,27.140456 C 18.528582,18.264221 13.291696,25.230495 11.500037,31.436501 z"
             style="fill:#404040;"/>
          </a>
         </g>
        </svg>
</svg>
