<?xml version="1.0" encoding="UTF-8" standalone="no"?>
<!DOCTYPE svg PUBLIC "-//W3C//DTD SVG 1.1//EN"
 "http://www.w3.org/Graphics/SVG/1.1/DTD/svg11.dtd">
<!-- Generated by graphviz version 2.43.0 (0)
 -->
<!-- Title: ft::irc::user::send_message Pages: 1 -->
<svg width="574pt" height="670pt"
 viewBox="0.00 0.00 574.00 670.09" xmlns="http://www.w3.org/2000/svg" xmlns:xlink="http://www.w3.org/1999/xlink">
<g id="graph0" class="graph" transform="scale(1 1) rotate(0) translate(4 666.09)">
<title>ft::irc::user::send_message</title>
<polygon fill="white" stroke="transparent" points="-4,4 -4,-666.09 570,-666.09 570,4 -4,4"/>
<!-- Node1 -->
<g id="node1" class="node">
<title>Node1</title>
<g id="a_node1"><a xlink:title=" ">
<polygon fill="#bfbfbf" stroke="black" points="468,-318.5 468,-348.5 566,-348.5 566,-318.5 468,-318.5"/>
<text text-anchor="start" x="476" y="-336.5" font-family="Helvetica,sans-Serif" font-size="10.00">ft::irc::user::send</text>
<text text-anchor="middle" x="517" y="-325.5" font-family="Helvetica,sans-Serif" font-size="10.00">_message</text>
</a>
</g>
</g>
<!-- Node2 -->
<g id="node2" class="node">
<title>Node2</title>
<g id="a_node2"><a xlink:href="classft_1_1irc_1_1server.html#a773440405607167a9478a54fd8ab90f3" target="_top" xlink:title=" ">
<polygon fill="white" stroke="black" points="283,-603 283,-622 432,-622 432,-603 283,-603"/>
<text text-anchor="middle" x="357.5" y="-610" font-family="Helvetica,sans-Serif" font-size="10.00">ft::irc::server::broadcast_all</text>
</a>
</g>
</g>
<!-- Node1&#45;&gt;Node2 -->
<g id="edge1" class="edge">
<title>Node1&#45;&gt;Node2</title>
<path fill="none" stroke="midnightblue" d="M515.49,-358.73C513.03,-410.58 499.85,-529.57 432,-593.5 427.88,-597.39 423.06,-600.5 417.91,-603"/>
<polygon fill="midnightblue" stroke="midnightblue" points="518.99,-358.86 515.87,-348.73 511.99,-358.59 518.99,-358.86"/>
</g>
<!-- Node3 -->
<g id="node3" class="node">
<title>Node3</title>
<g id="a_node3"><a xlink:href="classft_1_1irc_1_1processor__oper.html#a941691cbab81d134cb4ffc30bd270d04" target="_top" xlink:title=" ">
<polygon fill="white" stroke="black" points="141.5,-620.5 141.5,-650.5 236.5,-650.5 236.5,-620.5 141.5,-620.5"/>
<text text-anchor="start" x="149.5" y="-638.5" font-family="Helvetica,sans-Serif" font-size="10.00">ft::irc::processor</text>
<text text-anchor="middle" x="189" y="-627.5" font-family="Helvetica,sans-Serif" font-size="10.00">_oper::execute</text>
</a>
</g>
</g>
<!-- Node1&#45;&gt;Node3 -->
<g id="edge13" class="edge">
<title>Node1&#45;&gt;Node3</title>
<path fill="none" stroke="midnightblue" d="M512.73,-358.77C503.67,-424.42 475.98,-597.63 432,-631.5 376.24,-674.45 289.84,-662.91 236.78,-649.79"/>
<polygon fill="midnightblue" stroke="midnightblue" points="516.25,-358.88 514.12,-348.5 509.31,-357.95 516.25,-358.88"/>
</g>
<!-- Node4 -->
<g id="node4" class="node">
<title>Node4</title>
<g id="a_node4"><a xlink:href="classft_1_1irc_1_1processor__dictionary.html#a50bd8e9f89f6f6a911f5495272cd7d41" target="_top" xlink:title=" ">
<polygon fill="white" stroke="black" points="300.5,-553.5 300.5,-583.5 414.5,-583.5 414.5,-553.5 300.5,-553.5"/>
<text text-anchor="start" x="308.5" y="-571.5" font-family="Helvetica,sans-Serif" font-size="10.00">ft::irc::processor</text>
<text text-anchor="middle" x="357.5" y="-560.5" font-family="Helvetica,sans-Serif" font-size="10.00">_dictionary::execute</text>
</a>
</g>
</g>
<!-- Node1&#45;&gt;Node4 -->
<g id="edge3" class="edge">
<title>Node1&#45;&gt;Node4</title>
<path fill="none" stroke="midnightblue" d="M512.16,-358.62C504.41,-401.11 483.07,-487.5 432,-538.5 425.95,-544.54 418.52,-549.41 410.74,-553.33"/>
<polygon fill="midnightblue" stroke="midnightblue" points="515.64,-359.02 513.88,-348.58 508.74,-357.84 515.64,-359.02"/>
</g>
<!-- Node6 -->
<g id="node6" class="node">
<title>Node6</title>
<g id="a_node6"><a xlink:href="classft_1_1irc_1_1processor__join.html#a7005b0403c1e6e10aa6f6f05339df357" target="_top" xlink:title=" ">
<polygon fill="white" stroke="black" points="141.5,-506.5 141.5,-536.5 236.5,-536.5 236.5,-506.5 141.5,-506.5"/>
<text text-anchor="start" x="149.5" y="-524.5" font-family="Helvetica,sans-Serif" font-size="10.00">ft::irc::processor</text>
<text text-anchor="middle" x="189" y="-513.5" font-family="Helvetica,sans-Serif" font-size="10.00">_join::execute</text>
</a>
</g>
</g>
<!-- Node1&#45;&gt;Node6 -->
<g id="edge5" class="edge">
<title>Node1&#45;&gt;Node6</title>
<path fill="none" stroke="midnightblue" d="M511.82,-358.75C503.89,-397.69 482.69,-471.47 432,-505.5 373.8,-544.58 288.93,-539.59 236.71,-531.33"/>
<polygon fill="midnightblue" stroke="midnightblue" points="515.29,-359.23 513.71,-348.75 508.41,-357.92 515.29,-359.23"/>
</g>
<!-- Node7 -->
<g id="node7" class="node">
<title>Node7</title>
<g id="a_node7"><a xlink:href="classft_1_1irc_1_1processor__part.html#a4075107cb360cd04c0a11a9904104ad0" target="_top" xlink:title=" ">
<polygon fill="white" stroke="black" points="310,-416.5 310,-446.5 405,-446.5 405,-416.5 310,-416.5"/>
<text text-anchor="start" x="318" y="-434.5" font-family="Helvetica,sans-Serif" font-size="10.00">ft::irc::processor</text>
<text text-anchor="middle" x="357.5" y="-423.5" font-family="Helvetica,sans-Serif" font-size="10.00">_part::execute</text>
</a>
</g>
</g>
<!-- Node1&#45;&gt;Node7 -->
<g id="edge6" class="edge">
<title>Node1&#45;&gt;Node7</title>
<path fill="none" stroke="midnightblue" d="M495.34,-356.09C479.4,-372.35 456.08,-393.75 432,-407.5 423.72,-412.23 414.38,-416.18 405.21,-419.42"/>
<polygon fill="midnightblue" stroke="midnightblue" points="498.15,-358.22 502.54,-348.57 493.09,-353.37 498.15,-358.22"/>
</g>
<!-- Node8 -->
<g id="node8" class="node">
<title>Node8</title>
<g id="a_node8"><a xlink:href="classft_1_1irc_1_1processor__topic.html#ae4eec2a7267b66791a72bbab1d4842c0" target="_top" xlink:title=" ">
<polygon fill="white" stroke="black" points="310,-367.5 310,-397.5 405,-397.5 405,-367.5 310,-367.5"/>
<text text-anchor="start" x="318" y="-385.5" font-family="Helvetica,sans-Serif" font-size="10.00">ft::irc::processor</text>
<text text-anchor="middle" x="357.5" y="-374.5" font-family="Helvetica,sans-Serif" font-size="10.00">_topic::execute</text>
</a>
</g>
</g>
<!-- Node1&#45;&gt;Node8 -->
<g id="edge7" class="edge">
<title>Node1&#45;&gt;Node8</title>
<path fill="none" stroke="midnightblue" d="M457.87,-351.58C440.53,-356.98 421.75,-362.82 405.24,-367.96"/>
<polygon fill="midnightblue" stroke="midnightblue" points="459.38,-354.78 467.89,-348.47 457.3,-348.1 459.38,-354.78"/>
</g>
<!-- Node9 -->
<g id="node9" class="node">
<title>Node9</title>
<g id="a_node9"><a xlink:href="classft_1_1irc_1_1processor__invite.html#a558fbe35293f4a0783af9a50f7146eeb" target="_top" xlink:title=" ">
<polygon fill="white" stroke="black" points="310,-318.5 310,-348.5 405,-348.5 405,-318.5 310,-318.5"/>
<text text-anchor="start" x="318" y="-336.5" font-family="Helvetica,sans-Serif" font-size="10.00">ft::irc::processor</text>
<text text-anchor="middle" x="357.5" y="-325.5" font-family="Helvetica,sans-Serif" font-size="10.00">_invite::execute</text>
</a>
</g>
</g>
<!-- Node1&#45;&gt;Node9 -->
<g id="edge8" class="edge">
<title>Node1&#45;&gt;Node9</title>
<path fill="none" stroke="midnightblue" d="M457.87,-333.5C440.53,-333.5 421.75,-333.5 405.24,-333.5"/>
<polygon fill="midnightblue" stroke="midnightblue" points="457.89,-337 467.89,-333.5 457.89,-330 457.89,-337"/>
</g>
<!-- Node10 -->
<g id="node10" class="node">
<title>Node10</title>
<g id="a_node10"><a xlink:href="classft_1_1irc_1_1processor__kill.html#a3f41c93c4c3a85ccb4b034c5a185208a" target="_top" xlink:title=" ">
<polygon fill="white" stroke="black" points="310,-269.5 310,-299.5 405,-299.5 405,-269.5 310,-269.5"/>
<text text-anchor="start" x="318" y="-287.5" font-family="Helvetica,sans-Serif" font-size="10.00">ft::irc::processor</text>
<text text-anchor="middle" x="357.5" y="-276.5" font-family="Helvetica,sans-Serif" font-size="10.00">_kill::execute</text>
</a>
</g>
</g>
<!-- Node1&#45;&gt;Node10 -->
<g id="edge9" class="edge">
<title>Node1&#45;&gt;Node10</title>
<path fill="none" stroke="midnightblue" d="M457.87,-315.42C440.53,-310.02 421.75,-304.18 405.24,-299.04"/>
<polygon fill="midnightblue" stroke="midnightblue" points="457.3,-318.9 467.89,-318.53 459.38,-312.22 457.3,-318.9"/>
</g>
<!-- Node11 -->
<g id="node11" class="node">
<title>Node11</title>
<g id="a_node11"><a xlink:href="classft_1_1irc_1_1processor__pass.html#a8b0f8638123bb81ce8f4e493e43b45a0" target="_top" xlink:title=" ">
<polygon fill="white" stroke="black" points="310,-220.5 310,-250.5 405,-250.5 405,-220.5 310,-220.5"/>
<text text-anchor="start" x="318" y="-238.5" font-family="Helvetica,sans-Serif" font-size="10.00">ft::irc::processor</text>
<text text-anchor="middle" x="357.5" y="-227.5" font-family="Helvetica,sans-Serif" font-size="10.00">_pass::execute</text>
</a>
</g>
</g>
<!-- Node1&#45;&gt;Node11 -->
<g id="edge10" class="edge">
<title>Node1&#45;&gt;Node11</title>
<path fill="none" stroke="midnightblue" d="M494.95,-311.03C478.96,-295.08 455.75,-274.15 432,-260.5 423.7,-255.73 414.35,-251.68 405.18,-248.33"/>
<polygon fill="midnightblue" stroke="midnightblue" points="492.68,-313.72 502.18,-318.41 497.68,-308.82 492.68,-313.72"/>
</g>
<!-- Node12 -->
<g id="node12" class="node">
<title>Node12</title>
<g id="a_node12"><a xlink:href="classft_1_1irc_1_1processor__nick.html#a7a2f0f709488328c04b6ccf0c41ce78e" target="_top" xlink:title=" ">
<polygon fill="white" stroke="black" points="0,-166.5 0,-196.5 95,-196.5 95,-166.5 0,-166.5"/>
<text text-anchor="start" x="8" y="-184.5" font-family="Helvetica,sans-Serif" font-size="10.00">ft::irc::processor</text>
<text text-anchor="middle" x="47.5" y="-173.5" font-family="Helvetica,sans-Serif" font-size="10.00">_nick::execute</text>
</a>
</g>
</g>
<!-- Node1&#45;&gt;Node12 -->
<g id="edge11" class="edge">
<title>Node1&#45;&gt;Node12</title>
<path fill="none" stroke="midnightblue" d="M506.74,-308.82C494.48,-279.95 469.87,-233.33 432,-211.5 375.88,-179.15 184.58,-178.6 95.21,-180.23"/>
<polygon fill="midnightblue" stroke="midnightblue" points="503.56,-310.28 510.57,-318.22 510.04,-307.64 503.56,-310.28"/>
</g>
<!-- Node13 -->
<g id="node13" class="node">
<title>Node13</title>
<g id="a_node13"><a xlink:href="classft_1_1irc_1_1processor__user.html#aa42b3fdd743060d5f9afaaff5e46e28f" target="_top" xlink:title=" ">
<polygon fill="white" stroke="black" points="0,-107.5 0,-137.5 95,-137.5 95,-107.5 0,-107.5"/>
<text text-anchor="start" x="8" y="-125.5" font-family="Helvetica,sans-Serif" font-size="10.00">ft::irc::processor</text>
<text text-anchor="middle" x="47.5" y="-114.5" font-family="Helvetica,sans-Serif" font-size="10.00">_user::execute</text>
</a>
</g>
</g>
<!-- Node1&#45;&gt;Node13 -->
<g id="edge12" class="edge">
<title>Node1&#45;&gt;Node13</title>
<path fill="none" stroke="midnightblue" d="M514.55,-308.37C510.38,-262.43 494.26,-165.77 432,-123.5 378.5,-87.18 185.39,-105.4 95.34,-116.31"/>
<polygon fill="midnightblue" stroke="midnightblue" points="511.06,-308.69 515.34,-318.38 518.04,-308.14 511.06,-308.69"/>
</g>
<!-- Node14 -->
<g id="node14" class="node">
<title>Node14</title>
<g id="a_node14"><a xlink:href="classft_1_1irc_1_1processor__message__base.html#ab3fba6f27483543b9c7a559fd2e1402b" target="_top" xlink:title=" ">
<polygon fill="white" stroke="black" points="288,-44.5 288,-74.5 427,-74.5 427,-44.5 288,-44.5"/>
<text text-anchor="start" x="296" y="-62.5" font-family="Helvetica,sans-Serif" font-size="10.00">ft::irc::processor</text>
<text text-anchor="middle" x="357.5" y="-51.5" font-family="Helvetica,sans-Serif" font-size="10.00">_message_base::execute</text>
</a>
</g>
</g>
<!-- Node1&#45;&gt;Node14 -->
<g id="edge14" class="edge">
<title>Node1&#45;&gt;Node14</title>
<path fill="none" stroke="midnightblue" d="M514.07,-308.18C509.06,-259.59 491.54,-152.47 432,-89.5 426.22,-83.39 419.03,-78.49 411.41,-74.57"/>
<polygon fill="midnightblue" stroke="midnightblue" points="510.61,-308.8 515.03,-318.43 517.58,-308.14 510.61,-308.8"/>
</g>
<!-- Node15 -->
<g id="node15" class="node">
<title>Node15</title>
<g id="a_node15"><a xlink:href="classft_1_1irc_1_1server.html#a3f4e06d5a9cf57441582f77b95f87135" target="_top" xlink:title=" ">
<polygon fill="white" stroke="black" points="293.5,-6 293.5,-25 421.5,-25 421.5,-6 293.5,-6"/>
<text text-anchor="middle" x="357.5" y="-13" font-family="Helvetica,sans-Serif" font-size="10.00">ft::irc::server::send_list</text>
</a>
</g>
</g>
<!-- Node1&#45;&gt;Node15 -->
<g id="edge15" class="edge">
<title>Node1&#45;&gt;Node15</title>
<path fill="none" stroke="midnightblue" d="M516.76,-308.16C517.02,-250.81 509.27,-110.17 432,-34.5 428.05,-30.63 423.41,-27.51 418.42,-25.01"/>
<polygon fill="midnightblue" stroke="midnightblue" points="513.26,-308.13 516.62,-318.17 520.26,-308.22 513.26,-308.13"/>
</g>
<!-- Node17 -->
<g id="node17" class="node">
<title>Node17</title>
<g id="a_node17"><a xlink:href="classft_1_1irc_1_1channel.html#a5b005d44090820196503e46e45724a51" target="_top" xlink:title=" ">
<polygon fill="white" stroke="black" points="300,-465.5 300,-495.5 415,-495.5 415,-465.5 300,-465.5"/>
<text text-anchor="start" x="308" y="-483.5" font-family="Helvetica,sans-Serif" font-size="10.00">ft::irc::channel::send</text>
<text text-anchor="middle" x="357.5" y="-472.5" font-family="Helvetica,sans-Serif" font-size="10.00">_names</text>
</a>
</g>
</g>
<!-- Node1&#45;&gt;Node17 -->
<g id="edge17" class="edge">
<title>Node1&#45;&gt;Node17</title>
<path fill="none" stroke="midnightblue" d="M505.23,-358.15C491.9,-385.91 466.63,-430.52 432,-456.5 426.85,-460.37 421.04,-463.63 415.01,-466.37"/>
<polygon fill="midnightblue" stroke="midnightblue" points="508.56,-359.29 509.6,-348.75 502.21,-356.34 508.56,-359.29"/>
</g>
<!-- Node19 -->
<g id="node19" class="node">
<title>Node19</title>
<g id="a_node19"><a xlink:href="classft_1_1irc_1_1server.html#a5ecd192da409f6740de44ea8cb3b44cf" target="_top" xlink:title=" ">
<polygon fill="white" stroke="black" points="304,-132.5 304,-162.5 411,-162.5 411,-132.5 304,-132.5"/>
<text text-anchor="start" x="312" y="-150.5" font-family="Helvetica,sans-Serif" font-size="10.00">ft::irc::server::send</text>
<text text-anchor="middle" x="357.5" y="-139.5" font-family="Helvetica,sans-Serif" font-size="10.00">_welcome</text>
</a>
</g>
</g>
<!-- Node1&#45;&gt;Node19 -->
<g id="edge20" class="edge">
<title>Node1&#45;&gt;Node19</title>
<path fill="none" stroke="midnightblue" d="M508.63,-308.86C497.32,-274.97 472.63,-214.03 432,-177.5 425.34,-171.51 417.32,-166.63 409.06,-162.68"/>
<polygon fill="midnightblue" stroke="midnightblue" points="505.32,-310 511.71,-318.45 511.98,-307.86 505.32,-310"/>
</g>
<!-- Node2&#45;&gt;Node3 -->
<g id="edge2" class="edge">
<title>Node2&#45;&gt;Node3</title>
<path fill="none" stroke="midnightblue" d="M277.32,-623.44C263.5,-625.35 249.52,-627.28 236.93,-629.02"/>
<polygon fill="midnightblue" stroke="midnightblue" points="277.91,-626.89 287.34,-622.05 276.95,-619.96 277.91,-626.89"/>
</g>
<!-- Node5 -->
<g id="node5" class="node">
<title>Node5</title>
<g id="a_node5"><a xlink:href="classft_1_1irc_1_1client__handler.html#a239d2ec2a936d74893455a83468669b3" target="_top" xlink:title=" ">
<polygon fill="white" stroke="black" points="131,-555.5 131,-585.5 247,-585.5 247,-555.5 131,-555.5"/>
<text text-anchor="start" x="139" y="-573.5" font-family="Helvetica,sans-Serif" font-size="10.00">ft::irc::client_handler</text>
<text text-anchor="middle" x="189" y="-562.5" font-family="Helvetica,sans-Serif" font-size="10.00">::on_read</text>
</a>
</g>
</g>
<!-- Node4&#45;&gt;Node5 -->
<g id="edge4" class="edge">
<title>Node4&#45;&gt;Node5</title>
<path fill="none" stroke="midnightblue" d="M289.96,-569.3C275.79,-569.47 260.94,-569.65 247.16,-569.81"/>
<polygon fill="midnightblue" stroke="midnightblue" points="290.17,-572.8 300.13,-569.18 290.09,-565.8 290.17,-572.8"/>
</g>
<!-- Node16 -->
<g id="node16" class="node">
<title>Node16</title>
<g id="a_node16"><a xlink:href="classft_1_1irc_1_1processor__list.html#aa4ed52d03d87a5f03d9c6d2e53e0409b" target="_top" xlink:title=" ">
<polygon fill="white" stroke="black" points="141.5,-0.5 141.5,-30.5 236.5,-30.5 236.5,-0.5 141.5,-0.5"/>
<text text-anchor="start" x="149.5" y="-18.5" font-family="Helvetica,sans-Serif" font-size="10.00">ft::irc::processor</text>
<text text-anchor="middle" x="189" y="-7.5" font-family="Helvetica,sans-Serif" font-size="10.00">_list::execute</text>
</a>
</g>
</g>
<!-- Node15&#45;&gt;Node16 -->
<g id="edge16" class="edge">
<title>Node15&#45;&gt;Node16</title>
<path fill="none" stroke="midnightblue" d="M282.86,-15.5C267.17,-15.5 251.02,-15.5 236.67,-15.5"/>
<polygon fill="midnightblue" stroke="midnightblue" points="283.08,-19 293.08,-15.5 283.08,-12 283.08,-19"/>
</g>
<!-- Node17&#45;&gt;Node6 -->
<g id="edge18" class="edge">
<title>Node17&#45;&gt;Node6</title>
<path fill="none" stroke="midnightblue" d="M289.89,-496.9C272.05,-501.3 253.14,-505.95 236.64,-510.02"/>
<polygon fill="midnightblue" stroke="midnightblue" points="290.79,-500.28 299.67,-494.5 289.12,-493.49 290.79,-500.28"/>
</g>
<!-- Node18 -->
<g id="node18" class="node">
<title>Node18</title>
<g id="a_node18"><a xlink:href="classft_1_1irc_1_1processor__names.html#a95f660c1020ac7f26cceacd932f48f09" target="_top" xlink:title=" ">
<polygon fill="white" stroke="black" points="139.5,-457.5 139.5,-487.5 238.5,-487.5 238.5,-457.5 139.5,-457.5"/>
<text text-anchor="start" x="147.5" y="-475.5" font-family="Helvetica,sans-Serif" font-size="10.00">ft::irc::processor</text>
<text text-anchor="middle" x="189" y="-464.5" font-family="Helvetica,sans-Serif" font-size="10.00">_names::execute</text>
</a>
</g>
</g>
<!-- Node17&#45;&gt;Node18 -->
<g id="edge19" class="edge">
<title>Node17&#45;&gt;Node18</title>
<path fill="none" stroke="midnightblue" d="M289.24,-477.27C272.27,-476.45 254.38,-475.59 238.53,-474.83"/>
<polygon fill="midnightblue" stroke="midnightblue" points="289.51,-480.79 299.67,-477.77 289.85,-473.79 289.51,-480.79"/>
</g>
<!-- Node20 -->
<g id="node20" class="node">
<title>Node20</title>
<g id="a_node20"><a xlink:href="classft_1_1irc_1_1user.html#affa6016f0c81205cd3c60ea6e9706132" target="_top" xlink:title=" ">
<polygon fill="white" stroke="black" points="133,-132.5 133,-162.5 245,-162.5 245,-132.5 133,-132.5"/>
<text text-anchor="start" x="141" y="-150.5" font-family="Helvetica,sans-Serif" font-size="10.00">ft::irc::user::register</text>
<text text-anchor="middle" x="189" y="-139.5" font-family="Helvetica,sans-Serif" font-size="10.00">_to_server</text>
</a>
</g>
</g>
<!-- Node19&#45;&gt;Node20 -->
<g id="edge21" class="edge">
<title>Node19&#45;&gt;Node20</title>
<path fill="none" stroke="midnightblue" d="M293.55,-147.5C277.65,-147.5 260.7,-147.5 245.21,-147.5"/>
<polygon fill="midnightblue" stroke="midnightblue" points="293.82,-151 303.82,-147.5 293.82,-144 293.82,-151"/>
</g>
<!-- Node20&#45;&gt;Node12 -->
<g id="edge22" class="edge">
<title>Node20&#45;&gt;Node12</title>
<path fill="none" stroke="midnightblue" d="M123.1,-163.32C113.67,-165.62 104.11,-167.95 95.13,-170.13"/>
<polygon fill="midnightblue" stroke="midnightblue" points="123.98,-166.71 132.87,-160.94 122.32,-159.91 123.98,-166.71"/>
</g>
<!-- Node20&#45;&gt;Node13 -->
<g id="edge23" class="edge">
<title>Node20&#45;&gt;Node13</title>
<path fill="none" stroke="midnightblue" d="M122.81,-135.82C113.47,-134.14 104.02,-132.45 95.13,-130.86"/>
<polygon fill="midnightblue" stroke="midnightblue" points="122.41,-139.3 132.87,-137.62 123.64,-132.41 122.41,-139.3"/>
</g>
</g>
</svg>
