<?xml version="1.0" encoding="UTF-8" standalone="no"?>
<!DOCTYPE svg PUBLIC "-//W3C//DTD SVG 1.1//EN"
 "http://www.w3.org/Graphics/SVG/1.1/DTD/svg11.dtd">
<!-- Generated by graphviz version 2.43.0 (0)
 -->
<!-- Title: ft::irc::channel::ban Pages: 1 -->
<svg width="255pt" height="137pt"
 viewBox="0.00 0.00 255.00 137.00" xmlns="http://www.w3.org/2000/svg" xmlns:xlink="http://www.w3.org/1999/xlink">
<g id="graph0" class="graph" transform="scale(1 1) rotate(0) translate(4 133)">
<title>ft::irc::channel::ban</title>
<polygon fill="white" stroke="transparent" points="-4,4 -4,-133 251,-133 251,4 -4,4"/>
<!-- Node1 -->
<g id="node1" class="node">
<title>Node1</title>
<g id="a_node1"><a xlink:title=" ">
<polygon fill="#bfbfbf" stroke="black" points="0,-55 0,-74 110,-74 110,-55 0,-55"/>
<text text-anchor="middle" x="55" y="-62" font-family="Helvetica,sans-Serif" font-size="10.00">ft::irc::channel::ban</text>
</a>
</g>
</g>
<!-- Node2 -->
<g id="node2" class="node">
<title>Node2</title>
<g id="a_node2"><a xlink:href="structft_1_1irc_1_1string__utils.html#a8df7fd3632f857bb33e32c24a496df98" target="_top" xlink:title=" ">
<polygon fill="white" stroke="black" points="146,-98.5 146,-128.5 247,-128.5 247,-98.5 146,-98.5"/>
<text text-anchor="start" x="154" y="-116.5" font-family="Helvetica,sans-Serif" font-size="10.00">ft::irc::string_utils</text>
<text text-anchor="middle" x="196.5" y="-105.5" font-family="Helvetica,sans-Serif" font-size="10.00">::pick_host</text>
</a>
</g>
</g>
<!-- Node1&#45;&gt;Node2 -->
<g id="edge1" class="edge">
<title>Node1&#45;&gt;Node2</title>
<path fill="none" stroke="midnightblue" d="M83.23,-74.06C100.27,-80.05 122.79,-87.96 143.19,-95.13"/>
<polygon fill="midnightblue" stroke="midnightblue" points="142.1,-98.45 152.69,-98.46 144.42,-91.85 142.1,-98.45"/>
</g>
<!-- Node3 -->
<g id="node3" class="node">
<title>Node3</title>
<g id="a_node3"><a xlink:href="structft_1_1irc_1_1string__utils.html#ac1e75b32f508ffe5a1a1875d1e1cd2ea" target="_top" xlink:title=" ">
<polygon fill="white" stroke="black" points="146,-49.5 146,-79.5 247,-79.5 247,-49.5 146,-49.5"/>
<text text-anchor="start" x="154" y="-67.5" font-family="Helvetica,sans-Serif" font-size="10.00">ft::irc::string_utils</text>
<text text-anchor="middle" x="196.5" y="-56.5" font-family="Helvetica,sans-Serif" font-size="10.00">::pick_nick</text>
</a>
</g>
</g>
<!-- Node1&#45;&gt;Node3 -->
<g id="edge2" class="edge">
<title>Node1&#45;&gt;Node3</title>
<path fill="none" stroke="midnightblue" d="M110.33,-64.5C118.6,-64.5 127.17,-64.5 135.55,-64.5"/>
<polygon fill="midnightblue" stroke="midnightblue" points="135.64,-68 145.64,-64.5 135.64,-61 135.64,-68"/>
</g>
<!-- Node4 -->
<g id="node4" class="node">
<title>Node4</title>
<g id="a_node4"><a xlink:href="structft_1_1irc_1_1string__utils.html#ac8d525ecc5b9196146c124cd310d8d82" target="_top" xlink:title=" ">
<polygon fill="white" stroke="black" points="146,-0.5 146,-30.5 247,-30.5 247,-0.5 146,-0.5"/>
<text text-anchor="start" x="154" y="-18.5" font-family="Helvetica,sans-Serif" font-size="10.00">ft::irc::string_utils</text>
<text text-anchor="middle" x="196.5" y="-7.5" font-family="Helvetica,sans-Serif" font-size="10.00">::pick_username</text>
</a>
</g>
</g>
<!-- Node1&#45;&gt;Node4 -->
<g id="edge3" class="edge">
<title>Node1&#45;&gt;Node4</title>
<path fill="none" stroke="midnightblue" d="M83.23,-54.94C100.27,-48.95 122.79,-41.04 143.19,-33.87"/>
<polygon fill="midnightblue" stroke="midnightblue" points="144.42,-37.15 152.69,-30.54 142.1,-30.55 144.42,-37.15"/>
</g>
</g>
</svg>
