<?xml version="1.0" encoding="UTF-8" standalone="no"?>
<!DOCTYPE svg PUBLIC "-//W3C//DTD SVG 1.1//EN"
 "http://www.w3.org/Graphics/SVG/1.1/DTD/svg11.dtd">
<!-- Generated by graphviz version 2.43.0 (0)
 -->
<!-- Title: ft::irc::processor_list::execute Pages: 1 -->
<svg width="615pt" height="351pt"
 viewBox="0.00 0.00 615.00 350.50" xmlns="http://www.w3.org/2000/svg" xmlns:xlink="http://www.w3.org/1999/xlink">
<g id="graph0" class="graph" transform="scale(1 1) rotate(0) translate(4 346.5)">
<title>ft::irc::processor_list::execute</title>
<polygon fill="white" stroke="transparent" points="-4,4 -4,-346.5 611,-346.5 611,4 -4,4"/>
<!-- Node1 -->
<g id="node1" class="node">
<title>Node1</title>
<g id="a_node1"><a xlink:title=" ">
<polygon fill="#bfbfbf" stroke="black" points="0,-172.5 0,-202.5 95,-202.5 95,-172.5 0,-172.5"/>
<text text-anchor="start" x="8" y="-190.5" font-family="Helvetica,sans-Serif" font-size="10.00">ft::irc::processor</text>
<text text-anchor="middle" x="47.5" y="-179.5" font-family="Helvetica,sans-Serif" font-size="10.00">_list::execute</text>
</a>
</g>
</g>
<!-- Node2 -->
<g id="node2" class="node">
<title>Node2</title>
<g id="a_node2"><a xlink:href="classft_1_1irc_1_1user.html#ae476cc31795df7fbb726b193ab887e75" target="_top" xlink:title=" ">
<polygon fill="white" stroke="black" points="163,-235.5 163,-265.5 253,-265.5 253,-235.5 163,-235.5"/>
<text text-anchor="start" x="171" y="-253.5" font-family="Helvetica,sans-Serif" font-size="10.00">ft::irc::user::get</text>
<text text-anchor="middle" x="208" y="-242.5" font-family="Helvetica,sans-Serif" font-size="10.00">_server</text>
</a>
</g>
</g>
<!-- Node1&#45;&gt;Node2 -->
<g id="edge1" class="edge">
<title>Node1&#45;&gt;Node2</title>
<path fill="none" stroke="midnightblue" d="M79.09,-202.6C94.48,-209.94 113.54,-218.63 131,-225.5 138.18,-228.32 145.82,-231.1 153.39,-233.71"/>
<polygon fill="midnightblue" stroke="midnightblue" points="152.3,-237.04 162.89,-236.93 154.54,-230.41 152.3,-237.04"/>
</g>
<!-- Node3 -->
<g id="node3" class="node">
<title>Node3</title>
<g id="a_node3"><a xlink:href="classft_1_1irc_1_1message.html#a34f457ead0453ad914af2cb0482a40b9" target="_top" xlink:title=" ">
<polygon fill="white" stroke="black" points="131,-197 131,-216 285,-216 285,-197 131,-197"/>
<text text-anchor="middle" x="208" y="-204" font-family="Helvetica,sans-Serif" font-size="10.00">ft::irc::message::param_size</text>
</a>
</g>
</g>
<!-- Node1&#45;&gt;Node3 -->
<g id="edge2" class="edge">
<title>Node1&#45;&gt;Node3</title>
<path fill="none" stroke="midnightblue" d="M95.2,-193.1C103.36,-194.08 112.08,-195.12 120.91,-196.18"/>
<polygon fill="midnightblue" stroke="midnightblue" points="120.56,-199.66 130.91,-197.38 121.39,-192.71 120.56,-199.66"/>
</g>
<!-- Node4 -->
<g id="node4" class="node">
<title>Node4</title>
<g id="a_node4"><a xlink:href="classft_1_1irc_1_1server.html#a3f4e06d5a9cf57441582f77b95f87135" target="_top" xlink:title=" ">
<polygon fill="white" stroke="black" points="144,-159 144,-178 272,-178 272,-159 144,-159"/>
<text text-anchor="middle" x="208" y="-166" font-family="Helvetica,sans-Serif" font-size="10.00">ft::irc::server::send_list</text>
</a>
</g>
</g>
<!-- Node1&#45;&gt;Node4 -->
<g id="edge3" class="edge">
<title>Node1&#45;&gt;Node4</title>
<path fill="none" stroke="midnightblue" d="M95.2,-181.9C107.35,-180.45 120.74,-178.84 133.9,-177.26"/>
<polygon fill="midnightblue" stroke="midnightblue" points="134.38,-180.73 143.89,-176.06 133.55,-173.78 134.38,-180.73"/>
</g>
<!-- Node14 -->
<g id="node14" class="node">
<title>Node14</title>
<g id="a_node14"><a xlink:href="classft_1_1irc_1_1message.html#adf434fdc28e74fb166c6046c0ac5c6d5" target="_top" xlink:title=" ">
<polygon fill="white" stroke="black" points="148.5,-121 148.5,-140 267.5,-140 267.5,-121 148.5,-121"/>
<text text-anchor="middle" x="208" y="-128" font-family="Helvetica,sans-Serif" font-size="10.00">ft::irc::message::split</text>
</a>
</g>
</g>
<!-- Node1&#45;&gt;Node14 -->
<g id="edge13" class="edge">
<title>Node1&#45;&gt;Node14</title>
<path fill="none" stroke="midnightblue" d="M77.73,-172.41C93.26,-164.81 112.85,-155.89 131,-149.5 138.05,-147.02 145.57,-144.73 153.04,-142.66"/>
<polygon fill="midnightblue" stroke="midnightblue" points="154.01,-146.02 162.78,-140.07 152.22,-139.26 154.01,-146.02"/>
</g>
<!-- Node5 -->
<g id="node5" class="node">
<title>Node5</title>
<g id="a_node5"><a xlink:href="classft_1_1irc_1_1channel.html#a5bbaa158b69ee9de49c3402cb76c7e09" target="_top" xlink:title=" ">
<polygon fill="white" stroke="black" points="324,-323 324,-342 464,-342 464,-323 324,-323"/>
<text text-anchor="middle" x="394" y="-330" font-family="Helvetica,sans-Serif" font-size="10.00">ft::irc::channel::get_name</text>
</a>
</g>
</g>
<!-- Node4&#45;&gt;Node5 -->
<g id="edge4" class="edge">
<title>Node4&#45;&gt;Node5</title>
<path fill="none" stroke="midnightblue" d="M271.66,-178.18C276.55,-180.65 281.09,-183.72 285,-187.5 326.86,-227.99 279.4,-272.74 321,-313.5 322.45,-314.93 324,-316.25 325.63,-317.47"/>
<polygon fill="midnightblue" stroke="midnightblue" points="323.96,-320.56 334.31,-322.83 327.64,-314.6 323.96,-320.56"/>
</g>
<!-- Node6 -->
<g id="node6" class="node">
<title>Node6</title>
<g id="a_node6"><a xlink:href="classft_1_1irc_1_1user.html#a43fb91fff5e13afd67f9e642137eca40" target="_top" xlink:title=" ">
<polygon fill="white" stroke="black" points="331,-273.5 331,-303.5 457,-303.5 457,-273.5 331,-273.5"/>
<text text-anchor="start" x="339" y="-291.5" font-family="Helvetica,sans-Serif" font-size="10.00">ft::irc::user::is_channel</text>
<text text-anchor="middle" x="394" y="-280.5" font-family="Helvetica,sans-Serif" font-size="10.00">_member</text>
</a>
</g>
</g>
<!-- Node4&#45;&gt;Node6 -->
<g id="edge5" class="edge">
<title>Node4&#45;&gt;Node6</title>
<path fill="none" stroke="midnightblue" d="M269.15,-178.01C274.87,-180.5 280.28,-183.61 285,-187.5 314.15,-211.52 292.79,-239.37 321,-264.5 322.32,-265.67 323.7,-266.79 325.13,-267.86"/>
<polygon fill="midnightblue" stroke="midnightblue" points="323.46,-270.95 333.78,-273.37 327.22,-265.04 323.46,-270.95"/>
</g>
<!-- Node7 -->
<g id="node7" class="node">
<title>Node7</title>
<g id="a_node7"><a xlink:href="structft_1_1irc_1_1make__reply.html#aea322ae93b5998963dca3923cb91d19d" target="_top" xlink:title=" ">
<polygon fill="white" stroke="black" points="342,-224.5 342,-254.5 446,-254.5 446,-224.5 342,-224.5"/>
<text text-anchor="start" x="350" y="-242.5" font-family="Helvetica,sans-Serif" font-size="10.00">ft::irc::make_reply</text>
<text text-anchor="middle" x="394" y="-231.5" font-family="Helvetica,sans-Serif" font-size="10.00">::list_end</text>
</a>
</g>
</g>
<!-- Node4&#45;&gt;Node7 -->
<g id="edge6" class="edge">
<title>Node4&#45;&gt;Node7</title>
<path fill="none" stroke="midnightblue" d="M259.92,-178.1C268.51,-180.6 277.17,-183.69 285,-187.5 303.23,-196.37 303.13,-205.94 321,-215.5 324.66,-217.46 328.51,-219.3 332.44,-221.02"/>
<polygon fill="midnightblue" stroke="midnightblue" points="331.16,-224.27 341.74,-224.82 333.81,-217.8 331.16,-224.27"/>
</g>
<!-- Node8 -->
<g id="node8" class="node">
<title>Node8</title>
<g id="a_node8"><a xlink:href="structft_1_1irc_1_1make__reply.html#a63b855359274d17192e7dc8ca199a438" target="_top" xlink:title=" ">
<polygon fill="white" stroke="black" points="342,-175.5 342,-205.5 446,-205.5 446,-175.5 342,-175.5"/>
<text text-anchor="start" x="350" y="-193.5" font-family="Helvetica,sans-Serif" font-size="10.00">ft::irc::make_reply</text>
<text text-anchor="middle" x="394" y="-182.5" font-family="Helvetica,sans-Serif" font-size="10.00">::list_start</text>
</a>
</g>
</g>
<!-- Node4&#45;&gt;Node8 -->
<g id="edge7" class="edge">
<title>Node4&#45;&gt;Node8</title>
<path fill="none" stroke="midnightblue" d="M272.06,-176.04C291.38,-178.35 312.58,-180.88 331.77,-183.18"/>
<polygon fill="midnightblue" stroke="midnightblue" points="331.55,-186.68 341.9,-184.39 332.38,-179.73 331.55,-186.68"/>
</g>
<!-- Node9 -->
<g id="node9" class="node">
<title>Node9</title>
<g id="a_node9"><a xlink:href="classft_1_1irc_1_1channel.html#a01d060ed582406cbe40ec0889408d5b2" target="_top" xlink:title=" ">
<polygon fill="white" stroke="black" points="321,-137 321,-156 467,-156 467,-137 321,-137"/>
<text text-anchor="middle" x="394" y="-144" font-family="Helvetica,sans-Serif" font-size="10.00">ft::irc::channel::load_mode</text>
</a>
</g>
</g>
<!-- Node4&#45;&gt;Node9 -->
<g id="edge8" class="edge">
<title>Node4&#45;&gt;Node9</title>
<path fill="none" stroke="midnightblue" d="M272.06,-160.96C284.46,-159.48 297.64,-157.9 310.56,-156.36"/>
<polygon fill="midnightblue" stroke="midnightblue" points="311.33,-159.79 320.85,-155.13 310.5,-152.84 311.33,-159.79"/>
</g>
<!-- Node10 -->
<g id="node10" class="node">
<title>Node10</title>
<g id="a_node10"><a xlink:href="classft_1_1irc_1_1user.html#a3cfeaf12c0bdb6ac02debf5e19ce50d2" target="_top" xlink:title=" ">
<polygon fill="white" stroke="black" points="330,-99 330,-118 458,-118 458,-99 330,-99"/>
<text text-anchor="middle" x="394" y="-106" font-family="Helvetica,sans-Serif" font-size="10.00">ft::irc::user::load_mode</text>
</a>
</g>
</g>
<!-- Node4&#45;&gt;Node10 -->
<g id="edge9" class="edge">
<title>Node4&#45;&gt;Node10</title>
<path fill="none" stroke="midnightblue" d="M256.75,-158.92C266.28,-156.35 276.09,-153.23 285,-149.5 302.29,-142.25 303.75,-134.86 321,-127.5 326.7,-125.07 332.78,-122.88 338.91,-120.94"/>
<polygon fill="midnightblue" stroke="midnightblue" points="339.95,-124.28 348.53,-118.07 337.95,-117.57 339.95,-124.28"/>
</g>
<!-- Node11 -->
<g id="node11" class="node">
<title>Node11</title>
<g id="a_node11"><a xlink:href="classft_1_1irc_1_1channel.html#a36cc8e5ae9be4cb22ae4a31779c62282" target="_top" xlink:title=" ">
<polygon fill="white" stroke="black" points="334.5,-49.5 334.5,-79.5 453.5,-79.5 453.5,-49.5 334.5,-49.5"/>
<text text-anchor="start" x="342.5" y="-67.5" font-family="Helvetica,sans-Serif" font-size="10.00">ft::irc::channel::make</text>
<text text-anchor="middle" x="394" y="-56.5" font-family="Helvetica,sans-Serif" font-size="10.00">_list_packet</text>
</a>
</g>
</g>
<!-- Node4&#45;&gt;Node11 -->
<g id="edge10" class="edge">
<title>Node4&#45;&gt;Node11</title>
<path fill="none" stroke="midnightblue" d="M267.6,-158.95C273.8,-156.48 279.75,-153.39 285,-149.5 309.99,-130.99 296.86,-109.11 321,-89.5 323.07,-87.82 325.25,-86.25 327.53,-84.78"/>
<polygon fill="midnightblue" stroke="midnightblue" points="329.69,-87.58 336.68,-79.62 326.25,-81.49 329.69,-87.58"/>
</g>
<!-- Node13 -->
<g id="node13" class="node">
<title>Node13</title>
<g id="a_node13"><a xlink:href="classft_1_1irc_1_1user.html#a1db558d6d694ca943224c2440fe36c50" target="_top" xlink:title=" ">
<polygon fill="white" stroke="black" points="345,-0.5 345,-30.5 443,-30.5 443,-0.5 345,-0.5"/>
<text text-anchor="start" x="353" y="-18.5" font-family="Helvetica,sans-Serif" font-size="10.00">ft::irc::user::send</text>
<text text-anchor="middle" x="394" y="-7.5" font-family="Helvetica,sans-Serif" font-size="10.00">_message</text>
</a>
</g>
</g>
<!-- Node4&#45;&gt;Node13 -->
<g id="edge12" class="edge">
<title>Node4&#45;&gt;Node13</title>
<path fill="none" stroke="midnightblue" d="M271.13,-158.83C276.19,-156.36 280.91,-153.29 285,-149.5 322.39,-114.78 285.2,-76.85 321,-40.5 325.22,-36.21 330.22,-32.66 335.58,-29.71"/>
<polygon fill="midnightblue" stroke="midnightblue" points="337.33,-32.76 344.87,-25.31 334.34,-26.43 337.33,-32.76"/>
</g>
<!-- Node12 -->
<g id="node12" class="node">
<title>Node12</title>
<g id="a_node12"><a xlink:href="structft_1_1irc_1_1make__reply.html#a049c4169cd8f3b5e8d855183c8106001" target="_top" xlink:title=" ">
<polygon fill="white" stroke="black" points="503,-49.5 503,-79.5 607,-79.5 607,-49.5 503,-49.5"/>
<text text-anchor="start" x="511" y="-67.5" font-family="Helvetica,sans-Serif" font-size="10.00">ft::irc::make_reply</text>
<text text-anchor="middle" x="555" y="-56.5" font-family="Helvetica,sans-Serif" font-size="10.00">::list</text>
</a>
</g>
</g>
<!-- Node11&#45;&gt;Node12 -->
<g id="edge11" class="edge">
<title>Node11&#45;&gt;Node12</title>
<path fill="none" stroke="midnightblue" d="M453.75,-64.5C466.46,-64.5 479.92,-64.5 492.72,-64.5"/>
<polygon fill="midnightblue" stroke="midnightblue" points="492.81,-68 502.81,-64.5 492.81,-61 492.81,-68"/>
</g>
</g>
</svg>
