<?xml version="1.0" encoding="UTF-8" standalone="no"?>
<!DOCTYPE svg PUBLIC "-//W3C//DTD SVG 1.1//EN"
 "http://www.w3.org/Graphics/SVG/1.1/DTD/svg11.dtd">
<!-- Generated by graphviz version 2.43.0 (0)
 -->
<!-- Title: ft::serv::event_worker::watch_ability Pages: 1 -->
<svg width="617pt" height="266pt"
 viewBox="0.00 0.00 617.00 265.50" xmlns="http://www.w3.org/2000/svg" xmlns:xlink="http://www.w3.org/1999/xlink">
<g id="graph0" class="graph" transform="scale(1 1) rotate(0) translate(4 261.5)">
<title>ft::serv::event_worker::watch_ability</title>
<polygon fill="white" stroke="transparent" points="-4,4 -4,-261.5 613,-261.5 613,4 -4,4"/>
<!-- Node1 -->
<g id="node1" class="node">
<title>Node1</title>
<g id="a_node1"><a xlink:title=" ">
<polygon fill="#bfbfbf" stroke="black" points="0,-133.5 0,-163.5 122,-163.5 122,-133.5 0,-133.5"/>
<text text-anchor="start" x="8" y="-151.5" font-family="Helvetica,sans-Serif" font-size="10.00">ft::serv::event_worker</text>
<text text-anchor="middle" x="61" y="-140.5" font-family="Helvetica,sans-Serif" font-size="10.00">::watch_ability</text>
</a>
</g>
</g>
<!-- Node2 -->
<g id="node2" class="node">
<title>Node2</title>
<g id="a_node2"><a xlink:href="namespaceft_1_1serv.html#a8ea5500bde828d4c21df0d6536cfa19c" target="_top" xlink:title=" ">
<polygon fill="white" stroke="black" points="158,-238 158,-257 295,-257 295,-238 158,-238"/>
<text text-anchor="middle" x="226.5" y="-245" font-family="Helvetica,sans-Serif" font-size="10.00">ft::serv::_epoll_operation</text>
</a>
</g>
</g>
<!-- Node1&#45;&gt;Node2 -->
<g id="edge1" class="edge">
<title>Node1&#45;&gt;Node2</title>
<path fill="none" stroke="midnightblue" d="M76.17,-163.7C93.74,-181.68 125.36,-211.32 158,-228.5 162.29,-230.76 166.87,-232.77 171.55,-234.56"/>
<polygon fill="midnightblue" stroke="midnightblue" points="170.66,-237.96 181.25,-237.94 172.96,-231.34 170.66,-237.96"/>
</g>
<!-- Node3 -->
<g id="node3" class="node">
<title>Node3</title>
<g id="a_node3"><a xlink:href="classft_1_1serv_1_1event__channel__base.html#a7c514b3c34bcfcc796bbad51001565a3" target="_top" xlink:title=" ">
<polygon fill="white" stroke="black" points="163,-188.5 163,-218.5 290,-218.5 290,-188.5 163,-188.5"/>
<text text-anchor="start" x="171" y="-206.5" font-family="Helvetica,sans-Serif" font-size="10.00">ft::serv::event_channel</text>
<text text-anchor="middle" x="226.5" y="-195.5" font-family="Helvetica,sans-Serif" font-size="10.00">_base::get_ident</text>
</a>
</g>
</g>
<!-- Node1&#45;&gt;Node3 -->
<g id="edge2" class="edge">
<title>Node1&#45;&gt;Node3</title>
<path fill="none" stroke="midnightblue" d="M106.68,-163.53C126.59,-170.23 150.23,-178.18 171.16,-185.22"/>
<polygon fill="midnightblue" stroke="midnightblue" points="170.28,-188.62 180.88,-188.49 172.51,-181.98 170.28,-188.62"/>
</g>
<!-- Node4 -->
<g id="node4" class="node">
<title>Node4</title>
<g id="a_node4"><a xlink:href="classft_1_1serv_1_1event__channel__base.html#a815de9f95e3371cafb6902a52ebe1132" target="_top" xlink:title=" ">
<polygon fill="white" stroke="black" points="163,-128 163,-169 290,-169 290,-128 163,-128"/>
<text text-anchor="start" x="171" y="-157" font-family="Helvetica,sans-Serif" font-size="10.00">ft::serv::event_channel</text>
<text text-anchor="start" x="171" y="-146" font-family="Helvetica,sans-Serif" font-size="10.00">_base::is_readability</text>
<text text-anchor="middle" x="226.5" y="-135" font-family="Helvetica,sans-Serif" font-size="10.00">_enabled</text>
</a>
</g>
</g>
<!-- Node1&#45;&gt;Node4 -->
<g id="edge3" class="edge">
<title>Node1&#45;&gt;Node4</title>
<path fill="none" stroke="midnightblue" d="M122.42,-148.5C132.31,-148.5 142.65,-148.5 152.8,-148.5"/>
<polygon fill="midnightblue" stroke="midnightblue" points="152.87,-152 162.87,-148.5 152.87,-145 152.87,-152"/>
</g>
<!-- Node5 -->
<g id="node5" class="node">
<title>Node5</title>
<g id="a_node5"><a xlink:href="classft_1_1serv_1_1event__channel__base.html#a0573838cd4de2d44cef6447e37772efb" target="_top" xlink:title=" ">
<polygon fill="white" stroke="black" points="163,-68 163,-109 290,-109 290,-68 163,-68"/>
<text text-anchor="start" x="171" y="-97" font-family="Helvetica,sans-Serif" font-size="10.00">ft::serv::event_channel</text>
<text text-anchor="start" x="171" y="-86" font-family="Helvetica,sans-Serif" font-size="10.00">_base::is_writability</text>
<text text-anchor="middle" x="226.5" y="-75" font-family="Helvetica,sans-Serif" font-size="10.00">_enabled</text>
</a>
</g>
</g>
<!-- Node1&#45;&gt;Node5 -->
<g id="edge4" class="edge">
<title>Node1&#45;&gt;Node5</title>
<path fill="none" stroke="midnightblue" d="M103.26,-133.36C120.41,-127.06 140.75,-119.6 159.87,-112.58"/>
<polygon fill="midnightblue" stroke="midnightblue" points="161.25,-115.81 169.43,-109.08 158.84,-109.23 161.25,-115.81"/>
</g>
<!-- Node6 -->
<g id="node6" class="node">
<title>Node6</title>
<g id="a_node6"><a xlink:href="structft_1_1serv_1_1logger.html#af77e51bd1d1172d9ebff34eb9fe1db6a" target="_top" xlink:title=" ">
<polygon fill="white" stroke="black" points="168,-30 168,-49 285,-49 285,-30 168,-30"/>
<text text-anchor="middle" x="226.5" y="-37" font-family="Helvetica,sans-Serif" font-size="10.00">ft::serv::logger::trace</text>
</a>
</g>
</g>
<!-- Node1&#45;&gt;Node6 -->
<g id="edge5" class="edge">
<title>Node1&#45;&gt;Node6</title>
<path fill="none" stroke="midnightblue" d="M74.01,-133.42C90.74,-113.39 122.98,-78.26 158,-58.5 161.92,-56.29 166.12,-54.32 170.44,-52.56"/>
<polygon fill="midnightblue" stroke="midnightblue" points="171.81,-55.79 180,-49.07 169.4,-49.21 171.81,-55.79"/>
</g>
<!-- Node7 -->
<g id="node7" class="node">
<title>Node7</title>
<g id="a_node7"><a xlink:href="namespaceft_1_1serv_1_1__internal.html#a4dfb80be7b817fc0ee18658f313a6274" target="_top" xlink:title=" ">
<polygon fill="white" stroke="black" points="331,-24.5 331,-54.5 429,-54.5 429,-24.5 331,-24.5"/>
<text text-anchor="start" x="339" y="-42.5" font-family="Helvetica,sans-Serif" font-size="10.00">ft::serv::_internal</text>
<text text-anchor="middle" x="380" y="-31.5" font-family="Helvetica,sans-Serif" font-size="10.00">::print</text>
</a>
</g>
</g>
<!-- Node6&#45;&gt;Node7 -->
<g id="edge6" class="edge">
<title>Node6&#45;&gt;Node7</title>
<path fill="none" stroke="midnightblue" d="M285.21,-39.5C296.85,-39.5 309.09,-39.5 320.75,-39.5"/>
<polygon fill="midnightblue" stroke="midnightblue" points="320.82,-43 330.82,-39.5 320.82,-36 320.82,-43"/>
</g>
<!-- Node8 -->
<g id="node8" class="node">
<title>Node8</title>
<g id="a_node8"><a xlink:href="namespaceft_1_1serv_1_1__internal.html#aff49349b58dc84fa69076e9cd27a1db4" target="_top" xlink:title=" ">
<polygon fill="white" stroke="black" points="465,-49.5 465,-79.5 609,-79.5 609,-49.5 465,-49.5"/>
<text text-anchor="start" x="473" y="-67.5" font-family="Helvetica,sans-Serif" font-size="10.00">ft::serv::_internal</text>
<text text-anchor="middle" x="537" y="-56.5" font-family="Helvetica,sans-Serif" font-size="10.00">::make_format_string_line</text>
</a>
</g>
</g>
<!-- Node7&#45;&gt;Node8 -->
<g id="edge7" class="edge">
<title>Node7&#45;&gt;Node8</title>
<path fill="none" stroke="midnightblue" d="M429.19,-47.27C437.39,-48.6 446.11,-50 454.88,-51.42"/>
<polygon fill="midnightblue" stroke="midnightblue" points="454.36,-54.88 464.79,-53.01 455.48,-47.97 454.36,-54.88"/>
</g>
<!-- Node9 -->
<g id="node9" class="node">
<title>Node9</title>
<g id="a_node9"><a xlink:href="namespaceft_1_1serv_1_1__internal.html#aad4af39d62c2b1687b0bef7a91bf6c60" target="_top" xlink:title=" ">
<polygon fill="white" stroke="black" points="485.5,-0.5 485.5,-30.5 588.5,-30.5 588.5,-0.5 485.5,-0.5"/>
<text text-anchor="start" x="493.5" y="-18.5" font-family="Helvetica,sans-Serif" font-size="10.00">ft::serv::_internal</text>
<text text-anchor="middle" x="537" y="-7.5" font-family="Helvetica,sans-Serif" font-size="10.00">::make_utc_string</text>
</a>
</g>
</g>
<!-- Node7&#45;&gt;Node9 -->
<g id="edge8" class="edge">
<title>Node7&#45;&gt;Node9</title>
<path fill="none" stroke="midnightblue" d="M429.19,-32.04C443.85,-29.77 460.14,-27.25 475.49,-24.87"/>
<polygon fill="midnightblue" stroke="midnightblue" points="476.08,-28.32 485.42,-23.33 475.01,-21.4 476.08,-28.32"/>
</g>
</g>
</svg>
