<?xml version="1.0" encoding="UTF-8" standalone="no"?>
<!DOCTYPE svg PUBLIC "-//W3C//DTD SVG 1.1//EN"
 "http://www.w3.org/Graphics/SVG/1.1/DTD/svg11.dtd">
<!-- Generated by graphviz version 2.43.0 (0)
 -->
<!-- Title: ft::irc::user::load_nick Pages: 1 -->
<svg width="470pt" height="171pt"
 viewBox="0.00 0.00 470.00 171.00" xmlns="http://www.w3.org/2000/svg" xmlns:xlink="http://www.w3.org/1999/xlink">
<g id="graph0" class="graph" transform="scale(1 1) rotate(0) translate(4 167)">
<title>ft::irc::user::load_nick</title>
<polygon fill="white" stroke="transparent" points="-4,4 -4,-167 466,-167 466,4 -4,4"/>
<!-- Node1 -->
<g id="node1" class="node">
<title>Node1</title>
<g id="a_node1"><a xlink:title=" ">
<polygon fill="#bfbfbf" stroke="black" points="341,-72 341,-91 462,-91 462,-72 341,-72"/>
<text text-anchor="middle" x="401.5" y="-79" font-family="Helvetica,sans-Serif" font-size="10.00">ft::irc::user::load_nick</text>
</a>
</g>
</g>
<!-- Node2 -->
<g id="node2" class="node">
<title>Node2</title>
<g id="a_node2"><a xlink:href="classft_1_1irc_1_1channel.html#a0eb614161a17c1778de2b2443ea922e5" target="_top" xlink:title=" ">
<polygon fill="white" stroke="black" points="161,-138 161,-157 304,-157 304,-138 161,-138"/>
<text text-anchor="middle" x="232.5" y="-145" font-family="Helvetica,sans-Serif" font-size="10.00">ft::irc::channel::enter_user</text>
</a>
</g>
</g>
<!-- Node1&#45;&gt;Node2 -->
<g id="edge1" class="edge">
<title>Node1&#45;&gt;Node2</title>
<path fill="none" stroke="midnightblue" d="M374.83,-95.86C355.95,-106 329.42,-119.35 305,-128.5 295.5,-132.06 285.05,-135.23 275.15,-137.92"/>
<polygon fill="midnightblue" stroke="midnightblue" points="376.59,-98.89 383.7,-91.04 373.24,-92.74 376.59,-98.89"/>
</g>
<!-- Node4 -->
<g id="node4" class="node">
<title>Node4</title>
<g id="a_node4"><a xlink:href="classft_1_1irc_1_1processor__quit.html#a013c9c33d3e8cd471ca3de624447d359" target="_top" xlink:title=" ">
<polygon fill="white" stroke="black" points="185,-88.5 185,-118.5 280,-118.5 280,-88.5 185,-88.5"/>
<text text-anchor="start" x="193" y="-106.5" font-family="Helvetica,sans-Serif" font-size="10.00">ft::irc::processor</text>
<text text-anchor="middle" x="232.5" y="-95.5" font-family="Helvetica,sans-Serif" font-size="10.00">_quit::execute</text>
</a>
</g>
</g>
<!-- Node1&#45;&gt;Node4 -->
<g id="edge3" class="edge">
<title>Node1&#45;&gt;Node4</title>
<path fill="none" stroke="midnightblue" d="M330.73,-90.69C313.64,-92.94 295.77,-95.3 280.07,-97.37"/>
<polygon fill="midnightblue" stroke="midnightblue" points="331.22,-94.16 340.68,-89.38 330.31,-87.22 331.22,-94.16"/>
</g>
<!-- Node5 -->
<g id="node5" class="node">
<title>Node5</title>
<g id="a_node5"><a xlink:href="classft_1_1irc_1_1channel.html#a234b5979ee6b122dec7f2de82614c02a" target="_top" xlink:title=" ">
<polygon fill="white" stroke="black" points="160,-50 160,-69 305,-69 305,-50 160,-50"/>
<text text-anchor="middle" x="232.5" y="-57" font-family="Helvetica,sans-Serif" font-size="10.00">ft::irc::channel::leave_user</text>
</a>
</g>
</g>
<!-- Node1&#45;&gt;Node5 -->
<g id="edge4" class="edge">
<title>Node1&#45;&gt;Node5</title>
<path fill="none" stroke="midnightblue" d="M330.56,-72.29C322.16,-71.18 313.58,-70.05 305.16,-68.94"/>
<polygon fill="midnightblue" stroke="midnightblue" points="330.31,-75.78 340.68,-73.62 331.22,-68.84 330.31,-75.78"/>
</g>
<!-- Node8 -->
<g id="node8" class="node">
<title>Node8</title>
<g id="a_node8"><a xlink:href="structft_1_1irc_1_1user_1_1pred__equals__nick.html#aa4bfdd8756482385798ed7fd8197f1e1" target="_top" xlink:title=" ">
<polygon fill="white" stroke="black" points="165.5,-0.5 165.5,-30.5 299.5,-30.5 299.5,-0.5 165.5,-0.5"/>
<text text-anchor="start" x="173.5" y="-18.5" font-family="Helvetica,sans-Serif" font-size="10.00">ft::irc::user::pred</text>
<text text-anchor="middle" x="232.5" y="-7.5" font-family="Helvetica,sans-Serif" font-size="10.00">_equals_nick::operator()</text>
</a>
</g>
</g>
<!-- Node1&#45;&gt;Node8 -->
<g id="edge7" class="edge">
<title>Node1&#45;&gt;Node8</title>
<path fill="none" stroke="midnightblue" d="M370.24,-67.88C351.57,-59.63 327.05,-49.08 305,-40.5 296.42,-37.16 287.19,-33.78 278.3,-30.63"/>
<polygon fill="midnightblue" stroke="midnightblue" points="368.87,-71.1 379.43,-71.96 371.71,-64.7 368.87,-71.1"/>
</g>
<!-- Node3 -->
<g id="node3" class="node">
<title>Node3</title>
<g id="a_node3"><a xlink:href="classft_1_1irc_1_1processor__join.html#a7005b0403c1e6e10aa6f6f05339df357" target="_top" xlink:title=" ">
<polygon fill="white" stroke="black" points="14.5,-132.5 14.5,-162.5 109.5,-162.5 109.5,-132.5 14.5,-132.5"/>
<text text-anchor="start" x="22.5" y="-150.5" font-family="Helvetica,sans-Serif" font-size="10.00">ft::irc::processor</text>
<text text-anchor="middle" x="62" y="-139.5" font-family="Helvetica,sans-Serif" font-size="10.00">_join::execute</text>
</a>
</g>
</g>
<!-- Node2&#45;&gt;Node3 -->
<g id="edge2" class="edge">
<title>Node2&#45;&gt;Node3</title>
<path fill="none" stroke="midnightblue" d="M150.45,-147.5C136.56,-147.5 122.54,-147.5 109.93,-147.5"/>
<polygon fill="midnightblue" stroke="midnightblue" points="150.53,-151 160.53,-147.5 150.53,-144 150.53,-151"/>
</g>
<!-- Node6 -->
<g id="node6" class="node">
<title>Node6</title>
<g id="a_node6"><a xlink:href="classft_1_1irc_1_1user.html#af2aa8fcafc015de38938ccccfed4b1c9" target="_top" xlink:title=" ">
<polygon fill="white" stroke="black" points="0,-64.5 0,-94.5 124,-94.5 124,-64.5 0,-64.5"/>
<text text-anchor="start" x="8" y="-82.5" font-family="Helvetica,sans-Serif" font-size="10.00">ft::irc::user::deregister</text>
<text text-anchor="middle" x="62" y="-71.5" font-family="Helvetica,sans-Serif" font-size="10.00">_from_server</text>
</a>
</g>
</g>
<!-- Node5&#45;&gt;Node6 -->
<g id="edge5" class="edge">
<title>Node5&#45;&gt;Node6</title>
<path fill="none" stroke="midnightblue" d="M149.53,-69.23C140.97,-70.25 132.37,-71.27 124.1,-72.25"/>
<polygon fill="midnightblue" stroke="midnightblue" points="150.03,-72.69 159.55,-68.04 149.21,-65.74 150.03,-72.69"/>
</g>
<!-- Node7 -->
<g id="node7" class="node">
<title>Node7</title>
<g id="a_node7"><a xlink:href="classft_1_1irc_1_1processor__part.html#a4075107cb360cd04c0a11a9904104ad0" target="_top" xlink:title=" ">
<polygon fill="white" stroke="black" points="14.5,-15.5 14.5,-45.5 109.5,-45.5 109.5,-15.5 14.5,-15.5"/>
<text text-anchor="start" x="22.5" y="-33.5" font-family="Helvetica,sans-Serif" font-size="10.00">ft::irc::processor</text>
<text text-anchor="middle" x="62" y="-22.5" font-family="Helvetica,sans-Serif" font-size="10.00">_part::execute</text>
</a>
</g>
</g>
<!-- Node5&#45;&gt;Node7 -->
<g id="edge6" class="edge">
<title>Node5&#45;&gt;Node7</title>
<path fill="none" stroke="midnightblue" d="M165.87,-48.21C147.07,-44.97 126.97,-41.51 109.57,-38.52"/>
<polygon fill="midnightblue" stroke="midnightblue" points="165.41,-51.68 175.86,-49.92 166.6,-44.78 165.41,-51.68"/>
</g>
</g>
</svg>
