<?xml version="1.0" encoding="UTF-8" standalone="no"?>
<!DOCTYPE svg PUBLIC "-//W3C//DTD SVG 1.1//EN"
 "http://www.w3.org/Graphics/SVG/1.1/DTD/svg11.dtd">
<!-- Generated by graphviz version 2.43.0 (0)
 -->
<!-- Title: ft::serv::event_worker::process_events Pages: 1 -->
<!--zoomable 88 -->
<svg id="main" version="1.1" xmlns="http://www.w3.org/2000/svg" xmlns:xlink="http://www.w3.org/1999/xlink" xml:space="preserve" onload="init(evt)">
<style type="text/css"><![CDATA[
.edge:hover path { stroke: red; }
.edge:hover polygon { stroke: red; fill: red; }
]]></style>
<script type="text/javascript"><![CDATA[
var edges = document.getElementsByTagName('g');
if (edges && edges.length) {
  for (var i=0;i<edges.length;i++) {
    if (edges[i].id.substr(0,4)=='edge') {
      edges[i].setAttribute('class','edge');
    }
  }
}
]]></script>
        <defs>
                <circle id="rim" cx="0" cy="0" r="7"/>
                <circle id="rim2" cx="0" cy="0" r="3.5"/>
                <g id="zoomPlus">
                        <use xlink:href="#rim" fill="#404040">
                                <set attributeName="fill" to="#808080" begin="zoomplus.mouseover" end="zoomplus.mouseout"/>
                        </use>
                        <path d="M-4,0h8M0,-4v8" fill="none" stroke="white" stroke-width="1.5" pointer-events="none"/>
                </g>
                <g id="zoomMin">
                        <use xlink:href="#rim" fill="#404040">
                                <set attributeName="fill" to="#808080" begin="zoomminus.mouseover" end="zoomminus.mouseout"/>
                        </use>
                        <path d="M-4,0h8" fill="none" stroke="white" stroke-width="1.5" pointer-events="none"/>
                </g>
                <g id="dirArrow">
                        <path fill="none" stroke="white" stroke-width="1.5" d="M0,-3.0v7 M-2.5,-0.5L0,-3.0L2.5,-0.5"/>
                </g>
               <g id="resetDef">
                       <use xlink:href="#rim2" fill="#404040">
                               <set attributeName="fill" to="#808080" begin="reset.mouseover" end="reset.mouseout"/>
                       </use>
               </g>
        </defs>

<script type="text/javascript">
var viewWidth = 597;
var viewHeight = 88;
var sectionId = 'dynsection-7';
</script>
<script xlink:href="svgpan.js"/>
<svg id="graph" class="graph">
<g id="viewport">
<title>ft::serv::event_worker::process_events</title>
<polygon fill="white" stroke="transparent" points="-4,4 -4,-84 593,-84 593,4 -4,4"/>
<!-- Node1 -->
<g id="node1" class="node">
<title>Node1</title>
<g id="a_node1"><a xlink:title=" ">
<polygon fill="#bfbfbf" stroke="black" points="0,-24.5 0,-54.5 122,-54.5 122,-24.5 0,-24.5"/>
<text text-anchor="start" x="8" y="-42.5" font-family="Helvetica,sans-Serif" font-size="10.00">ft::serv::event_worker</text>
<text text-anchor="middle" x="61" y="-31.5" font-family="Helvetica,sans-Serif" font-size="10.00">::process_events</text>
</a>
</g>
</g>
<!-- Node2 -->
<g id="node2" class="node">
<title>Node2</title>
<g id="a_node2"><a xlink:href="structft_1_1serv_1_1logger.html#af77e51bd1d1172d9ebff34eb9fe1db6a" target="_top" xlink:title=" ">
<polygon fill="white" stroke="black" points="158,-49 158,-68 275,-68 275,-49 158,-49"/>
<text text-anchor="middle" x="216.5" y="-56" font-family="Helvetica,sans-Serif" font-size="10.00">ft::serv::logger::trace</text>
</a>
</g>
</g>
<!-- Node1&#45;&gt;Node2 -->
<g id="edge1" class="edge">
<title>Node1&#45;&gt;Node2</title>
<path fill="none" stroke="midnightblue" d="M122.23,-46.95C130.68,-48 139.41,-49.08 147.99,-50.14"/>
<polygon fill="midnightblue" stroke="midnightblue" points="147.6,-53.62 157.96,-51.38 148.46,-46.68 147.6,-53.62"/>
</g>
<!-- Node6 -->
<g id="node6" class="node">
<title>Node6</title>
<g id="a_node6"><a xlink:href="structft_1_1serv_1_1logger.html#aeb3f8c326c1e3b607121cf351df5fb55" target="_top" xlink:title=" ">
<polygon fill="white" stroke="black" points="158.5,-11 158.5,-30 274.5,-30 274.5,-11 158.5,-11"/>
<text text-anchor="middle" x="216.5" y="-18" font-family="Helvetica,sans-Serif" font-size="10.00">ft::serv::logger::warn</text>
</a>
</g>
</g>
<!-- Node1&#45;&gt;Node6 -->
<g id="edge5" class="edge">
<title>Node1&#45;&gt;Node6</title>
<path fill="none" stroke="midnightblue" d="M122.23,-32.05C130.8,-30.98 139.66,-29.89 148.35,-28.81"/>
<polygon fill="midnightblue" stroke="midnightblue" points="148.96,-32.26 158.46,-27.56 148.1,-25.32 148.96,-32.26"/>
</g>
<!-- Node3 -->
<g id="node3" class="node">
<title>Node3</title>
<g id="a_node3"><a xlink:href="namespaceft_1_1serv_1_1__internal.html#a4dfb80be7b817fc0ee18658f313a6274" target="_top" xlink:title=" ">
<polygon fill="white" stroke="black" points="311,-24.5 311,-54.5 409,-54.5 409,-24.5 311,-24.5"/>
<text text-anchor="start" x="319" y="-42.5" font-family="Helvetica,sans-Serif" font-size="10.00">ft::serv::_internal</text>
<text text-anchor="middle" x="360" y="-31.5" font-family="Helvetica,sans-Serif" font-size="10.00">::print</text>
</a>
</g>
</g>
<!-- Node2&#45;&gt;Node3 -->
<g id="edge2" class="edge">
<title>Node2&#45;&gt;Node3</title>
<path fill="none" stroke="midnightblue" d="M275.05,-50.77C283.63,-49.62 292.48,-48.43 301.07,-47.28"/>
<polygon fill="midnightblue" stroke="midnightblue" points="301.55,-50.75 311,-45.95 300.62,-43.81 301.55,-50.75"/>
</g>
<!-- Node4 -->
<g id="node4" class="node">
<title>Node4</title>
<g id="a_node4"><a xlink:href="namespaceft_1_1serv_1_1__internal.html#aff49349b58dc84fa69076e9cd27a1db4" target="_top" xlink:title=" ">
<polygon fill="white" stroke="black" points="445,-49.5 445,-79.5 589,-79.5 589,-49.5 445,-49.5"/>
<text text-anchor="start" x="453" y="-67.5" font-family="Helvetica,sans-Serif" font-size="10.00">ft::serv::_internal</text>
<text text-anchor="middle" x="517" y="-56.5" font-family="Helvetica,sans-Serif" font-size="10.00">::make_format_string_line</text>
</a>
</g>
</g>
<!-- Node3&#45;&gt;Node4 -->
<g id="edge3" class="edge">
<title>Node3&#45;&gt;Node4</title>
<path fill="none" stroke="midnightblue" d="M409.19,-47.27C417.39,-48.6 426.11,-50 434.88,-51.42"/>
<polygon fill="midnightblue" stroke="midnightblue" points="434.36,-54.88 444.79,-53.01 435.48,-47.97 434.36,-54.88"/>
</g>
<!-- Node5 -->
<g id="node5" class="node">
<title>Node5</title>
<g id="a_node5"><a xlink:href="namespaceft_1_1serv_1_1__internal.html#aad4af39d62c2b1687b0bef7a91bf6c60" target="_top" xlink:title=" ">
<polygon fill="white" stroke="black" points="465.5,-0.5 465.5,-30.5 568.5,-30.5 568.5,-0.5 465.5,-0.5"/>
<text text-anchor="start" x="473.5" y="-18.5" font-family="Helvetica,sans-Serif" font-size="10.00">ft::serv::_internal</text>
<text text-anchor="middle" x="517" y="-7.5" font-family="Helvetica,sans-Serif" font-size="10.00">::make_utc_string</text>
</a>
</g>
</g>
<!-- Node3&#45;&gt;Node5 -->
<g id="edge4" class="edge">
<title>Node3&#45;&gt;Node5</title>
<path fill="none" stroke="midnightblue" d="M409.19,-32.04C423.85,-29.77 440.14,-27.25 455.49,-24.87"/>
<polygon fill="midnightblue" stroke="midnightblue" points="456.08,-28.32 465.42,-23.33 455.01,-21.4 456.08,-28.32"/>
</g>
<!-- Node6&#45;&gt;Node3 -->
<g id="edge6" class="edge">
<title>Node6&#45;&gt;Node3</title>
<path fill="none" stroke="midnightblue" d="M274.65,-28.17C283.25,-29.33 292.12,-30.52 300.75,-31.68"/>
<polygon fill="midnightblue" stroke="midnightblue" points="300.34,-35.16 310.72,-33.02 301.28,-28.22 300.34,-35.16"/>
</g>
</g>
</svg>
        <g id="navigator" transform="translate(0 0)" fill="#404254">
                <rect fill="#f2f5e9" fill-opacity="0.5" stroke="#606060" stroke-width=".5" x="0" y="0" width="60" height="60"/>
                <use id="zoomplus" xlink:href="#zoomPlus" x="17" y="9" onmousedown="handleZoom(evt,'in')"/>
                <use id="zoomminus" xlink:href="#zoomMin" x="42" y="9" onmousedown="handleZoom(evt,'out')"/>
                <use id="reset" xlink:href="#resetDef" x="30" y="36" onmousedown="handleReset()"/>
                <g id="arrowUp" xlink:href="#dirArrow" transform="translate(30 24)" onmousedown="handlePan(0,-1)">
                  <use xlink:href="#rim" fill="#404040">
                        <set attributeName="fill" to="#808080" begin="arrowUp.mouseover" end="arrowUp.mouseout"/>
                  </use>
                  <path fill="none" stroke="white" stroke-width="1.5" d="M0,-3.0v7 M-2.5,-0.5L0,-3.0L2.5,-0.5"/>
                </g>
                <g id="arrowRight" xlink:href="#dirArrow" transform="rotate(90) translate(36 -43)" onmousedown="handlePan(1,0)">
                  <use xlink:href="#rim" fill="#404040">
                        <set attributeName="fill" to="#808080" begin="arrowRight.mouseover" end="arrowRight.mouseout"/>
                  </use>
                  <path fill="none" stroke="white" stroke-width="1.5" d="M0,-3.0v7 M-2.5,-0.5L0,-3.0L2.5,-0.5"/>
                </g>
                <g id="arrowDown" xlink:href="#dirArrow" transform="rotate(180) translate(-30 -48)" onmousedown="handlePan(0,1)">
                  <use xlink:href="#rim" fill="#404040">
                        <set attributeName="fill" to="#808080" begin="arrowDown.mouseover" end="arrowDown.mouseout"/>
                  </use>
                  <path fill="none" stroke="white" stroke-width="1.5" d="M0,-3.0v7 M-2.5,-0.5L0,-3.0L2.5,-0.5"/>
                </g>
                <g id="arrowLeft" xlink:href="#dirArrow" transform="rotate(270) translate(-36 17)" onmousedown="handlePan(-1,0)">
                  <use xlink:href="#rim" fill="#404040">
                        <set attributeName="fill" to="#808080" begin="arrowLeft.mouseover" end="arrowLeft.mouseout"/>
                  </use>
                  <path fill="none" stroke="white" stroke-width="1.5" d="M0,-3.0v7 M-2.5,-0.5L0,-3.0L2.5,-0.5"/>
                </g>
        </g>
        <svg viewBox="0 0 15 15" width="100%" height="30px" preserveAspectRatio="xMaxYMin meet">
         <g id="arrow_out" transform="scale(0.3 0.3)">
          <a xlink:href="classft_1_1serv_1_1event__worker_ad207c630e203c7737687a31ea0230f8c_cgraph_org.svg" target="_base">
           <rect id="button" ry="5" rx="5" y="6" x="6" height="38" width="38"
                fill="#f2f5e9" fill-opacity="0.5" stroke="#606060" stroke-width="1.0"/>
           <path id="arrow"
             d="M 11.500037,31.436501 C 11.940474,20.09759 22.043105,11.32322 32.158766,21.979434 L 37.068811,17.246167 C 37.068811,17.246167 37.088388,32 37.088388,32 L 22.160133,31.978069 C 22.160133,31.978069 26.997745,27.140456 26.997745,27.140456 C 18.528582,18.264221 13.291696,25.230495 11.500037,31.436501 z"
             style="fill:#404040;"/>
          </a>
         </g>
        </svg>
</svg>
