<?xml version="1.0" encoding="UTF-8" standalone="no"?>
<!DOCTYPE svg PUBLIC "-//W3C//DTD SVG 1.1//EN"
 "http://www.w3.org/Graphics/SVG/1.1/DTD/svg11.dtd">
<!-- Generated by graphviz version 2.43.0 (0)
 -->
<!-- Title: ft::irc::bot_handler::on_read Pages: 1 -->
<svg width="271pt" height="78pt"
 viewBox="0.00 0.00 271.00 77.50" xmlns="http://www.w3.org/2000/svg" xmlns:xlink="http://www.w3.org/1999/xlink">
<g id="graph0" class="graph" transform="scale(1 1) rotate(0) translate(4 73.5)">
<title>ft::irc::bot_handler::on_read</title>
<polygon fill="white" stroke="transparent" points="-4,4 -4,-73.5 267,-73.5 267,4 -4,4"/>
<!-- Node1 -->
<g id="node1" class="node">
<title>Node1</title>
<g id="a_node1"><a xlink:title=" ">
<polygon fill="#bfbfbf" stroke="black" points="0,-22.5 0,-52.5 105,-52.5 105,-22.5 0,-22.5"/>
<text text-anchor="start" x="8" y="-40.5" font-family="Helvetica,sans-Serif" font-size="10.00">ft::irc::bot_handler</text>
<text text-anchor="middle" x="52.5" y="-29.5" font-family="Helvetica,sans-Serif" font-size="10.00">::on_read</text>
</a>
</g>
</g>
<!-- Node2 -->
<g id="node2" class="node">
<title>Node2</title>
<g id="a_node2"><a xlink:href="structft_1_1serv_1_1logger.html#a318b50018ef710a34d9ceea9fcac623c" target="_top" xlink:title=" ">
<polygon fill="white" stroke="black" points="141,-50 141,-69 263,-69 263,-50 141,-50"/>
<text text-anchor="middle" x="202" y="-57" font-family="Helvetica,sans-Serif" font-size="10.00">ft::serv::logger::debug</text>
</a>
</g>
</g>
<!-- Node1&#45;&gt;Node2 -->
<g id="edge1" class="edge">
<title>Node1&#45;&gt;Node2</title>
<path fill="none" stroke="midnightblue" d="M105.09,-45.19C113.39,-46.43 122.1,-47.73 130.75,-49.02"/>
<polygon fill="midnightblue" stroke="midnightblue" points="130.44,-52.51 140.84,-50.53 131.47,-45.59 130.44,-52.51"/>
</g>
<!-- Node3 -->
<g id="node3" class="node">
<title>Node3</title>
<g id="a_node3"><a xlink:href="classft_1_1irc_1_1message.html#a076fdbb740cb752dd153e207f076183a" target="_top" xlink:title=" ">
<polygon fill="white" stroke="black" points="148.5,-0.5 148.5,-30.5 255.5,-30.5 255.5,-0.5 148.5,-0.5"/>
<text text-anchor="start" x="156.5" y="-18.5" font-family="Helvetica,sans-Serif" font-size="10.00">ft::irc::message::to</text>
<text text-anchor="middle" x="202" y="-7.5" font-family="Helvetica,sans-Serif" font-size="10.00">_pretty_string</text>
</a>
</g>
</g>
<!-- Node1&#45;&gt;Node3 -->
<g id="edge2" class="edge">
<title>Node1&#45;&gt;Node3</title>
<path fill="none" stroke="midnightblue" d="M105.09,-29.81C115.77,-28.21 127.14,-26.52 138.18,-24.87"/>
<polygon fill="midnightblue" stroke="midnightblue" points="138.82,-28.31 148.19,-23.38 137.78,-21.39 138.82,-28.31"/>
</g>
</g>
</svg>
