<?xml version="1.0" encoding="UTF-8" standalone="no"?>
<!DOCTYPE svg PUBLIC "-//W3C//DTD SVG 1.1//EN"
 "http://www.w3.org/Graphics/SVG/1.1/DTD/svg11.dtd">
<!-- Generated by graphviz version 2.43.0 (0)
 -->
<!-- Title: ft::irc::bot::on_packet Pages: 1 -->
<svg width="694pt" height="575pt"
 viewBox="0.00 0.00 694.00 574.50" xmlns="http://www.w3.org/2000/svg" xmlns:xlink="http://www.w3.org/1999/xlink">
<g id="graph0" class="graph" transform="scale(1 1) rotate(0) translate(4 570.5)">
<title>ft::irc::bot::on_packet</title>
<polygon fill="white" stroke="transparent" points="-4,4 -4,-570.5 690,-570.5 690,4 -4,4"/>
<!-- Node1 -->
<g id="node1" class="node">
<title>Node1</title>
<g id="a_node1"><a xlink:title=" ">
<polygon fill="#bfbfbf" stroke="black" points="0,-284 0,-303 119,-303 119,-284 0,-284"/>
<text text-anchor="middle" x="59.5" y="-291" font-family="Helvetica,sans-Serif" font-size="10.00">ft::irc::bot::on_packet</text>
</a>
</g>
</g>
<!-- Node2 -->
<g id="node2" class="node">
<title>Node2</title>
<g id="a_node2"><a xlink:href="classft_1_1irc_1_1bot.html#ab9626c6fee28a7fa7cb968c76362834c" target="_top" xlink:title=" ">
<polygon fill="white" stroke="black" points="158.5,-547 158.5,-566 282.5,-566 282.5,-547 158.5,-547"/>
<text text-anchor="middle" x="220.5" y="-554" font-family="Helvetica,sans-Serif" font-size="10.00">ft::irc::bot::add_inviter</text>
</a>
</g>
</g>
<!-- Node1&#45;&gt;Node2 -->
<g id="edge1" class="edge">
<title>Node1&#45;&gt;Node2</title>
<path fill="none" stroke="midnightblue" d="M61.26,-303.1C64.68,-339.46 81.79,-470.13 155,-537.5 156.71,-539.07 158.54,-540.52 160.47,-541.84"/>
<polygon fill="midnightblue" stroke="midnightblue" points="159.01,-545.04 169.44,-546.92 162.46,-538.95 159.01,-545.04"/>
</g>
<!-- Node3 -->
<g id="node3" class="node">
<title>Node3</title>
<g id="a_node3"><a xlink:href="classft_1_1irc_1_1bot.html#aef50e26ad9e418841745fec737a929e1" target="_top" xlink:title=" ">
<polygon fill="white" stroke="black" points="177,-459.5 177,-489.5 264,-489.5 264,-459.5 177,-459.5"/>
<text text-anchor="start" x="185" y="-477.5" font-family="Helvetica,sans-Serif" font-size="10.00">ft::irc::bot::find</text>
<text text-anchor="middle" x="220.5" y="-466.5" font-family="Helvetica,sans-Serif" font-size="10.00">_channels</text>
</a>
</g>
</g>
<!-- Node1&#45;&gt;Node3 -->
<g id="edge2" class="edge">
<title>Node1&#45;&gt;Node3</title>
<path fill="none" stroke="midnightblue" d="M63.71,-303.14C73.22,-330.27 103.83,-408.04 155,-450.5 158.77,-453.63 162.98,-456.37 167.4,-458.76"/>
<polygon fill="midnightblue" stroke="midnightblue" points="166.16,-462.05 176.69,-463.22 169.18,-455.74 166.16,-462.05"/>
</g>
<!-- Node4 -->
<g id="node4" class="node">
<title>Node4</title>
<g id="a_node4"><a xlink:href="structft_1_1irc_1_1string__utils.html#abd73422cb93e7f7f26cfd59a221933a2" target="_top" xlink:title=" ">
<polygon fill="white" stroke="black" points="322,-368.5 322,-398.5 423,-398.5 423,-368.5 322,-368.5"/>
<text text-anchor="start" x="330" y="-386.5" font-family="Helvetica,sans-Serif" font-size="10.00">ft::irc::string_utils</text>
<text text-anchor="middle" x="372.5" y="-375.5" font-family="Helvetica,sans-Serif" font-size="10.00">::is_same</text>
</a>
</g>
</g>
<!-- Node1&#45;&gt;Node4 -->
<g id="edge11" class="edge">
<title>Node1&#45;&gt;Node4</title>
<path fill="none" stroke="midnightblue" d="M119.23,-289.42C166.09,-288.33 232.5,-291.68 286,-313.5 311.49,-323.9 335.27,-344.64 351.25,-360.85"/>
<polygon fill="midnightblue" stroke="midnightblue" points="349,-363.57 358.44,-368.39 354.07,-358.74 349,-363.57"/>
</g>
<!-- Node7 -->
<g id="node7" class="node">
<title>Node7</title>
<g id="a_node7"><a xlink:href="classft_1_1irc_1_1message.html#ad323e99c45f6feec038a7de683f812a2" target="_top" xlink:title=" ">
<polygon fill="white" stroke="black" points="164,-410.5 164,-440.5 277,-440.5 277,-410.5 164,-410.5"/>
<text text-anchor="start" x="172" y="-428.5" font-family="Helvetica,sans-Serif" font-size="10.00">ft::irc::message::get</text>
<text text-anchor="middle" x="220.5" y="-417.5" font-family="Helvetica,sans-Serif" font-size="10.00">_command</text>
</a>
</g>
</g>
<!-- Node1&#45;&gt;Node7 -->
<g id="edge6" class="edge">
<title>Node1&#45;&gt;Node7</title>
<path fill="none" stroke="midnightblue" d="M66.65,-303.17C80.23,-323.78 114.74,-372.45 155,-400.5 157.71,-402.39 160.58,-404.16 163.55,-405.82"/>
<polygon fill="midnightblue" stroke="midnightblue" points="162.17,-409.04 172.68,-410.45 165.34,-402.8 162.17,-409.04"/>
</g>
<!-- Node8 -->
<g id="node8" class="node">
<title>Node8</title>
<g id="a_node8"><a xlink:href="classft_1_1irc_1_1bot.html#a38baf3c513838c769c61c825a4b8a8a2" target="_top" xlink:title=" ">
<polygon fill="white" stroke="black" points="165.5,-372 165.5,-391 275.5,-391 275.5,-372 165.5,-372"/>
<text text-anchor="middle" x="220.5" y="-379" font-family="Helvetica,sans-Serif" font-size="10.00">ft::irc::bot::get_nick</text>
</a>
</g>
</g>
<!-- Node1&#45;&gt;Node8 -->
<g id="edge7" class="edge">
<title>Node1&#45;&gt;Node8</title>
<path fill="none" stroke="midnightblue" d="M71.04,-303.12C87.7,-317.86 121.67,-346.04 155,-362.5 159.59,-364.77 164.51,-366.82 169.49,-368.65"/>
<polygon fill="midnightblue" stroke="midnightblue" points="168.52,-372.02 179.12,-371.93 170.78,-365.39 168.52,-372.02"/>
</g>
<!-- Node9 -->
<g id="node9" class="node">
<title>Node9</title>
<g id="a_node9"><a xlink:href="classft_1_1irc_1_1message.html#a254aec48aa7b7872331cd5644d9e918c" target="_top" xlink:title=" ">
<polygon fill="white" stroke="black" points="164,-322.5 164,-352.5 277,-352.5 277,-322.5 164,-322.5"/>
<text text-anchor="start" x="172" y="-340.5" font-family="Helvetica,sans-Serif" font-size="10.00">ft::irc::message::get</text>
<text text-anchor="middle" x="220.5" y="-329.5" font-family="Helvetica,sans-Serif" font-size="10.00">_prefix</text>
</a>
</g>
</g>
<!-- Node1&#45;&gt;Node9 -->
<g id="edge8" class="edge">
<title>Node1&#45;&gt;Node9</title>
<path fill="none" stroke="midnightblue" d="M95,-303.05C112.66,-307.93 134.74,-314.05 155.38,-319.76"/>
<polygon fill="midnightblue" stroke="midnightblue" points="154.49,-323.14 165.06,-322.43 156.35,-316.39 154.49,-323.14"/>
</g>
<!-- Node10 -->
<g id="node10" class="node">
<title>Node10</title>
<g id="a_node10"><a xlink:href="classft_1_1irc_1_1bot.html#a8cdd94dface1cee6c920a6fba82c1624" target="_top" xlink:title=" ">
<polygon fill="white" stroke="black" points="163.5,-246 163.5,-265 277.5,-265 277.5,-246 163.5,-246"/>
<text text-anchor="middle" x="220.5" y="-253" font-family="Helvetica,sans-Serif" font-size="10.00">ft::irc::bot::is_inviter</text>
</a>
</g>
</g>
<!-- Node1&#45;&gt;Node10 -->
<g id="edge9" class="edge">
<title>Node1&#45;&gt;Node10</title>
<path fill="none" stroke="midnightblue" d="M100.62,-283.91C121.6,-278.9 147.48,-272.71 169.73,-267.39"/>
<polygon fill="midnightblue" stroke="midnightblue" points="170.75,-270.75 179.67,-265.02 169.13,-263.94 170.75,-270.75"/>
</g>
<!-- Node11 -->
<g id="node11" class="node">
<title>Node11</title>
<g id="a_node11"><a xlink:href="structft_1_1irc_1_1string__utils.html#a38cd804a5b73843f0fd63a027dd0dee0" target="_top" xlink:title=" ">
<polygon fill="white" stroke="black" points="155,-0.5 155,-30.5 286,-30.5 286,-0.5 155,-0.5"/>
<text text-anchor="start" x="163" y="-18.5" font-family="Helvetica,sans-Serif" font-size="10.00">ft::irc::string_utils</text>
<text text-anchor="middle" x="220.5" y="-7.5" font-family="Helvetica,sans-Serif" font-size="10.00">::is_valid_channelname</text>
</a>
</g>
</g>
<!-- Node1&#45;&gt;Node11 -->
<g id="edge12" class="edge">
<title>Node1&#45;&gt;Node11</title>
<path fill="none" stroke="midnightblue" d="M61.26,-283.94C64.7,-247.06 81.97,-112.53 155,-39.5 156.08,-38.42 157.22,-37.38 158.4,-36.4"/>
<polygon fill="midnightblue" stroke="midnightblue" points="160.59,-39.13 166.76,-30.52 156.57,-33.4 160.59,-39.13"/>
</g>
<!-- Node13 -->
<g id="node13" class="node">
<title>Node13</title>
<g id="a_node13"><a xlink:href="structft_1_1irc_1_1string__utils.html#ac1e75b32f508ffe5a1a1875d1e1cd2ea" target="_top" xlink:title=" ">
<polygon fill="white" stroke="black" points="170,-196.5 170,-226.5 271,-226.5 271,-196.5 170,-196.5"/>
<text text-anchor="start" x="178" y="-214.5" font-family="Helvetica,sans-Serif" font-size="10.00">ft::irc::string_utils</text>
<text text-anchor="middle" x="220.5" y="-203.5" font-family="Helvetica,sans-Serif" font-size="10.00">::pick_nick</text>
</a>
</g>
</g>
<!-- Node1&#45;&gt;Node13 -->
<g id="edge14" class="edge">
<title>Node1&#45;&gt;Node13</title>
<path fill="none" stroke="midnightblue" d="M74.79,-283.81C92.93,-271.76 125.42,-251.02 155,-236.5 159.22,-234.43 163.67,-232.4 168.16,-230.46"/>
<polygon fill="midnightblue" stroke="midnightblue" points="169.53,-233.68 177.41,-226.6 166.83,-227.22 169.53,-233.68"/>
</g>
<!-- Node14 -->
<g id="node14" class="node">
<title>Node14</title>
<g id="a_node14"><a xlink:href="classft_1_1serv_1_1event__layer.html#a854a0764bd67adfc716ec4237cd52672" target="_top" xlink:title=" ">
<polygon fill="white" stroke="black" points="164,-147.5 164,-177.5 277,-177.5 277,-147.5 164,-147.5"/>
<text text-anchor="start" x="172" y="-165.5" font-family="Helvetica,sans-Serif" font-size="10.00">ft::serv::event_layer</text>
<text text-anchor="middle" x="220.5" y="-154.5" font-family="Helvetica,sans-Serif" font-size="10.00">::post_flush</text>
</a>
</g>
</g>
<!-- Node1&#45;&gt;Node14 -->
<g id="edge15" class="edge">
<title>Node1&#45;&gt;Node14</title>
<path fill="none" stroke="midnightblue" d="M66.68,-283.93C80.29,-263.51 114.88,-215.31 155,-187.5 157.71,-185.62 160.59,-183.85 163.56,-182.2"/>
<polygon fill="midnightblue" stroke="midnightblue" points="165.35,-185.21 172.69,-177.57 162.19,-178.97 165.35,-185.21"/>
</g>
<!-- Node15 -->
<g id="node15" class="node">
<title>Node15</title>
<g id="a_node15"><a xlink:href="classft_1_1serv_1_1event__layer.html#add4946138f5f8a5870d52c44ca435aab" target="_top" xlink:title=" ">
<polygon fill="white" stroke="black" points="164,-98.5 164,-128.5 277,-128.5 277,-98.5 164,-98.5"/>
<text text-anchor="start" x="172" y="-116.5" font-family="Helvetica,sans-Serif" font-size="10.00">ft::serv::event_layer</text>
<text text-anchor="middle" x="220.5" y="-105.5" font-family="Helvetica,sans-Serif" font-size="10.00">::post_write</text>
</a>
</g>
</g>
<!-- Node1&#45;&gt;Node15 -->
<g id="edge16" class="edge">
<title>Node1&#45;&gt;Node15</title>
<path fill="none" stroke="midnightblue" d="M63.92,-283.63C73.76,-256.6 104.71,-180.56 155,-138.5 157.02,-136.81 159.16,-135.23 161.39,-133.75"/>
<polygon fill="midnightblue" stroke="midnightblue" points="163.49,-136.58 170.37,-128.53 159.96,-130.53 163.49,-136.58"/>
</g>
<!-- Node16 -->
<g id="node16" class="node">
<title>Node16</title>
<g id="a_node16"><a xlink:href="classft_1_1irc_1_1bot.html#af8c852e58073043cd63ace5d56c558fe" target="_top" xlink:title=" ">
<polygon fill="white" stroke="black" points="167,-49.5 167,-79.5 274,-79.5 274,-49.5 167,-49.5"/>
<text text-anchor="start" x="175" y="-67.5" font-family="Helvetica,sans-Serif" font-size="10.00">ft::irc::bot::remove</text>
<text text-anchor="middle" x="220.5" y="-56.5" font-family="Helvetica,sans-Serif" font-size="10.00">_inviter</text>
</a>
</g>
</g>
<!-- Node1&#45;&gt;Node16 -->
<g id="edge17" class="edge">
<title>Node1&#45;&gt;Node16</title>
<path fill="none" stroke="midnightblue" d="M62.29,-283.9C68.74,-251.78 93.79,-146.91 155,-89.5 156.67,-87.93 158.45,-86.46 160.32,-85.07"/>
<polygon fill="midnightblue" stroke="midnightblue" points="162.41,-87.89 168.96,-79.56 158.64,-81.99 162.41,-87.89"/>
</g>
<!-- Node17 -->
<g id="node17" class="node">
<title>Node17</title>
<g id="a_node17"><a xlink:href="classft_1_1irc_1_1bot.html#a6bea4a41bf2e963f84660531719b1515" target="_top" xlink:title=" ">
<polygon fill="white" stroke="black" points="156.5,-509 156.5,-528 284.5,-528 284.5,-509 156.5,-509"/>
<text text-anchor="middle" x="220.5" y="-516" font-family="Helvetica,sans-Serif" font-size="10.00">ft::irc::bot::update_nick</text>
</a>
</g>
</g>
<!-- Node1&#45;&gt;Node17 -->
<g id="edge18" class="edge">
<title>Node1&#45;&gt;Node17</title>
<path fill="none" stroke="midnightblue" d="M62.07,-303.4C67.86,-336.46 91.04,-444.13 155,-499.5 156.97,-501.2 159.09,-502.76 161.31,-504.17"/>
<polygon fill="midnightblue" stroke="midnightblue" points="159.85,-507.36 170.32,-508.96 163.13,-501.18 159.85,-507.36"/>
</g>
<!-- Node3&#45;&gt;Node4 -->
<g id="edge3" class="edge">
<title>Node3&#45;&gt;Node4</title>
<path fill="none" stroke="midnightblue" d="M264.32,-460.69C271.73,-457.71 279.22,-454.29 286,-450.5 308.48,-437.91 331.32,-419.67 347.73,-405.4"/>
<polygon fill="midnightblue" stroke="midnightblue" points="350.07,-408.01 355.25,-398.76 345.44,-402.76 350.07,-408.01"/>
</g>
<!-- Node5 -->
<g id="node5" class="node">
<title>Node5</title>
<g id="a_node5"><a xlink:href="structft_1_1irc_1_1string__utils.html#a367a22012cc0d2d25959ac3f4e5d33a9" target="_top" xlink:title=" ">
<polygon fill="white" stroke="black" points="459,-368.5 459,-398.5 560,-398.5 560,-368.5 459,-368.5"/>
<text text-anchor="start" x="467" y="-386.5" font-family="Helvetica,sans-Serif" font-size="10.00">ft::irc::string_utils</text>
<text text-anchor="middle" x="509.5" y="-375.5" font-family="Helvetica,sans-Serif" font-size="10.00">::to_lower</text>
</a>
</g>
</g>
<!-- Node4&#45;&gt;Node5 -->
<g id="edge4" class="edge">
<title>Node4&#45;&gt;Node5</title>
<path fill="none" stroke="midnightblue" d="M423,-383.5C431.24,-383.5 439.87,-383.5 448.34,-383.5"/>
<polygon fill="midnightblue" stroke="midnightblue" points="448.55,-387 458.55,-383.5 448.55,-380 448.55,-387"/>
</g>
<!-- Node6 -->
<g id="node6" class="node">
<title>Node6</title>
<g id="a_node6"><a xlink:href="namespaceft_1_1irc_1_1__internal.html#aa76c3a369f64725f8b2b52b2131c1111" target="_top" xlink:title=" ">
<polygon fill="white" stroke="black" points="596,-368.5 596,-398.5 686,-398.5 686,-368.5 596,-368.5"/>
<text text-anchor="start" x="604" y="-386.5" font-family="Helvetica,sans-Serif" font-size="10.00">ft::irc::_internal</text>
<text text-anchor="middle" x="641" y="-375.5" font-family="Helvetica,sans-Serif" font-size="10.00">::_to_lower</text>
</a>
</g>
</g>
<!-- Node5&#45;&gt;Node6 -->
<g id="edge5" class="edge">
<title>Node5&#45;&gt;Node6</title>
<path fill="none" stroke="midnightblue" d="M560.2,-383.5C568.51,-383.5 577.18,-383.5 585.61,-383.5"/>
<polygon fill="midnightblue" stroke="midnightblue" points="585.73,-387 595.73,-383.5 585.73,-380 585.73,-387"/>
</g>
<!-- Node10&#45;&gt;Node4 -->
<g id="edge10" class="edge">
<title>Node10&#45;&gt;Node4</title>
<path fill="none" stroke="midnightblue" d="M257.31,-265.05C267.14,-268.65 277.44,-273.4 286,-279.5 316.41,-301.18 342.17,-336.32 357.23,-359.66"/>
<polygon fill="midnightblue" stroke="midnightblue" points="354.37,-361.68 362.65,-368.28 360.29,-357.95 354.37,-361.68"/>
</g>
<!-- Node12 -->
<g id="node12" class="node">
<title>Node12</title>
<g id="a_node12"><a xlink:href="namespaceft_1_1irc_1_1__internal.html#ac421a738f6d955bab8b862fca8bd7159" target="_top" xlink:title=" ">
<polygon fill="white" stroke="black" points="327.5,-0.5 327.5,-30.5 417.5,-30.5 417.5,-0.5 327.5,-0.5"/>
<text text-anchor="start" x="335.5" y="-18.5" font-family="Helvetica,sans-Serif" font-size="10.00">ft::irc::_internal</text>
<text text-anchor="middle" x="372.5" y="-7.5" font-family="Helvetica,sans-Serif" font-size="10.00">::_is_except</text>
</a>
</g>
</g>
<!-- Node11&#45;&gt;Node12 -->
<g id="edge13" class="edge">
<title>Node11&#45;&gt;Node12</title>
<path fill="none" stroke="midnightblue" d="M286.42,-15.5C296.64,-15.5 307.12,-15.5 317.08,-15.5"/>
<polygon fill="midnightblue" stroke="midnightblue" points="317.23,-19 327.23,-15.5 317.23,-12 317.23,-19"/>
</g>
<!-- Node17&#45;&gt;Node4 -->
<g id="edge19" class="edge">
<title>Node17&#45;&gt;Node4</title>
<path fill="none" stroke="midnightblue" d="M267.62,-508.96C274.11,-506.48 280.45,-503.38 286,-499.5 319.94,-475.72 345.76,-434.14 359.75,-407.76"/>
<polygon fill="midnightblue" stroke="midnightblue" points="362.91,-409.28 364.37,-398.79 356.68,-406.08 362.91,-409.28"/>
</g>
</g>
</svg>
