<?xml version="1.0" encoding="UTF-8" standalone="no"?>
<!DOCTYPE svg PUBLIC "-//W3C//DTD SVG 1.1//EN"
 "http://www.w3.org/Graphics/SVG/1.1/DTD/svg11.dtd">
<!-- Generated by graphviz version 2.43.0 (0)
 -->
<!-- Title: ft::irc::user::send_message Pages: 1 -->
<svg width="574pt" height="868pt"
 viewBox="0.00 0.00 574.00 867.74" xmlns="http://www.w3.org/2000/svg" xmlns:xlink="http://www.w3.org/1999/xlink">
<g id="graph0" class="graph" transform="scale(1 1) rotate(0) translate(4 863.74)">
<title>ft::irc::user::send_message</title>
<polygon fill="white" stroke="transparent" points="-4,4 -4,-863.74 570,-863.74 570,4 -4,4"/>
<!-- Node1 -->
<g id="node1" class="node">
<title>Node1</title>
<g id="a_node1"><a xlink:title=" ">
<polygon fill="#bfbfbf" stroke="black" points="468,-417.76 468,-447.76 566,-447.76 566,-417.76 468,-417.76"/>
<text text-anchor="start" x="476" y="-435.76" font-family="Helvetica,sans-Serif" font-size="10.00">ft::irc::user::send</text>
<text text-anchor="middle" x="517" y="-424.76" font-family="Helvetica,sans-Serif" font-size="10.00">_message</text>
</a>
</g>
</g>
<!-- Node2 -->
<g id="node2" class="node">
<title>Node2</title>
<g id="a_node2"><a xlink:href="classft_1_1irc_1_1server.html#a773440405607167a9478a54fd8ab90f3" target="_top" xlink:title=" ">
<polygon fill="white" stroke="black" points="283,-800.26 283,-819.26 432,-819.26 432,-800.26 283,-800.26"/>
<text text-anchor="middle" x="357.5" y="-807.26" font-family="Helvetica,sans-Serif" font-size="10.00">ft::irc::server::broadcast_all</text>
</a>
</g>
</g>
<!-- Node1&#45;&gt;Node2 -->
<g id="edge1" class="edge">
<title>Node1&#45;&gt;Node2</title>
<path fill="none" stroke="midnightblue" d="M513.4,-458.42C505.42,-532.22 478.91,-742.79 432,-790.76 428.22,-794.63 423.77,-797.74 418.95,-800.25"/>
<polygon fill="midnightblue" stroke="midnightblue" points="516.91,-458.49 514.48,-448.18 509.95,-457.76 516.91,-458.49"/>
</g>
<!-- Node3 -->
<g id="node3" class="node">
<title>Node3</title>
<g id="a_node3"><a xlink:href="classft_1_1irc_1_1processor__oper.html#a941691cbab81d134cb4ffc30bd270d04" target="_top" xlink:title=" ">
<polygon fill="white" stroke="black" points="141.5,-815.76 141.5,-845.76 236.5,-845.76 236.5,-815.76 141.5,-815.76"/>
<text text-anchor="start" x="149.5" y="-833.76" font-family="Helvetica,sans-Serif" font-size="10.00">ft::irc::processor</text>
<text text-anchor="middle" x="189" y="-822.76" font-family="Helvetica,sans-Serif" font-size="10.00">_oper::execute</text>
</a>
</g>
</g>
<!-- Node1&#45;&gt;Node3 -->
<g id="edge16" class="edge">
<title>Node1&#45;&gt;Node3</title>
<path fill="none" stroke="midnightblue" d="M514.62,-458C509.71,-537.66 490.09,-781.31 432,-828.76 377.01,-873.69 289.16,-860.17 235.8,-845.79"/>
<polygon fill="midnightblue" stroke="midnightblue" points="518.13,-458.08 515.22,-447.89 511.14,-457.66 518.13,-458.08"/>
</g>
<!-- Node4 -->
<g id="node4" class="node">
<title>Node4</title>
<g id="a_node4"><a xlink:href="classft_1_1irc_1_1processor__dictionary.html#a50bd8e9f89f6f6a911f5495272cd7d41" target="_top" xlink:title=" ">
<polygon fill="white" stroke="black" points="300.5,-750.76 300.5,-780.76 414.5,-780.76 414.5,-750.76 300.5,-750.76"/>
<text text-anchor="start" x="308.5" y="-768.76" font-family="Helvetica,sans-Serif" font-size="10.00">ft::irc::processor</text>
<text text-anchor="middle" x="357.5" y="-757.76" font-family="Helvetica,sans-Serif" font-size="10.00">_dictionary::execute</text>
</a>
</g>
</g>
<!-- Node1&#45;&gt;Node4 -->
<g id="edge3" class="edge">
<title>Node1&#45;&gt;Node4</title>
<path fill="none" stroke="midnightblue" d="M516.7,-458.17C516.88,-516.42 509.02,-660.78 432,-741.76 427.1,-746.92 421.07,-750.97 414.6,-754.15"/>
<polygon fill="midnightblue" stroke="midnightblue" points="520.2,-457.98 516.58,-448.02 513.2,-458.06 520.2,-457.98"/>
</g>
<!-- Node6 -->
<g id="node6" class="node">
<title>Node6</title>
<g id="a_node6"><a xlink:href="classft_1_1irc_1_1processor__join.html#a7005b0403c1e6e10aa6f6f05339df357" target="_top" xlink:title=" ">
<polygon fill="white" stroke="black" points="141.5,-215.76 141.5,-245.76 236.5,-245.76 236.5,-215.76 141.5,-215.76"/>
<text text-anchor="start" x="149.5" y="-233.76" font-family="Helvetica,sans-Serif" font-size="10.00">ft::irc::processor</text>
<text text-anchor="middle" x="189" y="-222.76" font-family="Helvetica,sans-Serif" font-size="10.00">_join::execute</text>
</a>
</g>
</g>
<!-- Node1&#45;&gt;Node6 -->
<g id="edge5" class="edge">
<title>Node1&#45;&gt;Node6</title>
<path fill="none" stroke="midnightblue" d="M509.75,-407.47C499.66,-372.28 476.3,-309.22 432,-276.76 401.56,-254.46 298.06,-241.04 236.71,-234.86"/>
<polygon fill="midnightblue" stroke="midnightblue" points="506.46,-408.7 512.46,-417.43 513.21,-406.86 506.46,-408.7"/>
</g>
<!-- Node7 -->
<g id="node7" class="node">
<title>Node7</title>
<g id="a_node7"><a xlink:href="classft_1_1irc_1_1processor__part.html#a4075107cb360cd04c0a11a9904104ad0" target="_top" xlink:title=" ">
<polygon fill="white" stroke="black" points="310,-652.76 310,-682.76 405,-682.76 405,-652.76 310,-652.76"/>
<text text-anchor="start" x="318" y="-670.76" font-family="Helvetica,sans-Serif" font-size="10.00">ft::irc::processor</text>
<text text-anchor="middle" x="357.5" y="-659.76" font-family="Helvetica,sans-Serif" font-size="10.00">_part::execute</text>
</a>
</g>
</g>
<!-- Node1&#45;&gt;Node7 -->
<g id="edge6" class="edge">
<title>Node1&#45;&gt;Node7</title>
<path fill="none" stroke="midnightblue" d="M512.16,-457.88C504.41,-500.37 483.07,-586.76 432,-637.76 424.49,-645.26 414.85,-650.96 405.04,-655.27"/>
<polygon fill="midnightblue" stroke="midnightblue" points="515.64,-458.29 513.88,-447.84 508.74,-457.1 515.64,-458.29"/>
</g>
<!-- Node8 -->
<g id="node8" class="node">
<title>Node8</title>
<g id="a_node8"><a xlink:href="classft_1_1irc_1_1processor__mode.html#ad013987a789be47379c13f61364135a6" target="_top" xlink:title=" ">
<polygon fill="white" stroke="black" points="141.5,-654.76 141.5,-684.76 236.5,-684.76 236.5,-654.76 141.5,-654.76"/>
<text text-anchor="start" x="149.5" y="-672.76" font-family="Helvetica,sans-Serif" font-size="10.00">ft::irc::processor</text>
<text text-anchor="middle" x="189" y="-661.76" font-family="Helvetica,sans-Serif" font-size="10.00">_mode::execute</text>
</a>
</g>
</g>
<!-- Node1&#45;&gt;Node8 -->
<g id="edge7" class="edge">
<title>Node1&#45;&gt;Node8</title>
<path fill="none" stroke="midnightblue" d="M510.74,-457.94C501.51,-495.65 478.8,-566.43 432,-604.76 379.04,-648.14 349.08,-625.88 283,-643.76 267.95,-647.84 251.56,-652.38 236.79,-656.52"/>
<polygon fill="midnightblue" stroke="midnightblue" points="514.24,-458.34 513.08,-447.81 507.42,-456.76 514.24,-458.34"/>
</g>
<!-- Node9 -->
<g id="node9" class="node">
<title>Node9</title>
<g id="a_node9"><a xlink:href="classft_1_1irc_1_1processor__topic.html#ae4eec2a7267b66791a72bbab1d4842c0" target="_top" xlink:title=" ">
<polygon fill="white" stroke="black" points="310,-564.76 310,-594.76 405,-594.76 405,-564.76 310,-564.76"/>
<text text-anchor="start" x="318" y="-582.76" font-family="Helvetica,sans-Serif" font-size="10.00">ft::irc::processor</text>
<text text-anchor="middle" x="357.5" y="-571.76" font-family="Helvetica,sans-Serif" font-size="10.00">_topic::execute</text>
</a>
</g>
</g>
<!-- Node1&#45;&gt;Node9 -->
<g id="edge8" class="edge">
<title>Node1&#45;&gt;Node9</title>
<path fill="none" stroke="midnightblue" d="M505.23,-457.41C491.9,-485.17 466.63,-529.78 432,-555.76 424.05,-561.72 414.56,-566.24 405.08,-569.66"/>
<polygon fill="midnightblue" stroke="midnightblue" points="508.56,-458.56 509.6,-448.01 502.21,-455.61 508.56,-458.56"/>
</g>
<!-- Node10 -->
<g id="node10" class="node">
<title>Node10</title>
<g id="a_node10"><a xlink:href="classft_1_1irc_1_1processor__invite.html#a558fbe35293f4a0783af9a50f7146eeb" target="_top" xlink:title=" ">
<polygon fill="white" stroke="black" points="310,-515.76 310,-545.76 405,-545.76 405,-515.76 310,-515.76"/>
<text text-anchor="start" x="318" y="-533.76" font-family="Helvetica,sans-Serif" font-size="10.00">ft::irc::processor</text>
<text text-anchor="middle" x="357.5" y="-522.76" font-family="Helvetica,sans-Serif" font-size="10.00">_invite::execute</text>
</a>
</g>
</g>
<!-- Node1&#45;&gt;Node10 -->
<g id="edge9" class="edge">
<title>Node1&#45;&gt;Node10</title>
<path fill="none" stroke="midnightblue" d="M495.34,-455.35C479.4,-471.61 456.08,-493.01 432,-506.76 423.72,-511.49 414.38,-515.44 405.21,-518.68"/>
<polygon fill="midnightblue" stroke="midnightblue" points="498.15,-457.48 502.54,-447.84 493.09,-452.64 498.15,-457.48"/>
</g>
<!-- Node11 -->
<g id="node11" class="node">
<title>Node11</title>
<g id="a_node11"><a xlink:href="classft_1_1irc_1_1processor__kick.html#ac453ac8376e577bb0a2b4f074fe9be1b" target="_top" xlink:title=" ">
<polygon fill="white" stroke="black" points="310,-466.76 310,-496.76 405,-496.76 405,-466.76 310,-466.76"/>
<text text-anchor="start" x="318" y="-484.76" font-family="Helvetica,sans-Serif" font-size="10.00">ft::irc::processor</text>
<text text-anchor="middle" x="357.5" y="-473.76" font-family="Helvetica,sans-Serif" font-size="10.00">_kick::execute</text>
</a>
</g>
</g>
<!-- Node1&#45;&gt;Node11 -->
<g id="edge10" class="edge">
<title>Node1&#45;&gt;Node11</title>
<path fill="none" stroke="midnightblue" d="M457.87,-450.85C440.53,-456.24 421.75,-462.09 405.24,-467.22"/>
<polygon fill="midnightblue" stroke="midnightblue" points="459.38,-454.04 467.89,-447.73 457.3,-447.36 459.38,-454.04"/>
</g>
<!-- Node12 -->
<g id="node12" class="node">
<title>Node12</title>
<g id="a_node12"><a xlink:href="classft_1_1irc_1_1processor__kill.html#a3f41c93c4c3a85ccb4b034c5a185208a" target="_top" xlink:title=" ">
<polygon fill="white" stroke="black" points="310,-417.76 310,-447.76 405,-447.76 405,-417.76 310,-417.76"/>
<text text-anchor="start" x="318" y="-435.76" font-family="Helvetica,sans-Serif" font-size="10.00">ft::irc::processor</text>
<text text-anchor="middle" x="357.5" y="-424.76" font-family="Helvetica,sans-Serif" font-size="10.00">_kill::execute</text>
</a>
</g>
</g>
<!-- Node1&#45;&gt;Node12 -->
<g id="edge11" class="edge">
<title>Node1&#45;&gt;Node12</title>
<path fill="none" stroke="midnightblue" d="M457.87,-432.76C440.53,-432.76 421.75,-432.76 405.24,-432.76"/>
<polygon fill="midnightblue" stroke="midnightblue" points="457.89,-436.26 467.89,-432.76 457.89,-429.26 457.89,-436.26"/>
</g>
<!-- Node13 -->
<g id="node13" class="node">
<title>Node13</title>
<g id="a_node13"><a xlink:href="classft_1_1irc_1_1processor__away.html#aa27e728b610738f26ae7264183da2808" target="_top" xlink:title=" ">
<polygon fill="white" stroke="black" points="310,-368.76 310,-398.76 405,-398.76 405,-368.76 310,-368.76"/>
<text text-anchor="start" x="318" y="-386.76" font-family="Helvetica,sans-Serif" font-size="10.00">ft::irc::processor</text>
<text text-anchor="middle" x="357.5" y="-375.76" font-family="Helvetica,sans-Serif" font-size="10.00">_away::execute</text>
</a>
</g>
</g>
<!-- Node1&#45;&gt;Node13 -->
<g id="edge12" class="edge">
<title>Node1&#45;&gt;Node13</title>
<path fill="none" stroke="midnightblue" d="M457.87,-414.68C440.53,-409.28 421.75,-403.44 405.24,-398.3"/>
<polygon fill="midnightblue" stroke="midnightblue" points="457.3,-418.17 467.89,-417.8 459.38,-411.48 457.3,-418.17"/>
</g>
<!-- Node14 -->
<g id="node14" class="node">
<title>Node14</title>
<g id="a_node14"><a xlink:href="classft_1_1irc_1_1processor__pass.html#a8b0f8638123bb81ce8f4e493e43b45a0" target="_top" xlink:title=" ">
<polygon fill="white" stroke="black" points="310,-319.76 310,-349.76 405,-349.76 405,-319.76 310,-319.76"/>
<text text-anchor="start" x="318" y="-337.76" font-family="Helvetica,sans-Serif" font-size="10.00">ft::irc::processor</text>
<text text-anchor="middle" x="357.5" y="-326.76" font-family="Helvetica,sans-Serif" font-size="10.00">_pass::execute</text>
</a>
</g>
</g>
<!-- Node1&#45;&gt;Node14 -->
<g id="edge13" class="edge">
<title>Node1&#45;&gt;Node14</title>
<path fill="none" stroke="midnightblue" d="M494.95,-410.29C478.96,-394.34 455.75,-373.42 432,-359.76 423.7,-354.99 414.35,-350.95 405.18,-347.59"/>
<polygon fill="midnightblue" stroke="midnightblue" points="492.68,-412.98 502.18,-417.67 497.68,-408.08 492.68,-412.98"/>
</g>
<!-- Node15 -->
<g id="node15" class="node">
<title>Node15</title>
<g id="a_node15"><a xlink:href="classft_1_1irc_1_1processor__nick.html#a7a2f0f709488328c04b6ccf0c41ce78e" target="_top" xlink:title=" ">
<polygon fill="white" stroke="black" points="0,-135.76 0,-165.76 95,-165.76 95,-135.76 0,-135.76"/>
<text text-anchor="start" x="8" y="-153.76" font-family="Helvetica,sans-Serif" font-size="10.00">ft::irc::processor</text>
<text text-anchor="middle" x="47.5" y="-142.76" font-family="Helvetica,sans-Serif" font-size="10.00">_nick::execute</text>
</a>
</g>
</g>
<!-- Node1&#45;&gt;Node15 -->
<g id="edge14" class="edge">
<title>Node1&#45;&gt;Node15</title>
<path fill="none" stroke="midnightblue" d="M506.15,-408.28C493.43,-380.01 468.5,-334.38 432,-310.76 317.82,-236.89 247.45,-326.01 131,-255.76 94.47,-233.73 67.83,-189.13 55.74,-165.78"/>
<polygon fill="midnightblue" stroke="midnightblue" points="502.95,-409.71 510.14,-417.49 509.37,-406.93 502.95,-409.71"/>
</g>
<!-- Node16 -->
<g id="node16" class="node">
<title>Node16</title>
<g id="a_node16"><a xlink:href="classft_1_1irc_1_1processor__user.html#aa42b3fdd743060d5f9afaaff5e46e28f" target="_top" xlink:title=" ">
<polygon fill="white" stroke="black" points="0,-64.76 0,-94.76 95,-94.76 95,-64.76 0,-64.76"/>
<text text-anchor="start" x="8" y="-82.76" font-family="Helvetica,sans-Serif" font-size="10.00">ft::irc::processor</text>
<text text-anchor="middle" x="47.5" y="-71.76" font-family="Helvetica,sans-Serif" font-size="10.00">_user::execute</text>
</a>
</g>
</g>
<!-- Node1&#45;&gt;Node16 -->
<g id="edge15" class="edge">
<title>Node1&#45;&gt;Node16</title>
<path fill="none" stroke="midnightblue" d="M514.39,-407.27C508.87,-328.95 487.88,-94.28 432,-47.76 329.16,37.84 261.7,-13.11 131,-41.76 110.82,-46.19 89.69,-56.03 73.87,-64.6"/>
<polygon fill="midnightblue" stroke="midnightblue" points="510.93,-407.91 515.09,-417.65 517.91,-407.44 510.93,-407.91"/>
</g>
<!-- Node17 -->
<g id="node17" class="node">
<title>Node17</title>
<g id="a_node17"><a xlink:href="classft_1_1irc_1_1processor__message__base.html#ab3fba6f27483543b9c7a559fd2e1402b" target="_top" xlink:title=" ">
<polygon fill="white" stroke="black" points="288,-193.76 288,-223.76 427,-223.76 427,-193.76 288,-193.76"/>
<text text-anchor="start" x="296" y="-211.76" font-family="Helvetica,sans-Serif" font-size="10.00">ft::irc::processor</text>
<text text-anchor="middle" x="357.5" y="-200.76" font-family="Helvetica,sans-Serif" font-size="10.00">_message_base::execute</text>
</a>
</g>
</g>
<!-- Node1&#45;&gt;Node17 -->
<g id="edge17" class="edge">
<title>Node1&#45;&gt;Node17</title>
<path fill="none" stroke="midnightblue" d="M511.52,-407.82C502.99,-367.2 480.75,-286.49 432,-238.76 425.8,-232.69 418.19,-227.79 410.26,-223.85"/>
<polygon fill="midnightblue" stroke="midnightblue" points="508.1,-408.57 513.49,-417.7 514.97,-407.21 508.1,-408.57"/>
</g>
<!-- Node18 -->
<g id="node18" class="node">
<title>Node18</title>
<g id="a_node18"><a xlink:href="classft_1_1irc_1_1server.html#a3f4e06d5a9cf57441582f77b95f87135" target="_top" xlink:title=" ">
<polygon fill="white" stroke="black" points="293.5,-57.26 293.5,-76.26 421.5,-76.26 421.5,-57.26 293.5,-57.26"/>
<text text-anchor="middle" x="357.5" y="-64.26" font-family="Helvetica,sans-Serif" font-size="10.00">ft::irc::server::send_list</text>
</a>
</g>
</g>
<!-- Node1&#45;&gt;Node18 -->
<g id="edge18" class="edge">
<title>Node1&#45;&gt;Node18</title>
<path fill="none" stroke="midnightblue" d="M513.23,-407.4C504.87,-335.41 477.61,-132.08 432,-85.76 428.21,-81.91 423.75,-78.81 418.93,-76.31"/>
<polygon fill="midnightblue" stroke="midnightblue" points="509.76,-407.86 514.37,-417.4 516.72,-407.07 509.76,-407.86"/>
</g>
<!-- Node20 -->
<g id="node20" class="node">
<title>Node20</title>
<g id="a_node20"><a xlink:href="classft_1_1irc_1_1channel.html#a5b005d44090820196503e46e45724a51" target="_top" xlink:title=" ">
<polygon fill="white" stroke="black" points="300,-144.76 300,-174.76 415,-174.76 415,-144.76 300,-144.76"/>
<text text-anchor="start" x="308" y="-162.76" font-family="Helvetica,sans-Serif" font-size="10.00">ft::irc::channel::send</text>
<text text-anchor="middle" x="357.5" y="-151.76" font-family="Helvetica,sans-Serif" font-size="10.00">_names</text>
</a>
</g>
</g>
<!-- Node1&#45;&gt;Node20 -->
<g id="edge20" class="edge">
<title>Node1&#45;&gt;Node20</title>
<path fill="none" stroke="midnightblue" d="M514.59,-407.38C510.48,-357.76 494.42,-247.26 432,-184.76 427.14,-179.9 421.3,-175.98 415.07,-172.83"/>
<polygon fill="midnightblue" stroke="midnightblue" points="511.11,-407.83 515.33,-417.55 518.1,-407.32 511.11,-407.83"/>
</g>
<!-- Node22 -->
<g id="node22" class="node">
<title>Node22</title>
<g id="a_node22"><a xlink:href="classft_1_1irc_1_1server.html#a5ecd192da409f6740de44ea8cb3b44cf" target="_top" xlink:title=" ">
<polygon fill="white" stroke="black" points="304,-95.76 304,-125.76 411,-125.76 411,-95.76 304,-95.76"/>
<text text-anchor="start" x="312" y="-113.76" font-family="Helvetica,sans-Serif" font-size="10.00">ft::irc::server::send</text>
<text text-anchor="middle" x="357.5" y="-102.76" font-family="Helvetica,sans-Serif" font-size="10.00">_welcome</text>
</a>
</g>
</g>
<!-- Node1&#45;&gt;Node22 -->
<g id="edge23" class="edge">
<title>Node1&#45;&gt;Node22</title>
<path fill="none" stroke="midnightblue" d="M516.29,-407.24C515.52,-350.62 505.66,-213.38 432,-135.76 426.25,-129.7 418.97,-125.11 411.24,-121.63"/>
<polygon fill="midnightblue" stroke="midnightblue" points="512.79,-407.46 516.34,-417.45 519.79,-407.43 512.79,-407.46"/>
</g>
<!-- Node24 -->
<g id="node24" class="node">
<title>Node24</title>
<g id="a_node24"><a xlink:href="classft_1_1irc_1_1processor__mode.html#a4447a4030b15157ccecfe992192de4b5" target="_top" xlink:title=" ">
<polygon fill="white" stroke="black" points="283,-701.76 283,-731.76 432,-731.76 432,-701.76 283,-701.76"/>
<text text-anchor="start" x="291" y="-719.76" font-family="Helvetica,sans-Serif" font-size="10.00">ft::irc::processor</text>
<text text-anchor="middle" x="357.5" y="-708.76" font-family="Helvetica,sans-Serif" font-size="10.00">_mode::update_user_mode</text>
</a>
</g>
</g>
<!-- Node1&#45;&gt;Node24 -->
<g id="edge27" class="edge">
<title>Node1&#45;&gt;Node24</title>
<path fill="none" stroke="midnightblue" d="M515.14,-457.98C512.02,-509.36 497.68,-626.88 432,-692.76 428.59,-696.19 424.68,-699.12 420.49,-701.64"/>
<polygon fill="midnightblue" stroke="midnightblue" points="518.65,-457.95 515.66,-447.78 511.66,-457.59 518.65,-457.95"/>
</g>
<!-- Node2&#45;&gt;Node3 -->
<g id="edge2" class="edge">
<title>Node2&#45;&gt;Node3</title>
<path fill="none" stroke="midnightblue" d="M273.02,-820.29C260.57,-821.86 248.13,-823.43 236.81,-824.86"/>
<polygon fill="midnightblue" stroke="midnightblue" points="273.5,-823.76 282.99,-819.04 272.63,-816.81 273.5,-823.76"/>
</g>
<!-- Node5 -->
<g id="node5" class="node">
<title>Node5</title>
<g id="a_node5"><a xlink:href="classft_1_1irc_1_1client__handler.html#a239d2ec2a936d74893455a83468669b3" target="_top" xlink:title=" ">
<polygon fill="white" stroke="black" points="131,-750.76 131,-780.76 247,-780.76 247,-750.76 131,-750.76"/>
<text text-anchor="start" x="139" y="-768.76" font-family="Helvetica,sans-Serif" font-size="10.00">ft::irc::client_handler</text>
<text text-anchor="middle" x="189" y="-757.76" font-family="Helvetica,sans-Serif" font-size="10.00">::on_read</text>
</a>
</g>
</g>
<!-- Node4&#45;&gt;Node5 -->
<g id="edge4" class="edge">
<title>Node4&#45;&gt;Node5</title>
<path fill="none" stroke="midnightblue" d="M289.96,-765.76C275.79,-765.76 260.94,-765.76 247.16,-765.76"/>
<polygon fill="midnightblue" stroke="midnightblue" points="290.13,-769.26 300.13,-765.76 290.13,-762.26 290.13,-769.26"/>
</g>
<!-- Node19 -->
<g id="node19" class="node">
<title>Node19</title>
<g id="a_node19"><a xlink:href="classft_1_1irc_1_1processor__list.html#aa4ed52d03d87a5f03d9c6d2e53e0409b" target="_top" xlink:title=" ">
<polygon fill="white" stroke="black" points="141.5,-51.76 141.5,-81.76 236.5,-81.76 236.5,-51.76 141.5,-51.76"/>
<text text-anchor="start" x="149.5" y="-69.76" font-family="Helvetica,sans-Serif" font-size="10.00">ft::irc::processor</text>
<text text-anchor="middle" x="189" y="-58.76" font-family="Helvetica,sans-Serif" font-size="10.00">_list::execute</text>
</a>
</g>
</g>
<!-- Node18&#45;&gt;Node19 -->
<g id="edge19" class="edge">
<title>Node18&#45;&gt;Node19</title>
<path fill="none" stroke="midnightblue" d="M282.86,-66.76C267.17,-66.76 251.02,-66.76 236.67,-66.76"/>
<polygon fill="midnightblue" stroke="midnightblue" points="283.08,-70.26 293.08,-66.76 283.08,-63.26 283.08,-70.26"/>
</g>
<!-- Node20&#45;&gt;Node6 -->
<g id="edge21" class="edge">
<title>Node20&#45;&gt;Node6</title>
<path fill="none" stroke="midnightblue" d="M299.61,-178.28C293.96,-180.37 288.34,-182.54 283,-184.76 260.71,-194.02 236.27,-206.19 218.04,-215.69"/>
<polygon fill="midnightblue" stroke="midnightblue" points="300.88,-181.54 309.11,-174.86 298.51,-174.96 300.88,-181.54"/>
</g>
<!-- Node21 -->
<g id="node21" class="node">
<title>Node21</title>
<g id="a_node21"><a xlink:href="classft_1_1irc_1_1processor__names.html#a95f660c1020ac7f26cceacd932f48f09" target="_top" xlink:title=" ">
<polygon fill="white" stroke="black" points="139.5,-149.76 139.5,-179.76 238.5,-179.76 238.5,-149.76 139.5,-149.76"/>
<text text-anchor="start" x="147.5" y="-167.76" font-family="Helvetica,sans-Serif" font-size="10.00">ft::irc::processor</text>
<text text-anchor="middle" x="189" y="-156.76" font-family="Helvetica,sans-Serif" font-size="10.00">_names::execute</text>
</a>
</g>
</g>
<!-- Node20&#45;&gt;Node21 -->
<g id="edge22" class="edge">
<title>Node20&#45;&gt;Node21</title>
<path fill="none" stroke="midnightblue" d="M289.24,-161.78C272.27,-162.29 254.38,-162.83 238.53,-163.31"/>
<polygon fill="midnightblue" stroke="midnightblue" points="289.78,-165.27 299.67,-161.47 289.57,-158.27 289.78,-165.27"/>
</g>
<!-- Node23 -->
<g id="node23" class="node">
<title>Node23</title>
<g id="a_node23"><a xlink:href="classft_1_1irc_1_1user.html#affa6016f0c81205cd3c60ea6e9706132" target="_top" xlink:title=" ">
<polygon fill="white" stroke="black" points="133,-100.76 133,-130.76 245,-130.76 245,-100.76 133,-100.76"/>
<text text-anchor="start" x="141" y="-118.76" font-family="Helvetica,sans-Serif" font-size="10.00">ft::irc::user::register</text>
<text text-anchor="middle" x="189" y="-107.76" font-family="Helvetica,sans-Serif" font-size="10.00">_to_server</text>
</a>
</g>
</g>
<!-- Node22&#45;&gt;Node23 -->
<g id="edge24" class="edge">
<title>Node22&#45;&gt;Node23</title>
<path fill="none" stroke="midnightblue" d="M293.55,-112.65C277.65,-113.13 260.7,-113.64 245.21,-114.11"/>
<polygon fill="midnightblue" stroke="midnightblue" points="293.93,-116.14 303.82,-112.35 293.72,-109.15 293.93,-116.14"/>
</g>
<!-- Node23&#45;&gt;Node15 -->
<g id="edge25" class="edge">
<title>Node23&#45;&gt;Node15</title>
<path fill="none" stroke="midnightblue" d="M123.1,-132.05C113.67,-134.41 104.11,-136.81 95.13,-139.06"/>
<polygon fill="midnightblue" stroke="midnightblue" points="124.02,-135.42 132.87,-129.6 122.31,-128.64 124.02,-135.42"/>
</g>
<!-- Node23&#45;&gt;Node16 -->
<g id="edge26" class="edge">
<title>Node23&#45;&gt;Node16</title>
<path fill="none" stroke="midnightblue" d="M123.1,-99.02C113.67,-96.58 104.11,-94.12 95.13,-91.8"/>
<polygon fill="midnightblue" stroke="midnightblue" points="122.31,-102.43 132.87,-101.54 124.06,-95.65 122.31,-102.43"/>
</g>
<!-- Node24&#45;&gt;Node8 -->
<g id="edge28" class="edge">
<title>Node24&#45;&gt;Node8</title>
<path fill="none" stroke="midnightblue" d="M293.64,-699.02C274.76,-693.69 254.39,-687.94 236.74,-682.96"/>
<polygon fill="midnightblue" stroke="midnightblue" points="292.79,-702.41 303.36,-701.76 294.69,-695.68 292.79,-702.41"/>
</g>
</g>
</svg>
