<?xml version="1.0" encoding="UTF-8" standalone="no"?>
<!DOCTYPE svg PUBLIC "-//W3C//DTD SVG 1.1//EN"
 "http://www.w3.org/Graphics/SVG/1.1/DTD/svg11.dtd">
<!-- Generated by graphviz version 2.43.0 (0)
 -->
<!-- Title: ft::irc::channel::is_banned Pages: 1 -->
<!--zoomable 219 -->
<svg id="main" version="1.1" xmlns="http://www.w3.org/2000/svg" xmlns:xlink="http://www.w3.org/1999/xlink" xml:space="preserve" onload="init(evt)">
<style type="text/css"><![CDATA[
.edge:hover path { stroke: red; }
.edge:hover polygon { stroke: red; fill: red; }
]]></style>
<script type="text/javascript"><![CDATA[
var edges = document.getElementsByTagName('g');
if (edges && edges.length) {
  for (var i=0;i<edges.length;i++) {
    if (edges[i].id.substr(0,4)=='edge') {
      edges[i].setAttribute('class','edge');
    }
  }
}
]]></script>
        <defs>
                <circle id="rim" cx="0" cy="0" r="7"/>
                <circle id="rim2" cx="0" cy="0" r="3.5"/>
                <g id="zoomPlus">
                        <use xlink:href="#rim" fill="#404040">
                                <set attributeName="fill" to="#808080" begin="zoomplus.mouseover" end="zoomplus.mouseout"/>
                        </use>
                        <path d="M-4,0h8M0,-4v8" fill="none" stroke="white" stroke-width="1.5" pointer-events="none"/>
                </g>
                <g id="zoomMin">
                        <use xlink:href="#rim" fill="#404040">
                                <set attributeName="fill" to="#808080" begin="zoomminus.mouseover" end="zoomminus.mouseout"/>
                        </use>
                        <path d="M-4,0h8" fill="none" stroke="white" stroke-width="1.5" pointer-events="none"/>
                </g>
                <g id="dirArrow">
                        <path fill="none" stroke="white" stroke-width="1.5" d="M0,-3.0v7 M-2.5,-0.5L0,-3.0L2.5,-0.5"/>
                </g>
               <g id="resetDef">
                       <use xlink:href="#rim2" fill="#404040">
                               <set attributeName="fill" to="#808080" begin="reset.mouseover" end="reset.mouseout"/>
                       </use>
               </g>
        </defs>

<script type="text/javascript">
var viewWidth = 556;
var viewHeight = 219;
var sectionId = 'dynsection-9';
</script>
<script xlink:href="svgpan.js"/>
<svg id="graph" class="graph">
<g id="viewport">
<title>ft::irc::channel::is_banned</title>
<polygon fill="white" stroke="transparent" points="-4,4 -4,-215 552,-215 552,4 -4,4"/>
<!-- Node1 -->
<g id="node1" class="node">
<title>Node1</title>
<g id="a_node1"><a xlink:title=" ">
<polygon fill="#bfbfbf" stroke="black" points="0,-87.5 0,-117.5 100,-117.5 100,-87.5 0,-87.5"/>
<text text-anchor="start" x="8" y="-105.5" font-family="Helvetica,sans-Serif" font-size="10.00">ft::irc::channel::is</text>
<text text-anchor="middle" x="50" y="-94.5" font-family="Helvetica,sans-Serif" font-size="10.00">_banned</text>
</a>
</g>
</g>
<!-- Node2 -->
<g id="node2" class="node">
<title>Node2</title>
<g id="a_node2"><a xlink:href="classft_1_1irc_1_1user.html#a4ef9a652a7bc6cae05b12c90ad5fb5c9" target="_top" xlink:title=" ">
<polygon fill="white" stroke="black" points="165.5,-180.5 165.5,-210.5 255.5,-210.5 255.5,-180.5 165.5,-180.5"/>
<text text-anchor="start" x="173.5" y="-198.5" font-family="Helvetica,sans-Serif" font-size="10.00">ft::irc::user::get</text>
<text text-anchor="middle" x="210.5" y="-187.5" font-family="Helvetica,sans-Serif" font-size="10.00">_hostname</text>
</a>
</g>
</g>
<!-- Node1&#45;&gt;Node2 -->
<g id="edge1" class="edge">
<title>Node1&#45;&gt;Node2</title>
<path fill="none" stroke="midnightblue" d="M66.03,-117.62C82.1,-133.05 108.96,-156.77 136,-171.5 142.1,-174.82 148.73,-177.78 155.44,-180.39"/>
<polygon fill="midnightblue" stroke="midnightblue" points="154.67,-183.83 165.26,-183.96 157.06,-177.25 154.67,-183.83"/>
</g>
<!-- Node3 -->
<g id="node3" class="node">
<title>Node3</title>
<g id="a_node3"><a xlink:href="classft_1_1irc_1_1user.html#ac8f0fd6e5ecd71a825fc82a763defedb" target="_top" xlink:title=" ">
<polygon fill="white" stroke="black" points="165.5,-131.5 165.5,-161.5 255.5,-161.5 255.5,-131.5 165.5,-131.5"/>
<text text-anchor="start" x="173.5" y="-149.5" font-family="Helvetica,sans-Serif" font-size="10.00">ft::irc::user::get</text>
<text text-anchor="middle" x="210.5" y="-138.5" font-family="Helvetica,sans-Serif" font-size="10.00">_username</text>
</a>
</g>
</g>
<!-- Node1&#45;&gt;Node3 -->
<g id="edge2" class="edge">
<title>Node1&#45;&gt;Node3</title>
<path fill="none" stroke="midnightblue" d="M100.28,-116.18C117.84,-121.06 137.7,-126.57 155.63,-131.54"/>
<polygon fill="midnightblue" stroke="midnightblue" points="154.79,-134.94 165.36,-134.25 156.66,-128.2 154.79,-134.94"/>
</g>
<!-- Node4 -->
<g id="node4" class="node">
<title>Node4</title>
<g id="a_node4"><a xlink:href="classft_1_1irc_1_1user.html#a7277f06aa83459f6f9b409858d602e3b" target="_top" xlink:title=" ">
<polygon fill="white" stroke="black" points="150,-93 150,-112 271,-112 271,-93 150,-93"/>
<text text-anchor="middle" x="210.5" y="-100" font-family="Helvetica,sans-Serif" font-size="10.00">ft::irc::user::load_nick</text>
</a>
</g>
</g>
<!-- Node1&#45;&gt;Node4 -->
<g id="edge3" class="edge">
<title>Node1&#45;&gt;Node4</title>
<path fill="none" stroke="midnightblue" d="M100.28,-102.5C112.81,-102.5 126.51,-102.5 139.84,-102.5"/>
<polygon fill="midnightblue" stroke="midnightblue" points="139.94,-106 149.94,-102.5 139.94,-99 139.94,-106"/>
</g>
<!-- Node5 -->
<g id="node5" class="node">
<title>Node5</title>
<g id="a_node5"><a xlink:href="structft_1_1irc_1_1string__utils.html#a357019bbfad30d20e56d2fb4f2a4319c" target="_top" xlink:title=" ">
<polygon fill="white" stroke="black" points="321,-49.5 321,-79.5 422,-79.5 422,-49.5 321,-49.5"/>
<text text-anchor="start" x="329" y="-67.5" font-family="Helvetica,sans-Serif" font-size="10.00">ft::irc::string_utils</text>
<text text-anchor="middle" x="371.5" y="-56.5" font-family="Helvetica,sans-Serif" font-size="10.00">::match_mask</text>
</a>
</g>
</g>
<!-- Node1&#45;&gt;Node5 -->
<g id="edge4" class="edge">
<title>Node1&#45;&gt;Node5</title>
<path fill="none" stroke="midnightblue" d="M100.22,-90.28C111.89,-87.72 124.34,-85.27 136,-83.5 195.07,-74.55 263.19,-69.62 310.74,-67.05"/>
<polygon fill="midnightblue" stroke="midnightblue" points="311.06,-70.53 320.86,-66.52 310.69,-63.54 311.06,-70.53"/>
</g>
<!-- Node6 -->
<g id="node6" class="node">
<title>Node6</title>
<g id="a_node6"><a xlink:href="structft_1_1irc_1_1string__utils.html#a4d870ac385b6f7fcdacaa1b071810876" target="_top" xlink:title=" ">
<polygon fill="white" stroke="black" points="136,-5.5 136,-35.5 285,-35.5 285,-5.5 136,-5.5"/>
<text text-anchor="start" x="144" y="-23.5" font-family="Helvetica,sans-Serif" font-size="10.00">ft::irc::string_utils</text>
<text text-anchor="middle" x="210.5" y="-12.5" font-family="Helvetica,sans-Serif" font-size="10.00">::match_mask_ignore_case</text>
</a>
</g>
</g>
<!-- Node1&#45;&gt;Node6 -->
<g id="edge5" class="edge">
<title>Node1&#45;&gt;Node6</title>
<path fill="none" stroke="midnightblue" d="M73.51,-87.34C90.32,-76.37 114.08,-61.59 136,-50.5 143.6,-46.65 151.82,-42.92 159.91,-39.46"/>
<polygon fill="midnightblue" stroke="midnightblue" points="161.42,-42.62 169.3,-35.54 158.73,-36.16 161.42,-42.62"/>
</g>
<!-- Node6&#45;&gt;Node5 -->
<g id="edge6" class="edge">
<title>Node6&#45;&gt;Node5</title>
<path fill="none" stroke="midnightblue" d="M265.77,-35.52C280.25,-39.52 295.96,-43.87 310.71,-47.96"/>
<polygon fill="midnightblue" stroke="midnightblue" points="310.17,-51.44 320.75,-50.73 312.04,-44.69 310.17,-51.44"/>
</g>
<!-- Node7 -->
<g id="node7" class="node">
<title>Node7</title>
<g id="a_node7"><a xlink:href="structft_1_1irc_1_1string__utils.html#a367a22012cc0d2d25959ac3f4e5d33a9" target="_top" xlink:title=" ">
<polygon fill="white" stroke="black" points="321,-0.5 321,-30.5 422,-30.5 422,-0.5 321,-0.5"/>
<text text-anchor="start" x="329" y="-18.5" font-family="Helvetica,sans-Serif" font-size="10.00">ft::irc::string_utils</text>
<text text-anchor="middle" x="371.5" y="-7.5" font-family="Helvetica,sans-Serif" font-size="10.00">::to_lower</text>
</a>
</g>
</g>
<!-- Node6&#45;&gt;Node7 -->
<g id="edge7" class="edge">
<title>Node6&#45;&gt;Node7</title>
<path fill="none" stroke="midnightblue" d="M285.41,-18.18C293.85,-17.91 302.38,-17.64 310.6,-17.38"/>
<polygon fill="midnightblue" stroke="midnightblue" points="310.95,-20.87 320.83,-17.06 310.73,-13.88 310.95,-20.87"/>
</g>
<!-- Node8 -->
<g id="node8" class="node">
<title>Node8</title>
<g id="a_node8"><a xlink:href="namespaceft_1_1irc_1_1__internal.html#aa76c3a369f64725f8b2b52b2131c1111" target="_top" xlink:title=" ">
<polygon fill="white" stroke="black" points="458,-0.5 458,-30.5 548,-30.5 548,-0.5 458,-0.5"/>
<text text-anchor="start" x="466" y="-18.5" font-family="Helvetica,sans-Serif" font-size="10.00">ft::irc::_internal</text>
<text text-anchor="middle" x="503" y="-7.5" font-family="Helvetica,sans-Serif" font-size="10.00">::_to_lower</text>
</a>
</g>
</g>
<!-- Node7&#45;&gt;Node8 -->
<g id="edge8" class="edge">
<title>Node7&#45;&gt;Node8</title>
<path fill="none" stroke="midnightblue" d="M422.2,-15.5C430.51,-15.5 439.18,-15.5 447.61,-15.5"/>
<polygon fill="midnightblue" stroke="midnightblue" points="447.73,-19 457.73,-15.5 447.73,-12 447.73,-19"/>
</g>
</g>
</svg>
        <g id="navigator" transform="translate(0 0)" fill="#404254">
                <rect fill="#f2f5e9" fill-opacity="0.5" stroke="#606060" stroke-width=".5" x="0" y="0" width="60" height="60"/>
                <use id="zoomplus" xlink:href="#zoomPlus" x="17" y="9" onmousedown="handleZoom(evt,'in')"/>
                <use id="zoomminus" xlink:href="#zoomMin" x="42" y="9" onmousedown="handleZoom(evt,'out')"/>
                <use id="reset" xlink:href="#resetDef" x="30" y="36" onmousedown="handleReset()"/>
                <g id="arrowUp" xlink:href="#dirArrow" transform="translate(30 24)" onmousedown="handlePan(0,-1)">
                  <use xlink:href="#rim" fill="#404040">
                        <set attributeName="fill" to="#808080" begin="arrowUp.mouseover" end="arrowUp.mouseout"/>
                  </use>
                  <path fill="none" stroke="white" stroke-width="1.5" d="M0,-3.0v7 M-2.5,-0.5L0,-3.0L2.5,-0.5"/>
                </g>
                <g id="arrowRight" xlink:href="#dirArrow" transform="rotate(90) translate(36 -43)" onmousedown="handlePan(1,0)">
                  <use xlink:href="#rim" fill="#404040">
                        <set attributeName="fill" to="#808080" begin="arrowRight.mouseover" end="arrowRight.mouseout"/>
                  </use>
                  <path fill="none" stroke="white" stroke-width="1.5" d="M0,-3.0v7 M-2.5,-0.5L0,-3.0L2.5,-0.5"/>
                </g>
                <g id="arrowDown" xlink:href="#dirArrow" transform="rotate(180) translate(-30 -48)" onmousedown="handlePan(0,1)">
                  <use xlink:href="#rim" fill="#404040">
                        <set attributeName="fill" to="#808080" begin="arrowDown.mouseover" end="arrowDown.mouseout"/>
                  </use>
                  <path fill="none" stroke="white" stroke-width="1.5" d="M0,-3.0v7 M-2.5,-0.5L0,-3.0L2.5,-0.5"/>
                </g>
                <g id="arrowLeft" xlink:href="#dirArrow" transform="rotate(270) translate(-36 17)" onmousedown="handlePan(-1,0)">
                  <use xlink:href="#rim" fill="#404040">
                        <set attributeName="fill" to="#808080" begin="arrowLeft.mouseover" end="arrowLeft.mouseout"/>
                  </use>
                  <path fill="none" stroke="white" stroke-width="1.5" d="M0,-3.0v7 M-2.5,-0.5L0,-3.0L2.5,-0.5"/>
                </g>
        </g>
        <svg viewBox="0 0 15 15" width="100%" height="30px" preserveAspectRatio="xMaxYMin meet">
         <g id="arrow_out" transform="scale(0.3 0.3)">
          <a xlink:href="classft_1_1irc_1_1channel_a167149fa7b382fa3986d794b298706ce_cgraph_org.svg" target="_base">
           <rect id="button" ry="5" rx="5" y="6" x="6" height="38" width="38"
                fill="#f2f5e9" fill-opacity="0.5" stroke="#606060" stroke-width="1.0"/>
           <path id="arrow"
             d="M 11.500037,31.436501 C 11.940474,20.09759 22.043105,11.32322 32.158766,21.979434 L 37.068811,17.246167 C 37.068811,17.246167 37.088388,32 37.088388,32 L 22.160133,31.978069 C 22.160133,31.978069 26.997745,27.140456 26.997745,27.140456 C 18.528582,18.264221 13.291696,25.230495 11.500037,31.436501 z"
             style="fill:#404040;"/>
          </a>
         </g>
        </svg>
</svg>
