<?xml version="1.0" encoding="UTF-8" standalone="no"?>
<!DOCTYPE svg PUBLIC "-//W3C//DTD SVG 1.1//EN"
 "http://www.w3.org/Graphics/SVG/1.1/DTD/svg11.dtd">
<!-- Generated by graphviz version 2.43.0 (0)
 -->
<!-- Title: ft::serv::object_encoder Pages: 1 -->
<svg width="162pt" height="140pt"
 viewBox="0.00 0.00 162.00 140.00" xmlns="http://www.w3.org/2000/svg" xmlns:xlink="http://www.w3.org/1999/xlink">
<g id="graph0" class="graph" transform="scale(1 1) rotate(0) translate(4 136)">
<title>ft::serv::object_encoder</title>
<polygon fill="white" stroke="transparent" points="-4,4 -4,-136 158,-136 158,4 -4,4"/>
<!-- Node1 -->
<g id="node1" class="node">
<title>Node1</title>
<g id="a_node1"><a xlink:title=" ">
<polygon fill="#bfbfbf" stroke="black" points="12,-56.5 12,-75.5 142,-75.5 142,-56.5 12,-56.5"/>
<text text-anchor="middle" x="77" y="-63.5" font-family="Helvetica,sans-Serif" font-size="10.00">ft::serv::object_encoder</text>
</a>
</g>
</g>
<!-- Node3 -->
<g id="node3" class="node">
<title>Node3</title>
<g id="a_node3"><a xlink:href="classft_1_1irc_1_1message__encoder.html" target="_top" xlink:title=" ">
<polygon fill="white" stroke="black" points="9,-0.5 9,-19.5 145,-19.5 145,-0.5 9,-0.5"/>
<text text-anchor="middle" x="77" y="-7.5" font-family="Helvetica,sans-Serif" font-size="10.00">ft::irc::message_encoder</text>
</a>
</g>
</g>
<!-- Node1&#45;&gt;Node3 -->
<g id="edge2" class="edge">
<title>Node1&#45;&gt;Node3</title>
<path fill="none" stroke="midnightblue" d="M77,-45.8C77,-36.91 77,-26.78 77,-19.75"/>
<polygon fill="midnightblue" stroke="midnightblue" points="73.5,-46.08 77,-56.08 80.5,-46.08 73.5,-46.08"/>
</g>
<!-- Node2 -->
<g id="node2" class="node">
<title>Node2</title>
<g id="a_node2"><a xlink:href="classft_1_1serv_1_1event__handler__base.html" target="_top" xlink:title=" ">
<polygon fill="white" stroke="black" points="0,-112.5 0,-131.5 154,-131.5 154,-112.5 0,-112.5"/>
<text text-anchor="middle" x="77" y="-119.5" font-family="Helvetica,sans-Serif" font-size="10.00">ft::serv::event_handler_base</text>
</a>
</g>
</g>
<!-- Node2&#45;&gt;Node1 -->
<g id="edge1" class="edge">
<title>Node2&#45;&gt;Node1</title>
<path fill="none" stroke="midnightblue" d="M77,-101.8C77,-92.91 77,-82.78 77,-75.75"/>
<polygon fill="midnightblue" stroke="midnightblue" points="73.5,-102.08 77,-112.08 80.5,-102.08 73.5,-102.08"/>
</g>
</g>
</svg>
