<?xml version="1.0" encoding="UTF-8" standalone="no"?>
<!DOCTYPE svg PUBLIC "-//W3C//DTD SVG 1.1//EN"
 "http://www.w3.org/Graphics/SVG/1.1/DTD/svg11.dtd">
<!-- Generated by graphviz version 2.43.0 (0)
 -->
<!-- Title: ft::irc::bot Pages: 1 -->
<svg width="309pt" height="172pt"
 viewBox="0.00 0.00 309.00 171.50" xmlns="http://www.w3.org/2000/svg" xmlns:xlink="http://www.w3.org/1999/xlink">
<g id="graph0" class="graph" transform="scale(1 1) rotate(0) translate(4 167.5)">
<title>ft::irc::bot</title>
<polygon fill="white" stroke="transparent" points="-4,4 -4,-167.5 305,-167.5 305,4 -4,4"/>
<!-- Node1 -->
<g id="node1" class="node">
<title>Node1</title>
<g id="a_node1"><a xlink:title=" ">
<polygon fill="#bfbfbf" stroke="black" points="238,-89.5 238,-108.5 301,-108.5 301,-89.5 238,-89.5"/>
<text text-anchor="middle" x="269.5" y="-96.5" font-family="Helvetica,sans-Serif" font-size="10.00">ft::irc::bot</text>
</a>
</g>
</g>
<!-- Node2 -->
<g id="node2" class="node">
<title>Node2</title>
<g id="a_node2"><a xlink:title=" ">
<polygon fill="white" stroke="#bfbfbf" points="7,-133 7,-163 136,-163 136,-133 7,-133"/>
<text text-anchor="start" x="15" y="-151" font-family="Helvetica,sans-Serif" font-size="10.00">ft::enable_shared_from</text>
<text text-anchor="middle" x="71.5" y="-140" font-family="Helvetica,sans-Serif" font-size="10.00">_this&lt; bot &gt;</text>
</a>
</g>
</g>
<!-- Node2&#45;&gt;Node1 -->
<g id="edge1" class="edge">
<title>Node2&#45;&gt;Node1</title>
<path fill="none" stroke="midnightblue" d="M146.24,-132.12C169.89,-126.73 196.13,-120.43 220,-114 226.13,-112.35 232.64,-110.44 238.85,-108.55"/>
<polygon fill="midnightblue" stroke="midnightblue" points="145.26,-128.75 136.28,-134.37 146.81,-135.58 145.26,-128.75"/>
</g>
<!-- Node3 -->
<g id="node3" class="node">
<title>Node3</title>
<g id="a_node3"><a xlink:href="structft_1_1serv_1_1fast__dictionary.html" target="_top" xlink:title=" ">
<polygon fill="white" stroke="black" points="0,-84 0,-114 143,-114 143,-84 0,-84"/>
<text text-anchor="start" x="8" y="-102" font-family="Helvetica,sans-Serif" font-size="10.00">ft::serv::fast_dictionary</text>
<text text-anchor="middle" x="71.5" y="-91" font-family="Helvetica,sans-Serif" font-size="10.00">&lt; std::string, std::string &gt;</text>
</a>
</g>
</g>
<!-- Node3&#45;&gt;Node1 -->
<g id="edge2" class="edge">
<title>Node3&#45;&gt;Node1</title>
<path fill="none" stroke="#9a32cd" stroke-dasharray="5,2" d="M153.27,-99C183.07,-99 215.07,-99 237.77,-99"/>
<polygon fill="#9a32cd" stroke="#9a32cd" points="153.26,-95.5 143.26,-99 153.26,-102.5 153.26,-95.5"/>
<text text-anchor="middle" x="190.5" y="-102" font-family="Helvetica,sans-Serif" font-size="10.00"> inviters</text>
</g>
<!-- Node4 -->
<g id="node4" class="node">
<title>Node4</title>
<g id="a_node4"><a xlink:title=" ">
<polygon fill="white" stroke="#bfbfbf" points="49.5,-0.5 49.5,-19.5 93.5,-19.5 93.5,-0.5 49.5,-0.5"/>
<text text-anchor="middle" x="71.5" y="-7.5" font-family="Helvetica,sans-Serif" font-size="10.00">string</text>
</a>
</g>
</g>
<!-- Node4&#45;&gt;Node1 -->
<g id="edge3" class="edge">
<title>Node4&#45;&gt;Node1</title>
<path fill="none" stroke="#9a32cd" stroke-dasharray="5,2" d="M103.53,-6.99C135.14,-5.44 184.43,-7.36 220,-29 243.49,-43.29 258.45,-73.77 264.87,-89.37"/>
<polygon fill="#9a32cd" stroke="#9a32cd" points="103.29,-3.5 93.54,-7.62 103.74,-10.48 103.29,-3.5"/>
<text text-anchor="middle" x="190.5" y="-87" font-family="Helvetica,sans-Serif" font-size="10.00"> hostname</text>
<text text-anchor="middle" x="190.5" y="-76" font-family="Helvetica,sans-Serif" font-size="10.00">nick</text>
<text text-anchor="middle" x="190.5" y="-65" font-family="Helvetica,sans-Serif" font-size="10.00">pass</text>
<text text-anchor="middle" x="190.5" y="-54" font-family="Helvetica,sans-Serif" font-size="10.00">realname</text>
<text text-anchor="middle" x="190.5" y="-43" font-family="Helvetica,sans-Serif" font-size="10.00">servername</text>
<text text-anchor="middle" x="190.5" y="-32" font-family="Helvetica,sans-Serif" font-size="10.00">username</text>
</g>
</g>
</svg>
