<?xml version="1.0" encoding="UTF-8" standalone="no"?>
<!DOCTYPE svg PUBLIC "-//W3C//DTD SVG 1.1//EN"
 "http://www.w3.org/Graphics/SVG/1.1/DTD/svg11.dtd">
<!-- Generated by graphviz version 2.43.0 (0)
 -->
<!-- Title: ft::irc::bot::is_owner Pages: 1 -->
<svg width="560pt" height="66pt"
 viewBox="0.00 0.00 560.00 66.00" xmlns="http://www.w3.org/2000/svg" xmlns:xlink="http://www.w3.org/1999/xlink">
<g id="graph0" class="graph" transform="scale(1 1) rotate(0) translate(4 62)">
<title>ft::irc::bot::is_owner</title>
<polygon fill="white" stroke="transparent" points="-4,4 -4,-62 556,-62 556,4 -4,4"/>
<!-- Node1 -->
<g id="node1" class="node">
<title>Node1</title>
<g id="a_node1"><a xlink:title=" ">
<polygon fill="#bfbfbf" stroke="black" points="439,-19.5 439,-38.5 552,-38.5 552,-19.5 439,-19.5"/>
<text text-anchor="middle" x="495.5" y="-26.5" font-family="Helvetica,sans-Serif" font-size="10.00">ft::irc::bot::is_owner</text>
</a>
</g>
</g>
<!-- Node2 -->
<g id="node2" class="node">
<title>Node2</title>
<g id="a_node2"><a xlink:href="classft_1_1irc_1_1bot.html#aaffa46673180d49934480ec84b9ed18e" target="_top" xlink:title=" ">
<polygon fill="white" stroke="black" points="296,-38.5 296,-57.5 403,-57.5 403,-38.5 296,-38.5"/>
<text text-anchor="middle" x="349.5" y="-45.5" font-family="Helvetica,sans-Serif" font-size="10.00">ft::irc::bot::on_kick</text>
</a>
</g>
</g>
<!-- Node1&#45;&gt;Node2 -->
<g id="edge1" class="edge">
<title>Node1&#45;&gt;Node2</title>
<path fill="none" stroke="midnightblue" d="M428.83,-37.67C420.24,-38.8 411.53,-39.95 403.19,-41.05"/>
<polygon fill="midnightblue" stroke="midnightblue" points="429.37,-41.12 438.83,-36.35 428.45,-34.18 429.37,-41.12"/>
</g>
<!-- Node5 -->
<g id="node5" class="node">
<title>Node5</title>
<g id="a_node5"><a xlink:href="classft_1_1irc_1_1bot.html#adb61ddab4c1cb4fc70bec293666bed90" target="_top" xlink:title=" ">
<polygon fill="white" stroke="black" points="296.5,-0.5 296.5,-19.5 402.5,-19.5 402.5,-0.5 296.5,-0.5"/>
<text text-anchor="middle" x="349.5" y="-7.5" font-family="Helvetica,sans-Serif" font-size="10.00">ft::irc::bot::on_part</text>
</a>
</g>
</g>
<!-- Node1&#45;&gt;Node5 -->
<g id="edge4" class="edge">
<title>Node1&#45;&gt;Node5</title>
<path fill="none" stroke="midnightblue" d="M428.69,-20.32C419.99,-19.17 411.16,-18 402.72,-16.89"/>
<polygon fill="midnightblue" stroke="midnightblue" points="428.45,-23.82 438.83,-21.65 429.37,-16.88 428.45,-23.82"/>
</g>
<!-- Node3 -->
<g id="node3" class="node">
<title>Node3</title>
<g id="a_node3"><a xlink:href="classft_1_1irc_1_1bot.html#a0b595213781ed0e5aaf1d48fdb602d98" target="_top" xlink:title=" ">
<polygon fill="white" stroke="black" points="141,-19.5 141,-38.5 260,-38.5 260,-19.5 141,-19.5"/>
<text text-anchor="middle" x="200.5" y="-26.5" font-family="Helvetica,sans-Serif" font-size="10.00">ft::irc::bot::on_packet</text>
</a>
</g>
</g>
<!-- Node2&#45;&gt;Node3 -->
<g id="edge2" class="edge">
<title>Node2&#45;&gt;Node3</title>
<path fill="none" stroke="midnightblue" d="M285.89,-39.91C277.31,-38.8 268.53,-37.66 260.02,-36.56"/>
<polygon fill="midnightblue" stroke="midnightblue" points="285.48,-43.38 295.84,-41.19 286.38,-36.44 285.48,-43.38"/>
</g>
<!-- Node4 -->
<g id="node4" class="node">
<title>Node4</title>
<g id="a_node4"><a xlink:href="classft_1_1irc_1_1bot__handler.html#a0723185e483ae21fa0f2116ca05165fe" target="_top" xlink:title=" ">
<polygon fill="white" stroke="black" points="0,-14 0,-44 105,-44 105,-14 0,-14"/>
<text text-anchor="start" x="8" y="-32" font-family="Helvetica,sans-Serif" font-size="10.00">ft::irc::bot_handler</text>
<text text-anchor="middle" x="52.5" y="-21" font-family="Helvetica,sans-Serif" font-size="10.00">::on_read</text>
</a>
</g>
</g>
<!-- Node3&#45;&gt;Node4 -->
<g id="edge3" class="edge">
<title>Node3&#45;&gt;Node4</title>
<path fill="none" stroke="midnightblue" d="M130.96,-29C122.38,-29 113.72,-29 105.46,-29"/>
<polygon fill="midnightblue" stroke="midnightblue" points="130.96,-32.5 140.96,-29 130.96,-25.5 130.96,-32.5"/>
</g>
<!-- Node5&#45;&gt;Node3 -->
<g id="edge5" class="edge">
<title>Node5&#45;&gt;Node3</title>
<path fill="none" stroke="midnightblue" d="M286.21,-18.05C277.55,-19.17 268.67,-20.32 260.08,-21.43"/>
<polygon fill="midnightblue" stroke="midnightblue" points="286.79,-21.51 296.26,-16.75 285.89,-14.56 286.79,-21.51"/>
</g>
</g>
</svg>
