<?xml version="1.0" encoding="UTF-8" standalone="no"?>
<!DOCTYPE svg PUBLIC "-//W3C//DTD SVG 1.1//EN"
 "http://www.w3.org/Graphics/SVG/1.1/DTD/svg11.dtd">
<!-- Generated by graphviz version 2.43.0 (0)
 -->
<!-- Title: ft::irc::processor_mode::update_channel_mode Pages: 1 -->
<!--zoomable 415 -->
<svg id="main" version="1.1" xmlns="http://www.w3.org/2000/svg" xmlns:xlink="http://www.w3.org/1999/xlink" xml:space="preserve" onload="init(evt)">
<style type="text/css"><![CDATA[
.edge:hover path { stroke: red; }
.edge:hover polygon { stroke: red; fill: red; }
]]></style>
<script type="text/javascript"><![CDATA[
var edges = document.getElementsByTagName('g');
if (edges && edges.length) {
  for (var i=0;i<edges.length;i++) {
    if (edges[i].id.substr(0,4)=='edge') {
      edges[i].setAttribute('class','edge');
    }
  }
}
]]></script>
        <defs>
                <circle id="rim" cx="0" cy="0" r="7"/>
                <circle id="rim2" cx="0" cy="0" r="3.5"/>
                <g id="zoomPlus">
                        <use xlink:href="#rim" fill="#404040">
                                <set attributeName="fill" to="#808080" begin="zoomplus.mouseover" end="zoomplus.mouseout"/>
                        </use>
                        <path d="M-4,0h8M0,-4v8" fill="none" stroke="white" stroke-width="1.5" pointer-events="none"/>
                </g>
                <g id="zoomMin">
                        <use xlink:href="#rim" fill="#404040">
                                <set attributeName="fill" to="#808080" begin="zoomminus.mouseover" end="zoomminus.mouseout"/>
                        </use>
                        <path d="M-4,0h8" fill="none" stroke="white" stroke-width="1.5" pointer-events="none"/>
                </g>
                <g id="dirArrow">
                        <path fill="none" stroke="white" stroke-width="1.5" d="M0,-3.0v7 M-2.5,-0.5L0,-3.0L2.5,-0.5"/>
                </g>
               <g id="resetDef">
                       <use xlink:href="#rim2" fill="#404040">
                               <set attributeName="fill" to="#808080" begin="reset.mouseover" end="reset.mouseout"/>
                       </use>
               </g>
        </defs>

<script type="text/javascript">
var viewWidth = 504;
var viewHeight = 415;
var sectionId = 'dynsection-4';
</script>
<script xlink:href="svgpan.js"/>
<svg id="graph" class="graph">
<g id="viewport">
<title>ft::irc::processor_mode::update_channel_mode</title>
<polygon fill="white" stroke="transparent" points="-4,4 -4,-410.5 500,-410.5 500,4 -4,4"/>
<!-- Node1 -->
<g id="node1" class="node">
<title>Node1</title>
<g id="a_node1"><a xlink:title=" ">
<polygon fill="#bfbfbf" stroke="black" points="0,-171 0,-201 166,-201 166,-171 0,-171"/>
<text text-anchor="start" x="8" y="-189" font-family="Helvetica,sans-Serif" font-size="10.00">ft::irc::processor</text>
<text text-anchor="middle" x="83" y="-178" font-family="Helvetica,sans-Serif" font-size="10.00">_mode::update_channel_mode</text>
</a>
</g>
</g>
<!-- Node2 -->
<g id="node2" class="node">
<title>Node2</title>
<g id="a_node2"><a xlink:href="classft_1_1irc_1_1channel.html#a88a071511ae42d2faa2ff45d6d6f4abf" target="_top" xlink:title=" ">
<polygon fill="white" stroke="black" points="224,-313.5 224,-332.5 334,-332.5 334,-313.5 224,-313.5"/>
<text text-anchor="middle" x="279" y="-320.5" font-family="Helvetica,sans-Serif" font-size="10.00">ft::irc::channel::ban</text>
</a>
</g>
</g>
<!-- Node1&#45;&gt;Node2 -->
<g id="edge1" class="edge">
<title>Node1&#45;&gt;Node2</title>
<path fill="none" stroke="midnightblue" d="M94.82,-201.28C113.62,-226.65 154.86,-277.31 202,-304 205.97,-306.25 210.2,-308.23 214.56,-309.98"/>
<polygon fill="midnightblue" stroke="midnightblue" points="213.66,-313.38 224.25,-313.46 216.02,-306.79 213.66,-313.38"/>
</g>
<!-- Node6 -->
<g id="node6" class="node">
<title>Node6</title>
<g id="a_node6"><a xlink:href="classft_1_1irc_1_1processor__mode.html#a0756abb7cea854a0c5a05c24e0320ee2" target="_top" xlink:title=" ">
<polygon fill="white" stroke="black" points="210.5,-264 210.5,-294 347.5,-294 347.5,-264 210.5,-264"/>
<text text-anchor="start" x="218.5" y="-282" font-family="Helvetica,sans-Serif" font-size="10.00">ft::irc::processor</text>
<text text-anchor="middle" x="279" y="-271" font-family="Helvetica,sans-Serif" font-size="10.00">_mode::get_min_params</text>
</a>
</g>
</g>
<!-- Node1&#45;&gt;Node6 -->
<g id="edge5" class="edge">
<title>Node1&#45;&gt;Node6</title>
<path fill="none" stroke="midnightblue" d="M106.26,-201.05C129.41,-216.21 167.07,-239.51 202,-255 206.36,-256.93 210.91,-258.78 215.54,-260.53"/>
<polygon fill="midnightblue" stroke="midnightblue" points="214.51,-263.87 225.1,-263.98 216.88,-257.29 214.51,-263.87"/>
</g>
<!-- Node7 -->
<g id="node7" class="node">
<title>Node7</title>
<g id="a_node7"><a xlink:href="classft_1_1irc_1_1channel.html#ad30281781ad94941df6db1284869a73b" target="_top" xlink:title=" ">
<polygon fill="white" stroke="black" points="216.5,-215 216.5,-245 341.5,-245 341.5,-215 216.5,-215"/>
<text text-anchor="start" x="224.5" y="-233" font-family="Helvetica,sans-Serif" font-size="10.00">ft::irc::channel::modify</text>
<text text-anchor="middle" x="279" y="-222" font-family="Helvetica,sans-Serif" font-size="10.00">_member_mode</text>
</a>
</g>
</g>
<!-- Node1&#45;&gt;Node7 -->
<g id="edge6" class="edge">
<title>Node1&#45;&gt;Node7</title>
<path fill="none" stroke="midnightblue" d="M150.22,-201.02C168.36,-205.13 188.11,-209.61 206.53,-213.79"/>
<polygon fill="midnightblue" stroke="midnightblue" points="205.8,-217.21 216.32,-216.01 207.34,-210.39 205.8,-217.21"/>
</g>
<!-- Node8 -->
<g id="node8" class="node">
<title>Node8</title>
<g id="a_node8"><a xlink:href="classft_1_1irc_1_1message.html#a34f457ead0453ad914af2cb0482a40b9" target="_top" xlink:title=" ">
<polygon fill="white" stroke="black" points="202,-176.5 202,-195.5 356,-195.5 356,-176.5 202,-176.5"/>
<text text-anchor="middle" x="279" y="-183.5" font-family="Helvetica,sans-Serif" font-size="10.00">ft::irc::message::param_size</text>
</a>
</g>
</g>
<!-- Node1&#45;&gt;Node8 -->
<g id="edge7" class="edge">
<title>Node1&#45;&gt;Node8</title>
<path fill="none" stroke="midnightblue" d="M166.27,-186C174.64,-186 183.16,-186 191.57,-186"/>
<polygon fill="midnightblue" stroke="midnightblue" points="191.77,-189.5 201.77,-186 191.77,-182.5 191.77,-189.5"/>
</g>
<!-- Node9 -->
<g id="node9" class="node">
<title>Node9</title>
<g id="a_node9"><a xlink:href="classft_1_1irc_1_1channel.html#a058c359633e6e7b0029b2feedd6320bf" target="_top" xlink:title=" ">
<polygon fill="white" stroke="black" points="221.5,-127 221.5,-157 336.5,-157 336.5,-127 221.5,-127"/>
<text text-anchor="start" x="229.5" y="-145" font-family="Helvetica,sans-Serif" font-size="10.00">ft::irc::channel::send</text>
<text text-anchor="middle" x="279" y="-134" font-family="Helvetica,sans-Serif" font-size="10.00">_ban_list</text>
</a>
</g>
</g>
<!-- Node1&#45;&gt;Node9 -->
<g id="edge8" class="edge">
<title>Node1&#45;&gt;Node9</title>
<path fill="none" stroke="midnightblue" d="M150.22,-170.98C170.03,-166.49 191.76,-161.56 211.58,-157.06"/>
<polygon fill="midnightblue" stroke="midnightblue" points="212.47,-160.45 221.45,-154.83 210.93,-153.62 212.47,-160.45"/>
</g>
<!-- Node13 -->
<g id="node13" class="node">
<title>Node13</title>
<g id="a_node13"><a xlink:href="classft_1_1irc_1_1channel.html#a2a3ac5889a92c45dea08b0b8e586005f" target="_top" xlink:title=" ">
<polygon fill="white" stroke="black" points="209.5,-88.5 209.5,-107.5 348.5,-107.5 348.5,-88.5 209.5,-88.5"/>
<text text-anchor="middle" x="279" y="-95.5" font-family="Helvetica,sans-Serif" font-size="10.00">ft::irc::channel::store_key</text>
</a>
</g>
</g>
<!-- Node1&#45;&gt;Node13 -->
<g id="edge12" class="edge">
<title>Node1&#45;&gt;Node13</title>
<path fill="none" stroke="midnightblue" d="M105.65,-170.79C128.6,-155.29 166.4,-131.51 202,-117 208.18,-114.48 214.78,-112.23 221.41,-110.24"/>
<polygon fill="midnightblue" stroke="midnightblue" points="222.44,-113.59 231.11,-107.5 220.53,-106.85 222.44,-113.59"/>
</g>
<!-- Node14 -->
<g id="node14" class="node">
<title>Node14</title>
<g id="a_node14"><a xlink:href="classft_1_1irc_1_1channel.html#a9a229b373bb42191a96af592857c279a" target="_top" xlink:title=" ">
<polygon fill="white" stroke="black" points="221,-39 221,-69 337,-69 337,-39 221,-39"/>
<text text-anchor="start" x="229" y="-57" font-family="Helvetica,sans-Serif" font-size="10.00">ft::irc::channel::store</text>
<text text-anchor="middle" x="279" y="-46" font-family="Helvetica,sans-Serif" font-size="10.00">_limit</text>
</a>
</g>
</g>
<!-- Node1&#45;&gt;Node14 -->
<g id="edge13" class="edge">
<title>Node1&#45;&gt;Node14</title>
<path fill="none" stroke="midnightblue" d="M96.98,-170.69C117.21,-147.72 158.5,-104.32 202,-79 205.65,-76.88 209.5,-74.91 213.45,-73.08"/>
<polygon fill="midnightblue" stroke="midnightblue" points="215,-76.23 222.83,-69.08 212.25,-69.79 215,-76.23"/>
</g>
<!-- Node15 -->
<g id="node15" class="node">
<title>Node15</title>
<g id="a_node15"><a xlink:href="classft_1_1irc_1_1channel.html#a844f7ff52ac56119ab3de1a568973935" target="_top" xlink:title=" ">
<polygon fill="white" stroke="black" points="204.5,-0.5 204.5,-19.5 353.5,-19.5 353.5,-0.5 204.5,-0.5"/>
<text text-anchor="middle" x="279" y="-7.5" font-family="Helvetica,sans-Serif" font-size="10.00">ft::irc::channel::store_mode</text>
</a>
</g>
</g>
<!-- Node1&#45;&gt;Node15 -->
<g id="edge14" class="edge">
<title>Node1&#45;&gt;Node15</title>
<path fill="none" stroke="midnightblue" d="M90.99,-170.74C106.32,-139.09 146.02,-66.13 202,-29 205.13,-26.92 208.47,-25.07 211.94,-23.43"/>
<polygon fill="midnightblue" stroke="midnightblue" points="213.46,-26.58 221.36,-19.52 210.78,-20.12 213.46,-26.58"/>
</g>
<!-- Node16 -->
<g id="node16" class="node">
<title>Node16</title>
<g id="a_node16"><a xlink:href="classft_1_1irc_1_1channel.html#aa7b5a547c4ff51772b8a1a6c81f61a8c" target="_top" xlink:title=" ">
<polygon fill="white" stroke="black" points="218,-351.5 218,-370.5 340,-370.5 340,-351.5 218,-351.5"/>
<text text-anchor="middle" x="279" y="-358.5" font-family="Helvetica,sans-Serif" font-size="10.00">ft::irc::channel::unban</text>
</a>
</g>
</g>
<!-- Node1&#45;&gt;Node16 -->
<g id="edge15" class="edge">
<title>Node1&#45;&gt;Node16</title>
<path fill="none" stroke="midnightblue" d="M91.02,-201.16C106.4,-232.62 146.19,-305.11 202,-342 205.13,-344.07 208.48,-345.92 211.95,-347.56"/>
<polygon fill="midnightblue" stroke="midnightblue" points="210.79,-350.87 221.37,-351.46 213.47,-344.41 210.79,-350.87"/>
</g>
<!-- Node3 -->
<g id="node3" class="node">
<title>Node3</title>
<g id="a_node3"><a xlink:href="structft_1_1irc_1_1string__utils.html#a8df7fd3632f857bb33e32c24a496df98" target="_top" xlink:title=" ">
<polygon fill="white" stroke="black" points="393.5,-376 393.5,-406 494.5,-406 494.5,-376 393.5,-376"/>
<text text-anchor="start" x="401.5" y="-394" font-family="Helvetica,sans-Serif" font-size="10.00">ft::irc::string_utils</text>
<text text-anchor="middle" x="444" y="-383" font-family="Helvetica,sans-Serif" font-size="10.00">::pick_host</text>
</a>
</g>
</g>
<!-- Node2&#45;&gt;Node3 -->
<g id="edge2" class="edge">
<title>Node2&#45;&gt;Node3</title>
<path fill="none" stroke="midnightblue" d="M329.14,-332.51C338.27,-335.05 347.58,-338.18 356,-342 373.74,-350.05 375.13,-357.26 392,-367 394.5,-368.44 397.11,-369.88 399.76,-371.28"/>
<polygon fill="midnightblue" stroke="midnightblue" points="398.35,-374.49 408.85,-375.9 401.52,-368.25 398.35,-374.49"/>
</g>
<!-- Node4 -->
<g id="node4" class="node">
<title>Node4</title>
<g id="a_node4"><a xlink:href="structft_1_1irc_1_1string__utils.html#ac1e75b32f508ffe5a1a1875d1e1cd2ea" target="_top" xlink:title=" ">
<polygon fill="white" stroke="black" points="393.5,-327 393.5,-357 494.5,-357 494.5,-327 393.5,-327"/>
<text text-anchor="start" x="401.5" y="-345" font-family="Helvetica,sans-Serif" font-size="10.00">ft::irc::string_utils</text>
<text text-anchor="middle" x="444" y="-334" font-family="Helvetica,sans-Serif" font-size="10.00">::pick_nick</text>
</a>
</g>
</g>
<!-- Node2&#45;&gt;Node4 -->
<g id="edge3" class="edge">
<title>Node2&#45;&gt;Node4</title>
<path fill="none" stroke="midnightblue" d="M334.28,-329.33C349.93,-331.15 367.09,-333.15 383.06,-335.01"/>
<polygon fill="midnightblue" stroke="midnightblue" points="383.02,-338.53 393.36,-336.21 383.83,-331.58 383.02,-338.53"/>
</g>
<!-- Node5 -->
<g id="node5" class="node">
<title>Node5</title>
<g id="a_node5"><a xlink:href="structft_1_1irc_1_1string__utils.html#ac8d525ecc5b9196146c124cd310d8d82" target="_top" xlink:title=" ">
<polygon fill="white" stroke="black" points="393.5,-278 393.5,-308 494.5,-308 494.5,-278 393.5,-278"/>
<text text-anchor="start" x="401.5" y="-296" font-family="Helvetica,sans-Serif" font-size="10.00">ft::irc::string_utils</text>
<text text-anchor="middle" x="444" y="-285" font-family="Helvetica,sans-Serif" font-size="10.00">::pick_username</text>
</a>
</g>
</g>
<!-- Node2&#45;&gt;Node5 -->
<g id="edge4" class="edge">
<title>Node2&#45;&gt;Node5</title>
<path fill="none" stroke="midnightblue" d="M332.02,-313.43C348.3,-310.43 366.4,-307.1 383.17,-304.01"/>
<polygon fill="midnightblue" stroke="midnightblue" points="384.21,-307.38 393.41,-302.13 382.95,-300.49 384.21,-307.38"/>
</g>
<!-- Node10 -->
<g id="node10" class="node">
<title>Node10</title>
<g id="a_node10"><a xlink:href="structft_1_1irc_1_1make__reply.html#a7a456b9267291e4208ef9d36e20a7948" target="_top" xlink:title=" ">
<polygon fill="white" stroke="black" points="392,-176 392,-206 496,-206 496,-176 392,-176"/>
<text text-anchor="start" x="400" y="-194" font-family="Helvetica,sans-Serif" font-size="10.00">ft::irc::make_reply</text>
<text text-anchor="middle" x="444" y="-183" font-family="Helvetica,sans-Serif" font-size="10.00">::ban_list</text>
</a>
</g>
</g>
<!-- Node9&#45;&gt;Node10 -->
<g id="edge9" class="edge">
<title>Node9&#45;&gt;Node10</title>
<path fill="none" stroke="midnightblue" d="M330.24,-157.1C346.89,-162.11 365.6,-167.73 382.92,-172.94"/>
<polygon fill="midnightblue" stroke="midnightblue" points="382.35,-176.42 392.93,-175.95 384.36,-169.72 382.35,-176.42"/>
</g>
<!-- Node11 -->
<g id="node11" class="node">
<title>Node11</title>
<g id="a_node11"><a xlink:href="structft_1_1irc_1_1make__reply.html#a1fcd32547d899569970960956ba0a240" target="_top" xlink:title=" ">
<polygon fill="white" stroke="black" points="392,-127 392,-157 496,-157 496,-127 392,-127"/>
<text text-anchor="start" x="400" y="-145" font-family="Helvetica,sans-Serif" font-size="10.00">ft::irc::make_reply</text>
<text text-anchor="middle" x="444" y="-134" font-family="Helvetica,sans-Serif" font-size="10.00">::end_of_ban_list</text>
</a>
</g>
</g>
<!-- Node9&#45;&gt;Node11 -->
<g id="edge10" class="edge">
<title>Node9&#45;&gt;Node11</title>
<path fill="none" stroke="midnightblue" d="M336.55,-142C351.12,-142 366.87,-142 381.66,-142"/>
<polygon fill="midnightblue" stroke="midnightblue" points="381.73,-145.5 391.73,-142 381.73,-138.5 381.73,-145.5"/>
</g>
<!-- Node12 -->
<g id="node12" class="node">
<title>Node12</title>
<g id="a_node12"><a xlink:href="classft_1_1irc_1_1user.html#a1db558d6d694ca943224c2440fe36c50" target="_top" xlink:title=" ">
<polygon fill="white" stroke="black" points="395,-78 395,-108 493,-108 493,-78 395,-78"/>
<text text-anchor="start" x="403" y="-96" font-family="Helvetica,sans-Serif" font-size="10.00">ft::irc::user::send</text>
<text text-anchor="middle" x="444" y="-85" font-family="Helvetica,sans-Serif" font-size="10.00">_message</text>
</a>
</g>
</g>
<!-- Node9&#45;&gt;Node12 -->
<g id="edge11" class="edge">
<title>Node9&#45;&gt;Node12</title>
<path fill="none" stroke="midnightblue" d="M330.24,-126.9C347.6,-121.68 367.19,-115.79 385.12,-110.4"/>
<polygon fill="midnightblue" stroke="midnightblue" points="386.31,-113.7 394.88,-107.46 384.3,-106.99 386.31,-113.7"/>
</g>
<!-- Node16&#45;&gt;Node3 -->
<g id="edge16" class="edge">
<title>Node16&#45;&gt;Node3</title>
<path fill="none" stroke="midnightblue" d="M332.02,-370.57C348.3,-373.57 366.4,-376.9 383.17,-379.99"/>
<polygon fill="midnightblue" stroke="midnightblue" points="382.95,-383.51 393.41,-381.87 384.21,-376.62 382.95,-383.51"/>
</g>
<!-- Node16&#45;&gt;Node4 -->
<g id="edge17" class="edge">
<title>Node16&#45;&gt;Node4</title>
<path fill="none" stroke="midnightblue" d="M340.23,-353.98C354.32,-352.34 369.31,-350.59 383.37,-348.95"/>
<polygon fill="midnightblue" stroke="midnightblue" points="383.89,-352.41 393.41,-347.78 383.08,-345.46 383.89,-352.41"/>
</g>
<!-- Node16&#45;&gt;Node5 -->
<g id="edge18" class="edge">
<title>Node16&#45;&gt;Node5</title>
<path fill="none" stroke="midnightblue" d="M328.67,-351.47C337.94,-348.93 347.42,-345.8 356,-342 373.59,-334.22 375.33,-327.59 392,-318 395.04,-316.25 398.22,-314.51 401.45,-312.8"/>
<polygon fill="midnightblue" stroke="midnightblue" points="403.27,-315.79 410.56,-308.1 400.07,-309.57 403.27,-315.79"/>
</g>
</g>
</svg>
        <g id="navigator" transform="translate(0 0)" fill="#404254">
                <rect fill="#f2f5e9" fill-opacity="0.5" stroke="#606060" stroke-width=".5" x="0" y="0" width="60" height="60"/>
                <use id="zoomplus" xlink:href="#zoomPlus" x="17" y="9" onmousedown="handleZoom(evt,'in')"/>
                <use id="zoomminus" xlink:href="#zoomMin" x="42" y="9" onmousedown="handleZoom(evt,'out')"/>
                <use id="reset" xlink:href="#resetDef" x="30" y="36" onmousedown="handleReset()"/>
                <g id="arrowUp" xlink:href="#dirArrow" transform="translate(30 24)" onmousedown="handlePan(0,-1)">
                  <use xlink:href="#rim" fill="#404040">
                        <set attributeName="fill" to="#808080" begin="arrowUp.mouseover" end="arrowUp.mouseout"/>
                  </use>
                  <path fill="none" stroke="white" stroke-width="1.5" d="M0,-3.0v7 M-2.5,-0.5L0,-3.0L2.5,-0.5"/>
                </g>
                <g id="arrowRight" xlink:href="#dirArrow" transform="rotate(90) translate(36 -43)" onmousedown="handlePan(1,0)">
                  <use xlink:href="#rim" fill="#404040">
                        <set attributeName="fill" to="#808080" begin="arrowRight.mouseover" end="arrowRight.mouseout"/>
                  </use>
                  <path fill="none" stroke="white" stroke-width="1.5" d="M0,-3.0v7 M-2.5,-0.5L0,-3.0L2.5,-0.5"/>
                </g>
                <g id="arrowDown" xlink:href="#dirArrow" transform="rotate(180) translate(-30 -48)" onmousedown="handlePan(0,1)">
                  <use xlink:href="#rim" fill="#404040">
                        <set attributeName="fill" to="#808080" begin="arrowDown.mouseover" end="arrowDown.mouseout"/>
                  </use>
                  <path fill="none" stroke="white" stroke-width="1.5" d="M0,-3.0v7 M-2.5,-0.5L0,-3.0L2.5,-0.5"/>
                </g>
                <g id="arrowLeft" xlink:href="#dirArrow" transform="rotate(270) translate(-36 17)" onmousedown="handlePan(-1,0)">
                  <use xlink:href="#rim" fill="#404040">
                        <set attributeName="fill" to="#808080" begin="arrowLeft.mouseover" end="arrowLeft.mouseout"/>
                  </use>
                  <path fill="none" stroke="white" stroke-width="1.5" d="M0,-3.0v7 M-2.5,-0.5L0,-3.0L2.5,-0.5"/>
                </g>
        </g>
        <svg viewBox="0 0 15 15" width="100%" height="30px" preserveAspectRatio="xMaxYMin meet">
         <g id="arrow_out" transform="scale(0.3 0.3)">
          <a xlink:href="classft_1_1irc_1_1processor__mode_a78f0436f90fe62dc8e35152d98eff680_cgraph_org.svg" target="_base">
           <rect id="button" ry="5" rx="5" y="6" x="6" height="38" width="38"
                fill="#f2f5e9" fill-opacity="0.5" stroke="#606060" stroke-width="1.0"/>
           <path id="arrow"
             d="M 11.500037,31.436501 C 11.940474,20.09759 22.043105,11.32322 32.158766,21.979434 L 37.068811,17.246167 C 37.068811,17.246167 37.088388,32 37.088388,32 L 22.160133,31.978069 C 22.160133,31.978069 26.997745,27.140456 26.997745,27.140456 C 18.528582,18.264221 13.291696,25.230495 11.500037,31.436501 z"
             style="fill:#404040;"/>
          </a>
         </g>
        </svg>
</svg>
