<?xml version="1.0" encoding="UTF-8" standalone="no"?>
<!DOCTYPE svg PUBLIC "-//W3C//DTD SVG 1.1//EN"
 "http://www.w3.org/Graphics/SVG/1.1/DTD/svg11.dtd">
<!-- Generated by graphviz version 2.43.0 (0)
 -->
<!-- Title: ft::irc::client_handler::on_active Pages: 1 -->
<svg width="602pt" height="146pt"
 viewBox="0.00 0.00 602.00 146.00" xmlns="http://www.w3.org/2000/svg" xmlns:xlink="http://www.w3.org/1999/xlink">
<g id="graph0" class="graph" transform="scale(1 1) rotate(0) translate(4 142)">
<title>ft::irc::client_handler::on_active</title>
<polygon fill="white" stroke="transparent" points="-4,4 -4,-142 598,-142 598,4 -4,4"/>
<!-- Node1 -->
<g id="node1" class="node">
<title>Node1</title>
<g id="a_node1"><a xlink:title=" ">
<polygon fill="#bfbfbf" stroke="black" points="0,-44.5 0,-74.5 116,-74.5 116,-44.5 0,-44.5"/>
<text text-anchor="start" x="8" y="-62.5" font-family="Helvetica,sans-Serif" font-size="10.00">ft::irc::client_handler</text>
<text text-anchor="middle" x="58" y="-51.5" font-family="Helvetica,sans-Serif" font-size="10.00">::on_active</text>
</a>
</g>
</g>
<!-- Node2 -->
<g id="node2" class="node">
<title>Node2</title>
<g id="a_node2"><a xlink:href="structft_1_1serv_1_1logger.html#a83649a4f3bb804c8fed6dfd130de5ee6" target="_top" xlink:title=" ">
<polygon fill="white" stroke="black" points="155,-88 155,-107 277,-107 277,-88 155,-88"/>
<text text-anchor="middle" x="216" y="-95" font-family="Helvetica,sans-Serif" font-size="10.00">ft::serv::logger::debug</text>
</a>
</g>
</g>
<!-- Node1&#45;&gt;Node2 -->
<g id="edge1" class="edge">
<title>Node1&#45;&gt;Node2</title>
<path fill="none" stroke="midnightblue" d="M116.2,-73.43C132.47,-77.4 150.03,-81.67 165.78,-85.51"/>
<polygon fill="midnightblue" stroke="midnightblue" points="165.29,-88.99 175.83,-87.96 166.94,-82.19 165.29,-88.99"/>
</g>
<!-- Node6 -->
<g id="node6" class="node">
<title>Node6</title>
<g id="a_node6"><a xlink:href="classft_1_1irc_1_1server.html#a46bc08a8c1893493503351c013f733cc" target="_top" xlink:title=" ">
<polygon fill="white" stroke="black" points="152,-50 152,-69 280,-69 280,-50 152,-50"/>
<text text-anchor="middle" x="216" y="-57" font-family="Helvetica,sans-Serif" font-size="10.00">ft::irc::server::get_pass</text>
</a>
</g>
</g>
<!-- Node1&#45;&gt;Node6 -->
<g id="edge5" class="edge">
<title>Node1&#45;&gt;Node6</title>
<path fill="none" stroke="midnightblue" d="M116.2,-59.5C124.52,-59.5 133.17,-59.5 141.74,-59.5"/>
<polygon fill="midnightblue" stroke="midnightblue" points="141.75,-63 151.75,-59.5 141.75,-56 141.75,-63"/>
</g>
<!-- Node7 -->
<g id="node7" class="node">
<title>Node7</title>
<g id="a_node7"><a xlink:href="classft_1_1serv_1_1event__layer.html#a3153c0b405c034e066e5d488617d7ea7" target="_top" xlink:title=" ">
<polygon fill="white" stroke="black" points="152,-0.5 152,-30.5 280,-30.5 280,-0.5 152,-0.5"/>
<text text-anchor="start" x="160" y="-18.5" font-family="Helvetica,sans-Serif" font-size="10.00">ft::serv::event_layer</text>
<text text-anchor="middle" x="216" y="-7.5" font-family="Helvetica,sans-Serif" font-size="10.00">::shared_from_channel</text>
</a>
</g>
</g>
<!-- Node1&#45;&gt;Node7 -->
<g id="edge6" class="edge">
<title>Node1&#45;&gt;Node7</title>
<path fill="none" stroke="midnightblue" d="M112.25,-44.48C124.98,-40.89 138.69,-37.02 151.82,-33.32"/>
<polygon fill="midnightblue" stroke="midnightblue" points="153.05,-36.61 161.73,-30.53 151.15,-29.87 153.05,-36.61"/>
</g>
<!-- Node3 -->
<g id="node3" class="node">
<title>Node3</title>
<g id="a_node3"><a xlink:href="namespaceft_1_1serv_1_1__internal.html#a4dfb80be7b817fc0ee18658f313a6274" target="_top" xlink:title=" ">
<polygon fill="white" stroke="black" points="316,-82.5 316,-112.5 414,-112.5 414,-82.5 316,-82.5"/>
<text text-anchor="start" x="324" y="-100.5" font-family="Helvetica,sans-Serif" font-size="10.00">ft::serv::_internal</text>
<text text-anchor="middle" x="365" y="-89.5" font-family="Helvetica,sans-Serif" font-size="10.00">::print</text>
</a>
</g>
</g>
<!-- Node2&#45;&gt;Node3 -->
<g id="edge2" class="edge">
<title>Node2&#45;&gt;Node3</title>
<path fill="none" stroke="midnightblue" d="M277.21,-97.5C286.65,-97.5 296.38,-97.5 305.77,-97.5"/>
<polygon fill="midnightblue" stroke="midnightblue" points="305.79,-101 315.79,-97.5 305.79,-94 305.79,-101"/>
</g>
<!-- Node4 -->
<g id="node4" class="node">
<title>Node4</title>
<g id="a_node4"><a xlink:href="namespaceft_1_1serv_1_1__internal.html#aff49349b58dc84fa69076e9cd27a1db4" target="_top" xlink:title=" ">
<polygon fill="white" stroke="black" points="450,-107.5 450,-137.5 594,-137.5 594,-107.5 450,-107.5"/>
<text text-anchor="start" x="458" y="-125.5" font-family="Helvetica,sans-Serif" font-size="10.00">ft::serv::_internal</text>
<text text-anchor="middle" x="522" y="-114.5" font-family="Helvetica,sans-Serif" font-size="10.00">::make_format_string_line</text>
</a>
</g>
</g>
<!-- Node3&#45;&gt;Node4 -->
<g id="edge3" class="edge">
<title>Node3&#45;&gt;Node4</title>
<path fill="none" stroke="midnightblue" d="M414.19,-105.27C422.39,-106.6 431.11,-108 439.88,-109.42"/>
<polygon fill="midnightblue" stroke="midnightblue" points="439.36,-112.88 449.79,-111.01 440.48,-105.97 439.36,-112.88"/>
</g>
<!-- Node5 -->
<g id="node5" class="node">
<title>Node5</title>
<g id="a_node5"><a xlink:href="namespaceft_1_1serv_1_1__internal.html#aad4af39d62c2b1687b0bef7a91bf6c60" target="_top" xlink:title=" ">
<polygon fill="white" stroke="black" points="470.5,-58.5 470.5,-88.5 573.5,-88.5 573.5,-58.5 470.5,-58.5"/>
<text text-anchor="start" x="478.5" y="-76.5" font-family="Helvetica,sans-Serif" font-size="10.00">ft::serv::_internal</text>
<text text-anchor="middle" x="522" y="-65.5" font-family="Helvetica,sans-Serif" font-size="10.00">::make_utc_string</text>
</a>
</g>
</g>
<!-- Node3&#45;&gt;Node5 -->
<g id="edge4" class="edge">
<title>Node3&#45;&gt;Node5</title>
<path fill="none" stroke="midnightblue" d="M414.19,-90.04C428.85,-87.77 445.14,-85.25 460.49,-82.87"/>
<polygon fill="midnightblue" stroke="midnightblue" points="461.08,-86.32 470.42,-81.33 460.01,-79.4 461.08,-86.32"/>
</g>
</g>
</svg>
