<?xml version="1.0" encoding="UTF-8" standalone="no"?>
<!DOCTYPE svg PUBLIC "-//W3C//DTD SVG 1.1//EN"
 "http://www.w3.org/Graphics/SVG/1.1/DTD/svg11.dtd">
<!-- Generated by graphviz version 2.43.0 (0)
 -->
<!-- Title: ft::irc::server Pages: 1 -->
<svg width="448pt" height="291pt"
 viewBox="0.00 0.00 448.00 291.00" xmlns="http://www.w3.org/2000/svg" xmlns:xlink="http://www.w3.org/1999/xlink">
<g id="graph0" class="graph" transform="scale(1 1) rotate(0) translate(4 287)">
<title>ft::irc::server</title>
<polygon fill="white" stroke="transparent" points="-4,4 -4,-287 444,-287 444,4 -4,4"/>
<!-- Node1 -->
<g id="node1" class="node">
<title>Node1</title>
<g id="a_node1"><a xlink:title=" ">
<polygon fill="#bfbfbf" stroke="black" points="362,-137 362,-156 440,-156 440,-137 362,-137"/>
<text text-anchor="middle" x="401" y="-144" font-family="Helvetica,sans-Serif" font-size="10.00">ft::irc::server</text>
</a>
</g>
</g>
<!-- Node2 -->
<g id="node2" class="node">
<title>Node2</title>
<g id="a_node2"><a xlink:title=" ">
<polygon fill="white" stroke="#bfbfbf" points="145.5,-252.5 145.5,-282.5 274.5,-282.5 274.5,-252.5 145.5,-252.5"/>
<text text-anchor="start" x="153.5" y="-270.5" font-family="Helvetica,sans-Serif" font-size="10.00">ft::enable_shared_from</text>
<text text-anchor="middle" x="210" y="-259.5" font-family="Helvetica,sans-Serif" font-size="10.00">_this&lt; server &gt;</text>
</a>
</g>
</g>
<!-- Node2&#45;&gt;Node1 -->
<g id="edge1" class="edge">
<title>Node2&#45;&gt;Node1</title>
<path fill="none" stroke="midnightblue" d="M274,-249.02C297.41,-240.28 323.28,-228.24 344,-212.5 365.54,-196.13 384.47,-170.15 393.82,-156.17"/>
<polygon fill="midnightblue" stroke="midnightblue" points="272.71,-245.77 264.49,-252.45 275.08,-252.35 272.71,-245.77"/>
</g>
<!-- Node3 -->
<g id="node3" class="node">
<title>Node3</title>
<g id="a_node3"><a xlink:title=" ">
<polygon fill="white" stroke="#bfbfbf" points="165.5,-214 165.5,-233 254.5,-233 254.5,-214 165.5,-214"/>
<text text-anchor="middle" x="210" y="-221" font-family="Helvetica,sans-Serif" font-size="10.00">readwrite_lock</text>
</a>
</g>
</g>
<!-- Node3&#45;&gt;Node1 -->
<g id="edge2" class="edge">
<title>Node3&#45;&gt;Node1</title>
<path fill="none" stroke="#9a32cd" stroke-dasharray="5,2" d="M258.92,-211.07C265.71,-209.03 272.57,-206.82 279,-204.5 308.76,-193.77 315.5,-189.22 344,-175.5 356.92,-169.28 371.28,-161.83 382.23,-156.04"/>
<polygon fill="#9a32cd" stroke="#9a32cd" points="257.71,-207.78 249.08,-213.92 259.66,-214.5 257.71,-207.78"/>
<text text-anchor="middle" x="320.5" y="-200.5" font-family="Helvetica,sans-Serif" font-size="10.00"> lock</text>
</g>
<!-- Node4 -->
<g id="node4" class="node">
<title>Node4</title>
<g id="a_node4"><a xlink:href="structft_1_1serv_1_1dynamic__array.html" target="_top" xlink:title=" ">
<polygon fill="white" stroke="black" points="146,-154 146,-195 274,-195 274,-154 146,-154"/>
<text text-anchor="start" x="154" y="-183" font-family="Helvetica,sans-Serif" font-size="10.00">ft::serv::dynamic_array</text>
<text text-anchor="start" x="154" y="-172" font-family="Helvetica,sans-Serif" font-size="10.00">&lt; ft::shared_ptr&lt; ft::</text>
<text text-anchor="middle" x="210" y="-161" font-family="Helvetica,sans-Serif" font-size="10.00">irc::user &gt; &gt;</text>
</a>
</g>
</g>
<!-- Node4&#45;&gt;Node1 -->
<g id="edge3" class="edge">
<title>Node4&#45;&gt;Node1</title>
<path fill="none" stroke="#9a32cd" stroke-dasharray="5,2" d="M284.23,-163.65C310.77,-159.72 339.67,-155.44 361.95,-152.14"/>
<polygon fill="#9a32cd" stroke="#9a32cd" points="283.58,-160.21 274.2,-165.14 284.6,-167.13 283.58,-160.21"/>
<text text-anchor="middle" x="320.5" y="-163.5" font-family="Helvetica,sans-Serif" font-size="10.00"> users</text>
</g>
<!-- Node5 -->
<g id="node5" class="node">
<title>Node5</title>
<g id="a_node5"><a xlink:href="structft_1_1serv_1_1unique__set.html" target="_top" xlink:title=" ">
<polygon fill="white" stroke="black" points="155.5,-104.5 155.5,-134.5 264.5,-134.5 264.5,-104.5 155.5,-104.5"/>
<text text-anchor="start" x="163.5" y="-122.5" font-family="Helvetica,sans-Serif" font-size="10.00">ft::serv::unique_set</text>
<text text-anchor="middle" x="210" y="-111.5" font-family="Helvetica,sans-Serif" font-size="10.00">&lt; std::string &gt;</text>
</a>
</g>
</g>
<!-- Node5&#45;&gt;Node1 -->
<g id="edge4" class="edge">
<title>Node5&#45;&gt;Node1</title>
<path fill="none" stroke="#9a32cd" stroke-dasharray="5,2" d="M274.68,-128.6C303.6,-132.73 336.85,-137.48 361.82,-141.05"/>
<polygon fill="#9a32cd" stroke="#9a32cd" points="275.05,-125.11 264.65,-127.16 274.06,-132.04 275.05,-125.11"/>
<text text-anchor="middle" x="320.5" y="-140.5" font-family="Helvetica,sans-Serif" font-size="10.00"> nicks</text>
</g>
<!-- Node6 -->
<g id="node6" class="node">
<title>Node6</title>
<g id="a_node6"><a xlink:href="structft_1_1serv_1_1fast__dictionary.html" target="_top" xlink:title=" ">
<polygon fill="white" stroke="black" points="141,-44 141,-85 279,-85 279,-44 141,-44"/>
<text text-anchor="start" x="149" y="-73" font-family="Helvetica,sans-Serif" font-size="10.00">ft::serv::fast_dictionary</text>
<text text-anchor="start" x="149" y="-62" font-family="Helvetica,sans-Serif" font-size="10.00">&lt; std::string, ft::shared</text>
<text text-anchor="middle" x="210" y="-51" font-family="Helvetica,sans-Serif" font-size="10.00">_ptr&lt; ft::irc::channel &gt; &gt;</text>
</a>
</g>
</g>
<!-- Node6&#45;&gt;Node1 -->
<g id="edge5" class="edge">
<title>Node6&#45;&gt;Node1</title>
<path fill="none" stroke="#9a32cd" stroke-dasharray="5,2" d="M277.31,-88.64C298.81,-96.94 322.62,-106.64 344,-116.5 357.42,-122.69 372.13,-130.62 383.11,-136.77"/>
<polygon fill="#9a32cd" stroke="#9a32cd" points="278.52,-85.35 267.93,-85.05 276.01,-91.89 278.52,-85.35"/>
<text text-anchor="middle" x="320.5" y="-119.5" font-family="Helvetica,sans-Serif" font-size="10.00"> channels</text>
</g>
<!-- Node7 -->
<g id="node7" class="node">
<title>Node7</title>
<g id="a_node7"><a xlink:title=" ">
<polygon fill="white" stroke="#bfbfbf" points="177.5,-6 177.5,-25 242.5,-25 242.5,-6 177.5,-6"/>
<text text-anchor="middle" x="210" y="-13" font-family="Helvetica,sans-Serif" font-size="10.00">std::string</text>
</a>
</g>
</g>
<!-- Node7&#45;&gt;Node1 -->
<g id="edge6" class="edge">
<title>Node7&#45;&gt;Node1</title>
<path fill="none" stroke="#9a32cd" stroke-dasharray="5,2" d="M252.52,-24.66C261.47,-27.3 270.72,-30.56 279,-34.5 310.96,-49.71 317.9,-56.6 344,-80.5 363.73,-98.57 383.09,-123.42 393.07,-136.88"/>
<polygon fill="#9a32cd" stroke="#9a32cd" points="253.19,-21.21 242.62,-21.93 251.33,-27.96 253.19,-21.21"/>
<text text-anchor="middle" x="320.5" y="-83.5" font-family="Helvetica,sans-Serif" font-size="10.00"> pass</text>
</g>
<!-- Node8 -->
<g id="node8" class="node">
<title>Node8</title>
<g id="a_node8"><a xlink:title=" ">
<polygon fill="white" stroke="#bfbfbf" points="0,-0.5 0,-30.5 104,-30.5 104,-0.5 0,-0.5"/>
<text text-anchor="start" x="8" y="-18.5" font-family="Helvetica,sans-Serif" font-size="10.00">std::basic_string&lt;</text>
<text text-anchor="middle" x="52" y="-7.5" font-family="Helvetica,sans-Serif" font-size="10.00"> Char &gt;</text>
</a>
</g>
</g>
<!-- Node8&#45;&gt;Node7 -->
<g id="edge7" class="edge">
<title>Node8&#45;&gt;Node7</title>
<path fill="none" stroke="midnightblue" d="M114.19,-15.5C135.8,-15.5 159.23,-15.5 177.38,-15.5"/>
<polygon fill="midnightblue" stroke="midnightblue" points="114.08,-12 104.08,-15.5 114.08,-19 114.08,-12"/>
</g>
</g>
</svg>
