<?xml version="1.0" encoding="UTF-8" standalone="no"?>
<!DOCTYPE svg PUBLIC "-//W3C//DTD SVG 1.1//EN"
 "http://www.w3.org/Graphics/SVG/1.1/DTD/svg11.dtd">
<!-- Generated by graphviz version 2.43.0 (0)
 -->
<!-- Title: ft::irc::server::find_channel Pages: 1 -->
<svg width="416pt" height="357pt"
 viewBox="0.00 0.00 416.00 357.00" xmlns="http://www.w3.org/2000/svg" xmlns:xlink="http://www.w3.org/1999/xlink">
<g id="graph0" class="graph" transform="scale(1 1) rotate(0) translate(4 353)">
<title>ft::irc::server::find_channel</title>
<polygon fill="white" stroke="transparent" points="-4,4 -4,-353 412,-353 412,4 -4,4"/>
<!-- Node1 -->
<g id="node1" class="node">
<title>Node1</title>
<g id="a_node1"><a xlink:title=" ">
<polygon fill="#bfbfbf" stroke="black" points="306,-171.5 306,-201.5 408,-201.5 408,-171.5 306,-171.5"/>
<text text-anchor="start" x="314" y="-189.5" font-family="Helvetica,sans-Serif" font-size="10.00">ft::irc::server::find</text>
<text text-anchor="middle" x="357" y="-178.5" font-family="Helvetica,sans-Serif" font-size="10.00">_channel</text>
</a>
</g>
</g>
<!-- Node2 -->
<g id="node2" class="node">
<title>Node2</title>
<g id="a_node2"><a xlink:href="classft_1_1irc_1_1user.html#af2aa8fcafc015de38938ccccfed4b1c9" target="_top" xlink:title=" ">
<polygon fill="white" stroke="black" points="138.5,-318.5 138.5,-348.5 262.5,-348.5 262.5,-318.5 138.5,-318.5"/>
<text text-anchor="start" x="146.5" y="-336.5" font-family="Helvetica,sans-Serif" font-size="10.00">ft::irc::user::deregister</text>
<text text-anchor="middle" x="200.5" y="-325.5" font-family="Helvetica,sans-Serif" font-size="10.00">_from_server</text>
</a>
</g>
</g>
<!-- Node1&#45;&gt;Node2 -->
<g id="edge1" class="edge">
<title>Node1&#45;&gt;Node2</title>
<path fill="none" stroke="midnightblue" d="M344.73,-211.01C330.84,-238.64 304.76,-283.14 270,-309.5 265.48,-312.93 260.44,-315.89 255.19,-318.45"/>
<polygon fill="midnightblue" stroke="midnightblue" points="348.05,-212.18 349.28,-201.66 341.76,-209.12 348.05,-212.18"/>
</g>
<!-- Node3 -->
<g id="node3" class="node">
<title>Node3</title>
<g id="a_node3"><a xlink:href="classft_1_1irc_1_1processor__part.html#a4075107cb360cd04c0a11a9904104ad0" target="_top" xlink:title=" ">
<polygon fill="white" stroke="black" points="153,-269.5 153,-299.5 248,-299.5 248,-269.5 153,-269.5"/>
<text text-anchor="start" x="161" y="-287.5" font-family="Helvetica,sans-Serif" font-size="10.00">ft::irc::processor</text>
<text text-anchor="middle" x="200.5" y="-276.5" font-family="Helvetica,sans-Serif" font-size="10.00">_part::execute</text>
</a>
</g>
</g>
<!-- Node1&#45;&gt;Node3 -->
<g id="edge2" class="edge">
<title>Node1&#45;&gt;Node3</title>
<path fill="none" stroke="midnightblue" d="M334.36,-209.2C317.96,-225.33 294.19,-246.53 270,-260.5 263.23,-264.41 255.73,-267.83 248.24,-270.77"/>
<polygon fill="midnightblue" stroke="midnightblue" points="337.22,-211.3 341.79,-201.74 332.26,-206.36 337.22,-211.3"/>
</g>
<!-- Node4 -->
<g id="node4" class="node">
<title>Node4</title>
<g id="a_node4"><a xlink:href="classft_1_1irc_1_1processor__mode.html#ad013987a789be47379c13f61364135a6" target="_top" xlink:title=" ">
<polygon fill="white" stroke="black" points="153,-220.5 153,-250.5 248,-250.5 248,-220.5 153,-220.5"/>
<text text-anchor="start" x="161" y="-238.5" font-family="Helvetica,sans-Serif" font-size="10.00">ft::irc::processor</text>
<text text-anchor="middle" x="200.5" y="-227.5" font-family="Helvetica,sans-Serif" font-size="10.00">_mode::execute</text>
</a>
</g>
</g>
<!-- Node1&#45;&gt;Node4 -->
<g id="edge3" class="edge">
<title>Node1&#45;&gt;Node4</title>
<path fill="none" stroke="midnightblue" d="M298.75,-204.66C282.09,-209.94 264.09,-215.65 248.16,-220.7"/>
<polygon fill="midnightblue" stroke="midnightblue" points="299.91,-207.96 308.38,-201.6 297.79,-201.29 299.91,-207.96"/>
</g>
<!-- Node5 -->
<g id="node5" class="node">
<title>Node5</title>
<g id="a_node5"><a xlink:href="classft_1_1irc_1_1processor__topic.html#ae4eec2a7267b66791a72bbab1d4842c0" target="_top" xlink:title=" ">
<polygon fill="white" stroke="black" points="153,-171.5 153,-201.5 248,-201.5 248,-171.5 153,-171.5"/>
<text text-anchor="start" x="161" y="-189.5" font-family="Helvetica,sans-Serif" font-size="10.00">ft::irc::processor</text>
<text text-anchor="middle" x="200.5" y="-178.5" font-family="Helvetica,sans-Serif" font-size="10.00">_topic::execute</text>
</a>
</g>
</g>
<!-- Node1&#45;&gt;Node5 -->
<g id="edge4" class="edge">
<title>Node1&#45;&gt;Node5</title>
<path fill="none" stroke="midnightblue" d="M295.61,-186.5C279.79,-186.5 262.98,-186.5 248.01,-186.5"/>
<polygon fill="midnightblue" stroke="midnightblue" points="295.84,-190 305.84,-186.5 295.84,-183 295.84,-190"/>
</g>
<!-- Node6 -->
<g id="node6" class="node">
<title>Node6</title>
<g id="a_node6"><a xlink:href="classft_1_1irc_1_1processor__names.html#a95f660c1020ac7f26cceacd932f48f09" target="_top" xlink:title=" ">
<polygon fill="white" stroke="black" points="151,-122.5 151,-152.5 250,-152.5 250,-122.5 151,-122.5"/>
<text text-anchor="start" x="159" y="-140.5" font-family="Helvetica,sans-Serif" font-size="10.00">ft::irc::processor</text>
<text text-anchor="middle" x="200.5" y="-129.5" font-family="Helvetica,sans-Serif" font-size="10.00">_names::execute</text>
</a>
</g>
</g>
<!-- Node1&#45;&gt;Node6 -->
<g id="edge5" class="edge">
<title>Node1&#45;&gt;Node6</title>
<path fill="none" stroke="midnightblue" d="M298.43,-168.24C282.13,-163.07 264.59,-157.51 248.96,-152.55"/>
<polygon fill="midnightblue" stroke="midnightblue" points="297.79,-171.71 308.38,-171.4 299.91,-165.04 297.79,-171.71"/>
</g>
<!-- Node7 -->
<g id="node7" class="node">
<title>Node7</title>
<g id="a_node7"><a xlink:href="classft_1_1irc_1_1processor__message__base.html#ab3fba6f27483543b9c7a559fd2e1402b" target="_top" xlink:title=" ">
<polygon fill="white" stroke="black" points="131,-73.5 131,-103.5 270,-103.5 270,-73.5 131,-73.5"/>
<text text-anchor="start" x="139" y="-91.5" font-family="Helvetica,sans-Serif" font-size="10.00">ft::irc::processor</text>
<text text-anchor="middle" x="200.5" y="-80.5" font-family="Helvetica,sans-Serif" font-size="10.00">_message_base::execute</text>
</a>
</g>
</g>
<!-- Node1&#45;&gt;Node7 -->
<g id="edge6" class="edge">
<title>Node1&#45;&gt;Node7</title>
<path fill="none" stroke="midnightblue" d="M333.96,-163.93C317.51,-148.1 293.86,-127.38 270,-113.5 263.65,-109.81 256.67,-106.51 249.65,-103.61"/>
<polygon fill="midnightblue" stroke="midnightblue" points="331.83,-166.74 341.42,-171.25 336.73,-161.75 331.83,-166.74"/>
</g>
<!-- Node8 -->
<g id="node8" class="node">
<title>Node8</title>
<g id="a_node8"><a xlink:href="classft_1_1irc_1_1user.html#a29eb92f8b7e66851cd4634d98aa57dc6" target="_top" xlink:title=" ">
<polygon fill="white" stroke="black" points="149.5,-24.5 149.5,-54.5 251.5,-54.5 251.5,-24.5 149.5,-24.5"/>
<text text-anchor="start" x="157.5" y="-42.5" font-family="Helvetica,sans-Serif" font-size="10.00">ft::irc::user::notify</text>
<text text-anchor="middle" x="200.5" y="-31.5" font-family="Helvetica,sans-Serif" font-size="10.00">_message</text>
</a>
</g>
</g>
<!-- Node1&#45;&gt;Node8 -->
<g id="edge7" class="edge">
<title>Node1&#45;&gt;Node8</title>
<path fill="none" stroke="midnightblue" d="M344.39,-161.83C330.35,-134.47 304.27,-90.73 270,-64.5 264.47,-60.27 258.16,-56.7 251.65,-53.71"/>
<polygon fill="midnightblue" stroke="midnightblue" points="341.42,-163.72 349.01,-171.11 347.69,-160.6 341.42,-163.72"/>
</g>
<!-- Node9 -->
<g id="node9" class="node">
<title>Node9</title>
<g id="a_node9"><a xlink:href="classft_1_1irc_1_1processor__nick.html#a7a2f0f709488328c04b6ccf0c41ce78e" target="_top" xlink:title=" ">
<polygon fill="white" stroke="black" points="0,-49.5 0,-79.5 95,-79.5 95,-49.5 0,-49.5"/>
<text text-anchor="start" x="8" y="-67.5" font-family="Helvetica,sans-Serif" font-size="10.00">ft::irc::processor</text>
<text text-anchor="middle" x="47.5" y="-56.5" font-family="Helvetica,sans-Serif" font-size="10.00">_nick::execute</text>
</a>
</g>
</g>
<!-- Node8&#45;&gt;Node9 -->
<g id="edge8" class="edge">
<title>Node8&#45;&gt;Node9</title>
<path fill="none" stroke="midnightblue" d="M139.24,-49.48C124.6,-51.9 109.15,-54.46 95.24,-56.76"/>
<polygon fill="midnightblue" stroke="midnightblue" points="139.93,-52.91 149.22,-47.82 138.78,-46.01 139.93,-52.91"/>
</g>
<!-- Node10 -->
<g id="node10" class="node">
<title>Node10</title>
<g id="a_node10"><a xlink:href="classft_1_1irc_1_1processor__quit.html#a013c9c33d3e8cd471ca3de624447d359" target="_top" xlink:title=" ">
<polygon fill="white" stroke="black" points="0,-0.5 0,-30.5 95,-30.5 95,-0.5 0,-0.5"/>
<text text-anchor="start" x="8" y="-18.5" font-family="Helvetica,sans-Serif" font-size="10.00">ft::irc::processor</text>
<text text-anchor="middle" x="47.5" y="-7.5" font-family="Helvetica,sans-Serif" font-size="10.00">_quit::execute</text>
</a>
</g>
</g>
<!-- Node8&#45;&gt;Node10 -->
<g id="edge9" class="edge">
<title>Node8&#45;&gt;Node10</title>
<path fill="none" stroke="midnightblue" d="M139.24,-29.92C124.6,-27.59 109.15,-25.14 95.24,-22.93"/>
<polygon fill="midnightblue" stroke="midnightblue" points="138.79,-33.4 149.22,-31.51 139.89,-26.48 138.79,-33.4"/>
</g>
</g>
</svg>
