<?xml version="1.0" encoding="UTF-8" standalone="no"?>
<!DOCTYPE svg PUBLIC "-//W3C//DTD SVG 1.1//EN"
 "http://www.w3.org/Graphics/SVG/1.1/DTD/svg11.dtd">
<!-- Generated by graphviz version 2.43.0 (0)
 -->
<!-- Title: ft::irc::channel::load_mode Pages: 1 -->
<svg width="460pt" height="230pt"
 viewBox="0.00 0.00 460.00 230.00" xmlns="http://www.w3.org/2000/svg" xmlns:xlink="http://www.w3.org/1999/xlink">
<g id="graph0" class="graph" transform="scale(1 1) rotate(0) translate(4 226)">
<title>ft::irc::channel::load_mode</title>
<polygon fill="white" stroke="transparent" points="-4,4 -4,-226 456,-226 456,4 -4,4"/>
<!-- Node1 -->
<g id="node1" class="node">
<title>Node1</title>
<g id="a_node1"><a xlink:title=" ">
<polygon fill="#bfbfbf" stroke="black" points="306,-99 306,-118 452,-118 452,-99 306,-99"/>
<text text-anchor="middle" x="379" y="-106" font-family="Helvetica,sans-Serif" font-size="10.00">ft::irc::channel::load_mode</text>
</a>
</g>
</g>
<!-- Node2 -->
<g id="node2" class="node">
<title>Node2</title>
<g id="a_node2"><a xlink:href="classft_1_1irc_1_1processor__topic.html#ae4eec2a7267b66791a72bbab1d4842c0" target="_top" xlink:title=" ">
<polygon fill="white" stroke="black" points="153,-191.5 153,-221.5 248,-221.5 248,-191.5 153,-191.5"/>
<text text-anchor="start" x="161" y="-209.5" font-family="Helvetica,sans-Serif" font-size="10.00">ft::irc::processor</text>
<text text-anchor="middle" x="200.5" y="-198.5" font-family="Helvetica,sans-Serif" font-size="10.00">_topic::execute</text>
</a>
</g>
</g>
<!-- Node1&#45;&gt;Node2 -->
<g id="edge1" class="edge">
<title>Node1&#45;&gt;Node2</title>
<path fill="none" stroke="midnightblue" d="M358.25,-124.41C337.32,-140.69 302.82,-165.87 270,-182.5 263.14,-185.97 255.66,-189.15 248.25,-191.98"/>
<polygon fill="midnightblue" stroke="midnightblue" points="360.65,-126.97 366.34,-118.03 356.32,-121.47 360.65,-126.97"/>
</g>
<!-- Node3 -->
<g id="node3" class="node">
<title>Node3</title>
<g id="a_node3"><a xlink:href="classft_1_1irc_1_1processor__names.html#a95f660c1020ac7f26cceacd932f48f09" target="_top" xlink:title=" ">
<polygon fill="white" stroke="black" points="151,-142.5 151,-172.5 250,-172.5 250,-142.5 151,-142.5"/>
<text text-anchor="start" x="159" y="-160.5" font-family="Helvetica,sans-Serif" font-size="10.00">ft::irc::processor</text>
<text text-anchor="middle" x="200.5" y="-149.5" font-family="Helvetica,sans-Serif" font-size="10.00">_names::execute</text>
</a>
</g>
</g>
<!-- Node1&#45;&gt;Node3 -->
<g id="edge2" class="edge">
<title>Node1&#45;&gt;Node3</title>
<path fill="none" stroke="midnightblue" d="M333.8,-120.77C308.37,-127.83 276.37,-136.71 250.22,-143.97"/>
<polygon fill="midnightblue" stroke="midnightblue" points="334.85,-124.11 343.55,-118.06 332.98,-117.37 334.85,-124.11"/>
</g>
<!-- Node4 -->
<g id="node4" class="node">
<title>Node4</title>
<g id="a_node4"><a xlink:href="classft_1_1irc_1_1processor__invite.html#a558fbe35293f4a0783af9a50f7146eeb" target="_top" xlink:title=" ">
<polygon fill="white" stroke="black" points="153,-93.5 153,-123.5 248,-123.5 248,-93.5 153,-93.5"/>
<text text-anchor="start" x="161" y="-111.5" font-family="Helvetica,sans-Serif" font-size="10.00">ft::irc::processor</text>
<text text-anchor="middle" x="200.5" y="-100.5" font-family="Helvetica,sans-Serif" font-size="10.00">_invite::execute</text>
</a>
</g>
</g>
<!-- Node1&#45;&gt;Node4 -->
<g id="edge3" class="edge">
<title>Node1&#45;&gt;Node4</title>
<path fill="none" stroke="midnightblue" d="M295.8,-108.5C279.41,-108.5 262.73,-108.5 248.05,-108.5"/>
<polygon fill="midnightblue" stroke="midnightblue" points="295.96,-112 305.96,-108.5 295.96,-105 295.96,-112"/>
</g>
<!-- Node5 -->
<g id="node5" class="node">
<title>Node5</title>
<g id="a_node5"><a xlink:href="classft_1_1irc_1_1processor__message__base.html#ab3fba6f27483543b9c7a559fd2e1402b" target="_top" xlink:title=" ">
<polygon fill="white" stroke="black" points="131,-44.5 131,-74.5 270,-74.5 270,-44.5 131,-44.5"/>
<text text-anchor="start" x="139" y="-62.5" font-family="Helvetica,sans-Serif" font-size="10.00">ft::irc::processor</text>
<text text-anchor="middle" x="200.5" y="-51.5" font-family="Helvetica,sans-Serif" font-size="10.00">_message_base::execute</text>
</a>
</g>
</g>
<!-- Node1&#45;&gt;Node5 -->
<g id="edge4" class="edge">
<title>Node1&#45;&gt;Node5</title>
<path fill="none" stroke="midnightblue" d="M333.78,-96.22C310.09,-89.65 280.71,-81.49 255.66,-74.54"/>
<polygon fill="midnightblue" stroke="midnightblue" points="332.98,-99.63 343.55,-98.94 334.85,-92.89 332.98,-99.63"/>
</g>
<!-- Node6 -->
<g id="node6" class="node">
<title>Node6</title>
<g id="a_node6"><a xlink:href="classft_1_1irc_1_1server.html#a3f4e06d5a9cf57441582f77b95f87135" target="_top" xlink:title=" ">
<polygon fill="white" stroke="black" points="136.5,-6 136.5,-25 264.5,-25 264.5,-6 136.5,-6"/>
<text text-anchor="middle" x="200.5" y="-13" font-family="Helvetica,sans-Serif" font-size="10.00">ft::irc::server::send_list</text>
</a>
</g>
</g>
<!-- Node1&#45;&gt;Node6 -->
<g id="edge5" class="edge">
<title>Node1&#45;&gt;Node6</title>
<path fill="none" stroke="midnightblue" d="M358.38,-92.47C337.56,-76.14 303.16,-51.08 270,-35.5 261.25,-31.39 251.48,-27.93 242.11,-25.1"/>
<polygon fill="midnightblue" stroke="midnightblue" points="356.43,-95.39 366.43,-98.88 360.79,-89.91 356.43,-95.39"/>
</g>
<!-- Node7 -->
<g id="node7" class="node">
<title>Node7</title>
<g id="a_node7"><a xlink:href="classft_1_1irc_1_1processor__list.html#aa4ed52d03d87a5f03d9c6d2e53e0409b" target="_top" xlink:title=" ">
<polygon fill="white" stroke="black" points="0,-0.5 0,-30.5 95,-30.5 95,-0.5 0,-0.5"/>
<text text-anchor="start" x="8" y="-18.5" font-family="Helvetica,sans-Serif" font-size="10.00">ft::irc::processor</text>
<text text-anchor="middle" x="47.5" y="-7.5" font-family="Helvetica,sans-Serif" font-size="10.00">_list::execute</text>
</a>
</g>
</g>
<!-- Node6&#45;&gt;Node7 -->
<g id="edge6" class="edge">
<title>Node6&#45;&gt;Node7</title>
<path fill="none" stroke="midnightblue" d="M126.28,-15.5C115.75,-15.5 105.16,-15.5 95.33,-15.5"/>
<polygon fill="midnightblue" stroke="midnightblue" points="126.34,-19 136.34,-15.5 126.34,-12 126.34,-19"/>
</g>
</g>
</svg>
