<?xml version="1.0" encoding="UTF-8" standalone="no"?>
<!DOCTYPE svg PUBLIC "-//W3C//DTD SVG 1.1//EN"
 "http://www.w3.org/Graphics/SVG/1.1/DTD/svg11.dtd">
<!-- Generated by graphviz version 2.43.0 (0)
 -->
<!-- Title: ft::serv::bootstrap::start_client Pages: 1 -->
<svg width="592pt" height="293pt"
 viewBox="0.00 0.00 592.00 292.50" xmlns="http://www.w3.org/2000/svg" xmlns:xlink="http://www.w3.org/1999/xlink">
<g id="graph0" class="graph" transform="scale(1 1) rotate(0) translate(4 288.5)">
<title>ft::serv::bootstrap::start_client</title>
<polygon fill="white" stroke="transparent" points="-4,4 -4,-288.5 588,-288.5 588,4 -4,4"/>
<!-- Node1 -->
<g id="node1" class="node">
<title>Node1</title>
<g id="a_node1"><a xlink:title=" ">
<polygon fill="#bfbfbf" stroke="black" points="0,-141.5 0,-171.5 102,-171.5 102,-141.5 0,-141.5"/>
<text text-anchor="start" x="8" y="-159.5" font-family="Helvetica,sans-Serif" font-size="10.00">ft::serv::bootstrap</text>
<text text-anchor="middle" x="51" y="-148.5" font-family="Helvetica,sans-Serif" font-size="10.00">::start_client</text>
</a>
</g>
</g>
<!-- Node2 -->
<g id="node2" class="node">
<title>Node2</title>
<g id="a_node2"><a xlink:href="bootstrap_8cpp.html#acf03e66a45bc7cc346d17d294290c024" target="_top" xlink:title=" ">
<polygon fill="white" stroke="black" points="144.5,-265 144.5,-284 248.5,-284 248.5,-265 144.5,-265"/>
<text text-anchor="middle" x="196.5" y="-272" font-family="Helvetica,sans-Serif" font-size="10.00">_to_c_str_nullable</text>
</a>
</g>
</g>
<!-- Node1&#45;&gt;Node2 -->
<g id="edge1" class="edge">
<title>Node1&#45;&gt;Node2</title>
<path fill="none" stroke="midnightblue" d="M61.45,-171.85C75.55,-193.51 104.08,-232.92 138,-255.5 141.07,-257.54 144.38,-259.38 147.8,-261.04"/>
<polygon fill="midnightblue" stroke="midnightblue" points="146.47,-264.28 157.04,-264.99 149.22,-257.84 146.47,-264.28"/>
</g>
<!-- Node3 -->
<g id="node3" class="node">
<title>Node3</title>
<g id="a_node3"><a xlink:href="structft_1_1serv_1_1socket__utils.html#ad0dccc18b1c71b736ffcd2328c3f3ccd" target="_top" xlink:title=" ">
<polygon fill="white" stroke="black" points="140,-215.5 140,-245.5 253,-245.5 253,-215.5 140,-215.5"/>
<text text-anchor="start" x="148" y="-233.5" font-family="Helvetica,sans-Serif" font-size="10.00">ft::serv::socket_utils</text>
<text text-anchor="middle" x="196.5" y="-222.5" font-family="Helvetica,sans-Serif" font-size="10.00">::close_socket</text>
</a>
</g>
</g>
<!-- Node1&#45;&gt;Node3 -->
<g id="edge2" class="edge">
<title>Node1&#45;&gt;Node3</title>
<path fill="none" stroke="midnightblue" d="M76,-171.59C92.99,-182 116.5,-195.82 138,-206.5 141.29,-208.14 144.73,-209.76 148.2,-211.35"/>
<polygon fill="midnightblue" stroke="midnightblue" points="146.89,-214.59 157.45,-215.45 149.72,-208.19 146.89,-214.59"/>
</g>
<!-- Node4 -->
<g id="node4" class="node">
<title>Node4</title>
<g id="a_node4"><a xlink:href="structft_1_1serv_1_1socket__utils.html#a56120e0cd1c6aef9b5bef57bc37b85eb" target="_top" xlink:title=" ">
<polygon fill="white" stroke="black" points="140,-166.5 140,-196.5 253,-196.5 253,-166.5 140,-166.5"/>
<text text-anchor="start" x="148" y="-184.5" font-family="Helvetica,sans-Serif" font-size="10.00">ft::serv::socket_utils</text>
<text text-anchor="middle" x="196.5" y="-173.5" font-family="Helvetica,sans-Serif" font-size="10.00">::connect_socket</text>
</a>
</g>
</g>
<!-- Node1&#45;&gt;Node4 -->
<g id="edge3" class="edge">
<title>Node1&#45;&gt;Node4</title>
<path fill="none" stroke="midnightblue" d="M102.19,-165.24C111.09,-166.79 120.48,-168.43 129.74,-170.04"/>
<polygon fill="midnightblue" stroke="midnightblue" points="129.25,-173.51 139.7,-171.78 130.45,-166.62 129.25,-173.51"/>
</g>
<!-- Node8 -->
<g id="node8" class="node">
<title>Node8</title>
<g id="a_node8"><a xlink:href="structft_1_1serv_1_1socket__utils.html#af26c480a74e72a232aca84cd17e2de61" target="_top" xlink:title=" ">
<polygon fill="white" stroke="black" points="140,-117.5 140,-147.5 253,-147.5 253,-117.5 140,-117.5"/>
<text text-anchor="start" x="148" y="-135.5" font-family="Helvetica,sans-Serif" font-size="10.00">ft::serv::socket_utils</text>
<text text-anchor="middle" x="196.5" y="-124.5" font-family="Helvetica,sans-Serif" font-size="10.00">::name_socket</text>
</a>
</g>
</g>
<!-- Node1&#45;&gt;Node8 -->
<g id="edge7" class="edge">
<title>Node1&#45;&gt;Node8</title>
<path fill="none" stroke="midnightblue" d="M102.19,-148.11C111.09,-146.62 120.48,-145.05 129.74,-143.5"/>
<polygon fill="midnightblue" stroke="midnightblue" points="130.42,-146.93 139.7,-141.83 129.26,-140.03 130.42,-146.93"/>
</g>
<!-- Node10 -->
<g id="node10" class="node">
<title>Node10</title>
<g id="a_node10"><a xlink:href="structft_1_1serv_1_1socket__utils.html#a818575bfd7756e64e4226b85a7492bc7" target="_top" xlink:title=" ">
<polygon fill="white" stroke="black" points="140,-68.5 140,-98.5 253,-98.5 253,-68.5 140,-68.5"/>
<text text-anchor="start" x="148" y="-86.5" font-family="Helvetica,sans-Serif" font-size="10.00">ft::serv::socket_utils</text>
<text text-anchor="middle" x="196.5" y="-75.5" font-family="Helvetica,sans-Serif" font-size="10.00">::set_nonblocking</text>
</a>
</g>
</g>
<!-- Node1&#45;&gt;Node10 -->
<g id="edge9" class="edge">
<title>Node1&#45;&gt;Node10</title>
<path fill="none" stroke="midnightblue" d="M77.61,-141.33C94.53,-131.53 117.31,-118.74 138,-108.5 141.84,-106.6 145.86,-104.69 149.91,-102.82"/>
<polygon fill="midnightblue" stroke="midnightblue" points="151.69,-105.86 159.36,-98.56 148.81,-99.48 151.69,-105.86"/>
</g>
<!-- Node11 -->
<g id="node11" class="node">
<title>Node11</title>
<g id="a_node11"><a xlink:href="structft_1_1serv_1_1logger.html#af77e51bd1d1172d9ebff34eb9fe1db6a" target="_top" xlink:title=" ">
<polygon fill="white" stroke="black" points="138,-30 138,-49 255,-49 255,-30 138,-30"/>
<text text-anchor="middle" x="196.5" y="-37" font-family="Helvetica,sans-Serif" font-size="10.00">ft::serv::logger::trace</text>
</a>
</g>
</g>
<!-- Node1&#45;&gt;Node11 -->
<g id="edge10" class="edge">
<title>Node1&#45;&gt;Node11</title>
<path fill="none" stroke="midnightblue" d="M61.82,-141.18C76.14,-119.98 104.71,-81.79 138,-59.5 141.56,-57.12 145.43,-54.99 149.42,-53.09"/>
<polygon fill="midnightblue" stroke="midnightblue" points="151.05,-56.21 158.89,-49.08 148.31,-49.76 151.05,-56.21"/>
</g>
<!-- Node5 -->
<g id="node5" class="node">
<title>Node5</title>
<g id="a_node5"><a xlink:href="structft_1_1serv_1_1socket__utils.html#af1553b9c3e9cdc5e38f7ecf6c10fb3c1" target="_top" xlink:title=" ">
<polygon fill="white" stroke="black" points="291,-215.5 291,-245.5 404,-245.5 404,-215.5 291,-215.5"/>
<text text-anchor="start" x="299" y="-233.5" font-family="Helvetica,sans-Serif" font-size="10.00">ft::serv::socket_utils</text>
<text text-anchor="middle" x="347.5" y="-222.5" font-family="Helvetica,sans-Serif" font-size="10.00">::forward_lookup</text>
</a>
</g>
</g>
<!-- Node4&#45;&gt;Node5 -->
<g id="edge4" class="edge">
<title>Node4&#45;&gt;Node5</title>
<path fill="none" stroke="midnightblue" d="M243.42,-196.6C258.5,-201.56 275.43,-207.13 291.14,-212.29"/>
<polygon fill="midnightblue" stroke="midnightblue" points="290.14,-215.65 300.73,-215.45 292.32,-209 290.14,-215.65"/>
</g>
<!-- Node7 -->
<g id="node7" class="node">
<title>Node7</title>
<g id="a_node7"><a xlink:href="structft_1_1serv_1_1socket__utils.html#aae3d021284dea2fa5ae81820b522cfe4" target="_top" xlink:title=" ">
<polygon fill="white" stroke="black" points="291,-166.5 291,-196.5 404,-196.5 404,-166.5 291,-166.5"/>
<text text-anchor="start" x="299" y="-184.5" font-family="Helvetica,sans-Serif" font-size="10.00">ft::serv::socket_utils</text>
<text text-anchor="middle" x="347.5" y="-173.5" font-family="Helvetica,sans-Serif" font-size="10.00">::nosigpipe_connect</text>
</a>
</g>
</g>
<!-- Node4&#45;&gt;Node7 -->
<g id="edge6" class="edge">
<title>Node4&#45;&gt;Node7</title>
<path fill="none" stroke="midnightblue" d="M253.41,-181.5C262.29,-181.5 271.54,-181.5 280.62,-181.5"/>
<polygon fill="midnightblue" stroke="midnightblue" points="280.78,-185 290.78,-181.5 280.78,-178 280.78,-185"/>
</g>
<!-- Node6 -->
<g id="node6" class="node">
<title>Node6</title>
<g id="a_node6"><a xlink:href="classft_1_1serv_1_1__internal_1_1ai__failed.html#ad3aa900794508d370ef6e1b3c104a39e" target="_top" xlink:title=" ">
<polygon fill="white" stroke="black" points="463,-215.5 463,-245.5 561,-245.5 561,-215.5 463,-215.5"/>
<text text-anchor="start" x="471" y="-233.5" font-family="Helvetica,sans-Serif" font-size="10.00">ft::serv::_internal</text>
<text text-anchor="middle" x="512" y="-222.5" font-family="Helvetica,sans-Serif" font-size="10.00">::ai_failed::error</text>
</a>
</g>
</g>
<!-- Node5&#45;&gt;Node6 -->
<g id="edge5" class="edge">
<title>Node5&#45;&gt;Node6</title>
<path fill="none" stroke="midnightblue" d="M404.42,-230.5C420.01,-230.5 436.98,-230.5 452.71,-230.5"/>
<polygon fill="midnightblue" stroke="midnightblue" points="452.83,-234 462.83,-230.5 452.83,-227 452.83,-234"/>
</g>
<!-- Node9 -->
<g id="node9" class="node">
<title>Node9</title>
<g id="a_node9"><a xlink:href="structft_1_1serv_1_1socket__utils.html#aef0594e2d9bdc8b8e15bcab89950e093" target="_top" xlink:title=" ">
<polygon fill="white" stroke="black" points="291,-117.5 291,-147.5 404,-147.5 404,-117.5 291,-117.5"/>
<text text-anchor="start" x="299" y="-135.5" font-family="Helvetica,sans-Serif" font-size="10.00">ft::serv::socket_utils</text>
<text text-anchor="middle" x="347.5" y="-124.5" font-family="Helvetica,sans-Serif" font-size="10.00">::reverse_lookup</text>
</a>
</g>
</g>
<!-- Node8&#45;&gt;Node9 -->
<g id="edge8" class="edge">
<title>Node8&#45;&gt;Node9</title>
<path fill="none" stroke="midnightblue" d="M253.41,-132.5C262.29,-132.5 271.54,-132.5 280.62,-132.5"/>
<polygon fill="midnightblue" stroke="midnightblue" points="280.78,-136 290.78,-132.5 280.78,-129 280.78,-136"/>
</g>
<!-- Node12 -->
<g id="node12" class="node">
<title>Node12</title>
<g id="a_node12"><a xlink:href="namespaceft_1_1serv_1_1__internal.html#a4dfb80be7b817fc0ee18658f313a6274" target="_top" xlink:title=" ">
<polygon fill="white" stroke="black" points="298.5,-24.5 298.5,-54.5 396.5,-54.5 396.5,-24.5 298.5,-24.5"/>
<text text-anchor="start" x="306.5" y="-42.5" font-family="Helvetica,sans-Serif" font-size="10.00">ft::serv::_internal</text>
<text text-anchor="middle" x="347.5" y="-31.5" font-family="Helvetica,sans-Serif" font-size="10.00">::print</text>
</a>
</g>
</g>
<!-- Node11&#45;&gt;Node12 -->
<g id="edge11" class="edge">
<title>Node11&#45;&gt;Node12</title>
<path fill="none" stroke="midnightblue" d="M255.11,-39.5C265.91,-39.5 277.2,-39.5 288.03,-39.5"/>
<polygon fill="midnightblue" stroke="midnightblue" points="288.23,-43 298.23,-39.5 288.23,-36 288.23,-43"/>
</g>
<!-- Node13 -->
<g id="node13" class="node">
<title>Node13</title>
<g id="a_node13"><a xlink:href="namespaceft_1_1serv_1_1__internal.html#aff49349b58dc84fa69076e9cd27a1db4" target="_top" xlink:title=" ">
<polygon fill="white" stroke="black" points="440,-49.5 440,-79.5 584,-79.5 584,-49.5 440,-49.5"/>
<text text-anchor="start" x="448" y="-67.5" font-family="Helvetica,sans-Serif" font-size="10.00">ft::serv::_internal</text>
<text text-anchor="middle" x="512" y="-56.5" font-family="Helvetica,sans-Serif" font-size="10.00">::make_format_string_line</text>
</a>
</g>
</g>
<!-- Node12&#45;&gt;Node13 -->
<g id="edge12" class="edge">
<title>Node12&#45;&gt;Node13</title>
<path fill="none" stroke="midnightblue" d="M396.82,-46.93C407.24,-48.54 418.52,-50.27 429.81,-52.01"/>
<polygon fill="midnightblue" stroke="midnightblue" points="429.29,-55.47 439.71,-53.53 430.36,-48.55 429.29,-55.47"/>
</g>
<!-- Node14 -->
<g id="node14" class="node">
<title>Node14</title>
<g id="a_node14"><a xlink:href="namespaceft_1_1serv_1_1__internal.html#aad4af39d62c2b1687b0bef7a91bf6c60" target="_top" xlink:title=" ">
<polygon fill="white" stroke="black" points="460.5,-0.5 460.5,-30.5 563.5,-30.5 563.5,-0.5 460.5,-0.5"/>
<text text-anchor="start" x="468.5" y="-18.5" font-family="Helvetica,sans-Serif" font-size="10.00">ft::serv::_internal</text>
<text text-anchor="middle" x="512" y="-7.5" font-family="Helvetica,sans-Serif" font-size="10.00">::make_utc_string</text>
</a>
</g>
</g>
<!-- Node12&#45;&gt;Node14 -->
<g id="edge13" class="edge">
<title>Node12&#45;&gt;Node14</title>
<path fill="none" stroke="midnightblue" d="M396.82,-32.36C413.55,-29.89 432.53,-27.09 450.15,-24.49"/>
<polygon fill="midnightblue" stroke="midnightblue" points="450.95,-27.91 460.33,-22.98 449.93,-20.98 450.95,-27.91"/>
</g>
</g>
</svg>
