<?xml version="1.0" encoding="UTF-8" standalone="no"?>
<!DOCTYPE svg PUBLIC "-//W3C//DTD SVG 1.1//EN"
 "http://www.w3.org/Graphics/SVG/1.1/DTD/svg11.dtd">
<!-- Generated by graphviz version 2.43.0 (0)
 -->
<!-- Title: ft::irc::processor_list::execute Pages: 1 -->
<svg width="947pt" height="392pt"
 viewBox="0.00 0.00 947.00 391.50" xmlns="http://www.w3.org/2000/svg" xmlns:xlink="http://www.w3.org/1999/xlink">
<g id="graph0" class="graph" transform="scale(1 1) rotate(0) translate(4 387.5)">
<title>ft::irc::processor_list::execute</title>
<polygon fill="white" stroke="transparent" points="-4,4 -4,-387.5 943,-387.5 943,4 -4,4"/>
<!-- Node1 -->
<g id="node1" class="node">
<title>Node1</title>
<g id="a_node1"><a xlink:title=" ">
<polygon fill="#bfbfbf" stroke="black" points="0,-213.5 0,-243.5 95,-243.5 95,-213.5 0,-213.5"/>
<text text-anchor="start" x="8" y="-231.5" font-family="Helvetica,sans-Serif" font-size="10.00">ft::irc::processor</text>
<text text-anchor="middle" x="47.5" y="-220.5" font-family="Helvetica,sans-Serif" font-size="10.00">_list::execute</text>
</a>
</g>
</g>
<!-- Node2 -->
<g id="node2" class="node">
<title>Node2</title>
<g id="a_node2"><a xlink:href="classft_1_1irc_1_1user.html#ae476cc31795df7fbb726b193ab887e75" target="_top" xlink:title=" ">
<polygon fill="white" stroke="black" points="163,-276.5 163,-306.5 253,-306.5 253,-276.5 163,-276.5"/>
<text text-anchor="start" x="171" y="-294.5" font-family="Helvetica,sans-Serif" font-size="10.00">ft::irc::user::get</text>
<text text-anchor="middle" x="208" y="-283.5" font-family="Helvetica,sans-Serif" font-size="10.00">_server</text>
</a>
</g>
</g>
<!-- Node1&#45;&gt;Node2 -->
<g id="edge1" class="edge">
<title>Node1&#45;&gt;Node2</title>
<path fill="none" stroke="midnightblue" d="M79.09,-243.6C94.48,-250.94 113.54,-259.63 131,-266.5 138.18,-269.32 145.82,-272.1 153.39,-274.71"/>
<polygon fill="midnightblue" stroke="midnightblue" points="152.3,-278.04 162.89,-277.93 154.54,-271.41 152.3,-278.04"/>
</g>
<!-- Node3 -->
<g id="node3" class="node">
<title>Node3</title>
<g id="a_node3"><a xlink:href="classft_1_1irc_1_1message.html#a34f457ead0453ad914af2cb0482a40b9" target="_top" xlink:title=" ">
<polygon fill="white" stroke="black" points="131,-238 131,-257 285,-257 285,-238 131,-238"/>
<text text-anchor="middle" x="208" y="-245" font-family="Helvetica,sans-Serif" font-size="10.00">ft::irc::message::param_size</text>
</a>
</g>
</g>
<!-- Node1&#45;&gt;Node3 -->
<g id="edge2" class="edge">
<title>Node1&#45;&gt;Node3</title>
<path fill="none" stroke="midnightblue" d="M95.2,-234.1C103.36,-235.08 112.08,-236.12 120.91,-237.18"/>
<polygon fill="midnightblue" stroke="midnightblue" points="120.56,-240.66 130.91,-238.38 121.39,-233.71 120.56,-240.66"/>
</g>
<!-- Node4 -->
<g id="node4" class="node">
<title>Node4</title>
<g id="a_node4"><a xlink:href="classft_1_1irc_1_1server.html#a3f4e06d5a9cf57441582f77b95f87135" target="_top" xlink:title=" ">
<polygon fill="white" stroke="black" points="144,-200 144,-219 272,-219 272,-200 144,-200"/>
<text text-anchor="middle" x="208" y="-207" font-family="Helvetica,sans-Serif" font-size="10.00">ft::irc::server::send_list</text>
</a>
</g>
</g>
<!-- Node1&#45;&gt;Node4 -->
<g id="edge3" class="edge">
<title>Node1&#45;&gt;Node4</title>
<path fill="none" stroke="midnightblue" d="M95.2,-222.9C107.35,-221.45 120.74,-219.84 133.9,-218.26"/>
<polygon fill="midnightblue" stroke="midnightblue" points="134.38,-221.73 143.89,-217.06 133.55,-214.78 134.38,-221.73"/>
</g>
<!-- Node19 -->
<g id="node19" class="node">
<title>Node19</title>
<g id="a_node19"><a xlink:href="classft_1_1irc_1_1message.html#adf434fdc28e74fb166c6046c0ac5c6d5" target="_top" xlink:title=" ">
<polygon fill="white" stroke="black" points="148.5,-162 148.5,-181 267.5,-181 267.5,-162 148.5,-162"/>
<text text-anchor="middle" x="208" y="-169" font-family="Helvetica,sans-Serif" font-size="10.00">ft::irc::message::split</text>
</a>
</g>
</g>
<!-- Node1&#45;&gt;Node19 -->
<g id="edge18" class="edge">
<title>Node1&#45;&gt;Node19</title>
<path fill="none" stroke="midnightblue" d="M77.73,-213.41C93.26,-205.81 112.85,-196.89 131,-190.5 138.05,-188.02 145.57,-185.73 153.04,-183.66"/>
<polygon fill="midnightblue" stroke="midnightblue" points="154.01,-187.02 162.78,-181.07 152.22,-180.26 154.01,-187.02"/>
</g>
<!-- Node5 -->
<g id="node5" class="node">
<title>Node5</title>
<g id="a_node5"><a xlink:href="classft_1_1irc_1_1channel.html#a5bbaa158b69ee9de49c3402cb76c7e09" target="_top" xlink:title=" ">
<polygon fill="white" stroke="black" points="324,-364 324,-383 464,-383 464,-364 324,-364"/>
<text text-anchor="middle" x="394" y="-371" font-family="Helvetica,sans-Serif" font-size="10.00">ft::irc::channel::get_name</text>
</a>
</g>
</g>
<!-- Node4&#45;&gt;Node5 -->
<g id="edge4" class="edge">
<title>Node4&#45;&gt;Node5</title>
<path fill="none" stroke="midnightblue" d="M271.66,-219.18C276.55,-221.65 281.09,-224.72 285,-228.5 326.86,-268.99 279.4,-313.74 321,-354.5 322.45,-355.93 324,-357.25 325.63,-358.47"/>
<polygon fill="midnightblue" stroke="midnightblue" points="323.96,-361.56 334.31,-363.83 327.64,-355.6 323.96,-361.56"/>
</g>
<!-- Node6 -->
<g id="node6" class="node">
<title>Node6</title>
<g id="a_node6"><a xlink:href="classft_1_1irc_1_1user.html#a43fb91fff5e13afd67f9e642137eca40" target="_top" xlink:title=" ">
<polygon fill="white" stroke="black" points="331,-314.5 331,-344.5 457,-344.5 457,-314.5 331,-314.5"/>
<text text-anchor="start" x="339" y="-332.5" font-family="Helvetica,sans-Serif" font-size="10.00">ft::irc::user::is_channel</text>
<text text-anchor="middle" x="394" y="-321.5" font-family="Helvetica,sans-Serif" font-size="10.00">_member</text>
</a>
</g>
</g>
<!-- Node4&#45;&gt;Node6 -->
<g id="edge5" class="edge">
<title>Node4&#45;&gt;Node6</title>
<path fill="none" stroke="midnightblue" d="M269.15,-219.01C274.87,-221.5 280.28,-224.61 285,-228.5 314.15,-252.52 292.79,-280.37 321,-305.5 322.32,-306.67 323.7,-307.79 325.13,-308.86"/>
<polygon fill="midnightblue" stroke="midnightblue" points="323.46,-311.95 333.78,-314.37 327.22,-306.04 323.46,-311.95"/>
</g>
<!-- Node7 -->
<g id="node7" class="node">
<title>Node7</title>
<g id="a_node7"><a xlink:href="structft_1_1irc_1_1make__reply.html#aea322ae93b5998963dca3923cb91d19d" target="_top" xlink:title=" ">
<polygon fill="white" stroke="black" points="342,-265.5 342,-295.5 446,-295.5 446,-265.5 342,-265.5"/>
<text text-anchor="start" x="350" y="-283.5" font-family="Helvetica,sans-Serif" font-size="10.00">ft::irc::make_reply</text>
<text text-anchor="middle" x="394" y="-272.5" font-family="Helvetica,sans-Serif" font-size="10.00">::list_end</text>
</a>
</g>
</g>
<!-- Node4&#45;&gt;Node7 -->
<g id="edge6" class="edge">
<title>Node4&#45;&gt;Node7</title>
<path fill="none" stroke="midnightblue" d="M259.92,-219.1C268.51,-221.6 277.17,-224.69 285,-228.5 303.23,-237.37 303.13,-246.94 321,-256.5 324.66,-258.46 328.51,-260.3 332.44,-262.02"/>
<polygon fill="midnightblue" stroke="midnightblue" points="331.16,-265.27 341.74,-265.82 333.81,-258.8 331.16,-265.27"/>
</g>
<!-- Node8 -->
<g id="node8" class="node">
<title>Node8</title>
<g id="a_node8"><a xlink:href="structft_1_1irc_1_1make__reply.html#a63b855359274d17192e7dc8ca199a438" target="_top" xlink:title=" ">
<polygon fill="white" stroke="black" points="342,-216.5 342,-246.5 446,-246.5 446,-216.5 342,-216.5"/>
<text text-anchor="start" x="350" y="-234.5" font-family="Helvetica,sans-Serif" font-size="10.00">ft::irc::make_reply</text>
<text text-anchor="middle" x="394" y="-223.5" font-family="Helvetica,sans-Serif" font-size="10.00">::list_start</text>
</a>
</g>
</g>
<!-- Node4&#45;&gt;Node8 -->
<g id="edge7" class="edge">
<title>Node4&#45;&gt;Node8</title>
<path fill="none" stroke="midnightblue" d="M272.06,-217.04C291.38,-219.35 312.58,-221.88 331.77,-224.18"/>
<polygon fill="midnightblue" stroke="midnightblue" points="331.55,-227.68 341.9,-225.39 332.38,-220.73 331.55,-227.68"/>
</g>
<!-- Node9 -->
<g id="node9" class="node">
<title>Node9</title>
<g id="a_node9"><a xlink:href="classft_1_1irc_1_1channel.html#a01d060ed582406cbe40ec0889408d5b2" target="_top" xlink:title=" ">
<polygon fill="white" stroke="black" points="321,-178 321,-197 467,-197 467,-178 321,-178"/>
<text text-anchor="middle" x="394" y="-185" font-family="Helvetica,sans-Serif" font-size="10.00">ft::irc::channel::load_mode</text>
</a>
</g>
</g>
<!-- Node4&#45;&gt;Node9 -->
<g id="edge8" class="edge">
<title>Node4&#45;&gt;Node9</title>
<path fill="none" stroke="midnightblue" d="M272.06,-201.96C284.46,-200.48 297.64,-198.9 310.56,-197.36"/>
<polygon fill="midnightblue" stroke="midnightblue" points="311.33,-200.79 320.85,-196.13 310.5,-193.84 311.33,-200.79"/>
</g>
<!-- Node10 -->
<g id="node10" class="node">
<title>Node10</title>
<g id="a_node10"><a xlink:href="classft_1_1irc_1_1user.html#a3cfeaf12c0bdb6ac02debf5e19ce50d2" target="_top" xlink:title=" ">
<polygon fill="white" stroke="black" points="330,-140 330,-159 458,-159 458,-140 330,-140"/>
<text text-anchor="middle" x="394" y="-147" font-family="Helvetica,sans-Serif" font-size="10.00">ft::irc::user::load_mode</text>
</a>
</g>
</g>
<!-- Node4&#45;&gt;Node10 -->
<g id="edge9" class="edge">
<title>Node4&#45;&gt;Node10</title>
<path fill="none" stroke="midnightblue" d="M256.75,-199.92C266.28,-197.35 276.09,-194.23 285,-190.5 302.29,-183.25 303.75,-175.86 321,-168.5 326.7,-166.07 332.78,-163.88 338.91,-161.94"/>
<polygon fill="midnightblue" stroke="midnightblue" points="339.95,-165.28 348.53,-159.07 337.95,-158.57 339.95,-165.28"/>
</g>
<!-- Node11 -->
<g id="node11" class="node">
<title>Node11</title>
<g id="a_node11"><a xlink:href="classft_1_1irc_1_1channel.html#a36cc8e5ae9be4cb22ae4a31779c62282" target="_top" xlink:title=" ">
<polygon fill="white" stroke="black" points="334.5,-90.5 334.5,-120.5 453.5,-120.5 453.5,-90.5 334.5,-90.5"/>
<text text-anchor="start" x="342.5" y="-108.5" font-family="Helvetica,sans-Serif" font-size="10.00">ft::irc::channel::make</text>
<text text-anchor="middle" x="394" y="-97.5" font-family="Helvetica,sans-Serif" font-size="10.00">_list_packet</text>
</a>
</g>
</g>
<!-- Node4&#45;&gt;Node11 -->
<g id="edge10" class="edge">
<title>Node4&#45;&gt;Node11</title>
<path fill="none" stroke="midnightblue" d="M267.6,-199.95C273.8,-197.48 279.75,-194.39 285,-190.5 309.99,-171.99 296.86,-150.11 321,-130.5 323.07,-128.82 325.25,-127.25 327.53,-125.78"/>
<polygon fill="midnightblue" stroke="midnightblue" points="329.69,-128.58 336.68,-120.62 326.25,-122.49 329.69,-128.58"/>
</g>
<!-- Node13 -->
<g id="node13" class="node">
<title>Node13</title>
<g id="a_node13"><a xlink:href="classft_1_1irc_1_1user.html#a1db558d6d694ca943224c2440fe36c50" target="_top" xlink:title=" ">
<polygon fill="white" stroke="black" points="345,-41.5 345,-71.5 443,-71.5 443,-41.5 345,-41.5"/>
<text text-anchor="start" x="353" y="-59.5" font-family="Helvetica,sans-Serif" font-size="10.00">ft::irc::user::send</text>
<text text-anchor="middle" x="394" y="-48.5" font-family="Helvetica,sans-Serif" font-size="10.00">_message</text>
</a>
</g>
</g>
<!-- Node4&#45;&gt;Node13 -->
<g id="edge12" class="edge">
<title>Node4&#45;&gt;Node13</title>
<path fill="none" stroke="midnightblue" d="M271.13,-199.83C276.19,-197.36 280.91,-194.29 285,-190.5 322.39,-155.78 285.2,-117.85 321,-81.5 325.22,-77.21 330.22,-73.66 335.58,-70.71"/>
<polygon fill="midnightblue" stroke="midnightblue" points="337.33,-73.76 344.87,-66.31 334.34,-67.43 337.33,-73.76"/>
</g>
<!-- Node12 -->
<g id="node12" class="node">
<title>Node12</title>
<g id="a_node12"><a xlink:href="structft_1_1irc_1_1make__reply.html#a049c4169cd8f3b5e8d855183c8106001" target="_top" xlink:title=" ">
<polygon fill="white" stroke="black" points="512,-90.5 512,-120.5 616,-120.5 616,-90.5 512,-90.5"/>
<text text-anchor="start" x="520" y="-108.5" font-family="Helvetica,sans-Serif" font-size="10.00">ft::irc::make_reply</text>
<text text-anchor="middle" x="564" y="-97.5" font-family="Helvetica,sans-Serif" font-size="10.00">::list</text>
</a>
</g>
</g>
<!-- Node11&#45;&gt;Node12 -->
<g id="edge11" class="edge">
<title>Node11&#45;&gt;Node12</title>
<path fill="none" stroke="midnightblue" d="M453.76,-105.5C469.28,-105.5 486.07,-105.5 501.73,-105.5"/>
<polygon fill="midnightblue" stroke="midnightblue" points="501.82,-109 511.82,-105.5 501.82,-102 501.82,-109"/>
</g>
<!-- Node14 -->
<g id="node14" class="node">
<title>Node14</title>
<g id="a_node14"><a xlink:href="structft_1_1serv_1_1logger.html#a83649a4f3bb804c8fed6dfd130de5ee6" target="_top" xlink:title=" ">
<polygon fill="white" stroke="black" points="503,-50 503,-69 625,-69 625,-50 503,-50"/>
<text text-anchor="middle" x="564" y="-57" font-family="Helvetica,sans-Serif" font-size="10.00">ft::serv::logger::debug</text>
</a>
</g>
</g>
<!-- Node13&#45;&gt;Node14 -->
<g id="edge13" class="edge">
<title>Node13&#45;&gt;Node14</title>
<path fill="none" stroke="midnightblue" d="M443.14,-57.36C458.56,-57.63 475.96,-57.95 492.62,-58.24"/>
<polygon fill="midnightblue" stroke="midnightblue" points="492.82,-61.75 502.88,-58.43 492.95,-54.75 492.82,-61.75"/>
</g>
<!-- Node18 -->
<g id="node18" class="node">
<title>Node18</title>
<g id="a_node18"><a xlink:href="classft_1_1irc_1_1message.html#a076fdbb740cb752dd153e207f076183a" target="_top" xlink:title=" ">
<polygon fill="white" stroke="black" points="510.5,-0.5 510.5,-30.5 617.5,-30.5 617.5,-0.5 510.5,-0.5"/>
<text text-anchor="start" x="518.5" y="-18.5" font-family="Helvetica,sans-Serif" font-size="10.00">ft::irc::message::to</text>
<text text-anchor="middle" x="564" y="-7.5" font-family="Helvetica,sans-Serif" font-size="10.00">_pretty_string</text>
</a>
</g>
</g>
<!-- Node13&#45;&gt;Node18 -->
<g id="edge17" class="edge">
<title>Node13&#45;&gt;Node18</title>
<path fill="none" stroke="midnightblue" d="M443.14,-44.75C461.06,-40.38 481.66,-35.35 500.66,-30.71"/>
<polygon fill="midnightblue" stroke="midnightblue" points="501.55,-34.1 510.44,-28.33 499.89,-27.3 501.55,-34.1"/>
</g>
<!-- Node15 -->
<g id="node15" class="node">
<title>Node15</title>
<g id="a_node15"><a xlink:href="namespaceft_1_1serv_1_1__internal.html#a4dfb80be7b817fc0ee18658f313a6274" target="_top" xlink:title=" ">
<polygon fill="white" stroke="black" points="661,-44.5 661,-74.5 759,-74.5 759,-44.5 661,-44.5"/>
<text text-anchor="start" x="669" y="-62.5" font-family="Helvetica,sans-Serif" font-size="10.00">ft::serv::_internal</text>
<text text-anchor="middle" x="710" y="-51.5" font-family="Helvetica,sans-Serif" font-size="10.00">::print</text>
</a>
</g>
</g>
<!-- Node14&#45;&gt;Node15 -->
<g id="edge14" class="edge">
<title>Node14&#45;&gt;Node15</title>
<path fill="none" stroke="midnightblue" d="M625.23,-59.5C633.67,-59.5 642.33,-59.5 650.73,-59.5"/>
<polygon fill="midnightblue" stroke="midnightblue" points="650.82,-63 660.82,-59.5 650.82,-56 650.82,-63"/>
</g>
<!-- Node16 -->
<g id="node16" class="node">
<title>Node16</title>
<g id="a_node16"><a xlink:href="namespaceft_1_1serv_1_1__internal.html#aff49349b58dc84fa69076e9cd27a1db4" target="_top" xlink:title=" ">
<polygon fill="white" stroke="black" points="795,-69.5 795,-99.5 939,-99.5 939,-69.5 795,-69.5"/>
<text text-anchor="start" x="803" y="-87.5" font-family="Helvetica,sans-Serif" font-size="10.00">ft::serv::_internal</text>
<text text-anchor="middle" x="867" y="-76.5" font-family="Helvetica,sans-Serif" font-size="10.00">::make_format_string_line</text>
</a>
</g>
</g>
<!-- Node15&#45;&gt;Node16 -->
<g id="edge15" class="edge">
<title>Node15&#45;&gt;Node16</title>
<path fill="none" stroke="midnightblue" d="M759.19,-67.27C767.39,-68.6 776.11,-70 784.88,-71.42"/>
<polygon fill="midnightblue" stroke="midnightblue" points="784.36,-74.88 794.79,-73.01 785.48,-67.97 784.36,-74.88"/>
</g>
<!-- Node17 -->
<g id="node17" class="node">
<title>Node17</title>
<g id="a_node17"><a xlink:href="namespaceft_1_1serv_1_1__internal.html#aad4af39d62c2b1687b0bef7a91bf6c60" target="_top" xlink:title=" ">
<polygon fill="white" stroke="black" points="815.5,-20.5 815.5,-50.5 918.5,-50.5 918.5,-20.5 815.5,-20.5"/>
<text text-anchor="start" x="823.5" y="-38.5" font-family="Helvetica,sans-Serif" font-size="10.00">ft::serv::_internal</text>
<text text-anchor="middle" x="867" y="-27.5" font-family="Helvetica,sans-Serif" font-size="10.00">::make_utc_string</text>
</a>
</g>
</g>
<!-- Node15&#45;&gt;Node17 -->
<g id="edge16" class="edge">
<title>Node15&#45;&gt;Node17</title>
<path fill="none" stroke="midnightblue" d="M759.19,-52.04C773.85,-49.77 790.14,-47.25 805.49,-44.87"/>
<polygon fill="midnightblue" stroke="midnightblue" points="806.08,-48.32 815.42,-43.33 805.01,-41.4 806.08,-48.32"/>
</g>
</g>
</svg>
