<?xml version="1.0" encoding="UTF-8" standalone="no"?>
<!DOCTYPE svg PUBLIC "-//W3C//DTD SVG 1.1//EN"
 "http://www.w3.org/Graphics/SVG/1.1/DTD/svg11.dtd">
<!-- Generated by graphviz version 2.43.0 (0)
 -->
<!-- Title: ft::irc::bot_handler::on_read Pages: 1 -->
<!--zoomable 772 -->
<svg id="main" version="1.1" xmlns="http://www.w3.org/2000/svg" xmlns:xlink="http://www.w3.org/1999/xlink" xml:space="preserve" onload="init(evt)">
<style type="text/css"><![CDATA[
.edge:hover path { stroke: red; }
.edge:hover polygon { stroke: red; fill: red; }
]]></style>
<script type="text/javascript"><![CDATA[
var edges = document.getElementsByTagName('g');
if (edges && edges.length) {
  for (var i=0;i<edges.length;i++) {
    if (edges[i].id.substr(0,4)=='edge') {
      edges[i].setAttribute('class','edge');
    }
  }
}
]]></script>
        <defs>
                <circle id="rim" cx="0" cy="0" r="7"/>
                <circle id="rim2" cx="0" cy="0" r="3.5"/>
                <g id="zoomPlus">
                        <use xlink:href="#rim" fill="#404040">
                                <set attributeName="fill" to="#808080" begin="zoomplus.mouseover" end="zoomplus.mouseout"/>
                        </use>
                        <path d="M-4,0h8M0,-4v8" fill="none" stroke="white" stroke-width="1.5" pointer-events="none"/>
                </g>
                <g id="zoomMin">
                        <use xlink:href="#rim" fill="#404040">
                                <set attributeName="fill" to="#808080" begin="zoomminus.mouseover" end="zoomminus.mouseout"/>
                        </use>
                        <path d="M-4,0h8" fill="none" stroke="white" stroke-width="1.5" pointer-events="none"/>
                </g>
                <g id="dirArrow">
                        <path fill="none" stroke="white" stroke-width="1.5" d="M0,-3.0v7 M-2.5,-0.5L0,-3.0L2.5,-0.5"/>
                </g>
               <g id="resetDef">
                       <use xlink:href="#rim2" fill="#404040">
                               <set attributeName="fill" to="#808080" begin="reset.mouseover" end="reset.mouseout"/>
                       </use>
               </g>
        </defs>

<script type="text/javascript">
var viewWidth = 612;
var viewHeight = 772;
var sectionId = 'dynsection-5';
</script>
<script xlink:href="svgpan.js"/>
<svg id="graph" class="graph">
<g id="viewport">
<title>ft::irc::bot_handler::on_read</title>
<polygon fill="white" stroke="transparent" points="-4,4 -4,-767.5 608,-767.5 608,4 -4,4"/>
<!-- Node1 -->
<g id="node1" class="node">
<title>Node1</title>
<g id="a_node1"><a xlink:title=" ">
<polygon fill="#bfbfbf" stroke="black" points="0,-387.5 0,-417.5 105,-417.5 105,-387.5 0,-387.5"/>
<text text-anchor="start" x="8" y="-405.5" font-family="Helvetica,sans-Serif" font-size="10.00">ft::irc::bot_handler</text>
<text text-anchor="middle" x="52.5" y="-394.5" font-family="Helvetica,sans-Serif" font-size="10.00">::on_read</text>
</a>
</g>
</g>
<!-- Node2 -->
<g id="node2" class="node">
<title>Node2</title>
<g id="a_node2"><a xlink:href="classft_1_1irc_1_1bot.html#ab9626c6fee28a7fa7cb968c76362834c" target="_top" xlink:title=" ">
<polygon fill="white" stroke="black" points="153.5,-744 153.5,-763 277.5,-763 277.5,-744 153.5,-744"/>
<text text-anchor="middle" x="215.5" y="-751" font-family="Helvetica,sans-Serif" font-size="10.00">ft::irc::bot::add_inviter</text>
</a>
</g>
</g>
<!-- Node1&#45;&gt;Node2 -->
<g id="edge1" class="edge">
<title>Node1&#45;&gt;Node2</title>
<path fill="none" stroke="midnightblue" d="M55.45,-417.61C63.31,-476.3 94.53,-688.25 141,-734.5 142.44,-735.93 143.97,-737.26 145.57,-738.49"/>
<polygon fill="midnightblue" stroke="midnightblue" points="143.83,-741.52 154.16,-743.87 147.54,-735.59 143.83,-741.52"/>
</g>
<!-- Node3 -->
<g id="node3" class="node">
<title>Node3</title>
<g id="a_node3"><a xlink:href="classft_1_1irc_1_1bot.html#adf4606e06fe57fead9970ce51853ba0a" target="_top" xlink:title=" ">
<polygon fill="white" stroke="black" points="166.5,-694.5 166.5,-724.5 264.5,-724.5 264.5,-694.5 166.5,-694.5"/>
<text text-anchor="start" x="174.5" y="-712.5" font-family="Helvetica,sans-Serif" font-size="10.00">ft::irc::bot::check</text>
<text text-anchor="middle" x="215.5" y="-701.5" font-family="Helvetica,sans-Serif" font-size="10.00">_is_inviter</text>
</a>
</g>
</g>
<!-- Node1&#45;&gt;Node3 -->
<g id="edge2" class="edge">
<title>Node1&#45;&gt;Node3</title>
<path fill="none" stroke="midnightblue" d="M53.65,-417.73C54.94,-464.34 65.2,-606.63 141,-684.5 145.57,-689.19 151.04,-693 156.92,-696.1"/>
<polygon fill="midnightblue" stroke="midnightblue" points="155.87,-699.46 166.42,-700.4 158.76,-693.08 155.87,-699.46"/>
</g>
<!-- Node4 -->
<g id="node4" class="node">
<title>Node4</title>
<g id="a_node4"><a xlink:href="structft_1_1serv_1_1logger.html#a83649a4f3bb804c8fed6dfd130de5ee6" target="_top" xlink:title=" ">
<polygon fill="white" stroke="black" points="154.5,-656 154.5,-675 276.5,-675 276.5,-656 154.5,-656"/>
<text text-anchor="middle" x="215.5" y="-663" font-family="Helvetica,sans-Serif" font-size="10.00">ft::serv::logger::debug</text>
</a>
</g>
</g>
<!-- Node1&#45;&gt;Node4 -->
<g id="edge3" class="edge">
<title>Node1&#45;&gt;Node4</title>
<path fill="none" stroke="midnightblue" d="M54.24,-417.74C57.17,-460.59 71.53,-583.1 141,-646.5 142.7,-648.05 144.51,-649.48 146.41,-650.8"/>
<polygon fill="midnightblue" stroke="midnightblue" points="144.8,-653.91 155.22,-655.86 148.3,-647.84 144.8,-653.91"/>
</g>
<!-- Node8 -->
<g id="node8" class="node">
<title>Node8</title>
<g id="a_node8"><a xlink:href="classft_1_1irc_1_1bot.html#aa86cf24bc5169f54781b1a89735fae3d" target="_top" xlink:title=" ">
<polygon fill="white" stroke="black" points="172,-606.5 172,-636.5 259,-636.5 259,-606.5 172,-606.5"/>
<text text-anchor="start" x="180" y="-624.5" font-family="Helvetica,sans-Serif" font-size="10.00">ft::irc::bot::find</text>
<text text-anchor="middle" x="215.5" y="-613.5" font-family="Helvetica,sans-Serif" font-size="10.00">_channels</text>
</a>
</g>
</g>
<!-- Node1&#45;&gt;Node8 -->
<g id="edge7" class="edge">
<title>Node1&#45;&gt;Node8</title>
<path fill="none" stroke="midnightblue" d="M56,-417.64C62.79,-454.03 84.99,-547.14 141,-597.5 147.1,-602.99 154.48,-607.22 162.18,-610.49"/>
<polygon fill="midnightblue" stroke="midnightblue" points="161.08,-613.81 171.67,-614.02 163.51,-607.25 161.08,-613.81"/>
</g>
<!-- Node9 -->
<g id="node9" class="node">
<title>Node9</title>
<g id="a_node9"><a xlink:href="classft_1_1irc_1_1message.html#ad323e99c45f6feec038a7de683f812a2" target="_top" xlink:title=" ">
<polygon fill="white" stroke="black" points="159,-557.5 159,-587.5 272,-587.5 272,-557.5 159,-557.5"/>
<text text-anchor="start" x="167" y="-575.5" font-family="Helvetica,sans-Serif" font-size="10.00">ft::irc::message::get</text>
<text text-anchor="middle" x="215.5" y="-564.5" font-family="Helvetica,sans-Serif" font-size="10.00">_command</text>
</a>
</g>
</g>
<!-- Node1&#45;&gt;Node9 -->
<g id="edge8" class="edge">
<title>Node1&#45;&gt;Node9</title>
<path fill="none" stroke="midnightblue" d="M58.59,-417.6C69.23,-446.9 96.57,-511.73 141,-547.5 143.76,-549.72 146.73,-551.75 149.84,-553.61"/>
<polygon fill="midnightblue" stroke="midnightblue" points="148.41,-556.81 158.89,-558.37 151.67,-550.62 148.41,-556.81"/>
</g>
<!-- Node10 -->
<g id="node10" class="node">
<title>Node10</title>
<g id="a_node10"><a xlink:href="classft_1_1irc_1_1bot.html#af00201ff653e89960e762d7b12297c13" target="_top" xlink:title=" ">
<polygon fill="white" stroke="black" points="160.5,-519 160.5,-538 270.5,-538 270.5,-519 160.5,-519"/>
<text text-anchor="middle" x="215.5" y="-526" font-family="Helvetica,sans-Serif" font-size="10.00">ft::irc::bot::get_nick</text>
</a>
</g>
</g>
<!-- Node1&#45;&gt;Node10 -->
<g id="edge9" class="edge">
<title>Node1&#45;&gt;Node10</title>
<path fill="none" stroke="midnightblue" d="M61.76,-417.87C75.19,-441.33 104.01,-485.83 141,-509.5 144.34,-511.64 147.91,-513.53 151.61,-515.22"/>
<polygon fill="midnightblue" stroke="midnightblue" points="150.43,-518.51 161.01,-518.98 153.03,-512.02 150.43,-518.51"/>
</g>
<!-- Node11 -->
<g id="node11" class="node">
<title>Node11</title>
<g id="a_node11"><a xlink:href="classft_1_1irc_1_1message.html#a254aec48aa7b7872331cd5644d9e918c" target="_top" xlink:title=" ">
<polygon fill="white" stroke="black" points="159,-469.5 159,-499.5 272,-499.5 272,-469.5 159,-469.5"/>
<text text-anchor="start" x="167" y="-487.5" font-family="Helvetica,sans-Serif" font-size="10.00">ft::irc::message::get</text>
<text text-anchor="middle" x="215.5" y="-476.5" font-family="Helvetica,sans-Serif" font-size="10.00">_prefix</text>
</a>
</g>
</g>
<!-- Node1&#45;&gt;Node11 -->
<g id="edge10" class="edge">
<title>Node1&#45;&gt;Node11</title>
<path fill="none" stroke="midnightblue" d="M73.5,-417.61C90.71,-430.08 116.54,-447.61 141,-459.5 145.58,-461.73 150.41,-463.84 155.31,-465.83"/>
<polygon fill="midnightblue" stroke="midnightblue" points="154.2,-469.15 164.79,-469.48 156.72,-462.62 154.2,-469.15"/>
</g>
<!-- Node12 -->
<g id="node12" class="node">
<title>Node12</title>
<g id="a_node12"><a xlink:href="classft_1_1irc_1_1bot.html#af82f7c44d8f68db0fe3026e42fcf3f69" target="_top" xlink:title=" ">
<polygon fill="white" stroke="black" points="141,-431 141,-450 290,-450 290,-431 141,-431"/>
<text text-anchor="middle" x="215.5" y="-438" font-family="Helvetica,sans-Serif" font-size="10.00">ft::irc::bot::get_servername</text>
</a>
</g>
</g>
<!-- Node1&#45;&gt;Node12 -->
<g id="edge11" class="edge">
<title>Node1&#45;&gt;Node12</title>
<path fill="none" stroke="midnightblue" d="M105.33,-414.73C124.18,-419.18 145.46,-424.2 164.18,-428.62"/>
<polygon fill="midnightblue" stroke="midnightblue" points="163.46,-432.05 174,-430.94 165.07,-425.24 163.46,-432.05"/>
</g>
<!-- Node13 -->
<g id="node13" class="node">
<title>Node13</title>
<g id="a_node13"><a xlink:href="classft_1_1irc_1_1bot.html#a8c884ab295df9308e688762a387fd666" target="_top" xlink:title=" ">
<polygon fill="white" stroke="black" points="146,-393 146,-412 285,-412 285,-393 146,-393"/>
<text text-anchor="middle" x="215.5" y="-400" font-family="Helvetica,sans-Serif" font-size="10.00">ft::irc::bot::get_username</text>
</a>
</g>
</g>
<!-- Node1&#45;&gt;Node13 -->
<g id="edge12" class="edge">
<title>Node1&#45;&gt;Node13</title>
<path fill="none" stroke="midnightblue" d="M105.33,-402.5C114.98,-402.5 125.26,-402.5 135.52,-402.5"/>
<polygon fill="midnightblue" stroke="midnightblue" points="135.73,-406 145.73,-402.5 135.73,-399 135.73,-406"/>
</g>
<!-- Node14 -->
<g id="node14" class="node">
<title>Node14</title>
<g id="a_node14"><a xlink:href="structft_1_1irc_1_1string__utils.html#ac1e75b32f508ffe5a1a1875d1e1cd2ea" target="_top" xlink:title=" ">
<polygon fill="white" stroke="black" points="165,-343.5 165,-373.5 266,-373.5 266,-343.5 165,-343.5"/>
<text text-anchor="start" x="173" y="-361.5" font-family="Helvetica,sans-Serif" font-size="10.00">ft::irc::string_utils</text>
<text text-anchor="middle" x="215.5" y="-350.5" font-family="Helvetica,sans-Serif" font-size="10.00">::pick_nick</text>
</a>
</g>
</g>
<!-- Node1&#45;&gt;Node14 -->
<g id="edge13" class="edge">
<title>Node1&#45;&gt;Node14</title>
<path fill="none" stroke="midnightblue" d="M105.33,-388.34C121.16,-384.01 138.7,-379.22 155,-374.76"/>
<polygon fill="midnightblue" stroke="midnightblue" points="156.24,-378.05 164.96,-372.04 154.39,-371.3 156.24,-378.05"/>
</g>
<!-- Node15 -->
<g id="node15" class="node">
<title>Node15</title>
<g id="a_node15"><a xlink:href="classft_1_1serv_1_1event__layer.html#a854a0764bd67adfc716ec4237cd52672" target="_top" xlink:title=" ">
<polygon fill="white" stroke="black" points="159,-294.5 159,-324.5 272,-324.5 272,-294.5 159,-294.5"/>
<text text-anchor="start" x="167" y="-312.5" font-family="Helvetica,sans-Serif" font-size="10.00">ft::serv::event_layer</text>
<text text-anchor="middle" x="215.5" y="-301.5" font-family="Helvetica,sans-Serif" font-size="10.00">::post_flush</text>
</a>
</g>
</g>
<!-- Node1&#45;&gt;Node15 -->
<g id="edge14" class="edge">
<title>Node1&#45;&gt;Node15</title>
<path fill="none" stroke="midnightblue" d="M69.44,-387.43C86.15,-372.3 113.73,-349.19 141,-334.5 144.98,-332.36 149.18,-330.34 153.47,-328.47"/>
<polygon fill="midnightblue" stroke="midnightblue" points="155.03,-331.61 162.96,-324.58 152.38,-325.13 155.03,-331.61"/>
</g>
<!-- Node16 -->
<g id="node16" class="node">
<title>Node16</title>
<g id="a_node16"><a xlink:href="classft_1_1serv_1_1event__layer.html#add4946138f5f8a5870d52c44ca435aab" target="_top" xlink:title=" ">
<polygon fill="white" stroke="black" points="159,-245.5 159,-275.5 272,-275.5 272,-245.5 159,-245.5"/>
<text text-anchor="start" x="167" y="-263.5" font-family="Helvetica,sans-Serif" font-size="10.00">ft::serv::event_layer</text>
<text text-anchor="middle" x="215.5" y="-252.5" font-family="Helvetica,sans-Serif" font-size="10.00">::post_write</text>
</a>
</g>
</g>
<!-- Node1&#45;&gt;Node16 -->
<g id="edge15" class="edge">
<title>Node1&#45;&gt;Node16</title>
<path fill="none" stroke="midnightblue" d="M60.99,-387.26C73.94,-362.43 102.83,-313.23 141,-285.5 143.81,-283.46 146.8,-281.57 149.91,-279.84"/>
<polygon fill="midnightblue" stroke="midnightblue" points="151.54,-282.93 158.91,-275.32 148.4,-276.68 151.54,-282.93"/>
</g>
<!-- Node17 -->
<g id="node17" class="node">
<title>Node17</title>
<g id="a_node17"><a xlink:href="classft_1_1irc_1_1bot.html#af8c852e58073043cd63ace5d56c558fe" target="_top" xlink:title=" ">
<polygon fill="white" stroke="black" points="162,-196.5 162,-226.5 269,-226.5 269,-196.5 162,-196.5"/>
<text text-anchor="start" x="170" y="-214.5" font-family="Helvetica,sans-Serif" font-size="10.00">ft::irc::bot::remove</text>
<text text-anchor="middle" x="215.5" y="-203.5" font-family="Helvetica,sans-Serif" font-size="10.00">_inviter</text>
</a>
</g>
</g>
<!-- Node1&#45;&gt;Node17 -->
<g id="edge16" class="edge">
<title>Node1&#45;&gt;Node17</title>
<path fill="none" stroke="midnightblue" d="M57.39,-387.25C66.43,-354.78 91.95,-278.39 141,-236.5 144.5,-233.51 148.37,-230.88 152.45,-228.56"/>
<polygon fill="midnightblue" stroke="midnightblue" points="154.28,-231.56 161.66,-223.95 151.15,-225.3 154.28,-231.56"/>
</g>
<!-- Node18 -->
<g id="node18" class="node">
<title>Node18</title>
<g id="a_node18"><a xlink:href="structft_1_1irc_1_1make__reply__base.html#a0286978513d0078fa15b5a0b68b326a4" target="_top" xlink:title=" ">
<polygon fill="white" stroke="black" points="148,-147.5 148,-177.5 283,-177.5 283,-147.5 148,-147.5"/>
<text text-anchor="start" x="156" y="-165.5" font-family="Helvetica,sans-Serif" font-size="10.00">ft::irc::make_reply</text>
<text text-anchor="middle" x="215.5" y="-154.5" font-family="Helvetica,sans-Serif" font-size="10.00">_base::set_server_name</text>
</a>
</g>
</g>
<!-- Node1&#45;&gt;Node18 -->
<g id="edge17" class="edge">
<title>Node1&#45;&gt;Node18</title>
<path fill="none" stroke="midnightblue" d="M55.34,-387.33C60.85,-348.46 80.75,-244.32 141,-187.5 142.67,-185.92 144.45,-184.44 146.31,-183.06"/>
<polygon fill="midnightblue" stroke="midnightblue" points="148.37,-185.89 154.92,-177.56 144.61,-179.99 148.37,-185.89"/>
</g>
<!-- Node19 -->
<g id="node19" class="node">
<title>Node19</title>
<g id="a_node19"><a xlink:href="structft_1_1irc_1_1make__reply__base.html#a488f2be061e722bd858d7285d1028eaf" target="_top" xlink:title=" ">
<polygon fill="white" stroke="black" points="153,-98.5 153,-128.5 278,-128.5 278,-98.5 153,-98.5"/>
<text text-anchor="start" x="161" y="-116.5" font-family="Helvetica,sans-Serif" font-size="10.00">ft::irc::make_reply</text>
<text text-anchor="middle" x="215.5" y="-105.5" font-family="Helvetica,sans-Serif" font-size="10.00">_base::set_user_name</text>
</a>
</g>
</g>
<!-- Node1&#45;&gt;Node19 -->
<g id="edge18" class="edge">
<title>Node1&#45;&gt;Node19</title>
<path fill="none" stroke="midnightblue" d="M54.03,-387.28C56.39,-342.64 69.41,-210.65 141,-138.5 142.42,-137.06 143.93,-135.71 145.51,-134.44"/>
<polygon fill="midnightblue" stroke="midnightblue" points="147.65,-137.22 153.93,-128.69 143.7,-131.44 147.65,-137.22"/>
</g>
<!-- Node20 -->
<g id="node20" class="node">
<title>Node20</title>
<g id="a_node20"><a xlink:href="structft_1_1irc_1_1make__reply__base.html#a05d12bbf99ce4c8fde3cbb731135ff26" target="_top" xlink:title=" ">
<polygon fill="white" stroke="black" points="156.5,-49.5 156.5,-79.5 274.5,-79.5 274.5,-49.5 156.5,-49.5"/>
<text text-anchor="start" x="164.5" y="-67.5" font-family="Helvetica,sans-Serif" font-size="10.00">ft::irc::make_reply</text>
<text text-anchor="middle" x="215.5" y="-56.5" font-family="Helvetica,sans-Serif" font-size="10.00">_base::set_user_nick</text>
</a>
</g>
</g>
<!-- Node1&#45;&gt;Node20 -->
<g id="edge19" class="edge">
<title>Node1&#45;&gt;Node20</title>
<path fill="none" stroke="midnightblue" d="M53.09,-387.42C52.6,-337.75 57.82,-177.41 141,-89.5 143.04,-87.34 145.27,-85.37 147.65,-83.57"/>
<polygon fill="midnightblue" stroke="midnightblue" points="149.69,-86.42 156.23,-78.08 145.92,-80.53 149.69,-86.42"/>
</g>
<!-- Node21 -->
<g id="node21" class="node">
<title>Node21</title>
<g id="a_node21"><a xlink:href="classft_1_1irc_1_1message.html#a076fdbb740cb752dd153e207f076183a" target="_top" xlink:title=" ">
<polygon fill="white" stroke="black" points="162,-0.5 162,-30.5 269,-30.5 269,-0.5 162,-0.5"/>
<text text-anchor="start" x="170" y="-18.5" font-family="Helvetica,sans-Serif" font-size="10.00">ft::irc::message::to</text>
<text text-anchor="middle" x="215.5" y="-7.5" font-family="Helvetica,sans-Serif" font-size="10.00">_pretty_string</text>
</a>
</g>
</g>
<!-- Node1&#45;&gt;Node21 -->
<g id="edge20" class="edge">
<title>Node1&#45;&gt;Node21</title>
<path fill="none" stroke="midnightblue" d="M55.21,-387.43C62.48,-325.76 92.71,-93.38 141,-40.5 144.49,-36.68 148.58,-33.44 153.03,-30.7"/>
<polygon fill="midnightblue" stroke="midnightblue" points="154.71,-33.77 161.93,-26.01 151.45,-27.58 154.71,-33.77"/>
</g>
<!-- Node5 -->
<g id="node5" class="node">
<title>Node5</title>
<g id="a_node5"><a xlink:href="namespaceft_1_1serv_1_1__internal.html#a4dfb80be7b817fc0ee18658f313a6274" target="_top" xlink:title=" ">
<polygon fill="white" stroke="black" points="326,-650.5 326,-680.5 424,-680.5 424,-650.5 326,-650.5"/>
<text text-anchor="start" x="334" y="-668.5" font-family="Helvetica,sans-Serif" font-size="10.00">ft::serv::_internal</text>
<text text-anchor="middle" x="375" y="-657.5" font-family="Helvetica,sans-Serif" font-size="10.00">::print</text>
</a>
</g>
</g>
<!-- Node4&#45;&gt;Node5 -->
<g id="edge4" class="edge">
<title>Node4&#45;&gt;Node5</title>
<path fill="none" stroke="midnightblue" d="M276.94,-665.5C289.55,-665.5 302.82,-665.5 315.36,-665.5"/>
<polygon fill="midnightblue" stroke="midnightblue" points="315.69,-669 325.69,-665.5 315.69,-662 315.69,-669"/>
</g>
<!-- Node6 -->
<g id="node6" class="node">
<title>Node6</title>
<g id="a_node6"><a xlink:href="namespaceft_1_1serv_1_1__internal.html#aff49349b58dc84fa69076e9cd27a1db4" target="_top" xlink:title=" ">
<polygon fill="white" stroke="black" points="460,-675.5 460,-705.5 604,-705.5 604,-675.5 460,-675.5"/>
<text text-anchor="start" x="468" y="-693.5" font-family="Helvetica,sans-Serif" font-size="10.00">ft::serv::_internal</text>
<text text-anchor="middle" x="532" y="-682.5" font-family="Helvetica,sans-Serif" font-size="10.00">::make_format_string_line</text>
</a>
</g>
</g>
<!-- Node5&#45;&gt;Node6 -->
<g id="edge5" class="edge">
<title>Node5&#45;&gt;Node6</title>
<path fill="none" stroke="midnightblue" d="M424.19,-673.27C432.39,-674.6 441.11,-676 449.88,-677.42"/>
<polygon fill="midnightblue" stroke="midnightblue" points="449.36,-680.88 459.79,-679.01 450.48,-673.97 449.36,-680.88"/>
</g>
<!-- Node7 -->
<g id="node7" class="node">
<title>Node7</title>
<g id="a_node7"><a xlink:href="namespaceft_1_1serv_1_1__internal.html#aad4af39d62c2b1687b0bef7a91bf6c60" target="_top" xlink:title=" ">
<polygon fill="white" stroke="black" points="480.5,-626.5 480.5,-656.5 583.5,-656.5 583.5,-626.5 480.5,-626.5"/>
<text text-anchor="start" x="488.5" y="-644.5" font-family="Helvetica,sans-Serif" font-size="10.00">ft::serv::_internal</text>
<text text-anchor="middle" x="532" y="-633.5" font-family="Helvetica,sans-Serif" font-size="10.00">::make_utc_string</text>
</a>
</g>
</g>
<!-- Node5&#45;&gt;Node7 -->
<g id="edge6" class="edge">
<title>Node5&#45;&gt;Node7</title>
<path fill="none" stroke="midnightblue" d="M424.19,-658.04C438.85,-655.77 455.14,-653.25 470.49,-650.87"/>
<polygon fill="midnightblue" stroke="midnightblue" points="471.08,-654.32 480.42,-649.33 470.01,-647.4 471.08,-654.32"/>
</g>
</g>
</svg>
        <g id="navigator" transform="translate(0 0)" fill="#404254">
                <rect fill="#f2f5e9" fill-opacity="0.5" stroke="#606060" stroke-width=".5" x="0" y="0" width="60" height="60"/>
                <use id="zoomplus" xlink:href="#zoomPlus" x="17" y="9" onmousedown="handleZoom(evt,'in')"/>
                <use id="zoomminus" xlink:href="#zoomMin" x="42" y="9" onmousedown="handleZoom(evt,'out')"/>
                <use id="reset" xlink:href="#resetDef" x="30" y="36" onmousedown="handleReset()"/>
                <g id="arrowUp" xlink:href="#dirArrow" transform="translate(30 24)" onmousedown="handlePan(0,-1)">
                  <use xlink:href="#rim" fill="#404040">
                        <set attributeName="fill" to="#808080" begin="arrowUp.mouseover" end="arrowUp.mouseout"/>
                  </use>
                  <path fill="none" stroke="white" stroke-width="1.5" d="M0,-3.0v7 M-2.5,-0.5L0,-3.0L2.5,-0.5"/>
                </g>
                <g id="arrowRight" xlink:href="#dirArrow" transform="rotate(90) translate(36 -43)" onmousedown="handlePan(1,0)">
                  <use xlink:href="#rim" fill="#404040">
                        <set attributeName="fill" to="#808080" begin="arrowRight.mouseover" end="arrowRight.mouseout"/>
                  </use>
                  <path fill="none" stroke="white" stroke-width="1.5" d="M0,-3.0v7 M-2.5,-0.5L0,-3.0L2.5,-0.5"/>
                </g>
                <g id="arrowDown" xlink:href="#dirArrow" transform="rotate(180) translate(-30 -48)" onmousedown="handlePan(0,1)">
                  <use xlink:href="#rim" fill="#404040">
                        <set attributeName="fill" to="#808080" begin="arrowDown.mouseover" end="arrowDown.mouseout"/>
                  </use>
                  <path fill="none" stroke="white" stroke-width="1.5" d="M0,-3.0v7 M-2.5,-0.5L0,-3.0L2.5,-0.5"/>
                </g>
                <g id="arrowLeft" xlink:href="#dirArrow" transform="rotate(270) translate(-36 17)" onmousedown="handlePan(-1,0)">
                  <use xlink:href="#rim" fill="#404040">
                        <set attributeName="fill" to="#808080" begin="arrowLeft.mouseover" end="arrowLeft.mouseout"/>
                  </use>
                  <path fill="none" stroke="white" stroke-width="1.5" d="M0,-3.0v7 M-2.5,-0.5L0,-3.0L2.5,-0.5"/>
                </g>
        </g>
        <svg viewBox="0 0 15 15" width="100%" height="30px" preserveAspectRatio="xMaxYMin meet">
         <g id="arrow_out" transform="scale(0.3 0.3)">
          <a xlink:href="classft_1_1irc_1_1bot__handler_a0723185e483ae21fa0f2116ca05165fe_cgraph_org.svg" target="_base">
           <rect id="button" ry="5" rx="5" y="6" x="6" height="38" width="38"
                fill="#f2f5e9" fill-opacity="0.5" stroke="#606060" stroke-width="1.0"/>
           <path id="arrow"
             d="M 11.500037,31.436501 C 11.940474,20.09759 22.043105,11.32322 32.158766,21.979434 L 37.068811,17.246167 C 37.068811,17.246167 37.088388,32 37.088388,32 L 22.160133,31.978069 C 22.160133,31.978069 26.997745,27.140456 26.997745,27.140456 C 18.528582,18.264221 13.291696,25.230495 11.500037,31.436501 z"
             style="fill:#404040;"/>
          </a>
         </g>
        </svg>
</svg>
