<?xml version="1.0" encoding="UTF-8" standalone="no"?>
<!DOCTYPE svg PUBLIC "-//W3C//DTD SVG 1.1//EN"
 "http://www.w3.org/Graphics/SVG/1.1/DTD/svg11.dtd">
<!-- Generated by graphviz version 2.43.0 (0)
 -->
<!-- Title: ft::irc::processor_mode::update_channel_mode Pages: 1 -->
<svg width="678pt" height="292pt"
 viewBox="0.00 0.00 678.00 291.50" xmlns="http://www.w3.org/2000/svg" xmlns:xlink="http://www.w3.org/1999/xlink">
<g id="graph0" class="graph" transform="scale(1 1) rotate(0) translate(4 287.5)">
<title>ft::irc::processor_mode::update_channel_mode</title>
<polygon fill="white" stroke="transparent" points="-4,4 -4,-287.5 674,-287.5 674,4 -4,4"/>
<!-- Node1 -->
<g id="node1" class="node">
<title>Node1</title>
<g id="a_node1"><a xlink:title=" ">
<polygon fill="#bfbfbf" stroke="black" points="0,-121 0,-151 166,-151 166,-121 0,-121"/>
<text text-anchor="start" x="8" y="-139" font-family="Helvetica,sans-Serif" font-size="10.00">ft::irc::processor</text>
<text text-anchor="middle" x="83" y="-128" font-family="Helvetica,sans-Serif" font-size="10.00">_mode::update_channel_mode</text>
</a>
</g>
</g>
<!-- Node2 -->
<g id="node2" class="node">
<title>Node2</title>
<g id="a_node2"><a xlink:href="classft_1_1irc_1_1processor__mode.html#a0756abb7cea854a0c5a05c24e0320ee2" target="_top" xlink:title=" ">
<polygon fill="white" stroke="black" points="210.5,-253 210.5,-283 347.5,-283 347.5,-253 210.5,-253"/>
<text text-anchor="start" x="218.5" y="-271" font-family="Helvetica,sans-Serif" font-size="10.00">ft::irc::processor</text>
<text text-anchor="middle" x="279" y="-260" font-family="Helvetica,sans-Serif" font-size="10.00">_mode::get_min_params</text>
</a>
</g>
</g>
<!-- Node1&#45;&gt;Node2 -->
<g id="edge1" class="edge">
<title>Node1&#45;&gt;Node2</title>
<path fill="none" stroke="midnightblue" d="M96.98,-151.31C117.21,-174.28 158.5,-217.68 202,-243 205.65,-245.12 209.5,-247.09 213.45,-248.92"/>
<polygon fill="midnightblue" stroke="midnightblue" points="212.25,-252.21 222.83,-252.92 215,-245.77 212.25,-252.21"/>
</g>
<!-- Node3 -->
<g id="node3" class="node">
<title>Node3</title>
<g id="a_node3"><a xlink:href="structft_1_1serv_1_1logger.html#aed47352d1c3f60ac9f99929dcc7498d5" target="_top" xlink:title=" ">
<polygon fill="white" stroke="black" points="223.5,-214.5 223.5,-233.5 334.5,-233.5 334.5,-214.5 223.5,-214.5"/>
<text text-anchor="middle" x="279" y="-221.5" font-family="Helvetica,sans-Serif" font-size="10.00">ft::serv::logger::info</text>
</a>
</g>
</g>
<!-- Node1&#45;&gt;Node3 -->
<g id="edge2" class="edge">
<title>Node1&#45;&gt;Node3</title>
<path fill="none" stroke="midnightblue" d="M105.65,-151.21C128.6,-166.71 166.4,-190.49 202,-205 208.18,-207.52 214.78,-209.77 221.41,-211.76"/>
<polygon fill="midnightblue" stroke="midnightblue" points="220.53,-215.15 231.11,-214.5 222.44,-208.41 220.53,-215.15"/>
</g>
<!-- Node7 -->
<g id="node7" class="node">
<title>Node7</title>
<g id="a_node7"><a xlink:href="classft_1_1irc_1_1channel.html#ad30281781ad94941df6db1284869a73b" target="_top" xlink:title=" ">
<polygon fill="white" stroke="black" points="216.5,-165 216.5,-195 341.5,-195 341.5,-165 216.5,-165"/>
<text text-anchor="start" x="224.5" y="-183" font-family="Helvetica,sans-Serif" font-size="10.00">ft::irc::channel::modify</text>
<text text-anchor="middle" x="279" y="-172" font-family="Helvetica,sans-Serif" font-size="10.00">_member_mode</text>
</a>
</g>
</g>
<!-- Node1&#45;&gt;Node7 -->
<g id="edge6" class="edge">
<title>Node1&#45;&gt;Node7</title>
<path fill="none" stroke="midnightblue" d="M150.22,-151.02C168.36,-155.13 188.11,-159.61 206.53,-163.79"/>
<polygon fill="midnightblue" stroke="midnightblue" points="205.8,-167.21 216.32,-166.01 207.34,-160.39 205.8,-167.21"/>
</g>
<!-- Node8 -->
<g id="node8" class="node">
<title>Node8</title>
<g id="a_node8"><a xlink:href="classft_1_1irc_1_1message.html#a34f457ead0453ad914af2cb0482a40b9" target="_top" xlink:title=" ">
<polygon fill="white" stroke="black" points="202,-126.5 202,-145.5 356,-145.5 356,-126.5 202,-126.5"/>
<text text-anchor="middle" x="279" y="-133.5" font-family="Helvetica,sans-Serif" font-size="10.00">ft::irc::message::param_size</text>
</a>
</g>
</g>
<!-- Node1&#45;&gt;Node8 -->
<g id="edge7" class="edge">
<title>Node1&#45;&gt;Node8</title>
<path fill="none" stroke="midnightblue" d="M166.27,-136C174.64,-136 183.16,-136 191.57,-136"/>
<polygon fill="midnightblue" stroke="midnightblue" points="191.77,-139.5 201.77,-136 191.77,-132.5 191.77,-139.5"/>
</g>
<!-- Node9 -->
<g id="node9" class="node">
<title>Node9</title>
<g id="a_node9"><a xlink:href="classft_1_1irc_1_1channel.html#a2a3ac5889a92c45dea08b0b8e586005f" target="_top" xlink:title=" ">
<polygon fill="white" stroke="black" points="209.5,-88.5 209.5,-107.5 348.5,-107.5 348.5,-88.5 209.5,-88.5"/>
<text text-anchor="middle" x="279" y="-95.5" font-family="Helvetica,sans-Serif" font-size="10.00">ft::irc::channel::store_key</text>
</a>
</g>
</g>
<!-- Node1&#45;&gt;Node9 -->
<g id="edge8" class="edge">
<title>Node1&#45;&gt;Node9</title>
<path fill="none" stroke="midnightblue" d="M160.67,-120.98C180.24,-117.15 200.97,-113.09 219.47,-109.46"/>
<polygon fill="midnightblue" stroke="midnightblue" points="220.35,-112.86 229.5,-107.5 219.01,-105.99 220.35,-112.86"/>
</g>
<!-- Node10 -->
<g id="node10" class="node">
<title>Node10</title>
<g id="a_node10"><a xlink:href="classft_1_1irc_1_1channel.html#a9a229b373bb42191a96af592857c279a" target="_top" xlink:title=" ">
<polygon fill="white" stroke="black" points="221,-39 221,-69 337,-69 337,-39 221,-39"/>
<text text-anchor="start" x="229" y="-57" font-family="Helvetica,sans-Serif" font-size="10.00">ft::irc::channel::store</text>
<text text-anchor="middle" x="279" y="-46" font-family="Helvetica,sans-Serif" font-size="10.00">_limit</text>
</a>
</g>
</g>
<!-- Node1&#45;&gt;Node10 -->
<g id="edge9" class="edge">
<title>Node1&#45;&gt;Node10</title>
<path fill="none" stroke="midnightblue" d="M112.61,-120.86C136.22,-108.69 170.78,-91.61 202,-79 207.53,-76.77 213.34,-74.58 219.18,-72.49"/>
<polygon fill="midnightblue" stroke="midnightblue" points="220.71,-75.66 229,-69.06 218.41,-69.05 220.71,-75.66"/>
</g>
<!-- Node11 -->
<g id="node11" class="node">
<title>Node11</title>
<g id="a_node11"><a xlink:href="classft_1_1irc_1_1channel.html#a844f7ff52ac56119ab3de1a568973935" target="_top" xlink:title=" ">
<polygon fill="white" stroke="black" points="204.5,-0.5 204.5,-19.5 353.5,-19.5 353.5,-0.5 204.5,-0.5"/>
<text text-anchor="middle" x="279" y="-7.5" font-family="Helvetica,sans-Serif" font-size="10.00">ft::irc::channel::store_mode</text>
</a>
</g>
</g>
<!-- Node1&#45;&gt;Node11 -->
<g id="edge10" class="edge">
<title>Node1&#45;&gt;Node11</title>
<path fill="none" stroke="midnightblue" d="M96.49,-120.89C116.41,-97.81 157.64,-53.92 202,-30 207.15,-27.22 212.72,-24.81 218.41,-22.72"/>
<polygon fill="midnightblue" stroke="midnightblue" points="219.67,-25.99 228.05,-19.51 217.45,-19.35 219.67,-25.99"/>
</g>
<!-- Node4 -->
<g id="node4" class="node">
<title>Node4</title>
<g id="a_node4"><a xlink:href="namespaceft_1_1serv_1_1__internal.html#a4dfb80be7b817fc0ee18658f313a6274" target="_top" xlink:title=" ">
<polygon fill="white" stroke="black" points="392,-209 392,-239 490,-239 490,-209 392,-209"/>
<text text-anchor="start" x="400" y="-227" font-family="Helvetica,sans-Serif" font-size="10.00">ft::serv::_internal</text>
<text text-anchor="middle" x="441" y="-216" font-family="Helvetica,sans-Serif" font-size="10.00">::print</text>
</a>
</g>
</g>
<!-- Node3&#45;&gt;Node4 -->
<g id="edge3" class="edge">
<title>Node3&#45;&gt;Node4</title>
<path fill="none" stroke="midnightblue" d="M334.62,-224C349.69,-224 366.12,-224 381.41,-224"/>
<polygon fill="midnightblue" stroke="midnightblue" points="381.79,-227.5 391.79,-224 381.79,-220.5 381.79,-227.5"/>
</g>
<!-- Node5 -->
<g id="node5" class="node">
<title>Node5</title>
<g id="a_node5"><a xlink:href="namespaceft_1_1serv_1_1__internal.html#aff49349b58dc84fa69076e9cd27a1db4" target="_top" xlink:title=" ">
<polygon fill="white" stroke="black" points="526,-234 526,-264 670,-264 670,-234 526,-234"/>
<text text-anchor="start" x="534" y="-252" font-family="Helvetica,sans-Serif" font-size="10.00">ft::serv::_internal</text>
<text text-anchor="middle" x="598" y="-241" font-family="Helvetica,sans-Serif" font-size="10.00">::make_format_string_line</text>
</a>
</g>
</g>
<!-- Node4&#45;&gt;Node5 -->
<g id="edge4" class="edge">
<title>Node4&#45;&gt;Node5</title>
<path fill="none" stroke="midnightblue" d="M490.19,-231.77C498.39,-233.1 507.11,-234.5 515.88,-235.92"/>
<polygon fill="midnightblue" stroke="midnightblue" points="515.36,-239.38 525.79,-237.51 516.48,-232.47 515.36,-239.38"/>
</g>
<!-- Node6 -->
<g id="node6" class="node">
<title>Node6</title>
<g id="a_node6"><a xlink:href="namespaceft_1_1serv_1_1__internal.html#aad4af39d62c2b1687b0bef7a91bf6c60" target="_top" xlink:title=" ">
<polygon fill="white" stroke="black" points="546.5,-185 546.5,-215 649.5,-215 649.5,-185 546.5,-185"/>
<text text-anchor="start" x="554.5" y="-203" font-family="Helvetica,sans-Serif" font-size="10.00">ft::serv::_internal</text>
<text text-anchor="middle" x="598" y="-192" font-family="Helvetica,sans-Serif" font-size="10.00">::make_utc_string</text>
</a>
</g>
</g>
<!-- Node4&#45;&gt;Node6 -->
<g id="edge5" class="edge">
<title>Node4&#45;&gt;Node6</title>
<path fill="none" stroke="midnightblue" d="M490.19,-216.54C504.85,-214.27 521.14,-211.75 536.49,-209.37"/>
<polygon fill="midnightblue" stroke="midnightblue" points="537.08,-212.82 546.42,-207.83 536.01,-205.9 537.08,-212.82"/>
</g>
</g>
</svg>
