<?xml version="1.0" encoding="UTF-8" standalone="no"?>
<!DOCTYPE svg PUBLIC "-//W3C//DTD SVG 1.1//EN"
 "http://www.w3.org/Graphics/SVG/1.1/DTD/svg11.dtd">
<!-- Generated by graphviz version 2.43.0 (0)
 -->
<!-- Title: ft::irc::channel Pages: 1 -->
<!--zoomable 418 -->
<svg id="main" version="1.1" xmlns="http://www.w3.org/2000/svg" xmlns:xlink="http://www.w3.org/1999/xlink" xml:space="preserve" onload="init(evt)">
<style type="text/css"><![CDATA[
.edge:hover path { stroke: red; }
.edge:hover polygon { stroke: red; fill: red; }
]]></style>
<script type="text/javascript"><![CDATA[
var edges = document.getElementsByTagName('g');
if (edges && edges.length) {
  for (var i=0;i<edges.length;i++) {
    if (edges[i].id.substr(0,4)=='edge') {
      edges[i].setAttribute('class','edge');
    }
  }
}
]]></script>
        <defs>
                <circle id="rim" cx="0" cy="0" r="7"/>
                <circle id="rim2" cx="0" cy="0" r="3.5"/>
                <g id="zoomPlus">
                        <use xlink:href="#rim" fill="#404040">
                                <set attributeName="fill" to="#808080" begin="zoomplus.mouseover" end="zoomplus.mouseout"/>
                        </use>
                        <path d="M-4,0h8M0,-4v8" fill="none" stroke="white" stroke-width="1.5" pointer-events="none"/>
                </g>
                <g id="zoomMin">
                        <use xlink:href="#rim" fill="#404040">
                                <set attributeName="fill" to="#808080" begin="zoomminus.mouseover" end="zoomminus.mouseout"/>
                        </use>
                        <path d="M-4,0h8" fill="none" stroke="white" stroke-width="1.5" pointer-events="none"/>
                </g>
                <g id="dirArrow">
                        <path fill="none" stroke="white" stroke-width="1.5" d="M0,-3.0v7 M-2.5,-0.5L0,-3.0L2.5,-0.5"/>
                </g>
               <g id="resetDef">
                       <use xlink:href="#rim2" fill="#404040">
                               <set attributeName="fill" to="#808080" begin="reset.mouseover" end="reset.mouseout"/>
                       </use>
               </g>
        </defs>

<script type="text/javascript">
var viewWidth = 595;
var viewHeight = 418;
var sectionId = 'dynsection-1';
</script>
<script xlink:href="svgpan.js"/>
<svg id="graph" class="graph">
<g id="viewport">
<title>ft::irc::channel</title>
<polygon fill="white" stroke="transparent" points="-4,4 -4,-413.7 591,-413.7 591,4 -4,4"/>
<!-- Node1 -->
<g id="node1" class="node">
<title>Node1</title>
<g id="a_node1"><a xlink:title=" ">
<polygon fill="#bfbfbf" stroke="black" points="501,-189.7 501,-208.7 587,-208.7 587,-189.7 501,-189.7"/>
<text text-anchor="middle" x="544" y="-196.7" font-family="Helvetica,sans-Serif" font-size="10.00">ft::irc::channel</text>
</a>
</g>
</g>
<!-- Node2 -->
<g id="node2" class="node">
<title>Node2</title>
<g id="a_node2"><a xlink:title=" ">
<polygon fill="white" stroke="#bfbfbf" points="260,-379.2 260,-409.2 389,-409.2 389,-379.2 260,-379.2"/>
<text text-anchor="start" x="268" y="-397.2" font-family="Helvetica,sans-Serif" font-size="10.00">ft::enable_shared_from</text>
<text text-anchor="middle" x="324.5" y="-386.2" font-family="Helvetica,sans-Serif" font-size="10.00">_this&lt; channel &gt;</text>
</a>
</g>
</g>
<!-- Node2&#45;&gt;Node1 -->
<g id="edge1" class="edge">
<title>Node2&#45;&gt;Node1</title>
<path fill="none" stroke="midnightblue" d="M399.42,-394.72C428.37,-391.36 460.07,-382.79 483,-363.2 531.63,-321.63 540.86,-237.17 542.6,-208.76"/>
<polygon fill="midnightblue" stroke="midnightblue" points="398.93,-391.25 389.32,-395.7 399.61,-398.22 398.93,-391.25"/>
</g>
<!-- Node3 -->
<g id="node3" class="node">
<title>Node3</title>
<g id="a_node3"><a xlink:title=" ">
<polygon fill="white" stroke="#bfbfbf" points="24.5,-314.7 24.5,-333.7 113.5,-333.7 113.5,-314.7 24.5,-314.7"/>
<text text-anchor="middle" x="69" y="-321.7" font-family="Helvetica,sans-Serif" font-size="10.00">readwrite_lock</text>
</a>
</g>
</g>
<!-- Node3&#45;&gt;Node1 -->
<g id="edge2" class="edge">
<title>Node3&#45;&gt;Node1</title>
<path fill="none" stroke="#9a32cd" stroke-dasharray="5,2" d="M123.68,-331.91C191.08,-339.79 309.67,-347.61 407,-322.2 444.34,-312.45 453.96,-305.62 483,-280.2 507.76,-258.52 528.51,-225 537.79,-208.72"/>
<polygon fill="#9a32cd" stroke="#9a32cd" points="124.06,-328.43 113.71,-330.7 123.22,-335.38 124.06,-328.43"/>
<text text-anchor="middle" x="324.5" y="-342.2" font-family="Helvetica,sans-Serif" font-size="10.00"> lock</text>
</g>
<!-- Node10 -->
<g id="node10" class="node">
<title>Node10</title>
<g id="a_node10"><a xlink:href="classft_1_1irc_1_1server.html" target="_top" xlink:title=" ">
<polygon fill="white" stroke="black" points="285.5,-107.7 285.5,-126.7 363.5,-126.7 363.5,-107.7 285.5,-107.7"/>
<text text-anchor="middle" x="324.5" y="-114.7" font-family="Helvetica,sans-Serif" font-size="10.00">ft::irc::server</text>
</a>
</g>
</g>
<!-- Node3&#45;&gt;Node10 -->
<g id="edge11" class="edge">
<title>Node3&#45;&gt;Node10</title>
<path fill="none" stroke="#9a32cd" stroke-dasharray="5,2" d="M97.35,-309.41C132,-289.26 191.15,-249.95 224,-200.2 240.28,-175.54 220.64,-156.61 242,-136.2 253.55,-125.15 270.22,-120.09 285.48,-117.91"/>
<polygon fill="#9a32cd" stroke="#9a32cd" points="95.23,-306.59 88.26,-314.57 98.69,-312.67 95.23,-306.59"/>
<text text-anchor="middle" x="190" y="-272.2" font-family="Helvetica,sans-Serif" font-size="10.00"> lock</text>
</g>
<!-- Node4 -->
<g id="node4" class="node">
<title>Node4</title>
<g id="a_node4"><a xlink:href="structft_1_1serv_1_1dynamic__array.html" target="_top" xlink:title=" ">
<polygon fill="white" stroke="black" points="260.5,-282.2 260.5,-312.2 388.5,-312.2 388.5,-282.2 260.5,-282.2"/>
<text text-anchor="start" x="268.5" y="-300.2" font-family="Helvetica,sans-Serif" font-size="10.00">ft::serv::dynamic_array</text>
<text text-anchor="middle" x="324.5" y="-289.2" font-family="Helvetica,sans-Serif" font-size="10.00">&lt; member &gt;</text>
</a>
</g>
</g>
<!-- Node4&#45;&gt;Node1 -->
<g id="edge3" class="edge">
<title>Node4&#45;&gt;Node1</title>
<path fill="none" stroke="#9a32cd" stroke-dasharray="5,2" d="M391.35,-279.08C420.39,-269.76 454.36,-257.02 483,-241.2 500.36,-231.61 518.85,-218.11 530.64,-209.03"/>
<polygon fill="#9a32cd" stroke="#9a32cd" points="390.2,-275.77 381.7,-282.1 392.29,-282.45 390.2,-275.77"/>
<text text-anchor="middle" x="454" y="-268.2" font-family="Helvetica,sans-Serif" font-size="10.00"> members</text>
</g>
<!-- Node5 -->
<g id="node5" class="node">
<title>Node5</title>
<g id="a_node5"><a xlink:href="structft_1_1serv_1_1dynamic__array.html" target="_top" xlink:title=" ">
<polygon fill="white" stroke="black" points="260.5,-233.2 260.5,-263.2 388.5,-263.2 388.5,-233.2 260.5,-233.2"/>
<text text-anchor="start" x="268.5" y="-251.2" font-family="Helvetica,sans-Serif" font-size="10.00">ft::serv::dynamic_array</text>
<text text-anchor="middle" x="324.5" y="-240.2" font-family="Helvetica,sans-Serif" font-size="10.00">&lt; ban_info &gt;</text>
</a>
</g>
</g>
<!-- Node5&#45;&gt;Node1 -->
<g id="edge4" class="edge">
<title>Node5&#45;&gt;Node1</title>
<path fill="none" stroke="#9a32cd" stroke-dasharray="5,2" d="M398.82,-232.88C425.38,-227.2 455.58,-220.58 483,-214.2 490.32,-212.49 498.12,-210.6 505.6,-208.74"/>
<polygon fill="#9a32cd" stroke="#9a32cd" points="397.88,-229.5 388.83,-235.01 399.34,-236.35 397.88,-229.5"/>
<text text-anchor="middle" x="454" y="-229.2" font-family="Helvetica,sans-Serif" font-size="10.00"> bans</text>
</g>
<!-- Node6 -->
<g id="node6" class="node">
<title>Node6</title>
<g id="a_node6"><a xlink:title=" ">
<polygon fill="white" stroke="#bfbfbf" points="242,-184.2 242,-214.2 407,-214.2 407,-184.2 242,-184.2"/>
<text text-anchor="start" x="250" y="-202.2" font-family="Helvetica,sans-Serif" font-size="10.00">bitset&lt; NUMBEROF_CHANNEL</text>
<text text-anchor="middle" x="324.5" y="-191.2" font-family="Helvetica,sans-Serif" font-size="10.00">_MODE &gt;</text>
</a>
</g>
</g>
<!-- Node6&#45;&gt;Node1 -->
<g id="edge5" class="edge">
<title>Node6&#45;&gt;Node1</title>
<path fill="none" stroke="#9a32cd" stroke-dasharray="5,2" d="M417.31,-199.2C446.4,-199.2 477.14,-199.2 500.94,-199.2"/>
<polygon fill="#9a32cd" stroke="#9a32cd" points="417.11,-195.7 407.11,-199.2 417.11,-202.7 417.11,-195.7"/>
<text text-anchor="middle" x="454" y="-202.2" font-family="Helvetica,sans-Serif" font-size="10.00"> mode</text>
</g>
<!-- Node7 -->
<g id="node7" class="node">
<title>Node7</title>
<g id="a_node7"><a xlink:title=" ">
<polygon fill="white" stroke="#bfbfbf" points="305.5,-145.7 305.5,-164.7 343.5,-164.7 343.5,-145.7 305.5,-145.7"/>
<text text-anchor="middle" x="324.5" y="-152.7" font-family="Helvetica,sans-Serif" font-size="10.00">bool</text>
</a>
</g>
</g>
<!-- Node7&#45;&gt;Node1 -->
<g id="edge6" class="edge">
<title>Node7&#45;&gt;Node1</title>
<path fill="none" stroke="#9a32cd" stroke-dasharray="5,2" d="M353.78,-159.85C385.39,-165.18 438.03,-174.45 483,-184.2 490.56,-185.83 498.61,-187.74 506.28,-189.63"/>
<polygon fill="#9a32cd" stroke="#9a32cd" points="353.97,-156.33 343.52,-158.14 352.81,-163.24 353.97,-156.33"/>
<text text-anchor="middle" x="454" y="-187.2" font-family="Helvetica,sans-Serif" font-size="10.00"> invalidated</text>
</g>
<!-- Node8 -->
<g id="node8" class="node">
<title>Node8</title>
<g id="a_node8"><a xlink:title=" ">
<polygon fill="white" stroke="#bfbfbf" points="47,-6.7 47,-25.7 91,-25.7 91,-6.7 47,-6.7"/>
<text text-anchor="middle" x="69" y="-13.7" font-family="Helvetica,sans-Serif" font-size="10.00">string</text>
</a>
</g>
</g>
<!-- Node8&#45;&gt;Node1 -->
<g id="edge7" class="edge">
<title>Node8&#45;&gt;Node1</title>
<path fill="none" stroke="#9a32cd" stroke-dasharray="5,2" d="M101.2,-10.64C162.31,-1.16 301.04,13.45 407,-27.2 483.42,-56.51 527.4,-157.9 539.53,-189.63"/>
<polygon fill="#9a32cd" stroke="#9a32cd" points="100.37,-7.23 91.06,-12.28 101.49,-14.14 100.37,-7.23"/>
<text text-anchor="middle" x="324.5" y="-52.2" font-family="Helvetica,sans-Serif" font-size="10.00"> key</text>
<text text-anchor="middle" x="324.5" y="-41.2" font-family="Helvetica,sans-Serif" font-size="10.00">name</text>
<text text-anchor="middle" x="324.5" y="-30.2" font-family="Helvetica,sans-Serif" font-size="10.00">topic</text>
</g>
<!-- Node8&#45;&gt;Node10 -->
<g id="edge15" class="edge">
<title>Node8&#45;&gt;Node10</title>
<path fill="none" stroke="#9a32cd" stroke-dasharray="5,2" d="M101.52,-17.39C135.44,-20.26 189.19,-29.56 224,-59.2 238.54,-71.57 227.2,-86.14 242,-98.2 254.16,-108.11 270.57,-113.04 285.47,-115.43"/>
<polygon fill="#9a32cd" stroke="#9a32cd" points="101.48,-13.88 91.26,-16.67 100.99,-20.86 101.48,-13.88"/>
<text text-anchor="middle" x="190" y="-73.2" font-family="Helvetica,sans-Serif" font-size="10.00"> created_time</text>
<text text-anchor="middle" x="190" y="-62.2" font-family="Helvetica,sans-Serif" font-size="10.00">pass</text>
</g>
<!-- Node9 -->
<g id="node9" class="node">
<title>Node9</title>
<g id="a_node9"><a xlink:title=" ">
<polygon fill="white" stroke="#bfbfbf" points="302,-69.7 302,-88.7 347,-88.7 347,-69.7 302,-69.7"/>
<text text-anchor="middle" x="324.5" y="-76.7" font-family="Helvetica,sans-Serif" font-size="10.00">size_t</text>
</a>
</g>
</g>
<!-- Node9&#45;&gt;Node1 -->
<g id="edge8" class="edge">
<title>Node9&#45;&gt;Node1</title>
<path fill="none" stroke="#9a32cd" stroke-dasharray="5,2" d="M357.25,-81.6C391.07,-85.51 444.88,-95.7 483,-122.2 509.16,-140.38 529.26,-173.38 538.09,-189.63"/>
<polygon fill="#9a32cd" stroke="#9a32cd" points="357.33,-78.09 347.02,-80.54 356.61,-85.05 357.33,-78.09"/>
<text text-anchor="middle" x="454" y="-125.2" font-family="Helvetica,sans-Serif" font-size="10.00"> limit</text>
</g>
<!-- Node10&#45;&gt;Node1 -->
<g id="edge9" class="edge">
<title>Node10&#45;&gt;Node1</title>
<path fill="none" stroke="#9a32cd" stroke-dasharray="5,2" d="M373.82,-124.51C405.85,-130.54 448.22,-140.82 483,-157.2 501.41,-165.86 520.24,-180.1 531.78,-189.56"/>
<polygon fill="#9a32cd" stroke="#9a32cd" points="374.27,-121.04 363.8,-122.7 373.02,-127.93 374.27,-121.04"/>
<text text-anchor="middle" x="454" y="-160.2" font-family="Helvetica,sans-Serif" font-size="10.00"> server</text>
</g>
<!-- Node11 -->
<g id="node11" class="node">
<title>Node11</title>
<g id="a_node11"><a xlink:title=" ">
<polygon fill="white" stroke="#bfbfbf" points="4.5,-219.2 4.5,-249.2 133.5,-249.2 133.5,-219.2 4.5,-219.2"/>
<text text-anchor="start" x="12.5" y="-237.2" font-family="Helvetica,sans-Serif" font-size="10.00">ft::enable_shared_from</text>
<text text-anchor="middle" x="69" y="-226.2" font-family="Helvetica,sans-Serif" font-size="10.00">_this&lt; server &gt;</text>
</a>
</g>
</g>
<!-- Node11&#45;&gt;Node10 -->
<g id="edge10" class="edge">
<title>Node11&#45;&gt;Node10</title>
<path fill="none" stroke="midnightblue" d="M121.97,-215.48C127.4,-213.41 132.83,-211.29 138,-209.2 176.74,-193.53 193.59,-199.86 224,-171.2 236.73,-159.2 228.21,-146.95 242,-136.2 254.26,-126.63 270.51,-121.75 285.27,-119.3"/>
<polygon fill="midnightblue" stroke="midnightblue" points="120.36,-212.34 112.24,-219.14 122.83,-218.89 120.36,-212.34"/>
</g>
<!-- Node12 -->
<g id="node12" class="node">
<title>Node12</title>
<g id="a_node12"><a xlink:href="structft_1_1serv_1_1dynamic__array.html" target="_top" xlink:title=" ">
<polygon fill="white" stroke="black" points="5,-158.7 5,-199.7 133,-199.7 133,-158.7 5,-158.7"/>
<text text-anchor="start" x="13" y="-187.7" font-family="Helvetica,sans-Serif" font-size="10.00">ft::serv::dynamic_array</text>
<text text-anchor="start" x="13" y="-176.7" font-family="Helvetica,sans-Serif" font-size="10.00">&lt; ft::shared_ptr&lt; ft::</text>
<text text-anchor="middle" x="69" y="-165.7" font-family="Helvetica,sans-Serif" font-size="10.00">irc::user &gt; &gt;</text>
</a>
</g>
</g>
<!-- Node12&#45;&gt;Node10 -->
<g id="edge12" class="edge">
<title>Node12&#45;&gt;Node10</title>
<path fill="none" stroke="#9a32cd" stroke-dasharray="5,2" d="M142.97,-160.68C173.54,-152.99 209.47,-144.05 242,-136.2 256.12,-132.78 271.65,-129.14 285.32,-125.96"/>
<polygon fill="#9a32cd" stroke="#9a32cd" points="142.09,-157.29 133.25,-163.13 143.8,-164.08 142.09,-157.29"/>
<text text-anchor="middle" x="190" y="-159.2" font-family="Helvetica,sans-Serif" font-size="10.00"> users</text>
</g>
<!-- Node13 -->
<g id="node13" class="node">
<title>Node13</title>
<g id="a_node13"><a xlink:href="structft_1_1serv_1_1unique__set.html" target="_top" xlink:title=" ">
<polygon fill="white" stroke="black" points="14.5,-109.2 14.5,-139.2 123.5,-139.2 123.5,-109.2 14.5,-109.2"/>
<text text-anchor="start" x="22.5" y="-127.2" font-family="Helvetica,sans-Serif" font-size="10.00">ft::serv::unique_set</text>
<text text-anchor="middle" x="69" y="-116.2" font-family="Helvetica,sans-Serif" font-size="10.00">&lt; std::string &gt;</text>
</a>
</g>
</g>
<!-- Node13&#45;&gt;Node10 -->
<g id="edge13" class="edge">
<title>Node13&#45;&gt;Node10</title>
<path fill="none" stroke="#9a32cd" stroke-dasharray="5,2" d="M134,-122.43C181.77,-121.11 245.45,-119.35 285.46,-118.25"/>
<polygon fill="#9a32cd" stroke="#9a32cd" points="133.66,-118.94 123.76,-122.71 133.85,-125.93 133.66,-118.94"/>
<text text-anchor="middle" x="190" y="-124.2" font-family="Helvetica,sans-Serif" font-size="10.00"> nicks</text>
</g>
<!-- Node14 -->
<g id="node14" class="node">
<title>Node14</title>
<g id="a_node14"><a xlink:href="structft_1_1serv_1_1fast__dictionary.html" target="_top" xlink:title=" ">
<polygon fill="white" stroke="black" points="0,-48.7 0,-89.7 138,-89.7 138,-48.7 0,-48.7"/>
<text text-anchor="start" x="8" y="-77.7" font-family="Helvetica,sans-Serif" font-size="10.00">ft::serv::fast_dictionary</text>
<text text-anchor="start" x="8" y="-66.7" font-family="Helvetica,sans-Serif" font-size="10.00">&lt; std::string, ft::shared</text>
<text text-anchor="middle" x="69" y="-55.7" font-family="Helvetica,sans-Serif" font-size="10.00">_ptr&lt; ft::irc::channel &gt; &gt;</text>
</a>
</g>
</g>
<!-- Node14&#45;&gt;Node10 -->
<g id="edge14" class="edge">
<title>Node14&#45;&gt;Node10</title>
<path fill="none" stroke="#9a32cd" stroke-dasharray="5,2" d="M148.13,-83.99C193.74,-92.62 249.23,-103.13 285.41,-109.98"/>
<polygon fill="#9a32cd" stroke="#9a32cd" points="148.74,-80.54 138.27,-82.12 147.44,-87.42 148.74,-80.54"/>
<text text-anchor="middle" x="190" y="-100.2" font-family="Helvetica,sans-Serif" font-size="10.00"> channels</text>
</g>
</g>
</svg>
        <g id="navigator" transform="translate(0 0)" fill="#404254">
                <rect fill="#f2f5e9" fill-opacity="0.5" stroke="#606060" stroke-width=".5" x="0" y="0" width="60" height="60"/>
                <use id="zoomplus" xlink:href="#zoomPlus" x="17" y="9" onmousedown="handleZoom(evt,'in')"/>
                <use id="zoomminus" xlink:href="#zoomMin" x="42" y="9" onmousedown="handleZoom(evt,'out')"/>
                <use id="reset" xlink:href="#resetDef" x="30" y="36" onmousedown="handleReset()"/>
                <g id="arrowUp" xlink:href="#dirArrow" transform="translate(30 24)" onmousedown="handlePan(0,-1)">
                  <use xlink:href="#rim" fill="#404040">
                        <set attributeName="fill" to="#808080" begin="arrowUp.mouseover" end="arrowUp.mouseout"/>
                  </use>
                  <path fill="none" stroke="white" stroke-width="1.5" d="M0,-3.0v7 M-2.5,-0.5L0,-3.0L2.5,-0.5"/>
                </g>
                <g id="arrowRight" xlink:href="#dirArrow" transform="rotate(90) translate(36 -43)" onmousedown="handlePan(1,0)">
                  <use xlink:href="#rim" fill="#404040">
                        <set attributeName="fill" to="#808080" begin="arrowRight.mouseover" end="arrowRight.mouseout"/>
                  </use>
                  <path fill="none" stroke="white" stroke-width="1.5" d="M0,-3.0v7 M-2.5,-0.5L0,-3.0L2.5,-0.5"/>
                </g>
                <g id="arrowDown" xlink:href="#dirArrow" transform="rotate(180) translate(-30 -48)" onmousedown="handlePan(0,1)">
                  <use xlink:href="#rim" fill="#404040">
                        <set attributeName="fill" to="#808080" begin="arrowDown.mouseover" end="arrowDown.mouseout"/>
                  </use>
                  <path fill="none" stroke="white" stroke-width="1.5" d="M0,-3.0v7 M-2.5,-0.5L0,-3.0L2.5,-0.5"/>
                </g>
                <g id="arrowLeft" xlink:href="#dirArrow" transform="rotate(270) translate(-36 17)" onmousedown="handlePan(-1,0)">
                  <use xlink:href="#rim" fill="#404040">
                        <set attributeName="fill" to="#808080" begin="arrowLeft.mouseover" end="arrowLeft.mouseout"/>
                  </use>
                  <path fill="none" stroke="white" stroke-width="1.5" d="M0,-3.0v7 M-2.5,-0.5L0,-3.0L2.5,-0.5"/>
                </g>
        </g>
        <svg viewBox="0 0 15 15" width="100%" height="30px" preserveAspectRatio="xMaxYMin meet">
         <g id="arrow_out" transform="scale(0.3 0.3)">
          <a xlink:href="classft_1_1irc_1_1channel__coll__graph_org.svg" target="_base">
           <rect id="button" ry="5" rx="5" y="6" x="6" height="38" width="38"
                fill="#f2f5e9" fill-opacity="0.5" stroke="#606060" stroke-width="1.0"/>
           <path id="arrow"
             d="M 11.500037,31.436501 C 11.940474,20.09759 22.043105,11.32322 32.158766,21.979434 L 37.068811,17.246167 C 37.068811,17.246167 37.088388,32 37.088388,32 L 22.160133,31.978069 C 22.160133,31.978069 26.997745,27.140456 26.997745,27.140456 C 18.528582,18.264221 13.291696,25.230495 11.500037,31.436501 z"
             style="fill:#404040;"/>
          </a>
         </g>
        </svg>
</svg>
