<?xml version="1.0" encoding="UTF-8" standalone="no"?>
<!DOCTYPE svg PUBLIC "-//W3C//DTD SVG 1.1//EN"
 "http://www.w3.org/Graphics/SVG/1.1/DTD/svg11.dtd">
<!-- Generated by graphviz version 2.43.0 (0)
 -->
<!-- Title: ft::irc::channel::send_ban_list Pages: 1 -->
<svg width="263pt" height="137pt"
 viewBox="0.00 0.00 263.00 137.00" xmlns="http://www.w3.org/2000/svg" xmlns:xlink="http://www.w3.org/1999/xlink">
<g id="graph0" class="graph" transform="scale(1 1) rotate(0) translate(4 133)">
<title>ft::irc::channel::send_ban_list</title>
<polygon fill="white" stroke="transparent" points="-4,4 -4,-133 259,-133 259,4 -4,4"/>
<!-- Node1 -->
<g id="node1" class="node">
<title>Node1</title>
<g id="a_node1"><a xlink:title=" ">
<polygon fill="#bfbfbf" stroke="black" points="0,-49.5 0,-79.5 115,-79.5 115,-49.5 0,-49.5"/>
<text text-anchor="start" x="8" y="-67.5" font-family="Helvetica,sans-Serif" font-size="10.00">ft::irc::channel::send</text>
<text text-anchor="middle" x="57.5" y="-56.5" font-family="Helvetica,sans-Serif" font-size="10.00">_ban_list</text>
</a>
</g>
</g>
<!-- Node2 -->
<g id="node2" class="node">
<title>Node2</title>
<g id="a_node2"><a xlink:href="structft_1_1irc_1_1make__reply.html#a7a456b9267291e4208ef9d36e20a7948" target="_top" xlink:title=" ">
<polygon fill="white" stroke="black" points="151,-98.5 151,-128.5 255,-128.5 255,-98.5 151,-98.5"/>
<text text-anchor="start" x="159" y="-116.5" font-family="Helvetica,sans-Serif" font-size="10.00">ft::irc::make_reply</text>
<text text-anchor="middle" x="203" y="-105.5" font-family="Helvetica,sans-Serif" font-size="10.00">::ban_list</text>
</a>
</g>
</g>
<!-- Node1&#45;&gt;Node2 -->
<g id="edge1" class="edge">
<title>Node1&#45;&gt;Node2</title>
<path fill="none" stroke="midnightblue" d="M102.73,-79.6C117.05,-84.49 133.09,-89.97 148.04,-95.07"/>
<polygon fill="midnightblue" stroke="midnightblue" points="147.08,-98.44 157.67,-98.36 149.34,-91.82 147.08,-98.44"/>
</g>
<!-- Node3 -->
<g id="node3" class="node">
<title>Node3</title>
<g id="a_node3"><a xlink:href="structft_1_1irc_1_1make__reply.html#a1fcd32547d899569970960956ba0a240" target="_top" xlink:title=" ">
<polygon fill="white" stroke="black" points="151,-49.5 151,-79.5 255,-79.5 255,-49.5 151,-49.5"/>
<text text-anchor="start" x="159" y="-67.5" font-family="Helvetica,sans-Serif" font-size="10.00">ft::irc::make_reply</text>
<text text-anchor="middle" x="203" y="-56.5" font-family="Helvetica,sans-Serif" font-size="10.00">::end_of_ban_list</text>
</a>
</g>
</g>
<!-- Node1&#45;&gt;Node3 -->
<g id="edge2" class="edge">
<title>Node1&#45;&gt;Node3</title>
<path fill="none" stroke="midnightblue" d="M115.21,-64.5C123.57,-64.5 132.21,-64.5 140.65,-64.5"/>
<polygon fill="midnightblue" stroke="midnightblue" points="140.82,-68 150.82,-64.5 140.82,-61 140.82,-68"/>
</g>
<!-- Node4 -->
<g id="node4" class="node">
<title>Node4</title>
<g id="a_node4"><a xlink:href="classft_1_1irc_1_1user.html#a1db558d6d694ca943224c2440fe36c50" target="_top" xlink:title=" ">
<polygon fill="white" stroke="black" points="154,-0.5 154,-30.5 252,-30.5 252,-0.5 154,-0.5"/>
<text text-anchor="start" x="162" y="-18.5" font-family="Helvetica,sans-Serif" font-size="10.00">ft::irc::user::send</text>
<text text-anchor="middle" x="203" y="-7.5" font-family="Helvetica,sans-Serif" font-size="10.00">_message</text>
</a>
</g>
</g>
<!-- Node1&#45;&gt;Node4 -->
<g id="edge3" class="edge">
<title>Node1&#45;&gt;Node4</title>
<path fill="none" stroke="midnightblue" d="M102.73,-49.4C117.05,-44.51 133.09,-39.03 148.04,-33.93"/>
<polygon fill="midnightblue" stroke="midnightblue" points="149.34,-37.18 157.67,-30.64 147.08,-30.56 149.34,-37.18"/>
</g>
</g>
</svg>
