<?xml version="1.0" encoding="UTF-8" standalone="no"?>
<!DOCTYPE svg PUBLIC "-//W3C//DTD SVG 1.1//EN"
 "http://www.w3.org/Graphics/SVG/1.1/DTD/svg11.dtd">
<!-- Generated by graphviz version 2.43.0 (0)
 -->
<!-- Title: ft::serv::syscall_failed::error Pages: 1 -->
<svg width="616pt" height="235pt"
 viewBox="0.00 0.00 616.00 235.00" xmlns="http://www.w3.org/2000/svg" xmlns:xlink="http://www.w3.org/1999/xlink">
<g id="graph0" class="graph" transform="scale(1 1) rotate(0) translate(4 231)">
<title>ft::serv::syscall_failed::error</title>
<polygon fill="white" stroke="transparent" points="-4,4 -4,-231 612,-231 612,4 -4,4"/>
<!-- Node1 -->
<g id="node1" class="node">
<title>Node1</title>
<g id="a_node1"><a xlink:title=" ">
<polygon fill="#bfbfbf" stroke="black" points="486,-98.5 486,-128.5 608,-128.5 608,-98.5 486,-98.5"/>
<text text-anchor="start" x="494" y="-116.5" font-family="Helvetica,sans-Serif" font-size="10.00">ft::serv::syscall_failed</text>
<text text-anchor="middle" x="547" y="-105.5" font-family="Helvetica,sans-Serif" font-size="10.00">::error</text>
</a>
</g>
</g>
<!-- Node2 -->
<g id="node2" class="node">
<title>Node2</title>
<g id="a_node2"><a xlink:href="namespaceft_1_1serv.html#a0a37f79cdf1af8a93c0e45163363c8c6" target="_top" xlink:title=" ">
<polygon fill="white" stroke="black" points="342.5,-196.5 342.5,-226.5 435.5,-226.5 435.5,-196.5 342.5,-196.5"/>
<text text-anchor="start" x="350.5" y="-214.5" font-family="Helvetica,sans-Serif" font-size="10.00">ft::serv::_trigger</text>
<text text-anchor="middle" x="389" y="-203.5" font-family="Helvetica,sans-Serif" font-size="10.00">_user_event</text>
</a>
</g>
</g>
<!-- Node1&#45;&gt;Node2 -->
<g id="edge1" class="edge">
<title>Node1&#45;&gt;Node2</title>
<path fill="none" stroke="midnightblue" d="M521.62,-135.35C502.97,-151.28 476.11,-172.6 450,-187.5 444.35,-190.73 438.18,-193.72 432.01,-196.43"/>
<polygon fill="midnightblue" stroke="midnightblue" points="524.06,-137.87 529.33,-128.67 519.48,-132.58 524.06,-137.87"/>
</g>
<!-- Node3 -->
<g id="node3" class="node">
<title>Node3</title>
<g id="a_node3"><a xlink:href="structft_1_1serv_1_1socket__utils.html#afdfe771bbccb2ec1af3e5eb44233469d" target="_top" xlink:title=" ">
<polygon fill="white" stroke="black" points="332.5,-147.5 332.5,-177.5 445.5,-177.5 445.5,-147.5 332.5,-147.5"/>
<text text-anchor="start" x="340.5" y="-165.5" font-family="Helvetica,sans-Serif" font-size="10.00">ft::serv::socket_utils</text>
<text text-anchor="middle" x="389" y="-154.5" font-family="Helvetica,sans-Serif" font-size="10.00">::accept_socket</text>
</a>
</g>
</g>
<!-- Node1&#45;&gt;Node3 -->
<g id="edge2" class="edge">
<title>Node1&#45;&gt;Node3</title>
<path fill="none" stroke="midnightblue" d="M488.33,-131.61C471.75,-136.82 453.85,-142.45 437.92,-147.45"/>
<polygon fill="midnightblue" stroke="midnightblue" points="489.43,-134.94 497.92,-128.6 487.33,-128.26 489.43,-134.94"/>
</g>
<!-- Node5 -->
<g id="node5" class="node">
<title>Node5</title>
<g id="a_node5"><a xlink:href="classft_1_1serv_1_1event__worker.html#a3a53967547f82f9bfa578cee9fafb416" target="_top" xlink:title=" ">
<polygon fill="white" stroke="black" points="328,-98.5 328,-128.5 450,-128.5 450,-98.5 328,-98.5"/>
<text text-anchor="start" x="336" y="-116.5" font-family="Helvetica,sans-Serif" font-size="10.00">ft::serv::event_worker</text>
<text text-anchor="middle" x="389" y="-105.5" font-family="Helvetica,sans-Serif" font-size="10.00">::loop</text>
</a>
</g>
</g>
<!-- Node1&#45;&gt;Node5 -->
<g id="edge4" class="edge">
<title>Node1&#45;&gt;Node5</title>
<path fill="none" stroke="midnightblue" d="M475.46,-113.5C467.01,-113.5 458.44,-113.5 450.15,-113.5"/>
<polygon fill="midnightblue" stroke="midnightblue" points="475.69,-117 485.69,-113.5 475.69,-110 475.69,-117"/>
</g>
<!-- Node8 -->
<g id="node8" class="node">
<title>Node8</title>
<g id="a_node8"><a xlink:href="structft_1_1serv_1_1socket__utils.html#ad5f1508e443a5539e35f644fa1801a75" target="_top" xlink:title=" ">
<polygon fill="white" stroke="black" points="332.5,-49.5 332.5,-79.5 445.5,-79.5 445.5,-49.5 332.5,-49.5"/>
<text text-anchor="start" x="340.5" y="-67.5" font-family="Helvetica,sans-Serif" font-size="10.00">ft::serv::socket_utils</text>
<text text-anchor="middle" x="389" y="-56.5" font-family="Helvetica,sans-Serif" font-size="10.00">::recv_socket</text>
</a>
</g>
</g>
<!-- Node1&#45;&gt;Node8 -->
<g id="edge7" class="edge">
<title>Node1&#45;&gt;Node8</title>
<path fill="none" stroke="midnightblue" d="M488.33,-95.39C471.75,-90.18 453.85,-84.55 437.92,-79.55"/>
<polygon fill="midnightblue" stroke="midnightblue" points="487.33,-98.74 497.92,-98.4 489.43,-92.06 487.33,-98.74"/>
</g>
<!-- Node10 -->
<g id="node10" class="node">
<title>Node10</title>
<g id="a_node10"><a xlink:href="structft_1_1serv_1_1socket__utils.html#aa8ee31659d561e387eca7d45ec0c8037" target="_top" xlink:title=" ">
<polygon fill="white" stroke="black" points="332.5,-0.5 332.5,-30.5 445.5,-30.5 445.5,-0.5 332.5,-0.5"/>
<text text-anchor="start" x="340.5" y="-18.5" font-family="Helvetica,sans-Serif" font-size="10.00">ft::serv::socket_utils</text>
<text text-anchor="middle" x="389" y="-7.5" font-family="Helvetica,sans-Serif" font-size="10.00">::send_socket</text>
</a>
</g>
</g>
<!-- Node1&#45;&gt;Node10 -->
<g id="edge9" class="edge">
<title>Node1&#45;&gt;Node10</title>
<path fill="none" stroke="midnightblue" d="M521.62,-91.65C502.97,-75.72 476.11,-54.4 450,-39.5 444.35,-36.27 438.18,-33.28 432.01,-30.57"/>
<polygon fill="midnightblue" stroke="midnightblue" points="519.48,-94.42 529.33,-98.33 524.06,-89.13 519.48,-94.42"/>
</g>
<!-- Node4 -->
<g id="node4" class="node">
<title>Node4</title>
<g id="a_node4"><a xlink:href="classft_1_1serv_1_1server__channel.html#a6721bda28cd2b3649985d19cbd407416" target="_top" xlink:title=" ">
<polygon fill="white" stroke="black" points="160,-147.5 160,-177.5 290,-177.5 290,-147.5 160,-147.5"/>
<text text-anchor="start" x="168" y="-165.5" font-family="Helvetica,sans-Serif" font-size="10.00">ft::serv::server_channel</text>
<text text-anchor="middle" x="225" y="-154.5" font-family="Helvetica,sans-Serif" font-size="10.00">::begin_read</text>
</a>
</g>
</g>
<!-- Node3&#45;&gt;Node4 -->
<g id="edge3" class="edge">
<title>Node3&#45;&gt;Node4</title>
<path fill="none" stroke="midnightblue" d="M322.25,-162.5C311.68,-162.5 300.74,-162.5 290.21,-162.5"/>
<polygon fill="midnightblue" stroke="midnightblue" points="322.25,-166 332.25,-162.5 322.25,-159 322.25,-166"/>
</g>
<!-- Node6 -->
<g id="node6" class="node">
<title>Node6</title>
<g id="a_node6"><a xlink:href="event__worker__group_8cpp.html#ad74a2b88b0a09afdd296adaddf5c2824" target="_top" xlink:title=" ">
<polygon fill="white" stroke="black" points="193,-104 193,-123 257,-123 257,-104 193,-104"/>
<text text-anchor="middle" x="225" y="-111" font-family="Helvetica,sans-Serif" font-size="10.00">_run_loop</text>
</a>
</g>
</g>
<!-- Node5&#45;&gt;Node6 -->
<g id="edge5" class="edge">
<title>Node5&#45;&gt;Node6</title>
<path fill="none" stroke="midnightblue" d="M317.45,-113.5C296.42,-113.5 274.43,-113.5 257.29,-113.5"/>
<polygon fill="midnightblue" stroke="midnightblue" points="317.68,-117 327.68,-113.5 317.68,-110 317.68,-117"/>
</g>
<!-- Node7 -->
<g id="node7" class="node">
<title>Node7</title>
<g id="a_node7"><a xlink:href="classft_1_1serv_1_1event__worker__group.html#a38691f464474653f2050bc99ea55b6d8" target="_top" xlink:title=" ">
<polygon fill="white" stroke="black" points="0,-98.5 0,-128.5 122,-128.5 122,-98.5 0,-98.5"/>
<text text-anchor="start" x="8" y="-116.5" font-family="Helvetica,sans-Serif" font-size="10.00">ft::serv::event_worker</text>
<text text-anchor="middle" x="61" y="-105.5" font-family="Helvetica,sans-Serif" font-size="10.00">_group::put_worker</text>
</a>
</g>
</g>
<!-- Node6&#45;&gt;Node7 -->
<g id="edge6" class="edge">
<title>Node6&#45;&gt;Node7</title>
<path fill="none" stroke="midnightblue" d="M182.66,-113.5C164.24,-113.5 142.19,-113.5 122.01,-113.5"/>
<polygon fill="midnightblue" stroke="midnightblue" points="182.76,-117 192.76,-113.5 182.76,-110 182.76,-117"/>
</g>
<!-- Node9 -->
<g id="node9" class="node">
<title>Node9</title>
<g id="a_node9"><a xlink:href="classft_1_1serv_1_1stream__channel.html#af3673676451a7ba771de3c7814e6edb2" target="_top" xlink:title=" ">
<polygon fill="white" stroke="black" points="158,-49.5 158,-79.5 292,-79.5 292,-49.5 158,-49.5"/>
<text text-anchor="start" x="166" y="-67.5" font-family="Helvetica,sans-Serif" font-size="10.00">ft::serv::stream_channel</text>
<text text-anchor="middle" x="225" y="-56.5" font-family="Helvetica,sans-Serif" font-size="10.00">::begin_read</text>
</a>
</g>
</g>
<!-- Node8&#45;&gt;Node9 -->
<g id="edge8" class="edge">
<title>Node8&#45;&gt;Node9</title>
<path fill="none" stroke="midnightblue" d="M322.1,-64.5C312.24,-64.5 302.06,-64.5 292.19,-64.5"/>
<polygon fill="midnightblue" stroke="midnightblue" points="322.25,-68 332.25,-64.5 322.25,-61 322.25,-68"/>
</g>
<!-- Node11 -->
<g id="node11" class="node">
<title>Node11</title>
<g id="a_node11"><a xlink:href="classft_1_1serv_1_1event__channel__base.html#a29c287e2466273e0a3b1ff273d8cf77d" target="_top" xlink:title=" ">
<polygon fill="white" stroke="black" points="161.5,-0.5 161.5,-30.5 288.5,-30.5 288.5,-0.5 161.5,-0.5"/>
<text text-anchor="start" x="169.5" y="-18.5" font-family="Helvetica,sans-Serif" font-size="10.00">ft::serv::event_channel</text>
<text text-anchor="middle" x="225" y="-7.5" font-family="Helvetica,sans-Serif" font-size="10.00">_base::begin_write</text>
</a>
</g>
</g>
<!-- Node10&#45;&gt;Node11 -->
<g id="edge10" class="edge">
<title>Node10&#45;&gt;Node11</title>
<path fill="none" stroke="midnightblue" d="M322.18,-15.5C311.06,-15.5 299.55,-15.5 288.52,-15.5"/>
<polygon fill="midnightblue" stroke="midnightblue" points="322.25,-19 332.25,-15.5 322.25,-12 322.25,-19"/>
</g>
</g>
</svg>
