<?xml version="1.0" encoding="UTF-8" standalone="no"?>
<!DOCTYPE svg PUBLIC "-//W3C//DTD SVG 1.1//EN"
 "http://www.w3.org/Graphics/SVG/1.1/DTD/svg11.dtd">
<!-- Generated by graphviz version 2.43.0 (0)
 -->
<!-- Title: ft::irc::bot_handler::on_active Pages: 1 -->
<!--zoomable 385 -->
<svg id="main" version="1.1" xmlns="http://www.w3.org/2000/svg" xmlns:xlink="http://www.w3.org/1999/xlink" xml:space="preserve" onload="init(evt)">
<style type="text/css"><![CDATA[
.edge:hover path { stroke: red; }
.edge:hover polygon { stroke: red; fill: red; }
]]></style>
<script type="text/javascript"><![CDATA[
var edges = document.getElementsByTagName('g');
if (edges && edges.length) {
  for (var i=0;i<edges.length;i++) {
    if (edges[i].id.substr(0,4)=='edge') {
      edges[i].setAttribute('class','edge');
    }
  }
}
]]></script>
        <defs>
                <circle id="rim" cx="0" cy="0" r="7"/>
                <circle id="rim2" cx="0" cy="0" r="3.5"/>
                <g id="zoomPlus">
                        <use xlink:href="#rim" fill="#404040">
                                <set attributeName="fill" to="#808080" begin="zoomplus.mouseover" end="zoomplus.mouseout"/>
                        </use>
                        <path d="M-4,0h8M0,-4v8" fill="none" stroke="white" stroke-width="1.5" pointer-events="none"/>
                </g>
                <g id="zoomMin">
                        <use xlink:href="#rim" fill="#404040">
                                <set attributeName="fill" to="#808080" begin="zoomminus.mouseover" end="zoomminus.mouseout"/>
                        </use>
                        <path d="M-4,0h8" fill="none" stroke="white" stroke-width="1.5" pointer-events="none"/>
                </g>
                <g id="dirArrow">
                        <path fill="none" stroke="white" stroke-width="1.5" d="M0,-3.0v7 M-2.5,-0.5L0,-3.0L2.5,-0.5"/>
                </g>
               <g id="resetDef">
                       <use xlink:href="#rim2" fill="#404040">
                               <set attributeName="fill" to="#808080" begin="reset.mouseover" end="reset.mouseout"/>
                       </use>
               </g>
        </defs>

<script type="text/javascript">
var viewWidth = 612;
var viewHeight = 385;
var sectionId = 'dynsection-2';
</script>
<script xlink:href="svgpan.js"/>
<svg id="graph" class="graph">
<g id="viewport">
<title>ft::irc::bot_handler::on_active</title>
<polygon fill="white" stroke="transparent" points="-4,4 -4,-381 608,-381 608,4 -4,4"/>
<!-- Node1 -->
<g id="node1" class="node">
<title>Node1</title>
<g id="a_node1"><a xlink:title=" ">
<polygon fill="#bfbfbf" stroke="black" points="0,-169.5 0,-199.5 105,-199.5 105,-169.5 0,-169.5"/>
<text text-anchor="start" x="8" y="-187.5" font-family="Helvetica,sans-Serif" font-size="10.00">ft::irc::bot_handler</text>
<text text-anchor="middle" x="52.5" y="-176.5" font-family="Helvetica,sans-Serif" font-size="10.00">::on_active</text>
</a>
</g>
</g>
<!-- Node2 -->
<g id="node2" class="node">
<title>Node2</title>
<g id="a_node2"><a xlink:href="structft_1_1serv_1_1logger.html#a83649a4f3bb804c8fed6dfd130de5ee6" target="_top" xlink:title=" ">
<polygon fill="white" stroke="black" points="154.5,-327 154.5,-346 276.5,-346 276.5,-327 154.5,-327"/>
<text text-anchor="middle" x="215.5" y="-334" font-family="Helvetica,sans-Serif" font-size="10.00">ft::serv::logger::debug</text>
</a>
</g>
</g>
<!-- Node1&#45;&gt;Node2 -->
<g id="edge1" class="edge">
<title>Node1&#45;&gt;Node2</title>
<path fill="none" stroke="midnightblue" d="M59.25,-199.93C70.49,-227.87 98.06,-286.79 141,-317.5 143.73,-319.46 146.65,-321.21 149.69,-322.78"/>
<polygon fill="midnightblue" stroke="midnightblue" points="148.55,-326.11 159.11,-326.98 151.4,-319.71 148.55,-326.11"/>
</g>
<!-- Node6 -->
<g id="node6" class="node">
<title>Node6</title>
<g id="a_node6"><a xlink:href="classft_1_1irc_1_1bot.html#abd5d4f4f5d1690e333978ee4c090047d" target="_top" xlink:title=" ">
<polygon fill="white" stroke="black" points="146,-289 146,-308 285,-308 285,-289 146,-289"/>
<text text-anchor="middle" x="215.5" y="-296" font-family="Helvetica,sans-Serif" font-size="10.00">ft::irc::bot::get_hostname</text>
</a>
</g>
</g>
<!-- Node1&#45;&gt;Node6 -->
<g id="edge5" class="edge">
<title>Node1&#45;&gt;Node6</title>
<path fill="none" stroke="midnightblue" d="M63.14,-199.52C77.51,-220.65 106.57,-258.87 141,-279.5 144.63,-281.67 148.5,-283.6 152.49,-285.3"/>
<polygon fill="midnightblue" stroke="midnightblue" points="151.4,-288.63 161.99,-288.9 153.88,-282.09 151.4,-288.63"/>
</g>
<!-- Node7 -->
<g id="node7" class="node">
<title>Node7</title>
<g id="a_node7"><a xlink:href="classft_1_1irc_1_1bot.html#af00201ff653e89960e762d7b12297c13" target="_top" xlink:title=" ">
<polygon fill="white" stroke="black" points="160.5,-251 160.5,-270 270.5,-270 270.5,-251 160.5,-251"/>
<text text-anchor="middle" x="215.5" y="-258" font-family="Helvetica,sans-Serif" font-size="10.00">ft::irc::bot::get_nick</text>
</a>
</g>
</g>
<!-- Node1&#45;&gt;Node7 -->
<g id="edge6" class="edge">
<title>Node1&#45;&gt;Node7</title>
<path fill="none" stroke="midnightblue" d="M72.6,-199.57C89.66,-212.37 115.78,-230.38 141,-241.5 146.49,-243.92 152.34,-246.08 158.26,-247.99"/>
<polygon fill="midnightblue" stroke="midnightblue" points="157.66,-251.46 168.24,-250.99 159.67,-244.76 157.66,-251.46"/>
</g>
<!-- Node8 -->
<g id="node8" class="node">
<title>Node8</title>
<g id="a_node8"><a xlink:href="classft_1_1irc_1_1bot.html#a974fe87cc09db5c7298164e092b3a866" target="_top" xlink:title=" ">
<polygon fill="white" stroke="black" points="159,-213 159,-232 272,-232 272,-213 159,-213"/>
<text text-anchor="middle" x="215.5" y="-220" font-family="Helvetica,sans-Serif" font-size="10.00">ft::irc::bot::get_pass</text>
</a>
</g>
</g>
<!-- Node1&#45;&gt;Node8 -->
<g id="edge7" class="edge">
<title>Node1&#45;&gt;Node8</title>
<path fill="none" stroke="midnightblue" d="M105.33,-196.73C124.18,-201.18 145.46,-206.2 164.18,-210.62"/>
<polygon fill="midnightblue" stroke="midnightblue" points="163.46,-214.05 174,-212.94 165.07,-207.24 163.46,-214.05"/>
</g>
<!-- Node9 -->
<g id="node9" class="node">
<title>Node9</title>
<g id="a_node9"><a xlink:href="classft_1_1irc_1_1bot.html#a8b8da859f139a8bc65c6722fb9c324f1" target="_top" xlink:title=" ">
<polygon fill="white" stroke="black" points="147,-175 147,-194 284,-194 284,-175 147,-175"/>
<text text-anchor="middle" x="215.5" y="-182" font-family="Helvetica,sans-Serif" font-size="10.00">ft::irc::bot::get_realname</text>
</a>
</g>
</g>
<!-- Node1&#45;&gt;Node9 -->
<g id="edge8" class="edge">
<title>Node1&#45;&gt;Node9</title>
<path fill="none" stroke="midnightblue" d="M105.33,-184.5C115.36,-184.5 126.07,-184.5 136.72,-184.5"/>
<polygon fill="midnightblue" stroke="midnightblue" points="136.89,-188 146.89,-184.5 136.89,-181 136.89,-188"/>
</g>
<!-- Node10 -->
<g id="node10" class="node">
<title>Node10</title>
<g id="a_node10"><a xlink:href="classft_1_1irc_1_1bot.html#af82f7c44d8f68db0fe3026e42fcf3f69" target="_top" xlink:title=" ">
<polygon fill="white" stroke="black" points="141,-137 141,-156 290,-156 290,-137 141,-137"/>
<text text-anchor="middle" x="215.5" y="-144" font-family="Helvetica,sans-Serif" font-size="10.00">ft::irc::bot::get_servername</text>
</a>
</g>
</g>
<!-- Node1&#45;&gt;Node10 -->
<g id="edge9" class="edge">
<title>Node1&#45;&gt;Node10</title>
<path fill="none" stroke="midnightblue" d="M105.33,-172.27C124.18,-167.82 145.46,-162.8 164.18,-158.38"/>
<polygon fill="midnightblue" stroke="midnightblue" points="165.07,-161.76 174,-156.06 163.46,-154.95 165.07,-161.76"/>
</g>
<!-- Node11 -->
<g id="node11" class="node">
<title>Node11</title>
<g id="a_node11"><a xlink:href="classft_1_1irc_1_1bot.html#a8c884ab295df9308e688762a387fd666" target="_top" xlink:title=" ">
<polygon fill="white" stroke="black" points="146,-99 146,-118 285,-118 285,-99 146,-99"/>
<text text-anchor="middle" x="215.5" y="-106" font-family="Helvetica,sans-Serif" font-size="10.00">ft::irc::bot::get_username</text>
</a>
</g>
</g>
<!-- Node1&#45;&gt;Node11 -->
<g id="edge10" class="edge">
<title>Node1&#45;&gt;Node11</title>
<path fill="none" stroke="midnightblue" d="M72.6,-169.43C89.66,-156.63 115.78,-138.62 141,-127.5 146.49,-125.08 152.34,-122.92 158.26,-121.01"/>
<polygon fill="midnightblue" stroke="midnightblue" points="159.67,-124.24 168.24,-118.01 157.66,-117.54 159.67,-124.24"/>
</g>
<!-- Node12 -->
<g id="node12" class="node">
<title>Node12</title>
<g id="a_node12"><a xlink:href="classft_1_1serv_1_1event__layer.html#a854a0764bd67adfc716ec4237cd52672" target="_top" xlink:title=" ">
<polygon fill="white" stroke="black" points="159,-49.5 159,-79.5 272,-79.5 272,-49.5 159,-49.5"/>
<text text-anchor="start" x="167" y="-67.5" font-family="Helvetica,sans-Serif" font-size="10.00">ft::serv::event_layer</text>
<text text-anchor="middle" x="215.5" y="-56.5" font-family="Helvetica,sans-Serif" font-size="10.00">::post_flush</text>
</a>
</g>
</g>
<!-- Node1&#45;&gt;Node12 -->
<g id="edge11" class="edge">
<title>Node1&#45;&gt;Node12</title>
<path fill="none" stroke="midnightblue" d="M63.6,-169.48C78.32,-148.7 107.55,-111.28 141,-89.5 144.12,-87.47 147.42,-85.58 150.83,-83.84"/>
<polygon fill="midnightblue" stroke="midnightblue" points="152.47,-86.94 160.05,-79.54 149.51,-80.59 152.47,-86.94"/>
</g>
<!-- Node13 -->
<g id="node13" class="node">
<title>Node13</title>
<g id="a_node13"><a xlink:href="classft_1_1serv_1_1event__layer.html#add4946138f5f8a5870d52c44ca435aab" target="_top" xlink:title=" ">
<polygon fill="white" stroke="black" points="159,-0.5 159,-30.5 272,-30.5 272,-0.5 159,-0.5"/>
<text text-anchor="start" x="167" y="-18.5" font-family="Helvetica,sans-Serif" font-size="10.00">ft::serv::event_layer</text>
<text text-anchor="middle" x="215.5" y="-7.5" font-family="Helvetica,sans-Serif" font-size="10.00">::post_write</text>
</a>
</g>
</g>
<!-- Node1&#45;&gt;Node13 -->
<g id="edge12" class="edge">
<title>Node1&#45;&gt;Node13</title>
<path fill="none" stroke="midnightblue" d="M58.79,-169.05C69.6,-139.74 96.97,-75.84 141,-40.5 143.76,-38.28 146.74,-36.25 149.84,-34.4"/>
<polygon fill="midnightblue" stroke="midnightblue" points="151.68,-37.39 158.9,-29.64 148.42,-31.2 151.68,-37.39"/>
</g>
<!-- Node3 -->
<g id="node3" class="node">
<title>Node3</title>
<g id="a_node3"><a xlink:href="namespaceft_1_1serv_1_1__internal.html#a4dfb80be7b817fc0ee18658f313a6274" target="_top" xlink:title=" ">
<polygon fill="white" stroke="black" points="326,-321.5 326,-351.5 424,-351.5 424,-321.5 326,-321.5"/>
<text text-anchor="start" x="334" y="-339.5" font-family="Helvetica,sans-Serif" font-size="10.00">ft::serv::_internal</text>
<text text-anchor="middle" x="375" y="-328.5" font-family="Helvetica,sans-Serif" font-size="10.00">::print</text>
</a>
</g>
</g>
<!-- Node2&#45;&gt;Node3 -->
<g id="edge2" class="edge">
<title>Node2&#45;&gt;Node3</title>
<path fill="none" stroke="midnightblue" d="M276.94,-336.5C289.55,-336.5 302.82,-336.5 315.36,-336.5"/>
<polygon fill="midnightblue" stroke="midnightblue" points="315.69,-340 325.69,-336.5 315.69,-333 315.69,-340"/>
</g>
<!-- Node4 -->
<g id="node4" class="node">
<title>Node4</title>
<g id="a_node4"><a xlink:href="namespaceft_1_1serv_1_1__internal.html#aff49349b58dc84fa69076e9cd27a1db4" target="_top" xlink:title=" ">
<polygon fill="white" stroke="black" points="460,-346.5 460,-376.5 604,-376.5 604,-346.5 460,-346.5"/>
<text text-anchor="start" x="468" y="-364.5" font-family="Helvetica,sans-Serif" font-size="10.00">ft::serv::_internal</text>
<text text-anchor="middle" x="532" y="-353.5" font-family="Helvetica,sans-Serif" font-size="10.00">::make_format_string_line</text>
</a>
</g>
</g>
<!-- Node3&#45;&gt;Node4 -->
<g id="edge3" class="edge">
<title>Node3&#45;&gt;Node4</title>
<path fill="none" stroke="midnightblue" d="M424.19,-344.27C432.39,-345.6 441.11,-347 449.88,-348.42"/>
<polygon fill="midnightblue" stroke="midnightblue" points="449.36,-351.88 459.79,-350.01 450.48,-344.97 449.36,-351.88"/>
</g>
<!-- Node5 -->
<g id="node5" class="node">
<title>Node5</title>
<g id="a_node5"><a xlink:href="namespaceft_1_1serv_1_1__internal.html#aad4af39d62c2b1687b0bef7a91bf6c60" target="_top" xlink:title=" ">
<polygon fill="white" stroke="black" points="480.5,-297.5 480.5,-327.5 583.5,-327.5 583.5,-297.5 480.5,-297.5"/>
<text text-anchor="start" x="488.5" y="-315.5" font-family="Helvetica,sans-Serif" font-size="10.00">ft::serv::_internal</text>
<text text-anchor="middle" x="532" y="-304.5" font-family="Helvetica,sans-Serif" font-size="10.00">::make_utc_string</text>
</a>
</g>
</g>
<!-- Node3&#45;&gt;Node5 -->
<g id="edge4" class="edge">
<title>Node3&#45;&gt;Node5</title>
<path fill="none" stroke="midnightblue" d="M424.19,-329.04C438.85,-326.77 455.14,-324.25 470.49,-321.87"/>
<polygon fill="midnightblue" stroke="midnightblue" points="471.08,-325.32 480.42,-320.33 470.01,-318.4 471.08,-325.32"/>
</g>
</g>
</svg>
        <g id="navigator" transform="translate(0 0)" fill="#404254">
                <rect fill="#f2f5e9" fill-opacity="0.5" stroke="#606060" stroke-width=".5" x="0" y="0" width="60" height="60"/>
                <use id="zoomplus" xlink:href="#zoomPlus" x="17" y="9" onmousedown="handleZoom(evt,'in')"/>
                <use id="zoomminus" xlink:href="#zoomMin" x="42" y="9" onmousedown="handleZoom(evt,'out')"/>
                <use id="reset" xlink:href="#resetDef" x="30" y="36" onmousedown="handleReset()"/>
                <g id="arrowUp" xlink:href="#dirArrow" transform="translate(30 24)" onmousedown="handlePan(0,-1)">
                  <use xlink:href="#rim" fill="#404040">
                        <set attributeName="fill" to="#808080" begin="arrowUp.mouseover" end="arrowUp.mouseout"/>
                  </use>
                  <path fill="none" stroke="white" stroke-width="1.5" d="M0,-3.0v7 M-2.5,-0.5L0,-3.0L2.5,-0.5"/>
                </g>
                <g id="arrowRight" xlink:href="#dirArrow" transform="rotate(90) translate(36 -43)" onmousedown="handlePan(1,0)">
                  <use xlink:href="#rim" fill="#404040">
                        <set attributeName="fill" to="#808080" begin="arrowRight.mouseover" end="arrowRight.mouseout"/>
                  </use>
                  <path fill="none" stroke="white" stroke-width="1.5" d="M0,-3.0v7 M-2.5,-0.5L0,-3.0L2.5,-0.5"/>
                </g>
                <g id="arrowDown" xlink:href="#dirArrow" transform="rotate(180) translate(-30 -48)" onmousedown="handlePan(0,1)">
                  <use xlink:href="#rim" fill="#404040">
                        <set attributeName="fill" to="#808080" begin="arrowDown.mouseover" end="arrowDown.mouseout"/>
                  </use>
                  <path fill="none" stroke="white" stroke-width="1.5" d="M0,-3.0v7 M-2.5,-0.5L0,-3.0L2.5,-0.5"/>
                </g>
                <g id="arrowLeft" xlink:href="#dirArrow" transform="rotate(270) translate(-36 17)" onmousedown="handlePan(-1,0)">
                  <use xlink:href="#rim" fill="#404040">
                        <set attributeName="fill" to="#808080" begin="arrowLeft.mouseover" end="arrowLeft.mouseout"/>
                  </use>
                  <path fill="none" stroke="white" stroke-width="1.5" d="M0,-3.0v7 M-2.5,-0.5L0,-3.0L2.5,-0.5"/>
                </g>
        </g>
        <svg viewBox="0 0 15 15" width="100%" height="30px" preserveAspectRatio="xMaxYMin meet">
         <g id="arrow_out" transform="scale(0.3 0.3)">
          <a xlink:href="classft_1_1irc_1_1bot__handler_a4f6f0c2ea6bf628048019d6793978658_cgraph_org.svg" target="_base">
           <rect id="button" ry="5" rx="5" y="6" x="6" height="38" width="38"
                fill="#f2f5e9" fill-opacity="0.5" stroke="#606060" stroke-width="1.0"/>
           <path id="arrow"
             d="M 11.500037,31.436501 C 11.940474,20.09759 22.043105,11.32322 32.158766,21.979434 L 37.068811,17.246167 C 37.068811,17.246167 37.088388,32 37.088388,32 L 22.160133,31.978069 C 22.160133,31.978069 26.997745,27.140456 26.997745,27.140456 C 18.528582,18.264221 13.291696,25.230495 11.500037,31.436501 z"
             style="fill:#404040;"/>
          </a>
         </g>
        </svg>
</svg>
