<?xml version="1.0" encoding="UTF-8" standalone="no"?>
<!DOCTYPE svg PUBLIC "-//W3C//DTD SVG 1.1//EN"
 "http://www.w3.org/Graphics/SVG/1.1/DTD/svg11.dtd">
<!-- Generated by graphviz version 2.43.0 (0)
 -->
<!-- Title: ft::irc::bot_handler Pages: 1 -->
<!--zoomable 198 -->
<svg id="main" version="1.1" xmlns="http://www.w3.org/2000/svg" xmlns:xlink="http://www.w3.org/1999/xlink" xml:space="preserve" onload="init(evt)">
<style type="text/css"><![CDATA[
.edge:hover path { stroke: red; }
.edge:hover polygon { stroke: red; fill: red; }
]]></style>
<script type="text/javascript"><![CDATA[
var edges = document.getElementsByTagName('g');
if (edges && edges.length) {
  for (var i=0;i<edges.length;i++) {
    if (edges[i].id.substr(0,4)=='edge') {
      edges[i].setAttribute('class','edge');
    }
  }
}
]]></script>
        <defs>
                <circle id="rim" cx="0" cy="0" r="7"/>
                <circle id="rim2" cx="0" cy="0" r="3.5"/>
                <g id="zoomPlus">
                        <use xlink:href="#rim" fill="#404040">
                                <set attributeName="fill" to="#808080" begin="zoomplus.mouseover" end="zoomplus.mouseout"/>
                        </use>
                        <path d="M-4,0h8M0,-4v8" fill="none" stroke="white" stroke-width="1.5" pointer-events="none"/>
                </g>
                <g id="zoomMin">
                        <use xlink:href="#rim" fill="#404040">
                                <set attributeName="fill" to="#808080" begin="zoomminus.mouseover" end="zoomminus.mouseout"/>
                        </use>
                        <path d="M-4,0h8" fill="none" stroke="white" stroke-width="1.5" pointer-events="none"/>
                </g>
                <g id="dirArrow">
                        <path fill="none" stroke="white" stroke-width="1.5" d="M0,-3.0v7 M-2.5,-0.5L0,-3.0L2.5,-0.5"/>
                </g>
               <g id="resetDef">
                       <use xlink:href="#rim2" fill="#404040">
                               <set attributeName="fill" to="#808080" begin="reset.mouseover" end="reset.mouseout"/>
                       </use>
               </g>
        </defs>

<script type="text/javascript">
var viewWidth = 539;
var viewHeight = 198;
var sectionId = 'dynsection-1';
</script>
<script xlink:href="svgpan.js"/>
<svg id="graph" class="graph">
<g id="viewport">
<title>ft::irc::bot_handler</title>
<polygon fill="white" stroke="transparent" points="-4,4 -4,-194 535,-194 535,4 -4,4"/>
<!-- Node1 -->
<g id="node1" class="node">
<title>Node1</title>
<g id="a_node1"><a xlink:title=" ">
<polygon fill="#bfbfbf" stroke="black" points="426,-121.5 426,-140.5 531,-140.5 531,-121.5 426,-121.5"/>
<text text-anchor="middle" x="478.5" y="-128.5" font-family="Helvetica,sans-Serif" font-size="10.00">ft::irc::bot_handler</text>
</a>
</g>
</g>
<!-- Node2 -->
<g id="node2" class="node">
<title>Node2</title>
<g id="a_node2"><a xlink:href="classft_1_1serv_1_1logic__adapter.html" target="_top" xlink:title=" ">
<polygon fill="white" stroke="black" points="249,-149.5 249,-168.5 371,-168.5 371,-149.5 249,-149.5"/>
<text text-anchor="middle" x="310" y="-156.5" font-family="Helvetica,sans-Serif" font-size="10.00">ft::serv::logic_adapter</text>
</a>
</g>
</g>
<!-- Node2&#45;&gt;Node1 -->
<g id="edge1" class="edge">
<title>Node2&#45;&gt;Node1</title>
<path fill="none" stroke="midnightblue" d="M377.71,-147.78C393.77,-145.08 410.7,-142.23 425.95,-139.67"/>
<polygon fill="midnightblue" stroke="midnightblue" points="377.12,-144.33 367.83,-149.44 378.28,-151.24 377.12,-144.33"/>
</g>
<!-- Node3 -->
<g id="node3" class="node">
<title>Node3</title>
<g id="a_node3"><a xlink:href="classft_1_1serv_1_1event__handler__base.html" target="_top" xlink:title=" ">
<polygon fill="white" stroke="black" points="0,-170.5 0,-189.5 154,-189.5 154,-170.5 0,-170.5"/>
<text text-anchor="middle" x="77" y="-177.5" font-family="Helvetica,sans-Serif" font-size="10.00">ft::serv::event_handler_base</text>
</a>
</g>
</g>
<!-- Node3&#45;&gt;Node2 -->
<g id="edge2" class="edge">
<title>Node3&#45;&gt;Node2</title>
<path fill="none" stroke="midnightblue" d="M164.51,-172.14C192.6,-169.58 223.15,-166.8 248.89,-164.46"/>
<polygon fill="midnightblue" stroke="midnightblue" points="163.92,-168.67 154.28,-173.07 164.55,-175.65 163.92,-168.67"/>
</g>
<!-- Node4 -->
<g id="node4" class="node">
<title>Node4</title>
<g id="a_node4"><a xlink:href="classft_1_1irc_1_1bot.html" target="_top" xlink:title=" ">
<polygon fill="white" stroke="black" points="278.5,-102.5 278.5,-121.5 341.5,-121.5 341.5,-102.5 278.5,-102.5"/>
<text text-anchor="middle" x="310" y="-109.5" font-family="Helvetica,sans-Serif" font-size="10.00">ft::irc::bot</text>
</a>
</g>
</g>
<!-- Node4&#45;&gt;Node1 -->
<g id="edge3" class="edge">
<title>Node4&#45;&gt;Node1</title>
<path fill="none" stroke="#9a32cd" stroke-dasharray="5,2" d="M351.94,-115.98C369.25,-117.73 389.62,-119.86 408,-122 413.8,-122.67 419.87,-123.41 425.9,-124.17"/>
<polygon fill="#9a32cd" stroke="#9a32cd" points="351.9,-112.46 341.6,-114.95 351.21,-119.43 351.9,-112.46"/>
<text text-anchor="middle" x="398.5" y="-125" font-family="Helvetica,sans-Serif" font-size="10.00"> bot</text>
</g>
<!-- Node5 -->
<g id="node5" class="node">
<title>Node5</title>
<g id="a_node5"><a xlink:title=" ">
<polygon fill="white" stroke="#bfbfbf" points="12.5,-121 12.5,-151 141.5,-151 141.5,-121 12.5,-121"/>
<text text-anchor="start" x="20.5" y="-139" font-family="Helvetica,sans-Serif" font-size="10.00">ft::enable_shared_from</text>
<text text-anchor="middle" x="77" y="-128" font-family="Helvetica,sans-Serif" font-size="10.00">_this&lt; bot &gt;</text>
</a>
</g>
</g>
<!-- Node5&#45;&gt;Node4 -->
<g id="edge4" class="edge">
<title>Node5&#45;&gt;Node4</title>
<path fill="none" stroke="midnightblue" d="M151.83,-128.33C194.6,-123.89 246.16,-118.53 278.27,-115.19"/>
<polygon fill="midnightblue" stroke="midnightblue" points="151.32,-124.86 141.73,-129.38 152.04,-131.83 151.32,-124.86"/>
</g>
<!-- Node6 -->
<g id="node6" class="node">
<title>Node6</title>
<g id="a_node6"><a xlink:href="structft_1_1serv_1_1fast__dictionary.html" target="_top" xlink:title=" ">
<polygon fill="white" stroke="black" points="5.5,-72 5.5,-102 148.5,-102 148.5,-72 5.5,-72"/>
<text text-anchor="start" x="13.5" y="-90" font-family="Helvetica,sans-Serif" font-size="10.00">ft::serv::fast_dictionary</text>
<text text-anchor="middle" x="77" y="-79" font-family="Helvetica,sans-Serif" font-size="10.00">&lt; std::string, std::string &gt;</text>
</a>
</g>
</g>
<!-- Node6&#45;&gt;Node4 -->
<g id="edge5" class="edge">
<title>Node6&#45;&gt;Node4</title>
<path fill="none" stroke="#9a32cd" stroke-dasharray="5,2" d="M158.64,-95.73C199.97,-100.2 247.87,-105.38 278.29,-108.68"/>
<polygon fill="#9a32cd" stroke="#9a32cd" points="158.88,-92.23 148.56,-94.64 158.13,-99.19 158.88,-92.23"/>
<text text-anchor="middle" x="201.5" y="-106" font-family="Helvetica,sans-Serif" font-size="10.00"> inviters</text>
</g>
<!-- Node7 -->
<g id="node7" class="node">
<title>Node7</title>
<g id="a_node7"><a xlink:title=" ">
<polygon fill="white" stroke="#bfbfbf" points="55,-0.5 55,-19.5 99,-19.5 99,-0.5 55,-0.5"/>
<text text-anchor="middle" x="77" y="-7.5" font-family="Helvetica,sans-Serif" font-size="10.00">string</text>
</a>
</g>
</g>
<!-- Node7&#45;&gt;Node4 -->
<g id="edge6" class="edge">
<title>Node7&#45;&gt;Node4</title>
<path fill="none" stroke="#9a32cd" stroke-dasharray="5,2" d="M109.29,-7.26C141.55,-5.81 192.46,-7.45 231,-27 265.47,-44.49 292.3,-83.92 303.42,-102.27"/>
<polygon fill="#9a32cd" stroke="#9a32cd" points="108.89,-3.78 99.1,-7.85 109.29,-10.77 108.89,-3.78"/>
<text text-anchor="middle" x="201.5" y="-85" font-family="Helvetica,sans-Serif" font-size="10.00"> hostname</text>
<text text-anchor="middle" x="201.5" y="-74" font-family="Helvetica,sans-Serif" font-size="10.00">nick</text>
<text text-anchor="middle" x="201.5" y="-63" font-family="Helvetica,sans-Serif" font-size="10.00">pass</text>
<text text-anchor="middle" x="201.5" y="-52" font-family="Helvetica,sans-Serif" font-size="10.00">realname</text>
<text text-anchor="middle" x="201.5" y="-41" font-family="Helvetica,sans-Serif" font-size="10.00">servername</text>
<text text-anchor="middle" x="201.5" y="-30" font-family="Helvetica,sans-Serif" font-size="10.00">username</text>
</g>
</g>
</svg>
        <g id="navigator" transform="translate(0 0)" fill="#404254">
                <rect fill="#f2f5e9" fill-opacity="0.5" stroke="#606060" stroke-width=".5" x="0" y="0" width="60" height="60"/>
                <use id="zoomplus" xlink:href="#zoomPlus" x="17" y="9" onmousedown="handleZoom(evt,'in')"/>
                <use id="zoomminus" xlink:href="#zoomMin" x="42" y="9" onmousedown="handleZoom(evt,'out')"/>
                <use id="reset" xlink:href="#resetDef" x="30" y="36" onmousedown="handleReset()"/>
                <g id="arrowUp" xlink:href="#dirArrow" transform="translate(30 24)" onmousedown="handlePan(0,-1)">
                  <use xlink:href="#rim" fill="#404040">
                        <set attributeName="fill" to="#808080" begin="arrowUp.mouseover" end="arrowUp.mouseout"/>
                  </use>
                  <path fill="none" stroke="white" stroke-width="1.5" d="M0,-3.0v7 M-2.5,-0.5L0,-3.0L2.5,-0.5"/>
                </g>
                <g id="arrowRight" xlink:href="#dirArrow" transform="rotate(90) translate(36 -43)" onmousedown="handlePan(1,0)">
                  <use xlink:href="#rim" fill="#404040">
                        <set attributeName="fill" to="#808080" begin="arrowRight.mouseover" end="arrowRight.mouseout"/>
                  </use>
                  <path fill="none" stroke="white" stroke-width="1.5" d="M0,-3.0v7 M-2.5,-0.5L0,-3.0L2.5,-0.5"/>
                </g>
                <g id="arrowDown" xlink:href="#dirArrow" transform="rotate(180) translate(-30 -48)" onmousedown="handlePan(0,1)">
                  <use xlink:href="#rim" fill="#404040">
                        <set attributeName="fill" to="#808080" begin="arrowDown.mouseover" end="arrowDown.mouseout"/>
                  </use>
                  <path fill="none" stroke="white" stroke-width="1.5" d="M0,-3.0v7 M-2.5,-0.5L0,-3.0L2.5,-0.5"/>
                </g>
                <g id="arrowLeft" xlink:href="#dirArrow" transform="rotate(270) translate(-36 17)" onmousedown="handlePan(-1,0)">
                  <use xlink:href="#rim" fill="#404040">
                        <set attributeName="fill" to="#808080" begin="arrowLeft.mouseover" end="arrowLeft.mouseout"/>
                  </use>
                  <path fill="none" stroke="white" stroke-width="1.5" d="M0,-3.0v7 M-2.5,-0.5L0,-3.0L2.5,-0.5"/>
                </g>
        </g>
        <svg viewBox="0 0 15 15" width="100%" height="30px" preserveAspectRatio="xMaxYMin meet">
         <g id="arrow_out" transform="scale(0.3 0.3)">
          <a xlink:href="classft_1_1irc_1_1bot__handler__coll__graph_org.svg" target="_base">
           <rect id="button" ry="5" rx="5" y="6" x="6" height="38" width="38"
                fill="#f2f5e9" fill-opacity="0.5" stroke="#606060" stroke-width="1.0"/>
           <path id="arrow"
             d="M 11.500037,31.436501 C 11.940474,20.09759 22.043105,11.32322 32.158766,21.979434 L 37.068811,17.246167 C 37.068811,17.246167 37.088388,32 37.088388,32 L 22.160133,31.978069 C 22.160133,31.978069 26.997745,27.140456 26.997745,27.140456 C 18.528582,18.264221 13.291696,25.230495 11.500037,31.436501 z"
             style="fill:#404040;"/>
          </a>
         </g>
        </svg>
</svg>
