<?xml version="1.0" encoding="UTF-8" standalone="no"?>
<!DOCTYPE svg PUBLIC "-//W3C//DTD SVG 1.1//EN"
 "http://www.w3.org/Graphics/SVG/1.1/DTD/svg11.dtd">
<!-- Generated by graphviz version 2.43.0 (0)
 -->
<!-- Title: ft::irc::processor_nick::execute Pages: 1 -->
<!--zoomable 645 -->
<svg id="main" version="1.1" xmlns="http://www.w3.org/2000/svg" xmlns:xlink="http://www.w3.org/1999/xlink" xml:space="preserve" onload="init(evt)">
<style type="text/css"><![CDATA[
.edge:hover path { stroke: red; }
.edge:hover polygon { stroke: red; fill: red; }
]]></style>
<script type="text/javascript"><![CDATA[
var edges = document.getElementsByTagName('g');
if (edges && edges.length) {
  for (var i=0;i<edges.length;i++) {
    if (edges[i].id.substr(0,4)=='edge') {
      edges[i].setAttribute('class','edge');
    }
  }
}
]]></script>
        <defs>
                <circle id="rim" cx="0" cy="0" r="7"/>
                <circle id="rim2" cx="0" cy="0" r="3.5"/>
                <g id="zoomPlus">
                        <use xlink:href="#rim" fill="#404040">
                                <set attributeName="fill" to="#808080" begin="zoomplus.mouseover" end="zoomplus.mouseout"/>
                        </use>
                        <path d="M-4,0h8M0,-4v8" fill="none" stroke="white" stroke-width="1.5" pointer-events="none"/>
                </g>
                <g id="zoomMin">
                        <use xlink:href="#rim" fill="#404040">
                                <set attributeName="fill" to="#808080" begin="zoomminus.mouseover" end="zoomminus.mouseout"/>
                        </use>
                        <path d="M-4,0h8" fill="none" stroke="white" stroke-width="1.5" pointer-events="none"/>
                </g>
                <g id="dirArrow">
                        <path fill="none" stroke="white" stroke-width="1.5" d="M0,-3.0v7 M-2.5,-0.5L0,-3.0L2.5,-0.5"/>
                </g>
               <g id="resetDef">
                       <use xlink:href="#rim2" fill="#404040">
                               <set attributeName="fill" to="#808080" begin="reset.mouseover" end="reset.mouseout"/>
                       </use>
               </g>
        </defs>

<script type="text/javascript">
var viewWidth = 726;
var viewHeight = 645;
var sectionId = 'dynsection-2';
</script>
<script xlink:href="svgpan.js"/>
<svg id="graph" class="graph">
<g id="viewport">
<title>ft::irc::processor_nick::execute</title>
<polygon fill="white" stroke="transparent" points="-4,4 -4,-640.5 722,-640.5 722,4 -4,4"/>
<!-- Node1 -->
<g id="node1" class="node">
<title>Node1</title>
<g id="a_node1"><a xlink:title=" ">
<polygon fill="#bfbfbf" stroke="black" points="0,-337.5 0,-367.5 95,-367.5 95,-337.5 0,-337.5"/>
<text text-anchor="start" x="8" y="-355.5" font-family="Helvetica,sans-Serif" font-size="10.00">ft::irc::processor</text>
<text text-anchor="middle" x="47.5" y="-344.5" font-family="Helvetica,sans-Serif" font-size="10.00">_nick::execute</text>
</a>
</g>
</g>
<!-- Node2 -->
<g id="node2" class="node">
<title>Node2</title>
<g id="a_node2"><a xlink:href="classft_1_1irc_1_1user.html#af02e786035bc1122895f36f9db8f2c9a" target="_top" xlink:title=" ">
<polygon fill="white" stroke="black" points="132,-598 132,-617 267,-617 267,-598 132,-598"/>
<text text-anchor="middle" x="199.5" y="-605" font-family="Helvetica,sans-Serif" font-size="10.00">ft::irc::user::change_nick</text>
</a>
</g>
</g>
<!-- Node1&#45;&gt;Node2 -->
<g id="edge1" class="edge">
<title>Node1&#45;&gt;Node2</title>
<path fill="none" stroke="midnightblue" d="M49.18,-367.76C51.87,-409.52 65.22,-526.67 131,-588.5 132.66,-590.06 134.43,-591.49 136.3,-592.81"/>
<polygon fill="midnightblue" stroke="midnightblue" points="134.59,-595.86 144.99,-597.86 138.11,-589.81 134.59,-595.86"/>
</g>
<!-- Node7 -->
<g id="node7" class="node">
<title>Node7</title>
<g id="a_node7"><a xlink:href="structft_1_1irc_1_1make__error.html#ad5903961eb9531f4dad67b0259119c8e" target="_top" xlink:title=" ">
<polygon fill="white" stroke="black" points="137,-548.5 137,-578.5 262,-578.5 262,-548.5 137,-548.5"/>
<text text-anchor="start" x="145" y="-566.5" font-family="Helvetica,sans-Serif" font-size="10.00">ft::irc::make_error</text>
<text text-anchor="middle" x="199.5" y="-555.5" font-family="Helvetica,sans-Serif" font-size="10.00">::erroneous_nickname</text>
</a>
</g>
</g>
<!-- Node1&#45;&gt;Node7 -->
<g id="edge7" class="edge">
<title>Node1&#45;&gt;Node7</title>
<path fill="none" stroke="midnightblue" d="M51,-367.7C57.58,-402.93 78.61,-490.84 131,-539.5 132.28,-540.69 133.63,-541.83 135.03,-542.91"/>
<polygon fill="midnightblue" stroke="midnightblue" points="133.27,-545.93 143.55,-548.49 137.11,-540.08 133.27,-545.93"/>
</g>
<!-- Node8 -->
<g id="node8" class="node">
<title>Node8</title>
<g id="a_node8"><a xlink:href="classft_1_1irc_1_1user.html#a080531f81f28fd4b65d15f603d1af818" target="_top" xlink:title=" ">
<polygon fill="white" stroke="black" points="154.5,-499.5 154.5,-529.5 244.5,-529.5 244.5,-499.5 154.5,-499.5"/>
<text text-anchor="start" x="162.5" y="-517.5" font-family="Helvetica,sans-Serif" font-size="10.00">ft::irc::user::get</text>
<text text-anchor="middle" x="199.5" y="-506.5" font-family="Helvetica,sans-Serif" font-size="10.00">_register_state</text>
</a>
</g>
</g>
<!-- Node1&#45;&gt;Node8 -->
<g id="edge8" class="edge">
<title>Node1&#45;&gt;Node8</title>
<path fill="none" stroke="midnightblue" d="M53.69,-367.53C64.07,-395.44 89.95,-455.5 131,-489.5 135.27,-493.04 140.09,-496.1 145.14,-498.74"/>
<polygon fill="midnightblue" stroke="midnightblue" points="143.86,-502.01 154.4,-503.07 146.82,-495.67 143.86,-502.01"/>
</g>
<!-- Node9 -->
<g id="node9" class="node">
<title>Node9</title>
<g id="a_node9"><a xlink:href="classft_1_1irc_1_1user.html#a7d133deb3a63faa2627b50cbbdf3a607" target="_top" xlink:title=" ">
<polygon fill="white" stroke="black" points="131,-461 131,-480 268,-480 268,-461 131,-461"/>
<text text-anchor="middle" x="199.5" y="-468" font-family="Helvetica,sans-Serif" font-size="10.00">ft::irc::user::is_registered</text>
</a>
</g>
</g>
<!-- Node1&#45;&gt;Node9 -->
<g id="edge9" class="edge">
<title>Node1&#45;&gt;Node9</title>
<path fill="none" stroke="midnightblue" d="M57.06,-367.7C70.15,-389.55 97.21,-429.59 131,-451.5 134.15,-453.54 137.52,-455.37 141,-457"/>
<polygon fill="midnightblue" stroke="midnightblue" points="139.88,-460.32 150.46,-460.88 142.54,-453.84 139.88,-460.32"/>
</g>
<!-- Node10 -->
<g id="node10" class="node">
<title>Node10</title>
<g id="a_node10"><a xlink:href="structft_1_1irc_1_1string__utils.html#a2fcf209970f5b02422129e1d9ff28a72" target="_top" xlink:title=" ">
<polygon fill="white" stroke="black" points="149,-411.5 149,-441.5 250,-441.5 250,-411.5 149,-411.5"/>
<text text-anchor="start" x="157" y="-429.5" font-family="Helvetica,sans-Serif" font-size="10.00">ft::irc::string_utils</text>
<text text-anchor="middle" x="199.5" y="-418.5" font-family="Helvetica,sans-Serif" font-size="10.00">::is_valid_nick</text>
</a>
</g>
</g>
<!-- Node1&#45;&gt;Node10 -->
<g id="edge10" class="edge">
<title>Node1&#45;&gt;Node10</title>
<path fill="none" stroke="midnightblue" d="M70.57,-367.57C86.81,-378.23 109.67,-392.37 131,-402.5 134.79,-404.3 138.76,-406.04 142.78,-407.71"/>
<polygon fill="midnightblue" stroke="midnightblue" points="141.65,-411.03 152.24,-411.47 144.24,-404.52 141.65,-411.03"/>
</g>
<!-- Node14 -->
<g id="node14" class="node">
<title>Node14</title>
<g id="a_node14"><a xlink:href="structft_1_1irc_1_1make__error.html#ab839953e26290b6d6af9bebee99cb363" target="_top" xlink:title=" ">
<polygon fill="white" stroke="black" points="146,-362.5 146,-392.5 253,-392.5 253,-362.5 146,-362.5"/>
<text text-anchor="start" x="154" y="-380.5" font-family="Helvetica,sans-Serif" font-size="10.00">ft::irc::make_error</text>
<text text-anchor="middle" x="199.5" y="-369.5" font-family="Helvetica,sans-Serif" font-size="10.00">::nickname_in_use</text>
</a>
</g>
</g>
<!-- Node1&#45;&gt;Node14 -->
<g id="edge14" class="edge">
<title>Node1&#45;&gt;Node14</title>
<path fill="none" stroke="midnightblue" d="M95.14,-360.27C107.95,-362.41 122.07,-364.76 135.63,-367.02"/>
<polygon fill="midnightblue" stroke="midnightblue" points="135.43,-370.54 145.87,-368.73 136.58,-363.63 135.43,-370.54"/>
</g>
<!-- Node15 -->
<g id="node15" class="node">
<title>Node15</title>
<g id="a_node15"><a xlink:href="structft_1_1irc_1_1make__error.html#afae7f78584d05823e980db71ab6a19a4" target="_top" xlink:title=" ">
<polygon fill="white" stroke="black" points="139.5,-313.5 139.5,-343.5 259.5,-343.5 259.5,-313.5 139.5,-313.5"/>
<text text-anchor="start" x="147.5" y="-331.5" font-family="Helvetica,sans-Serif" font-size="10.00">ft::irc::make_error</text>
<text text-anchor="middle" x="199.5" y="-320.5" font-family="Helvetica,sans-Serif" font-size="10.00">::no_nickname_given</text>
</a>
</g>
</g>
<!-- Node1&#45;&gt;Node15 -->
<g id="edge15" class="edge">
<title>Node1&#45;&gt;Node15</title>
<path fill="none" stroke="midnightblue" d="M95.14,-345.04C105.98,-343.3 117.75,-341.42 129.33,-339.57"/>
<polygon fill="midnightblue" stroke="midnightblue" points="130.11,-342.99 139.44,-337.95 129.01,-336.07 130.11,-342.99"/>
</g>
<!-- Node16 -->
<g id="node16" class="node">
<title>Node16</title>
<g id="a_node16"><a xlink:href="classft_1_1irc_1_1user.html#a29eb92f8b7e66851cd4634d98aa57dc6" target="_top" xlink:title=" ">
<polygon fill="white" stroke="black" points="148.5,-264.5 148.5,-294.5 250.5,-294.5 250.5,-264.5 148.5,-264.5"/>
<text text-anchor="start" x="156.5" y="-282.5" font-family="Helvetica,sans-Serif" font-size="10.00">ft::irc::user::notify</text>
<text text-anchor="middle" x="199.5" y="-271.5" font-family="Helvetica,sans-Serif" font-size="10.00">_message</text>
</a>
</g>
</g>
<!-- Node1&#45;&gt;Node16 -->
<g id="edge16" class="edge">
<title>Node1&#45;&gt;Node16</title>
<path fill="none" stroke="midnightblue" d="M72.1,-337.31C88.28,-327.25 110.47,-314.19 131,-304.5 135.55,-302.36 140.33,-300.27 145.16,-298.27"/>
<polygon fill="midnightblue" stroke="midnightblue" points="146.48,-301.51 154.47,-294.56 143.89,-295.01 146.48,-301.51"/>
</g>
<!-- Node19 -->
<g id="node19" class="node">
<title>Node19</title>
<g id="a_node19"><a xlink:href="classft_1_1irc_1_1user.html#affa6016f0c81205cd3c60ea6e9706132" target="_top" xlink:title=" ">
<polygon fill="white" stroke="black" points="143.5,-215.5 143.5,-245.5 255.5,-245.5 255.5,-215.5 143.5,-215.5"/>
<text text-anchor="start" x="151.5" y="-233.5" font-family="Helvetica,sans-Serif" font-size="10.00">ft::irc::user::register</text>
<text text-anchor="middle" x="199.5" y="-222.5" font-family="Helvetica,sans-Serif" font-size="10.00">_to_server</text>
</a>
</g>
</g>
<!-- Node1&#45;&gt;Node19 -->
<g id="edge19" class="edge">
<title>Node1&#45;&gt;Node19</title>
<path fill="none" stroke="midnightblue" d="M57.83,-337.25C71.46,-316.14 98.75,-278.05 131,-255.5 133.71,-253.6 136.59,-251.83 139.56,-250.18"/>
<polygon fill="midnightblue" stroke="midnightblue" points="141.36,-253.19 148.72,-245.57 138.21,-246.94 141.36,-253.19"/>
</g>
<!-- Node31 -->
<g id="node31" class="node">
<title>Node31</title>
<g id="a_node31"><a xlink:href="classft_1_1irc_1_1user.html#a1db558d6d694ca943224c2440fe36c50" target="_top" xlink:title=" ">
<polygon fill="white" stroke="black" points="491,-0.5 491,-30.5 589,-30.5 589,-0.5 491,-0.5"/>
<text text-anchor="start" x="499" y="-18.5" font-family="Helvetica,sans-Serif" font-size="10.00">ft::irc::user::send</text>
<text text-anchor="middle" x="540" y="-7.5" font-family="Helvetica,sans-Serif" font-size="10.00">_message</text>
</a>
</g>
</g>
<!-- Node1&#45;&gt;Node31 -->
<g id="edge33" class="edge">
<title>Node1&#45;&gt;Node31</title>
<path fill="none" stroke="midnightblue" d="M53.43,-337.15C63.53,-307.96 89.19,-244.04 131,-206.5 180.33,-162.21 207.78,-175.23 268,-147.5 366.94,-101.94 389.83,-86.69 488,-39.5 491.14,-37.99 494.39,-36.44 497.66,-34.88"/>
<polygon fill="midnightblue" stroke="midnightblue" points="499.32,-37.97 506.86,-30.53 496.32,-31.64 499.32,-37.97"/>
</g>
<!-- Node32 -->
<g id="node32" class="node">
<title>Node32</title>
<g id="a_node32"><a xlink:href="structft_1_1irc_1_1make__reply.html#a5bc514d5b05cc15d799aba1944a18386" target="_top" xlink:title=" ">
<polygon fill="white" stroke="black" points="147.5,-108.5 147.5,-138.5 251.5,-138.5 251.5,-108.5 147.5,-108.5"/>
<text text-anchor="start" x="155.5" y="-126.5" font-family="Helvetica,sans-Serif" font-size="10.00">ft::irc::make_reply</text>
<text text-anchor="middle" x="199.5" y="-115.5" font-family="Helvetica,sans-Serif" font-size="10.00">::replicate</text>
</a>
</g>
</g>
<!-- Node1&#45;&gt;Node32 -->
<g id="edge32" class="edge">
<title>Node1&#45;&gt;Node32</title>
<path fill="none" stroke="midnightblue" d="M50.83,-337.43C57.18,-301.14 78,-207.86 131,-153.5 134.6,-149.81 138.74,-146.53 143.15,-143.64"/>
<polygon fill="midnightblue" stroke="midnightblue" points="145.03,-146.59 151.91,-138.53 141.51,-140.55 145.03,-146.59"/>
</g>
<!-- Node33 -->
<g id="node33" class="node">
<title>Node33</title>
<g id="a_node33"><a xlink:href="classft_1_1irc_1_1user.html#a9bf0e20ae3e94760f4d135790e2877d8" target="_top" xlink:title=" ">
<polygon fill="white" stroke="black" points="155,-59.5 155,-89.5 244,-89.5 244,-59.5 155,-59.5"/>
<text text-anchor="start" x="163" y="-77.5" font-family="Helvetica,sans-Serif" font-size="10.00">ft::irc::user::set</text>
<text text-anchor="middle" x="199.5" y="-66.5" font-family="Helvetica,sans-Serif" font-size="10.00">_register_state</text>
</a>
</g>
</g>
<!-- Node1&#45;&gt;Node33 -->
<g id="edge34" class="edge">
<title>Node1&#45;&gt;Node33</title>
<path fill="none" stroke="midnightblue" d="M48.97,-337.29C51.14,-293.9 63.27,-168.12 131,-98.5 135.17,-94.22 140.15,-90.7 145.49,-87.8"/>
<polygon fill="midnightblue" stroke="midnightblue" points="147.15,-90.89 154.74,-83.5 144.2,-84.54 147.15,-90.89"/>
</g>
<!-- Node3 -->
<g id="node3" class="node">
<title>Node3</title>
<g id="a_node3"><a xlink:href="classft_1_1irc_1_1server.html#ab534369c5d538fbf60852889a7d8127b" target="_top" xlink:title=" ">
<polygon fill="white" stroke="black" points="312.5,-617 312.5,-636 443.5,-636 443.5,-617 312.5,-617"/>
<text text-anchor="middle" x="378" y="-624" font-family="Helvetica,sans-Serif" font-size="10.00">ft::irc::server::hold_nick</text>
</a>
</g>
</g>
<!-- Node2&#45;&gt;Node3 -->
<g id="edge2" class="edge">
<title>Node2&#45;&gt;Node3</title>
<path fill="none" stroke="midnightblue" d="M267.23,-614.68C278.63,-615.91 290.54,-617.19 302.14,-618.44"/>
<polygon fill="midnightblue" stroke="midnightblue" points="301.91,-621.94 312.22,-619.53 302.66,-614.98 301.91,-621.94"/>
</g>
<!-- Node6 -->
<g id="node6" class="node">
<title>Node6</title>
<g id="a_node6"><a xlink:href="classft_1_1irc_1_1server.html#a2f4c8826af7867f18ed67c1b9dabf65f" target="_top" xlink:title=" ">
<polygon fill="white" stroke="black" points="305,-579 305,-598 451,-598 451,-579 305,-579"/>
<text text-anchor="middle" x="378" y="-586" font-family="Helvetica,sans-Serif" font-size="10.00">ft::irc::server::release_nick</text>
</a>
</g>
</g>
<!-- Node2&#45;&gt;Node6 -->
<g id="edge5" class="edge">
<title>Node2&#45;&gt;Node6</title>
<path fill="none" stroke="midnightblue" d="M267.23,-600.32C276.26,-599.34 285.61,-598.34 294.88,-597.34"/>
<polygon fill="midnightblue" stroke="midnightblue" points="295.3,-600.81 304.87,-596.26 294.56,-593.85 295.3,-600.81"/>
</g>
<!-- Node4 -->
<g id="node4" class="node">
<title>Node4</title>
<g id="a_node4"><a xlink:href="structft_1_1irc_1_1string__utils.html#a367a22012cc0d2d25959ac3f4e5d33a9" target="_top" xlink:title=" ">
<polygon fill="white" stroke="black" points="489.5,-592.5 489.5,-622.5 590.5,-622.5 590.5,-592.5 489.5,-592.5"/>
<text text-anchor="start" x="497.5" y="-610.5" font-family="Helvetica,sans-Serif" font-size="10.00">ft::irc::string_utils</text>
<text text-anchor="middle" x="540" y="-599.5" font-family="Helvetica,sans-Serif" font-size="10.00">::to_lower</text>
</a>
</g>
</g>
<!-- Node3&#45;&gt;Node4 -->
<g id="edge3" class="edge">
<title>Node3&#45;&gt;Node4</title>
<path fill="none" stroke="midnightblue" d="M443.62,-618.83C455.42,-617.42 467.69,-615.97 479.35,-614.58"/>
<polygon fill="midnightblue" stroke="midnightblue" points="479.88,-618.04 489.4,-613.39 479.06,-611.09 479.88,-618.04"/>
</g>
<!-- Node5 -->
<g id="node5" class="node">
<title>Node5</title>
<g id="a_node5"><a xlink:href="namespaceft_1_1irc_1_1__internal.html#aa76c3a369f64725f8b2b52b2131c1111" target="_top" xlink:title=" ">
<polygon fill="white" stroke="black" points="628,-592.5 628,-622.5 718,-622.5 718,-592.5 628,-592.5"/>
<text text-anchor="start" x="636" y="-610.5" font-family="Helvetica,sans-Serif" font-size="10.00">ft::irc::_internal</text>
<text text-anchor="middle" x="673" y="-599.5" font-family="Helvetica,sans-Serif" font-size="10.00">::_to_lower</text>
</a>
</g>
</g>
<!-- Node4&#45;&gt;Node5 -->
<g id="edge4" class="edge">
<title>Node4&#45;&gt;Node5</title>
<path fill="none" stroke="midnightblue" d="M590.53,-607.5C599.47,-607.5 608.85,-607.5 617.92,-607.5"/>
<polygon fill="midnightblue" stroke="midnightblue" points="617.99,-611 627.99,-607.5 617.99,-604 617.99,-611"/>
</g>
<!-- Node6&#45;&gt;Node4 -->
<g id="edge6" class="edge">
<title>Node6&#45;&gt;Node4</title>
<path fill="none" stroke="midnightblue" d="M451.04,-597.06C460.44,-598.17 469.99,-599.31 479.16,-600.39"/>
<polygon fill="midnightblue" stroke="midnightblue" points="478.99,-603.9 489.33,-601.6 479.81,-596.95 478.99,-603.9"/>
</g>
<!-- Node11 -->
<g id="node11" class="node">
<title>Node11</title>
<g id="a_node11"><a xlink:href="namespaceft_1_1irc_1_1__internal.html#aa09b5b82c4d1b76615be6743cbebbc26" target="_top" xlink:title=" ">
<polygon fill="white" stroke="black" points="333,-480.5 333,-510.5 423,-510.5 423,-480.5 333,-480.5"/>
<text text-anchor="start" x="341" y="-498.5" font-family="Helvetica,sans-Serif" font-size="10.00">ft::irc::_internal</text>
<text text-anchor="middle" x="378" y="-487.5" font-family="Helvetica,sans-Serif" font-size="10.00">::_is_digit</text>
</a>
</g>
</g>
<!-- Node10&#45;&gt;Node11 -->
<g id="edge11" class="edge">
<title>Node10&#45;&gt;Node11</title>
<path fill="none" stroke="midnightblue" d="M244.11,-441.54C252.14,-444.62 260.39,-448 268,-451.5 284.63,-459.15 287.23,-464.16 304,-471.5 310.16,-474.19 316.72,-476.76 323.29,-479.14"/>
<polygon fill="midnightblue" stroke="midnightblue" points="322.28,-482.49 332.87,-482.49 324.59,-475.88 322.28,-482.49"/>
</g>
<!-- Node12 -->
<g id="node12" class="node">
<title>Node12</title>
<g id="a_node12"><a xlink:href="namespaceft_1_1irc_1_1__internal.html#aac87e93bf38aaa3cfff8f8e8f57a1518" target="_top" xlink:title=" ">
<polygon fill="white" stroke="black" points="333,-431.5 333,-461.5 423,-461.5 423,-431.5 333,-431.5"/>
<text text-anchor="start" x="341" y="-449.5" font-family="Helvetica,sans-Serif" font-size="10.00">ft::irc::_internal</text>
<text text-anchor="middle" x="378" y="-438.5" font-family="Helvetica,sans-Serif" font-size="10.00">::_is_letter</text>
</a>
</g>
</g>
<!-- Node10&#45;&gt;Node12 -->
<g id="edge12" class="edge">
<title>Node10&#45;&gt;Node12</title>
<path fill="none" stroke="midnightblue" d="M250.13,-432.12C272.78,-434.69 299.66,-437.74 322.83,-440.36"/>
<polygon fill="midnightblue" stroke="midnightblue" points="322.52,-443.85 332.85,-441.5 323.31,-436.89 322.52,-443.85"/>
</g>
<!-- Node13 -->
<g id="node13" class="node">
<title>Node13</title>
<g id="a_node13"><a xlink:href="namespaceft_1_1irc_1_1__internal.html#a4887961e67bbcef2eab718aeff25bfc2" target="_top" xlink:title=" ">
<polygon fill="white" stroke="black" points="333,-382.5 333,-412.5 423,-412.5 423,-382.5 333,-382.5"/>
<text text-anchor="start" x="341" y="-400.5" font-family="Helvetica,sans-Serif" font-size="10.00">ft::irc::_internal</text>
<text text-anchor="middle" x="378" y="-389.5" font-family="Helvetica,sans-Serif" font-size="10.00">::_is_special</text>
</a>
</g>
</g>
<!-- Node10&#45;&gt;Node13 -->
<g id="edge13" class="edge">
<title>Node10&#45;&gt;Node13</title>
<path fill="none" stroke="midnightblue" d="M250.13,-418.34C272.78,-414.62 299.66,-410.21 322.83,-406.4"/>
<polygon fill="midnightblue" stroke="midnightblue" points="323.55,-409.83 332.85,-404.75 322.41,-402.92 323.55,-409.83"/>
</g>
<!-- Node17 -->
<g id="node17" class="node">
<title>Node17</title>
<g id="a_node17"><a xlink:href="classft_1_1irc_1_1channel.html#a3b2b7e0ac9e2122b7f9e26ce7a851e3f" target="_top" xlink:title=" ">
<polygon fill="white" stroke="black" points="308,-333.5 308,-363.5 448,-363.5 448,-333.5 308,-333.5"/>
<text text-anchor="start" x="316" y="-351.5" font-family="Helvetica,sans-Serif" font-size="10.00">ft::irc::channel::broadcast</text>
<text text-anchor="middle" x="378" y="-340.5" font-family="Helvetica,sans-Serif" font-size="10.00">_unique</text>
</a>
</g>
</g>
<!-- Node16&#45;&gt;Node17 -->
<g id="edge17" class="edge">
<title>Node16&#45;&gt;Node17</title>
<path fill="none" stroke="midnightblue" d="M244.11,-294.54C252.14,-297.62 260.39,-301 268,-304.5 284.63,-312.15 287.23,-317.16 304,-324.5 308.35,-326.4 312.91,-328.24 317.53,-330"/>
<polygon fill="midnightblue" stroke="midnightblue" points="316.45,-333.33 327.05,-333.48 318.86,-326.76 316.45,-333.33"/>
</g>
<!-- Node18 -->
<g id="node18" class="node">
<title>Node18</title>
<g id="a_node18"><a xlink:href="classft_1_1irc_1_1server.html#a0e7dee7efef3f36af15d1a3b97f3bad9" target="_top" xlink:title=" ">
<polygon fill="white" stroke="black" points="327,-284.5 327,-314.5 429,-314.5 429,-284.5 327,-284.5"/>
<text text-anchor="start" x="335" y="-302.5" font-family="Helvetica,sans-Serif" font-size="10.00">ft::irc::server::find</text>
<text text-anchor="middle" x="378" y="-291.5" font-family="Helvetica,sans-Serif" font-size="10.00">_channel</text>
</a>
</g>
</g>
<!-- Node16&#45;&gt;Node18 -->
<g id="edge18" class="edge">
<title>Node16&#45;&gt;Node18</title>
<path fill="none" stroke="midnightblue" d="M250.61,-285.18C271.19,-287.51 295.21,-290.23 316.75,-292.67"/>
<polygon fill="midnightblue" stroke="midnightblue" points="316.44,-296.16 326.77,-293.81 317.23,-289.2 316.44,-296.16"/>
</g>
<!-- Node20 -->
<g id="node20" class="node">
<title>Node20</title>
<g id="a_node20"><a xlink:href="classft_1_1irc_1_1server.html#a9bd0c0f5521a9d823a4d097099ebe4da" target="_top" xlink:title=" ">
<polygon fill="white" stroke="black" points="304,-246 304,-265 452,-265 452,-246 304,-246"/>
<text text-anchor="middle" x="378" y="-253" font-family="Helvetica,sans-Serif" font-size="10.00">ft::irc::server::register_user</text>
</a>
</g>
</g>
<!-- Node19&#45;&gt;Node20 -->
<g id="edge20" class="edge">
<title>Node19&#45;&gt;Node20</title>
<path fill="none" stroke="midnightblue" d="M255.86,-238.34C269.74,-240.31 284.89,-242.45 299.63,-244.54"/>
<polygon fill="midnightblue" stroke="midnightblue" points="299.35,-248.04 309.75,-245.97 300.34,-241.11 299.35,-248.04"/>
</g>
<!-- Node21 -->
<g id="node21" class="node">
<title>Node21</title>
<g id="a_node21"><a xlink:href="classft_1_1irc_1_1server.html#a5ecd192da409f6740de44ea8cb3b44cf" target="_top" xlink:title=" ">
<polygon fill="white" stroke="black" points="324.5,-196.5 324.5,-226.5 431.5,-226.5 431.5,-196.5 324.5,-196.5"/>
<text text-anchor="start" x="332.5" y="-214.5" font-family="Helvetica,sans-Serif" font-size="10.00">ft::irc::server::send</text>
<text text-anchor="middle" x="378" y="-203.5" font-family="Helvetica,sans-Serif" font-size="10.00">_welcome</text>
</a>
</g>
</g>
<!-- Node19&#45;&gt;Node21 -->
<g id="edge21" class="edge">
<title>Node19&#45;&gt;Node21</title>
<path fill="none" stroke="midnightblue" d="M255.86,-224.54C274.37,-222.55 295.13,-220.31 314.17,-218.26"/>
<polygon fill="midnightblue" stroke="midnightblue" points="314.68,-221.73 324.25,-217.18 313.93,-214.77 314.68,-221.73"/>
</g>
<!-- Node22 -->
<g id="node22" class="node">
<title>Node22</title>
<g id="a_node22"><a xlink:href="structft_1_1irc_1_1make__reply.html#ad65f94ea29a9d677937915bf6d92aed2" target="_top" xlink:title=" ">
<polygon fill="white" stroke="black" points="488,-441.5 488,-471.5 592,-471.5 592,-441.5 488,-441.5"/>
<text text-anchor="start" x="496" y="-459.5" font-family="Helvetica,sans-Serif" font-size="10.00">ft::irc::make_reply</text>
<text text-anchor="middle" x="540" y="-448.5" font-family="Helvetica,sans-Serif" font-size="10.00">::end_of_motd</text>
</a>
</g>
</g>
<!-- Node21&#45;&gt;Node22 -->
<g id="edge22" class="edge">
<title>Node21&#45;&gt;Node22</title>
<path fill="none" stroke="midnightblue" d="M431.52,-221.8C439.27,-225.35 446.49,-230.11 452,-236.5 509.82,-303.59 433.96,-362.33 488,-432.5 488.57,-433.25 489.18,-433.97 489.81,-434.67"/>
<polygon fill="midnightblue" stroke="midnightblue" points="487.6,-437.39 497.41,-441.4 492.24,-432.15 487.6,-437.39"/>
</g>
<!-- Node23 -->
<g id="node23" class="node">
<title>Node23</title>
<g id="a_node23"><a xlink:href="structft_1_1irc_1_1make__reply.html#a8b9bcf59a27ddd2ee02c3b46f3e7fe8d" target="_top" xlink:title=" ">
<polygon fill="white" stroke="black" points="488,-392.5 488,-422.5 592,-422.5 592,-392.5 488,-392.5"/>
<text text-anchor="start" x="496" y="-410.5" font-family="Helvetica,sans-Serif" font-size="10.00">ft::irc::make_reply</text>
<text text-anchor="middle" x="540" y="-399.5" font-family="Helvetica,sans-Serif" font-size="10.00">::luser_channels</text>
</a>
</g>
</g>
<!-- Node21&#45;&gt;Node23 -->
<g id="edge23" class="edge">
<title>Node21&#45;&gt;Node23</title>
<path fill="none" stroke="midnightblue" d="M431.57,-222.25C439.23,-225.74 446.4,-230.37 452,-236.5 497.38,-286.15 445.41,-331.43 488,-383.5 488.6,-384.23 489.22,-384.94 489.87,-385.63"/>
<polygon fill="midnightblue" stroke="midnightblue" points="487.73,-388.41 497.61,-392.24 492.28,-383.08 487.73,-388.41"/>
</g>
<!-- Node24 -->
<g id="node24" class="node">
<title>Node24</title>
<g id="a_node24"><a xlink:href="structft_1_1irc_1_1make__reply.html#a906cd29c737f934c0f9b89b13338dcde" target="_top" xlink:title=" ">
<polygon fill="white" stroke="black" points="488,-343.5 488,-373.5 592,-373.5 592,-343.5 488,-343.5"/>
<text text-anchor="start" x="496" y="-361.5" font-family="Helvetica,sans-Serif" font-size="10.00">ft::irc::make_reply</text>
<text text-anchor="middle" x="540" y="-350.5" font-family="Helvetica,sans-Serif" font-size="10.00">::luser_client</text>
</a>
</g>
</g>
<!-- Node21&#45;&gt;Node24 -->
<g id="edge24" class="edge">
<title>Node21&#45;&gt;Node24</title>
<path fill="none" stroke="midnightblue" d="M431.75,-223.14C439.19,-226.52 446.25,-230.88 452,-236.5 485.17,-268.95 456.66,-300.28 488,-334.5 488.87,-335.45 489.79,-336.37 490.75,-337.26"/>
<polygon fill="midnightblue" stroke="midnightblue" points="488.68,-340.08 498.74,-343.41 492.95,-334.54 488.68,-340.08"/>
</g>
<!-- Node25 -->
<g id="node25" class="node">
<title>Node25</title>
<g id="a_node25"><a xlink:href="structft_1_1irc_1_1make__reply.html#a5e821ad6544810b4534a631fd1957a2d" target="_top" xlink:title=" ">
<polygon fill="white" stroke="black" points="488,-294.5 488,-324.5 592,-324.5 592,-294.5 488,-294.5"/>
<text text-anchor="start" x="496" y="-312.5" font-family="Helvetica,sans-Serif" font-size="10.00">ft::irc::make_reply</text>
<text text-anchor="middle" x="540" y="-301.5" font-family="Helvetica,sans-Serif" font-size="10.00">::luser_me</text>
</a>
</g>
</g>
<!-- Node21&#45;&gt;Node25 -->
<g id="edge25" class="edge">
<title>Node21&#45;&gt;Node25</title>
<path fill="none" stroke="midnightblue" d="M431.6,-225.14C438.81,-228.23 445.85,-231.98 452,-236.5 473.78,-252.5 467.13,-268.33 488,-285.5 489.5,-286.74 491.08,-287.92 492.71,-289.07"/>
<polygon fill="midnightblue" stroke="midnightblue" points="490.87,-292.05 501.21,-294.38 494.58,-286.11 490.87,-292.05"/>
</g>
<!-- Node26 -->
<g id="node26" class="node">
<title>Node26</title>
<g id="a_node26"><a xlink:href="structft_1_1irc_1_1make__reply.html#a6f79a81e7858f8037bb0b092bfb2a503" target="_top" xlink:title=" ">
<polygon fill="white" stroke="black" points="488,-245.5 488,-275.5 592,-275.5 592,-245.5 488,-245.5"/>
<text text-anchor="start" x="496" y="-263.5" font-family="Helvetica,sans-Serif" font-size="10.00">ft::irc::make_reply</text>
<text text-anchor="middle" x="540" y="-252.5" font-family="Helvetica,sans-Serif" font-size="10.00">::luser_operator</text>
</a>
</g>
</g>
<!-- Node21&#45;&gt;Node26 -->
<g id="edge26" class="edge">
<title>Node21&#45;&gt;Node26</title>
<path fill="none" stroke="midnightblue" d="M428.31,-226.6C444.66,-231.61 463.02,-237.23 480.03,-242.44"/>
<polygon fill="midnightblue" stroke="midnightblue" points="479.27,-245.87 489.85,-245.45 481.32,-239.17 479.27,-245.87"/>
</g>
<!-- Node27 -->
<g id="node27" class="node">
<title>Node27</title>
<g id="a_node27"><a xlink:href="structft_1_1irc_1_1make__reply.html#ab165b755476a24be73f951eb4c228cca" target="_top" xlink:title=" ">
<polygon fill="white" stroke="black" points="488,-196.5 488,-226.5 592,-226.5 592,-196.5 488,-196.5"/>
<text text-anchor="start" x="496" y="-214.5" font-family="Helvetica,sans-Serif" font-size="10.00">ft::irc::make_reply</text>
<text text-anchor="middle" x="540" y="-203.5" font-family="Helvetica,sans-Serif" font-size="10.00">::luser_unknown</text>
</a>
</g>
</g>
<!-- Node21&#45;&gt;Node27 -->
<g id="edge27" class="edge">
<title>Node21&#45;&gt;Node27</title>
<path fill="none" stroke="midnightblue" d="M431.83,-211.5C446.48,-211.5 462.5,-211.5 477.59,-211.5"/>
<polygon fill="midnightblue" stroke="midnightblue" points="477.85,-215 487.85,-211.5 477.85,-208 477.85,-215"/>
</g>
<!-- Node28 -->
<g id="node28" class="node">
<title>Node28</title>
<g id="a_node28"><a xlink:href="structft_1_1irc_1_1make__reply.html#a09ef279f20aef8d899a8a1f6e1f843c8" target="_top" xlink:title=" ">
<polygon fill="white" stroke="black" points="488,-147.5 488,-177.5 592,-177.5 592,-147.5 488,-147.5"/>
<text text-anchor="start" x="496" y="-165.5" font-family="Helvetica,sans-Serif" font-size="10.00">ft::irc::make_reply</text>
<text text-anchor="middle" x="540" y="-154.5" font-family="Helvetica,sans-Serif" font-size="10.00">::motd</text>
</a>
</g>
</g>
<!-- Node21&#45;&gt;Node28 -->
<g id="edge28" class="edge">
<title>Node21&#45;&gt;Node28</title>
<path fill="none" stroke="midnightblue" d="M428.31,-196.4C444.66,-191.39 463.02,-185.77 480.03,-180.56"/>
<polygon fill="midnightblue" stroke="midnightblue" points="481.32,-183.83 489.85,-177.55 479.27,-177.13 481.32,-183.83"/>
</g>
<!-- Node29 -->
<g id="node29" class="node">
<title>Node29</title>
<g id="a_node29"><a xlink:href="structft_1_1irc_1_1make__reply.html#ac487f0bab92e860c91305ed0b7f02dbe" target="_top" xlink:title=" ">
<polygon fill="white" stroke="black" points="488,-98.5 488,-128.5 592,-128.5 592,-98.5 488,-98.5"/>
<text text-anchor="start" x="496" y="-116.5" font-family="Helvetica,sans-Serif" font-size="10.00">ft::irc::make_reply</text>
<text text-anchor="middle" x="540" y="-105.5" font-family="Helvetica,sans-Serif" font-size="10.00">::motd_start</text>
</a>
</g>
</g>
<!-- Node21&#45;&gt;Node29 -->
<g id="edge29" class="edge">
<title>Node21&#45;&gt;Node29</title>
<path fill="none" stroke="midnightblue" d="M425.64,-196.38C434.83,-192.31 444.07,-187.37 452,-181.5 472.3,-166.46 468.08,-153.04 488,-137.5 489.59,-136.26 491.26,-135.06 492.98,-133.91"/>
<polygon fill="midnightblue" stroke="midnightblue" points="495.14,-136.69 501.9,-128.53 491.53,-130.7 495.14,-136.69"/>
</g>
<!-- Node30 -->
<g id="node30" class="node">
<title>Node30</title>
<g id="a_node30"><a xlink:href="structft_1_1irc_1_1make__error.html#ab15f6ba737319065faa48589151ce227" target="_top" xlink:title=" ">
<polygon fill="white" stroke="black" points="488.5,-49.5 488.5,-79.5 591.5,-79.5 591.5,-49.5 488.5,-49.5"/>
<text text-anchor="start" x="496.5" y="-67.5" font-family="Helvetica,sans-Serif" font-size="10.00">ft::irc::make_error</text>
<text text-anchor="middle" x="540" y="-56.5" font-family="Helvetica,sans-Serif" font-size="10.00">::no_motd</text>
</a>
</g>
</g>
<!-- Node21&#45;&gt;Node30 -->
<g id="edge30" class="edge">
<title>Node21&#45;&gt;Node30</title>
<path fill="none" stroke="midnightblue" d="M430.99,-196.38C438.71,-192.46 446.06,-187.57 452,-181.5 483.02,-149.84 457.78,-120.93 488,-88.5 488.88,-87.55 489.81,-86.64 490.77,-85.76"/>
<polygon fill="midnightblue" stroke="midnightblue" points="492.97,-88.49 498.8,-79.64 488.72,-82.92 492.97,-88.49"/>
</g>
<!-- Node21&#45;&gt;Node31 -->
<g id="edge31" class="edge">
<title>Node21&#45;&gt;Node31</title>
<path fill="none" stroke="midnightblue" d="M431.64,-196.98C439.28,-192.99 446.43,-187.92 452,-181.5 494.67,-132.32 446.58,-89.73 488,-39.5 488.6,-38.77 489.23,-38.07 489.88,-37.38"/>
<polygon fill="midnightblue" stroke="midnightblue" points="492.29,-39.93 497.64,-30.78 487.75,-34.59 492.29,-39.93"/>
</g>
</g>
</svg>
        <g id="navigator" transform="translate(0 0)" fill="#404254">
                <rect fill="#f2f5e9" fill-opacity="0.5" stroke="#606060" stroke-width=".5" x="0" y="0" width="60" height="60"/>
                <use id="zoomplus" xlink:href="#zoomPlus" x="17" y="9" onmousedown="handleZoom(evt,'in')"/>
                <use id="zoomminus" xlink:href="#zoomMin" x="42" y="9" onmousedown="handleZoom(evt,'out')"/>
                <use id="reset" xlink:href="#resetDef" x="30" y="36" onmousedown="handleReset()"/>
                <g id="arrowUp" xlink:href="#dirArrow" transform="translate(30 24)" onmousedown="handlePan(0,-1)">
                  <use xlink:href="#rim" fill="#404040">
                        <set attributeName="fill" to="#808080" begin="arrowUp.mouseover" end="arrowUp.mouseout"/>
                  </use>
                  <path fill="none" stroke="white" stroke-width="1.5" d="M0,-3.0v7 M-2.5,-0.5L0,-3.0L2.5,-0.5"/>
                </g>
                <g id="arrowRight" xlink:href="#dirArrow" transform="rotate(90) translate(36 -43)" onmousedown="handlePan(1,0)">
                  <use xlink:href="#rim" fill="#404040">
                        <set attributeName="fill" to="#808080" begin="arrowRight.mouseover" end="arrowRight.mouseout"/>
                  </use>
                  <path fill="none" stroke="white" stroke-width="1.5" d="M0,-3.0v7 M-2.5,-0.5L0,-3.0L2.5,-0.5"/>
                </g>
                <g id="arrowDown" xlink:href="#dirArrow" transform="rotate(180) translate(-30 -48)" onmousedown="handlePan(0,1)">
                  <use xlink:href="#rim" fill="#404040">
                        <set attributeName="fill" to="#808080" begin="arrowDown.mouseover" end="arrowDown.mouseout"/>
                  </use>
                  <path fill="none" stroke="white" stroke-width="1.5" d="M0,-3.0v7 M-2.5,-0.5L0,-3.0L2.5,-0.5"/>
                </g>
                <g id="arrowLeft" xlink:href="#dirArrow" transform="rotate(270) translate(-36 17)" onmousedown="handlePan(-1,0)">
                  <use xlink:href="#rim" fill="#404040">
                        <set attributeName="fill" to="#808080" begin="arrowLeft.mouseover" end="arrowLeft.mouseout"/>
                  </use>
                  <path fill="none" stroke="white" stroke-width="1.5" d="M0,-3.0v7 M-2.5,-0.5L0,-3.0L2.5,-0.5"/>
                </g>
        </g>
        <svg viewBox="0 0 15 15" width="100%" height="30px" preserveAspectRatio="xMaxYMin meet">
         <g id="arrow_out" transform="scale(0.3 0.3)">
          <a xlink:href="classft_1_1irc_1_1processor__nick_a7a2f0f709488328c04b6ccf0c41ce78e_cgraph_org.svg" target="_base">
           <rect id="button" ry="5" rx="5" y="6" x="6" height="38" width="38"
                fill="#f2f5e9" fill-opacity="0.5" stroke="#606060" stroke-width="1.0"/>
           <path id="arrow"
             d="M 11.500037,31.436501 C 11.940474,20.09759 22.043105,11.32322 32.158766,21.979434 L 37.068811,17.246167 C 37.068811,17.246167 37.088388,32 37.088388,32 L 22.160133,31.978069 C 22.160133,31.978069 26.997745,27.140456 26.997745,27.140456 C 18.528582,18.264221 13.291696,25.230495 11.500037,31.436501 z"
             style="fill:#404040;"/>
          </a>
         </g>
        </svg>
</svg>
