<?xml version="1.0" encoding="UTF-8" standalone="no"?>
<!DOCTYPE svg PUBLIC "-//W3C//DTD SVG 1.1//EN"
 "http://www.w3.org/Graphics/SVG/1.1/DTD/svg11.dtd">
<!-- Generated by graphviz version 2.43.0 (0)
 -->
<!-- Title: ft::irc::bot_handler::on_read Pages: 1 -->
<svg width="612pt" height="616pt"
 viewBox="0.00 0.00 612.00 616.00" xmlns="http://www.w3.org/2000/svg" xmlns:xlink="http://www.w3.org/1999/xlink">
<g id="graph0" class="graph" transform="scale(1 1) rotate(0) translate(4 612)">
<title>ft::irc::bot_handler::on_read</title>
<polygon fill="white" stroke="transparent" points="-4,4 -4,-612 608,-612 608,4 -4,4"/>
<!-- Node1 -->
<g id="node1" class="node">
<title>Node1</title>
<g id="a_node1"><a xlink:title=" ">
<polygon fill="#bfbfbf" stroke="black" points="0,-294.5 0,-324.5 105,-324.5 105,-294.5 0,-294.5"/>
<text text-anchor="start" x="8" y="-312.5" font-family="Helvetica,sans-Serif" font-size="10.00">ft::irc::bot_handler</text>
<text text-anchor="middle" x="52.5" y="-301.5" font-family="Helvetica,sans-Serif" font-size="10.00">::on_read</text>
</a>
</g>
</g>
<!-- Node2 -->
<g id="node2" class="node">
<title>Node2</title>
<g id="a_node2"><a xlink:href="structft_1_1serv_1_1logger.html#a83649a4f3bb804c8fed6dfd130de5ee6" target="_top" xlink:title=" ">
<polygon fill="white" stroke="black" points="154.5,-558 154.5,-577 276.5,-577 276.5,-558 154.5,-558"/>
<text text-anchor="middle" x="215.5" y="-565" font-family="Helvetica,sans-Serif" font-size="10.00">ft::serv::logger::debug</text>
</a>
</g>
</g>
<!-- Node1&#45;&gt;Node2 -->
<g id="edge1" class="edge">
<title>Node1&#45;&gt;Node2</title>
<path fill="none" stroke="midnightblue" d="M54.37,-324.74C57.63,-367 72.74,-486.62 141,-548.5 142.71,-550.05 144.52,-551.47 146.42,-552.78"/>
<polygon fill="midnightblue" stroke="midnightblue" points="144.83,-555.9 155.24,-557.83 148.31,-549.83 144.83,-555.9"/>
</g>
<!-- Node6 -->
<g id="node6" class="node">
<title>Node6</title>
<g id="a_node6"><a xlink:href="classft_1_1irc_1_1message.html#ad323e99c45f6feec038a7de683f812a2" target="_top" xlink:title=" ">
<polygon fill="white" stroke="black" points="159,-508.5 159,-538.5 272,-538.5 272,-508.5 159,-508.5"/>
<text text-anchor="start" x="167" y="-526.5" font-family="Helvetica,sans-Serif" font-size="10.00">ft::irc::message::get</text>
<text text-anchor="middle" x="215.5" y="-515.5" font-family="Helvetica,sans-Serif" font-size="10.00">_command</text>
</a>
</g>
</g>
<!-- Node1&#45;&gt;Node6 -->
<g id="edge5" class="edge">
<title>Node1&#45;&gt;Node6</title>
<path fill="none" stroke="midnightblue" d="M56.29,-324.66C63.61,-360.22 86.7,-449.65 141,-498.5 143.77,-500.99 146.79,-503.23 149.99,-505.26"/>
<polygon fill="midnightblue" stroke="midnightblue" points="148.35,-508.34 158.79,-510.1 151.72,-502.21 148.35,-508.34"/>
</g>
<!-- Node7 -->
<g id="node7" class="node">
<title>Node7</title>
<g id="a_node7"><a xlink:href="classft_1_1irc_1_1bot.html#af00201ff653e89960e762d7b12297c13" target="_top" xlink:title=" ">
<polygon fill="white" stroke="black" points="160.5,-470 160.5,-489 270.5,-489 270.5,-470 160.5,-470"/>
<text text-anchor="middle" x="215.5" y="-477" font-family="Helvetica,sans-Serif" font-size="10.00">ft::irc::bot::get_nick</text>
</a>
</g>
</g>
<!-- Node1&#45;&gt;Node7 -->
<g id="edge6" class="edge">
<title>Node1&#45;&gt;Node7</title>
<path fill="none" stroke="midnightblue" d="M57.87,-324.58C67.54,-355.16 93.7,-424.59 141,-460.5 144.16,-462.9 147.59,-464.99 151.18,-466.83"/>
<polygon fill="midnightblue" stroke="midnightblue" points="149.83,-470.06 160.4,-470.86 152.64,-463.64 149.83,-470.06"/>
</g>
<!-- Node8 -->
<g id="node8" class="node">
<title>Node8</title>
<g id="a_node8"><a xlink:href="classft_1_1irc_1_1message.html#a254aec48aa7b7872331cd5644d9e918c" target="_top" xlink:title=" ">
<polygon fill="white" stroke="black" points="159,-420.5 159,-450.5 272,-450.5 272,-420.5 159,-420.5"/>
<text text-anchor="start" x="167" y="-438.5" font-family="Helvetica,sans-Serif" font-size="10.00">ft::irc::message::get</text>
<text text-anchor="middle" x="215.5" y="-427.5" font-family="Helvetica,sans-Serif" font-size="10.00">_prefix</text>
</a>
</g>
</g>
<!-- Node1&#45;&gt;Node8 -->
<g id="edge7" class="edge">
<title>Node1&#45;&gt;Node8</title>
<path fill="none" stroke="midnightblue" d="M62.9,-324.75C77.17,-346.72 106.36,-387.18 141,-410.5 143.94,-412.48 147.05,-414.32 150.27,-416.02"/>
<polygon fill="midnightblue" stroke="midnightblue" points="149.03,-419.3 159.56,-420.46 152.05,-412.99 149.03,-419.3"/>
</g>
<!-- Node9 -->
<g id="node9" class="node">
<title>Node9</title>
<g id="a_node9"><a xlink:href="classft_1_1irc_1_1bot.html#af82f7c44d8f68db0fe3026e42fcf3f69" target="_top" xlink:title=" ">
<polygon fill="white" stroke="black" points="141,-382 141,-401 290,-401 290,-382 141,-382"/>
<text text-anchor="middle" x="215.5" y="-389" font-family="Helvetica,sans-Serif" font-size="10.00">ft::irc::bot::get_servername</text>
</a>
</g>
</g>
<!-- Node1&#45;&gt;Node9 -->
<g id="edge8" class="edge">
<title>Node1&#45;&gt;Node9</title>
<path fill="none" stroke="midnightblue" d="M70.38,-324.61C87.17,-338.89 114.22,-359.94 141,-372.5 146.07,-374.88 151.48,-376.99 156.99,-378.86"/>
<polygon fill="midnightblue" stroke="midnightblue" points="156.34,-382.32 166.93,-381.97 158.43,-375.64 156.34,-382.32"/>
</g>
<!-- Node10 -->
<g id="node10" class="node">
<title>Node10</title>
<g id="a_node10"><a xlink:href="classft_1_1irc_1_1bot.html#a8c884ab295df9308e688762a387fd666" target="_top" xlink:title=" ">
<polygon fill="white" stroke="black" points="146,-344 146,-363 285,-363 285,-344 146,-344"/>
<text text-anchor="middle" x="215.5" y="-351" font-family="Helvetica,sans-Serif" font-size="10.00">ft::irc::bot::get_username</text>
</a>
</g>
</g>
<!-- Node1&#45;&gt;Node10 -->
<g id="edge9" class="edge">
<title>Node1&#45;&gt;Node10</title>
<path fill="none" stroke="midnightblue" d="M105.26,-324.52C117,-327.86 129.41,-331.35 141,-334.5 149.32,-336.76 158.18,-339.11 166.77,-341.35"/>
<polygon fill="midnightblue" stroke="midnightblue" points="166.12,-344.8 176.68,-343.92 167.88,-338.02 166.12,-344.8"/>
</g>
<!-- Node11 -->
<g id="node11" class="node">
<title>Node11</title>
<g id="a_node11"><a xlink:href="structft_1_1irc_1_1string__utils.html#a02d1713c6a0329a583a631d836ec717d" target="_top" xlink:title=" ">
<polygon fill="white" stroke="black" points="165,-294.5 165,-324.5 266,-324.5 266,-294.5 165,-294.5"/>
<text text-anchor="start" x="173" y="-312.5" font-family="Helvetica,sans-Serif" font-size="10.00">ft::irc::string_utils</text>
<text text-anchor="middle" x="215.5" y="-301.5" font-family="Helvetica,sans-Serif" font-size="10.00">::pick_nick</text>
</a>
</g>
</g>
<!-- Node1&#45;&gt;Node11 -->
<g id="edge10" class="edge">
<title>Node1&#45;&gt;Node11</title>
<path fill="none" stroke="midnightblue" d="M105.33,-309.5C121.01,-309.5 138.37,-309.5 154.54,-309.5"/>
<polygon fill="midnightblue" stroke="midnightblue" points="154.96,-313 164.96,-309.5 154.96,-306 154.96,-313"/>
</g>
<!-- Node12 -->
<g id="node12" class="node">
<title>Node12</title>
<g id="a_node12"><a xlink:href="classft_1_1serv_1_1event__layer.html#a854a0764bd67adfc716ec4237cd52672" target="_top" xlink:title=" ">
<polygon fill="white" stroke="black" points="159,-245.5 159,-275.5 272,-275.5 272,-245.5 159,-245.5"/>
<text text-anchor="start" x="167" y="-263.5" font-family="Helvetica,sans-Serif" font-size="10.00">ft::serv::event_layer</text>
<text text-anchor="middle" x="215.5" y="-252.5" font-family="Helvetica,sans-Serif" font-size="10.00">::post_flush</text>
</a>
</g>
</g>
<!-- Node1&#45;&gt;Node12 -->
<g id="edge11" class="edge">
<title>Node1&#45;&gt;Node12</title>
<path fill="none" stroke="midnightblue" d="M103.12,-294.4C119.57,-289.39 138.05,-283.77 155.16,-278.56"/>
<polygon fill="midnightblue" stroke="midnightblue" points="156.5,-281.81 165.04,-275.55 154.46,-275.11 156.5,-281.81"/>
</g>
<!-- Node13 -->
<g id="node13" class="node">
<title>Node13</title>
<g id="a_node13"><a xlink:href="classft_1_1serv_1_1event__layer.html#add4946138f5f8a5870d52c44ca435aab" target="_top" xlink:title=" ">
<polygon fill="white" stroke="black" points="159,-196.5 159,-226.5 272,-226.5 272,-196.5 159,-196.5"/>
<text text-anchor="start" x="167" y="-214.5" font-family="Helvetica,sans-Serif" font-size="10.00">ft::serv::event_layer</text>
<text text-anchor="middle" x="215.5" y="-203.5" font-family="Helvetica,sans-Serif" font-size="10.00">::post_write</text>
</a>
</g>
</g>
<!-- Node1&#45;&gt;Node13 -->
<g id="edge12" class="edge">
<title>Node1&#45;&gt;Node13</title>
<path fill="none" stroke="midnightblue" d="M68.02,-294.44C84.41,-278.19 112.54,-252.48 141,-236.5 144.87,-234.33 148.97,-232.3 153.16,-230.41"/>
<polygon fill="midnightblue" stroke="midnightblue" points="154.58,-233.61 162.45,-226.52 151.88,-227.15 154.58,-233.61"/>
</g>
<!-- Node14 -->
<g id="node14" class="node">
<title>Node14</title>
<g id="a_node14"><a xlink:href="structft_1_1irc_1_1make__reply__base.html#a0286978513d0078fa15b5a0b68b326a4" target="_top" xlink:title=" ">
<polygon fill="white" stroke="black" points="148,-147.5 148,-177.5 283,-177.5 283,-147.5 148,-147.5"/>
<text text-anchor="start" x="156" y="-165.5" font-family="Helvetica,sans-Serif" font-size="10.00">ft::irc::make_reply</text>
<text text-anchor="middle" x="215.5" y="-154.5" font-family="Helvetica,sans-Serif" font-size="10.00">_base::set_server_name</text>
</a>
</g>
</g>
<!-- Node1&#45;&gt;Node14 -->
<g id="edge13" class="edge">
<title>Node1&#45;&gt;Node14</title>
<path fill="none" stroke="midnightblue" d="M60.41,-294.43C72.9,-268.8 101.64,-216.69 141,-187.5 143.52,-185.63 146.18,-183.9 148.95,-182.29"/>
<polygon fill="midnightblue" stroke="midnightblue" points="150.81,-185.27 158.07,-177.56 147.58,-179.05 150.81,-185.27"/>
</g>
<!-- Node15 -->
<g id="node15" class="node">
<title>Node15</title>
<g id="a_node15"><a xlink:href="structft_1_1irc_1_1make__reply__base.html#a488f2be061e722bd858d7285d1028eaf" target="_top" xlink:title=" ">
<polygon fill="white" stroke="black" points="153,-98.5 153,-128.5 278,-128.5 278,-98.5 153,-98.5"/>
<text text-anchor="start" x="161" y="-116.5" font-family="Helvetica,sans-Serif" font-size="10.00">ft::irc::make_reply</text>
<text text-anchor="middle" x="215.5" y="-105.5" font-family="Helvetica,sans-Serif" font-size="10.00">_base::set_user_name</text>
</a>
</g>
</g>
<!-- Node1&#45;&gt;Node15 -->
<g id="edge14" class="edge">
<title>Node1&#45;&gt;Node15</title>
<path fill="none" stroke="midnightblue" d="M57.12,-294.3C65.77,-261.16 90.8,-181.9 141,-138.5 142.96,-136.8 145.05,-135.22 147.22,-133.74"/>
<polygon fill="midnightblue" stroke="midnightblue" points="149.17,-136.66 156,-128.56 145.61,-130.63 149.17,-136.66"/>
</g>
<!-- Node16 -->
<g id="node16" class="node">
<title>Node16</title>
<g id="a_node16"><a xlink:href="structft_1_1irc_1_1make__reply__base.html#a05d12bbf99ce4c8fde3cbb731135ff26" target="_top" xlink:title=" ">
<polygon fill="white" stroke="black" points="156.5,-49.5 156.5,-79.5 274.5,-79.5 274.5,-49.5 156.5,-49.5"/>
<text text-anchor="start" x="164.5" y="-67.5" font-family="Helvetica,sans-Serif" font-size="10.00">ft::irc::make_reply</text>
<text text-anchor="middle" x="215.5" y="-56.5" font-family="Helvetica,sans-Serif" font-size="10.00">_base::set_user_nick</text>
</a>
</g>
</g>
<!-- Node1&#45;&gt;Node16 -->
<g id="edge15" class="edge">
<title>Node1&#45;&gt;Node16</title>
<path fill="none" stroke="midnightblue" d="M55.19,-294.28C60.37,-254.74 79.63,-147.84 141,-89.5 143.11,-87.5 145.38,-85.66 147.78,-83.96"/>
<polygon fill="midnightblue" stroke="midnightblue" points="149.62,-86.94 156.34,-78.75 145.98,-80.96 149.62,-86.94"/>
</g>
<!-- Node17 -->
<g id="node17" class="node">
<title>Node17</title>
<g id="a_node17"><a xlink:href="classft_1_1irc_1_1message.html#a076fdbb740cb752dd153e207f076183a" target="_top" xlink:title=" ">
<polygon fill="white" stroke="black" points="162,-0.5 162,-30.5 269,-30.5 269,-0.5 162,-0.5"/>
<text text-anchor="start" x="170" y="-18.5" font-family="Helvetica,sans-Serif" font-size="10.00">ft::irc::message::to</text>
<text text-anchor="middle" x="215.5" y="-7.5" font-family="Helvetica,sans-Serif" font-size="10.00">_pretty_string</text>
</a>
</g>
</g>
<!-- Node1&#45;&gt;Node17 -->
<g id="edge16" class="edge">
<title>Node1&#45;&gt;Node17</title>
<path fill="none" stroke="midnightblue" d="M53.91,-294.32C55.97,-249.17 68.22,-114.26 141,-40.5 144.48,-36.97 148.49,-33.94 152.79,-31.33"/>
<polygon fill="midnightblue" stroke="midnightblue" points="154.7,-34.28 161.96,-26.56 151.47,-28.07 154.7,-34.28"/>
</g>
<!-- Node3 -->
<g id="node3" class="node">
<title>Node3</title>
<g id="a_node3"><a xlink:href="namespaceft_1_1serv_1_1__internal.html#a4dfb80be7b817fc0ee18658f313a6274" target="_top" xlink:title=" ">
<polygon fill="white" stroke="black" points="326,-552.5 326,-582.5 424,-582.5 424,-552.5 326,-552.5"/>
<text text-anchor="start" x="334" y="-570.5" font-family="Helvetica,sans-Serif" font-size="10.00">ft::serv::_internal</text>
<text text-anchor="middle" x="375" y="-559.5" font-family="Helvetica,sans-Serif" font-size="10.00">::print</text>
</a>
</g>
</g>
<!-- Node2&#45;&gt;Node3 -->
<g id="edge2" class="edge">
<title>Node2&#45;&gt;Node3</title>
<path fill="none" stroke="midnightblue" d="M276.94,-567.5C289.55,-567.5 302.82,-567.5 315.36,-567.5"/>
<polygon fill="midnightblue" stroke="midnightblue" points="315.69,-571 325.69,-567.5 315.69,-564 315.69,-571"/>
</g>
<!-- Node4 -->
<g id="node4" class="node">
<title>Node4</title>
<g id="a_node4"><a xlink:href="namespaceft_1_1serv_1_1__internal.html#aff49349b58dc84fa69076e9cd27a1db4" target="_top" xlink:title=" ">
<polygon fill="white" stroke="black" points="460,-577.5 460,-607.5 604,-607.5 604,-577.5 460,-577.5"/>
<text text-anchor="start" x="468" y="-595.5" font-family="Helvetica,sans-Serif" font-size="10.00">ft::serv::_internal</text>
<text text-anchor="middle" x="532" y="-584.5" font-family="Helvetica,sans-Serif" font-size="10.00">::make_format_string_line</text>
</a>
</g>
</g>
<!-- Node3&#45;&gt;Node4 -->
<g id="edge3" class="edge">
<title>Node3&#45;&gt;Node4</title>
<path fill="none" stroke="midnightblue" d="M424.19,-575.27C432.39,-576.6 441.11,-578 449.88,-579.42"/>
<polygon fill="midnightblue" stroke="midnightblue" points="449.36,-582.88 459.79,-581.01 450.48,-575.97 449.36,-582.88"/>
</g>
<!-- Node5 -->
<g id="node5" class="node">
<title>Node5</title>
<g id="a_node5"><a xlink:href="namespaceft_1_1serv_1_1__internal.html#aad4af39d62c2b1687b0bef7a91bf6c60" target="_top" xlink:title=" ">
<polygon fill="white" stroke="black" points="480.5,-528.5 480.5,-558.5 583.5,-558.5 583.5,-528.5 480.5,-528.5"/>
<text text-anchor="start" x="488.5" y="-546.5" font-family="Helvetica,sans-Serif" font-size="10.00">ft::serv::_internal</text>
<text text-anchor="middle" x="532" y="-535.5" font-family="Helvetica,sans-Serif" font-size="10.00">::make_utc_string</text>
</a>
</g>
</g>
<!-- Node3&#45;&gt;Node5 -->
<g id="edge4" class="edge">
<title>Node3&#45;&gt;Node5</title>
<path fill="none" stroke="midnightblue" d="M424.19,-560.04C438.85,-557.77 455.14,-555.25 470.49,-552.87"/>
<polygon fill="midnightblue" stroke="midnightblue" points="471.08,-556.32 480.42,-551.33 470.01,-549.4 471.08,-556.32"/>
</g>
</g>
</svg>
