<?xml version="1.0" encoding="UTF-8" standalone="no"?>
<!DOCTYPE svg PUBLIC "-//W3C//DTD SVG 1.1//EN"
 "http://www.w3.org/Graphics/SVG/1.1/DTD/svg11.dtd">
<!-- Generated by graphviz version 2.43.0 (0)
 -->
<!-- Title: ft::irc::message::split Pages: 1 -->
<svg width="615pt" height="333pt"
 viewBox="0.00 0.00 615.00 333.00" xmlns="http://www.w3.org/2000/svg" xmlns:xlink="http://www.w3.org/1999/xlink">
<g id="graph0" class="graph" transform="scale(1 1) rotate(0) translate(4 329)">
<title>ft::irc::message::split</title>
<polygon fill="white" stroke="transparent" points="-4,4 -4,-329 611,-329 611,4 -4,4"/>
<!-- Node1 -->
<g id="node1" class="node">
<title>Node1</title>
<g id="a_node1"><a xlink:title=" ">
<polygon fill="#bfbfbf" stroke="black" points="488,-153 488,-172 607,-172 607,-153 488,-153"/>
<text text-anchor="middle" x="547.5" y="-160" font-family="Helvetica,sans-Serif" font-size="10.00">ft::irc::message::split</text>
</a>
</g>
</g>
<!-- Node2 -->
<g id="node2" class="node">
<title>Node2</title>
<g id="a_node2"><a xlink:href="classft_1_1irc_1_1processor__join.html#a7005b0403c1e6e10aa6f6f05339df357" target="_top" xlink:title=" ">
<polygon fill="white" stroke="black" points="335,-294.5 335,-324.5 430,-324.5 430,-294.5 335,-294.5"/>
<text text-anchor="start" x="343" y="-312.5" font-family="Helvetica,sans-Serif" font-size="10.00">ft::irc::processor</text>
<text text-anchor="middle" x="382.5" y="-301.5" font-family="Helvetica,sans-Serif" font-size="10.00">_join::execute</text>
</a>
</g>
</g>
<!-- Node1&#45;&gt;Node2 -->
<g id="edge1" class="edge">
<title>Node1&#45;&gt;Node2</title>
<path fill="none" stroke="midnightblue" d="M536.84,-181.07C522.04,-207.82 491.27,-257.09 452,-285.5 445.47,-290.23 437.92,-294.09 430.27,-297.23"/>
<polygon fill="midnightblue" stroke="midnightblue" points="540.06,-182.48 541.72,-172.01 533.9,-179.16 540.06,-182.48"/>
</g>
<!-- Node3 -->
<g id="node3" class="node">
<title>Node3</title>
<g id="a_node3"><a xlink:href="classft_1_1irc_1_1processor__part.html#a4075107cb360cd04c0a11a9904104ad0" target="_top" xlink:title=" ">
<polygon fill="white" stroke="black" points="335,-245.5 335,-275.5 430,-275.5 430,-245.5 335,-245.5"/>
<text text-anchor="start" x="343" y="-263.5" font-family="Helvetica,sans-Serif" font-size="10.00">ft::irc::processor</text>
<text text-anchor="middle" x="382.5" y="-252.5" font-family="Helvetica,sans-Serif" font-size="10.00">_part::execute</text>
</a>
</g>
</g>
<!-- Node1&#45;&gt;Node3 -->
<g id="edge2" class="edge">
<title>Node1&#45;&gt;Node3</title>
<path fill="none" stroke="midnightblue" d="M529.08,-179.03C511.01,-195.46 481.33,-220.45 452,-236.5 445.15,-240.25 437.59,-243.59 430.08,-246.5"/>
<polygon fill="midnightblue" stroke="midnightblue" points="531.56,-181.51 536.53,-172.15 526.81,-176.37 531.56,-181.51"/>
</g>
<!-- Node4 -->
<g id="node4" class="node">
<title>Node4</title>
<g id="a_node4"><a xlink:href="classft_1_1irc_1_1processor__names.html#a95f660c1020ac7f26cceacd932f48f09" target="_top" xlink:title=" ">
<polygon fill="white" stroke="black" points="333,-196.5 333,-226.5 432,-226.5 432,-196.5 333,-196.5"/>
<text text-anchor="start" x="341" y="-214.5" font-family="Helvetica,sans-Serif" font-size="10.00">ft::irc::processor</text>
<text text-anchor="middle" x="382.5" y="-203.5" font-family="Helvetica,sans-Serif" font-size="10.00">_names::execute</text>
</a>
</g>
</g>
<!-- Node1&#45;&gt;Node4 -->
<g id="edge3" class="edge">
<title>Node1&#45;&gt;Node4</title>
<path fill="none" stroke="midnightblue" d="M504.91,-175C482.76,-181.66 455.39,-189.89 432.25,-196.84"/>
<polygon fill="midnightblue" stroke="midnightblue" points="506.12,-178.29 514.69,-172.06 504.1,-171.59 506.12,-178.29"/>
</g>
<!-- Node5 -->
<g id="node5" class="node">
<title>Node5</title>
<g id="a_node5"><a xlink:href="classft_1_1irc_1_1processor__list.html#aa4ed52d03d87a5f03d9c6d2e53e0409b" target="_top" xlink:title=" ">
<polygon fill="white" stroke="black" points="335,-147.5 335,-177.5 430,-177.5 430,-147.5 335,-147.5"/>
<text text-anchor="start" x="343" y="-165.5" font-family="Helvetica,sans-Serif" font-size="10.00">ft::irc::processor</text>
<text text-anchor="middle" x="382.5" y="-154.5" font-family="Helvetica,sans-Serif" font-size="10.00">_list::execute</text>
</a>
</g>
</g>
<!-- Node1&#45;&gt;Node5 -->
<g id="edge4" class="edge">
<title>Node1&#45;&gt;Node5</title>
<path fill="none" stroke="midnightblue" d="M477.33,-162.5C461.45,-162.5 444.92,-162.5 430.25,-162.5"/>
<polygon fill="midnightblue" stroke="midnightblue" points="477.65,-166 487.65,-162.5 477.65,-159 477.65,-166"/>
</g>
<!-- Node6 -->
<g id="node6" class="node">
<title>Node6</title>
<g id="a_node6"><a xlink:href="classft_1_1irc_1_1processor__message__base.html#ab3fba6f27483543b9c7a559fd2e1402b" target="_top" xlink:title=" ">
<polygon fill="white" stroke="black" points="313,-98.5 313,-128.5 452,-128.5 452,-98.5 313,-98.5"/>
<text text-anchor="start" x="321" y="-116.5" font-family="Helvetica,sans-Serif" font-size="10.00">ft::irc::processor</text>
<text text-anchor="middle" x="382.5" y="-105.5" font-family="Helvetica,sans-Serif" font-size="10.00">_message_base::execute</text>
</a>
</g>
</g>
<!-- Node1&#45;&gt;Node6 -->
<g id="edge5" class="edge">
<title>Node1&#45;&gt;Node6</title>
<path fill="none" stroke="midnightblue" d="M505.07,-150.05C483.3,-143.5 456.45,-135.43 433.52,-128.54"/>
<polygon fill="midnightblue" stroke="midnightblue" points="504.1,-153.41 514.69,-152.94 506.12,-146.71 504.1,-153.41"/>
</g>
<!-- Node7 -->
<g id="node7" class="node">
<title>Node7</title>
<g id="a_node7"><a xlink:href="classft_1_1irc_1_1bot.html#aa5641a2dbe1d7cf0c0bacdaa842cf1aa" target="_top" xlink:title=" ">
<polygon fill="white" stroke="black" points="325.5,-49.5 325.5,-79.5 439.5,-79.5 439.5,-49.5 325.5,-49.5"/>
<text text-anchor="start" x="333.5" y="-67.5" font-family="Helvetica,sans-Serif" font-size="10.00">ft::irc::bot::on_name</text>
<text text-anchor="middle" x="382.5" y="-56.5" font-family="Helvetica,sans-Serif" font-size="10.00">_reply</text>
</a>
</g>
</g>
<!-- Node1&#45;&gt;Node7 -->
<g id="edge6" class="edge">
<title>Node1&#45;&gt;Node7</title>
<path fill="none" stroke="midnightblue" d="M528.71,-146.03C510.54,-129.89 480.97,-105.47 452,-89.5 445.35,-85.83 438.05,-82.51 430.78,-79.57"/>
<polygon fill="midnightblue" stroke="midnightblue" points="526.44,-148.69 536.21,-152.8 531.13,-143.5 526.44,-148.69"/>
</g>
<!-- Node10 -->
<g id="node10" class="node">
<title>Node10</title>
<g id="a_node10"><a xlink:href="classft_1_1irc_1_1message.html#a076997c2993403864d5a98d2ee5c40a6" target="_top" xlink:title=" ">
<polygon fill="white" stroke="black" points="327,-0.5 327,-30.5 438,-30.5 438,-0.5 327,-0.5"/>
<text text-anchor="start" x="335" y="-18.5" font-family="Helvetica,sans-Serif" font-size="10.00">ft::irc::message::try</text>
<text text-anchor="middle" x="382.5" y="-7.5" font-family="Helvetica,sans-Serif" font-size="10.00">_parse</text>
</a>
</g>
</g>
<!-- Node1&#45;&gt;Node10 -->
<g id="edge9" class="edge">
<title>Node1&#45;&gt;Node10</title>
<path fill="none" stroke="midnightblue" d="M536.84,-143.93C522.04,-117.18 491.27,-67.91 452,-39.5 447.3,-36.1 442.08,-33.15 436.68,-30.59"/>
<polygon fill="midnightblue" stroke="midnightblue" points="533.9,-145.84 541.72,-152.99 540.06,-142.52 533.9,-145.84"/>
</g>
<!-- Node8 -->
<g id="node8" class="node">
<title>Node8</title>
<g id="a_node8"><a xlink:href="classft_1_1irc_1_1bot.html#a0b595213781ed0e5aaf1d48fdb602d98" target="_top" xlink:title=" ">
<polygon fill="white" stroke="black" points="149.5,-55 149.5,-74 268.5,-74 268.5,-55 149.5,-55"/>
<text text-anchor="middle" x="209" y="-62" font-family="Helvetica,sans-Serif" font-size="10.00">ft::irc::bot::on_packet</text>
</a>
</g>
</g>
<!-- Node7&#45;&gt;Node8 -->
<g id="edge7" class="edge">
<title>Node7&#45;&gt;Node8</title>
<path fill="none" stroke="midnightblue" d="M314.94,-64.5C299.67,-64.5 283.54,-64.5 268.64,-64.5"/>
<polygon fill="midnightblue" stroke="midnightblue" points="315.34,-68 325.34,-64.5 315.34,-61 315.34,-68"/>
</g>
<!-- Node9 -->
<g id="node9" class="node">
<title>Node9</title>
<g id="a_node9"><a xlink:href="classft_1_1irc_1_1bot__handler.html#a0723185e483ae21fa0f2116ca05165fe" target="_top" xlink:title=" ">
<polygon fill="white" stroke="black" points="0,-49.5 0,-79.5 105,-79.5 105,-49.5 0,-49.5"/>
<text text-anchor="start" x="8" y="-67.5" font-family="Helvetica,sans-Serif" font-size="10.00">ft::irc::bot_handler</text>
<text text-anchor="middle" x="52.5" y="-56.5" font-family="Helvetica,sans-Serif" font-size="10.00">::on_read</text>
</a>
</g>
</g>
<!-- Node8&#45;&gt;Node9 -->
<g id="edge8" class="edge">
<title>Node8&#45;&gt;Node9</title>
<path fill="none" stroke="midnightblue" d="M138.83,-64.5C127.5,-64.5 115.93,-64.5 105.11,-64.5"/>
<polygon fill="midnightblue" stroke="midnightblue" points="139.15,-68 149.15,-64.5 139.15,-61 139.15,-68"/>
</g>
<!-- Node11 -->
<g id="node11" class="node">
<title>Node11</title>
<g id="a_node11"><a xlink:href="classft_1_1irc_1_1message__decoder.html#a3cf75e1ca7bbc38dd026478b40a36855" target="_top" xlink:title=" ">
<polygon fill="white" stroke="black" points="141,-0.5 141,-30.5 277,-30.5 277,-0.5 141,-0.5"/>
<text text-anchor="start" x="149" y="-18.5" font-family="Helvetica,sans-Serif" font-size="10.00">ft::irc::message_decoder</text>
<text text-anchor="middle" x="209" y="-7.5" font-family="Helvetica,sans-Serif" font-size="10.00">::decode</text>
</a>
</g>
</g>
<!-- Node10&#45;&gt;Node11 -->
<g id="edge10" class="edge">
<title>Node10&#45;&gt;Node11</title>
<path fill="none" stroke="midnightblue" d="M316.59,-15.5C303.68,-15.5 290.11,-15.5 277.14,-15.5"/>
<polygon fill="midnightblue" stroke="midnightblue" points="316.76,-19 326.76,-15.5 316.76,-12 316.76,-19"/>
</g>
</g>
</svg>
