<?xml version="1.0" encoding="UTF-8" standalone="no"?>
<!DOCTYPE svg PUBLIC "-//W3C//DTD SVG 1.1//EN"
 "http://www.w3.org/Graphics/SVG/1.1/DTD/svg11.dtd">
<!-- Generated by graphviz version 2.43.0 (0)
 -->
<!-- Title: ft::irc::channel::enter_user Pages: 1 -->
<svg width="308pt" height="78pt"
 viewBox="0.00 0.00 308.00 77.50" xmlns="http://www.w3.org/2000/svg" xmlns:xlink="http://www.w3.org/1999/xlink">
<g id="graph0" class="graph" transform="scale(1 1) rotate(0) translate(4 73.5)">
<title>ft::irc::channel::enter_user</title>
<polygon fill="white" stroke="transparent" points="-4,4 -4,-73.5 304,-73.5 304,4 -4,4"/>
<!-- Node1 -->
<g id="node1" class="node">
<title>Node1</title>
<g id="a_node1"><a xlink:title=" ">
<polygon fill="#bfbfbf" stroke="black" points="0,-28 0,-47 143,-47 143,-28 0,-28"/>
<text text-anchor="middle" x="71.5" y="-35" font-family="Helvetica,sans-Serif" font-size="10.00">ft::irc::channel::enter_user</text>
</a>
</g>
</g>
<!-- Node2 -->
<g id="node2" class="node">
<title>Node2</title>
<g id="a_node2"><a xlink:href="classft_1_1irc_1_1user.html#a7277f06aa83459f6f9b409858d602e3b" target="_top" xlink:title=" ">
<polygon fill="white" stroke="black" points="179,-50 179,-69 300,-69 300,-50 179,-50"/>
<text text-anchor="middle" x="239.5" y="-57" font-family="Helvetica,sans-Serif" font-size="10.00">ft::irc::user::load_nick</text>
</a>
</g>
</g>
<!-- Node1&#45;&gt;Node2 -->
<g id="edge1" class="edge">
<title>Node1&#45;&gt;Node2</title>
<path fill="none" stroke="midnightblue" d="M143.38,-46.89C151.78,-48.01 160.34,-49.14 168.72,-50.25"/>
<polygon fill="midnightblue" stroke="midnightblue" points="168.45,-53.75 178.82,-51.59 169.37,-46.81 168.45,-53.75"/>
</g>
<!-- Node3 -->
<g id="node3" class="node">
<title>Node3</title>
<g id="a_node3"><a xlink:href="structft_1_1irc_1_1make__reply.html#a39ce3be333c36d7d0ce54cfc7ef59451" target="_top" xlink:title=" ">
<polygon fill="white" stroke="black" points="187.5,-0.5 187.5,-30.5 291.5,-30.5 291.5,-0.5 187.5,-0.5"/>
<text text-anchor="start" x="195.5" y="-18.5" font-family="Helvetica,sans-Serif" font-size="10.00">ft::irc::make_reply</text>
<text text-anchor="middle" x="239.5" y="-7.5" font-family="Helvetica,sans-Serif" font-size="10.00">::topic</text>
</a>
</g>
</g>
<!-- Node1&#45;&gt;Node3 -->
<g id="edge2" class="edge">
<title>Node1&#45;&gt;Node3</title>
<path fill="none" stroke="midnightblue" d="M143.38,-28.11C154.72,-26.6 166.36,-25.06 177.44,-23.59"/>
<polygon fill="midnightblue" stroke="midnightblue" points="177.98,-27.05 187.43,-22.27 177.06,-20.11 177.98,-27.05"/>
</g>
</g>
</svg>
