<?xml version="1.0" encoding="UTF-8" standalone="no"?>
<!DOCTYPE svg PUBLIC "-//W3C//DTD SVG 1.1//EN"
 "http://www.w3.org/Graphics/SVG/1.1/DTD/svg11.dtd">
<!-- Generated by graphviz version 2.43.0 (0)
 -->
<!-- Title: ft::irc::processor_dictionary::execute Pages: 1 -->
<!--zoomable 684 -->
<svg id="main" version="1.1" xmlns="http://www.w3.org/2000/svg" xmlns:xlink="http://www.w3.org/1999/xlink" xml:space="preserve" onload="init(evt)">
<style type="text/css"><![CDATA[
.edge:hover path { stroke: red; }
.edge:hover polygon { stroke: red; fill: red; }
]]></style>
<script type="text/javascript"><![CDATA[
var edges = document.getElementsByTagName('g');
if (edges && edges.length) {
  for (var i=0;i<edges.length;i++) {
    if (edges[i].id.substr(0,4)=='edge') {
      edges[i].setAttribute('class','edge');
    }
  }
}
]]></script>
        <defs>
                <circle id="rim" cx="0" cy="0" r="7"/>
                <circle id="rim2" cx="0" cy="0" r="3.5"/>
                <g id="zoomPlus">
                        <use xlink:href="#rim" fill="#404040">
                                <set attributeName="fill" to="#808080" begin="zoomplus.mouseover" end="zoomplus.mouseout"/>
                        </use>
                        <path d="M-4,0h8M0,-4v8" fill="none" stroke="white" stroke-width="1.5" pointer-events="none"/>
                </g>
                <g id="zoomMin">
                        <use xlink:href="#rim" fill="#404040">
                                <set attributeName="fill" to="#808080" begin="zoomminus.mouseover" end="zoomminus.mouseout"/>
                        </use>
                        <path d="M-4,0h8" fill="none" stroke="white" stroke-width="1.5" pointer-events="none"/>
                </g>
                <g id="dirArrow">
                        <path fill="none" stroke="white" stroke-width="1.5" d="M0,-3.0v7 M-2.5,-0.5L0,-3.0L2.5,-0.5"/>
                </g>
               <g id="resetDef">
                       <use xlink:href="#rim2" fill="#404040">
                               <set attributeName="fill" to="#808080" begin="reset.mouseover" end="reset.mouseout"/>
                       </use>
               </g>
        </defs>

<script type="text/javascript">
var viewWidth = 443;
var viewHeight = 684;
var sectionId = 'dynsection-1';
</script>
<script xlink:href="svgpan.js"/>
<svg id="graph" class="graph">
<g id="viewport">
<title>ft::irc::processor_dictionary::execute</title>
<polygon fill="white" stroke="transparent" points="-4,4 -4,-680 439,-680 439,4 -4,4"/>
<!-- Node1 -->
<g id="node1" class="node">
<title>Node1</title>
<g id="a_node1"><a xlink:title=" ">
<polygon fill="#bfbfbf" stroke="black" points="0,-333.5 0,-363.5 114,-363.5 114,-333.5 0,-333.5"/>
<text text-anchor="start" x="8" y="-351.5" font-family="Helvetica,sans-Serif" font-size="10.00">ft::irc::processor</text>
<text text-anchor="middle" x="57" y="-340.5" font-family="Helvetica,sans-Serif" font-size="10.00">_dictionary::execute</text>
</a>
</g>
</g>
<!-- Node2 -->
<g id="node2" class="node">
<title>Node2</title>
<g id="a_node2"><a xlink:href="classft_1_1irc_1_1processor__dictionary.html#a4a332e955e92eb2af421b69d2cf8ecf9" target="_top" xlink:title=" ">
<polygon fill="white" stroke="black" points="179.5,-645.5 179.5,-675.5 274.5,-675.5 274.5,-645.5 179.5,-645.5"/>
<text text-anchor="start" x="187.5" y="-663.5" font-family="Helvetica,sans-Serif" font-size="10.00">ft::irc::processor</text>
<text text-anchor="middle" x="227" y="-652.5" font-family="Helvetica,sans-Serif" font-size="10.00">_dictionary::get</text>
</a>
</g>
</g>
<!-- Node1&#45;&gt;Node2 -->
<g id="edge1" class="edge">
<title>Node1&#45;&gt;Node2</title>
<path fill="none" stroke="midnightblue" d="M58.22,-363.8C59.76,-411.3 71,-557.76 150,-636.5 155.58,-642.06 162.44,-646.34 169.73,-649.62"/>
<polygon fill="midnightblue" stroke="midnightblue" points="168.55,-652.92 179.14,-653.28 171.09,-646.39 168.55,-652.92"/>
</g>
<!-- Node4 -->
<g id="node4" class="node">
<title>Node4</title>
<g id="a_node4"><a xlink:href="classft_1_1irc_1_1message.html#ad323e99c45f6feec038a7de683f812a2" target="_top" xlink:title=" ">
<polygon fill="white" stroke="black" points="170.5,-596.5 170.5,-626.5 283.5,-626.5 283.5,-596.5 170.5,-596.5"/>
<text text-anchor="start" x="178.5" y="-614.5" font-family="Helvetica,sans-Serif" font-size="10.00">ft::irc::message::get</text>
<text text-anchor="middle" x="227" y="-603.5" font-family="Helvetica,sans-Serif" font-size="10.00">_command</text>
</a>
</g>
</g>
<!-- Node1&#45;&gt;Node4 -->
<g id="edge3" class="edge">
<title>Node1&#45;&gt;Node4</title>
<path fill="none" stroke="midnightblue" d="M59.45,-363.77C64.22,-405.58 83.2,-523.03 150,-586.5 153.38,-589.71 157.17,-592.5 161.22,-594.94"/>
<polygon fill="midnightblue" stroke="midnightblue" points="159.93,-598.22 170.42,-599.73 163.16,-592.01 159.93,-598.22"/>
</g>
<!-- Node5 -->
<g id="node5" class="node">
<title>Node5</title>
<g id="a_node5"><a xlink:href="classft_1_1irc_1_1user.html#a6abd166e9093025e349bd851099f8f9e" target="_top" xlink:title=" ">
<polygon fill="white" stroke="black" points="165.5,-558 165.5,-577 288.5,-577 288.5,-558 165.5,-558"/>
<text text-anchor="middle" x="227" y="-565" font-family="Helvetica,sans-Serif" font-size="10.00">ft::irc::user::get_mode</text>
</a>
</g>
</g>
<!-- Node1&#45;&gt;Node5 -->
<g id="edge4" class="edge">
<title>Node1&#45;&gt;Node5</title>
<path fill="none" stroke="midnightblue" d="M60.42,-363.74C67.2,-401.28 89.98,-498.73 150,-548.5 152.02,-550.17 154.16,-551.7 156.4,-553.09"/>
<polygon fill="midnightblue" stroke="midnightblue" points="154.96,-556.29 165.44,-557.85 158.22,-550.1 154.96,-556.29"/>
</g>
<!-- Node6 -->
<g id="node6" class="node">
<title>Node6</title>
<g id="a_node6"><a xlink:href="classft_1_1irc_1_1user.html#ae476cc31795df7fbb726b193ab887e75" target="_top" xlink:title=" ">
<polygon fill="white" stroke="black" points="182,-508.5 182,-538.5 272,-538.5 272,-508.5 182,-508.5"/>
<text text-anchor="start" x="190" y="-526.5" font-family="Helvetica,sans-Serif" font-size="10.00">ft::irc::user::get</text>
<text text-anchor="middle" x="227" y="-515.5" font-family="Helvetica,sans-Serif" font-size="10.00">_server</text>
</a>
</g>
</g>
<!-- Node1&#45;&gt;Node6 -->
<g id="edge5" class="edge">
<title>Node1&#45;&gt;Node6</title>
<path fill="none" stroke="midnightblue" d="M63.22,-363.7C74.35,-393.86 103.28,-461.54 150,-498.5 156.66,-503.76 164.46,-507.94 172.49,-511.25"/>
<polygon fill="midnightblue" stroke="midnightblue" points="171.37,-514.56 181.97,-514.74 173.8,-508 171.37,-514.56"/>
</g>
<!-- Node7 -->
<g id="node7" class="node">
<title>Node7</title>
<g id="a_node7"><a xlink:href="classft_1_1irc_1_1user.html#a7d133deb3a63faa2627b50cbbdf3a607" target="_top" xlink:title=" ">
<polygon fill="white" stroke="black" points="158.5,-470 158.5,-489 295.5,-489 295.5,-470 158.5,-470"/>
<text text-anchor="middle" x="227" y="-477" font-family="Helvetica,sans-Serif" font-size="10.00">ft::irc::user::is_registered</text>
</a>
</g>
</g>
<!-- Node1&#45;&gt;Node7 -->
<g id="edge6" class="edge">
<title>Node1&#45;&gt;Node7</title>
<path fill="none" stroke="midnightblue" d="M66.23,-363.82C80.13,-388.21 110.66,-435.61 150,-460.5 153.33,-462.61 156.88,-464.48 160.56,-466.15"/>
<polygon fill="midnightblue" stroke="midnightblue" points="159.33,-469.42 169.92,-469.88 161.92,-462.92 159.33,-469.42"/>
</g>
<!-- Node8 -->
<g id="node8" class="node">
<title>Node8</title>
<g id="a_node8"><a xlink:href="classft_1_1irc_1_1user.html#a7277f06aa83459f6f9b409858d602e3b" target="_top" xlink:title=" ">
<polygon fill="white" stroke="black" points="166.5,-432 166.5,-451 287.5,-451 287.5,-432 166.5,-432"/>
<text text-anchor="middle" x="227" y="-439" font-family="Helvetica,sans-Serif" font-size="10.00">ft::irc::user::load_nick</text>
</a>
</g>
</g>
<!-- Node1&#45;&gt;Node8 -->
<g id="edge7" class="edge">
<title>Node1&#45;&gt;Node8</title>
<path fill="none" stroke="midnightblue" d="M72.51,-363.59C89.53,-380.42 119.34,-407.27 150,-422.5 154.68,-424.82 159.66,-426.88 164.75,-428.69"/>
<polygon fill="midnightblue" stroke="midnightblue" points="164.03,-432.14 174.63,-431.89 166.19,-425.48 164.03,-432.14"/>
</g>
<!-- Node9 -->
<g id="node9" class="node">
<title>Node9</title>
<g id="a_node9"><a xlink:href="classft_1_1irc_1_1server.html#a5b8f9b83d37b40f6ee717fc93513e512" target="_top" xlink:title=" ">
<polygon fill="white" stroke="black" points="171.5,-382.5 171.5,-412.5 282.5,-412.5 282.5,-382.5 171.5,-382.5"/>
<text text-anchor="start" x="179.5" y="-400.5" font-family="Helvetica,sans-Serif" font-size="10.00">ft::irc::server::make</text>
<text text-anchor="middle" x="227" y="-389.5" font-family="Helvetica,sans-Serif" font-size="10.00">_full_name</text>
</a>
</g>
</g>
<!-- Node1&#45;&gt;Node9 -->
<g id="edge8" class="edge">
<title>Node1&#45;&gt;Node9</title>
<path fill="none" stroke="midnightblue" d="M109.78,-363.6C127.1,-368.66 146.59,-374.34 164.58,-379.58"/>
<polygon fill="midnightblue" stroke="midnightblue" points="163.81,-383.01 174.39,-382.45 165.77,-376.29 163.81,-383.01"/>
</g>
<!-- Node10 -->
<g id="node10" class="node">
<title>Node10</title>
<g id="a_node10"><a xlink:href="structft_1_1irc_1_1make__error.html#a9ce67256e955eeced06d90b853fa01fa" target="_top" xlink:title=" ">
<polygon fill="white" stroke="black" points="157.5,-333.5 157.5,-363.5 296.5,-363.5 296.5,-333.5 157.5,-333.5"/>
<text text-anchor="start" x="165.5" y="-351.5" font-family="Helvetica,sans-Serif" font-size="10.00">ft::irc::make_error</text>
<text text-anchor="middle" x="227" y="-340.5" font-family="Helvetica,sans-Serif" font-size="10.00">::need_more_parameters</text>
</a>
</g>
</g>
<!-- Node1&#45;&gt;Node10 -->
<g id="edge9" class="edge">
<title>Node1&#45;&gt;Node10</title>
<path fill="none" stroke="midnightblue" d="M114.41,-348.5C124.99,-348.5 136.23,-348.5 147.35,-348.5"/>
<polygon fill="midnightblue" stroke="midnightblue" points="147.49,-352 157.49,-348.5 147.49,-345 147.49,-352"/>
</g>
<!-- Node11 -->
<g id="node11" class="node">
<title>Node11</title>
<g id="a_node11"><a xlink:href="structft_1_1irc_1_1make__error.html#a7d1376947e09efd6feb04512a2029ebb" target="_top" xlink:title=" ">
<polygon fill="white" stroke="black" points="175.5,-284.5 175.5,-314.5 278.5,-314.5 278.5,-284.5 175.5,-284.5"/>
<text text-anchor="start" x="183.5" y="-302.5" font-family="Helvetica,sans-Serif" font-size="10.00">ft::irc::make_error</text>
<text text-anchor="middle" x="227" y="-291.5" font-family="Helvetica,sans-Serif" font-size="10.00">::no_privileges</text>
</a>
</g>
</g>
<!-- Node1&#45;&gt;Node11 -->
<g id="edge10" class="edge">
<title>Node1&#45;&gt;Node11</title>
<path fill="none" stroke="midnightblue" d="M109.78,-333.4C127.43,-328.25 147.32,-322.45 165.59,-317.12"/>
<polygon fill="midnightblue" stroke="midnightblue" points="166.64,-320.46 175.26,-314.3 164.68,-313.74 166.64,-320.46"/>
</g>
<!-- Node12 -->
<g id="node12" class="node">
<title>Node12</title>
<g id="a_node12"><a xlink:href="structft_1_1irc_1_1make__error.html#a49645e4bd33462f78ef25521c290437f" target="_top" xlink:title=" ">
<polygon fill="white" stroke="black" points="175.5,-235.5 175.5,-265.5 278.5,-265.5 278.5,-235.5 175.5,-235.5"/>
<text text-anchor="start" x="183.5" y="-253.5" font-family="Helvetica,sans-Serif" font-size="10.00">ft::irc::make_error</text>
<text text-anchor="middle" x="227" y="-242.5" font-family="Helvetica,sans-Serif" font-size="10.00">::not_registered</text>
</a>
</g>
</g>
<!-- Node1&#45;&gt;Node12 -->
<g id="edge11" class="edge">
<title>Node1&#45;&gt;Node12</title>
<path fill="none" stroke="midnightblue" d="M73.38,-333.44C90.73,-317.17 120.38,-291.46 150,-275.5 155.09,-272.76 160.54,-270.24 166.09,-267.96"/>
<polygon fill="midnightblue" stroke="midnightblue" points="167.42,-271.2 175.48,-264.33 164.89,-264.67 167.42,-271.2"/>
</g>
<!-- Node13 -->
<g id="node13" class="node">
<title>Node13</title>
<g id="a_node13"><a xlink:href="classft_1_1irc_1_1message.html#a34f457ead0453ad914af2cb0482a40b9" target="_top" xlink:title=" ">
<polygon fill="white" stroke="black" points="150,-197 150,-216 304,-216 304,-197 150,-197"/>
<text text-anchor="middle" x="227" y="-204" font-family="Helvetica,sans-Serif" font-size="10.00">ft::irc::message::param_size</text>
</a>
</g>
</g>
<!-- Node1&#45;&gt;Node13 -->
<g id="edge12" class="edge">
<title>Node1&#45;&gt;Node13</title>
<path fill="none" stroke="midnightblue" d="M65.26,-333.13C78.38,-307.06 108.59,-254.29 150,-226.5 153.73,-223.99 157.76,-221.8 161.96,-219.89"/>
<polygon fill="midnightblue" stroke="midnightblue" points="163.36,-223.09 171.33,-216.11 160.75,-216.6 163.36,-223.09"/>
</g>
<!-- Node14 -->
<g id="node14" class="node">
<title>Node14</title>
<g id="a_node14"><a xlink:href="classft_1_1irc_1_1user.html#a1db558d6d694ca943224c2440fe36c50" target="_top" xlink:title=" ">
<polygon fill="white" stroke="black" points="178,-147.5 178,-177.5 276,-177.5 276,-147.5 178,-147.5"/>
<text text-anchor="start" x="186" y="-165.5" font-family="Helvetica,sans-Serif" font-size="10.00">ft::irc::user::send</text>
<text text-anchor="middle" x="227" y="-154.5" font-family="Helvetica,sans-Serif" font-size="10.00">_message</text>
</a>
</g>
</g>
<!-- Node1&#45;&gt;Node14 -->
<g id="edge13" class="edge">
<title>Node1&#45;&gt;Node14</title>
<path fill="none" stroke="midnightblue" d="M62.58,-333.18C72.88,-301.33 100.88,-227.61 150,-187.5 155.42,-183.07 161.65,-179.42 168.17,-176.41"/>
<polygon fill="midnightblue" stroke="midnightblue" points="169.92,-179.47 177.85,-172.44 167.27,-172.99 169.92,-179.47"/>
</g>
<!-- Node15 -->
<g id="node15" class="node">
<title>Node15</title>
<g id="a_node15"><a xlink:href="structft_1_1irc_1_1make__reply__base.html#a0286978513d0078fa15b5a0b68b326a4" target="_top" xlink:title=" ">
<polygon fill="white" stroke="black" points="159.5,-98.5 159.5,-128.5 294.5,-128.5 294.5,-98.5 159.5,-98.5"/>
<text text-anchor="start" x="167.5" y="-116.5" font-family="Helvetica,sans-Serif" font-size="10.00">ft::irc::make_reply</text>
<text text-anchor="middle" x="227" y="-105.5" font-family="Helvetica,sans-Serif" font-size="10.00">_base::set_server_name</text>
</a>
</g>
</g>
<!-- Node1&#45;&gt;Node15 -->
<g id="edge14" class="edge">
<title>Node1&#45;&gt;Node15</title>
<path fill="none" stroke="midnightblue" d="M60.31,-333.35C66.95,-295.03 89.62,-193.39 150,-138.5 151.71,-136.94 153.52,-135.48 155.41,-134.12"/>
<polygon fill="midnightblue" stroke="midnightblue" points="157.5,-136.94 164.14,-128.68 153.8,-130.99 157.5,-136.94"/>
</g>
<!-- Node16 -->
<g id="node16" class="node">
<title>Node16</title>
<g id="a_node16"><a xlink:href="structft_1_1irc_1_1make__reply__base.html#a05d12bbf99ce4c8fde3cbb731135ff26" target="_top" xlink:title=" ">
<polygon fill="white" stroke="black" points="168,-49.5 168,-79.5 286,-79.5 286,-49.5 168,-49.5"/>
<text text-anchor="start" x="176" y="-67.5" font-family="Helvetica,sans-Serif" font-size="10.00">ft::irc::make_reply</text>
<text text-anchor="middle" x="227" y="-56.5" font-family="Helvetica,sans-Serif" font-size="10.00">_base::set_user_nick</text>
</a>
</g>
</g>
<!-- Node1&#45;&gt;Node16 -->
<g id="edge15" class="edge">
<title>Node1&#45;&gt;Node16</title>
<path fill="none" stroke="midnightblue" d="M58.9,-333.2C62.33,-288.95 78.31,-159.52 150,-89.5 152.74,-86.82 155.78,-84.43 159.02,-82.29"/>
<polygon fill="midnightblue" stroke="midnightblue" points="161,-85.19 167.98,-77.21 157.55,-79.1 161,-85.19"/>
</g>
<!-- Node17 -->
<g id="node17" class="node">
<title>Node17</title>
<g id="a_node17"><a xlink:href="structft_1_1irc_1_1make__error.html#a67e1d93a440b1db3ddbf9bff22cd2d8b" target="_top" xlink:title=" ">
<polygon fill="white" stroke="black" points="166.5,-0.5 166.5,-30.5 287.5,-30.5 287.5,-0.5 166.5,-0.5"/>
<text text-anchor="start" x="174.5" y="-18.5" font-family="Helvetica,sans-Serif" font-size="10.00">ft::irc::make_error</text>
<text text-anchor="middle" x="227" y="-7.5" font-family="Helvetica,sans-Serif" font-size="10.00">::unknown_command</text>
</a>
</g>
</g>
<!-- Node1&#45;&gt;Node17 -->
<g id="edge16" class="edge">
<title>Node1&#45;&gt;Node17</title>
<path fill="none" stroke="midnightblue" d="M57.89,-333.26C58.39,-283.82 66.72,-126.1 150,-40.5 152.32,-38.11 154.88,-35.95 157.61,-33.99"/>
<polygon fill="midnightblue" stroke="midnightblue" points="159.51,-36.93 166.22,-28.73 155.86,-30.96 159.51,-36.93"/>
</g>
<!-- Node3 -->
<g id="node3" class="node">
<title>Node3</title>
<g id="a_node3"><a xlink:href="classft_1_1irc_1_1processor__dictionary.html#ad4ae0363dd8c877b12114b358b0c2673" target="_top" xlink:title=" ">
<polygon fill="white" stroke="black" points="340,-645.5 340,-675.5 435,-675.5 435,-645.5 340,-645.5"/>
<text text-anchor="start" x="348" y="-663.5" font-family="Helvetica,sans-Serif" font-size="10.00">ft::irc::processor</text>
<text text-anchor="middle" x="387.5" y="-652.5" font-family="Helvetica,sans-Serif" font-size="10.00">_dictionary::init</text>
</a>
</g>
</g>
<!-- Node2&#45;&gt;Node3 -->
<g id="edge2" class="edge">
<title>Node2&#45;&gt;Node3</title>
<path fill="none" stroke="midnightblue" d="M274.7,-660.5C291.95,-660.5 311.7,-660.5 329.75,-660.5"/>
<polygon fill="midnightblue" stroke="midnightblue" points="329.86,-664 339.86,-660.5 329.86,-657 329.86,-664"/>
</g>
</g>
</svg>
        <g id="navigator" transform="translate(0 0)" fill="#404254">
                <rect fill="#f2f5e9" fill-opacity="0.5" stroke="#606060" stroke-width=".5" x="0" y="0" width="60" height="60"/>
                <use id="zoomplus" xlink:href="#zoomPlus" x="17" y="9" onmousedown="handleZoom(evt,'in')"/>
                <use id="zoomminus" xlink:href="#zoomMin" x="42" y="9" onmousedown="handleZoom(evt,'out')"/>
                <use id="reset" xlink:href="#resetDef" x="30" y="36" onmousedown="handleReset()"/>
                <g id="arrowUp" xlink:href="#dirArrow" transform="translate(30 24)" onmousedown="handlePan(0,-1)">
                  <use xlink:href="#rim" fill="#404040">
                        <set attributeName="fill" to="#808080" begin="arrowUp.mouseover" end="arrowUp.mouseout"/>
                  </use>
                  <path fill="none" stroke="white" stroke-width="1.5" d="M0,-3.0v7 M-2.5,-0.5L0,-3.0L2.5,-0.5"/>
                </g>
                <g id="arrowRight" xlink:href="#dirArrow" transform="rotate(90) translate(36 -43)" onmousedown="handlePan(1,0)">
                  <use xlink:href="#rim" fill="#404040">
                        <set attributeName="fill" to="#808080" begin="arrowRight.mouseover" end="arrowRight.mouseout"/>
                  </use>
                  <path fill="none" stroke="white" stroke-width="1.5" d="M0,-3.0v7 M-2.5,-0.5L0,-3.0L2.5,-0.5"/>
                </g>
                <g id="arrowDown" xlink:href="#dirArrow" transform="rotate(180) translate(-30 -48)" onmousedown="handlePan(0,1)">
                  <use xlink:href="#rim" fill="#404040">
                        <set attributeName="fill" to="#808080" begin="arrowDown.mouseover" end="arrowDown.mouseout"/>
                  </use>
                  <path fill="none" stroke="white" stroke-width="1.5" d="M0,-3.0v7 M-2.5,-0.5L0,-3.0L2.5,-0.5"/>
                </g>
                <g id="arrowLeft" xlink:href="#dirArrow" transform="rotate(270) translate(-36 17)" onmousedown="handlePan(-1,0)">
                  <use xlink:href="#rim" fill="#404040">
                        <set attributeName="fill" to="#808080" begin="arrowLeft.mouseover" end="arrowLeft.mouseout"/>
                  </use>
                  <path fill="none" stroke="white" stroke-width="1.5" d="M0,-3.0v7 M-2.5,-0.5L0,-3.0L2.5,-0.5"/>
                </g>
        </g>
        <svg viewBox="0 0 15 15" width="100%" height="30px" preserveAspectRatio="xMaxYMin meet">
         <g id="arrow_out" transform="scale(0.3 0.3)">
          <a xlink:href="classft_1_1irc_1_1processor__dictionary_a50bd8e9f89f6f6a911f5495272cd7d41_cgraph_org.svg" target="_base">
           <rect id="button" ry="5" rx="5" y="6" x="6" height="38" width="38"
                fill="#f2f5e9" fill-opacity="0.5" stroke="#606060" stroke-width="1.0"/>
           <path id="arrow"
             d="M 11.500037,31.436501 C 11.940474,20.09759 22.043105,11.32322 32.158766,21.979434 L 37.068811,17.246167 C 37.068811,17.246167 37.088388,32 37.088388,32 L 22.160133,31.978069 C 22.160133,31.978069 26.997745,27.140456 26.997745,27.140456 C 18.528582,18.264221 13.291696,25.230495 11.500037,31.436501 z"
             style="fill:#404040;"/>
          </a>
         </g>
        </svg>
</svg>
