<?xml version="1.0" encoding="UTF-8" standalone="no"?>
<!DOCTYPE svg PUBLIC "-//W3C//DTD SVG 1.1//EN"
 "http://www.w3.org/Graphics/SVG/1.1/DTD/svg11.dtd">
<!-- Generated by graphviz version 2.43.0 (0)
 -->
<!-- Title: ft::irc::user::get_server Pages: 1 -->
<!--zoomable 627 -->
<svg id="main" version="1.1" xmlns="http://www.w3.org/2000/svg" xmlns:xlink="http://www.w3.org/1999/xlink" xml:space="preserve" onload="init(evt)">
<style type="text/css"><![CDATA[
.edge:hover path { stroke: red; }
.edge:hover polygon { stroke: red; fill: red; }
]]></style>
<script type="text/javascript"><![CDATA[
var edges = document.getElementsByTagName('g');
if (edges && edges.length) {
  for (var i=0;i<edges.length;i++) {
    if (edges[i].id.substr(0,4)=='edge') {
      edges[i].setAttribute('class','edge');
    }
  }
}
]]></script>
        <defs>
                <circle id="rim" cx="0" cy="0" r="7"/>
                <circle id="rim2" cx="0" cy="0" r="3.5"/>
                <g id="zoomPlus">
                        <use xlink:href="#rim" fill="#404040">
                                <set attributeName="fill" to="#808080" begin="zoomplus.mouseover" end="zoomplus.mouseout"/>
                        </use>
                        <path d="M-4,0h8M0,-4v8" fill="none" stroke="white" stroke-width="1.5" pointer-events="none"/>
                </g>
                <g id="zoomMin">
                        <use xlink:href="#rim" fill="#404040">
                                <set attributeName="fill" to="#808080" begin="zoomminus.mouseover" end="zoomminus.mouseout"/>
                        </use>
                        <path d="M-4,0h8" fill="none" stroke="white" stroke-width="1.5" pointer-events="none"/>
                </g>
                <g id="dirArrow">
                        <path fill="none" stroke="white" stroke-width="1.5" d="M0,-3.0v7 M-2.5,-0.5L0,-3.0L2.5,-0.5"/>
                </g>
               <g id="resetDef">
                       <use xlink:href="#rim2" fill="#404040">
                               <set attributeName="fill" to="#808080" begin="reset.mouseover" end="reset.mouseout"/>
                       </use>
               </g>
        </defs>

<script type="text/javascript">
var viewWidth = 425;
var viewHeight = 627;
var sectionId = 'dynsection-11';
</script>
<script xlink:href="svgpan.js"/>
<svg id="graph" class="graph">
<g id="viewport">
<title>ft::irc::user::get_server</title>
<polygon fill="white" stroke="transparent" points="-4,4 -4,-623 421,-623 421,4 -4,4"/>
<!-- Node1 -->
<g id="node1" class="node">
<title>Node1</title>
<g id="a_node1"><a xlink:title=" ">
<polygon fill="#bfbfbf" stroke="black" points="327,-294.5 327,-324.5 417,-324.5 417,-294.5 327,-294.5"/>
<text text-anchor="start" x="335" y="-312.5" font-family="Helvetica,sans-Serif" font-size="10.00">ft::irc::user::get</text>
<text text-anchor="middle" x="372" y="-301.5" font-family="Helvetica,sans-Serif" font-size="10.00">_server</text>
</a>
</g>
</g>
<!-- Node2 -->
<g id="node2" class="node">
<title>Node2</title>
<g id="a_node2"><a xlink:href="classft_1_1irc_1_1processor__dictionary.html#a50bd8e9f89f6f6a911f5495272cd7d41" target="_top" xlink:title=" ">
<polygon fill="white" stroke="black" points="164.5,-588.5 164.5,-618.5 278.5,-618.5 278.5,-588.5 164.5,-588.5"/>
<text text-anchor="start" x="172.5" y="-606.5" font-family="Helvetica,sans-Serif" font-size="10.00">ft::irc::processor</text>
<text text-anchor="middle" x="221.5" y="-595.5" font-family="Helvetica,sans-Serif" font-size="10.00">_dictionary::execute</text>
</a>
</g>
</g>
<!-- Node1&#45;&gt;Node2 -->
<g id="edge1" class="edge">
<title>Node1&#45;&gt;Node2</title>
<path fill="none" stroke="midnightblue" d="M370.79,-334.81C368.99,-387.48 357.41,-509.76 291,-579.5 287.44,-583.24 283.26,-586.4 278.75,-589.07"/>
<polygon fill="midnightblue" stroke="midnightblue" points="374.3,-334.75 371.05,-324.67 367.3,-334.58 374.3,-334.75"/>
</g>
<!-- Node4 -->
<g id="node4" class="node">
<title>Node4</title>
<g id="a_node4"><a xlink:href="classft_1_1irc_1_1processor__join.html#a7005b0403c1e6e10aa6f6f05339df357" target="_top" xlink:title=" ">
<polygon fill="white" stroke="black" points="174,-539.5 174,-569.5 269,-569.5 269,-539.5 174,-539.5"/>
<text text-anchor="start" x="182" y="-557.5" font-family="Helvetica,sans-Serif" font-size="10.00">ft::irc::processor</text>
<text text-anchor="middle" x="221.5" y="-546.5" font-family="Helvetica,sans-Serif" font-size="10.00">_join::execute</text>
</a>
</g>
</g>
<!-- Node1&#45;&gt;Node4 -->
<g id="edge3" class="edge">
<title>Node1&#45;&gt;Node4</title>
<path fill="none" stroke="midnightblue" d="M368.8,-334.9C363.54,-380.33 346.19,-475.87 291,-530.5 284.91,-536.53 277.22,-541.05 269.21,-544.43"/>
<polygon fill="midnightblue" stroke="midnightblue" points="372.31,-335.04 369.87,-324.73 365.35,-334.31 372.31,-335.04"/>
</g>
<!-- Node5 -->
<g id="node5" class="node">
<title>Node5</title>
<g id="a_node5"><a xlink:href="classft_1_1irc_1_1processor__part.html#a4075107cb360cd04c0a11a9904104ad0" target="_top" xlink:title=" ">
<polygon fill="white" stroke="black" points="174,-490.5 174,-520.5 269,-520.5 269,-490.5 174,-490.5"/>
<text text-anchor="start" x="182" y="-508.5" font-family="Helvetica,sans-Serif" font-size="10.00">ft::irc::processor</text>
<text text-anchor="middle" x="221.5" y="-497.5" font-family="Helvetica,sans-Serif" font-size="10.00">_part::execute</text>
</a>
</g>
</g>
<!-- Node1&#45;&gt;Node5 -->
<g id="edge4" class="edge">
<title>Node1&#45;&gt;Node5</title>
<path fill="none" stroke="midnightblue" d="M365.82,-334.76C356.9,-371.97 335.2,-441.45 291,-481.5 284.74,-487.17 277.07,-491.51 269.15,-494.84"/>
<polygon fill="midnightblue" stroke="midnightblue" points="369.29,-335.27 368.09,-324.74 362.46,-333.72 369.29,-335.27"/>
</g>
<!-- Node6 -->
<g id="node6" class="node">
<title>Node6</title>
<g id="a_node6"><a xlink:href="classft_1_1irc_1_1processor__mode.html#ad013987a789be47379c13f61364135a6" target="_top" xlink:title=" ">
<polygon fill="white" stroke="black" points="174,-441.5 174,-471.5 269,-471.5 269,-441.5 174,-441.5"/>
<text text-anchor="start" x="182" y="-459.5" font-family="Helvetica,sans-Serif" font-size="10.00">ft::irc::processor</text>
<text text-anchor="middle" x="221.5" y="-448.5" font-family="Helvetica,sans-Serif" font-size="10.00">_mode::execute</text>
</a>
</g>
</g>
<!-- Node1&#45;&gt;Node6 -->
<g id="edge5" class="edge">
<title>Node1&#45;&gt;Node6</title>
<path fill="none" stroke="midnightblue" d="M360.95,-334.02C348.44,-361.66 324.55,-406.16 291,-432.5 284.56,-437.56 276.97,-441.59 269.24,-444.8"/>
<polygon fill="midnightblue" stroke="midnightblue" points="364.24,-335.23 365.04,-324.67 357.82,-332.42 364.24,-335.23"/>
</g>
<!-- Node7 -->
<g id="node7" class="node">
<title>Node7</title>
<g id="a_node7"><a xlink:href="classft_1_1irc_1_1processor__topic.html#ae4eec2a7267b66791a72bbab1d4842c0" target="_top" xlink:title=" ">
<polygon fill="white" stroke="black" points="174,-392.5 174,-422.5 269,-422.5 269,-392.5 174,-392.5"/>
<text text-anchor="start" x="182" y="-410.5" font-family="Helvetica,sans-Serif" font-size="10.00">ft::irc::processor</text>
<text text-anchor="middle" x="221.5" y="-399.5" font-family="Helvetica,sans-Serif" font-size="10.00">_topic::execute</text>
</a>
</g>
</g>
<!-- Node1&#45;&gt;Node7 -->
<g id="edge6" class="edge">
<title>Node1&#45;&gt;Node7</title>
<path fill="none" stroke="midnightblue" d="M351.44,-331.99C336.32,-348.2 314.13,-369.58 291,-383.5 284.31,-387.53 276.84,-391.01 269.36,-393.98"/>
<polygon fill="midnightblue" stroke="midnightblue" points="354.11,-334.25 358.27,-324.5 348.94,-329.53 354.11,-334.25"/>
</g>
<!-- Node8 -->
<g id="node8" class="node">
<title>Node8</title>
<g id="a_node8"><a xlink:href="classft_1_1irc_1_1processor__names.html#a95f660c1020ac7f26cceacd932f48f09" target="_top" xlink:title=" ">
<polygon fill="white" stroke="black" points="172,-343.5 172,-373.5 271,-373.5 271,-343.5 172,-343.5"/>
<text text-anchor="start" x="180" y="-361.5" font-family="Helvetica,sans-Serif" font-size="10.00">ft::irc::processor</text>
<text text-anchor="middle" x="221.5" y="-350.5" font-family="Helvetica,sans-Serif" font-size="10.00">_names::execute</text>
</a>
</g>
</g>
<!-- Node1&#45;&gt;Node8 -->
<g id="edge7" class="edge">
<title>Node1&#45;&gt;Node8</title>
<path fill="none" stroke="midnightblue" d="M317.04,-327.3C300.96,-332.61 283.51,-338.37 268.03,-343.48"/>
<polygon fill="midnightblue" stroke="midnightblue" points="318.45,-330.53 326.85,-324.07 316.25,-323.88 318.45,-330.53"/>
</g>
<!-- Node9 -->
<g id="node9" class="node">
<title>Node9</title>
<g id="a_node9"><a xlink:href="classft_1_1irc_1_1processor__list.html#aa4ed52d03d87a5f03d9c6d2e53e0409b" target="_top" xlink:title=" ">
<polygon fill="white" stroke="black" points="174,-294.5 174,-324.5 269,-324.5 269,-294.5 174,-294.5"/>
<text text-anchor="start" x="182" y="-312.5" font-family="Helvetica,sans-Serif" font-size="10.00">ft::irc::processor</text>
<text text-anchor="middle" x="221.5" y="-301.5" font-family="Helvetica,sans-Serif" font-size="10.00">_list::execute</text>
</a>
</g>
</g>
<!-- Node1&#45;&gt;Node9 -->
<g id="edge8" class="edge">
<title>Node1&#45;&gt;Node9</title>
<path fill="none" stroke="midnightblue" d="M316.78,-309.5C301.13,-309.5 284.2,-309.5 269.06,-309.5"/>
<polygon fill="midnightblue" stroke="midnightblue" points="316.85,-313 326.85,-309.5 316.85,-306 316.85,-313"/>
</g>
<!-- Node10 -->
<g id="node10" class="node">
<title>Node10</title>
<g id="a_node10"><a xlink:href="classft_1_1irc_1_1processor__invite.html#a558fbe35293f4a0783af9a50f7146eeb" target="_top" xlink:title=" ">
<polygon fill="white" stroke="black" points="174,-245.5 174,-275.5 269,-275.5 269,-245.5 174,-245.5"/>
<text text-anchor="start" x="182" y="-263.5" font-family="Helvetica,sans-Serif" font-size="10.00">ft::irc::processor</text>
<text text-anchor="middle" x="221.5" y="-252.5" font-family="Helvetica,sans-Serif" font-size="10.00">_invite::execute</text>
</a>
</g>
</g>
<!-- Node1&#45;&gt;Node10 -->
<g id="edge9" class="edge">
<title>Node1&#45;&gt;Node10</title>
<path fill="none" stroke="midnightblue" d="M317.04,-291.7C300.96,-286.39 283.51,-280.63 268.03,-275.52"/>
<polygon fill="midnightblue" stroke="midnightblue" points="316.25,-295.12 326.85,-294.93 318.45,-288.47 316.25,-295.12"/>
</g>
<!-- Node11 -->
<g id="node11" class="node">
<title>Node11</title>
<g id="a_node11"><a xlink:href="classft_1_1irc_1_1processor__kick.html#ac453ac8376e577bb0a2b4f074fe9be1b" target="_top" xlink:title=" ">
<polygon fill="white" stroke="black" points="174,-196.5 174,-226.5 269,-226.5 269,-196.5 174,-196.5"/>
<text text-anchor="start" x="182" y="-214.5" font-family="Helvetica,sans-Serif" font-size="10.00">ft::irc::processor</text>
<text text-anchor="middle" x="221.5" y="-203.5" font-family="Helvetica,sans-Serif" font-size="10.00">_kick::execute</text>
</a>
</g>
</g>
<!-- Node1&#45;&gt;Node11 -->
<g id="edge10" class="edge">
<title>Node1&#45;&gt;Node11</title>
<path fill="none" stroke="midnightblue" d="M351.06,-287.13C335.89,-271.22 313.8,-250.32 291,-236.5 284.29,-232.43 276.81,-228.87 269.33,-225.8"/>
<polygon fill="midnightblue" stroke="midnightblue" points="348.54,-289.56 357.92,-294.48 353.65,-284.78 348.54,-289.56"/>
</g>
<!-- Node12 -->
<g id="node12" class="node">
<title>Node12</title>
<g id="a_node12"><a xlink:href="classft_1_1irc_1_1processor__kill.html#a3f41c93c4c3a85ccb4b034c5a185208a" target="_top" xlink:title=" ">
<polygon fill="white" stroke="black" points="174,-147.5 174,-177.5 269,-177.5 269,-147.5 174,-147.5"/>
<text text-anchor="start" x="182" y="-165.5" font-family="Helvetica,sans-Serif" font-size="10.00">ft::irc::processor</text>
<text text-anchor="middle" x="221.5" y="-154.5" font-family="Helvetica,sans-Serif" font-size="10.00">_kill::execute</text>
</a>
</g>
</g>
<!-- Node1&#45;&gt;Node12 -->
<g id="edge11" class="edge">
<title>Node1&#45;&gt;Node12</title>
<path fill="none" stroke="midnightblue" d="M360.63,-284.82C347.96,-257.45 324.06,-213.7 291,-187.5 284.55,-182.39 276.96,-178.26 269.22,-174.95"/>
<polygon fill="midnightblue" stroke="midnightblue" points="357.51,-286.4 364.79,-294.1 363.9,-283.54 357.51,-286.4"/>
</g>
<!-- Node13 -->
<g id="node13" class="node">
<title>Node13</title>
<g id="a_node13"><a xlink:href="classft_1_1irc_1_1processor__pass.html#a8b0f8638123bb81ce8f4e493e43b45a0" target="_top" xlink:title=" ">
<polygon fill="white" stroke="black" points="174,-98.5 174,-128.5 269,-128.5 269,-98.5 174,-98.5"/>
<text text-anchor="start" x="182" y="-116.5" font-family="Helvetica,sans-Serif" font-size="10.00">ft::irc::processor</text>
<text text-anchor="middle" x="221.5" y="-105.5" font-family="Helvetica,sans-Serif" font-size="10.00">_pass::execute</text>
</a>
</g>
</g>
<!-- Node1&#45;&gt;Node13 -->
<g id="edge12" class="edge">
<title>Node1&#45;&gt;Node13</title>
<path fill="none" stroke="midnightblue" d="M365.71,-284.46C356.65,-247.55 334.78,-178.6 291,-138.5 284.75,-132.77 277.07,-128.33 269.15,-124.89"/>
<polygon fill="midnightblue" stroke="midnightblue" points="362.34,-285.45 368.02,-294.39 369.16,-283.86 362.34,-285.45"/>
</g>
<!-- Node14 -->
<g id="node14" class="node">
<title>Node14</title>
<g id="a_node14"><a xlink:href="classft_1_1irc_1_1processor__oper.html#a941691cbab81d134cb4ffc30bd270d04" target="_top" xlink:title=" ">
<polygon fill="white" stroke="black" points="174,-49.5 174,-79.5 269,-79.5 269,-49.5 174,-49.5"/>
<text text-anchor="start" x="182" y="-67.5" font-family="Helvetica,sans-Serif" font-size="10.00">ft::irc::processor</text>
<text text-anchor="middle" x="221.5" y="-56.5" font-family="Helvetica,sans-Serif" font-size="10.00">_oper::execute</text>
</a>
</g>
</g>
<!-- Node1&#45;&gt;Node14 -->
<g id="edge13" class="edge">
<title>Node1&#45;&gt;Node14</title>
<path fill="none" stroke="midnightblue" d="M368.7,-284.29C363.26,-239.16 345.66,-144.22 291,-89.5 284.92,-83.41 277.23,-78.79 269.23,-75.29"/>
<polygon fill="midnightblue" stroke="midnightblue" points="365.24,-284.82 369.81,-294.38 372.19,-284.06 365.24,-284.82"/>
</g>
<!-- Node15 -->
<g id="node15" class="node">
<title>Node15</title>
<g id="a_node15"><a xlink:href="classft_1_1irc_1_1processor__message__base.html#ab3fba6f27483543b9c7a559fd2e1402b" target="_top" xlink:title=" ">
<polygon fill="white" stroke="black" points="152,-0.5 152,-30.5 291,-30.5 291,-0.5 152,-0.5"/>
<text text-anchor="start" x="160" y="-18.5" font-family="Helvetica,sans-Serif" font-size="10.00">ft::irc::processor</text>
<text text-anchor="middle" x="221.5" y="-7.5" font-family="Helvetica,sans-Serif" font-size="10.00">_message_base::execute</text>
</a>
</g>
</g>
<!-- Node1&#45;&gt;Node15 -->
<g id="edge14" class="edge">
<title>Node1&#45;&gt;Node15</title>
<path fill="none" stroke="midnightblue" d="M370.69,-284.35C368.69,-232 356.77,-110.4 291,-40.5 287.36,-36.63 283.06,-33.35 278.44,-30.58"/>
<polygon fill="midnightblue" stroke="midnightblue" points="367.2,-284.53 370.98,-294.43 374.19,-284.33 367.2,-284.53"/>
</g>
<!-- Node3 -->
<g id="node3" class="node">
<title>Node3</title>
<g id="a_node3"><a xlink:href="classft_1_1irc_1_1client__handler.html#a239d2ec2a936d74893455a83468669b3" target="_top" xlink:title=" ">
<polygon fill="white" stroke="black" points="0,-588.5 0,-618.5 116,-618.5 116,-588.5 0,-588.5"/>
<text text-anchor="start" x="8" y="-606.5" font-family="Helvetica,sans-Serif" font-size="10.00">ft::irc::client_handler</text>
<text text-anchor="middle" x="58" y="-595.5" font-family="Helvetica,sans-Serif" font-size="10.00">::on_read</text>
</a>
</g>
</g>
<!-- Node2&#45;&gt;Node3 -->
<g id="edge2" class="edge">
<title>Node2&#45;&gt;Node3</title>
<path fill="none" stroke="midnightblue" d="M154.39,-603.5C141.67,-603.5 128.44,-603.5 116.03,-603.5"/>
<polygon fill="midnightblue" stroke="midnightblue" points="154.47,-607 164.47,-603.5 154.47,-600 154.47,-607"/>
</g>
</g>
</svg>
        <g id="navigator" transform="translate(0 0)" fill="#404254">
                <rect fill="#f2f5e9" fill-opacity="0.5" stroke="#606060" stroke-width=".5" x="0" y="0" width="60" height="60"/>
                <use id="zoomplus" xlink:href="#zoomPlus" x="17" y="9" onmousedown="handleZoom(evt,'in')"/>
                <use id="zoomminus" xlink:href="#zoomMin" x="42" y="9" onmousedown="handleZoom(evt,'out')"/>
                <use id="reset" xlink:href="#resetDef" x="30" y="36" onmousedown="handleReset()"/>
                <g id="arrowUp" xlink:href="#dirArrow" transform="translate(30 24)" onmousedown="handlePan(0,-1)">
                  <use xlink:href="#rim" fill="#404040">
                        <set attributeName="fill" to="#808080" begin="arrowUp.mouseover" end="arrowUp.mouseout"/>
                  </use>
                  <path fill="none" stroke="white" stroke-width="1.5" d="M0,-3.0v7 M-2.5,-0.5L0,-3.0L2.5,-0.5"/>
                </g>
                <g id="arrowRight" xlink:href="#dirArrow" transform="rotate(90) translate(36 -43)" onmousedown="handlePan(1,0)">
                  <use xlink:href="#rim" fill="#404040">
                        <set attributeName="fill" to="#808080" begin="arrowRight.mouseover" end="arrowRight.mouseout"/>
                  </use>
                  <path fill="none" stroke="white" stroke-width="1.5" d="M0,-3.0v7 M-2.5,-0.5L0,-3.0L2.5,-0.5"/>
                </g>
                <g id="arrowDown" xlink:href="#dirArrow" transform="rotate(180) translate(-30 -48)" onmousedown="handlePan(0,1)">
                  <use xlink:href="#rim" fill="#404040">
                        <set attributeName="fill" to="#808080" begin="arrowDown.mouseover" end="arrowDown.mouseout"/>
                  </use>
                  <path fill="none" stroke="white" stroke-width="1.5" d="M0,-3.0v7 M-2.5,-0.5L0,-3.0L2.5,-0.5"/>
                </g>
                <g id="arrowLeft" xlink:href="#dirArrow" transform="rotate(270) translate(-36 17)" onmousedown="handlePan(-1,0)">
                  <use xlink:href="#rim" fill="#404040">
                        <set attributeName="fill" to="#808080" begin="arrowLeft.mouseover" end="arrowLeft.mouseout"/>
                  </use>
                  <path fill="none" stroke="white" stroke-width="1.5" d="M0,-3.0v7 M-2.5,-0.5L0,-3.0L2.5,-0.5"/>
                </g>
        </g>
        <svg viewBox="0 0 15 15" width="100%" height="30px" preserveAspectRatio="xMaxYMin meet">
         <g id="arrow_out" transform="scale(0.3 0.3)">
          <a xlink:href="classft_1_1irc_1_1user_ae476cc31795df7fbb726b193ab887e75_icgraph_org.svg" target="_base">
           <rect id="button" ry="5" rx="5" y="6" x="6" height="38" width="38"
                fill="#f2f5e9" fill-opacity="0.5" stroke="#606060" stroke-width="1.0"/>
           <path id="arrow"
             d="M 11.500037,31.436501 C 11.940474,20.09759 22.043105,11.32322 32.158766,21.979434 L 37.068811,17.246167 C 37.068811,17.246167 37.088388,32 37.088388,32 L 22.160133,31.978069 C 22.160133,31.978069 26.997745,27.140456 26.997745,27.140456 C 18.528582,18.264221 13.291696,25.230495 11.500037,31.436501 z"
             style="fill:#404040;"/>
          </a>
         </g>
        </svg>
</svg>
