<?xml version="1.0" encoding="UTF-8" standalone="no"?>
<!DOCTYPE svg PUBLIC "-//W3C//DTD SVG 1.1//EN"
 "http://www.w3.org/Graphics/SVG/1.1/DTD/svg11.dtd">
<!-- Generated by graphviz version 2.43.0 (0)
 -->
<!-- Title: ft::irc::processor_names::execute Pages: 1 -->
<svg width="461pt" height="453pt"
 viewBox="0.00 0.00 461.00 453.00" xmlns="http://www.w3.org/2000/svg" xmlns:xlink="http://www.w3.org/1999/xlink">
<g id="graph0" class="graph" transform="scale(1 1) rotate(0) translate(4 449)">
<title>ft::irc::processor_names::execute</title>
<polygon fill="white" stroke="transparent" points="-4,4 -4,-449 457,-449 457,4 -4,4"/>
<!-- Node1 -->
<g id="node1" class="node">
<title>Node1</title>
<g id="a_node1"><a xlink:title=" ">
<polygon fill="#bfbfbf" stroke="black" points="0,-223.5 0,-253.5 99,-253.5 99,-223.5 0,-223.5"/>
<text text-anchor="start" x="8" y="-241.5" font-family="Helvetica,sans-Serif" font-size="10.00">ft::irc::processor</text>
<text text-anchor="middle" x="49.5" y="-230.5" font-family="Helvetica,sans-Serif" font-size="10.00">_names::execute</text>
</a>
</g>
</g>
<!-- Node2 -->
<g id="node2" class="node">
<title>Node2</title>
<g id="a_node2"><a xlink:href="classft_1_1irc_1_1user.html#ae7ad74d915c3414aa58fd2fc92791539" target="_top" xlink:title=" ">
<polygon fill="white" stroke="black" points="155.5,-414.5 155.5,-444.5 268.5,-444.5 268.5,-414.5 155.5,-414.5"/>
<text text-anchor="start" x="163.5" y="-432.5" font-family="Helvetica,sans-Serif" font-size="10.00">ft::irc::user::channel</text>
<text text-anchor="middle" x="212" y="-421.5" font-family="Helvetica,sans-Serif" font-size="10.00">_names_snapshot</text>
</a>
</g>
</g>
<!-- Node1&#45;&gt;Node2 -->
<g id="edge1" class="edge">
<title>Node1&#45;&gt;Node2</title>
<path fill="none" stroke="midnightblue" d="M54,-253.92C62.23,-286.73 85.96,-363.85 135,-405.5 138.41,-408.4 142.18,-410.95 146.15,-413.19"/>
<polygon fill="midnightblue" stroke="midnightblue" points="144.62,-416.34 155.13,-417.63 147.72,-410.06 144.62,-416.34"/>
</g>
<!-- Node3 -->
<g id="node3" class="node">
<title>Node3</title>
<g id="a_node3"><a xlink:href="classft_1_1irc_1_1server.html#a0e7dee7efef3f36af15d1a3b97f3bad9" target="_top" xlink:title=" ">
<polygon fill="white" stroke="black" points="161,-365.5 161,-395.5 263,-395.5 263,-365.5 161,-365.5"/>
<text text-anchor="start" x="169" y="-383.5" font-family="Helvetica,sans-Serif" font-size="10.00">ft::irc::server::find</text>
<text text-anchor="middle" x="212" y="-372.5" font-family="Helvetica,sans-Serif" font-size="10.00">_channel</text>
</a>
</g>
</g>
<!-- Node1&#45;&gt;Node3 -->
<g id="edge2" class="edge">
<title>Node1&#45;&gt;Node3</title>
<path fill="none" stroke="midnightblue" d="M57.29,-253.57C69.35,-278.62 96.86,-328.83 135,-356.5 140.07,-360.18 145.73,-363.31 151.6,-365.97"/>
<polygon fill="midnightblue" stroke="midnightblue" points="150.38,-369.25 160.96,-369.77 153.01,-362.76 150.38,-369.25"/>
</g>
<!-- Node4 -->
<g id="node4" class="node">
<title>Node4</title>
<g id="a_node4"><a xlink:href="classft_1_1irc_1_1user.html#ae476cc31795df7fbb726b193ab887e75" target="_top" xlink:title=" ">
<polygon fill="white" stroke="black" points="167,-316.5 167,-346.5 257,-346.5 257,-316.5 167,-316.5"/>
<text text-anchor="start" x="175" y="-334.5" font-family="Helvetica,sans-Serif" font-size="10.00">ft::irc::user::get</text>
<text text-anchor="middle" x="212" y="-323.5" font-family="Helvetica,sans-Serif" font-size="10.00">_server</text>
</a>
</g>
</g>
<!-- Node1&#45;&gt;Node4 -->
<g id="edge3" class="edge">
<title>Node1&#45;&gt;Node4</title>
<path fill="none" stroke="midnightblue" d="M65.39,-253.68C81.34,-269.16 108.01,-292.92 135,-307.5 141.93,-311.25 149.54,-314.51 157.19,-317.33"/>
<polygon fill="midnightblue" stroke="midnightblue" points="156.24,-320.7 166.83,-320.66 158.52,-314.09 156.24,-320.7"/>
</g>
<!-- Node5 -->
<g id="node5" class="node">
<title>Node5</title>
<g id="a_node5"><a xlink:href="structft_1_1irc_1_1string__utils.html#a38cd804a5b73843f0fd63a027dd0dee0" target="_top" xlink:title=" ">
<polygon fill="white" stroke="black" points="146.5,-267.5 146.5,-297.5 277.5,-297.5 277.5,-267.5 146.5,-267.5"/>
<text text-anchor="start" x="154.5" y="-285.5" font-family="Helvetica,sans-Serif" font-size="10.00">ft::irc::string_utils</text>
<text text-anchor="middle" x="212" y="-274.5" font-family="Helvetica,sans-Serif" font-size="10.00">::is_valid_channelname</text>
</a>
</g>
</g>
<!-- Node1&#45;&gt;Node5 -->
<g id="edge4" class="edge">
<title>Node1&#45;&gt;Node5</title>
<path fill="none" stroke="midnightblue" d="M99.09,-251.82C113.99,-255.91 130.62,-260.47 146.41,-264.79"/>
<polygon fill="midnightblue" stroke="midnightblue" points="145.55,-268.19 156.11,-267.45 147.4,-261.43 145.55,-268.19"/>
</g>
<!-- Node7 -->
<g id="node7" class="node">
<title>Node7</title>
<g id="a_node7"><a xlink:href="classft_1_1irc_1_1channel.html#a01d060ed582406cbe40ec0889408d5b2" target="_top" xlink:title=" ">
<polygon fill="white" stroke="black" points="139,-229 139,-248 285,-248 285,-229 139,-229"/>
<text text-anchor="middle" x="212" y="-236" font-family="Helvetica,sans-Serif" font-size="10.00">ft::irc::channel::load_mode</text>
</a>
</g>
</g>
<!-- Node1&#45;&gt;Node7 -->
<g id="edge6" class="edge">
<title>Node1&#45;&gt;Node7</title>
<path fill="none" stroke="midnightblue" d="M99.09,-238.5C108.5,-238.5 118.6,-238.5 128.75,-238.5"/>
<polygon fill="midnightblue" stroke="midnightblue" points="128.89,-242 138.89,-238.5 128.89,-235 128.89,-242"/>
</g>
<!-- Node8 -->
<g id="node8" class="node">
<title>Node8</title>
<g id="a_node8"><a xlink:href="classft_1_1irc_1_1user.html#a3cfeaf12c0bdb6ac02debf5e19ce50d2" target="_top" xlink:title=" ">
<polygon fill="white" stroke="black" points="325,-197 325,-216 453,-216 453,-197 325,-197"/>
<text text-anchor="middle" x="389" y="-204" font-family="Helvetica,sans-Serif" font-size="10.00">ft::irc::user::load_mode</text>
</a>
</g>
</g>
<!-- Node1&#45;&gt;Node8 -->
<g id="edge7" class="edge">
<title>Node1&#45;&gt;Node8</title>
<path fill="none" stroke="midnightblue" d="M99.39,-226.03C111,-223.48 123.38,-221.09 135,-219.5 195.13,-211.26 263.95,-208.12 314.61,-206.99"/>
<polygon fill="midnightblue" stroke="midnightblue" points="314.89,-210.48 324.82,-206.78 314.75,-203.48 314.89,-210.48"/>
</g>
<!-- Node9 -->
<g id="node9" class="node">
<title>Node9</title>
<g id="a_node9"><a xlink:href="classft_1_1irc_1_1message.html#a34f457ead0453ad914af2cb0482a40b9" target="_top" xlink:title=" ">
<polygon fill="white" stroke="black" points="135,-153 135,-172 289,-172 289,-153 135,-153"/>
<text text-anchor="middle" x="212" y="-160" font-family="Helvetica,sans-Serif" font-size="10.00">ft::irc::message::param_size</text>
</a>
</g>
</g>
<!-- Node1&#45;&gt;Node9 -->
<g id="edge8" class="edge">
<title>Node1&#45;&gt;Node9</title>
<path fill="none" stroke="midnightblue" d="M71.92,-223.27C88.52,-211.98 112.44,-196.81 135,-186.5 144.34,-182.23 154.66,-178.42 164.6,-175.16"/>
<polygon fill="midnightblue" stroke="midnightblue" points="165.88,-178.42 174.36,-172.08 163.77,-171.75 165.88,-178.42"/>
</g>
<!-- Node10 -->
<g id="node10" class="node">
<title>Node10</title>
<g id="a_node10"><a xlink:href="classft_1_1irc_1_1channel.html#a5b005d44090820196503e46e45724a51" target="_top" xlink:title=" ">
<polygon fill="white" stroke="black" points="154.5,-103.5 154.5,-133.5 269.5,-133.5 269.5,-103.5 154.5,-103.5"/>
<text text-anchor="start" x="162.5" y="-121.5" font-family="Helvetica,sans-Serif" font-size="10.00">ft::irc::channel::send</text>
<text text-anchor="middle" x="212" y="-110.5" font-family="Helvetica,sans-Serif" font-size="10.00">_names</text>
</a>
</g>
</g>
<!-- Node1&#45;&gt;Node10 -->
<g id="edge9" class="edge">
<title>Node1&#45;&gt;Node10</title>
<path fill="none" stroke="midnightblue" d="M60.11,-223.42C74.13,-202.57 102.15,-165.06 135,-143.5 138.15,-141.44 141.48,-139.53 144.92,-137.77"/>
<polygon fill="midnightblue" stroke="midnightblue" points="146.64,-140.83 154.24,-133.44 143.7,-134.48 146.64,-140.83"/>
</g>
<!-- Node15 -->
<g id="node15" class="node">
<title>Node15</title>
<g id="a_node15"><a xlink:href="classft_1_1irc_1_1message.html#adf434fdc28e74fb166c6046c0ac5c6d5" target="_top" xlink:title=" ">
<polygon fill="white" stroke="black" points="152.5,-65 152.5,-84 271.5,-84 271.5,-65 152.5,-65"/>
<text text-anchor="middle" x="212" y="-72" font-family="Helvetica,sans-Serif" font-size="10.00">ft::irc::message::split</text>
</a>
</g>
</g>
<!-- Node1&#45;&gt;Node15 -->
<g id="edge15" class="edge">
<title>Node1&#45;&gt;Node15</title>
<path fill="none" stroke="midnightblue" d="M55.08,-223.23C64.77,-193.65 90.19,-128.47 135,-94.5 138.15,-92.11 141.56,-90.01 145.14,-88.15"/>
<polygon fill="midnightblue" stroke="midnightblue" points="146.6,-91.33 154.29,-84.04 143.74,-84.94 146.6,-91.33"/>
</g>
<!-- Node6 -->
<g id="node6" class="node">
<title>Node6</title>
<g id="a_node6"><a xlink:href="namespaceft_1_1irc_1_1__internal.html#ac421a738f6d955bab8b862fca8bd7159" target="_top" xlink:title=" ">
<polygon fill="white" stroke="black" points="344,-267.5 344,-297.5 434,-297.5 434,-267.5 344,-267.5"/>
<text text-anchor="start" x="352" y="-285.5" font-family="Helvetica,sans-Serif" font-size="10.00">ft::irc::_internal</text>
<text text-anchor="middle" x="389" y="-274.5" font-family="Helvetica,sans-Serif" font-size="10.00">::_is_except</text>
</a>
</g>
</g>
<!-- Node5&#45;&gt;Node6 -->
<g id="edge5" class="edge">
<title>Node5&#45;&gt;Node6</title>
<path fill="none" stroke="midnightblue" d="M277.67,-282.5C296.06,-282.5 315.9,-282.5 333.62,-282.5"/>
<polygon fill="midnightblue" stroke="midnightblue" points="333.78,-286 343.78,-282.5 333.78,-279 333.78,-286"/>
</g>
<!-- Node10&#45;&gt;Node8 -->
<g id="edge12" class="edge">
<title>Node10&#45;&gt;Node8</title>
<path fill="none" stroke="midnightblue" d="M269.52,-133.04C276.37,-135.96 283.04,-139.41 289,-143.5 309.83,-157.8 303.99,-173.46 325,-187.5 328.08,-189.56 331.39,-191.4 334.82,-193.04"/>
<polygon fill="midnightblue" stroke="midnightblue" points="333.54,-196.3 344.11,-196.96 336.26,-189.85 333.54,-196.3"/>
</g>
<!-- Node11 -->
<g id="node11" class="node">
<title>Node11</title>
<g id="a_node11"><a xlink:href="structft_1_1irc_1_1make__reply.html#a62504faa310fedb0768c15ec641ea748" target="_top" xlink:title=" ">
<polygon fill="white" stroke="black" points="337,-147.5 337,-177.5 441,-177.5 441,-147.5 337,-147.5"/>
<text text-anchor="start" x="345" y="-165.5" font-family="Helvetica,sans-Serif" font-size="10.00">ft::irc::make_reply</text>
<text text-anchor="middle" x="389" y="-154.5" font-family="Helvetica,sans-Serif" font-size="10.00">::end_of_names</text>
</a>
</g>
</g>
<!-- Node10&#45;&gt;Node11 -->
<g id="edge10" class="edge">
<title>Node10&#45;&gt;Node11</title>
<path fill="none" stroke="midnightblue" d="M269.82,-132.79C288.09,-137.38 308.41,-142.49 326.97,-147.16"/>
<polygon fill="midnightblue" stroke="midnightblue" points="326.24,-150.58 336.79,-149.62 327.94,-143.79 326.24,-150.58"/>
</g>
<!-- Node12 -->
<g id="node12" class="node">
<title>Node12</title>
<g id="a_node12"><a xlink:href="classft_1_1irc_1_1user.html#a43fb91fff5e13afd67f9e642137eca40" target="_top" xlink:title=" ">
<polygon fill="white" stroke="black" points="326,-98.5 326,-128.5 452,-128.5 452,-98.5 326,-98.5"/>
<text text-anchor="start" x="334" y="-116.5" font-family="Helvetica,sans-Serif" font-size="10.00">ft::irc::user::is_channel</text>
<text text-anchor="middle" x="389" y="-105.5" font-family="Helvetica,sans-Serif" font-size="10.00">_member</text>
</a>
</g>
</g>
<!-- Node10&#45;&gt;Node12 -->
<g id="edge11" class="edge">
<title>Node10&#45;&gt;Node12</title>
<path fill="none" stroke="midnightblue" d="M269.82,-116.88C284.33,-116.46 300.14,-116.01 315.33,-115.58"/>
<polygon fill="midnightblue" stroke="midnightblue" points="315.83,-119.06 325.72,-115.28 315.63,-112.07 315.83,-119.06"/>
</g>
<!-- Node13 -->
<g id="node13" class="node">
<title>Node13</title>
<g id="a_node13"><a xlink:href="structft_1_1irc_1_1make__reply.html#a0c90ffcad98b5d6e775cda7b8a4163fb" target="_top" xlink:title=" ">
<polygon fill="white" stroke="black" points="337,-49.5 337,-79.5 441,-79.5 441,-49.5 337,-49.5"/>
<text text-anchor="start" x="345" y="-67.5" font-family="Helvetica,sans-Serif" font-size="10.00">ft::irc::make_reply</text>
<text text-anchor="middle" x="389" y="-56.5" font-family="Helvetica,sans-Serif" font-size="10.00">::name_reply</text>
</a>
</g>
</g>
<!-- Node10&#45;&gt;Node13 -->
<g id="edge13" class="edge">
<title>Node10&#45;&gt;Node13</title>
<path fill="none" stroke="midnightblue" d="M261.75,-103.46C282.8,-96.96 307.61,-89.31 329.64,-82.51"/>
<polygon fill="midnightblue" stroke="midnightblue" points="330.69,-85.85 339.21,-79.55 328.62,-79.16 330.69,-85.85"/>
</g>
<!-- Node14 -->
<g id="node14" class="node">
<title>Node14</title>
<g id="a_node14"><a xlink:href="classft_1_1irc_1_1user.html#a1db558d6d694ca943224c2440fe36c50" target="_top" xlink:title=" ">
<polygon fill="white" stroke="black" points="340,-0.5 340,-30.5 438,-30.5 438,-0.5 340,-0.5"/>
<text text-anchor="start" x="348" y="-18.5" font-family="Helvetica,sans-Serif" font-size="10.00">ft::irc::user::send</text>
<text text-anchor="middle" x="389" y="-7.5" font-family="Helvetica,sans-Serif" font-size="10.00">_message</text>
</a>
</g>
</g>
<!-- Node10&#45;&gt;Node14 -->
<g id="edge14" class="edge">
<title>Node10&#45;&gt;Node14</title>
<path fill="none" stroke="midnightblue" d="M269.88,-104.46C276.67,-101.46 283.23,-97.85 289,-93.5 311.74,-76.36 302.79,-58.32 325,-40.5 327.24,-38.71 329.62,-37.03 332.1,-35.46"/>
<polygon fill="midnightblue" stroke="midnightblue" points="333.84,-38.49 340.84,-30.53 330.41,-32.39 333.84,-38.49"/>
</g>
</g>
</svg>
