<?xml version="1.0" encoding="UTF-8" standalone="no"?>
<!DOCTYPE svg PUBLIC "-//W3C//DTD SVG 1.1//EN"
 "http://www.w3.org/Graphics/SVG/1.1/DTD/svg11.dtd">
<!-- Generated by graphviz version 2.43.0 (0)
 -->
<!-- Title: ft::irc::user::send_message Pages: 1 -->
<svg width="443pt" height="410pt"
 viewBox="0.00 0.00 443.00 409.50" xmlns="http://www.w3.org/2000/svg" xmlns:xlink="http://www.w3.org/1999/xlink">
<g id="graph0" class="graph" transform="scale(1 1) rotate(0) translate(4 405.5)">
<title>ft::irc::user::send_message</title>
<polygon fill="white" stroke="transparent" points="-4,4 -4,-405.5 439,-405.5 439,4 -4,4"/>
<!-- Node1 -->
<g id="node1" class="node">
<title>Node1</title>
<g id="a_node1"><a xlink:title=" ">
<polygon fill="#bfbfbf" stroke="black" points="337,-196.5 337,-226.5 435,-226.5 435,-196.5 337,-196.5"/>
<text text-anchor="start" x="345" y="-214.5" font-family="Helvetica,sans-Serif" font-size="10.00">ft::irc::user::send</text>
<text text-anchor="middle" x="386" y="-203.5" font-family="Helvetica,sans-Serif" font-size="10.00">_message</text>
</a>
</g>
</g>
<!-- Node2 -->
<g id="node2" class="node">
<title>Node2</title>
<g id="a_node2"><a xlink:href="classft_1_1irc_1_1server.html#a773440405607167a9478a54fd8ab90f3" target="_top" xlink:title=" ">
<polygon fill="white" stroke="black" points="152,-382 152,-401 301,-401 301,-382 152,-382"/>
<text text-anchor="middle" x="226.5" y="-389" font-family="Helvetica,sans-Serif" font-size="10.00">ft::irc::server::broadcast_all</text>
</a>
</g>
</g>
<!-- Node1&#45;&gt;Node2 -->
<g id="edge1" class="edge">
<title>Node1&#45;&gt;Node2</title>
<path fill="none" stroke="midnightblue" d="M377.99,-236.56C367.11,-270.94 342.92,-332.46 301,-367.5 293.48,-373.78 284.27,-378.44 274.95,-381.88"/>
<polygon fill="midnightblue" stroke="midnightblue" points="381.39,-237.4 380.94,-226.82 374.69,-235.37 381.39,-237.4"/>
</g>
<!-- Node3 -->
<g id="node3" class="node">
<title>Node3</title>
<g id="a_node3"><a xlink:href="classft_1_1irc_1_1processor__oper.html#a941691cbab81d134cb4ffc30bd270d04" target="_top" xlink:title=" ">
<polygon fill="white" stroke="black" points="10.5,-359.5 10.5,-389.5 105.5,-389.5 105.5,-359.5 10.5,-359.5"/>
<text text-anchor="start" x="18.5" y="-377.5" font-family="Helvetica,sans-Serif" font-size="10.00">ft::irc::processor</text>
<text text-anchor="middle" x="58" y="-366.5" font-family="Helvetica,sans-Serif" font-size="10.00">_oper::execute</text>
</a>
</g>
</g>
<!-- Node1&#45;&gt;Node3 -->
<g id="edge11" class="edge">
<title>Node1&#45;&gt;Node3</title>
<path fill="none" stroke="midnightblue" d="M375.2,-236.06C362.53,-264.41 337.65,-310.12 301,-333.5 269.34,-353.7 166.57,-365.52 105.61,-370.92"/>
<polygon fill="midnightblue" stroke="midnightblue" points="378.44,-237.39 379.17,-226.82 372.01,-234.63 378.44,-237.39"/>
</g>
<!-- Node4 -->
<g id="node4" class="node">
<title>Node4</title>
<g id="a_node4"><a xlink:href="classft_1_1irc_1_1processor__dictionary.html#a50bd8e9f89f6f6a911f5495272cd7d41" target="_top" xlink:title=" ">
<polygon fill="white" stroke="black" points="169.5,-294.5 169.5,-324.5 283.5,-324.5 283.5,-294.5 169.5,-294.5"/>
<text text-anchor="start" x="177.5" y="-312.5" font-family="Helvetica,sans-Serif" font-size="10.00">ft::irc::processor</text>
<text text-anchor="middle" x="226.5" y="-301.5" font-family="Helvetica,sans-Serif" font-size="10.00">_dictionary::execute</text>
</a>
</g>
</g>
<!-- Node1&#45;&gt;Node4 -->
<g id="edge3" class="edge">
<title>Node1&#45;&gt;Node4</title>
<path fill="none" stroke="midnightblue" d="M363.95,-233.97C347.96,-249.92 324.75,-270.85 301,-284.5 294.46,-288.26 287.26,-291.57 280.01,-294.45"/>
<polygon fill="midnightblue" stroke="midnightblue" points="366.68,-236.18 371.18,-226.59 361.68,-231.28 366.68,-236.18"/>
</g>
<!-- Node6 -->
<g id="node6" class="node">
<title>Node6</title>
<g id="a_node6"><a xlink:href="classft_1_1irc_1_1processor__join.html#a7005b0403c1e6e10aa6f6f05339df357" target="_top" xlink:title=" ">
<polygon fill="white" stroke="black" points="179,-245.5 179,-275.5 274,-275.5 274,-245.5 179,-245.5"/>
<text text-anchor="start" x="187" y="-263.5" font-family="Helvetica,sans-Serif" font-size="10.00">ft::irc::processor</text>
<text text-anchor="middle" x="226.5" y="-252.5" font-family="Helvetica,sans-Serif" font-size="10.00">_join::execute</text>
</a>
</g>
</g>
<!-- Node1&#45;&gt;Node6 -->
<g id="edge5" class="edge">
<title>Node1&#45;&gt;Node6</title>
<path fill="none" stroke="midnightblue" d="M326.87,-229.58C309.53,-234.98 290.75,-240.82 274.24,-245.96"/>
<polygon fill="midnightblue" stroke="midnightblue" points="328.38,-232.78 336.89,-226.47 326.3,-226.1 328.38,-232.78"/>
</g>
<!-- Node7 -->
<g id="node7" class="node">
<title>Node7</title>
<g id="a_node7"><a xlink:href="classft_1_1irc_1_1processor__part.html#a4075107cb360cd04c0a11a9904104ad0" target="_top" xlink:title=" ">
<polygon fill="white" stroke="black" points="179,-196.5 179,-226.5 274,-226.5 274,-196.5 179,-196.5"/>
<text text-anchor="start" x="187" y="-214.5" font-family="Helvetica,sans-Serif" font-size="10.00">ft::irc::processor</text>
<text text-anchor="middle" x="226.5" y="-203.5" font-family="Helvetica,sans-Serif" font-size="10.00">_part::execute</text>
</a>
</g>
</g>
<!-- Node1&#45;&gt;Node7 -->
<g id="edge6" class="edge">
<title>Node1&#45;&gt;Node7</title>
<path fill="none" stroke="midnightblue" d="M326.87,-211.5C309.53,-211.5 290.75,-211.5 274.24,-211.5"/>
<polygon fill="midnightblue" stroke="midnightblue" points="326.89,-215 336.89,-211.5 326.89,-208 326.89,-215"/>
</g>
<!-- Node8 -->
<g id="node8" class="node">
<title>Node8</title>
<g id="a_node8"><a xlink:href="classft_1_1irc_1_1processor__topic.html#ae4eec2a7267b66791a72bbab1d4842c0" target="_top" xlink:title=" ">
<polygon fill="white" stroke="black" points="179,-147.5 179,-177.5 274,-177.5 274,-147.5 179,-147.5"/>
<text text-anchor="start" x="187" y="-165.5" font-family="Helvetica,sans-Serif" font-size="10.00">ft::irc::processor</text>
<text text-anchor="middle" x="226.5" y="-154.5" font-family="Helvetica,sans-Serif" font-size="10.00">_topic::execute</text>
</a>
</g>
</g>
<!-- Node1&#45;&gt;Node8 -->
<g id="edge7" class="edge">
<title>Node1&#45;&gt;Node8</title>
<path fill="none" stroke="midnightblue" d="M326.87,-193.42C309.53,-188.02 290.75,-182.18 274.24,-177.04"/>
<polygon fill="midnightblue" stroke="midnightblue" points="326.3,-196.9 336.89,-196.53 328.38,-190.22 326.3,-196.9"/>
</g>
<!-- Node9 -->
<g id="node9" class="node">
<title>Node9</title>
<g id="a_node9"><a xlink:href="classft_1_1irc_1_1processor__pass.html#a8b0f8638123bb81ce8f4e493e43b45a0" target="_top" xlink:title=" ">
<polygon fill="white" stroke="black" points="179,-98.5 179,-128.5 274,-128.5 274,-98.5 179,-98.5"/>
<text text-anchor="start" x="187" y="-116.5" font-family="Helvetica,sans-Serif" font-size="10.00">ft::irc::processor</text>
<text text-anchor="middle" x="226.5" y="-105.5" font-family="Helvetica,sans-Serif" font-size="10.00">_pass::execute</text>
</a>
</g>
</g>
<!-- Node1&#45;&gt;Node9 -->
<g id="edge8" class="edge">
<title>Node1&#45;&gt;Node9</title>
<path fill="none" stroke="midnightblue" d="M364.34,-188.91C348.4,-172.65 325.08,-151.25 301,-137.5 292.72,-132.77 283.38,-128.82 274.21,-125.58"/>
<polygon fill="midnightblue" stroke="midnightblue" points="362.09,-191.63 371.54,-196.43 367.15,-186.78 362.09,-191.63"/>
</g>
<!-- Node10 -->
<g id="node10" class="node">
<title>Node10</title>
<g id="a_node10"><a xlink:href="classft_1_1irc_1_1processor__nick.html#a7a2f0f709488328c04b6ccf0c41ce78e" target="_top" xlink:title=" ">
<polygon fill="white" stroke="black" points="179,-49.5 179,-79.5 274,-79.5 274,-49.5 179,-49.5"/>
<text text-anchor="start" x="187" y="-67.5" font-family="Helvetica,sans-Serif" font-size="10.00">ft::irc::processor</text>
<text text-anchor="middle" x="226.5" y="-56.5" font-family="Helvetica,sans-Serif" font-size="10.00">_nick::execute</text>
</a>
</g>
</g>
<!-- Node1&#45;&gt;Node10 -->
<g id="edge9" class="edge">
<title>Node1&#45;&gt;Node10</title>
<path fill="none" stroke="midnightblue" d="M374.23,-186.85C360.9,-159.09 335.63,-114.48 301,-88.5 293.05,-82.54 283.56,-78.02 274.08,-74.6"/>
<polygon fill="midnightblue" stroke="midnightblue" points="371.21,-188.66 378.6,-196.25 377.56,-185.71 371.21,-188.66"/>
</g>
<!-- Node11 -->
<g id="node11" class="node">
<title>Node11</title>
<g id="a_node11"><a xlink:href="classft_1_1irc_1_1processor__user.html#aa42b3fdd743060d5f9afaaff5e46e28f" target="_top" xlink:title=" ">
<polygon fill="white" stroke="black" points="179,-0.5 179,-30.5 274,-30.5 274,-0.5 179,-0.5"/>
<text text-anchor="start" x="187" y="-18.5" font-family="Helvetica,sans-Serif" font-size="10.00">ft::irc::processor</text>
<text text-anchor="middle" x="226.5" y="-7.5" font-family="Helvetica,sans-Serif" font-size="10.00">_user::execute</text>
</a>
</g>
</g>
<!-- Node1&#45;&gt;Node11 -->
<g id="edge10" class="edge">
<title>Node1&#45;&gt;Node11</title>
<path fill="none" stroke="midnightblue" d="M379.37,-186.38C369.73,-149.06 346.52,-79.11 301,-39.5 293.4,-32.89 283.95,-28.1 274.38,-24.62"/>
<polygon fill="midnightblue" stroke="midnightblue" points="376.05,-187.55 381.84,-196.42 382.85,-185.88 376.05,-187.55"/>
</g>
<!-- Node2&#45;&gt;Node3 -->
<g id="edge2" class="edge">
<title>Node2&#45;&gt;Node3</title>
<path fill="none" stroke="midnightblue" d="M142.02,-382.98C129.57,-381.71 117.13,-380.44 105.81,-379.28"/>
<polygon fill="midnightblue" stroke="midnightblue" points="141.68,-386.46 151.99,-383.99 142.39,-379.5 141.68,-386.46"/>
</g>
<!-- Node5 -->
<g id="node5" class="node">
<title>Node5</title>
<g id="a_node5"><a xlink:href="classft_1_1irc_1_1client__handler.html#a239d2ec2a936d74893455a83468669b3" target="_top" xlink:title=" ">
<polygon fill="white" stroke="black" points="0,-294.5 0,-324.5 116,-324.5 116,-294.5 0,-294.5"/>
<text text-anchor="start" x="8" y="-312.5" font-family="Helvetica,sans-Serif" font-size="10.00">ft::irc::client_handler</text>
<text text-anchor="middle" x="58" y="-301.5" font-family="Helvetica,sans-Serif" font-size="10.00">::on_read</text>
</a>
</g>
</g>
<!-- Node4&#45;&gt;Node5 -->
<g id="edge4" class="edge">
<title>Node4&#45;&gt;Node5</title>
<path fill="none" stroke="midnightblue" d="M158.96,-309.5C144.79,-309.5 129.94,-309.5 116.16,-309.5"/>
<polygon fill="midnightblue" stroke="midnightblue" points="159.13,-313 169.13,-309.5 159.13,-306 159.13,-313"/>
</g>
</g>
</svg>
