<?xml version="1.0" encoding="UTF-8" standalone="no"?>
<!DOCTYPE svg PUBLIC "-//W3C//DTD SVG 1.1//EN"
 "http://www.w3.org/Graphics/SVG/1.1/DTD/svg11.dtd">
<!-- Generated by graphviz version 2.43.0 (0)
 -->
<!-- Title: ft::irc::channel::send_names Pages: 1 -->
<svg width="287pt" height="225pt"
 viewBox="0.00 0.00 287.00 225.00" xmlns="http://www.w3.org/2000/svg" xmlns:xlink="http://www.w3.org/1999/xlink">
<g id="graph0" class="graph" transform="scale(1 1) rotate(0) translate(4 221)">
<title>ft::irc::channel::send_names</title>
<polygon fill="white" stroke="transparent" points="-4,4 -4,-221 283,-221 283,4 -4,4"/>
<!-- Node1 -->
<g id="node1" class="node">
<title>Node1</title>
<g id="a_node1"><a xlink:title=" ">
<polygon fill="#bfbfbf" stroke="black" points="0,-93.5 0,-123.5 115,-123.5 115,-93.5 0,-93.5"/>
<text text-anchor="start" x="8" y="-111.5" font-family="Helvetica,sans-Serif" font-size="10.00">ft::irc::channel::send</text>
<text text-anchor="middle" x="57.5" y="-100.5" font-family="Helvetica,sans-Serif" font-size="10.00">_names</text>
</a>
</g>
</g>
<!-- Node2 -->
<g id="node2" class="node">
<title>Node2</title>
<g id="a_node2"><a xlink:href="structft_1_1irc_1_1make__reply.html#a62504faa310fedb0768c15ec641ea748" target="_top" xlink:title=" ">
<polygon fill="white" stroke="black" points="163,-186.5 163,-216.5 267,-216.5 267,-186.5 163,-186.5"/>
<text text-anchor="start" x="171" y="-204.5" font-family="Helvetica,sans-Serif" font-size="10.00">ft::irc::make_reply</text>
<text text-anchor="middle" x="215" y="-193.5" font-family="Helvetica,sans-Serif" font-size="10.00">::end_of_names</text>
</a>
</g>
</g>
<!-- Node1&#45;&gt;Node2 -->
<g id="edge1" class="edge">
<title>Node1&#45;&gt;Node2</title>
<path fill="none" stroke="midnightblue" d="M75.58,-123.54C93.43,-138.68 122.73,-161.97 151,-177.5 154.01,-179.16 157.17,-180.75 160.39,-182.27"/>
<polygon fill="midnightblue" stroke="midnightblue" points="159.02,-185.49 169.58,-186.36 161.87,-179.1 159.02,-185.49"/>
</g>
<!-- Node3 -->
<g id="node3" class="node">
<title>Node3</title>
<g id="a_node3"><a xlink:href="classft_1_1irc_1_1user.html#a43fb91fff5e13afd67f9e642137eca40" target="_top" xlink:title=" ">
<polygon fill="white" stroke="black" points="152,-137.5 152,-167.5 278,-167.5 278,-137.5 152,-137.5"/>
<text text-anchor="start" x="160" y="-155.5" font-family="Helvetica,sans-Serif" font-size="10.00">ft::irc::user::is_channel</text>
<text text-anchor="middle" x="215" y="-144.5" font-family="Helvetica,sans-Serif" font-size="10.00">_member</text>
</a>
</g>
</g>
<!-- Node1&#45;&gt;Node3 -->
<g id="edge2" class="edge">
<title>Node1&#45;&gt;Node3</title>
<path fill="none" stroke="midnightblue" d="M111.58,-123.52C124.27,-127.11 137.94,-130.98 151.03,-134.68"/>
<polygon fill="midnightblue" stroke="midnightblue" points="150.32,-138.12 160.9,-137.47 152.23,-131.38 150.32,-138.12"/>
</g>
<!-- Node4 -->
<g id="node4" class="node">
<title>Node4</title>
<g id="a_node4"><a xlink:href="classft_1_1irc_1_1user.html#a3cfeaf12c0bdb6ac02debf5e19ce50d2" target="_top" xlink:title=" ">
<polygon fill="white" stroke="black" points="151,-99 151,-118 279,-118 279,-99 151,-99"/>
<text text-anchor="middle" x="215" y="-106" font-family="Helvetica,sans-Serif" font-size="10.00">ft::irc::user::load_mode</text>
</a>
</g>
</g>
<!-- Node1&#45;&gt;Node4 -->
<g id="edge3" class="edge">
<title>Node1&#45;&gt;Node4</title>
<path fill="none" stroke="midnightblue" d="M115.08,-108.5C123.44,-108.5 132.16,-108.5 140.8,-108.5"/>
<polygon fill="midnightblue" stroke="midnightblue" points="140.89,-112 150.89,-108.5 140.89,-105 140.89,-112"/>
</g>
<!-- Node5 -->
<g id="node5" class="node">
<title>Node5</title>
<g id="a_node5"><a xlink:href="structft_1_1irc_1_1make__reply.html#a0c90ffcad98b5d6e775cda7b8a4163fb" target="_top" xlink:title=" ">
<polygon fill="white" stroke="black" points="163,-49.5 163,-79.5 267,-79.5 267,-49.5 163,-49.5"/>
<text text-anchor="start" x="171" y="-67.5" font-family="Helvetica,sans-Serif" font-size="10.00">ft::irc::make_reply</text>
<text text-anchor="middle" x="215" y="-56.5" font-family="Helvetica,sans-Serif" font-size="10.00">::name_reply</text>
</a>
</g>
</g>
<!-- Node1&#45;&gt;Node5 -->
<g id="edge4" class="edge">
<title>Node1&#45;&gt;Node5</title>
<path fill="none" stroke="midnightblue" d="M111.58,-93.48C124.96,-89.69 139.43,-85.6 153.16,-81.72"/>
<polygon fill="midnightblue" stroke="midnightblue" points="154.33,-85.02 163,-78.93 152.42,-78.29 154.33,-85.02"/>
</g>
<!-- Node6 -->
<g id="node6" class="node">
<title>Node6</title>
<g id="a_node6"><a xlink:href="classft_1_1irc_1_1user.html#a1db558d6d694ca943224c2440fe36c50" target="_top" xlink:title=" ">
<polygon fill="white" stroke="black" points="166,-0.5 166,-30.5 264,-30.5 264,-0.5 166,-0.5"/>
<text text-anchor="start" x="174" y="-18.5" font-family="Helvetica,sans-Serif" font-size="10.00">ft::irc::user::send</text>
<text text-anchor="middle" x="215" y="-7.5" font-family="Helvetica,sans-Serif" font-size="10.00">_message</text>
</a>
</g>
</g>
<!-- Node1&#45;&gt;Node6 -->
<g id="edge5" class="edge">
<title>Node1&#45;&gt;Node6</title>
<path fill="none" stroke="midnightblue" d="M76.34,-93.22C94.31,-78.37 123.28,-55.86 151,-40.5 154.65,-38.48 158.49,-36.54 162.41,-34.7"/>
<polygon fill="midnightblue" stroke="midnightblue" points="163.92,-37.85 171.63,-30.58 161.07,-31.46 163.92,-37.85"/>
</g>
</g>
</svg>
