<?xml version="1.0" encoding="UTF-8" standalone="no"?>
<!DOCTYPE svg PUBLIC "-//W3C//DTD SVG 1.1//EN"
 "http://www.w3.org/Graphics/SVG/1.1/DTD/svg11.dtd">
<!-- Generated by graphviz version 2.43.0 (0)
 -->
<!-- Title: ft::irc::user::channel_names_snapshot Pages: 1 -->
<svg width="256pt" height="88pt"
 viewBox="0.00 0.00 256.00 88.00" xmlns="http://www.w3.org/2000/svg" xmlns:xlink="http://www.w3.org/1999/xlink">
<g id="graph0" class="graph" transform="scale(1 1) rotate(0) translate(4 84)">
<title>ft::irc::user::channel_names_snapshot</title>
<polygon fill="white" stroke="transparent" points="-4,4 -4,-84 252,-84 252,4 -4,4"/>
<!-- Node1 -->
<g id="node1" class="node">
<title>Node1</title>
<g id="a_node1"><a xlink:title=" ">
<polygon fill="#bfbfbf" stroke="black" points="135,-24.5 135,-54.5 248,-54.5 248,-24.5 135,-24.5"/>
<text text-anchor="start" x="143" y="-42.5" font-family="Helvetica,sans-Serif" font-size="10.00">ft::irc::user::channel</text>
<text text-anchor="middle" x="191.5" y="-31.5" font-family="Helvetica,sans-Serif" font-size="10.00">_names_snapshot</text>
</a>
</g>
</g>
<!-- Node2 -->
<g id="node2" class="node">
<title>Node2</title>
<g id="a_node2"><a xlink:href="classft_1_1irc_1_1processor__names.html#a95f660c1020ac7f26cceacd932f48f09" target="_top" xlink:title=" ">
<polygon fill="white" stroke="black" points="0,-49.5 0,-79.5 99,-79.5 99,-49.5 0,-49.5"/>
<text text-anchor="start" x="8" y="-67.5" font-family="Helvetica,sans-Serif" font-size="10.00">ft::irc::processor</text>
<text text-anchor="middle" x="49.5" y="-56.5" font-family="Helvetica,sans-Serif" font-size="10.00">_names::execute</text>
</a>
</g>
</g>
<!-- Node1&#45;&gt;Node2 -->
<g id="edge1" class="edge">
<title>Node1&#45;&gt;Node2</title>
<path fill="none" stroke="midnightblue" d="M124.76,-51.24C116.17,-52.77 107.5,-54.32 99.26,-55.79"/>
<polygon fill="midnightblue" stroke="midnightblue" points="125.54,-54.66 134.77,-49.45 124.31,-47.76 125.54,-54.66"/>
</g>
<!-- Node3 -->
<g id="node3" class="node">
<title>Node3</title>
<g id="a_node3"><a xlink:href="classft_1_1irc_1_1processor__list.html#aa4ed52d03d87a5f03d9c6d2e53e0409b" target="_top" xlink:title=" ">
<polygon fill="white" stroke="black" points="2,-0.5 2,-30.5 97,-30.5 97,-0.5 2,-0.5"/>
<text text-anchor="start" x="10" y="-18.5" font-family="Helvetica,sans-Serif" font-size="10.00">ft::irc::processor</text>
<text text-anchor="middle" x="49.5" y="-7.5" font-family="Helvetica,sans-Serif" font-size="10.00">_list::execute</text>
</a>
</g>
</g>
<!-- Node1&#45;&gt;Node3 -->
<g id="edge2" class="edge">
<title>Node1&#45;&gt;Node3</title>
<path fill="none" stroke="midnightblue" d="M124.7,-28.22C115.35,-26.62 105.91,-25 97.04,-23.48"/>
<polygon fill="midnightblue" stroke="midnightblue" points="124.32,-31.71 134.77,-29.95 125.5,-24.81 124.32,-31.71"/>
</g>
</g>
</svg>
