<?xml version="1.0" encoding="UTF-8" standalone="no"?>
<!DOCTYPE svg PUBLIC "-//W3C//DTD SVG 1.1//EN"
 "http://www.w3.org/Graphics/SVG/1.1/DTD/svg11.dtd">
<!-- Generated by graphviz version 2.43.0 (0)
 -->
<!-- Title: ft::serv::byte_buffer::get Pages: 1 -->
<!--zoomable 176 -->
<svg id="main" version="1.1" xmlns="http://www.w3.org/2000/svg" xmlns:xlink="http://www.w3.org/1999/xlink" xml:space="preserve" onload="init(evt)">
<style type="text/css"><![CDATA[
.edge:hover path { stroke: red; }
.edge:hover polygon { stroke: red; fill: red; }
]]></style>
<script type="text/javascript"><![CDATA[
var edges = document.getElementsByTagName('g');
if (edges && edges.length) {
  for (var i=0;i<edges.length;i++) {
    if (edges[i].id.substr(0,4)=='edge') {
      edges[i].setAttribute('class','edge');
    }
  }
}
]]></script>
        <defs>
                <circle id="rim" cx="0" cy="0" r="7"/>
                <circle id="rim2" cx="0" cy="0" r="3.5"/>
                <g id="zoomPlus">
                        <use xlink:href="#rim" fill="#404040">
                                <set attributeName="fill" to="#808080" begin="zoomplus.mouseover" end="zoomplus.mouseout"/>
                        </use>
                        <path d="M-4,0h8M0,-4v8" fill="none" stroke="white" stroke-width="1.5" pointer-events="none"/>
                </g>
                <g id="zoomMin">
                        <use xlink:href="#rim" fill="#404040">
                                <set attributeName="fill" to="#808080" begin="zoomminus.mouseover" end="zoomminus.mouseout"/>
                        </use>
                        <path d="M-4,0h8" fill="none" stroke="white" stroke-width="1.5" pointer-events="none"/>
                </g>
                <g id="dirArrow">
                        <path fill="none" stroke="white" stroke-width="1.5" d="M0,-3.0v7 M-2.5,-0.5L0,-3.0L2.5,-0.5"/>
                </g>
               <g id="resetDef">
                       <use xlink:href="#rim2" fill="#404040">
                               <set attributeName="fill" to="#808080" begin="reset.mouseover" end="reset.mouseout"/>
                       </use>
               </g>
        </defs>

<script type="text/javascript">
var viewWidth = 650;
var viewHeight = 176;
var sectionId = 'dynsection-6';
</script>
<script xlink:href="svgpan.js"/>
<svg id="graph" class="graph">
<g id="viewport">
<title>ft::serv::byte_buffer::get</title>
<polygon fill="white" stroke="transparent" points="-4,4 -4,-171.5 646,-171.5 646,4 -4,4"/>
<!-- Node1 -->
<g id="node1" class="node">
<title>Node1</title>
<g id="a_node1"><a xlink:title=" ">
<polygon fill="#bfbfbf" stroke="black" points="509,-68.5 509,-87.5 642,-87.5 642,-68.5 509,-68.5"/>
<text text-anchor="middle" x="575.5" y="-75.5" font-family="Helvetica,sans-Serif" font-size="10.00">ft::serv::byte_buffer::get</text>
</a>
</g>
</g>
<!-- Node2 -->
<g id="node2" class="node">
<title>Node2</title>
<g id="a_node2"><a xlink:href="classft_1_1serv_1_1byte__buffer.html#a09c6306ccf0e47873fc264c4b76b1295" target="_top" xlink:title=" ">
<polygon fill="white" stroke="black" points="351,-137 351,-167 462,-167 462,-137 351,-137"/>
<text text-anchor="start" x="359" y="-155" font-family="Helvetica,sans-Serif" font-size="10.00">ft::serv::byte_buffer</text>
<text text-anchor="middle" x="406.5" y="-144" font-family="Helvetica,sans-Serif" font-size="10.00">::append_from</text>
</a>
</g>
</g>
<!-- Node1&#45;&gt;Node2 -->
<g id="edge1" class="edge">
<title>Node1&#45;&gt;Node2</title>
<path fill="none" stroke="midnightblue" d="M547.49,-92.29C527.24,-102.75 498.72,-116.99 473,-128 465.87,-131.05 458.22,-134.08 450.74,-136.9"/>
<polygon fill="midnightblue" stroke="midnightblue" points="549.18,-95.35 556.44,-87.63 545.95,-89.14 549.18,-95.35"/>
</g>
<!-- Node5 -->
<g id="node5" class="node">
<title>Node5</title>
<g id="a_node5"><a xlink:href="classft_1_1serv_1_1event__channel__base.html#a29c287e2466273e0a3b1ff273d8cf77d" target="_top" xlink:title=" ">
<polygon fill="white" stroke="black" points="343,-88 343,-118 470,-118 470,-88 343,-88"/>
<text text-anchor="start" x="351" y="-106" font-family="Helvetica,sans-Serif" font-size="10.00">ft::serv::event_channel</text>
<text text-anchor="middle" x="406.5" y="-95" font-family="Helvetica,sans-Serif" font-size="10.00">_base::begin_write</text>
</a>
</g>
</g>
<!-- Node1&#45;&gt;Node5 -->
<g id="edge4" class="edge">
<title>Node1&#45;&gt;Node5</title>
<path fill="none" stroke="midnightblue" d="M500.75,-89.04C490.53,-90.57 480.1,-92.13 470.11,-93.63"/>
<polygon fill="midnightblue" stroke="midnightblue" points="501.52,-92.46 510.89,-87.52 500.48,-85.54 501.52,-92.46"/>
</g>
<!-- Node6 -->
<g id="node6" class="node">
<title>Node6</title>
<g id="a_node6"><a xlink:href="classft_1_1irc_1_1string__line__decoder.html#a3d6110ff462e8acf6a148e724fe3a718" target="_top" xlink:title=" ">
<polygon fill="white" stroke="black" points="355.5,-39 355.5,-69 457.5,-69 457.5,-39 355.5,-39"/>
<text text-anchor="start" x="363.5" y="-57" font-family="Helvetica,sans-Serif" font-size="10.00">ft::irc::string_line</text>
<text text-anchor="middle" x="406.5" y="-46" font-family="Helvetica,sans-Serif" font-size="10.00">_decoder::decode</text>
</a>
</g>
</g>
<!-- Node1&#45;&gt;Node6 -->
<g id="edge5" class="edge">
<title>Node1&#45;&gt;Node6</title>
<path fill="none" stroke="midnightblue" d="M498.87,-67.13C484.88,-65.12 470.59,-63.07 457.6,-61.2"/>
<polygon fill="midnightblue" stroke="midnightblue" points="498.58,-70.63 508.98,-68.58 499.58,-63.7 498.58,-70.63"/>
</g>
<!-- Node7 -->
<g id="node7" class="node">
<title>Node7</title>
<g id="a_node7"><a xlink:href="classft_1_1serv_1_1byte__buffer.html#a520dd79bf91c5ce53f2a1d69ef0329b3" target="_top" xlink:title=" ">
<polygon fill="white" stroke="black" points="340,-0.5 340,-19.5 473,-19.5 473,-0.5 340,-0.5"/>
<text text-anchor="middle" x="406.5" y="-7.5" font-family="Helvetica,sans-Serif" font-size="10.00">ft::serv::byte_buffer::get</text>
</a>
</g>
</g>
<!-- Node1&#45;&gt;Node7 -->
<g id="edge6" class="edge">
<title>Node1&#45;&gt;Node7</title>
<path fill="none" stroke="midnightblue" d="M547.22,-63.77C527.05,-53.58 498.74,-39.96 473,-30 463.13,-26.18 452.21,-22.6 442.15,-19.56"/>
<polygon fill="midnightblue" stroke="midnightblue" points="545.65,-66.9 556.15,-68.33 548.83,-60.66 545.65,-66.9"/>
</g>
<!-- Node3 -->
<g id="node3" class="node">
<title>Node3</title>
<g id="a_node3"><a xlink:href="classft_1_1serv_1_1event__channel__base.html#a005268263635e2c6917efab0926d22e3" target="_top" xlink:title=" ">
<polygon fill="white" stroke="black" points="177,-137 177,-167 304,-167 304,-137 177,-137"/>
<text text-anchor="start" x="185" y="-155" font-family="Helvetica,sans-Serif" font-size="10.00">ft::serv::event_channel</text>
<text text-anchor="middle" x="240.5" y="-144" font-family="Helvetica,sans-Serif" font-size="10.00">_base::flush</text>
</a>
</g>
</g>
<!-- Node2&#45;&gt;Node3 -->
<g id="edge2" class="edge">
<title>Node2&#45;&gt;Node3</title>
<path fill="none" stroke="midnightblue" d="M340.87,-152C328.77,-152 316.13,-152 304.09,-152"/>
<polygon fill="midnightblue" stroke="midnightblue" points="340.89,-155.5 350.89,-152 340.89,-148.5 340.89,-155.5"/>
</g>
<!-- Node4 -->
<g id="node4" class="node">
<title>Node4</title>
<g id="a_node4"><a xlink:href="classdummy__inbound__adapter.html#adc697674fcb0b100580c742de5e16cce" target="_top" xlink:title=" ">
<polygon fill="white" stroke="black" points="0,-137 0,-167 141,-167 141,-137 0,-137"/>
<text text-anchor="start" x="8" y="-155" font-family="Helvetica,sans-Serif" font-size="10.00">dummy_inbound_adapter</text>
<text text-anchor="middle" x="70.5" y="-144" font-family="Helvetica,sans-Serif" font-size="10.00">::on_flush</text>
</a>
</g>
</g>
<!-- Node3&#45;&gt;Node4 -->
<g id="edge3" class="edge">
<title>Node3&#45;&gt;Node4</title>
<path fill="none" stroke="midnightblue" d="M166.71,-152C158.23,-152 149.6,-152 141.17,-152"/>
<polygon fill="midnightblue" stroke="midnightblue" points="166.94,-155.5 176.94,-152 166.94,-148.5 166.94,-155.5"/>
</g>
</g>
</svg>
        <g id="navigator" transform="translate(0 0)" fill="#404254">
                <rect fill="#f2f5e9" fill-opacity="0.5" stroke="#606060" stroke-width=".5" x="0" y="0" width="60" height="60"/>
                <use id="zoomplus" xlink:href="#zoomPlus" x="17" y="9" onmousedown="handleZoom(evt,'in')"/>
                <use id="zoomminus" xlink:href="#zoomMin" x="42" y="9" onmousedown="handleZoom(evt,'out')"/>
                <use id="reset" xlink:href="#resetDef" x="30" y="36" onmousedown="handleReset()"/>
                <g id="arrowUp" xlink:href="#dirArrow" transform="translate(30 24)" onmousedown="handlePan(0,-1)">
                  <use xlink:href="#rim" fill="#404040">
                        <set attributeName="fill" to="#808080" begin="arrowUp.mouseover" end="arrowUp.mouseout"/>
                  </use>
                  <path fill="none" stroke="white" stroke-width="1.5" d="M0,-3.0v7 M-2.5,-0.5L0,-3.0L2.5,-0.5"/>
                </g>
                <g id="arrowRight" xlink:href="#dirArrow" transform="rotate(90) translate(36 -43)" onmousedown="handlePan(1,0)">
                  <use xlink:href="#rim" fill="#404040">
                        <set attributeName="fill" to="#808080" begin="arrowRight.mouseover" end="arrowRight.mouseout"/>
                  </use>
                  <path fill="none" stroke="white" stroke-width="1.5" d="M0,-3.0v7 M-2.5,-0.5L0,-3.0L2.5,-0.5"/>
                </g>
                <g id="arrowDown" xlink:href="#dirArrow" transform="rotate(180) translate(-30 -48)" onmousedown="handlePan(0,1)">
                  <use xlink:href="#rim" fill="#404040">
                        <set attributeName="fill" to="#808080" begin="arrowDown.mouseover" end="arrowDown.mouseout"/>
                  </use>
                  <path fill="none" stroke="white" stroke-width="1.5" d="M0,-3.0v7 M-2.5,-0.5L0,-3.0L2.5,-0.5"/>
                </g>
                <g id="arrowLeft" xlink:href="#dirArrow" transform="rotate(270) translate(-36 17)" onmousedown="handlePan(-1,0)">
                  <use xlink:href="#rim" fill="#404040">
                        <set attributeName="fill" to="#808080" begin="arrowLeft.mouseover" end="arrowLeft.mouseout"/>
                  </use>
                  <path fill="none" stroke="white" stroke-width="1.5" d="M0,-3.0v7 M-2.5,-0.5L0,-3.0L2.5,-0.5"/>
                </g>
        </g>
        <svg viewBox="0 0 15 15" width="100%" height="30px" preserveAspectRatio="xMaxYMin meet">
         <g id="arrow_out" transform="scale(0.3 0.3)">
          <a xlink:href="classft_1_1serv_1_1byte__buffer_ae2e9e14f5f7ed2e9d35d44319383674a_icgraph_org.svg" target="_base">
           <rect id="button" ry="5" rx="5" y="6" x="6" height="38" width="38"
                fill="#f2f5e9" fill-opacity="0.5" stroke="#606060" stroke-width="1.0"/>
           <path id="arrow"
             d="M 11.500037,31.436501 C 11.940474,20.09759 22.043105,11.32322 32.158766,21.979434 L 37.068811,17.246167 C 37.068811,17.246167 37.088388,32 37.088388,32 L 22.160133,31.978069 C 22.160133,31.978069 26.997745,27.140456 26.997745,27.140456 C 18.528582,18.264221 13.291696,25.230495 11.500037,31.436501 z"
             style="fill:#404040;"/>
          </a>
         </g>
        </svg>
</svg>
