<?xml version="1.0" encoding="UTF-8" standalone="no"?>
<!DOCTYPE svg PUBLIC "-//W3C//DTD SVG 1.1//EN"
 "http://www.w3.org/Graphics/SVG/1.1/DTD/svg11.dtd">
<!-- Generated by graphviz version 2.43.0 (0)
 -->
<!-- Title: ft::irc::server_handler Pages: 1 -->
<svg width="578pt" height="324pt"
 viewBox="0.00 0.00 578.00 324.00" xmlns="http://www.w3.org/2000/svg" xmlns:xlink="http://www.w3.org/1999/xlink">
<g id="graph0" class="graph" transform="scale(1 1) rotate(0) translate(4 320)">
<title>ft::irc::server_handler</title>
<polygon fill="white" stroke="transparent" points="-4,4 -4,-320 574,-320 574,4 -4,4"/>
<!-- Node1 -->
<g id="node1" class="node">
<title>Node1</title>
<g id="a_node1"><a xlink:title=" ">
<polygon fill="#bfbfbf" stroke="black" points="450,-178.5 450,-197.5 570,-197.5 570,-178.5 450,-178.5"/>
<text text-anchor="middle" x="510" y="-185.5" font-family="Helvetica,sans-Serif" font-size="10.00">ft::irc::server_handler</text>
</a>
</g>
</g>
<!-- Node2 -->
<g id="node2" class="node">
<title>Node2</title>
<g id="a_node2"><a xlink:href="classft_1_1serv_1_1logic__adapter.html" target="_top" xlink:title=" ">
<polygon fill="white" stroke="black" points="258,-246.5 258,-265.5 380,-265.5 380,-246.5 258,-246.5"/>
<text text-anchor="middle" x="319" y="-253.5" font-family="Helvetica,sans-Serif" font-size="10.00">ft::serv::logic_adapter</text>
</a>
</g>
</g>
<!-- Node2&#45;&gt;Node1 -->
<g id="edge1" class="edge">
<title>Node2&#45;&gt;Node1</title>
<path fill="none" stroke="midnightblue" d="M356.55,-242.85C393.46,-229.57 449.6,-209.37 482.46,-197.55"/>
<polygon fill="midnightblue" stroke="midnightblue" points="354.9,-239.72 346.68,-246.4 357.27,-246.31 354.9,-239.72"/>
</g>
<!-- Node3 -->
<g id="node3" class="node">
<title>Node3</title>
<g id="a_node3"><a xlink:href="classft_1_1serv_1_1event__handler__base.html" target="_top" xlink:title=" ">
<polygon fill="white" stroke="black" points="0,-296.5 0,-315.5 154,-315.5 154,-296.5 0,-296.5"/>
<text text-anchor="middle" x="77" y="-303.5" font-family="Helvetica,sans-Serif" font-size="10.00">ft::serv::event_handler_base</text>
</a>
</g>
</g>
<!-- Node3&#45;&gt;Node2 -->
<g id="edge2" class="edge">
<title>Node3&#45;&gt;Node2</title>
<path fill="none" stroke="midnightblue" d="M144.91,-294.66C174.19,-289.43 208.89,-282.86 240,-276 254.06,-272.9 269.43,-269.06 282.79,-265.57"/>
<polygon fill="midnightblue" stroke="midnightblue" points="144.03,-291.26 134.79,-296.46 145.25,-298.16 144.03,-291.26"/>
</g>
<!-- Node4 -->
<g id="node4" class="node">
<title>Node4</title>
<g id="a_node4"><a xlink:href="classft_1_1irc_1_1server.html" target="_top" xlink:title=" ">
<polygon fill="white" stroke="black" points="280,-159.5 280,-178.5 358,-178.5 358,-159.5 280,-159.5"/>
<text text-anchor="middle" x="319" y="-166.5" font-family="Helvetica,sans-Serif" font-size="10.00">ft::irc::server</text>
</a>
</g>
</g>
<!-- Node4&#45;&gt;Node1 -->
<g id="edge3" class="edge">
<title>Node4&#45;&gt;Node1</title>
<path fill="none" stroke="#9a32cd" stroke-dasharray="5,2" d="M368.14,-173.01C387.94,-174.73 411.08,-176.84 432,-179 437.76,-179.59 443.75,-180.24 449.74,-180.91"/>
<polygon fill="#9a32cd" stroke="#9a32cd" points="368.39,-169.52 358.13,-172.14 367.79,-176.49 368.39,-169.52"/>
<text text-anchor="middle" x="415" y="-182" font-family="Helvetica,sans-Serif" font-size="10.00"> server</text>
</g>
<!-- Node5 -->
<g id="node5" class="node">
<title>Node5</title>
<g id="a_node5"><a xlink:title=" ">
<polygon fill="white" stroke="#bfbfbf" points="12.5,-247 12.5,-277 141.5,-277 141.5,-247 12.5,-247"/>
<text text-anchor="start" x="20.5" y="-265" font-family="Helvetica,sans-Serif" font-size="10.00">ft::enable_shared_from</text>
<text text-anchor="middle" x="77" y="-254" font-family="Helvetica,sans-Serif" font-size="10.00">_this&lt; server &gt;</text>
</a>
</g>
</g>
<!-- Node5&#45;&gt;Node4 -->
<g id="edge4" class="edge">
<title>Node5&#45;&gt;Node4</title>
<path fill="none" stroke="midnightblue" d="M146.49,-244.23C175.78,-235.77 210.06,-224.71 240,-212 262.77,-202.33 287.55,-187.95 302.93,-178.53"/>
<polygon fill="midnightblue" stroke="midnightblue" points="145.42,-240.89 136.76,-247 147.34,-247.63 145.42,-240.89"/>
</g>
<!-- Node6 -->
<g id="node6" class="node">
<title>Node6</title>
<g id="a_node6"><a xlink:title=" ">
<polygon fill="white" stroke="#bfbfbf" points="32.5,-208.5 32.5,-227.5 121.5,-227.5 121.5,-208.5 32.5,-208.5"/>
<text text-anchor="middle" x="77" y="-215.5" font-family="Helvetica,sans-Serif" font-size="10.00">readwrite_lock</text>
</a>
</g>
</g>
<!-- Node6&#45;&gt;Node4 -->
<g id="edge5" class="edge">
<title>Node6&#45;&gt;Node4</title>
<path fill="none" stroke="#9a32cd" stroke-dasharray="5,2" d="M131.61,-207.05C176.58,-197.87 239.68,-184.99 279.7,-176.82"/>
<polygon fill="#9a32cd" stroke="#9a32cd" points="130.84,-203.64 121.74,-209.07 132.24,-210.5 130.84,-203.64"/>
<text text-anchor="middle" x="206" y="-200" font-family="Helvetica,sans-Serif" font-size="10.00"> lock</text>
</g>
<!-- Node7 -->
<g id="node7" class="node">
<title>Node7</title>
<g id="a_node7"><a xlink:href="structft_1_1serv_1_1dynamic__array.html" target="_top" xlink:title=" ">
<polygon fill="white" stroke="black" points="13,-148.5 13,-189.5 141,-189.5 141,-148.5 13,-148.5"/>
<text text-anchor="start" x="21" y="-177.5" font-family="Helvetica,sans-Serif" font-size="10.00">ft::serv::dynamic_array</text>
<text text-anchor="start" x="21" y="-166.5" font-family="Helvetica,sans-Serif" font-size="10.00">&lt; ft::shared_ptr&lt; ft::</text>
<text text-anchor="middle" x="77" y="-155.5" font-family="Helvetica,sans-Serif" font-size="10.00">irc::user &gt; &gt;</text>
</a>
</g>
</g>
<!-- Node7&#45;&gt;Node4 -->
<g id="edge6" class="edge">
<title>Node7&#45;&gt;Node4</title>
<path fill="none" stroke="#9a32cd" stroke-dasharray="5,2" d="M151.07,-169C193.48,-169 245.19,-169 279.71,-169"/>
<polygon fill="#9a32cd" stroke="#9a32cd" points="151.06,-165.5 141.06,-169 151.06,-172.5 151.06,-165.5"/>
<text text-anchor="middle" x="206" y="-172" font-family="Helvetica,sans-Serif" font-size="10.00"> users</text>
</g>
<!-- Node8 -->
<g id="node8" class="node">
<title>Node8</title>
<g id="a_node8"><a xlink:href="structft_1_1serv_1_1unique__set.html" target="_top" xlink:title=" ">
<polygon fill="white" stroke="black" points="22.5,-99 22.5,-129 131.5,-129 131.5,-99 22.5,-99"/>
<text text-anchor="start" x="30.5" y="-117" font-family="Helvetica,sans-Serif" font-size="10.00">ft::serv::unique_set</text>
<text text-anchor="middle" x="77" y="-106" font-family="Helvetica,sans-Serif" font-size="10.00">&lt; std::string &gt;</text>
</a>
</g>
</g>
<!-- Node8&#45;&gt;Node4 -->
<g id="edge7" class="edge">
<title>Node8&#45;&gt;Node4</title>
<path fill="none" stroke="#9a32cd" stroke-dasharray="5,2" d="M141.32,-128.51C185.38,-138.61 242.68,-151.74 279.89,-160.27"/>
<polygon fill="#9a32cd" stroke="#9a32cd" points="142.09,-125.1 131.56,-126.27 140.53,-131.92 142.09,-125.1"/>
<text text-anchor="middle" x="206" y="-152" font-family="Helvetica,sans-Serif" font-size="10.00"> nicks</text>
</g>
<!-- Node9 -->
<g id="node9" class="node">
<title>Node9</title>
<g id="a_node9"><a xlink:href="structft_1_1serv_1_1fast__dictionary.html" target="_top" xlink:title=" ">
<polygon fill="white" stroke="black" points="8,-38.5 8,-79.5 146,-79.5 146,-38.5 8,-38.5"/>
<text text-anchor="start" x="16" y="-67.5" font-family="Helvetica,sans-Serif" font-size="10.00">ft::serv::fast_dictionary</text>
<text text-anchor="start" x="16" y="-56.5" font-family="Helvetica,sans-Serif" font-size="10.00">&lt; std::string, ft::shared</text>
<text text-anchor="middle" x="77" y="-45.5" font-family="Helvetica,sans-Serif" font-size="10.00">_ptr&lt; ft::irc::channel &gt; &gt;</text>
</a>
</g>
</g>
<!-- Node9&#45;&gt;Node4 -->
<g id="edge8" class="edge">
<title>Node9&#45;&gt;Node4</title>
<path fill="none" stroke="#9a32cd" stroke-dasharray="5,2" d="M149.46,-83.09C178.12,-93.59 211.13,-106.75 240,-121 263.38,-132.54 288.82,-149 304.08,-159.33"/>
<polygon fill="#9a32cd" stroke="#9a32cd" points="150.51,-79.75 139.92,-79.63 148.13,-86.33 150.51,-79.75"/>
<text text-anchor="middle" x="206" y="-124" font-family="Helvetica,sans-Serif" font-size="10.00"> channels</text>
</g>
<!-- Node10 -->
<g id="node10" class="node">
<title>Node10</title>
<g id="a_node10"><a xlink:title=" ">
<polygon fill="white" stroke="#bfbfbf" points="55,-0.5 55,-19.5 99,-19.5 99,-0.5 55,-0.5"/>
<text text-anchor="middle" x="77" y="-7.5" font-family="Helvetica,sans-Serif" font-size="10.00">string</text>
</a>
</g>
</g>
<!-- Node10&#45;&gt;Node4 -->
<g id="edge9" class="edge">
<title>Node10&#45;&gt;Node4</title>
<path fill="none" stroke="#9a32cd" stroke-dasharray="5,2" d="M109.1,-14.52C144.03,-20.9 200.94,-35.4 240,-66 274.79,-93.25 302.22,-139.55 313.02,-159.45"/>
<polygon fill="#9a32cd" stroke="#9a32cd" points="109.45,-11.03 99.01,-12.78 108.27,-17.93 109.45,-11.03"/>
<text text-anchor="middle" x="206" y="-80" font-family="Helvetica,sans-Serif" font-size="10.00"> created_time</text>
<text text-anchor="middle" x="206" y="-69" font-family="Helvetica,sans-Serif" font-size="10.00">pass</text>
</g>
</g>
</svg>
