<?xml version="1.0" encoding="UTF-8" standalone="no"?>
<!DOCTYPE svg PUBLIC "-//W3C//DTD SVG 1.1//EN"
 "http://www.w3.org/Graphics/SVG/1.1/DTD/svg11.dtd">
<!-- Generated by graphviz version 2.43.0 (0)
 -->
<!-- Title: ft::serv::server_channel Pages: 1 -->
<svg width="873pt" height="352pt"
 viewBox="0.00 0.00 873.00 352.00" xmlns="http://www.w3.org/2000/svg" xmlns:xlink="http://www.w3.org/1999/xlink">
<g id="graph0" class="graph" transform="scale(1 1) rotate(0) translate(4 348)">
<title>ft::serv::server_channel</title>
<polygon fill="white" stroke="transparent" points="-4,4 -4,-348 869,-348 869,4 -4,4"/>
<!-- Node1 -->
<g id="node1" class="node">
<title>Node1</title>
<g id="a_node1"><a xlink:title=" ">
<polygon fill="#bfbfbf" stroke="black" points="735,-103 735,-122 865,-122 865,-103 735,-103"/>
<text text-anchor="middle" x="800" y="-110" font-family="Helvetica,sans-Serif" font-size="10.00">ft::serv::server_channel</text>
</a>
</g>
</g>
<!-- Node2 -->
<g id="node2" class="node">
<title>Node2</title>
<g id="a_node2"><a xlink:href="classft_1_1serv_1_1event__channel__base.html" target="_top" xlink:title=" ">
<polygon fill="white" stroke="black" points="513,-134 513,-153 668,-153 668,-134 513,-134"/>
<text text-anchor="middle" x="590.5" y="-141" font-family="Helvetica,sans-Serif" font-size="10.00">ft::serv::event_channel_base</text>
</a>
</g>
</g>
<!-- Node2&#45;&gt;Node1 -->
<g id="edge1" class="edge">
<title>Node2&#45;&gt;Node1</title>
<path fill="none" stroke="midnightblue" d="M665.15,-132.5C688,-129.08 712.97,-125.35 735.1,-122.05"/>
<polygon fill="midnightblue" stroke="midnightblue" points="664.54,-129.05 655.17,-133.99 665.57,-135.97 664.54,-129.05"/>
</g>
<!-- Node3 -->
<g id="node3" class="node">
<title>Node3</title>
<g id="a_node3"><a xlink:title=" ">
<polygon fill="white" stroke="#bfbfbf" points="207,-313.5 207,-343.5 369,-343.5 369,-313.5 207,-313.5"/>
<text text-anchor="start" x="215" y="-331.5" font-family="Helvetica,sans-Serif" font-size="10.00">ft::enable_shared_from</text>
<text text-anchor="middle" x="288" y="-320.5" font-family="Helvetica,sans-Serif" font-size="10.00">_this&lt; event_channel_base &gt;</text>
</a>
</g>
</g>
<!-- Node3&#45;&gt;Node2 -->
<g id="edge2" class="edge">
<title>Node3&#45;&gt;Node2</title>
<path fill="none" stroke="midnightblue" d="M379.31,-340.66C417.65,-341.41 461.2,-336.01 495,-314.5 555.95,-275.7 580.89,-183.09 587.56,-153.07"/>
<polygon fill="midnightblue" stroke="midnightblue" points="379.28,-337.16 369.16,-340.32 379.04,-344.16 379.28,-337.16"/>
</g>
<!-- Node4 -->
<g id="node4" class="node">
<title>Node4</title>
<g id="a_node4"><a xlink:href="classft_1_1serv_1_1byte__buffer.html" target="_top" xlink:title=" ">
<polygon fill="white" stroke="black" points="232.5,-275 232.5,-294 343.5,-294 343.5,-275 232.5,-275"/>
<text text-anchor="middle" x="288" y="-282" font-family="Helvetica,sans-Serif" font-size="10.00">ft::serv::byte_buffer</text>
</a>
</g>
</g>
<!-- Node4&#45;&gt;Node2 -->
<g id="edge3" class="edge">
<title>Node4&#45;&gt;Node2</title>
<path fill="none" stroke="#9a32cd" stroke-dasharray="5,2" d="M353.87,-290.5C396.48,-291.53 452.07,-287.1 495,-263.5 542.4,-237.44 574.27,-176.71 585.25,-153.12"/>
<polygon fill="#9a32cd" stroke="#9a32cd" points="353.72,-287 343.6,-290.15 353.48,-293.99 353.72,-287"/>
<text text-anchor="middle" x="441" y="-303.5" font-family="Helvetica,sans-Serif" font-size="10.00"> flushed_buf</text>
<text text-anchor="middle" x="441" y="-292.5" font-family="Helvetica,sans-Serif" font-size="10.00">written_buf</text>
</g>
<!-- Node5 -->
<g id="node5" class="node">
<title>Node5</title>
<g id="a_node5"><a xlink:href="structft_1_1serv_1_1dynamic__array.html" target="_top" xlink:title=" ">
<polygon fill="white" stroke="black" points="0,-291.5 0,-321.5 128,-321.5 128,-291.5 0,-291.5"/>
<text text-anchor="start" x="8" y="-309.5" font-family="Helvetica,sans-Serif" font-size="10.00">ft::serv::dynamic_array</text>
<text text-anchor="middle" x="64" y="-298.5" font-family="Helvetica,sans-Serif" font-size="10.00">&lt; byte_t &gt;</text>
</a>
</g>
</g>
<!-- Node5&#45;&gt;Node4 -->
<g id="edge4" class="edge">
<title>Node5&#45;&gt;Node4</title>
<path fill="none" stroke="#9a32cd" stroke-dasharray="5,2" d="M138.26,-299.24C168.99,-296.19 204.1,-292.71 232.49,-289.9"/>
<polygon fill="#9a32cd" stroke="#9a32cd" points="137.63,-295.79 128.02,-300.25 138.32,-302.75 137.63,-295.79"/>
<text text-anchor="middle" x="167.5" y="-300.5" font-family="Helvetica,sans-Serif" font-size="10.00"> buffer</text>
</g>
<!-- Node6 -->
<g id="node6" class="node">
<title>Node6</title>
<g id="a_node6"><a xlink:title=" ">
<polygon fill="white" stroke="#bfbfbf" points="32.5,-253 32.5,-272 95.5,-272 95.5,-253 32.5,-253"/>
<text text-anchor="middle" x="64" y="-260" font-family="Helvetica,sans-Serif" font-size="10.00">size_type</text>
</a>
</g>
</g>
<!-- Node6&#45;&gt;Node4 -->
<g id="edge5" class="edge">
<title>Node6&#45;&gt;Node4</title>
<path fill="none" stroke="#9a32cd" stroke-dasharray="5,2" d="M105.9,-266.55C141.5,-270.08 193.37,-275.22 232.48,-279.1"/>
<polygon fill="#9a32cd" stroke="#9a32cd" points="106.16,-263.06 95.87,-265.56 105.47,-270.03 106.16,-263.06"/>
<text text-anchor="middle" x="167.5" y="-276.5" font-family="Helvetica,sans-Serif" font-size="10.00"> position</text>
</g>
<!-- Node7 -->
<g id="node7" class="node">
<title>Node7</title>
<g id="a_node7"><a xlink:title=" ">
<polygon fill="white" stroke="#bfbfbf" points="273.5,-234 273.5,-253 302.5,-253 302.5,-234 273.5,-234"/>
<text text-anchor="middle" x="288" y="-241" font-family="Helvetica,sans-Serif" font-size="10.00">int</text>
</a>
</g>
</g>
<!-- Node7&#45;&gt;Node2 -->
<g id="edge6" class="edge">
<title>Node7&#45;&gt;Node2</title>
<path fill="none" stroke="#9a32cd" stroke-dasharray="5,2" d="M312.76,-242.67C359.71,-240.76 462.62,-235.12 495,-221.5 532.26,-205.83 566.26,-170.45 581.32,-153.25"/>
<polygon fill="#9a32cd" stroke="#9a32cd" points="312.47,-239.18 302.62,-243.06 312.74,-246.18 312.47,-239.18"/>
<text text-anchor="middle" x="441" y="-251.5" font-family="Helvetica,sans-Serif" font-size="10.00"> ident</text>
<text text-anchor="middle" x="441" y="-240.5" font-family="Helvetica,sans-Serif" font-size="10.00">serv</text>
</g>
<!-- Node8 -->
<g id="node8" class="node">
<title>Node8</title>
<g id="a_node8"><a xlink:title=" ">
<polygon fill="white" stroke="#bfbfbf" points="269,-138 269,-157 307,-157 307,-138 269,-138"/>
<text text-anchor="middle" x="288" y="-145" font-family="Helvetica,sans-Serif" font-size="10.00">bool</text>
</a>
</g>
</g>
<!-- Node8&#45;&gt;Node2 -->
<g id="edge7" class="edge">
<title>Node8&#45;&gt;Node2</title>
<path fill="none" stroke="#9a32cd" stroke-dasharray="5,2" d="M317.14,-146.45C336.73,-145.76 363.45,-144.92 387,-144.5 428.48,-143.76 474.74,-143.49 512.57,-143.42"/>
<polygon fill="#9a32cd" stroke="#9a32cd" points="316.93,-142.95 307.06,-146.81 317.18,-149.95 316.93,-142.95"/>
<text text-anchor="middle" x="441" y="-213.5" font-family="Helvetica,sans-Serif" font-size="10.00"> finished</text>
<text text-anchor="middle" x="441" y="-202.5" font-family="Helvetica,sans-Serif" font-size="10.00">input_closed</text>
<text text-anchor="middle" x="441" y="-191.5" font-family="Helvetica,sans-Serif" font-size="10.00">output_closed</text>
<text text-anchor="middle" x="441" y="-180.5" font-family="Helvetica,sans-Serif" font-size="10.00">readability_enabled</text>
<text text-anchor="middle" x="441" y="-169.5" font-family="Helvetica,sans-Serif" font-size="10.00">readability_interested</text>
<text text-anchor="middle" x="441" y="-158.5" font-family="Helvetica,sans-Serif" font-size="10.00">writability_enabled</text>
<text text-anchor="middle" x="441" y="-147.5" font-family="Helvetica,sans-Serif" font-size="10.00">writability_interested</text>
</g>
<!-- Node9 -->
<g id="node9" class="node">
<title>Node9</title>
<g id="a_node9"><a xlink:title=" ">
<polygon fill="white" stroke="#bfbfbf" points="266,-100 266,-119 310,-119 310,-100 266,-100"/>
<text text-anchor="middle" x="288" y="-107" font-family="Helvetica,sans-Serif" font-size="10.00">string</text>
</a>
</g>
</g>
<!-- Node9&#45;&gt;Node2 -->
<g id="edge8" class="edge">
<title>Node9&#45;&gt;Node2</title>
<path fill="none" stroke="#9a32cd" stroke-dasharray="5,2" d="M320.15,-111.44C360.56,-114.13 433.22,-119.58 495,-127.5 508.86,-129.28 523.8,-131.61 537.62,-133.94"/>
<polygon fill="#9a32cd" stroke="#9a32cd" points="320.32,-107.94 310.12,-110.78 319.87,-114.93 320.32,-107.94"/>
<text text-anchor="middle" x="441" y="-130.5" font-family="Helvetica,sans-Serif" font-size="10.00"> host</text>
</g>
<!-- Node10 -->
<g id="node10" class="node">
<title>Node10</title>
<g id="a_node10"><a xlink:title=" ">
<polygon fill="white" stroke="#bfbfbf" points="231.5,-49.5 231.5,-79.5 344.5,-79.5 344.5,-49.5 231.5,-49.5"/>
<text text-anchor="start" x="239.5" y="-67.5" font-family="Helvetica,sans-Serif" font-size="10.00">shared_ptr&lt; ft::serv</text>
<text text-anchor="middle" x="288" y="-56.5" font-family="Helvetica,sans-Serif" font-size="10.00">::event_layer &gt;</text>
</a>
</g>
</g>
<!-- Node10&#45;&gt;Node2 -->
<g id="edge9" class="edge">
<title>Node10&#45;&gt;Node2</title>
<path fill="none" stroke="#9a32cd" stroke-dasharray="5,2" d="M354.69,-58.09C398.06,-57.19 454.19,-62.67 495,-90.5 508.8,-99.91 499.84,-113.21 513,-123.5 518.52,-127.81 524.87,-131.2 531.51,-133.86"/>
<polygon fill="#9a32cd" stroke="#9a32cd" points="354.4,-54.6 344.52,-58.43 354.63,-61.6 354.4,-54.6"/>
<text text-anchor="middle" x="441" y="-104.5" font-family="Helvetica,sans-Serif" font-size="10.00"> pipeline_head</text>
<text text-anchor="middle" x="441" y="-93.5" font-family="Helvetica,sans-Serif" font-size="10.00">pipeline_tail</text>
</g>
<!-- Node11 -->
<g id="node11" class="node">
<title>Node11</title>
<g id="a_node11"><a xlink:title=" ">
<polygon fill="white" stroke="#bfbfbf" points="234.5,-0.5 234.5,-30.5 341.5,-30.5 341.5,-0.5 234.5,-0.5"/>
<text text-anchor="start" x="242.5" y="-18.5" font-family="Helvetica,sans-Serif" font-size="10.00">weak_ptr&lt; ft::serv</text>
<text text-anchor="middle" x="288" y="-7.5" font-family="Helvetica,sans-Serif" font-size="10.00">::event_worker &gt;</text>
</a>
</g>
</g>
<!-- Node11&#45;&gt;Node2 -->
<g id="edge10" class="edge">
<title>Node11&#45;&gt;Node2</title>
<path fill="none" stroke="#9a32cd" stroke-dasharray="5,2" d="M351.59,-7.04C397.01,-4.58 456.93,-9.51 495,-44.5 521.51,-68.87 487.94,-97.64 513,-123.5 517.2,-127.84 522.22,-131.28 527.65,-133.99"/>
<polygon fill="#9a32cd" stroke="#9a32cd" points="351.29,-3.55 341.55,-7.72 351.76,-10.54 351.29,-3.55"/>
<text text-anchor="middle" x="441" y="-47.5" font-family="Helvetica,sans-Serif" font-size="10.00"> loop</text>
</g>
<!-- Node12 -->
<g id="node12" class="node">
<title>Node12</title>
<g id="a_node12"><a xlink:title=" ">
<polygon fill="white" stroke="#bfbfbf" points="524,-84.5 524,-114.5 657,-114.5 657,-84.5 524,-84.5"/>
<text text-anchor="start" x="532" y="-102.5" font-family="Helvetica,sans-Serif" font-size="10.00">shared_ptr&lt; ft::serv</text>
<text text-anchor="middle" x="590.5" y="-91.5" font-family="Helvetica,sans-Serif" font-size="10.00">::event_worker_group &gt;</text>
</a>
</g>
</g>
<!-- Node12&#45;&gt;Node1 -->
<g id="edge11" class="edge">
<title>Node12&#45;&gt;Node1</title>
<path fill="none" stroke="#9a32cd" stroke-dasharray="5,2" d="M667.2,-104.24C689.4,-105.63 713.44,-107.14 734.84,-108.48"/>
<polygon fill="#9a32cd" stroke="#9a32cd" points="667.35,-100.75 657.15,-103.61 666.92,-107.73 667.35,-100.75"/>
<text text-anchor="middle" x="701.5" y="-110.5" font-family="Helvetica,sans-Serif" font-size="10.00"> group</text>
</g>
</g>
</svg>
