<?xml version="1.0" encoding="UTF-8" standalone="no"?>
<!DOCTYPE svg PUBLIC "-//W3C//DTD SVG 1.1//EN"
 "http://www.w3.org/Graphics/SVG/1.1/DTD/svg11.dtd">
<!-- Generated by graphviz version 2.43.0 (0)
 -->
<!-- Title: ft::serv::event_handler_base Pages: 1 -->
<svg width="518pt" height="344pt"
 viewBox="0.00 0.00 518.00 343.50" xmlns="http://www.w3.org/2000/svg" xmlns:xlink="http://www.w3.org/1999/xlink">
<g id="graph0" class="graph" transform="scale(1 1) rotate(0) translate(4 339.5)">
<title>ft::serv::event_handler_base</title>
<polygon fill="white" stroke="transparent" points="-4,4 -4,-339.5 514,-339.5 514,4 -4,4"/>
<!-- Node1 -->
<g id="node1" class="node">
<title>Node1</title>
<g id="a_node1"><a xlink:title=" ">
<polygon fill="#bfbfbf" stroke="black" points="0,-171.5 0,-190.5 154,-190.5 154,-171.5 0,-171.5"/>
<text text-anchor="middle" x="77" y="-178.5" font-family="Helvetica,sans-Serif" font-size="10.00">ft::serv::event_handler_base</text>
</a>
</g>
</g>
<!-- Node2 -->
<g id="node2" class="node">
<title>Node2</title>
<g id="a_node2"><a xlink:href="classbyte__buffer__dump__logger__handler.html" target="_top" xlink:title=" ">
<polygon fill="white" stroke="black" points="193.5,-305 193.5,-335 334.5,-335 334.5,-305 193.5,-305"/>
<text text-anchor="start" x="201.5" y="-323" font-family="Helvetica,sans-Serif" font-size="10.00">byte_buffer_dump_logger</text>
<text text-anchor="middle" x="264" y="-312" font-family="Helvetica,sans-Serif" font-size="10.00">_handler</text>
</a>
</g>
</g>
<!-- Node1&#45;&gt;Node2 -->
<g id="edge1" class="edge">
<title>Node1&#45;&gt;Node2</title>
<path fill="none" stroke="midnightblue" d="M91.18,-198.92C110.33,-223.78 148.18,-268.66 190,-295 196.01,-298.78 202.66,-302.07 209.42,-304.91"/>
<polygon fill="midnightblue" stroke="midnightblue" points="93.81,-196.6 84.99,-190.73 88.23,-200.82 93.81,-196.6"/>
</g>
<!-- Node3 -->
<g id="node3" class="node">
<title>Node3</title>
<g id="a_node3"><a xlink:href="classdummy__inbound__adapter.html" target="_top" xlink:title=" ">
<polygon fill="white" stroke="black" points="193.5,-266.5 193.5,-285.5 334.5,-285.5 334.5,-266.5 193.5,-266.5"/>
<text text-anchor="middle" x="264" y="-273.5" font-family="Helvetica,sans-Serif" font-size="10.00">dummy_inbound_adapter</text>
</a>
</g>
</g>
<!-- Node1&#45;&gt;Node3 -->
<g id="edge2" class="edge">
<title>Node1&#45;&gt;Node3</title>
<path fill="none" stroke="midnightblue" d="M97.26,-197.12C118.65,-214.26 154.82,-241.06 190,-257 198.35,-260.78 207.59,-263.92 216.61,-266.48"/>
<polygon fill="midnightblue" stroke="midnightblue" points="99.26,-194.24 89.3,-190.63 94.84,-199.66 99.26,-194.24"/>
</g>
<!-- Node4 -->
<g id="node4" class="node">
<title>Node4</title>
<g id="a_node4"><a xlink:href="classdummy__outbound__adapter.html" target="_top" xlink:title=" ">
<polygon fill="white" stroke="black" points="190,-228.5 190,-247.5 338,-247.5 338,-228.5 190,-228.5"/>
<text text-anchor="middle" x="264" y="-235.5" font-family="Helvetica,sans-Serif" font-size="10.00">dummy_outbound_adapter</text>
</a>
</g>
</g>
<!-- Node1&#45;&gt;Node4 -->
<g id="edge3" class="edge">
<title>Node1&#45;&gt;Node4</title>
<path fill="none" stroke="midnightblue" d="M114.06,-193.98C135.91,-201.65 164.41,-211.34 190,-219 201.04,-222.3 213.12,-225.58 224.21,-228.46"/>
<polygon fill="midnightblue" stroke="midnightblue" points="115.12,-190.64 104.53,-190.61 112.79,-197.24 115.12,-190.64"/>
</g>
<!-- Node5 -->
<g id="node5" class="node">
<title>Node5</title>
<g id="a_node5"><a xlink:href="classft_1_1serv_1_1bytes__decoder.html" target="_top" xlink:title=" ">
<polygon fill="white" stroke="black" points="200.5,-190.5 200.5,-209.5 327.5,-209.5 327.5,-190.5 200.5,-190.5"/>
<text text-anchor="middle" x="264" y="-197.5" font-family="Helvetica,sans-Serif" font-size="10.00">ft::serv::bytes_decoder</text>
</a>
</g>
</g>
<!-- Node1&#45;&gt;Node5 -->
<g id="edge4" class="edge">
<title>Node1&#45;&gt;Node5</title>
<path fill="none" stroke="midnightblue" d="M164.26,-189.86C176.47,-191.11 188.84,-192.38 200.49,-193.58"/>
<polygon fill="midnightblue" stroke="midnightblue" points="164.35,-186.35 154.05,-188.81 163.64,-193.31 164.35,-186.35"/>
</g>
<!-- Node7 -->
<g id="node7" class="node">
<title>Node7</title>
<g id="a_node7"><a xlink:href="classft_1_1serv_1_1bytes__encoder.html" target="_top" xlink:title=" ">
<polygon fill="white" stroke="black" points="200.5,-152.5 200.5,-171.5 327.5,-171.5 327.5,-152.5 200.5,-152.5"/>
<text text-anchor="middle" x="264" y="-159.5" font-family="Helvetica,sans-Serif" font-size="10.00">ft::serv::bytes_encoder</text>
</a>
</g>
</g>
<!-- Node1&#45;&gt;Node7 -->
<g id="edge6" class="edge">
<title>Node1&#45;&gt;Node7</title>
<path fill="none" stroke="midnightblue" d="M164.26,-172.14C176.47,-170.89 188.84,-169.62 200.49,-168.42"/>
<polygon fill="midnightblue" stroke="midnightblue" points="163.64,-168.69 154.05,-173.19 164.35,-175.65 163.64,-168.69"/>
</g>
<!-- Node9 -->
<g id="node9" class="node">
<title>Node9</title>
<g id="a_node9"><a xlink:href="classft_1_1serv_1_1logic__adapter.html" target="_top" xlink:title=" ">
<polygon fill="white" stroke="black" points="203,-114.5 203,-133.5 325,-133.5 325,-114.5 203,-114.5"/>
<text text-anchor="middle" x="264" y="-121.5" font-family="Helvetica,sans-Serif" font-size="10.00">ft::serv::logic_adapter</text>
</a>
</g>
</g>
<!-- Node1&#45;&gt;Node9 -->
<g id="edge8" class="edge">
<title>Node1&#45;&gt;Node9</title>
<path fill="none" stroke="midnightblue" d="M114.06,-168.02C135.91,-160.35 164.41,-150.66 190,-143 201.04,-139.7 213.12,-136.42 224.21,-133.54"/>
<polygon fill="midnightblue" stroke="midnightblue" points="112.79,-164.76 104.53,-171.39 115.12,-171.36 112.79,-164.76"/>
</g>
<!-- Node13 -->
<g id="node13" class="node">
<title>Node13</title>
<g id="a_node13"><a xlink:href="classft_1_1serv_1_1object__decoder.html" target="_top" xlink:title=" ">
<polygon fill="white" stroke="black" points="199,-57.5 199,-76.5 329,-76.5 329,-57.5 199,-57.5"/>
<text text-anchor="middle" x="264" y="-64.5" font-family="Helvetica,sans-Serif" font-size="10.00">ft::serv::object_decoder</text>
</a>
</g>
</g>
<!-- Node1&#45;&gt;Node13 -->
<g id="edge12" class="edge">
<title>Node1&#45;&gt;Node13</title>
<path fill="none" stroke="midnightblue" d="M99.47,-165.33C121.66,-149.4 157.55,-124.37 190,-105 207.54,-94.53 228.27,-83.9 243.14,-76.56"/>
<polygon fill="midnightblue" stroke="midnightblue" points="97.18,-162.67 91.12,-171.36 101.28,-168.34 97.18,-162.67"/>
</g>
<!-- Node15 -->
<g id="node15" class="node">
<title>Node15</title>
<g id="a_node15"><a xlink:href="classft_1_1serv_1_1object__encoder.html" target="_top" xlink:title=" ">
<polygon fill="white" stroke="black" points="199,-19.5 199,-38.5 329,-38.5 329,-19.5 199,-19.5"/>
<text text-anchor="middle" x="264" y="-26.5" font-family="Helvetica,sans-Serif" font-size="10.00">ft::serv::object_encoder</text>
</a>
</g>
</g>
<!-- Node1&#45;&gt;Node15 -->
<g id="edge14" class="edge">
<title>Node1&#45;&gt;Node15</title>
<path fill="none" stroke="midnightblue" d="M88.4,-162.47C105.64,-133.49 142.98,-77.66 190,-48 196.2,-44.09 203.18,-40.98 210.31,-38.51"/>
<polygon fill="midnightblue" stroke="midnightblue" points="85.32,-160.79 83.33,-171.2 91.38,-164.31 85.32,-160.79"/>
</g>
<!-- Node6 -->
<g id="node6" class="node">
<title>Node6</title>
<g id="a_node6"><a xlink:href="classft_1_1irc_1_1string__line__decoder.html" target="_top" xlink:title=" ">
<polygon fill="white" stroke="black" points="393,-240 393,-270 491,-270 491,-240 393,-240"/>
<text text-anchor="start" x="401" y="-258" font-family="Helvetica,sans-Serif" font-size="10.00">ft::irc::string_line</text>
<text text-anchor="middle" x="442" y="-247" font-family="Helvetica,sans-Serif" font-size="10.00">_decoder</text>
</a>
</g>
</g>
<!-- Node5&#45;&gt;Node6 -->
<g id="edge5" class="edge">
<title>Node5&#45;&gt;Node6</title>
<path fill="none" stroke="midnightblue" d="M313.9,-212.14C321.99,-214.31 330.25,-216.64 338,-219 349.73,-222.57 375.95,-231.74 399,-239.93"/>
<polygon fill="midnightblue" stroke="midnightblue" points="314.75,-208.74 304.19,-209.57 312.96,-215.51 314.75,-208.74"/>
</g>
<!-- Node8 -->
<g id="node8" class="node">
<title>Node8</title>
<g id="a_node8"><a xlink:href="classft_1_1irc_1_1string__line__encoder.html" target="_top" xlink:title=" ">
<polygon fill="white" stroke="black" points="393,-191 393,-221 491,-221 491,-191 393,-191"/>
<text text-anchor="start" x="401" y="-209" font-family="Helvetica,sans-Serif" font-size="10.00">ft::irc::string_line</text>
<text text-anchor="middle" x="442" y="-198" font-family="Helvetica,sans-Serif" font-size="10.00">_encoder</text>
</a>
</g>
</g>
<!-- Node7&#45;&gt;Node8 -->
<g id="edge7" class="edge">
<title>Node7&#45;&gt;Node8</title>
<path fill="none" stroke="midnightblue" d="M313.1,-174.02C337.88,-180.22 368.02,-187.75 392.81,-193.95"/>
<polygon fill="midnightblue" stroke="midnightblue" points="313.74,-170.58 303.19,-171.55 312.04,-177.37 313.74,-170.58"/>
</g>
<!-- Node10 -->
<g id="node10" class="node">
<title>Node10</title>
<g id="a_node10"><a xlink:href="classft_1_1irc_1_1bot__handler.html" target="_top" xlink:title=" ">
<polygon fill="white" stroke="black" points="389.5,-152.5 389.5,-171.5 494.5,-171.5 494.5,-152.5 389.5,-152.5"/>
<text text-anchor="middle" x="442" y="-159.5" font-family="Helvetica,sans-Serif" font-size="10.00">ft::irc::bot_handler</text>
</a>
</g>
</g>
<!-- Node9&#45;&gt;Node10 -->
<g id="edge9" class="edge">
<title>Node9&#45;&gt;Node10</title>
<path fill="none" stroke="midnightblue" d="M319.43,-135.75C344.32,-141.13 373.42,-147.41 396.91,-152.48"/>
<polygon fill="midnightblue" stroke="midnightblue" points="319.93,-132.28 309.41,-133.59 318.45,-139.12 319.93,-132.28"/>
</g>
<!-- Node11 -->
<g id="node11" class="node">
<title>Node11</title>
<g id="a_node11"><a xlink:href="classft_1_1irc_1_1client__handler.html" target="_top" xlink:title=" ">
<polygon fill="white" stroke="black" points="384,-114.5 384,-133.5 500,-133.5 500,-114.5 384,-114.5"/>
<text text-anchor="middle" x="442" y="-121.5" font-family="Helvetica,sans-Serif" font-size="10.00">ft::irc::client_handler</text>
</a>
</g>
</g>
<!-- Node9&#45;&gt;Node11 -->
<g id="edge10" class="edge">
<title>Node9&#45;&gt;Node11</title>
<path fill="none" stroke="midnightblue" d="M335.49,-124C351.56,-124 368.44,-124 383.87,-124"/>
<polygon fill="midnightblue" stroke="midnightblue" points="335.08,-120.5 325.08,-124 335.08,-127.5 335.08,-120.5"/>
</g>
<!-- Node12 -->
<g id="node12" class="node">
<title>Node12</title>
<g id="a_node12"><a xlink:href="classft_1_1irc_1_1server__handler.html" target="_top" xlink:title=" ">
<polygon fill="white" stroke="black" points="382,-76.5 382,-95.5 502,-95.5 502,-76.5 382,-76.5"/>
<text text-anchor="middle" x="442" y="-83.5" font-family="Helvetica,sans-Serif" font-size="10.00">ft::irc::server_handler</text>
</a>
</g>
</g>
<!-- Node9&#45;&gt;Node12 -->
<g id="edge11" class="edge">
<title>Node9&#45;&gt;Node12</title>
<path fill="none" stroke="midnightblue" d="M319.43,-112.25C344.32,-106.87 373.42,-100.59 396.91,-95.52"/>
<polygon fill="midnightblue" stroke="midnightblue" points="318.45,-108.88 309.41,-114.41 319.93,-115.72 318.45,-108.88"/>
</g>
<!-- Node14 -->
<g id="node14" class="node">
<title>Node14</title>
<g id="a_node14"><a xlink:href="classft_1_1irc_1_1message__decoder.html" target="_top" xlink:title=" ">
<polygon fill="white" stroke="black" points="374,-38.5 374,-57.5 510,-57.5 510,-38.5 374,-38.5"/>
<text text-anchor="middle" x="442" y="-45.5" font-family="Helvetica,sans-Serif" font-size="10.00">ft::irc::message_decoder</text>
</a>
</g>
</g>
<!-- Node13&#45;&gt;Node14 -->
<g id="edge13" class="edge">
<title>Node13&#45;&gt;Node14</title>
<path fill="none" stroke="midnightblue" d="M339.05,-59.01C350.56,-57.76 362.4,-56.49 373.75,-55.26"/>
<polygon fill="midnightblue" stroke="midnightblue" points="338.6,-55.53 329.04,-60.09 339.36,-62.49 338.6,-55.53"/>
</g>
<!-- Node16 -->
<g id="node16" class="node">
<title>Node16</title>
<g id="a_node16"><a xlink:href="classft_1_1irc_1_1message__encoder.html" target="_top" xlink:title=" ">
<polygon fill="white" stroke="black" points="374,-0.5 374,-19.5 510,-19.5 510,-0.5 374,-0.5"/>
<text text-anchor="middle" x="442" y="-7.5" font-family="Helvetica,sans-Serif" font-size="10.00">ft::irc::message_encoder</text>
</a>
</g>
</g>
<!-- Node15&#45;&gt;Node16 -->
<g id="edge15" class="edge">
<title>Node15&#45;&gt;Node16</title>
<path fill="none" stroke="midnightblue" d="M339.05,-21.01C350.56,-19.76 362.4,-18.49 373.75,-17.26"/>
<polygon fill="midnightblue" stroke="midnightblue" points="338.6,-17.53 329.04,-22.09 339.36,-24.49 338.6,-17.53"/>
</g>
</g>
</svg>
