<?xml version="1.0" encoding="UTF-8" standalone="no"?>
<!DOCTYPE svg PUBLIC "-//W3C//DTD SVG 1.1//EN"
 "http://www.w3.org/Graphics/SVG/1.1/DTD/svg11.dtd">
<!-- Generated by graphviz version 2.43.0 (0)
 -->
<!-- Title: ft::irc::user::make_full_name Pages: 1 -->
<svg width="542pt" height="161pt"
 viewBox="0.00 0.00 542.00 161.00" xmlns="http://www.w3.org/2000/svg" xmlns:xlink="http://www.w3.org/1999/xlink">
<g id="graph0" class="graph" transform="scale(1 1) rotate(0) translate(4 157)">
<title>ft::irc::user::make_full_name</title>
<polygon fill="white" stroke="transparent" points="-4,4 -4,-157 538,-157 538,4 -4,4"/>
<!-- Node1 -->
<g id="node1" class="node">
<title>Node1</title>
<g id="a_node1"><a xlink:title=" ">
<polygon fill="#bfbfbf" stroke="black" points="433,-73.5 433,-103.5 534,-103.5 534,-73.5 433,-73.5"/>
<text text-anchor="start" x="441" y="-91.5" font-family="Helvetica,sans-Serif" font-size="10.00">ft::irc::user::make</text>
<text text-anchor="middle" x="483.5" y="-80.5" font-family="Helvetica,sans-Serif" font-size="10.00">_full_name</text>
</a>
</g>
</g>
<!-- Node2 -->
<g id="node2" class="node">
<title>Node2</title>
<g id="a_node2"><a xlink:href="classft_1_1irc_1_1processor__dictionary.html#a50bd8e9f89f6f6a911f5495272cd7d41" target="_top" xlink:title=" ">
<polygon fill="white" stroke="black" points="283,-122.5 283,-152.5 397,-152.5 397,-122.5 283,-122.5"/>
<text text-anchor="start" x="291" y="-140.5" font-family="Helvetica,sans-Serif" font-size="10.00">ft::irc::processor</text>
<text text-anchor="middle" x="340" y="-129.5" font-family="Helvetica,sans-Serif" font-size="10.00">_dictionary::execute</text>
</a>
</g>
</g>
<!-- Node1&#45;&gt;Node2 -->
<g id="edge1" class="edge">
<title>Node1&#45;&gt;Node2</title>
<path fill="none" stroke="midnightblue" d="M429.4,-106.89C414.66,-111.99 398.84,-117.47 384.71,-122.36"/>
<polygon fill="midnightblue" stroke="midnightblue" points="430.59,-110.18 438.89,-103.6 428.3,-103.57 430.59,-110.18"/>
</g>
<!-- Node4 -->
<g id="node4" class="node">
<title>Node4</title>
<g id="a_node4"><a xlink:href="classft_1_1irc_1_1processor__oper.html#a941691cbab81d134cb4ffc30bd270d04" target="_top" xlink:title=" ">
<polygon fill="white" stroke="black" points="292.5,-73.5 292.5,-103.5 387.5,-103.5 387.5,-73.5 292.5,-73.5"/>
<text text-anchor="start" x="300.5" y="-91.5" font-family="Helvetica,sans-Serif" font-size="10.00">ft::irc::processor</text>
<text text-anchor="middle" x="340" y="-80.5" font-family="Helvetica,sans-Serif" font-size="10.00">_oper::execute</text>
</a>
</g>
</g>
<!-- Node1&#45;&gt;Node4 -->
<g id="edge3" class="edge">
<title>Node1&#45;&gt;Node4</title>
<path fill="none" stroke="midnightblue" d="M422.49,-88.5C410.82,-88.5 398.75,-88.5 387.6,-88.5"/>
<polygon fill="midnightblue" stroke="midnightblue" points="422.61,-92 432.61,-88.5 422.61,-85 422.61,-92"/>
</g>
<!-- Node5 -->
<g id="node5" class="node">
<title>Node5</title>
<g id="a_node5"><a xlink:href="classft_1_1irc_1_1server.html#a5ecd192da409f6740de44ea8cb3b44cf" target="_top" xlink:title=" ">
<polygon fill="white" stroke="black" points="286.5,-24.5 286.5,-54.5 393.5,-54.5 393.5,-24.5 286.5,-24.5"/>
<text text-anchor="start" x="294.5" y="-42.5" font-family="Helvetica,sans-Serif" font-size="10.00">ft::irc::server::send</text>
<text text-anchor="middle" x="340" y="-31.5" font-family="Helvetica,sans-Serif" font-size="10.00">_welcome</text>
</a>
</g>
</g>
<!-- Node1&#45;&gt;Node5 -->
<g id="edge4" class="edge">
<title>Node1&#45;&gt;Node5</title>
<path fill="none" stroke="midnightblue" d="M429.4,-70.11C414.66,-65.01 398.84,-59.53 384.71,-54.64"/>
<polygon fill="midnightblue" stroke="midnightblue" points="428.3,-73.43 438.89,-73.4 430.59,-66.82 428.3,-73.43"/>
</g>
<!-- Node3 -->
<g id="node3" class="node">
<title>Node3</title>
<g id="a_node3"><a xlink:href="classft_1_1irc_1_1client__handler.html#a239d2ec2a936d74893455a83468669b3" target="_top" xlink:title=" ">
<polygon fill="white" stroke="black" points="131,-122.5 131,-152.5 247,-152.5 247,-122.5 131,-122.5"/>
<text text-anchor="start" x="139" y="-140.5" font-family="Helvetica,sans-Serif" font-size="10.00">ft::irc::client_handler</text>
<text text-anchor="middle" x="189" y="-129.5" font-family="Helvetica,sans-Serif" font-size="10.00">::on_read</text>
</a>
</g>
</g>
<!-- Node2&#45;&gt;Node3 -->
<g id="edge2" class="edge">
<title>Node2&#45;&gt;Node3</title>
<path fill="none" stroke="midnightblue" d="M272.54,-137.5C264.15,-137.5 255.63,-137.5 247.4,-137.5"/>
<polygon fill="midnightblue" stroke="midnightblue" points="272.67,-141 282.67,-137.5 272.67,-134 272.67,-141"/>
</g>
<!-- Node6 -->
<g id="node6" class="node">
<title>Node6</title>
<g id="a_node6"><a xlink:href="classft_1_1irc_1_1user.html#affa6016f0c81205cd3c60ea6e9706132" target="_top" xlink:title=" ">
<polygon fill="white" stroke="black" points="133,-24.5 133,-54.5 245,-54.5 245,-24.5 133,-24.5"/>
<text text-anchor="start" x="141" y="-42.5" font-family="Helvetica,sans-Serif" font-size="10.00">ft::irc::user::register</text>
<text text-anchor="middle" x="189" y="-31.5" font-family="Helvetica,sans-Serif" font-size="10.00">_to_server</text>
</a>
</g>
</g>
<!-- Node5&#45;&gt;Node6 -->
<g id="edge5" class="edge">
<title>Node5&#45;&gt;Node6</title>
<path fill="none" stroke="midnightblue" d="M276.25,-39.5C265.9,-39.5 255.23,-39.5 245.09,-39.5"/>
<polygon fill="midnightblue" stroke="midnightblue" points="276.47,-43 286.47,-39.5 276.47,-36 276.47,-43"/>
</g>
<!-- Node7 -->
<g id="node7" class="node">
<title>Node7</title>
<g id="a_node7"><a xlink:href="classft_1_1irc_1_1processor__nick.html#a7a2f0f709488328c04b6ccf0c41ce78e" target="_top" xlink:title=" ">
<polygon fill="white" stroke="black" points="0,-49.5 0,-79.5 95,-79.5 95,-49.5 0,-49.5"/>
<text text-anchor="start" x="8" y="-67.5" font-family="Helvetica,sans-Serif" font-size="10.00">ft::irc::processor</text>
<text text-anchor="middle" x="47.5" y="-56.5" font-family="Helvetica,sans-Serif" font-size="10.00">_nick::execute</text>
</a>
</g>
</g>
<!-- Node6&#45;&gt;Node7 -->
<g id="edge6" class="edge">
<title>Node6&#45;&gt;Node7</title>
<path fill="none" stroke="midnightblue" d="M122.81,-51.18C113.47,-52.86 104.02,-54.55 95.13,-56.14"/>
<polygon fill="midnightblue" stroke="midnightblue" points="123.64,-54.59 132.87,-49.38 122.41,-47.7 123.64,-54.59"/>
</g>
<!-- Node8 -->
<g id="node8" class="node">
<title>Node8</title>
<g id="a_node8"><a xlink:href="classft_1_1irc_1_1processor__user.html#aa42b3fdd743060d5f9afaaff5e46e28f" target="_top" xlink:title=" ">
<polygon fill="white" stroke="black" points="0,-0.5 0,-30.5 95,-30.5 95,-0.5 0,-0.5"/>
<text text-anchor="start" x="8" y="-18.5" font-family="Helvetica,sans-Serif" font-size="10.00">ft::irc::processor</text>
<text text-anchor="middle" x="47.5" y="-7.5" font-family="Helvetica,sans-Serif" font-size="10.00">_user::execute</text>
</a>
</g>
</g>
<!-- Node6&#45;&gt;Node8 -->
<g id="edge7" class="edge">
<title>Node6&#45;&gt;Node8</title>
<path fill="none" stroke="midnightblue" d="M122.81,-28.28C113.47,-26.68 104.02,-25.05 95.13,-23.52"/>
<polygon fill="midnightblue" stroke="midnightblue" points="122.42,-31.77 132.87,-30.01 123.6,-24.87 122.42,-31.77"/>
</g>
</g>
</svg>
