<?xml version="1.0" encoding="UTF-8" standalone="no"?>
<!DOCTYPE svg PUBLIC "-//W3C//DTD SVG 1.1//EN"
 "http://www.w3.org/Graphics/SVG/1.1/DTD/svg11.dtd">
<!-- Generated by graphviz version 2.43.0 (0)
 -->
<!-- Title: ft::irc::processor_message_base::execute Pages: 1 -->
<svg width="455pt" height="390pt"
 viewBox="0.00 0.00 455.00 390.00" xmlns="http://www.w3.org/2000/svg" xmlns:xlink="http://www.w3.org/1999/xlink">
<g id="graph0" class="graph" transform="scale(1 1) rotate(0) translate(4 386)">
<title>ft::irc::processor_message_base::execute</title>
<polygon fill="white" stroke="transparent" points="-4,4 -4,-386 451,-386 451,4 -4,4"/>
<!-- Node1 -->
<g id="node1" class="node">
<title>Node1</title>
<g id="a_node1"><a xlink:title=" ">
<polygon fill="#bfbfbf" stroke="black" points="0,-176 0,-206 139,-206 139,-176 0,-176"/>
<text text-anchor="start" x="8" y="-194" font-family="Helvetica,sans-Serif" font-size="10.00">ft::irc::processor</text>
<text text-anchor="middle" x="69.5" y="-183" font-family="Helvetica,sans-Serif" font-size="10.00">_message_base::execute</text>
</a>
</g>
</g>
<!-- Node2 -->
<g id="node2" class="node">
<title>Node2</title>
<g id="a_node2"><a xlink:href="classft_1_1irc_1_1channel.html#ae4d480fe67024e93ec3bfe21f5d82b4f" target="_top" xlink:title=" ">
<polygon fill="white" stroke="black" points="178,-362.5 178,-381.5 318,-381.5 318,-362.5 178,-362.5"/>
<text text-anchor="middle" x="248" y="-369.5" font-family="Helvetica,sans-Serif" font-size="10.00">ft::irc::channel::broadcast</text>
</a>
</g>
</g>
<!-- Node1&#45;&gt;Node2 -->
<g id="edge1" class="edge">
<title>Node1&#45;&gt;Node2</title>
<path fill="none" stroke="midnightblue" d="M75.9,-206.18C88.19,-238.45 121.37,-314.07 175,-353 177.67,-354.94 180.52,-356.68 183.49,-358.24"/>
<polygon fill="midnightblue" stroke="midnightblue" points="182.15,-361.47 192.7,-362.41 185.04,-355.1 182.15,-361.47"/>
</g>
<!-- Node3 -->
<g id="node3" class="node">
<title>Node3</title>
<g id="a_node3"><a xlink:href="classft_1_1irc_1_1server.html#a0e7dee7efef3f36af15d1a3b97f3bad9" target="_top" xlink:title=" ">
<polygon fill="white" stroke="black" points="197,-313 197,-343 299,-343 299,-313 197,-313"/>
<text text-anchor="start" x="205" y="-331" font-family="Helvetica,sans-Serif" font-size="10.00">ft::irc::server::find</text>
<text text-anchor="middle" x="248" y="-320" font-family="Helvetica,sans-Serif" font-size="10.00">_channel</text>
</a>
</g>
</g>
<!-- Node1&#45;&gt;Node3 -->
<g id="edge2" class="edge">
<title>Node1&#45;&gt;Node3</title>
<path fill="none" stroke="midnightblue" d="M80.92,-206.26C97.95,-230.12 133.99,-276.3 175,-303 178.85,-305.5 182.97,-307.79 187.23,-309.87"/>
<polygon fill="midnightblue" stroke="midnightblue" points="186.15,-313.22 196.71,-314.09 189,-306.83 186.15,-313.22"/>
</g>
<!-- Node4 -->
<g id="node4" class="node">
<title>Node4</title>
<g id="a_node4"><a xlink:href="classft_1_1irc_1_1server.html#a7a7b03083500fa8c2c3008ff55e6eafb" target="_top" xlink:title=" ">
<polygon fill="white" stroke="black" points="184,-274.5 184,-293.5 312,-293.5 312,-274.5 184,-274.5"/>
<text text-anchor="middle" x="248" y="-281.5" font-family="Helvetica,sans-Serif" font-size="10.00">ft::irc::server::find_user</text>
</a>
</g>
</g>
<!-- Node1&#45;&gt;Node4 -->
<g id="edge3" class="edge">
<title>Node1&#45;&gt;Node4</title>
<path fill="none" stroke="midnightblue" d="M87.77,-206.22C107.55,-222.9 141.57,-249.38 175,-265 180.05,-267.36 185.44,-269.46 190.92,-271.33"/>
<polygon fill="midnightblue" stroke="midnightblue" points="190.22,-274.78 200.81,-274.44 192.32,-268.1 190.22,-274.78"/>
</g>
<!-- Node5 -->
<g id="node5" class="node">
<title>Node5</title>
<g id="a_node5"><a xlink:href="classft_1_1irc_1_1user.html#ae476cc31795df7fbb726b193ab887e75" target="_top" xlink:title=" ">
<polygon fill="white" stroke="black" points="203,-225 203,-255 293,-255 293,-225 203,-225"/>
<text text-anchor="start" x="211" y="-243" font-family="Helvetica,sans-Serif" font-size="10.00">ft::irc::user::get</text>
<text text-anchor="middle" x="248" y="-232" font-family="Helvetica,sans-Serif" font-size="10.00">_server</text>
</a>
</g>
</g>
<!-- Node1&#45;&gt;Node5 -->
<g id="edge4" class="edge">
<title>Node1&#45;&gt;Node5</title>
<path fill="none" stroke="midnightblue" d="M124.9,-206.1C146.59,-212.12 171.5,-219.04 193.15,-225.05"/>
<polygon fill="midnightblue" stroke="midnightblue" points="192.26,-228.44 202.84,-227.74 194.14,-221.69 192.26,-228.44"/>
</g>
<!-- Node6 -->
<g id="node6" class="node">
<title>Node6</title>
<g id="a_node6"><a xlink:href="classft_1_1irc_1_1user.html#a43fb91fff5e13afd67f9e642137eca40" target="_top" xlink:title=" ">
<polygon fill="white" stroke="black" points="185,-176 185,-206 311,-206 311,-176 185,-176"/>
<text text-anchor="start" x="193" y="-194" font-family="Helvetica,sans-Serif" font-size="10.00">ft::irc::user::is_channel</text>
<text text-anchor="middle" x="248" y="-183" font-family="Helvetica,sans-Serif" font-size="10.00">_member</text>
</a>
</g>
</g>
<!-- Node1&#45;&gt;Node6 -->
<g id="edge5" class="edge">
<title>Node1&#45;&gt;Node6</title>
<path fill="none" stroke="midnightblue" d="M139.24,-191C150.85,-191 162.93,-191 174.62,-191"/>
<polygon fill="midnightblue" stroke="midnightblue" points="174.77,-194.5 184.77,-191 174.77,-187.5 174.77,-194.5"/>
</g>
<!-- Node7 -->
<g id="node7" class="node">
<title>Node7</title>
<g id="a_node7"><a xlink:href="structft_1_1irc_1_1string__utils.html#a38cd804a5b73843f0fd63a027dd0dee0" target="_top" xlink:title=" ">
<polygon fill="white" stroke="black" points="182.5,-127 182.5,-157 313.5,-157 313.5,-127 182.5,-127"/>
<text text-anchor="start" x="190.5" y="-145" font-family="Helvetica,sans-Serif" font-size="10.00">ft::irc::string_utils</text>
<text text-anchor="middle" x="248" y="-134" font-family="Helvetica,sans-Serif" font-size="10.00">::is_valid_channelname</text>
</a>
</g>
</g>
<!-- Node1&#45;&gt;Node7 -->
<g id="edge6" class="edge">
<title>Node1&#45;&gt;Node7</title>
<path fill="none" stroke="midnightblue" d="M124.9,-175.9C143.27,-170.8 163.95,-165.06 182.99,-159.77"/>
<polygon fill="midnightblue" stroke="midnightblue" points="184.08,-163.1 192.78,-157.05 182.21,-156.35 184.08,-163.1"/>
</g>
<!-- Node9 -->
<g id="node9" class="node">
<title>Node9</title>
<g id="a_node9"><a xlink:href="classft_1_1irc_1_1channel.html#a01d060ed582406cbe40ec0889408d5b2" target="_top" xlink:title=" ">
<polygon fill="white" stroke="black" points="175,-88.5 175,-107.5 321,-107.5 321,-88.5 175,-88.5"/>
<text text-anchor="middle" x="248" y="-95.5" font-family="Helvetica,sans-Serif" font-size="10.00">ft::irc::channel::load_mode</text>
</a>
</g>
</g>
<!-- Node1&#45;&gt;Node9 -->
<g id="edge8" class="edge">
<title>Node1&#45;&gt;Node9</title>
<path fill="none" stroke="midnightblue" d="M88.2,-175.79C108.1,-159.39 141.97,-133.57 175,-118 180.85,-115.24 187.16,-112.8 193.52,-110.65"/>
<polygon fill="midnightblue" stroke="midnightblue" points="195,-113.86 203.5,-107.53 192.91,-107.18 195,-113.86"/>
</g>
<!-- Node10 -->
<g id="node10" class="node">
<title>Node10</title>
<g id="a_node10"><a xlink:href="structft_1_1irc_1_1make__reply.html#a5bc514d5b05cc15d799aba1944a18386" target="_top" xlink:title=" ">
<polygon fill="white" stroke="black" points="196,-39 196,-69 300,-69 300,-39 196,-39"/>
<text text-anchor="start" x="204" y="-57" font-family="Helvetica,sans-Serif" font-size="10.00">ft::irc::make_reply</text>
<text text-anchor="middle" x="248" y="-46" font-family="Helvetica,sans-Serif" font-size="10.00">::replicate</text>
</a>
</g>
</g>
<!-- Node1&#45;&gt;Node10 -->
<g id="edge9" class="edge">
<title>Node1&#45;&gt;Node10</title>
<path fill="none" stroke="midnightblue" d="M80.92,-175.74C97.95,-151.88 133.99,-105.7 175,-79 178.72,-76.58 182.7,-74.36 186.81,-72.34"/>
<polygon fill="midnightblue" stroke="midnightblue" points="188.28,-75.52 195.96,-68.22 185.4,-69.14 188.28,-75.52"/>
</g>
<!-- Node11 -->
<g id="node11" class="node">
<title>Node11</title>
<g id="a_node11"><a xlink:href="classft_1_1irc_1_1message.html#adf434fdc28e74fb166c6046c0ac5c6d5" target="_top" xlink:title=" ">
<polygon fill="white" stroke="black" points="188.5,-0.5 188.5,-19.5 307.5,-19.5 307.5,-0.5 188.5,-0.5"/>
<text text-anchor="middle" x="248" y="-7.5" font-family="Helvetica,sans-Serif" font-size="10.00">ft::irc::message::split</text>
</a>
</g>
</g>
<!-- Node1&#45;&gt;Node11 -->
<g id="edge10" class="edge">
<title>Node1&#45;&gt;Node11</title>
<path fill="none" stroke="midnightblue" d="M75.97,-175.96C88.38,-144 121.8,-69.03 175,-30 178.26,-27.61 181.79,-25.5 185.49,-23.65"/>
<polygon fill="midnightblue" stroke="midnightblue" points="187.16,-26.74 194.93,-19.54 184.36,-20.32 187.16,-26.74"/>
</g>
<!-- Node8 -->
<g id="node8" class="node">
<title>Node8</title>
<g id="a_node8"><a xlink:href="namespaceft_1_1irc_1_1__internal.html#ac421a738f6d955bab8b862fca8bd7159" target="_top" xlink:title=" ">
<polygon fill="white" stroke="black" points="357,-127 357,-157 447,-157 447,-127 357,-127"/>
<text text-anchor="start" x="365" y="-145" font-family="Helvetica,sans-Serif" font-size="10.00">ft::irc::_internal</text>
<text text-anchor="middle" x="402" y="-134" font-family="Helvetica,sans-Serif" font-size="10.00">::_is_except</text>
</a>
</g>
</g>
<!-- Node7&#45;&gt;Node8 -->
<g id="edge7" class="edge">
<title>Node7&#45;&gt;Node8</title>
<path fill="none" stroke="midnightblue" d="M313.9,-142C324.91,-142 336.23,-142 346.92,-142"/>
<polygon fill="midnightblue" stroke="midnightblue" points="346.95,-145.5 356.95,-142 346.95,-138.5 346.95,-145.5"/>
</g>
</g>
</svg>
