<?xml version="1.0" encoding="UTF-8" standalone="no"?>
<!DOCTYPE svg PUBLIC "-//W3C//DTD SVG 1.1//EN"
 "http://www.w3.org/Graphics/SVG/1.1/DTD/svg11.dtd">
<!-- Generated by graphviz version 2.43.0 (0)
 -->
<!-- Title: ft::irc::processor_names::execute Pages: 1 -->
<svg width="437pt" height="328pt"
 viewBox="0.00 0.00 437.00 328.00" xmlns="http://www.w3.org/2000/svg" xmlns:xlink="http://www.w3.org/1999/xlink">
<g id="graph0" class="graph" transform="scale(1 1) rotate(0) translate(4 324)">
<title>ft::irc::processor_names::execute</title>
<polygon fill="white" stroke="transparent" points="-4,4 -4,-324 433,-324 433,4 -4,4"/>
<!-- Node1 -->
<g id="node1" class="node">
<title>Node1</title>
<g id="a_node1"><a xlink:title=" ">
<polygon fill="#bfbfbf" stroke="black" points="0,-142.5 0,-172.5 99,-172.5 99,-142.5 0,-142.5"/>
<text text-anchor="start" x="8" y="-160.5" font-family="Helvetica,sans-Serif" font-size="10.00">ft::irc::processor</text>
<text text-anchor="middle" x="49.5" y="-149.5" font-family="Helvetica,sans-Serif" font-size="10.00">_names::execute</text>
</a>
</g>
</g>
<!-- Node2 -->
<g id="node2" class="node">
<title>Node2</title>
<g id="a_node2"><a xlink:href="classft_1_1irc_1_1user.html#ae7ad74d915c3414aa58fd2fc92791539" target="_top" xlink:title=" ">
<polygon fill="white" stroke="black" points="155.5,-289.5 155.5,-319.5 268.5,-319.5 268.5,-289.5 155.5,-289.5"/>
<text text-anchor="start" x="163.5" y="-307.5" font-family="Helvetica,sans-Serif" font-size="10.00">ft::irc::user::channel</text>
<text text-anchor="middle" x="212" y="-296.5" font-family="Helvetica,sans-Serif" font-size="10.00">_names_snapshot</text>
</a>
</g>
</g>
<!-- Node1&#45;&gt;Node2 -->
<g id="edge1" class="edge">
<title>Node1&#45;&gt;Node2</title>
<path fill="none" stroke="midnightblue" d="M56.93,-172.79C68.63,-198.77 95.86,-251.52 135,-280.5 138.44,-283.05 142.16,-285.33 146.04,-287.37"/>
<polygon fill="midnightblue" stroke="midnightblue" points="144.79,-290.65 155.33,-291.72 147.76,-284.31 144.79,-290.65"/>
</g>
<!-- Node3 -->
<g id="node3" class="node">
<title>Node3</title>
<g id="a_node3"><a xlink:href="classft_1_1irc_1_1server.html#a0e7dee7efef3f36af15d1a3b97f3bad9" target="_top" xlink:title=" ">
<polygon fill="white" stroke="black" points="161,-240.5 161,-270.5 263,-270.5 263,-240.5 161,-240.5"/>
<text text-anchor="start" x="169" y="-258.5" font-family="Helvetica,sans-Serif" font-size="10.00">ft::irc::server::find</text>
<text text-anchor="middle" x="212" y="-247.5" font-family="Helvetica,sans-Serif" font-size="10.00">_channel</text>
</a>
</g>
</g>
<!-- Node1&#45;&gt;Node3 -->
<g id="edge2" class="edge">
<title>Node1&#45;&gt;Node3</title>
<path fill="none" stroke="midnightblue" d="M64.03,-172.62C79.63,-189.22 106.79,-215.63 135,-231.5 140.1,-234.37 145.59,-236.95 151.19,-239.25"/>
<polygon fill="midnightblue" stroke="midnightblue" points="150.11,-242.58 160.7,-242.86 152.6,-236.04 150.11,-242.58"/>
</g>
<!-- Node4 -->
<g id="node4" class="node">
<title>Node4</title>
<g id="a_node4"><a xlink:href="classft_1_1irc_1_1user.html#ae476cc31795df7fbb726b193ab887e75" target="_top" xlink:title=" ">
<polygon fill="white" stroke="black" points="167,-191.5 167,-221.5 257,-221.5 257,-191.5 167,-191.5"/>
<text text-anchor="start" x="175" y="-209.5" font-family="Helvetica,sans-Serif" font-size="10.00">ft::irc::user::get</text>
<text text-anchor="middle" x="212" y="-198.5" font-family="Helvetica,sans-Serif" font-size="10.00">_server</text>
</a>
</g>
</g>
<!-- Node1&#45;&gt;Node4 -->
<g id="edge3" class="edge">
<title>Node1&#45;&gt;Node4</title>
<path fill="none" stroke="midnightblue" d="M99.09,-172.33C117.48,-177.95 138.5,-184.37 157.33,-190.11"/>
<polygon fill="midnightblue" stroke="midnightblue" points="156.36,-193.48 166.95,-193.05 158.4,-186.78 156.36,-193.48"/>
</g>
<!-- Node5 -->
<g id="node5" class="node">
<title>Node5</title>
<g id="a_node5"><a xlink:href="structft_1_1irc_1_1string__utils.html#a38cd804a5b73843f0fd63a027dd0dee0" target="_top" xlink:title=" ">
<polygon fill="white" stroke="black" points="146.5,-142.5 146.5,-172.5 277.5,-172.5 277.5,-142.5 146.5,-142.5"/>
<text text-anchor="start" x="154.5" y="-160.5" font-family="Helvetica,sans-Serif" font-size="10.00">ft::irc::string_utils</text>
<text text-anchor="middle" x="212" y="-149.5" font-family="Helvetica,sans-Serif" font-size="10.00">::is_valid_channelname</text>
</a>
</g>
</g>
<!-- Node1&#45;&gt;Node5 -->
<g id="edge4" class="edge">
<title>Node1&#45;&gt;Node5</title>
<path fill="none" stroke="midnightblue" d="M99.09,-157.5C110.81,-157.5 123.61,-157.5 136.22,-157.5"/>
<polygon fill="midnightblue" stroke="midnightblue" points="136.27,-161 146.27,-157.5 136.27,-154 136.27,-161"/>
</g>
<!-- Node7 -->
<g id="node7" class="node">
<title>Node7</title>
<g id="a_node7"><a xlink:href="classft_1_1irc_1_1message.html#a34f457ead0453ad914af2cb0482a40b9" target="_top" xlink:title=" ">
<polygon fill="white" stroke="black" points="135,-104 135,-123 289,-123 289,-104 135,-104"/>
<text text-anchor="middle" x="212" y="-111" font-family="Helvetica,sans-Serif" font-size="10.00">ft::irc::message::param_size</text>
</a>
</g>
</g>
<!-- Node1&#45;&gt;Node7 -->
<g id="edge6" class="edge">
<title>Node1&#45;&gt;Node7</title>
<path fill="none" stroke="midnightblue" d="M99.16,-143.51C110.88,-140.18 123.38,-136.68 135,-133.5 144.47,-130.91 154.63,-128.19 164.34,-125.63"/>
<polygon fill="midnightblue" stroke="midnightblue" points="165.46,-128.95 174.24,-123.02 163.68,-122.18 165.46,-128.95"/>
</g>
<!-- Node8 -->
<g id="node8" class="node">
<title>Node8</title>
<g id="a_node8"><a xlink:href="classft_1_1irc_1_1channel.html#ae4c6f3dacebce2ccfecdc92cdd3e1174" target="_top" xlink:title=" ">
<polygon fill="white" stroke="black" points="154.5,-54.5 154.5,-84.5 269.5,-84.5 269.5,-54.5 154.5,-54.5"/>
<text text-anchor="start" x="162.5" y="-72.5" font-family="Helvetica,sans-Serif" font-size="10.00">ft::irc::channel::send</text>
<text text-anchor="middle" x="212" y="-61.5" font-family="Helvetica,sans-Serif" font-size="10.00">_names</text>
</a>
</g>
</g>
<!-- Node1&#45;&gt;Node8 -->
<g id="edge7" class="edge">
<title>Node1&#45;&gt;Node8</title>
<path fill="none" stroke="midnightblue" d="M67.2,-142.47C83.5,-128.44 109.51,-107.75 135,-94.5 139.24,-92.29 143.72,-90.23 148.29,-88.31"/>
<polygon fill="midnightblue" stroke="midnightblue" points="149.75,-91.5 157.76,-84.57 147.18,-84.99 149.75,-91.5"/>
</g>
<!-- Node12 -->
<g id="node12" class="node">
<title>Node12</title>
<g id="a_node12"><a xlink:href="classft_1_1irc_1_1message.html#adf434fdc28e74fb166c6046c0ac5c6d5" target="_top" xlink:title=" ">
<polygon fill="white" stroke="black" points="152.5,-16 152.5,-35 271.5,-35 271.5,-16 152.5,-16"/>
<text text-anchor="middle" x="212" y="-23" font-family="Helvetica,sans-Serif" font-size="10.00">ft::irc::message::split</text>
</a>
</g>
</g>
<!-- Node1&#45;&gt;Node12 -->
<g id="edge11" class="edge">
<title>Node1&#45;&gt;Node12</title>
<path fill="none" stroke="midnightblue" d="M57.76,-142.23C70.11,-117.91 97.58,-70.6 135,-45.5 138.73,-43 142.77,-40.8 146.96,-38.89"/>
<polygon fill="midnightblue" stroke="midnightblue" points="148.36,-42.09 156.33,-35.11 145.75,-35.6 148.36,-42.09"/>
</g>
<!-- Node6 -->
<g id="node6" class="node">
<title>Node6</title>
<g id="a_node6"><a xlink:href="namespaceft_1_1irc_1_1__internal.html#ac421a738f6d955bab8b862fca8bd7159" target="_top" xlink:title=" ">
<polygon fill="white" stroke="black" points="332,-147.5 332,-177.5 422,-177.5 422,-147.5 332,-147.5"/>
<text text-anchor="start" x="340" y="-165.5" font-family="Helvetica,sans-Serif" font-size="10.00">ft::irc::_internal</text>
<text text-anchor="middle" x="377" y="-154.5" font-family="Helvetica,sans-Serif" font-size="10.00">::_is_except</text>
</a>
</g>
</g>
<!-- Node5&#45;&gt;Node6 -->
<g id="edge5" class="edge">
<title>Node5&#45;&gt;Node6</title>
<path fill="none" stroke="midnightblue" d="M277.89,-159.49C292.46,-159.94 307.78,-160.41 321.86,-160.84"/>
<polygon fill="midnightblue" stroke="midnightblue" points="321.76,-164.34 331.87,-161.15 321.98,-157.34 321.76,-164.34"/>
</g>
<!-- Node9 -->
<g id="node9" class="node">
<title>Node9</title>
<g id="a_node9"><a xlink:href="structft_1_1irc_1_1make__reply.html#a62504faa310fedb0768c15ec641ea748" target="_top" xlink:title=" ">
<polygon fill="white" stroke="black" points="325,-98.5 325,-128.5 429,-128.5 429,-98.5 325,-98.5"/>
<text text-anchor="start" x="333" y="-116.5" font-family="Helvetica,sans-Serif" font-size="10.00">ft::irc::make_reply</text>
<text text-anchor="middle" x="377" y="-105.5" font-family="Helvetica,sans-Serif" font-size="10.00">::end_of_names</text>
</a>
</g>
</g>
<!-- Node8&#45;&gt;Node9 -->
<g id="edge8" class="edge">
<title>Node8&#45;&gt;Node9</title>
<path fill="none" stroke="midnightblue" d="M268.64,-84.52C283.62,-88.56 299.9,-92.96 315.15,-97.07"/>
<polygon fill="midnightblue" stroke="midnightblue" points="314.43,-100.5 324.99,-99.73 316.25,-93.75 314.43,-100.5"/>
</g>
<!-- Node10 -->
<g id="node10" class="node">
<title>Node10</title>
<g id="a_node10"><a xlink:href="structft_1_1irc_1_1make__reply.html#a0c90ffcad98b5d6e775cda7b8a4163fb" target="_top" xlink:title=" ">
<polygon fill="white" stroke="black" points="325,-49.5 325,-79.5 429,-79.5 429,-49.5 325,-49.5"/>
<text text-anchor="start" x="333" y="-67.5" font-family="Helvetica,sans-Serif" font-size="10.00">ft::irc::make_reply</text>
<text text-anchor="middle" x="377" y="-56.5" font-family="Helvetica,sans-Serif" font-size="10.00">::name_reply</text>
</a>
</g>
</g>
<!-- Node8&#45;&gt;Node10 -->
<g id="edge9" class="edge">
<title>Node8&#45;&gt;Node10</title>
<path fill="none" stroke="midnightblue" d="M269.55,-67.77C284.12,-67.32 299.87,-66.84 314.66,-66.38"/>
<polygon fill="midnightblue" stroke="midnightblue" points="314.84,-69.88 324.73,-66.07 314.63,-62.88 314.84,-69.88"/>
</g>
<!-- Node11 -->
<g id="node11" class="node">
<title>Node11</title>
<g id="a_node11"><a xlink:href="classft_1_1irc_1_1user.html#a1db558d6d694ca943224c2440fe36c50" target="_top" xlink:title=" ">
<polygon fill="white" stroke="black" points="328,-0.5 328,-30.5 426,-30.5 426,-0.5 328,-0.5"/>
<text text-anchor="start" x="336" y="-18.5" font-family="Helvetica,sans-Serif" font-size="10.00">ft::irc::user::send</text>
<text text-anchor="middle" x="377" y="-7.5" font-family="Helvetica,sans-Serif" font-size="10.00">_message</text>
</a>
</g>
</g>
<!-- Node8&#45;&gt;Node11 -->
<g id="edge10" class="edge">
<title>Node8&#45;&gt;Node11</title>
<path fill="none" stroke="midnightblue" d="M258.82,-54.46C268.78,-51.18 279.24,-47.73 289,-44.5 299.41,-41.05 310.53,-37.36 321.2,-33.8"/>
<polygon fill="midnightblue" stroke="midnightblue" points="322.48,-37.07 330.86,-30.59 320.26,-30.43 322.48,-37.07"/>
</g>
</g>
</svg>
