<?xml version="1.0" encoding="UTF-8" standalone="no"?>
<!DOCTYPE svg PUBLIC "-//W3C//DTD SVG 1.1//EN"
 "http://www.w3.org/Graphics/SVG/1.1/DTD/svg11.dtd">
<!-- Generated by graphviz version 2.43.0 (0)
 -->
<!-- Title: ft::irc::processor_join::execute Pages: 1 -->
<!--zoomable 832 -->
<svg id="main" version="1.1" xmlns="http://www.w3.org/2000/svg" xmlns:xlink="http://www.w3.org/1999/xlink" xml:space="preserve" onload="init(evt)">
<style type="text/css"><![CDATA[
.edge:hover path { stroke: red; }
.edge:hover polygon { stroke: red; fill: red; }
]]></style>
<script type="text/javascript"><![CDATA[
var edges = document.getElementsByTagName('g');
if (edges && edges.length) {
  for (var i=0;i<edges.length;i++) {
    if (edges[i].id.substr(0,4)=='edge') {
      edges[i].setAttribute('class','edge');
    }
  }
}
]]></script>
        <defs>
                <circle id="rim" cx="0" cy="0" r="7"/>
                <circle id="rim2" cx="0" cy="0" r="3.5"/>
                <g id="zoomPlus">
                        <use xlink:href="#rim" fill="#404040">
                                <set attributeName="fill" to="#808080" begin="zoomplus.mouseover" end="zoomplus.mouseout"/>
                        </use>
                        <path d="M-4,0h8M0,-4v8" fill="none" stroke="white" stroke-width="1.5" pointer-events="none"/>
                </g>
                <g id="zoomMin">
                        <use xlink:href="#rim" fill="#404040">
                                <set attributeName="fill" to="#808080" begin="zoomminus.mouseover" end="zoomminus.mouseout"/>
                        </use>
                        <path d="M-4,0h8" fill="none" stroke="white" stroke-width="1.5" pointer-events="none"/>
                </g>
                <g id="dirArrow">
                        <path fill="none" stroke="white" stroke-width="1.5" d="M0,-3.0v7 M-2.5,-0.5L0,-3.0L2.5,-0.5"/>
                </g>
               <g id="resetDef">
                       <use xlink:href="#rim2" fill="#404040">
                               <set attributeName="fill" to="#808080" begin="reset.mouseover" end="reset.mouseout"/>
                       </use>
               </g>
        </defs>

<script type="text/javascript">
var viewWidth = 433;
var viewHeight = 832;
var sectionId = 'dynsection-2';
</script>
<script xlink:href="svgpan.js"/>
<svg id="graph" class="graph">
<g id="viewport">
<title>ft::irc::processor_join::execute</title>
<polygon fill="white" stroke="transparent" points="-4,4 -4,-828 429,-828 429,4 -4,4"/>
<!-- Node1 -->
<g id="node1" class="node">
<title>Node1</title>
<g id="a_node1"><a xlink:title=" ">
<polygon fill="#bfbfbf" stroke="black" points="0,-396.5 0,-426.5 95,-426.5 95,-396.5 0,-396.5"/>
<text text-anchor="start" x="8" y="-414.5" font-family="Helvetica,sans-Serif" font-size="10.00">ft::irc::processor</text>
<text text-anchor="middle" x="47.5" y="-403.5" font-family="Helvetica,sans-Serif" font-size="10.00">_join::execute</text>
</a>
</g>
</g>
<!-- Node2 -->
<g id="node2" class="node">
<title>Node2</title>
<g id="a_node2"><a xlink:href="structft_1_1irc_1_1make__error.html#a86cfaaf2f57c77ec211b569b30a4322f" target="_top" xlink:title=" ">
<polygon fill="white" stroke="black" points="154.5,-793.5 154.5,-823.5 261.5,-823.5 261.5,-793.5 154.5,-793.5"/>
<text text-anchor="start" x="162.5" y="-811.5" font-family="Helvetica,sans-Serif" font-size="10.00">ft::irc::make_error</text>
<text text-anchor="middle" x="208" y="-800.5" font-family="Helvetica,sans-Serif" font-size="10.00">::bad_channel_key</text>
</a>
</g>
</g>
<!-- Node1&#45;&gt;Node2 -->
<g id="edge1" class="edge">
<title>Node1&#45;&gt;Node2</title>
<path fill="none" stroke="midnightblue" d="M49.85,-426.62C55.75,-489.58 81.29,-730.2 131,-784.5 135.01,-788.88 139.81,-792.47 145.03,-795.4"/>
<polygon fill="midnightblue" stroke="midnightblue" points="143.6,-798.6 154.13,-799.75 146.62,-792.28 143.6,-798.6"/>
</g>
<!-- Node3 -->
<g id="node3" class="node">
<title>Node3</title>
<g id="a_node3"><a xlink:href="structft_1_1irc_1_1make__error.html#a31a17f572a4ebafb6a40c1fbe972e679" target="_top" xlink:title=" ">
<polygon fill="white" stroke="black" points="142.5,-744.5 142.5,-774.5 273.5,-774.5 273.5,-744.5 142.5,-744.5"/>
<text text-anchor="start" x="150.5" y="-762.5" font-family="Helvetica,sans-Serif" font-size="10.00">ft::irc::make_error</text>
<text text-anchor="middle" x="208" y="-751.5" font-family="Helvetica,sans-Serif" font-size="10.00">::banned_from_channel</text>
</a>
</g>
</g>
<!-- Node1&#45;&gt;Node3 -->
<g id="edge2" class="edge">
<title>Node1&#45;&gt;Node3</title>
<path fill="none" stroke="midnightblue" d="M50.46,-426.89C58.12,-484.74 87.73,-688.2 131,-734.5 132.24,-735.83 133.55,-737.08 134.92,-738.27"/>
<polygon fill="midnightblue" stroke="midnightblue" points="133.21,-741.35 143.37,-744.38 137.31,-735.68 133.21,-741.35"/>
</g>
<!-- Node4 -->
<g id="node4" class="node">
<title>Node4</title>
<g id="a_node4"><a xlink:href="classft_1_1irc_1_1channel.html#ab1490dfbf6b3d9c13887c214200df7bf" target="_top" xlink:title=" ">
<polygon fill="white" stroke="black" points="138,-706 138,-725 278,-725 278,-706 138,-706"/>
<text text-anchor="middle" x="208" y="-713" font-family="Helvetica,sans-Serif" font-size="10.00">ft::irc::channel::broadcast</text>
</a>
</g>
</g>
<!-- Node1&#45;&gt;Node4 -->
<g id="edge3" class="edge">
<title>Node1&#45;&gt;Node4</title>
<path fill="none" stroke="midnightblue" d="M48.01,-426.81C47.37,-474.31 52.19,-620.54 131,-696.5 132.51,-697.95 134.1,-699.3 135.78,-700.54"/>
<polygon fill="midnightblue" stroke="midnightblue" points="134.36,-703.78 144.72,-705.99 138,-697.8 134.36,-703.78"/>
</g>
<!-- Node5 -->
<g id="node5" class="node">
<title>Node5</title>
<g id="a_node5"><a xlink:href="classft_1_1irc_1_1user.html#ad9cf185a314b035b4613b26495032c54" target="_top" xlink:title=" ">
<polygon fill="white" stroke="black" points="151.5,-656.5 151.5,-686.5 264.5,-686.5 264.5,-656.5 151.5,-656.5"/>
<text text-anchor="start" x="159.5" y="-674.5" font-family="Helvetica,sans-Serif" font-size="10.00">ft::irc::user::channel</text>
<text text-anchor="middle" x="208" y="-663.5" font-family="Helvetica,sans-Serif" font-size="10.00">_count</text>
</a>
</g>
</g>
<!-- Node1&#45;&gt;Node5 -->
<g id="edge4" class="edge">
<title>Node1&#45;&gt;Node5</title>
<path fill="none" stroke="midnightblue" d="M49.28,-426.65C52.24,-468.13 66.2,-584.64 131,-647.5 134.33,-650.73 138.09,-653.53 142.11,-655.95"/>
<polygon fill="midnightblue" stroke="midnightblue" points="140.78,-659.2 151.27,-660.67 143.99,-652.97 140.78,-659.2"/>
</g>
<!-- Node6 -->
<g id="node6" class="node">
<title>Node6</title>
<g id="a_node6"><a xlink:href="structft_1_1irc_1_1make__error.html#a457e9a19162dbe3c7ce8f388eb7df256" target="_top" xlink:title=" ">
<polygon fill="white" stroke="black" points="156.5,-607.5 156.5,-637.5 259.5,-637.5 259.5,-607.5 156.5,-607.5"/>
<text text-anchor="start" x="164.5" y="-625.5" font-family="Helvetica,sans-Serif" font-size="10.00">ft::irc::make_error</text>
<text text-anchor="middle" x="208" y="-614.5" font-family="Helvetica,sans-Serif" font-size="10.00">::channel_is_full</text>
</a>
</g>
</g>
<!-- Node1&#45;&gt;Node6 -->
<g id="edge5" class="edge">
<title>Node1&#45;&gt;Node6</title>
<path fill="none" stroke="midnightblue" d="M50.84,-426.57C57.11,-461.89 77.62,-550.67 131,-598.5 135.73,-602.74 141.22,-606.23 147.03,-609.11"/>
<polygon fill="midnightblue" stroke="midnightblue" points="145.8,-612.39 156.36,-613.14 148.57,-605.96 145.8,-612.39"/>
</g>
<!-- Node7 -->
<g id="node7" class="node">
<title>Node7</title>
<g id="a_node7"><a xlink:href="classft_1_1irc_1_1server.html#a5cfa990dde96357ed1af1e1e1b0e4f7d" target="_top" xlink:title=" ">
<polygon fill="white" stroke="black" points="149.5,-558.5 149.5,-588.5 266.5,-588.5 266.5,-558.5 149.5,-558.5"/>
<text text-anchor="start" x="157.5" y="-576.5" font-family="Helvetica,sans-Serif" font-size="10.00">ft::irc::server::ensure</text>
<text text-anchor="middle" x="208" y="-565.5" font-family="Helvetica,sans-Serif" font-size="10.00">_channel</text>
</a>
</g>
</g>
<!-- Node1&#45;&gt;Node7 -->
<g id="edge6" class="edge">
<title>Node1&#45;&gt;Node7</title>
<path fill="none" stroke="midnightblue" d="M53.58,-426.67C63.76,-454.82 89.33,-515.26 131,-548.5 133.88,-550.8 136.99,-552.89 140.24,-554.8"/>
<polygon fill="midnightblue" stroke="midnightblue" points="138.62,-557.9 149.11,-559.4 141.85,-551.69 138.62,-557.9"/>
</g>
<!-- Node8 -->
<g id="node8" class="node">
<title>Node8</title>
<g id="a_node8"><a xlink:href="classft_1_1irc_1_1channel.html#a0eb614161a17c1778de2b2443ea922e5" target="_top" xlink:title=" ">
<polygon fill="white" stroke="black" points="136.5,-520 136.5,-539 279.5,-539 279.5,-520 136.5,-520"/>
<text text-anchor="middle" x="208" y="-527" font-family="Helvetica,sans-Serif" font-size="10.00">ft::irc::channel::enter_user</text>
</a>
</g>
</g>
<!-- Node1&#45;&gt;Node8 -->
<g id="edge7" class="edge">
<title>Node1&#45;&gt;Node8</title>
<path fill="none" stroke="midnightblue" d="M56.98,-426.83C69.96,-448.84 96.89,-489.09 131,-510.5 134.4,-512.64 138.03,-514.53 141.79,-516.21"/>
<polygon fill="midnightblue" stroke="midnightblue" points="140.75,-519.57 151.34,-519.97 143.31,-513.05 140.75,-519.57"/>
</g>
<!-- Node10 -->
<g id="node10" class="node">
<title>Node10</title>
<g id="a_node10"><a xlink:href="classft_1_1irc_1_1user.html#ae476cc31795df7fbb726b193ab887e75" target="_top" xlink:title=" ">
<polygon fill="white" stroke="black" points="163,-470.5 163,-500.5 253,-500.5 253,-470.5 163,-470.5"/>
<text text-anchor="start" x="171" y="-488.5" font-family="Helvetica,sans-Serif" font-size="10.00">ft::irc::user::get</text>
<text text-anchor="middle" x="208" y="-477.5" font-family="Helvetica,sans-Serif" font-size="10.00">_server</text>
</a>
</g>
</g>
<!-- Node1&#45;&gt;Node10 -->
<g id="edge9" class="edge">
<title>Node1&#45;&gt;Node10</title>
<path fill="none" stroke="midnightblue" d="M70.12,-426.58C86.32,-437.38 109.34,-451.69 131,-461.5 138.09,-464.71 145.73,-467.67 153.34,-470.33"/>
<polygon fill="midnightblue" stroke="midnightblue" points="152.33,-473.68 162.92,-473.54 154.55,-467.05 152.33,-473.68"/>
</g>
<!-- Node11 -->
<g id="node11" class="node">
<title>Node11</title>
<g id="a_node11"><a xlink:href="structft_1_1irc_1_1make__error.html#a940c40574d12fc35b96c673f5084dd38" target="_top" xlink:title=" ">
<polygon fill="white" stroke="black" points="148,-421.5 148,-451.5 268,-451.5 268,-421.5 148,-421.5"/>
<text text-anchor="start" x="156" y="-439.5" font-family="Helvetica,sans-Serif" font-size="10.00">ft::irc::make_error</text>
<text text-anchor="middle" x="208" y="-428.5" font-family="Helvetica,sans-Serif" font-size="10.00">::invite_only_channel</text>
</a>
</g>
</g>
<!-- Node1&#45;&gt;Node11 -->
<g id="edge10" class="edge">
<title>Node1&#45;&gt;Node11</title>
<path fill="none" stroke="midnightblue" d="M95.2,-418.87C108.63,-420.98 123.57,-423.34 138.04,-425.62"/>
<polygon fill="midnightblue" stroke="midnightblue" points="137.54,-429.09 147.96,-427.19 138.63,-422.17 137.54,-429.09"/>
</g>
<!-- Node12 -->
<g id="node12" class="node">
<title>Node12</title>
<g id="a_node12"><a xlink:href="classft_1_1irc_1_1user.html#a43fb91fff5e13afd67f9e642137eca40" target="_top" xlink:title=" ">
<polygon fill="white" stroke="black" points="145,-372.5 145,-402.5 271,-402.5 271,-372.5 145,-372.5"/>
<text text-anchor="start" x="153" y="-390.5" font-family="Helvetica,sans-Serif" font-size="10.00">ft::irc::user::is_channel</text>
<text text-anchor="middle" x="208" y="-379.5" font-family="Helvetica,sans-Serif" font-size="10.00">_member</text>
</a>
</g>
</g>
<!-- Node1&#45;&gt;Node12 -->
<g id="edge11" class="edge">
<title>Node1&#45;&gt;Node12</title>
<path fill="none" stroke="midnightblue" d="M95.2,-404.43C107.57,-402.56 121.22,-400.49 134.61,-398.46"/>
<polygon fill="midnightblue" stroke="midnightblue" points="135.41,-401.88 144.77,-396.92 134.36,-394.96 135.41,-401.88"/>
</g>
<!-- Node13 -->
<g id="node13" class="node">
<title>Node13</title>
<g id="a_node13"><a xlink:href="structft_1_1irc_1_1string__utils.html#a38cd804a5b73843f0fd63a027dd0dee0" target="_top" xlink:title=" ">
<polygon fill="white" stroke="black" points="142.5,-323.5 142.5,-353.5 273.5,-353.5 273.5,-323.5 142.5,-323.5"/>
<text text-anchor="start" x="150.5" y="-341.5" font-family="Helvetica,sans-Serif" font-size="10.00">ft::irc::string_utils</text>
<text text-anchor="middle" x="208" y="-330.5" font-family="Helvetica,sans-Serif" font-size="10.00">::is_valid_channelname</text>
</a>
</g>
</g>
<!-- Node1&#45;&gt;Node13 -->
<g id="edge12" class="edge">
<title>Node1&#45;&gt;Node13</title>
<path fill="none" stroke="midnightblue" d="M70.85,-396.3C87.04,-385.79 109.71,-372.03 131,-362.5 135.16,-360.64 139.51,-358.86 143.93,-357.17"/>
<polygon fill="midnightblue" stroke="midnightblue" points="145.48,-360.33 153.67,-353.62 143.08,-353.75 145.48,-360.33"/>
</g>
<!-- Node15 -->
<g id="node15" class="node">
<title>Node15</title>
<g id="a_node15"><a xlink:href="classft_1_1irc_1_1user.html#af78a2901a6ffa0a6b2cbfc8a8e83bcaf" target="_top" xlink:title=" ">
<polygon fill="white" stroke="black" points="162,-274.5 162,-304.5 254,-304.5 254,-274.5 162,-274.5"/>
<text text-anchor="start" x="170" y="-292.5" font-family="Helvetica,sans-Serif" font-size="10.00">ft::irc::user::join</text>
<text text-anchor="middle" x="208" y="-281.5" font-family="Helvetica,sans-Serif" font-size="10.00">_channel</text>
</a>
</g>
</g>
<!-- Node1&#45;&gt;Node15 -->
<g id="edge14" class="edge">
<title>Node1&#45;&gt;Node15</title>
<path fill="none" stroke="midnightblue" d="M57.41,-396.23C70.75,-374.71 97.89,-335.6 131,-313.5 137.47,-309.18 144.77,-305.6 152.22,-302.64"/>
<polygon fill="midnightblue" stroke="midnightblue" points="153.47,-305.91 161.68,-299.22 151.09,-299.33 153.47,-305.91"/>
</g>
<!-- Node16 -->
<g id="node16" class="node">
<title>Node16</title>
<g id="a_node16"><a xlink:href="structft_1_1irc_1_1make__error.html#a8ad003c713b8ee5ebbf4691dd2be83fe" target="_top" xlink:title=" ">
<polygon fill="white" stroke="black" points="155,-225.5 155,-255.5 261,-255.5 261,-225.5 155,-225.5"/>
<text text-anchor="start" x="163" y="-243.5" font-family="Helvetica,sans-Serif" font-size="10.00">ft::irc::make_error</text>
<text text-anchor="middle" x="208" y="-232.5" font-family="Helvetica,sans-Serif" font-size="10.00">::no_such_channel</text>
</a>
</g>
</g>
<!-- Node1&#45;&gt;Node16 -->
<g id="edge15" class="edge">
<title>Node1&#45;&gt;Node16</title>
<path fill="none" stroke="midnightblue" d="M52.92,-396.11C62.28,-366.27 86.95,-300.32 131,-264.5 135.36,-260.95 140.25,-257.93 145.4,-255.35"/>
<polygon fill="midnightblue" stroke="midnightblue" points="147.13,-258.41 154.86,-251.17 144.3,-252.01 147.13,-258.41"/>
</g>
<!-- Node17 -->
<g id="node17" class="node">
<title>Node17</title>
<g id="a_node17"><a xlink:href="classft_1_1irc_1_1message.html#a34f457ead0453ad914af2cb0482a40b9" target="_top" xlink:title=" ">
<polygon fill="white" stroke="black" points="131,-187 131,-206 285,-206 285,-187 131,-187"/>
<text text-anchor="middle" x="208" y="-194" font-family="Helvetica,sans-Serif" font-size="10.00">ft::irc::message::param_size</text>
</a>
</g>
</g>
<!-- Node1&#45;&gt;Node17 -->
<g id="edge16" class="edge">
<title>Node1&#45;&gt;Node17</title>
<path fill="none" stroke="midnightblue" d="M50.29,-396.32C55.47,-359.41 73.96,-264.4 131,-215.5 132.8,-213.95 134.72,-212.53 136.71,-211.22"/>
<polygon fill="midnightblue" stroke="midnightblue" points="138.85,-214.04 145.93,-206.17 135.48,-207.9 138.85,-214.04"/>
</g>
<!-- Node18 -->
<g id="node18" class="node">
<title>Node18</title>
<g id="a_node18"><a xlink:href="structft_1_1irc_1_1make__reply.html#a5bc514d5b05cc15d799aba1944a18386" target="_top" xlink:title=" ">
<polygon fill="white" stroke="black" points="156,-137.5 156,-167.5 260,-167.5 260,-137.5 156,-137.5"/>
<text text-anchor="start" x="164" y="-155.5" font-family="Helvetica,sans-Serif" font-size="10.00">ft::irc::make_reply</text>
<text text-anchor="middle" x="208" y="-144.5" font-family="Helvetica,sans-Serif" font-size="10.00">::replicate</text>
</a>
</g>
</g>
<!-- Node1&#45;&gt;Node18 -->
<g id="edge17" class="edge">
<title>Node1&#45;&gt;Node18</title>
<path fill="none" stroke="midnightblue" d="M49.38,-396.22C52.6,-354.93 67.13,-240.03 131,-177.5 135.56,-173.04 140.93,-169.37 146.67,-166.36"/>
<polygon fill="midnightblue" stroke="midnightblue" points="148.29,-169.47 155.94,-162.14 145.39,-163.1 148.29,-169.47"/>
</g>
<!-- Node19 -->
<g id="node19" class="node">
<title>Node19</title>
<g id="a_node19"><a xlink:href="classft_1_1irc_1_1user.html#a1db558d6d694ca943224c2440fe36c50" target="_top" xlink:title=" ">
<polygon fill="white" stroke="black" points="159,-88.5 159,-118.5 257,-118.5 257,-88.5 159,-88.5"/>
<text text-anchor="start" x="167" y="-106.5" font-family="Helvetica,sans-Serif" font-size="10.00">ft::irc::user::send</text>
<text text-anchor="middle" x="208" y="-95.5" font-family="Helvetica,sans-Serif" font-size="10.00">_message</text>
</a>
</g>
</g>
<!-- Node1&#45;&gt;Node19 -->
<g id="edge18" class="edge">
<title>Node1&#45;&gt;Node19</title>
<path fill="none" stroke="midnightblue" d="M48.23,-396.45C48.24,-349.71 54.75,-205.54 131,-127.5 136.19,-122.19 142.53,-118.06 149.33,-114.83"/>
<polygon fill="midnightblue" stroke="midnightblue" points="150.86,-117.99 158.81,-110.98 148.22,-111.5 150.86,-117.99"/>
</g>
<!-- Node20 -->
<g id="node20" class="node">
<title>Node20</title>
<g id="a_node20"><a xlink:href="classft_1_1irc_1_1message.html#adf434fdc28e74fb166c6046c0ac5c6d5" target="_top" xlink:title=" ">
<polygon fill="white" stroke="black" points="148.5,-50 148.5,-69 267.5,-69 267.5,-50 148.5,-50"/>
<text text-anchor="middle" x="208" y="-57" font-family="Helvetica,sans-Serif" font-size="10.00">ft::irc::message::split</text>
</a>
</g>
</g>
<!-- Node1&#45;&gt;Node20 -->
<g id="edge19" class="edge">
<title>Node1&#45;&gt;Node20</title>
<path fill="none" stroke="midnightblue" d="M50.19,-396.35C57.06,-337.47 84.72,-124.88 131,-78.5 133.53,-75.97 136.34,-73.76 139.34,-71.82"/>
<polygon fill="midnightblue" stroke="midnightblue" points="141.08,-74.87 148.27,-67.09 137.8,-68.68 141.08,-74.87"/>
</g>
<!-- Node21 -->
<g id="node21" class="node">
<title>Node21</title>
<g id="a_node21"><a xlink:href="structft_1_1irc_1_1make__error.html#af6a6f095493c0242bce7ecac3463753b" target="_top" xlink:title=" ">
<polygon fill="white" stroke="black" points="148,-0.5 148,-30.5 268,-30.5 268,-0.5 148,-0.5"/>
<text text-anchor="start" x="156" y="-18.5" font-family="Helvetica,sans-Serif" font-size="10.00">ft::irc::make_error</text>
<text text-anchor="middle" x="208" y="-7.5" font-family="Helvetica,sans-Serif" font-size="10.00">::too_many_channels</text>
</a>
</g>
</g>
<!-- Node1&#45;&gt;Node21 -->
<g id="edge20" class="edge">
<title>Node1&#45;&gt;Node21</title>
<path fill="none" stroke="midnightblue" d="M49.88,-396.48C55.9,-333.92 81.84,-94.79 131,-40.5 133.53,-37.71 136.37,-35.23 139.43,-33.03"/>
<polygon fill="midnightblue" stroke="midnightblue" points="141.27,-36.01 147.99,-27.82 137.63,-30.03 141.27,-36.01"/>
</g>
<!-- Node9 -->
<g id="node9" class="node">
<title>Node9</title>
<g id="a_node9"><a xlink:href="structft_1_1irc_1_1make__reply.html#a39ce3be333c36d7d0ce54cfc7ef59451" target="_top" xlink:title=" ">
<polygon fill="white" stroke="black" points="321,-514.5 321,-544.5 425,-544.5 425,-514.5 321,-514.5"/>
<text text-anchor="start" x="329" y="-532.5" font-family="Helvetica,sans-Serif" font-size="10.00">ft::irc::make_reply</text>
<text text-anchor="middle" x="373" y="-521.5" font-family="Helvetica,sans-Serif" font-size="10.00">::topic</text>
</a>
</g>
</g>
<!-- Node8&#45;&gt;Node9 -->
<g id="edge8" class="edge">
<title>Node8&#45;&gt;Node9</title>
<path fill="none" stroke="midnightblue" d="M279.55,-529.5C290,-529.5 300.7,-529.5 310.94,-529.5"/>
<polygon fill="midnightblue" stroke="midnightblue" points="311,-533 321,-529.5 311,-526 311,-533"/>
</g>
<!-- Node14 -->
<g id="node14" class="node">
<title>Node14</title>
<g id="a_node14"><a xlink:href="namespaceft_1_1irc_1_1__internal.html#ac421a738f6d955bab8b862fca8bd7159" target="_top" xlink:title=" ">
<polygon fill="white" stroke="black" points="328,-323.5 328,-353.5 418,-353.5 418,-323.5 328,-323.5"/>
<text text-anchor="start" x="336" y="-341.5" font-family="Helvetica,sans-Serif" font-size="10.00">ft::irc::_internal</text>
<text text-anchor="middle" x="373" y="-330.5" font-family="Helvetica,sans-Serif" font-size="10.00">::_is_except</text>
</a>
</g>
</g>
<!-- Node13&#45;&gt;Node14 -->
<g id="edge13" class="edge">
<title>Node13&#45;&gt;Node14</title>
<path fill="none" stroke="midnightblue" d="M273.89,-338.5C288.46,-338.5 303.78,-338.5 317.86,-338.5"/>
<polygon fill="midnightblue" stroke="midnightblue" points="317.87,-342 327.87,-338.5 317.87,-335 317.87,-342"/>
</g>
</g>
</svg>
        <g id="navigator" transform="translate(0 0)" fill="#404254">
                <rect fill="#f2f5e9" fill-opacity="0.5" stroke="#606060" stroke-width=".5" x="0" y="0" width="60" height="60"/>
                <use id="zoomplus" xlink:href="#zoomPlus" x="17" y="9" onmousedown="handleZoom(evt,'in')"/>
                <use id="zoomminus" xlink:href="#zoomMin" x="42" y="9" onmousedown="handleZoom(evt,'out')"/>
                <use id="reset" xlink:href="#resetDef" x="30" y="36" onmousedown="handleReset()"/>
                <g id="arrowUp" xlink:href="#dirArrow" transform="translate(30 24)" onmousedown="handlePan(0,-1)">
                  <use xlink:href="#rim" fill="#404040">
                        <set attributeName="fill" to="#808080" begin="arrowUp.mouseover" end="arrowUp.mouseout"/>
                  </use>
                  <path fill="none" stroke="white" stroke-width="1.5" d="M0,-3.0v7 M-2.5,-0.5L0,-3.0L2.5,-0.5"/>
                </g>
                <g id="arrowRight" xlink:href="#dirArrow" transform="rotate(90) translate(36 -43)" onmousedown="handlePan(1,0)">
                  <use xlink:href="#rim" fill="#404040">
                        <set attributeName="fill" to="#808080" begin="arrowRight.mouseover" end="arrowRight.mouseout"/>
                  </use>
                  <path fill="none" stroke="white" stroke-width="1.5" d="M0,-3.0v7 M-2.5,-0.5L0,-3.0L2.5,-0.5"/>
                </g>
                <g id="arrowDown" xlink:href="#dirArrow" transform="rotate(180) translate(-30 -48)" onmousedown="handlePan(0,1)">
                  <use xlink:href="#rim" fill="#404040">
                        <set attributeName="fill" to="#808080" begin="arrowDown.mouseover" end="arrowDown.mouseout"/>
                  </use>
                  <path fill="none" stroke="white" stroke-width="1.5" d="M0,-3.0v7 M-2.5,-0.5L0,-3.0L2.5,-0.5"/>
                </g>
                <g id="arrowLeft" xlink:href="#dirArrow" transform="rotate(270) translate(-36 17)" onmousedown="handlePan(-1,0)">
                  <use xlink:href="#rim" fill="#404040">
                        <set attributeName="fill" to="#808080" begin="arrowLeft.mouseover" end="arrowLeft.mouseout"/>
                  </use>
                  <path fill="none" stroke="white" stroke-width="1.5" d="M0,-3.0v7 M-2.5,-0.5L0,-3.0L2.5,-0.5"/>
                </g>
        </g>
        <svg viewBox="0 0 15 15" width="100%" height="30px" preserveAspectRatio="xMaxYMin meet">
         <g id="arrow_out" transform="scale(0.3 0.3)">
          <a xlink:href="classft_1_1irc_1_1processor__join_a7005b0403c1e6e10aa6f6f05339df357_cgraph_org.svg" target="_base">
           <rect id="button" ry="5" rx="5" y="6" x="6" height="38" width="38"
                fill="#f2f5e9" fill-opacity="0.5" stroke="#606060" stroke-width="1.0"/>
           <path id="arrow"
             d="M 11.500037,31.436501 C 11.940474,20.09759 22.043105,11.32322 32.158766,21.979434 L 37.068811,17.246167 C 37.068811,17.246167 37.088388,32 37.088388,32 L 22.160133,31.978069 C 22.160133,31.978069 26.997745,27.140456 26.997745,27.140456 C 18.528582,18.264221 13.291696,25.230495 11.500037,31.436501 z"
             style="fill:#404040;"/>
          </a>
         </g>
        </svg>
</svg>
