<?xml version="1.0" encoding="UTF-8" standalone="no"?>
<!DOCTYPE svg PUBLIC "-//W3C//DTD SVG 1.1//EN"
 "http://www.w3.org/Graphics/SVG/1.1/DTD/svg11.dtd">
<!-- Generated by graphviz version 2.43.0 (0)
 -->
<!-- Title: ft::irc::processor_base Pages: 1 -->
<!--zoomable 908 -->
<svg id="main" version="1.1" xmlns="http://www.w3.org/2000/svg" xmlns:xlink="http://www.w3.org/1999/xlink" xml:space="preserve" onload="init(evt)">
<style type="text/css"><![CDATA[
.edge:hover path { stroke: red; }
.edge:hover polygon { stroke: red; fill: red; }
]]></style>
<script type="text/javascript"><![CDATA[
var edges = document.getElementsByTagName('g');
if (edges && edges.length) {
  for (var i=0;i<edges.length;i++) {
    if (edges[i].id.substr(0,4)=='edge') {
      edges[i].setAttribute('class','edge');
    }
  }
}
]]></script>
        <defs>
                <circle id="rim" cx="0" cy="0" r="7"/>
                <circle id="rim2" cx="0" cy="0" r="3.5"/>
                <g id="zoomPlus">
                        <use xlink:href="#rim" fill="#404040">
                                <set attributeName="fill" to="#808080" begin="zoomplus.mouseover" end="zoomplus.mouseout"/>
                        </use>
                        <path d="M-4,0h8M0,-4v8" fill="none" stroke="white" stroke-width="1.5" pointer-events="none"/>
                </g>
                <g id="zoomMin">
                        <use xlink:href="#rim" fill="#404040">
                                <set attributeName="fill" to="#808080" begin="zoomminus.mouseover" end="zoomminus.mouseout"/>
                        </use>
                        <path d="M-4,0h8" fill="none" stroke="white" stroke-width="1.5" pointer-events="none"/>
                </g>
                <g id="dirArrow">
                        <path fill="none" stroke="white" stroke-width="1.5" d="M0,-3.0v7 M-2.5,-0.5L0,-3.0L2.5,-0.5"/>
                </g>
               <g id="resetDef">
                       <use xlink:href="#rim2" fill="#404040">
                               <set attributeName="fill" to="#808080" begin="reset.mouseover" end="reset.mouseout"/>
                       </use>
               </g>
        </defs>

<script type="text/javascript">
var viewWidth = 426;
var viewHeight = 908;
var sectionId = 'dynsection-0';
</script>
<script xlink:href="svgpan.js"/>
<svg id="graph" class="graph">
<g id="viewport">
<title>ft::irc::processor_base</title>
<polygon fill="white" stroke="transparent" points="-4,4 -4,-903.5 422,-903.5 422,4 -4,4"/>
<!-- Node1 -->
<g id="node1" class="node">
<title>Node1</title>
<g id="a_node1"><a xlink:title=" ">
<polygon fill="#bfbfbf" stroke="black" points="0,-434 0,-453 123,-453 123,-434 0,-434"/>
<text text-anchor="middle" x="61.5" y="-441" font-family="Helvetica,sans-Serif" font-size="10.00">ft::irc::processor_base</text>
</a>
</g>
</g>
<!-- Node2 -->
<g id="node2" class="node">
<title>Node2</title>
<g id="a_node2"><a xlink:href="classft_1_1irc_1_1processor__away.html" target="_top" xlink:title=" ">
<polygon fill="white" stroke="black" points="160,-880 160,-899 286,-899 286,-880 160,-880"/>
<text text-anchor="middle" x="223" y="-887" font-family="Helvetica,sans-Serif" font-size="10.00">ft::irc::processor_away</text>
</a>
</g>
</g>
<!-- Node1&#45;&gt;Node2 -->
<g id="edge1" class="edge">
<title>Node1&#45;&gt;Node2</title>
<path fill="none" stroke="midnightblue" d="M64.34,-463.12C71.78,-538.64 102.08,-809.41 159,-870.5 162.58,-874.34 166.91,-877.42 171.6,-879.88"/>
<polygon fill="midnightblue" stroke="midnightblue" points="67.81,-462.7 63.37,-453.08 60.84,-463.37 67.81,-462.7"/>
</g>
<!-- Node3 -->
<g id="node3" class="node">
<title>Node3</title>
<g id="a_node3"><a xlink:href="classft_1_1irc_1_1processor__error.html" target="_top" xlink:title=" ">
<polygon fill="white" stroke="black" points="175.5,-830.5 175.5,-860.5 270.5,-860.5 270.5,-830.5 175.5,-830.5"/>
<text text-anchor="start" x="183.5" y="-848.5" font-family="Helvetica,sans-Serif" font-size="10.00">ft::irc::processor</text>
<text text-anchor="middle" x="223" y="-837.5" font-family="Helvetica,sans-Serif" font-size="10.00">_error</text>
</a>
</g>
</g>
<!-- Node1&#45;&gt;Node3 -->
<g id="edge2" class="edge">
<title>Node1&#45;&gt;Node3</title>
<path fill="none" stroke="midnightblue" d="M65.14,-463.4C74.78,-533.35 110.1,-766.68 159,-821.5 163.52,-826.57 169.22,-830.57 175.35,-833.73"/>
<polygon fill="midnightblue" stroke="midnightblue" points="68.58,-462.74 63.77,-453.3 61.65,-463.68 68.58,-462.74"/>
</g>
<!-- Node4 -->
<g id="node4" class="node">
<title>Node4</title>
<g id="a_node4"><a xlink:href="classft_1_1irc_1_1processor__invite.html" target="_top" xlink:title=" ">
<polygon fill="white" stroke="black" points="175.5,-781.5 175.5,-811.5 270.5,-811.5 270.5,-781.5 175.5,-781.5"/>
<text text-anchor="start" x="183.5" y="-799.5" font-family="Helvetica,sans-Serif" font-size="10.00">ft::irc::processor</text>
<text text-anchor="middle" x="223" y="-788.5" font-family="Helvetica,sans-Serif" font-size="10.00">_invite</text>
</a>
</g>
</g>
<!-- Node1&#45;&gt;Node4 -->
<g id="edge3" class="edge">
<title>Node1&#45;&gt;Node4</title>
<path fill="none" stroke="midnightblue" d="M62.62,-463.62C64.02,-519.75 75.52,-680 159,-771.5 163.6,-776.54 169.35,-780.58 175.49,-783.82"/>
<polygon fill="midnightblue" stroke="midnightblue" points="66.11,-463.22 62.45,-453.28 59.11,-463.33 66.11,-463.22"/>
</g>
<!-- Node5 -->
<g id="node5" class="node">
<title>Node5</title>
<g id="a_node5"><a xlink:href="classft_1_1irc_1_1processor__join.html" target="_top" xlink:title=" ">
<polygon fill="white" stroke="black" points="164,-743 164,-762 282,-762 282,-743 164,-743"/>
<text text-anchor="middle" x="223" y="-750" font-family="Helvetica,sans-Serif" font-size="10.00">ft::irc::processor_join</text>
</a>
</g>
</g>
<!-- Node1&#45;&gt;Node5 -->
<g id="edge4" class="edge">
<title>Node1&#45;&gt;Node5</title>
<path fill="none" stroke="midnightblue" d="M63.12,-463.35C65.84,-515.42 80.47,-657.17 159,-733.5 163.01,-737.4 167.8,-740.51 172.91,-742.98"/>
<polygon fill="midnightblue" stroke="midnightblue" points="66.61,-462.98 62.68,-453.14 59.61,-463.28 66.61,-462.98"/>
</g>
<!-- Node6 -->
<g id="node6" class="node">
<title>Node6</title>
<g id="a_node6"><a xlink:href="classft_1_1irc_1_1processor__kick.html" target="_top" xlink:title=" ">
<polygon fill="white" stroke="black" points="163,-705 163,-724 283,-724 283,-705 163,-705"/>
<text text-anchor="middle" x="223" y="-712" font-family="Helvetica,sans-Serif" font-size="10.00">ft::irc::processor_kick</text>
</a>
</g>
</g>
<!-- Node1&#45;&gt;Node6 -->
<g id="edge5" class="edge">
<title>Node1&#45;&gt;Node6</title>
<path fill="none" stroke="midnightblue" d="M64.26,-463.26C69.52,-510.49 89.43,-630.81 159,-695.5 163.18,-699.39 168.14,-702.48 173.4,-704.95"/>
<polygon fill="midnightblue" stroke="midnightblue" points="67.72,-462.73 63.23,-453.14 60.76,-463.44 67.72,-462.73"/>
</g>
<!-- Node7 -->
<g id="node7" class="node">
<title>Node7</title>
<g id="a_node7"><a xlink:href="classft_1_1irc_1_1processor__kill.html" target="_top" xlink:title=" ">
<polygon fill="white" stroke="black" points="165.5,-667 165.5,-686 280.5,-686 280.5,-667 165.5,-667"/>
<text text-anchor="middle" x="223" y="-674" font-family="Helvetica,sans-Serif" font-size="10.00">ft::irc::processor_kill</text>
</a>
</g>
</g>
<!-- Node1&#45;&gt;Node7 -->
<g id="edge6" class="edge">
<title>Node1&#45;&gt;Node7</title>
<path fill="none" stroke="midnightblue" d="M65.79,-463.37C73.82,-505.51 98.38,-604.33 159,-657.5 163.47,-661.42 168.72,-664.53 174.25,-667"/>
<polygon fill="midnightblue" stroke="midnightblue" points="69.19,-462.52 63.98,-453.29 62.3,-463.75 69.19,-462.52"/>
</g>
<!-- Node8 -->
<g id="node8" class="node">
<title>Node8</title>
<g id="a_node8"><a xlink:href="classft_1_1irc_1_1processor__list.html" target="_top" xlink:title=" ">
<polygon fill="white" stroke="black" points="165.5,-629 165.5,-648 280.5,-648 280.5,-629 165.5,-629"/>
<text text-anchor="middle" x="223" y="-636" font-family="Helvetica,sans-Serif" font-size="10.00">ft::irc::processor_list</text>
</a>
</g>
</g>
<!-- Node1&#45;&gt;Node8 -->
<g id="edge7" class="edge">
<title>Node1&#45;&gt;Node8</title>
<path fill="none" stroke="midnightblue" d="M67.9,-462.85C78.93,-498.83 107.47,-576.22 159,-618.5 164.32,-622.87 170.61,-626.29 177.12,-628.96"/>
<polygon fill="midnightblue" stroke="midnightblue" points="71.21,-461.7 65.03,-453.1 64.5,-463.68 71.21,-461.7"/>
</g>
<!-- Node9 -->
<g id="node9" class="node">
<title>Node9</title>
<g id="a_node9"><a xlink:href="classft_1_1irc_1_1processor__message__base.html" target="_top" xlink:title=" ">
<polygon fill="white" stroke="black" points="175.5,-579.5 175.5,-609.5 270.5,-609.5 270.5,-579.5 175.5,-579.5"/>
<text text-anchor="start" x="183.5" y="-597.5" font-family="Helvetica,sans-Serif" font-size="10.00">ft::irc::processor</text>
<text text-anchor="middle" x="223" y="-586.5" font-family="Helvetica,sans-Serif" font-size="10.00">_message_base</text>
</a>
</g>
</g>
<!-- Node1&#45;&gt;Node9 -->
<g id="edge8" class="edge">
<title>Node1&#45;&gt;Node9</title>
<path fill="none" stroke="midnightblue" d="M72.3,-461.95C87.52,-489 119.27,-539.45 159,-569.5 163.97,-573.26 169.59,-576.54 175.37,-579.37"/>
<polygon fill="midnightblue" stroke="midnightblue" points="75.34,-460.21 67.46,-453.13 69.2,-463.58 75.34,-460.21"/>
</g>
<!-- Node12 -->
<g id="node12" class="node">
<title>Node12</title>
<g id="a_node12"><a xlink:href="classft_1_1irc_1_1processor__mode.html" target="_top" xlink:title=" ">
<polygon fill="white" stroke="black" points="159,-541 159,-560 287,-560 287,-541 159,-541"/>
<text text-anchor="middle" x="223" y="-548" font-family="Helvetica,sans-Serif" font-size="10.00">ft::irc::processor_mode</text>
</a>
</g>
</g>
<!-- Node1&#45;&gt;Node12 -->
<g id="edge11" class="edge">
<title>Node1&#45;&gt;Node12</title>
<path fill="none" stroke="midnightblue" d="M77.21,-460.59C94.84,-480.07 126.12,-511.65 159,-530.5 166.37,-534.72 174.74,-538.18 182.92,-540.95"/>
<polygon fill="midnightblue" stroke="midnightblue" points="79.79,-458.22 70.53,-453.06 74.55,-462.86 79.79,-458.22"/>
</g>
<!-- Node13 -->
<g id="node13" class="node">
<title>Node13</title>
<g id="a_node13"><a xlink:href="classft_1_1irc_1_1processor__names.html" target="_top" xlink:title=" ">
<polygon fill="white" stroke="black" points="175.5,-491.5 175.5,-521.5 270.5,-521.5 270.5,-491.5 175.5,-491.5"/>
<text text-anchor="start" x="183.5" y="-509.5" font-family="Helvetica,sans-Serif" font-size="10.00">ft::irc::processor</text>
<text text-anchor="middle" x="223" y="-498.5" font-family="Helvetica,sans-Serif" font-size="10.00">_names</text>
</a>
</g>
</g>
<!-- Node1&#45;&gt;Node13 -->
<g id="edge12" class="edge">
<title>Node1&#45;&gt;Node13</title>
<path fill="none" stroke="midnightblue" d="M96.05,-456.75C121.71,-466.89 157.12,-480.87 183.86,-491.43"/>
<polygon fill="midnightblue" stroke="midnightblue" points="97.31,-453.49 86.72,-453.07 94.74,-460 97.31,-453.49"/>
</g>
<!-- Node14 -->
<g id="node14" class="node">
<title>Node14</title>
<g id="a_node14"><a xlink:href="classft_1_1irc_1_1processor__nick.html" target="_top" xlink:title=" ">
<polygon fill="white" stroke="black" points="163,-453 163,-472 283,-472 283,-453 163,-453"/>
<text text-anchor="middle" x="223" y="-460" font-family="Helvetica,sans-Serif" font-size="10.00">ft::irc::processor_nick</text>
</a>
</g>
</g>
<!-- Node1&#45;&gt;Node14 -->
<g id="edge13" class="edge">
<title>Node1&#45;&gt;Node14</title>
<path fill="none" stroke="midnightblue" d="M133.45,-451.95C143.32,-453.13 153.37,-454.33 162.99,-455.47"/>
<polygon fill="midnightblue" stroke="midnightblue" points="133.6,-448.44 123.26,-450.74 132.77,-455.4 133.6,-448.44"/>
</g>
<!-- Node15 -->
<g id="node15" class="node">
<title>Node15</title>
<g id="a_node15"><a xlink:href="classft_1_1irc_1_1processor__oper.html" target="_top" xlink:title=" ">
<polygon fill="white" stroke="black" points="162,-415 162,-434 284,-434 284,-415 162,-415"/>
<text text-anchor="middle" x="223" y="-422" font-family="Helvetica,sans-Serif" font-size="10.00">ft::irc::processor_oper</text>
</a>
</g>
</g>
<!-- Node1&#45;&gt;Node15 -->
<g id="edge14" class="edge">
<title>Node1&#45;&gt;Node15</title>
<path fill="none" stroke="midnightblue" d="M133.48,-435.05C142.98,-433.91 152.65,-432.76 161.94,-431.65"/>
<polygon fill="midnightblue" stroke="midnightblue" points="132.77,-431.6 123.26,-436.26 133.6,-438.56 132.77,-431.6"/>
</g>
<!-- Node16 -->
<g id="node16" class="node">
<title>Node16</title>
<g id="a_node16"><a xlink:href="classft_1_1irc_1_1processor__part.html" target="_top" xlink:title=" ">
<polygon fill="white" stroke="black" points="163.5,-377 163.5,-396 282.5,-396 282.5,-377 163.5,-377"/>
<text text-anchor="middle" x="223" y="-384" font-family="Helvetica,sans-Serif" font-size="10.00">ft::irc::processor_part</text>
</a>
</g>
</g>
<!-- Node1&#45;&gt;Node16 -->
<g id="edge15" class="edge">
<title>Node1&#45;&gt;Node16</title>
<path fill="none" stroke="midnightblue" d="M94.79,-430.01C113.42,-422.43 137.37,-413.01 159,-405.5 168.5,-402.2 178.91,-398.93 188.49,-396.05"/>
<polygon fill="midnightblue" stroke="midnightblue" points="93.23,-426.87 85.31,-433.9 95.89,-433.35 93.23,-426.87"/>
</g>
<!-- Node17 -->
<g id="node17" class="node">
<title>Node17</title>
<g id="a_node17"><a xlink:href="classft_1_1irc_1_1processor__pass.html" target="_top" xlink:title=" ">
<polygon fill="white" stroke="black" points="162,-339 162,-358 284,-358 284,-339 162,-339"/>
<text text-anchor="middle" x="223" y="-346" font-family="Helvetica,sans-Serif" font-size="10.00">ft::irc::processor_pass</text>
</a>
</g>
</g>
<!-- Node1&#45;&gt;Node17 -->
<g id="edge16" class="edge">
<title>Node1&#45;&gt;Node17</title>
<path fill="none" stroke="midnightblue" d="M79.53,-426.79C97.79,-409.7 128.33,-383.47 159,-367.5 166.19,-363.75 174.24,-360.62 182.12,-358.06"/>
<polygon fill="midnightblue" stroke="midnightblue" points="76.86,-424.49 72.04,-433.93 81.7,-429.56 76.86,-424.49"/>
</g>
<!-- Node18 -->
<g id="node18" class="node">
<title>Node18</title>
<g id="a_node18"><a xlink:href="classft_1_1irc_1_1processor__ping.html" target="_top" xlink:title=" ">
<polygon fill="white" stroke="black" points="162.5,-301 162.5,-320 283.5,-320 283.5,-301 162.5,-301"/>
<text text-anchor="middle" x="223" y="-308" font-family="Helvetica,sans-Serif" font-size="10.00">ft::irc::processor_ping</text>
</a>
</g>
</g>
<!-- Node1&#45;&gt;Node18 -->
<g id="edge17" class="edge">
<title>Node1&#45;&gt;Node18</title>
<path fill="none" stroke="midnightblue" d="M73.11,-425.35C88.75,-400.16 120.36,-354.85 159,-329.5 164.92,-325.61 171.67,-322.5 178.5,-320"/>
<polygon fill="midnightblue" stroke="midnightblue" points="70.1,-423.57 67.91,-433.93 76.08,-427.19 70.1,-423.57"/>
</g>
<!-- Node19 -->
<g id="node19" class="node">
<title>Node19</title>
<g id="a_node19"><a xlink:href="classft_1_1irc_1_1processor__pong.html" target="_top" xlink:title=" ">
<polygon fill="white" stroke="black" points="161,-263 161,-282 285,-282 285,-263 161,-263"/>
<text text-anchor="middle" x="223" y="-270" font-family="Helvetica,sans-Serif" font-size="10.00">ft::irc::processor_pong</text>
</a>
</g>
</g>
<!-- Node1&#45;&gt;Node19 -->
<g id="edge18" class="edge">
<title>Node1&#45;&gt;Node19</title>
<path fill="none" stroke="midnightblue" d="M69.63,-423.96C82.45,-391.56 112.46,-326.81 159,-291.5 164.1,-287.63 169.98,-284.55 176.06,-282.09"/>
<polygon fill="midnightblue" stroke="midnightblue" points="66.24,-423.03 65.94,-433.62 72.78,-425.52 66.24,-423.03"/>
</g>
<!-- Node20 -->
<g id="node20" class="node">
<title>Node20</title>
<g id="a_node20"><a xlink:href="classft_1_1irc_1_1processor__quit.html" target="_top" xlink:title=" ">
<polygon fill="white" stroke="black" points="163.5,-225 163.5,-244 282.5,-244 282.5,-225 163.5,-225"/>
<text text-anchor="middle" x="223" y="-232" font-family="Helvetica,sans-Serif" font-size="10.00">ft::irc::processor_quit</text>
</a>
</g>
</g>
<!-- Node1&#45;&gt;Node20 -->
<g id="edge19" class="edge">
<title>Node1&#45;&gt;Node20</title>
<path fill="none" stroke="midnightblue" d="M66.94,-424.03C76.71,-385.61 103.74,-299.75 159,-253.5 163.64,-249.61 169.06,-246.52 174.74,-244.06"/>
<polygon fill="midnightblue" stroke="midnightblue" points="63.49,-423.4 64.54,-433.94 70.29,-425.04 63.49,-423.4"/>
</g>
<!-- Node21 -->
<g id="node21" class="node">
<title>Node21</title>
<g id="a_node21"><a xlink:href="classft_1_1irc_1_1processor__topic.html" target="_top" xlink:title=" ">
<polygon fill="white" stroke="black" points="175.5,-175.5 175.5,-205.5 270.5,-205.5 270.5,-175.5 175.5,-175.5"/>
<text text-anchor="start" x="183.5" y="-193.5" font-family="Helvetica,sans-Serif" font-size="10.00">ft::irc::processor</text>
<text text-anchor="middle" x="223" y="-182.5" font-family="Helvetica,sans-Serif" font-size="10.00">_topic</text>
</a>
</g>
</g>
<!-- Node1&#45;&gt;Node21 -->
<g id="edge20" class="edge">
<title>Node1&#45;&gt;Node21</title>
<path fill="none" stroke="midnightblue" d="M65.6,-423.65C73.4,-380.11 97.78,-275.35 159,-215.5 163.71,-210.89 169.38,-207.11 175.35,-204"/>
<polygon fill="midnightblue" stroke="midnightblue" points="62.11,-423.33 63.89,-433.78 69.01,-424.5 62.11,-423.33"/>
</g>
<!-- Node22 -->
<g id="node22" class="node">
<title>Node22</title>
<g id="a_node22"><a xlink:href="classft_1_1irc_1_1processor__user.html" target="_top" xlink:title=" ">
<polygon fill="white" stroke="black" points="162.5,-137 162.5,-156 283.5,-156 283.5,-137 162.5,-137"/>
<text text-anchor="middle" x="223" y="-144" font-family="Helvetica,sans-Serif" font-size="10.00">ft::irc::processor_user</text>
</a>
</g>
</g>
<!-- Node1&#45;&gt;Node22 -->
<g id="edge21" class="edge">
<title>Node1&#45;&gt;Node22</title>
<path fill="none" stroke="midnightblue" d="M63.44,-423.8C66.93,-373.31 83.25,-238.19 159,-165.5 163.04,-161.62 167.84,-158.54 172.96,-156.08"/>
<polygon fill="midnightblue" stroke="midnightblue" points="59.94,-423.79 62.84,-433.98 66.92,-424.21 59.94,-423.79"/>
</g>
<!-- Node23 -->
<g id="node23" class="node">
<title>Node23</title>
<g id="a_node23"><a xlink:href="classft_1_1irc_1_1processor__who.html" target="_top" xlink:title=" ">
<polygon fill="white" stroke="black" points="163,-99 163,-118 283,-118 283,-99 163,-99"/>
<text text-anchor="middle" x="223" y="-106" font-family="Helvetica,sans-Serif" font-size="10.00">ft::irc::processor_who</text>
</a>
</g>
</g>
<!-- Node1&#45;&gt;Node23 -->
<g id="edge22" class="edge">
<title>Node1&#45;&gt;Node23</title>
<path fill="none" stroke="midnightblue" d="M62.48,-423.74C63.53,-368.68 74.22,-211.99 159,-127.5 162.88,-123.63 167.53,-120.54 172.51,-118.08"/>
<polygon fill="midnightblue" stroke="midnightblue" points="58.98,-423.86 62.38,-433.89 65.98,-423.93 58.98,-423.86"/>
</g>
<!-- Node24 -->
<g id="node24" class="node">
<title>Node24</title>
<g id="a_node24"><a xlink:href="classft_1_1irc_1_1processor__whois.html" target="_top" xlink:title=" ">
<polygon fill="white" stroke="black" points="175.5,-49.5 175.5,-79.5 270.5,-79.5 270.5,-49.5 175.5,-49.5"/>
<text text-anchor="start" x="183.5" y="-67.5" font-family="Helvetica,sans-Serif" font-size="10.00">ft::irc::processor</text>
<text text-anchor="middle" x="223" y="-56.5" font-family="Helvetica,sans-Serif" font-size="10.00">_whois</text>
</a>
</g>
</g>
<!-- Node1&#45;&gt;Node24 -->
<g id="edge23" class="edge">
<title>Node1&#45;&gt;Node24</title>
<path fill="none" stroke="midnightblue" d="M62.09,-423.77C61.95,-365.11 69.44,-189.67 159,-89.5 163.55,-84.41 169.27,-80.35 175.4,-77.1"/>
<polygon fill="midnightblue" stroke="midnightblue" points="58.59,-423.92 62.2,-433.88 65.59,-423.85 58.59,-423.92"/>
</g>
<!-- Node25 -->
<g id="node25" class="node">
<title>Node25</title>
<g id="a_node25"><a xlink:href="classft_1_1irc_1_1processor__whowas.html" target="_top" xlink:title=" ">
<polygon fill="white" stroke="black" points="175.5,-0.5 175.5,-30.5 270.5,-30.5 270.5,-0.5 175.5,-0.5"/>
<text text-anchor="start" x="183.5" y="-18.5" font-family="Helvetica,sans-Serif" font-size="10.00">ft::irc::processor</text>
<text text-anchor="middle" x="223" y="-7.5" font-family="Helvetica,sans-Serif" font-size="10.00">_whowas</text>
</a>
</g>
</g>
<!-- Node1&#45;&gt;Node25 -->
<g id="edge24" class="edge">
<title>Node1&#45;&gt;Node25</title>
<path fill="none" stroke="midnightblue" d="M64.78,-423.66C73.53,-350.74 107.06,-98.65 159,-39.5 163.48,-34.4 169.16,-30.38 175.28,-27.21"/>
<polygon fill="midnightblue" stroke="midnightblue" points="61.28,-423.43 63.59,-433.77 68.24,-424.25 61.28,-423.43"/>
</g>
<!-- Node10 -->
<g id="node10" class="node">
<title>Node10</title>
<g id="a_node10"><a xlink:href="classft_1_1irc_1_1processor__notice.html" target="_top" xlink:title=" ">
<polygon fill="white" stroke="black" points="323,-603.5 323,-633.5 418,-633.5 418,-603.5 323,-603.5"/>
<text text-anchor="start" x="331" y="-621.5" font-family="Helvetica,sans-Serif" font-size="10.00">ft::irc::processor</text>
<text text-anchor="middle" x="370.5" y="-610.5" font-family="Helvetica,sans-Serif" font-size="10.00">_notice</text>
</a>
</g>
</g>
<!-- Node9&#45;&gt;Node10 -->
<g id="edge9" class="edge">
<title>Node9&#45;&gt;Node10</title>
<path fill="none" stroke="midnightblue" d="M280.78,-603.87C294.67,-606.16 309.39,-608.58 322.75,-610.79"/>
<polygon fill="midnightblue" stroke="midnightblue" points="281.27,-600.4 270.84,-602.23 280.14,-607.31 281.27,-600.4"/>
</g>
<!-- Node11 -->
<g id="node11" class="node">
<title>Node11</title>
<g id="a_node11"><a xlink:href="classft_1_1irc_1_1processor__privmsg.html" target="_top" xlink:title=" ">
<polygon fill="white" stroke="black" points="323,-554.5 323,-584.5 418,-584.5 418,-554.5 323,-554.5"/>
<text text-anchor="start" x="331" y="-572.5" font-family="Helvetica,sans-Serif" font-size="10.00">ft::irc::processor</text>
<text text-anchor="middle" x="370.5" y="-561.5" font-family="Helvetica,sans-Serif" font-size="10.00">_privmsg</text>
</a>
</g>
</g>
<!-- Node9&#45;&gt;Node11 -->
<g id="edge10" class="edge">
<title>Node9&#45;&gt;Node11</title>
<path fill="none" stroke="midnightblue" d="M280.78,-584.74C294.67,-582.36 309.39,-579.83 322.75,-577.53"/>
<polygon fill="midnightblue" stroke="midnightblue" points="280.1,-581.31 270.84,-586.45 281.29,-588.21 280.1,-581.31"/>
</g>
</g>
</svg>
        <g id="navigator" transform="translate(0 0)" fill="#404254">
                <rect fill="#f2f5e9" fill-opacity="0.5" stroke="#606060" stroke-width=".5" x="0" y="0" width="60" height="60"/>
                <use id="zoomplus" xlink:href="#zoomPlus" x="17" y="9" onmousedown="handleZoom(evt,'in')"/>
                <use id="zoomminus" xlink:href="#zoomMin" x="42" y="9" onmousedown="handleZoom(evt,'out')"/>
                <use id="reset" xlink:href="#resetDef" x="30" y="36" onmousedown="handleReset()"/>
                <g id="arrowUp" xlink:href="#dirArrow" transform="translate(30 24)" onmousedown="handlePan(0,-1)">
                  <use xlink:href="#rim" fill="#404040">
                        <set attributeName="fill" to="#808080" begin="arrowUp.mouseover" end="arrowUp.mouseout"/>
                  </use>
                  <path fill="none" stroke="white" stroke-width="1.5" d="M0,-3.0v7 M-2.5,-0.5L0,-3.0L2.5,-0.5"/>
                </g>
                <g id="arrowRight" xlink:href="#dirArrow" transform="rotate(90) translate(36 -43)" onmousedown="handlePan(1,0)">
                  <use xlink:href="#rim" fill="#404040">
                        <set attributeName="fill" to="#808080" begin="arrowRight.mouseover" end="arrowRight.mouseout"/>
                  </use>
                  <path fill="none" stroke="white" stroke-width="1.5" d="M0,-3.0v7 M-2.5,-0.5L0,-3.0L2.5,-0.5"/>
                </g>
                <g id="arrowDown" xlink:href="#dirArrow" transform="rotate(180) translate(-30 -48)" onmousedown="handlePan(0,1)">
                  <use xlink:href="#rim" fill="#404040">
                        <set attributeName="fill" to="#808080" begin="arrowDown.mouseover" end="arrowDown.mouseout"/>
                  </use>
                  <path fill="none" stroke="white" stroke-width="1.5" d="M0,-3.0v7 M-2.5,-0.5L0,-3.0L2.5,-0.5"/>
                </g>
                <g id="arrowLeft" xlink:href="#dirArrow" transform="rotate(270) translate(-36 17)" onmousedown="handlePan(-1,0)">
                  <use xlink:href="#rim" fill="#404040">
                        <set attributeName="fill" to="#808080" begin="arrowLeft.mouseover" end="arrowLeft.mouseout"/>
                  </use>
                  <path fill="none" stroke="white" stroke-width="1.5" d="M0,-3.0v7 M-2.5,-0.5L0,-3.0L2.5,-0.5"/>
                </g>
        </g>
        <svg viewBox="0 0 15 15" width="100%" height="30px" preserveAspectRatio="xMaxYMin meet">
         <g id="arrow_out" transform="scale(0.3 0.3)">
          <a xlink:href="classft_1_1irc_1_1processor__base__inherit__graph_org.svg" target="_base">
           <rect id="button" ry="5" rx="5" y="6" x="6" height="38" width="38"
                fill="#f2f5e9" fill-opacity="0.5" stroke="#606060" stroke-width="1.0"/>
           <path id="arrow"
             d="M 11.500037,31.436501 C 11.940474,20.09759 22.043105,11.32322 32.158766,21.979434 L 37.068811,17.246167 C 37.068811,17.246167 37.088388,32 37.088388,32 L 22.160133,31.978069 C 22.160133,31.978069 26.997745,27.140456 26.997745,27.140456 C 18.528582,18.264221 13.291696,25.230495 11.500037,31.436501 z"
             style="fill:#404040;"/>
          </a>
         </g>
        </svg>
</svg>
