<?xml version="1.0" encoding="UTF-8" standalone="no"?>
<!DOCTYPE svg PUBLIC "-//W3C//DTD SVG 1.1//EN"
 "http://www.w3.org/Graphics/SVG/1.1/DTD/svg11.dtd">
<!-- Generated by graphviz version 2.43.0 (0)
 -->
<!-- Title: ft::serv::event_worker::loop Pages: 1 -->
<svg width="445pt" height="107pt"
 viewBox="0.00 0.00 445.00 107.00" xmlns="http://www.w3.org/2000/svg" xmlns:xlink="http://www.w3.org/1999/xlink">
<g id="graph0" class="graph" transform="scale(1 1) rotate(0) translate(4 103)">
<title>ft::serv::event_worker::loop</title>
<polygon fill="white" stroke="transparent" points="-4,4 -4,-103 441,-103 441,4 -4,4"/>
<!-- Node1 -->
<g id="node1" class="node">
<title>Node1</title>
<g id="a_node1"><a xlink:title=" ">
<polygon fill="#bfbfbf" stroke="black" points="0,-46.5 0,-76.5 122,-76.5 122,-46.5 0,-46.5"/>
<text text-anchor="start" x="8" y="-64.5" font-family="Helvetica,sans-Serif" font-size="10.00">ft::serv::event_worker</text>
<text text-anchor="middle" x="61" y="-53.5" font-family="Helvetica,sans-Serif" font-size="10.00">::loop</text>
</a>
</g>
</g>
<!-- Node2 -->
<g id="node2" class="node">
<title>Node2</title>
<g id="a_node2"><a xlink:href="classft_1_1serv_1_1syscall__failed.html#ad4beae2a2abdd5d44caf5f48b03a5ae0" target="_top" xlink:title=" ">
<polygon fill="white" stroke="black" points="158,-68.5 158,-98.5 280,-98.5 280,-68.5 158,-68.5"/>
<text text-anchor="start" x="166" y="-86.5" font-family="Helvetica,sans-Serif" font-size="10.00">ft::serv::syscall_failed</text>
<text text-anchor="middle" x="219" y="-75.5" font-family="Helvetica,sans-Serif" font-size="10.00">::error</text>
</a>
</g>
</g>
<!-- Node1&#45;&gt;Node2 -->
<g id="edge1" class="edge">
<title>Node1&#45;&gt;Node2</title>
<path fill="none" stroke="midnightblue" d="M122.31,-70.01C130.69,-71.19 139.36,-72.41 147.9,-73.61"/>
<polygon fill="midnightblue" stroke="midnightblue" points="147.46,-77.09 157.85,-75.02 148.43,-70.15 147.46,-77.09"/>
</g>
<!-- Node3 -->
<g id="node3" class="node">
<title>Node3</title>
<g id="a_node3"><a xlink:href="structft_1_1serv_1_1logger.html#aeb3f8c326c1e3b607121cf351df5fb55" target="_top" xlink:title=" ">
<polygon fill="white" stroke="black" points="161,-30 161,-49 277,-49 277,-30 161,-30"/>
<text text-anchor="middle" x="219" y="-37" font-family="Helvetica,sans-Serif" font-size="10.00">ft::serv::logger::warn</text>
</a>
</g>
</g>
<!-- Node1&#45;&gt;Node3 -->
<g id="edge2" class="edge">
<title>Node1&#45;&gt;Node3</title>
<path fill="none" stroke="midnightblue" d="M122.31,-52.99C131.63,-51.68 141.31,-50.32 150.77,-48.98"/>
<polygon fill="midnightblue" stroke="midnightblue" points="151.5,-52.41 160.92,-47.55 150.53,-45.48 151.5,-52.41"/>
</g>
<!-- Node4 -->
<g id="node4" class="node">
<title>Node4</title>
<g id="a_node4"><a xlink:href="namespaceft_1_1serv_1_1__internal.html#a909a2a84f5b086a5535cf537c8aca885" target="_top" xlink:title=" ">
<polygon fill="white" stroke="black" points="316,-49.5 316,-79.5 437,-79.5 437,-49.5 316,-49.5"/>
<text text-anchor="start" x="324" y="-67.5" font-family="Helvetica,sans-Serif" font-size="10.00">ft::serv::_internal</text>
<text text-anchor="middle" x="376.5" y="-56.5" font-family="Helvetica,sans-Serif" font-size="10.00">::make_format_string</text>
</a>
</g>
</g>
<!-- Node3&#45;&gt;Node4 -->
<g id="edge3" class="edge">
<title>Node3&#45;&gt;Node4</title>
<path fill="none" stroke="midnightblue" d="M277.02,-48.67C286.41,-50.18 296.24,-51.76 305.9,-53.31"/>
<polygon fill="midnightblue" stroke="midnightblue" points="305.45,-56.78 315.88,-54.91 306.56,-49.87 305.45,-56.78"/>
</g>
<!-- Node5 -->
<g id="node5" class="node">
<title>Node5</title>
<g id="a_node5"><a xlink:href="namespaceft_1_1serv_1_1__internal.html#aad4af39d62c2b1687b0bef7a91bf6c60" target="_top" xlink:title=" ">
<polygon fill="white" stroke="black" points="325,-0.5 325,-30.5 428,-30.5 428,-0.5 325,-0.5"/>
<text text-anchor="start" x="333" y="-18.5" font-family="Helvetica,sans-Serif" font-size="10.00">ft::serv::_internal</text>
<text text-anchor="middle" x="376.5" y="-7.5" font-family="Helvetica,sans-Serif" font-size="10.00">::make_utc_string</text>
</a>
</g>
</g>
<!-- Node3&#45;&gt;Node5 -->
<g id="edge4" class="edge">
<title>Node3&#45;&gt;Node5</title>
<path fill="none" stroke="midnightblue" d="M277.02,-30.7C289.28,-28.81 302.27,-26.8 314.67,-24.89"/>
<polygon fill="midnightblue" stroke="midnightblue" points="315.56,-28.29 324.91,-23.31 314.49,-21.37 315.56,-28.29"/>
</g>
</g>
</svg>
