<?xml version="1.0" encoding="UTF-8" standalone="no"?>
<!DOCTYPE svg PUBLIC "-//W3C//DTD SVG 1.1//EN"
 "http://www.w3.org/Graphics/SVG/1.1/DTD/svg11.dtd">
<!-- Generated by graphviz version 2.43.0 (0)
 -->
<!-- Title: ft::serv::event_layer::post_write Pages: 1 -->
<svg width="298pt" height="284pt"
 viewBox="0.00 0.00 298.00 284.00" xmlns="http://www.w3.org/2000/svg" xmlns:xlink="http://www.w3.org/1999/xlink">
<g id="graph0" class="graph" transform="scale(1 1) rotate(0) translate(4 280)">
<title>ft::serv::event_layer::post_write</title>
<polygon fill="white" stroke="transparent" points="-4,4 -4,-280 294,-280 294,4 -4,4"/>
<!-- Node1 -->
<g id="node1" class="node">
<title>Node1</title>
<g id="a_node1"><a xlink:title=" ">
<polygon fill="#bfbfbf" stroke="black" points="177,-122.5 177,-152.5 290,-152.5 290,-122.5 177,-122.5"/>
<text text-anchor="start" x="185" y="-140.5" font-family="Helvetica,sans-Serif" font-size="10.00">ft::serv::event_layer</text>
<text text-anchor="middle" x="233.5" y="-129.5" font-family="Helvetica,sans-Serif" font-size="10.00">::post_write</text>
</a>
</g>
</g>
<!-- Node2 -->
<g id="node2" class="node">
<title>Node2</title>
<g id="a_node2"><a xlink:href="classft_1_1irc_1_1bot__handler.html#a4f6f0c2ea6bf628048019d6793978658" target="_top" xlink:title=" ">
<polygon fill="white" stroke="black" points="18,-245.5 18,-275.5 123,-275.5 123,-245.5 18,-245.5"/>
<text text-anchor="start" x="26" y="-263.5" font-family="Helvetica,sans-Serif" font-size="10.00">ft::irc::bot_handler</text>
<text text-anchor="middle" x="70.5" y="-252.5" font-family="Helvetica,sans-Serif" font-size="10.00">::on_active</text>
</a>
</g>
</g>
<!-- Node1&#45;&gt;Node2 -->
<g id="edge1" class="edge">
<title>Node1&#45;&gt;Node2</title>
<path fill="none" stroke="midnightblue" d="M216.16,-161.02C199.57,-183.3 171.96,-216.27 141,-236.5 135.55,-240.06 129.51,-243.15 123.34,-245.83"/>
<polygon fill="midnightblue" stroke="midnightblue" points="219.11,-162.91 222.17,-152.76 213.45,-158.79 219.11,-162.91"/>
</g>
<!-- Node3 -->
<g id="node3" class="node">
<title>Node3</title>
<g id="a_node3"><a xlink:href="classft_1_1irc_1_1bot__handler.html#a0723185e483ae21fa0f2116ca05165fe" target="_top" xlink:title=" ">
<polygon fill="white" stroke="black" points="18,-196.5 18,-226.5 123,-226.5 123,-196.5 18,-196.5"/>
<text text-anchor="start" x="26" y="-214.5" font-family="Helvetica,sans-Serif" font-size="10.00">ft::irc::bot_handler</text>
<text text-anchor="middle" x="70.5" y="-203.5" font-family="Helvetica,sans-Serif" font-size="10.00">::on_read</text>
</a>
</g>
</g>
<!-- Node1&#45;&gt;Node3 -->
<g id="edge2" class="edge">
<title>Node1&#45;&gt;Node3</title>
<path fill="none" stroke="midnightblue" d="M198.48,-157.86C181.55,-167.54 160.56,-178.85 141,-187.5 133.88,-190.65 126.2,-193.66 118.65,-196.42"/>
<polygon fill="midnightblue" stroke="midnightblue" points="200.54,-160.72 207.44,-152.68 197.03,-154.66 200.54,-160.72"/>
</g>
<!-- Node4 -->
<g id="node4" class="node">
<title>Node4</title>
<g id="a_node4"><a xlink:href="classft_1_1serv_1_1bytes__encoder.html#a83df535b702da61babb9318268cf69e3" target="_top" xlink:title=" ">
<polygon fill="white" stroke="black" points="7,-147.5 7,-177.5 134,-177.5 134,-147.5 7,-147.5"/>
<text text-anchor="start" x="15" y="-165.5" font-family="Helvetica,sans-Serif" font-size="10.00">ft::serv::bytes_encoder</text>
<text text-anchor="middle" x="70.5" y="-154.5" font-family="Helvetica,sans-Serif" font-size="10.00">::on_write</text>
</a>
</g>
</g>
<!-- Node1&#45;&gt;Node4 -->
<g id="edge3" class="edge">
<title>Node1&#45;&gt;Node4</title>
<path fill="none" stroke="midnightblue" d="M166.52,-147.75C155.82,-149.41 144.76,-151.12 134.15,-152.77"/>
<polygon fill="midnightblue" stroke="midnightblue" points="167.3,-151.17 176.64,-146.17 166.22,-144.25 167.3,-151.17"/>
</g>
<!-- Node5 -->
<g id="node5" class="node">
<title>Node5</title>
<g id="a_node5"><a xlink:href="classft_1_1serv_1_1event__handler__base.html#a7e9917a28399ab9d29b65aced49e0752" target="_top" xlink:title=" ">
<polygon fill="white" stroke="black" points="8,-98.5 8,-128.5 133,-128.5 133,-98.5 8,-98.5"/>
<text text-anchor="start" x="16" y="-116.5" font-family="Helvetica,sans-Serif" font-size="10.00">ft::serv::event_handler</text>
<text text-anchor="middle" x="70.5" y="-105.5" font-family="Helvetica,sans-Serif" font-size="10.00">_base::on_write</text>
</a>
</g>
</g>
<!-- Node1&#45;&gt;Node5 -->
<g id="edge4" class="edge">
<title>Node1&#45;&gt;Node5</title>
<path fill="none" stroke="midnightblue" d="M166.59,-127.67C155.49,-126.02 144.01,-124.31 133.04,-122.67"/>
<polygon fill="midnightblue" stroke="midnightblue" points="166.24,-131.16 176.64,-129.17 167.27,-124.24 166.24,-131.16"/>
</g>
<!-- Node6 -->
<g id="node6" class="node">
<title>Node6</title>
<g id="a_node6"><a xlink:href="classft_1_1serv_1_1object__encoder.html#affb3aa9a3e8fc925c6186973287231d3" target="_top" xlink:title=" ">
<polygon fill="white" stroke="black" points="5.5,-49.5 5.5,-79.5 135.5,-79.5 135.5,-49.5 5.5,-49.5"/>
<text text-anchor="start" x="13.5" y="-67.5" font-family="Helvetica,sans-Serif" font-size="10.00">ft::serv::object_encoder</text>
<text text-anchor="middle" x="70.5" y="-56.5" font-family="Helvetica,sans-Serif" font-size="10.00">::on_write</text>
</a>
</g>
</g>
<!-- Node1&#45;&gt;Node6 -->
<g id="edge5" class="edge">
<title>Node1&#45;&gt;Node6</title>
<path fill="none" stroke="midnightblue" d="M197.25,-117.55C180.48,-108.44 159.98,-97.85 141,-89.5 133.14,-86.04 124.63,-82.68 116.35,-79.61"/>
<polygon fill="midnightblue" stroke="midnightblue" points="195.7,-120.7 206.15,-122.44 199.07,-114.56 195.7,-120.7"/>
</g>
<!-- Node7 -->
<g id="node7" class="node">
<title>Node7</title>
<g id="a_node7"><a xlink:href="classbyte__buffer__dump__logger__handler.html#a59ea4ac74be0b6b4a018633945961794" target="_top" xlink:title=" ">
<polygon fill="white" stroke="black" points="0,-0.5 0,-30.5 141,-30.5 141,-0.5 0,-0.5"/>
<text text-anchor="start" x="8" y="-18.5" font-family="Helvetica,sans-Serif" font-size="10.00">byte_buffer_dump_logger</text>
<text text-anchor="middle" x="70.5" y="-7.5" font-family="Helvetica,sans-Serif" font-size="10.00">_handler::on_write</text>
</a>
</g>
</g>
<!-- Node1&#45;&gt;Node7 -->
<g id="edge6" class="edge">
<title>Node1&#45;&gt;Node7</title>
<path fill="none" stroke="midnightblue" d="M215.72,-114.19C198.98,-92.44 171.43,-60.43 141,-40.5 135.21,-36.71 128.77,-33.4 122.21,-30.54"/>
<polygon fill="midnightblue" stroke="midnightblue" points="212.98,-116.38 221.79,-122.26 218.57,-112.17 212.98,-116.38"/>
</g>
</g>
</svg>
