<?xml version="1.0" encoding="UTF-8" standalone="no"?>
<!DOCTYPE svg PUBLIC "-//W3C//DTD SVG 1.1//EN"
 "http://www.w3.org/Graphics/SVG/1.1/DTD/svg11.dtd">
<!-- Generated by graphviz version 2.43.0 (0)
 -->
<!-- Title: ft::serv::event_layer::post_write Pages: 1 -->
<svg width="287pt" height="235pt"
 viewBox="0.00 0.00 287.00 235.00" xmlns="http://www.w3.org/2000/svg" xmlns:xlink="http://www.w3.org/1999/xlink">
<g id="graph0" class="graph" transform="scale(1 1) rotate(0) translate(4 231)">
<title>ft::serv::event_layer::post_write</title>
<polygon fill="white" stroke="transparent" points="-4,4 -4,-231 283,-231 283,4 -4,4"/>
<!-- Node1 -->
<g id="node1" class="node">
<title>Node1</title>
<g id="a_node1"><a xlink:title=" ">
<polygon fill="#bfbfbf" stroke="black" points="166,-98.5 166,-128.5 279,-128.5 279,-98.5 166,-98.5"/>
<text text-anchor="start" x="174" y="-116.5" font-family="Helvetica,sans-Serif" font-size="10.00">ft::serv::event_layer</text>
<text text-anchor="middle" x="222.5" y="-105.5" font-family="Helvetica,sans-Serif" font-size="10.00">::post_write</text>
</a>
</g>
</g>
<!-- Node2 -->
<g id="node2" class="node">
<title>Node2</title>
<g id="a_node2"><a xlink:href="classft_1_1irc_1_1bot__handler.html#a4f6f0c2ea6bf628048019d6793978658" target="_top" xlink:title=" ">
<polygon fill="white" stroke="black" points="12.5,-196.5 12.5,-226.5 117.5,-226.5 117.5,-196.5 12.5,-196.5"/>
<text text-anchor="start" x="20.5" y="-214.5" font-family="Helvetica,sans-Serif" font-size="10.00">ft::irc::bot_handler</text>
<text text-anchor="middle" x="65" y="-203.5" font-family="Helvetica,sans-Serif" font-size="10.00">::on_active</text>
</a>
</g>
</g>
<!-- Node1&#45;&gt;Node2 -->
<g id="edge1" class="edge">
<title>Node1&#45;&gt;Node2</title>
<path fill="none" stroke="midnightblue" d="M198.61,-135.52C180.97,-151.58 155.38,-172.99 130,-187.5 124.23,-190.8 117.92,-193.8 111.59,-196.48"/>
<polygon fill="midnightblue" stroke="midnightblue" points="201.17,-137.92 206.13,-128.56 196.41,-132.79 201.17,-137.92"/>
</g>
<!-- Node3 -->
<g id="node3" class="node">
<title>Node3</title>
<g id="a_node3"><a xlink:href="classft_1_1irc_1_1bot__handler.html#a0723185e483ae21fa0f2116ca05165fe" target="_top" xlink:title=" ">
<polygon fill="white" stroke="black" points="12.5,-147.5 12.5,-177.5 117.5,-177.5 117.5,-147.5 12.5,-147.5"/>
<text text-anchor="start" x="20.5" y="-165.5" font-family="Helvetica,sans-Serif" font-size="10.00">ft::irc::bot_handler</text>
<text text-anchor="middle" x="65" y="-154.5" font-family="Helvetica,sans-Serif" font-size="10.00">::on_read</text>
</a>
</g>
</g>
<!-- Node1&#45;&gt;Node3 -->
<g id="edge2" class="edge">
<title>Node1&#45;&gt;Node3</title>
<path fill="none" stroke="midnightblue" d="M164.02,-131.61C147.49,-136.82 129.64,-142.45 113.77,-147.45"/>
<polygon fill="midnightblue" stroke="midnightblue" points="165.09,-134.95 173.58,-128.6 162.99,-128.27 165.09,-134.95"/>
</g>
<!-- Node4 -->
<g id="node4" class="node">
<title>Node4</title>
<g id="a_node4"><a xlink:href="classft_1_1serv_1_1bytes__encoder.html#a83df535b702da61babb9318268cf69e3" target="_top" xlink:title=" ">
<polygon fill="white" stroke="black" points="1.5,-98.5 1.5,-128.5 128.5,-128.5 128.5,-98.5 1.5,-98.5"/>
<text text-anchor="start" x="9.5" y="-116.5" font-family="Helvetica,sans-Serif" font-size="10.00">ft::serv::bytes_encoder</text>
<text text-anchor="middle" x="65" y="-105.5" font-family="Helvetica,sans-Serif" font-size="10.00">::on_write</text>
</a>
</g>
</g>
<!-- Node1&#45;&gt;Node4 -->
<g id="edge3" class="edge">
<title>Node1&#45;&gt;Node4</title>
<path fill="none" stroke="midnightblue" d="M155.79,-113.5C146.82,-113.5 137.62,-113.5 128.71,-113.5"/>
<polygon fill="midnightblue" stroke="midnightblue" points="155.8,-117 165.8,-113.5 155.8,-110 155.8,-117"/>
</g>
<!-- Node5 -->
<g id="node5" class="node">
<title>Node5</title>
<g id="a_node5"><a xlink:href="classft_1_1serv_1_1event__handler__base.html#a7e9917a28399ab9d29b65aced49e0752" target="_top" xlink:title=" ">
<polygon fill="white" stroke="black" points="2.5,-49.5 2.5,-79.5 127.5,-79.5 127.5,-49.5 2.5,-49.5"/>
<text text-anchor="start" x="10.5" y="-67.5" font-family="Helvetica,sans-Serif" font-size="10.00">ft::serv::event_handler</text>
<text text-anchor="middle" x="65" y="-56.5" font-family="Helvetica,sans-Serif" font-size="10.00">_base::on_write</text>
</a>
</g>
</g>
<!-- Node1&#45;&gt;Node5 -->
<g id="edge4" class="edge">
<title>Node1&#45;&gt;Node5</title>
<path fill="none" stroke="midnightblue" d="M164.02,-95.39C147.49,-90.18 129.64,-84.55 113.77,-79.55"/>
<polygon fill="midnightblue" stroke="midnightblue" points="162.99,-98.73 173.58,-98.4 165.09,-92.05 162.99,-98.73"/>
</g>
<!-- Node6 -->
<g id="node6" class="node">
<title>Node6</title>
<g id="a_node6"><a xlink:href="classft_1_1serv_1_1object__encoder.html#affb3aa9a3e8fc925c6186973287231d3" target="_top" xlink:title=" ">
<polygon fill="white" stroke="black" points="0,-0.5 0,-30.5 130,-30.5 130,-0.5 0,-0.5"/>
<text text-anchor="start" x="8" y="-18.5" font-family="Helvetica,sans-Serif" font-size="10.00">ft::serv::object_encoder</text>
<text text-anchor="middle" x="65" y="-7.5" font-family="Helvetica,sans-Serif" font-size="10.00">::on_write</text>
</a>
</g>
</g>
<!-- Node1&#45;&gt;Node6 -->
<g id="edge5" class="edge">
<title>Node1&#45;&gt;Node6</title>
<path fill="none" stroke="midnightblue" d="M198.18,-91.61C180.5,-75.86 155.04,-54.93 130,-40.5 123.7,-36.87 116.76,-33.54 109.86,-30.59"/>
<polygon fill="midnightblue" stroke="midnightblue" points="195.97,-94.33 205.73,-98.44 200.66,-89.14 195.97,-94.33"/>
</g>
</g>
</svg>
