<?xml version="1.0" encoding="UTF-8" standalone="no"?>
<!DOCTYPE svg PUBLIC "-//W3C//DTD SVG 1.1//EN"
 "http://www.w3.org/Graphics/SVG/1.1/DTD/svg11.dtd">
<!-- Generated by graphviz version 2.43.0 (0)
 -->
<!-- Title: ft::serv::event_channel_base::flush Pages: 1 -->
<svg width="598pt" height="121pt"
 viewBox="0.00 0.00 598.00 120.50" xmlns="http://www.w3.org/2000/svg" xmlns:xlink="http://www.w3.org/1999/xlink">
<g id="graph0" class="graph" transform="scale(1 1) rotate(0) translate(4 116.5)">
<title>ft::serv::event_channel_base::flush</title>
<polygon fill="white" stroke="transparent" points="-4,4 -4,-116.5 594,-116.5 594,4 -4,4"/>
<!-- Node1 -->
<g id="node1" class="node">
<title>Node1</title>
<g id="a_node1"><a xlink:title=" ">
<polygon fill="#bfbfbf" stroke="black" points="0,-24.5 0,-54.5 127,-54.5 127,-24.5 0,-24.5"/>
<text text-anchor="start" x="8" y="-42.5" font-family="Helvetica,sans-Serif" font-size="10.00">ft::serv::event_channel</text>
<text text-anchor="middle" x="63.5" y="-31.5" font-family="Helvetica,sans-Serif" font-size="10.00">_base::flush</text>
</a>
</g>
</g>
<!-- Node2 -->
<g id="node2" class="node">
<title>Node2</title>
<g id="a_node2"><a xlink:href="classft_1_1serv_1_1byte__buffer.html#a09c6306ccf0e47873fc264c4b76b1295" target="_top" xlink:title=" ">
<polygon fill="white" stroke="black" points="163,-49.5 163,-79.5 274,-79.5 274,-49.5 163,-49.5"/>
<text text-anchor="start" x="171" y="-67.5" font-family="Helvetica,sans-Serif" font-size="10.00">ft::serv::byte_buffer</text>
<text text-anchor="middle" x="218.5" y="-56.5" font-family="Helvetica,sans-Serif" font-size="10.00">::append_from</text>
</a>
</g>
</g>
<!-- Node1&#45;&gt;Node2 -->
<g id="edge1" class="edge">
<title>Node1&#45;&gt;Node2</title>
<path fill="none" stroke="midnightblue" d="M127.17,-49.74C135.5,-51.1 144.06,-52.5 152.43,-53.87"/>
<polygon fill="midnightblue" stroke="midnightblue" points="152.09,-57.36 162.52,-55.52 153.22,-50.45 152.09,-57.36"/>
</g>
<!-- Node6 -->
<g id="node6" class="node">
<title>Node6</title>
<g id="a_node6"><a xlink:href="classft_1_1serv_1_1byte__buffer.html#a3e213b8cde17f3906c342f354c61dc34" target="_top" xlink:title=" ">
<polygon fill="white" stroke="black" points="163,-0.5 163,-30.5 274,-30.5 274,-0.5 163,-0.5"/>
<text text-anchor="start" x="171" y="-18.5" font-family="Helvetica,sans-Serif" font-size="10.00">ft::serv::byte_buffer</text>
<text text-anchor="middle" x="218.5" y="-7.5" font-family="Helvetica,sans-Serif" font-size="10.00">::clear</text>
</a>
</g>
</g>
<!-- Node1&#45;&gt;Node6 -->
<g id="edge6" class="edge">
<title>Node1&#45;&gt;Node6</title>
<path fill="none" stroke="midnightblue" d="M127.17,-29.67C135.5,-28.36 144.06,-27.02 152.43,-25.71"/>
<polygon fill="midnightblue" stroke="midnightblue" points="153.19,-29.13 162.52,-24.12 152.1,-22.22 153.19,-29.13"/>
</g>
<!-- Node3 -->
<g id="node3" class="node">
<title>Node3</title>
<g id="a_node3"><a xlink:href="classft_1_1serv_1_1byte__buffer.html#ae2e9e14f5f7ed2e9d35d44319383674a" target="_top" xlink:title=" ">
<polygon fill="white" stroke="black" points="310,-93 310,-112 443,-112 443,-93 310,-93"/>
<text text-anchor="middle" x="376.5" y="-100" font-family="Helvetica,sans-Serif" font-size="10.00">ft::serv::byte_buffer::get</text>
</a>
</g>
</g>
<!-- Node2&#45;&gt;Node3 -->
<g id="edge2" class="edge">
<title>Node2&#45;&gt;Node3</title>
<path fill="none" stroke="midnightblue" d="M274.06,-77.79C291.09,-81.94 309.76,-86.49 326.39,-90.54"/>
<polygon fill="midnightblue" stroke="midnightblue" points="325.9,-94.02 336.44,-92.99 327.56,-87.22 325.9,-94.02"/>
</g>
<!-- Node4 -->
<g id="node4" class="node">
<title>Node4</title>
<g id="a_node4"><a xlink:href="classft_1_1serv_1_1byte__buffer.html#a2ef675e084b7fd5bc2ad427e9a562332" target="_top" xlink:title=" ">
<polygon fill="white" stroke="black" points="310,-55 310,-74 443,-74 443,-55 310,-55"/>
<text text-anchor="middle" x="376.5" y="-62" font-family="Helvetica,sans-Serif" font-size="10.00">ft::serv::byte_buffer::put</text>
</a>
</g>
</g>
<!-- Node2&#45;&gt;Node4 -->
<g id="edge3" class="edge">
<title>Node2&#45;&gt;Node4</title>
<path fill="none" stroke="midnightblue" d="M274.06,-64.5C282.4,-64.5 291.13,-64.5 299.82,-64.5"/>
<polygon fill="midnightblue" stroke="midnightblue" points="299.98,-68 309.98,-64.5 299.98,-61 299.98,-68"/>
</g>
<!-- Node5 -->
<g id="node5" class="node">
<title>Node5</title>
<g id="a_node5"><a xlink:href="classft_1_1serv_1_1byte__buffer.html#a4b1447dcfaa3679e3a48c8909001225d" target="_top" xlink:title=" ">
<polygon fill="white" stroke="black" points="479,-30.5 479,-60.5 590,-60.5 590,-30.5 479,-30.5"/>
<text text-anchor="start" x="487" y="-48.5" font-family="Helvetica,sans-Serif" font-size="10.00">ft::serv::byte_buffer</text>
<text text-anchor="middle" x="534.5" y="-37.5" font-family="Helvetica,sans-Serif" font-size="10.00">::size</text>
</a>
</g>
</g>
<!-- Node2&#45;&gt;Node5 -->
<g id="edge5" class="edge">
<title>Node2&#45;&gt;Node5</title>
<path fill="none" stroke="midnightblue" d="M274.25,-51.11C285.98,-48.78 298.34,-46.71 310,-45.5 363.17,-39.98 423.84,-40.4 468.54,-41.97"/>
<polygon fill="midnightblue" stroke="midnightblue" points="468.56,-45.47 478.69,-42.35 468.83,-38.48 468.56,-45.47"/>
</g>
<!-- Node4&#45;&gt;Node5 -->
<g id="edge4" class="edge">
<title>Node4&#45;&gt;Node5</title>
<path fill="none" stroke="midnightblue" d="M443.21,-56.5C451.61,-55.47 460.21,-54.43 468.61,-53.4"/>
<polygon fill="midnightblue" stroke="midnightblue" points="469.21,-56.86 478.71,-52.17 468.36,-49.91 469.21,-56.86"/>
</g>
</g>
</svg>
