<?xml version="1.0" encoding="UTF-8" standalone="no"?>
<!DOCTYPE svg PUBLIC "-//W3C//DTD SVG 1.1//EN"
 "http://www.w3.org/Graphics/SVG/1.1/DTD/svg11.dtd">
<!-- Generated by graphviz version 2.43.0 (0)
 -->
<!-- Title: ft::irc::client_handler::on_read Pages: 1 -->
<svg width="603pt" height="695pt"
 viewBox="0.00 0.00 603.00 695.00" xmlns="http://www.w3.org/2000/svg" xmlns:xlink="http://www.w3.org/1999/xlink">
<g id="graph0" class="graph" transform="scale(1 1) rotate(0) translate(4 691)">
<title>ft::irc::client_handler::on_read</title>
<polygon fill="white" stroke="transparent" points="-4,4 -4,-691 599,-691 599,4 -4,4"/>
<!-- Node1 -->
<g id="node1" class="node">
<title>Node1</title>
<g id="a_node1"><a xlink:title=" ">
<polygon fill="#bfbfbf" stroke="black" points="0,-333.5 0,-363.5 116,-363.5 116,-333.5 0,-333.5"/>
<text text-anchor="start" x="8" y="-351.5" font-family="Helvetica,sans-Serif" font-size="10.00">ft::irc::client_handler</text>
<text text-anchor="middle" x="58" y="-340.5" font-family="Helvetica,sans-Serif" font-size="10.00">::on_read</text>
</a>
</g>
</g>
<!-- Node2 -->
<g id="node2" class="node">
<title>Node2</title>
<g id="a_node2"><a xlink:href="structft_1_1serv_1_1logger.html#a318b50018ef710a34d9ceea9fcac623c" target="_top" xlink:title=" ">
<polygon fill="white" stroke="black" points="152,-383 152,-402 274,-402 274,-383 152,-383"/>
<text text-anchor="middle" x="213" y="-390" font-family="Helvetica,sans-Serif" font-size="10.00">ft::serv::logger::debug</text>
</a>
</g>
</g>
<!-- Node1&#45;&gt;Node2 -->
<g id="edge1" class="edge">
<title>Node1&#45;&gt;Node2</title>
<path fill="none" stroke="midnightblue" d="M111.23,-363.52C130.07,-368.94 151.11,-374.99 169.07,-380.15"/>
<polygon fill="midnightblue" stroke="midnightblue" points="168.12,-383.52 178.69,-382.92 170.05,-376.79 168.12,-383.52"/>
</g>
<!-- Node3 -->
<g id="node3" class="node">
<title>Node3</title>
<g id="a_node3"><a xlink:href="classft_1_1irc_1_1processor__dictionary.html#a50bd8e9f89f6f6a911f5495272cd7d41" target="_top" xlink:title=" ">
<polygon fill="white" stroke="black" points="156,-333.5 156,-363.5 270,-363.5 270,-333.5 156,-333.5"/>
<text text-anchor="start" x="164" y="-351.5" font-family="Helvetica,sans-Serif" font-size="10.00">ft::irc::processor</text>
<text text-anchor="middle" x="213" y="-340.5" font-family="Helvetica,sans-Serif" font-size="10.00">_dictionary::execute</text>
</a>
</g>
</g>
<!-- Node1&#45;&gt;Node3 -->
<g id="edge2" class="edge">
<title>Node1&#45;&gt;Node3</title>
<path fill="none" stroke="midnightblue" d="M116.41,-348.5C125.97,-348.5 135.96,-348.5 145.73,-348.5"/>
<polygon fill="midnightblue" stroke="midnightblue" points="145.8,-352 155.8,-348.5 145.8,-345 145.8,-352"/>
</g>
<!-- Node20 -->
<g id="node20" class="node">
<title>Node20</title>
<g id="a_node20"><a xlink:href="classft_1_1irc_1_1message.html#a076fdbb740cb752dd153e207f076183a" target="_top" xlink:title=" ">
<polygon fill="white" stroke="black" points="159.5,-284.5 159.5,-314.5 266.5,-314.5 266.5,-284.5 159.5,-284.5"/>
<text text-anchor="start" x="167.5" y="-302.5" font-family="Helvetica,sans-Serif" font-size="10.00">ft::irc::message::to</text>
<text text-anchor="middle" x="213" y="-291.5" font-family="Helvetica,sans-Serif" font-size="10.00">_pretty_string</text>
</a>
</g>
</g>
<!-- Node1&#45;&gt;Node20 -->
<g id="edge19" class="edge">
<title>Node1&#45;&gt;Node20</title>
<path fill="none" stroke="midnightblue" d="M106.15,-333.4C121.64,-328.44 139.02,-322.87 155.15,-317.71"/>
<polygon fill="midnightblue" stroke="midnightblue" points="156.55,-320.93 165,-314.55 154.41,-314.27 156.55,-320.93"/>
</g>
<!-- Node4 -->
<g id="node4" class="node">
<title>Node4</title>
<g id="a_node4"><a xlink:href="classft_1_1irc_1_1processor__dictionary.html#a4a332e955e92eb2af421b69d2cf8ecf9" target="_top" xlink:title=" ">
<polygon fill="white" stroke="black" points="339.5,-656.5 339.5,-686.5 434.5,-686.5 434.5,-656.5 339.5,-656.5"/>
<text text-anchor="start" x="347.5" y="-674.5" font-family="Helvetica,sans-Serif" font-size="10.00">ft::irc::processor</text>
<text text-anchor="middle" x="387" y="-663.5" font-family="Helvetica,sans-Serif" font-size="10.00">_dictionary::get</text>
</a>
</g>
</g>
<!-- Node3&#45;&gt;Node4 -->
<g id="edge3" class="edge">
<title>Node3&#45;&gt;Node4</title>
<path fill="none" stroke="midnightblue" d="M263.36,-363.62C267.4,-366.38 271.05,-369.65 274,-373.5 348.66,-471.03 231.08,-553.38 310,-647.5 315.25,-653.76 322.12,-658.41 329.59,-661.86"/>
<polygon fill="midnightblue" stroke="midnightblue" points="328.7,-665.27 339.29,-665.62 331.23,-658.74 328.7,-665.27"/>
</g>
<!-- Node6 -->
<g id="node6" class="node">
<title>Node6</title>
<g id="a_node6"><a xlink:href="classft_1_1irc_1_1message.html#ad323e99c45f6feec038a7de683f812a2" target="_top" xlink:title=" ">
<polygon fill="white" stroke="black" points="330.5,-607.5 330.5,-637.5 443.5,-637.5 443.5,-607.5 330.5,-607.5"/>
<text text-anchor="start" x="338.5" y="-625.5" font-family="Helvetica,sans-Serif" font-size="10.00">ft::irc::message::get</text>
<text text-anchor="middle" x="387" y="-614.5" font-family="Helvetica,sans-Serif" font-size="10.00">_command</text>
</a>
</g>
</g>
<!-- Node3&#45;&gt;Node6 -->
<g id="edge5" class="edge">
<title>Node3&#45;&gt;Node6</title>
<path fill="none" stroke="midnightblue" d="M262.97,-363.52C267.14,-366.3 270.93,-369.6 274,-373.5 336.43,-452.68 244.57,-520.78 310,-597.5 313.26,-601.33 317.13,-604.57 321.35,-607.32"/>
<polygon fill="midnightblue" stroke="midnightblue" points="320.01,-610.58 330.46,-612.3 323.36,-604.43 320.01,-610.58"/>
</g>
<!-- Node7 -->
<g id="node7" class="node">
<title>Node7</title>
<g id="a_node7"><a xlink:href="classft_1_1irc_1_1user.html#a6abd166e9093025e349bd851099f8f9e" target="_top" xlink:title=" ">
<polygon fill="white" stroke="black" points="325.5,-569 325.5,-588 448.5,-588 448.5,-569 325.5,-569"/>
<text text-anchor="middle" x="387" y="-576" font-family="Helvetica,sans-Serif" font-size="10.00">ft::irc::user::get_mode</text>
</a>
</g>
</g>
<!-- Node3&#45;&gt;Node7 -->
<g id="edge6" class="edge">
<title>Node3&#45;&gt;Node7</title>
<path fill="none" stroke="midnightblue" d="M262.84,-363.62C267.03,-366.39 270.86,-369.65 274,-373.5 327.18,-438.78 252.08,-498.38 310,-559.5 311.88,-561.49 313.94,-563.28 316.13,-564.89"/>
<polygon fill="midnightblue" stroke="midnightblue" points="314.79,-568.17 325.17,-570.29 318.37,-562.16 314.79,-568.17"/>
</g>
<!-- Node8 -->
<g id="node8" class="node">
<title>Node8</title>
<g id="a_node8"><a xlink:href="classft_1_1irc_1_1user.html#ae476cc31795df7fbb726b193ab887e75" target="_top" xlink:title=" ">
<polygon fill="white" stroke="black" points="342,-519.5 342,-549.5 432,-549.5 432,-519.5 342,-519.5"/>
<text text-anchor="start" x="350" y="-537.5" font-family="Helvetica,sans-Serif" font-size="10.00">ft::irc::user::get</text>
<text text-anchor="middle" x="387" y="-526.5" font-family="Helvetica,sans-Serif" font-size="10.00">_server</text>
</a>
</g>
</g>
<!-- Node3&#45;&gt;Node8 -->
<g id="edge7" class="edge">
<title>Node3&#45;&gt;Node8</title>
<path fill="none" stroke="midnightblue" d="M262.29,-363.66C266.64,-366.42 270.66,-369.67 274,-373.5 315.11,-420.62 267.11,-464 310,-509.5 316.16,-516.04 324.06,-520.86 332.42,-524.43"/>
<polygon fill="midnightblue" stroke="midnightblue" points="331.4,-527.79 342,-527.95 333.82,-521.22 331.4,-527.79"/>
</g>
<!-- Node9 -->
<g id="node9" class="node">
<title>Node9</title>
<g id="a_node9"><a xlink:href="classft_1_1irc_1_1user.html#a7d133deb3a63faa2627b50cbbdf3a607" target="_top" xlink:title=" ">
<polygon fill="white" stroke="black" points="318.5,-481 318.5,-500 455.5,-500 455.5,-481 318.5,-481"/>
<text text-anchor="middle" x="387" y="-488" font-family="Helvetica,sans-Serif" font-size="10.00">ft::irc::user::is_registered</text>
</a>
</g>
</g>
<!-- Node3&#45;&gt;Node9 -->
<g id="edge8" class="edge">
<title>Node3&#45;&gt;Node9</title>
<path fill="none" stroke="midnightblue" d="M261.34,-363.62C265.99,-366.4 270.33,-369.67 274,-373.5 306.1,-407 275.48,-440.49 310,-471.5 311.73,-473.05 313.56,-474.48 315.48,-475.79"/>
<polygon fill="midnightblue" stroke="midnightblue" points="313.95,-478.95 324.37,-480.87 317.42,-472.87 313.95,-478.95"/>
</g>
<!-- Node10 -->
<g id="node10" class="node">
<title>Node10</title>
<g id="a_node10"><a xlink:href="classft_1_1irc_1_1server.html#a5b8f9b83d37b40f6ee717fc93513e512" target="_top" xlink:title=" ">
<polygon fill="white" stroke="black" points="331.5,-431.5 331.5,-461.5 442.5,-461.5 442.5,-431.5 331.5,-431.5"/>
<text text-anchor="start" x="339.5" y="-449.5" font-family="Helvetica,sans-Serif" font-size="10.00">ft::irc::server::make</text>
<text text-anchor="middle" x="387" y="-438.5" font-family="Helvetica,sans-Serif" font-size="10.00">_full_name</text>
</a>
</g>
</g>
<!-- Node3&#45;&gt;Node10 -->
<g id="edge9" class="edge">
<title>Node3&#45;&gt;Node10</title>
<path fill="none" stroke="midnightblue" d="M258.17,-363.6C263.77,-366.45 269.21,-369.74 274,-373.5 295.25,-390.2 288.03,-406.76 310,-422.5 313.71,-425.15 317.72,-427.52 321.9,-429.64"/>
<polygon fill="midnightblue" stroke="midnightblue" points="320.7,-432.94 331.25,-433.86 323.58,-426.56 320.7,-432.94"/>
</g>
<!-- Node11 -->
<g id="node11" class="node">
<title>Node11</title>
<g id="a_node11"><a xlink:href="classft_1_1irc_1_1user.html#a7406ed193e13a3c39ee16c9ac7a8b16e" target="_top" xlink:title=" ">
<polygon fill="white" stroke="black" points="336.5,-382.5 336.5,-412.5 437.5,-412.5 437.5,-382.5 336.5,-382.5"/>
<text text-anchor="start" x="344.5" y="-400.5" font-family="Helvetica,sans-Serif" font-size="10.00">ft::irc::user::make</text>
<text text-anchor="middle" x="387" y="-389.5" font-family="Helvetica,sans-Serif" font-size="10.00">_full_name</text>
</a>
</g>
</g>
<!-- Node3&#45;&gt;Node11 -->
<g id="edge10" class="edge">
<title>Node3&#45;&gt;Node11</title>
<path fill="none" stroke="midnightblue" d="M267.01,-363.6C285.92,-368.99 307.35,-375.09 326.75,-380.62"/>
<polygon fill="midnightblue" stroke="midnightblue" points="325.82,-383.99 336.39,-383.37 327.74,-377.26 325.82,-383.99"/>
</g>
<!-- Node12 -->
<g id="node12" class="node">
<title>Node12</title>
<g id="a_node12"><a xlink:href="structft_1_1irc_1_1make__error.html#a9ce67256e955eeced06d90b853fa01fa" target="_top" xlink:title=" ">
<polygon fill="white" stroke="black" points="317.5,-333.5 317.5,-363.5 456.5,-363.5 456.5,-333.5 317.5,-333.5"/>
<text text-anchor="start" x="325.5" y="-351.5" font-family="Helvetica,sans-Serif" font-size="10.00">ft::irc::make_error</text>
<text text-anchor="middle" x="387" y="-340.5" font-family="Helvetica,sans-Serif" font-size="10.00">::need_more_parameters</text>
</a>
</g>
</g>
<!-- Node3&#45;&gt;Node12 -->
<g id="edge11" class="edge">
<title>Node3&#45;&gt;Node12</title>
<path fill="none" stroke="midnightblue" d="M270.32,-348.5C282.03,-348.5 294.58,-348.5 306.93,-348.5"/>
<polygon fill="midnightblue" stroke="midnightblue" points="307.24,-352 317.24,-348.5 307.24,-345 307.24,-352"/>
</g>
<!-- Node13 -->
<g id="node13" class="node">
<title>Node13</title>
<g id="a_node13"><a xlink:href="structft_1_1irc_1_1make__error.html#a7d1376947e09efd6feb04512a2029ebb" target="_top" xlink:title=" ">
<polygon fill="white" stroke="black" points="335.5,-284.5 335.5,-314.5 438.5,-314.5 438.5,-284.5 335.5,-284.5"/>
<text text-anchor="start" x="343.5" y="-302.5" font-family="Helvetica,sans-Serif" font-size="10.00">ft::irc::make_error</text>
<text text-anchor="middle" x="387" y="-291.5" font-family="Helvetica,sans-Serif" font-size="10.00">::no_privileges</text>
</a>
</g>
</g>
<!-- Node3&#45;&gt;Node13 -->
<g id="edge12" class="edge">
<title>Node3&#45;&gt;Node13</title>
<path fill="none" stroke="midnightblue" d="M267.01,-333.4C285.5,-328.13 306.39,-322.18 325.45,-316.75"/>
<polygon fill="midnightblue" stroke="midnightblue" points="326.57,-320.07 335.23,-313.96 324.65,-313.34 326.57,-320.07"/>
</g>
<!-- Node14 -->
<g id="node14" class="node">
<title>Node14</title>
<g id="a_node14"><a xlink:href="structft_1_1irc_1_1make__error.html#a49645e4bd33462f78ef25521c290437f" target="_top" xlink:title=" ">
<polygon fill="white" stroke="black" points="335.5,-235.5 335.5,-265.5 438.5,-265.5 438.5,-235.5 335.5,-235.5"/>
<text text-anchor="start" x="343.5" y="-253.5" font-family="Helvetica,sans-Serif" font-size="10.00">ft::irc::make_error</text>
<text text-anchor="middle" x="387" y="-242.5" font-family="Helvetica,sans-Serif" font-size="10.00">::not_registered</text>
</a>
</g>
</g>
<!-- Node3&#45;&gt;Node14 -->
<g id="edge13" class="edge">
<title>Node3&#45;&gt;Node14</title>
<path fill="none" stroke="midnightblue" d="M259.72,-333.4C264.77,-330.82 269.65,-327.87 274,-324.5 295.37,-307.96 288.12,-291.37 310,-275.5 314.83,-272 320.17,-268.97 325.72,-266.35"/>
<polygon fill="midnightblue" stroke="midnightblue" points="327.37,-269.45 335.21,-262.32 324.64,-263.01 327.37,-269.45"/>
</g>
<!-- Node15 -->
<g id="node15" class="node">
<title>Node15</title>
<g id="a_node15"><a xlink:href="classft_1_1irc_1_1message.html#a34f457ead0453ad914af2cb0482a40b9" target="_top" xlink:title=" ">
<polygon fill="white" stroke="black" points="310,-197 310,-216 464,-216 464,-197 310,-197"/>
<text text-anchor="middle" x="387" y="-204" font-family="Helvetica,sans-Serif" font-size="10.00">ft::irc::message::param_size</text>
</a>
</g>
</g>
<!-- Node3&#45;&gt;Node15 -->
<g id="edge14" class="edge">
<title>Node3&#45;&gt;Node15</title>
<path fill="none" stroke="midnightblue" d="M262.51,-333.49C266.71,-330.93 270.64,-327.96 274,-324.5 306.34,-291.23 275.67,-257.72 310,-226.5 312.3,-224.41 314.79,-222.53 317.42,-220.85"/>
<polygon fill="midnightblue" stroke="midnightblue" points="319.09,-223.92 326.23,-216.1 315.77,-217.76 319.09,-223.92"/>
</g>
<!-- Node16 -->
<g id="node16" class="node">
<title>Node16</title>
<g id="a_node16"><a xlink:href="classft_1_1irc_1_1user.html#a1db558d6d694ca943224c2440fe36c50" target="_top" xlink:title=" ">
<polygon fill="white" stroke="black" points="338,-147.5 338,-177.5 436,-177.5 436,-147.5 338,-147.5"/>
<text text-anchor="start" x="346" y="-165.5" font-family="Helvetica,sans-Serif" font-size="10.00">ft::irc::user::send</text>
<text text-anchor="middle" x="387" y="-154.5" font-family="Helvetica,sans-Serif" font-size="10.00">_message</text>
</a>
</g>
</g>
<!-- Node3&#45;&gt;Node16 -->
<g id="edge15" class="edge">
<title>Node3&#45;&gt;Node16</title>
<path fill="none" stroke="midnightblue" d="M263.43,-333.44C267.35,-330.91 270.95,-327.95 274,-324.5 315.68,-277.32 266.86,-233.35 310,-187.5 315.1,-182.08 321.4,-177.83 328.18,-174.5"/>
<polygon fill="midnightblue" stroke="midnightblue" points="329.78,-177.62 337.64,-170.51 327.06,-171.17 329.78,-177.62"/>
</g>
<!-- Node17 -->
<g id="node17" class="node">
<title>Node17</title>
<g id="a_node17"><a xlink:href="structft_1_1irc_1_1make__reply__base.html#a0286978513d0078fa15b5a0b68b326a4" target="_top" xlink:title=" ">
<polygon fill="white" stroke="black" points="319.5,-98.5 319.5,-128.5 454.5,-128.5 454.5,-98.5 319.5,-98.5"/>
<text text-anchor="start" x="327.5" y="-116.5" font-family="Helvetica,sans-Serif" font-size="10.00">ft::irc::make_reply</text>
<text text-anchor="middle" x="387" y="-105.5" font-family="Helvetica,sans-Serif" font-size="10.00">_base::set_server_name</text>
</a>
</g>
</g>
<!-- Node3&#45;&gt;Node17 -->
<g id="edge16" class="edge">
<title>Node3&#45;&gt;Node17</title>
<path fill="none" stroke="midnightblue" d="M263.96,-333.46C267.71,-330.92 271.14,-327.96 274,-324.5 327.64,-259.6 254.35,-201.69 310,-138.5 311.17,-137.17 312.41,-135.92 313.71,-134.73"/>
<polygon fill="midnightblue" stroke="midnightblue" points="315.91,-137.45 321.76,-128.62 311.68,-131.87 315.91,-137.45"/>
</g>
<!-- Node18 -->
<g id="node18" class="node">
<title>Node18</title>
<g id="a_node18"><a xlink:href="structft_1_1irc_1_1make__reply__base.html#a05d12bbf99ce4c8fde3cbb731135ff26" target="_top" xlink:title=" ">
<polygon fill="white" stroke="black" points="328,-49.5 328,-79.5 446,-79.5 446,-49.5 328,-49.5"/>
<text text-anchor="start" x="336" y="-67.5" font-family="Helvetica,sans-Serif" font-size="10.00">ft::irc::make_reply</text>
<text text-anchor="middle" x="387" y="-56.5" font-family="Helvetica,sans-Serif" font-size="10.00">_base::set_user_nick</text>
</a>
</g>
</g>
<!-- Node3&#45;&gt;Node18 -->
<g id="edge17" class="edge">
<title>Node3&#45;&gt;Node18</title>
<path fill="none" stroke="midnightblue" d="M264.38,-333.39C267.99,-330.87 271.28,-327.93 274,-324.5 339.71,-241.75 241.73,-170.14 310,-89.5 312.65,-86.37 315.7,-83.63 319.02,-81.23"/>
<polygon fill="midnightblue" stroke="midnightblue" points="321.02,-84.11 327.77,-75.94 317.4,-78.12 321.02,-84.11"/>
</g>
<!-- Node19 -->
<g id="node19" class="node">
<title>Node19</title>
<g id="a_node19"><a xlink:href="structft_1_1irc_1_1make__error.html#a67e1d93a440b1db3ddbf9bff22cd2d8b" target="_top" xlink:title=" ">
<polygon fill="white" stroke="black" points="326.5,-0.5 326.5,-30.5 447.5,-30.5 447.5,-0.5 326.5,-0.5"/>
<text text-anchor="start" x="334.5" y="-18.5" font-family="Helvetica,sans-Serif" font-size="10.00">ft::irc::make_error</text>
<text text-anchor="middle" x="387" y="-7.5" font-family="Helvetica,sans-Serif" font-size="10.00">::unknown_command</text>
</a>
</g>
</g>
<!-- Node3&#45;&gt;Node19 -->
<g id="edge18" class="edge">
<title>Node3&#45;&gt;Node19</title>
<path fill="none" stroke="midnightblue" d="M264.48,-333.46C268.07,-330.93 271.32,-327.96 274,-324.5 351.83,-223.85 229.06,-138.66 310,-40.5 312.28,-37.74 314.87,-35.28 317.68,-33.09"/>
<polygon fill="midnightblue" stroke="midnightblue" points="319.66,-35.98 326.15,-27.6 315.85,-30.1 319.66,-35.98"/>
</g>
<!-- Node5 -->
<g id="node5" class="node">
<title>Node5</title>
<g id="a_node5"><a xlink:href="classft_1_1irc_1_1processor__dictionary.html#ad4ae0363dd8c877b12114b358b0c2673" target="_top" xlink:title=" ">
<polygon fill="white" stroke="black" points="500,-656.5 500,-686.5 595,-686.5 595,-656.5 500,-656.5"/>
<text text-anchor="start" x="508" y="-674.5" font-family="Helvetica,sans-Serif" font-size="10.00">ft::irc::processor</text>
<text text-anchor="middle" x="547.5" y="-663.5" font-family="Helvetica,sans-Serif" font-size="10.00">_dictionary::init</text>
</a>
</g>
</g>
<!-- Node4&#45;&gt;Node5 -->
<g id="edge4" class="edge">
<title>Node4&#45;&gt;Node5</title>
<path fill="none" stroke="midnightblue" d="M434.7,-671.5C451.95,-671.5 471.7,-671.5 489.75,-671.5"/>
<polygon fill="midnightblue" stroke="midnightblue" points="489.86,-675 499.86,-671.5 489.86,-668 489.86,-675"/>
</g>
</g>
</svg>
