<?xml version="1.0" encoding="UTF-8" standalone="no"?>
<!DOCTYPE svg PUBLIC "-//W3C//DTD SVG 1.1//EN"
 "http://www.w3.org/Graphics/SVG/1.1/DTD/svg11.dtd">
<!-- Generated by graphviz version 2.43.0 (0)
 -->
<!-- Title: ft::irc::channel::leave_user Pages: 1 -->
<svg width="311pt" height="78pt"
 viewBox="0.00 0.00 311.00 77.50" xmlns="http://www.w3.org/2000/svg" xmlns:xlink="http://www.w3.org/1999/xlink">
<g id="graph0" class="graph" transform="scale(1 1) rotate(0) translate(4 73.5)">
<title>ft::irc::channel::leave_user</title>
<polygon fill="white" stroke="transparent" points="-4,4 -4,-73.5 307,-73.5 307,4 -4,4"/>
<!-- Node1 -->
<g id="node1" class="node">
<title>Node1</title>
<g id="a_node1"><a xlink:title=" ">
<polygon fill="#bfbfbf" stroke="black" points="0,-28 0,-47 145,-47 145,-28 0,-28"/>
<text text-anchor="middle" x="72.5" y="-35" font-family="Helvetica,sans-Serif" font-size="10.00">ft::irc::channel::leave_user</text>
</a>
</g>
</g>
<!-- Node2 -->
<g id="node2" class="node">
<title>Node2</title>
<g id="a_node2"><a xlink:href="classft_1_1irc_1_1user.html#a7277f06aa83459f6f9b409858d602e3b" target="_top" xlink:title=" ">
<polygon fill="white" stroke="black" points="181.5,-50 181.5,-69 302.5,-69 302.5,-50 181.5,-50"/>
<text text-anchor="middle" x="242" y="-57" font-family="Helvetica,sans-Serif" font-size="10.00">ft::irc::user::load_nick</text>
</a>
</g>
</g>
<!-- Node1&#45;&gt;Node2 -->
<g id="edge1" class="edge">
<title>Node1&#45;&gt;Node2</title>
<path fill="none" stroke="midnightblue" d="M145.02,-46.89C153.71,-48.04 162.58,-49.2 171.25,-50.34"/>
<polygon fill="midnightblue" stroke="midnightblue" points="170.93,-53.83 181.3,-51.66 171.85,-46.89 170.93,-53.83"/>
</g>
<!-- Node3 -->
<g id="node3" class="node">
<title>Node3</title>
<g id="a_node3"><a xlink:href="classft_1_1irc_1_1server.html#a9fff5c3bf3c7142c557cafbfd22f7767" target="_top" xlink:title=" ">
<polygon fill="white" stroke="black" points="181,-0.5 181,-30.5 303,-30.5 303,-0.5 181,-0.5"/>
<text text-anchor="start" x="189" y="-18.5" font-family="Helvetica,sans-Serif" font-size="10.00">ft::irc::server::remove</text>
<text text-anchor="middle" x="242" y="-7.5" font-family="Helvetica,sans-Serif" font-size="10.00">_channel</text>
</a>
</g>
</g>
<!-- Node1&#45;&gt;Node3 -->
<g id="edge2" class="edge">
<title>Node1&#45;&gt;Node3</title>
<path fill="none" stroke="midnightblue" d="M145.02,-28.11C153.58,-26.98 162.32,-25.83 170.87,-24.71"/>
<polygon fill="midnightblue" stroke="midnightblue" points="171.33,-28.18 180.79,-23.41 170.41,-21.24 171.33,-28.18"/>
</g>
</g>
</svg>
