<?xml version="1.0" encoding="UTF-8" standalone="no"?>
<!DOCTYPE svg PUBLIC "-//W3C//DTD SVG 1.1//EN"
 "http://www.w3.org/Graphics/SVG/1.1/DTD/svg11.dtd">
<!-- Generated by graphviz version 2.43.0 (0)
 -->
<!-- Title: ft::irc::bot_handler Pages: 1 -->
<svg width="562pt" height="269pt"
 viewBox="0.00 0.00 562.00 269.00" xmlns="http://www.w3.org/2000/svg" xmlns:xlink="http://www.w3.org/1999/xlink">
<g id="graph0" class="graph" transform="scale(1 1) rotate(0) translate(4 265)">
<title>ft::irc::bot_handler</title>
<polygon fill="white" stroke="transparent" points="-4,4 -4,-265 558,-265 558,4 -4,4"/>
<!-- Node1 -->
<g id="node1" class="node">
<title>Node1</title>
<g id="a_node1"><a xlink:title=" ">
<polygon fill="#bfbfbf" stroke="black" points="449,-179.5 449,-198.5 554,-198.5 554,-179.5 449,-179.5"/>
<text text-anchor="middle" x="501.5" y="-186.5" font-family="Helvetica,sans-Serif" font-size="10.00">ft::irc::bot_handler</text>
</a>
</g>
</g>
<!-- Node2 -->
<g id="node2" class="node">
<title>Node2</title>
<g id="a_node2"><a xlink:href="classft_1_1serv_1_1logic__adapter.html" target="_top" xlink:title=" ">
<polygon fill="white" stroke="black" points="272,-214.5 272,-233.5 394,-233.5 394,-214.5 272,-214.5"/>
<text text-anchor="middle" x="333" y="-221.5" font-family="Helvetica,sans-Serif" font-size="10.00">ft::serv::logic_adapter</text>
</a>
</g>
</g>
<!-- Node2&#45;&gt;Node1 -->
<g id="edge1" class="edge">
<title>Node2&#45;&gt;Node1</title>
<path fill="none" stroke="midnightblue" d="M389.39,-212.36C410.71,-207.87 434.78,-202.81 455.06,-198.55"/>
<polygon fill="midnightblue" stroke="midnightblue" points="388.56,-208.95 379.5,-214.44 390,-215.8 388.56,-208.95"/>
</g>
<!-- Node3 -->
<g id="node3" class="node">
<title>Node3</title>
<g id="a_node3"><a xlink:href="classft_1_1serv_1_1event__handler__base.html" target="_top" xlink:title=" ">
<polygon fill="white" stroke="black" points="0,-241.5 0,-260.5 154,-260.5 154,-241.5 0,-241.5"/>
<text text-anchor="middle" x="77" y="-248.5" font-family="Helvetica,sans-Serif" font-size="10.00">ft::serv::event_handler_base</text>
</a>
</g>
</g>
<!-- Node3&#45;&gt;Node2 -->
<g id="edge2" class="edge">
<title>Node3&#45;&gt;Node2</title>
<path fill="none" stroke="midnightblue" d="M164.53,-241.8C199.89,-238.04 239.92,-233.79 271.98,-230.38"/>
<polygon fill="midnightblue" stroke="midnightblue" points="163.78,-238.36 154.21,-242.9 164.52,-245.32 163.78,-238.36"/>
</g>
<!-- Node4 -->
<g id="node4" class="node">
<title>Node4</title>
<g id="a_node4"><a xlink:href="classft_1_1irc_1_1bot.html" target="_top" xlink:title=" ">
<polygon fill="white" stroke="black" points="301.5,-160.5 301.5,-179.5 364.5,-179.5 364.5,-160.5 301.5,-160.5"/>
<text text-anchor="middle" x="333" y="-167.5" font-family="Helvetica,sans-Serif" font-size="10.00">ft::irc::bot</text>
</a>
</g>
</g>
<!-- Node4&#45;&gt;Node1 -->
<g id="edge3" class="edge">
<title>Node4&#45;&gt;Node1</title>
<path fill="none" stroke="#9a32cd" stroke-dasharray="5,2" d="M374.94,-173.98C392.25,-175.73 412.62,-177.86 431,-180 436.8,-180.67 442.87,-181.41 448.9,-182.17"/>
<polygon fill="#9a32cd" stroke="#9a32cd" points="374.9,-170.46 364.6,-172.95 374.21,-177.43 374.9,-170.46"/>
<text text-anchor="middle" x="421.5" y="-183" font-family="Helvetica,sans-Serif" font-size="10.00"> bot</text>
</g>
<!-- Node5 -->
<g id="node5" class="node">
<title>Node5</title>
<g id="a_node5"><a xlink:title=" ">
<polygon fill="white" stroke="#bfbfbf" points="12.5,-192 12.5,-222 141.5,-222 141.5,-192 12.5,-192"/>
<text text-anchor="start" x="20.5" y="-210" font-family="Helvetica,sans-Serif" font-size="10.00">ft::enable_shared_from</text>
<text text-anchor="middle" x="77" y="-199" font-family="Helvetica,sans-Serif" font-size="10.00">_this&lt; bot &gt;</text>
</a>
</g>
</g>
<!-- Node5&#45;&gt;Node4 -->
<g id="edge4" class="edge">
<title>Node5&#45;&gt;Node4</title>
<path fill="none" stroke="midnightblue" d="M151.84,-196.24C201.56,-189 264.55,-179.83 301.35,-174.46"/>
<polygon fill="midnightblue" stroke="midnightblue" points="151.16,-192.81 141.77,-197.71 152.17,-199.73 151.16,-192.81"/>
</g>
<!-- Node6 -->
<g id="node6" class="node">
<title>Node6</title>
<g id="a_node6"><a xlink:href="structft_1_1serv_1_1fast__dictionary.html" target="_top" xlink:title=" ">
<polygon fill="white" stroke="black" points="5.5,-143 5.5,-173 148.5,-173 148.5,-143 5.5,-143"/>
<text text-anchor="start" x="13.5" y="-161" font-family="Helvetica,sans-Serif" font-size="10.00">ft::serv::fast_dictionary</text>
<text text-anchor="middle" x="77" y="-150" font-family="Helvetica,sans-Serif" font-size="10.00">&lt; std::string, std::string &gt;</text>
</a>
</g>
</g>
<!-- Node6&#45;&gt;Node4 -->
<g id="edge5" class="edge">
<title>Node6&#45;&gt;Node4</title>
<path fill="none" stroke="#9a32cd" stroke-dasharray="5,2" d="M158.94,-161.82C207.45,-164.12 266.35,-166.9 301.41,-168.55"/>
<polygon fill="#9a32cd" stroke="#9a32cd" points="158.91,-158.32 148.75,-161.34 158.58,-165.31 158.91,-158.32"/>
<text text-anchor="middle" x="213" y="-169" font-family="Helvetica,sans-Serif" font-size="10.00"> channel_owners</text>
</g>
<!-- Node7 -->
<g id="node7" class="node">
<title>Node7</title>
<g id="a_node7"><a xlink:title=" ">
<polygon fill="white" stroke="#bfbfbf" points="55,-60.5 55,-79.5 99,-79.5 99,-60.5 55,-60.5"/>
<text text-anchor="middle" x="77" y="-67.5" font-family="Helvetica,sans-Serif" font-size="10.00">string</text>
</a>
</g>
</g>
<!-- Node7&#45;&gt;Node4 -->
<g id="edge6" class="edge">
<title>Node7&#45;&gt;Node4</title>
<path fill="none" stroke="#9a32cd" stroke-dasharray="5,2" d="M109.18,-65.03C145.86,-60.69 207.61,-58.2 254,-81 289.96,-98.67 316.39,-141.06 326.95,-160.26"/>
<polygon fill="#9a32cd" stroke="#9a32cd" points="108.56,-61.58 99.1,-66.34 109.46,-68.52 108.56,-61.58"/>
<text text-anchor="middle" x="213" y="-150" font-family="Helvetica,sans-Serif" font-size="10.00"> hostname</text>
<text text-anchor="middle" x="213" y="-139" font-family="Helvetica,sans-Serif" font-size="10.00">nick</text>
<text text-anchor="middle" x="213" y="-128" font-family="Helvetica,sans-Serif" font-size="10.00">pass</text>
<text text-anchor="middle" x="213" y="-117" font-family="Helvetica,sans-Serif" font-size="10.00">path</text>
<text text-anchor="middle" x="213" y="-106" font-family="Helvetica,sans-Serif" font-size="10.00">realname</text>
<text text-anchor="middle" x="213" y="-95" font-family="Helvetica,sans-Serif" font-size="10.00">servername</text>
<text text-anchor="middle" x="213" y="-84" font-family="Helvetica,sans-Serif" font-size="10.00">username</text>
</g>
<!-- Node8 -->
<g id="node8" class="node">
<title>Node8</title>
<g id="a_node8"><a xlink:href="structft_1_1serv_1_1fast__dictionary.html" target="_top" xlink:title=" ">
<polygon fill="white" stroke="black" points="10,-0.5 10,-41.5 144,-41.5 144,-0.5 10,-0.5"/>
<text text-anchor="start" x="18" y="-29.5" font-family="Helvetica,sans-Serif" font-size="10.00">ft::serv::fast_dictionary</text>
<text text-anchor="start" x="18" y="-18.5" font-family="Helvetica,sans-Serif" font-size="10.00">&lt; std::string, std::vector</text>
<text text-anchor="middle" x="77" y="-7.5" font-family="Helvetica,sans-Serif" font-size="10.00">&lt; std::string &gt; &gt;</text>
</a>
</g>
</g>
<!-- Node8&#45;&gt;Node4 -->
<g id="edge7" class="edge">
<title>Node8&#45;&gt;Node4</title>
<path fill="none" stroke="#9a32cd" stroke-dasharray="5,2" d="M154.15,-18.49C187.13,-20.71 224.78,-28.01 254,-47 297.26,-75.1 321.1,-136.52 329.01,-160.32"/>
<polygon fill="#9a32cd" stroke="#9a32cd" points="154.25,-14.99 144.08,-17.95 153.88,-21.98 154.25,-14.99"/>
<text text-anchor="middle" x="213" y="-50" font-family="Helvetica,sans-Serif" font-size="10.00"> names_map</text>
</g>
</g>
</svg>
