<?xml version="1.0" encoding="UTF-8" standalone="no"?>
<!DOCTYPE svg PUBLIC "-//W3C//DTD SVG 1.1//EN"
 "http://www.w3.org/Graphics/SVG/1.1/DTD/svg11.dtd">
<!-- Generated by graphviz version 2.43.0 (0)
 -->
<!-- Title: ft::irc::processor_base Pages: 1 -->
<!--zoomable 810 -->
<svg id="main" version="1.1" xmlns="http://www.w3.org/2000/svg" xmlns:xlink="http://www.w3.org/1999/xlink" xml:space="preserve" onload="init(evt)">
<style type="text/css"><![CDATA[
.edge:hover path { stroke: red; }
.edge:hover polygon { stroke: red; fill: red; }
]]></style>
<script type="text/javascript"><![CDATA[
var edges = document.getElementsByTagName('g');
if (edges && edges.length) {
  for (var i=0;i<edges.length;i++) {
    if (edges[i].id.substr(0,4)=='edge') {
      edges[i].setAttribute('class','edge');
    }
  }
}
]]></script>
        <defs>
                <circle id="rim" cx="0" cy="0" r="7"/>
                <circle id="rim2" cx="0" cy="0" r="3.5"/>
                <g id="zoomPlus">
                        <use xlink:href="#rim" fill="#404040">
                                <set attributeName="fill" to="#808080" begin="zoomplus.mouseover" end="zoomplus.mouseout"/>
                        </use>
                        <path d="M-4,0h8M0,-4v8" fill="none" stroke="white" stroke-width="1.5" pointer-events="none"/>
                </g>
                <g id="zoomMin">
                        <use xlink:href="#rim" fill="#404040">
                                <set attributeName="fill" to="#808080" begin="zoomminus.mouseover" end="zoomminus.mouseout"/>
                        </use>
                        <path d="M-4,0h8" fill="none" stroke="white" stroke-width="1.5" pointer-events="none"/>
                </g>
                <g id="dirArrow">
                        <path fill="none" stroke="white" stroke-width="1.5" d="M0,-3.0v7 M-2.5,-0.5L0,-3.0L2.5,-0.5"/>
                </g>
               <g id="resetDef">
                       <use xlink:href="#rim2" fill="#404040">
                               <set attributeName="fill" to="#808080" begin="reset.mouseover" end="reset.mouseout"/>
                       </use>
               </g>
        </defs>

<script type="text/javascript">
var viewWidth = 426;
var viewHeight = 810;
var sectionId = 'dynsection-0';
</script>
<script xlink:href="svgpan.js"/>
<svg id="graph" class="graph">
<g id="viewport">
<title>ft::irc::processor_base</title>
<polygon fill="white" stroke="transparent" points="-4,4 -4,-805.5 422,-805.5 422,4 -4,4"/>
<!-- Node1 -->
<g id="node1" class="node">
<title>Node1</title>
<g id="a_node1"><a xlink:title=" ">
<polygon fill="#bfbfbf" stroke="black" points="0,-388 0,-407 123,-407 123,-388 0,-388"/>
<text text-anchor="middle" x="61.5" y="-395" font-family="Helvetica,sans-Serif" font-size="10.00">ft::irc::processor_base</text>
</a>
</g>
</g>
<!-- Node2 -->
<g id="node2" class="node">
<title>Node2</title>
<g id="a_node2"><a xlink:href="classft_1_1irc_1_1processor__away.html" target="_top" xlink:title=" ">
<polygon fill="white" stroke="black" points="160,-782 160,-801 286,-801 286,-782 160,-782"/>
<text text-anchor="middle" x="223" y="-789" font-family="Helvetica,sans-Serif" font-size="10.00">ft::irc::processor_away</text>
</a>
</g>
</g>
<!-- Node1&#45;&gt;Node2 -->
<g id="edge1" class="edge">
<title>Node1&#45;&gt;Node2</title>
<path fill="none" stroke="midnightblue" d="M65.03,-417.37C74.3,-487.18 108.51,-719.9 159,-772.5 162.72,-776.37 167.19,-779.47 172.03,-781.93"/>
<polygon fill="midnightblue" stroke="midnightblue" points="68.48,-416.74 63.72,-407.28 61.54,-417.65 68.48,-416.74"/>
</g>
<!-- Node3 -->
<g id="node3" class="node">
<title>Node3</title>
<g id="a_node3"><a xlink:href="classft_1_1irc_1_1processor__cap.html" target="_top" xlink:title=" ">
<polygon fill="white" stroke="black" points="164.5,-744 164.5,-763 281.5,-763 281.5,-744 164.5,-744"/>
<text text-anchor="middle" x="223" y="-751" font-family="Helvetica,sans-Serif" font-size="10.00">ft::irc::processor_cap</text>
</a>
</g>
</g>
<!-- Node1&#45;&gt;Node3 -->
<g id="edge2" class="edge">
<title>Node1&#45;&gt;Node3</title>
<path fill="none" stroke="midnightblue" d="M62.04,-417.39C61.81,-474.98 69.25,-643.49 159,-734.5 162.85,-738.4 167.47,-741.51 172.44,-743.99"/>
<polygon fill="midnightblue" stroke="midnightblue" points="65.54,-417.18 62.17,-407.13 58.54,-417.09 65.54,-417.18"/>
</g>
<!-- Node4 -->
<g id="node4" class="node">
<title>Node4</title>
<g id="a_node4"><a xlink:href="classft_1_1irc_1_1processor__invite.html" target="_top" xlink:title=" ">
<polygon fill="white" stroke="black" points="175.5,-694.5 175.5,-724.5 270.5,-724.5 270.5,-694.5 175.5,-694.5"/>
<text text-anchor="start" x="183.5" y="-712.5" font-family="Helvetica,sans-Serif" font-size="10.00">ft::irc::processor</text>
<text text-anchor="middle" x="223" y="-701.5" font-family="Helvetica,sans-Serif" font-size="10.00">_invite</text>
</a>
</g>
</g>
<!-- Node1&#45;&gt;Node4 -->
<g id="edge3" class="edge">
<title>Node1&#45;&gt;Node4</title>
<path fill="none" stroke="midnightblue" d="M63.58,-417.13C67.42,-468.06 84.53,-605.94 159,-684.5 163.61,-689.37 169.3,-693.31 175.34,-696.49"/>
<polygon fill="midnightblue" stroke="midnightblue" points="67.07,-416.87 62.92,-407.13 60.09,-417.34 67.07,-416.87"/>
</g>
<!-- Node5 -->
<g id="node5" class="node">
<title>Node5</title>
<g id="a_node5"><a xlink:href="classft_1_1irc_1_1processor__join.html" target="_top" xlink:title=" ">
<polygon fill="white" stroke="black" points="164,-656 164,-675 282,-675 282,-656 164,-656"/>
<text text-anchor="middle" x="223" y="-663" font-family="Helvetica,sans-Serif" font-size="10.00">ft::irc::processor_join</text>
</a>
</g>
</g>
<!-- Node1&#45;&gt;Node5 -->
<g id="edge4" class="edge">
<title>Node1&#45;&gt;Node5</title>
<path fill="none" stroke="midnightblue" d="M64.33,-417.03C69.77,-463.71 90.02,-582.62 159,-646.5 163.19,-650.38 168.15,-653.47 173.41,-655.93"/>
<polygon fill="midnightblue" stroke="midnightblue" points="67.81,-416.6 63.27,-407.03 60.85,-417.34 67.81,-416.6"/>
</g>
<!-- Node6 -->
<g id="node6" class="node">
<title>Node6</title>
<g id="a_node6"><a xlink:href="classft_1_1irc_1_1processor__kick.html" target="_top" xlink:title=" ">
<polygon fill="white" stroke="black" points="163,-618 163,-637 283,-637 283,-618 163,-618"/>
<text text-anchor="middle" x="223" y="-625" font-family="Helvetica,sans-Serif" font-size="10.00">ft::irc::processor_kick</text>
</a>
</g>
</g>
<!-- Node1&#45;&gt;Node6 -->
<g id="edge5" class="edge">
<title>Node1&#45;&gt;Node6</title>
<path fill="none" stroke="midnightblue" d="M65.88,-417.1C74.08,-458.66 98.94,-556.1 159,-608.5 163.48,-612.41 168.73,-615.51 174.27,-617.97"/>
<polygon fill="midnightblue" stroke="midnightblue" points="69.3,-416.35 64.03,-407.15 62.42,-417.63 69.3,-416.35"/>
</g>
<!-- Node7 -->
<g id="node7" class="node">
<title>Node7</title>
<g id="a_node7"><a xlink:href="classft_1_1irc_1_1processor__kill.html" target="_top" xlink:title=" ">
<polygon fill="white" stroke="black" points="165.5,-580 165.5,-599 280.5,-599 280.5,-580 165.5,-580"/>
<text text-anchor="middle" x="223" y="-587" font-family="Helvetica,sans-Serif" font-size="10.00">ft::irc::processor_kill</text>
</a>
</g>
</g>
<!-- Node1&#45;&gt;Node7 -->
<g id="edge6" class="edge">
<title>Node1&#45;&gt;Node7</title>
<path fill="none" stroke="midnightblue" d="M67.91,-416.7C78.96,-452.39 107.52,-529.08 159,-570.5 163.81,-574.37 169.39,-577.45 175.21,-579.9"/>
<polygon fill="midnightblue" stroke="midnightblue" points="71.24,-415.62 65.04,-407.02 64.53,-417.61 71.24,-415.62"/>
</g>
<!-- Node8 -->
<g id="node8" class="node">
<title>Node8</title>
<g id="a_node8"><a xlink:href="classft_1_1irc_1_1processor__list.html" target="_top" xlink:title=" ">
<polygon fill="white" stroke="black" points="165.5,-542 165.5,-561 280.5,-561 280.5,-542 165.5,-542"/>
<text text-anchor="middle" x="223" y="-549" font-family="Helvetica,sans-Serif" font-size="10.00">ft::irc::processor_list</text>
</a>
</g>
</g>
<!-- Node1&#45;&gt;Node8 -->
<g id="edge7" class="edge">
<title>Node1&#45;&gt;Node8</title>
<path fill="none" stroke="midnightblue" d="M71.11,-416.29C85.33,-445.24 116.43,-500.65 159,-531.5 164.95,-535.81 171.86,-539.21 178.88,-541.9"/>
<polygon fill="midnightblue" stroke="midnightblue" points="74.26,-414.75 66.8,-407.23 67.94,-417.76 74.26,-414.75"/>
</g>
<!-- Node9 -->
<g id="node9" class="node">
<title>Node9</title>
<g id="a_node9"><a xlink:href="classft_1_1irc_1_1processor__message__base.html" target="_top" xlink:title=" ">
<polygon fill="white" stroke="black" points="175.5,-492.5 175.5,-522.5 270.5,-522.5 270.5,-492.5 175.5,-492.5"/>
<text text-anchor="start" x="183.5" y="-510.5" font-family="Helvetica,sans-Serif" font-size="10.00">ft::irc::processor</text>
<text text-anchor="middle" x="223" y="-499.5" font-family="Helvetica,sans-Serif" font-size="10.00">_message_base</text>
</a>
</g>
</g>
<!-- Node1&#45;&gt;Node9 -->
<g id="edge8" class="edge">
<title>Node1&#45;&gt;Node9</title>
<path fill="none" stroke="midnightblue" d="M78.34,-414.61C96.39,-433.32 127.5,-463.19 159,-482.5 165.02,-486.19 171.68,-489.52 178.35,-492.47"/>
<polygon fill="midnightblue" stroke="midnightblue" points="80.65,-411.96 71.22,-407.12 75.57,-416.78 80.65,-411.96"/>
</g>
<!-- Node12 -->
<g id="node12" class="node">
<title>Node12</title>
<g id="a_node12"><a xlink:href="classft_1_1irc_1_1processor__mode.html" target="_top" xlink:title=" ">
<polygon fill="white" stroke="black" points="159,-454 159,-473 287,-473 287,-454 159,-454"/>
<text text-anchor="middle" x="223" y="-461" font-family="Helvetica,sans-Serif" font-size="10.00">ft::irc::processor_mode</text>
</a>
</g>
</g>
<!-- Node1&#45;&gt;Node12 -->
<g id="edge11" class="edge">
<title>Node1&#45;&gt;Node12</title>
<path fill="none" stroke="midnightblue" d="M89.68,-411.69C108.78,-421.35 135.08,-434.05 159,-443.5 168.61,-447.29 179.24,-450.89 189,-453.96"/>
<polygon fill="midnightblue" stroke="midnightblue" points="91.16,-408.52 80.67,-407.08 87.98,-414.75 91.16,-408.52"/>
</g>
<!-- Node13 -->
<g id="node13" class="node">
<title>Node13</title>
<g id="a_node13"><a xlink:href="classft_1_1irc_1_1processor__names.html" target="_top" xlink:title=" ">
<polygon fill="white" stroke="black" points="175.5,-404.5 175.5,-434.5 270.5,-434.5 270.5,-404.5 175.5,-404.5"/>
<text text-anchor="start" x="183.5" y="-422.5" font-family="Helvetica,sans-Serif" font-size="10.00">ft::irc::processor</text>
<text text-anchor="middle" x="223" y="-411.5" font-family="Helvetica,sans-Serif" font-size="10.00">_names</text>
</a>
</g>
</g>
<!-- Node1&#45;&gt;Node13 -->
<g id="edge12" class="edge">
<title>Node1&#45;&gt;Node13</title>
<path fill="none" stroke="midnightblue" d="M133.48,-407.29C147.66,-409.25 162.2,-411.25 175.31,-413.06"/>
<polygon fill="midnightblue" stroke="midnightblue" points="133.64,-403.78 123.26,-405.88 132.68,-410.71 133.64,-403.78"/>
</g>
<!-- Node14 -->
<g id="node14" class="node">
<title>Node14</title>
<g id="a_node14"><a xlink:href="classft_1_1irc_1_1processor__nick.html" target="_top" xlink:title=" ">
<polygon fill="white" stroke="black" points="163,-366 163,-385 283,-385 283,-366 163,-366"/>
<text text-anchor="middle" x="223" y="-373" font-family="Helvetica,sans-Serif" font-size="10.00">ft::irc::processor_nick</text>
</a>
</g>
</g>
<!-- Node1&#45;&gt;Node14 -->
<g id="edge13" class="edge">
<title>Node1&#45;&gt;Node14</title>
<path fill="none" stroke="midnightblue" d="M133.45,-387.71C143.32,-386.35 153.37,-384.97 162.99,-383.64"/>
<polygon fill="midnightblue" stroke="midnightblue" points="132.68,-384.29 123.26,-389.12 133.64,-391.22 132.68,-384.29"/>
</g>
<!-- Node15 -->
<g id="node15" class="node">
<title>Node15</title>
<g id="a_node15"><a xlink:href="classft_1_1irc_1_1processor__oper.html" target="_top" xlink:title=" ">
<polygon fill="white" stroke="black" points="162,-328 162,-347 284,-347 284,-328 162,-328"/>
<text text-anchor="middle" x="223" y="-335" font-family="Helvetica,sans-Serif" font-size="10.00">ft::irc::processor_oper</text>
</a>
</g>
</g>
<!-- Node1&#45;&gt;Node15 -->
<g id="edge14" class="edge">
<title>Node1&#45;&gt;Node15</title>
<path fill="none" stroke="midnightblue" d="M92.59,-383.72C111.46,-375.32 136.41,-364.68 159,-356.5 168.24,-353.16 178.38,-349.91 187.77,-347.08"/>
<polygon fill="midnightblue" stroke="midnightblue" points="91.01,-380.59 83.32,-387.87 93.88,-386.97 91.01,-380.59"/>
</g>
<!-- Node16 -->
<g id="node16" class="node">
<title>Node16</title>
<g id="a_node16"><a xlink:href="classft_1_1irc_1_1processor__part.html" target="_top" xlink:title=" ">
<polygon fill="white" stroke="black" points="163.5,-290 163.5,-309 282.5,-309 282.5,-290 163.5,-290"/>
<text text-anchor="middle" x="223" y="-297" font-family="Helvetica,sans-Serif" font-size="10.00">ft::irc::processor_part</text>
</a>
</g>
</g>
<!-- Node1&#45;&gt;Node16 -->
<g id="edge15" class="edge">
<title>Node1&#45;&gt;Node16</title>
<path fill="none" stroke="midnightblue" d="M79.11,-380.38C97.24,-362.59 127.85,-335.1 159,-318.5 166.06,-314.74 173.97,-311.62 181.73,-309.06"/>
<polygon fill="midnightblue" stroke="midnightblue" points="76.3,-378.24 71.7,-387.79 81.25,-383.19 76.3,-378.24"/>
</g>
<!-- Node17 -->
<g id="node17" class="node">
<title>Node17</title>
<g id="a_node17"><a xlink:href="classft_1_1irc_1_1processor__pass.html" target="_top" xlink:title=" ">
<polygon fill="white" stroke="black" points="162,-252 162,-271 284,-271 284,-252 162,-252"/>
<text text-anchor="middle" x="223" y="-259" font-family="Helvetica,sans-Serif" font-size="10.00">ft::irc::processor_pass</text>
</a>
</g>
</g>
<!-- Node1&#45;&gt;Node17 -->
<g id="edge16" class="edge">
<title>Node1&#45;&gt;Node17</title>
<path fill="none" stroke="midnightblue" d="M72.99,-378.86C88.49,-353 119.93,-306.49 159,-280.5 164.8,-276.64 171.42,-273.54 178.13,-271.06"/>
<polygon fill="midnightblue" stroke="midnightblue" points="69.86,-377.28 67.85,-387.68 75.91,-380.8 69.86,-377.28"/>
</g>
<!-- Node18 -->
<g id="node18" class="node">
<title>Node18</title>
<g id="a_node18"><a xlink:href="classft_1_1irc_1_1processor__ping.html" target="_top" xlink:title=" ">
<polygon fill="white" stroke="black" points="162.5,-214 162.5,-233 283.5,-233 283.5,-214 162.5,-214"/>
<text text-anchor="middle" x="223" y="-221" font-family="Helvetica,sans-Serif" font-size="10.00">ft::irc::processor_ping</text>
</a>
</g>
</g>
<!-- Node1&#45;&gt;Node18 -->
<g id="edge17" class="edge">
<title>Node1&#45;&gt;Node18</title>
<path fill="none" stroke="midnightblue" d="M69.34,-378.05C81.89,-345.18 111.74,-278.68 159,-242.5 164.08,-238.61 169.95,-235.51 176.03,-233.05"/>
<polygon fill="midnightblue" stroke="midnightblue" points="65.91,-377.22 65.74,-387.82 72.48,-379.64 65.91,-377.22"/>
</g>
<!-- Node19 -->
<g id="node19" class="node">
<title>Node19</title>
<g id="a_node19"><a xlink:href="classft_1_1irc_1_1processor__quit.html" target="_top" xlink:title=" ">
<polygon fill="white" stroke="black" points="163.5,-176 163.5,-195 282.5,-195 282.5,-176 163.5,-176"/>
<text text-anchor="middle" x="223" y="-183" font-family="Helvetica,sans-Serif" font-size="10.00">ft::irc::processor_quit</text>
</a>
</g>
</g>
<!-- Node1&#45;&gt;Node19 -->
<g id="edge18" class="edge">
<title>Node1&#45;&gt;Node19</title>
<path fill="none" stroke="midnightblue" d="M66.84,-377.73C76.45,-338.71 103.19,-251.51 159,-204.5 163.63,-200.6 169.04,-197.5 174.72,-195.04"/>
<polygon fill="midnightblue" stroke="midnightblue" points="63.36,-377.26 64.49,-387.79 70.17,-378.85 63.36,-377.26"/>
</g>
<!-- Node20 -->
<g id="node20" class="node">
<title>Node20</title>
<g id="a_node20"><a xlink:href="classft_1_1irc_1_1processor__topic.html" target="_top" xlink:title=" ">
<polygon fill="white" stroke="black" points="175.5,-126.5 175.5,-156.5 270.5,-156.5 270.5,-126.5 175.5,-126.5"/>
<text text-anchor="start" x="183.5" y="-144.5" font-family="Helvetica,sans-Serif" font-size="10.00">ft::irc::processor</text>
<text text-anchor="middle" x="223" y="-133.5" font-family="Helvetica,sans-Serif" font-size="10.00">_topic</text>
</a>
</g>
</g>
<!-- Node1&#45;&gt;Node20 -->
<g id="edge19" class="edge">
<title>Node1&#45;&gt;Node20</title>
<path fill="none" stroke="midnightblue" d="M65.47,-377.67C73.06,-333.74 97.1,-227.3 159,-166.5 163.7,-161.88 169.36,-158.09 175.33,-154.98"/>
<polygon fill="midnightblue" stroke="midnightblue" points="62,-377.22 63.85,-387.65 68.91,-378.34 62,-377.22"/>
</g>
<!-- Node21 -->
<g id="node21" class="node">
<title>Node21</title>
<g id="a_node21"><a xlink:href="classft_1_1irc_1_1processor__user.html" target="_top" xlink:title=" ">
<polygon fill="white" stroke="black" points="162.5,-88 162.5,-107 283.5,-107 283.5,-88 162.5,-88"/>
<text text-anchor="middle" x="223" y="-95" font-family="Helvetica,sans-Serif" font-size="10.00">ft::irc::processor_user</text>
</a>
</g>
</g>
<!-- Node1&#45;&gt;Node21 -->
<g id="edge20" class="edge">
<title>Node1&#45;&gt;Node21</title>
<path fill="none" stroke="midnightblue" d="M63.37,-377.59C66.69,-326.57 82.64,-190.02 159,-116.5 163.03,-112.62 167.83,-109.53 172.95,-107.06"/>
<polygon fill="midnightblue" stroke="midnightblue" points="59.86,-377.7 62.8,-387.88 66.85,-378.09 59.86,-377.7"/>
</g>
<!-- Node22 -->
<g id="node22" class="node">
<title>Node22</title>
<g id="a_node22"><a xlink:href="classft_1_1irc_1_1processor__who.html" target="_top" xlink:title=" ">
<polygon fill="white" stroke="black" points="163,-50 163,-69 283,-69 283,-50 163,-50"/>
<text text-anchor="middle" x="223" y="-57" font-family="Helvetica,sans-Serif" font-size="10.00">ft::irc::processor_who</text>
</a>
</g>
</g>
<!-- Node1&#45;&gt;Node22 -->
<g id="edge21" class="edge">
<title>Node1&#45;&gt;Node22</title>
<path fill="none" stroke="midnightblue" d="M62.42,-377.56C63.3,-321.99 73.59,-163.83 159,-78.5 162.88,-74.62 167.52,-71.53 172.5,-69.07"/>
<polygon fill="midnightblue" stroke="midnightblue" points="58.92,-377.78 62.35,-387.8 65.92,-377.82 58.92,-377.78"/>
</g>
<!-- Node23 -->
<g id="node23" class="node">
<title>Node23</title>
<g id="a_node23"><a xlink:href="classft_1_1irc_1_1processor__whois.html" target="_top" xlink:title=" ">
<polygon fill="white" stroke="black" points="175.5,-0.5 175.5,-30.5 270.5,-30.5 270.5,-0.5 175.5,-0.5"/>
<text text-anchor="start" x="183.5" y="-18.5" font-family="Helvetica,sans-Serif" font-size="10.00">ft::irc::processor</text>
<text text-anchor="middle" x="223" y="-7.5" font-family="Helvetica,sans-Serif" font-size="10.00">_whois</text>
</a>
</g>
</g>
<!-- Node1&#45;&gt;Node23 -->
<g id="edge22" class="edge">
<title>Node1&#45;&gt;Node23</title>
<path fill="none" stroke="midnightblue" d="M62.04,-377.6C61.74,-318.46 68.84,-141.55 159,-40.5 163.54,-35.41 169.26,-31.34 175.39,-28.09"/>
<polygon fill="midnightblue" stroke="midnightblue" points="58.54,-377.85 62.17,-387.8 65.54,-377.76 58.54,-377.85"/>
</g>
<!-- Node10 -->
<g id="node10" class="node">
<title>Node10</title>
<g id="a_node10"><a xlink:href="classft_1_1irc_1_1processor__notice.html" target="_top" xlink:title=" ">
<polygon fill="white" stroke="black" points="323,-516.5 323,-546.5 418,-546.5 418,-516.5 323,-516.5"/>
<text text-anchor="start" x="331" y="-534.5" font-family="Helvetica,sans-Serif" font-size="10.00">ft::irc::processor</text>
<text text-anchor="middle" x="370.5" y="-523.5" font-family="Helvetica,sans-Serif" font-size="10.00">_notice</text>
</a>
</g>
</g>
<!-- Node9&#45;&gt;Node10 -->
<g id="edge9" class="edge">
<title>Node9&#45;&gt;Node10</title>
<path fill="none" stroke="midnightblue" d="M280.78,-516.87C294.67,-519.16 309.39,-521.58 322.75,-523.79"/>
<polygon fill="midnightblue" stroke="midnightblue" points="281.27,-513.4 270.84,-515.23 280.14,-520.31 281.27,-513.4"/>
</g>
<!-- Node11 -->
<g id="node11" class="node">
<title>Node11</title>
<g id="a_node11"><a xlink:href="classft_1_1irc_1_1processor__privmsg.html" target="_top" xlink:title=" ">
<polygon fill="white" stroke="black" points="323,-467.5 323,-497.5 418,-497.5 418,-467.5 323,-467.5"/>
<text text-anchor="start" x="331" y="-485.5" font-family="Helvetica,sans-Serif" font-size="10.00">ft::irc::processor</text>
<text text-anchor="middle" x="370.5" y="-474.5" font-family="Helvetica,sans-Serif" font-size="10.00">_privmsg</text>
</a>
</g>
</g>
<!-- Node9&#45;&gt;Node11 -->
<g id="edge10" class="edge">
<title>Node9&#45;&gt;Node11</title>
<path fill="none" stroke="midnightblue" d="M280.78,-497.74C294.67,-495.36 309.39,-492.83 322.75,-490.53"/>
<polygon fill="midnightblue" stroke="midnightblue" points="280.1,-494.31 270.84,-499.45 281.29,-501.21 280.1,-494.31"/>
</g>
</g>
</svg>
        <g id="navigator" transform="translate(0 0)" fill="#404254">
                <rect fill="#f2f5e9" fill-opacity="0.5" stroke="#606060" stroke-width=".5" x="0" y="0" width="60" height="60"/>
                <use id="zoomplus" xlink:href="#zoomPlus" x="17" y="9" onmousedown="handleZoom(evt,'in')"/>
                <use id="zoomminus" xlink:href="#zoomMin" x="42" y="9" onmousedown="handleZoom(evt,'out')"/>
                <use id="reset" xlink:href="#resetDef" x="30" y="36" onmousedown="handleReset()"/>
                <g id="arrowUp" xlink:href="#dirArrow" transform="translate(30 24)" onmousedown="handlePan(0,-1)">
                  <use xlink:href="#rim" fill="#404040">
                        <set attributeName="fill" to="#808080" begin="arrowUp.mouseover" end="arrowUp.mouseout"/>
                  </use>
                  <path fill="none" stroke="white" stroke-width="1.5" d="M0,-3.0v7 M-2.5,-0.5L0,-3.0L2.5,-0.5"/>
                </g>
                <g id="arrowRight" xlink:href="#dirArrow" transform="rotate(90) translate(36 -43)" onmousedown="handlePan(1,0)">
                  <use xlink:href="#rim" fill="#404040">
                        <set attributeName="fill" to="#808080" begin="arrowRight.mouseover" end="arrowRight.mouseout"/>
                  </use>
                  <path fill="none" stroke="white" stroke-width="1.5" d="M0,-3.0v7 M-2.5,-0.5L0,-3.0L2.5,-0.5"/>
                </g>
                <g id="arrowDown" xlink:href="#dirArrow" transform="rotate(180) translate(-30 -48)" onmousedown="handlePan(0,1)">
                  <use xlink:href="#rim" fill="#404040">
                        <set attributeName="fill" to="#808080" begin="arrowDown.mouseover" end="arrowDown.mouseout"/>
                  </use>
                  <path fill="none" stroke="white" stroke-width="1.5" d="M0,-3.0v7 M-2.5,-0.5L0,-3.0L2.5,-0.5"/>
                </g>
                <g id="arrowLeft" xlink:href="#dirArrow" transform="rotate(270) translate(-36 17)" onmousedown="handlePan(-1,0)">
                  <use xlink:href="#rim" fill="#404040">
                        <set attributeName="fill" to="#808080" begin="arrowLeft.mouseover" end="arrowLeft.mouseout"/>
                  </use>
                  <path fill="none" stroke="white" stroke-width="1.5" d="M0,-3.0v7 M-2.5,-0.5L0,-3.0L2.5,-0.5"/>
                </g>
        </g>
        <svg viewBox="0 0 15 15" width="100%" height="30px" preserveAspectRatio="xMaxYMin meet">
         <g id="arrow_out" transform="scale(0.3 0.3)">
          <a xlink:href="classft_1_1irc_1_1processor__base__inherit__graph_org.svg" target="_base">
           <rect id="button" ry="5" rx="5" y="6" x="6" height="38" width="38"
                fill="#f2f5e9" fill-opacity="0.5" stroke="#606060" stroke-width="1.0"/>
           <path id="arrow"
             d="M 11.500037,31.436501 C 11.940474,20.09759 22.043105,11.32322 32.158766,21.979434 L 37.068811,17.246167 C 37.068811,17.246167 37.088388,32 37.088388,32 L 22.160133,31.978069 C 22.160133,31.978069 26.997745,27.140456 26.997745,27.140456 C 18.528582,18.264221 13.291696,25.230495 11.500037,31.436501 z"
             style="fill:#404040;"/>
          </a>
         </g>
        </svg>
</svg>
