<?xml version="1.0" encoding="UTF-8" standalone="no"?>
<!DOCTYPE svg PUBLIC "-//W3C//DTD SVG 1.1//EN"
 "http://www.w3.org/Graphics/SVG/1.1/DTD/svg11.dtd">
<!-- Generated by graphviz version 2.43.0 (0)
 -->
<!-- Title: ft::irc::processor_mode::execute Pages: 1 -->
<svg width="809pt" height="942pt"
 viewBox="0.00 0.00 809.00 941.50" xmlns="http://www.w3.org/2000/svg" xmlns:xlink="http://www.w3.org/1999/xlink">
<g id="graph0" class="graph" transform="scale(1 1) rotate(0) translate(4 937.5)">
<title>ft::irc::processor_mode::execute</title>
<polygon fill="white" stroke="transparent" points="-4,4 -4,-937.5 805,-937.5 805,4 -4,4"/>
<!-- Node1 -->
<g id="node1" class="node">
<title>Node1</title>
<g id="a_node1"><a xlink:title=" ">
<polygon fill="#bfbfbf" stroke="black" points="0,-445.5 0,-475.5 95,-475.5 95,-445.5 0,-445.5"/>
<text text-anchor="start" x="8" y="-463.5" font-family="Helvetica,sans-Serif" font-size="10.00">ft::irc::processor</text>
<text text-anchor="middle" x="47.5" y="-452.5" font-family="Helvetica,sans-Serif" font-size="10.00">_mode::execute</text>
</a>
</g>
</g>
<!-- Node2 -->
<g id="node2" class="node">
<title>Node2</title>
<g id="a_node2"><a xlink:href="classft_1_1irc_1_1channel.html#a4250c6f755016a2f80ae04de5ffed80f" target="_top" xlink:title=" ">
<polygon fill="white" stroke="black" points="144,-914 144,-933 284,-933 284,-914 144,-914"/>
<text text-anchor="middle" x="214" y="-921" font-family="Helvetica,sans-Serif" font-size="10.00">ft::irc::channel::broadcast</text>
</a>
</g>
</g>
<!-- Node1&#45;&gt;Node2 -->
<g id="edge1" class="edge">
<title>Node1&#45;&gt;Node2</title>
<path fill="none" stroke="midnightblue" d="M49.15,-475.65C52.5,-546.09 70.02,-840.77 131,-904.5 132.4,-905.96 133.89,-907.33 135.46,-908.59"/>
<polygon fill="midnightblue" stroke="midnightblue" points="133.58,-911.55 143.85,-914.15 137.45,-905.71 133.58,-911.55"/>
</g>
<!-- Node3 -->
<g id="node3" class="node">
<title>Node3</title>
<g id="a_node3"><a xlink:href="structft_1_1irc_1_1make__reply.html#a96d5812dff74345fdafb86a7a8c404ce" target="_top" xlink:title=" ">
<polygon fill="white" stroke="black" points="160.5,-864.5 160.5,-894.5 267.5,-894.5 267.5,-864.5 160.5,-864.5"/>
<text text-anchor="start" x="168.5" y="-882.5" font-family="Helvetica,sans-Serif" font-size="10.00">ft::irc::make_reply</text>
<text text-anchor="middle" x="214" y="-871.5" font-family="Helvetica,sans-Serif" font-size="10.00">::channel_mode_is</text>
</a>
</g>
</g>
<!-- Node1&#45;&gt;Node3 -->
<g id="edge2" class="edge">
<title>Node1&#45;&gt;Node3</title>
<path fill="none" stroke="midnightblue" d="M49.64,-475.59C54.84,-540.7 78.42,-796.99 131,-854.5 136.44,-860.45 143.24,-865 150.59,-868.47"/>
<polygon fill="midnightblue" stroke="midnightblue" points="149.55,-871.83 160.13,-872.33 152.17,-865.34 149.55,-871.83"/>
</g>
<!-- Node4 -->
<g id="node4" class="node">
<title>Node4</title>
<g id="a_node4"><a xlink:href="structft_1_1irc_1_1make__error.html#aca1c9bea6c7e51af32e12989b1ff36fd" target="_top" xlink:title=" ">
<polygon fill="white" stroke="black" points="133.5,-804 133.5,-845 294.5,-845 294.5,-804 133.5,-804"/>
<text text-anchor="start" x="141.5" y="-833" font-family="Helvetica,sans-Serif" font-size="10.00">ft::irc::make_error</text>
<text text-anchor="start" x="141.5" y="-822" font-family="Helvetica,sans-Serif" font-size="10.00">::channel_operator_privileges</text>
<text text-anchor="middle" x="214" y="-811" font-family="Helvetica,sans-Serif" font-size="10.00">_needed</text>
</a>
</g>
</g>
<!-- Node1&#45;&gt;Node4 -->
<g id="edge3" class="edge">
<title>Node1&#45;&gt;Node4</title>
<path fill="none" stroke="midnightblue" d="M50.33,-475.56C57.73,-534.08 87.13,-745.59 131,-794.5 131.88,-795.48 132.8,-796.44 133.75,-797.36"/>
<polygon fill="midnightblue" stroke="midnightblue" points="131.65,-800.16 141.59,-803.82 136.1,-794.76 131.65,-800.16"/>
</g>
<!-- Node5 -->
<g id="node5" class="node">
<title>Node5</title>
<g id="a_node5"><a xlink:href="classft_1_1irc_1_1server.html#a0e7dee7efef3f36af15d1a3b97f3bad9" target="_top" xlink:title=" ">
<polygon fill="white" stroke="black" points="163,-754.5 163,-784.5 265,-784.5 265,-754.5 163,-754.5"/>
<text text-anchor="start" x="171" y="-772.5" font-family="Helvetica,sans-Serif" font-size="10.00">ft::irc::server::find</text>
<text text-anchor="middle" x="214" y="-761.5" font-family="Helvetica,sans-Serif" font-size="10.00">_channel</text>
</a>
</g>
</g>
<!-- Node1&#45;&gt;Node5 -->
<g id="edge4" class="edge">
<title>Node1&#45;&gt;Node5</title>
<path fill="none" stroke="midnightblue" d="M48.2,-475.59C48.11,-522.42 54.36,-666.84 131,-744.5 137.23,-750.81 145,-755.54 153.26,-759.08"/>
<polygon fill="midnightblue" stroke="midnightblue" points="152.14,-762.4 162.73,-762.59 154.57,-755.83 152.14,-762.4"/>
</g>
<!-- Node6 -->
<g id="node6" class="node">
<title>Node6</title>
<g id="a_node6"><a xlink:href="classft_1_1irc_1_1server.html#a7a7b03083500fa8c2c3008ff55e6eafb" target="_top" xlink:title=" ">
<polygon fill="white" stroke="black" points="150,-716 150,-735 278,-735 278,-716 150,-716"/>
<text text-anchor="middle" x="214" y="-723" font-family="Helvetica,sans-Serif" font-size="10.00">ft::irc::server::find_user</text>
</a>
</g>
</g>
<!-- Node1&#45;&gt;Node6 -->
<g id="edge5" class="edge">
<title>Node1&#45;&gt;Node6</title>
<path fill="none" stroke="midnightblue" d="M48.76,-475.62C50.37,-518.7 61.15,-643.04 131,-706.5 133.96,-709.19 137.22,-711.52 140.69,-713.53"/>
<polygon fill="midnightblue" stroke="midnightblue" points="139.15,-716.68 149.67,-717.94 142.23,-710.39 139.15,-716.68"/>
</g>
<!-- Node7 -->
<g id="node7" class="node">
<title>Node7</title>
<g id="a_node7"><a xlink:href="classft_1_1irc_1_1user.html#ae476cc31795df7fbb726b193ab887e75" target="_top" xlink:title=" ">
<polygon fill="white" stroke="black" points="169,-666.5 169,-696.5 259,-696.5 259,-666.5 169,-666.5"/>
<text text-anchor="start" x="177" y="-684.5" font-family="Helvetica,sans-Serif" font-size="10.00">ft::irc::user::get</text>
<text text-anchor="middle" x="214" y="-673.5" font-family="Helvetica,sans-Serif" font-size="10.00">_server</text>
</a>
</g>
</g>
<!-- Node1&#45;&gt;Node7 -->
<g id="edge6" class="edge">
<title>Node1&#45;&gt;Node7</title>
<path fill="none" stroke="midnightblue" d="M50.39,-475.61C55.79,-512.39 74.74,-607.21 131,-657.5 138.96,-664.62 148.93,-669.63 159.15,-673.16"/>
<polygon fill="midnightblue" stroke="midnightblue" points="158.38,-676.58 168.96,-676.11 160.39,-669.88 158.38,-676.58"/>
</g>
<!-- Node8 -->
<g id="node8" class="node">
<title>Node8</title>
<g id="a_node8"><a xlink:href="classft_1_1irc_1_1user.html#a43fb91fff5e13afd67f9e642137eca40" target="_top" xlink:title=" ">
<polygon fill="white" stroke="black" points="151,-617.5 151,-647.5 277,-647.5 277,-617.5 151,-617.5"/>
<text text-anchor="start" x="159" y="-635.5" font-family="Helvetica,sans-Serif" font-size="10.00">ft::irc::user::is_channel</text>
<text text-anchor="middle" x="214" y="-624.5" font-family="Helvetica,sans-Serif" font-size="10.00">_member</text>
</a>
</g>
</g>
<!-- Node1&#45;&gt;Node8 -->
<g id="edge7" class="edge">
<title>Node1&#45;&gt;Node8</title>
<path fill="none" stroke="midnightblue" d="M52.68,-475.61C61.76,-505.58 86.16,-572.72 131,-608.5 134.33,-611.15 137.94,-613.51 141.73,-615.61"/>
<polygon fill="midnightblue" stroke="midnightblue" points="140.32,-618.82 150.84,-620.06 143.38,-612.53 140.32,-618.82"/>
</g>
<!-- Node9 -->
<g id="node9" class="node">
<title>Node9</title>
<g id="a_node9"><a xlink:href="classft_1_1irc_1_1channel.html#a09f80cecbaa60df112b6eb082c1cd2e5" target="_top" xlink:title=" ">
<polygon fill="white" stroke="black" points="160.5,-568.5 160.5,-598.5 267.5,-598.5 267.5,-568.5 160.5,-568.5"/>
<text text-anchor="start" x="168.5" y="-586.5" font-family="Helvetica,sans-Serif" font-size="10.00">ft::irc::channel::is</text>
<text text-anchor="middle" x="214" y="-575.5" font-family="Helvetica,sans-Serif" font-size="10.00">_channel_operator</text>
</a>
</g>
</g>
<!-- Node1&#45;&gt;Node9 -->
<g id="edge8" class="edge">
<title>Node1&#45;&gt;Node9</title>
<path fill="none" stroke="midnightblue" d="M57.09,-475.66C70.22,-497.44 97.32,-537.42 131,-559.5 137.05,-563.47 143.78,-566.8 150.7,-569.59"/>
<polygon fill="midnightblue" stroke="midnightblue" points="149.63,-572.92 160.22,-573.06 152.03,-566.34 149.63,-572.92"/>
</g>
<!-- Node10 -->
<g id="node10" class="node">
<title>Node10</title>
<g id="a_node10"><a xlink:href="structft_1_1irc_1_1string__utils.html#a38cd804a5b73843f0fd63a027dd0dee0" target="_top" xlink:title=" ">
<polygon fill="white" stroke="black" points="148.5,-519.5 148.5,-549.5 279.5,-549.5 279.5,-519.5 148.5,-519.5"/>
<text text-anchor="start" x="156.5" y="-537.5" font-family="Helvetica,sans-Serif" font-size="10.00">ft::irc::string_utils</text>
<text text-anchor="middle" x="214" y="-526.5" font-family="Helvetica,sans-Serif" font-size="10.00">::is_valid_channelname</text>
</a>
</g>
</g>
<!-- Node1&#45;&gt;Node10 -->
<g id="edge9" class="edge">
<title>Node1&#45;&gt;Node10</title>
<path fill="none" stroke="midnightblue" d="M70.06,-475.71C86.23,-486.58 109.23,-500.92 131,-510.5 135.43,-512.45 140.07,-514.3 144.79,-516.03"/>
<polygon fill="midnightblue" stroke="midnightblue" points="143.94,-519.44 154.54,-519.43 146.25,-512.83 143.94,-519.44"/>
</g>
<!-- Node12 -->
<g id="node12" class="node">
<title>Node12</title>
<g id="a_node12"><a xlink:href="classft_1_1irc_1_1channel.html#abb21180c96571b7743159bd756164a97" target="_top" xlink:title=" ">
<polygon fill="white" stroke="black" points="154.5,-470.5 154.5,-500.5 273.5,-500.5 273.5,-470.5 154.5,-470.5"/>
<text text-anchor="start" x="162.5" y="-488.5" font-family="Helvetica,sans-Serif" font-size="10.00">ft::irc::channel::make</text>
<text text-anchor="middle" x="214" y="-477.5" font-family="Helvetica,sans-Serif" font-size="10.00">_mode_string</text>
</a>
</g>
</g>
<!-- Node1&#45;&gt;Node12 -->
<g id="edge11" class="edge">
<title>Node1&#45;&gt;Node12</title>
<path fill="none" stroke="midnightblue" d="M95.2,-467.6C110.46,-469.92 127.74,-472.54 144.27,-475.06"/>
<polygon fill="midnightblue" stroke="midnightblue" points="144.03,-478.56 154.45,-476.6 145.09,-471.64 144.03,-478.56"/>
</g>
<!-- Node13 -->
<g id="node13" class="node">
<title>Node13</title>
<g id="a_node13"><a xlink:href="structft_1_1irc_1_1make__error.html#a8ad003c713b8ee5ebbf4691dd2be83fe" target="_top" xlink:title=" ">
<polygon fill="white" stroke="black" points="161,-421.5 161,-451.5 267,-451.5 267,-421.5 161,-421.5"/>
<text text-anchor="start" x="169" y="-439.5" font-family="Helvetica,sans-Serif" font-size="10.00">ft::irc::make_error</text>
<text text-anchor="middle" x="214" y="-428.5" font-family="Helvetica,sans-Serif" font-size="10.00">::no_such_channel</text>
</a>
</g>
</g>
<!-- Node1&#45;&gt;Node13 -->
<g id="edge12" class="edge">
<title>Node1&#45;&gt;Node13</title>
<path fill="none" stroke="midnightblue" d="M95.2,-453.69C112.51,-451.16 132.42,-448.26 150.89,-445.56"/>
<polygon fill="midnightblue" stroke="midnightblue" points="151.59,-449 160.98,-444.09 150.58,-442.07 151.59,-449"/>
</g>
<!-- Node14 -->
<g id="node14" class="node">
<title>Node14</title>
<g id="a_node14"><a xlink:href="structft_1_1irc_1_1make__error.html#a18a46423a4bca983ad1a6edff1b6c504" target="_top" xlink:title=" ">
<polygon fill="white" stroke="black" points="156,-372.5 156,-402.5 272,-402.5 272,-372.5 156,-372.5"/>
<text text-anchor="start" x="164" y="-390.5" font-family="Helvetica,sans-Serif" font-size="10.00">ft::irc::make_error</text>
<text text-anchor="middle" x="214" y="-379.5" font-family="Helvetica,sans-Serif" font-size="10.00">::no_such_nickname</text>
</a>
</g>
</g>
<!-- Node1&#45;&gt;Node14 -->
<g id="edge13" class="edge">
<title>Node1&#45;&gt;Node14</title>
<path fill="none" stroke="midnightblue" d="M71.22,-445.36C87.38,-435.07 109.89,-421.71 131,-412.5 136.33,-410.17 141.94,-407.98 147.63,-405.92"/>
<polygon fill="midnightblue" stroke="midnightblue" points="148.93,-409.18 157.23,-402.6 146.64,-402.56 148.93,-409.18"/>
</g>
<!-- Node15 -->
<g id="node15" class="node">
<title>Node15</title>
<g id="a_node15"><a xlink:href="structft_1_1irc_1_1make__error.html#a85c1af0e7b2940c1aff650d1a78b9847" target="_top" xlink:title=" ">
<polygon fill="white" stroke="black" points="162.5,-323.5 162.5,-353.5 265.5,-353.5 265.5,-323.5 162.5,-323.5"/>
<text text-anchor="start" x="170.5" y="-341.5" font-family="Helvetica,sans-Serif" font-size="10.00">ft::irc::make_error</text>
<text text-anchor="middle" x="214" y="-330.5" font-family="Helvetica,sans-Serif" font-size="10.00">::not_on_channel</text>
</a>
</g>
</g>
<!-- Node1&#45;&gt;Node15 -->
<g id="edge14" class="edge">
<title>Node1&#45;&gt;Node15</title>
<path fill="none" stroke="midnightblue" d="M57.42,-445.35C70.77,-423.99 97.92,-385.22 131,-363.5 137.72,-359.09 145.26,-355.42 152.97,-352.39"/>
<polygon fill="midnightblue" stroke="midnightblue" points="154.19,-355.67 162.41,-348.99 151.82,-349.08 154.19,-355.67"/>
</g>
<!-- Node16 -->
<g id="node16" class="node">
<title>Node16</title>
<g id="a_node16"><a xlink:href="classft_1_1irc_1_1message.html#a34f457ead0453ad914af2cb0482a40b9" target="_top" xlink:title=" ">
<polygon fill="white" stroke="black" points="333,-362 333,-381 487,-381 487,-362 333,-362"/>
<text text-anchor="middle" x="410" y="-369" font-family="Helvetica,sans-Serif" font-size="10.00">ft::irc::message::param_size</text>
</a>
</g>
</g>
<!-- Node1&#45;&gt;Node16 -->
<g id="edge15" class="edge">
<title>Node1&#45;&gt;Node16</title>
<path fill="none" stroke="midnightblue" d="M51.73,-445.42C59.31,-414.28 81.46,-343.41 131,-314.5 194.72,-277.32 229.23,-285.35 297,-314.5 318.37,-323.69 312.91,-340.77 333,-352.5 336.87,-354.76 341,-356.75 345.27,-358.51"/>
<polygon fill="midnightblue" stroke="midnightblue" points="344.17,-361.84 354.76,-361.99 346.58,-355.26 344.17,-361.84"/>
</g>
<!-- Node17 -->
<g id="node17" class="node">
<title>Node17</title>
<g id="a_node17"><a xlink:href="structft_1_1irc_1_1make__reply.html#a5bc514d5b05cc15d799aba1944a18386" target="_top" xlink:title=" ">
<polygon fill="white" stroke="black" points="162,-235.5 162,-265.5 266,-265.5 266,-235.5 162,-235.5"/>
<text text-anchor="start" x="170" y="-253.5" font-family="Helvetica,sans-Serif" font-size="10.00">ft::irc::make_reply</text>
<text text-anchor="middle" x="214" y="-242.5" font-family="Helvetica,sans-Serif" font-size="10.00">::replicate</text>
</a>
</g>
</g>
<!-- Node1&#45;&gt;Node17 -->
<g id="edge16" class="edge">
<title>Node1&#45;&gt;Node17</title>
<path fill="none" stroke="midnightblue" d="M51.31,-445.38C58.44,-411.19 80.38,-327.27 131,-280.5 137.24,-274.73 144.68,-270.05 152.5,-266.26"/>
<polygon fill="midnightblue" stroke="midnightblue" points="154.03,-269.41 161.79,-262.2 151.23,-263 154.03,-269.41"/>
</g>
<!-- Node18 -->
<g id="node18" class="node">
<title>Node18</title>
<g id="a_node18"><a xlink:href="classft_1_1irc_1_1user.html#a1db558d6d694ca943224c2440fe36c50" target="_top" xlink:title=" ">
<polygon fill="white" stroke="black" points="361,-49.5 361,-79.5 459,-79.5 459,-49.5 361,-49.5"/>
<text text-anchor="start" x="369" y="-67.5" font-family="Helvetica,sans-Serif" font-size="10.00">ft::irc::user::send</text>
<text text-anchor="middle" x="410" y="-56.5" font-family="Helvetica,sans-Serif" font-size="10.00">_message</text>
</a>
</g>
</g>
<!-- Node1&#45;&gt;Node18 -->
<g id="edge17" class="edge">
<title>Node1&#45;&gt;Node18</title>
<path fill="none" stroke="midnightblue" d="M48.02,-445.27C47.41,-398 52.31,-252.56 131,-177.5 185.91,-125.12 233.81,-179.52 297,-137.5 319.5,-122.54 311.03,-104.24 333,-88.5 338.52,-84.55 344.71,-81.23 351.12,-78.45"/>
<polygon fill="midnightblue" stroke="midnightblue" points="352.56,-81.64 360.6,-74.74 350.02,-75.12 352.56,-81.64"/>
</g>
<!-- Node19 -->
<g id="node19" class="node">
<title>Node19</title>
<g id="a_node19"><a xlink:href="classft_1_1irc_1_1processor__mode.html#ab78a2f17d072bf890dc01453d7783e02" target="_top" xlink:title=" ">
<polygon fill="white" stroke="black" points="131,-186.5 131,-216.5 297,-216.5 297,-186.5 131,-186.5"/>
<text text-anchor="start" x="139" y="-204.5" font-family="Helvetica,sans-Serif" font-size="10.00">ft::irc::processor</text>
<text text-anchor="middle" x="214" y="-193.5" font-family="Helvetica,sans-Serif" font-size="10.00">_mode::update_channel_mode</text>
</a>
</g>
</g>
<!-- Node1&#45;&gt;Node19 -->
<g id="edge18" class="edge">
<title>Node1&#45;&gt;Node19</title>
<path fill="none" stroke="midnightblue" d="M49.29,-445.44C52.27,-404.22 66.3,-288.48 131,-226.5 132.66,-224.91 134.42,-223.42 136.25,-222.03"/>
<polygon fill="midnightblue" stroke="midnightblue" points="138.29,-224.88 144.77,-216.5 134.48,-219.01 138.29,-224.88"/>
</g>
<!-- Node29 -->
<g id="node29" class="node">
<title>Node29</title>
<g id="a_node29"><a xlink:href="classft_1_1irc_1_1processor__mode.html#a4447a4030b15157ccecfe992192de4b5" target="_top" xlink:title=" ">
<polygon fill="white" stroke="black" points="139.5,-98.5 139.5,-128.5 288.5,-128.5 288.5,-98.5 139.5,-98.5"/>
<text text-anchor="start" x="147.5" y="-116.5" font-family="Helvetica,sans-Serif" font-size="10.00">ft::irc::processor</text>
<text text-anchor="middle" x="214" y="-105.5" font-family="Helvetica,sans-Serif" font-size="10.00">_mode::update_user_mode</text>
</a>
</g>
</g>
<!-- Node1&#45;&gt;Node29 -->
<g id="edge29" class="edge">
<title>Node1&#45;&gt;Node29</title>
<path fill="none" stroke="midnightblue" d="M47.84,-445.33C46.49,-395.33 48.99,-233.8 131,-143.5 134.33,-139.84 138.14,-136.62 142.26,-133.79"/>
<polygon fill="midnightblue" stroke="midnightblue" points="144.3,-136.65 151.1,-128.53 140.71,-130.64 144.3,-136.65"/>
</g>
<!-- Node31 -->
<g id="node31" class="node">
<title>Node31</title>
<g id="a_node31"><a xlink:href="structft_1_1irc_1_1make__reply.html#a125ea72202f5f56289961dd1664a0f69" target="_top" xlink:title=" ">
<polygon fill="white" stroke="black" points="162,-49.5 162,-79.5 266,-79.5 266,-49.5 162,-49.5"/>
<text text-anchor="start" x="170" y="-67.5" font-family="Helvetica,sans-Serif" font-size="10.00">ft::irc::make_reply</text>
<text text-anchor="middle" x="214" y="-56.5" font-family="Helvetica,sans-Serif" font-size="10.00">::user_mode_is</text>
</a>
</g>
</g>
<!-- Node1&#45;&gt;Node31 -->
<g id="edge32" class="edge">
<title>Node1&#45;&gt;Node31</title>
<path fill="none" stroke="midnightblue" d="M49.82,-445.4C55.63,-382.49 80.83,-142.12 131,-88.5 136.9,-82.19 144.36,-77.51 152.36,-74.05"/>
<polygon fill="midnightblue" stroke="midnightblue" points="153.77,-77.26 161.94,-70.51 151.35,-70.69 153.77,-77.26"/>
</g>
<!-- Node32 -->
<g id="node32" class="node">
<title>Node32</title>
<g id="a_node32"><a xlink:href="structft_1_1irc_1_1make__error.html#a561c0d0c9c317a5f57e6369395e3c42b" target="_top" xlink:title=" ">
<polygon fill="white" stroke="black" points="155,-0.5 155,-30.5 273,-30.5 273,-0.5 155,-0.5"/>
<text text-anchor="start" x="163" y="-18.5" font-family="Helvetica,sans-Serif" font-size="10.00">ft::irc::make_error</text>
<text text-anchor="middle" x="214" y="-7.5" font-family="Helvetica,sans-Serif" font-size="10.00">::users_donot_match</text>
</a>
</g>
</g>
<!-- Node1&#45;&gt;Node32 -->
<g id="edge33" class="edge">
<title>Node1&#45;&gt;Node32</title>
<path fill="none" stroke="midnightblue" d="M49.41,-445.3C53.78,-377.23 74.77,-101.11 131,-39.5 135.1,-35.01 139.99,-31.34 145.31,-28.35"/>
<polygon fill="midnightblue" stroke="midnightblue" points="147.09,-31.38 154.61,-23.92 144.08,-25.06 147.09,-31.38"/>
</g>
<!-- Node11 -->
<g id="node11" class="node">
<title>Node11</title>
<g id="a_node11"><a xlink:href="namespaceft_1_1irc_1_1__internal.html#ac421a738f6d955bab8b862fca8bd7159" target="_top" xlink:title=" ">
<polygon fill="white" stroke="black" points="365,-519.5 365,-549.5 455,-549.5 455,-519.5 365,-519.5"/>
<text text-anchor="start" x="373" y="-537.5" font-family="Helvetica,sans-Serif" font-size="10.00">ft::irc::_internal</text>
<text text-anchor="middle" x="410" y="-526.5" font-family="Helvetica,sans-Serif" font-size="10.00">::_is_except</text>
</a>
</g>
</g>
<!-- Node10&#45;&gt;Node11 -->
<g id="edge10" class="edge">
<title>Node10&#45;&gt;Node11</title>
<path fill="none" stroke="midnightblue" d="M279.6,-534.5C303.99,-534.5 331.46,-534.5 354.8,-534.5"/>
<polygon fill="midnightblue" stroke="midnightblue" points="354.87,-538 364.87,-534.5 354.87,-531 354.87,-538"/>
</g>
<!-- Node19&#45;&gt;Node16 -->
<g id="edge25" class="edge">
<title>Node19&#45;&gt;Node16</title>
<path fill="none" stroke="midnightblue" d="M284.27,-216.69C288.92,-219.44 293.24,-222.68 297,-226.5 337.82,-268.04 291.14,-312.01 333,-352.5 334.47,-353.92 336.02,-355.24 337.65,-356.46"/>
<polygon fill="midnightblue" stroke="midnightblue" points="335.99,-359.55 346.34,-361.82 339.67,-353.59 335.99,-359.55"/>
</g>
<!-- Node20 -->
<g id="node20" class="node">
<title>Node20</title>
<g id="a_node20"><a xlink:href="classft_1_1irc_1_1processor__mode.html#a0756abb7cea854a0c5a05c24e0320ee2" target="_top" xlink:title=" ">
<polygon fill="white" stroke="black" points="341.5,-186.5 341.5,-216.5 478.5,-216.5 478.5,-186.5 341.5,-186.5"/>
<text text-anchor="start" x="349.5" y="-204.5" font-family="Helvetica,sans-Serif" font-size="10.00">ft::irc::processor</text>
<text text-anchor="middle" x="410" y="-193.5" font-family="Helvetica,sans-Serif" font-size="10.00">_mode::get_min_params</text>
</a>
</g>
</g>
<!-- Node19&#45;&gt;Node20 -->
<g id="edge19" class="edge">
<title>Node19&#45;&gt;Node20</title>
<path fill="none" stroke="midnightblue" d="M297.27,-201.5C308.5,-201.5 320,-201.5 331.14,-201.5"/>
<polygon fill="midnightblue" stroke="midnightblue" points="331.26,-205 341.26,-201.5 331.26,-198 331.26,-205"/>
</g>
<!-- Node21 -->
<g id="node21" class="node">
<title>Node21</title>
<g id="a_node21"><a xlink:href="structft_1_1serv_1_1logger.html#aed47352d1c3f60ac9f99929dcc7498d5" target="_top" xlink:title=" ">
<polygon fill="white" stroke="black" points="354.5,-148 354.5,-167 465.5,-167 465.5,-148 354.5,-148"/>
<text text-anchor="middle" x="410" y="-155" font-family="Helvetica,sans-Serif" font-size="10.00">ft::serv::logger::info</text>
</a>
</g>
</g>
<!-- Node19&#45;&gt;Node21 -->
<g id="edge20" class="edge">
<title>Node19&#45;&gt;Node21</title>
<path fill="none" stroke="midnightblue" d="M281.22,-186.48C305.99,-180.86 333.74,-174.57 357.03,-169.29"/>
<polygon fill="midnightblue" stroke="midnightblue" points="358.08,-172.64 367.06,-167.01 356.53,-165.81 358.08,-172.64"/>
</g>
<!-- Node25 -->
<g id="node25" class="node">
<title>Node25</title>
<g id="a_node25"><a xlink:href="classft_1_1irc_1_1channel.html#ad30281781ad94941df6db1284869a73b" target="_top" xlink:title=" ">
<polygon fill="white" stroke="black" points="347.5,-98.5 347.5,-128.5 472.5,-128.5 472.5,-98.5 347.5,-98.5"/>
<text text-anchor="start" x="355.5" y="-116.5" font-family="Helvetica,sans-Serif" font-size="10.00">ft::irc::channel::modify</text>
<text text-anchor="middle" x="410" y="-105.5" font-family="Helvetica,sans-Serif" font-size="10.00">_member_mode</text>
</a>
</g>
</g>
<!-- Node19&#45;&gt;Node25 -->
<g id="edge24" class="edge">
<title>Node19&#45;&gt;Node25</title>
<path fill="none" stroke="midnightblue" d="M265.87,-186.41C276.52,-182.29 287.42,-177.33 297,-171.5 315.55,-160.22 314.27,-149.47 333,-138.5 336.64,-136.37 340.49,-134.39 344.44,-132.56"/>
<polygon fill="midnightblue" stroke="midnightblue" points="345.99,-135.7 353.81,-128.55 343.24,-129.27 345.99,-135.7"/>
</g>
<!-- Node26 -->
<g id="node26" class="node">
<title>Node26</title>
<g id="a_node26"><a xlink:href="classft_1_1irc_1_1channel.html#a2a3ac5889a92c45dea08b0b8e586005f" target="_top" xlink:title=" ">
<polygon fill="white" stroke="black" points="340.5,-324 340.5,-343 479.5,-343 479.5,-324 340.5,-324"/>
<text text-anchor="middle" x="410" y="-331" font-family="Helvetica,sans-Serif" font-size="10.00">ft::irc::channel::store_key</text>
</a>
</g>
</g>
<!-- Node19&#45;&gt;Node26 -->
<g id="edge26" class="edge">
<title>Node19&#45;&gt;Node26</title>
<path fill="none" stroke="midnightblue" d="M282.62,-216.51C287.82,-219.29 292.71,-222.59 297,-226.5 328.23,-254.97 301.06,-286.84 333,-314.5 334.8,-316.06 336.7,-317.49 338.69,-318.8"/>
<polygon fill="midnightblue" stroke="midnightblue" points="337.45,-322.12 347.89,-323.88 340.83,-315.99 337.45,-322.12"/>
</g>
<!-- Node27 -->
<g id="node27" class="node">
<title>Node27</title>
<g id="a_node27"><a xlink:href="classft_1_1irc_1_1channel.html#a9a229b373bb42191a96af592857c279a" target="_top" xlink:title=" ">
<polygon fill="white" stroke="black" points="352,-274.5 352,-304.5 468,-304.5 468,-274.5 352,-274.5"/>
<text text-anchor="start" x="360" y="-292.5" font-family="Helvetica,sans-Serif" font-size="10.00">ft::irc::channel::store</text>
<text text-anchor="middle" x="410" y="-281.5" font-family="Helvetica,sans-Serif" font-size="10.00">_limit</text>
</a>
</g>
</g>
<!-- Node19&#45;&gt;Node27 -->
<g id="edge27" class="edge">
<title>Node19&#45;&gt;Node27</title>
<path fill="none" stroke="midnightblue" d="M276.97,-216.58C283.97,-219.38 290.8,-222.66 297,-226.5 316.78,-238.74 313.35,-252.04 333,-264.5 336.18,-266.52 339.54,-268.38 343,-270.11"/>
<polygon fill="midnightblue" stroke="midnightblue" points="341.8,-273.42 352.36,-274.38 344.71,-267.05 341.8,-273.42"/>
</g>
<!-- Node28 -->
<g id="node28" class="node">
<title>Node28</title>
<g id="a_node28"><a xlink:href="classft_1_1irc_1_1channel.html#a844f7ff52ac56119ab3de1a568973935" target="_top" xlink:title=" ">
<polygon fill="white" stroke="black" points="335.5,-236 335.5,-255 484.5,-255 484.5,-236 335.5,-236"/>
<text text-anchor="middle" x="410" y="-243" font-family="Helvetica,sans-Serif" font-size="10.00">ft::irc::channel::store_mode</text>
</a>
</g>
</g>
<!-- Node19&#45;&gt;Node28 -->
<g id="edge28" class="edge">
<title>Node19&#45;&gt;Node28</title>
<path fill="none" stroke="midnightblue" d="M281.22,-216.52C305.99,-222.14 333.74,-228.43 357.03,-233.71"/>
<polygon fill="midnightblue" stroke="midnightblue" points="356.53,-237.19 367.06,-235.99 358.08,-230.36 356.53,-237.19"/>
</g>
<!-- Node22 -->
<g id="node22" class="node">
<title>Node22</title>
<g id="a_node22"><a xlink:href="namespaceft_1_1serv_1_1__internal.html#a4dfb80be7b817fc0ee18658f313a6274" target="_top" xlink:title=" ">
<polygon fill="white" stroke="black" points="523,-142.5 523,-172.5 621,-172.5 621,-142.5 523,-142.5"/>
<text text-anchor="start" x="531" y="-160.5" font-family="Helvetica,sans-Serif" font-size="10.00">ft::serv::_internal</text>
<text text-anchor="middle" x="572" y="-149.5" font-family="Helvetica,sans-Serif" font-size="10.00">::print</text>
</a>
</g>
</g>
<!-- Node21&#45;&gt;Node22 -->
<g id="edge21" class="edge">
<title>Node21&#45;&gt;Node22</title>
<path fill="none" stroke="midnightblue" d="M465.62,-157.5C480.69,-157.5 497.12,-157.5 512.41,-157.5"/>
<polygon fill="midnightblue" stroke="midnightblue" points="512.79,-161 522.79,-157.5 512.79,-154 512.79,-161"/>
</g>
<!-- Node23 -->
<g id="node23" class="node">
<title>Node23</title>
<g id="a_node23"><a xlink:href="namespaceft_1_1serv_1_1__internal.html#aff49349b58dc84fa69076e9cd27a1db4" target="_top" xlink:title=" ">
<polygon fill="white" stroke="black" points="657,-167.5 657,-197.5 801,-197.5 801,-167.5 657,-167.5"/>
<text text-anchor="start" x="665" y="-185.5" font-family="Helvetica,sans-Serif" font-size="10.00">ft::serv::_internal</text>
<text text-anchor="middle" x="729" y="-174.5" font-family="Helvetica,sans-Serif" font-size="10.00">::make_format_string_line</text>
</a>
</g>
</g>
<!-- Node22&#45;&gt;Node23 -->
<g id="edge22" class="edge">
<title>Node22&#45;&gt;Node23</title>
<path fill="none" stroke="midnightblue" d="M621.19,-165.27C629.39,-166.6 638.11,-168 646.88,-169.42"/>
<polygon fill="midnightblue" stroke="midnightblue" points="646.36,-172.88 656.79,-171.01 647.48,-165.97 646.36,-172.88"/>
</g>
<!-- Node24 -->
<g id="node24" class="node">
<title>Node24</title>
<g id="a_node24"><a xlink:href="namespaceft_1_1serv_1_1__internal.html#aad4af39d62c2b1687b0bef7a91bf6c60" target="_top" xlink:title=" ">
<polygon fill="white" stroke="black" points="677.5,-118.5 677.5,-148.5 780.5,-148.5 780.5,-118.5 677.5,-118.5"/>
<text text-anchor="start" x="685.5" y="-136.5" font-family="Helvetica,sans-Serif" font-size="10.00">ft::serv::_internal</text>
<text text-anchor="middle" x="729" y="-125.5" font-family="Helvetica,sans-Serif" font-size="10.00">::make_utc_string</text>
</a>
</g>
</g>
<!-- Node22&#45;&gt;Node24 -->
<g id="edge23" class="edge">
<title>Node22&#45;&gt;Node24</title>
<path fill="none" stroke="midnightblue" d="M621.19,-150.04C635.85,-147.77 652.14,-145.25 667.49,-142.87"/>
<polygon fill="midnightblue" stroke="midnightblue" points="668.08,-146.32 677.42,-141.33 667.01,-139.4 668.08,-146.32"/>
</g>
<!-- Node29&#45;&gt;Node18 -->
<g id="edge30" class="edge">
<title>Node29&#45;&gt;Node18</title>
<path fill="none" stroke="midnightblue" d="M274.52,-98.47C298.9,-92.31 327.01,-85.21 351.2,-79.1"/>
<polygon fill="midnightblue" stroke="midnightblue" points="352.12,-82.48 360.96,-76.63 350.41,-75.69 352.12,-82.48"/>
</g>
<!-- Node30 -->
<g id="node30" class="node">
<title>Node30</title>
<g id="a_node30"><a xlink:href="structft_1_1irc_1_1make__error.html#a44378a69c0a3b79bc7d433663593b110" target="_top" xlink:title=" ">
<polygon fill="white" stroke="black" points="335.5,-0.5 335.5,-30.5 484.5,-30.5 484.5,-0.5 335.5,-0.5"/>
<text text-anchor="start" x="343.5" y="-18.5" font-family="Helvetica,sans-Serif" font-size="10.00">ft::irc::make_error</text>
<text text-anchor="middle" x="410" y="-7.5" font-family="Helvetica,sans-Serif" font-size="10.00">::user_mode_unknown_flag</text>
</a>
</g>
</g>
<!-- Node29&#45;&gt;Node30 -->
<g id="edge31" class="edge">
<title>Node29&#45;&gt;Node30</title>
<path fill="none" stroke="midnightblue" d="M279.15,-98.44C285.46,-95.66 291.54,-92.37 297,-88.5 319.05,-72.87 311.03,-55.24 333,-39.5 335.12,-37.98 337.33,-36.56 339.62,-35.23"/>
<polygon fill="midnightblue" stroke="midnightblue" points="341.48,-38.2 348.76,-30.5 338.27,-31.99 341.48,-38.2"/>
</g>
</g>
</svg>
