<?xml version="1.0" encoding="UTF-8" standalone="no"?>
<!DOCTYPE svg PUBLIC "-//W3C//DTD SVG 1.1//EN"
 "http://www.w3.org/Graphics/SVG/1.1/DTD/svg11.dtd">
<!-- Generated by graphviz version 2.43.0 (0)
 -->
<!-- Title: ft::irc::user::send_message Pages: 1 -->
<svg width="443pt" height="498pt"
 viewBox="0.00 0.00 443.00 497.50" xmlns="http://www.w3.org/2000/svg" xmlns:xlink="http://www.w3.org/1999/xlink">
<g id="graph0" class="graph" transform="scale(1 1) rotate(0) translate(4 493.5)">
<title>ft::irc::user::send_message</title>
<polygon fill="white" stroke="transparent" points="-4,4 -4,-493.5 439,-493.5 439,4 -4,4"/>
<!-- Node1 -->
<g id="node1" class="node">
<title>Node1</title>
<g id="a_node1"><a xlink:title=" ">
<polygon fill="#bfbfbf" stroke="black" points="337,-245.5 337,-275.5 435,-275.5 435,-245.5 337,-245.5"/>
<text text-anchor="start" x="345" y="-263.5" font-family="Helvetica,sans-Serif" font-size="10.00">ft::irc::user::send</text>
<text text-anchor="middle" x="386" y="-252.5" font-family="Helvetica,sans-Serif" font-size="10.00">_message</text>
</a>
</g>
</g>
<!-- Node2 -->
<g id="node2" class="node">
<title>Node2</title>
<g id="a_node2"><a xlink:href="classft_1_1irc_1_1server.html#a773440405607167a9478a54fd8ab90f3" target="_top" xlink:title=" ">
<polygon fill="white" stroke="black" points="152,-470 152,-489 301,-489 301,-470 152,-470"/>
<text text-anchor="middle" x="226.5" y="-477" font-family="Helvetica,sans-Serif" font-size="10.00">ft::irc::server::broadcast_all</text>
</a>
</g>
</g>
<!-- Node1&#45;&gt;Node2 -->
<g id="edge1" class="edge">
<title>Node1&#45;&gt;Node2</title>
<path fill="none" stroke="midnightblue" d="M381,-285.67C373.12,-326.98 351.73,-409.19 301,-455.5 294.06,-461.83 285.42,-466.5 276.53,-469.93"/>
<polygon fill="midnightblue" stroke="midnightblue" points="384.48,-286.09 382.8,-275.63 377.59,-284.85 384.48,-286.09"/>
</g>
<!-- Node3 -->
<g id="node3" class="node">
<title>Node3</title>
<g id="a_node3"><a xlink:href="classft_1_1irc_1_1processor__oper.html#a941691cbab81d134cb4ffc30bd270d04" target="_top" xlink:title=" ">
<polygon fill="white" stroke="black" points="10.5,-447.5 10.5,-477.5 105.5,-477.5 105.5,-447.5 10.5,-447.5"/>
<text text-anchor="start" x="18.5" y="-465.5" font-family="Helvetica,sans-Serif" font-size="10.00">ft::irc::processor</text>
<text text-anchor="middle" x="58" y="-454.5" font-family="Helvetica,sans-Serif" font-size="10.00">_oper::execute</text>
</a>
</g>
</g>
<!-- Node1&#45;&gt;Node3 -->
<g id="edge12" class="edge">
<title>Node1&#45;&gt;Node3</title>
<path fill="none" stroke="midnightblue" d="M379.56,-285.32C370.21,-321.68 347.43,-388.78 301,-422.5 270.59,-444.58 167.08,-455.23 105.72,-459.71"/>
<polygon fill="midnightblue" stroke="midnightblue" points="382.98,-286.05 381.95,-275.51 376.18,-284.4 382.98,-286.05"/>
</g>
<!-- Node4 -->
<g id="node4" class="node">
<title>Node4</title>
<g id="a_node4"><a xlink:href="classft_1_1irc_1_1processor__dictionary.html#a50bd8e9f89f6f6a911f5495272cd7d41" target="_top" xlink:title=" ">
<polygon fill="white" stroke="black" points="169.5,-382.5 169.5,-412.5 283.5,-412.5 283.5,-382.5 169.5,-382.5"/>
<text text-anchor="start" x="177.5" y="-400.5" font-family="Helvetica,sans-Serif" font-size="10.00">ft::irc::processor</text>
<text text-anchor="middle" x="226.5" y="-389.5" font-family="Helvetica,sans-Serif" font-size="10.00">_dictionary::execute</text>
</a>
</g>
</g>
<!-- Node1&#45;&gt;Node4 -->
<g id="edge3" class="edge">
<title>Node1&#45;&gt;Node4</title>
<path fill="none" stroke="midnightblue" d="M371.33,-284.45C356.65,-308.33 331.29,-344.65 301,-367.5 293.19,-373.39 284.06,-378.33 274.94,-382.38"/>
<polygon fill="midnightblue" stroke="midnightblue" points="374.46,-286.04 376.6,-275.66 368.46,-282.44 374.46,-286.04"/>
</g>
<!-- Node6 -->
<g id="node6" class="node">
<title>Node6</title>
<g id="a_node6"><a xlink:href="classft_1_1irc_1_1processor__join.html#a7005b0403c1e6e10aa6f6f05339df357" target="_top" xlink:title=" ">
<polygon fill="white" stroke="black" points="10.5,-191.5 10.5,-221.5 105.5,-221.5 105.5,-191.5 10.5,-191.5"/>
<text text-anchor="start" x="18.5" y="-209.5" font-family="Helvetica,sans-Serif" font-size="10.00">ft::irc::processor</text>
<text text-anchor="middle" x="58" y="-198.5" font-family="Helvetica,sans-Serif" font-size="10.00">_join::execute</text>
</a>
</g>
</g>
<!-- Node1&#45;&gt;Node6 -->
<g id="edge5" class="edge">
<title>Node1&#45;&gt;Node6</title>
<path fill="none" stroke="midnightblue" d="M367.22,-283.37C351.87,-301.1 327.96,-324.32 301,-334.5 239.05,-357.9 211,-364.56 152,-334.5 104.76,-310.43 75.89,-249.9 64.54,-221.57"/>
<polygon fill="midnightblue" stroke="midnightblue" points="369.92,-285.59 373.65,-275.67 364.55,-281.1 369.92,-285.59"/>
</g>
<!-- Node7 -->
<g id="node7" class="node">
<title>Node7</title>
<g id="a_node7"><a xlink:href="classft_1_1irc_1_1processor__part.html#a4075107cb360cd04c0a11a9904104ad0" target="_top" xlink:title=" ">
<polygon fill="white" stroke="black" points="179,-294.5 179,-324.5 274,-324.5 274,-294.5 179,-294.5"/>
<text text-anchor="start" x="187" y="-312.5" font-family="Helvetica,sans-Serif" font-size="10.00">ft::irc::processor</text>
<text text-anchor="middle" x="226.5" y="-301.5" font-family="Helvetica,sans-Serif" font-size="10.00">_part::execute</text>
</a>
</g>
</g>
<!-- Node1&#45;&gt;Node7 -->
<g id="edge6" class="edge">
<title>Node1&#45;&gt;Node7</title>
<path fill="none" stroke="midnightblue" d="M326.87,-278.58C309.53,-283.98 290.75,-289.82 274.24,-294.96"/>
<polygon fill="midnightblue" stroke="midnightblue" points="328.38,-281.78 336.89,-275.47 326.3,-275.1 328.38,-281.78"/>
</g>
<!-- Node8 -->
<g id="node8" class="node">
<title>Node8</title>
<g id="a_node8"><a xlink:href="classft_1_1irc_1_1processor__topic.html#ae4eec2a7267b66791a72bbab1d4842c0" target="_top" xlink:title=" ">
<polygon fill="white" stroke="black" points="179,-245.5 179,-275.5 274,-275.5 274,-245.5 179,-245.5"/>
<text text-anchor="start" x="187" y="-263.5" font-family="Helvetica,sans-Serif" font-size="10.00">ft::irc::processor</text>
<text text-anchor="middle" x="226.5" y="-252.5" font-family="Helvetica,sans-Serif" font-size="10.00">_topic::execute</text>
</a>
</g>
</g>
<!-- Node1&#45;&gt;Node8 -->
<g id="edge7" class="edge">
<title>Node1&#45;&gt;Node8</title>
<path fill="none" stroke="midnightblue" d="M326.87,-260.5C309.53,-260.5 290.75,-260.5 274.24,-260.5"/>
<polygon fill="midnightblue" stroke="midnightblue" points="326.89,-264 336.89,-260.5 326.89,-257 326.89,-264"/>
</g>
<!-- Node9 -->
<g id="node9" class="node">
<title>Node9</title>
<g id="a_node9"><a xlink:href="classft_1_1irc_1_1processor__kill.html#a3f41c93c4c3a85ccb4b034c5a185208a" target="_top" xlink:title=" ">
<polygon fill="white" stroke="black" points="179,-196.5 179,-226.5 274,-226.5 274,-196.5 179,-196.5"/>
<text text-anchor="start" x="187" y="-214.5" font-family="Helvetica,sans-Serif" font-size="10.00">ft::irc::processor</text>
<text text-anchor="middle" x="226.5" y="-203.5" font-family="Helvetica,sans-Serif" font-size="10.00">_kill::execute</text>
</a>
</g>
</g>
<!-- Node1&#45;&gt;Node9 -->
<g id="edge8" class="edge">
<title>Node1&#45;&gt;Node9</title>
<path fill="none" stroke="midnightblue" d="M326.87,-242.42C309.53,-237.02 290.75,-231.18 274.24,-226.04"/>
<polygon fill="midnightblue" stroke="midnightblue" points="326.3,-245.9 336.89,-245.53 328.38,-239.22 326.3,-245.9"/>
</g>
<!-- Node10 -->
<g id="node10" class="node">
<title>Node10</title>
<g id="a_node10"><a xlink:href="classft_1_1irc_1_1processor__pass.html#a8b0f8638123bb81ce8f4e493e43b45a0" target="_top" xlink:title=" ">
<polygon fill="white" stroke="black" points="179,-147.5 179,-177.5 274,-177.5 274,-147.5 179,-147.5"/>
<text text-anchor="start" x="187" y="-165.5" font-family="Helvetica,sans-Serif" font-size="10.00">ft::irc::processor</text>
<text text-anchor="middle" x="226.5" y="-154.5" font-family="Helvetica,sans-Serif" font-size="10.00">_pass::execute</text>
</a>
</g>
</g>
<!-- Node1&#45;&gt;Node10 -->
<g id="edge9" class="edge">
<title>Node1&#45;&gt;Node10</title>
<path fill="none" stroke="midnightblue" d="M363.95,-238.03C347.96,-222.08 324.75,-201.15 301,-187.5 292.7,-182.73 283.35,-178.68 274.18,-175.33"/>
<polygon fill="midnightblue" stroke="midnightblue" points="361.68,-240.72 371.18,-245.41 366.68,-235.82 361.68,-240.72"/>
</g>
<!-- Node11 -->
<g id="node11" class="node">
<title>Node11</title>
<g id="a_node11"><a xlink:href="classft_1_1irc_1_1processor__nick.html#a7a2f0f709488328c04b6ccf0c41ce78e" target="_top" xlink:title=" ">
<polygon fill="white" stroke="black" points="179,-98.5 179,-128.5 274,-128.5 274,-98.5 179,-98.5"/>
<text text-anchor="start" x="187" y="-116.5" font-family="Helvetica,sans-Serif" font-size="10.00">ft::irc::processor</text>
<text text-anchor="middle" x="226.5" y="-105.5" font-family="Helvetica,sans-Serif" font-size="10.00">_nick::execute</text>
</a>
</g>
</g>
<!-- Node1&#45;&gt;Node11 -->
<g id="edge10" class="edge">
<title>Node1&#45;&gt;Node11</title>
<path fill="none" stroke="midnightblue" d="M374.12,-236.13C360.69,-208.67 335.33,-164.48 301,-138.5 293.05,-132.48 283.55,-127.85 274.07,-124.31"/>
<polygon fill="midnightblue" stroke="midnightblue" points="371.08,-237.89 378.53,-245.42 377.41,-234.89 371.08,-237.89"/>
</g>
<!-- Node12 -->
<g id="node12" class="node">
<title>Node12</title>
<g id="a_node12"><a xlink:href="classft_1_1irc_1_1processor__user.html#aa42b3fdd743060d5f9afaaff5e46e28f" target="_top" xlink:title=" ">
<polygon fill="white" stroke="black" points="179,-49.5 179,-79.5 274,-79.5 274,-49.5 179,-49.5"/>
<text text-anchor="start" x="187" y="-67.5" font-family="Helvetica,sans-Serif" font-size="10.00">ft::irc::processor</text>
<text text-anchor="middle" x="226.5" y="-56.5" font-family="Helvetica,sans-Serif" font-size="10.00">_user::execute</text>
</a>
</g>
</g>
<!-- Node1&#45;&gt;Node12 -->
<g id="edge11" class="edge">
<title>Node1&#45;&gt;Node12</title>
<path fill="none" stroke="midnightblue" d="M379.19,-235.32C369.37,-198.23 346,-129.05 301,-89.5 293.31,-82.74 283.7,-77.79 274,-74.17"/>
<polygon fill="midnightblue" stroke="midnightblue" points="375.87,-236.47 381.71,-245.31 382.66,-234.75 375.87,-236.47"/>
</g>
<!-- Node13 -->
<g id="node13" class="node">
<title>Node13</title>
<g id="a_node13"><a xlink:href="classft_1_1irc_1_1channel.html#ae4c6f3dacebce2ccfecdc92cdd3e1174" target="_top" xlink:title=" ">
<polygon fill="white" stroke="black" points="169,-0.5 169,-30.5 284,-30.5 284,-0.5 169,-0.5"/>
<text text-anchor="start" x="177" y="-18.5" font-family="Helvetica,sans-Serif" font-size="10.00">ft::irc::channel::send</text>
<text text-anchor="middle" x="226.5" y="-7.5" font-family="Helvetica,sans-Serif" font-size="10.00">_names</text>
</a>
</g>
</g>
<!-- Node1&#45;&gt;Node13 -->
<g id="edge13" class="edge">
<title>Node1&#45;&gt;Node13</title>
<path fill="none" stroke="midnightblue" d="M382.46,-235.29C376.53,-189.76 357.67,-93.54 301,-39.5 296.14,-34.87 290.38,-31.13 284.25,-28.11"/>
<polygon fill="midnightblue" stroke="midnightblue" points="379.01,-235.95 383.67,-245.47 385.96,-235.12 379.01,-235.95"/>
</g>
<!-- Node2&#45;&gt;Node3 -->
<g id="edge2" class="edge">
<title>Node2&#45;&gt;Node3</title>
<path fill="none" stroke="midnightblue" d="M142.02,-470.98C129.57,-469.71 117.13,-468.44 105.81,-467.28"/>
<polygon fill="midnightblue" stroke="midnightblue" points="141.68,-474.46 151.99,-471.99 142.39,-467.5 141.68,-474.46"/>
</g>
<!-- Node5 -->
<g id="node5" class="node">
<title>Node5</title>
<g id="a_node5"><a xlink:href="classft_1_1irc_1_1client__handler.html#a239d2ec2a936d74893455a83468669b3" target="_top" xlink:title=" ">
<polygon fill="white" stroke="black" points="0,-382.5 0,-412.5 116,-412.5 116,-382.5 0,-382.5"/>
<text text-anchor="start" x="8" y="-400.5" font-family="Helvetica,sans-Serif" font-size="10.00">ft::irc::client_handler</text>
<text text-anchor="middle" x="58" y="-389.5" font-family="Helvetica,sans-Serif" font-size="10.00">::on_read</text>
</a>
</g>
</g>
<!-- Node4&#45;&gt;Node5 -->
<g id="edge4" class="edge">
<title>Node4&#45;&gt;Node5</title>
<path fill="none" stroke="midnightblue" d="M158.96,-397.5C144.79,-397.5 129.94,-397.5 116.16,-397.5"/>
<polygon fill="midnightblue" stroke="midnightblue" points="159.13,-401 169.13,-397.5 159.13,-394 159.13,-401"/>
</g>
<!-- Node13&#45;&gt;Node6 -->
<g id="edge14" class="edge">
<title>Node13&#45;&gt;Node6</title>
<path fill="none" stroke="midnightblue" d="M159.68,-34.02C156.99,-35.69 154.41,-37.52 152,-39.5 101.29,-81.28 73.39,-158.33 63.35,-191.1"/>
<polygon fill="midnightblue" stroke="midnightblue" points="161.51,-37.01 168.63,-29.17 158.17,-30.86 161.51,-37.01"/>
</g>
<!-- Node14 -->
<g id="node14" class="node">
<title>Node14</title>
<g id="a_node14"><a xlink:href="classft_1_1irc_1_1processor__names.html#a95f660c1020ac7f26cceacd932f48f09" target="_top" xlink:title=" ">
<polygon fill="white" stroke="black" points="8.5,-0.5 8.5,-30.5 107.5,-30.5 107.5,-0.5 8.5,-0.5"/>
<text text-anchor="start" x="16.5" y="-18.5" font-family="Helvetica,sans-Serif" font-size="10.00">ft::irc::processor</text>
<text text-anchor="middle" x="58" y="-7.5" font-family="Helvetica,sans-Serif" font-size="10.00">_names::execute</text>
</a>
</g>
</g>
<!-- Node13&#45;&gt;Node14 -->
<g id="edge15" class="edge">
<title>Node13&#45;&gt;Node14</title>
<path fill="none" stroke="midnightblue" d="M158.24,-15.5C141.27,-15.5 123.38,-15.5 107.53,-15.5"/>
<polygon fill="midnightblue" stroke="midnightblue" points="158.67,-19 168.67,-15.5 158.67,-12 158.67,-19"/>
</g>
</g>
</svg>
