<?xml version="1.0" encoding="UTF-8" standalone="no"?>
<!DOCTYPE svg PUBLIC "-//W3C//DTD SVG 1.1//EN"
 "http://www.w3.org/Graphics/SVG/1.1/DTD/svg11.dtd">
<!-- Generated by graphviz version 2.43.0 (0)
 -->
<!-- Title: ft::serv::byte_buffer::get Pages: 1 -->
<svg width="672pt" height="274pt"
 viewBox="0.00 0.00 672.00 273.50" xmlns="http://www.w3.org/2000/svg" xmlns:xlink="http://www.w3.org/1999/xlink">
<g id="graph0" class="graph" transform="scale(1 1) rotate(0) translate(4 269.5)">
<title>ft::serv::byte_buffer::get</title>
<polygon fill="white" stroke="transparent" points="-4,4 -4,-269.5 668,-269.5 668,4 -4,4"/>
<!-- Node1 -->
<g id="node1" class="node">
<title>Node1</title>
<g id="a_node1"><a xlink:title=" ">
<polygon fill="#bfbfbf" stroke="black" points="531,-93.5 531,-112.5 664,-112.5 664,-93.5 531,-93.5"/>
<text text-anchor="middle" x="597.5" y="-100.5" font-family="Helvetica,sans-Serif" font-size="10.00">ft::serv::byte_buffer::get</text>
</a>
</g>
</g>
<!-- Node2 -->
<g id="node2" class="node">
<title>Node2</title>
<g id="a_node2"><a xlink:href="classbyte__buffer__dump__logger__handler.html#ada037fe82180c1ff6d92d17b6d4143b9" target="_top" xlink:title=" ">
<polygon fill="white" stroke="black" points="354,-186 354,-216 495,-216 495,-186 354,-186"/>
<text text-anchor="start" x="362" y="-204" font-family="Helvetica,sans-Serif" font-size="10.00">byte_buffer_dump_logger</text>
<text text-anchor="middle" x="424.5" y="-193" font-family="Helvetica,sans-Serif" font-size="10.00">_handler::_dump</text>
</a>
</g>
</g>
<!-- Node1&#45;&gt;Node2 -->
<g id="edge1" class="edge">
<title>Node1&#45;&gt;Node2</title>
<path fill="none" stroke="midnightblue" d="M577.45,-119.19C557.81,-135.27 525.79,-159.8 495,-176 488.08,-179.64 480.51,-182.97 472.99,-185.92"/>
<polygon fill="midnightblue" stroke="midnightblue" points="579.86,-121.74 585.32,-112.66 575.39,-116.36 579.86,-121.74"/>
</g>
<!-- Node5 -->
<g id="node5" class="node">
<title>Node5</title>
<g id="a_node5"><a xlink:href="classft_1_1serv_1_1byte__buffer.html#a09c6306ccf0e47873fc264c4b76b1295" target="_top" xlink:title=" ">
<polygon fill="white" stroke="black" points="369,-137 369,-167 480,-167 480,-137 369,-137"/>
<text text-anchor="start" x="377" y="-155" font-family="Helvetica,sans-Serif" font-size="10.00">ft::serv::byte_buffer</text>
<text text-anchor="middle" x="424.5" y="-144" font-family="Helvetica,sans-Serif" font-size="10.00">::append_from</text>
</a>
</g>
</g>
<!-- Node1&#45;&gt;Node5 -->
<g id="edge4" class="edge">
<title>Node1&#45;&gt;Node5</title>
<path fill="none" stroke="midnightblue" d="M553.35,-115.37C530.45,-121.93 502.13,-130.04 477.98,-136.96"/>
<polygon fill="midnightblue" stroke="midnightblue" points="554.47,-118.68 563.12,-112.56 552.55,-111.95 554.47,-118.68"/>
</g>
<!-- Node8 -->
<g id="node8" class="node">
<title>Node8</title>
<g id="a_node8"><a xlink:href="classft_1_1serv_1_1event__channel__base.html#a29c287e2466273e0a3b1ff273d8cf77d" target="_top" xlink:title=" ">
<polygon fill="white" stroke="black" points="361,-88 361,-118 488,-118 488,-88 361,-88"/>
<text text-anchor="start" x="369" y="-106" font-family="Helvetica,sans-Serif" font-size="10.00">ft::serv::event_channel</text>
<text text-anchor="middle" x="424.5" y="-95" font-family="Helvetica,sans-Serif" font-size="10.00">_base::begin_write</text>
</a>
</g>
</g>
<!-- Node1&#45;&gt;Node8 -->
<g id="edge7" class="edge">
<title>Node1&#45;&gt;Node8</title>
<path fill="none" stroke="midnightblue" d="M520.57,-103C509.73,-103 498.68,-103 488.13,-103"/>
<polygon fill="midnightblue" stroke="midnightblue" points="520.88,-106.5 530.88,-103 520.88,-99.5 520.88,-106.5"/>
</g>
<!-- Node9 -->
<g id="node9" class="node">
<title>Node9</title>
<g id="a_node9"><a xlink:href="classft_1_1irc_1_1string__line__decoder.html#a3d6110ff462e8acf6a148e724fe3a718" target="_top" xlink:title=" ">
<polygon fill="white" stroke="black" points="373.5,-39 373.5,-69 475.5,-69 475.5,-39 373.5,-39"/>
<text text-anchor="start" x="381.5" y="-57" font-family="Helvetica,sans-Serif" font-size="10.00">ft::irc::string_line</text>
<text text-anchor="middle" x="424.5" y="-46" font-family="Helvetica,sans-Serif" font-size="10.00">_decoder::decode</text>
</a>
</g>
</g>
<!-- Node1&#45;&gt;Node9 -->
<g id="edge8" class="edge">
<title>Node1&#45;&gt;Node9</title>
<path fill="none" stroke="midnightblue" d="M553.38,-90.64C529.74,-83.87 500.31,-75.44 475.65,-68.37"/>
<polygon fill="midnightblue" stroke="midnightblue" points="552.55,-94.05 563.12,-93.44 554.47,-87.32 552.55,-94.05"/>
</g>
<!-- Node10 -->
<g id="node10" class="node">
<title>Node10</title>
<g id="a_node10"><a xlink:href="classft_1_1serv_1_1byte__buffer.html#a520dd79bf91c5ce53f2a1d69ef0329b3" target="_top" xlink:title=" ">
<polygon fill="white" stroke="black" points="358,-0.5 358,-19.5 491,-19.5 491,-0.5 358,-0.5"/>
<text text-anchor="middle" x="424.5" y="-7.5" font-family="Helvetica,sans-Serif" font-size="10.00">ft::serv::byte_buffer::get</text>
</a>
</g>
</g>
<!-- Node1&#45;&gt;Node10 -->
<g id="edge9" class="edge">
<title>Node1&#45;&gt;Node10</title>
<path fill="none" stroke="midnightblue" d="M578.38,-86.6C559.03,-69.89 526.84,-44.32 495,-29 487.11,-25.2 478.34,-22.06 469.76,-19.5"/>
<polygon fill="midnightblue" stroke="midnightblue" points="576.26,-89.4 586.08,-93.37 580.88,-84.14 576.26,-89.4"/>
</g>
<!-- Node3 -->
<g id="node3" class="node">
<title>Node3</title>
<g id="a_node3"><a xlink:href="classbyte__buffer__dump__logger__handler.html#a9eb414dfefb69775ed811bde88f7dc66" target="_top" xlink:title=" ">
<polygon fill="white" stroke="black" points="177,-235 177,-265 318,-265 318,-235 177,-235"/>
<text text-anchor="start" x="185" y="-253" font-family="Helvetica,sans-Serif" font-size="10.00">byte_buffer_dump_logger</text>
<text text-anchor="middle" x="247.5" y="-242" font-family="Helvetica,sans-Serif" font-size="10.00">_handler::on_read</text>
</a>
</g>
</g>
<!-- Node2&#45;&gt;Node3 -->
<g id="edge2" class="edge">
<title>Node2&#45;&gt;Node3</title>
<path fill="none" stroke="midnightblue" d="M359.85,-218.82C340.96,-224.11 320.46,-229.85 302.26,-234.95"/>
<polygon fill="midnightblue" stroke="midnightblue" points="360.88,-222.17 369.57,-216.1 358.99,-215.43 360.88,-222.17"/>
</g>
<!-- Node4 -->
<g id="node4" class="node">
<title>Node4</title>
<g id="a_node4"><a xlink:href="classbyte__buffer__dump__logger__handler.html#a59ea4ac74be0b6b4a018633945961794" target="_top" xlink:title=" ">
<polygon fill="white" stroke="black" points="177,-186 177,-216 318,-216 318,-186 177,-186"/>
<text text-anchor="start" x="185" y="-204" font-family="Helvetica,sans-Serif" font-size="10.00">byte_buffer_dump_logger</text>
<text text-anchor="middle" x="247.5" y="-193" font-family="Helvetica,sans-Serif" font-size="10.00">_handler::on_write</text>
</a>
</g>
</g>
<!-- Node2&#45;&gt;Node4 -->
<g id="edge3" class="edge">
<title>Node2&#45;&gt;Node4</title>
<path fill="none" stroke="midnightblue" d="M343.58,-201C335.11,-201 326.55,-201 318.21,-201"/>
<polygon fill="midnightblue" stroke="midnightblue" points="343.83,-204.5 353.83,-201 343.83,-197.5 343.83,-204.5"/>
</g>
<!-- Node6 -->
<g id="node6" class="node">
<title>Node6</title>
<g id="a_node6"><a xlink:href="classft_1_1serv_1_1event__channel__base.html#a005268263635e2c6917efab0926d22e3" target="_top" xlink:title=" ">
<polygon fill="white" stroke="black" points="184,-137 184,-167 311,-167 311,-137 184,-137"/>
<text text-anchor="start" x="192" y="-155" font-family="Helvetica,sans-Serif" font-size="10.00">ft::serv::event_channel</text>
<text text-anchor="middle" x="247.5" y="-144" font-family="Helvetica,sans-Serif" font-size="10.00">_base::flush</text>
</a>
</g>
</g>
<!-- Node5&#45;&gt;Node6 -->
<g id="edge5" class="edge">
<title>Node5&#45;&gt;Node6</title>
<path fill="none" stroke="midnightblue" d="M358.58,-152C343.07,-152 326.54,-152 311.13,-152"/>
<polygon fill="midnightblue" stroke="midnightblue" points="358.61,-155.5 368.61,-152 358.61,-148.5 358.61,-155.5"/>
</g>
<!-- Node7 -->
<g id="node7" class="node">
<title>Node7</title>
<g id="a_node7"><a xlink:href="classdummy__inbound__adapter.html#adc697674fcb0b100580c742de5e16cce" target="_top" xlink:title=" ">
<polygon fill="white" stroke="black" points="0,-137 0,-167 141,-167 141,-137 0,-137"/>
<text text-anchor="start" x="8" y="-155" font-family="Helvetica,sans-Serif" font-size="10.00">dummy_inbound_adapter</text>
<text text-anchor="middle" x="70.5" y="-144" font-family="Helvetica,sans-Serif" font-size="10.00">::on_flush</text>
</a>
</g>
</g>
<!-- Node6&#45;&gt;Node7 -->
<g id="edge6" class="edge">
<title>Node6&#45;&gt;Node7</title>
<path fill="none" stroke="midnightblue" d="M173.63,-152C162.89,-152 151.85,-152 141.17,-152"/>
<polygon fill="midnightblue" stroke="midnightblue" points="173.82,-155.5 183.82,-152 173.82,-148.5 173.82,-155.5"/>
</g>
</g>
</svg>
