<?xml version="1.0" encoding="UTF-8" standalone="no"?>
<!DOCTYPE svg PUBLIC "-//W3C//DTD SVG 1.1//EN"
 "http://www.w3.org/Graphics/SVG/1.1/DTD/svg11.dtd">
<!-- Generated by graphviz version 2.43.0 (0)
 -->
<!-- Title: ft::irc::message_decoder Pages: 1 -->
<svg width="328pt" height="174pt"
 viewBox="0.00 0.00 327.50 174.00" xmlns="http://www.w3.org/2000/svg" xmlns:xlink="http://www.w3.org/1999/xlink">
<g id="graph0" class="graph" transform="scale(1 1) rotate(0) translate(4 170)">
<title>ft::irc::message_decoder</title>
<polygon fill="white" stroke="transparent" points="-4,4 -4,-170 323.5,-170 323.5,4 -4,4"/>
<!-- Node1 -->
<g id="node1" class="node">
<title>Node1</title>
<g id="a_node1"><a xlink:title=" ">
<polygon fill="#bfbfbf" stroke="black" points="93,-0.5 93,-19.5 229,-19.5 229,-0.5 93,-0.5"/>
<text text-anchor="middle" x="161" y="-7.5" font-family="Helvetica,sans-Serif" font-size="10.00">ft::irc::message_decoder</text>
</a>
</g>
</g>
<!-- Node2 -->
<g id="node2" class="node">
<title>Node2</title>
<g id="a_node2"><a xlink:href="classft_1_1serv_1_1object__decoder.html" target="_top" xlink:title=" ">
<polygon fill="white" stroke="black" points="96,-57.5 96,-76.5 226,-76.5 226,-57.5 96,-57.5"/>
<text text-anchor="middle" x="161" y="-64.5" font-family="Helvetica,sans-Serif" font-size="10.00">ft::serv::object_decoder</text>
</a>
</g>
</g>
<!-- Node2&#45;&gt;Node1 -->
<g id="edge1" class="edge">
<title>Node2&#45;&gt;Node1</title>
<path fill="none" stroke="midnightblue" d="M161,-47.12C161,-37.82 161,-27.06 161,-19.71"/>
<polygon fill="midnightblue" stroke="midnightblue" points="157.5,-47.41 161,-57.41 164.5,-47.41 157.5,-47.41"/>
</g>
<!-- Node3 -->
<g id="node3" class="node">
<title>Node3</title>
<g id="a_node3"><a xlink:href="classft_1_1serv_1_1event__handler__base.html" target="_top" xlink:title=" ">
<polygon fill="white" stroke="black" points="0,-141 0,-160 154,-160 154,-141 0,-141"/>
<text text-anchor="middle" x="77" y="-148" font-family="Helvetica,sans-Serif" font-size="10.00">ft::serv::event_handler_base</text>
</a>
</g>
</g>
<!-- Node3&#45;&gt;Node2 -->
<g id="edge2" class="edge">
<title>Node3&#45;&gt;Node2</title>
<path fill="none" stroke="midnightblue" d="M93.28,-133.7C110.82,-116.68 138.1,-90.22 152.08,-76.66"/>
<polygon fill="midnightblue" stroke="midnightblue" points="90.73,-131.3 85.99,-140.78 95.6,-136.33 90.73,-131.3"/>
</g>
<!-- Node4 -->
<g id="node4" class="node">
<title>Node4</title>
<g id="a_node4"><a xlink:href="structft_1_1serv_1_1dynamic__buffer.html" target="_top" xlink:title=" ">
<polygon fill="white" stroke="black" points="172.5,-135.5 172.5,-165.5 319.5,-165.5 319.5,-135.5 172.5,-135.5"/>
<text text-anchor="start" x="180.5" y="-153.5" font-family="Helvetica,sans-Serif" font-size="10.00">ft::serv::dynamic_buffer</text>
<text text-anchor="middle" x="246" y="-142.5" font-family="Helvetica,sans-Serif" font-size="10.00">&lt; ft::shared_ptr&lt; void &gt; &gt;</text>
</a>
</g>
</g>
<!-- Node4&#45;&gt;Node2 -->
<g id="edge3" class="edge">
<title>Node4&#45;&gt;Node2</title>
<path fill="none" stroke="#9a32cd" stroke-dasharray="5,2" d="M223.6,-128.03C206.04,-111.19 182.53,-88.64 169.91,-76.54"/>
<polygon fill="#9a32cd" stroke="#9a32cd" points="221.55,-130.91 231.19,-135.3 226.4,-125.86 221.55,-130.91"/>
<text text-anchor="middle" x="251.5" y="-109" font-family="Helvetica,sans-Serif" font-size="10.00"> cumulative_obj</text>
<text text-anchor="middle" x="251.5" y="-98" font-family="Helvetica,sans-Serif" font-size="10.00">output</text>
</g>
</g>
</svg>
