<?xml version="1.0" encoding="UTF-8" standalone="no"?>
<!DOCTYPE svg PUBLIC "-//W3C//DTD SVG 1.1//EN"
 "http://www.w3.org/Graphics/SVG/1.1/DTD/svg11.dtd">
<!-- Generated by graphviz version 2.43.0 (0)
 -->
<!-- Title: ft::irc::processor_base Pages: 1 -->
<svg width="426pt" height="772pt"
 viewBox="0.00 0.00 426.00 771.50" xmlns="http://www.w3.org/2000/svg" xmlns:xlink="http://www.w3.org/1999/xlink">
<g id="graph0" class="graph" transform="scale(1 1) rotate(0) translate(4 767.5)">
<title>ft::irc::processor_base</title>
<polygon fill="white" stroke="transparent" points="-4,4 -4,-767.5 422,-767.5 422,4 -4,4"/>
<!-- Node1 -->
<g id="node1" class="node">
<title>Node1</title>
<g id="a_node1"><a xlink:title=" ">
<polygon fill="#bfbfbf" stroke="black" points="0,-372 0,-391 123,-391 123,-372 0,-372"/>
<text text-anchor="middle" x="61.5" y="-379" font-family="Helvetica,sans-Serif" font-size="10.00">ft::irc::processor_base</text>
</a>
</g>
</g>
<!-- Node2 -->
<g id="node2" class="node">
<title>Node2</title>
<g id="a_node2"><a xlink:href="classft_1_1irc_1_1processor__away.html" target="_top" xlink:title=" ">
<polygon fill="white" stroke="black" points="160,-744 160,-763 286,-763 286,-744 160,-744"/>
<text text-anchor="middle" x="223" y="-751" font-family="Helvetica,sans-Serif" font-size="10.00">ft::irc::processor_away</text>
</a>
</g>
</g>
<!-- Node1&#45;&gt;Node2 -->
<g id="edge1" class="edge">
<title>Node1&#45;&gt;Node2</title>
<path fill="none" stroke="midnightblue" d="M61.72,-401.54C60.56,-461.04 65.48,-638.51 159,-734.5 162.75,-738.35 167.24,-741.42 172.08,-743.88"/>
<polygon fill="midnightblue" stroke="midnightblue" points="65.23,-401.37 62.01,-391.27 58.23,-401.17 65.23,-401.37"/>
</g>
<!-- Node3 -->
<g id="node3" class="node">
<title>Node3</title>
<g id="a_node3"><a xlink:href="classft_1_1irc_1_1processor__cap.html" target="_top" xlink:title=" ">
<polygon fill="white" stroke="black" points="164.5,-706 164.5,-725 281.5,-725 281.5,-706 164.5,-706"/>
<text text-anchor="middle" x="223" y="-713" font-family="Helvetica,sans-Serif" font-size="10.00">ft::irc::processor_cap</text>
</a>
</g>
</g>
<!-- Node1&#45;&gt;Node3 -->
<g id="edge2" class="edge">
<title>Node1&#45;&gt;Node3</title>
<path fill="none" stroke="midnightblue" d="M62.5,-401.19C63.61,-456.09 74.43,-612.29 159,-696.5 162.89,-700.37 167.53,-703.46 172.51,-705.92"/>
<polygon fill="midnightblue" stroke="midnightblue" points="66,-401.04 62.39,-391.08 59,-401.12 66,-401.04"/>
</g>
<!-- Node4 -->
<g id="node4" class="node">
<title>Node4</title>
<g id="a_node4"><a xlink:href="classft_1_1irc_1_1processor__invite.html" target="_top" xlink:title=" ">
<polygon fill="white" stroke="black" points="175.5,-656.5 175.5,-686.5 270.5,-686.5 270.5,-656.5 175.5,-656.5"/>
<text text-anchor="start" x="183.5" y="-674.5" font-family="Helvetica,sans-Serif" font-size="10.00">ft::irc::processor</text>
<text text-anchor="middle" x="223" y="-663.5" font-family="Helvetica,sans-Serif" font-size="10.00">_invite</text>
</a>
</g>
</g>
<!-- Node1&#45;&gt;Node4 -->
<g id="edge3" class="edge">
<title>Node1&#45;&gt;Node4</title>
<path fill="none" stroke="midnightblue" d="M64.24,-401.23C69.51,-449.53 89.5,-574.99 159,-646.5 163.67,-651.31 169.39,-655.22 175.45,-658.39"/>
<polygon fill="midnightblue" stroke="midnightblue" points="67.71,-400.77 63.23,-391.16 60.74,-401.46 67.71,-400.77"/>
</g>
<!-- Node5 -->
<g id="node5" class="node">
<title>Node5</title>
<g id="a_node5"><a xlink:href="classft_1_1irc_1_1processor__join.html" target="_top" xlink:title=" ">
<polygon fill="white" stroke="black" points="164,-618 164,-637 282,-637 282,-618 164,-618"/>
<text text-anchor="middle" x="223" y="-625" font-family="Helvetica,sans-Serif" font-size="10.00">ft::irc::processor_join</text>
</a>
</g>
</g>
<!-- Node1&#45;&gt;Node5 -->
<g id="edge4" class="edge">
<title>Node1&#45;&gt;Node5</title>
<path fill="none" stroke="midnightblue" d="M65.22,-401.38C72.29,-445.34 95.35,-551.44 159,-608.5 163.34,-612.39 168.45,-615.48 173.85,-617.94"/>
<polygon fill="midnightblue" stroke="midnightblue" points="68.66,-400.75 63.72,-391.38 61.74,-401.79 68.66,-400.75"/>
</g>
<!-- Node6 -->
<g id="node6" class="node">
<title>Node6</title>
<g id="a_node6"><a xlink:href="classft_1_1irc_1_1processor__kick.html" target="_top" xlink:title=" ">
<polygon fill="white" stroke="black" points="163,-580 163,-599 283,-599 283,-580 163,-580"/>
<text text-anchor="middle" x="223" y="-587" font-family="Helvetica,sans-Serif" font-size="10.00">ft::irc::processor_kick</text>
</a>
</g>
</g>
<!-- Node1&#45;&gt;Node6 -->
<g id="edge5" class="edge">
<title>Node1&#45;&gt;Node6</title>
<path fill="none" stroke="midnightblue" d="M66.97,-400.87C76.79,-439.09 103.92,-524.5 159,-570.5 163.65,-574.38 169.07,-577.47 174.75,-579.93"/>
<polygon fill="midnightblue" stroke="midnightblue" points="70.33,-399.89 64.55,-391.01 63.53,-401.56 70.33,-399.89"/>
</g>
<!-- Node7 -->
<g id="node7" class="node">
<title>Node7</title>
<g id="a_node7"><a xlink:href="classft_1_1irc_1_1processor__kill.html" target="_top" xlink:title=" ">
<polygon fill="white" stroke="black" points="165.5,-542 165.5,-561 280.5,-561 280.5,-542 165.5,-542"/>
<text text-anchor="middle" x="223" y="-549" font-family="Helvetica,sans-Serif" font-size="10.00">ft::irc::processor_kill</text>
</a>
</g>
</g>
<!-- Node1&#45;&gt;Node7 -->
<g id="edge6" class="edge">
<title>Node1&#45;&gt;Node7</title>
<path fill="none" stroke="midnightblue" d="M69.67,-400.91C82.54,-433.1 112.63,-497.43 159,-532.5 164.1,-536.36 169.99,-539.44 176.07,-541.9"/>
<polygon fill="midnightblue" stroke="midnightblue" points="72.83,-399.39 65.96,-391.32 66.3,-401.91 72.83,-399.39"/>
</g>
<!-- Node8 -->
<g id="node8" class="node">
<title>Node8</title>
<g id="a_node8"><a xlink:href="classft_1_1irc_1_1processor__list.html" target="_top" xlink:title=" ">
<polygon fill="white" stroke="black" points="165.5,-504 165.5,-523 280.5,-523 280.5,-504 165.5,-504"/>
<text text-anchor="middle" x="223" y="-511" font-family="Helvetica,sans-Serif" font-size="10.00">ft::irc::processor_list</text>
</a>
</g>
</g>
<!-- Node1&#45;&gt;Node8 -->
<g id="edge7" class="edge">
<title>Node1&#45;&gt;Node8</title>
<path fill="none" stroke="midnightblue" d="M73.68,-399.95C89.63,-424.73 121.18,-468.53 159,-493.5 165.51,-497.8 173.01,-501.23 180.51,-503.94"/>
<polygon fill="midnightblue" stroke="midnightblue" points="76.46,-397.79 68.18,-391.17 70.53,-401.51 76.46,-397.79"/>
</g>
<!-- Node9 -->
<g id="node9" class="node">
<title>Node9</title>
<g id="a_node9"><a xlink:href="classft_1_1irc_1_1processor__message__base.html" target="_top" xlink:title=" ">
<polygon fill="white" stroke="black" points="175.5,-454.5 175.5,-484.5 270.5,-484.5 270.5,-454.5 175.5,-454.5"/>
<text text-anchor="start" x="183.5" y="-472.5" font-family="Helvetica,sans-Serif" font-size="10.00">ft::irc::processor</text>
<text text-anchor="middle" x="223" y="-461.5" font-family="Helvetica,sans-Serif" font-size="10.00">_message_base</text>
</a>
</g>
</g>
<!-- Node1&#45;&gt;Node9 -->
<g id="edge8" class="edge">
<title>Node1&#45;&gt;Node9</title>
<path fill="none" stroke="midnightblue" d="M83.67,-397.1C102.74,-410.72 131.86,-430.43 159,-444.5 165.79,-448.02 173.2,-451.36 180.46,-454.39"/>
<polygon fill="midnightblue" stroke="midnightblue" points="85.57,-394.16 75.41,-391.14 81.47,-399.83 85.57,-394.16"/>
</g>
<!-- Node12 -->
<g id="node12" class="node">
<title>Node12</title>
<g id="a_node12"><a xlink:href="classft_1_1irc_1_1processor__mode.html" target="_top" xlink:title=" ">
<polygon fill="white" stroke="black" points="159,-416 159,-435 287,-435 287,-416 159,-416"/>
<text text-anchor="middle" x="223" y="-423" font-family="Helvetica,sans-Serif" font-size="10.00">ft::irc::processor_mode</text>
</a>
</g>
</g>
<!-- Node1&#45;&gt;Node12 -->
<g id="edge11" class="edge">
<title>Node1&#45;&gt;Node12</title>
<path fill="none" stroke="midnightblue" d="M106.9,-393.75C132.36,-400.77 163.86,-409.46 187.46,-415.97"/>
<polygon fill="midnightblue" stroke="midnightblue" points="107.68,-390.33 97.11,-391.05 105.82,-397.08 107.68,-390.33"/>
</g>
<!-- Node13 -->
<g id="node13" class="node">
<title>Node13</title>
<g id="a_node13"><a xlink:href="classft_1_1irc_1_1processor__names.html" target="_top" xlink:title=" ">
<polygon fill="white" stroke="black" points="175.5,-366.5 175.5,-396.5 270.5,-396.5 270.5,-366.5 175.5,-366.5"/>
<text text-anchor="start" x="183.5" y="-384.5" font-family="Helvetica,sans-Serif" font-size="10.00">ft::irc::processor</text>
<text text-anchor="middle" x="223" y="-373.5" font-family="Helvetica,sans-Serif" font-size="10.00">_names</text>
</a>
</g>
</g>
<!-- Node1&#45;&gt;Node13 -->
<g id="edge12" class="edge">
<title>Node1&#45;&gt;Node13</title>
<path fill="none" stroke="midnightblue" d="M133.48,-381.5C147.66,-381.5 162.2,-381.5 175.31,-381.5"/>
<polygon fill="midnightblue" stroke="midnightblue" points="133.26,-378 123.26,-381.5 133.26,-385 133.26,-378"/>
</g>
<!-- Node14 -->
<g id="node14" class="node">
<title>Node14</title>
<g id="a_node14"><a xlink:href="classft_1_1irc_1_1processor__nick.html" target="_top" xlink:title=" ">
<polygon fill="white" stroke="black" points="163,-328 163,-347 283,-347 283,-328 163,-328"/>
<text text-anchor="middle" x="223" y="-335" font-family="Helvetica,sans-Serif" font-size="10.00">ft::irc::processor_nick</text>
</a>
</g>
</g>
<!-- Node1&#45;&gt;Node14 -->
<g id="edge13" class="edge">
<title>Node1&#45;&gt;Node14</title>
<path fill="none" stroke="midnightblue" d="M106.9,-369.25C132.36,-362.23 163.86,-353.54 187.46,-347.03"/>
<polygon fill="midnightblue" stroke="midnightblue" points="105.82,-365.92 97.11,-371.95 107.68,-372.67 105.82,-365.92"/>
</g>
<!-- Node15 -->
<g id="node15" class="node">
<title>Node15</title>
<g id="a_node15"><a xlink:href="classft_1_1irc_1_1processor__oper.html" target="_top" xlink:title=" ">
<polygon fill="white" stroke="black" points="162,-290 162,-309 284,-309 284,-290 162,-290"/>
<text text-anchor="middle" x="223" y="-297" font-family="Helvetica,sans-Serif" font-size="10.00">ft::irc::processor_oper</text>
</a>
</g>
</g>
<!-- Node1&#45;&gt;Node15 -->
<g id="edge14" class="edge">
<title>Node1&#45;&gt;Node15</title>
<path fill="none" stroke="midnightblue" d="M82.75,-365.8C101.62,-351.8 130.97,-331.55 159,-318.5 166.87,-314.84 175.62,-311.67 184.04,-309.04"/>
<polygon fill="midnightblue" stroke="midnightblue" points="80.5,-363.12 74.63,-371.93 84.72,-368.7 80.5,-363.12"/>
</g>
<!-- Node16 -->
<g id="node16" class="node">
<title>Node16</title>
<g id="a_node16"><a xlink:href="classft_1_1irc_1_1processor__part.html" target="_top" xlink:title=" ">
<polygon fill="white" stroke="black" points="163.5,-252 163.5,-271 282.5,-271 282.5,-252 163.5,-252"/>
<text text-anchor="middle" x="223" y="-259" font-family="Helvetica,sans-Serif" font-size="10.00">ft::irc::processor_part</text>
</a>
</g>
</g>
<!-- Node1&#45;&gt;Node16 -->
<g id="edge15" class="edge">
<title>Node1&#45;&gt;Node16</title>
<path fill="none" stroke="midnightblue" d="M75.04,-363.51C91.69,-340.92 123.21,-302.47 159,-280.5 165.23,-276.68 172.28,-273.58 179.36,-271.08"/>
<polygon fill="midnightblue" stroke="midnightblue" points="72.03,-361.7 69.03,-371.86 77.71,-365.79 72.03,-361.7"/>
</g>
<!-- Node17 -->
<g id="node17" class="node">
<title>Node17</title>
<g id="a_node17"><a xlink:href="classft_1_1irc_1_1processor__pass.html" target="_top" xlink:title=" ">
<polygon fill="white" stroke="black" points="162,-214 162,-233 284,-233 284,-214 162,-214"/>
<text text-anchor="middle" x="223" y="-221" font-family="Helvetica,sans-Serif" font-size="10.00">ft::irc::processor_pass</text>
</a>
</g>
</g>
<!-- Node1&#45;&gt;Node17 -->
<g id="edge16" class="edge">
<title>Node1&#45;&gt;Node17</title>
<path fill="none" stroke="midnightblue" d="M70.67,-362.37C84.46,-332.35 115.21,-274.32 159,-242.5 164.36,-238.6 170.53,-235.5 176.86,-233.03"/>
<polygon fill="midnightblue" stroke="midnightblue" points="67.37,-361.18 66.5,-371.74 73.77,-364.02 67.37,-361.18"/>
</g>
<!-- Node18 -->
<g id="node18" class="node">
<title>Node18</title>
<g id="a_node18"><a xlink:href="classft_1_1irc_1_1processor__quit.html" target="_top" xlink:title=" ">
<polygon fill="white" stroke="black" points="163.5,-176 163.5,-195 282.5,-195 282.5,-176 163.5,-176"/>
<text text-anchor="middle" x="223" y="-183" font-family="Helvetica,sans-Serif" font-size="10.00">ft::irc::processor_quit</text>
</a>
</g>
</g>
<!-- Node1&#45;&gt;Node18 -->
<g id="edge17" class="edge">
<title>Node1&#45;&gt;Node18</title>
<path fill="none" stroke="midnightblue" d="M67.78,-361.86C78.6,-325.35 106.81,-246.9 159,-204.5 163.79,-200.61 169.36,-197.52 175.17,-195.05"/>
<polygon fill="midnightblue" stroke="midnightblue" points="64.33,-361.18 64.97,-371.76 71.07,-363.09 64.33,-361.18"/>
</g>
<!-- Node19 -->
<g id="node19" class="node">
<title>Node19</title>
<g id="a_node19"><a xlink:href="classft_1_1irc_1_1processor__topic.html" target="_top" xlink:title=" ">
<polygon fill="white" stroke="black" points="175.5,-126.5 175.5,-156.5 270.5,-156.5 270.5,-126.5 175.5,-126.5"/>
<text text-anchor="start" x="183.5" y="-144.5" font-family="Helvetica,sans-Serif" font-size="10.00">ft::irc::processor</text>
<text text-anchor="middle" x="223" y="-133.5" font-family="Helvetica,sans-Serif" font-size="10.00">_topic</text>
</a>
</g>
</g>
<!-- Node1&#45;&gt;Node19 -->
<g id="edge18" class="edge">
<title>Node1&#45;&gt;Node19</title>
<path fill="none" stroke="midnightblue" d="M66.12,-361.93C74.79,-320.35 100.51,-222.46 159,-166.5 163.76,-161.94 169.45,-158.19 175.44,-155.09"/>
<polygon fill="midnightblue" stroke="midnightblue" points="62.66,-361.38 64.15,-371.87 69.53,-362.74 62.66,-361.38"/>
</g>
<!-- Node20 -->
<g id="node20" class="node">
<title>Node20</title>
<g id="a_node20"><a xlink:href="classft_1_1irc_1_1processor__user.html" target="_top" xlink:title=" ">
<polygon fill="white" stroke="black" points="162.5,-88 162.5,-107 283.5,-107 283.5,-88 162.5,-88"/>
<text text-anchor="middle" x="223" y="-95" font-family="Helvetica,sans-Serif" font-size="10.00">ft::irc::processor_user</text>
</a>
</g>
</g>
<!-- Node1&#45;&gt;Node20 -->
<g id="edge19" class="edge">
<title>Node1&#45;&gt;Node20</title>
<path fill="none" stroke="midnightblue" d="M63.83,-361.73C68.21,-312.82 86.36,-185.16 159,-116.5 163.07,-112.65 167.89,-109.59 173.02,-107.14"/>
<polygon fill="midnightblue" stroke="midnightblue" points="60.33,-361.66 63.03,-371.9 67.31,-362.21 60.33,-361.66"/>
</g>
<!-- Node21 -->
<g id="node21" class="node">
<title>Node21</title>
<g id="a_node21"><a xlink:href="classft_1_1irc_1_1processor__who.html" target="_top" xlink:title=" ">
<polygon fill="white" stroke="black" points="163,-50 163,-69 283,-69 283,-50 163,-50"/>
<text text-anchor="middle" x="223" y="-57" font-family="Helvetica,sans-Serif" font-size="10.00">ft::irc::processor_who</text>
</a>
</g>
</g>
<!-- Node1&#45;&gt;Node21 -->
<g id="edge20" class="edge">
<title>Node1&#45;&gt;Node21</title>
<path fill="none" stroke="midnightblue" d="M62.78,-361.85C64.64,-308.39 77.27,-158.98 159,-78.5 162.91,-74.65 167.56,-71.58 172.55,-69.13"/>
<polygon fill="midnightblue" stroke="midnightblue" points="59.28,-361.91 62.52,-372 66.28,-362.09 59.28,-361.91"/>
</g>
<!-- Node22 -->
<g id="node22" class="node">
<title>Node22</title>
<g id="a_node22"><a xlink:href="classft_1_1irc_1_1processor__whois.html" target="_top" xlink:title=" ">
<polygon fill="white" stroke="black" points="175.5,-0.5 175.5,-30.5 270.5,-30.5 270.5,-0.5 175.5,-0.5"/>
<text text-anchor="start" x="183.5" y="-18.5" font-family="Helvetica,sans-Serif" font-size="10.00">ft::irc::processor</text>
<text text-anchor="middle" x="223" y="-7.5" font-family="Helvetica,sans-Serif" font-size="10.00">_whois</text>
</a>
</g>
</g>
<!-- Node1&#45;&gt;Node22 -->
<g id="edge21" class="edge">
<title>Node1&#45;&gt;Node22</title>
<path fill="none" stroke="midnightblue" d="M62.34,-361.74C62.94,-304.48 72.4,-136.41 159,-40.5 163.57,-35.43 169.31,-31.38 175.44,-28.14"/>
<polygon fill="midnightblue" stroke="midnightblue" points="58.84,-361.93 62.32,-371.94 65.84,-361.95 58.84,-361.93"/>
</g>
<!-- Node10 -->
<g id="node10" class="node">
<title>Node10</title>
<g id="a_node10"><a xlink:href="classft_1_1irc_1_1processor__notice.html" target="_top" xlink:title=" ">
<polygon fill="white" stroke="black" points="323,-478.5 323,-508.5 418,-508.5 418,-478.5 323,-478.5"/>
<text text-anchor="start" x="331" y="-496.5" font-family="Helvetica,sans-Serif" font-size="10.00">ft::irc::processor</text>
<text text-anchor="middle" x="370.5" y="-485.5" font-family="Helvetica,sans-Serif" font-size="10.00">_notice</text>
</a>
</g>
</g>
<!-- Node9&#45;&gt;Node10 -->
<g id="edge9" class="edge">
<title>Node9&#45;&gt;Node10</title>
<path fill="none" stroke="midnightblue" d="M280.78,-478.87C294.67,-481.16 309.39,-483.58 322.75,-485.79"/>
<polygon fill="midnightblue" stroke="midnightblue" points="281.27,-475.4 270.84,-477.23 280.14,-482.31 281.27,-475.4"/>
</g>
<!-- Node11 -->
<g id="node11" class="node">
<title>Node11</title>
<g id="a_node11"><a xlink:href="classft_1_1irc_1_1processor__privmsg.html" target="_top" xlink:title=" ">
<polygon fill="white" stroke="black" points="323,-429.5 323,-459.5 418,-459.5 418,-429.5 323,-429.5"/>
<text text-anchor="start" x="331" y="-447.5" font-family="Helvetica,sans-Serif" font-size="10.00">ft::irc::processor</text>
<text text-anchor="middle" x="370.5" y="-436.5" font-family="Helvetica,sans-Serif" font-size="10.00">_privmsg</text>
</a>
</g>
</g>
<!-- Node9&#45;&gt;Node11 -->
<g id="edge10" class="edge">
<title>Node9&#45;&gt;Node11</title>
<path fill="none" stroke="midnightblue" d="M280.78,-459.74C294.67,-457.36 309.39,-454.83 322.75,-452.53"/>
<polygon fill="midnightblue" stroke="midnightblue" points="280.1,-456.31 270.84,-461.45 281.29,-463.21 280.1,-456.31"/>
</g>
</g>
</svg>
