<?xml version="1.0" encoding="UTF-8" standalone="no"?>
<!DOCTYPE svg PUBLIC "-//W3C//DTD SVG 1.1//EN"
 "http://www.w3.org/Graphics/SVG/1.1/DTD/svg11.dtd">
<!-- Generated by graphviz version 2.43.0 (0)
 -->
<!-- Title: ft::irc::processor_dictionary Pages: 1 -->
<svg width="376pt" height="117pt"
 viewBox="0.00 0.00 376.00 117.00" xmlns="http://www.w3.org/2000/svg" xmlns:xlink="http://www.w3.org/1999/xlink">
<g id="graph0" class="graph" transform="scale(1 1) rotate(0) translate(4 113)">
<title>ft::irc::processor_dictionary</title>
<polygon fill="white" stroke="transparent" points="-4,4 -4,-113 372,-113 372,4 -4,4"/>
<!-- Node1 -->
<g id="node1" class="node">
<title>Node1</title>
<g id="a_node1"><a xlink:title=" ">
<polygon fill="#bfbfbf" stroke="black" points="147.5,-0.5 147.5,-30.5 242.5,-30.5 242.5,-0.5 147.5,-0.5"/>
<text text-anchor="start" x="155.5" y="-18.5" font-family="Helvetica,sans-Serif" font-size="10.00">ft::irc::processor</text>
<text text-anchor="middle" x="195" y="-7.5" font-family="Helvetica,sans-Serif" font-size="10.00">_dictionary</text>
</a>
</g>
</g>
<!-- Node2 -->
<g id="node2" class="node">
<title>Node2</title>
<g id="a_node2"><a xlink:title=" ">
<polygon fill="white" stroke="#bfbfbf" points="0,-84 0,-103 122,-103 122,-84 0,-84"/>
<text text-anchor="middle" x="61" y="-91" font-family="Helvetica,sans-Serif" font-size="10.00">static dictionary_type</text>
</a>
</g>
</g>
<!-- Node2&#45;&gt;Node1 -->
<g id="edge1" class="edge">
<title>Node2&#45;&gt;Node1</title>
<path fill="none" stroke="#9a32cd" stroke-dasharray="5,2" d="M84.94,-78.92C108.98,-65.29 145.83,-44.39 170.17,-30.58"/>
<polygon fill="#9a32cd" stroke="#9a32cd" points="83.08,-75.95 76.11,-83.93 86.54,-82.04 83.08,-75.95"/>
<text text-anchor="middle" x="162" y="-52" font-family="Helvetica,sans-Serif" font-size="10.00"> dictionary</text>
</g>
<!-- Node3 -->
<g id="node3" class="node">
<title>Node3</title>
<g id="a_node3"><a xlink:title=" ">
<polygon fill="white" stroke="#bfbfbf" points="140,-78.5 140,-108.5 250,-108.5 250,-78.5 140,-78.5"/>
<text text-anchor="start" x="148" y="-96.5" font-family="Helvetica,sans-Serif" font-size="10.00">shared_ptr&lt; ft::irc</text>
<text text-anchor="middle" x="195" y="-85.5" font-family="Helvetica,sans-Serif" font-size="10.00">::processor_base &gt;</text>
</a>
</g>
</g>
<!-- Node3&#45;&gt;Node1 -->
<g id="edge2" class="edge">
<title>Node3&#45;&gt;Node1</title>
<path fill="none" stroke="#9a32cd" stroke-dasharray="5,2" d="M195,-68.09C195,-55.76 195,-41.22 195,-30.73"/>
<polygon fill="#9a32cd" stroke="#9a32cd" points="191.5,-68.2 195,-78.2 198.5,-68.21 191.5,-68.2"/>
<text text-anchor="middle" x="241.5" y="-52" font-family="Helvetica,sans-Serif" font-size="10.00"> null_processor_ptr</text>
</g>
<!-- Node4 -->
<g id="node4" class="node">
<title>Node4</title>
<g id="a_node4"><a xlink:title=" ">
<polygon fill="white" stroke="#bfbfbf" points="279.5,-84 279.5,-103 342.5,-103 342.5,-84 279.5,-84"/>
<text text-anchor="middle" x="311" y="-91" font-family="Helvetica,sans-Serif" font-size="10.00">once_flag</text>
</a>
</g>
</g>
<!-- Node4&#45;&gt;Node1 -->
<g id="edge3" class="edge">
<title>Node4&#45;&gt;Node1</title>
<path fill="none" stroke="#9a32cd" stroke-dasharray="5,2" d="M305.4,-74.25C301.91,-65.56 296.61,-55.65 289,-49 275.99,-37.64 258.8,-30.2 242.69,-25.35"/>
<polygon fill="#9a32cd" stroke="#9a32cd" points="302.18,-75.64 308.79,-83.93 308.79,-73.33 302.18,-75.64"/>
<text text-anchor="middle" x="332.5" y="-52" font-family="Helvetica,sans-Serif" font-size="10.00"> init_once_flag</text>
</g>
</g>
</svg>
