<?xml version="1.0" encoding="UTF-8" standalone="no"?>
<!DOCTYPE svg PUBLIC "-//W3C//DTD SVG 1.1//EN"
 "http://www.w3.org/Graphics/SVG/1.1/DTD/svg11.dtd">
<!-- Generated by graphviz version 2.43.0 (0)
 -->
<!-- Title: ft::irc::processor_mode::update_channel_mode Pages: 1 -->
<svg width="767pt" height="442pt"
 viewBox="0.00 0.00 767.00 441.50" xmlns="http://www.w3.org/2000/svg" xmlns:xlink="http://www.w3.org/1999/xlink">
<g id="graph0" class="graph" transform="scale(1 1) rotate(0) translate(4 437.5)">
<title>ft::irc::processor_mode::update_channel_mode</title>
<polygon fill="white" stroke="transparent" points="-4,4 -4,-437.5 763,-437.5 763,4 -4,4"/>
<!-- Node1 -->
<g id="node1" class="node">
<title>Node1</title>
<g id="a_node1"><a xlink:title=" ">
<polygon fill="#bfbfbf" stroke="black" points="0,-171 0,-201 166,-201 166,-171 0,-171"/>
<text text-anchor="start" x="8" y="-189" font-family="Helvetica,sans-Serif" font-size="10.00">ft::irc::processor</text>
<text text-anchor="middle" x="83" y="-178" font-family="Helvetica,sans-Serif" font-size="10.00">_mode::update_channel_mode</text>
</a>
</g>
</g>
<!-- Node2 -->
<g id="node2" class="node">
<title>Node2</title>
<g id="a_node2"><a xlink:href="classft_1_1irc_1_1channel.html#a88a071511ae42d2faa2ff45d6d6f4abf" target="_top" xlink:title=" ">
<polygon fill="white" stroke="black" points="224,-356.5 224,-375.5 334,-375.5 334,-356.5 224,-356.5"/>
<text text-anchor="middle" x="279" y="-363.5" font-family="Helvetica,sans-Serif" font-size="10.00">ft::irc::channel::ban</text>
</a>
</g>
</g>
<!-- Node1&#45;&gt;Node2 -->
<g id="edge1" class="edge">
<title>Node1&#45;&gt;Node2</title>
<path fill="none" stroke="midnightblue" d="M91.45,-201.37C107.34,-232.57 147.62,-303.62 202,-342 208.14,-346.33 215.1,-349.91 222.24,-352.85"/>
<polygon fill="midnightblue" stroke="midnightblue" points="221.46,-356.29 232.05,-356.48 223.89,-349.73 221.46,-356.29"/>
</g>
<!-- Node6 -->
<g id="node6" class="node">
<title>Node6</title>
<g id="a_node6"><a xlink:href="classft_1_1irc_1_1processor__mode.html#a0756abb7cea854a0c5a05c24e0320ee2" target="_top" xlink:title=" ">
<polygon fill="white" stroke="black" points="210.5,-215 210.5,-245 347.5,-245 347.5,-215 210.5,-215"/>
<text text-anchor="start" x="218.5" y="-233" font-family="Helvetica,sans-Serif" font-size="10.00">ft::irc::processor</text>
<text text-anchor="middle" x="279" y="-222" font-family="Helvetica,sans-Serif" font-size="10.00">_mode::get_min_params</text>
</a>
</g>
</g>
<!-- Node1&#45;&gt;Node6 -->
<g id="edge5" class="edge">
<title>Node1&#45;&gt;Node6</title>
<path fill="none" stroke="midnightblue" d="M150.22,-201.02C166.83,-204.79 184.78,-208.86 201.83,-212.72"/>
<polygon fill="midnightblue" stroke="midnightblue" points="201.22,-216.18 211.75,-214.97 202.77,-209.35 201.22,-216.18"/>
</g>
<!-- Node7 -->
<g id="node7" class="node">
<title>Node7</title>
<g id="a_node7"><a xlink:href="classft_1_1irc_1_1channel.html#ad30281781ad94941df6db1284869a73b" target="_top" xlink:title=" ">
<polygon fill="white" stroke="black" points="216.5,-264 216.5,-294 341.5,-294 341.5,-264 216.5,-264"/>
<text text-anchor="start" x="224.5" y="-282" font-family="Helvetica,sans-Serif" font-size="10.00">ft::irc::channel::modify</text>
<text text-anchor="middle" x="279" y="-271" font-family="Helvetica,sans-Serif" font-size="10.00">_member_mode</text>
</a>
</g>
</g>
<!-- Node1&#45;&gt;Node7 -->
<g id="edge6" class="edge">
<title>Node1&#45;&gt;Node7</title>
<path fill="none" stroke="midnightblue" d="M106.26,-201.05C129.41,-216.21 167.07,-239.51 202,-255 206.36,-256.93 210.91,-258.78 215.54,-260.53"/>
<polygon fill="midnightblue" stroke="midnightblue" points="214.51,-263.87 225.1,-263.98 216.88,-257.29 214.51,-263.87"/>
</g>
<!-- Node11 -->
<g id="node11" class="node">
<title>Node11</title>
<g id="a_node11"><a xlink:href="classft_1_1irc_1_1message.html#a34f457ead0453ad914af2cb0482a40b9" target="_top" xlink:title=" ">
<polygon fill="white" stroke="black" points="202,-176.5 202,-195.5 356,-195.5 356,-176.5 202,-176.5"/>
<text text-anchor="middle" x="279" y="-183.5" font-family="Helvetica,sans-Serif" font-size="10.00">ft::irc::message::param_size</text>
</a>
</g>
</g>
<!-- Node1&#45;&gt;Node11 -->
<g id="edge10" class="edge">
<title>Node1&#45;&gt;Node11</title>
<path fill="none" stroke="midnightblue" d="M166.27,-186C174.64,-186 183.16,-186 191.57,-186"/>
<polygon fill="midnightblue" stroke="midnightblue" points="191.77,-189.5 201.77,-186 191.77,-182.5 191.77,-189.5"/>
</g>
<!-- Node12 -->
<g id="node12" class="node">
<title>Node12</title>
<g id="a_node12"><a xlink:href="classft_1_1irc_1_1channel.html#a058c359633e6e7b0029b2feedd6320bf" target="_top" xlink:title=" ">
<polygon fill="white" stroke="black" points="221.5,-127 221.5,-157 336.5,-157 336.5,-127 221.5,-127"/>
<text text-anchor="start" x="229.5" y="-145" font-family="Helvetica,sans-Serif" font-size="10.00">ft::irc::channel::send</text>
<text text-anchor="middle" x="279" y="-134" font-family="Helvetica,sans-Serif" font-size="10.00">_ban_list</text>
</a>
</g>
</g>
<!-- Node1&#45;&gt;Node12 -->
<g id="edge11" class="edge">
<title>Node1&#45;&gt;Node12</title>
<path fill="none" stroke="midnightblue" d="M150.22,-170.98C170.03,-166.49 191.76,-161.56 211.58,-157.06"/>
<polygon fill="midnightblue" stroke="midnightblue" points="212.47,-160.45 221.45,-154.83 210.93,-153.62 212.47,-160.45"/>
</g>
<!-- Node16 -->
<g id="node16" class="node">
<title>Node16</title>
<g id="a_node16"><a xlink:href="classft_1_1irc_1_1channel.html#a2a3ac5889a92c45dea08b0b8e586005f" target="_top" xlink:title=" ">
<polygon fill="white" stroke="black" points="209.5,-88.5 209.5,-107.5 348.5,-107.5 348.5,-88.5 209.5,-88.5"/>
<text text-anchor="middle" x="279" y="-95.5" font-family="Helvetica,sans-Serif" font-size="10.00">ft::irc::channel::store_key</text>
</a>
</g>
</g>
<!-- Node1&#45;&gt;Node16 -->
<g id="edge15" class="edge">
<title>Node1&#45;&gt;Node16</title>
<path fill="none" stroke="midnightblue" d="M105.65,-170.79C128.6,-155.29 166.4,-131.51 202,-117 208.18,-114.48 214.78,-112.23 221.41,-110.24"/>
<polygon fill="midnightblue" stroke="midnightblue" points="222.44,-113.59 231.11,-107.5 220.53,-106.85 222.44,-113.59"/>
</g>
<!-- Node17 -->
<g id="node17" class="node">
<title>Node17</title>
<g id="a_node17"><a xlink:href="classft_1_1irc_1_1channel.html#a9a229b373bb42191a96af592857c279a" target="_top" xlink:title=" ">
<polygon fill="white" stroke="black" points="221,-39 221,-69 337,-69 337,-39 221,-39"/>
<text text-anchor="start" x="229" y="-57" font-family="Helvetica,sans-Serif" font-size="10.00">ft::irc::channel::store</text>
<text text-anchor="middle" x="279" y="-46" font-family="Helvetica,sans-Serif" font-size="10.00">_limit</text>
</a>
</g>
</g>
<!-- Node1&#45;&gt;Node17 -->
<g id="edge16" class="edge">
<title>Node1&#45;&gt;Node17</title>
<path fill="none" stroke="midnightblue" d="M96.98,-170.69C117.21,-147.72 158.5,-104.32 202,-79 205.65,-76.88 209.5,-74.91 213.45,-73.08"/>
<polygon fill="midnightblue" stroke="midnightblue" points="215,-76.23 222.83,-69.08 212.25,-69.79 215,-76.23"/>
</g>
<!-- Node18 -->
<g id="node18" class="node">
<title>Node18</title>
<g id="a_node18"><a xlink:href="classft_1_1irc_1_1channel.html#a844f7ff52ac56119ab3de1a568973935" target="_top" xlink:title=" ">
<polygon fill="white" stroke="black" points="204.5,-0.5 204.5,-19.5 353.5,-19.5 353.5,-0.5 204.5,-0.5"/>
<text text-anchor="middle" x="279" y="-7.5" font-family="Helvetica,sans-Serif" font-size="10.00">ft::irc::channel::store_mode</text>
</a>
</g>
</g>
<!-- Node1&#45;&gt;Node18 -->
<g id="edge17" class="edge">
<title>Node1&#45;&gt;Node18</title>
<path fill="none" stroke="midnightblue" d="M90.99,-170.74C106.32,-139.09 146.02,-66.13 202,-29 205.13,-26.92 208.47,-25.07 211.94,-23.43"/>
<polygon fill="midnightblue" stroke="midnightblue" points="213.46,-26.58 221.36,-19.52 210.78,-20.12 213.46,-26.58"/>
</g>
<!-- Node19 -->
<g id="node19" class="node">
<title>Node19</title>
<g id="a_node19"><a xlink:href="classft_1_1irc_1_1channel.html#aa7b5a547c4ff51772b8a1a6c81f61a8c" target="_top" xlink:title=" ">
<polygon fill="white" stroke="black" points="218,-313.5 218,-332.5 340,-332.5 340,-313.5 218,-313.5"/>
<text text-anchor="middle" x="279" y="-320.5" font-family="Helvetica,sans-Serif" font-size="10.00">ft::irc::channel::unban</text>
</a>
</g>
</g>
<!-- Node1&#45;&gt;Node19 -->
<g id="edge18" class="edge">
<title>Node1&#45;&gt;Node19</title>
<path fill="none" stroke="midnightblue" d="M94.82,-201.28C113.62,-226.65 154.86,-277.31 202,-304 205.97,-306.25 210.2,-308.23 214.56,-309.98"/>
<polygon fill="midnightblue" stroke="midnightblue" points="213.66,-313.38 224.25,-313.46 216.02,-306.79 213.66,-313.38"/>
</g>
<!-- Node3 -->
<g id="node3" class="node">
<title>Node3</title>
<g id="a_node3"><a xlink:href="structft_1_1irc_1_1string__utils.html#a8df7fd3632f857bb33e32c24a496df98" target="_top" xlink:title=" ">
<polygon fill="white" stroke="black" points="393.5,-403 393.5,-433 494.5,-433 494.5,-403 393.5,-403"/>
<text text-anchor="start" x="401.5" y="-421" font-family="Helvetica,sans-Serif" font-size="10.00">ft::irc::string_utils</text>
<text text-anchor="middle" x="444" y="-410" font-family="Helvetica,sans-Serif" font-size="10.00">::pick_host</text>
</a>
</g>
</g>
<!-- Node2&#45;&gt;Node3 -->
<g id="edge2" class="edge">
<title>Node2&#45;&gt;Node3</title>
<path fill="none" stroke="midnightblue" d="M309.9,-375.54C331.17,-382.32 360.4,-391.65 386.06,-399.83"/>
<polygon fill="midnightblue" stroke="midnightblue" points="385.1,-403.2 395.69,-402.91 387.23,-396.53 385.1,-403.2"/>
</g>
<!-- Node4 -->
<g id="node4" class="node">
<title>Node4</title>
<g id="a_node4"><a xlink:href="structft_1_1irc_1_1string__utils.html#ac1e75b32f508ffe5a1a1875d1e1cd2ea" target="_top" xlink:title=" ">
<polygon fill="white" stroke="black" points="393.5,-354 393.5,-384 494.5,-384 494.5,-354 393.5,-354"/>
<text text-anchor="start" x="401.5" y="-372" font-family="Helvetica,sans-Serif" font-size="10.00">ft::irc::string_utils</text>
<text text-anchor="middle" x="444" y="-361" font-family="Helvetica,sans-Serif" font-size="10.00">::pick_nick</text>
</a>
</g>
</g>
<!-- Node2&#45;&gt;Node4 -->
<g id="edge3" class="edge">
<title>Node2&#45;&gt;Node4</title>
<path fill="none" stroke="midnightblue" d="M334.28,-367C349.93,-367.29 367.09,-367.6 383.06,-367.9"/>
<polygon fill="midnightblue" stroke="midnightblue" points="383.3,-371.4 393.36,-368.09 383.42,-364.4 383.3,-371.4"/>
</g>
<!-- Node5 -->
<g id="node5" class="node">
<title>Node5</title>
<g id="a_node5"><a xlink:href="structft_1_1irc_1_1string__utils.html#ac8d525ecc5b9196146c124cd310d8d82" target="_top" xlink:title=" ">
<polygon fill="white" stroke="black" points="393.5,-305 393.5,-335 494.5,-335 494.5,-305 393.5,-305"/>
<text text-anchor="start" x="401.5" y="-323" font-family="Helvetica,sans-Serif" font-size="10.00">ft::irc::string_utils</text>
<text text-anchor="middle" x="444" y="-312" font-family="Helvetica,sans-Serif" font-size="10.00">::pick_username</text>
</a>
</g>
</g>
<!-- Node2&#45;&gt;Node5 -->
<g id="edge4" class="edge">
<title>Node2&#45;&gt;Node5</title>
<path fill="none" stroke="midnightblue" d="M313.77,-356.47C333.93,-350.78 360.09,-343.4 383.6,-336.76"/>
<polygon fill="midnightblue" stroke="midnightblue" points="384.82,-340.06 393.49,-333.97 382.92,-333.32 384.82,-340.06"/>
</g>
<!-- Node8 -->
<g id="node8" class="node">
<title>Node8</title>
<g id="a_node8"><a xlink:href="structft_1_1irc_1_1string__utils.html#abd73422cb93e7f7f26cfd59a221933a2" target="_top" xlink:title=" ">
<polygon fill="white" stroke="black" points="393.5,-256 393.5,-286 494.5,-286 494.5,-256 393.5,-256"/>
<text text-anchor="start" x="401.5" y="-274" font-family="Helvetica,sans-Serif" font-size="10.00">ft::irc::string_utils</text>
<text text-anchor="middle" x="444" y="-263" font-family="Helvetica,sans-Serif" font-size="10.00">::is_same</text>
</a>
</g>
</g>
<!-- Node7&#45;&gt;Node8 -->
<g id="edge7" class="edge">
<title>Node7&#45;&gt;Node8</title>
<path fill="none" stroke="midnightblue" d="M341.62,-275.98C355.27,-275.31 369.72,-274.6 383.29,-273.93"/>
<polygon fill="midnightblue" stroke="midnightblue" points="383.65,-277.42 393.47,-273.43 383.31,-270.43 383.65,-277.42"/>
</g>
<!-- Node9 -->
<g id="node9" class="node">
<title>Node9</title>
<g id="a_node9"><a xlink:href="structft_1_1irc_1_1string__utils.html#a367a22012cc0d2d25959ac3f4e5d33a9" target="_top" xlink:title=" ">
<polygon fill="white" stroke="black" points="532,-256 532,-286 633,-286 633,-256 532,-256"/>
<text text-anchor="start" x="540" y="-274" font-family="Helvetica,sans-Serif" font-size="10.00">ft::irc::string_utils</text>
<text text-anchor="middle" x="582.5" y="-263" font-family="Helvetica,sans-Serif" font-size="10.00">::to_lower</text>
</a>
</g>
</g>
<!-- Node8&#45;&gt;Node9 -->
<g id="edge8" class="edge">
<title>Node8&#45;&gt;Node9</title>
<path fill="none" stroke="midnightblue" d="M494.67,-271C503.42,-271 512.61,-271 521.6,-271"/>
<polygon fill="midnightblue" stroke="midnightblue" points="521.64,-274.5 531.64,-271 521.64,-267.5 521.64,-274.5"/>
</g>
<!-- Node10 -->
<g id="node10" class="node">
<title>Node10</title>
<g id="a_node10"><a xlink:href="namespaceft_1_1irc_1_1__internal.html#aa76c3a369f64725f8b2b52b2131c1111" target="_top" xlink:title=" ">
<polygon fill="white" stroke="black" points="669,-256 669,-286 759,-286 759,-256 669,-256"/>
<text text-anchor="start" x="677" y="-274" font-family="Helvetica,sans-Serif" font-size="10.00">ft::irc::_internal</text>
<text text-anchor="middle" x="714" y="-263" font-family="Helvetica,sans-Serif" font-size="10.00">::_to_lower</text>
</a>
</g>
</g>
<!-- Node9&#45;&gt;Node10 -->
<g id="edge9" class="edge">
<title>Node9&#45;&gt;Node10</title>
<path fill="none" stroke="midnightblue" d="M633.2,-271C641.51,-271 650.18,-271 658.61,-271"/>
<polygon fill="midnightblue" stroke="midnightblue" points="658.73,-274.5 668.73,-271 658.73,-267.5 658.73,-274.5"/>
</g>
<!-- Node13 -->
<g id="node13" class="node">
<title>Node13</title>
<g id="a_node13"><a xlink:href="structft_1_1irc_1_1make__reply.html#a7a456b9267291e4208ef9d36e20a7948" target="_top" xlink:title=" ">
<polygon fill="white" stroke="black" points="392,-176 392,-206 496,-206 496,-176 392,-176"/>
<text text-anchor="start" x="400" y="-194" font-family="Helvetica,sans-Serif" font-size="10.00">ft::irc::make_reply</text>
<text text-anchor="middle" x="444" y="-183" font-family="Helvetica,sans-Serif" font-size="10.00">::ban_list</text>
</a>
</g>
</g>
<!-- Node12&#45;&gt;Node13 -->
<g id="edge12" class="edge">
<title>Node12&#45;&gt;Node13</title>
<path fill="none" stroke="midnightblue" d="M330.24,-157.1C346.89,-162.11 365.6,-167.73 382.92,-172.94"/>
<polygon fill="midnightblue" stroke="midnightblue" points="382.35,-176.42 392.93,-175.95 384.36,-169.72 382.35,-176.42"/>
</g>
<!-- Node14 -->
<g id="node14" class="node">
<title>Node14</title>
<g id="a_node14"><a xlink:href="structft_1_1irc_1_1make__reply.html#a1fcd32547d899569970960956ba0a240" target="_top" xlink:title=" ">
<polygon fill="white" stroke="black" points="392,-127 392,-157 496,-157 496,-127 392,-127"/>
<text text-anchor="start" x="400" y="-145" font-family="Helvetica,sans-Serif" font-size="10.00">ft::irc::make_reply</text>
<text text-anchor="middle" x="444" y="-134" font-family="Helvetica,sans-Serif" font-size="10.00">::end_of_ban_list</text>
</a>
</g>
</g>
<!-- Node12&#45;&gt;Node14 -->
<g id="edge13" class="edge">
<title>Node12&#45;&gt;Node14</title>
<path fill="none" stroke="midnightblue" d="M336.55,-142C351.12,-142 366.87,-142 381.66,-142"/>
<polygon fill="midnightblue" stroke="midnightblue" points="381.73,-145.5 391.73,-142 381.73,-138.5 381.73,-145.5"/>
</g>
<!-- Node15 -->
<g id="node15" class="node">
<title>Node15</title>
<g id="a_node15"><a xlink:href="classft_1_1irc_1_1user.html#a1db558d6d694ca943224c2440fe36c50" target="_top" xlink:title=" ">
<polygon fill="white" stroke="black" points="395,-78 395,-108 493,-108 493,-78 395,-78"/>
<text text-anchor="start" x="403" y="-96" font-family="Helvetica,sans-Serif" font-size="10.00">ft::irc::user::send</text>
<text text-anchor="middle" x="444" y="-85" font-family="Helvetica,sans-Serif" font-size="10.00">_message</text>
</a>
</g>
</g>
<!-- Node12&#45;&gt;Node15 -->
<g id="edge14" class="edge">
<title>Node12&#45;&gt;Node15</title>
<path fill="none" stroke="midnightblue" d="M330.24,-126.9C347.6,-121.68 367.19,-115.79 385.12,-110.4"/>
<polygon fill="midnightblue" stroke="midnightblue" points="386.31,-113.7 394.88,-107.46 384.3,-106.99 386.31,-113.7"/>
</g>
<!-- Node19&#45;&gt;Node3 -->
<g id="edge20" class="edge">
<title>Node19&#45;&gt;Node3</title>
<path fill="none" stroke="midnightblue" d="M325.92,-332.55C336.39,-336.04 347.05,-340.72 356,-347 377.54,-362.11 371.52,-377.49 392,-394 393.54,-395.24 395.16,-396.44 396.83,-397.59"/>
<polygon fill="midnightblue" stroke="midnightblue" points="395.18,-400.69 405.53,-402.95 398.85,-394.73 395.18,-400.69"/>
</g>
<!-- Node19&#45;&gt;Node4 -->
<g id="edge21" class="edge">
<title>Node19&#45;&gt;Node4</title>
<path fill="none" stroke="midnightblue" d="M313.77,-332.53C333.93,-338.22 360.09,-345.6 383.6,-352.24"/>
<polygon fill="midnightblue" stroke="midnightblue" points="382.92,-355.68 393.49,-355.03 384.82,-348.94 382.92,-355.68"/>
</g>
<!-- Node19&#45;&gt;Node5 -->
<g id="edge22" class="edge">
<title>Node19&#45;&gt;Node5</title>
<path fill="none" stroke="midnightblue" d="M340.23,-321.89C354.32,-321.63 369.31,-321.36 383.37,-321.1"/>
<polygon fill="midnightblue" stroke="midnightblue" points="383.48,-324.6 393.41,-320.91 383.35,-317.6 383.48,-324.6"/>
</g>
<!-- Node19&#45;&gt;Node8 -->
<g id="edge19" class="edge">
<title>Node19&#45;&gt;Node8</title>
<path fill="none" stroke="midnightblue" d="M322.06,-313.42C333.17,-310.64 345.1,-307.42 356,-304 369.27,-299.84 383.45,-294.75 396.42,-289.82"/>
<polygon fill="midnightblue" stroke="midnightblue" points="398.01,-292.96 406.08,-286.1 395.49,-286.43 398.01,-292.96"/>
</g>
</g>
</svg>
