<?xml version="1.0" encoding="UTF-8" standalone="no"?>
<!DOCTYPE svg PUBLIC "-//W3C//DTD SVG 1.1//EN"
 "http://www.w3.org/Graphics/SVG/1.1/DTD/svg11.dtd">
<!-- Generated by graphviz version 2.43.0 (0)
 -->
<!-- Title: ft::irc::user::send_message Pages: 1 -->
<svg width="574pt" height="1013pt"
 viewBox="0.00 0.00 574.00 1013.50" xmlns="http://www.w3.org/2000/svg" xmlns:xlink="http://www.w3.org/1999/xlink">
<g id="graph0" class="graph" transform="scale(1 1) rotate(0) translate(4 1009.5)">
<title>ft::irc::user::send_message</title>
<polygon fill="white" stroke="transparent" points="-4,4 -4,-1009.5 570,-1009.5 570,4 -4,4"/>
<!-- Node1 -->
<g id="node1" class="node">
<title>Node1</title>
<g id="a_node1"><a xlink:title=" ">
<polygon fill="#bfbfbf" stroke="black" points="468,-491.5 468,-521.5 566,-521.5 566,-491.5 468,-491.5"/>
<text text-anchor="start" x="476" y="-509.5" font-family="Helvetica,sans-Serif" font-size="10.00">ft::irc::user::send</text>
<text text-anchor="middle" x="517" y="-498.5" font-family="Helvetica,sans-Serif" font-size="10.00">_message</text>
</a>
</g>
</g>
<!-- Node2 -->
<g id="node2" class="node">
<title>Node2</title>
<g id="a_node2"><a xlink:href="classft_1_1irc_1_1server.html#a773440405607167a9478a54fd8ab90f3" target="_top" xlink:title=" ">
<polygon fill="white" stroke="black" points="283,-986 283,-1005 432,-1005 432,-986 283,-986"/>
<text text-anchor="middle" x="357.5" y="-993" font-family="Helvetica,sans-Serif" font-size="10.00">ft::irc::server::broadcast_all</text>
</a>
</g>
</g>
<!-- Node1&#45;&gt;Node2 -->
<g id="edge1" class="edge">
<title>Node1&#45;&gt;Node2</title>
<path fill="none" stroke="midnightblue" d="M514.77,-531.81C510.04,-618.92 490.28,-904.63 432,-971.5 426.53,-977.77 419.4,-982.41 411.73,-985.85"/>
<polygon fill="midnightblue" stroke="midnightblue" points="518.27,-531.93 515.3,-521.76 511.28,-531.56 518.27,-531.93"/>
</g>
<!-- Node3 -->
<g id="node3" class="node">
<title>Node3</title>
<g id="a_node3"><a xlink:href="classft_1_1irc_1_1processor__oper.html#a941691cbab81d134cb4ffc30bd270d04" target="_top" xlink:title=" ">
<polygon fill="white" stroke="black" points="141.5,-963.5 141.5,-993.5 236.5,-993.5 236.5,-963.5 141.5,-963.5"/>
<text text-anchor="start" x="149.5" y="-981.5" font-family="Helvetica,sans-Serif" font-size="10.00">ft::irc::processor</text>
<text text-anchor="middle" x="189" y="-970.5" font-family="Helvetica,sans-Serif" font-size="10.00">_oper::execute</text>
</a>
</g>
</g>
<!-- Node1&#45;&gt;Node3 -->
<g id="edge19" class="edge">
<title>Node1&#45;&gt;Node3</title>
<path fill="none" stroke="midnightblue" d="M514.75,-531.96C510.09,-615.81 490.85,-881.28 432,-938.5 404.9,-964.84 299.04,-973.88 236.67,-976.95"/>
<polygon fill="midnightblue" stroke="midnightblue" points="518.25,-531.97 515.29,-521.79 511.26,-531.59 518.25,-531.97"/>
</g>
<!-- Node4 -->
<g id="node4" class="node">
<title>Node4</title>
<g id="a_node4"><a xlink:href="classft_1_1irc_1_1processor__dictionary.html#a50bd8e9f89f6f6a911f5495272cd7d41" target="_top" xlink:title=" ">
<polygon fill="white" stroke="black" points="300.5,-898.5 300.5,-928.5 414.5,-928.5 414.5,-898.5 300.5,-898.5"/>
<text text-anchor="start" x="308.5" y="-916.5" font-family="Helvetica,sans-Serif" font-size="10.00">ft::irc::processor</text>
<text text-anchor="middle" x="357.5" y="-905.5" font-family="Helvetica,sans-Serif" font-size="10.00">_dictionary::execute</text>
</a>
</g>
</g>
<!-- Node1&#45;&gt;Node4 -->
<g id="edge3" class="edge">
<title>Node1&#45;&gt;Node4</title>
<path fill="none" stroke="midnightblue" d="M513.43,-531.7C505.26,-607.14 477.77,-829.29 432,-883.5 426.84,-889.6 420.25,-894.48 413.14,-898.38"/>
<polygon fill="midnightblue" stroke="midnightblue" points="516.92,-531.98 514.49,-521.67 509.95,-531.25 516.92,-531.98"/>
</g>
<!-- Node6 -->
<g id="node6" class="node">
<title>Node6</title>
<g id="a_node6"><a xlink:href="classft_1_1irc_1_1processor__join.html#a7005b0403c1e6e10aa6f6f05339df357" target="_top" xlink:title=" ">
<polygon fill="white" stroke="black" points="141.5,-216.5 141.5,-246.5 236.5,-246.5 236.5,-216.5 141.5,-216.5"/>
<text text-anchor="start" x="149.5" y="-234.5" font-family="Helvetica,sans-Serif" font-size="10.00">ft::irc::processor</text>
<text text-anchor="middle" x="189" y="-223.5" font-family="Helvetica,sans-Serif" font-size="10.00">_join::execute</text>
</a>
</g>
</g>
<!-- Node1&#45;&gt;Node6 -->
<g id="edge5" class="edge">
<title>Node1&#45;&gt;Node6</title>
<path fill="none" stroke="midnightblue" d="M514.56,-481.3C510.41,-433.64 494.31,-330.36 432,-277.5 403.14,-253.01 298.5,-240.4 236.67,-234.94"/>
<polygon fill="midnightblue" stroke="midnightblue" points="511.08,-481.67 515.33,-491.37 518.06,-481.14 511.08,-481.67"/>
</g>
<!-- Node7 -->
<g id="node7" class="node">
<title>Node7</title>
<g id="a_node7"><a xlink:href="classft_1_1irc_1_1processor__part.html#a4075107cb360cd04c0a11a9904104ad0" target="_top" xlink:title=" ">
<polygon fill="white" stroke="black" points="310,-810.5 310,-840.5 405,-840.5 405,-810.5 310,-810.5"/>
<text text-anchor="start" x="318" y="-828.5" font-family="Helvetica,sans-Serif" font-size="10.00">ft::irc::processor</text>
<text text-anchor="middle" x="357.5" y="-817.5" font-family="Helvetica,sans-Serif" font-size="10.00">_part::execute</text>
</a>
</g>
</g>
<!-- Node1&#45;&gt;Node7 -->
<g id="edge6" class="edge">
<title>Node1&#45;&gt;Node7</title>
<path fill="none" stroke="midnightblue" d="M516.3,-531.92C515.55,-588.3 505.74,-724.88 432,-801.5 424.74,-809.04 415.08,-814.22 405.16,-817.76"/>
<polygon fill="midnightblue" stroke="midnightblue" points="519.8,-531.77 516.34,-521.75 512.8,-531.74 519.8,-531.77"/>
</g>
<!-- Node8 -->
<g id="node8" class="node">
<title>Node8</title>
<g id="a_node8"><a xlink:href="classft_1_1irc_1_1processor__mode.html#ad013987a789be47379c13f61364135a6" target="_top" xlink:title=" ">
<polygon fill="white" stroke="black" points="141.5,-805.5 141.5,-835.5 236.5,-835.5 236.5,-805.5 141.5,-805.5"/>
<text text-anchor="start" x="149.5" y="-823.5" font-family="Helvetica,sans-Serif" font-size="10.00">ft::irc::processor</text>
<text text-anchor="middle" x="189" y="-812.5" font-family="Helvetica,sans-Serif" font-size="10.00">_mode::execute</text>
</a>
</g>
</g>
<!-- Node1&#45;&gt;Node8 -->
<g id="edge7" class="edge">
<title>Node1&#45;&gt;Node8</title>
<path fill="none" stroke="midnightblue" d="M513.78,-531.75C506.82,-604.28 482.82,-810.59 432,-850.5 368.9,-900.04 266.62,-859.8 217.73,-835.55"/>
<polygon fill="midnightblue" stroke="midnightblue" points="517.27,-531.96 514.72,-521.68 510.3,-531.31 517.27,-531.96"/>
</g>
<!-- Node9 -->
<g id="node9" class="node">
<title>Node9</title>
<g id="a_node9"><a xlink:href="classft_1_1irc_1_1processor__topic.html#ae4eec2a7267b66791a72bbab1d4842c0" target="_top" xlink:title=" ">
<polygon fill="white" stroke="black" points="310,-712.5 310,-742.5 405,-742.5 405,-712.5 310,-712.5"/>
<text text-anchor="start" x="318" y="-730.5" font-family="Helvetica,sans-Serif" font-size="10.00">ft::irc::processor</text>
<text text-anchor="middle" x="357.5" y="-719.5" font-family="Helvetica,sans-Serif" font-size="10.00">_topic::execute</text>
</a>
</g>
</g>
<!-- Node1&#45;&gt;Node9 -->
<g id="edge8" class="edge">
<title>Node1&#45;&gt;Node9</title>
<path fill="none" stroke="midnightblue" d="M512.13,-531.61C504.41,-573.23 483.21,-656.58 432,-703.5 424.48,-710.39 414.94,-715.3 405.26,-718.81"/>
<polygon fill="midnightblue" stroke="midnightblue" points="515.62,-531.96 513.89,-521.51 508.73,-530.76 515.62,-531.96"/>
</g>
<!-- Node10 -->
<g id="node10" class="node">
<title>Node10</title>
<g id="a_node10"><a xlink:href="classft_1_1irc_1_1processor__invite.html#a558fbe35293f4a0783af9a50f7146eeb" target="_top" xlink:title=" ">
<polygon fill="white" stroke="black" points="310,-663.5 310,-693.5 405,-693.5 405,-663.5 310,-663.5"/>
<text text-anchor="start" x="318" y="-681.5" font-family="Helvetica,sans-Serif" font-size="10.00">ft::irc::processor</text>
<text text-anchor="middle" x="357.5" y="-670.5" font-family="Helvetica,sans-Serif" font-size="10.00">_invite::execute</text>
</a>
</g>
</g>
<!-- Node1&#45;&gt;Node10 -->
<g id="edge9" class="edge">
<title>Node1&#45;&gt;Node10</title>
<path fill="none" stroke="midnightblue" d="M508.13,-531.71C496.6,-564.6 472.05,-621.77 432,-654.5 424.2,-660.87 414.67,-665.56 405.08,-669.02"/>
<polygon fill="midnightblue" stroke="midnightblue" points="511.54,-532.55 511.42,-521.95 504.91,-530.31 511.54,-532.55"/>
</g>
<!-- Node11 -->
<g id="node11" class="node">
<title>Node11</title>
<g id="a_node11"><a xlink:href="classft_1_1irc_1_1processor__kick.html#ac453ac8376e577bb0a2b4f074fe9be1b" target="_top" xlink:title=" ">
<polygon fill="white" stroke="black" points="310,-614.5 310,-644.5 405,-644.5 405,-614.5 310,-614.5"/>
<text text-anchor="start" x="318" y="-632.5" font-family="Helvetica,sans-Serif" font-size="10.00">ft::irc::processor</text>
<text text-anchor="middle" x="357.5" y="-621.5" font-family="Helvetica,sans-Serif" font-size="10.00">_kick::execute</text>
</a>
</g>
</g>
<!-- Node1&#45;&gt;Node11 -->
<g id="edge10" class="edge">
<title>Node1&#45;&gt;Node11</title>
<path fill="none" stroke="midnightblue" d="M501.55,-530.1C486.7,-552.5 461.6,-585.62 432,-605.5 423.87,-610.96 414.39,-615.26 405.01,-618.61"/>
<polygon fill="midnightblue" stroke="midnightblue" points="504.61,-531.81 507.09,-521.51 498.73,-528.02 504.61,-531.81"/>
</g>
<!-- Node12 -->
<g id="node12" class="node">
<title>Node12</title>
<g id="a_node12"><a xlink:href="classft_1_1irc_1_1processor__kill.html#a3f41c93c4c3a85ccb4b034c5a185208a" target="_top" xlink:title=" ">
<polygon fill="white" stroke="black" points="310,-565.5 310,-595.5 405,-595.5 405,-565.5 310,-565.5"/>
<text text-anchor="start" x="318" y="-583.5" font-family="Helvetica,sans-Serif" font-size="10.00">ft::irc::processor</text>
<text text-anchor="middle" x="357.5" y="-572.5" font-family="Helvetica,sans-Serif" font-size="10.00">_kill::execute</text>
</a>
</g>
</g>
<!-- Node1&#45;&gt;Node12 -->
<g id="edge11" class="edge">
<title>Node1&#45;&gt;Node12</title>
<path fill="none" stroke="midnightblue" d="M484.93,-527.24C469.46,-536.97 450.21,-548.23 432,-556.5 423.57,-560.33 414.34,-563.84 405.36,-566.92"/>
<polygon fill="midnightblue" stroke="midnightblue" points="487.03,-530.05 493.57,-521.71 483.26,-524.15 487.03,-530.05"/>
</g>
<!-- Node13 -->
<g id="node13" class="node">
<title>Node13</title>
<g id="a_node13"><a xlink:href="classft_1_1irc_1_1processor__away.html#aa27e728b610738f26ae7264183da2808" target="_top" xlink:title=" ">
<polygon fill="white" stroke="black" points="310,-516.5 310,-546.5 405,-546.5 405,-516.5 310,-516.5"/>
<text text-anchor="start" x="318" y="-534.5" font-family="Helvetica,sans-Serif" font-size="10.00">ft::irc::processor</text>
<text text-anchor="middle" x="357.5" y="-523.5" font-family="Helvetica,sans-Serif" font-size="10.00">_away::execute</text>
</a>
</g>
</g>
<!-- Node1&#45;&gt;Node13 -->
<g id="edge12" class="edge">
<title>Node1&#45;&gt;Node13</title>
<path fill="none" stroke="midnightblue" d="M457.87,-515.72C440.53,-518.48 421.75,-521.46 405.24,-524.08"/>
<polygon fill="midnightblue" stroke="midnightblue" points="458.56,-519.16 467.89,-514.13 457.46,-512.24 458.56,-519.16"/>
</g>
<!-- Node14 -->
<g id="node14" class="node">
<title>Node14</title>
<g id="a_node14"><a xlink:href="classft_1_1irc_1_1processor__cap.html#a4998cdde699dff092c9437b7416fdd14" target="_top" xlink:title=" ">
<polygon fill="white" stroke="black" points="310,-467.5 310,-497.5 405,-497.5 405,-467.5 310,-467.5"/>
<text text-anchor="start" x="318" y="-485.5" font-family="Helvetica,sans-Serif" font-size="10.00">ft::irc::processor</text>
<text text-anchor="middle" x="357.5" y="-474.5" font-family="Helvetica,sans-Serif" font-size="10.00">_cap::execute</text>
</a>
</g>
</g>
<!-- Node1&#45;&gt;Node14 -->
<g id="edge13" class="edge">
<title>Node1&#45;&gt;Node14</title>
<path fill="none" stroke="midnightblue" d="M457.87,-497.64C440.53,-495 421.75,-492.14 405.24,-489.62"/>
<polygon fill="midnightblue" stroke="midnightblue" points="457.48,-501.12 467.89,-499.17 458.53,-494.2 457.48,-501.12"/>
</g>
<!-- Node15 -->
<g id="node15" class="node">
<title>Node15</title>
<g id="a_node15"><a xlink:href="classft_1_1irc_1_1processor__who.html#afb5ab4f978577c99dc8d5f3ad0333940" target="_top" xlink:title=" ">
<polygon fill="white" stroke="black" points="310,-418.5 310,-448.5 405,-448.5 405,-418.5 310,-418.5"/>
<text text-anchor="start" x="318" y="-436.5" font-family="Helvetica,sans-Serif" font-size="10.00">ft::irc::processor</text>
<text text-anchor="middle" x="357.5" y="-425.5" font-family="Helvetica,sans-Serif" font-size="10.00">_who::execute</text>
</a>
</g>
</g>
<!-- Node1&#45;&gt;Node15 -->
<g id="edge14" class="edge">
<title>Node1&#45;&gt;Node15</title>
<path fill="none" stroke="midnightblue" d="M483.79,-486.16C468.47,-476.99 449.66,-466.46 432,-458.5 423.52,-454.67 414.27,-451.1 405.29,-447.91"/>
<polygon fill="midnightblue" stroke="midnightblue" points="482.02,-489.18 492.38,-491.38 485.65,-483.19 482.02,-489.18"/>
</g>
<!-- Node16 -->
<g id="node16" class="node">
<title>Node16</title>
<g id="a_node16"><a xlink:href="classft_1_1irc_1_1processor__whois.html#ab3ab1120535d17e7fb21f01fd8bad8fd" target="_top" xlink:title=" ">
<polygon fill="white" stroke="black" points="310,-369.5 310,-399.5 405,-399.5 405,-369.5 310,-369.5"/>
<text text-anchor="start" x="318" y="-387.5" font-family="Helvetica,sans-Serif" font-size="10.00">ft::irc::processor</text>
<text text-anchor="middle" x="357.5" y="-376.5" font-family="Helvetica,sans-Serif" font-size="10.00">_whois::execute</text>
</a>
</g>
</g>
<!-- Node1&#45;&gt;Node16 -->
<g id="edge15" class="edge">
<title>Node1&#45;&gt;Node16</title>
<path fill="none" stroke="midnightblue" d="M501.14,-483.1C486.14,-461.22 461.07,-429.07 432,-409.5 423.95,-404.08 414.61,-399.73 405.35,-396.28"/>
<polygon fill="midnightblue" stroke="midnightblue" points="498.28,-485.12 506.75,-491.49 504.1,-481.23 498.28,-485.12"/>
</g>
<!-- Node17 -->
<g id="node17" class="node">
<title>Node17</title>
<g id="a_node17"><a xlink:href="classft_1_1irc_1_1processor__pass.html#a8b0f8638123bb81ce8f4e493e43b45a0" target="_top" xlink:title=" ">
<polygon fill="white" stroke="black" points="310,-320.5 310,-350.5 405,-350.5 405,-320.5 310,-320.5"/>
<text text-anchor="start" x="318" y="-338.5" font-family="Helvetica,sans-Serif" font-size="10.00">ft::irc::processor</text>
<text text-anchor="middle" x="357.5" y="-327.5" font-family="Helvetica,sans-Serif" font-size="10.00">_pass::execute</text>
</a>
</g>
</g>
<!-- Node1&#45;&gt;Node17 -->
<g id="edge16" class="edge">
<title>Node1&#45;&gt;Node17</title>
<path fill="none" stroke="midnightblue" d="M507.97,-481.69C496.28,-449.33 471.54,-393.01 432,-360.5 424.19,-354.08 414.65,-349.27 405.06,-345.69"/>
<polygon fill="midnightblue" stroke="midnightblue" points="504.72,-483 511.32,-491.3 511.34,-480.7 504.72,-483"/>
</g>
<!-- Node18 -->
<g id="node18" class="node">
<title>Node18</title>
<g id="a_node18"><a xlink:href="classft_1_1irc_1_1processor__nick.html#a7a2f0f709488328c04b6ccf0c41ce78e" target="_top" xlink:title=" ">
<polygon fill="white" stroke="black" points="0,-136.5 0,-166.5 95,-166.5 95,-136.5 0,-136.5"/>
<text text-anchor="start" x="8" y="-154.5" font-family="Helvetica,sans-Serif" font-size="10.00">ft::irc::processor</text>
<text text-anchor="middle" x="47.5" y="-143.5" font-family="Helvetica,sans-Serif" font-size="10.00">_nick::execute</text>
</a>
</g>
</g>
<!-- Node1&#45;&gt;Node18 -->
<g id="edge17" class="edge">
<title>Node1&#45;&gt;Node18</title>
<path fill="none" stroke="midnightblue" d="M512.81,-481.44C506.03,-439.29 486.12,-354.58 432,-311.5 325.61,-226.79 247.45,-326.74 131,-256.5 94.47,-234.46 67.83,-189.86 55.74,-166.51"/>
<polygon fill="midnightblue" stroke="midnightblue" points="509.36,-482.05 514.29,-491.43 516.28,-481.02 509.36,-482.05"/>
</g>
<!-- Node19 -->
<g id="node19" class="node">
<title>Node19</title>
<g id="a_node19"><a xlink:href="classft_1_1irc_1_1processor__user.html#aa42b3fdd743060d5f9afaaff5e46e28f" target="_top" xlink:title=" ">
<polygon fill="white" stroke="black" points="0,-65.5 0,-95.5 95,-95.5 95,-65.5 0,-65.5"/>
<text text-anchor="start" x="8" y="-83.5" font-family="Helvetica,sans-Serif" font-size="10.00">ft::irc::processor</text>
<text text-anchor="middle" x="47.5" y="-72.5" font-family="Helvetica,sans-Serif" font-size="10.00">_user::execute</text>
</a>
</g>
</g>
<!-- Node1&#45;&gt;Node19 -->
<g id="edge18" class="edge">
<title>Node1&#45;&gt;Node19</title>
<path fill="none" stroke="midnightblue" d="M515.34,-480.93C512.51,-393.02 498.24,-105.53 432,-48.5 330.61,38.81 261.7,-13.84 131,-42.5 110.82,-46.92 89.69,-56.77 73.87,-65.33"/>
<polygon fill="midnightblue" stroke="midnightblue" points="511.85,-481.18 515.65,-491.08 518.85,-480.98 511.85,-481.18"/>
</g>
<!-- Node20 -->
<g id="node20" class="node">
<title>Node20</title>
<g id="a_node20"><a xlink:href="classft_1_1irc_1_1processor__message__base.html#ab3fba6f27483543b9c7a559fd2e1402b" target="_top" xlink:title=" ">
<polygon fill="white" stroke="black" points="288,-194.5 288,-224.5 427,-224.5 427,-194.5 288,-194.5"/>
<text text-anchor="start" x="296" y="-212.5" font-family="Helvetica,sans-Serif" font-size="10.00">ft::irc::processor</text>
<text text-anchor="middle" x="357.5" y="-201.5" font-family="Helvetica,sans-Serif" font-size="10.00">_message_base::execute</text>
</a>
</g>
</g>
<!-- Node1&#45;&gt;Node20 -->
<g id="edge20" class="edge">
<title>Node1&#45;&gt;Node20</title>
<path fill="none" stroke="midnightblue" d="M514.98,-481.33C511.56,-429.49 496.68,-309.76 432,-239.5 426.4,-233.41 419.39,-228.53 411.93,-224.63"/>
<polygon fill="midnightblue" stroke="midnightblue" points="511.48,-481.54 515.55,-491.32 518.47,-481.14 511.48,-481.54"/>
</g>
<!-- Node21 -->
<g id="node21" class="node">
<title>Node21</title>
<g id="a_node21"><a xlink:href="classft_1_1irc_1_1server.html#a3f4e06d5a9cf57441582f77b95f87135" target="_top" xlink:title=" ">
<polygon fill="white" stroke="black" points="293.5,-58 293.5,-77 421.5,-77 421.5,-58 293.5,-58"/>
<text text-anchor="middle" x="357.5" y="-65" font-family="Helvetica,sans-Serif" font-size="10.00">ft::irc::server::send_list</text>
</a>
</g>
</g>
<!-- Node1&#45;&gt;Node21 -->
<g id="edge21" class="edge">
<title>Node1&#45;&gt;Node21</title>
<path fill="none" stroke="midnightblue" d="M514.39,-481.14C508.67,-399.33 486.72,-144.34 432,-86.5 428.38,-82.67 424.09,-79.57 419.44,-77.07"/>
<polygon fill="midnightblue" stroke="midnightblue" points="510.91,-481.55 515.07,-491.29 517.89,-481.07 510.91,-481.55"/>
</g>
<!-- Node23 -->
<g id="node23" class="node">
<title>Node23</title>
<g id="a_node23"><a xlink:href="classft_1_1irc_1_1channel.html#a5b005d44090820196503e46e45724a51" target="_top" xlink:title=" ">
<polygon fill="white" stroke="black" points="300,-145.5 300,-175.5 415,-175.5 415,-145.5 300,-145.5"/>
<text text-anchor="start" x="308" y="-163.5" font-family="Helvetica,sans-Serif" font-size="10.00">ft::irc::channel::send</text>
<text text-anchor="middle" x="357.5" y="-152.5" font-family="Helvetica,sans-Serif" font-size="10.00">_names</text>
</a>
</g>
</g>
<!-- Node1&#45;&gt;Node23 -->
<g id="edge23" class="edge">
<title>Node1&#45;&gt;Node23</title>
<path fill="none" stroke="midnightblue" d="M512.47,-480.96C502.6,-412.88 472.7,-229.24 432,-185.5 427.23,-180.37 421.36,-176.29 415.04,-173.05"/>
<polygon fill="midnightblue" stroke="midnightblue" points="509.06,-481.81 513.94,-491.21 515.99,-480.82 509.06,-481.81"/>
</g>
<!-- Node25 -->
<g id="node25" class="node">
<title>Node25</title>
<g id="a_node25"><a xlink:href="classft_1_1irc_1_1server.html#a5ecd192da409f6740de44ea8cb3b44cf" target="_top" xlink:title=" ">
<polygon fill="white" stroke="black" points="304,-96.5 304,-126.5 411,-126.5 411,-96.5 304,-96.5"/>
<text text-anchor="start" x="312" y="-114.5" font-family="Helvetica,sans-Serif" font-size="10.00">ft::irc::server::send</text>
<text text-anchor="middle" x="357.5" y="-103.5" font-family="Helvetica,sans-Serif" font-size="10.00">_welcome</text>
</a>
</g>
</g>
<!-- Node1&#45;&gt;Node25 -->
<g id="edge26" class="edge">
<title>Node1&#45;&gt;Node25</title>
<path fill="none" stroke="midnightblue" d="M513.45,-481.13C505.44,-406.25 478.53,-188.17 432,-136.5 426.32,-130.19 418.98,-125.47 411.15,-121.94"/>
<polygon fill="midnightblue" stroke="midnightblue" points="509.97,-481.52 514.49,-491.1 516.93,-480.79 509.97,-481.52"/>
</g>
<!-- Node27 -->
<g id="node27" class="node">
<title>Node27</title>
<g id="a_node27"><a xlink:href="classft_1_1irc_1_1processor__mode.html#a4447a4030b15157ccecfe992192de4b5" target="_top" xlink:title=" ">
<polygon fill="white" stroke="black" points="283,-761.5 283,-791.5 432,-791.5 432,-761.5 283,-761.5"/>
<text text-anchor="start" x="291" y="-779.5" font-family="Helvetica,sans-Serif" font-size="10.00">ft::irc::processor</text>
<text text-anchor="middle" x="357.5" y="-768.5" font-family="Helvetica,sans-Serif" font-size="10.00">_mode::update_user_mode</text>
</a>
</g>
</g>
<!-- Node1&#45;&gt;Node27 -->
<g id="edge30" class="edge">
<title>Node1&#45;&gt;Node27</title>
<path fill="none" stroke="midnightblue" d="M514.59,-531.74C510.48,-581.1 494.42,-690.91 432,-752.5 428.56,-755.89 424.63,-758.8 420.43,-761.31"/>
<polygon fill="midnightblue" stroke="midnightblue" points="518.09,-531.86 515.33,-521.63 511.11,-531.35 518.09,-531.86"/>
</g>
<!-- Node2&#45;&gt;Node3 -->
<g id="edge2" class="edge">
<title>Node2&#45;&gt;Node3</title>
<path fill="none" stroke="midnightblue" d="M273.02,-986.97C260.57,-985.7 248.13,-984.43 236.81,-983.28"/>
<polygon fill="midnightblue" stroke="midnightblue" points="272.68,-990.46 282.99,-987.99 273.39,-983.49 272.68,-990.46"/>
</g>
<!-- Node5 -->
<g id="node5" class="node">
<title>Node5</title>
<g id="a_node5"><a xlink:href="classft_1_1irc_1_1client__handler.html#a239d2ec2a936d74893455a83468669b3" target="_top" xlink:title=" ">
<polygon fill="white" stroke="black" points="131,-898.5 131,-928.5 247,-928.5 247,-898.5 131,-898.5"/>
<text text-anchor="start" x="139" y="-916.5" font-family="Helvetica,sans-Serif" font-size="10.00">ft::irc::client_handler</text>
<text text-anchor="middle" x="189" y="-905.5" font-family="Helvetica,sans-Serif" font-size="10.00">::on_read</text>
</a>
</g>
</g>
<!-- Node4&#45;&gt;Node5 -->
<g id="edge4" class="edge">
<title>Node4&#45;&gt;Node5</title>
<path fill="none" stroke="midnightblue" d="M289.96,-913.5C275.79,-913.5 260.94,-913.5 247.16,-913.5"/>
<polygon fill="midnightblue" stroke="midnightblue" points="290.13,-917 300.13,-913.5 290.13,-910 290.13,-917"/>
</g>
<!-- Node22 -->
<g id="node22" class="node">
<title>Node22</title>
<g id="a_node22"><a xlink:href="classft_1_1irc_1_1processor__list.html#aa4ed52d03d87a5f03d9c6d2e53e0409b" target="_top" xlink:title=" ">
<polygon fill="white" stroke="black" points="141.5,-52.5 141.5,-82.5 236.5,-82.5 236.5,-52.5 141.5,-52.5"/>
<text text-anchor="start" x="149.5" y="-70.5" font-family="Helvetica,sans-Serif" font-size="10.00">ft::irc::processor</text>
<text text-anchor="middle" x="189" y="-59.5" font-family="Helvetica,sans-Serif" font-size="10.00">_list::execute</text>
</a>
</g>
</g>
<!-- Node21&#45;&gt;Node22 -->
<g id="edge22" class="edge">
<title>Node21&#45;&gt;Node22</title>
<path fill="none" stroke="midnightblue" d="M282.86,-67.5C267.17,-67.5 251.02,-67.5 236.67,-67.5"/>
<polygon fill="midnightblue" stroke="midnightblue" points="283.08,-71 293.08,-67.5 283.08,-64 283.08,-71"/>
</g>
<!-- Node23&#45;&gt;Node6 -->
<g id="edge24" class="edge">
<title>Node23&#45;&gt;Node6</title>
<path fill="none" stroke="midnightblue" d="M299.61,-179.01C293.96,-181.1 288.34,-183.28 283,-185.5 260.71,-194.75 236.27,-206.92 218.04,-216.42"/>
<polygon fill="midnightblue" stroke="midnightblue" points="300.88,-182.27 309.11,-175.59 298.51,-175.69 300.88,-182.27"/>
</g>
<!-- Node24 -->
<g id="node24" class="node">
<title>Node24</title>
<g id="a_node24"><a xlink:href="classft_1_1irc_1_1processor__names.html#a95f660c1020ac7f26cceacd932f48f09" target="_top" xlink:title=" ">
<polygon fill="white" stroke="black" points="139.5,-150.5 139.5,-180.5 238.5,-180.5 238.5,-150.5 139.5,-150.5"/>
<text text-anchor="start" x="147.5" y="-168.5" font-family="Helvetica,sans-Serif" font-size="10.00">ft::irc::processor</text>
<text text-anchor="middle" x="189" y="-157.5" font-family="Helvetica,sans-Serif" font-size="10.00">_names::execute</text>
</a>
</g>
</g>
<!-- Node23&#45;&gt;Node24 -->
<g id="edge25" class="edge">
<title>Node23&#45;&gt;Node24</title>
<path fill="none" stroke="midnightblue" d="M289.24,-162.52C272.27,-163.03 254.38,-163.56 238.53,-164.04"/>
<polygon fill="midnightblue" stroke="midnightblue" points="289.78,-166 299.67,-162.2 289.57,-159.01 289.78,-166"/>
</g>
<!-- Node26 -->
<g id="node26" class="node">
<title>Node26</title>
<g id="a_node26"><a xlink:href="classft_1_1irc_1_1user.html#affa6016f0c81205cd3c60ea6e9706132" target="_top" xlink:title=" ">
<polygon fill="white" stroke="black" points="133,-101.5 133,-131.5 245,-131.5 245,-101.5 133,-101.5"/>
<text text-anchor="start" x="141" y="-119.5" font-family="Helvetica,sans-Serif" font-size="10.00">ft::irc::user::register</text>
<text text-anchor="middle" x="189" y="-108.5" font-family="Helvetica,sans-Serif" font-size="10.00">_to_server</text>
</a>
</g>
</g>
<!-- Node25&#45;&gt;Node26 -->
<g id="edge27" class="edge">
<title>Node25&#45;&gt;Node26</title>
<path fill="none" stroke="midnightblue" d="M293.55,-113.39C277.65,-113.86 260.7,-114.37 245.21,-114.84"/>
<polygon fill="midnightblue" stroke="midnightblue" points="293.93,-116.88 303.82,-113.08 293.72,-109.88 293.93,-116.88"/>
</g>
<!-- Node26&#45;&gt;Node18 -->
<g id="edge28" class="edge">
<title>Node26&#45;&gt;Node18</title>
<path fill="none" stroke="midnightblue" d="M123.1,-132.78C113.67,-135.15 104.11,-137.54 95.13,-139.8"/>
<polygon fill="midnightblue" stroke="midnightblue" points="124.02,-136.16 132.87,-130.33 122.31,-129.37 124.02,-136.16"/>
</g>
<!-- Node26&#45;&gt;Node19 -->
<g id="edge29" class="edge">
<title>Node26&#45;&gt;Node19</title>
<path fill="none" stroke="midnightblue" d="M123.1,-99.75C113.67,-97.31 104.11,-94.85 95.13,-92.53"/>
<polygon fill="midnightblue" stroke="midnightblue" points="122.31,-103.16 132.87,-102.27 124.06,-96.38 122.31,-103.16"/>
</g>
<!-- Node27&#45;&gt;Node8 -->
<g id="edge31" class="edge">
<title>Node27&#45;&gt;Node8</title>
<path fill="none" stroke="midnightblue" d="M289.89,-794.1C272.05,-798.82 253.14,-803.81 236.64,-808.17"/>
<polygon fill="midnightblue" stroke="midnightblue" points="290.89,-797.45 299.67,-791.52 289.1,-790.69 290.89,-797.45"/>
</g>
</g>
</svg>
