<?xml version="1.0" encoding="UTF-8" standalone="no"?>
<!DOCTYPE svg PUBLIC "-//W3C//DTD SVG 1.1//EN"
 "http://www.w3.org/Graphics/SVG/1.1/DTD/svg11.dtd">
<!-- Generated by graphviz version 2.43.0 (0)
 -->
<!-- Title: ft::irc::processor_mode::execute Pages: 1 -->
<svg width="898pt" height="1057pt"
 viewBox="0.00 0.00 898.00 1056.50" xmlns="http://www.w3.org/2000/svg" xmlns:xlink="http://www.w3.org/1999/xlink">
<g id="graph0" class="graph" transform="scale(1 1) rotate(0) translate(4 1052.5)">
<title>ft::irc::processor_mode::execute</title>
<polygon fill="white" stroke="transparent" points="-4,4 -4,-1052.5 894,-1052.5 894,4 -4,4"/>
<!-- Node1 -->
<g id="node1" class="node">
<title>Node1</title>
<g id="a_node1"><a xlink:title=" ">
<polygon fill="#bfbfbf" stroke="black" points="0,-560.5 0,-590.5 95,-590.5 95,-560.5 0,-560.5"/>
<text text-anchor="start" x="8" y="-578.5" font-family="Helvetica,sans-Serif" font-size="10.00">ft::irc::processor</text>
<text text-anchor="middle" x="47.5" y="-567.5" font-family="Helvetica,sans-Serif" font-size="10.00">_mode::execute</text>
</a>
</g>
</g>
<!-- Node2 -->
<g id="node2" class="node">
<title>Node2</title>
<g id="a_node2"><a xlink:href="classft_1_1irc_1_1channel.html#a4250c6f755016a2f80ae04de5ffed80f" target="_top" xlink:title=" ">
<polygon fill="white" stroke="black" points="144,-1029 144,-1048 284,-1048 284,-1029 144,-1029"/>
<text text-anchor="middle" x="214" y="-1036" font-family="Helvetica,sans-Serif" font-size="10.00">ft::irc::channel::broadcast</text>
</a>
</g>
</g>
<!-- Node1&#45;&gt;Node2 -->
<g id="edge1" class="edge">
<title>Node1&#45;&gt;Node2</title>
<path fill="none" stroke="midnightblue" d="M49.15,-590.65C52.5,-661.09 70.02,-955.77 131,-1019.5 132.4,-1020.96 133.89,-1022.33 135.46,-1023.59"/>
<polygon fill="midnightblue" stroke="midnightblue" points="133.58,-1026.55 143.85,-1029.15 137.45,-1020.71 133.58,-1026.55"/>
</g>
<!-- Node3 -->
<g id="node3" class="node">
<title>Node3</title>
<g id="a_node3"><a xlink:href="structft_1_1irc_1_1make__reply.html#a96d5812dff74345fdafb86a7a8c404ce" target="_top" xlink:title=" ">
<polygon fill="white" stroke="black" points="160.5,-979.5 160.5,-1009.5 267.5,-1009.5 267.5,-979.5 160.5,-979.5"/>
<text text-anchor="start" x="168.5" y="-997.5" font-family="Helvetica,sans-Serif" font-size="10.00">ft::irc::make_reply</text>
<text text-anchor="middle" x="214" y="-986.5" font-family="Helvetica,sans-Serif" font-size="10.00">::channel_mode_is</text>
</a>
</g>
</g>
<!-- Node1&#45;&gt;Node3 -->
<g id="edge2" class="edge">
<title>Node1&#45;&gt;Node3</title>
<path fill="none" stroke="midnightblue" d="M49.64,-590.59C54.84,-655.7 78.42,-911.99 131,-969.5 136.44,-975.45 143.24,-980 150.59,-983.47"/>
<polygon fill="midnightblue" stroke="midnightblue" points="149.55,-986.83 160.13,-987.33 152.17,-980.34 149.55,-986.83"/>
</g>
<!-- Node4 -->
<g id="node4" class="node">
<title>Node4</title>
<g id="a_node4"><a xlink:href="structft_1_1irc_1_1make__error.html#aca1c9bea6c7e51af32e12989b1ff36fd" target="_top" xlink:title=" ">
<polygon fill="white" stroke="black" points="133.5,-919 133.5,-960 294.5,-960 294.5,-919 133.5,-919"/>
<text text-anchor="start" x="141.5" y="-948" font-family="Helvetica,sans-Serif" font-size="10.00">ft::irc::make_error</text>
<text text-anchor="start" x="141.5" y="-937" font-family="Helvetica,sans-Serif" font-size="10.00">::channel_operator_privileges</text>
<text text-anchor="middle" x="214" y="-926" font-family="Helvetica,sans-Serif" font-size="10.00">_needed</text>
</a>
</g>
</g>
<!-- Node1&#45;&gt;Node4 -->
<g id="edge3" class="edge">
<title>Node1&#45;&gt;Node4</title>
<path fill="none" stroke="midnightblue" d="M50.33,-590.56C57.73,-649.08 87.13,-860.59 131,-909.5 131.88,-910.48 132.8,-911.44 133.75,-912.36"/>
<polygon fill="midnightblue" stroke="midnightblue" points="131.65,-915.16 141.59,-918.82 136.1,-909.76 131.65,-915.16"/>
</g>
<!-- Node5 -->
<g id="node5" class="node">
<title>Node5</title>
<g id="a_node5"><a xlink:href="classft_1_1irc_1_1server.html#a0e7dee7efef3f36af15d1a3b97f3bad9" target="_top" xlink:title=" ">
<polygon fill="white" stroke="black" points="163,-869.5 163,-899.5 265,-899.5 265,-869.5 163,-869.5"/>
<text text-anchor="start" x="171" y="-887.5" font-family="Helvetica,sans-Serif" font-size="10.00">ft::irc::server::find</text>
<text text-anchor="middle" x="214" y="-876.5" font-family="Helvetica,sans-Serif" font-size="10.00">_channel</text>
</a>
</g>
</g>
<!-- Node1&#45;&gt;Node5 -->
<g id="edge4" class="edge">
<title>Node1&#45;&gt;Node5</title>
<path fill="none" stroke="midnightblue" d="M48.2,-590.59C48.11,-637.42 54.36,-781.84 131,-859.5 137.23,-865.81 145,-870.54 153.26,-874.08"/>
<polygon fill="midnightblue" stroke="midnightblue" points="152.14,-877.4 162.73,-877.59 154.57,-870.83 152.14,-877.4"/>
</g>
<!-- Node6 -->
<g id="node6" class="node">
<title>Node6</title>
<g id="a_node6"><a xlink:href="classft_1_1irc_1_1server.html#a7a7b03083500fa8c2c3008ff55e6eafb" target="_top" xlink:title=" ">
<polygon fill="white" stroke="black" points="150,-831 150,-850 278,-850 278,-831 150,-831"/>
<text text-anchor="middle" x="214" y="-838" font-family="Helvetica,sans-Serif" font-size="10.00">ft::irc::server::find_user</text>
</a>
</g>
</g>
<!-- Node1&#45;&gt;Node6 -->
<g id="edge5" class="edge">
<title>Node1&#45;&gt;Node6</title>
<path fill="none" stroke="midnightblue" d="M48.76,-590.62C50.37,-633.7 61.15,-758.04 131,-821.5 133.96,-824.19 137.22,-826.52 140.69,-828.53"/>
<polygon fill="midnightblue" stroke="midnightblue" points="139.15,-831.68 149.67,-832.94 142.23,-825.39 139.15,-831.68"/>
</g>
<!-- Node7 -->
<g id="node7" class="node">
<title>Node7</title>
<g id="a_node7"><a xlink:href="classft_1_1irc_1_1user.html#ae476cc31795df7fbb726b193ab887e75" target="_top" xlink:title=" ">
<polygon fill="white" stroke="black" points="169,-781.5 169,-811.5 259,-811.5 259,-781.5 169,-781.5"/>
<text text-anchor="start" x="177" y="-799.5" font-family="Helvetica,sans-Serif" font-size="10.00">ft::irc::user::get</text>
<text text-anchor="middle" x="214" y="-788.5" font-family="Helvetica,sans-Serif" font-size="10.00">_server</text>
</a>
</g>
</g>
<!-- Node1&#45;&gt;Node7 -->
<g id="edge6" class="edge">
<title>Node1&#45;&gt;Node7</title>
<path fill="none" stroke="midnightblue" d="M50.39,-590.61C55.79,-627.39 74.74,-722.21 131,-772.5 138.96,-779.62 148.93,-784.63 159.15,-788.16"/>
<polygon fill="midnightblue" stroke="midnightblue" points="158.38,-791.58 168.96,-791.11 160.39,-784.88 158.38,-791.58"/>
</g>
<!-- Node8 -->
<g id="node8" class="node">
<title>Node8</title>
<g id="a_node8"><a xlink:href="classft_1_1irc_1_1user.html#a43fb91fff5e13afd67f9e642137eca40" target="_top" xlink:title=" ">
<polygon fill="white" stroke="black" points="151,-732.5 151,-762.5 277,-762.5 277,-732.5 151,-732.5"/>
<text text-anchor="start" x="159" y="-750.5" font-family="Helvetica,sans-Serif" font-size="10.00">ft::irc::user::is_channel</text>
<text text-anchor="middle" x="214" y="-739.5" font-family="Helvetica,sans-Serif" font-size="10.00">_member</text>
</a>
</g>
</g>
<!-- Node1&#45;&gt;Node8 -->
<g id="edge7" class="edge">
<title>Node1&#45;&gt;Node8</title>
<path fill="none" stroke="midnightblue" d="M52.68,-590.61C61.76,-620.58 86.16,-687.72 131,-723.5 134.33,-726.15 137.94,-728.51 141.73,-730.61"/>
<polygon fill="midnightblue" stroke="midnightblue" points="140.32,-733.82 150.84,-735.06 143.38,-727.53 140.32,-733.82"/>
</g>
<!-- Node9 -->
<g id="node9" class="node">
<title>Node9</title>
<g id="a_node9"><a xlink:href="classft_1_1irc_1_1channel.html#a09f80cecbaa60df112b6eb082c1cd2e5" target="_top" xlink:title=" ">
<polygon fill="white" stroke="black" points="160.5,-683.5 160.5,-713.5 267.5,-713.5 267.5,-683.5 160.5,-683.5"/>
<text text-anchor="start" x="168.5" y="-701.5" font-family="Helvetica,sans-Serif" font-size="10.00">ft::irc::channel::is</text>
<text text-anchor="middle" x="214" y="-690.5" font-family="Helvetica,sans-Serif" font-size="10.00">_channel_operator</text>
</a>
</g>
</g>
<!-- Node1&#45;&gt;Node9 -->
<g id="edge8" class="edge">
<title>Node1&#45;&gt;Node9</title>
<path fill="none" stroke="midnightblue" d="M57.09,-590.66C70.22,-612.44 97.32,-652.42 131,-674.5 137.05,-678.47 143.78,-681.8 150.7,-684.59"/>
<polygon fill="midnightblue" stroke="midnightblue" points="149.63,-687.92 160.22,-688.06 152.03,-681.34 149.63,-687.92"/>
</g>
<!-- Node10 -->
<g id="node10" class="node">
<title>Node10</title>
<g id="a_node10"><a xlink:href="structft_1_1irc_1_1string__utils.html#a38cd804a5b73843f0fd63a027dd0dee0" target="_top" xlink:title=" ">
<polygon fill="white" stroke="black" points="148.5,-634.5 148.5,-664.5 279.5,-664.5 279.5,-634.5 148.5,-634.5"/>
<text text-anchor="start" x="156.5" y="-652.5" font-family="Helvetica,sans-Serif" font-size="10.00">ft::irc::string_utils</text>
<text text-anchor="middle" x="214" y="-641.5" font-family="Helvetica,sans-Serif" font-size="10.00">::is_valid_channelname</text>
</a>
</g>
</g>
<!-- Node1&#45;&gt;Node10 -->
<g id="edge9" class="edge">
<title>Node1&#45;&gt;Node10</title>
<path fill="none" stroke="midnightblue" d="M70.06,-590.71C86.23,-601.58 109.23,-615.92 131,-625.5 135.43,-627.45 140.07,-629.3 144.79,-631.03"/>
<polygon fill="midnightblue" stroke="midnightblue" points="143.94,-634.44 154.54,-634.43 146.25,-627.83 143.94,-634.44"/>
</g>
<!-- Node12 -->
<g id="node12" class="node">
<title>Node12</title>
<g id="a_node12"><a xlink:href="classft_1_1irc_1_1channel.html#abb21180c96571b7743159bd756164a97" target="_top" xlink:title=" ">
<polygon fill="white" stroke="black" points="154.5,-585.5 154.5,-615.5 273.5,-615.5 273.5,-585.5 154.5,-585.5"/>
<text text-anchor="start" x="162.5" y="-603.5" font-family="Helvetica,sans-Serif" font-size="10.00">ft::irc::channel::make</text>
<text text-anchor="middle" x="214" y="-592.5" font-family="Helvetica,sans-Serif" font-size="10.00">_mode_string</text>
</a>
</g>
</g>
<!-- Node1&#45;&gt;Node12 -->
<g id="edge11" class="edge">
<title>Node1&#45;&gt;Node12</title>
<path fill="none" stroke="midnightblue" d="M95.2,-582.6C110.46,-584.92 127.74,-587.54 144.27,-590.06"/>
<polygon fill="midnightblue" stroke="midnightblue" points="144.03,-593.56 154.45,-591.6 145.09,-586.64 144.03,-593.56"/>
</g>
<!-- Node13 -->
<g id="node13" class="node">
<title>Node13</title>
<g id="a_node13"><a xlink:href="structft_1_1irc_1_1make__error.html#a8ad003c713b8ee5ebbf4691dd2be83fe" target="_top" xlink:title=" ">
<polygon fill="white" stroke="black" points="161,-536.5 161,-566.5 267,-566.5 267,-536.5 161,-536.5"/>
<text text-anchor="start" x="169" y="-554.5" font-family="Helvetica,sans-Serif" font-size="10.00">ft::irc::make_error</text>
<text text-anchor="middle" x="214" y="-543.5" font-family="Helvetica,sans-Serif" font-size="10.00">::no_such_channel</text>
</a>
</g>
</g>
<!-- Node1&#45;&gt;Node13 -->
<g id="edge12" class="edge">
<title>Node1&#45;&gt;Node13</title>
<path fill="none" stroke="midnightblue" d="M95.2,-568.69C112.51,-566.16 132.42,-563.26 150.89,-560.56"/>
<polygon fill="midnightblue" stroke="midnightblue" points="151.59,-564 160.98,-559.09 150.58,-557.07 151.59,-564"/>
</g>
<!-- Node14 -->
<g id="node14" class="node">
<title>Node14</title>
<g id="a_node14"><a xlink:href="structft_1_1irc_1_1make__error.html#a18a46423a4bca983ad1a6edff1b6c504" target="_top" xlink:title=" ">
<polygon fill="white" stroke="black" points="156,-487.5 156,-517.5 272,-517.5 272,-487.5 156,-487.5"/>
<text text-anchor="start" x="164" y="-505.5" font-family="Helvetica,sans-Serif" font-size="10.00">ft::irc::make_error</text>
<text text-anchor="middle" x="214" y="-494.5" font-family="Helvetica,sans-Serif" font-size="10.00">::no_such_nickname</text>
</a>
</g>
</g>
<!-- Node1&#45;&gt;Node14 -->
<g id="edge13" class="edge">
<title>Node1&#45;&gt;Node14</title>
<path fill="none" stroke="midnightblue" d="M71.22,-560.36C87.38,-550.07 109.89,-536.71 131,-527.5 136.33,-525.17 141.94,-522.98 147.63,-520.92"/>
<polygon fill="midnightblue" stroke="midnightblue" points="148.93,-524.18 157.23,-517.6 146.64,-517.56 148.93,-524.18"/>
</g>
<!-- Node15 -->
<g id="node15" class="node">
<title>Node15</title>
<g id="a_node15"><a xlink:href="structft_1_1irc_1_1make__error.html#a85c1af0e7b2940c1aff650d1a78b9847" target="_top" xlink:title=" ">
<polygon fill="white" stroke="black" points="162.5,-438.5 162.5,-468.5 265.5,-468.5 265.5,-438.5 162.5,-438.5"/>
<text text-anchor="start" x="170.5" y="-456.5" font-family="Helvetica,sans-Serif" font-size="10.00">ft::irc::make_error</text>
<text text-anchor="middle" x="214" y="-445.5" font-family="Helvetica,sans-Serif" font-size="10.00">::not_on_channel</text>
</a>
</g>
</g>
<!-- Node1&#45;&gt;Node15 -->
<g id="edge14" class="edge">
<title>Node1&#45;&gt;Node15</title>
<path fill="none" stroke="midnightblue" d="M57.42,-560.35C70.77,-538.99 97.92,-500.22 131,-478.5 137.72,-474.09 145.26,-470.42 152.97,-467.39"/>
<polygon fill="midnightblue" stroke="midnightblue" points="154.19,-470.67 162.41,-463.99 151.82,-464.08 154.19,-470.67"/>
</g>
<!-- Node16 -->
<g id="node16" class="node">
<title>Node16</title>
<g id="a_node16"><a xlink:href="classft_1_1irc_1_1message.html#a34f457ead0453ad914af2cb0482a40b9" target="_top" xlink:title=" ">
<polygon fill="white" stroke="black" points="333,-605 333,-624 487,-624 487,-605 333,-605"/>
<text text-anchor="middle" x="410" y="-612" font-family="Helvetica,sans-Serif" font-size="10.00">ft::irc::message::param_size</text>
</a>
</g>
</g>
<!-- Node1&#45;&gt;Node16 -->
<g id="edge15" class="edge">
<title>Node1&#45;&gt;Node16</title>
<path fill="none" stroke="midnightblue" d="M51.73,-560.42C59.31,-529.28 81.46,-458.41 131,-429.5 194.72,-392.32 239.57,-383.19 297,-429.5 355.77,-476.89 280.46,-541.29 333,-595.5 334.27,-596.81 335.61,-598.03 337.02,-599.18"/>
<polygon fill="midnightblue" stroke="midnightblue" points="335.43,-602.32 345.71,-604.9 339.28,-596.48 335.43,-602.32"/>
</g>
<!-- Node17 -->
<g id="node17" class="node">
<title>Node17</title>
<g id="a_node17"><a xlink:href="structft_1_1irc_1_1make__reply.html#a5bc514d5b05cc15d799aba1944a18386" target="_top" xlink:title=" ">
<polygon fill="white" stroke="black" points="162,-98.5 162,-128.5 266,-128.5 266,-98.5 162,-98.5"/>
<text text-anchor="start" x="170" y="-116.5" font-family="Helvetica,sans-Serif" font-size="10.00">ft::irc::make_reply</text>
<text text-anchor="middle" x="214" y="-105.5" font-family="Helvetica,sans-Serif" font-size="10.00">::replicate</text>
</a>
</g>
</g>
<!-- Node1&#45;&gt;Node17 -->
<g id="edge16" class="edge">
<title>Node1&#45;&gt;Node17</title>
<path fill="none" stroke="midnightblue" d="M49.42,-560.45C53.89,-491.8 75.5,-208.81 131,-143.5 136.78,-136.7 144.23,-131.44 152.29,-127.38"/>
<polygon fill="midnightblue" stroke="midnightblue" points="153.85,-130.51 161.58,-123.27 151.02,-124.11 153.85,-130.51"/>
</g>
<!-- Node18 -->
<g id="node18" class="node">
<title>Node18</title>
<g id="a_node18"><a xlink:href="classft_1_1irc_1_1user.html#a1db558d6d694ca943224c2440fe36c50" target="_top" xlink:title=" ">
<polygon fill="white" stroke="black" points="526,-161.5 526,-191.5 624,-191.5 624,-161.5 526,-161.5"/>
<text text-anchor="start" x="534" y="-179.5" font-family="Helvetica,sans-Serif" font-size="10.00">ft::irc::user::send</text>
<text text-anchor="middle" x="575" y="-168.5" font-family="Helvetica,sans-Serif" font-size="10.00">_message</text>
</a>
</g>
</g>
<!-- Node1&#45;&gt;Node18 -->
<g id="edge17" class="edge">
<title>Node1&#45;&gt;Node18</title>
<path fill="none" stroke="midnightblue" d="M49.49,-560.28C54.01,-495.8 74.93,-246.19 131,-196.5 186.4,-147.41 408.53,-160.78 515.65,-170.48"/>
<polygon fill="midnightblue" stroke="midnightblue" points="515.37,-173.97 525.65,-171.4 516.01,-167 515.37,-173.97"/>
</g>
<!-- Node19 -->
<g id="node19" class="node">
<title>Node19</title>
<g id="a_node19"><a xlink:href="classft_1_1irc_1_1processor__mode.html#a78f0436f90fe62dc8e35152d98eff680" target="_top" xlink:title=" ">
<polygon fill="white" stroke="black" points="131,-350.5 131,-380.5 297,-380.5 297,-350.5 131,-350.5"/>
<text text-anchor="start" x="139" y="-368.5" font-family="Helvetica,sans-Serif" font-size="10.00">ft::irc::processor</text>
<text text-anchor="middle" x="214" y="-357.5" font-family="Helvetica,sans-Serif" font-size="10.00">_mode::update_channel_mode</text>
</a>
</g>
</g>
<!-- Node1&#45;&gt;Node19 -->
<g id="edge18" class="edge">
<title>Node1&#45;&gt;Node19</title>
<path fill="none" stroke="midnightblue" d="M51.31,-560.38C58.44,-526.19 80.38,-442.27 131,-395.5 135.11,-391.71 139.73,-388.38 144.64,-385.47"/>
<polygon fill="midnightblue" stroke="midnightblue" points="146.52,-388.44 153.73,-380.67 143.25,-382.25 146.52,-388.44"/>
</g>
<!-- Node36 -->
<g id="node36" class="node">
<title>Node36</title>
<g id="a_node36"><a xlink:href="classft_1_1irc_1_1processor__mode.html#a4447a4030b15157ccecfe992192de4b5" target="_top" xlink:title=" ">
<polygon fill="white" stroke="black" points="139.5,-205.5 139.5,-235.5 288.5,-235.5 288.5,-205.5 139.5,-205.5"/>
<text text-anchor="start" x="147.5" y="-223.5" font-family="Helvetica,sans-Serif" font-size="10.00">ft::irc::processor</text>
<text text-anchor="middle" x="214" y="-212.5" font-family="Helvetica,sans-Serif" font-size="10.00">_mode::update_user_mode</text>
</a>
</g>
</g>
<!-- Node1&#45;&gt;Node36 -->
<g id="edge41" class="edge">
<title>Node1&#45;&gt;Node36</title>
<path fill="none" stroke="midnightblue" d="M52.36,-560.45C62.39,-522.46 91.32,-420.15 131,-341.5 149.22,-305.38 176.55,-267.32 194.57,-243.75"/>
<polygon fill="midnightblue" stroke="midnightblue" points="197.41,-245.8 200.76,-235.75 191.87,-241.52 197.41,-245.8"/>
</g>
<!-- Node38 -->
<g id="node38" class="node">
<title>Node38</title>
<g id="a_node38"><a xlink:href="structft_1_1irc_1_1make__reply.html#a125ea72202f5f56289961dd1664a0f69" target="_top" xlink:title=" ">
<polygon fill="white" stroke="black" points="162,-49.5 162,-79.5 266,-79.5 266,-49.5 162,-49.5"/>
<text text-anchor="start" x="170" y="-67.5" font-family="Helvetica,sans-Serif" font-size="10.00">ft::irc::make_reply</text>
<text text-anchor="middle" x="214" y="-56.5" font-family="Helvetica,sans-Serif" font-size="10.00">::user_mode_is</text>
</a>
</g>
</g>
<!-- Node1&#45;&gt;Node38 -->
<g id="edge44" class="edge">
<title>Node1&#45;&gt;Node38</title>
<path fill="none" stroke="midnightblue" d="M48.96,-560.48C51.54,-486.45 66.46,-161.07 131,-88.5 136.74,-82.05 144.11,-77.29 152.07,-73.79"/>
<polygon fill="midnightblue" stroke="midnightblue" points="153.48,-77 161.63,-70.23 151.03,-70.44 153.48,-77"/>
</g>
<!-- Node39 -->
<g id="node39" class="node">
<title>Node39</title>
<g id="a_node39"><a xlink:href="structft_1_1irc_1_1make__error.html#a561c0d0c9c317a5f57e6369395e3c42b" target="_top" xlink:title=" ">
<polygon fill="white" stroke="black" points="155,-0.5 155,-30.5 273,-30.5 273,-0.5 155,-0.5"/>
<text text-anchor="start" x="163" y="-18.5" font-family="Helvetica,sans-Serif" font-size="10.00">ft::irc::make_error</text>
<text text-anchor="middle" x="214" y="-7.5" font-family="Helvetica,sans-Serif" font-size="10.00">::users_donot_match</text>
</a>
</g>
</g>
<!-- Node1&#45;&gt;Node39 -->
<g id="edge45" class="edge">
<title>Node1&#45;&gt;Node39</title>
<path fill="none" stroke="midnightblue" d="M48.71,-560.31C50.11,-481.53 60.35,-120.15 131,-39.5 135.07,-34.85 139.99,-31.08 145.36,-28.03"/>
<polygon fill="midnightblue" stroke="midnightblue" points="147.27,-31 154.78,-23.53 144.25,-24.68 147.27,-31"/>
</g>
<!-- Node11 -->
<g id="node11" class="node">
<title>Node11</title>
<g id="a_node11"><a xlink:href="namespaceft_1_1irc_1_1__internal.html#ac421a738f6d955bab8b862fca8bd7159" target="_top" xlink:title=" ">
<polygon fill="white" stroke="black" points="365,-643.5 365,-673.5 455,-673.5 455,-643.5 365,-643.5"/>
<text text-anchor="start" x="373" y="-661.5" font-family="Helvetica,sans-Serif" font-size="10.00">ft::irc::_internal</text>
<text text-anchor="middle" x="410" y="-650.5" font-family="Helvetica,sans-Serif" font-size="10.00">::_is_except</text>
</a>
</g>
</g>
<!-- Node10&#45;&gt;Node11 -->
<g id="edge10" class="edge">
<title>Node10&#45;&gt;Node11</title>
<path fill="none" stroke="midnightblue" d="M279.6,-652.5C303.99,-653.63 331.46,-654.9 354.8,-655.99"/>
<polygon fill="midnightblue" stroke="midnightblue" points="354.72,-659.49 364.87,-656.45 355.04,-652.49 354.72,-659.49"/>
</g>
<!-- Node19&#45;&gt;Node16 -->
<g id="edge28" class="edge">
<title>Node19&#45;&gt;Node16</title>
<path fill="none" stroke="midnightblue" d="M278.16,-380.57C285.29,-384.46 291.83,-389.35 297,-395.5 355.12,-464.63 271.31,-529.54 333,-595.5 334.21,-596.8 335.5,-598.01 336.85,-599.15"/>
<polygon fill="midnightblue" stroke="midnightblue" points="334.97,-602.1 345.21,-604.84 338.91,-596.32 334.97,-602.1"/>
</g>
<!-- Node20 -->
<g id="node20" class="node">
<title>Node20</title>
<g id="a_node20"><a xlink:href="classft_1_1irc_1_1channel.html#a88a071511ae42d2faa2ff45d6d6f4abf" target="_top" xlink:title=" ">
<polygon fill="white" stroke="black" points="355,-479 355,-498 465,-498 465,-479 355,-479"/>
<text text-anchor="middle" x="410" y="-486" font-family="Helvetica,sans-Serif" font-size="10.00">ft::irc::channel::ban</text>
</a>
</g>
</g>
<!-- Node19&#45;&gt;Node20 -->
<g id="edge19" class="edge">
<title>Node19&#45;&gt;Node20</title>
<path fill="none" stroke="midnightblue" d="M273.73,-380.61C282.16,-384.52 290.25,-389.4 297,-395.5 324.15,-420.01 304.6,-446.46 333,-469.5 336.76,-472.55 340.95,-475.12 345.37,-477.29"/>
<polygon fill="midnightblue" stroke="midnightblue" points="344.14,-480.56 354.71,-481.18 346.83,-474.1 344.14,-480.56"/>
</g>
<!-- Node24 -->
<g id="node24" class="node">
<title>Node24</title>
<g id="a_node24"><a xlink:href="classft_1_1irc_1_1processor__mode.html#a0756abb7cea854a0c5a05c24e0320ee2" target="_top" xlink:title=" ">
<polygon fill="white" stroke="black" points="341.5,-342.5 341.5,-372.5 478.5,-372.5 478.5,-342.5 341.5,-342.5"/>
<text text-anchor="start" x="349.5" y="-360.5" font-family="Helvetica,sans-Serif" font-size="10.00">ft::irc::processor</text>
<text text-anchor="middle" x="410" y="-349.5" font-family="Helvetica,sans-Serif" font-size="10.00">_mode::get_min_params</text>
</a>
</g>
</g>
<!-- Node19&#45;&gt;Node24 -->
<g id="edge23" class="edge">
<title>Node19&#45;&gt;Node24</title>
<path fill="none" stroke="midnightblue" d="M297.27,-362.11C308.5,-361.64 320,-361.17 331.14,-360.71"/>
<polygon fill="midnightblue" stroke="midnightblue" points="331.42,-364.2 341.26,-360.29 331.13,-357.21 331.42,-364.2"/>
</g>
<!-- Node25 -->
<g id="node25" class="node">
<title>Node25</title>
<g id="a_node25"><a xlink:href="classft_1_1irc_1_1channel.html#ad30281781ad94941df6db1284869a73b" target="_top" xlink:title=" ">
<polygon fill="white" stroke="black" points="347.5,-391.5 347.5,-421.5 472.5,-421.5 472.5,-391.5 347.5,-391.5"/>
<text text-anchor="start" x="355.5" y="-409.5" font-family="Helvetica,sans-Serif" font-size="10.00">ft::irc::channel::modify</text>
<text text-anchor="middle" x="410" y="-398.5" font-family="Helvetica,sans-Serif" font-size="10.00">_member_mode</text>
</a>
</g>
</g>
<!-- Node19&#45;&gt;Node25 -->
<g id="edge24" class="edge">
<title>Node19&#45;&gt;Node25</title>
<path fill="none" stroke="midnightblue" d="M286.14,-380.53C302.79,-384.05 320.55,-387.81 337.23,-391.33"/>
<polygon fill="midnightblue" stroke="midnightblue" points="336.96,-394.85 347.46,-393.49 338.4,-388 336.96,-394.85"/>
</g>
<!-- Node29 -->
<g id="node29" class="node">
<title>Node29</title>
<g id="a_node29"><a xlink:href="classft_1_1irc_1_1channel.html#a058c359633e6e7b0029b2feedd6320bf" target="_top" xlink:title=" ">
<polygon fill="white" stroke="black" points="352.5,-293.5 352.5,-323.5 467.5,-323.5 467.5,-293.5 352.5,-293.5"/>
<text text-anchor="start" x="360.5" y="-311.5" font-family="Helvetica,sans-Serif" font-size="10.00">ft::irc::channel::send</text>
<text text-anchor="middle" x="410" y="-300.5" font-family="Helvetica,sans-Serif" font-size="10.00">_ban_list</text>
</a>
</g>
</g>
<!-- Node19&#45;&gt;Node29 -->
<g id="edge29" class="edge">
<title>Node19&#45;&gt;Node29</title>
<path fill="none" stroke="midnightblue" d="M266.22,-350.45C291.31,-343.08 321.69,-334.15 347.97,-326.43"/>
<polygon fill="midnightblue" stroke="midnightblue" points="349.22,-329.71 357.82,-323.54 347.24,-323 349.22,-329.71"/>
</g>
<!-- Node32 -->
<g id="node32" class="node">
<title>Node32</title>
<g id="a_node32"><a xlink:href="classft_1_1irc_1_1channel.html#a2a3ac5889a92c45dea08b0b8e586005f" target="_top" xlink:title=" ">
<polygon fill="white" stroke="black" points="340.5,-255 340.5,-274 479.5,-274 479.5,-255 340.5,-255"/>
<text text-anchor="middle" x="410" y="-262" font-family="Helvetica,sans-Serif" font-size="10.00">ft::irc::channel::store_key</text>
</a>
</g>
</g>
<!-- Node19&#45;&gt;Node32 -->
<g id="edge33" class="edge">
<title>Node19&#45;&gt;Node32</title>
<path fill="none" stroke="midnightblue" d="M232.61,-350.49C254.7,-332.39 294.37,-302.19 333,-284.5 339.17,-281.68 345.81,-279.19 352.5,-277.03"/>
<polygon fill="midnightblue" stroke="midnightblue" points="353.73,-280.31 362.3,-274.08 351.71,-273.61 353.73,-280.31"/>
</g>
<!-- Node33 -->
<g id="node33" class="node">
<title>Node33</title>
<g id="a_node33"><a xlink:href="classft_1_1irc_1_1channel.html#a9a229b373bb42191a96af592857c279a" target="_top" xlink:title=" ">
<polygon fill="white" stroke="black" points="352,-555.5 352,-585.5 468,-585.5 468,-555.5 352,-555.5"/>
<text text-anchor="start" x="360" y="-573.5" font-family="Helvetica,sans-Serif" font-size="10.00">ft::irc::channel::store</text>
<text text-anchor="middle" x="410" y="-562.5" font-family="Helvetica,sans-Serif" font-size="10.00">_limit</text>
</a>
</g>
</g>
<!-- Node19&#45;&gt;Node33 -->
<g id="edge34" class="edge">
<title>Node19&#45;&gt;Node33</title>
<path fill="none" stroke="midnightblue" d="M277.42,-380.64C284.76,-384.52 291.55,-389.39 297,-395.5 342.61,-446.69 286.56,-495.07 333,-545.5 335.96,-548.72 339.35,-551.52 343.01,-553.97"/>
<polygon fill="midnightblue" stroke="midnightblue" points="341.54,-557.16 351.97,-559.04 344.99,-551.07 341.54,-557.16"/>
</g>
<!-- Node34 -->
<g id="node34" class="node">
<title>Node34</title>
<g id="a_node34"><a xlink:href="classft_1_1irc_1_1channel.html#a844f7ff52ac56119ab3de1a568973935" target="_top" xlink:title=" ">
<polygon fill="white" stroke="black" points="335.5,-517 335.5,-536 484.5,-536 484.5,-517 335.5,-517"/>
<text text-anchor="middle" x="410" y="-524" font-family="Helvetica,sans-Serif" font-size="10.00">ft::irc::channel::store_mode</text>
</a>
</g>
</g>
<!-- Node19&#45;&gt;Node34 -->
<g id="edge35" class="edge">
<title>Node19&#45;&gt;Node34</title>
<path fill="none" stroke="midnightblue" d="M276.17,-380.61C283.89,-384.5 291.12,-389.38 297,-395.5 333.23,-433.2 294.83,-471.77 333,-507.5 334.53,-508.93 336.14,-510.25 337.84,-511.48"/>
<polygon fill="midnightblue" stroke="midnightblue" points="336.46,-514.74 346.84,-516.87 340.05,-508.73 336.46,-514.74"/>
</g>
<!-- Node35 -->
<g id="node35" class="node">
<title>Node35</title>
<g id="a_node35"><a xlink:href="classft_1_1irc_1_1channel.html#aa7b5a547c4ff51772b8a1a6c81f61a8c" target="_top" xlink:title=" ">
<polygon fill="white" stroke="black" points="349,-441 349,-460 471,-460 471,-441 349,-441"/>
<text text-anchor="middle" x="410" y="-448" font-family="Helvetica,sans-Serif" font-size="10.00">ft::irc::channel::unban</text>
</a>
</g>
</g>
<!-- Node19&#45;&gt;Node35 -->
<g id="edge36" class="edge">
<title>Node19&#45;&gt;Node35</title>
<path fill="none" stroke="midnightblue" d="M266.93,-380.62C277.29,-384.69 287.8,-389.63 297,-395.5 316.07,-407.67 313.31,-420.35 333,-431.5 336.97,-433.75 341.2,-435.73 345.56,-437.48"/>
<polygon fill="midnightblue" stroke="midnightblue" points="344.66,-440.88 355.25,-440.96 347.02,-434.29 344.66,-440.88"/>
</g>
<!-- Node21 -->
<g id="node21" class="node">
<title>Node21</title>
<g id="a_node21"><a xlink:href="structft_1_1irc_1_1string__utils.html#a8df7fd3632f857bb33e32c24a496df98" target="_top" xlink:title=" ">
<polygon fill="white" stroke="black" points="524.5,-478.5 524.5,-508.5 625.5,-508.5 625.5,-478.5 524.5,-478.5"/>
<text text-anchor="start" x="532.5" y="-496.5" font-family="Helvetica,sans-Serif" font-size="10.00">ft::irc::string_utils</text>
<text text-anchor="middle" x="575" y="-485.5" font-family="Helvetica,sans-Serif" font-size="10.00">::pick_host</text>
</a>
</g>
</g>
<!-- Node20&#45;&gt;Node21 -->
<g id="edge20" class="edge">
<title>Node20&#45;&gt;Node21</title>
<path fill="none" stroke="midnightblue" d="M465.28,-490.16C480.93,-490.64 498.09,-491.17 514.06,-491.66"/>
<polygon fill="midnightblue" stroke="midnightblue" points="514.26,-495.17 524.36,-491.98 514.47,-488.17 514.26,-495.17"/>
</g>
<!-- Node22 -->
<g id="node22" class="node">
<title>Node22</title>
<g id="a_node22"><a xlink:href="structft_1_1irc_1_1string__utils.html#ac1e75b32f508ffe5a1a1875d1e1cd2ea" target="_top" xlink:title=" ">
<polygon fill="white" stroke="black" points="524.5,-429.5 524.5,-459.5 625.5,-459.5 625.5,-429.5 524.5,-429.5"/>
<text text-anchor="start" x="532.5" y="-447.5" font-family="Helvetica,sans-Serif" font-size="10.00">ft::irc::string_utils</text>
<text text-anchor="middle" x="575" y="-436.5" font-family="Helvetica,sans-Serif" font-size="10.00">::pick_nick</text>
</a>
</g>
</g>
<!-- Node20&#45;&gt;Node22 -->
<g id="edge21" class="edge">
<title>Node20&#45;&gt;Node22</title>
<path fill="none" stroke="midnightblue" d="M450.12,-479C461.99,-476.04 475.05,-472.71 487,-469.5 495.92,-467.11 505.32,-464.49 514.52,-461.89"/>
<polygon fill="midnightblue" stroke="midnightblue" points="515.74,-465.18 524.4,-459.08 513.82,-458.45 515.74,-465.18"/>
</g>
<!-- Node23 -->
<g id="node23" class="node">
<title>Node23</title>
<g id="a_node23"><a xlink:href="structft_1_1irc_1_1string__utils.html#ac8d525ecc5b9196146c124cd310d8d82" target="_top" xlink:title=" ">
<polygon fill="white" stroke="black" points="524.5,-527.5 524.5,-557.5 625.5,-557.5 625.5,-527.5 524.5,-527.5"/>
<text text-anchor="start" x="532.5" y="-545.5" font-family="Helvetica,sans-Serif" font-size="10.00">ft::irc::string_utils</text>
<text text-anchor="middle" x="575" y="-534.5" font-family="Helvetica,sans-Serif" font-size="10.00">::pick_username</text>
</a>
</g>
</g>
<!-- Node20&#45;&gt;Node23 -->
<g id="edge22" class="edge">
<title>Node20&#45;&gt;Node23</title>
<path fill="none" stroke="midnightblue" d="M453.5,-498.03C464.5,-500.79 476.26,-504.02 487,-507.5 501.21,-512.11 516.4,-517.91 530.05,-523.45"/>
<polygon fill="midnightblue" stroke="midnightblue" points="529.11,-526.85 539.69,-527.43 531.78,-520.38 529.11,-526.85"/>
</g>
<!-- Node26 -->
<g id="node26" class="node">
<title>Node26</title>
<g id="a_node26"><a xlink:href="structft_1_1irc_1_1string__utils.html#abd73422cb93e7f7f26cfd59a221933a2" target="_top" xlink:title=" ">
<polygon fill="white" stroke="black" points="524.5,-380.5 524.5,-410.5 625.5,-410.5 625.5,-380.5 524.5,-380.5"/>
<text text-anchor="start" x="532.5" y="-398.5" font-family="Helvetica,sans-Serif" font-size="10.00">ft::irc::string_utils</text>
<text text-anchor="middle" x="575" y="-387.5" font-family="Helvetica,sans-Serif" font-size="10.00">::is_same</text>
</a>
</g>
</g>
<!-- Node25&#45;&gt;Node26 -->
<g id="edge25" class="edge">
<title>Node25&#45;&gt;Node26</title>
<path fill="none" stroke="midnightblue" d="M472.62,-402.34C486.27,-401.42 500.72,-400.45 514.29,-399.53"/>
<polygon fill="midnightblue" stroke="midnightblue" points="514.73,-403.01 524.47,-398.84 514.26,-396.02 514.73,-403.01"/>
</g>
<!-- Node27 -->
<g id="node27" class="node">
<title>Node27</title>
<g id="a_node27"><a xlink:href="structft_1_1irc_1_1string__utils.html#a367a22012cc0d2d25959ac3f4e5d33a9" target="_top" xlink:title=" ">
<polygon fill="white" stroke="black" points="663,-380.5 663,-410.5 764,-410.5 764,-380.5 663,-380.5"/>
<text text-anchor="start" x="671" y="-398.5" font-family="Helvetica,sans-Serif" font-size="10.00">ft::irc::string_utils</text>
<text text-anchor="middle" x="713.5" y="-387.5" font-family="Helvetica,sans-Serif" font-size="10.00">::to_lower</text>
</a>
</g>
</g>
<!-- Node26&#45;&gt;Node27 -->
<g id="edge26" class="edge">
<title>Node26&#45;&gt;Node27</title>
<path fill="none" stroke="midnightblue" d="M625.67,-395.5C634.42,-395.5 643.61,-395.5 652.6,-395.5"/>
<polygon fill="midnightblue" stroke="midnightblue" points="652.64,-399 662.64,-395.5 652.64,-392 652.64,-399"/>
</g>
<!-- Node28 -->
<g id="node28" class="node">
<title>Node28</title>
<g id="a_node28"><a xlink:href="namespaceft_1_1irc_1_1__internal.html#aa76c3a369f64725f8b2b52b2131c1111" target="_top" xlink:title=" ">
<polygon fill="white" stroke="black" points="800,-380.5 800,-410.5 890,-410.5 890,-380.5 800,-380.5"/>
<text text-anchor="start" x="808" y="-398.5" font-family="Helvetica,sans-Serif" font-size="10.00">ft::irc::_internal</text>
<text text-anchor="middle" x="845" y="-387.5" font-family="Helvetica,sans-Serif" font-size="10.00">::_to_lower</text>
</a>
</g>
</g>
<!-- Node27&#45;&gt;Node28 -->
<g id="edge27" class="edge">
<title>Node27&#45;&gt;Node28</title>
<path fill="none" stroke="midnightblue" d="M764.2,-395.5C772.51,-395.5 781.18,-395.5 789.61,-395.5"/>
<polygon fill="midnightblue" stroke="midnightblue" points="789.73,-399 799.73,-395.5 789.73,-392 789.73,-399"/>
</g>
<!-- Node29&#45;&gt;Node18 -->
<g id="edge32" class="edge">
<title>Node29&#45;&gt;Node18</title>
<path fill="none" stroke="midnightblue" d="M467.53,-293.98C474.38,-291.06 481.05,-287.6 487,-283.5 519,-261.47 545.39,-224.38 560.42,-200.17"/>
<polygon fill="midnightblue" stroke="midnightblue" points="563.44,-201.95 565.61,-191.58 557.45,-198.32 563.44,-201.95"/>
</g>
<!-- Node30 -->
<g id="node30" class="node">
<title>Node30</title>
<g id="a_node30"><a xlink:href="structft_1_1irc_1_1make__reply.html#a7a456b9267291e4208ef9d36e20a7948" target="_top" xlink:title=" ">
<polygon fill="white" stroke="black" points="523,-312.5 523,-342.5 627,-342.5 627,-312.5 523,-312.5"/>
<text text-anchor="start" x="531" y="-330.5" font-family="Helvetica,sans-Serif" font-size="10.00">ft::irc::make_reply</text>
<text text-anchor="middle" x="575" y="-319.5" font-family="Helvetica,sans-Serif" font-size="10.00">::ban_list</text>
</a>
</g>
</g>
<!-- Node29&#45;&gt;Node30 -->
<g id="edge30" class="edge">
<title>Node29&#45;&gt;Node30</title>
<path fill="none" stroke="midnightblue" d="M467.55,-315.09C482.12,-316.79 497.87,-318.63 512.66,-320.35"/>
<polygon fill="midnightblue" stroke="midnightblue" points="512.39,-323.84 522.73,-321.52 513.2,-316.89 512.39,-323.84"/>
</g>
<!-- Node31 -->
<g id="node31" class="node">
<title>Node31</title>
<g id="a_node31"><a xlink:href="structft_1_1irc_1_1make__reply.html#a1fcd32547d899569970960956ba0a240" target="_top" xlink:title=" ">
<polygon fill="white" stroke="black" points="523,-263.5 523,-293.5 627,-293.5 627,-263.5 523,-263.5"/>
<text text-anchor="start" x="531" y="-281.5" font-family="Helvetica,sans-Serif" font-size="10.00">ft::irc::make_reply</text>
<text text-anchor="middle" x="575" y="-270.5" font-family="Helvetica,sans-Serif" font-size="10.00">::end_of_ban_list</text>
</a>
</g>
</g>
<!-- Node29&#45;&gt;Node31 -->
<g id="edge31" class="edge">
<title>Node29&#45;&gt;Node31</title>
<path fill="none" stroke="midnightblue" d="M467.55,-298.09C482.12,-295.41 497.87,-292.51 512.66,-289.79"/>
<polygon fill="midnightblue" stroke="midnightblue" points="513.53,-293.19 522.73,-287.94 512.26,-286.3 513.53,-293.19"/>
</g>
<!-- Node35&#45;&gt;Node21 -->
<g id="edge38" class="edge">
<title>Node35&#45;&gt;Node21</title>
<path fill="none" stroke="midnightblue" d="M450.1,-460.08C461.97,-463.04 475.03,-466.35 487,-469.5 495.9,-471.84 505.3,-474.37 514.5,-476.88"/>
<polygon fill="midnightblue" stroke="midnightblue" points="513.8,-480.32 524.37,-479.59 515.65,-473.57 513.8,-480.32"/>
</g>
<!-- Node35&#45;&gt;Node22 -->
<g id="edge39" class="edge">
<title>Node35&#45;&gt;Node22</title>
<path fill="none" stroke="midnightblue" d="M471.23,-448.28C485.32,-447.76 500.31,-447.21 514.37,-446.69"/>
<polygon fill="midnightblue" stroke="midnightblue" points="514.55,-450.19 524.41,-446.33 514.29,-443.2 514.55,-450.19"/>
</g>
<!-- Node35&#45;&gt;Node23 -->
<g id="edge40" class="edge">
<title>Node35&#45;&gt;Node23</title>
<path fill="none" stroke="midnightblue" d="M468.07,-460.1C474.76,-462.56 481.24,-465.63 487,-469.5 509.44,-484.56 502.13,-501.33 523,-518.5 524.5,-519.74 526.08,-520.92 527.71,-522.07"/>
<polygon fill="midnightblue" stroke="midnightblue" points="525.87,-525.05 536.21,-527.38 529.58,-519.11 525.87,-525.05"/>
</g>
<!-- Node35&#45;&gt;Node26 -->
<g id="edge37" class="edge">
<title>Node35&#45;&gt;Node26</title>
<path fill="none" stroke="midnightblue" d="M453.92,-440.94C464.81,-438.2 476.41,-434.99 487,-431.5 501.76,-426.63 517.55,-420.41 531.58,-414.52"/>
<polygon fill="midnightblue" stroke="midnightblue" points="533.15,-417.66 540.97,-410.52 530.4,-411.22 533.15,-417.66"/>
</g>
<!-- Node36&#45;&gt;Node18 -->
<g id="edge42" class="edge">
<title>Node36&#45;&gt;Node18</title>
<path fill="none" stroke="midnightblue" d="M281.84,-205.48C298.49,-202.13 316.34,-198.88 333,-196.5 395.08,-187.64 466.77,-182.31 515.71,-179.41"/>
<polygon fill="midnightblue" stroke="midnightblue" points="516.02,-182.9 525.8,-178.83 515.62,-175.91 516.02,-182.9"/>
</g>
<!-- Node37 -->
<g id="node37" class="node">
<title>Node37</title>
<g id="a_node37"><a xlink:href="structft_1_1irc_1_1make__error.html#a44378a69c0a3b79bc7d433663593b110" target="_top" xlink:title=" ">
<polygon fill="white" stroke="black" points="335.5,-205.5 335.5,-235.5 484.5,-235.5 484.5,-205.5 335.5,-205.5"/>
<text text-anchor="start" x="343.5" y="-223.5" font-family="Helvetica,sans-Serif" font-size="10.00">ft::irc::make_error</text>
<text text-anchor="middle" x="410" y="-212.5" font-family="Helvetica,sans-Serif" font-size="10.00">::user_mode_unknown_flag</text>
</a>
</g>
</g>
<!-- Node36&#45;&gt;Node37 -->
<g id="edge43" class="edge">
<title>Node36&#45;&gt;Node37</title>
<path fill="none" stroke="midnightblue" d="M288.62,-220.5C300.59,-220.5 313.08,-220.5 325.27,-220.5"/>
<polygon fill="midnightblue" stroke="midnightblue" points="325.43,-224 335.43,-220.5 325.43,-217 325.43,-224"/>
</g>
</g>
</svg>
