<?xml version="1.0" encoding="UTF-8" standalone="no"?>
<!DOCTYPE svg PUBLIC "-//W3C//DTD SVG 1.1//EN"
 "http://www.w3.org/Graphics/SVG/1.1/DTD/svg11.dtd">
<!-- Generated by graphviz version 2.43.0 (0)
 -->
<!-- Title: ft::irc::processor_join::execute Pages: 1 -->
<svg width="929pt" height="1045pt"
 viewBox="0.00 0.00 929.00 1045.00" xmlns="http://www.w3.org/2000/svg" xmlns:xlink="http://www.w3.org/1999/xlink">
<g id="graph0" class="graph" transform="scale(1 1) rotate(0) translate(4 1041)">
<title>ft::irc::processor_join::execute</title>
<polygon fill="white" stroke="transparent" points="-4,4 -4,-1041 925,-1041 925,4 -4,4"/>
<!-- Node1 -->
<g id="node1" class="node">
<title>Node1</title>
<g id="a_node1"><a xlink:title=" ">
<polygon fill="#bfbfbf" stroke="black" points="0,-519.5 0,-549.5 95,-549.5 95,-519.5 0,-519.5"/>
<text text-anchor="start" x="8" y="-537.5" font-family="Helvetica,sans-Serif" font-size="10.00">ft::irc::processor</text>
<text text-anchor="middle" x="47.5" y="-526.5" font-family="Helvetica,sans-Serif" font-size="10.00">_join::execute</text>
</a>
</g>
</g>
<!-- Node2 -->
<g id="node2" class="node">
<title>Node2</title>
<g id="a_node2"><a xlink:href="structft_1_1irc_1_1make__error.html#a86cfaaf2f57c77ec211b569b30a4322f" target="_top" xlink:title=" ">
<polygon fill="white" stroke="black" points="154.5,-1006.5 154.5,-1036.5 261.5,-1036.5 261.5,-1006.5 154.5,-1006.5"/>
<text text-anchor="start" x="162.5" y="-1024.5" font-family="Helvetica,sans-Serif" font-size="10.00">ft::irc::make_error</text>
<text text-anchor="middle" x="208" y="-1013.5" font-family="Helvetica,sans-Serif" font-size="10.00">::bad_channel_key</text>
</a>
</g>
</g>
<!-- Node1&#45;&gt;Node2 -->
<g id="edge1" class="edge">
<title>Node1&#45;&gt;Node2</title>
<path fill="none" stroke="midnightblue" d="M49.15,-549.7C52.51,-621.77 70.25,-928.33 131,-997.5 134.98,-1002.03 139.8,-1005.71 145.07,-1008.7"/>
<polygon fill="midnightblue" stroke="midnightblue" points="143.75,-1011.95 154.28,-1013.12 146.78,-1005.64 143.75,-1011.95"/>
</g>
<!-- Node3 -->
<g id="node3" class="node">
<title>Node3</title>
<g id="a_node3"><a xlink:href="structft_1_1irc_1_1make__error.html#a31a17f572a4ebafb6a40c1fbe972e679" target="_top" xlink:title=" ">
<polygon fill="white" stroke="black" points="142.5,-957.5 142.5,-987.5 273.5,-987.5 273.5,-957.5 142.5,-957.5"/>
<text text-anchor="start" x="150.5" y="-975.5" font-family="Helvetica,sans-Serif" font-size="10.00">ft::irc::make_error</text>
<text text-anchor="middle" x="208" y="-964.5" font-family="Helvetica,sans-Serif" font-size="10.00">::banned_from_channel</text>
</a>
</g>
</g>
<!-- Node1&#45;&gt;Node3 -->
<g id="edge2" class="edge">
<title>Node1&#45;&gt;Node3</title>
<path fill="none" stroke="midnightblue" d="M49.53,-549.82C54.36,-617.18 76.81,-886.34 131,-947.5 132.17,-948.82 133.41,-950.07 134.72,-951.26"/>
<polygon fill="midnightblue" stroke="midnightblue" points="132.7,-954.12 142.79,-957.36 136.92,-948.54 132.7,-954.12"/>
</g>
<!-- Node4 -->
<g id="node4" class="node">
<title>Node4</title>
<g id="a_node4"><a xlink:href="classft_1_1irc_1_1channel.html#a4250c6f755016a2f80ae04de5ffed80f" target="_top" xlink:title=" ">
<polygon fill="white" stroke="black" points="138,-919 138,-938 278,-938 278,-919 138,-919"/>
<text text-anchor="middle" x="208" y="-926" font-family="Helvetica,sans-Serif" font-size="10.00">ft::irc::channel::broadcast</text>
</a>
</g>
</g>
<!-- Node1&#45;&gt;Node4 -->
<g id="edge3" class="edge">
<title>Node1&#45;&gt;Node4</title>
<path fill="none" stroke="midnightblue" d="M49.75,-549.78C55.26,-613.4 79.43,-856.44 131,-909.5 132.27,-910.81 133.62,-912.03 135.03,-913.17"/>
<polygon fill="midnightblue" stroke="midnightblue" points="133.44,-916.32 143.72,-918.89 137.29,-910.47 133.44,-916.32"/>
</g>
<!-- Node5 -->
<g id="node5" class="node">
<title>Node5</title>
<g id="a_node5"><a xlink:href="classft_1_1irc_1_1user.html#ad9cf185a314b035b4613b26495032c54" target="_top" xlink:title=" ">
<polygon fill="white" stroke="black" points="151.5,-869.5 151.5,-899.5 264.5,-899.5 264.5,-869.5 151.5,-869.5"/>
<text text-anchor="start" x="159.5" y="-887.5" font-family="Helvetica,sans-Serif" font-size="10.00">ft::irc::user::channel</text>
<text text-anchor="middle" x="208" y="-876.5" font-family="Helvetica,sans-Serif" font-size="10.00">_count</text>
</a>
</g>
</g>
<!-- Node1&#45;&gt;Node5 -->
<g id="edge4" class="edge">
<title>Node1&#45;&gt;Node5</title>
<path fill="none" stroke="midnightblue" d="M50.37,-549.65C57.81,-607.55 87.03,-813.9 131,-860.5 134.33,-864.03 138.17,-867.04 142.32,-869.61"/>
<polygon fill="midnightblue" stroke="midnightblue" points="140.72,-872.72 151.2,-874.29 143.99,-866.53 140.72,-872.72"/>
</g>
<!-- Node6 -->
<g id="node6" class="node">
<title>Node6</title>
<g id="a_node6"><a xlink:href="structft_1_1irc_1_1make__error.html#a457e9a19162dbe3c7ce8f388eb7df256" target="_top" xlink:title=" ">
<polygon fill="white" stroke="black" points="156.5,-820.5 156.5,-850.5 259.5,-850.5 259.5,-820.5 156.5,-820.5"/>
<text text-anchor="start" x="164.5" y="-838.5" font-family="Helvetica,sans-Serif" font-size="10.00">ft::irc::make_error</text>
<text text-anchor="middle" x="208" y="-827.5" font-family="Helvetica,sans-Serif" font-size="10.00">::channel_is_full</text>
</a>
</g>
</g>
<!-- Node1&#45;&gt;Node6 -->
<g id="edge5" class="edge">
<title>Node1&#45;&gt;Node6</title>
<path fill="none" stroke="midnightblue" d="M48.36,-549.52C48.78,-595.47 56.4,-735.67 131,-811.5 135.58,-816.16 141.07,-819.92 146.96,-822.95"/>
<polygon fill="midnightblue" stroke="midnightblue" points="145.92,-826.31 156.48,-827.13 148.73,-819.91 145.92,-826.31"/>
</g>
<!-- Node7 -->
<g id="node7" class="node">
<title>Node7</title>
<g id="a_node7"><a xlink:href="classft_1_1irc_1_1server.html#a5cfa990dde96357ed1af1e1e1b0e4f7d" target="_top" xlink:title=" ">
<polygon fill="white" stroke="black" points="149.5,-771.5 149.5,-801.5 266.5,-801.5 266.5,-771.5 149.5,-771.5"/>
<text text-anchor="start" x="157.5" y="-789.5" font-family="Helvetica,sans-Serif" font-size="10.00">ft::irc::server::ensure</text>
<text text-anchor="middle" x="208" y="-778.5" font-family="Helvetica,sans-Serif" font-size="10.00">_channel</text>
</a>
</g>
</g>
<!-- Node1&#45;&gt;Node7 -->
<g id="edge6" class="edge">
<title>Node1&#45;&gt;Node7</title>
<path fill="none" stroke="midnightblue" d="M49.56,-549.62C53.21,-589.95 68.69,-701.08 131,-761.5 133.89,-764.3 137.1,-766.79 140.52,-769"/>
<polygon fill="midnightblue" stroke="midnightblue" points="138.95,-772.13 149.39,-773.94 142.36,-766.02 138.95,-772.13"/>
</g>
<!-- Node8 -->
<g id="node8" class="node">
<title>Node8</title>
<g id="a_node8"><a xlink:href="classft_1_1irc_1_1channel.html#a548d09eca34e5aff0c20939ab28c7cc6" target="_top" xlink:title=" ">
<polygon fill="white" stroke="black" points="136.5,-733 136.5,-752 279.5,-752 279.5,-733 136.5,-733"/>
<text text-anchor="middle" x="208" y="-740" font-family="Helvetica,sans-Serif" font-size="10.00">ft::irc::channel::enter_user</text>
</a>
</g>
</g>
<!-- Node1&#45;&gt;Node8 -->
<g id="edge7" class="edge">
<title>Node1&#45;&gt;Node8</title>
<path fill="none" stroke="midnightblue" d="M50.96,-549.59C57.46,-584.53 78.32,-671.58 131,-718.5 135.68,-722.67 141.08,-726.11 146.8,-728.96"/>
<polygon fill="midnightblue" stroke="midnightblue" points="145.43,-732.18 156,-732.95 148.22,-725.76 145.43,-732.18"/>
</g>
<!-- Node11 -->
<g id="node11" class="node">
<title>Node11</title>
<g id="a_node11"><a xlink:href="classft_1_1irc_1_1channel.html#a5bbaa158b69ee9de49c3402cb76c7e09" target="_top" xlink:title=" ">
<polygon fill="white" stroke="black" points="138,-569 138,-588 278,-588 278,-569 138,-569"/>
<text text-anchor="middle" x="208" y="-576" font-family="Helvetica,sans-Serif" font-size="10.00">ft::irc::channel::get_name</text>
</a>
</g>
</g>
<!-- Node1&#45;&gt;Node11 -->
<g id="edge10" class="edge">
<title>Node1&#45;&gt;Node11</title>
<path fill="none" stroke="midnightblue" d="M95.07,-549.05C106.77,-552.58 119.32,-556.27 131,-559.5 139.48,-561.84 148.52,-564.21 157.3,-566.45"/>
<polygon fill="midnightblue" stroke="midnightblue" points="156.51,-569.86 167.07,-568.91 158.22,-563.07 156.51,-569.86"/>
</g>
<!-- Node12 -->
<g id="node12" class="node">
<title>Node12</title>
<g id="a_node12"><a xlink:href="classft_1_1irc_1_1user.html#ae476cc31795df7fbb726b193ab887e75" target="_top" xlink:title=" ">
<polygon fill="white" stroke="black" points="163,-519.5 163,-549.5 253,-549.5 253,-519.5 163,-519.5"/>
<text text-anchor="start" x="171" y="-537.5" font-family="Helvetica,sans-Serif" font-size="10.00">ft::irc::user::get</text>
<text text-anchor="middle" x="208" y="-526.5" font-family="Helvetica,sans-Serif" font-size="10.00">_server</text>
</a>
</g>
</g>
<!-- Node1&#45;&gt;Node12 -->
<g id="edge11" class="edge">
<title>Node1&#45;&gt;Node12</title>
<path fill="none" stroke="midnightblue" d="M95.2,-534.5C113.23,-534.5 133.98,-534.5 152.67,-534.5"/>
<polygon fill="midnightblue" stroke="midnightblue" points="152.81,-538 162.81,-534.5 152.81,-531 152.81,-538"/>
</g>
<!-- Node13 -->
<g id="node13" class="node">
<title>Node13</title>
<g id="a_node13"><a xlink:href="structft_1_1irc_1_1make__error.html#a940c40574d12fc35b96c673f5084dd38" target="_top" xlink:title=" ">
<polygon fill="white" stroke="black" points="148,-470.5 148,-500.5 268,-500.5 268,-470.5 148,-470.5"/>
<text text-anchor="start" x="156" y="-488.5" font-family="Helvetica,sans-Serif" font-size="10.00">ft::irc::make_error</text>
<text text-anchor="middle" x="208" y="-477.5" font-family="Helvetica,sans-Serif" font-size="10.00">::invite_only_channel</text>
</a>
</g>
</g>
<!-- Node1&#45;&gt;Node13 -->
<g id="edge12" class="edge">
<title>Node1&#45;&gt;Node13</title>
<path fill="none" stroke="midnightblue" d="M95.2,-520.06C111.99,-514.87 131.15,-508.95 148.81,-503.49"/>
<polygon fill="midnightblue" stroke="midnightblue" points="149.92,-506.81 158.44,-500.51 147.85,-500.12 149.92,-506.81"/>
</g>
<!-- Node14 -->
<g id="node14" class="node">
<title>Node14</title>
<g id="a_node14"><a xlink:href="classft_1_1irc_1_1user.html#a43fb91fff5e13afd67f9e642137eca40" target="_top" xlink:title=" ">
<polygon fill="white" stroke="black" points="322,-689.5 322,-719.5 448,-719.5 448,-689.5 322,-689.5"/>
<text text-anchor="start" x="330" y="-707.5" font-family="Helvetica,sans-Serif" font-size="10.00">ft::irc::user::is_channel</text>
<text text-anchor="middle" x="385" y="-696.5" font-family="Helvetica,sans-Serif" font-size="10.00">_member</text>
</a>
</g>
</g>
<!-- Node1&#45;&gt;Node14 -->
<g id="edge13" class="edge">
<title>Node1&#45;&gt;Node14</title>
<path fill="none" stroke="midnightblue" d="M51.75,-549.78C59.35,-581.38 81.55,-653.6 131,-685.5 184.29,-719.87 257.66,-721.59 311.67,-716.52"/>
<polygon fill="midnightblue" stroke="midnightblue" points="312.28,-719.97 321.86,-715.46 311.55,-713.01 312.28,-719.97"/>
</g>
<!-- Node15 -->
<g id="node15" class="node">
<title>Node15</title>
<g id="a_node15"><a xlink:href="structft_1_1irc_1_1string__utils.html#a38cd804a5b73843f0fd63a027dd0dee0" target="_top" xlink:title=" ">
<polygon fill="white" stroke="black" points="142.5,-421.5 142.5,-451.5 273.5,-451.5 273.5,-421.5 142.5,-421.5"/>
<text text-anchor="start" x="150.5" y="-439.5" font-family="Helvetica,sans-Serif" font-size="10.00">ft::irc::string_utils</text>
<text text-anchor="middle" x="208" y="-428.5" font-family="Helvetica,sans-Serif" font-size="10.00">::is_valid_channelname</text>
</a>
</g>
</g>
<!-- Node1&#45;&gt;Node15 -->
<g id="edge14" class="edge">
<title>Node1&#45;&gt;Node15</title>
<path fill="none" stroke="midnightblue" d="M61.63,-519.36C76.81,-502.74 103.26,-476.33 131,-460.5 134.04,-458.77 137.21,-457.14 140.47,-455.62"/>
<polygon fill="midnightblue" stroke="midnightblue" points="142.03,-458.77 149.84,-451.61 139.27,-452.33 142.03,-458.77"/>
</g>
<!-- Node17 -->
<g id="node17" class="node">
<title>Node17</title>
<g id="a_node17"><a xlink:href="classft_1_1irc_1_1user.html#af78a2901a6ffa0a6b2cbfc8a8e83bcaf" target="_top" xlink:title=" ">
<polygon fill="white" stroke="black" points="162,-372.5 162,-402.5 254,-402.5 254,-372.5 162,-372.5"/>
<text text-anchor="start" x="170" y="-390.5" font-family="Helvetica,sans-Serif" font-size="10.00">ft::irc::user::join</text>
<text text-anchor="middle" x="208" y="-379.5" font-family="Helvetica,sans-Serif" font-size="10.00">_channel</text>
</a>
</g>
</g>
<!-- Node1&#45;&gt;Node17 -->
<g id="edge16" class="edge">
<title>Node1&#45;&gt;Node17</title>
<path fill="none" stroke="midnightblue" d="M54.68,-519.21C65.95,-493.23 92.31,-440.48 131,-411.5 137.46,-406.66 144.91,-402.79 152.58,-399.68"/>
<polygon fill="midnightblue" stroke="midnightblue" points="153.78,-402.97 161.98,-396.26 151.39,-396.39 153.78,-402.97"/>
</g>
<!-- Node18 -->
<g id="node18" class="node">
<title>Node18</title>
<g id="a_node18"><a xlink:href="classft_1_1irc_1_1channel.html#a9dc33679c51d9af9cc251bbdac49f30c" target="_top" xlink:title=" ">
<polygon fill="white" stroke="black" points="151.5,-323.5 151.5,-353.5 264.5,-353.5 264.5,-323.5 151.5,-323.5"/>
<text text-anchor="start" x="159.5" y="-341.5" font-family="Helvetica,sans-Serif" font-size="10.00">ft::irc::channel::load</text>
<text text-anchor="middle" x="208" y="-330.5" font-family="Helvetica,sans-Serif" font-size="10.00">_topic</text>
</a>
</g>
</g>
<!-- Node1&#45;&gt;Node18 -->
<g id="edge17" class="edge">
<title>Node1&#45;&gt;Node18</title>
<path fill="none" stroke="midnightblue" d="M51.49,-519.39C58.87,-486.07 81.1,-405.8 131,-362.5 134.44,-359.51 138.26,-356.89 142.3,-354.6"/>
<polygon fill="midnightblue" stroke="midnightblue" points="144.01,-357.66 151.42,-350.09 140.91,-351.39 144.01,-357.66"/>
</g>
<!-- Node19 -->
<g id="node19" class="node">
<title>Node19</title>
<g id="a_node19"><a xlink:href="structft_1_1irc_1_1make__error.html#a8ad003c713b8ee5ebbf4691dd2be83fe" target="_top" xlink:title=" ">
<polygon fill="white" stroke="black" points="155,-274.5 155,-304.5 261,-304.5 261,-274.5 155,-274.5"/>
<text text-anchor="start" x="163" y="-292.5" font-family="Helvetica,sans-Serif" font-size="10.00">ft::irc::make_error</text>
<text text-anchor="middle" x="208" y="-281.5" font-family="Helvetica,sans-Serif" font-size="10.00">::no_such_channel</text>
</a>
</g>
</g>
<!-- Node1&#45;&gt;Node19 -->
<g id="edge18" class="edge">
<title>Node1&#45;&gt;Node19</title>
<path fill="none" stroke="midnightblue" d="M49.68,-519.44C53.61,-479.82 69.68,-371.74 131,-313.5 135.31,-309.41 140.3,-306.02 145.64,-303.2"/>
<polygon fill="midnightblue" stroke="midnightblue" points="147.24,-306.32 154.88,-298.99 144.33,-299.95 147.24,-306.32"/>
</g>
<!-- Node20 -->
<g id="node20" class="node">
<title>Node20</title>
<g id="a_node20"><a xlink:href="classft_1_1irc_1_1message.html#a34f457ead0453ad914af2cb0482a40b9" target="_top" xlink:title=" ">
<polygon fill="white" stroke="black" points="131,-236 131,-255 285,-255 285,-236 131,-236"/>
<text text-anchor="middle" x="208" y="-243" font-family="Helvetica,sans-Serif" font-size="10.00">ft::irc::message::param_size</text>
</a>
</g>
</g>
<!-- Node1&#45;&gt;Node20 -->
<g id="edge19" class="edge">
<title>Node1&#45;&gt;Node20</title>
<path fill="none" stroke="midnightblue" d="M48.3,-519.33C48.56,-473.61 55.83,-335.89 131,-264.5 132.52,-263.06 134.12,-261.72 135.81,-260.49"/>
<polygon fill="midnightblue" stroke="midnightblue" points="138.03,-263.23 144.78,-255.07 134.41,-257.24 138.03,-263.23"/>
</g>
<!-- Node21 -->
<g id="node21" class="node">
<title>Node21</title>
<g id="a_node21"><a xlink:href="classft_1_1irc_1_1user.html#a1475337459c0c597d62a5ef698d545dc" target="_top" xlink:title=" ">
<polygon fill="white" stroke="black" points="152,-186.5 152,-216.5 264,-216.5 264,-186.5 152,-186.5"/>
<text text-anchor="start" x="160" y="-204.5" font-family="Helvetica,sans-Serif" font-size="10.00">ft::irc::user::remove</text>
<text text-anchor="middle" x="208" y="-193.5" font-family="Helvetica,sans-Serif" font-size="10.00">_invite</text>
</a>
</g>
</g>
<!-- Node1&#45;&gt;Node21 -->
<g id="edge20" class="edge">
<title>Node1&#45;&gt;Node21</title>
<path fill="none" stroke="midnightblue" d="M47.86,-519.3C46.65,-469.97 49.61,-312.58 131,-226.5 134.4,-222.9 138.32,-219.83 142.56,-217.19"/>
<polygon fill="midnightblue" stroke="midnightblue" points="144.44,-220.15 151.64,-212.37 141.16,-213.97 144.44,-220.15"/>
</g>
<!-- Node22 -->
<g id="node22" class="node">
<title>Node22</title>
<g id="a_node22"><a xlink:href="structft_1_1irc_1_1make__reply.html#a5bc514d5b05cc15d799aba1944a18386" target="_top" xlink:title=" ">
<polygon fill="white" stroke="black" points="156,-137.5 156,-167.5 260,-167.5 260,-137.5 156,-137.5"/>
<text text-anchor="start" x="164" y="-155.5" font-family="Helvetica,sans-Serif" font-size="10.00">ft::irc::make_reply</text>
<text text-anchor="middle" x="208" y="-144.5" font-family="Helvetica,sans-Serif" font-size="10.00">::replicate</text>
</a>
</g>
</g>
<!-- Node1&#45;&gt;Node22 -->
<g id="edge21" class="edge">
<title>Node1&#45;&gt;Node22</title>
<path fill="none" stroke="midnightblue" d="M50.02,-519.16C56.44,-457.46 83.18,-228.27 131,-176.5 135.37,-171.76 140.67,-167.96 146.42,-164.9"/>
<polygon fill="midnightblue" stroke="midnightblue" points="148.07,-167.99 155.74,-160.68 145.18,-161.61 148.07,-167.99"/>
</g>
<!-- Node23 -->
<g id="node23" class="node">
<title>Node23</title>
<g id="a_node23"><a xlink:href="classft_1_1irc_1_1user.html#a1db558d6d694ca943224c2440fe36c50" target="_top" xlink:title=" ">
<polygon fill="white" stroke="black" points="336,-542.5 336,-572.5 434,-572.5 434,-542.5 336,-542.5"/>
<text text-anchor="start" x="344" y="-560.5" font-family="Helvetica,sans-Serif" font-size="10.00">ft::irc::user::send</text>
<text text-anchor="middle" x="385" y="-549.5" font-family="Helvetica,sans-Serif" font-size="10.00">_message</text>
</a>
</g>
</g>
<!-- Node1&#45;&gt;Node23 -->
<g id="edge22" class="edge">
<title>Node1&#45;&gt;Node23</title>
<path fill="none" stroke="midnightblue" d="M62.24,-549.68C77.34,-565.12 103.17,-588.09 131,-597.5 195.84,-619.43 217.88,-610.92 285,-597.5 302,-594.1 304.94,-589.03 321,-582.5 325.85,-580.53 330.91,-578.49 335.98,-576.46"/>
<polygon fill="midnightblue" stroke="midnightblue" points="337.66,-579.56 345.65,-572.6 335.06,-573.06 337.66,-579.56"/>
</g>
<!-- Node29 -->
<g id="node29" class="node">
<title>Node29</title>
<g id="a_node29"><a xlink:href="classft_1_1irc_1_1channel.html#a5b005d44090820196503e46e45724a51" target="_top" xlink:title=" ">
<polygon fill="white" stroke="black" points="150.5,-645.5 150.5,-675.5 265.5,-675.5 265.5,-645.5 150.5,-645.5"/>
<text text-anchor="start" x="158.5" y="-663.5" font-family="Helvetica,sans-Serif" font-size="10.00">ft::irc::channel::send</text>
<text text-anchor="middle" x="208" y="-652.5" font-family="Helvetica,sans-Serif" font-size="10.00">_names</text>
</a>
</g>
</g>
<!-- Node1&#45;&gt;Node29 -->
<g id="edge28" class="edge">
<title>Node1&#45;&gt;Node29</title>
<path fill="none" stroke="midnightblue" d="M58.17,-549.84C72,-570.69 99.31,-607.95 131,-630.5 136.59,-634.48 142.78,-638.02 149.15,-641.16"/>
<polygon fill="midnightblue" stroke="midnightblue" points="148,-644.48 158.55,-645.46 150.91,-638.12 148,-644.48"/>
</g>
<!-- Node32 -->
<g id="node32" class="node">
<title>Node32</title>
<g id="a_node32"><a xlink:href="classft_1_1irc_1_1message.html#adf434fdc28e74fb166c6046c0ac5c6d5" target="_top" xlink:title=" ">
<polygon fill="white" stroke="black" points="148.5,-99 148.5,-118 267.5,-118 267.5,-99 148.5,-99"/>
<text text-anchor="middle" x="208" y="-106" font-family="Helvetica,sans-Serif" font-size="10.00">ft::irc::message::split</text>
</a>
</g>
</g>
<!-- Node1&#45;&gt;Node32 -->
<g id="edge34" class="edge">
<title>Node1&#45;&gt;Node32</title>
<path fill="none" stroke="midnightblue" d="M49.46,-519.3C53.98,-452.51 75.33,-185.74 131,-127.5 133.52,-124.86 136.35,-122.57 139.39,-120.58"/>
<polygon fill="midnightblue" stroke="midnightblue" points="141.28,-123.54 148.44,-115.73 137.98,-117.37 141.28,-123.54"/>
</g>
<!-- Node33 -->
<g id="node33" class="node">
<title>Node33</title>
<g id="a_node33"><a xlink:href="structft_1_1irc_1_1make__error.html#af6a6f095493c0242bce7ecac3463753b" target="_top" xlink:title=" ">
<polygon fill="white" stroke="black" points="148,-49.5 148,-79.5 268,-79.5 268,-49.5 148,-49.5"/>
<text text-anchor="start" x="156" y="-67.5" font-family="Helvetica,sans-Serif" font-size="10.00">ft::irc::make_error</text>
<text text-anchor="middle" x="208" y="-56.5" font-family="Helvetica,sans-Serif" font-size="10.00">::too_many_channels</text>
</a>
</g>
</g>
<!-- Node1&#45;&gt;Node33 -->
<g id="edge35" class="edge">
<title>Node1&#45;&gt;Node33</title>
<path fill="none" stroke="midnightblue" d="M49.28,-519.43C53.18,-449.37 72.84,-156.06 131,-89.5 133.4,-86.75 136.12,-84.3 139.05,-82.12"/>
<polygon fill="midnightblue" stroke="midnightblue" points="141.18,-84.92 147.81,-76.66 137.48,-78.97 141.18,-84.92"/>
</g>
<!-- Node34 -->
<g id="node34" class="node">
<title>Node34</title>
<g id="a_node34"><a xlink:href="structft_1_1irc_1_1make__reply.html#a39ce3be333c36d7d0ce54cfc7ef59451" target="_top" xlink:title=" ">
<polygon fill="white" stroke="black" points="156,-0.5 156,-30.5 260,-30.5 260,-0.5 156,-0.5"/>
<text text-anchor="start" x="164" y="-18.5" font-family="Helvetica,sans-Serif" font-size="10.00">ft::irc::make_reply</text>
<text text-anchor="middle" x="208" y="-7.5" font-family="Helvetica,sans-Serif" font-size="10.00">::topic</text>
</a>
</g>
</g>
<!-- Node1&#45;&gt;Node34 -->
<g id="edge36" class="edge">
<title>Node1&#45;&gt;Node34</title>
<path fill="none" stroke="midnightblue" d="M48.96,-519.26C51.51,-444.16 66.31,-114 131,-39.5 135.29,-34.56 140.58,-30.63 146.36,-27.5"/>
<polygon fill="midnightblue" stroke="midnightblue" points="148.13,-30.54 155.78,-23.21 145.23,-24.17 148.13,-30.54"/>
</g>
<!-- Node9 -->
<g id="node9" class="node">
<title>Node9</title>
<g id="a_node9"><a xlink:href="classft_1_1irc_1_1user.html#a860ae7bb4486c060290bbaf4eb171d2f" target="_top" xlink:title=" ">
<polygon fill="white" stroke="black" points="327,-777.5 327,-807.5 443,-807.5 443,-777.5 327,-777.5"/>
<text text-anchor="start" x="335" y="-795.5" font-family="Helvetica,sans-Serif" font-size="10.00">ft::irc::user::contains</text>
<text text-anchor="middle" x="385" y="-784.5" font-family="Helvetica,sans-Serif" font-size="10.00">_invite</text>
</a>
</g>
</g>
<!-- Node8&#45;&gt;Node9 -->
<g id="edge8" class="edge">
<title>Node8&#45;&gt;Node9</title>
<path fill="none" stroke="midnightblue" d="M246.57,-752.09C258.85,-755.31 272.53,-758.97 285,-762.5 298.35,-766.28 312.66,-770.51 326.13,-774.57"/>
<polygon fill="midnightblue" stroke="midnightblue" points="325.18,-777.94 335.76,-777.49 327.21,-771.24 325.18,-777.94"/>
</g>
<!-- Node10 -->
<g id="node10" class="node">
<title>Node10</title>
<g id="a_node10"><a xlink:href="classft_1_1irc_1_1user.html#a3cfeaf12c0bdb6ac02debf5e19ce50d2" target="_top" xlink:title=" ">
<polygon fill="white" stroke="black" points="321,-739 321,-758 449,-758 449,-739 321,-739"/>
<text text-anchor="middle" x="385" y="-746" font-family="Helvetica,sans-Serif" font-size="10.00">ft::irc::user::load_mode</text>
</a>
</g>
</g>
<!-- Node8&#45;&gt;Node10 -->
<g id="edge9" class="edge">
<title>Node8&#45;&gt;Node10</title>
<path fill="none" stroke="midnightblue" d="M279.67,-744.92C289.92,-745.27 300.48,-745.64 310.78,-745.99"/>
<polygon fill="midnightblue" stroke="midnightblue" points="310.85,-749.49 320.96,-746.34 311.09,-742.5 310.85,-749.49"/>
</g>
<!-- Node16 -->
<g id="node16" class="node">
<title>Node16</title>
<g id="a_node16"><a xlink:href="namespaceft_1_1irc_1_1__internal.html#ac421a738f6d955bab8b862fca8bd7159" target="_top" xlink:title=" ">
<polygon fill="white" stroke="black" points="340,-421.5 340,-451.5 430,-451.5 430,-421.5 340,-421.5"/>
<text text-anchor="start" x="348" y="-439.5" font-family="Helvetica,sans-Serif" font-size="10.00">ft::irc::_internal</text>
<text text-anchor="middle" x="385" y="-428.5" font-family="Helvetica,sans-Serif" font-size="10.00">::_is_except</text>
</a>
</g>
</g>
<!-- Node15&#45;&gt;Node16 -->
<g id="edge15" class="edge">
<title>Node15&#45;&gt;Node16</title>
<path fill="none" stroke="midnightblue" d="M273.67,-436.5C292.06,-436.5 311.9,-436.5 329.62,-436.5"/>
<polygon fill="midnightblue" stroke="midnightblue" points="329.78,-440 339.78,-436.5 329.78,-433 329.78,-440"/>
</g>
<!-- Node24 -->
<g id="node24" class="node">
<title>Node24</title>
<g id="a_node24"><a xlink:href="structft_1_1serv_1_1logger.html#a83649a4f3bb804c8fed6dfd130de5ee6" target="_top" xlink:title=" ">
<polygon fill="white" stroke="black" points="485,-570 485,-589 607,-589 607,-570 485,-570"/>
<text text-anchor="middle" x="546" y="-577" font-family="Helvetica,sans-Serif" font-size="10.00">ft::serv::logger::debug</text>
</a>
</g>
</g>
<!-- Node23&#45;&gt;Node24 -->
<g id="edge23" class="edge">
<title>Node23&#45;&gt;Node24</title>
<path fill="none" stroke="midnightblue" d="M434.14,-564.16C447.01,-565.94 461.19,-567.9 474.98,-569.81"/>
<polygon fill="midnightblue" stroke="midnightblue" points="474.54,-573.28 484.93,-571.19 475.5,-566.35 474.54,-573.28"/>
</g>
<!-- Node28 -->
<g id="node28" class="node">
<title>Node28</title>
<g id="a_node28"><a xlink:href="classft_1_1irc_1_1message.html#a076fdbb740cb752dd153e207f076183a" target="_top" xlink:title=" ">
<polygon fill="white" stroke="black" points="492.5,-520.5 492.5,-550.5 599.5,-550.5 599.5,-520.5 492.5,-520.5"/>
<text text-anchor="start" x="500.5" y="-538.5" font-family="Helvetica,sans-Serif" font-size="10.00">ft::irc::message::to</text>
<text text-anchor="middle" x="546" y="-527.5" font-family="Helvetica,sans-Serif" font-size="10.00">_pretty_string</text>
</a>
</g>
</g>
<!-- Node23&#45;&gt;Node28 -->
<g id="edge27" class="edge">
<title>Node23&#45;&gt;Node28</title>
<path fill="none" stroke="midnightblue" d="M434.14,-550.84C449.21,-548.75 466.07,-546.42 482,-544.22"/>
<polygon fill="midnightblue" stroke="midnightblue" points="482.89,-547.63 492.31,-542.79 481.93,-540.69 482.89,-547.63"/>
</g>
<!-- Node25 -->
<g id="node25" class="node">
<title>Node25</title>
<g id="a_node25"><a xlink:href="namespaceft_1_1serv_1_1__internal.html#a4dfb80be7b817fc0ee18658f313a6274" target="_top" xlink:title=" ">
<polygon fill="white" stroke="black" points="643,-564.5 643,-594.5 741,-594.5 741,-564.5 643,-564.5"/>
<text text-anchor="start" x="651" y="-582.5" font-family="Helvetica,sans-Serif" font-size="10.00">ft::serv::_internal</text>
<text text-anchor="middle" x="692" y="-571.5" font-family="Helvetica,sans-Serif" font-size="10.00">::print</text>
</a>
</g>
</g>
<!-- Node24&#45;&gt;Node25 -->
<g id="edge24" class="edge">
<title>Node24&#45;&gt;Node25</title>
<path fill="none" stroke="midnightblue" d="M607.23,-579.5C615.67,-579.5 624.33,-579.5 632.73,-579.5"/>
<polygon fill="midnightblue" stroke="midnightblue" points="632.82,-583 642.82,-579.5 632.82,-576 632.82,-583"/>
</g>
<!-- Node26 -->
<g id="node26" class="node">
<title>Node26</title>
<g id="a_node26"><a xlink:href="namespaceft_1_1serv_1_1__internal.html#aff49349b58dc84fa69076e9cd27a1db4" target="_top" xlink:title=" ">
<polygon fill="white" stroke="black" points="777,-589.5 777,-619.5 921,-619.5 921,-589.5 777,-589.5"/>
<text text-anchor="start" x="785" y="-607.5" font-family="Helvetica,sans-Serif" font-size="10.00">ft::serv::_internal</text>
<text text-anchor="middle" x="849" y="-596.5" font-family="Helvetica,sans-Serif" font-size="10.00">::make_format_string_line</text>
</a>
</g>
</g>
<!-- Node25&#45;&gt;Node26 -->
<g id="edge25" class="edge">
<title>Node25&#45;&gt;Node26</title>
<path fill="none" stroke="midnightblue" d="M741.19,-587.27C749.39,-588.6 758.11,-590 766.88,-591.42"/>
<polygon fill="midnightblue" stroke="midnightblue" points="766.36,-594.88 776.79,-593.01 767.48,-587.97 766.36,-594.88"/>
</g>
<!-- Node27 -->
<g id="node27" class="node">
<title>Node27</title>
<g id="a_node27"><a xlink:href="namespaceft_1_1serv_1_1__internal.html#aad4af39d62c2b1687b0bef7a91bf6c60" target="_top" xlink:title=" ">
<polygon fill="white" stroke="black" points="797.5,-540.5 797.5,-570.5 900.5,-570.5 900.5,-540.5 797.5,-540.5"/>
<text text-anchor="start" x="805.5" y="-558.5" font-family="Helvetica,sans-Serif" font-size="10.00">ft::serv::_internal</text>
<text text-anchor="middle" x="849" y="-547.5" font-family="Helvetica,sans-Serif" font-size="10.00">::make_utc_string</text>
</a>
</g>
</g>
<!-- Node25&#45;&gt;Node27 -->
<g id="edge26" class="edge">
<title>Node25&#45;&gt;Node27</title>
<path fill="none" stroke="midnightblue" d="M741.19,-572.04C755.85,-569.77 772.14,-567.25 787.49,-564.87"/>
<polygon fill="midnightblue" stroke="midnightblue" points="788.08,-568.32 797.42,-563.33 787.01,-561.4 788.08,-568.32"/>
</g>
<!-- Node29&#45;&gt;Node10 -->
<g id="edge31" class="edge">
<title>Node29&#45;&gt;Node10</title>
<path fill="none" stroke="midnightblue" d="M229.97,-675.72C251.81,-691.02 287.46,-714.42 321,-729.5 326.01,-731.75 331.37,-733.83 336.76,-735.72"/>
<polygon fill="midnightblue" stroke="midnightblue" points="335.84,-739.1 346.44,-738.91 338.04,-732.46 335.84,-739.1"/>
</g>
<!-- Node29&#45;&gt;Node14 -->
<g id="edge30" class="edge">
<title>Node29&#45;&gt;Node14</title>
<path fill="none" stroke="midnightblue" d="M265.82,-674.79C281.27,-678.67 298.19,-682.93 314.27,-686.97"/>
<polygon fill="midnightblue" stroke="midnightblue" points="313.6,-690.41 324.16,-689.45 315.31,-683.62 313.6,-690.41"/>
</g>
<!-- Node29&#45;&gt;Node23 -->
<g id="edge33" class="edge">
<title>Node29&#45;&gt;Node23</title>
<path fill="none" stroke="midnightblue" d="M258.96,-645.37C268.11,-641.35 277.22,-636.44 285,-630.5 306.2,-614.33 299.81,-598.69 321,-582.5 323.32,-580.72 325.79,-579.06 328.35,-577.5"/>
<polygon fill="midnightblue" stroke="midnightblue" points="330.24,-580.45 337.33,-572.59 326.88,-574.31 330.24,-580.45"/>
</g>
<!-- Node30 -->
<g id="node30" class="node">
<title>Node30</title>
<g id="a_node30"><a xlink:href="structft_1_1irc_1_1make__reply.html#a62504faa310fedb0768c15ec641ea748" target="_top" xlink:title=" ">
<polygon fill="white" stroke="black" points="333,-591.5 333,-621.5 437,-621.5 437,-591.5 333,-591.5"/>
<text text-anchor="start" x="341" y="-609.5" font-family="Helvetica,sans-Serif" font-size="10.00">ft::irc::make_reply</text>
<text text-anchor="middle" x="385" y="-598.5" font-family="Helvetica,sans-Serif" font-size="10.00">::end_of_names</text>
</a>
</g>
</g>
<!-- Node29&#45;&gt;Node30 -->
<g id="edge29" class="edge">
<title>Node29&#45;&gt;Node30</title>
<path fill="none" stroke="midnightblue" d="M257.75,-645.46C278.8,-638.96 303.61,-631.31 325.64,-624.51"/>
<polygon fill="midnightblue" stroke="midnightblue" points="326.69,-627.85 335.21,-621.55 324.62,-621.16 326.69,-627.85"/>
</g>
<!-- Node31 -->
<g id="node31" class="node">
<title>Node31</title>
<g id="a_node31"><a xlink:href="structft_1_1irc_1_1make__reply.html#a0c90ffcad98b5d6e775cda7b8a4163fb" target="_top" xlink:title=" ">
<polygon fill="white" stroke="black" points="333,-640.5 333,-670.5 437,-670.5 437,-640.5 333,-640.5"/>
<text text-anchor="start" x="341" y="-658.5" font-family="Helvetica,sans-Serif" font-size="10.00">ft::irc::make_reply</text>
<text text-anchor="middle" x="385" y="-647.5" font-family="Helvetica,sans-Serif" font-size="10.00">::name_reply</text>
</a>
</g>
</g>
<!-- Node29&#45;&gt;Node31 -->
<g id="edge32" class="edge">
<title>Node29&#45;&gt;Node31</title>
<path fill="none" stroke="midnightblue" d="M265.82,-658.88C284.01,-658.36 304.22,-657.78 322.71,-657.25"/>
<polygon fill="midnightblue" stroke="midnightblue" points="322.89,-660.75 332.79,-656.96 322.69,-653.75 322.89,-660.75"/>
</g>
</g>
</svg>
