<?xml version="1.0" encoding="UTF-8" standalone="no"?>
<!DOCTYPE svg PUBLIC "-//W3C//DTD SVG 1.1//EN"
 "http://www.w3.org/Graphics/SVG/1.1/DTD/svg11.dtd">
<!-- Generated by graphviz version 2.43.0 (0)
 -->
<!-- Title: ft::irc::processor_dictionary::execute Pages: 1 -->
<!--zoomable 831 -->
<svg id="main" version="1.1" xmlns="http://www.w3.org/2000/svg" xmlns:xlink="http://www.w3.org/1999/xlink" xml:space="preserve" onload="init(evt)">
<style type="text/css"><![CDATA[
.edge:hover path { stroke: red; }
.edge:hover polygon { stroke: red; fill: red; }
]]></style>
<script type="text/javascript"><![CDATA[
var edges = document.getElementsByTagName('g');
if (edges && edges.length) {
  for (var i=0;i<edges.length;i++) {
    if (edges[i].id.substr(0,4)=='edge') {
      edges[i].setAttribute('class','edge');
    }
  }
}
]]></script>
        <defs>
                <circle id="rim" cx="0" cy="0" r="7"/>
                <circle id="rim2" cx="0" cy="0" r="3.5"/>
                <g id="zoomPlus">
                        <use xlink:href="#rim" fill="#404040">
                                <set attributeName="fill" to="#808080" begin="zoomplus.mouseover" end="zoomplus.mouseout"/>
                        </use>
                        <path d="M-4,0h8M0,-4v8" fill="none" stroke="white" stroke-width="1.5" pointer-events="none"/>
                </g>
                <g id="zoomMin">
                        <use xlink:href="#rim" fill="#404040">
                                <set attributeName="fill" to="#808080" begin="zoomminus.mouseover" end="zoomminus.mouseout"/>
                        </use>
                        <path d="M-4,0h8" fill="none" stroke="white" stroke-width="1.5" pointer-events="none"/>
                </g>
                <g id="dirArrow">
                        <path fill="none" stroke="white" stroke-width="1.5" d="M0,-3.0v7 M-2.5,-0.5L0,-3.0L2.5,-0.5"/>
                </g>
               <g id="resetDef">
                       <use xlink:href="#rim2" fill="#404040">
                               <set attributeName="fill" to="#808080" begin="reset.mouseover" end="reset.mouseout"/>
                       </use>
               </g>
        </defs>

<script type="text/javascript">
var viewWidth = 443;
var viewHeight = 831;
var sectionId = 'dynsection-1';
</script>
<script xlink:href="svgpan.js"/>
<svg id="graph" class="graph">
<g id="viewport">
<title>ft::irc::processor_dictionary::execute</title>
<polygon fill="white" stroke="transparent" points="-4,4 -4,-827 439,-827 439,4 -4,4"/>
<!-- Node1 -->
<g id="node1" class="node">
<title>Node1</title>
<g id="a_node1"><a xlink:title=" ">
<polygon fill="#bfbfbf" stroke="black" points="0,-406.5 0,-436.5 114,-436.5 114,-406.5 0,-406.5"/>
<text text-anchor="start" x="8" y="-424.5" font-family="Helvetica,sans-Serif" font-size="10.00">ft::irc::processor</text>
<text text-anchor="middle" x="57" y="-413.5" font-family="Helvetica,sans-Serif" font-size="10.00">_dictionary::execute</text>
</a>
</g>
</g>
<!-- Node2 -->
<g id="node2" class="node">
<title>Node2</title>
<g id="a_node2"><a xlink:href="classft_1_1irc_1_1user.html#ae6c526bd968ba5d22988c9ffc4d9e896" target="_top" xlink:title=" ">
<polygon fill="white" stroke="black" points="180.5,-792.5 180.5,-822.5 273.5,-822.5 273.5,-792.5 180.5,-792.5"/>
<text text-anchor="start" x="188.5" y="-810.5" font-family="Helvetica,sans-Serif" font-size="10.00">ft::irc::user::exit</text>
<text text-anchor="middle" x="227" y="-799.5" font-family="Helvetica,sans-Serif" font-size="10.00">_client</text>
</a>
</g>
</g>
<!-- Node1&#45;&gt;Node2 -->
<g id="edge1" class="edge">
<title>Node1&#45;&gt;Node2</title>
<path fill="none" stroke="midnightblue" d="M59.88,-436.61C67.83,-498.42 100.69,-731.29 150,-783.5 155.74,-789.58 163.01,-794.12 170.76,-797.52"/>
<polygon fill="midnightblue" stroke="midnightblue" points="169.79,-800.9 180.38,-801.13 172.24,-794.34 169.79,-800.9"/>
</g>
<!-- Node3 -->
<g id="node3" class="node">
<title>Node3</title>
<g id="a_node3"><a xlink:href="classft_1_1irc_1_1processor__dictionary.html#a4a332e955e92eb2af421b69d2cf8ecf9" target="_top" xlink:title=" ">
<polygon fill="white" stroke="black" points="179.5,-743.5 179.5,-773.5 274.5,-773.5 274.5,-743.5 179.5,-743.5"/>
<text text-anchor="start" x="187.5" y="-761.5" font-family="Helvetica,sans-Serif" font-size="10.00">ft::irc::processor</text>
<text text-anchor="middle" x="227" y="-750.5" font-family="Helvetica,sans-Serif" font-size="10.00">_dictionary::get</text>
</a>
</g>
</g>
<!-- Node1&#45;&gt;Node3 -->
<g id="edge2" class="edge">
<title>Node1&#45;&gt;Node3</title>
<path fill="none" stroke="midnightblue" d="M57.76,-436.67C57.84,-486.63 64.96,-647.74 150,-734.5 155.58,-740.2 162.51,-744.55 169.89,-747.86"/>
<polygon fill="midnightblue" stroke="midnightblue" points="168.82,-751.2 179.4,-751.54 171.34,-744.67 168.82,-751.2"/>
</g>
<!-- Node5 -->
<g id="node5" class="node">
<title>Node5</title>
<g id="a_node5"><a xlink:href="classft_1_1irc_1_1message.html#ad323e99c45f6feec038a7de683f812a2" target="_top" xlink:title=" ">
<polygon fill="white" stroke="black" points="170.5,-694.5 170.5,-724.5 283.5,-724.5 283.5,-694.5 170.5,-694.5"/>
<text text-anchor="start" x="178.5" y="-712.5" font-family="Helvetica,sans-Serif" font-size="10.00">ft::irc::message::get</text>
<text text-anchor="middle" x="227" y="-701.5" font-family="Helvetica,sans-Serif" font-size="10.00">_command</text>
</a>
</g>
</g>
<!-- Node1&#45;&gt;Node5 -->
<g id="edge4" class="edge">
<title>Node1&#45;&gt;Node5</title>
<path fill="none" stroke="midnightblue" d="M58.8,-436.71C61.96,-481.33 77.33,-613.18 150,-684.5 153.32,-687.76 157.08,-690.6 161.1,-693.07"/>
<polygon fill="midnightblue" stroke="midnightblue" points="159.78,-696.32 170.25,-697.9 163.04,-690.13 159.78,-696.32"/>
</g>
<!-- Node6 -->
<g id="node6" class="node">
<title>Node6</title>
<g id="a_node6"><a xlink:href="classft_1_1irc_1_1user.html#a6abd166e9093025e349bd851099f8f9e" target="_top" xlink:title=" ">
<polygon fill="white" stroke="black" points="165.5,-656 165.5,-675 288.5,-675 288.5,-656 165.5,-656"/>
<text text-anchor="middle" x="227" y="-663" font-family="Helvetica,sans-Serif" font-size="10.00">ft::irc::user::get_mode</text>
</a>
</g>
</g>
<!-- Node1&#45;&gt;Node6 -->
<g id="edge5" class="edge">
<title>Node1&#45;&gt;Node6</title>
<path fill="none" stroke="midnightblue" d="M59.56,-436.79C64.57,-477.49 83.97,-589.3 150,-646.5 151.98,-648.21 154.09,-649.78 156.3,-651.2"/>
<polygon fill="midnightblue" stroke="midnightblue" points="154.81,-654.38 165.27,-656.05 158.14,-648.22 154.81,-654.38"/>
</g>
<!-- Node7 -->
<g id="node7" class="node">
<title>Node7</title>
<g id="a_node7"><a xlink:href="classft_1_1irc_1_1user.html#ae476cc31795df7fbb726b193ab887e75" target="_top" xlink:title=" ">
<polygon fill="white" stroke="black" points="182,-606.5 182,-636.5 272,-636.5 272,-606.5 182,-606.5"/>
<text text-anchor="start" x="190" y="-624.5" font-family="Helvetica,sans-Serif" font-size="10.00">ft::irc::user::get</text>
<text text-anchor="middle" x="227" y="-613.5" font-family="Helvetica,sans-Serif" font-size="10.00">_server</text>
</a>
</g>
</g>
<!-- Node1&#45;&gt;Node7 -->
<g id="edge6" class="edge">
<title>Node1&#45;&gt;Node7</title>
<path fill="none" stroke="midnightblue" d="M61.76,-436.59C70.92,-470.29 97.6,-552.15 150,-596.5 156.48,-601.98 164.19,-606.27 172.18,-609.62"/>
<polygon fill="midnightblue" stroke="midnightblue" points="171.04,-612.93 181.64,-613.15 173.49,-606.37 171.04,-612.93"/>
</g>
<!-- Node8 -->
<g id="node8" class="node">
<title>Node8</title>
<g id="a_node8"><a xlink:href="classft_1_1irc_1_1user.html#a7d133deb3a63faa2627b50cbbdf3a607" target="_top" xlink:title=" ">
<polygon fill="white" stroke="black" points="158.5,-568 158.5,-587 295.5,-587 295.5,-568 158.5,-568"/>
<text text-anchor="middle" x="227" y="-575" font-family="Helvetica,sans-Serif" font-size="10.00">ft::irc::user::is_registered</text>
</a>
</g>
</g>
<!-- Node1&#45;&gt;Node8 -->
<g id="edge7" class="edge">
<title>Node1&#45;&gt;Node8</title>
<path fill="none" stroke="midnightblue" d="M63.75,-436.53C75.44,-464.99 104.75,-526.72 150,-558.5 152.87,-560.52 155.93,-562.32 159.12,-563.93"/>
<polygon fill="midnightblue" stroke="midnightblue" points="157.81,-567.18 168.38,-567.98 160.62,-560.76 157.81,-567.18"/>
</g>
<!-- Node9 -->
<g id="node9" class="node">
<title>Node9</title>
<g id="a_node9"><a xlink:href="classft_1_1irc_1_1user.html#a7277f06aa83459f6f9b409858d602e3b" target="_top" xlink:title=" ">
<polygon fill="white" stroke="black" points="166.5,-530 166.5,-549 287.5,-549 287.5,-530 166.5,-530"/>
<text text-anchor="middle" x="227" y="-537" font-family="Helvetica,sans-Serif" font-size="10.00">ft::irc::user::load_nick</text>
</a>
</g>
</g>
<!-- Node1&#45;&gt;Node9 -->
<g id="edge8" class="edge">
<title>Node1&#45;&gt;Node9</title>
<path fill="none" stroke="midnightblue" d="M67.9,-436.82C82.93,-458.8 113.64,-499.02 150,-520.5 153.69,-522.68 157.62,-524.61 161.68,-526.32"/>
<polygon fill="midnightblue" stroke="midnightblue" points="160.73,-529.7 171.33,-529.92 163.18,-523.14 160.73,-529.7"/>
</g>
<!-- Node10 -->
<g id="node10" class="node">
<title>Node10</title>
<g id="a_node10"><a xlink:href="classft_1_1irc_1_1server.html#a5b8f9b83d37b40f6ee717fc93513e512" target="_top" xlink:title=" ">
<polygon fill="white" stroke="black" points="171.5,-480.5 171.5,-510.5 282.5,-510.5 282.5,-480.5 171.5,-480.5"/>
<text text-anchor="start" x="179.5" y="-498.5" font-family="Helvetica,sans-Serif" font-size="10.00">ft::irc::server::make</text>
<text text-anchor="middle" x="227" y="-487.5" font-family="Helvetica,sans-Serif" font-size="10.00">_full_name</text>
</a>
</g>
</g>
<!-- Node1&#45;&gt;Node10 -->
<g id="edge9" class="edge">
<title>Node1&#45;&gt;Node10</title>
<path fill="none" stroke="midnightblue" d="M82.74,-436.64C100.9,-447.32 126.41,-461.47 150,-471.5 154.46,-473.4 159.12,-475.22 163.85,-476.96"/>
<polygon fill="midnightblue" stroke="midnightblue" points="163,-480.38 173.6,-480.41 165.34,-473.78 163,-480.38"/>
</g>
<!-- Node11 -->
<g id="node11" class="node">
<title>Node11</title>
<g id="a_node11"><a xlink:href="classft_1_1irc_1_1user.html#a7406ed193e13a3c39ee16c9ac7a8b16e" target="_top" xlink:title=" ">
<polygon fill="white" stroke="black" points="176.5,-431.5 176.5,-461.5 277.5,-461.5 277.5,-431.5 176.5,-431.5"/>
<text text-anchor="start" x="184.5" y="-449.5" font-family="Helvetica,sans-Serif" font-size="10.00">ft::irc::user::make</text>
<text text-anchor="middle" x="227" y="-438.5" font-family="Helvetica,sans-Serif" font-size="10.00">_full_name</text>
</a>
</g>
</g>
<!-- Node1&#45;&gt;Node11 -->
<g id="edge10" class="edge">
<title>Node1&#45;&gt;Node11</title>
<path fill="none" stroke="midnightblue" d="M114.41,-429.89C131.07,-432.37 149.35,-435.09 166.21,-437.6"/>
<polygon fill="midnightblue" stroke="midnightblue" points="166.09,-441.12 176.5,-439.13 167.12,-434.2 166.09,-441.12"/>
</g>
<!-- Node12 -->
<g id="node12" class="node">
<title>Node12</title>
<g id="a_node12"><a xlink:href="structft_1_1irc_1_1make__error.html#a9ce67256e955eeced06d90b853fa01fa" target="_top" xlink:title=" ">
<polygon fill="white" stroke="black" points="157.5,-382.5 157.5,-412.5 296.5,-412.5 296.5,-382.5 157.5,-382.5"/>
<text text-anchor="start" x="165.5" y="-400.5" font-family="Helvetica,sans-Serif" font-size="10.00">ft::irc::make_error</text>
<text text-anchor="middle" x="227" y="-389.5" font-family="Helvetica,sans-Serif" font-size="10.00">::need_more_parameters</text>
</a>
</g>
</g>
<!-- Node1&#45;&gt;Node12 -->
<g id="edge11" class="edge">
<title>Node1&#45;&gt;Node12</title>
<path fill="none" stroke="midnightblue" d="M114.41,-413.44C124.99,-411.93 136.23,-410.32 147.35,-408.74"/>
<polygon fill="midnightblue" stroke="midnightblue" points="148.09,-412.17 157.49,-407.29 147.1,-405.24 148.09,-412.17"/>
</g>
<!-- Node13 -->
<g id="node13" class="node">
<title>Node13</title>
<g id="a_node13"><a xlink:href="structft_1_1irc_1_1make__error.html#a7d1376947e09efd6feb04512a2029ebb" target="_top" xlink:title=" ">
<polygon fill="white" stroke="black" points="175.5,-333.5 175.5,-363.5 278.5,-363.5 278.5,-333.5 175.5,-333.5"/>
<text text-anchor="start" x="183.5" y="-351.5" font-family="Helvetica,sans-Serif" font-size="10.00">ft::irc::make_error</text>
<text text-anchor="middle" x="227" y="-340.5" font-family="Helvetica,sans-Serif" font-size="10.00">::no_privileges</text>
</a>
</g>
</g>
<!-- Node1&#45;&gt;Node13 -->
<g id="edge12" class="edge">
<title>Node1&#45;&gt;Node13</title>
<path fill="none" stroke="midnightblue" d="M84.02,-406.47C102.15,-396.36 127.09,-383.17 150,-373.5 155.33,-371.25 160.93,-369.07 166.59,-367"/>
<polygon fill="midnightblue" stroke="midnightblue" points="167.85,-370.27 176.1,-363.62 165.51,-363.67 167.85,-370.27"/>
</g>
<!-- Node14 -->
<g id="node14" class="node">
<title>Node14</title>
<g id="a_node14"><a xlink:href="structft_1_1irc_1_1make__error.html#a49645e4bd33462f78ef25521c290437f" target="_top" xlink:title=" ">
<polygon fill="white" stroke="black" points="175.5,-284.5 175.5,-314.5 278.5,-314.5 278.5,-284.5 175.5,-284.5"/>
<text text-anchor="start" x="183.5" y="-302.5" font-family="Helvetica,sans-Serif" font-size="10.00">ft::irc::make_error</text>
<text text-anchor="middle" x="227" y="-291.5" font-family="Helvetica,sans-Serif" font-size="10.00">::not_registered</text>
</a>
</g>
</g>
<!-- Node1&#45;&gt;Node14 -->
<g id="edge13" class="edge">
<title>Node1&#45;&gt;Node14</title>
<path fill="none" stroke="midnightblue" d="M68.44,-406.49C83.91,-385.3 114.91,-346.74 150,-324.5 154.96,-321.36 160.36,-318.57 165.91,-316.11"/>
<polygon fill="midnightblue" stroke="midnightblue" points="167.4,-319.28 175.35,-312.26 164.76,-312.79 167.4,-319.28"/>
</g>
<!-- Node15 -->
<g id="node15" class="node">
<title>Node15</title>
<g id="a_node15"><a xlink:href="classft_1_1irc_1_1message.html#a34f457ead0453ad914af2cb0482a40b9" target="_top" xlink:title=" ">
<polygon fill="white" stroke="black" points="150,-246 150,-265 304,-265 304,-246 150,-246"/>
<text text-anchor="middle" x="227" y="-253" font-family="Helvetica,sans-Serif" font-size="10.00">ft::irc::message::param_size</text>
</a>
</g>
</g>
<!-- Node1&#45;&gt;Node15 -->
<g id="edge14" class="edge">
<title>Node1&#45;&gt;Node15</title>
<path fill="none" stroke="midnightblue" d="M63.16,-406.47C74.17,-376.68 102.89,-310.06 150,-275.5 153.25,-273.12 156.76,-271.02 160.43,-269.17"/>
<polygon fill="midnightblue" stroke="midnightblue" points="162.05,-272.28 169.81,-265.07 159.25,-265.86 162.05,-272.28"/>
</g>
<!-- Node16 -->
<g id="node16" class="node">
<title>Node16</title>
<g id="a_node16"><a xlink:href="classft_1_1irc_1_1user.html#a1db558d6d694ca943224c2440fe36c50" target="_top" xlink:title=" ">
<polygon fill="white" stroke="black" points="178,-196.5 178,-226.5 276,-226.5 276,-196.5 178,-196.5"/>
<text text-anchor="start" x="186" y="-214.5" font-family="Helvetica,sans-Serif" font-size="10.00">ft::irc::user::send</text>
<text text-anchor="middle" x="227" y="-203.5" font-family="Helvetica,sans-Serif" font-size="10.00">_message</text>
</a>
</g>
</g>
<!-- Node1&#45;&gt;Node16 -->
<g id="edge15" class="edge">
<title>Node1&#45;&gt;Node16</title>
<path fill="none" stroke="midnightblue" d="M61.3,-406.35C69.74,-371.26 95.35,-283.81 150,-236.5 155.49,-231.75 161.9,-227.9 168.63,-224.77"/>
<polygon fill="midnightblue" stroke="midnightblue" points="170.03,-227.98 177.95,-220.95 167.37,-221.51 170.03,-227.98"/>
</g>
<!-- Node17 -->
<g id="node17" class="node">
<title>Node17</title>
<g id="a_node17"><a xlink:href="structft_1_1irc_1_1make__reply__base.html#a0286978513d0078fa15b5a0b68b326a4" target="_top" xlink:title=" ">
<polygon fill="white" stroke="black" points="159.5,-147.5 159.5,-177.5 294.5,-177.5 294.5,-147.5 159.5,-147.5"/>
<text text-anchor="start" x="167.5" y="-165.5" font-family="Helvetica,sans-Serif" font-size="10.00">ft::irc::make_reply</text>
<text text-anchor="middle" x="227" y="-154.5" font-family="Helvetica,sans-Serif" font-size="10.00">_base::set_server_name</text>
</a>
</g>
</g>
<!-- Node1&#45;&gt;Node17 -->
<g id="edge16" class="edge">
<title>Node1&#45;&gt;Node17</title>
<path fill="none" stroke="midnightblue" d="M59.53,-406.48C64.52,-365.36 84,-249.85 150,-187.5 151.68,-185.91 153.47,-184.42 155.33,-183.03"/>
<polygon fill="midnightblue" stroke="midnightblue" points="157.44,-185.84 163.98,-177.51 153.67,-179.94 157.44,-185.84"/>
</g>
<!-- Node18 -->
<g id="node18" class="node">
<title>Node18</title>
<g id="a_node18"><a xlink:href="structft_1_1irc_1_1make__reply__base.html#a488f2be061e722bd858d7285d1028eaf" target="_top" xlink:title=" ">
<polygon fill="white" stroke="black" points="164.5,-98.5 164.5,-128.5 289.5,-128.5 289.5,-98.5 164.5,-98.5"/>
<text text-anchor="start" x="172.5" y="-116.5" font-family="Helvetica,sans-Serif" font-size="10.00">ft::irc::make_reply</text>
<text text-anchor="middle" x="227" y="-105.5" font-family="Helvetica,sans-Serif" font-size="10.00">_base::set_user_name</text>
</a>
</g>
</g>
<!-- Node1&#45;&gt;Node18 -->
<g id="edge17" class="edge">
<title>Node1&#45;&gt;Node18</title>
<path fill="none" stroke="midnightblue" d="M58.35,-406.5C60.27,-359.92 72.51,-216.26 150,-138.5 151.84,-136.65 153.83,-134.94 155.92,-133.35"/>
<polygon fill="midnightblue" stroke="midnightblue" points="157.96,-136.2 164.47,-127.83 154.17,-130.31 157.96,-136.2"/>
</g>
<!-- Node19 -->
<g id="node19" class="node">
<title>Node19</title>
<g id="a_node19"><a xlink:href="structft_1_1irc_1_1make__reply__base.html#a05d12bbf99ce4c8fde3cbb731135ff26" target="_top" xlink:title=" ">
<polygon fill="white" stroke="black" points="168,-49.5 168,-79.5 286,-79.5 286,-49.5 168,-49.5"/>
<text text-anchor="start" x="176" y="-67.5" font-family="Helvetica,sans-Serif" font-size="10.00">ft::irc::make_reply</text>
<text text-anchor="middle" x="227" y="-56.5" font-family="Helvetica,sans-Serif" font-size="10.00">_base::set_user_nick</text>
</a>
</g>
</g>
<!-- Node1&#45;&gt;Node19 -->
<g id="edge18" class="edge">
<title>Node1&#45;&gt;Node19</title>
<path fill="none" stroke="midnightblue" d="M57.5,-406.2C56.66,-354.28 61.05,-182.78 150,-89.5 152.65,-86.72 155.61,-84.25 158.79,-82.06"/>
<polygon fill="midnightblue" stroke="midnightblue" points="160.78,-84.95 167.63,-76.87 157.23,-78.91 160.78,-84.95"/>
</g>
<!-- Node20 -->
<g id="node20" class="node">
<title>Node20</title>
<g id="a_node20"><a xlink:href="structft_1_1irc_1_1make__error.html#a67e1d93a440b1db3ddbf9bff22cd2d8b" target="_top" xlink:title=" ">
<polygon fill="white" stroke="black" points="166.5,-0.5 166.5,-30.5 287.5,-30.5 287.5,-0.5 166.5,-0.5"/>
<text text-anchor="start" x="174.5" y="-18.5" font-family="Helvetica,sans-Serif" font-size="10.00">ft::irc::make_error</text>
<text text-anchor="middle" x="227" y="-7.5" font-family="Helvetica,sans-Serif" font-size="10.00">::unknown_command</text>
</a>
</g>
</g>
<!-- Node1&#45;&gt;Node20 -->
<g id="edge19" class="edge">
<title>Node1&#45;&gt;Node20</title>
<path fill="none" stroke="midnightblue" d="M59.68,-406.49C67.07,-342.87 98.68,-96.15 150,-40.5 152.31,-38 154.87,-35.75 157.61,-33.72"/>
<polygon fill="midnightblue" stroke="midnightblue" points="159.7,-36.55 166.34,-28.29 156,-30.6 159.7,-36.55"/>
</g>
<!-- Node4 -->
<g id="node4" class="node">
<title>Node4</title>
<g id="a_node4"><a xlink:href="classft_1_1irc_1_1processor__dictionary.html#ad4ae0363dd8c877b12114b358b0c2673" target="_top" xlink:title=" ">
<polygon fill="white" stroke="black" points="340,-743.5 340,-773.5 435,-773.5 435,-743.5 340,-743.5"/>
<text text-anchor="start" x="348" y="-761.5" font-family="Helvetica,sans-Serif" font-size="10.00">ft::irc::processor</text>
<text text-anchor="middle" x="387.5" y="-750.5" font-family="Helvetica,sans-Serif" font-size="10.00">_dictionary::init</text>
</a>
</g>
</g>
<!-- Node3&#45;&gt;Node4 -->
<g id="edge3" class="edge">
<title>Node3&#45;&gt;Node4</title>
<path fill="none" stroke="midnightblue" d="M274.7,-758.5C291.95,-758.5 311.7,-758.5 329.75,-758.5"/>
<polygon fill="midnightblue" stroke="midnightblue" points="329.86,-762 339.86,-758.5 329.86,-755 329.86,-762"/>
</g>
</g>
</svg>
        <g id="navigator" transform="translate(0 0)" fill="#404254">
                <rect fill="#f2f5e9" fill-opacity="0.5" stroke="#606060" stroke-width=".5" x="0" y="0" width="60" height="60"/>
                <use id="zoomplus" xlink:href="#zoomPlus" x="17" y="9" onmousedown="handleZoom(evt,'in')"/>
                <use id="zoomminus" xlink:href="#zoomMin" x="42" y="9" onmousedown="handleZoom(evt,'out')"/>
                <use id="reset" xlink:href="#resetDef" x="30" y="36" onmousedown="handleReset()"/>
                <g id="arrowUp" xlink:href="#dirArrow" transform="translate(30 24)" onmousedown="handlePan(0,-1)">
                  <use xlink:href="#rim" fill="#404040">
                        <set attributeName="fill" to="#808080" begin="arrowUp.mouseover" end="arrowUp.mouseout"/>
                  </use>
                  <path fill="none" stroke="white" stroke-width="1.5" d="M0,-3.0v7 M-2.5,-0.5L0,-3.0L2.5,-0.5"/>
                </g>
                <g id="arrowRight" xlink:href="#dirArrow" transform="rotate(90) translate(36 -43)" onmousedown="handlePan(1,0)">
                  <use xlink:href="#rim" fill="#404040">
                        <set attributeName="fill" to="#808080" begin="arrowRight.mouseover" end="arrowRight.mouseout"/>
                  </use>
                  <path fill="none" stroke="white" stroke-width="1.5" d="M0,-3.0v7 M-2.5,-0.5L0,-3.0L2.5,-0.5"/>
                </g>
                <g id="arrowDown" xlink:href="#dirArrow" transform="rotate(180) translate(-30 -48)" onmousedown="handlePan(0,1)">
                  <use xlink:href="#rim" fill="#404040">
                        <set attributeName="fill" to="#808080" begin="arrowDown.mouseover" end="arrowDown.mouseout"/>
                  </use>
                  <path fill="none" stroke="white" stroke-width="1.5" d="M0,-3.0v7 M-2.5,-0.5L0,-3.0L2.5,-0.5"/>
                </g>
                <g id="arrowLeft" xlink:href="#dirArrow" transform="rotate(270) translate(-36 17)" onmousedown="handlePan(-1,0)">
                  <use xlink:href="#rim" fill="#404040">
                        <set attributeName="fill" to="#808080" begin="arrowLeft.mouseover" end="arrowLeft.mouseout"/>
                  </use>
                  <path fill="none" stroke="white" stroke-width="1.5" d="M0,-3.0v7 M-2.5,-0.5L0,-3.0L2.5,-0.5"/>
                </g>
        </g>
        <svg viewBox="0 0 15 15" width="100%" height="30px" preserveAspectRatio="xMaxYMin meet">
         <g id="arrow_out" transform="scale(0.3 0.3)">
          <a xlink:href="classft_1_1irc_1_1processor__dictionary_a50bd8e9f89f6f6a911f5495272cd7d41_cgraph_org.svg" target="_base">
           <rect id="button" ry="5" rx="5" y="6" x="6" height="38" width="38"
                fill="#f2f5e9" fill-opacity="0.5" stroke="#606060" stroke-width="1.0"/>
           <path id="arrow"
             d="M 11.500037,31.436501 C 11.940474,20.09759 22.043105,11.32322 32.158766,21.979434 L 37.068811,17.246167 C 37.068811,17.246167 37.088388,32 37.088388,32 L 22.160133,31.978069 C 22.160133,31.978069 26.997745,27.140456 26.997745,27.140456 C 18.528582,18.264221 13.291696,25.230495 11.500037,31.436501 z"
             style="fill:#404040;"/>
          </a>
         </g>
        </svg>
</svg>
