<?xml version="1.0" encoding="UTF-8" standalone="no"?>
<!DOCTYPE svg PUBLIC "-//W3C//DTD SVG 1.1//EN"
 "http://www.w3.org/Graphics/SVG/1.1/DTD/svg11.dtd">
<!-- Generated by graphviz version 2.43.0 (0)
 -->
<!-- Title: ft::irc::processor_names::execute Pages: 1 -->
<svg width="461pt" height="389pt"
 viewBox="0.00 0.00 461.00 389.00" xmlns="http://www.w3.org/2000/svg" xmlns:xlink="http://www.w3.org/1999/xlink">
<g id="graph0" class="graph" transform="scale(1 1) rotate(0) translate(4 385)">
<title>ft::irc::processor_names::execute</title>
<polygon fill="white" stroke="transparent" points="-4,4 -4,-385 457,-385 457,4 -4,4"/>
<!-- Node1 -->
<g id="node1" class="node">
<title>Node1</title>
<g id="a_node1"><a xlink:title=" ">
<polygon fill="#bfbfbf" stroke="black" points="0,-203.5 0,-233.5 99,-233.5 99,-203.5 0,-203.5"/>
<text text-anchor="start" x="8" y="-221.5" font-family="Helvetica,sans-Serif" font-size="10.00">ft::irc::processor</text>
<text text-anchor="middle" x="49.5" y="-210.5" font-family="Helvetica,sans-Serif" font-size="10.00">_names::execute</text>
</a>
</g>
</g>
<!-- Node2 -->
<g id="node2" class="node">
<title>Node2</title>
<g id="a_node2"><a xlink:href="classft_1_1irc_1_1user.html#ae7ad74d915c3414aa58fd2fc92791539" target="_top" xlink:title=" ">
<polygon fill="white" stroke="black" points="155.5,-350.5 155.5,-380.5 268.5,-380.5 268.5,-350.5 155.5,-350.5"/>
<text text-anchor="start" x="163.5" y="-368.5" font-family="Helvetica,sans-Serif" font-size="10.00">ft::irc::user::channel</text>
<text text-anchor="middle" x="212" y="-357.5" font-family="Helvetica,sans-Serif" font-size="10.00">_names_snapshot</text>
</a>
</g>
</g>
<!-- Node1&#45;&gt;Node2 -->
<g id="edge1" class="edge">
<title>Node1&#45;&gt;Node2</title>
<path fill="none" stroke="midnightblue" d="M56.93,-233.79C68.63,-259.77 95.86,-312.52 135,-341.5 138.44,-344.05 142.16,-346.33 146.04,-348.37"/>
<polygon fill="midnightblue" stroke="midnightblue" points="144.79,-351.65 155.33,-352.72 147.76,-345.31 144.79,-351.65"/>
</g>
<!-- Node3 -->
<g id="node3" class="node">
<title>Node3</title>
<g id="a_node3"><a xlink:href="classft_1_1irc_1_1server.html#a0e7dee7efef3f36af15d1a3b97f3bad9" target="_top" xlink:title=" ">
<polygon fill="white" stroke="black" points="161,-301.5 161,-331.5 263,-331.5 263,-301.5 161,-301.5"/>
<text text-anchor="start" x="169" y="-319.5" font-family="Helvetica,sans-Serif" font-size="10.00">ft::irc::server::find</text>
<text text-anchor="middle" x="212" y="-308.5" font-family="Helvetica,sans-Serif" font-size="10.00">_channel</text>
</a>
</g>
</g>
<!-- Node1&#45;&gt;Node3 -->
<g id="edge2" class="edge">
<title>Node1&#45;&gt;Node3</title>
<path fill="none" stroke="midnightblue" d="M64.03,-233.62C79.63,-250.22 106.79,-276.63 135,-292.5 140.1,-295.37 145.59,-297.95 151.19,-300.25"/>
<polygon fill="midnightblue" stroke="midnightblue" points="150.11,-303.58 160.7,-303.86 152.6,-297.04 150.11,-303.58"/>
</g>
<!-- Node4 -->
<g id="node4" class="node">
<title>Node4</title>
<g id="a_node4"><a xlink:href="classft_1_1irc_1_1user.html#ae476cc31795df7fbb726b193ab887e75" target="_top" xlink:title=" ">
<polygon fill="white" stroke="black" points="167,-252.5 167,-282.5 257,-282.5 257,-252.5 167,-252.5"/>
<text text-anchor="start" x="175" y="-270.5" font-family="Helvetica,sans-Serif" font-size="10.00">ft::irc::user::get</text>
<text text-anchor="middle" x="212" y="-259.5" font-family="Helvetica,sans-Serif" font-size="10.00">_server</text>
</a>
</g>
</g>
<!-- Node1&#45;&gt;Node4 -->
<g id="edge3" class="edge">
<title>Node1&#45;&gt;Node4</title>
<path fill="none" stroke="midnightblue" d="M99.09,-233.33C117.48,-238.95 138.5,-245.37 157.33,-251.11"/>
<polygon fill="midnightblue" stroke="midnightblue" points="156.36,-254.48 166.95,-254.05 158.4,-247.78 156.36,-254.48"/>
</g>
<!-- Node5 -->
<g id="node5" class="node">
<title>Node5</title>
<g id="a_node5"><a xlink:href="structft_1_1irc_1_1string__utils.html#a38cd804a5b73843f0fd63a027dd0dee0" target="_top" xlink:title=" ">
<polygon fill="white" stroke="black" points="146.5,-203.5 146.5,-233.5 277.5,-233.5 277.5,-203.5 146.5,-203.5"/>
<text text-anchor="start" x="154.5" y="-221.5" font-family="Helvetica,sans-Serif" font-size="10.00">ft::irc::string_utils</text>
<text text-anchor="middle" x="212" y="-210.5" font-family="Helvetica,sans-Serif" font-size="10.00">::is_valid_channelname</text>
</a>
</g>
</g>
<!-- Node1&#45;&gt;Node5 -->
<g id="edge4" class="edge">
<title>Node1&#45;&gt;Node5</title>
<path fill="none" stroke="midnightblue" d="M99.09,-218.5C110.81,-218.5 123.61,-218.5 136.22,-218.5"/>
<polygon fill="midnightblue" stroke="midnightblue" points="136.27,-222 146.27,-218.5 136.27,-215 136.27,-222"/>
</g>
<!-- Node7 -->
<g id="node7" class="node">
<title>Node7</title>
<g id="a_node7"><a xlink:href="classft_1_1irc_1_1message.html#a34f457ead0453ad914af2cb0482a40b9" target="_top" xlink:title=" ">
<polygon fill="white" stroke="black" points="135,-165 135,-184 289,-184 289,-165 135,-165"/>
<text text-anchor="middle" x="212" y="-172" font-family="Helvetica,sans-Serif" font-size="10.00">ft::irc::message::param_size</text>
</a>
</g>
</g>
<!-- Node1&#45;&gt;Node7 -->
<g id="edge6" class="edge">
<title>Node1&#45;&gt;Node7</title>
<path fill="none" stroke="midnightblue" d="M99.16,-204.51C110.88,-201.18 123.38,-197.68 135,-194.5 144.47,-191.91 154.63,-189.19 164.34,-186.63"/>
<polygon fill="midnightblue" stroke="midnightblue" points="165.46,-189.95 174.24,-184.02 163.68,-183.18 165.46,-189.95"/>
</g>
<!-- Node8 -->
<g id="node8" class="node">
<title>Node8</title>
<g id="a_node8"><a xlink:href="classft_1_1irc_1_1channel.html#a5b005d44090820196503e46e45724a51" target="_top" xlink:title=" ">
<polygon fill="white" stroke="black" points="154.5,-115.5 154.5,-145.5 269.5,-145.5 269.5,-115.5 154.5,-115.5"/>
<text text-anchor="start" x="162.5" y="-133.5" font-family="Helvetica,sans-Serif" font-size="10.00">ft::irc::channel::send</text>
<text text-anchor="middle" x="212" y="-122.5" font-family="Helvetica,sans-Serif" font-size="10.00">_names</text>
</a>
</g>
</g>
<!-- Node1&#45;&gt;Node8 -->
<g id="edge7" class="edge">
<title>Node1&#45;&gt;Node8</title>
<path fill="none" stroke="midnightblue" d="M67.2,-203.47C83.5,-189.44 109.51,-168.75 135,-155.5 139.24,-153.29 143.72,-151.23 148.29,-149.31"/>
<polygon fill="midnightblue" stroke="midnightblue" points="149.75,-152.5 157.76,-145.57 147.18,-145.99 149.75,-152.5"/>
</g>
<!-- Node14 -->
<g id="node14" class="node">
<title>Node14</title>
<g id="a_node14"><a xlink:href="classft_1_1irc_1_1message.html#adf434fdc28e74fb166c6046c0ac5c6d5" target="_top" xlink:title=" ">
<polygon fill="white" stroke="black" points="152.5,-77 152.5,-96 271.5,-96 271.5,-77 152.5,-77"/>
<text text-anchor="middle" x="212" y="-84" font-family="Helvetica,sans-Serif" font-size="10.00">ft::irc::message::split</text>
</a>
</g>
</g>
<!-- Node1&#45;&gt;Node14 -->
<g id="edge13" class="edge">
<title>Node1&#45;&gt;Node14</title>
<path fill="none" stroke="midnightblue" d="M57.76,-203.23C70.11,-178.91 97.58,-131.6 135,-106.5 138.73,-104 142.77,-101.8 146.96,-99.89"/>
<polygon fill="midnightblue" stroke="midnightblue" points="148.36,-103.09 156.33,-96.11 145.75,-96.6 148.36,-103.09"/>
</g>
<!-- Node6 -->
<g id="node6" class="node">
<title>Node6</title>
<g id="a_node6"><a xlink:href="namespaceft_1_1irc_1_1__internal.html#ac421a738f6d955bab8b862fca8bd7159" target="_top" xlink:title=" ">
<polygon fill="white" stroke="black" points="344,-235.5 344,-265.5 434,-265.5 434,-235.5 344,-235.5"/>
<text text-anchor="start" x="352" y="-253.5" font-family="Helvetica,sans-Serif" font-size="10.00">ft::irc::_internal</text>
<text text-anchor="middle" x="389" y="-242.5" font-family="Helvetica,sans-Serif" font-size="10.00">::_is_except</text>
</a>
</g>
</g>
<!-- Node5&#45;&gt;Node6 -->
<g id="edge5" class="edge">
<title>Node5&#45;&gt;Node6</title>
<path fill="none" stroke="midnightblue" d="M277.67,-230.32C296.06,-233.69 315.9,-237.32 333.62,-240.56"/>
<polygon fill="midnightblue" stroke="midnightblue" points="333.31,-244.06 343.78,-242.41 334.57,-237.17 333.31,-244.06"/>
</g>
<!-- Node9 -->
<g id="node9" class="node">
<title>Node9</title>
<g id="a_node9"><a xlink:href="structft_1_1irc_1_1make__reply.html#a62504faa310fedb0768c15ec641ea748" target="_top" xlink:title=" ">
<polygon fill="white" stroke="black" points="337,-186.5 337,-216.5 441,-216.5 441,-186.5 337,-186.5"/>
<text text-anchor="start" x="345" y="-204.5" font-family="Helvetica,sans-Serif" font-size="10.00">ft::irc::make_reply</text>
<text text-anchor="middle" x="389" y="-193.5" font-family="Helvetica,sans-Serif" font-size="10.00">::end_of_names</text>
</a>
</g>
</g>
<!-- Node8&#45;&gt;Node9 -->
<g id="edge8" class="edge">
<title>Node8&#45;&gt;Node9</title>
<path fill="none" stroke="midnightblue" d="M264.32,-145.58C272.7,-148.55 281.18,-151.89 289,-155.5 306.02,-163.37 308.17,-169.24 325,-177.5 328.51,-179.22 332.17,-180.9 335.88,-182.52"/>
<polygon fill="midnightblue" stroke="midnightblue" points="334.61,-185.78 345.18,-186.41 337.31,-179.32 334.61,-185.78"/>
</g>
<!-- Node10 -->
<g id="node10" class="node">
<title>Node10</title>
<g id="a_node10"><a xlink:href="classft_1_1irc_1_1user.html#a43fb91fff5e13afd67f9e642137eca40" target="_top" xlink:title=" ">
<polygon fill="white" stroke="black" points="326,-137.5 326,-167.5 452,-167.5 452,-137.5 326,-137.5"/>
<text text-anchor="start" x="334" y="-155.5" font-family="Helvetica,sans-Serif" font-size="10.00">ft::irc::user::is_channel</text>
<text text-anchor="middle" x="389" y="-144.5" font-family="Helvetica,sans-Serif" font-size="10.00">_member</text>
</a>
</g>
</g>
<!-- Node8&#45;&gt;Node10 -->
<g id="edge9" class="edge">
<title>Node8&#45;&gt;Node10</title>
<path fill="none" stroke="midnightblue" d="M269.82,-137.64C284.47,-139.49 300.44,-141.49 315.77,-143.42"/>
<polygon fill="midnightblue" stroke="midnightblue" points="315.36,-146.9 325.72,-144.67 316.24,-139.95 315.36,-146.9"/>
</g>
<!-- Node11 -->
<g id="node11" class="node">
<title>Node11</title>
<g id="a_node11"><a xlink:href="classft_1_1irc_1_1user.html#a3cfeaf12c0bdb6ac02debf5e19ce50d2" target="_top" xlink:title=" ">
<polygon fill="white" stroke="black" points="325,-99 325,-118 453,-118 453,-99 325,-99"/>
<text text-anchor="middle" x="389" y="-106" font-family="Helvetica,sans-Serif" font-size="10.00">ft::irc::user::load_mode</text>
</a>
</g>
</g>
<!-- Node8&#45;&gt;Node11 -->
<g id="edge10" class="edge">
<title>Node8&#45;&gt;Node11</title>
<path fill="none" stroke="midnightblue" d="M269.82,-123.36C284.09,-121.56 299.61,-119.61 314.56,-117.73"/>
<polygon fill="midnightblue" stroke="midnightblue" points="315.32,-121.16 324.81,-116.44 314.45,-114.22 315.32,-121.16"/>
</g>
<!-- Node12 -->
<g id="node12" class="node">
<title>Node12</title>
<g id="a_node12"><a xlink:href="structft_1_1irc_1_1make__reply.html#a0c90ffcad98b5d6e775cda7b8a4163fb" target="_top" xlink:title=" ">
<polygon fill="white" stroke="black" points="337,-49.5 337,-79.5 441,-79.5 441,-49.5 337,-49.5"/>
<text text-anchor="start" x="345" y="-67.5" font-family="Helvetica,sans-Serif" font-size="10.00">ft::irc::make_reply</text>
<text text-anchor="middle" x="389" y="-56.5" font-family="Helvetica,sans-Serif" font-size="10.00">::name_reply</text>
</a>
</g>
</g>
<!-- Node8&#45;&gt;Node12 -->
<g id="edge11" class="edge">
<title>Node8&#45;&gt;Node12</title>
<path fill="none" stroke="midnightblue" d="M261.1,-115.49C270.41,-112.35 280.06,-108.95 289,-105.5 305.34,-99.2 308.86,-96.29 325,-89.5 329.76,-87.5 334.74,-85.45 339.72,-83.43"/>
<polygon fill="midnightblue" stroke="midnightblue" points="341.28,-86.57 349.25,-79.59 338.67,-80.08 341.28,-86.57"/>
</g>
<!-- Node13 -->
<g id="node13" class="node">
<title>Node13</title>
<g id="a_node13"><a xlink:href="classft_1_1irc_1_1user.html#a1db558d6d694ca943224c2440fe36c50" target="_top" xlink:title=" ">
<polygon fill="white" stroke="black" points="340,-0.5 340,-30.5 438,-30.5 438,-0.5 340,-0.5"/>
<text text-anchor="start" x="348" y="-18.5" font-family="Helvetica,sans-Serif" font-size="10.00">ft::irc::user::send</text>
<text text-anchor="middle" x="389" y="-7.5" font-family="Helvetica,sans-Serif" font-size="10.00">_message</text>
</a>
</g>
</g>
<!-- Node8&#45;&gt;Node13 -->
<g id="edge12" class="edge">
<title>Node8&#45;&gt;Node13</title>
<path fill="none" stroke="midnightblue" d="M269.88,-117.13C276.75,-114.02 283.33,-110.19 289,-105.5 314.44,-84.44 300.2,-62.31 325,-40.5 326.93,-38.8 329,-37.21 331.15,-35.72"/>
<polygon fill="midnightblue" stroke="midnightblue" points="333.1,-38.63 339.85,-30.46 329.48,-32.64 333.1,-38.63"/>
</g>
</g>
</svg>
