<?xml version="1.0" encoding="UTF-8" standalone="no"?>
<!DOCTYPE svg PUBLIC "-//W3C//DTD SVG 1.1//EN"
 "http://www.w3.org/Graphics/SVG/1.1/DTD/svg11.dtd">
<!-- Generated by graphviz version 2.43.0 (0)
 -->
<!-- Title: ft::serv::logic_adapter Pages: 1 -->
<svg width="386pt" height="140pt"
 viewBox="0.00 0.00 385.50 140.00" xmlns="http://www.w3.org/2000/svg" xmlns:xlink="http://www.w3.org/1999/xlink">
<g id="graph0" class="graph" transform="scale(1 1) rotate(0) translate(4 136)">
<title>ft::serv::logic_adapter</title>
<polygon fill="white" stroke="transparent" points="-4,4 -4,-136 381.5,-136 381.5,4 -4,4"/>
<!-- Node1 -->
<g id="node1" class="node">
<title>Node1</title>
<g id="a_node1"><a xlink:title=" ">
<polygon fill="#bfbfbf" stroke="black" points="120.5,-56.5 120.5,-75.5 242.5,-75.5 242.5,-56.5 120.5,-56.5"/>
<text text-anchor="middle" x="181.5" y="-63.5" font-family="Helvetica,sans-Serif" font-size="10.00">ft::serv::logic_adapter</text>
</a>
</g>
</g>
<!-- Node3 -->
<g id="node3" class="node">
<title>Node3</title>
<g id="a_node3"><a xlink:href="classft_1_1irc_1_1bot__handler.html" target="_top" xlink:title=" ">
<polygon fill="white" stroke="black" points="0,-0.5 0,-19.5 105,-19.5 105,-0.5 0,-0.5"/>
<text text-anchor="middle" x="52.5" y="-7.5" font-family="Helvetica,sans-Serif" font-size="10.00">ft::irc::bot_handler</text>
</a>
</g>
</g>
<!-- Node1&#45;&gt;Node3 -->
<g id="edge2" class="edge">
<title>Node1&#45;&gt;Node3</title>
<path fill="none" stroke="midnightblue" d="M151.65,-52.5C127.46,-42.38 94.04,-28.39 72.84,-19.52"/>
<polygon fill="midnightblue" stroke="midnightblue" points="150.48,-55.81 161.06,-56.44 153.19,-49.35 150.48,-55.81"/>
</g>
<!-- Node4 -->
<g id="node4" class="node">
<title>Node4</title>
<g id="a_node4"><a xlink:href="classft_1_1irc_1_1client__handler.html" target="_top" xlink:title=" ">
<polygon fill="white" stroke="black" points="123.5,-0.5 123.5,-19.5 239.5,-19.5 239.5,-0.5 123.5,-0.5"/>
<text text-anchor="middle" x="181.5" y="-7.5" font-family="Helvetica,sans-Serif" font-size="10.00">ft::irc::client_handler</text>
</a>
</g>
</g>
<!-- Node1&#45;&gt;Node4 -->
<g id="edge3" class="edge">
<title>Node1&#45;&gt;Node4</title>
<path fill="none" stroke="midnightblue" d="M181.5,-45.8C181.5,-36.91 181.5,-26.78 181.5,-19.75"/>
<polygon fill="midnightblue" stroke="midnightblue" points="178,-46.08 181.5,-56.08 185,-46.08 178,-46.08"/>
</g>
<!-- Node5 -->
<g id="node5" class="node">
<title>Node5</title>
<g id="a_node5"><a xlink:href="classft_1_1irc_1_1server__handler.html" target="_top" xlink:title=" ">
<polygon fill="white" stroke="black" points="257.5,-0.5 257.5,-19.5 377.5,-19.5 377.5,-0.5 257.5,-0.5"/>
<text text-anchor="middle" x="317.5" y="-7.5" font-family="Helvetica,sans-Serif" font-size="10.00">ft::irc::server_handler</text>
</a>
</g>
</g>
<!-- Node1&#45;&gt;Node5 -->
<g id="edge4" class="edge">
<title>Node1&#45;&gt;Node5</title>
<path fill="none" stroke="midnightblue" d="M212.63,-52.64C238.16,-42.5 273.61,-28.43 296.05,-19.52"/>
<polygon fill="midnightblue" stroke="midnightblue" points="211.05,-49.5 203.05,-56.44 213.64,-56.01 211.05,-49.5"/>
</g>
<!-- Node2 -->
<g id="node2" class="node">
<title>Node2</title>
<g id="a_node2"><a xlink:href="classft_1_1serv_1_1event__handler__base.html" target="_top" xlink:title=" ">
<polygon fill="white" stroke="black" points="104.5,-112.5 104.5,-131.5 258.5,-131.5 258.5,-112.5 104.5,-112.5"/>
<text text-anchor="middle" x="181.5" y="-119.5" font-family="Helvetica,sans-Serif" font-size="10.00">ft::serv::event_handler_base</text>
</a>
</g>
</g>
<!-- Node2&#45;&gt;Node1 -->
<g id="edge1" class="edge">
<title>Node2&#45;&gt;Node1</title>
<path fill="none" stroke="midnightblue" d="M181.5,-101.8C181.5,-92.91 181.5,-82.78 181.5,-75.75"/>
<polygon fill="midnightblue" stroke="midnightblue" points="178,-102.08 181.5,-112.08 185,-102.08 178,-102.08"/>
</g>
</g>
</svg>
