<?xml version="1.0" encoding="UTF-8" standalone="no"?>
<!DOCTYPE svg PUBLIC "-//W3C//DTD SVG 1.1//EN"
 "http://www.w3.org/Graphics/SVG/1.1/DTD/svg11.dtd">
<!-- Generated by graphviz version 2.43.0 (0)
 -->
<!-- Title: ft::serv::event_channel_base::trigger_read Pages: 1 -->
<svg width="601pt" height="88pt"
 viewBox="0.00 0.00 601.00 88.00" xmlns="http://www.w3.org/2000/svg" xmlns:xlink="http://www.w3.org/1999/xlink">
<g id="graph0" class="graph" transform="scale(1 1) rotate(0) translate(4 84)">
<title>ft::serv::event_channel_base::trigger_read</title>
<polygon fill="white" stroke="transparent" points="-4,4 -4,-84 597,-84 597,4 -4,4"/>
<!-- Node1 -->
<g id="node1" class="node">
<title>Node1</title>
<g id="a_node1"><a xlink:title=" ">
<polygon fill="#bfbfbf" stroke="black" points="0,-24.5 0,-54.5 127,-54.5 127,-24.5 0,-24.5"/>
<text text-anchor="start" x="8" y="-42.5" font-family="Helvetica,sans-Serif" font-size="10.00">ft::serv::event_channel</text>
<text text-anchor="middle" x="63.5" y="-31.5" font-family="Helvetica,sans-Serif" font-size="10.00">_base::trigger_read</text>
</a>
</g>
</g>
<!-- Node2 -->
<g id="node2" class="node">
<title>Node2</title>
<g id="a_node2"><a xlink:href="structft_1_1serv_1_1logger.html#a27e4ab1c4bf29bd34bb166a3ecd76449" target="_top" xlink:title=" ">
<polygon fill="white" stroke="black" points="163,-30 163,-49 279,-49 279,-30 163,-30"/>
<text text-anchor="middle" x="221" y="-37" font-family="Helvetica,sans-Serif" font-size="10.00">ft::serv::logger::error</text>
</a>
</g>
</g>
<!-- Node1&#45;&gt;Node2 -->
<g id="edge1" class="edge">
<title>Node1&#45;&gt;Node2</title>
<path fill="none" stroke="midnightblue" d="M127.3,-39.5C135.69,-39.5 144.32,-39.5 152.78,-39.5"/>
<polygon fill="midnightblue" stroke="midnightblue" points="152.99,-43 162.99,-39.5 152.99,-36 152.99,-43"/>
</g>
<!-- Node3 -->
<g id="node3" class="node">
<title>Node3</title>
<g id="a_node3"><a xlink:href="namespaceft_1_1serv_1_1__internal.html#a4dfb80be7b817fc0ee18658f313a6274" target="_top" xlink:title=" ">
<polygon fill="white" stroke="black" points="315,-24.5 315,-54.5 413,-54.5 413,-24.5 315,-24.5"/>
<text text-anchor="start" x="323" y="-42.5" font-family="Helvetica,sans-Serif" font-size="10.00">ft::serv::_internal</text>
<text text-anchor="middle" x="364" y="-31.5" font-family="Helvetica,sans-Serif" font-size="10.00">::print</text>
</a>
</g>
</g>
<!-- Node2&#45;&gt;Node3 -->
<g id="edge2" class="edge">
<title>Node2&#45;&gt;Node3</title>
<path fill="none" stroke="midnightblue" d="M279.35,-39.5C287.7,-39.5 296.3,-39.5 304.67,-39.5"/>
<polygon fill="midnightblue" stroke="midnightblue" points="304.72,-43 314.72,-39.5 304.72,-36 304.72,-43"/>
</g>
<!-- Node4 -->
<g id="node4" class="node">
<title>Node4</title>
<g id="a_node4"><a xlink:href="namespaceft_1_1serv_1_1__internal.html#aff49349b58dc84fa69076e9cd27a1db4" target="_top" xlink:title=" ">
<polygon fill="white" stroke="black" points="449,-49.5 449,-79.5 593,-79.5 593,-49.5 449,-49.5"/>
<text text-anchor="start" x="457" y="-67.5" font-family="Helvetica,sans-Serif" font-size="10.00">ft::serv::_internal</text>
<text text-anchor="middle" x="521" y="-56.5" font-family="Helvetica,sans-Serif" font-size="10.00">::make_format_string_line</text>
</a>
</g>
</g>
<!-- Node3&#45;&gt;Node4 -->
<g id="edge3" class="edge">
<title>Node3&#45;&gt;Node4</title>
<path fill="none" stroke="midnightblue" d="M413.19,-47.27C421.39,-48.6 430.11,-50 438.88,-51.42"/>
<polygon fill="midnightblue" stroke="midnightblue" points="438.36,-54.88 448.79,-53.01 439.48,-47.97 438.36,-54.88"/>
</g>
<!-- Node5 -->
<g id="node5" class="node">
<title>Node5</title>
<g id="a_node5"><a xlink:href="namespaceft_1_1serv_1_1__internal.html#aad4af39d62c2b1687b0bef7a91bf6c60" target="_top" xlink:title=" ">
<polygon fill="white" stroke="black" points="469.5,-0.5 469.5,-30.5 572.5,-30.5 572.5,-0.5 469.5,-0.5"/>
<text text-anchor="start" x="477.5" y="-18.5" font-family="Helvetica,sans-Serif" font-size="10.00">ft::serv::_internal</text>
<text text-anchor="middle" x="521" y="-7.5" font-family="Helvetica,sans-Serif" font-size="10.00">::make_utc_string</text>
</a>
</g>
</g>
<!-- Node3&#45;&gt;Node5 -->
<g id="edge4" class="edge">
<title>Node3&#45;&gt;Node5</title>
<path fill="none" stroke="midnightblue" d="M413.19,-32.04C427.85,-29.77 444.14,-27.25 459.49,-24.87"/>
<polygon fill="midnightblue" stroke="midnightblue" points="460.08,-28.32 469.42,-23.33 459.01,-21.4 460.08,-28.32"/>
</g>
</g>
</svg>
