<?xml version="1.0" encoding="UTF-8" standalone="no"?>
<!DOCTYPE svg PUBLIC "-//W3C//DTD SVG 1.1//EN"
 "http://www.w3.org/Graphics/SVG/1.1/DTD/svg11.dtd">
<!-- Generated by graphviz version 2.43.0 (0)
 -->
<!-- Title: ft::irc::server::send_list Pages: 1 -->
<svg width="440pt" height="225pt"
 viewBox="0.00 0.00 440.00 225.00" xmlns="http://www.w3.org/2000/svg" xmlns:xlink="http://www.w3.org/1999/xlink">
<g id="graph0" class="graph" transform="scale(1 1) rotate(0) translate(4 221)">
<title>ft::irc::server::send_list</title>
<polygon fill="white" stroke="transparent" points="-4,4 -4,-221 436,-221 436,4 -4,4"/>
<!-- Node1 -->
<g id="node1" class="node">
<title>Node1</title>
<g id="a_node1"><a xlink:title=" ">
<polygon fill="#bfbfbf" stroke="black" points="0,-99 0,-118 128,-118 128,-99 0,-99"/>
<text text-anchor="middle" x="64" y="-106" font-family="Helvetica,sans-Serif" font-size="10.00">ft::irc::server::send_list</text>
</a>
</g>
</g>
<!-- Node2 -->
<g id="node2" class="node">
<title>Node2</title>
<g id="a_node2"><a xlink:href="structft_1_1irc_1_1make__reply.html#aea322ae93b5998963dca3923cb91d19d" target="_top" xlink:title=" ">
<polygon fill="white" stroke="black" points="176,-186.5 176,-216.5 280,-216.5 280,-186.5 176,-186.5"/>
<text text-anchor="start" x="184" y="-204.5" font-family="Helvetica,sans-Serif" font-size="10.00">ft::irc::make_reply</text>
<text text-anchor="middle" x="228" y="-193.5" font-family="Helvetica,sans-Serif" font-size="10.00">::list_end</text>
</a>
</g>
</g>
<!-- Node1&#45;&gt;Node2 -->
<g id="edge1" class="edge">
<title>Node1&#45;&gt;Node2</title>
<path fill="none" stroke="midnightblue" d="M76.88,-118.23C94.87,-132.62 130.48,-159.78 164,-177.5 167.24,-179.21 170.64,-180.87 174.09,-182.45"/>
<polygon fill="midnightblue" stroke="midnightblue" points="172.78,-185.7 183.34,-186.47 175.57,-179.28 172.78,-185.7"/>
</g>
<!-- Node3 -->
<g id="node3" class="node">
<title>Node3</title>
<g id="a_node3"><a xlink:href="structft_1_1irc_1_1make__reply.html#a63b855359274d17192e7dc8ca199a438" target="_top" xlink:title=" ">
<polygon fill="white" stroke="black" points="176,-137.5 176,-167.5 280,-167.5 280,-137.5 176,-137.5"/>
<text text-anchor="start" x="184" y="-155.5" font-family="Helvetica,sans-Serif" font-size="10.00">ft::irc::make_reply</text>
<text text-anchor="middle" x="228" y="-144.5" font-family="Helvetica,sans-Serif" font-size="10.00">::list_start</text>
</a>
</g>
</g>
<!-- Node1&#45;&gt;Node3 -->
<g id="edge2" class="edge">
<title>Node1&#45;&gt;Node3</title>
<path fill="none" stroke="midnightblue" d="M100.15,-118.05C119.44,-123.29 143.91,-129.93 166.2,-135.99"/>
<polygon fill="midnightblue" stroke="midnightblue" points="165.36,-139.38 175.93,-138.63 167.19,-132.63 165.36,-139.38"/>
</g>
<!-- Node4 -->
<g id="node4" class="node">
<title>Node4</title>
<g id="a_node4"><a xlink:href="classft_1_1irc_1_1user.html#a3cfeaf12c0bdb6ac02debf5e19ce50d2" target="_top" xlink:title=" ">
<polygon fill="white" stroke="black" points="164,-99 164,-118 292,-118 292,-99 164,-99"/>
<text text-anchor="middle" x="228" y="-106" font-family="Helvetica,sans-Serif" font-size="10.00">ft::irc::user::load_mode</text>
</a>
</g>
</g>
<!-- Node1&#45;&gt;Node4 -->
<g id="edge3" class="edge">
<title>Node1&#45;&gt;Node4</title>
<path fill="none" stroke="midnightblue" d="M128.1,-108.5C136.43,-108.5 145.04,-108.5 153.53,-108.5"/>
<polygon fill="midnightblue" stroke="midnightblue" points="153.81,-112 163.81,-108.5 153.81,-105 153.81,-112"/>
</g>
<!-- Node5 -->
<g id="node5" class="node">
<title>Node5</title>
<g id="a_node5"><a xlink:href="classft_1_1irc_1_1channel.html#a36cc8e5ae9be4cb22ae4a31779c62282" target="_top" xlink:title=" ">
<polygon fill="white" stroke="black" points="168.5,-49.5 168.5,-79.5 287.5,-79.5 287.5,-49.5 168.5,-49.5"/>
<text text-anchor="start" x="176.5" y="-67.5" font-family="Helvetica,sans-Serif" font-size="10.00">ft::irc::channel::make</text>
<text text-anchor="middle" x="228" y="-56.5" font-family="Helvetica,sans-Serif" font-size="10.00">_list_packet</text>
</a>
</g>
</g>
<!-- Node1&#45;&gt;Node5 -->
<g id="edge4" class="edge">
<title>Node1&#45;&gt;Node5</title>
<path fill="none" stroke="midnightblue" d="M100.15,-98.95C118.15,-94.07 140.64,-87.95 161.67,-82.24"/>
<polygon fill="midnightblue" stroke="midnightblue" points="162.8,-85.56 171.53,-79.57 160.96,-78.81 162.8,-85.56"/>
</g>
<!-- Node7 -->
<g id="node7" class="node">
<title>Node7</title>
<g id="a_node7"><a xlink:href="classft_1_1irc_1_1user.html#a1db558d6d694ca943224c2440fe36c50" target="_top" xlink:title=" ">
<polygon fill="white" stroke="black" points="179,-0.5 179,-30.5 277,-30.5 277,-0.5 179,-0.5"/>
<text text-anchor="start" x="187" y="-18.5" font-family="Helvetica,sans-Serif" font-size="10.00">ft::irc::user::send</text>
<text text-anchor="middle" x="228" y="-7.5" font-family="Helvetica,sans-Serif" font-size="10.00">_message</text>
</a>
</g>
</g>
<!-- Node1&#45;&gt;Node7 -->
<g id="edge6" class="edge">
<title>Node1&#45;&gt;Node7</title>
<path fill="none" stroke="midnightblue" d="M76.94,-98.98C95,-84.9 130.7,-58.26 164,-40.5 167.74,-38.51 171.67,-36.58 175.67,-34.74"/>
<polygon fill="midnightblue" stroke="midnightblue" points="177.31,-37.84 185.06,-30.61 174.49,-31.43 177.31,-37.84"/>
</g>
<!-- Node6 -->
<g id="node6" class="node">
<title>Node6</title>
<g id="a_node6"><a xlink:href="structft_1_1irc_1_1make__reply.html#a049c4169cd8f3b5e8d855183c8106001" target="_top" xlink:title=" ">
<polygon fill="white" stroke="black" points="328,-49.5 328,-79.5 432,-79.5 432,-49.5 328,-49.5"/>
<text text-anchor="start" x="336" y="-67.5" font-family="Helvetica,sans-Serif" font-size="10.00">ft::irc::make_reply</text>
<text text-anchor="middle" x="380" y="-56.5" font-family="Helvetica,sans-Serif" font-size="10.00">::list</text>
</a>
</g>
</g>
<!-- Node5&#45;&gt;Node6 -->
<g id="edge5" class="edge">
<title>Node5&#45;&gt;Node6</title>
<path fill="none" stroke="midnightblue" d="M287.85,-64.5C297.6,-64.5 307.73,-64.5 317.54,-64.5"/>
<polygon fill="midnightblue" stroke="midnightblue" points="317.61,-68 327.61,-64.5 317.61,-61 317.61,-68"/>
</g>
</g>
</svg>
