<?xml version="1.0" encoding="UTF-8" standalone="no"?>
<!DOCTYPE svg PUBLIC "-//W3C//DTD SVG 1.1//EN"
 "http://www.w3.org/Graphics/SVG/1.1/DTD/svg11.dtd">
<!-- Generated by graphviz version 2.43.0 (0)
 -->
<!-- Title: ft::irc::user::register_to_server Pages: 1 -->
<!--zoomable 774 -->
<svg id="main" version="1.1" xmlns="http://www.w3.org/2000/svg" xmlns:xlink="http://www.w3.org/1999/xlink" xml:space="preserve" onload="init(evt)">
<style type="text/css"><![CDATA[
.edge:hover path { stroke: red; }
.edge:hover polygon { stroke: red; fill: red; }
]]></style>
<script type="text/javascript"><![CDATA[
var edges = document.getElementsByTagName('g');
if (edges && edges.length) {
  for (var i=0;i<edges.length;i++) {
    if (edges[i].id.substr(0,4)=='edge') {
      edges[i].setAttribute('class','edge');
    }
  }
}
]]></script>
        <defs>
                <circle id="rim" cx="0" cy="0" r="7"/>
                <circle id="rim2" cx="0" cy="0" r="3.5"/>
                <g id="zoomPlus">
                        <use xlink:href="#rim" fill="#404040">
                                <set attributeName="fill" to="#808080" begin="zoomplus.mouseover" end="zoomplus.mouseout"/>
                        </use>
                        <path d="M-4,0h8M0,-4v8" fill="none" stroke="white" stroke-width="1.5" pointer-events="none"/>
                </g>
                <g id="zoomMin">
                        <use xlink:href="#rim" fill="#404040">
                                <set attributeName="fill" to="#808080" begin="zoomminus.mouseover" end="zoomminus.mouseout"/>
                        </use>
                        <path d="M-4,0h8" fill="none" stroke="white" stroke-width="1.5" pointer-events="none"/>
                </g>
                <g id="dirArrow">
                        <path fill="none" stroke="white" stroke-width="1.5" d="M0,-3.0v7 M-2.5,-0.5L0,-3.0L2.5,-0.5"/>
                </g>
               <g id="resetDef">
                       <use xlink:href="#rim2" fill="#404040">
                               <set attributeName="fill" to="#808080" begin="reset.mouseover" end="reset.mouseout"/>
                       </use>
               </g>
        </defs>

<script type="text/javascript">
var viewWidth = 936;
var viewHeight = 774;
var sectionId = 'dynsection-22';
</script>
<script xlink:href="svgpan.js"/>
<svg id="graph" class="graph">
<g id="viewport">
<title>ft::irc::user::register_to_server</title>
<polygon fill="white" stroke="transparent" points="-4,4 -4,-770 932,-770 932,4 -4,4"/>
<!-- Node1 -->
<g id="node1" class="node">
<title>Node1</title>
<g id="a_node1"><a xlink:title=" ">
<polygon fill="#bfbfbf" stroke="black" points="0,-367.5 0,-397.5 112,-397.5 112,-367.5 0,-367.5"/>
<text text-anchor="start" x="8" y="-385.5" font-family="Helvetica,sans-Serif" font-size="10.00">ft::irc::user::register</text>
<text text-anchor="middle" x="56" y="-374.5" font-family="Helvetica,sans-Serif" font-size="10.00">_to_server</text>
</a>
</g>
</g>
<!-- Node2 -->
<g id="node2" class="node">
<title>Node2</title>
<g id="a_node2"><a xlink:href="classft_1_1irc_1_1server.html#a9bd0c0f5521a9d823a4d097099ebe4da" target="_top" xlink:title=" ">
<polygon fill="white" stroke="black" points="148,-417 148,-436 296,-436 296,-417 148,-417"/>
<text text-anchor="middle" x="222" y="-424" font-family="Helvetica,sans-Serif" font-size="10.00">ft::irc::server::register_user</text>
</a>
</g>
</g>
<!-- Node1&#45;&gt;Node2 -->
<g id="edge1" class="edge">
<title>Node1&#45;&gt;Node2</title>
<path fill="none" stroke="midnightblue" d="M111.34,-397.56C123.4,-400.86 136.13,-404.32 148,-407.5 156.37,-409.74 165.28,-412.09 173.9,-414.34"/>
<polygon fill="midnightblue" stroke="midnightblue" points="173.28,-417.8 183.84,-416.93 175.04,-411.02 173.28,-417.8"/>
</g>
<!-- Node3 -->
<g id="node3" class="node">
<title>Node3</title>
<g id="a_node3"><a xlink:href="classft_1_1irc_1_1server.html#a5ecd192da409f6740de44ea8cb3b44cf" target="_top" xlink:title=" ">
<polygon fill="white" stroke="black" points="168.5,-367.5 168.5,-397.5 275.5,-397.5 275.5,-367.5 168.5,-367.5"/>
<text text-anchor="start" x="176.5" y="-385.5" font-family="Helvetica,sans-Serif" font-size="10.00">ft::irc::server::send</text>
<text text-anchor="middle" x="222" y="-374.5" font-family="Helvetica,sans-Serif" font-size="10.00">_welcome</text>
</a>
</g>
</g>
<!-- Node1&#45;&gt;Node3 -->
<g id="edge2" class="edge">
<title>Node1&#45;&gt;Node3</title>
<path fill="none" stroke="midnightblue" d="M112.07,-382.5C126.81,-382.5 142.86,-382.5 158,-382.5"/>
<polygon fill="midnightblue" stroke="midnightblue" points="158.3,-386 168.3,-382.5 158.3,-379 158.3,-386"/>
</g>
<!-- Node25 -->
<g id="node25" class="node">
<title>Node25</title>
<g id="a_node25"><a xlink:href="structft_1_1irc_1_1make__reply.html#a125ea72202f5f56289961dd1664a0f69" target="_top" xlink:title=" ">
<polygon fill="white" stroke="black" points="170,-318.5 170,-348.5 274,-348.5 274,-318.5 170,-318.5"/>
<text text-anchor="start" x="178" y="-336.5" font-family="Helvetica,sans-Serif" font-size="10.00">ft::irc::make_reply</text>
<text text-anchor="middle" x="222" y="-325.5" font-family="Helvetica,sans-Serif" font-size="10.00">::user_mode_is</text>
</a>
</g>
</g>
<!-- Node1&#45;&gt;Node25 -->
<g id="edge24" class="edge">
<title>Node1&#45;&gt;Node25</title>
<path fill="none" stroke="midnightblue" d="M107.54,-367.4C124.46,-362.34 143.48,-356.66 161.04,-351.42"/>
<polygon fill="midnightblue" stroke="midnightblue" points="162.04,-354.77 170.62,-348.55 160.04,-348.06 162.04,-354.77"/>
</g>
<!-- Node4 -->
<g id="node4" class="node">
<title>Node4</title>
<g id="a_node4"><a xlink:href="structft_1_1irc_1_1make__welcome.html#afebc98d586844eb7ca6bde82cd9869b6" target="_top" xlink:title=" ">
<polygon fill="white" stroke="black" points="332,-735.5 332,-765.5 456,-765.5 456,-735.5 332,-735.5"/>
<text text-anchor="start" x="340" y="-753.5" font-family="Helvetica,sans-Serif" font-size="10.00">ft::irc::make_welcome</text>
<text text-anchor="middle" x="394" y="-742.5" font-family="Helvetica,sans-Serif" font-size="10.00">::created</text>
</a>
</g>
</g>
<!-- Node3&#45;&gt;Node4 -->
<g id="edge3" class="edge">
<title>Node3&#45;&gt;Node4</title>
<path fill="none" stroke="midnightblue" d="M275.53,-392.31C283.38,-395.91 290.63,-400.82 296,-407.5 385.34,-518.75 245.18,-613.28 332,-726.5 332.58,-727.25 333.18,-727.98 333.81,-728.68"/>
<polygon fill="midnightblue" stroke="midnightblue" points="331.56,-731.37 341.36,-735.4 336.21,-726.14 331.56,-731.37"/>
</g>
<!-- Node5 -->
<g id="node5" class="node">
<title>Node5</title>
<g id="a_node5"><a xlink:href="structft_1_1irc_1_1make__reply.html#ad65f94ea29a9d677937915bf6d92aed2" target="_top" xlink:title=" ">
<polygon fill="white" stroke="black" points="342,-686.5 342,-716.5 446,-716.5 446,-686.5 342,-686.5"/>
<text text-anchor="start" x="350" y="-704.5" font-family="Helvetica,sans-Serif" font-size="10.00">ft::irc::make_reply</text>
<text text-anchor="middle" x="394" y="-693.5" font-family="Helvetica,sans-Serif" font-size="10.00">::end_of_motd</text>
</a>
</g>
</g>
<!-- Node3&#45;&gt;Node5 -->
<g id="edge4" class="edge">
<title>Node3&#45;&gt;Node5</title>
<path fill="none" stroke="midnightblue" d="M275.79,-392.57C283.51,-396.14 290.65,-400.97 296,-407.5 372.75,-501.12 257.37,-582.18 332,-677.5 332.7,-678.4 333.44,-679.26 334.22,-680.09"/>
<polygon fill="midnightblue" stroke="midnightblue" points="332.12,-682.9 342,-686.73 336.66,-677.58 332.12,-682.9"/>
</g>
<!-- Node6 -->
<g id="node6" class="node">
<title>Node6</title>
<g id="a_node6"><a xlink:href="structft_1_1irc_1_1make__welcome.html#ae8a46197564564a8cfae7f34838c2f40" target="_top" xlink:title=" ">
<polygon fill="white" stroke="black" points="332,-637.5 332,-667.5 456,-667.5 456,-637.5 332,-637.5"/>
<text text-anchor="start" x="340" y="-655.5" font-family="Helvetica,sans-Serif" font-size="10.00">ft::irc::make_welcome</text>
<text text-anchor="middle" x="394" y="-644.5" font-family="Helvetica,sans-Serif" font-size="10.00">::i_support</text>
</a>
</g>
</g>
<!-- Node3&#45;&gt;Node6 -->
<g id="edge5" class="edge">
<title>Node3&#45;&gt;Node6</title>
<path fill="none" stroke="midnightblue" d="M275.63,-392.71C283.37,-396.26 290.56,-401.05 296,-407.5 360.2,-483.54 269.52,-551.04 332,-628.5 332.61,-629.26 333.25,-629.99 333.91,-630.7"/>
<polygon fill="midnightblue" stroke="midnightblue" points="331.94,-633.62 341.82,-637.45 336.49,-628.3 331.94,-633.62"/>
</g>
<!-- Node7 -->
<g id="node7" class="node">
<title>Node7</title>
<g id="a_node7"><a xlink:href="structft_1_1irc_1_1make__reply.html#a8b9bcf59a27ddd2ee02c3b46f3e7fe8d" target="_top" xlink:title=" ">
<polygon fill="white" stroke="black" points="342,-588.5 342,-618.5 446,-618.5 446,-588.5 342,-588.5"/>
<text text-anchor="start" x="350" y="-606.5" font-family="Helvetica,sans-Serif" font-size="10.00">ft::irc::make_reply</text>
<text text-anchor="middle" x="394" y="-595.5" font-family="Helvetica,sans-Serif" font-size="10.00">::luser_channels</text>
</a>
</g>
</g>
<!-- Node3&#45;&gt;Node7 -->
<g id="edge6" class="edge">
<title>Node3&#45;&gt;Node7</title>
<path fill="none" stroke="midnightblue" d="M275.75,-393.09C283.38,-396.6 290.5,-401.28 296,-407.5 347.71,-466.03 281.62,-519.82 332,-579.5 332.72,-580.35 333.47,-581.17 334.25,-581.96"/>
<polygon fill="midnightblue" stroke="midnightblue" points="332.04,-584.67 341.99,-588.31 336.48,-579.26 332.04,-584.67"/>
</g>
<!-- Node8 -->
<g id="node8" class="node">
<title>Node8</title>
<g id="a_node8"><a xlink:href="structft_1_1irc_1_1make__reply.html#a906cd29c737f934c0f9b89b13338dcde" target="_top" xlink:title=" ">
<polygon fill="white" stroke="black" points="342,-539.5 342,-569.5 446,-569.5 446,-539.5 342,-539.5"/>
<text text-anchor="start" x="350" y="-557.5" font-family="Helvetica,sans-Serif" font-size="10.00">ft::irc::make_reply</text>
<text text-anchor="middle" x="394" y="-546.5" font-family="Helvetica,sans-Serif" font-size="10.00">::luser_client</text>
</a>
</g>
</g>
<!-- Node3&#45;&gt;Node8 -->
<g id="edge7" class="edge">
<title>Node3&#45;&gt;Node8</title>
<path fill="none" stroke="midnightblue" d="M275.71,-393.64C283.25,-397.08 290.35,-401.59 296,-407.5 335.36,-448.68 293.58,-488.45 332,-530.5 332.89,-531.47 333.81,-532.4 334.78,-533.29"/>
<polygon fill="midnightblue" stroke="midnightblue" points="332.78,-536.16 342.85,-539.44 337.02,-530.6 332.78,-536.16"/>
</g>
<!-- Node9 -->
<g id="node9" class="node">
<title>Node9</title>
<g id="a_node9"><a xlink:href="structft_1_1irc_1_1make__reply.html#a5e821ad6544810b4534a631fd1957a2d" target="_top" xlink:title=" ">
<polygon fill="white" stroke="black" points="342,-490.5 342,-520.5 446,-520.5 446,-490.5 342,-490.5"/>
<text text-anchor="start" x="350" y="-508.5" font-family="Helvetica,sans-Serif" font-size="10.00">ft::irc::make_reply</text>
<text text-anchor="middle" x="394" y="-497.5" font-family="Helvetica,sans-Serif" font-size="10.00">::luser_me</text>
</a>
</g>
</g>
<!-- Node3&#45;&gt;Node9 -->
<g id="edge8" class="edge">
<title>Node3&#45;&gt;Node9</title>
<path fill="none" stroke="midnightblue" d="M275.64,-394.83C283.01,-398.11 290.08,-402.26 296,-407.5 323.4,-431.73 305.15,-456.67 332,-481.5 333.26,-482.67 334.59,-483.78 335.97,-484.85"/>
<polygon fill="midnightblue" stroke="midnightblue" points="334.08,-487.79 344.35,-490.38 337.93,-481.95 334.08,-487.79"/>
</g>
<!-- Node10 -->
<g id="node10" class="node">
<title>Node10</title>
<g id="a_node10"><a xlink:href="structft_1_1irc_1_1make__reply.html#a6f79a81e7858f8037bb0b092bfb2a503" target="_top" xlink:title=" ">
<polygon fill="white" stroke="black" points="342,-441.5 342,-471.5 446,-471.5 446,-441.5 342,-441.5"/>
<text text-anchor="start" x="350" y="-459.5" font-family="Helvetica,sans-Serif" font-size="10.00">ft::irc::make_reply</text>
<text text-anchor="middle" x="394" y="-448.5" font-family="Helvetica,sans-Serif" font-size="10.00">::luser_operator</text>
</a>
</g>
</g>
<!-- Node3&#45;&gt;Node10 -->
<g id="edge9" class="edge">
<title>Node3&#45;&gt;Node10</title>
<path fill="none" stroke="midnightblue" d="M273.24,-397.64C281.01,-400.57 288.83,-403.87 296,-407.5 313.38,-416.3 314.82,-423.32 332,-432.5 335.11,-434.16 338.35,-435.77 341.66,-437.32"/>
<polygon fill="midnightblue" stroke="midnightblue" points="340.51,-440.64 351.07,-441.5 343.35,-434.24 340.51,-440.64"/>
</g>
<!-- Node11 -->
<g id="node11" class="node">
<title>Node11</title>
<g id="a_node11"><a xlink:href="structft_1_1irc_1_1make__reply.html#ab165b755476a24be73f951eb4c228cca" target="_top" xlink:title=" ">
<polygon fill="white" stroke="black" points="342,-392.5 342,-422.5 446,-422.5 446,-392.5 342,-392.5"/>
<text text-anchor="start" x="350" y="-410.5" font-family="Helvetica,sans-Serif" font-size="10.00">ft::irc::make_reply</text>
<text text-anchor="middle" x="394" y="-399.5" font-family="Helvetica,sans-Serif" font-size="10.00">::luser_unknown</text>
</a>
</g>
</g>
<!-- Node3&#45;&gt;Node11 -->
<g id="edge10" class="edge">
<title>Node3&#45;&gt;Node11</title>
<path fill="none" stroke="midnightblue" d="M275.86,-390.27C293.62,-392.89 313.58,-395.82 331.92,-398.52"/>
<polygon fill="midnightblue" stroke="midnightblue" points="331.52,-402 341.92,-399.99 332.54,-395.07 331.52,-402"/>
</g>
<!-- Node12 -->
<g id="node12" class="node">
<title>Node12</title>
<g id="a_node12"><a xlink:href="classft_1_1irc_1_1user.html#a7406ed193e13a3c39ee16c9ac7a8b16e" target="_top" xlink:title=" ">
<polygon fill="white" stroke="black" points="343.5,-343.5 343.5,-373.5 444.5,-373.5 444.5,-343.5 343.5,-343.5"/>
<text text-anchor="start" x="351.5" y="-361.5" font-family="Helvetica,sans-Serif" font-size="10.00">ft::irc::user::make</text>
<text text-anchor="middle" x="394" y="-350.5" font-family="Helvetica,sans-Serif" font-size="10.00">_full_name</text>
</a>
</g>
</g>
<!-- Node3&#45;&gt;Node12 -->
<g id="edge11" class="edge">
<title>Node3&#45;&gt;Node12</title>
<path fill="none" stroke="midnightblue" d="M275.86,-375.04C294.12,-372.46 314.7,-369.55 333.45,-366.91"/>
<polygon fill="midnightblue" stroke="midnightblue" points="333.95,-370.37 343.37,-365.51 332.98,-363.44 333.95,-370.37"/>
</g>
<!-- Node13 -->
<g id="node13" class="node">
<title>Node13</title>
<g id="a_node13"><a xlink:href="structft_1_1irc_1_1make__reply.html#a09ef279f20aef8d899a8a1f6e1f843c8" target="_top" xlink:title=" ">
<polygon fill="white" stroke="black" points="342,-294.5 342,-324.5 446,-324.5 446,-294.5 342,-294.5"/>
<text text-anchor="start" x="350" y="-312.5" font-family="Helvetica,sans-Serif" font-size="10.00">ft::irc::make_reply</text>
<text text-anchor="middle" x="394" y="-301.5" font-family="Helvetica,sans-Serif" font-size="10.00">::motd</text>
</a>
</g>
</g>
<!-- Node3&#45;&gt;Node13 -->
<g id="edge12" class="edge">
<title>Node3&#45;&gt;Node13</title>
<path fill="none" stroke="midnightblue" d="M274.75,-367.43C282.01,-364.76 289.28,-361.77 296,-358.5 313.29,-350.09 315.02,-343.52 332,-334.5 335.75,-332.51 339.7,-330.56 343.7,-328.7"/>
<polygon fill="midnightblue" stroke="midnightblue" points="345.39,-331.78 353.1,-324.51 342.54,-325.39 345.39,-331.78"/>
</g>
<!-- Node14 -->
<g id="node14" class="node">
<title>Node14</title>
<g id="a_node14"><a xlink:href="structft_1_1irc_1_1make__reply.html#ac487f0bab92e860c91305ed0b7f02dbe" target="_top" xlink:title=" ">
<polygon fill="white" stroke="black" points="342,-245.5 342,-275.5 446,-275.5 446,-245.5 342,-245.5"/>
<text text-anchor="start" x="350" y="-263.5" font-family="Helvetica,sans-Serif" font-size="10.00">ft::irc::make_reply</text>
<text text-anchor="middle" x="394" y="-252.5" font-family="Helvetica,sans-Serif" font-size="10.00">::motd_start</text>
</a>
</g>
</g>
<!-- Node3&#45;&gt;Node14 -->
<g id="edge13" class="edge">
<title>Node3&#45;&gt;Node14</title>
<path fill="none" stroke="midnightblue" d="M275.6,-370.91C282.98,-367.72 290.06,-363.66 296,-358.5 323.31,-334.78 305.55,-310.18 332,-285.5 333.67,-283.95 335.44,-282.48 337.3,-281.1"/>
<polygon fill="midnightblue" stroke="midnightblue" points="339.36,-283.94 345.89,-275.6 335.58,-278.05 339.36,-283.94"/>
</g>
<!-- Node15 -->
<g id="node15" class="node">
<title>Node15</title>
<g id="a_node15"><a xlink:href="structft_1_1irc_1_1make__welcome.html#acb1b6ebc0ae8bee31fe7bdc4b02de3df" target="_top" xlink:title=" ">
<polygon fill="white" stroke="black" points="332,-196.5 332,-226.5 456,-226.5 456,-196.5 332,-196.5"/>
<text text-anchor="start" x="340" y="-214.5" font-family="Helvetica,sans-Serif" font-size="10.00">ft::irc::make_welcome</text>
<text text-anchor="middle" x="394" y="-203.5" font-family="Helvetica,sans-Serif" font-size="10.00">::my_info</text>
</a>
</g>
</g>
<!-- Node3&#45;&gt;Node15 -->
<g id="edge14" class="edge">
<title>Node3&#45;&gt;Node15</title>
<path fill="none" stroke="midnightblue" d="M275.68,-372.11C283.22,-368.76 290.33,-364.34 296,-358.5 335.36,-317.92 294.11,-278.46 332,-236.5 333.19,-235.19 334.45,-233.94 335.78,-232.76"/>
<polygon fill="midnightblue" stroke="midnightblue" points="338.07,-235.42 344.03,-226.66 333.9,-229.79 338.07,-235.42"/>
</g>
<!-- Node16 -->
<g id="node16" class="node">
<title>Node16</title>
<g id="a_node16"><a xlink:href="structft_1_1irc_1_1make__error.html#ab15f6ba737319065faa48589151ce227" target="_top" xlink:title=" ">
<polygon fill="white" stroke="black" points="342.5,-147.5 342.5,-177.5 445.5,-177.5 445.5,-147.5 342.5,-147.5"/>
<text text-anchor="start" x="350.5" y="-165.5" font-family="Helvetica,sans-Serif" font-size="10.00">ft::irc::make_error</text>
<text text-anchor="middle" x="394" y="-154.5" font-family="Helvetica,sans-Serif" font-size="10.00">::no_motd</text>
</a>
</g>
</g>
<!-- Node3&#45;&gt;Node16 -->
<g id="edge15" class="edge">
<title>Node3&#45;&gt;Node16</title>
<path fill="none" stroke="midnightblue" d="M275.72,-372.66C283.36,-369.25 290.48,-364.66 296,-358.5 347.81,-300.64 282.28,-247.17 332,-187.5 333.01,-186.29 334.08,-185.14 335.22,-184.04"/>
<polygon fill="midnightblue" stroke="midnightblue" points="337.73,-186.52 343.42,-177.58 333.4,-181.02 337.73,-186.52"/>
</g>
<!-- Node17 -->
<g id="node17" class="node">
<title>Node17</title>
<g id="a_node17"><a xlink:href="classft_1_1irc_1_1user.html#a1db558d6d694ca943224c2440fe36c50" target="_top" xlink:title=" ">
<polygon fill="white" stroke="black" points="345,-98.5 345,-128.5 443,-128.5 443,-98.5 345,-98.5"/>
<text text-anchor="start" x="353" y="-116.5" font-family="Helvetica,sans-Serif" font-size="10.00">ft::irc::user::send</text>
<text text-anchor="middle" x="394" y="-105.5" font-family="Helvetica,sans-Serif" font-size="10.00">_message</text>
</a>
</g>
</g>
<!-- Node3&#45;&gt;Node17 -->
<g id="edge16" class="edge">
<title>Node3&#45;&gt;Node17</title>
<path fill="none" stroke="midnightblue" d="M275.6,-373.03C283.34,-369.58 290.54,-364.89 296,-358.5 360.41,-283.21 270.32,-216.04 332,-138.5 333.45,-136.68 335.05,-134.99 336.77,-133.43"/>
<polygon fill="midnightblue" stroke="midnightblue" points="339.06,-136.09 344.99,-127.31 334.88,-130.47 339.06,-136.09"/>
</g>
<!-- Node23 -->
<g id="node23" class="node">
<title>Node23</title>
<g id="a_node23"><a xlink:href="structft_1_1irc_1_1make__welcome.html#a2e8b475ae188c441466a2c2c1653330a" target="_top" xlink:title=" ">
<polygon fill="white" stroke="black" points="332,-49.5 332,-79.5 456,-79.5 456,-49.5 332,-49.5"/>
<text text-anchor="start" x="340" y="-67.5" font-family="Helvetica,sans-Serif" font-size="10.00">ft::irc::make_welcome</text>
<text text-anchor="middle" x="394" y="-56.5" font-family="Helvetica,sans-Serif" font-size="10.00">::welcome</text>
</a>
</g>
</g>
<!-- Node3&#45;&gt;Node23 -->
<g id="edge22" class="edge">
<title>Node3&#45;&gt;Node23</title>
<path fill="none" stroke="midnightblue" d="M275.76,-373.17C283.48,-369.7 290.63,-364.97 296,-358.5 373.07,-265.71 258.29,-184.98 332,-89.5 332.94,-88.28 333.95,-87.12 335.02,-86.02"/>
<polygon fill="midnightblue" stroke="midnightblue" points="337.38,-88.61 342.83,-79.53 332.9,-83.23 337.38,-88.61"/>
</g>
<!-- Node24 -->
<g id="node24" class="node">
<title>Node24</title>
<g id="a_node24"><a xlink:href="structft_1_1irc_1_1make__welcome.html#a7cc313384202b05f24a38ae5407b8a41" target="_top" xlink:title=" ">
<polygon fill="white" stroke="black" points="332,-0.5 332,-30.5 456,-30.5 456,-0.5 332,-0.5"/>
<text text-anchor="start" x="340" y="-18.5" font-family="Helvetica,sans-Serif" font-size="10.00">ft::irc::make_welcome</text>
<text text-anchor="middle" x="394" y="-7.5" font-family="Helvetica,sans-Serif" font-size="10.00">::your_host</text>
</a>
</g>
</g>
<!-- Node3&#45;&gt;Node24 -->
<g id="edge23" class="edge">
<title>Node3&#45;&gt;Node24</title>
<path fill="none" stroke="midnightblue" d="M275.5,-373.43C283.36,-369.93 290.61,-365.12 296,-358.5 385.76,-248.16 246.23,-153.97 332,-40.5 332.82,-39.42 333.69,-38.39 334.6,-37.4"/>
<polygon fill="midnightblue" stroke="midnightblue" points="337.15,-39.83 342.46,-30.66 332.59,-34.51 337.15,-39.83"/>
</g>
<!-- Node18 -->
<g id="node18" class="node">
<title>Node18</title>
<g id="a_node18"><a xlink:href="structft_1_1serv_1_1logger.html#a83649a4f3bb804c8fed6dfd130de5ee6" target="_top" xlink:title=" ">
<polygon fill="white" stroke="black" points="492,-126 492,-145 614,-145 614,-126 492,-126"/>
<text text-anchor="middle" x="553" y="-133" font-family="Helvetica,sans-Serif" font-size="10.00">ft::serv::logger::debug</text>
</a>
</g>
</g>
<!-- Node17&#45;&gt;Node18 -->
<g id="edge17" class="edge">
<title>Node17&#45;&gt;Node18</title>
<path fill="none" stroke="midnightblue" d="M443.39,-120.28C455.47,-121.97 468.68,-123.82 481.59,-125.63"/>
<polygon fill="midnightblue" stroke="midnightblue" points="481.47,-129.15 491.86,-127.07 482.44,-122.22 481.47,-129.15"/>
</g>
<!-- Node22 -->
<g id="node22" class="node">
<title>Node22</title>
<g id="a_node22"><a xlink:href="classft_1_1irc_1_1message.html#a076fdbb740cb752dd153e207f076183a" target="_top" xlink:title=" ">
<polygon fill="white" stroke="black" points="499.5,-76.5 499.5,-106.5 606.5,-106.5 606.5,-76.5 499.5,-76.5"/>
<text text-anchor="start" x="507.5" y="-94.5" font-family="Helvetica,sans-Serif" font-size="10.00">ft::irc::message::to</text>
<text text-anchor="middle" x="553" y="-83.5" font-family="Helvetica,sans-Serif" font-size="10.00">_pretty_string</text>
</a>
</g>
</g>
<!-- Node17&#45;&gt;Node22 -->
<g id="edge21" class="edge">
<title>Node17&#45;&gt;Node22</title>
<path fill="none" stroke="midnightblue" d="M443.39,-106.72C457.95,-104.68 474.14,-102.41 489.47,-100.26"/>
<polygon fill="midnightblue" stroke="midnightblue" points="489.99,-103.72 499.41,-98.87 489.02,-96.79 489.99,-103.72"/>
</g>
<!-- Node19 -->
<g id="node19" class="node">
<title>Node19</title>
<g id="a_node19"><a xlink:href="namespaceft_1_1serv_1_1__internal.html#a4dfb80be7b817fc0ee18658f313a6274" target="_top" xlink:title=" ">
<polygon fill="white" stroke="black" points="650,-120.5 650,-150.5 748,-150.5 748,-120.5 650,-120.5"/>
<text text-anchor="start" x="658" y="-138.5" font-family="Helvetica,sans-Serif" font-size="10.00">ft::serv::_internal</text>
<text text-anchor="middle" x="699" y="-127.5" font-family="Helvetica,sans-Serif" font-size="10.00">::print</text>
</a>
</g>
</g>
<!-- Node18&#45;&gt;Node19 -->
<g id="edge18" class="edge">
<title>Node18&#45;&gt;Node19</title>
<path fill="none" stroke="midnightblue" d="M614.23,-135.5C622.67,-135.5 631.33,-135.5 639.73,-135.5"/>
<polygon fill="midnightblue" stroke="midnightblue" points="639.82,-139 649.82,-135.5 639.82,-132 639.82,-139"/>
</g>
<!-- Node20 -->
<g id="node20" class="node">
<title>Node20</title>
<g id="a_node20"><a xlink:href="namespaceft_1_1serv_1_1__internal.html#aff49349b58dc84fa69076e9cd27a1db4" target="_top" xlink:title=" ">
<polygon fill="white" stroke="black" points="784,-145.5 784,-175.5 928,-175.5 928,-145.5 784,-145.5"/>
<text text-anchor="start" x="792" y="-163.5" font-family="Helvetica,sans-Serif" font-size="10.00">ft::serv::_internal</text>
<text text-anchor="middle" x="856" y="-152.5" font-family="Helvetica,sans-Serif" font-size="10.00">::make_format_string_line</text>
</a>
</g>
</g>
<!-- Node19&#45;&gt;Node20 -->
<g id="edge19" class="edge">
<title>Node19&#45;&gt;Node20</title>
<path fill="none" stroke="midnightblue" d="M748.19,-143.27C756.39,-144.6 765.11,-146 773.88,-147.42"/>
<polygon fill="midnightblue" stroke="midnightblue" points="773.36,-150.88 783.79,-149.01 774.48,-143.97 773.36,-150.88"/>
</g>
<!-- Node21 -->
<g id="node21" class="node">
<title>Node21</title>
<g id="a_node21"><a xlink:href="namespaceft_1_1serv_1_1__internal.html#aad4af39d62c2b1687b0bef7a91bf6c60" target="_top" xlink:title=" ">
<polygon fill="white" stroke="black" points="804.5,-96.5 804.5,-126.5 907.5,-126.5 907.5,-96.5 804.5,-96.5"/>
<text text-anchor="start" x="812.5" y="-114.5" font-family="Helvetica,sans-Serif" font-size="10.00">ft::serv::_internal</text>
<text text-anchor="middle" x="856" y="-103.5" font-family="Helvetica,sans-Serif" font-size="10.00">::make_utc_string</text>
</a>
</g>
</g>
<!-- Node19&#45;&gt;Node21 -->
<g id="edge20" class="edge">
<title>Node19&#45;&gt;Node21</title>
<path fill="none" stroke="midnightblue" d="M748.19,-128.04C762.85,-125.77 779.14,-123.25 794.49,-120.87"/>
<polygon fill="midnightblue" stroke="midnightblue" points="795.08,-124.32 804.42,-119.33 794.01,-117.4 795.08,-124.32"/>
</g>
</g>
</svg>
        <g id="navigator" transform="translate(0 0)" fill="#404254">
                <rect fill="#f2f5e9" fill-opacity="0.5" stroke="#606060" stroke-width=".5" x="0" y="0" width="60" height="60"/>
                <use id="zoomplus" xlink:href="#zoomPlus" x="17" y="9" onmousedown="handleZoom(evt,'in')"/>
                <use id="zoomminus" xlink:href="#zoomMin" x="42" y="9" onmousedown="handleZoom(evt,'out')"/>
                <use id="reset" xlink:href="#resetDef" x="30" y="36" onmousedown="handleReset()"/>
                <g id="arrowUp" xlink:href="#dirArrow" transform="translate(30 24)" onmousedown="handlePan(0,-1)">
                  <use xlink:href="#rim" fill="#404040">
                        <set attributeName="fill" to="#808080" begin="arrowUp.mouseover" end="arrowUp.mouseout"/>
                  </use>
                  <path fill="none" stroke="white" stroke-width="1.5" d="M0,-3.0v7 M-2.5,-0.5L0,-3.0L2.5,-0.5"/>
                </g>
                <g id="arrowRight" xlink:href="#dirArrow" transform="rotate(90) translate(36 -43)" onmousedown="handlePan(1,0)">
                  <use xlink:href="#rim" fill="#404040">
                        <set attributeName="fill" to="#808080" begin="arrowRight.mouseover" end="arrowRight.mouseout"/>
                  </use>
                  <path fill="none" stroke="white" stroke-width="1.5" d="M0,-3.0v7 M-2.5,-0.5L0,-3.0L2.5,-0.5"/>
                </g>
                <g id="arrowDown" xlink:href="#dirArrow" transform="rotate(180) translate(-30 -48)" onmousedown="handlePan(0,1)">
                  <use xlink:href="#rim" fill="#404040">
                        <set attributeName="fill" to="#808080" begin="arrowDown.mouseover" end="arrowDown.mouseout"/>
                  </use>
                  <path fill="none" stroke="white" stroke-width="1.5" d="M0,-3.0v7 M-2.5,-0.5L0,-3.0L2.5,-0.5"/>
                </g>
                <g id="arrowLeft" xlink:href="#dirArrow" transform="rotate(270) translate(-36 17)" onmousedown="handlePan(-1,0)">
                  <use xlink:href="#rim" fill="#404040">
                        <set attributeName="fill" to="#808080" begin="arrowLeft.mouseover" end="arrowLeft.mouseout"/>
                  </use>
                  <path fill="none" stroke="white" stroke-width="1.5" d="M0,-3.0v7 M-2.5,-0.5L0,-3.0L2.5,-0.5"/>
                </g>
        </g>
        <svg viewBox="0 0 15 15" width="100%" height="30px" preserveAspectRatio="xMaxYMin meet">
         <g id="arrow_out" transform="scale(0.3 0.3)">
          <a xlink:href="classft_1_1irc_1_1user_affa6016f0c81205cd3c60ea6e9706132_cgraph_org.svg" target="_base">
           <rect id="button" ry="5" rx="5" y="6" x="6" height="38" width="38"
                fill="#f2f5e9" fill-opacity="0.5" stroke="#606060" stroke-width="1.0"/>
           <path id="arrow"
             d="M 11.500037,31.436501 C 11.940474,20.09759 22.043105,11.32322 32.158766,21.979434 L 37.068811,17.246167 C 37.068811,17.246167 37.088388,32 37.088388,32 L 22.160133,31.978069 C 22.160133,31.978069 26.997745,27.140456 26.997745,27.140456 C 18.528582,18.264221 13.291696,25.230495 11.500037,31.436501 z"
             style="fill:#404040;"/>
          </a>
         </g>
        </svg>
</svg>
