<?xml version="1.0" encoding="UTF-8" standalone="no"?>
<!DOCTYPE svg PUBLIC "-//W3C//DTD SVG 1.1//EN"
 "http://www.w3.org/Graphics/SVG/1.1/DTD/svg11.dtd">
<!-- Generated by graphviz version 2.43.0 (0)
 -->
<!-- Title: ft::irc::user Pages: 1 -->
<!--zoomable 451 -->
<svg id="main" version="1.1" xmlns="http://www.w3.org/2000/svg" xmlns:xlink="http://www.w3.org/1999/xlink" xml:space="preserve" onload="init(evt)">
<style type="text/css"><![CDATA[
.edge:hover path { stroke: red; }
.edge:hover polygon { stroke: red; fill: red; }
]]></style>
<script type="text/javascript"><![CDATA[
var edges = document.getElementsByTagName('g');
if (edges && edges.length) {
  for (var i=0;i<edges.length;i++) {
    if (edges[i].id.substr(0,4)=='edge') {
      edges[i].setAttribute('class','edge');
    }
  }
}
]]></script>
        <defs>
                <circle id="rim" cx="0" cy="0" r="7"/>
                <circle id="rim2" cx="0" cy="0" r="3.5"/>
                <g id="zoomPlus">
                        <use xlink:href="#rim" fill="#404040">
                                <set attributeName="fill" to="#808080" begin="zoomplus.mouseover" end="zoomplus.mouseout"/>
                        </use>
                        <path d="M-4,0h8M0,-4v8" fill="none" stroke="white" stroke-width="1.5" pointer-events="none"/>
                </g>
                <g id="zoomMin">
                        <use xlink:href="#rim" fill="#404040">
                                <set attributeName="fill" to="#808080" begin="zoomminus.mouseover" end="zoomminus.mouseout"/>
                        </use>
                        <path d="M-4,0h8" fill="none" stroke="white" stroke-width="1.5" pointer-events="none"/>
                </g>
                <g id="dirArrow">
                        <path fill="none" stroke="white" stroke-width="1.5" d="M0,-3.0v7 M-2.5,-0.5L0,-3.0L2.5,-0.5"/>
                </g>
               <g id="resetDef">
                       <use xlink:href="#rim2" fill="#404040">
                               <set attributeName="fill" to="#808080" begin="reset.mouseover" end="reset.mouseout"/>
                       </use>
               </g>
        </defs>

<script type="text/javascript">
var viewWidth = 582;
var viewHeight = 451;
var sectionId = 'dynsection-1';
</script>
<script xlink:href="svgpan.js"/>
<svg id="graph" class="graph">
<g id="viewport">
<title>ft::irc::user</title>
<polygon fill="white" stroke="transparent" points="-4,4 -4,-447 578,-447 578,4 -4,4"/>
<!-- Node1 -->
<g id="node1" class="node">
<title>Node1</title>
<g id="a_node1"><a xlink:title=" ">
<polygon fill="#bfbfbf" stroke="black" points="506,-223 506,-242 574,-242 574,-223 506,-223"/>
<text text-anchor="middle" x="540" y="-230" font-family="Helvetica,sans-Serif" font-size="10.00">ft::irc::user</text>
</a>
</g>
</g>
<!-- Node2 -->
<g id="node2" class="node">
<title>Node2</title>
<g id="a_node2"><a xlink:title=" ">
<polygon fill="white" stroke="#bfbfbf" points="239.5,-412.5 239.5,-442.5 368.5,-442.5 368.5,-412.5 239.5,-412.5"/>
<text text-anchor="start" x="247.5" y="-430.5" font-family="Helvetica,sans-Serif" font-size="10.00">ft::enable_shared_from</text>
<text text-anchor="middle" x="304" y="-419.5" font-family="Helvetica,sans-Serif" font-size="10.00">_this&lt; user &gt;</text>
</a>
</g>
</g>
<!-- Node2&#45;&gt;Node1 -->
<g id="edge1" class="edge">
<title>Node2&#45;&gt;Node1</title>
<path fill="none" stroke="midnightblue" d="M378.99,-432.17C415.76,-430.57 458.51,-422.29 488,-396.5 535.36,-355.08 539.3,-270.53 539.22,-242.08"/>
<polygon fill="midnightblue" stroke="midnightblue" points="378.7,-428.67 368.8,-432.45 378.89,-435.67 378.7,-428.67"/>
</g>
<!-- Node3 -->
<g id="node3" class="node">
<title>Node3</title>
<g id="a_node3"><a xlink:title=" ">
<polygon fill="white" stroke="#bfbfbf" points="24.5,-370 24.5,-389 113.5,-389 113.5,-370 24.5,-370"/>
<text text-anchor="middle" x="69" y="-377" font-family="Helvetica,sans-Serif" font-size="10.00">readwrite_lock</text>
</a>
</g>
</g>
<!-- Node3&#45;&gt;Node1 -->
<g id="edge2" class="edge">
<title>Node3&#45;&gt;Node1</title>
<path fill="none" stroke="#9a32cd" stroke-dasharray="5,2" d="M124.04,-378.96C224.18,-376.89 433.38,-367.17 488,-322.5 514.83,-300.56 530.19,-260.55 536.13,-242.18"/>
<polygon fill="#9a32cd" stroke="#9a32cd" points="123.76,-375.47 113.83,-379.15 123.9,-382.47 123.76,-375.47"/>
<text text-anchor="middle" x="304" y="-377.5" font-family="Helvetica,sans-Serif" font-size="10.00"> lock</text>
</g>
<!-- Node8 -->
<g id="node8" class="node">
<title>Node8</title>
<g id="a_node8"><a xlink:href="classft_1_1irc_1_1server.html" target="_top" xlink:title=" ">
<polygon fill="white" stroke="black" points="265,-267 265,-286 343,-286 343,-267 265,-267"/>
<text text-anchor="middle" x="304" y="-274" font-family="Helvetica,sans-Serif" font-size="10.00">ft::irc::server</text>
</a>
</g>
</g>
<!-- Node3&#45;&gt;Node8 -->
<g id="edge9" class="edge">
<title>Node3&#45;&gt;Node8</title>
<path fill="none" stroke="#9a32cd" stroke-dasharray="5,2" d="M116.46,-366.8C123.78,-364.33 131.17,-361.55 138,-358.5 168.76,-344.76 177.98,-342.06 203,-319.5 212.9,-310.57 209.83,-302.78 221,-295.5 233.98,-287.04 250.27,-282.33 264.9,-279.72"/>
<polygon fill="#9a32cd" stroke="#9a32cd" points="115.04,-363.58 106.59,-369.97 117.18,-370.24 115.04,-363.58"/>
<text text-anchor="middle" x="179.5" y="-352.5" font-family="Helvetica,sans-Serif" font-size="10.00"> lock</text>
</g>
<!-- Node4 -->
<g id="node4" class="node">
<title>Node4</title>
<g id="a_node4"><a xlink:href="structft_1_1serv_1_1dynamic__array.html" target="_top" xlink:title=" ">
<polygon fill="white" stroke="black" points="233,-305 233,-346 375,-346 375,-305 233,-305"/>
<text text-anchor="start" x="241" y="-334" font-family="Helvetica,sans-Serif" font-size="10.00">ft::serv::dynamic_array</text>
<text text-anchor="start" x="241" y="-323" font-family="Helvetica,sans-Serif" font-size="10.00">&lt; ft::shared_ptr&lt; channel</text>
<text text-anchor="middle" x="304" y="-312" font-family="Helvetica,sans-Serif" font-size="10.00"> &gt;::element_type * &gt;</text>
</a>
</g>
</g>
<!-- Node4&#45;&gt;Node1 -->
<g id="edge3" class="edge">
<title>Node4&#45;&gt;Node1</title>
<path fill="none" stroke="#9a32cd" stroke-dasharray="5,2" d="M385.29,-312.9C418.4,-305.58 456.35,-294.37 488,-277.5 505.09,-268.39 521.21,-252.48 530.6,-242.23"/>
<polygon fill="#9a32cd" stroke="#9a32cd" points="384.23,-309.54 375.18,-315.04 385.69,-316.39 384.23,-309.54"/>
<text text-anchor="middle" x="446.5" y="-310.5" font-family="Helvetica,sans-Serif" font-size="10.00"> invites</text>
</g>
<!-- Node5 -->
<g id="node5" class="node">
<title>Node5</title>
<g id="a_node5"><a xlink:title=" ">
<polygon fill="white" stroke="#bfbfbf" points="47,-110 47,-129 91,-129 91,-110 47,-110"/>
<text text-anchor="middle" x="69" y="-117" font-family="Helvetica,sans-Serif" font-size="10.00">string</text>
</a>
</g>
</g>
<!-- Node5&#45;&gt;Node1 -->
<g id="edge4" class="edge">
<title>Node5&#45;&gt;Node1</title>
<path fill="none" stroke="#9a32cd" stroke-dasharray="5,2" d="M101.07,-114.42C158.99,-106.18 286.7,-93.92 387,-126.5 448.5,-146.48 507.13,-200.43 529.48,-222.69"/>
<polygon fill="#9a32cd" stroke="#9a32cd" points="100.46,-110.97 91.09,-115.9 101.49,-117.89 100.46,-110.97"/>
<text text-anchor="middle" x="304" y="-151.5" font-family="Helvetica,sans-Serif" font-size="10.00"> nick</text>
<text text-anchor="middle" x="304" y="-140.5" font-family="Helvetica,sans-Serif" font-size="10.00">realname</text>
<text text-anchor="middle" x="304" y="-129.5" font-family="Helvetica,sans-Serif" font-size="10.00">username</text>
</g>
<!-- Node5&#45;&gt;Node8 -->
<g id="edge13" class="edge">
<title>Node5&#45;&gt;Node8</title>
<path fill="none" stroke="#9a32cd" stroke-dasharray="5,2" d="M101,-124.96C132.34,-132.25 179.41,-148.44 203,-182.5 222.52,-210.68 196.67,-233.36 221,-257.5 232.51,-268.92 249.46,-274.01 264.96,-276.11"/>
<polygon fill="#9a32cd" stroke="#9a32cd" points="101.54,-121.49 91.03,-122.81 100.07,-128.34 101.54,-121.49"/>
<text text-anchor="middle" x="179.5" y="-185.5" font-family="Helvetica,sans-Serif" font-size="10.00"> pass</text>
</g>
<!-- Node6 -->
<g id="node6" class="node">
<title>Node6</title>
<g id="a_node6"><a xlink:title=" ">
<polygon fill="white" stroke="#bfbfbf" points="221,-217.5 221,-247.5 387,-247.5 387,-217.5 221,-217.5"/>
<text text-anchor="start" x="229" y="-235.5" font-family="Helvetica,sans-Serif" font-size="10.00">bitset&lt; NUMBEROF_REGISTER</text>
<text text-anchor="middle" x="304" y="-224.5" font-family="Helvetica,sans-Serif" font-size="10.00">_STATE &gt;</text>
</a>
</g>
</g>
<!-- Node6&#45;&gt;Node1 -->
<g id="edge5" class="edge">
<title>Node6&#45;&gt;Node1</title>
<path fill="none" stroke="#9a32cd" stroke-dasharray="5,2" d="M397.33,-232.5C435.6,-232.5 477.57,-232.5 505.81,-232.5"/>
<polygon fill="#9a32cd" stroke="#9a32cd" points="397.17,-229 387.17,-232.5 397.17,-236 397.17,-229"/>
<text text-anchor="middle" x="446.5" y="-235.5" font-family="Helvetica,sans-Serif" font-size="10.00"> registered_state</text>
</g>
<!-- Node7 -->
<g id="node7" class="node">
<title>Node7</title>
<g id="a_node7"><a xlink:title=" ">
<polygon fill="white" stroke="#bfbfbf" points="247.5,-168.5 247.5,-198.5 360.5,-198.5 360.5,-168.5 247.5,-168.5"/>
<text text-anchor="start" x="255.5" y="-186.5" font-family="Helvetica,sans-Serif" font-size="10.00">shared_ptr&lt; ft::serv</text>
<text text-anchor="middle" x="304" y="-175.5" font-family="Helvetica,sans-Serif" font-size="10.00">::event_layer &gt;</text>
</a>
</g>
</g>
<!-- Node7&#45;&gt;Node1 -->
<g id="edge6" class="edge">
<title>Node7&#45;&gt;Node1</title>
<path fill="none" stroke="#9a32cd" stroke-dasharray="5,2" d="M370.67,-194.02C405.68,-200.06 449.38,-208.26 488,-217.5 494.64,-219.09 501.71,-221.01 508.39,-222.95"/>
<polygon fill="#9a32cd" stroke="#9a32cd" points="371.01,-190.53 360.57,-192.3 369.84,-197.43 371.01,-190.53"/>
<text text-anchor="middle" x="446.5" y="-220.5" font-family="Helvetica,sans-Serif" font-size="10.00"> layer</text>
</g>
<!-- Node8&#45;&gt;Node1 -->
<g id="edge7" class="edge">
<title>Node8&#45;&gt;Node1</title>
<path fill="none" stroke="#9a32cd" stroke-dasharray="5,2" d="M353.16,-270.59C390.25,-265.63 442.68,-257.71 488,-247.5 494.84,-245.96 502.12,-244.01 508.96,-242.03"/>
<polygon fill="#9a32cd" stroke="#9a32cd" points="352.58,-267.14 343.12,-271.92 353.49,-274.08 352.58,-267.14"/>
<text text-anchor="middle" x="446.5" y="-265.5" font-family="Helvetica,sans-Serif" font-size="10.00"> server</text>
</g>
<!-- Node9 -->
<g id="node9" class="node">
<title>Node9</title>
<g id="a_node9"><a xlink:title=" ">
<polygon fill="white" stroke="#bfbfbf" points="4.5,-318.5 4.5,-348.5 133.5,-348.5 133.5,-318.5 4.5,-318.5"/>
<text text-anchor="start" x="12.5" y="-336.5" font-family="Helvetica,sans-Serif" font-size="10.00">ft::enable_shared_from</text>
<text text-anchor="middle" x="69" y="-325.5" font-family="Helvetica,sans-Serif" font-size="10.00">_this&lt; server &gt;</text>
</a>
</g>
</g>
<!-- Node9&#45;&gt;Node8 -->
<g id="edge8" class="edge">
<title>Node9&#45;&gt;Node8</title>
<path fill="none" stroke="midnightblue" d="M138.44,-315.99C164.29,-309.45 193.97,-302.03 221,-295.5 235.35,-292.03 251.14,-288.34 265,-285.15"/>
<polygon fill="midnightblue" stroke="midnightblue" points="137.57,-312.6 128.74,-318.44 139.29,-319.38 137.57,-312.6"/>
</g>
<!-- Node10 -->
<g id="node10" class="node">
<title>Node10</title>
<g id="a_node10"><a xlink:href="structft_1_1serv_1_1dynamic__array.html" target="_top" xlink:title=" ">
<polygon fill="white" stroke="black" points="5,-258 5,-299 133,-299 133,-258 5,-258"/>
<text text-anchor="start" x="13" y="-287" font-family="Helvetica,sans-Serif" font-size="10.00">ft::serv::dynamic_array</text>
<text text-anchor="start" x="13" y="-276" font-family="Helvetica,sans-Serif" font-size="10.00">&lt; ft::shared_ptr&lt; ft::</text>
<text text-anchor="middle" x="69" y="-265" font-family="Helvetica,sans-Serif" font-size="10.00">irc::user &gt; &gt;</text>
</a>
</g>
</g>
<!-- Node10&#45;&gt;Node8 -->
<g id="edge10" class="edge">
<title>Node10&#45;&gt;Node8</title>
<path fill="none" stroke="#9a32cd" stroke-dasharray="5,2" d="M143.11,-277.87C183.41,-277.53 231.8,-277.11 264.71,-276.83"/>
<polygon fill="#9a32cd" stroke="#9a32cd" points="143.02,-274.37 133.05,-277.96 143.08,-281.37 143.02,-274.37"/>
<text text-anchor="middle" x="179.5" y="-280.5" font-family="Helvetica,sans-Serif" font-size="10.00"> users</text>
</g>
<!-- Node11 -->
<g id="node11" class="node">
<title>Node11</title>
<g id="a_node11"><a xlink:href="structft_1_1serv_1_1unique__set.html" target="_top" xlink:title=" ">
<polygon fill="white" stroke="black" points="14.5,-208.5 14.5,-238.5 123.5,-238.5 123.5,-208.5 14.5,-208.5"/>
<text text-anchor="start" x="22.5" y="-226.5" font-family="Helvetica,sans-Serif" font-size="10.00">ft::serv::unique_set</text>
<text text-anchor="middle" x="69" y="-215.5" font-family="Helvetica,sans-Serif" font-size="10.00">&lt; std::string &gt;</text>
</a>
</g>
</g>
<!-- Node11&#45;&gt;Node8 -->
<g id="edge11" class="edge">
<title>Node11&#45;&gt;Node8</title>
<path fill="none" stroke="#9a32cd" stroke-dasharray="5,2" d="M133.61,-237.97C175.6,-247.52 229.24,-259.72 264.79,-267.81"/>
<polygon fill="#9a32cd" stroke="#9a32cd" points="134.27,-234.53 123.75,-235.73 132.72,-241.36 134.27,-234.53"/>
<text text-anchor="middle" x="179.5" y="-255.5" font-family="Helvetica,sans-Serif" font-size="10.00"> nicks</text>
</g>
<!-- Node12 -->
<g id="node12" class="node">
<title>Node12</title>
<g id="a_node12"><a xlink:href="structft_1_1serv_1_1fast__dictionary.html" target="_top" xlink:title=" ">
<polygon fill="white" stroke="black" points="0,-148 0,-189 138,-189 138,-148 0,-148"/>
<text text-anchor="start" x="8" y="-177" font-family="Helvetica,sans-Serif" font-size="10.00">ft::serv::fast_dictionary</text>
<text text-anchor="start" x="8" y="-166" font-family="Helvetica,sans-Serif" font-size="10.00">&lt; std::string, ft::shared</text>
<text text-anchor="middle" x="69" y="-155" font-family="Helvetica,sans-Serif" font-size="10.00">_ptr&lt; ft::irc::channel &gt; &gt;</text>
</a>
</g>
</g>
<!-- Node12&#45;&gt;Node8 -->
<g id="edge12" class="edge">
<title>Node12&#45;&gt;Node8</title>
<path fill="none" stroke="#9a32cd" stroke-dasharray="5,2" d="M144.68,-192.99C165.06,-202.01 186.15,-213.73 203,-228.5 214.41,-238.5 208.67,-248.67 221,-257.5 233.71,-266.6 250.12,-271.42 264.92,-273.94"/>
<polygon fill="#9a32cd" stroke="#9a32cd" points="145.96,-189.72 135.39,-189.03 143.22,-196.17 145.96,-189.72"/>
<text text-anchor="middle" x="179.5" y="-231.5" font-family="Helvetica,sans-Serif" font-size="10.00"> channels</text>
</g>
<!-- Node13 -->
<g id="node13" class="node">
<title>Node13</title>
<g id="a_node13"><a xlink:href="structft_1_1serv_1_1dynamic__array.html" target="_top" xlink:title=" ">
<polygon fill="white" stroke="black" points="240,-49.5 240,-79.5 368,-79.5 368,-49.5 240,-49.5"/>
<text text-anchor="start" x="248" y="-67.5" font-family="Helvetica,sans-Serif" font-size="10.00">ft::serv::dynamic_array</text>
<text text-anchor="middle" x="304" y="-56.5" font-family="Helvetica,sans-Serif" font-size="10.00">&lt; std::string &gt;</text>
</a>
</g>
</g>
<!-- Node13&#45;&gt;Node1 -->
<g id="edge14" class="edge">
<title>Node13&#45;&gt;Node1</title>
<path fill="none" stroke="#9a32cd" stroke-dasharray="5,2" d="M378.38,-58.58C414.98,-59.47 457.77,-66.8 488,-91.5 529.73,-125.6 537.32,-196.74 538.7,-222.73"/>
<polygon fill="#9a32cd" stroke="#9a32cd" points="378.27,-55.08 368.24,-58.49 378.2,-62.08 378.27,-55.08"/>
<text text-anchor="middle" x="446.5" y="-94.5" font-family="Helvetica,sans-Serif" font-size="10.00"> channels</text>
</g>
<!-- Node14 -->
<g id="node14" class="node">
<title>Node14</title>
<g id="a_node14"><a xlink:title=" ">
<polygon fill="white" stroke="#bfbfbf" points="232,-0.5 232,-30.5 376,-30.5 376,-0.5 232,-0.5"/>
<text text-anchor="start" x="240" y="-18.5" font-family="Helvetica,sans-Serif" font-size="10.00">bitset&lt; NUMBEROF_USER</text>
<text text-anchor="middle" x="304" y="-7.5" font-family="Helvetica,sans-Serif" font-size="10.00">_MODE &gt;</text>
</a>
</g>
</g>
<!-- Node14&#45;&gt;Node1 -->
<g id="edge15" class="edge">
<title>Node14&#45;&gt;Node1</title>
<path fill="none" stroke="#9a32cd" stroke-dasharray="5,2" d="M386.5,-10.28C421.62,-12.33 460.79,-20.98 488,-45.5 515.25,-70.06 533.07,-188.39 537.76,-222.99"/>
<polygon fill="#9a32cd" stroke="#9a32cd" points="386.37,-6.77 376.23,-9.86 386.08,-13.77 386.37,-6.77"/>
<text text-anchor="middle" x="446.5" y="-48.5" font-family="Helvetica,sans-Serif" font-size="10.00"> mode</text>
</g>
</g>
</svg>
        <g id="navigator" transform="translate(0 0)" fill="#404254">
                <rect fill="#f2f5e9" fill-opacity="0.5" stroke="#606060" stroke-width=".5" x="0" y="0" width="60" height="60"/>
                <use id="zoomplus" xlink:href="#zoomPlus" x="17" y="9" onmousedown="handleZoom(evt,'in')"/>
                <use id="zoomminus" xlink:href="#zoomMin" x="42" y="9" onmousedown="handleZoom(evt,'out')"/>
                <use id="reset" xlink:href="#resetDef" x="30" y="36" onmousedown="handleReset()"/>
                <g id="arrowUp" xlink:href="#dirArrow" transform="translate(30 24)" onmousedown="handlePan(0,-1)">
                  <use xlink:href="#rim" fill="#404040">
                        <set attributeName="fill" to="#808080" begin="arrowUp.mouseover" end="arrowUp.mouseout"/>
                  </use>
                  <path fill="none" stroke="white" stroke-width="1.5" d="M0,-3.0v7 M-2.5,-0.5L0,-3.0L2.5,-0.5"/>
                </g>
                <g id="arrowRight" xlink:href="#dirArrow" transform="rotate(90) translate(36 -43)" onmousedown="handlePan(1,0)">
                  <use xlink:href="#rim" fill="#404040">
                        <set attributeName="fill" to="#808080" begin="arrowRight.mouseover" end="arrowRight.mouseout"/>
                  </use>
                  <path fill="none" stroke="white" stroke-width="1.5" d="M0,-3.0v7 M-2.5,-0.5L0,-3.0L2.5,-0.5"/>
                </g>
                <g id="arrowDown" xlink:href="#dirArrow" transform="rotate(180) translate(-30 -48)" onmousedown="handlePan(0,1)">
                  <use xlink:href="#rim" fill="#404040">
                        <set attributeName="fill" to="#808080" begin="arrowDown.mouseover" end="arrowDown.mouseout"/>
                  </use>
                  <path fill="none" stroke="white" stroke-width="1.5" d="M0,-3.0v7 M-2.5,-0.5L0,-3.0L2.5,-0.5"/>
                </g>
                <g id="arrowLeft" xlink:href="#dirArrow" transform="rotate(270) translate(-36 17)" onmousedown="handlePan(-1,0)">
                  <use xlink:href="#rim" fill="#404040">
                        <set attributeName="fill" to="#808080" begin="arrowLeft.mouseover" end="arrowLeft.mouseout"/>
                  </use>
                  <path fill="none" stroke="white" stroke-width="1.5" d="M0,-3.0v7 M-2.5,-0.5L0,-3.0L2.5,-0.5"/>
                </g>
        </g>
        <svg viewBox="0 0 15 15" width="100%" height="30px" preserveAspectRatio="xMaxYMin meet">
         <g id="arrow_out" transform="scale(0.3 0.3)">
          <a xlink:href="classft_1_1irc_1_1user__coll__graph_org.svg" target="_base">
           <rect id="button" ry="5" rx="5" y="6" x="6" height="38" width="38"
                fill="#f2f5e9" fill-opacity="0.5" stroke="#606060" stroke-width="1.0"/>
           <path id="arrow"
             d="M 11.500037,31.436501 C 11.940474,20.09759 22.043105,11.32322 32.158766,21.979434 L 37.068811,17.246167 C 37.068811,17.246167 37.088388,32 37.088388,32 L 22.160133,31.978069 C 22.160133,31.978069 26.997745,27.140456 26.997745,27.140456 C 18.528582,18.264221 13.291696,25.230495 11.500037,31.436501 z"
             style="fill:#404040;"/>
          </a>
         </g>
        </svg>
</svg>
