<?xml version="1.0" encoding="UTF-8" standalone="no"?>
<!DOCTYPE svg PUBLIC "-//W3C//DTD SVG 1.1//EN"
 "http://www.w3.org/Graphics/SVG/1.1/DTD/svg11.dtd">
<!-- Generated by graphviz version 2.43.0 (0)
 -->
<!-- Title: includes/libserv/event_worker.epoll.cpp Pages: 1 -->
<!--zoomable 330 -->
<svg id="main" version="1.1" xmlns="http://www.w3.org/2000/svg" xmlns:xlink="http://www.w3.org/1999/xlink" xml:space="preserve" onload="init(evt)">
<style type="text/css"><![CDATA[
.edge:hover path { stroke: red; }
.edge:hover polygon { stroke: red; fill: red; }
]]></style>
<script type="text/javascript"><![CDATA[
var edges = document.getElementsByTagName('g');
if (edges && edges.length) {
  for (var i=0;i<edges.length;i++) {
    if (edges[i].id.substr(0,4)=='edge') {
      edges[i].setAttribute('class','edge');
    }
  }
}
]]></script>
        <defs>
                <circle id="rim" cx="0" cy="0" r="7"/>
                <circle id="rim2" cx="0" cy="0" r="3.5"/>
                <g id="zoomPlus">
                        <use xlink:href="#rim" fill="#404040">
                                <set attributeName="fill" to="#808080" begin="zoomplus.mouseover" end="zoomplus.mouseout"/>
                        </use>
                        <path d="M-4,0h8M0,-4v8" fill="none" stroke="white" stroke-width="1.5" pointer-events="none"/>
                </g>
                <g id="zoomMin">
                        <use xlink:href="#rim" fill="#404040">
                                <set attributeName="fill" to="#808080" begin="zoomminus.mouseover" end="zoomminus.mouseout"/>
                        </use>
                        <path d="M-4,0h8" fill="none" stroke="white" stroke-width="1.5" pointer-events="none"/>
                </g>
                <g id="dirArrow">
                        <path fill="none" stroke="white" stroke-width="1.5" d="M0,-3.0v7 M-2.5,-0.5L0,-3.0L2.5,-0.5"/>
                </g>
               <g id="resetDef">
                       <use xlink:href="#rim2" fill="#404040">
                               <set attributeName="fill" to="#808080" begin="reset.mouseover" end="reset.mouseout"/>
                       </use>
               </g>
        </defs>

<script type="text/javascript">
var viewWidth = 1886;
var viewHeight = 330;
var sectionId = 'dynsection-0';
</script>
<script xlink:href="svgpan.js"/>
<svg id="graph" class="graph">
<g id="viewport">
<title>includes/libserv/event_worker.epoll.cpp</title>
<polygon fill="white" stroke="transparent" points="-4,4 -4,-326 1881.57,-326 1881.57,4 -4,4"/>
<!-- Node1 -->
<g id="node1" class="node">
<title>Node1</title>
<g id="a_node1"><a xlink:title=" ">
<polygon fill="#bfbfbf" stroke="black" points="1045.57,-291.5 1045.57,-321.5 1169.57,-321.5 1169.57,-291.5 1045.57,-291.5"/>
<text text-anchor="start" x="1053.57" y="-309.5" font-family="Helvetica,sans-Serif" font-size="10.00">includes/libserv/event</text>
<text text-anchor="middle" x="1107.57" y="-298.5" font-family="Helvetica,sans-Serif" font-size="10.00">_worker.epoll.cpp</text>
</a>
</g>
</g>
<!-- Node2 -->
<g id="node2" class="node">
<title>Node2</title>
<g id="a_node2"><a xlink:href="event__worker_8hpp.html" target="_top" xlink:title=" ">
<polygon fill="white" stroke="black" points="242.07,-235.5 242.07,-254.5 345.07,-254.5 345.07,-235.5 242.07,-235.5"/>
<text text-anchor="middle" x="293.57" y="-242.5" font-family="Helvetica,sans-Serif" font-size="10.00">event_worker.hpp</text>
</a>
</g>
</g>
<!-- Node1&#45;&gt;Node2 -->
<g id="edge1" class="edge">
<title>Node1&#45;&gt;Node2</title>
<path fill="none" stroke="midnightblue" d="M1045.19,-301.91C919.26,-294.5 625.69,-276.41 379.57,-255 371.79,-254.32 363.62,-253.55 355.54,-252.75"/>
<polygon fill="midnightblue" stroke="midnightblue" points="355.69,-249.24 345.39,-251.72 354.98,-256.21 355.69,-249.24"/>
</g>
<!-- Node3 -->
<g id="node3" class="node">
<title>Node3</title>
<g id="a_node3"><a xlink:href="event__channel__base_8hpp.html" target="_top" xlink:title=" ">
<polygon fill="white" stroke="black" points="675.07,-179.5 675.07,-198.5 812.07,-198.5 812.07,-179.5 675.07,-179.5"/>
<text text-anchor="middle" x="743.57" y="-186.5" font-family="Helvetica,sans-Serif" font-size="10.00">event_channel_base.hpp</text>
</a>
</g>
</g>
<!-- Node1&#45;&gt;Node3 -->
<g id="edge23" class="edge">
<title>Node1&#45;&gt;Node3</title>
<path fill="none" stroke="midnightblue" d="M1045.31,-302.91C986.62,-298.52 897.37,-286.71 826.57,-255 800.12,-243.15 774.62,-221.08 759.03,-205.97"/>
<polygon fill="midnightblue" stroke="midnightblue" points="761.38,-203.38 751.83,-198.8 756.44,-208.34 761.38,-203.38"/>
</g>
<!-- Node5 -->
<g id="node5" class="node">
<title>Node5</title>
<g id="a_node5"><a xlink:href="serv__types_8hpp.html" target="_top" xlink:title=" ">
<polygon fill="white" stroke="black" points="635.07,-56.5 635.07,-75.5 726.07,-75.5 726.07,-56.5 635.07,-56.5"/>
<text text-anchor="middle" x="680.57" y="-63.5" font-family="Helvetica,sans-Serif" font-size="10.00">serv_types.hpp</text>
</a>
</g>
</g>
<!-- Node1&#45;&gt;Node5 -->
<g id="edge38" class="edge">
<title>Node1&#45;&gt;Node5</title>
<path fill="none" stroke="midnightblue" d="M1045.27,-304.58C822.27,-300.6 73.65,-281.16 9.57,-199 -17.17,-164.71 16.54,-134.98 57.57,-112 106.32,-84.69 480.35,-72.19 624.33,-68.35"/>
<polygon fill="midnightblue" stroke="midnightblue" points="624.79,-71.84 634.7,-68.08 624.61,-64.84 624.79,-71.84"/>
</g>
<!-- Node7 -->
<g id="node7" class="node">
<title>Node7</title>
<g id="a_node7"><a xlink:title=" ">
<polygon fill="white" stroke="#bfbfbf" points="1046.57,-0.5 1046.57,-19.5 1084.57,-19.5 1084.57,-0.5 1046.57,-0.5"/>
<text text-anchor="middle" x="1065.57" y="-7.5" font-family="Helvetica,sans-Serif" font-size="10.00">map</text>
</a>
</g>
</g>
<!-- Node1&#45;&gt;Node7 -->
<g id="edge51" class="edge">
<title>Node1&#45;&gt;Node7</title>
<path fill="none" stroke="midnightblue" d="M1169.81,-293.06C1252.85,-274.64 1389.57,-237.15 1389.57,-190 1389.57,-190 1389.57,-190 1389.57,-126.5 1389.57,-64.33 1175.26,-26.89 1095.23,-15.07"/>
<polygon fill="midnightblue" stroke="midnightblue" points="1095.27,-11.54 1084.87,-13.58 1094.27,-18.47 1095.27,-11.54"/>
</g>
<!-- Node9 -->
<g id="node9" class="node">
<title>Node9</title>
<g id="a_node9"><a xlink:title=" ">
<polygon fill="white" stroke="#bfbfbf" points="1254.07,-0.5 1254.07,-19.5 1301.07,-19.5 1301.07,-0.5 1254.07,-0.5"/>
<text text-anchor="middle" x="1277.57" y="-7.5" font-family="Helvetica,sans-Serif" font-size="10.00">vector</text>
</a>
</g>
</g>
<!-- Node1&#45;&gt;Node9 -->
<g id="edge53" class="edge">
<title>Node1&#45;&gt;Node9</title>
<path fill="none" stroke="midnightblue" d="M1169.65,-296.06C1262.71,-280.14 1427.57,-244.26 1427.57,-190 1427.57,-190 1427.57,-190 1427.57,-126.5 1427.57,-68.11 1355.33,-35.14 1311.12,-20.42"/>
<polygon fill="midnightblue" stroke="midnightblue" points="1311.93,-17.01 1301.34,-17.31 1309.81,-23.68 1311.93,-17.01"/>
</g>
<!-- Node10 -->
<g id="node10" class="node">
<title>Node10</title>
<g id="a_node10"><a xlink:title=" ">
<polygon fill="white" stroke="#bfbfbf" points="1201.57,-56.5 1201.57,-75.5 1253.57,-75.5 1253.57,-56.5 1201.57,-56.5"/>
<text text-anchor="middle" x="1227.57" y="-63.5" font-family="Helvetica,sans-Serif" font-size="10.00">cassert</text>
</a>
</g>
</g>
<!-- Node1&#45;&gt;Node10 -->
<g id="edge49" class="edge">
<title>Node1&#45;&gt;Node10</title>
<path fill="none" stroke="midnightblue" d="M1145.49,-291.37C1198.86,-269.14 1293.93,-220.38 1332.57,-143 1338.73,-130.67 1340.16,-123.5 1332.57,-112 1317.38,-88.96 1287.69,-77.68 1263.75,-72.17"/>
<polygon fill="midnightblue" stroke="midnightblue" points="1264.4,-68.73 1253.9,-70.15 1262.99,-75.59 1264.4,-68.73"/>
</g>
<!-- Node13 -->
<g id="node13" class="node">
<title>Node13</title>
<g id="a_node13"><a xlink:title=" ">
<polygon fill="white" stroke="#bfbfbf" points="144.07,-118 144.07,-137 283.07,-137 283.07,-118 144.07,-118"/>
<text text-anchor="middle" x="213.57" y="-125" font-family="Helvetica,sans-Serif" font-size="10.00">smart_ptr/shared_ptr.hpp</text>
</a>
</g>
</g>
<!-- Node1&#45;&gt;Node13 -->
<g id="edge39" class="edge">
<title>Node1&#45;&gt;Node13</title>
<path fill="none" stroke="midnightblue" d="M1045.51,-300.63C980.6,-294.39 876.29,-281.1 789.57,-255 732.06,-237.69 720.64,-225.16 666.57,-199 649.04,-190.52 646.24,-184.58 627.57,-179 484.1,-136.11 440.76,-164.53 292.57,-143 284.24,-141.79 275.45,-140.34 266.87,-138.84"/>
<polygon fill="midnightblue" stroke="midnightblue" points="267.4,-135.38 256.94,-137.06 266.17,-142.27 267.4,-135.38"/>
</g>
<!-- Node15 -->
<g id="node15" class="node">
<title>Node15</title>
<g id="a_node15"><a xlink:title=" ">
<polygon fill="white" stroke="#bfbfbf" points="831.57,-118 831.57,-137 875.57,-137 875.57,-118 831.57,-118"/>
<text text-anchor="middle" x="853.57" y="-125" font-family="Helvetica,sans-Serif" font-size="10.00">string</text>
</a>
</g>
</g>
<!-- Node1&#45;&gt;Node15 -->
<g id="edge52" class="edge">
<title>Node1&#45;&gt;Node15</title>
<path fill="none" stroke="midnightblue" d="M1045.44,-304.67C1001.07,-300.91 942.57,-289.11 903.57,-255 871.23,-226.72 859.6,-174.74 855.59,-147.04"/>
<polygon fill="midnightblue" stroke="midnightblue" points="859.05,-146.57 854.32,-137.09 852.11,-147.45 859.05,-146.57"/>
</g>
<!-- Node17 -->
<g id="node17" class="node">
<title>Node17</title>
<g id="a_node17"><a xlink:title=" ">
<polygon fill="white" stroke="#bfbfbf" points="212.57,-179.5 212.57,-198.5 374.57,-198.5 374.57,-179.5 212.57,-179.5"/>
<text text-anchor="middle" x="293.57" y="-186.5" font-family="Helvetica,sans-Serif" font-size="10.00">thread/condition_variable.hpp</text>
</a>
</g>
</g>
<!-- Node1&#45;&gt;Node17 -->
<g id="edge40" class="edge">
<title>Node1&#45;&gt;Node17</title>
<path fill="none" stroke="midnightblue" d="M1045.35,-303.42C940.36,-299.14 721.68,-286.92 539.57,-255 463.77,-241.71 377.21,-216.41 329.64,-201.6"/>
<polygon fill="midnightblue" stroke="midnightblue" points="330.41,-198.17 319.82,-198.51 328.31,-204.85 330.41,-198.17"/>
</g>
<!-- Node18 -->
<g id="node18" class="node">
<title>Node18</title>
<g id="a_node18"><a xlink:title=" ">
<polygon fill="white" stroke="#bfbfbf" points="392.57,-179.5 392.57,-198.5 496.57,-198.5 496.57,-179.5 392.57,-179.5"/>
<text text-anchor="middle" x="444.57" y="-186.5" font-family="Helvetica,sans-Serif" font-size="10.00">thread/mutex.hpp</text>
</a>
</g>
</g>
<!-- Node1&#45;&gt;Node18 -->
<g id="edge41" class="edge">
<title>Node1&#45;&gt;Node18</title>
<path fill="none" stroke="midnightblue" d="M1045.43,-305.11C948.98,-303.22 758.05,-294.29 601.57,-255 553.29,-242.88 500.45,-218.5 470.03,-203.28"/>
<polygon fill="midnightblue" stroke="midnightblue" points="471.48,-200.09 460.98,-198.69 468.32,-206.34 471.48,-200.09"/>
</g>
<!-- Node19 -->
<g id="node19" class="node">
<title>Node19</title>
<g id="a_node19"><a xlink:title=" ">
<polygon fill="white" stroke="#bfbfbf" points="514.57,-179.5 514.57,-198.5 618.57,-198.5 618.57,-179.5 514.57,-179.5"/>
<text text-anchor="middle" x="566.57" y="-186.5" font-family="Helvetica,sans-Serif" font-size="10.00">thread/thread.hpp</text>
</a>
</g>
</g>
<!-- Node1&#45;&gt;Node19 -->
<g id="edge42" class="edge">
<title>Node1&#45;&gt;Node19</title>
<path fill="none" stroke="midnightblue" d="M1045.54,-303.95C933.94,-300.34 704.26,-288.91 632.57,-255 609.73,-244.19 590.06,-222.16 578.27,-206.75"/>
<polygon fill="midnightblue" stroke="midnightblue" points="581.02,-204.58 572.28,-198.59 575.38,-208.72 581.02,-204.58"/>
</g>
<!-- Node21 -->
<g id="node21" class="node">
<title>Node21</title>
<g id="a_node21"><a xlink:href="logger_8hpp.html" target="_top" xlink:title=" ">
<polygon fill="white" stroke="black" points="1093.57,-179.5 1093.57,-198.5 1161.57,-198.5 1161.57,-179.5 1093.57,-179.5"/>
<text text-anchor="middle" x="1127.57" y="-186.5" font-family="Helvetica,sans-Serif" font-size="10.00">logger.hpp</text>
</a>
</g>
</g>
<!-- Node1&#45;&gt;Node21 -->
<g id="edge24" class="edge">
<title>Node1&#45;&gt;Node21</title>
<path fill="none" stroke="midnightblue" d="M1110.03,-291.34C1113.63,-270.53 1120.36,-231.66 1124.35,-208.58"/>
<polygon fill="midnightblue" stroke="midnightblue" points="1127.81,-209.12 1126.07,-198.67 1120.92,-207.93 1127.81,-209.12"/>
</g>
<!-- Node22 -->
<g id="node22" class="node">
<title>Node22</title>
<g id="a_node22"><a xlink:title=" ">
<polygon fill="white" stroke="#bfbfbf" points="1255.57,-118 1255.57,-137 1323.57,-137 1323.57,-118 1255.57,-118"/>
<text text-anchor="middle" x="1289.57" y="-125" font-family="Helvetica,sans-Serif" font-size="10.00">sys/time.h</text>
</a>
</g>
</g>
<!-- Node1&#45;&gt;Node22 -->
<g id="edge46" class="edge">
<title>Node1&#45;&gt;Node22</title>
<path fill="none" stroke="midnightblue" d="M1122.16,-291.31C1155.58,-258.81 1237.54,-179.1 1272.89,-144.72"/>
<polygon fill="midnightblue" stroke="midnightblue" points="1275.72,-146.86 1280.45,-137.37 1270.84,-141.84 1275.72,-146.86"/>
</g>
<!-- Node27 -->
<g id="node27" class="node">
<title>Node27</title>
<g id="a_node27"><a xlink:href="serv__exception_8hpp.html" target="_top" xlink:title=" ">
<polygon fill="white" stroke="black" points="912.57,-235.5 912.57,-254.5 1024.57,-254.5 1024.57,-235.5 912.57,-235.5"/>
<text text-anchor="middle" x="968.57" y="-242.5" font-family="Helvetica,sans-Serif" font-size="10.00">serv_exception.hpp</text>
</a>
</g>
</g>
<!-- Node1&#45;&gt;Node27 -->
<g id="edge33" class="edge">
<title>Node1&#45;&gt;Node27</title>
<path fill="none" stroke="midnightblue" d="M1074.63,-291.4C1051.41,-281.46 1020.59,-268.26 998.15,-258.66"/>
<polygon fill="midnightblue" stroke="midnightblue" points="999.37,-255.38 988.8,-254.66 996.61,-261.81 999.37,-255.38"/>
</g>
<!-- Node29 -->
<g id="node29" class="node">
<title>Node29</title>
<g id="a_node29"><a xlink:title=" ">
<polygon fill="white" stroke="#bfbfbf" points="1010.07,-179.5 1010.07,-198.5 1075.07,-198.5 1075.07,-179.5 1010.07,-179.5"/>
<text text-anchor="middle" x="1042.57" y="-186.5" font-family="Helvetica,sans-Serif" font-size="10.00">exception</text>
</a>
</g>
</g>
<!-- Node1&#45;&gt;Node29 -->
<g id="edge50" class="edge">
<title>Node1&#45;&gt;Node29</title>
<path fill="none" stroke="midnightblue" d="M1099.6,-291.34C1087.73,-270.24 1065.42,-230.6 1052.5,-207.65"/>
<polygon fill="midnightblue" stroke="midnightblue" points="1055.41,-205.67 1047.45,-198.67 1049.31,-209.1 1055.41,-205.67"/>
</g>
<!-- Node30 -->
<g id="node30" class="node">
<title>Node30</title>
<g id="a_node30"><a xlink:title=" ">
<polygon fill="white" stroke="#bfbfbf" points="1456.07,-235.5 1456.07,-254.5 1525.07,-254.5 1525.07,-235.5 1456.07,-235.5"/>
<text text-anchor="middle" x="1490.57" y="-242.5" font-family="Helvetica,sans-Serif" font-size="10.00">sys/epoll.h</text>
</a>
</g>
</g>
<!-- Node1&#45;&gt;Node30 -->
<g id="edge43" class="edge">
<title>Node1&#45;&gt;Node30</title>
<path fill="none" stroke="midnightblue" d="M1169.84,-296.69C1236.99,-287.04 1347,-270.83 1441.57,-255 1443.04,-254.75 1444.53,-254.5 1446.03,-254.24"/>
<polygon fill="midnightblue" stroke="midnightblue" points="1446.82,-257.66 1456.06,-252.48 1445.61,-250.76 1446.82,-257.66"/>
</g>
<!-- Node31 -->
<g id="node31" class="node">
<title>Node31</title>
<g id="a_node31"><a xlink:title=" ">
<polygon fill="white" stroke="#bfbfbf" points="1543.07,-235.5 1543.07,-254.5 1626.07,-254.5 1626.07,-235.5 1543.07,-235.5"/>
<text text-anchor="middle" x="1584.57" y="-242.5" font-family="Helvetica,sans-Serif" font-size="10.00">sys/eventfd.h</text>
</a>
</g>
</g>
<!-- Node1&#45;&gt;Node31 -->
<g id="edge44" class="edge">
<title>Node1&#45;&gt;Node31</title>
<path fill="none" stroke="midnightblue" d="M1169.6,-299.35C1250.8,-291.04 1397.78,-275.08 1532.75,-255.2"/>
<polygon fill="midnightblue" stroke="midnightblue" points="1533.48,-258.63 1542.86,-253.7 1532.46,-251.71 1533.48,-258.63"/>
</g>
<!-- Node32 -->
<g id="node32" class="node">
<title>Node32</title>
<g id="a_node32"><a xlink:title=" ">
<polygon fill="white" stroke="#bfbfbf" points="1644.07,-235.5 1644.07,-254.5 1721.07,-254.5 1721.07,-235.5 1644.07,-235.5"/>
<text text-anchor="middle" x="1682.57" y="-242.5" font-family="Helvetica,sans-Serif" font-size="10.00">sys/socket.h</text>
</a>
</g>
</g>
<!-- Node1&#45;&gt;Node32 -->
<g id="edge45" class="edge">
<title>Node1&#45;&gt;Node32</title>
<path fill="none" stroke="midnightblue" d="M1169.57,-301.46C1266.58,-294.73 1460.29,-279.62 1633.81,-255.14"/>
<polygon fill="midnightblue" stroke="midnightblue" points="1634.49,-258.58 1643.89,-253.7 1633.5,-251.65 1634.49,-258.58"/>
</g>
<!-- Node33 -->
<g id="node33" class="node">
<title>Node33</title>
<g id="a_node33"><a xlink:title=" ">
<polygon fill="white" stroke="#bfbfbf" points="1739.57,-235.5 1739.57,-254.5 1795.57,-254.5 1795.57,-235.5 1739.57,-235.5"/>
<text text-anchor="middle" x="1767.57" y="-242.5" font-family="Helvetica,sans-Serif" font-size="10.00">unistd.h</text>
</a>
</g>
</g>
<!-- Node1&#45;&gt;Node33 -->
<g id="edge47" class="edge">
<title>Node1&#45;&gt;Node33</title>
<path fill="none" stroke="midnightblue" d="M1169.86,-303.7C1280.68,-299.79 1519.41,-288.17 1729.41,-254.94"/>
<polygon fill="midnightblue" stroke="midnightblue" points="1730.06,-258.38 1739.38,-253.34 1728.96,-251.47 1730.06,-258.38"/>
</g>
<!-- Node34 -->
<g id="node34" class="node">
<title>Node34</title>
<g id="a_node34"><a xlink:title=" ">
<polygon fill="white" stroke="#bfbfbf" points="1813.57,-235.5 1813.57,-254.5 1877.57,-254.5 1877.57,-235.5 1813.57,-235.5"/>
<text text-anchor="middle" x="1845.57" y="-242.5" font-family="Helvetica,sans-Serif" font-size="10.00">algorithm</text>
</a>
</g>
</g>
<!-- Node1&#45;&gt;Node34 -->
<g id="edge48" class="edge">
<title>Node1&#45;&gt;Node34</title>
<path fill="none" stroke="midnightblue" d="M1169.9,-303.99C1290.53,-300.4 1564.33,-289.1 1803.5,-254.95"/>
<polygon fill="midnightblue" stroke="midnightblue" points="1804.03,-258.41 1813.42,-253.51 1803.03,-251.48 1804.03,-258.41"/>
</g>
<!-- Node2&#45;&gt;Node3 -->
<g id="edge2" class="edge">
<title>Node2&#45;&gt;Node3</title>
<path fill="none" stroke="midnightblue" d="M345.19,-237.81C423.52,-228.41 572.97,-210.47 664.89,-199.44"/>
<polygon fill="midnightblue" stroke="midnightblue" points="665.47,-202.9 674.98,-198.23 664.64,-195.95 665.47,-202.9"/>
</g>
<!-- Node2&#45;&gt;Node5 -->
<g id="edge16" class="edge">
<title>Node2&#45;&gt;Node5</title>
<path fill="none" stroke="midnightblue" d="M242.04,-243.28C170.04,-241.05 44.94,-232.35 16.57,-199 10.81,-192.23 12.1,-186.68 16.57,-179 77.6,-74.17 476.01,-65.7 624.72,-66.25"/>
<polygon fill="midnightblue" stroke="midnightblue" points="624.97,-69.75 634.99,-66.3 625,-62.75 624.97,-69.75"/>
</g>
<!-- Node2&#45;&gt;Node13 -->
<g id="edge18" class="edge">
<title>Node2&#45;&gt;Node13</title>
<path fill="none" stroke="midnightblue" d="M241.93,-242.84C172.69,-240.07 55.33,-230.69 28.57,-199 -5.79,-158.31 69.23,-141.05 133.8,-133.76"/>
<polygon fill="midnightblue" stroke="midnightblue" points="134.48,-137.21 144.06,-132.68 133.75,-130.25 134.48,-137.21"/>
</g>
<!-- Node16 -->
<g id="node16" class="node">
<title>Node16</title>
<g id="a_node16"><a xlink:href="task__base_8hpp.html" target="_top" xlink:title=" ">
<polygon fill="white" stroke="black" points="38.07,-179.5 38.07,-198.5 125.07,-198.5 125.07,-179.5 38.07,-179.5"/>
<text text-anchor="middle" x="81.57" y="-186.5" font-family="Helvetica,sans-Serif" font-size="10.00">task_base.hpp</text>
</a>
</g>
</g>
<!-- Node2&#45;&gt;Node16 -->
<g id="edge17" class="edge">
<title>Node2&#45;&gt;Node16</title>
<path fill="none" stroke="midnightblue" d="M259.98,-235.44C223.39,-226.12 164.73,-211.18 124.75,-201"/>
<polygon fill="midnightblue" stroke="midnightblue" points="125.56,-197.59 115.01,-198.52 123.83,-204.38 125.56,-197.59"/>
</g>
<!-- Node2&#45;&gt;Node17 -->
<g id="edge19" class="edge">
<title>Node2&#45;&gt;Node17</title>
<path fill="none" stroke="midnightblue" d="M293.57,-235.08C293.57,-228.01 293.57,-217.86 293.57,-208.99"/>
<polygon fill="midnightblue" stroke="midnightblue" points="297.07,-208.75 293.57,-198.75 290.07,-208.75 297.07,-208.75"/>
</g>
<!-- Node2&#45;&gt;Node18 -->
<g id="edge20" class="edge">
<title>Node2&#45;&gt;Node18</title>
<path fill="none" stroke="midnightblue" d="M317.5,-235.44C342.79,-226.4 382.87,-212.06 411.25,-201.92"/>
<polygon fill="midnightblue" stroke="midnightblue" points="412.52,-205.18 420.76,-198.52 410.16,-198.59 412.52,-205.18"/>
</g>
<!-- Node2&#45;&gt;Node19 -->
<g id="edge21" class="edge">
<title>Node2&#45;&gt;Node19</title>
<path fill="none" stroke="midnightblue" d="M336.83,-235.44C384.75,-225.96 462.05,-210.67 513.57,-200.48"/>
<polygon fill="midnightblue" stroke="midnightblue" points="514.39,-203.89 523.52,-198.52 513.03,-197.02 514.39,-203.89"/>
</g>
<!-- Node20 -->
<g id="node20" class="node">
<title>Node20</title>
<g id="a_node20"><a xlink:title=" ">
<polygon fill="white" stroke="#bfbfbf" points="143.07,-179.5 143.07,-198.5 194.07,-198.5 194.07,-179.5 143.07,-179.5"/>
<text text-anchor="middle" x="168.57" y="-186.5" font-family="Helvetica,sans-Serif" font-size="10.00">csignal</text>
</a>
</g>
</g>
<!-- Node2&#45;&gt;Node20 -->
<g id="edge22" class="edge">
<title>Node2&#45;&gt;Node20</title>
<path fill="none" stroke="midnightblue" d="M273.77,-235.44C253.29,-226.6 221.09,-212.69 197.71,-202.59"/>
<polygon fill="midnightblue" stroke="midnightblue" points="198.85,-199.27 188.29,-198.52 196.08,-205.7 198.85,-199.27"/>
</g>
<!-- Node4 -->
<g id="node4" class="node">
<title>Node4</title>
<g id="a_node4"><a xlink:href="byte__buffer_8hpp.html" target="_top" xlink:title=" ">
<polygon fill="white" stroke="black" points="721.57,-118 721.57,-137 813.57,-137 813.57,-118 721.57,-118"/>
<text text-anchor="middle" x="767.57" y="-125" font-family="Helvetica,sans-Serif" font-size="10.00">byte_buffer.hpp</text>
</a>
</g>
</g>
<!-- Node3&#45;&gt;Node4 -->
<g id="edge3" class="edge">
<title>Node3&#45;&gt;Node4</title>
<path fill="none" stroke="midnightblue" d="M747.01,-179.48C750.47,-170.9 755.9,-157.43 760.32,-146.48"/>
<polygon fill="midnightblue" stroke="midnightblue" points="763.65,-147.59 764.14,-137.01 757.15,-144.97 763.65,-147.59"/>
</g>
<!-- Node3&#45;&gt;Node5 -->
<g id="edge11" class="edge">
<title>Node3&#45;&gt;Node5</title>
<path fill="none" stroke="midnightblue" d="M697.22,-179.47C676.5,-173.1 653.99,-162.05 641.57,-143 628.56,-123.03 647.25,-98.19 662.97,-82.45"/>
<polygon fill="midnightblue" stroke="midnightblue" points="665.44,-84.94 670.3,-75.52 660.63,-79.85 665.44,-84.94"/>
</g>
<!-- Node12 -->
<g id="node12" class="node">
<title>Node12</title>
<g id="a_node12"><a xlink:title=" ">
<polygon fill="white" stroke="#bfbfbf" points="301.57,-112.5 301.57,-142.5 439.57,-142.5 439.57,-112.5 301.57,-112.5"/>
<text text-anchor="start" x="309.57" y="-130.5" font-family="Helvetica,sans-Serif" font-size="10.00">smart_ptr/enable_shared</text>
<text text-anchor="middle" x="370.57" y="-119.5" font-family="Helvetica,sans-Serif" font-size="10.00">_from_this.hpp</text>
</a>
</g>
</g>
<!-- Node3&#45;&gt;Node12 -->
<g id="edge12" class="edge">
<title>Node3&#45;&gt;Node12</title>
<path fill="none" stroke="midnightblue" d="M683.87,-179.47C626.43,-171.14 536.87,-157.8 449.91,-143.2"/>
<polygon fill="midnightblue" stroke="midnightblue" points="450.32,-139.72 439.87,-141.5 449.15,-146.62 450.32,-139.72"/>
</g>
<!-- Node3&#45;&gt;Node13 -->
<g id="edge13" class="edge">
<title>Node3&#45;&gt;Node13</title>
<path fill="none" stroke="midnightblue" d="M674.74,-180.48C669.94,-179.97 665.19,-179.48 660.57,-179 497.1,-162.14 455.31,-165.85 292.57,-143 284.14,-141.82 275.23,-140.37 266.55,-138.86"/>
<polygon fill="midnightblue" stroke="midnightblue" points="266.98,-135.38 256.52,-137.06 265.74,-142.27 266.98,-135.38"/>
</g>
<!-- Node14 -->
<g id="node14" class="node">
<title>Node14</title>
<g id="a_node14"><a xlink:title=" ">
<polygon fill="white" stroke="#bfbfbf" points="457.57,-118 457.57,-137 589.57,-137 589.57,-118 457.57,-118"/>
<text text-anchor="middle" x="523.57" y="-125" font-family="Helvetica,sans-Serif" font-size="10.00">smart_ptr/weak_ptr.hpp</text>
</a>
</g>
</g>
<!-- Node3&#45;&gt;Node14 -->
<g id="edge14" class="edge">
<title>Node3&#45;&gt;Node14</title>
<path fill="none" stroke="midnightblue" d="M712.05,-179.48C673.33,-169 607.55,-151.21 564.84,-139.66"/>
<polygon fill="midnightblue" stroke="midnightblue" points="565.6,-136.24 555.03,-137.01 563.77,-143 565.6,-136.24"/>
</g>
<!-- Node3&#45;&gt;Node15 -->
<g id="edge15" class="edge">
<title>Node3&#45;&gt;Node15</title>
<path fill="none" stroke="midnightblue" d="M759.33,-179.48C777.55,-169.62 807.75,-153.29 829.04,-141.77"/>
<polygon fill="midnightblue" stroke="midnightblue" points="830.71,-144.85 837.84,-137.01 827.38,-138.69 830.71,-144.85"/>
</g>
<!-- Node4&#45;&gt;Node5 -->
<g id="edge4" class="edge">
<title>Node4&#45;&gt;Node5</title>
<path fill="none" stroke="midnightblue" d="M755.11,-117.98C741.15,-108.43 718.31,-92.81 701.58,-81.37"/>
<polygon fill="midnightblue" stroke="midnightblue" points="703.24,-78.27 693.01,-75.51 699.29,-84.04 703.24,-78.27"/>
</g>
<!-- Node4&#45;&gt;Node10 -->
<g id="edge9" class="edge">
<title>Node4&#45;&gt;Node10</title>
<path fill="none" stroke="midnightblue" d="M796.79,-117.94C805.07,-115.75 814.13,-113.57 822.57,-112 957.19,-86.92 1119.78,-74.04 1191.07,-69.25"/>
<polygon fill="midnightblue" stroke="midnightblue" points="1191.57,-72.72 1201.32,-68.57 1191.11,-65.74 1191.57,-72.72"/>
</g>
<!-- Node11 -->
<g id="node11" class="node">
<title>Node11</title>
<g id="a_node11"><a xlink:title=" ">
<polygon fill="white" stroke="#bfbfbf" points="755.57,-56.5 755.57,-75.5 805.57,-75.5 805.57,-56.5 755.57,-56.5"/>
<text text-anchor="middle" x="780.57" y="-63.5" font-family="Helvetica,sans-Serif" font-size="10.00">cstring</text>
</a>
</g>
</g>
<!-- Node4&#45;&gt;Node11 -->
<g id="edge10" class="edge">
<title>Node4&#45;&gt;Node11</title>
<path fill="none" stroke="midnightblue" d="M769.44,-117.98C771.29,-109.49 774.19,-96.2 776.57,-85.32"/>
<polygon fill="midnightblue" stroke="midnightblue" points="780,-86.03 778.71,-75.51 773.16,-84.53 780,-86.03"/>
</g>
<!-- Node6 -->
<g id="node6" class="node">
<title>Node6</title>
<g id="a_node6"><a xlink:title=" ">
<polygon fill="white" stroke="#bfbfbf" points="628.07,-0.5 628.07,-19.5 675.07,-19.5 675.07,-0.5 628.07,-0.5"/>
<text text-anchor="middle" x="651.57" y="-7.5" font-family="Helvetica,sans-Serif" font-size="10.00">deque</text>
</a>
</g>
</g>
<!-- Node5&#45;&gt;Node6 -->
<g id="edge5" class="edge">
<title>Node5&#45;&gt;Node6</title>
<path fill="none" stroke="midnightblue" d="M675.78,-56.08C671.81,-48.69 666.05,-37.95 661.14,-28.81"/>
<polygon fill="midnightblue" stroke="midnightblue" points="664.09,-26.91 656.27,-19.75 657.92,-30.22 664.09,-26.91"/>
</g>
<!-- Node5&#45;&gt;Node7 -->
<g id="edge6" class="edge">
<title>Node5&#45;&gt;Node7</title>
<path fill="none" stroke="midnightblue" d="M726.25,-58.59C806.25,-47.37 969.55,-24.47 1036.22,-15.12"/>
<polygon fill="midnightblue" stroke="midnightblue" points="1037.01,-18.54 1046.43,-13.68 1036.04,-11.61 1037.01,-18.54"/>
</g>
<!-- Node8 -->
<g id="node8" class="node">
<title>Node8</title>
<g id="a_node8"><a xlink:title=" ">
<polygon fill="white" stroke="#bfbfbf" points="693.57,-0.5 693.57,-19.5 725.57,-19.5 725.57,-0.5 693.57,-0.5"/>
<text text-anchor="middle" x="709.57" y="-7.5" font-family="Helvetica,sans-Serif" font-size="10.00">set</text>
</a>
</g>
</g>
<!-- Node5&#45;&gt;Node8 -->
<g id="edge7" class="edge">
<title>Node5&#45;&gt;Node8</title>
<path fill="none" stroke="midnightblue" d="M685.36,-56.08C689.33,-48.69 695.1,-37.95 700.01,-28.81"/>
<polygon fill="midnightblue" stroke="midnightblue" points="703.23,-30.22 704.87,-19.75 697.06,-26.91 703.23,-30.22"/>
</g>
<!-- Node5&#45;&gt;Node9 -->
<g id="edge8" class="edge">
<title>Node5&#45;&gt;Node9</title>
<path fill="none" stroke="midnightblue" d="M726.34,-58.45C733.11,-57.57 740.02,-56.72 746.57,-56 934.19,-35.27 1160.03,-19 1244,-13.25"/>
<polygon fill="midnightblue" stroke="midnightblue" points="1244.24,-16.74 1253.98,-12.57 1243.76,-9.76 1244.24,-16.74"/>
</g>
<!-- Node21&#45;&gt;Node5 -->
<g id="edge25" class="edge">
<title>Node21&#45;&gt;Node5</title>
<path fill="none" stroke="midnightblue" d="M1093.37,-180.49C1090.4,-179.94 1087.44,-179.44 1084.57,-179 1002.47,-166.47 779.47,-192.22 712.57,-143 694.32,-129.57 686.41,-103.7 683.02,-85.91"/>
<polygon fill="midnightblue" stroke="midnightblue" points="686.45,-85.15 681.42,-75.82 679.53,-86.25 686.45,-85.15"/>
</g>
<!-- Node21&#45;&gt;Node10 -->
<g id="edge32" class="edge">
<title>Node21&#45;&gt;Node10</title>
<path fill="none" stroke="midnightblue" d="M1154.72,-179.36C1172.58,-172.31 1195.06,-160.61 1208.57,-143 1221.22,-126.52 1225.54,-102.65 1226.96,-86.07"/>
<polygon fill="midnightblue" stroke="midnightblue" points="1230.47,-86.13 1227.56,-75.94 1223.48,-85.72 1230.47,-86.13"/>
</g>
<!-- Node21&#45;&gt;Node15 -->
<g id="edge31" class="edge">
<title>Node21&#45;&gt;Node15</title>
<path fill="none" stroke="midnightblue" d="M1093.42,-180.58C1040.14,-169.01 937.95,-146.82 885.84,-135.51"/>
<polygon fill="midnightblue" stroke="midnightblue" points="886.33,-132.03 875.82,-133.33 884.85,-138.87 886.33,-132.03"/>
</g>
<!-- Node21&#45;&gt;Node22 -->
<g id="edge26" class="edge">
<title>Node21&#45;&gt;Node22</title>
<path fill="none" stroke="midnightblue" d="M1150.78,-179.48C1178.57,-169.27 1225.3,-152.11 1256.77,-140.55"/>
<polygon fill="midnightblue" stroke="midnightblue" points="1258.22,-143.74 1266.41,-137.01 1255.81,-137.17 1258.22,-143.74"/>
</g>
<!-- Node23 -->
<g id="node23" class="node">
<title>Node23</title>
<g id="a_node23"><a xlink:title=" ">
<polygon fill="white" stroke="#bfbfbf" points="932.07,-118 932.07,-137 985.07,-137 985.07,-118 932.07,-118"/>
<text text-anchor="middle" x="958.57" y="-125" font-family="Helvetica,sans-Serif" font-size="10.00">cstdarg</text>
</a>
</g>
</g>
<!-- Node21&#45;&gt;Node23 -->
<g id="edge27" class="edge">
<title>Node21&#45;&gt;Node23</title>
<path fill="none" stroke="midnightblue" d="M1100.92,-179.47C1073.96,-170.73 1031.15,-156.54 994.57,-143 992.72,-142.32 990.83,-141.6 988.92,-140.86"/>
<polygon fill="midnightblue" stroke="midnightblue" points="990.02,-137.54 979.43,-137.14 987.46,-144.05 990.02,-137.54"/>
</g>
<!-- Node24 -->
<g id="node24" class="node">
<title>Node24</title>
<g id="a_node24"><a xlink:title=" ">
<polygon fill="white" stroke="#bfbfbf" points="1003.57,-118 1003.57,-137 1047.57,-137 1047.57,-118 1003.57,-118"/>
<text text-anchor="middle" x="1025.57" y="-125" font-family="Helvetica,sans-Serif" font-size="10.00">ctime</text>
</a>
</g>
</g>
<!-- Node21&#45;&gt;Node24 -->
<g id="edge28" class="edge">
<title>Node21&#45;&gt;Node24</title>
<path fill="none" stroke="midnightblue" d="M1112.96,-179.48C1096.22,-169.71 1068.57,-153.58 1048.85,-142.08"/>
<polygon fill="midnightblue" stroke="midnightblue" points="1050.56,-139.02 1040.16,-137.01 1047.03,-145.07 1050.56,-139.02"/>
</g>
<!-- Node25 -->
<g id="node25" class="node">
<title>Node25</title>
<g id="a_node25"><a xlink:title=" ">
<polygon fill="white" stroke="#bfbfbf" points="1065.57,-118 1065.57,-137 1125.57,-137 1125.57,-118 1065.57,-118"/>
<text text-anchor="middle" x="1095.57" y="-125" font-family="Helvetica,sans-Serif" font-size="10.00">iostream</text>
</a>
</g>
</g>
<!-- Node21&#45;&gt;Node25 -->
<g id="edge29" class="edge">
<title>Node21&#45;&gt;Node25</title>
<path fill="none" stroke="midnightblue" d="M1122.99,-179.48C1118.33,-170.82 1110.98,-157.15 1105.06,-146.15"/>
<polygon fill="midnightblue" stroke="midnightblue" points="1107.97,-144.16 1100.15,-137.01 1101.8,-147.47 1107.97,-144.16"/>
</g>
<!-- Node26 -->
<g id="node26" class="node">
<title>Node26</title>
<g id="a_node26"><a xlink:title=" ">
<polygon fill="white" stroke="#bfbfbf" points="1143.57,-118 1143.57,-137 1199.57,-137 1199.57,-118 1143.57,-118"/>
<text text-anchor="middle" x="1171.57" y="-125" font-family="Helvetica,sans-Serif" font-size="10.00">sstream</text>
</a>
</g>
</g>
<!-- Node21&#45;&gt;Node26 -->
<g id="edge30" class="edge">
<title>Node21&#45;&gt;Node26</title>
<path fill="none" stroke="midnightblue" d="M1133.88,-179.48C1140.48,-170.55 1151.01,-156.31 1159.27,-145.14"/>
<polygon fill="midnightblue" stroke="midnightblue" points="1162.15,-147.13 1165.28,-137.01 1156.52,-142.97 1162.15,-147.13"/>
</g>
<!-- Node27&#45;&gt;Node5 -->
<g id="edge34" class="edge">
<title>Node27&#45;&gt;Node5</title>
<path fill="none" stroke="midnightblue" d="M951.28,-235.29C924.16,-221.89 869.74,-195.96 821.57,-179 763,-158.38 726.31,-190.71 686.57,-143 673.5,-127.3 674.01,-102.9 676.48,-86"/>
<polygon fill="midnightblue" stroke="midnightblue" points="680,-86.16 678.35,-75.7 673.12,-84.91 680,-86.16"/>
</g>
<!-- Node27&#45;&gt;Node11 -->
<g id="edge36" class="edge">
<title>Node27&#45;&gt;Node11</title>
<path fill="none" stroke="midnightblue" d="M961.99,-235.18C955.36,-226.21 944.96,-211.84 936.57,-199 911.94,-161.28 918.43,-141.71 884.57,-112 864.79,-94.64 837.27,-83.13 815.51,-76.1"/>
<polygon fill="midnightblue" stroke="midnightblue" points="816.25,-72.67 805.66,-73.09 814.2,-79.36 816.25,-72.67"/>
</g>
<!-- Node28 -->
<g id="node28" class="node">
<title>Node28</title>
<g id="a_node28"><a xlink:title=" ">
<polygon fill="white" stroke="#bfbfbf" points="945.07,-179.5 945.07,-198.5 992.07,-198.5 992.07,-179.5 945.07,-179.5"/>
<text text-anchor="middle" x="968.57" y="-186.5" font-family="Helvetica,sans-Serif" font-size="10.00">cerrno</text>
</a>
</g>
</g>
<!-- Node27&#45;&gt;Node28 -->
<g id="edge35" class="edge">
<title>Node27&#45;&gt;Node28</title>
<path fill="none" stroke="midnightblue" d="M968.57,-235.08C968.57,-228.01 968.57,-217.86 968.57,-208.99"/>
<polygon fill="midnightblue" stroke="midnightblue" points="972.07,-208.75 968.57,-198.75 965.07,-208.75 972.07,-208.75"/>
</g>
<!-- Node27&#45;&gt;Node29 -->
<g id="edge37" class="edge">
<title>Node27&#45;&gt;Node29</title>
<path fill="none" stroke="midnightblue" d="M980.46,-235.32C991.72,-227.11 1008.86,-214.6 1022.28,-204.81"/>
<polygon fill="midnightblue" stroke="midnightblue" points="1024.45,-207.56 1030.47,-198.83 1020.33,-201.9 1024.45,-207.56"/>
</g>
</g>
</svg>
        <g id="navigator" transform="translate(0 0)" fill="#404254">
                <rect fill="#f2f5e9" fill-opacity="0.5" stroke="#606060" stroke-width=".5" x="0" y="0" width="60" height="60"/>
                <use id="zoomplus" xlink:href="#zoomPlus" x="17" y="9" onmousedown="handleZoom(evt,'in')"/>
                <use id="zoomminus" xlink:href="#zoomMin" x="42" y="9" onmousedown="handleZoom(evt,'out')"/>
                <use id="reset" xlink:href="#resetDef" x="30" y="36" onmousedown="handleReset()"/>
                <g id="arrowUp" xlink:href="#dirArrow" transform="translate(30 24)" onmousedown="handlePan(0,-1)">
                  <use xlink:href="#rim" fill="#404040">
                        <set attributeName="fill" to="#808080" begin="arrowUp.mouseover" end="arrowUp.mouseout"/>
                  </use>
                  <path fill="none" stroke="white" stroke-width="1.5" d="M0,-3.0v7 M-2.5,-0.5L0,-3.0L2.5,-0.5"/>
                </g>
                <g id="arrowRight" xlink:href="#dirArrow" transform="rotate(90) translate(36 -43)" onmousedown="handlePan(1,0)">
                  <use xlink:href="#rim" fill="#404040">
                        <set attributeName="fill" to="#808080" begin="arrowRight.mouseover" end="arrowRight.mouseout"/>
                  </use>
                  <path fill="none" stroke="white" stroke-width="1.5" d="M0,-3.0v7 M-2.5,-0.5L0,-3.0L2.5,-0.5"/>
                </g>
                <g id="arrowDown" xlink:href="#dirArrow" transform="rotate(180) translate(-30 -48)" onmousedown="handlePan(0,1)">
                  <use xlink:href="#rim" fill="#404040">
                        <set attributeName="fill" to="#808080" begin="arrowDown.mouseover" end="arrowDown.mouseout"/>
                  </use>
                  <path fill="none" stroke="white" stroke-width="1.5" d="M0,-3.0v7 M-2.5,-0.5L0,-3.0L2.5,-0.5"/>
                </g>
                <g id="arrowLeft" xlink:href="#dirArrow" transform="rotate(270) translate(-36 17)" onmousedown="handlePan(-1,0)">
                  <use xlink:href="#rim" fill="#404040">
                        <set attributeName="fill" to="#808080" begin="arrowLeft.mouseover" end="arrowLeft.mouseout"/>
                  </use>
                  <path fill="none" stroke="white" stroke-width="1.5" d="M0,-3.0v7 M-2.5,-0.5L0,-3.0L2.5,-0.5"/>
                </g>
        </g>
        <svg viewBox="0 0 15 15" width="100%" height="30px" preserveAspectRatio="xMaxYMin meet">
         <g id="arrow_out" transform="scale(0.3 0.3)">
          <a xlink:href="event__worker_8epoll_8cpp__incl_org.svg" target="_base">
           <rect id="button" ry="5" rx="5" y="6" x="6" height="38" width="38"
                fill="#f2f5e9" fill-opacity="0.5" stroke="#606060" stroke-width="1.0"/>
           <path id="arrow"
             d="M 11.500037,31.436501 C 11.940474,20.09759 22.043105,11.32322 32.158766,21.979434 L 37.068811,17.246167 C 37.068811,17.246167 37.088388,32 37.088388,32 L 22.160133,31.978069 C 22.160133,31.978069 26.997745,27.140456 26.997745,27.140456 C 18.528582,18.264221 13.291696,25.230495 11.500037,31.436501 z"
             style="fill:#404040;"/>
          </a>
         </g>
        </svg>
</svg>
