<?xml version="1.0" encoding="UTF-8" standalone="no"?>
<!DOCTYPE svg PUBLIC "-//W3C//DTD SVG 1.1//EN"
 "http://www.w3.org/Graphics/SVG/1.1/DTD/svg11.dtd">
<!-- Generated by graphviz version 2.43.0 (0)
 -->
<!-- Title: includes/libserv/event_channel_base.cpp Pages: 1 -->
<svg width="2428pt" height="330pt"
 viewBox="0.00 0.00 2428.00 330.00" xmlns="http://www.w3.org/2000/svg" xmlns:xlink="http://www.w3.org/1999/xlink">
<g id="graph0" class="graph" transform="scale(1 1) rotate(0) translate(4 326)">
<title>includes/libserv/event_channel_base.cpp</title>
<polygon fill="white" stroke="transparent" points="-4,4 -4,-326 2424,-326 2424,4 -4,4"/>
<!-- Node1 -->
<g id="node1" class="node">
<title>Node1</title>
<g id="a_node1"><a xlink:title=" ">
<polygon fill="#bfbfbf" stroke="black" points="1229.5,-291.5 1229.5,-321.5 1353.5,-321.5 1353.5,-291.5 1229.5,-291.5"/>
<text text-anchor="start" x="1237.5" y="-309.5" font-family="Helvetica,sans-Serif" font-size="10.00">includes/libserv/event</text>
<text text-anchor="middle" x="1291.5" y="-298.5" font-family="Helvetica,sans-Serif" font-size="10.00">_channel_base.cpp</text>
</a>
</g>
</g>
<!-- Node2 -->
<g id="node2" class="node">
<title>Node2</title>
<g id="a_node2"><a xlink:href="event__channel__base_8hpp.html" target="_top" xlink:title=" ">
<polygon fill="white" stroke="black" points="534,-179.5 534,-198.5 671,-198.5 671,-179.5 534,-179.5"/>
<text text-anchor="middle" x="602.5" y="-186.5" font-family="Helvetica,sans-Serif" font-size="10.00">event_channel_base.hpp</text>
</a>
</g>
</g>
<!-- Node1&#45;&gt;Node2 -->
<g id="edge1" class="edge">
<title>Node1&#45;&gt;Node2</title>
<path fill="none" stroke="midnightblue" d="M1229.29,-304.81C1095.23,-302.59 783.29,-293.35 685.5,-255 658.22,-244.3 632.6,-221.56 617.23,-206.03"/>
<polygon fill="midnightblue" stroke="midnightblue" points="619.62,-203.46 610.18,-198.66 614.57,-208.31 619.62,-203.46"/>
</g>
<!-- Node3 -->
<g id="node3" class="node">
<title>Node3</title>
<g id="a_node3"><a xlink:href="byte__buffer_8hpp.html" target="_top" xlink:title=" ">
<polygon fill="white" stroke="black" points="747.5,-118 747.5,-137 839.5,-137 839.5,-118 747.5,-118"/>
<text text-anchor="middle" x="793.5" y="-125" font-family="Helvetica,sans-Serif" font-size="10.00">byte_buffer.hpp</text>
</a>
</g>
</g>
<!-- Node1&#45;&gt;Node3 -->
<g id="edge15" class="edge">
<title>Node1&#45;&gt;Node3</title>
<path fill="none" stroke="midnightblue" d="M1289.72,-291.2C1285.52,-264.2 1272.33,-206.02 1234.5,-179 1164.4,-128.93 933.33,-158.03 848.5,-143 843.09,-142.04 837.44,-140.82 831.9,-139.48"/>
<polygon fill="midnightblue" stroke="midnightblue" points="832.69,-136.07 822.13,-137 830.96,-142.86 832.69,-136.07"/>
</g>
<!-- Node4 -->
<g id="node4" class="node">
<title>Node4</title>
<g id="a_node4"><a xlink:href="serv__types_8hpp.html" target="_top" xlink:title=" ">
<polygon fill="white" stroke="black" points="884,-56.5 884,-75.5 975,-75.5 975,-56.5 884,-56.5"/>
<text text-anchor="middle" x="929.5" y="-63.5" font-family="Helvetica,sans-Serif" font-size="10.00">serv_types.hpp</text>
</a>
</g>
</g>
<!-- Node1&#45;&gt;Node4 -->
<g id="edge46" class="edge">
<title>Node1&#45;&gt;Node4</title>
<path fill="none" stroke="midnightblue" d="M1332.85,-291.44C1415.6,-261.27 1587.92,-186.93 1518.5,-112 1482.72,-73.38 1125.32,-67.76 985.32,-67.05"/>
<polygon fill="midnightblue" stroke="midnightblue" points="985.24,-63.55 975.23,-67.01 985.21,-70.55 985.24,-63.55"/>
</g>
<!-- Node9 -->
<g id="node9" class="node">
<title>Node9</title>
<g id="a_node9"><a xlink:title=" ">
<polygon fill="white" stroke="#bfbfbf" points="463.5,-56.5 463.5,-75.5 515.5,-75.5 515.5,-56.5 463.5,-56.5"/>
<text text-anchor="middle" x="489.5" y="-63.5" font-family="Helvetica,sans-Serif" font-size="10.00">cassert</text>
</a>
</g>
</g>
<!-- Node1&#45;&gt;Node9 -->
<g id="edge67" class="edge">
<title>Node1&#45;&gt;Node9</title>
<path fill="none" stroke="midnightblue" d="M1229.43,-305.11C1050.14,-303.51 533.92,-295.43 370.5,-255 254.67,-226.34 190.91,-243.44 126.5,-143 119.06,-131.4 117.38,-122.32 126.5,-112 147.94,-87.74 365.63,-73.57 453.25,-68.81"/>
<polygon fill="midnightblue" stroke="midnightblue" points="453.47,-72.31 463.27,-68.28 453.1,-65.32 453.47,-72.31"/>
</g>
<!-- Node12 -->
<g id="node12" class="node">
<title>Node12</title>
<g id="a_node12"><a xlink:title=" ">
<polygon fill="white" stroke="#bfbfbf" points="0,-56.5 0,-75.5 139,-75.5 139,-56.5 0,-56.5"/>
<text text-anchor="middle" x="69.5" y="-63.5" font-family="Helvetica,sans-Serif" font-size="10.00">smart_ptr/shared_ptr.hpp</text>
</a>
</g>
</g>
<!-- Node1&#45;&gt;Node12 -->
<g id="edge66" class="edge">
<title>Node1&#45;&gt;Node12</title>
<path fill="none" stroke="midnightblue" d="M1229.34,-305.7C1036.45,-305.8 450.08,-302.11 266.5,-255 169.69,-230.16 118.82,-231.03 71.5,-143 61.95,-125.24 63.09,-101.62 65.56,-85.45"/>
<polygon fill="midnightblue" stroke="midnightblue" points="69,-86.08 67.36,-75.61 62.11,-84.82 69,-86.08"/>
</g>
<!-- Node14 -->
<g id="node14" class="node">
<title>Node14</title>
<g id="a_node14"><a xlink:title=" ">
<polygon fill="white" stroke="#bfbfbf" points="857.5,-118 857.5,-137 901.5,-137 901.5,-118 857.5,-118"/>
<text text-anchor="middle" x="879.5" y="-125" font-family="Helvetica,sans-Serif" font-size="10.00">string</text>
</a>
</g>
</g>
<!-- Node1&#45;&gt;Node14 -->
<g id="edge71" class="edge">
<title>Node1&#45;&gt;Node14</title>
<path fill="none" stroke="midnightblue" d="M1229.27,-304.37C1093.08,-300.35 776.16,-282.07 718.5,-199 669.27,-128.07 698.36,-198.46 848.5,-143 849.93,-142.47 851.38,-141.91 852.84,-141.31"/>
<polygon fill="midnightblue" stroke="midnightblue" points="854.58,-144.37 862.34,-137.15 851.77,-137.96 854.58,-144.37"/>
</g>
<!-- Node15 -->
<g id="node15" class="node">
<title>Node15</title>
<g id="a_node15"><a xlink:href="event__handler__base_8hpp.html" target="_top" xlink:title=" ">
<polygon fill="white" stroke="black" points="135.5,-118 135.5,-137 271.5,-137 271.5,-118 135.5,-118"/>
<text text-anchor="middle" x="203.5" y="-125" font-family="Helvetica,sans-Serif" font-size="10.00">event_handler_base.hpp</text>
</a>
</g>
</g>
<!-- Node1&#45;&gt;Node15 -->
<g id="edge16" class="edge">
<title>Node1&#45;&gt;Node15</title>
<path fill="none" stroke="midnightblue" d="M1229.18,-304.56C1099.09,-301.89 789.37,-291.87 532.5,-255 418.93,-238.7 382.27,-251.98 280.5,-199 254.76,-185.6 231.1,-161.39 216.99,-145.13"/>
<polygon fill="midnightblue" stroke="midnightblue" points="219.64,-142.84 210.51,-137.45 214.28,-147.35 219.64,-142.84"/>
</g>
<!-- Node17 -->
<g id="node17" class="node">
<title>Node17</title>
<g id="a_node17"><a xlink:href="event__layer_8hpp.html" target="_top" xlink:title=" ">
<polygon fill="white" stroke="black" points="290,-179.5 290,-198.5 385,-198.5 385,-179.5 290,-179.5"/>
<text text-anchor="middle" x="337.5" y="-186.5" font-family="Helvetica,sans-Serif" font-size="10.00">event_layer.hpp</text>
</a>
</g>
</g>
<!-- Node1&#45;&gt;Node17 -->
<g id="edge20" class="edge">
<title>Node1&#45;&gt;Node17</title>
<path fill="none" stroke="midnightblue" d="M1229.49,-303.29C1114.33,-298.59 859.81,-285.45 647.5,-255 551.53,-241.23 440.72,-215.6 381.03,-200.97"/>
<polygon fill="midnightblue" stroke="midnightblue" points="381.74,-197.55 371.19,-198.55 380.06,-204.34 381.74,-197.55"/>
</g>
<!-- Node18 -->
<g id="node18" class="node">
<title>Node18</title>
<g id="a_node18"><a xlink:href="event__worker_8hpp.html" target="_top" xlink:title=" ">
<polygon fill="white" stroke="black" points="878,-235.5 878,-254.5 981,-254.5 981,-235.5 878,-235.5"/>
<text text-anchor="middle" x="929.5" y="-242.5" font-family="Helvetica,sans-Serif" font-size="10.00">event_worker.hpp</text>
</a>
</g>
</g>
<!-- Node1&#45;&gt;Node18 -->
<g id="edge27" class="edge">
<title>Node1&#45;&gt;Node18</title>
<path fill="none" stroke="midnightblue" d="M1229.27,-295.27C1162.64,-284.32 1057.58,-267.05 991.17,-256.14"/>
<polygon fill="midnightblue" stroke="midnightblue" points="991.7,-252.68 981.26,-254.51 990.56,-259.58 991.7,-252.68"/>
</g>
<!-- Node24 -->
<g id="node24" class="node">
<title>Node24</title>
<g id="a_node24"><a xlink:href="logger_8hpp.html" target="_top" xlink:title=" ">
<polygon fill="white" stroke="black" points="1319.5,-179.5 1319.5,-198.5 1387.5,-198.5 1387.5,-179.5 1319.5,-179.5"/>
<text text-anchor="middle" x="1353.5" y="-186.5" font-family="Helvetica,sans-Serif" font-size="10.00">logger.hpp</text>
</a>
</g>
</g>
<!-- Node1&#45;&gt;Node24 -->
<g id="edge36" class="edge">
<title>Node1&#45;&gt;Node24</title>
<path fill="none" stroke="midnightblue" d="M1299.1,-291.34C1310.43,-270.24 1331.71,-230.6 1344.03,-207.65"/>
<polygon fill="midnightblue" stroke="midnightblue" points="1347.2,-209.14 1348.85,-198.67 1341.03,-205.82 1347.2,-209.14"/>
</g>
<!-- Node29 -->
<g id="node29" class="node">
<title>Node29</title>
<g id="a_node29"><a xlink:title=" ">
<polygon fill="white" stroke="#bfbfbf" points="1453.5,-118 1453.5,-137 1509.5,-137 1509.5,-118 1453.5,-118"/>
<text text-anchor="middle" x="1481.5" y="-125" font-family="Helvetica,sans-Serif" font-size="10.00">sstream</text>
</a>
</g>
</g>
<!-- Node1&#45;&gt;Node29 -->
<g id="edge69" class="edge">
<title>Node1&#45;&gt;Node29</title>
<path fill="none" stroke="midnightblue" d="M1306.73,-291.31C1341.77,-258.67 1427.9,-178.43 1464.55,-144.29"/>
<polygon fill="midnightblue" stroke="midnightblue" points="1467.04,-146.75 1471.97,-137.37 1462.27,-141.63 1467.04,-146.75"/>
</g>
<!-- Node30 -->
<g id="node30" class="node">
<title>Node30</title>
<g id="a_node30"><a xlink:href="socket__utils_8hpp.html" target="_top" xlink:title=" ">
<polygon fill="white" stroke="black" points="1733,-179.5 1733,-198.5 1828,-198.5 1828,-179.5 1733,-179.5"/>
<text text-anchor="middle" x="1780.5" y="-186.5" font-family="Helvetica,sans-Serif" font-size="10.00">socket_utils.hpp</text>
</a>
</g>
</g>
<!-- Node1&#45;&gt;Node30 -->
<g id="edge47" class="edge">
<title>Node1&#45;&gt;Node30</title>
<path fill="none" stroke="midnightblue" d="M1353.54,-294.98C1406.42,-285.64 1484.3,-271.03 1551.5,-255 1619.89,-238.68 1698.52,-215.35 1743.58,-201.53"/>
<polygon fill="midnightblue" stroke="midnightblue" points="1744.68,-204.85 1753.2,-198.56 1742.62,-198.16 1744.68,-204.85"/>
</g>
<!-- Node40 -->
<g id="node40" class="node">
<title>Node40</title>
<g id="a_node40"><a xlink:title=" ">
<polygon fill="white" stroke="#bfbfbf" points="2355,-118 2355,-137 2420,-137 2420,-118 2355,-118"/>
<text text-anchor="middle" x="2387.5" y="-125" font-family="Helvetica,sans-Serif" font-size="10.00">stdexcept</text>
</a>
</g>
</g>
<!-- Node1&#45;&gt;Node40 -->
<g id="edge70" class="edge">
<title>Node1&#45;&gt;Node40</title>
<path fill="none" stroke="midnightblue" d="M1353.56,-297.5C1549.72,-271.95 2154.76,-191.22 2346.5,-143 2349.55,-142.23 2352.69,-141.33 2355.82,-140.36"/>
<polygon fill="midnightblue" stroke="midnightblue" points="2357.22,-143.58 2365.6,-137.1 2355.01,-136.94 2357.22,-143.58"/>
</g>
<!-- Node41 -->
<g id="node41" class="node">
<title>Node41</title>
<g id="a_node41"><a xlink:title=" ">
<polygon fill="white" stroke="#bfbfbf" points="1885,-235.5 1885,-254.5 2038,-254.5 2038,-235.5 1885,-235.5"/>
<text text-anchor="middle" x="1961.5" y="-242.5" font-family="Helvetica,sans-Serif" font-size="10.00">smart_ptr/make_shared.hpp</text>
</a>
</g>
</g>
<!-- Node1&#45;&gt;Node41 -->
<g id="edge65" class="edge">
<title>Node1&#45;&gt;Node41</title>
<path fill="none" stroke="midnightblue" d="M1353.64,-300.32C1459.68,-291.42 1682.37,-272.51 1870.5,-255 1871.79,-254.88 1873.09,-254.76 1874.4,-254.64"/>
<polygon fill="midnightblue" stroke="midnightblue" points="1874.93,-258.1 1884.55,-253.67 1874.27,-251.13 1874.93,-258.1"/>
</g>
<!-- Node42 -->
<g id="node42" class="node">
<title>Node42</title>
<g id="a_node42"><a xlink:title=" ">
<polygon fill="white" stroke="#bfbfbf" points="2056.5,-235.5 2056.5,-254.5 2112.5,-254.5 2112.5,-235.5 2056.5,-235.5"/>
<text text-anchor="middle" x="2084.5" y="-242.5" font-family="Helvetica,sans-Serif" font-size="10.00">iomanip</text>
</a>
</g>
</g>
<!-- Node1&#45;&gt;Node42 -->
<g id="edge68" class="edge">
<title>Node1&#45;&gt;Node42</title>
<path fill="none" stroke="midnightblue" d="M1353.63,-304.95C1481.68,-303.05 1784.22,-294.53 2046.23,-254.93"/>
<polygon fill="midnightblue" stroke="midnightblue" points="2046.96,-258.36 2056.32,-253.38 2045.9,-251.44 2046.96,-258.36"/>
</g>
<!-- Node2&#45;&gt;Node3 -->
<g id="edge2" class="edge">
<title>Node2&#45;&gt;Node3</title>
<path fill="none" stroke="midnightblue" d="M629.87,-179.48C663.05,-169.14 719.15,-151.66 756.26,-140.1"/>
<polygon fill="midnightblue" stroke="midnightblue" points="757.68,-143.32 766.19,-137.01 755.6,-136.64 757.68,-143.32"/>
</g>
<!-- Node2&#45;&gt;Node4 -->
<g id="edge10" class="edge">
<title>Node2&#45;&gt;Node4</title>
<path fill="none" stroke="midnightblue" d="M625.52,-179.37C645.93,-171.27 676.19,-158.15 700.5,-143 719,-131.47 718.95,-121.63 738.5,-112 781.37,-90.88 834.61,-79.39 873.99,-73.32"/>
<polygon fill="midnightblue" stroke="midnightblue" points="874.55,-76.78 883.94,-71.86 873.53,-69.85 874.55,-76.78"/>
</g>
<!-- Node11 -->
<g id="node11" class="node">
<title>Node11</title>
<g id="a_node11"><a xlink:title=" ">
<polygon fill="white" stroke="#bfbfbf" points="553.5,-112.5 553.5,-142.5 691.5,-142.5 691.5,-112.5 553.5,-112.5"/>
<text text-anchor="start" x="561.5" y="-130.5" font-family="Helvetica,sans-Serif" font-size="10.00">smart_ptr/enable_shared</text>
<text text-anchor="middle" x="622.5" y="-119.5" font-family="Helvetica,sans-Serif" font-size="10.00">_from_this.hpp</text>
</a>
</g>
</g>
<!-- Node2&#45;&gt;Node11 -->
<g id="edge11" class="edge">
<title>Node2&#45;&gt;Node11</title>
<path fill="none" stroke="midnightblue" d="M605.37,-179.48C607.77,-172.32 611.32,-161.75 614.57,-152.08"/>
<polygon fill="midnightblue" stroke="midnightblue" points="617.92,-153.12 617.79,-142.52 611.28,-150.89 617.92,-153.12"/>
</g>
<!-- Node2&#45;&gt;Node12 -->
<g id="edge12" class="edge">
<title>Node2&#45;&gt;Node12</title>
<path fill="none" stroke="midnightblue" d="M591.32,-179.45C579.59,-170.46 560.66,-155.85 544.5,-143 527.44,-129.43 526.63,-120.36 506.5,-112 443.89,-86.01 257.52,-74.42 149.45,-69.76"/>
<polygon fill="midnightblue" stroke="midnightblue" points="149.38,-66.25 139.24,-69.33 149.09,-73.25 149.38,-66.25"/>
</g>
<!-- Node13 -->
<g id="node13" class="node">
<title>Node13</title>
<g id="a_node13"><a xlink:title=" ">
<polygon fill="white" stroke="#bfbfbf" points="365.5,-118 365.5,-137 497.5,-137 497.5,-118 365.5,-118"/>
<text text-anchor="middle" x="431.5" y="-125" font-family="Helvetica,sans-Serif" font-size="10.00">smart_ptr/weak_ptr.hpp</text>
</a>
</g>
</g>
<!-- Node2&#45;&gt;Node13 -->
<g id="edge13" class="edge">
<title>Node2&#45;&gt;Node13</title>
<path fill="none" stroke="midnightblue" d="M578,-179.48C548.54,-169.22 498.92,-151.96 465.7,-140.4"/>
<polygon fill="midnightblue" stroke="midnightblue" points="466.55,-136.99 455.95,-137.01 464.25,-143.6 466.55,-136.99"/>
</g>
<!-- Node2&#45;&gt;Node14 -->
<g id="edge14" class="edge">
<title>Node2&#45;&gt;Node14</title>
<path fill="none" stroke="midnightblue" d="M671.26,-180.23C721.24,-173.43 790.08,-161.66 848.5,-143 850.17,-142.47 851.87,-141.86 853.57,-141.21"/>
<polygon fill="midnightblue" stroke="midnightblue" points="855.27,-144.29 863.08,-137.13 852.51,-137.86 855.27,-144.29"/>
</g>
<!-- Node3&#45;&gt;Node4 -->
<g id="edge3" class="edge">
<title>Node3&#45;&gt;Node4</title>
<path fill="none" stroke="midnightblue" d="M812.99,-117.98C835.91,-107.95 874.19,-91.2 900.58,-79.65"/>
<polygon fill="midnightblue" stroke="midnightblue" points="902.29,-82.72 910.05,-75.51 899.49,-76.31 902.29,-82.72"/>
</g>
<!-- Node3&#45;&gt;Node9 -->
<g id="edge8" class="edge">
<title>Node3&#45;&gt;Node9</title>
<path fill="none" stroke="midnightblue" d="M747.14,-118.76C695.43,-109.91 609.09,-94.49 525.72,-76.16"/>
<polygon fill="midnightblue" stroke="midnightblue" points="526.35,-72.72 515.83,-73.97 524.83,-79.55 526.35,-72.72"/>
</g>
<!-- Node10 -->
<g id="node10" class="node">
<title>Node10</title>
<g id="a_node10"><a xlink:title=" ">
<polygon fill="white" stroke="#bfbfbf" points="2046.5,-56.5 2046.5,-75.5 2096.5,-75.5 2096.5,-56.5 2046.5,-56.5"/>
<text text-anchor="middle" x="2071.5" y="-63.5" font-family="Helvetica,sans-Serif" font-size="10.00">cstring</text>
</a>
</g>
</g>
<!-- Node3&#45;&gt;Node10 -->
<g id="edge9" class="edge">
<title>Node3&#45;&gt;Node10</title>
<path fill="none" stroke="midnightblue" d="M820.95,-117.99C829.67,-115.63 839.42,-113.35 848.5,-112 1086.53,-76.69 1860.78,-68.64 2036.02,-67.25"/>
<polygon fill="midnightblue" stroke="midnightblue" points="2036.26,-70.75 2046.23,-67.17 2036.2,-63.75 2036.26,-70.75"/>
</g>
<!-- Node5 -->
<g id="node5" class="node">
<title>Node5</title>
<g id="a_node5"><a xlink:title=" ">
<polygon fill="white" stroke="#bfbfbf" points="818,-0.5 818,-19.5 865,-19.5 865,-0.5 818,-0.5"/>
<text text-anchor="middle" x="841.5" y="-7.5" font-family="Helvetica,sans-Serif" font-size="10.00">deque</text>
</a>
</g>
</g>
<!-- Node4&#45;&gt;Node5 -->
<g id="edge4" class="edge">
<title>Node4&#45;&gt;Node5</title>
<path fill="none" stroke="midnightblue" d="M915.36,-56.32C901.63,-47.9 880.56,-34.97 864.44,-25.07"/>
<polygon fill="midnightblue" stroke="midnightblue" points="865.96,-21.9 855.6,-19.65 862.3,-27.87 865.96,-21.9"/>
</g>
<!-- Node6 -->
<g id="node6" class="node">
<title>Node6</title>
<g id="a_node6"><a xlink:title=" ">
<polygon fill="white" stroke="#bfbfbf" points="883.5,-0.5 883.5,-19.5 921.5,-19.5 921.5,-0.5 883.5,-0.5"/>
<text text-anchor="middle" x="902.5" y="-7.5" font-family="Helvetica,sans-Serif" font-size="10.00">map</text>
</a>
</g>
</g>
<!-- Node4&#45;&gt;Node6 -->
<g id="edge5" class="edge">
<title>Node4&#45;&gt;Node6</title>
<path fill="none" stroke="midnightblue" d="M925.04,-56.08C921.35,-48.69 915.98,-37.95 911.41,-28.81"/>
<polygon fill="midnightblue" stroke="midnightblue" points="914.48,-27.13 906.88,-19.75 908.22,-30.26 914.48,-27.13"/>
</g>
<!-- Node7 -->
<g id="node7" class="node">
<title>Node7</title>
<g id="a_node7"><a xlink:title=" ">
<polygon fill="white" stroke="#bfbfbf" points="939.5,-0.5 939.5,-19.5 971.5,-19.5 971.5,-0.5 939.5,-0.5"/>
<text text-anchor="middle" x="955.5" y="-7.5" font-family="Helvetica,sans-Serif" font-size="10.00">set</text>
</a>
</g>
</g>
<!-- Node4&#45;&gt;Node7 -->
<g id="edge6" class="edge">
<title>Node4&#45;&gt;Node7</title>
<path fill="none" stroke="midnightblue" d="M933.79,-56.08C937.35,-48.69 942.52,-37.95 946.92,-28.81"/>
<polygon fill="midnightblue" stroke="midnightblue" points="950.1,-30.28 951.29,-19.75 943.79,-27.24 950.1,-30.28"/>
</g>
<!-- Node8 -->
<g id="node8" class="node">
<title>Node8</title>
<g id="a_node8"><a xlink:title=" ">
<polygon fill="white" stroke="#bfbfbf" points="990,-0.5 990,-19.5 1037,-19.5 1037,-0.5 990,-0.5"/>
<text text-anchor="middle" x="1013.5" y="-7.5" font-family="Helvetica,sans-Serif" font-size="10.00">vector</text>
</a>
</g>
</g>
<!-- Node4&#45;&gt;Node8 -->
<g id="edge7" class="edge">
<title>Node4&#45;&gt;Node8</title>
<path fill="none" stroke="midnightblue" d="M943,-56.32C956.1,-47.9 976.21,-34.97 991.61,-25.07"/>
<polygon fill="midnightblue" stroke="midnightblue" points="993.52,-28.01 1000.04,-19.65 989.73,-22.12 993.52,-28.01"/>
</g>
<!-- Node15&#45;&gt;Node4 -->
<g id="edge17" class="edge">
<title>Node15&#45;&gt;Node4</title>
<path fill="none" stroke="midnightblue" d="M269.46,-117.98C287.01,-115.86 305.96,-113.71 323.5,-112 525.72,-92.29 766.64,-76.77 873.59,-70.29"/>
<polygon fill="midnightblue" stroke="midnightblue" points="874.06,-73.77 883.83,-69.67 873.63,-66.78 874.06,-73.77"/>
</g>
<!-- Node15&#45;&gt;Node12 -->
<g id="edge18" class="edge">
<title>Node15&#45;&gt;Node12</title>
<path fill="none" stroke="midnightblue" d="M184.3,-117.98C161.71,-107.95 124,-91.2 98,-79.65"/>
<polygon fill="midnightblue" stroke="midnightblue" points="99.22,-76.37 88.66,-75.51 96.38,-82.77 99.22,-76.37"/>
</g>
<!-- Node16 -->
<g id="node16" class="node">
<title>Node16</title>
<g id="a_node16"><a xlink:title=" ">
<polygon fill="white" stroke="#bfbfbf" points="534,-56.5 534,-75.5 599,-75.5 599,-56.5 534,-56.5"/>
<text text-anchor="middle" x="566.5" y="-63.5" font-family="Helvetica,sans-Serif" font-size="10.00">exception</text>
</a>
</g>
</g>
<!-- Node15&#45;&gt;Node16 -->
<g id="edge19" class="edge">
<title>Node15&#45;&gt;Node16</title>
<path fill="none" stroke="midnightblue" d="M250.73,-117.94C262.11,-115.93 274.23,-113.85 285.5,-112 388.4,-95.15 417.15,-95.24 524.08,-75.97"/>
<polygon fill="midnightblue" stroke="midnightblue" points="524.77,-79.41 533.98,-74.18 523.52,-72.52 524.77,-79.41"/>
</g>
<!-- Node17&#45;&gt;Node4 -->
<g id="edge22" class="edge">
<title>Node17&#45;&gt;Node4</title>
<path fill="none" stroke="midnightblue" d="M336.73,-179.29C335.84,-163.18 336.56,-128.86 356.5,-112 395.39,-79.1 736.75,-70.06 873.35,-67.74"/>
<polygon fill="midnightblue" stroke="midnightblue" points="873.66,-71.24 883.6,-67.57 873.55,-64.24 873.66,-71.24"/>
</g>
<!-- Node17&#45;&gt;Node12 -->
<g id="edge23" class="edge">
<title>Node17&#45;&gt;Node12</title>
<path fill="none" stroke="midnightblue" d="M289.9,-187.25C244.62,-184.48 176.21,-174.77 126.5,-143 104.2,-128.74 87.45,-102.49 78.07,-84.89"/>
<polygon fill="midnightblue" stroke="midnightblue" points="81.04,-83.02 73.4,-75.68 74.8,-86.18 81.04,-83.02"/>
</g>
<!-- Node17&#45;&gt;Node13 -->
<g id="edge24" class="edge">
<title>Node17&#45;&gt;Node13</title>
<path fill="none" stroke="midnightblue" d="M350.97,-179.48C366.18,-169.84 391.19,-154.02 409.3,-142.55"/>
<polygon fill="midnightblue" stroke="midnightblue" points="411.48,-145.31 418.06,-137.01 407.74,-139.4 411.48,-145.31"/>
</g>
<!-- Node17&#45;&gt;Node14 -->
<g id="edge26" class="edge">
<title>Node17&#45;&gt;Node14</title>
<path fill="none" stroke="midnightblue" d="M385.34,-185.92C495.02,-180.8 761.85,-166.3 848.5,-143 850.44,-142.48 852.4,-141.84 854.35,-141.13"/>
<polygon fill="midnightblue" stroke="midnightblue" points="855.97,-144.25 863.81,-137.13 853.24,-137.8 855.97,-144.25"/>
</g>
<!-- Node17&#45;&gt;Node15 -->
<g id="edge21" class="edge">
<title>Node17&#45;&gt;Node15</title>
<path fill="none" stroke="midnightblue" d="M318.3,-179.48C295.71,-169.45 258,-152.7 232,-141.15"/>
<polygon fill="midnightblue" stroke="midnightblue" points="233.22,-137.87 222.66,-137.01 230.38,-144.27 233.22,-137.87"/>
</g>
<!-- Node17&#45;&gt;Node16 -->
<g id="edge25" class="edge">
<title>Node17&#45;&gt;Node16</title>
<path fill="none" stroke="midnightblue" d="M331.93,-179.35C322.78,-163.94 307.14,-131.55 323.5,-112 350.91,-79.24 465.39,-84.02 523.75,-75.79"/>
<polygon fill="midnightblue" stroke="midnightblue" points="524.67,-79.18 533.96,-74.09 523.52,-72.28 524.67,-79.18"/>
</g>
<!-- Node18&#45;&gt;Node2 -->
<g id="edge28" class="edge">
<title>Node18&#45;&gt;Node2</title>
<path fill="none" stroke="midnightblue" d="M877.69,-235.44C819.68,-225.87 725.76,-210.36 664.06,-200.17"/>
<polygon fill="midnightblue" stroke="midnightblue" points="664.51,-196.69 654.07,-198.52 663.37,-203.6 664.51,-196.69"/>
</g>
<!-- Node18&#45;&gt;Node4 -->
<g id="edge29" class="edge">
<title>Node18&#45;&gt;Node4</title>
<path fill="none" stroke="midnightblue" d="M929.5,-235.46C929.5,-208.43 929.5,-124.24 929.5,-86.11"/>
<polygon fill="midnightblue" stroke="midnightblue" points="933,-85.87 929.5,-75.87 926,-85.87 933,-85.87"/>
</g>
<!-- Node18&#45;&gt;Node12 -->
<g id="edge31" class="edge">
<title>Node18&#45;&gt;Node12</title>
<path fill="none" stroke="midnightblue" d="M877.71,-244.23C767.1,-243.9 500.01,-238.64 280.5,-199 194.28,-183.43 153.25,-205.14 91.5,-143 76.47,-127.88 71.58,-103.16 70.06,-86.04"/>
<polygon fill="midnightblue" stroke="midnightblue" points="73.53,-85.39 69.46,-75.61 66.54,-85.8 73.53,-85.39"/>
</g>
<!-- Node19 -->
<g id="node19" class="node">
<title>Node19</title>
<g id="a_node19"><a xlink:href="task__base_8hpp.html" target="_top" xlink:title=" ">
<polygon fill="white" stroke="black" points="958,-179.5 958,-198.5 1045,-198.5 1045,-179.5 958,-179.5"/>
<text text-anchor="middle" x="1001.5" y="-186.5" font-family="Helvetica,sans-Serif" font-size="10.00">task_base.hpp</text>
</a>
</g>
</g>
<!-- Node18&#45;&gt;Node19 -->
<g id="edge30" class="edge">
<title>Node18&#45;&gt;Node19</title>
<path fill="none" stroke="midnightblue" d="M941.07,-235.32C951.92,-227.18 968.38,-214.84 981.38,-205.09"/>
<polygon fill="midnightblue" stroke="midnightblue" points="983.82,-207.63 989.72,-198.83 979.62,-202.03 983.82,-207.63"/>
</g>
<!-- Node20 -->
<g id="node20" class="node">
<title>Node20</title>
<g id="a_node20"><a xlink:title=" ">
<polygon fill="white" stroke="#bfbfbf" points="1063.5,-179.5 1063.5,-198.5 1225.5,-198.5 1225.5,-179.5 1063.5,-179.5"/>
<text text-anchor="middle" x="1144.5" y="-186.5" font-family="Helvetica,sans-Serif" font-size="10.00">thread/condition_variable.hpp</text>
</a>
</g>
</g>
<!-- Node18&#45;&gt;Node20 -->
<g id="edge32" class="edge">
<title>Node18&#45;&gt;Node20</title>
<path fill="none" stroke="midnightblue" d="M963.57,-235.44C1000.68,-226.12 1060.16,-211.18 1100.71,-201"/>
<polygon fill="midnightblue" stroke="midnightblue" points="1101.75,-204.35 1110.59,-198.52 1100.04,-197.56 1101.75,-204.35"/>
</g>
<!-- Node21 -->
<g id="node21" class="node">
<title>Node21</title>
<g id="a_node21"><a xlink:title=" ">
<polygon fill="white" stroke="#bfbfbf" points="957.5,-118 957.5,-137 1061.5,-137 1061.5,-118 957.5,-118"/>
<text text-anchor="middle" x="1009.5" y="-125" font-family="Helvetica,sans-Serif" font-size="10.00">thread/mutex.hpp</text>
</a>
</g>
</g>
<!-- Node18&#45;&gt;Node21 -->
<g id="edge33" class="edge">
<title>Node18&#45;&gt;Node21</title>
<path fill="none" stroke="midnightblue" d="M981.31,-244.16C1059.62,-243.18 1202.41,-236.17 1234.5,-199 1240.31,-192.27 1240.05,-185.94 1234.5,-179 1233.8,-178.13 1124,-153.77 1058.07,-139.21"/>
<polygon fill="midnightblue" stroke="midnightblue" points="1058.8,-135.78 1048.28,-137.05 1057.29,-142.62 1058.8,-135.78"/>
</g>
<!-- Node22 -->
<g id="node22" class="node">
<title>Node22</title>
<g id="a_node22"><a xlink:title=" ">
<polygon fill="white" stroke="#bfbfbf" points="727.5,-179.5 727.5,-198.5 831.5,-198.5 831.5,-179.5 727.5,-179.5"/>
<text text-anchor="middle" x="779.5" y="-186.5" font-family="Helvetica,sans-Serif" font-size="10.00">thread/thread.hpp</text>
</a>
</g>
</g>
<!-- Node18&#45;&gt;Node22 -->
<g id="edge34" class="edge">
<title>Node18&#45;&gt;Node22</title>
<path fill="none" stroke="midnightblue" d="M905.73,-235.44C880.61,-226.4 840.79,-212.06 812.6,-201.92"/>
<polygon fill="midnightblue" stroke="midnightblue" points="813.75,-198.61 803.16,-198.52 811.38,-205.2 813.75,-198.61"/>
</g>
<!-- Node23 -->
<g id="node23" class="node">
<title>Node23</title>
<g id="a_node23"><a xlink:title=" ">
<polygon fill="white" stroke="#bfbfbf" points="850,-179.5 850,-198.5 901,-198.5 901,-179.5 850,-179.5"/>
<text text-anchor="middle" x="875.5" y="-186.5" font-family="Helvetica,sans-Serif" font-size="10.00">csignal</text>
</a>
</g>
</g>
<!-- Node18&#45;&gt;Node23 -->
<g id="edge35" class="edge">
<title>Node18&#45;&gt;Node23</title>
<path fill="none" stroke="midnightblue" d="M920.58,-235.08C912.72,-227.22 901.07,-215.57 891.58,-206.08"/>
<polygon fill="midnightblue" stroke="midnightblue" points="893.8,-203.35 884.25,-198.75 888.85,-208.3 893.8,-203.35"/>
</g>
<!-- Node24&#45;&gt;Node4 -->
<g id="edge37" class="edge">
<title>Node24&#45;&gt;Node4</title>
<path fill="none" stroke="midnightblue" d="M1366.84,-179.47C1388.2,-164.8 1425.73,-134.23 1405.5,-112 1377.68,-81.43 1104.96,-71.19 985.3,-68.15"/>
<polygon fill="midnightblue" stroke="midnightblue" points="985.32,-64.65 975.24,-67.9 985.15,-71.65 985.32,-64.65"/>
</g>
<!-- Node24&#45;&gt;Node9 -->
<g id="edge45" class="edge">
<title>Node24&#45;&gt;Node9</title>
<path fill="none" stroke="midnightblue" d="M1319.42,-181.59C1314.74,-180.72 1310,-179.83 1305.5,-179 1217.98,-162.8 1189.31,-180.31 1108.5,-143 1088.71,-133.86 1090.78,-119.98 1070.5,-112 960.23,-68.59 660.32,-93.86 525.92,-75.81"/>
<polygon fill="midnightblue" stroke="midnightblue" points="526.17,-72.31 515.76,-74.31 525.14,-79.24 526.17,-72.31"/>
</g>
<!-- Node24&#45;&gt;Node14 -->
<g id="edge44" class="edge">
<title>Node24&#45;&gt;Node14</title>
<path fill="none" stroke="midnightblue" d="M1319.47,-181.25C1314.79,-180.43 1310.03,-179.65 1305.5,-179 1147.65,-156.29 1106.09,-167.43 948.5,-143 936.46,-141.13 923.35,-138.53 911.83,-136.04"/>
<polygon fill="midnightblue" stroke="midnightblue" points="912.28,-132.55 901.76,-133.81 910.77,-139.39 912.28,-132.55"/>
</g>
<!-- Node24&#45;&gt;Node21 -->
<g id="edge38" class="edge">
<title>Node24&#45;&gt;Node21</title>
<path fill="none" stroke="midnightblue" d="M1319.43,-181.48C1314.76,-180.63 1310.01,-179.78 1305.5,-179 1203.53,-161.46 1177.19,-162.11 1075.5,-143 1069.3,-141.83 1062.78,-140.52 1056.37,-139.17"/>
<polygon fill="midnightblue" stroke="midnightblue" points="1056.93,-135.71 1046.42,-137.03 1055.46,-142.55 1056.93,-135.71"/>
</g>
<!-- Node25 -->
<g id="node25" class="node">
<title>Node25</title>
<g id="a_node25"><a xlink:title=" ">
<polygon fill="white" stroke="#bfbfbf" points="1257.5,-118 1257.5,-137 1325.5,-137 1325.5,-118 1257.5,-118"/>
<text text-anchor="middle" x="1291.5" y="-125" font-family="Helvetica,sans-Serif" font-size="10.00">sys/time.h</text>
</a>
</g>
</g>
<!-- Node24&#45;&gt;Node25 -->
<g id="edge39" class="edge">
<title>Node24&#45;&gt;Node25</title>
<path fill="none" stroke="midnightblue" d="M1344.62,-179.48C1335.04,-170.28 1319.59,-155.46 1307.81,-144.16"/>
<polygon fill="midnightblue" stroke="midnightblue" points="1310.01,-141.41 1300.37,-137.01 1305.16,-146.46 1310.01,-141.41"/>
</g>
<!-- Node26 -->
<g id="node26" class="node">
<title>Node26</title>
<g id="a_node26"><a xlink:title=" ">
<polygon fill="white" stroke="#bfbfbf" points="1344,-118 1344,-137 1397,-137 1397,-118 1344,-118"/>
<text text-anchor="middle" x="1370.5" y="-125" font-family="Helvetica,sans-Serif" font-size="10.00">cstdarg</text>
</a>
</g>
</g>
<!-- Node24&#45;&gt;Node26 -->
<g id="edge40" class="edge">
<title>Node24&#45;&gt;Node26</title>
<path fill="none" stroke="midnightblue" d="M1355.94,-179.48C1358.36,-170.99 1362.16,-157.7 1365.27,-146.82"/>
<polygon fill="midnightblue" stroke="midnightblue" points="1368.69,-147.59 1368.07,-137.01 1361.96,-145.66 1368.69,-147.59"/>
</g>
<!-- Node27 -->
<g id="node27" class="node">
<title>Node27</title>
<g id="a_node27"><a xlink:title=" ">
<polygon fill="white" stroke="#bfbfbf" points="1117.5,-118 1117.5,-137 1161.5,-137 1161.5,-118 1117.5,-118"/>
<text text-anchor="middle" x="1139.5" y="-125" font-family="Helvetica,sans-Serif" font-size="10.00">ctime</text>
</a>
</g>
</g>
<!-- Node24&#45;&gt;Node27 -->
<g id="edge41" class="edge">
<title>Node24&#45;&gt;Node27</title>
<path fill="none" stroke="midnightblue" d="M1319.19,-181.66C1281.97,-174.3 1221.1,-160.86 1170.5,-143 1168.88,-142.43 1167.23,-141.8 1165.59,-141.14"/>
<polygon fill="midnightblue" stroke="midnightblue" points="1166.87,-137.88 1156.3,-137.09 1164.07,-144.3 1166.87,-137.88"/>
</g>
<!-- Node28 -->
<g id="node28" class="node">
<title>Node28</title>
<g id="a_node28"><a xlink:title=" ">
<polygon fill="white" stroke="#bfbfbf" points="1179.5,-118 1179.5,-137 1239.5,-137 1239.5,-118 1179.5,-118"/>
<text text-anchor="middle" x="1209.5" y="-125" font-family="Helvetica,sans-Serif" font-size="10.00">iostream</text>
</a>
</g>
</g>
<!-- Node24&#45;&gt;Node28 -->
<g id="edge42" class="edge">
<title>Node24&#45;&gt;Node28</title>
<path fill="none" stroke="midnightblue" d="M1332.87,-179.48C1308.38,-169.36 1267.35,-152.4 1239.39,-140.85"/>
<polygon fill="midnightblue" stroke="midnightblue" points="1240.67,-137.59 1230.09,-137.01 1238,-144.06 1240.67,-137.59"/>
</g>
<!-- Node24&#45;&gt;Node29 -->
<g id="edge43" class="edge">
<title>Node24&#45;&gt;Node29</title>
<path fill="none" stroke="midnightblue" d="M1371.84,-179.48C1393.32,-169.49 1429.12,-152.85 1453.95,-141.31"/>
<polygon fill="midnightblue" stroke="midnightblue" points="1455.6,-144.4 1463.19,-137.01 1452.65,-138.05 1455.6,-144.4"/>
</g>
<!-- Node30&#45;&gt;Node4 -->
<g id="edge53" class="edge">
<title>Node30&#45;&gt;Node4</title>
<path fill="none" stroke="midnightblue" d="M1732.97,-181.7C1694.36,-175.37 1639.17,-163.54 1594.5,-143 1573.09,-133.16 1573.64,-120.04 1551.5,-112 1448.33,-74.52 1118.4,-68.18 985.63,-67.17"/>
<polygon fill="midnightblue" stroke="midnightblue" points="985.31,-63.66 975.29,-67.1 985.26,-70.66 985.31,-63.66"/>
</g>
<!-- Node30&#45;&gt;Node10 -->
<g id="edge61" class="edge">
<title>Node30&#45;&gt;Node10</title>
<path fill="none" stroke="midnightblue" d="M1828.19,-180.82C1833.02,-180.17 1837.86,-179.55 1842.5,-179 1886.16,-173.84 2206.86,-175.47 2236.5,-143 2245.79,-132.82 2244.86,-122.95 2236.5,-112 2235.49,-110.67 2154.58,-89.03 2106.45,-76.25"/>
<polygon fill="midnightblue" stroke="midnightblue" points="2107.28,-72.85 2096.72,-73.67 2105.49,-79.62 2107.28,-72.85"/>
</g>
<!-- Node30&#45;&gt;Node14 -->
<g id="edge64" class="edge">
<title>Node30&#45;&gt;Node14</title>
<path fill="none" stroke="midnightblue" d="M1732.79,-186.38C1579.69,-181.04 1101.87,-163.14 948.5,-143 936.42,-141.41 923.3,-138.87 911.78,-136.35"/>
<polygon fill="midnightblue" stroke="midnightblue" points="912.25,-132.87 901.73,-134.07 910.71,-139.7 912.25,-132.87"/>
</g>
<!-- Node30&#45;&gt;Node29 -->
<g id="edge62" class="edge">
<title>Node30&#45;&gt;Node29</title>
<path fill="none" stroke="midnightblue" d="M1737.66,-179.48C1679.29,-167.86 1575.64,-147.23 1519.76,-136.11"/>
<polygon fill="midnightblue" stroke="midnightblue" points="1520.39,-132.67 1509.9,-134.15 1519.02,-139.54 1520.39,-132.67"/>
</g>
<!-- Node31 -->
<g id="node31" class="node">
<title>Node31</title>
<g id="a_node31"><a xlink:href="serv__exception_8hpp.html" target="_top" xlink:title=" ">
<polygon fill="white" stroke="black" points="2049.5,-118 2049.5,-137 2161.5,-137 2161.5,-118 2049.5,-118"/>
<text text-anchor="middle" x="2105.5" y="-125" font-family="Helvetica,sans-Serif" font-size="10.00">serv_exception.hpp</text>
</a>
</g>
</g>
<!-- Node30&#45;&gt;Node31 -->
<g id="edge48" class="edge">
<title>Node30&#45;&gt;Node31</title>
<path fill="none" stroke="midnightblue" d="M1828.07,-180.47C1880.3,-172.04 1966.58,-157.63 2040.5,-143 2046.39,-141.83 2052.56,-140.55 2058.65,-139.23"/>
<polygon fill="midnightblue" stroke="midnightblue" points="2059.76,-142.57 2068.78,-137.01 2058.27,-135.73 2059.76,-142.57"/>
</g>
<!-- Node33 -->
<g id="node33" class="node">
<title>Node33</title>
<g id="a_node33"><a xlink:title=" ">
<polygon fill="white" stroke="#bfbfbf" points="2180,-118 2180,-137 2227,-137 2227,-118 2180,-118"/>
<text text-anchor="middle" x="2203.5" y="-125" font-family="Helvetica,sans-Serif" font-size="10.00">fcntl.h</text>
</a>
</g>
</g>
<!-- Node30&#45;&gt;Node33 -->
<g id="edge54" class="edge">
<title>Node30&#45;&gt;Node33</title>
<path fill="none" stroke="midnightblue" d="M1828.2,-180.9C1833.03,-180.24 1837.86,-179.59 1842.5,-179 1987.98,-160.46 2028.84,-180.94 2170.5,-143 2172.8,-142.39 2175.14,-141.63 2177.46,-140.8"/>
<polygon fill="midnightblue" stroke="midnightblue" points="2178.77,-144.04 2186.73,-137.05 2176.15,-137.55 2178.77,-144.04"/>
</g>
<!-- Node34 -->
<g id="node34" class="node">
<title>Node34</title>
<g id="a_node34"><a xlink:title=" ">
<polygon fill="white" stroke="#bfbfbf" points="2284,-118 2284,-137 2337,-137 2337,-118 2284,-118"/>
<text text-anchor="middle" x="2310.5" y="-125" font-family="Helvetica,sans-Serif" font-size="10.00">netdb.h</text>
</a>
</g>
</g>
<!-- Node30&#45;&gt;Node34 -->
<g id="edge55" class="edge">
<title>Node30&#45;&gt;Node34</title>
<path fill="none" stroke="midnightblue" d="M1828.19,-180.78C1833.02,-180.14 1837.85,-179.53 1842.5,-179 2031.71,-157.31 2083.31,-183.08 2269.5,-143 2272.93,-142.26 2276.46,-141.32 2279.94,-140.26"/>
<polygon fill="midnightblue" stroke="midnightblue" points="2281.13,-143.55 2289.52,-137.08 2278.93,-136.91 2281.13,-143.55"/>
</g>
<!-- Node35 -->
<g id="node35" class="node">
<title>Node35</title>
<g id="a_node35"><a xlink:title=" ">
<polygon fill="white" stroke="#bfbfbf" points="1603.5,-118 1603.5,-137 1675.5,-137 1675.5,-118 1603.5,-118"/>
<text text-anchor="middle" x="1639.5" y="-125" font-family="Helvetica,sans-Serif" font-size="10.00">netinet/in.h</text>
</a>
</g>
</g>
<!-- Node30&#45;&gt;Node35 -->
<g id="edge56" class="edge">
<title>Node30&#45;&gt;Node35</title>
<path fill="none" stroke="midnightblue" d="M1760.3,-179.48C1736.43,-169.4 1696.5,-152.55 1669.13,-141"/>
<polygon fill="midnightblue" stroke="midnightblue" points="1670.24,-137.67 1659.66,-137.01 1667.52,-144.12 1670.24,-137.67"/>
</g>
<!-- Node36 -->
<g id="node36" class="node">
<title>Node36</title>
<g id="a_node36"><a xlink:title=" ">
<polygon fill="white" stroke="#bfbfbf" points="1693.5,-118 1693.5,-137 1771.5,-137 1771.5,-118 1693.5,-118"/>
<text text-anchor="middle" x="1732.5" y="-125" font-family="Helvetica,sans-Serif" font-size="10.00">netinet/tcp.h</text>
</a>
</g>
</g>
<!-- Node30&#45;&gt;Node36 -->
<g id="edge57" class="edge">
<title>Node30&#45;&gt;Node36</title>
<path fill="none" stroke="midnightblue" d="M1773.62,-179.48C1766.35,-170.46 1754.7,-156.02 1745.66,-144.81"/>
<polygon fill="midnightblue" stroke="midnightblue" points="1748.37,-142.59 1739.36,-137.01 1742.92,-146.99 1748.37,-142.59"/>
</g>
<!-- Node37 -->
<g id="node37" class="node">
<title>Node37</title>
<g id="a_node37"><a xlink:title=" ">
<polygon fill="white" stroke="#bfbfbf" points="1790,-118 1790,-137 1867,-137 1867,-118 1790,-118"/>
<text text-anchor="middle" x="1828.5" y="-125" font-family="Helvetica,sans-Serif" font-size="10.00">sys/socket.h</text>
</a>
</g>
</g>
<!-- Node30&#45;&gt;Node37 -->
<g id="edge58" class="edge">
<title>Node30&#45;&gt;Node37</title>
<path fill="none" stroke="midnightblue" d="M1787.38,-179.48C1794.65,-170.46 1806.3,-156.02 1815.34,-144.81"/>
<polygon fill="midnightblue" stroke="midnightblue" points="1818.08,-146.99 1821.64,-137.01 1812.63,-142.59 1818.08,-146.99"/>
</g>
<!-- Node38 -->
<g id="node38" class="node">
<title>Node38</title>
<g id="a_node38"><a xlink:title=" ">
<polygon fill="white" stroke="#bfbfbf" points="1885.5,-118 1885.5,-137 1957.5,-137 1957.5,-118 1885.5,-118"/>
<text text-anchor="middle" x="1921.5" y="-125" font-family="Helvetica,sans-Serif" font-size="10.00">sys/types.h</text>
</a>
</g>
</g>
<!-- Node30&#45;&gt;Node38 -->
<g id="edge59" class="edge">
<title>Node30&#45;&gt;Node38</title>
<path fill="none" stroke="midnightblue" d="M1800.7,-179.48C1824.57,-169.4 1864.5,-152.55 1891.87,-141"/>
<polygon fill="midnightblue" stroke="midnightblue" points="1893.48,-144.12 1901.34,-137.01 1890.76,-137.67 1893.48,-144.12"/>
</g>
<!-- Node39 -->
<g id="node39" class="node">
<title>Node39</title>
<g id="a_node39"><a xlink:title=" ">
<polygon fill="white" stroke="#bfbfbf" points="1975.5,-118 1975.5,-137 2031.5,-137 2031.5,-118 1975.5,-118"/>
<text text-anchor="middle" x="2003.5" y="-125" font-family="Helvetica,sans-Serif" font-size="10.00">unistd.h</text>
</a>
</g>
</g>
<!-- Node30&#45;&gt;Node39 -->
<g id="edge60" class="edge">
<title>Node30&#45;&gt;Node39</title>
<path fill="none" stroke="midnightblue" d="M1823.06,-179.43C1861.05,-171.37 1918.02,-158.29 1966.5,-143 1968.78,-142.28 1971.11,-141.49 1973.45,-140.67"/>
<polygon fill="midnightblue" stroke="midnightblue" points="1974.79,-143.9 1982.93,-137.13 1972.34,-137.35 1974.79,-143.9"/>
</g>
<!-- Node30&#45;&gt;Node40 -->
<g id="edge63" class="edge">
<title>Node30&#45;&gt;Node40</title>
<path fill="none" stroke="midnightblue" d="M1828.18,-180.72C1833.01,-180.09 1837.85,-179.5 1842.5,-179 2065.77,-154.85 2126.66,-188.85 2346.5,-143 2349.93,-142.28 2353.46,-141.35 2356.95,-140.3"/>
<polygon fill="midnightblue" stroke="midnightblue" points="2358.14,-143.6 2366.53,-137.13 2355.94,-136.95 2358.14,-143.6"/>
</g>
<!-- Node31&#45;&gt;Node4 -->
<g id="edge49" class="edge">
<title>Node31&#45;&gt;Node4</title>
<path fill="none" stroke="midnightblue" d="M2072.64,-117.97C2062.41,-115.64 2051.05,-113.38 2040.5,-112 1833.06,-84.88 1180.47,-71.43 985.22,-67.94"/>
<polygon fill="midnightblue" stroke="midnightblue" points="985.24,-64.44 975.18,-67.76 985.12,-71.44 985.24,-64.44"/>
</g>
<!-- Node31&#45;&gt;Node10 -->
<g id="edge51" class="edge">
<title>Node31&#45;&gt;Node10</title>
<path fill="none" stroke="midnightblue" d="M2100.63,-117.98C2095.63,-109.23 2087.71,-95.37 2081.39,-84.31"/>
<polygon fill="midnightblue" stroke="midnightblue" points="2084.36,-82.46 2076.36,-75.51 2078.28,-85.93 2084.36,-82.46"/>
</g>
<!-- Node31&#45;&gt;Node16 -->
<g id="edge52" class="edge">
<title>Node31&#45;&gt;Node16</title>
<path fill="none" stroke="midnightblue" d="M2072.98,-117.98C2062.66,-115.62 2051.17,-113.34 2040.5,-112 2022.27,-109.71 849.95,-75.3 609.37,-68.25"/>
<polygon fill="midnightblue" stroke="midnightblue" points="609.36,-64.75 599.26,-67.96 609.15,-71.75 609.36,-64.75"/>
</g>
<!-- Node32 -->
<g id="node32" class="node">
<title>Node32</title>
<g id="a_node32"><a xlink:title=" ">
<polygon fill="white" stroke="#bfbfbf" points="2115,-56.5 2115,-75.5 2162,-75.5 2162,-56.5 2115,-56.5"/>
<text text-anchor="middle" x="2138.5" y="-63.5" font-family="Helvetica,sans-Serif" font-size="10.00">cerrno</text>
</a>
</g>
</g>
<!-- Node31&#45;&gt;Node32 -->
<g id="edge50" class="edge">
<title>Node31&#45;&gt;Node32</title>
<path fill="none" stroke="midnightblue" d="M2110.23,-117.98C2115.08,-109.23 2122.77,-95.37 2128.9,-84.31"/>
<polygon fill="midnightblue" stroke="midnightblue" points="2131.99,-85.95 2133.78,-75.51 2125.87,-82.56 2131.99,-85.95"/>
</g>
</g>
</svg>
