<?xml version="1.0" encoding="UTF-8" standalone="no"?>
<!DOCTYPE svg PUBLIC "-//W3C//DTD SVG 1.1//EN"
 "http://www.w3.org/Graphics/SVG/1.1/DTD/svg11.dtd">
<!-- Generated by graphviz version 2.43.0 (0)
 -->
<!-- Title: includes/libserv/event_channel_base.cpp Pages: 1 -->
<!--zoomable 330 -->
<svg id="main" version="1.1" xmlns="http://www.w3.org/2000/svg" xmlns:xlink="http://www.w3.org/1999/xlink" xml:space="preserve" onload="init(evt)">
<style type="text/css"><![CDATA[
.edge:hover path { stroke: red; }
.edge:hover polygon { stroke: red; fill: red; }
]]></style>
<script type="text/javascript"><![CDATA[
var edges = document.getElementsByTagName('g');
if (edges && edges.length) {
  for (var i=0;i<edges.length;i++) {
    if (edges[i].id.substr(0,4)=='edge') {
      edges[i].setAttribute('class','edge');
    }
  }
}
]]></script>
        <defs>
                <circle id="rim" cx="0" cy="0" r="7"/>
                <circle id="rim2" cx="0" cy="0" r="3.5"/>
                <g id="zoomPlus">
                        <use xlink:href="#rim" fill="#404040">
                                <set attributeName="fill" to="#808080" begin="zoomplus.mouseover" end="zoomplus.mouseout"/>
                        </use>
                        <path d="M-4,0h8M0,-4v8" fill="none" stroke="white" stroke-width="1.5" pointer-events="none"/>
                </g>
                <g id="zoomMin">
                        <use xlink:href="#rim" fill="#404040">
                                <set attributeName="fill" to="#808080" begin="zoomminus.mouseover" end="zoomminus.mouseout"/>
                        </use>
                        <path d="M-4,0h8" fill="none" stroke="white" stroke-width="1.5" pointer-events="none"/>
                </g>
                <g id="dirArrow">
                        <path fill="none" stroke="white" stroke-width="1.5" d="M0,-3.0v7 M-2.5,-0.5L0,-3.0L2.5,-0.5"/>
                </g>
               <g id="resetDef">
                       <use xlink:href="#rim2" fill="#404040">
                               <set attributeName="fill" to="#808080" begin="reset.mouseover" end="reset.mouseout"/>
                       </use>
               </g>
        </defs>

<script type="text/javascript">
var viewWidth = 2779;
var viewHeight = 330;
var sectionId = 'dynsection-0';
</script>
<script xlink:href="svgpan.js"/>
<svg id="graph" class="graph">
<g id="viewport">
<title>includes/libserv/event_channel_base.cpp</title>
<polygon fill="white" stroke="transparent" points="-4,4 -4,-326 2774.91,-326 2774.91,4 -4,4"/>
<!-- Node1 -->
<g id="node1" class="node">
<title>Node1</title>
<g id="a_node1"><a xlink:title=" ">
<polygon fill="#bfbfbf" stroke="black" points="1409.41,-291.5 1409.41,-321.5 1533.41,-321.5 1533.41,-291.5 1409.41,-291.5"/>
<text text-anchor="start" x="1417.41" y="-309.5" font-family="Helvetica,sans-Serif" font-size="10.00">includes/libserv/event</text>
<text text-anchor="middle" x="1471.41" y="-298.5" font-family="Helvetica,sans-Serif" font-size="10.00">_channel_base.cpp</text>
</a>
</g>
</g>
<!-- Node2 -->
<g id="node2" class="node">
<title>Node2</title>
<g id="a_node2"><a xlink:href="event__channel__base_8hpp.html" target="_top" xlink:title=" ">
<polygon fill="white" stroke="black" points="375.91,-179.5 375.91,-198.5 512.91,-198.5 512.91,-179.5 375.91,-179.5"/>
<text text-anchor="middle" x="444.41" y="-186.5" font-family="Helvetica,sans-Serif" font-size="10.00">event_channel_base.hpp</text>
</a>
</g>
</g>
<!-- Node1&#45;&gt;Node2 -->
<g id="edge1" class="edge">
<title>Node1&#45;&gt;Node2</title>
<path fill="none" stroke="midnightblue" d="M1409.15,-302.12C1296.56,-295.63 1051.75,-279.86 846.41,-255 721.98,-239.94 577.09,-214.56 499.76,-200.38"/>
<polygon fill="midnightblue" stroke="midnightblue" points="500.23,-196.91 489.76,-198.54 498.96,-203.8 500.23,-196.91"/>
</g>
<!-- Node3 -->
<g id="node3" class="node">
<title>Node3</title>
<g id="a_node3"><a xlink:href="byte__buffer_8hpp.html" target="_top" xlink:title=" ">
<polygon fill="white" stroke="black" points="867.41,-118 867.41,-137 959.41,-137 959.41,-118 867.41,-118"/>
<text text-anchor="middle" x="913.41" y="-125" font-family="Helvetica,sans-Serif" font-size="10.00">byte_buffer.hpp</text>
</a>
</g>
</g>
<!-- Node1&#45;&gt;Node3 -->
<g id="edge15" class="edge">
<title>Node1&#45;&gt;Node3</title>
<path fill="none" stroke="midnightblue" d="M1420.99,-291.48C1391.61,-282.56 1354.19,-269.9 1322.41,-255 1263.88,-227.57 1258.84,-201.93 1198.41,-179 1122.29,-150.12 1028.36,-137.57 969.66,-132.24"/>
<polygon fill="midnightblue" stroke="midnightblue" points="969.74,-128.74 959.48,-131.36 969.14,-135.71 969.74,-128.74"/>
</g>
<!-- Node4 -->
<g id="node4" class="node">
<title>Node4</title>
<g id="a_node4"><a xlink:href="serv__types_8hpp.html" target="_top" xlink:title=" ">
<polygon fill="white" stroke="black" points="949.91,-56.5 949.91,-75.5 1040.91,-75.5 1040.91,-56.5 949.91,-56.5"/>
<text text-anchor="middle" x="995.41" y="-63.5" font-family="Helvetica,sans-Serif" font-size="10.00">serv_types.hpp</text>
</a>
</g>
</g>
<!-- Node1&#45;&gt;Node4 -->
<g id="edge51" class="edge">
<title>Node1&#45;&gt;Node4</title>
<path fill="none" stroke="midnightblue" d="M1533.67,-301.23C1635.52,-291.78 1820.71,-262.8 1760.41,-179 1705.65,-102.91 1652.26,-130.75 1560.41,-112 1376.55,-74.47 1153.09,-67.88 1051.05,-66.96"/>
<polygon fill="midnightblue" stroke="midnightblue" points="1051,-63.46 1040.97,-66.89 1050.95,-70.46 1051,-63.46"/>
</g>
<!-- Node9 -->
<g id="node9" class="node">
<title>Node9</title>
<g id="a_node9"><a xlink:title=" ">
<polygon fill="white" stroke="#bfbfbf" points="879.41,-56.5 879.41,-75.5 931.41,-75.5 931.41,-56.5 879.41,-56.5"/>
<text text-anchor="middle" x="905.41" y="-63.5" font-family="Helvetica,sans-Serif" font-size="10.00">cassert</text>
</a>
</g>
</g>
<!-- Node1&#45;&gt;Node9 -->
<g id="edge69" class="edge">
<title>Node1&#45;&gt;Node9</title>
<path fill="none" stroke="midnightblue" d="M1409.31,-304.8C1160.14,-301.78 240.3,-288.45 114.41,-255 62.53,-241.22 35.2,-244.92 7.41,-199 -6.98,-175.23 1.8,-131.08 25.41,-112 58.7,-85.09 706.66,-70.83 868.85,-67.68"/>
<polygon fill="midnightblue" stroke="midnightblue" points="869.31,-71.17 879.24,-67.48 869.18,-64.17 869.31,-71.17"/>
</g>
<!-- Node12 -->
<g id="node12" class="node">
<title>Node12</title>
<g id="a_node12"><a xlink:title=" ">
<polygon fill="white" stroke="#bfbfbf" points="210.91,-118 210.91,-137 349.91,-137 349.91,-118 210.91,-118"/>
<text text-anchor="middle" x="280.41" y="-125" font-family="Helvetica,sans-Serif" font-size="10.00">smart_ptr/shared_ptr.hpp</text>
</a>
</g>
</g>
<!-- Node1&#45;&gt;Node12 -->
<g id="edge68" class="edge">
<title>Node1&#45;&gt;Node12</title>
<path fill="none" stroke="midnightblue" d="M1409.04,-303.06C1278.78,-297.6 968.46,-282.63 709.41,-255 539.66,-236.9 474.51,-288.94 329.41,-199 309.47,-186.64 295.53,-162.84 287.75,-146.34"/>
<polygon fill="midnightblue" stroke="midnightblue" points="290.94,-144.9 283.7,-137.17 284.54,-147.73 290.94,-144.9"/>
</g>
<!-- Node14 -->
<g id="node14" class="node">
<title>Node14</title>
<g id="a_node14"><a xlink:title=" ">
<polygon fill="white" stroke="#bfbfbf" points="1221.41,-118 1221.41,-137 1265.41,-137 1265.41,-118 1221.41,-118"/>
<text text-anchor="middle" x="1243.41" y="-125" font-family="Helvetica,sans-Serif" font-size="10.00">string</text>
</a>
</g>
</g>
<!-- Node1&#45;&gt;Node14 -->
<g id="edge74" class="edge">
<title>Node1&#45;&gt;Node14</title>
<path fill="none" stroke="midnightblue" d="M1431.28,-291.39C1389.02,-274.83 1322.72,-243.82 1279.41,-199 1264.98,-184.06 1255.04,-162.19 1249.32,-146.78"/>
<polygon fill="midnightblue" stroke="midnightblue" points="1252.61,-145.61 1246.03,-137.31 1246,-147.9 1252.61,-145.61"/>
</g>
<!-- Node15 -->
<g id="node15" class="node">
<title>Node15</title>
<g id="a_node15"><a xlink:href="event__handler__base_8hpp.html" target="_top" xlink:title=" ">
<polygon fill="white" stroke="black" points="31.41,-179.5 31.41,-198.5 167.41,-198.5 167.41,-179.5 31.41,-179.5"/>
<text text-anchor="middle" x="99.41" y="-186.5" font-family="Helvetica,sans-Serif" font-size="10.00">event_handler_base.hpp</text>
</a>
</g>
</g>
<!-- Node1&#45;&gt;Node15 -->
<g id="edge16" class="edge">
<title>Node1&#45;&gt;Node15</title>
<path fill="none" stroke="midnightblue" d="M1409.18,-304.78C1153.37,-301.64 193.66,-287.68 138.41,-255 121.11,-244.77 110.57,-223.6 104.88,-208.2"/>
<polygon fill="midnightblue" stroke="midnightblue" points="108.18,-207.03 101.69,-198.66 101.54,-209.25 108.18,-207.03"/>
</g>
<!-- Node17 -->
<g id="node17" class="node">
<title>Node17</title>
<g id="a_node17"><a xlink:href="event__layer_8hpp.html" target="_top" xlink:title=" ">
<polygon fill="white" stroke="black" points="147.91,-235.5 147.91,-254.5 242.91,-254.5 242.91,-235.5 147.91,-235.5"/>
<text text-anchor="middle" x="195.41" y="-242.5" font-family="Helvetica,sans-Serif" font-size="10.00">event_layer.hpp</text>
</a>
</g>
</g>
<!-- Node1&#45;&gt;Node17 -->
<g id="edge20" class="edge">
<title>Node1&#45;&gt;Node17</title>
<path fill="none" stroke="midnightblue" d="M1409.35,-305.16C1230.29,-303.71 697.44,-295.98 257.41,-255 256.1,-254.88 254.78,-254.75 253.44,-254.61"/>
<polygon fill="midnightblue" stroke="midnightblue" points="253.41,-251.08 243.08,-253.42 252.61,-258.04 253.41,-251.08"/>
</g>
<!-- Node18 -->
<g id="node18" class="node">
<title>Node18</title>
<g id="a_node18"><a xlink:href="event__worker_8hpp.html" target="_top" xlink:title=" ">
<polygon fill="white" stroke="black" points="855.91,-235.5 855.91,-254.5 958.91,-254.5 958.91,-235.5 855.91,-235.5"/>
<text text-anchor="middle" x="907.41" y="-242.5" font-family="Helvetica,sans-Serif" font-size="10.00">event_worker.hpp</text>
</a>
</g>
</g>
<!-- Node1&#45;&gt;Node18 -->
<g id="edge27" class="edge">
<title>Node1&#45;&gt;Node18</title>
<path fill="none" stroke="midnightblue" d="M1409.17,-298.93C1300.51,-287.47 1077.51,-263.94 969.18,-252.52"/>
<polygon fill="midnightblue" stroke="midnightblue" points="969.38,-249.02 959.07,-251.45 968.65,-255.98 969.38,-249.02"/>
</g>
<!-- Node24 -->
<g id="node24" class="node">
<title>Node24</title>
<g id="a_node24"><a xlink:href="logger_8hpp.html" target="_top" xlink:title=" ">
<polygon fill="white" stroke="black" points="1437.41,-235.5 1437.41,-254.5 1505.41,-254.5 1505.41,-235.5 1437.41,-235.5"/>
<text text-anchor="middle" x="1471.41" y="-242.5" font-family="Helvetica,sans-Serif" font-size="10.00">logger.hpp</text>
</a>
</g>
</g>
<!-- Node1&#45;&gt;Node24 -->
<g id="edge36" class="edge">
<title>Node1&#45;&gt;Node24</title>
<path fill="none" stroke="midnightblue" d="M1471.41,-291.4C1471.41,-283.47 1471.41,-273.46 1471.41,-264.86"/>
<polygon fill="midnightblue" stroke="midnightblue" points="1474.91,-264.66 1471.41,-254.66 1467.91,-264.66 1474.91,-264.66"/>
</g>
<!-- Node29 -->
<g id="node29" class="node">
<title>Node29</title>
<g id="a_node29"><a xlink:title=" ">
<polygon fill="white" stroke="#bfbfbf" points="1695.41,-179.5 1695.41,-198.5 1751.41,-198.5 1751.41,-179.5 1695.41,-179.5"/>
<text text-anchor="middle" x="1723.41" y="-186.5" font-family="Helvetica,sans-Serif" font-size="10.00">sstream</text>
</a>
</g>
</g>
<!-- Node1&#45;&gt;Node29 -->
<g id="edge72" class="edge">
<title>Node1&#45;&gt;Node29</title>
<path fill="none" stroke="midnightblue" d="M1502.31,-291.34C1551.76,-268.67 1647.92,-224.6 1695.45,-202.82"/>
<polygon fill="midnightblue" stroke="midnightblue" points="1697.18,-205.87 1704.82,-198.52 1694.27,-199.51 1697.18,-205.87"/>
</g>
<!-- Node30 -->
<g id="node30" class="node">
<title>Node30</title>
<g id="a_node30"><a xlink:href="serv__exception_8hpp.html" target="_top" xlink:title=" ">
<polygon fill="white" stroke="black" points="1845.41,-179.5 1845.41,-198.5 1957.41,-198.5 1957.41,-179.5 1845.41,-179.5"/>
<text text-anchor="middle" x="1901.41" y="-186.5" font-family="Helvetica,sans-Serif" font-size="10.00">serv_exception.hpp</text>
</a>
</g>
</g>
<!-- Node1&#45;&gt;Node30 -->
<g id="edge46" class="edge">
<title>Node1&#45;&gt;Node30</title>
<path fill="none" stroke="midnightblue" d="M1533.45,-301.3C1622.1,-294.53 1779.97,-279.46 1831.41,-255 1854.7,-243.93 1875.52,-222.33 1888.28,-207.07"/>
<polygon fill="midnightblue" stroke="midnightblue" points="1891.27,-208.93 1894.82,-198.95 1885.82,-204.54 1891.27,-208.93"/>
</g>
<!-- Node32 -->
<g id="node32" class="node">
<title>Node32</title>
<g id="a_node32"><a xlink:href="socket__utils_8hpp.html" target="_top" xlink:title=" ">
<polygon fill="white" stroke="black" points="2027.91,-235.5 2027.91,-254.5 2122.91,-254.5 2122.91,-235.5 2027.91,-235.5"/>
<text text-anchor="middle" x="2075.41" y="-242.5" font-family="Helvetica,sans-Serif" font-size="10.00">socket_utils.hpp</text>
</a>
</g>
</g>
<!-- Node1&#45;&gt;Node32 -->
<g id="edge52" class="edge">
<title>Node1&#45;&gt;Node32</title>
<path fill="none" stroke="midnightblue" d="M1533.49,-299.38C1650.84,-287.82 1903.65,-262.92 2017.61,-251.69"/>
<polygon fill="midnightblue" stroke="midnightblue" points="2018.26,-255.15 2027.87,-250.68 2017.58,-248.18 2018.26,-255.15"/>
</g>
<!-- Node40 -->
<g id="node40" class="node">
<title>Node40</title>
<g id="a_node40"><a xlink:title=" ">
<polygon fill="white" stroke="#bfbfbf" points="2634.91,-179.5 2634.91,-198.5 2687.91,-198.5 2687.91,-179.5 2634.91,-179.5"/>
<text text-anchor="middle" x="2661.41" y="-186.5" font-family="Helvetica,sans-Serif" font-size="10.00">cstddef</text>
</a>
</g>
</g>
<!-- Node1&#45;&gt;Node40 -->
<g id="edge70" class="edge">
<title>Node1&#45;&gt;Node40</title>
<path fill="none" stroke="midnightblue" d="M1533.54,-303.59C1675.56,-298.76 2020.3,-284.32 2132.41,-255 2152.8,-249.67 2155.03,-240.37 2175.41,-235 2366.3,-184.71 2425.51,-229.93 2624.87,-198.77"/>
<polygon fill="midnightblue" stroke="midnightblue" points="2625.46,-202.22 2634.78,-197.18 2624.35,-195.31 2625.46,-202.22"/>
</g>
<!-- Node41 -->
<g id="node41" class="node">
<title>Node41</title>
<g id="a_node41"><a xlink:title=" ">
<polygon fill="white" stroke="#bfbfbf" points="2705.91,-179.5 2705.91,-198.5 2770.91,-198.5 2770.91,-179.5 2705.91,-179.5"/>
<text text-anchor="middle" x="2738.41" y="-186.5" font-family="Helvetica,sans-Serif" font-size="10.00">stdexcept</text>
</a>
</g>
</g>
<!-- Node1&#45;&gt;Node41 -->
<g id="edge73" class="edge">
<title>Node1&#45;&gt;Node41</title>
<path fill="none" stroke="midnightblue" d="M1533.54,-303.94C1680.99,-299.75 2048.6,-286.41 2167.41,-255 2187.4,-249.72 2189.42,-240.3 2209.41,-235 2416.45,-180.14 2480.28,-228.87 2695.77,-199.03"/>
<polygon fill="midnightblue" stroke="midnightblue" points="2696.41,-202.47 2705.81,-197.59 2695.42,-195.54 2696.41,-202.47"/>
</g>
<!-- Node42 -->
<g id="node42" class="node">
<title>Node42</title>
<g id="a_node42"><a xlink:title=" ">
<polygon fill="white" stroke="#bfbfbf" points="2217.91,-235.5 2217.91,-254.5 2370.91,-254.5 2370.91,-235.5 2217.91,-235.5"/>
<text text-anchor="middle" x="2294.41" y="-242.5" font-family="Helvetica,sans-Serif" font-size="10.00">smart_ptr/make_shared.hpp</text>
</a>
</g>
</g>
<!-- Node1&#45;&gt;Node42 -->
<g id="edge67" class="edge">
<title>Node1&#45;&gt;Node42</title>
<path fill="none" stroke="midnightblue" d="M1533.64,-301.83C1659.97,-294.25 1955.56,-275.8 2203.41,-255 2204.7,-254.89 2206,-254.78 2207.31,-254.67"/>
<polygon fill="midnightblue" stroke="midnightblue" points="2207.82,-258.14 2217.47,-253.77 2207.2,-251.16 2207.82,-258.14"/>
</g>
<!-- Node43 -->
<g id="node43" class="node">
<title>Node43</title>
<g id="a_node43"><a xlink:title=" ">
<polygon fill="white" stroke="#bfbfbf" points="2389.41,-235.5 2389.41,-254.5 2445.41,-254.5 2445.41,-235.5 2389.41,-235.5"/>
<text text-anchor="middle" x="2417.41" y="-242.5" font-family="Helvetica,sans-Serif" font-size="10.00">iomanip</text>
</a>
</g>
</g>
<!-- Node1&#45;&gt;Node43 -->
<g id="edge71" class="edge">
<title>Node1&#45;&gt;Node43</title>
<path fill="none" stroke="midnightblue" d="M1533.53,-305.95C1679.69,-306.18 2056.74,-301.87 2379.23,-254.89"/>
<polygon fill="midnightblue" stroke="midnightblue" points="2379.85,-258.34 2389.23,-253.42 2378.83,-251.41 2379.85,-258.34"/>
</g>
<!-- Node2&#45;&gt;Node3 -->
<g id="edge2" class="edge">
<title>Node2&#45;&gt;Node3</title>
<path fill="none" stroke="midnightblue" d="M511.61,-179.48C604.46,-167.7 770.34,-146.65 857.06,-135.65"/>
<polygon fill="midnightblue" stroke="midnightblue" points="857.76,-139.09 867.24,-134.36 856.88,-132.14 857.76,-139.09"/>
</g>
<!-- Node2&#45;&gt;Node4 -->
<g id="edge10" class="edge">
<title>Node2&#45;&gt;Node4</title>
<path fill="none" stroke="midnightblue" d="M457.57,-179.33C470.86,-170.48 491.86,-156.2 509.41,-143 526.83,-129.9 527.23,-120.24 547.41,-112 706.77,-46.9 764.28,-96.27 939.75,-75.94"/>
<polygon fill="midnightblue" stroke="midnightblue" points="940.32,-79.4 949.83,-74.71 939.48,-72.45 940.32,-79.4"/>
</g>
<!-- Node11 -->
<g id="node11" class="node">
<title>Node11</title>
<g id="a_node11"><a xlink:title=" ">
<polygon fill="white" stroke="#bfbfbf" points="556.41,-112.5 556.41,-142.5 694.41,-142.5 694.41,-112.5 556.41,-112.5"/>
<text text-anchor="start" x="564.41" y="-130.5" font-family="Helvetica,sans-Serif" font-size="10.00">smart_ptr/enable_shared</text>
<text text-anchor="middle" x="625.41" y="-119.5" font-family="Helvetica,sans-Serif" font-size="10.00">_from_this.hpp</text>
</a>
</g>
</g>
<!-- Node2&#45;&gt;Node11 -->
<g id="edge11" class="edge">
<title>Node2&#45;&gt;Node11</title>
<path fill="none" stroke="midnightblue" d="M470.34,-179.48C497.03,-170.7 539.36,-156.79 573.05,-145.71"/>
<polygon fill="midnightblue" stroke="midnightblue" points="574.34,-148.97 582.75,-142.52 572.16,-142.32 574.34,-148.97"/>
</g>
<!-- Node2&#45;&gt;Node12 -->
<g id="edge12" class="edge">
<title>Node2&#45;&gt;Node12</title>
<path fill="none" stroke="midnightblue" d="M420.91,-179.48C392.78,-169.27 345.48,-152.11 313.62,-140.55"/>
<polygon fill="midnightblue" stroke="midnightblue" points="314.46,-137.13 303.86,-137.01 312.07,-143.71 314.46,-137.13"/>
</g>
<!-- Node13 -->
<g id="node13" class="node">
<title>Node13</title>
<g id="a_node13"><a xlink:title=" ">
<polygon fill="white" stroke="#bfbfbf" points="368.41,-118 368.41,-137 500.41,-137 500.41,-118 368.41,-118"/>
<text text-anchor="middle" x="434.41" y="-125" font-family="Helvetica,sans-Serif" font-size="10.00">smart_ptr/weak_ptr.hpp</text>
</a>
</g>
</g>
<!-- Node2&#45;&gt;Node13 -->
<g id="edge13" class="edge">
<title>Node2&#45;&gt;Node13</title>
<path fill="none" stroke="midnightblue" d="M442.98,-179.48C441.57,-171.08 439.36,-157.98 437.55,-147.16"/>
<polygon fill="midnightblue" stroke="midnightblue" points="440.95,-146.29 435.84,-137.01 434.05,-147.45 440.95,-146.29"/>
</g>
<!-- Node2&#45;&gt;Node14 -->
<g id="edge14" class="edge">
<title>Node2&#45;&gt;Node14</title>
<path fill="none" stroke="midnightblue" d="M513.23,-180.34C518.03,-179.86 522.79,-179.41 527.41,-179 790.87,-155.43 1109.68,-136.23 1210.93,-130.35"/>
<polygon fill="midnightblue" stroke="midnightblue" points="1211.33,-133.84 1221.11,-129.77 1210.93,-126.85 1211.33,-133.84"/>
</g>
<!-- Node3&#45;&gt;Node4 -->
<g id="edge3" class="edge">
<title>Node3&#45;&gt;Node4</title>
<path fill="none" stroke="midnightblue" d="M925.16,-117.98C938.19,-108.52 959.44,-93.1 975.17,-81.69"/>
<polygon fill="midnightblue" stroke="midnightblue" points="977.64,-84.21 983.68,-75.51 973.53,-78.55 977.64,-84.21"/>
</g>
<!-- Node3&#45;&gt;Node9 -->
<g id="edge8" class="edge">
<title>Node3&#45;&gt;Node9</title>
<path fill="none" stroke="midnightblue" d="M912.26,-117.98C911.13,-109.58 909.37,-96.48 907.92,-85.66"/>
<polygon fill="midnightblue" stroke="midnightblue" points="911.35,-84.95 906.55,-75.51 904.42,-85.89 911.35,-84.95"/>
</g>
<!-- Node10 -->
<g id="node10" class="node">
<title>Node10</title>
<g id="a_node10"><a xlink:title=" ">
<polygon fill="white" stroke="#bfbfbf" points="1922.41,-56.5 1922.41,-75.5 1972.41,-75.5 1972.41,-56.5 1922.41,-56.5"/>
<text text-anchor="middle" x="1947.41" y="-63.5" font-family="Helvetica,sans-Serif" font-size="10.00">cstring</text>
</a>
</g>
</g>
<!-- Node3&#45;&gt;Node10 -->
<g id="edge9" class="edge">
<title>Node3&#45;&gt;Node10</title>
<path fill="none" stroke="midnightblue" d="M959.51,-123.85C1134.6,-113.77 1756.36,-77.99 1911.92,-69.04"/>
<polygon fill="midnightblue" stroke="midnightblue" points="1912.52,-72.51 1922.31,-68.44 1912.12,-65.52 1912.52,-72.51"/>
</g>
<!-- Node5 -->
<g id="node5" class="node">
<title>Node5</title>
<g id="a_node5"><a xlink:title=" ">
<polygon fill="white" stroke="#bfbfbf" points="883.91,-0.5 883.91,-19.5 930.91,-19.5 930.91,-0.5 883.91,-0.5"/>
<text text-anchor="middle" x="907.41" y="-7.5" font-family="Helvetica,sans-Serif" font-size="10.00">deque</text>
</a>
</g>
</g>
<!-- Node4&#45;&gt;Node5 -->
<g id="edge4" class="edge">
<title>Node4&#45;&gt;Node5</title>
<path fill="none" stroke="midnightblue" d="M981.27,-56.32C967.54,-47.9 946.47,-34.97 930.34,-25.07"/>
<polygon fill="midnightblue" stroke="midnightblue" points="931.87,-21.9 921.51,-19.65 928.21,-27.87 931.87,-21.9"/>
</g>
<!-- Node6 -->
<g id="node6" class="node">
<title>Node6</title>
<g id="a_node6"><a xlink:title=" ">
<polygon fill="white" stroke="#bfbfbf" points="949.41,-0.5 949.41,-19.5 987.41,-19.5 987.41,-0.5 949.41,-0.5"/>
<text text-anchor="middle" x="968.41" y="-7.5" font-family="Helvetica,sans-Serif" font-size="10.00">map</text>
</a>
</g>
</g>
<!-- Node4&#45;&gt;Node6 -->
<g id="edge5" class="edge">
<title>Node4&#45;&gt;Node6</title>
<path fill="none" stroke="midnightblue" d="M990.95,-56.08C987.25,-48.69 981.89,-37.95 977.31,-28.81"/>
<polygon fill="midnightblue" stroke="midnightblue" points="980.39,-27.13 972.78,-19.75 974.13,-30.26 980.39,-27.13"/>
</g>
<!-- Node7 -->
<g id="node7" class="node">
<title>Node7</title>
<g id="a_node7"><a xlink:title=" ">
<polygon fill="white" stroke="#bfbfbf" points="1005.41,-0.5 1005.41,-19.5 1037.41,-19.5 1037.41,-0.5 1005.41,-0.5"/>
<text text-anchor="middle" x="1021.41" y="-7.5" font-family="Helvetica,sans-Serif" font-size="10.00">set</text>
</a>
</g>
</g>
<!-- Node4&#45;&gt;Node7 -->
<g id="edge6" class="edge">
<title>Node4&#45;&gt;Node7</title>
<path fill="none" stroke="midnightblue" d="M999.7,-56.08C1003.26,-48.69 1008.43,-37.95 1012.83,-28.81"/>
<polygon fill="midnightblue" stroke="midnightblue" points="1016.01,-30.28 1017.2,-19.75 1009.7,-27.24 1016.01,-30.28"/>
</g>
<!-- Node8 -->
<g id="node8" class="node">
<title>Node8</title>
<g id="a_node8"><a xlink:title=" ">
<polygon fill="white" stroke="#bfbfbf" points="1055.91,-0.5 1055.91,-19.5 1102.91,-19.5 1102.91,-0.5 1055.91,-0.5"/>
<text text-anchor="middle" x="1079.41" y="-7.5" font-family="Helvetica,sans-Serif" font-size="10.00">vector</text>
</a>
</g>
</g>
<!-- Node4&#45;&gt;Node8 -->
<g id="edge7" class="edge">
<title>Node4&#45;&gt;Node8</title>
<path fill="none" stroke="midnightblue" d="M1008.91,-56.32C1022.01,-47.9 1042.12,-34.97 1057.52,-25.07"/>
<polygon fill="midnightblue" stroke="midnightblue" points="1059.43,-28.01 1065.95,-19.65 1055.64,-22.12 1059.43,-28.01"/>
</g>
<!-- Node15&#45;&gt;Node4 -->
<g id="edge17" class="edge">
<title>Node15&#45;&gt;Node4</title>
<path fill="none" stroke="midnightblue" d="M98.59,-179.22C97.61,-163.01 98.18,-128.52 118.41,-112 152.36,-84.27 835.33,-80.94 939.72,-75.58"/>
<polygon fill="midnightblue" stroke="midnightblue" points="940.11,-79.06 949.85,-74.88 939.63,-72.08 940.11,-79.06"/>
</g>
<!-- Node15&#45;&gt;Node12 -->
<g id="edge18" class="edge">
<title>Node15&#45;&gt;Node12</title>
<path fill="none" stroke="midnightblue" d="M125.34,-179.48C156.66,-169.18 209.5,-151.81 244.66,-140.25"/>
<polygon fill="midnightblue" stroke="midnightblue" points="246.12,-143.46 254.52,-137.01 243.93,-136.81 246.12,-143.46"/>
</g>
<!-- Node16 -->
<g id="node16" class="node">
<title>Node16</title>
<g id="a_node16"><a xlink:title=" ">
<polygon fill="white" stroke="#bfbfbf" points="127.91,-118 127.91,-137 192.91,-137 192.91,-118 127.91,-118"/>
<text text-anchor="middle" x="160.41" y="-125" font-family="Helvetica,sans-Serif" font-size="10.00">exception</text>
</a>
</g>
</g>
<!-- Node15&#45;&gt;Node16 -->
<g id="edge19" class="edge">
<title>Node15&#45;&gt;Node16</title>
<path fill="none" stroke="midnightblue" d="M108.15,-179.48C117.57,-170.28 132.77,-155.46 144.36,-144.16"/>
<polygon fill="midnightblue" stroke="midnightblue" points="146.97,-146.5 151.69,-137.01 142.08,-141.49 146.97,-146.5"/>
</g>
<!-- Node17&#45;&gt;Node4 -->
<g id="edge22" class="edge">
<title>Node17&#45;&gt;Node4</title>
<path fill="none" stroke="midnightblue" d="M147.51,-238.11C101.78,-231.39 37.64,-218.7 22.41,-199 -13.5,-152.55 23.47,-142.04 97.41,-112 181.81,-77.71 810.06,-85.12 939.8,-75.75"/>
<polygon fill="midnightblue" stroke="midnightblue" points="940.18,-79.23 949.85,-74.89 939.58,-72.26 940.18,-79.23"/>
</g>
<!-- Node17&#45;&gt;Node12 -->
<g id="edge23" class="edge">
<title>Node17&#45;&gt;Node12</title>
<path fill="none" stroke="midnightblue" d="M201.8,-235.32C215.83,-216.26 249.54,-170.45 267.93,-145.46"/>
<polygon fill="midnightblue" stroke="midnightblue" points="270.84,-147.41 273.95,-137.28 265.2,-143.26 270.84,-147.41"/>
</g>
<!-- Node17&#45;&gt;Node13 -->
<g id="edge24" class="edge">
<title>Node17&#45;&gt;Node13</title>
<path fill="none" stroke="midnightblue" d="M213.37,-235.32C255,-215.2 358.25,-165.31 407.47,-141.52"/>
<polygon fill="midnightblue" stroke="midnightblue" points="409.08,-144.63 416.56,-137.12 406.04,-138.32 409.08,-144.63"/>
</g>
<!-- Node17&#45;&gt;Node14 -->
<g id="edge26" class="edge">
<title>Node17&#45;&gt;Node14</title>
<path fill="none" stroke="midnightblue" d="M242.92,-242.42C307.39,-239.17 425.51,-229.25 521.41,-199 539.99,-193.14 541.66,-184.27 560.41,-179 623.46,-161.29 1083.9,-136.66 1210.99,-130.14"/>
<polygon fill="midnightblue" stroke="midnightblue" points="1211.43,-133.62 1221.24,-129.61 1211.07,-126.63 1211.43,-133.62"/>
</g>
<!-- Node17&#45;&gt;Node15 -->
<g id="edge21" class="edge">
<title>Node17&#45;&gt;Node15</title>
<path fill="none" stroke="midnightblue" d="M179.99,-235.32C164.87,-226.82 141.59,-213.73 123.94,-203.8"/>
<polygon fill="midnightblue" stroke="midnightblue" points="125.23,-200.51 114.79,-198.65 121.79,-206.61 125.23,-200.51"/>
</g>
<!-- Node17&#45;&gt;Node16 -->
<g id="edge25" class="edge">
<title>Node17&#45;&gt;Node16</title>
<path fill="none" stroke="midnightblue" d="M192.89,-235.15C189.31,-222.62 182.51,-199.02 176.41,-179 173.14,-168.26 169.35,-156.28 166.28,-146.69"/>
<polygon fill="midnightblue" stroke="midnightblue" points="169.58,-145.51 163.19,-137.06 162.91,-147.65 169.58,-145.51"/>
</g>
<!-- Node18&#45;&gt;Node2 -->
<g id="edge28" class="edge">
<title>Node18&#45;&gt;Node2</title>
<path fill="none" stroke="midnightblue" d="M855.64,-237.96C774.82,-228.54 618.09,-210.26 523.19,-199.19"/>
<polygon fill="midnightblue" stroke="midnightblue" points="523.41,-195.69 513.07,-198.01 522.6,-202.64 523.41,-195.69"/>
</g>
<!-- Node18&#45;&gt;Node4 -->
<g id="edge29" class="edge">
<title>Node18&#45;&gt;Node4</title>
<path fill="none" stroke="midnightblue" d="M925.22,-235.49C939.17,-227.89 957.92,-215.41 968.41,-199 991,-163.64 995.19,-113.03 995.67,-85.9"/>
<polygon fill="midnightblue" stroke="midnightblue" points="999.17,-85.83 995.7,-75.82 992.17,-85.81 999.17,-85.83"/>
</g>
<!-- Node18&#45;&gt;Node12 -->
<g id="edge31" class="edge">
<title>Node18&#45;&gt;Node12</title>
<path fill="none" stroke="midnightblue" d="M855.82,-243.59C738.35,-242.04 454.31,-234.6 366.41,-199 337.04,-187.1 309.98,-161.48 294.34,-144.62"/>
<polygon fill="midnightblue" stroke="midnightblue" points="296.91,-142.25 287.62,-137.15 291.7,-146.93 296.91,-142.25"/>
</g>
<!-- Node19 -->
<g id="node19" class="node">
<title>Node19</title>
<g id="a_node19"><a xlink:href="task__base_8hpp.html" target="_top" xlink:title=" ">
<polygon fill="white" stroke="black" points="569.91,-179.5 569.91,-198.5 656.91,-198.5 656.91,-179.5 569.91,-179.5"/>
<text text-anchor="middle" x="613.41" y="-186.5" font-family="Helvetica,sans-Serif" font-size="10.00">task_base.hpp</text>
</a>
</g>
</g>
<!-- Node18&#45;&gt;Node19 -->
<g id="edge30" class="edge">
<title>Node18&#45;&gt;Node19</title>
<path fill="none" stroke="midnightblue" d="M860.82,-235.44C808.24,-225.78 722.81,-210.09 667.36,-199.91"/>
<polygon fill="midnightblue" stroke="midnightblue" points="667.84,-196.44 657.38,-198.08 666.58,-203.32 667.84,-196.44"/>
</g>
<!-- Node20 -->
<g id="node20" class="node">
<title>Node20</title>
<g id="a_node20"><a xlink:title=" ">
<polygon fill="white" stroke="#bfbfbf" points="675.41,-179.5 675.41,-198.5 837.41,-198.5 837.41,-179.5 675.41,-179.5"/>
<text text-anchor="middle" x="756.41" y="-186.5" font-family="Helvetica,sans-Serif" font-size="10.00">thread/condition_variable.hpp</text>
</a>
</g>
</g>
<!-- Node18&#45;&gt;Node20 -->
<g id="edge32" class="edge">
<title>Node18&#45;&gt;Node20</title>
<path fill="none" stroke="midnightblue" d="M883.48,-235.44C858.19,-226.4 818.11,-212.06 789.73,-201.92"/>
<polygon fill="midnightblue" stroke="midnightblue" points="790.82,-198.59 780.22,-198.52 788.46,-205.18 790.82,-198.59"/>
</g>
<!-- Node21 -->
<g id="node21" class="node">
<title>Node21</title>
<g id="a_node21"><a xlink:title=" ">
<polygon fill="white" stroke="#bfbfbf" points="1085.41,-179.5 1085.41,-198.5 1189.41,-198.5 1189.41,-179.5 1085.41,-179.5"/>
<text text-anchor="middle" x="1137.41" y="-186.5" font-family="Helvetica,sans-Serif" font-size="10.00">thread/mutex.hpp</text>
</a>
</g>
</g>
<!-- Node18&#45;&gt;Node21 -->
<g id="edge33" class="edge">
<title>Node18&#45;&gt;Node21</title>
<path fill="none" stroke="midnightblue" d="M943.85,-235.44C983.81,-226.06 1048,-210.99 1091.39,-200.8"/>
<polygon fill="midnightblue" stroke="midnightblue" points="1092.2,-204.21 1101.14,-198.52 1090.6,-197.39 1092.2,-204.21"/>
</g>
<!-- Node22 -->
<g id="node22" class="node">
<title>Node22</title>
<g id="a_node22"><a xlink:title=" ">
<polygon fill="white" stroke="#bfbfbf" points="855.41,-179.5 855.41,-198.5 959.41,-198.5 959.41,-179.5 855.41,-179.5"/>
<text text-anchor="middle" x="907.41" y="-186.5" font-family="Helvetica,sans-Serif" font-size="10.00">thread/thread.hpp</text>
</a>
</g>
</g>
<!-- Node18&#45;&gt;Node22 -->
<g id="edge34" class="edge">
<title>Node18&#45;&gt;Node22</title>
<path fill="none" stroke="midnightblue" d="M907.41,-235.08C907.41,-228.01 907.41,-217.86 907.41,-208.99"/>
<polygon fill="midnightblue" stroke="midnightblue" points="910.91,-208.75 907.41,-198.75 903.91,-208.75 910.91,-208.75"/>
</g>
<!-- Node23 -->
<g id="node23" class="node">
<title>Node23</title>
<g id="a_node23"><a xlink:title=" ">
<polygon fill="white" stroke="#bfbfbf" points="1015.91,-179.5 1015.91,-198.5 1066.91,-198.5 1066.91,-179.5 1015.91,-179.5"/>
<text text-anchor="middle" x="1041.41" y="-186.5" font-family="Helvetica,sans-Serif" font-size="10.00">csignal</text>
</a>
</g>
</g>
<!-- Node18&#45;&gt;Node23 -->
<g id="edge35" class="edge">
<title>Node18&#45;&gt;Node23</title>
<path fill="none" stroke="midnightblue" d="M928.64,-235.44C950.79,-226.52 985.73,-212.44 1010.85,-202.32"/>
<polygon fill="midnightblue" stroke="midnightblue" points="1012.31,-205.5 1020.28,-198.52 1009.69,-199.01 1012.31,-205.5"/>
</g>
<!-- Node24&#45;&gt;Node4 -->
<g id="edge37" class="edge">
<title>Node24&#45;&gt;Node4</title>
<path fill="none" stroke="midnightblue" d="M1505.48,-240.27C1551.84,-234.4 1631.04,-221.34 1648.41,-199 1653.87,-191.98 1654.06,-185.86 1648.41,-179 1573.11,-87.47 1195.84,-70.72 1051.6,-67.67"/>
<polygon fill="midnightblue" stroke="midnightblue" points="1051.29,-64.17 1041.22,-67.47 1051.15,-71.17 1051.29,-64.17"/>
</g>
<!-- Node24&#45;&gt;Node9 -->
<g id="edge45" class="edge">
<title>Node24&#45;&gt;Node9</title>
<path fill="none" stroke="midnightblue" d="M1437.33,-242.64C1402.13,-239.52 1347.54,-229.65 1312.41,-199 1280.62,-171.26 1308.42,-136.97 1274.41,-112 1216.52,-69.51 1028.92,-87.79 941.58,-75.77"/>
<polygon fill="midnightblue" stroke="midnightblue" points="942.12,-72.31 931.69,-74.19 941.02,-79.22 942.12,-72.31"/>
</g>
<!-- Node24&#45;&gt;Node14 -->
<g id="edge44" class="edge">
<title>Node24&#45;&gt;Node14</title>
<path fill="none" stroke="midnightblue" d="M1462.69,-235.27C1448.6,-221.58 1419.47,-195.01 1390.41,-179 1353.14,-158.47 1306.02,-144.07 1275.31,-136.04"/>
<polygon fill="midnightblue" stroke="midnightblue" points="1276.12,-132.63 1265.57,-133.56 1274.4,-139.42 1276.12,-132.63"/>
</g>
<!-- Node24&#45;&gt;Node21 -->
<g id="edge38" class="edge">
<title>Node24&#45;&gt;Node21</title>
<path fill="none" stroke="midnightblue" d="M1437.23,-238.47C1381.38,-229.44 1269.72,-211.39 1199.55,-200.05"/>
<polygon fill="midnightblue" stroke="midnightblue" points="1199.94,-196.56 1189.51,-198.42 1198.82,-203.47 1199.94,-196.56"/>
</g>
<!-- Node25 -->
<g id="node25" class="node">
<title>Node25</title>
<g id="a_node25"><a xlink:title=" ">
<polygon fill="white" stroke="#bfbfbf" points="1437.41,-179.5 1437.41,-198.5 1505.41,-198.5 1505.41,-179.5 1437.41,-179.5"/>
<text text-anchor="middle" x="1471.41" y="-186.5" font-family="Helvetica,sans-Serif" font-size="10.00">sys/time.h</text>
</a>
</g>
</g>
<!-- Node24&#45;&gt;Node25 -->
<g id="edge39" class="edge">
<title>Node24&#45;&gt;Node25</title>
<path fill="none" stroke="midnightblue" d="M1471.41,-235.08C1471.41,-228.01 1471.41,-217.86 1471.41,-208.99"/>
<polygon fill="midnightblue" stroke="midnightblue" points="1474.91,-208.75 1471.41,-198.75 1467.91,-208.75 1474.91,-208.75"/>
</g>
<!-- Node26 -->
<g id="node26" class="node">
<title>Node26</title>
<g id="a_node26"><a xlink:title=" ">
<polygon fill="white" stroke="#bfbfbf" points="1523.91,-179.5 1523.91,-198.5 1576.91,-198.5 1576.91,-179.5 1523.91,-179.5"/>
<text text-anchor="middle" x="1550.41" y="-186.5" font-family="Helvetica,sans-Serif" font-size="10.00">cstdarg</text>
</a>
</g>
</g>
<!-- Node24&#45;&gt;Node26 -->
<g id="edge40" class="edge">
<title>Node24&#45;&gt;Node26</title>
<path fill="none" stroke="midnightblue" d="M1484.1,-235.32C1496.31,-226.98 1514.99,-214.21 1529.41,-204.35"/>
<polygon fill="midnightblue" stroke="midnightblue" points="1531.47,-207.19 1537.75,-198.65 1527.52,-201.41 1531.47,-207.19"/>
</g>
<!-- Node27 -->
<g id="node27" class="node">
<title>Node27</title>
<g id="a_node27"><a xlink:title=" ">
<polygon fill="white" stroke="#bfbfbf" points="1595.41,-179.5 1595.41,-198.5 1639.41,-198.5 1639.41,-179.5 1595.41,-179.5"/>
<text text-anchor="middle" x="1617.41" y="-186.5" font-family="Helvetica,sans-Serif" font-size="10.00">ctime</text>
</a>
</g>
</g>
<!-- Node24&#45;&gt;Node27 -->
<g id="edge41" class="edge">
<title>Node24&#45;&gt;Node27</title>
<path fill="none" stroke="midnightblue" d="M1494.54,-235.44C1519.18,-226.33 1558.32,-211.85 1585.8,-201.69"/>
<polygon fill="midnightblue" stroke="midnightblue" points="1587.17,-204.91 1595.34,-198.16 1584.75,-198.35 1587.17,-204.91"/>
</g>
<!-- Node28 -->
<g id="node28" class="node">
<title>Node28</title>
<g id="a_node28"><a xlink:title=" ">
<polygon fill="white" stroke="#bfbfbf" points="1321.41,-179.5 1321.41,-198.5 1381.41,-198.5 1381.41,-179.5 1321.41,-179.5"/>
<text text-anchor="middle" x="1351.41" y="-186.5" font-family="Helvetica,sans-Serif" font-size="10.00">iostream</text>
</a>
</g>
</g>
<!-- Node24&#45;&gt;Node28 -->
<g id="edge42" class="edge">
<title>Node24&#45;&gt;Node28</title>
<path fill="none" stroke="midnightblue" d="M1452.39,-235.44C1432.82,-226.64 1402.1,-212.81 1379.68,-202.72"/>
<polygon fill="midnightblue" stroke="midnightblue" points="1380.89,-199.43 1370.33,-198.52 1378.02,-205.81 1380.89,-199.43"/>
</g>
<!-- Node24&#45;&gt;Node29 -->
<g id="edge43" class="edge">
<title>Node24&#45;&gt;Node29</title>
<path fill="none" stroke="midnightblue" d="M1505.66,-236.66C1552.52,-226.62 1636.37,-208.65 1685.21,-198.19"/>
<polygon fill="midnightblue" stroke="midnightblue" points="1686.03,-201.59 1695.07,-196.07 1684.56,-194.74 1686.03,-201.59"/>
</g>
<!-- Node30&#45;&gt;Node4 -->
<g id="edge47" class="edge">
<title>Node30&#45;&gt;Node4</title>
<path fill="none" stroke="midnightblue" d="M1893.67,-179.5C1876.88,-161.28 1837.19,-119.54 1819.41,-112 1749.16,-82.22 1225.26,-70.84 1051.34,-67.86"/>
<polygon fill="midnightblue" stroke="midnightblue" points="1051.18,-64.36 1041.13,-67.69 1051.07,-71.36 1051.18,-64.36"/>
</g>
<!-- Node30&#45;&gt;Node10 -->
<g id="edge49" class="edge">
<title>Node30&#45;&gt;Node10</title>
<path fill="none" stroke="midnightblue" d="M1907.6,-179.44C1913.68,-170.68 1922.83,-156.47 1928.41,-143 1936.2,-124.19 1941.37,-101.4 1944.33,-85.71"/>
<polygon fill="midnightblue" stroke="midnightblue" points="1947.81,-86.15 1946.1,-75.7 1940.91,-84.94 1947.81,-86.15"/>
</g>
<!-- Node30&#45;&gt;Node16 -->
<g id="edge50" class="edge">
<title>Node30&#45;&gt;Node16</title>
<path fill="none" stroke="midnightblue" d="M1845.18,-183.88C1819.36,-182.13 1788.35,-180.21 1760.41,-179 1414.2,-163.96 542.25,-205.55 201.41,-143 197.7,-142.32 193.88,-141.35 190.13,-140.24"/>
<polygon fill="midnightblue" stroke="midnightblue" points="191.09,-136.87 180.5,-137.03 188.88,-143.51 191.09,-136.87"/>
</g>
<!-- Node31 -->
<g id="node31" class="node">
<title>Node31</title>
<g id="a_node31"><a xlink:title=" ">
<polygon fill="white" stroke="#bfbfbf" points="1871.91,-118 1871.91,-137 1918.91,-137 1918.91,-118 1871.91,-118"/>
<text text-anchor="middle" x="1895.41" y="-125" font-family="Helvetica,sans-Serif" font-size="10.00">cerrno</text>
</a>
</g>
</g>
<!-- Node30&#45;&gt;Node31 -->
<g id="edge48" class="edge">
<title>Node30&#45;&gt;Node31</title>
<path fill="none" stroke="midnightblue" d="M1900.55,-179.48C1899.7,-171.08 1898.38,-157.98 1897.29,-147.16"/>
<polygon fill="midnightblue" stroke="midnightblue" points="1900.75,-146.61 1896.27,-137.01 1893.79,-147.31 1900.75,-146.61"/>
</g>
<!-- Node32&#45;&gt;Node4 -->
<g id="edge54" class="edge">
<title>Node32&#45;&gt;Node4</title>
<path fill="none" stroke="midnightblue" d="M2065.96,-235.2C2034.82,-206.23 1936.94,-115.5 1928.41,-112 1847.49,-78.74 1240.03,-69.58 1051.23,-67.52"/>
<polygon fill="midnightblue" stroke="midnightblue" points="1051.01,-64.02 1040.98,-67.41 1050.94,-71.02 1051.01,-64.02"/>
</g>
<!-- Node32&#45;&gt;Node10 -->
<g id="edge63" class="edge">
<title>Node32&#45;&gt;Node10</title>
<path fill="none" stroke="midnightblue" d="M2068.63,-235.3C2061.86,-226.43 2051.34,-212.13 2043.41,-199 2021.01,-161.91 2026.07,-146.16 1999.41,-112 1990.46,-100.53 1978.24,-89.78 1967.9,-81.67"/>
<polygon fill="midnightblue" stroke="midnightblue" points="1969.85,-78.76 1959.77,-75.51 1965.63,-84.34 1969.85,-78.76"/>
</g>
<!-- Node32&#45;&gt;Node14 -->
<g id="edge66" class="edge">
<title>Node32&#45;&gt;Node14</title>
<path fill="none" stroke="midnightblue" d="M2027.59,-236.03C1979.19,-227.72 1902.31,-213.86 1836.41,-199 1802.34,-191.32 1794.79,-185.16 1760.41,-179 1578.82,-146.45 1357.32,-133.68 1275.64,-129.86"/>
<polygon fill="midnightblue" stroke="midnightblue" points="1275.65,-126.35 1265.5,-129.39 1275.33,-133.34 1275.65,-126.35"/>
</g>
<!-- Node32&#45;&gt;Node29 -->
<g id="edge64" class="edge">
<title>Node32&#45;&gt;Node29</title>
<path fill="none" stroke="midnightblue" d="M2027.72,-238.08C1966.71,-230.29 1857.88,-215.6 1765.41,-199 1764.17,-198.78 1762.91,-198.55 1761.64,-198.31"/>
<polygon fill="midnightblue" stroke="midnightblue" points="1762.31,-194.87 1751.82,-196.36 1760.95,-201.74 1762.31,-194.87"/>
</g>
<!-- Node32&#45;&gt;Node30 -->
<g id="edge53" class="edge">
<title>Node32&#45;&gt;Node30</title>
<path fill="none" stroke="midnightblue" d="M2047.84,-235.44C2018.31,-226.28 1971.29,-211.69 1938.53,-201.52"/>
<polygon fill="midnightblue" stroke="midnightblue" points="1939.44,-198.14 1928.85,-198.52 1937.36,-204.82 1939.44,-198.14"/>
</g>
<!-- Node33 -->
<g id="node33" class="node">
<title>Node33</title>
<g id="a_node33"><a xlink:title=" ">
<polygon fill="white" stroke="#bfbfbf" points="2051.91,-179.5 2051.91,-198.5 2098.91,-198.5 2098.91,-179.5 2051.91,-179.5"/>
<text text-anchor="middle" x="2075.41" y="-186.5" font-family="Helvetica,sans-Serif" font-size="10.00">fcntl.h</text>
</a>
</g>
</g>
<!-- Node32&#45;&gt;Node33 -->
<g id="edge55" class="edge">
<title>Node32&#45;&gt;Node33</title>
<path fill="none" stroke="midnightblue" d="M2075.41,-235.08C2075.41,-228.01 2075.41,-217.86 2075.41,-208.99"/>
<polygon fill="midnightblue" stroke="midnightblue" points="2078.91,-208.75 2075.41,-198.75 2071.91,-208.75 2078.91,-208.75"/>
</g>
<!-- Node34 -->
<g id="node34" class="node">
<title>Node34</title>
<g id="a_node34"><a xlink:title=" ">
<polygon fill="white" stroke="#bfbfbf" points="2116.91,-179.5 2116.91,-198.5 2169.91,-198.5 2169.91,-179.5 2116.91,-179.5"/>
<text text-anchor="middle" x="2143.41" y="-186.5" font-family="Helvetica,sans-Serif" font-size="10.00">netdb.h</text>
</a>
</g>
</g>
<!-- Node32&#45;&gt;Node34 -->
<g id="edge56" class="edge">
<title>Node32&#45;&gt;Node34</title>
<path fill="none" stroke="midnightblue" d="M2086.33,-235.32C2096.58,-227.18 2112.13,-214.84 2124.41,-205.09"/>
<polygon fill="midnightblue" stroke="midnightblue" points="2126.63,-207.79 2132.28,-198.83 2122.28,-202.31 2126.63,-207.79"/>
</g>
<!-- Node35 -->
<g id="node35" class="node">
<title>Node35</title>
<g id="a_node35"><a xlink:title=" ">
<polygon fill="white" stroke="#bfbfbf" points="2188.41,-179.5 2188.41,-198.5 2260.41,-198.5 2260.41,-179.5 2188.41,-179.5"/>
<text text-anchor="middle" x="2224.41" y="-186.5" font-family="Helvetica,sans-Serif" font-size="10.00">netinet/in.h</text>
</a>
</g>
</g>
<!-- Node32&#45;&gt;Node35 -->
<g id="edge57" class="edge">
<title>Node32&#45;&gt;Node35</title>
<path fill="none" stroke="midnightblue" d="M2099.02,-235.44C2123.87,-226.44 2163.18,-212.19 2191.16,-202.05"/>
<polygon fill="midnightblue" stroke="midnightblue" points="2192.7,-205.21 2200.91,-198.52 2190.32,-198.63 2192.7,-205.21"/>
</g>
<!-- Node36 -->
<g id="node36" class="node">
<title>Node36</title>
<g id="a_node36"><a xlink:title=" ">
<polygon fill="white" stroke="#bfbfbf" points="2278.41,-179.5 2278.41,-198.5 2356.41,-198.5 2356.41,-179.5 2278.41,-179.5"/>
<text text-anchor="middle" x="2317.41" y="-186.5" font-family="Helvetica,sans-Serif" font-size="10.00">netinet/tcp.h</text>
</a>
</g>
</g>
<!-- Node32&#45;&gt;Node36 -->
<g id="edge58" class="edge">
<title>Node32&#45;&gt;Node36</title>
<path fill="none" stroke="midnightblue" d="M2113.75,-235.44C2155.88,-226.04 2223.62,-210.93 2269.28,-200.74"/>
<polygon fill="midnightblue" stroke="midnightblue" points="2270.25,-204.11 2279.24,-198.52 2268.72,-197.28 2270.25,-204.11"/>
</g>
<!-- Node37 -->
<g id="node37" class="node">
<title>Node37</title>
<g id="a_node37"><a xlink:title=" ">
<polygon fill="white" stroke="#bfbfbf" points="2374.91,-179.5 2374.91,-198.5 2451.91,-198.5 2451.91,-179.5 2374.91,-179.5"/>
<text text-anchor="middle" x="2413.41" y="-186.5" font-family="Helvetica,sans-Serif" font-size="10.00">sys/socket.h</text>
</a>
</g>
</g>
<!-- Node32&#45;&gt;Node37 -->
<g id="edge59" class="edge">
<title>Node32&#45;&gt;Node37</title>
<path fill="none" stroke="midnightblue" d="M2122.95,-237.09C2178.44,-228.92 2273.21,-214.65 2364.67,-199.08"/>
<polygon fill="midnightblue" stroke="midnightblue" points="2365.39,-202.51 2374.66,-197.37 2364.21,-195.61 2365.39,-202.51"/>
</g>
<!-- Node38 -->
<g id="node38" class="node">
<title>Node38</title>
<g id="a_node38"><a xlink:title=" ">
<polygon fill="white" stroke="#bfbfbf" points="2470.41,-179.5 2470.41,-198.5 2542.41,-198.5 2542.41,-179.5 2470.41,-179.5"/>
<text text-anchor="middle" x="2506.41" y="-186.5" font-family="Helvetica,sans-Serif" font-size="10.00">sys/types.h</text>
</a>
</g>
</g>
<!-- Node32&#45;&gt;Node38 -->
<g id="edge60" class="edge">
<title>Node32&#45;&gt;Node38</title>
<path fill="none" stroke="midnightblue" d="M2123.11,-236.91C2127.94,-236.24 2132.77,-235.59 2137.41,-235 2277.89,-217 2316.52,-221.03 2460.05,-199.1"/>
<polygon fill="midnightblue" stroke="midnightblue" points="2460.76,-202.53 2470.11,-197.54 2459.69,-195.61 2460.76,-202.53"/>
</g>
<!-- Node39 -->
<g id="node39" class="node">
<title>Node39</title>
<g id="a_node39"><a xlink:title=" ">
<polygon fill="white" stroke="#bfbfbf" points="2560.41,-179.5 2560.41,-198.5 2616.41,-198.5 2616.41,-179.5 2560.41,-179.5"/>
<text text-anchor="middle" x="2588.41" y="-186.5" font-family="Helvetica,sans-Serif" font-size="10.00">unistd.h</text>
</a>
</g>
</g>
<!-- Node32&#45;&gt;Node39 -->
<g id="edge61" class="edge">
<title>Node32&#45;&gt;Node39</title>
<path fill="none" stroke="midnightblue" d="M2123.1,-236.8C2127.93,-236.15 2132.76,-235.54 2137.41,-235 2317.65,-214.1 2367.41,-228.39 2550.27,-198.95"/>
<polygon fill="midnightblue" stroke="midnightblue" points="2550.91,-202.39 2560.22,-197.32 2549.78,-195.48 2550.91,-202.39"/>
</g>
<!-- Node32&#45;&gt;Node40 -->
<g id="edge62" class="edge">
<title>Node32&#45;&gt;Node40</title>
<path fill="none" stroke="midnightblue" d="M2123.09,-236.73C2127.92,-236.1 2132.76,-235.51 2137.41,-235 2350.33,-211.72 2408.92,-232.84 2624.72,-198.81"/>
<polygon fill="midnightblue" stroke="midnightblue" points="2625.46,-202.23 2634.78,-197.2 2624.35,-195.32 2625.46,-202.23"/>
</g>
<!-- Node32&#45;&gt;Node41 -->
<g id="edge65" class="edge">
<title>Node32&#45;&gt;Node41</title>
<path fill="none" stroke="midnightblue" d="M2122.95,-239.52C2139.54,-238.01 2158.29,-236.36 2175.41,-235 2403.95,-216.84 2465.48,-231.59 2695.79,-199.04"/>
<polygon fill="midnightblue" stroke="midnightblue" points="2696.41,-202.49 2705.81,-197.61 2695.42,-195.56 2696.41,-202.49"/>
</g>
</g>
</svg>
        <g id="navigator" transform="translate(0 0)" fill="#404254">
                <rect fill="#f2f5e9" fill-opacity="0.5" stroke="#606060" stroke-width=".5" x="0" y="0" width="60" height="60"/>
                <use id="zoomplus" xlink:href="#zoomPlus" x="17" y="9" onmousedown="handleZoom(evt,'in')"/>
                <use id="zoomminus" xlink:href="#zoomMin" x="42" y="9" onmousedown="handleZoom(evt,'out')"/>
                <use id="reset" xlink:href="#resetDef" x="30" y="36" onmousedown="handleReset()"/>
                <g id="arrowUp" xlink:href="#dirArrow" transform="translate(30 24)" onmousedown="handlePan(0,-1)">
                  <use xlink:href="#rim" fill="#404040">
                        <set attributeName="fill" to="#808080" begin="arrowUp.mouseover" end="arrowUp.mouseout"/>
                  </use>
                  <path fill="none" stroke="white" stroke-width="1.5" d="M0,-3.0v7 M-2.5,-0.5L0,-3.0L2.5,-0.5"/>
                </g>
                <g id="arrowRight" xlink:href="#dirArrow" transform="rotate(90) translate(36 -43)" onmousedown="handlePan(1,0)">
                  <use xlink:href="#rim" fill="#404040">
                        <set attributeName="fill" to="#808080" begin="arrowRight.mouseover" end="arrowRight.mouseout"/>
                  </use>
                  <path fill="none" stroke="white" stroke-width="1.5" d="M0,-3.0v7 M-2.5,-0.5L0,-3.0L2.5,-0.5"/>
                </g>
                <g id="arrowDown" xlink:href="#dirArrow" transform="rotate(180) translate(-30 -48)" onmousedown="handlePan(0,1)">
                  <use xlink:href="#rim" fill="#404040">
                        <set attributeName="fill" to="#808080" begin="arrowDown.mouseover" end="arrowDown.mouseout"/>
                  </use>
                  <path fill="none" stroke="white" stroke-width="1.5" d="M0,-3.0v7 M-2.5,-0.5L0,-3.0L2.5,-0.5"/>
                </g>
                <g id="arrowLeft" xlink:href="#dirArrow" transform="rotate(270) translate(-36 17)" onmousedown="handlePan(-1,0)">
                  <use xlink:href="#rim" fill="#404040">
                        <set attributeName="fill" to="#808080" begin="arrowLeft.mouseover" end="arrowLeft.mouseout"/>
                  </use>
                  <path fill="none" stroke="white" stroke-width="1.5" d="M0,-3.0v7 M-2.5,-0.5L0,-3.0L2.5,-0.5"/>
                </g>
        </g>
        <svg viewBox="0 0 15 15" width="100%" height="30px" preserveAspectRatio="xMaxYMin meet">
         <g id="arrow_out" transform="scale(0.3 0.3)">
          <a xlink:href="event__channel__base_8cpp__incl_org.svg" target="_base">
           <rect id="button" ry="5" rx="5" y="6" x="6" height="38" width="38"
                fill="#f2f5e9" fill-opacity="0.5" stroke="#606060" stroke-width="1.0"/>
           <path id="arrow"
             d="M 11.500037,31.436501 C 11.940474,20.09759 22.043105,11.32322 32.158766,21.979434 L 37.068811,17.246167 C 37.068811,17.246167 37.088388,32 37.088388,32 L 22.160133,31.978069 C 22.160133,31.978069 26.997745,27.140456 26.997745,27.140456 C 18.528582,18.264221 13.291696,25.230495 11.500037,31.436501 z"
             style="fill:#404040;"/>
          </a>
         </g>
        </svg>
</svg>
