<?xml version="1.0" encoding="UTF-8" standalone="no"?>
<!DOCTYPE svg PUBLIC "-//W3C//DTD SVG 1.1//EN"
 "http://www.w3.org/Graphics/SVG/1.1/DTD/svg11.dtd">
<!-- Generated by graphviz version 2.43.0 (0)
 -->
<!-- Title: includes/libserv/event_worker_group.cpp Pages: 1 -->
<!--zoomable 386 -->
<svg id="main" version="1.1" xmlns="http://www.w3.org/2000/svg" xmlns:xlink="http://www.w3.org/1999/xlink" xml:space="preserve" onload="init(evt)">
<style type="text/css"><![CDATA[
.edge:hover path { stroke: red; }
.edge:hover polygon { stroke: red; fill: red; }
]]></style>
<script type="text/javascript"><![CDATA[
var edges = document.getElementsByTagName('g');
if (edges && edges.length) {
  for (var i=0;i<edges.length;i++) {
    if (edges[i].id.substr(0,4)=='edge') {
      edges[i].setAttribute('class','edge');
    }
  }
}
]]></script>
        <defs>
                <circle id="rim" cx="0" cy="0" r="7"/>
                <circle id="rim2" cx="0" cy="0" r="3.5"/>
                <g id="zoomPlus">
                        <use xlink:href="#rim" fill="#404040">
                                <set attributeName="fill" to="#808080" begin="zoomplus.mouseover" end="zoomplus.mouseout"/>
                        </use>
                        <path d="M-4,0h8M0,-4v8" fill="none" stroke="white" stroke-width="1.5" pointer-events="none"/>
                </g>
                <g id="zoomMin">
                        <use xlink:href="#rim" fill="#404040">
                                <set attributeName="fill" to="#808080" begin="zoomminus.mouseover" end="zoomminus.mouseout"/>
                        </use>
                        <path d="M-4,0h8" fill="none" stroke="white" stroke-width="1.5" pointer-events="none"/>
                </g>
                <g id="dirArrow">
                        <path fill="none" stroke="white" stroke-width="1.5" d="M0,-3.0v7 M-2.5,-0.5L0,-3.0L2.5,-0.5"/>
                </g>
               <g id="resetDef">
                       <use xlink:href="#rim2" fill="#404040">
                               <set attributeName="fill" to="#808080" begin="reset.mouseover" end="reset.mouseout"/>
                       </use>
               </g>
        </defs>

<script type="text/javascript">
var viewWidth = 1369;
var viewHeight = 386;
var sectionId = 'dynsection-0';
</script>
<script xlink:href="svgpan.js"/>
<svg id="graph" class="graph">
<g id="viewport">
<title>includes/libserv/event_worker_group.cpp</title>
<polygon fill="white" stroke="transparent" points="-4,4 -4,-382 1364.5,-382 1364.5,4 -4,4"/>
<!-- Node1 -->
<g id="node1" class="node">
<title>Node1</title>
<g id="a_node1"><a xlink:title=" ">
<polygon fill="#bfbfbf" stroke="black" points="954,-347.5 954,-377.5 1078,-377.5 1078,-347.5 954,-347.5"/>
<text text-anchor="start" x="962" y="-365.5" font-family="Helvetica,sans-Serif" font-size="10.00">includes/libserv/event</text>
<text text-anchor="middle" x="1016" y="-354.5" font-family="Helvetica,sans-Serif" font-size="10.00">_worker_group.cpp</text>
</a>
</g>
</g>
<!-- Node2 -->
<g id="node2" class="node">
<title>Node2</title>
<g id="a_node2"><a xlink:href="event__worker__group_8hpp.html" target="_top" xlink:title=" ">
<polygon fill="white" stroke="black" points="899.5,-291.5 899.5,-310.5 1036.5,-310.5 1036.5,-291.5 899.5,-291.5"/>
<text text-anchor="middle" x="968" y="-298.5" font-family="Helvetica,sans-Serif" font-size="10.00">event_worker_group.hpp</text>
</a>
</g>
</g>
<!-- Node1&#45;&gt;Node2 -->
<g id="edge1" class="edge">
<title>Node1&#45;&gt;Node2</title>
<path fill="none" stroke="midnightblue" d="M1004.62,-347.4C997.65,-338.75 988.69,-327.64 981.37,-318.58"/>
<polygon fill="midnightblue" stroke="midnightblue" points="983.99,-316.24 974.98,-310.66 978.54,-320.64 983.99,-316.24"/>
</g>
<!-- Node3 -->
<g id="node3" class="node">
<title>Node3</title>
<g id="a_node3"><a xlink:href="event__channel__base_8hpp.html" target="_top" xlink:title=" ">
<polygon fill="white" stroke="black" points="223.5,-179.5 223.5,-198.5 360.5,-198.5 360.5,-179.5 223.5,-179.5"/>
<text text-anchor="middle" x="292" y="-186.5" font-family="Helvetica,sans-Serif" font-size="10.00">event_channel_base.hpp</text>
</a>
</g>
</g>
<!-- Node1&#45;&gt;Node3 -->
<g id="edge29" class="edge">
<title>Node1&#45;&gt;Node3</title>
<path fill="none" stroke="midnightblue" d="M953.7,-348.37C862.45,-328.97 687.2,-291.03 539,-255 466.19,-237.3 381.88,-214.65 332.98,-201.29"/>
<polygon fill="midnightblue" stroke="midnightblue" points="333.67,-197.85 323.1,-198.59 331.82,-204.6 333.67,-197.85"/>
</g>
<!-- Node5 -->
<g id="node5" class="node">
<title>Node5</title>
<g id="a_node5"><a xlink:href="serv__types_8hpp.html" target="_top" xlink:title=" ">
<polygon fill="white" stroke="black" points="493.5,-56.5 493.5,-75.5 584.5,-75.5 584.5,-56.5 493.5,-56.5"/>
<text text-anchor="middle" x="539" y="-63.5" font-family="Helvetica,sans-Serif" font-size="10.00">serv_types.hpp</text>
</a>
</g>
</g>
<!-- Node1&#45;&gt;Node5 -->
<g id="edge31" class="edge">
<title>Node1&#45;&gt;Node5</title>
<path fill="none" stroke="midnightblue" d="M1070.28,-347.47C1117.69,-331.56 1179,-300.45 1179,-246 1179,-246 1179,-246 1179,-188 1179,-95.4 1075.01,-133.74 985,-112 847.39,-78.77 680.14,-70.04 594.86,-67.77"/>
<polygon fill="midnightblue" stroke="midnightblue" points="594.71,-64.27 584.63,-67.52 594.54,-71.27 594.71,-64.27"/>
</g>
<!-- Node13 -->
<g id="node13" class="node">
<title>Node13</title>
<g id="a_node13"><a xlink:title=" ">
<polygon fill="white" stroke="#bfbfbf" points="771.5,-118 771.5,-137 910.5,-137 910.5,-118 771.5,-118"/>
<text text-anchor="middle" x="841" y="-125" font-family="Helvetica,sans-Serif" font-size="10.00">smart_ptr/shared_ptr.hpp</text>
</a>
</g>
</g>
<!-- Node1&#45;&gt;Node13 -->
<g id="edge33" class="edge">
<title>Node1&#45;&gt;Node13</title>
<path fill="none" stroke="midnightblue" d="M1033.04,-347.5C1042.9,-338.28 1054.42,-325.3 1060,-311 1081.32,-256.33 1099.6,-224.87 1063,-179 1045.21,-156.7 976.91,-143.5 920.71,-136.22"/>
<polygon fill="midnightblue" stroke="midnightblue" points="921.09,-132.74 910.73,-134.97 920.22,-139.68 921.09,-132.74"/>
</g>
<!-- Node16 -->
<g id="node16" class="node">
<title>Node16</title>
<g id="a_node16"><a xlink:href="event__worker_8hpp.html" target="_top" xlink:title=" ">
<polygon fill="white" stroke="black" points="661.5,-235.5 661.5,-254.5 764.5,-254.5 764.5,-235.5 661.5,-235.5"/>
<text text-anchor="middle" x="713" y="-242.5" font-family="Helvetica,sans-Serif" font-size="10.00">event_worker.hpp</text>
</a>
</g>
</g>
<!-- Node1&#45;&gt;Node16 -->
<g id="edge30" class="edge">
<title>Node1&#45;&gt;Node16</title>
<path fill="none" stroke="midnightblue" d="M964.37,-347.43C932.01,-338.14 889.63,-325.11 853,-311 812.06,-295.24 766.23,-273.06 738.51,-259.11"/>
<polygon fill="midnightblue" stroke="midnightblue" points="740,-255.94 729.5,-254.54 736.84,-262.18 740,-255.94"/>
</g>
<!-- Node19 -->
<g id="node19" class="node">
<title>Node19</title>
<g id="a_node19"><a xlink:title=" ">
<polygon fill="white" stroke="#bfbfbf" points="811,-179.5 811,-198.5 915,-198.5 915,-179.5 811,-179.5"/>
<text text-anchor="middle" x="863" y="-186.5" font-family="Helvetica,sans-Serif" font-size="10.00">thread/mutex.hpp</text>
</a>
</g>
</g>
<!-- Node1&#45;&gt;Node19 -->
<g id="edge34" class="edge">
<title>Node1&#45;&gt;Node19</title>
<path fill="none" stroke="midnightblue" d="M953.82,-349.12C931.09,-341.65 907.04,-329.77 891,-311 866.11,-281.87 862.28,-234.88 862.27,-208.86"/>
<polygon fill="midnightblue" stroke="midnightblue" points="865.77,-208.87 862.46,-198.81 858.77,-208.74 865.77,-208.87"/>
</g>
<!-- Node20 -->
<g id="node20" class="node">
<title>Node20</title>
<g id="a_node20"><a xlink:title=" ">
<polygon fill="white" stroke="#bfbfbf" points="933,-179.5 933,-198.5 1037,-198.5 1037,-179.5 933,-179.5"/>
<text text-anchor="middle" x="985" y="-186.5" font-family="Helvetica,sans-Serif" font-size="10.00">thread/thread.hpp</text>
</a>
</g>
</g>
<!-- Node1&#45;&gt;Node20 -->
<g id="edge35" class="edge">
<title>Node1&#45;&gt;Node20</title>
<path fill="none" stroke="midnightblue" d="M1028.3,-347.32C1038.89,-333.36 1051.64,-311.25 1046,-291 1036.89,-258.29 1014,-225.6 999,-206.61"/>
<polygon fill="midnightblue" stroke="midnightblue" points="1001.58,-204.23 992.55,-198.68 996.14,-208.64 1001.58,-204.23"/>
</g>
<!-- Node22 -->
<g id="node22" class="node">
<title>Node22</title>
<g id="a_node22"><a xlink:title=" ">
<polygon fill="white" stroke="#bfbfbf" points="1207.5,-291.5 1207.5,-310.5 1360.5,-310.5 1360.5,-291.5 1207.5,-291.5"/>
<text text-anchor="middle" x="1284" y="-298.5" font-family="Helvetica,sans-Serif" font-size="10.00">smart_ptr/make_shared.hpp</text>
</a>
</g>
</g>
<!-- Node1&#45;&gt;Node22 -->
<g id="edge32" class="edge">
<title>Node1&#45;&gt;Node22</title>
<path fill="none" stroke="midnightblue" d="M1078.16,-347.7C1126.07,-337.06 1191.38,-322.56 1235.49,-312.77"/>
<polygon fill="midnightblue" stroke="midnightblue" points="1236.38,-316.16 1245.39,-310.57 1234.87,-309.32 1236.38,-316.16"/>
</g>
<!-- Node2&#45;&gt;Node3 -->
<g id="edge2" class="edge">
<title>Node2&#45;&gt;Node3</title>
<path fill="none" stroke="midnightblue" d="M903.34,-291.46C839.59,-282.88 739.44,-268.95 653,-255 543.94,-237.4 416.93,-213.81 346.36,-200.42"/>
<polygon fill="midnightblue" stroke="midnightblue" points="346.85,-196.95 336.37,-198.52 345.54,-203.83 346.85,-196.95"/>
</g>
<!-- Node2&#45;&gt;Node5 -->
<g id="edge25" class="edge">
<title>Node2&#45;&gt;Node5</title>
<path fill="none" stroke="midnightblue" d="M993.56,-291.36C1011.01,-284.21 1033.35,-272.38 1047,-255 1068.32,-227.85 1081.52,-208.13 1063,-179 1012.94,-100.26 719.56,-76.15 594.95,-69.4"/>
<polygon fill="midnightblue" stroke="midnightblue" points="595.01,-65.9 584.85,-68.87 594.65,-72.89 595.01,-65.9"/>
</g>
<!-- Node2&#45;&gt;Node13 -->
<g id="edge26" class="edge">
<title>Node2&#45;&gt;Node13</title>
<path fill="none" stroke="midnightblue" d="M981.1,-291.42C1010.57,-271.1 1077.14,-218.74 1046,-179 1030.32,-158.98 971.41,-145.83 920.75,-137.98"/>
<polygon fill="midnightblue" stroke="midnightblue" points="921.15,-134.5 910.74,-136.48 920.11,-141.42 921.15,-134.5"/>
</g>
<!-- Node2&#45;&gt;Node16 -->
<g id="edge16" class="edge">
<title>Node2&#45;&gt;Node16</title>
<path fill="none" stroke="midnightblue" d="M927.59,-291.44C883.02,-282 811.23,-266.8 763.11,-256.61"/>
<polygon fill="midnightblue" stroke="midnightblue" points="763.72,-253.16 753.22,-254.52 762.27,-260.01 763.72,-253.16"/>
</g>
<!-- Node2&#45;&gt;Node19 -->
<g id="edge27" class="edge">
<title>Node2&#45;&gt;Node19</title>
<path fill="none" stroke="midnightblue" d="M959.76,-291.37C942.2,-272.97 900.87,-229.67 878.32,-206.05"/>
<polygon fill="midnightblue" stroke="midnightblue" points="880.64,-203.41 871.2,-198.59 875.57,-208.24 880.64,-203.41"/>
</g>
<!-- Node2&#45;&gt;Node20 -->
<g id="edge28" class="edge">
<title>Node2&#45;&gt;Node20</title>
<path fill="none" stroke="midnightblue" d="M969.33,-291.37C972.08,-273.62 978.41,-232.67 982.13,-208.6"/>
<polygon fill="midnightblue" stroke="midnightblue" points="985.6,-209.01 983.67,-198.59 978.69,-207.94 985.6,-209.01"/>
</g>
<!-- Node4 -->
<g id="node4" class="node">
<title>Node4</title>
<g id="a_node4"><a xlink:href="byte__buffer_8hpp.html" target="_top" xlink:title=" ">
<polygon fill="white" stroke="black" points="13,-118 13,-137 105,-137 105,-118 13,-118"/>
<text text-anchor="middle" x="59" y="-125" font-family="Helvetica,sans-Serif" font-size="10.00">byte_buffer.hpp</text>
</a>
</g>
</g>
<!-- Node3&#45;&gt;Node4 -->
<g id="edge3" class="edge">
<title>Node3&#45;&gt;Node4</title>
<path fill="none" stroke="midnightblue" d="M257.85,-179.48C222,-170.5 164,-155.91 114,-143 109.86,-141.93 105.54,-140.81 101.23,-139.68"/>
<polygon fill="midnightblue" stroke="midnightblue" points="101.83,-136.22 91.27,-137.07 100.05,-142.99 101.83,-136.22"/>
</g>
<!-- Node3&#45;&gt;Node5 -->
<g id="edge11" class="edge">
<title>Node3&#45;&gt;Node5</title>
<path fill="none" stroke="midnightblue" d="M262.88,-179.44C245.36,-172.62 224.48,-161.14 214,-143 207.11,-131.07 204.95,-122.39 214,-112 248.26,-72.68 399.79,-66.58 483.3,-66.3"/>
<polygon fill="midnightblue" stroke="midnightblue" points="483.38,-69.8 493.38,-66.3 483.37,-62.8 483.38,-69.8"/>
</g>
<!-- Node12 -->
<g id="node12" class="node">
<title>Node12</title>
<g id="a_node12"><a xlink:title=" ">
<polygon fill="white" stroke="#bfbfbf" points="223,-112.5 223,-142.5 361,-142.5 361,-112.5 223,-112.5"/>
<text text-anchor="start" x="231" y="-130.5" font-family="Helvetica,sans-Serif" font-size="10.00">smart_ptr/enable_shared</text>
<text text-anchor="middle" x="292" y="-119.5" font-family="Helvetica,sans-Serif" font-size="10.00">_from_this.hpp</text>
</a>
</g>
</g>
<!-- Node3&#45;&gt;Node12 -->
<g id="edge12" class="edge">
<title>Node3&#45;&gt;Node12</title>
<path fill="none" stroke="midnightblue" d="M292,-179.48C292,-172.47 292,-162.19 292,-152.7"/>
<polygon fill="midnightblue" stroke="midnightblue" points="295.5,-152.52 292,-142.52 288.5,-152.52 295.5,-152.52"/>
</g>
<!-- Node3&#45;&gt;Node13 -->
<g id="edge13" class="edge">
<title>Node3&#45;&gt;Node13</title>
<path fill="none" stroke="midnightblue" d="M360.7,-180.55C462.57,-169.51 653.25,-148.85 761.18,-137.15"/>
<polygon fill="midnightblue" stroke="midnightblue" points="761.8,-140.6 771.36,-136.05 761.04,-133.65 761.8,-140.6"/>
</g>
<!-- Node14 -->
<g id="node14" class="node">
<title>Node14</title>
<g id="a_node14"><a xlink:title=" ">
<polygon fill="white" stroke="#bfbfbf" points="379,-118 379,-137 511,-137 511,-118 379,-118"/>
<text text-anchor="middle" x="445" y="-125" font-family="Helvetica,sans-Serif" font-size="10.00">smart_ptr/weak_ptr.hpp</text>
</a>
</g>
</g>
<!-- Node3&#45;&gt;Node14 -->
<g id="edge14" class="edge">
<title>Node3&#45;&gt;Node14</title>
<path fill="none" stroke="midnightblue" d="M313.92,-179.48C340.05,-169.31 383.91,-152.26 413.63,-140.7"/>
<polygon fill="midnightblue" stroke="midnightblue" points="415.07,-143.9 423.12,-137.01 412.53,-137.37 415.07,-143.9"/>
</g>
<!-- Node15 -->
<g id="node15" class="node">
<title>Node15</title>
<g id="a_node15"><a xlink:title=" ">
<polygon fill="white" stroke="#bfbfbf" points="123,-118 123,-137 167,-137 167,-118 123,-118"/>
<text text-anchor="middle" x="145" y="-125" font-family="Helvetica,sans-Serif" font-size="10.00">string</text>
</a>
</g>
</g>
<!-- Node3&#45;&gt;Node15 -->
<g id="edge15" class="edge">
<title>Node3&#45;&gt;Node15</title>
<path fill="none" stroke="midnightblue" d="M270.94,-179.48C245.94,-169.36 204.06,-152.4 175.51,-140.85"/>
<polygon fill="midnightblue" stroke="midnightblue" points="176.61,-137.52 166.02,-137.01 173.98,-144.01 176.61,-137.52"/>
</g>
<!-- Node4&#45;&gt;Node5 -->
<g id="edge4" class="edge">
<title>Node4&#45;&gt;Node5</title>
<path fill="none" stroke="midnightblue" d="M87.93,-117.99C96.28,-115.77 105.45,-113.57 114,-112 245.22,-87.9 401.78,-75.46 483.34,-70.18"/>
<polygon fill="midnightblue" stroke="midnightblue" points="483.63,-73.67 493.39,-69.54 483.19,-66.68 483.63,-73.67"/>
</g>
<!-- Node10 -->
<g id="node10" class="node">
<title>Node10</title>
<g id="a_node10"><a xlink:title=" ">
<polygon fill="white" stroke="#bfbfbf" points="68,-56.5 68,-75.5 120,-75.5 120,-56.5 68,-56.5"/>
<text text-anchor="middle" x="94" y="-63.5" font-family="Helvetica,sans-Serif" font-size="10.00">cassert</text>
</a>
</g>
</g>
<!-- Node4&#45;&gt;Node10 -->
<g id="edge9" class="edge">
<title>Node4&#45;&gt;Node10</title>
<path fill="none" stroke="midnightblue" d="M64.01,-117.98C69.16,-109.23 77.31,-95.37 83.82,-84.31"/>
<polygon fill="midnightblue" stroke="midnightblue" points="86.94,-85.9 88.99,-75.51 80.91,-82.35 86.94,-85.9"/>
</g>
<!-- Node11 -->
<g id="node11" class="node">
<title>Node11</title>
<g id="a_node11"><a xlink:title=" ">
<polygon fill="white" stroke="#bfbfbf" points="0,-56.5 0,-75.5 50,-75.5 50,-56.5 0,-56.5"/>
<text text-anchor="middle" x="25" y="-63.5" font-family="Helvetica,sans-Serif" font-size="10.00">cstring</text>
</a>
</g>
</g>
<!-- Node4&#45;&gt;Node11 -->
<g id="edge10" class="edge">
<title>Node4&#45;&gt;Node11</title>
<path fill="none" stroke="midnightblue" d="M54.13,-117.98C49.13,-109.23 41.21,-95.37 34.89,-84.31"/>
<polygon fill="midnightblue" stroke="midnightblue" points="37.86,-82.46 29.86,-75.51 31.78,-85.93 37.86,-82.46"/>
</g>
<!-- Node6 -->
<g id="node6" class="node">
<title>Node6</title>
<g id="a_node6"><a xlink:title=" ">
<polygon fill="white" stroke="#bfbfbf" points="427.5,-0.5 427.5,-19.5 474.5,-19.5 474.5,-0.5 427.5,-0.5"/>
<text text-anchor="middle" x="451" y="-7.5" font-family="Helvetica,sans-Serif" font-size="10.00">deque</text>
</a>
</g>
</g>
<!-- Node5&#45;&gt;Node6 -->
<g id="edge5" class="edge">
<title>Node5&#45;&gt;Node6</title>
<path fill="none" stroke="midnightblue" d="M524.86,-56.32C511.13,-47.9 490.06,-34.97 473.94,-25.07"/>
<polygon fill="midnightblue" stroke="midnightblue" points="475.46,-21.9 465.1,-19.65 471.8,-27.87 475.46,-21.9"/>
</g>
<!-- Node7 -->
<g id="node7" class="node">
<title>Node7</title>
<g id="a_node7"><a xlink:title=" ">
<polygon fill="white" stroke="#bfbfbf" points="493,-0.5 493,-19.5 531,-19.5 531,-0.5 493,-0.5"/>
<text text-anchor="middle" x="512" y="-7.5" font-family="Helvetica,sans-Serif" font-size="10.00">map</text>
</a>
</g>
</g>
<!-- Node5&#45;&gt;Node7 -->
<g id="edge6" class="edge">
<title>Node5&#45;&gt;Node7</title>
<path fill="none" stroke="midnightblue" d="M534.54,-56.08C530.85,-48.69 525.48,-37.95 520.91,-28.81"/>
<polygon fill="midnightblue" stroke="midnightblue" points="523.98,-27.13 516.38,-19.75 517.72,-30.26 523.98,-27.13"/>
</g>
<!-- Node8 -->
<g id="node8" class="node">
<title>Node8</title>
<g id="a_node8"><a xlink:title=" ">
<polygon fill="white" stroke="#bfbfbf" points="549,-0.5 549,-19.5 581,-19.5 581,-0.5 549,-0.5"/>
<text text-anchor="middle" x="565" y="-7.5" font-family="Helvetica,sans-Serif" font-size="10.00">set</text>
</a>
</g>
</g>
<!-- Node5&#45;&gt;Node8 -->
<g id="edge7" class="edge">
<title>Node5&#45;&gt;Node8</title>
<path fill="none" stroke="midnightblue" d="M543.29,-56.08C546.85,-48.69 552.02,-37.95 556.42,-28.81"/>
<polygon fill="midnightblue" stroke="midnightblue" points="559.6,-30.28 560.79,-19.75 553.29,-27.24 559.6,-30.28"/>
</g>
<!-- Node9 -->
<g id="node9" class="node">
<title>Node9</title>
<g id="a_node9"><a xlink:title=" ">
<polygon fill="white" stroke="#bfbfbf" points="599.5,-0.5 599.5,-19.5 646.5,-19.5 646.5,-0.5 599.5,-0.5"/>
<text text-anchor="middle" x="623" y="-7.5" font-family="Helvetica,sans-Serif" font-size="10.00">vector</text>
</a>
</g>
</g>
<!-- Node5&#45;&gt;Node9 -->
<g id="edge8" class="edge">
<title>Node5&#45;&gt;Node9</title>
<path fill="none" stroke="midnightblue" d="M552.5,-56.32C565.6,-47.9 585.71,-34.97 601.11,-25.07"/>
<polygon fill="midnightblue" stroke="midnightblue" points="603.02,-28.01 609.54,-19.65 599.23,-22.12 603.02,-28.01"/>
</g>
<!-- Node16&#45;&gt;Node3 -->
<g id="edge17" class="edge">
<title>Node16&#45;&gt;Node3</title>
<path fill="none" stroke="midnightblue" d="M661.38,-237.38C588.16,-227.99 453.64,-210.73 368.72,-199.84"/>
<polygon fill="midnightblue" stroke="midnightblue" points="368.99,-196.35 358.62,-198.55 368.09,-203.29 368.99,-196.35"/>
</g>
<!-- Node16&#45;&gt;Node5 -->
<g id="edge18" class="edge">
<title>Node16&#45;&gt;Node5</title>
<path fill="none" stroke="midnightblue" d="M661.27,-238.14C576.43,-228.27 416.21,-208.51 408,-199 402.19,-192.27 402.76,-186.18 408,-179 438.8,-136.75 484.27,-181.17 520,-143 534.35,-127.67 538.3,-103.19 539.18,-86.17"/>
<polygon fill="midnightblue" stroke="midnightblue" points="542.68,-85.86 539.38,-75.79 535.69,-85.72 542.68,-85.86"/>
</g>
<!-- Node16&#45;&gt;Node13 -->
<g id="edge20" class="edge">
<title>Node16&#45;&gt;Node13</title>
<path fill="none" stroke="midnightblue" d="M706.7,-235.17C698.01,-221.83 684.77,-196.25 697,-179 712.08,-157.73 736.86,-145.35 761.64,-138.17"/>
<polygon fill="midnightblue" stroke="midnightblue" points="762.71,-141.5 771.49,-135.57 760.92,-134.74 762.71,-141.5"/>
</g>
<!-- Node17 -->
<g id="node17" class="node">
<title>Node17</title>
<g id="a_node17"><a xlink:href="task__base_8hpp.html" target="_top" xlink:title=" ">
<polygon fill="white" stroke="black" points="705.5,-179.5 705.5,-198.5 792.5,-198.5 792.5,-179.5 705.5,-179.5"/>
<text text-anchor="middle" x="749" y="-186.5" font-family="Helvetica,sans-Serif" font-size="10.00">task_base.hpp</text>
</a>
</g>
</g>
<!-- Node16&#45;&gt;Node17 -->
<g id="edge19" class="edge">
<title>Node16&#45;&gt;Node17</title>
<path fill="none" stroke="midnightblue" d="M718.94,-235.08C723.98,-227.53 731.34,-216.49 737.51,-207.23"/>
<polygon fill="midnightblue" stroke="midnightblue" points="740.53,-209.01 743.17,-198.75 734.71,-205.13 740.53,-209.01"/>
</g>
<!-- Node18 -->
<g id="node18" class="node">
<title>Node18</title>
<g id="a_node18"><a xlink:title=" ">
<polygon fill="white" stroke="#bfbfbf" points="417,-179.5 417,-198.5 579,-198.5 579,-179.5 417,-179.5"/>
<text text-anchor="middle" x="498" y="-186.5" font-family="Helvetica,sans-Serif" font-size="10.00">thread/condition_variable.hpp</text>
</a>
</g>
</g>
<!-- Node16&#45;&gt;Node18 -->
<g id="edge21" class="edge">
<title>Node16&#45;&gt;Node18</title>
<path fill="none" stroke="midnightblue" d="M678.93,-235.44C641.82,-226.12 582.34,-211.18 541.79,-201"/>
<polygon fill="midnightblue" stroke="midnightblue" points="542.46,-197.56 531.91,-198.52 540.75,-204.35 542.46,-197.56"/>
</g>
<!-- Node16&#45;&gt;Node19 -->
<g id="edge22" class="edge">
<title>Node16&#45;&gt;Node19</title>
<path fill="none" stroke="midnightblue" d="M736.77,-235.44C761.89,-226.4 801.71,-212.06 829.9,-201.92"/>
<polygon fill="midnightblue" stroke="midnightblue" points="831.12,-205.2 839.34,-198.52 828.75,-198.61 831.12,-205.2"/>
</g>
<!-- Node16&#45;&gt;Node20 -->
<g id="edge23" class="edge">
<title>Node16&#45;&gt;Node20</title>
<path fill="none" stroke="midnightblue" d="M756.1,-235.44C803.85,-225.96 880.86,-210.67 932.19,-200.48"/>
<polygon fill="midnightblue" stroke="midnightblue" points="932.98,-203.9 942.1,-198.52 931.61,-197.03 932.98,-203.9"/>
</g>
<!-- Node21 -->
<g id="node21" class="node">
<title>Node21</title>
<g id="a_node21"><a xlink:title=" ">
<polygon fill="white" stroke="#bfbfbf" points="597.5,-179.5 597.5,-198.5 648.5,-198.5 648.5,-179.5 597.5,-179.5"/>
<text text-anchor="middle" x="623" y="-186.5" font-family="Helvetica,sans-Serif" font-size="10.00">csignal</text>
</a>
</g>
</g>
<!-- Node16&#45;&gt;Node21 -->
<g id="edge24" class="edge">
<title>Node16&#45;&gt;Node21</title>
<path fill="none" stroke="midnightblue" d="M698.54,-235.32C684.5,-226.9 662.95,-213.97 646.46,-204.07"/>
<polygon fill="midnightblue" stroke="midnightblue" points="647.8,-200.8 637.42,-198.65 644.2,-206.8 647.8,-200.8"/>
</g>
</g>
</svg>
        <g id="navigator" transform="translate(0 0)" fill="#404254">
                <rect fill="#f2f5e9" fill-opacity="0.5" stroke="#606060" stroke-width=".5" x="0" y="0" width="60" height="60"/>
                <use id="zoomplus" xlink:href="#zoomPlus" x="17" y="9" onmousedown="handleZoom(evt,'in')"/>
                <use id="zoomminus" xlink:href="#zoomMin" x="42" y="9" onmousedown="handleZoom(evt,'out')"/>
                <use id="reset" xlink:href="#resetDef" x="30" y="36" onmousedown="handleReset()"/>
                <g id="arrowUp" xlink:href="#dirArrow" transform="translate(30 24)" onmousedown="handlePan(0,-1)">
                  <use xlink:href="#rim" fill="#404040">
                        <set attributeName="fill" to="#808080" begin="arrowUp.mouseover" end="arrowUp.mouseout"/>
                  </use>
                  <path fill="none" stroke="white" stroke-width="1.5" d="M0,-3.0v7 M-2.5,-0.5L0,-3.0L2.5,-0.5"/>
                </g>
                <g id="arrowRight" xlink:href="#dirArrow" transform="rotate(90) translate(36 -43)" onmousedown="handlePan(1,0)">
                  <use xlink:href="#rim" fill="#404040">
                        <set attributeName="fill" to="#808080" begin="arrowRight.mouseover" end="arrowRight.mouseout"/>
                  </use>
                  <path fill="none" stroke="white" stroke-width="1.5" d="M0,-3.0v7 M-2.5,-0.5L0,-3.0L2.5,-0.5"/>
                </g>
                <g id="arrowDown" xlink:href="#dirArrow" transform="rotate(180) translate(-30 -48)" onmousedown="handlePan(0,1)">
                  <use xlink:href="#rim" fill="#404040">
                        <set attributeName="fill" to="#808080" begin="arrowDown.mouseover" end="arrowDown.mouseout"/>
                  </use>
                  <path fill="none" stroke="white" stroke-width="1.5" d="M0,-3.0v7 M-2.5,-0.5L0,-3.0L2.5,-0.5"/>
                </g>
                <g id="arrowLeft" xlink:href="#dirArrow" transform="rotate(270) translate(-36 17)" onmousedown="handlePan(-1,0)">
                  <use xlink:href="#rim" fill="#404040">
                        <set attributeName="fill" to="#808080" begin="arrowLeft.mouseover" end="arrowLeft.mouseout"/>
                  </use>
                  <path fill="none" stroke="white" stroke-width="1.5" d="M0,-3.0v7 M-2.5,-0.5L0,-3.0L2.5,-0.5"/>
                </g>
        </g>
        <svg viewBox="0 0 15 15" width="100%" height="30px" preserveAspectRatio="xMaxYMin meet">
         <g id="arrow_out" transform="scale(0.3 0.3)">
          <a xlink:href="event__worker__group_8cpp__incl_org.svg" target="_base">
           <rect id="button" ry="5" rx="5" y="6" x="6" height="38" width="38"
                fill="#f2f5e9" fill-opacity="0.5" stroke="#606060" stroke-width="1.0"/>
           <path id="arrow"
             d="M 11.500037,31.436501 C 11.940474,20.09759 22.043105,11.32322 32.158766,21.979434 L 37.068811,17.246167 C 37.068811,17.246167 37.088388,32 37.088388,32 L 22.160133,31.978069 C 22.160133,31.978069 26.997745,27.140456 26.997745,27.140456 C 18.528582,18.264221 13.291696,25.230495 11.500037,31.436501 z"
             style="fill:#404040;"/>
          </a>
         </g>
        </svg>
</svg>
