<?xml version="1.0" encoding="UTF-8" standalone="no"?>
<!DOCTYPE svg PUBLIC "-//W3C//DTD SVG 1.1//EN"
 "http://www.w3.org/Graphics/SVG/1.1/DTD/svg11.dtd">
<!-- Generated by graphviz version 2.43.0 (0)
 -->
<!-- Title: includes/libserv/event_worker.epoll.cpp Pages: 1 -->
<svg width="1874pt" height="330pt"
 viewBox="0.00 0.00 1874.24 330.00" xmlns="http://www.w3.org/2000/svg" xmlns:xlink="http://www.w3.org/1999/xlink">
<g id="graph0" class="graph" transform="scale(1 1) rotate(0) translate(4 326)">
<title>includes/libserv/event_worker.epoll.cpp</title>
<polygon fill="white" stroke="transparent" points="-4,4 -4,-326 1870.24,-326 1870.24,4 -4,4"/>
<!-- Node1 -->
<g id="node1" class="node">
<title>Node1</title>
<g id="a_node1"><a xlink:title=" ">
<polygon fill="#bfbfbf" stroke="black" points="1021.24,-291.5 1021.24,-321.5 1145.24,-321.5 1145.24,-291.5 1021.24,-291.5"/>
<text text-anchor="start" x="1029.24" y="-309.5" font-family="Helvetica,sans-Serif" font-size="10.00">includes/libserv/event</text>
<text text-anchor="middle" x="1083.24" y="-298.5" font-family="Helvetica,sans-Serif" font-size="10.00">_worker.epoll.cpp</text>
</a>
</g>
</g>
<!-- Node2 -->
<g id="node2" class="node">
<title>Node2</title>
<g id="a_node2"><a xlink:href="event__worker_8hpp.html" target="_top" xlink:title=" ">
<polygon fill="white" stroke="black" points="396.74,-235.5 396.74,-254.5 499.74,-254.5 499.74,-235.5 396.74,-235.5"/>
<text text-anchor="middle" x="448.24" y="-242.5" font-family="Helvetica,sans-Serif" font-size="10.00">event_worker.hpp</text>
</a>
</g>
</g>
<!-- Node1&#45;&gt;Node2 -->
<g id="edge1" class="edge">
<title>Node1&#45;&gt;Node2</title>
<path fill="none" stroke="midnightblue" d="M1021.2,-299.69C899.75,-288.31 631.92,-263.21 510.39,-251.82"/>
<polygon fill="midnightblue" stroke="midnightblue" points="510.43,-248.31 500.14,-250.86 509.77,-255.28 510.43,-248.31"/>
</g>
<!-- Node3 -->
<g id="node3" class="node">
<title>Node3</title>
<g id="a_node3"><a xlink:href="event__channel__base_8hpp.html" target="_top" xlink:title=" ">
<polygon fill="white" stroke="black" points="758.74,-179.5 758.74,-198.5 895.74,-198.5 895.74,-179.5 758.74,-179.5"/>
<text text-anchor="middle" x="827.24" y="-186.5" font-family="Helvetica,sans-Serif" font-size="10.00">event_channel_base.hpp</text>
</a>
</g>
</g>
<!-- Node1&#45;&gt;Node3 -->
<g id="edge23" class="edge">
<title>Node1&#45;&gt;Node3</title>
<path fill="none" stroke="midnightblue" d="M1021.04,-293.39C987.1,-285.32 945.04,-272.86 910.24,-255 884.73,-241.91 859.35,-220.49 843.51,-205.84"/>
<polygon fill="midnightblue" stroke="midnightblue" points="845.81,-203.21 836.14,-198.88 841,-208.29 845.81,-203.21"/>
</g>
<!-- Node5 -->
<g id="node5" class="node">
<title>Node5</title>
<g id="a_node5"><a xlink:href="serv__types_8hpp.html" target="_top" xlink:title=" ">
<polygon fill="white" stroke="black" points="944.74,-56.5 944.74,-75.5 1035.74,-75.5 1035.74,-56.5 944.74,-56.5"/>
<text text-anchor="middle" x="990.24" y="-63.5" font-family="Helvetica,sans-Serif" font-size="10.00">serv_types.hpp</text>
</a>
</g>
</g>
<!-- Node1&#45;&gt;Node5 -->
<g id="edge32" class="edge">
<title>Node1&#45;&gt;Node5</title>
<path fill="none" stroke="midnightblue" d="M1020.95,-304.19C804.99,-298.99 98.19,-276.16 36.24,-199 3.3,-157.97 -80.72,-173.74 382.24,-112 584.55,-85.02 827.05,-73.15 934.4,-68.94"/>
<polygon fill="midnightblue" stroke="midnightblue" points="934.82,-72.43 944.67,-68.54 934.55,-65.43 934.82,-72.43"/>
</g>
<!-- Node7 -->
<g id="node7" class="node">
<title>Node7</title>
<g id="a_node7"><a xlink:title=" ">
<polygon fill="white" stroke="#bfbfbf" points="1172.24,-0.5 1172.24,-19.5 1210.24,-19.5 1210.24,-0.5 1172.24,-0.5"/>
<text text-anchor="middle" x="1191.24" y="-7.5" font-family="Helvetica,sans-Serif" font-size="10.00">map</text>
</a>
</g>
</g>
<!-- Node1&#45;&gt;Node7 -->
<g id="edge45" class="edge">
<title>Node1&#45;&gt;Node7</title>
<path fill="none" stroke="midnightblue" d="M1145.66,-293.98C1195.64,-280.83 1261.24,-253.62 1285.24,-199 1313.92,-133.74 1244.1,-58.61 1209.41,-26.67"/>
<polygon fill="midnightblue" stroke="midnightblue" points="1211.59,-23.93 1201.81,-19.85 1206.91,-29.14 1211.59,-23.93"/>
</g>
<!-- Node9 -->
<g id="node9" class="node">
<title>Node9</title>
<g id="a_node9"><a xlink:title=" ">
<polygon fill="white" stroke="#bfbfbf" points="1287.74,-0.5 1287.74,-19.5 1334.74,-19.5 1334.74,-0.5 1287.74,-0.5"/>
<text text-anchor="middle" x="1311.24" y="-7.5" font-family="Helvetica,sans-Serif" font-size="10.00">vector</text>
</a>
</g>
</g>
<!-- Node1&#45;&gt;Node9 -->
<g id="edge47" class="edge">
<title>Node1&#45;&gt;Node9</title>
<path fill="none" stroke="midnightblue" d="M1145.34,-298.31C1181.73,-291.69 1227.1,-279.04 1261.24,-255 1333.91,-203.83 1322.12,-77.56 1314.65,-29.75"/>
<polygon fill="midnightblue" stroke="midnightblue" points="1318.1,-29.12 1312.98,-19.84 1311.19,-30.29 1318.1,-29.12"/>
</g>
<!-- Node10 -->
<g id="node10" class="node">
<title>Node10</title>
<g id="a_node10"><a xlink:title=" ">
<polygon fill="white" stroke="#bfbfbf" points="269.24,-56.5 269.24,-75.5 321.24,-75.5 321.24,-56.5 269.24,-56.5"/>
<text text-anchor="middle" x="295.24" y="-63.5" font-family="Helvetica,sans-Serif" font-size="10.00">cassert</text>
</a>
</g>
</g>
<!-- Node1&#45;&gt;Node10 -->
<g id="edge43" class="edge">
<title>Node1&#45;&gt;Node10</title>
<path fill="none" stroke="midnightblue" d="M1020.94,-305.44C836.5,-304.77 295.46,-298.99 125.24,-255 70.2,-240.78 40.38,-247.2 10.24,-199 -49.07,-104.15 169.73,-76.55 258.97,-69.33"/>
<polygon fill="midnightblue" stroke="midnightblue" points="259.48,-72.8 269.18,-68.54 258.94,-65.82 259.48,-72.8"/>
</g>
<!-- Node13 -->
<g id="node13" class="node">
<title>Node13</title>
<g id="a_node13"><a xlink:title=" ">
<polygon fill="white" stroke="#bfbfbf" points="406.74,-118 406.74,-137 545.74,-137 545.74,-118 406.74,-118"/>
<text text-anchor="middle" x="476.24" y="-125" font-family="Helvetica,sans-Serif" font-size="10.00">smart_ptr/shared_ptr.hpp</text>
</a>
</g>
</g>
<!-- Node1&#45;&gt;Node13 -->
<g id="edge33" class="edge">
<title>Node1&#45;&gt;Node13</title>
<path fill="none" stroke="midnightblue" d="M1020.82,-293.32C979.3,-284.48 923.86,-271.24 876.24,-255 818.24,-235.21 805.53,-225.44 750.24,-199 732.67,-190.6 729.59,-185.55 711.24,-179 678.97,-167.48 591.37,-149.96 532.73,-138.87"/>
<polygon fill="midnightblue" stroke="midnightblue" points="533.33,-135.42 522.86,-137.02 532.04,-142.3 533.33,-135.42"/>
</g>
<!-- Node15 -->
<g id="node15" class="node">
<title>Node15</title>
<g id="a_node15"><a xlink:title=" ">
<polygon fill="white" stroke="#bfbfbf" points="1018.24,-118 1018.24,-137 1062.24,-137 1062.24,-118 1018.24,-118"/>
<text text-anchor="middle" x="1040.24" y="-125" font-family="Helvetica,sans-Serif" font-size="10.00">string</text>
</a>
</g>
</g>
<!-- Node1&#45;&gt;Node15 -->
<g id="edge46" class="edge">
<title>Node1&#45;&gt;Node15</title>
<path fill="none" stroke="midnightblue" d="M1045.91,-291.47C1010.03,-275.49 959.01,-245.41 943.24,-199 940.38,-190.58 938.63,-186.6 943.24,-179 950.71,-166.69 983.36,-151.25 1008.74,-140.7"/>
<polygon fill="midnightblue" stroke="midnightblue" points="1010.1,-143.93 1018.05,-136.92 1007.47,-137.44 1010.1,-143.93"/>
</g>
<!-- Node17 -->
<g id="node17" class="node">
<title>Node17</title>
<g id="a_node17"><a xlink:title=" ">
<polygon fill="white" stroke="#bfbfbf" points="45.24,-179.5 45.24,-198.5 207.24,-198.5 207.24,-179.5 45.24,-179.5"/>
<text text-anchor="middle" x="126.24" y="-186.5" font-family="Helvetica,sans-Serif" font-size="10.00">thread/condition_variable.hpp</text>
</a>
</g>
</g>
<!-- Node1&#45;&gt;Node17 -->
<g id="edge34" class="edge">
<title>Node1&#45;&gt;Node17</title>
<path fill="none" stroke="midnightblue" d="M1020.91,-304.56C898.64,-301.92 619.04,-291.99 387.24,-255 306.35,-242.09 213.77,-216.35 163.5,-201.43"/>
<polygon fill="midnightblue" stroke="midnightblue" points="164.32,-198.02 153.73,-198.51 162.31,-204.73 164.32,-198.02"/>
</g>
<!-- Node18 -->
<g id="node18" class="node">
<title>Node18</title>
<g id="a_node18"><a xlink:title=" ">
<polygon fill="white" stroke="#bfbfbf" points="476.24,-179.5 476.24,-198.5 580.24,-198.5 580.24,-179.5 476.24,-179.5"/>
<text text-anchor="middle" x="528.24" y="-186.5" font-family="Helvetica,sans-Serif" font-size="10.00">thread/mutex.hpp</text>
</a>
</g>
</g>
<!-- Node1&#45;&gt;Node18 -->
<g id="edge35" class="edge">
<title>Node1&#45;&gt;Node18</title>
<path fill="none" stroke="midnightblue" d="M1020.9,-302.72C941.71,-298.03 801.37,-285.81 685.24,-255 637.13,-242.23 584.23,-218.06 553.76,-203.06"/>
<polygon fill="midnightblue" stroke="midnightblue" points="555.2,-199.87 544.69,-198.54 552.08,-206.13 555.2,-199.87"/>
</g>
<!-- Node19 -->
<g id="node19" class="node">
<title>Node19</title>
<g id="a_node19"><a xlink:title=" ">
<polygon fill="white" stroke="#bfbfbf" points="598.24,-179.5 598.24,-198.5 702.24,-198.5 702.24,-179.5 598.24,-179.5"/>
<text text-anchor="middle" x="650.24" y="-186.5" font-family="Helvetica,sans-Serif" font-size="10.00">thread/thread.hpp</text>
</a>
</g>
</g>
<!-- Node1&#45;&gt;Node19 -->
<g id="edge36" class="edge">
<title>Node1&#45;&gt;Node19</title>
<path fill="none" stroke="midnightblue" d="M1021.02,-301.68C930.75,-295.34 768.54,-280.73 716.24,-255 693.81,-243.96 674.28,-222.35 662.4,-207.09"/>
<polygon fill="midnightblue" stroke="midnightblue" points="665.12,-204.88 656.33,-198.96 659.51,-209.07 665.12,-204.88"/>
</g>
<!-- Node21 -->
<g id="node21" class="node">
<title>Node21</title>
<g id="a_node21"><a xlink:href="logger_8hpp.html" target="_top" xlink:title=" ">
<polygon fill="white" stroke="black" points="995.24,-235.5 995.24,-254.5 1063.24,-254.5 1063.24,-235.5 995.24,-235.5"/>
<text text-anchor="middle" x="1029.24" y="-242.5" font-family="Helvetica,sans-Serif" font-size="10.00">logger.hpp</text>
</a>
</g>
</g>
<!-- Node1&#45;&gt;Node21 -->
<g id="edge24" class="edge">
<title>Node1&#45;&gt;Node21</title>
<path fill="none" stroke="midnightblue" d="M1070.45,-291.4C1062.52,-282.66 1052.31,-271.41 1044.03,-262.3"/>
<polygon fill="midnightblue" stroke="midnightblue" points="1046.41,-259.71 1037.1,-254.66 1041.23,-264.42 1046.41,-259.71"/>
</g>
<!-- Node23 -->
<g id="node23" class="node">
<title>Node23</title>
<g id="a_node23"><a xlink:href="serv__exception_8hpp.html" target="_top" xlink:title=" ">
<polygon fill="white" stroke="black" points="1081.24,-235.5 1081.24,-254.5 1193.24,-254.5 1193.24,-235.5 1081.24,-235.5"/>
<text text-anchor="middle" x="1137.24" y="-242.5" font-family="Helvetica,sans-Serif" font-size="10.00">serv_exception.hpp</text>
</a>
</g>
</g>
<!-- Node1&#45;&gt;Node23 -->
<g id="edge27" class="edge">
<title>Node1&#45;&gt;Node23</title>
<path fill="none" stroke="midnightblue" d="M1096.04,-291.4C1103.97,-282.66 1114.18,-271.41 1122.45,-262.3"/>
<polygon fill="midnightblue" stroke="midnightblue" points="1125.26,-264.42 1129.38,-254.66 1120.07,-259.71 1125.26,-264.42"/>
</g>
<!-- Node25 -->
<g id="node25" class="node">
<title>Node25</title>
<g id="a_node25"><a xlink:title=" ">
<polygon fill="white" stroke="#bfbfbf" points="1210.74,-179.5 1210.74,-198.5 1275.74,-198.5 1275.74,-179.5 1210.74,-179.5"/>
<text text-anchor="middle" x="1243.24" y="-186.5" font-family="Helvetica,sans-Serif" font-size="10.00">exception</text>
</a>
</g>
</g>
<!-- Node1&#45;&gt;Node25 -->
<g id="edge44" class="edge">
<title>Node1&#45;&gt;Node25</title>
<path fill="none" stroke="midnightblue" d="M1134.47,-291.42C1157.02,-283.4 1182.75,-271.57 1202.24,-255 1217.29,-242.2 1228.65,-222.47 1235.55,-208.1"/>
<polygon fill="midnightblue" stroke="midnightblue" points="1238.84,-209.31 1239.78,-198.76 1232.46,-206.43 1238.84,-209.31"/>
</g>
<!-- Node26 -->
<g id="node26" class="node">
<title>Node26</title>
<g id="a_node26"><a xlink:title=" ">
<polygon fill="white" stroke="#bfbfbf" points="1358.74,-235.5 1358.74,-254.5 1427.74,-254.5 1427.74,-235.5 1358.74,-235.5"/>
<text text-anchor="middle" x="1393.24" y="-242.5" font-family="Helvetica,sans-Serif" font-size="10.00">sys/epoll.h</text>
</a>
</g>
</g>
<!-- Node1&#45;&gt;Node26 -->
<g id="edge37" class="edge">
<title>Node1&#45;&gt;Node26</title>
<path fill="none" stroke="midnightblue" d="M1145.6,-293.53C1205.73,-281.99 1295.24,-264.81 1348.57,-254.57"/>
<polygon fill="midnightblue" stroke="midnightblue" points="1349.25,-258.01 1358.41,-252.69 1347.93,-251.13 1349.25,-258.01"/>
</g>
<!-- Node27 -->
<g id="node27" class="node">
<title>Node27</title>
<g id="a_node27"><a xlink:title=" ">
<polygon fill="white" stroke="#bfbfbf" points="1445.74,-235.5 1445.74,-254.5 1528.74,-254.5 1528.74,-235.5 1445.74,-235.5"/>
<text text-anchor="middle" x="1487.24" y="-242.5" font-family="Helvetica,sans-Serif" font-size="10.00">sys/eventfd.h</text>
</a>
</g>
</g>
<!-- Node1&#45;&gt;Node27 -->
<g id="edge38" class="edge">
<title>Node1&#45;&gt;Node27</title>
<path fill="none" stroke="midnightblue" d="M1145.38,-297.33C1214,-288.16 1328.03,-272.44 1435.48,-255.24"/>
<polygon fill="midnightblue" stroke="midnightblue" points="1436.2,-258.67 1445.52,-253.63 1435.09,-251.76 1436.2,-258.67"/>
</g>
<!-- Node28 -->
<g id="node28" class="node">
<title>Node28</title>
<g id="a_node28"><a xlink:title=" ">
<polygon fill="white" stroke="#bfbfbf" points="1546.74,-235.5 1546.74,-254.5 1623.74,-254.5 1623.74,-235.5 1546.74,-235.5"/>
<text text-anchor="middle" x="1585.24" y="-242.5" font-family="Helvetica,sans-Serif" font-size="10.00">sys/socket.h</text>
</a>
</g>
</g>
<!-- Node1&#45;&gt;Node28 -->
<g id="edge39" class="edge">
<title>Node1&#45;&gt;Node28</title>
<path fill="none" stroke="midnightblue" d="M1145.26,-300.18C1231.05,-292.46 1390.97,-276.84 1536.54,-255.16"/>
<polygon fill="midnightblue" stroke="midnightblue" points="1537.19,-258.61 1546.56,-253.66 1536.15,-251.68 1537.19,-258.61"/>
</g>
<!-- Node29 -->
<g id="node29" class="node">
<title>Node29</title>
<g id="a_node29"><a xlink:title=" ">
<polygon fill="white" stroke="#bfbfbf" points="1642.24,-235.5 1642.24,-254.5 1710.24,-254.5 1710.24,-235.5 1642.24,-235.5"/>
<text text-anchor="middle" x="1676.24" y="-242.5" font-family="Helvetica,sans-Serif" font-size="10.00">sys/time.h</text>
</a>
</g>
</g>
<!-- Node1&#45;&gt;Node29 -->
<g id="edge40" class="edge">
<title>Node1&#45;&gt;Node29</title>
<path fill="none" stroke="midnightblue" d="M1145.38,-302.13C1245.73,-296.16 1449.8,-281.92 1632,-255.03"/>
<polygon fill="midnightblue" stroke="midnightblue" points="1632.66,-258.47 1642.04,-253.53 1631.63,-251.54 1632.66,-258.47"/>
</g>
<!-- Node30 -->
<g id="node30" class="node">
<title>Node30</title>
<g id="a_node30"><a xlink:title=" ">
<polygon fill="white" stroke="#bfbfbf" points="1728.24,-235.5 1728.24,-254.5 1784.24,-254.5 1784.24,-235.5 1728.24,-235.5"/>
<text text-anchor="middle" x="1756.24" y="-242.5" font-family="Helvetica,sans-Serif" font-size="10.00">unistd.h</text>
</a>
</g>
</g>
<!-- Node1&#45;&gt;Node30 -->
<g id="edge41" class="edge">
<title>Node1&#45;&gt;Node30</title>
<path fill="none" stroke="midnightblue" d="M1145.47,-303.85C1258.06,-300.14 1503.06,-288.79 1718.16,-254.92"/>
<polygon fill="midnightblue" stroke="midnightblue" points="1718.73,-258.38 1728.05,-253.35 1717.63,-251.46 1718.73,-258.38"/>
</g>
<!-- Node31 -->
<g id="node31" class="node">
<title>Node31</title>
<g id="a_node31"><a xlink:title=" ">
<polygon fill="white" stroke="#bfbfbf" points="1802.24,-235.5 1802.24,-254.5 1866.24,-254.5 1866.24,-235.5 1802.24,-235.5"/>
<text text-anchor="middle" x="1834.24" y="-242.5" font-family="Helvetica,sans-Serif" font-size="10.00">algorithm</text>
</a>
</g>
</g>
<!-- Node1&#45;&gt;Node31 -->
<g id="edge42" class="edge">
<title>Node1&#45;&gt;Node31</title>
<path fill="none" stroke="midnightblue" d="M1145.3,-304.11C1267.41,-300.72 1547.56,-289.69 1791.95,-254.98"/>
<polygon fill="midnightblue" stroke="midnightblue" points="1792.69,-258.41 1802.09,-253.52 1791.7,-251.48 1792.69,-258.41"/>
</g>
<!-- Node2&#45;&gt;Node3 -->
<g id="edge2" class="edge">
<title>Node2&#45;&gt;Node3</title>
<path fill="none" stroke="midnightblue" d="M499.75,-236.66C566.34,-227.17 682.59,-210.61 757.17,-199.98"/>
<polygon fill="midnightblue" stroke="midnightblue" points="758.01,-203.4 767.41,-198.52 757.02,-196.47 758.01,-203.4"/>
</g>
<!-- Node2&#45;&gt;Node5 -->
<g id="edge16" class="edge">
<title>Node2&#45;&gt;Node5</title>
<path fill="none" stroke="midnightblue" d="M439.55,-235.44C417.35,-212.58 362.67,-149.3 397.24,-112 433.32,-73.08 793.96,-67.65 934.54,-67.02"/>
<polygon fill="midnightblue" stroke="midnightblue" points="934.69,-70.52 944.68,-66.98 934.66,-63.52 934.69,-70.52"/>
</g>
<!-- Node2&#45;&gt;Node13 -->
<g id="edge18" class="edge">
<title>Node2&#45;&gt;Node13</title>
<path fill="none" stroke="midnightblue" d="M450.35,-235.32C454.87,-216.67 465.59,-172.44 471.73,-147.13"/>
<polygon fill="midnightblue" stroke="midnightblue" points="475.16,-147.83 474.11,-137.28 468.36,-146.18 475.16,-147.83"/>
</g>
<!-- Node16 -->
<g id="node16" class="node">
<title>Node16</title>
<g id="a_node16"><a xlink:href="task__base_8hpp.html" target="_top" xlink:title=" ">
<polygon fill="white" stroke="black" points="225.74,-179.5 225.74,-198.5 312.74,-198.5 312.74,-179.5 225.74,-179.5"/>
<text text-anchor="middle" x="269.24" y="-186.5" font-family="Helvetica,sans-Serif" font-size="10.00">task_base.hpp</text>
</a>
</g>
</g>
<!-- Node2&#45;&gt;Node16 -->
<g id="edge17" class="edge">
<title>Node2&#45;&gt;Node16</title>
<path fill="none" stroke="midnightblue" d="M419.88,-235.44C389.5,-226.28 341.13,-211.69 307.43,-201.52"/>
<polygon fill="midnightblue" stroke="midnightblue" points="308.06,-198.05 297.47,-198.52 306.04,-204.76 308.06,-198.05"/>
</g>
<!-- Node2&#45;&gt;Node17 -->
<g id="edge19" class="edge">
<title>Node2&#45;&gt;Node17</title>
<path fill="none" stroke="midnightblue" d="M397.22,-235.44C340.22,-225.89 248,-210.42 187.24,-200.23"/>
<polygon fill="midnightblue" stroke="midnightblue" points="187.47,-196.72 177.03,-198.52 186.31,-203.62 187.47,-196.72"/>
</g>
<!-- Node2&#45;&gt;Node18 -->
<g id="edge20" class="edge">
<title>Node2&#45;&gt;Node18</title>
<path fill="none" stroke="midnightblue" d="M461.1,-235.32C473.46,-226.98 492.37,-214.21 506.98,-204.35"/>
<polygon fill="midnightblue" stroke="midnightblue" points="509.09,-207.15 515.42,-198.65 505.17,-201.35 509.09,-207.15"/>
</g>
<!-- Node2&#45;&gt;Node19 -->
<g id="edge21" class="edge">
<title>Node2&#45;&gt;Node19</title>
<path fill="none" stroke="midnightblue" d="M480.25,-235.44C514.97,-226.16 570.53,-211.31 608.62,-201.13"/>
<polygon fill="midnightblue" stroke="midnightblue" points="609.63,-204.48 618.38,-198.52 607.82,-197.72 609.63,-204.48"/>
</g>
<!-- Node20 -->
<g id="node20" class="node">
<title>Node20</title>
<g id="a_node20"><a xlink:title=" ">
<polygon fill="white" stroke="#bfbfbf" points="330.74,-179.5 330.74,-198.5 381.74,-198.5 381.74,-179.5 330.74,-179.5"/>
<text text-anchor="middle" x="356.24" y="-186.5" font-family="Helvetica,sans-Serif" font-size="10.00">csignal</text>
</a>
</g>
</g>
<!-- Node2&#45;&gt;Node20 -->
<g id="edge22" class="edge">
<title>Node2&#45;&gt;Node20</title>
<path fill="none" stroke="midnightblue" d="M433.46,-235.32C418.98,-226.82 396.67,-213.73 379.75,-203.8"/>
<polygon fill="midnightblue" stroke="midnightblue" points="381.38,-200.7 370.99,-198.65 377.84,-206.74 381.38,-200.7"/>
</g>
<!-- Node4 -->
<g id="node4" class="node">
<title>Node4</title>
<g id="a_node4"><a xlink:href="byte__buffer_8hpp.html" target="_top" xlink:title=" ">
<polygon fill="white" stroke="black" points="564.24,-118 564.24,-137 656.24,-137 656.24,-118 564.24,-118"/>
<text text-anchor="middle" x="610.24" y="-125" font-family="Helvetica,sans-Serif" font-size="10.00">byte_buffer.hpp</text>
</a>
</g>
</g>
<!-- Node3&#45;&gt;Node4 -->
<g id="edge3" class="edge">
<title>Node3&#45;&gt;Node4</title>
<path fill="none" stroke="midnightblue" d="M796.15,-179.48C757.96,-169 693.07,-151.21 650.94,-139.66"/>
<polygon fill="midnightblue" stroke="midnightblue" points="651.85,-136.28 641.28,-137.01 649.99,-143.03 651.85,-136.28"/>
</g>
<!-- Node3&#45;&gt;Node5 -->
<g id="edge11" class="edge">
<title>Node3&#45;&gt;Node5</title>
<path fill="none" stroke="midnightblue" d="M895.77,-181.07C922.63,-175 951.65,-163.76 971.24,-143 985.65,-127.73 989.59,-103.24 990.45,-86.2"/>
<polygon fill="midnightblue" stroke="midnightblue" points="993.96,-85.87 990.64,-75.8 986.96,-85.74 993.96,-85.87"/>
</g>
<!-- Node12 -->
<g id="node12" class="node">
<title>Node12</title>
<g id="a_node12"><a xlink:title=" ">
<polygon fill="white" stroke="#bfbfbf" points="824.24,-112.5 824.24,-142.5 962.24,-142.5 962.24,-112.5 824.24,-112.5"/>
<text text-anchor="start" x="832.24" y="-130.5" font-family="Helvetica,sans-Serif" font-size="10.00">smart_ptr/enable_shared</text>
<text text-anchor="middle" x="893.24" y="-119.5" font-family="Helvetica,sans-Serif" font-size="10.00">_from_this.hpp</text>
</a>
</g>
</g>
<!-- Node3&#45;&gt;Node12 -->
<g id="edge12" class="edge">
<title>Node3&#45;&gt;Node12</title>
<path fill="none" stroke="midnightblue" d="M836.7,-179.48C845.39,-171.64 858.62,-159.71 870.1,-149.37"/>
<polygon fill="midnightblue" stroke="midnightblue" points="872.6,-151.82 877.69,-142.52 867.92,-146.62 872.6,-151.82"/>
</g>
<!-- Node3&#45;&gt;Node13 -->
<g id="edge13" class="edge">
<title>Node3&#45;&gt;Node13</title>
<path fill="none" stroke="midnightblue" d="M774.03,-179.48C719.17,-170.63 631.16,-156.25 555.24,-143 547.79,-141.7 539.95,-140.3 532.22,-138.9"/>
<polygon fill="midnightblue" stroke="midnightblue" points="532.63,-135.42 522.17,-137.07 531.38,-142.31 532.63,-135.42"/>
</g>
<!-- Node14 -->
<g id="node14" class="node">
<title>Node14</title>
<g id="a_node14"><a xlink:title=" ">
<polygon fill="white" stroke="#bfbfbf" points="674.24,-118 674.24,-137 806.24,-137 806.24,-118 674.24,-118"/>
<text text-anchor="middle" x="740.24" y="-125" font-family="Helvetica,sans-Serif" font-size="10.00">smart_ptr/weak_ptr.hpp</text>
</a>
</g>
</g>
<!-- Node3&#45;&gt;Node14 -->
<g id="edge14" class="edge">
<title>Node3&#45;&gt;Node14</title>
<path fill="none" stroke="midnightblue" d="M814.78,-179.48C800.82,-169.93 777.98,-154.31 761.25,-142.87"/>
<polygon fill="midnightblue" stroke="midnightblue" points="762.91,-139.77 752.68,-137.01 758.96,-145.54 762.91,-139.77"/>
</g>
<!-- Node3&#45;&gt;Node15 -->
<g id="edge15" class="edge">
<title>Node3&#45;&gt;Node15</title>
<path fill="none" stroke="midnightblue" d="M867.04,-179.49C903.21,-171.37 957.83,-158.17 1004.24,-143 1006.38,-142.3 1008.56,-141.54 1010.76,-140.74"/>
<polygon fill="midnightblue" stroke="midnightblue" points="1012.15,-143.96 1020.24,-137.11 1009.65,-137.42 1012.15,-143.96"/>
</g>
<!-- Node4&#45;&gt;Node5 -->
<g id="edge4" class="edge">
<title>Node4&#45;&gt;Node5</title>
<path fill="none" stroke="midnightblue" d="M640.06,-117.94C648.18,-115.8 657.01,-113.65 665.24,-112 759.08,-93.2 869.73,-79.7 934.71,-72.63"/>
<polygon fill="midnightblue" stroke="midnightblue" points="935.17,-76.1 944.74,-71.55 934.42,-69.14 935.17,-76.1"/>
</g>
<!-- Node4&#45;&gt;Node10 -->
<g id="edge9" class="edge">
<title>Node4&#45;&gt;Node10</title>
<path fill="none" stroke="midnightblue" d="M579.25,-117.99C571.14,-115.9 562.39,-113.76 554.24,-112 475.32,-94.96 381.78,-79.98 331.53,-72.35"/>
<polygon fill="midnightblue" stroke="midnightblue" points="331.89,-68.87 321.48,-70.84 330.85,-75.79 331.89,-68.87"/>
</g>
<!-- Node11 -->
<g id="node11" class="node">
<title>Node11</title>
<g id="a_node11"><a xlink:title=" ">
<polygon fill="white" stroke="#bfbfbf" points="1106.24,-56.5 1106.24,-75.5 1156.24,-75.5 1156.24,-56.5 1106.24,-56.5"/>
<text text-anchor="middle" x="1131.24" y="-63.5" font-family="Helvetica,sans-Serif" font-size="10.00">cstring</text>
</a>
</g>
</g>
<!-- Node4&#45;&gt;Node11 -->
<g id="edge10" class="edge">
<title>Node4&#45;&gt;Node11</title>
<path fill="none" stroke="midnightblue" d="M639.16,-117.93C647.51,-115.71 656.69,-113.52 665.24,-112 832.26,-82.28 876.43,-92.83 1045.24,-76 1061.87,-74.34 1080.3,-72.42 1095.82,-70.79"/>
<polygon fill="midnightblue" stroke="midnightblue" points="1096.46,-74.24 1106.04,-69.7 1095.72,-67.28 1096.46,-74.24"/>
</g>
<!-- Node6 -->
<g id="node6" class="node">
<title>Node6</title>
<g id="a_node6"><a xlink:title=" ">
<polygon fill="white" stroke="#bfbfbf" points="937.74,-0.5 937.74,-19.5 984.74,-19.5 984.74,-0.5 937.74,-0.5"/>
<text text-anchor="middle" x="961.24" y="-7.5" font-family="Helvetica,sans-Serif" font-size="10.00">deque</text>
</a>
</g>
</g>
<!-- Node5&#45;&gt;Node6 -->
<g id="edge5" class="edge">
<title>Node5&#45;&gt;Node6</title>
<path fill="none" stroke="midnightblue" d="M985.45,-56.08C981.48,-48.69 975.72,-37.95 970.81,-28.81"/>
<polygon fill="midnightblue" stroke="midnightblue" points="973.76,-26.91 965.94,-19.75 967.59,-30.22 973.76,-26.91"/>
</g>
<!-- Node5&#45;&gt;Node7 -->
<g id="edge6" class="edge">
<title>Node5&#45;&gt;Node7</title>
<path fill="none" stroke="midnightblue" d="M1022.09,-56.44C1060.64,-46.09 1125.01,-28.79 1162.24,-18.79"/>
<polygon fill="midnightblue" stroke="midnightblue" points="1163.22,-22.15 1171.97,-16.18 1161.41,-15.39 1163.22,-22.15"/>
</g>
<!-- Node8 -->
<g id="node8" class="node">
<title>Node8</title>
<g id="a_node8"><a xlink:title=" ">
<polygon fill="white" stroke="#bfbfbf" points="1003.24,-0.5 1003.24,-19.5 1035.24,-19.5 1035.24,-0.5 1003.24,-0.5"/>
<text text-anchor="middle" x="1019.24" y="-7.5" font-family="Helvetica,sans-Serif" font-size="10.00">set</text>
</a>
</g>
</g>
<!-- Node5&#45;&gt;Node8 -->
<g id="edge7" class="edge">
<title>Node5&#45;&gt;Node8</title>
<path fill="none" stroke="midnightblue" d="M995.03,-56.08C999,-48.69 1004.77,-37.95 1009.68,-28.81"/>
<polygon fill="midnightblue" stroke="midnightblue" points="1012.89,-30.22 1014.54,-19.75 1006.73,-26.91 1012.89,-30.22"/>
</g>
<!-- Node5&#45;&gt;Node9 -->
<g id="edge8" class="edge">
<title>Node5&#45;&gt;Node9</title>
<path fill="none" stroke="midnightblue" d="M1035.89,-57.32C1101.07,-46.36 1219.32,-26.46 1277.32,-16.71"/>
<polygon fill="midnightblue" stroke="midnightblue" points="1278.14,-20.12 1287.42,-15.01 1276.98,-13.22 1278.14,-20.12"/>
</g>
<!-- Node21&#45;&gt;Node15 -->
<g id="edge26" class="edge">
<title>Node21&#45;&gt;Node15</title>
<path fill="none" stroke="midnightblue" d="M1030.07,-235.32C1031.84,-216.76 1036.02,-172.84 1038.44,-147.47"/>
<polygon fill="midnightblue" stroke="midnightblue" points="1041.94,-147.57 1039.41,-137.28 1034.97,-146.91 1041.94,-147.57"/>
</g>
<!-- Node22 -->
<g id="node22" class="node">
<title>Node22</title>
<g id="a_node22"><a xlink:title=" ">
<polygon fill="white" stroke="#bfbfbf" points="952.24,-179.5 952.24,-198.5 1012.24,-198.5 1012.24,-179.5 952.24,-179.5"/>
<text text-anchor="middle" x="982.24" y="-186.5" font-family="Helvetica,sans-Serif" font-size="10.00">iostream</text>
</a>
</g>
</g>
<!-- Node21&#45;&gt;Node22 -->
<g id="edge25" class="edge">
<title>Node21&#45;&gt;Node22</title>
<path fill="none" stroke="midnightblue" d="M1021.48,-235.08C1014.71,-227.3 1004.7,-215.8 996.49,-206.37"/>
<polygon fill="midnightblue" stroke="midnightblue" points="999.06,-204 989.86,-198.75 993.78,-208.59 999.06,-204"/>
</g>
<!-- Node23&#45;&gt;Node5 -->
<g id="edge28" class="edge">
<title>Node23&#45;&gt;Node5</title>
<path fill="none" stroke="midnightblue" d="M1127.63,-235.22C1118.85,-226.72 1106.08,-213.09 1098.24,-199 1078.57,-163.62 1096.77,-143.42 1071.24,-112 1059.48,-97.52 1041.76,-86.93 1025.89,-79.67"/>
<polygon fill="midnightblue" stroke="midnightblue" points="1026.89,-76.29 1016.32,-75.58 1024.13,-82.73 1026.89,-76.29"/>
</g>
<!-- Node23&#45;&gt;Node11 -->
<g id="edge30" class="edge">
<title>Node23&#45;&gt;Node11</title>
<path fill="none" stroke="midnightblue" d="M1144.13,-235.32C1150.51,-226.68 1159.55,-212.77 1163.24,-199 1174.14,-158.36 1154.3,-110.25 1141.28,-84.83"/>
<polygon fill="midnightblue" stroke="midnightblue" points="1144.19,-82.85 1136.38,-75.69 1138.02,-86.15 1144.19,-82.85"/>
</g>
<!-- Node24 -->
<g id="node24" class="node">
<title>Node24</title>
<g id="a_node24"><a xlink:title=" ">
<polygon fill="white" stroke="#bfbfbf" points="1106.74,-179.5 1106.74,-198.5 1153.74,-198.5 1153.74,-179.5 1106.74,-179.5"/>
<text text-anchor="middle" x="1130.24" y="-186.5" font-family="Helvetica,sans-Serif" font-size="10.00">cerrno</text>
</a>
</g>
</g>
<!-- Node23&#45;&gt;Node24 -->
<g id="edge29" class="edge">
<title>Node23&#45;&gt;Node24</title>
<path fill="none" stroke="midnightblue" d="M1136.09,-235.08C1135.16,-227.93 1133.82,-217.64 1132.67,-208.69"/>
<polygon fill="midnightblue" stroke="midnightblue" points="1136.13,-208.22 1131.38,-198.75 1129.19,-209.12 1136.13,-208.22"/>
</g>
<!-- Node23&#45;&gt;Node25 -->
<g id="edge31" class="edge">
<title>Node23&#45;&gt;Node25</title>
<path fill="none" stroke="midnightblue" d="M1154.27,-235.32C1171.27,-226.66 1197.62,-213.24 1217.23,-203.25"/>
<polygon fill="midnightblue" stroke="midnightblue" points="1218.93,-206.31 1226.25,-198.65 1215.75,-200.08 1218.93,-206.31"/>
</g>
</g>
</svg>
