<?xml version="1.0" encoding="UTF-8" standalone="no"?>
<!DOCTYPE svg PUBLIC "-//W3C//DTD SVG 1.1//EN"
 "http://www.w3.org/Graphics/SVG/1.1/DTD/svg11.dtd">
<!-- Generated by graphviz version 2.43.0 (0)
 -->
<!-- Title: includes/libserv/event_worker.kqueue.cpp Pages: 1 -->
<svg width="1908pt" height="330pt"
 viewBox="0.00 0.00 1908.18 330.00" xmlns="http://www.w3.org/2000/svg" xmlns:xlink="http://www.w3.org/1999/xlink">
<g id="graph0" class="graph" transform="scale(1 1) rotate(0) translate(4 326)">
<title>includes/libserv/event_worker.kqueue.cpp</title>
<polygon fill="white" stroke="transparent" points="-4,4 -4,-326 1904.18,-326 1904.18,4 -4,4"/>
<!-- Node1 -->
<g id="node1" class="node">
<title>Node1</title>
<g id="a_node1"><a xlink:title=" ">
<polygon fill="#bfbfbf" stroke="black" points="1061.18,-291.5 1061.18,-321.5 1185.18,-321.5 1185.18,-291.5 1061.18,-291.5"/>
<text text-anchor="start" x="1069.18" y="-309.5" font-family="Helvetica,sans-Serif" font-size="10.00">includes/libserv/event</text>
<text text-anchor="middle" x="1123.18" y="-298.5" font-family="Helvetica,sans-Serif" font-size="10.00">_worker.kqueue.cpp</text>
</a>
</g>
</g>
<!-- Node2 -->
<g id="node2" class="node">
<title>Node2</title>
<g id="a_node2"><a xlink:href="event__worker_8hpp.html" target="_top" xlink:title=" ">
<polygon fill="white" stroke="black" points="419.68,-235.5 419.68,-254.5 522.68,-254.5 522.68,-235.5 419.68,-235.5"/>
<text text-anchor="middle" x="471.18" y="-242.5" font-family="Helvetica,sans-Serif" font-size="10.00">event_worker.hpp</text>
</a>
</g>
</g>
<!-- Node1&#45;&gt;Node2 -->
<g id="edge1" class="edge">
<title>Node1&#45;&gt;Node2</title>
<path fill="none" stroke="midnightblue" d="M1060.86,-299.83C958.32,-290.51 747.58,-271.32 569.18,-255 557.41,-253.92 544.85,-252.77 532.79,-251.66"/>
<polygon fill="midnightblue" stroke="midnightblue" points="533.08,-248.18 522.8,-250.75 532.44,-255.15 533.08,-248.18"/>
</g>
<!-- Node3 -->
<g id="node3" class="node">
<title>Node3</title>
<g id="a_node3"><a xlink:href="event__channel__base_8hpp.html" target="_top" xlink:title=" ">
<polygon fill="white" stroke="black" points="743.68,-179.5 743.68,-198.5 880.68,-198.5 880.68,-179.5 743.68,-179.5"/>
<text text-anchor="middle" x="812.18" y="-186.5" font-family="Helvetica,sans-Serif" font-size="10.00">event_channel_base.hpp</text>
</a>
</g>
</g>
<!-- Node1&#45;&gt;Node3 -->
<g id="edge23" class="edge">
<title>Node1&#45;&gt;Node3</title>
<path fill="none" stroke="midnightblue" d="M1060.75,-299.27C1013.51,-292.79 947.97,-279.93 895.18,-255 868.96,-242.62 843.41,-220.68 827.74,-205.74"/>
<polygon fill="midnightblue" stroke="midnightblue" points="830.09,-203.15 820.49,-198.66 825.2,-208.15 830.09,-203.15"/>
</g>
<!-- Node5 -->
<g id="node5" class="node">
<title>Node5</title>
<g id="a_node5"><a xlink:href="serv__types_8hpp.html" target="_top" xlink:title=" ">
<polygon fill="white" stroke="black" points="826.68,-56.5 826.68,-75.5 917.68,-75.5 917.68,-56.5 826.68,-56.5"/>
<text text-anchor="middle" x="872.18" y="-63.5" font-family="Helvetica,sans-Serif" font-size="10.00">serv_types.hpp</text>
</a>
</g>
</g>
<!-- Node1&#45;&gt;Node5 -->
<g id="edge38" class="edge">
<title>Node1&#45;&gt;Node5</title>
<path fill="none" stroke="midnightblue" d="M1061.17,-305.95C874.96,-306.71 322.95,-304.62 151.18,-255 102.24,-240.86 76.93,-242.95 51.18,-199 -6.8,-100.09 -79.94,-178.96 238.18,-112 347.89,-88.91 682.89,-74.12 816.4,-69.01"/>
<polygon fill="midnightblue" stroke="midnightblue" points="816.56,-72.5 826.42,-68.63 816.29,-65.51 816.56,-72.5"/>
</g>
<!-- Node7 -->
<g id="node7" class="node">
<title>Node7</title>
<g id="a_node7"><a xlink:title=" ">
<polygon fill="white" stroke="#bfbfbf" points="1201.18,-0.5 1201.18,-19.5 1239.18,-19.5 1239.18,-0.5 1201.18,-0.5"/>
<text text-anchor="middle" x="1220.18" y="-7.5" font-family="Helvetica,sans-Serif" font-size="10.00">map</text>
</a>
</g>
</g>
<!-- Node1&#45;&gt;Node7 -->
<g id="edge50" class="edge">
<title>Node1&#45;&gt;Node7</title>
<path fill="none" stroke="midnightblue" d="M1185.19,-299.86C1294.31,-288.22 1509.18,-256.8 1509.18,-190 1509.18,-190 1509.18,-190 1509.18,-126.5 1509.18,-71.01 1323.13,-30.21 1249.59,-16.25"/>
<polygon fill="midnightblue" stroke="midnightblue" points="1250.06,-12.78 1239.59,-14.39 1248.78,-19.66 1250.06,-12.78"/>
</g>
<!-- Node9 -->
<g id="node9" class="node">
<title>Node9</title>
<g id="a_node9"><a xlink:title=" ">
<polygon fill="white" stroke="#bfbfbf" points="1390.68,-0.5 1390.68,-19.5 1437.68,-19.5 1437.68,-0.5 1390.68,-0.5"/>
<text text-anchor="middle" x="1414.18" y="-7.5" font-family="Helvetica,sans-Serif" font-size="10.00">vector</text>
</a>
</g>
</g>
<!-- Node1&#45;&gt;Node9 -->
<g id="edge52" class="edge">
<title>Node1&#45;&gt;Node9</title>
<path fill="none" stroke="midnightblue" d="M1185.28,-301.52C1303.05,-292.25 1547.18,-264.1 1547.18,-190 1547.18,-190 1547.18,-190 1547.18,-126.5 1547.18,-73.78 1486.86,-39.69 1447.47,-23.04"/>
<polygon fill="midnightblue" stroke="midnightblue" points="1448.54,-19.7 1437.95,-19.19 1445.91,-26.19 1448.54,-19.7"/>
</g>
<!-- Node10 -->
<g id="node10" class="node">
<title>Node10</title>
<g id="a_node10"><a xlink:title=" ">
<polygon fill="white" stroke="#bfbfbf" points="1259.18,-56.5 1259.18,-75.5 1311.18,-75.5 1311.18,-56.5 1259.18,-56.5"/>
<text text-anchor="middle" x="1285.18" y="-63.5" font-family="Helvetica,sans-Serif" font-size="10.00">cassert</text>
</a>
</g>
</g>
<!-- Node1&#45;&gt;Node10 -->
<g id="edge48" class="edge">
<title>Node1&#45;&gt;Node10</title>
<path fill="none" stroke="midnightblue" d="M1185.38,-295.21C1263.56,-278.56 1394.5,-237.47 1452.18,-143 1483.27,-92.07 1379.42,-74.98 1321.48,-69.48"/>
<polygon fill="midnightblue" stroke="midnightblue" points="1321.51,-65.97 1311.24,-68.58 1320.89,-72.94 1321.51,-65.97"/>
</g>
<!-- Node13 -->
<g id="node13" class="node">
<title>Node13</title>
<g id="a_node13"><a xlink:title=" ">
<polygon fill="white" stroke="#bfbfbf" points="263.68,-118 263.68,-137 402.68,-137 402.68,-118 263.68,-118"/>
<text text-anchor="middle" x="333.18" y="-125" font-family="Helvetica,sans-Serif" font-size="10.00">smart_ptr/shared_ptr.hpp</text>
</a>
</g>
</g>
<!-- Node1&#45;&gt;Node13 -->
<g id="edge39" class="edge">
<title>Node1&#45;&gt;Node13</title>
<path fill="none" stroke="midnightblue" d="M1061.01,-304.31C842.89,-299.45 122.23,-277.53 59.18,-199 53.61,-192.07 53.49,-185.83 59.18,-179 83.51,-149.77 181.35,-137.39 253.2,-132.2"/>
<polygon fill="midnightblue" stroke="midnightblue" points="253.87,-135.66 263.6,-131.48 253.39,-128.68 253.87,-135.66"/>
</g>
<!-- Node15 -->
<g id="node15" class="node">
<title>Node15</title>
<g id="a_node15"><a xlink:title=" ">
<polygon fill="white" stroke="#bfbfbf" points="875.18,-118 875.18,-137 919.18,-137 919.18,-118 875.18,-118"/>
<text text-anchor="middle" x="897.18" y="-125" font-family="Helvetica,sans-Serif" font-size="10.00">string</text>
</a>
</g>
</g>
<!-- Node1&#45;&gt;Node15 -->
<g id="edge51" class="edge">
<title>Node1&#45;&gt;Node15</title>
<path fill="none" stroke="midnightblue" d="M1061.15,-294.67C1032.38,-287.24 999.12,-274.98 974.18,-255 937.68,-225.77 914.18,-174.23 903.63,-146.83"/>
<polygon fill="midnightblue" stroke="midnightblue" points="906.86,-145.47 900.11,-137.3 900.29,-147.9 906.86,-145.47"/>
</g>
<!-- Node17 -->
<g id="node17" class="node">
<title>Node17</title>
<g id="a_node17"><a xlink:title=" ">
<polygon fill="white" stroke="#bfbfbf" points="68.18,-179.5 68.18,-198.5 230.18,-198.5 230.18,-179.5 68.18,-179.5"/>
<text text-anchor="middle" x="149.18" y="-186.5" font-family="Helvetica,sans-Serif" font-size="10.00">thread/condition_variable.hpp</text>
</a>
</g>
</g>
<!-- Node1&#45;&gt;Node17 -->
<g id="edge40" class="edge">
<title>Node1&#45;&gt;Node17</title>
<path fill="none" stroke="midnightblue" d="M1060.77,-304.71C936.28,-302.33 648.56,-292.83 410.18,-255 329.28,-242.16 236.7,-216.4 186.43,-201.45"/>
<polygon fill="midnightblue" stroke="midnightblue" points="187.25,-198.04 176.66,-198.52 185.24,-204.75 187.25,-198.04"/>
</g>
<!-- Node18 -->
<g id="node18" class="node">
<title>Node18</title>
<g id="a_node18"><a xlink:title=" ">
<polygon fill="white" stroke="#bfbfbf" points="499.18,-179.5 499.18,-198.5 603.18,-198.5 603.18,-179.5 499.18,-179.5"/>
<text text-anchor="middle" x="551.18" y="-186.5" font-family="Helvetica,sans-Serif" font-size="10.00">thread/mutex.hpp</text>
</a>
</g>
</g>
<!-- Node1&#45;&gt;Node18 -->
<g id="edge41" class="edge">
<title>Node1&#45;&gt;Node18</title>
<path fill="none" stroke="midnightblue" d="M1060.88,-298.11C994.07,-289.7 885.04,-274.54 792.18,-255 719.28,-239.66 635.63,-215.62 588.52,-201.47"/>
<polygon fill="midnightblue" stroke="midnightblue" points="589.35,-198.07 578.76,-198.53 587.33,-204.77 589.35,-198.07"/>
</g>
<!-- Node19 -->
<g id="node19" class="node">
<title>Node19</title>
<g id="a_node19"><a xlink:title=" ">
<polygon fill="white" stroke="#bfbfbf" points="621.18,-179.5 621.18,-198.5 725.18,-198.5 725.18,-179.5 621.18,-179.5"/>
<text text-anchor="middle" x="673.18" y="-186.5" font-family="Helvetica,sans-Serif" font-size="10.00">thread/thread.hpp</text>
</a>
</g>
</g>
<!-- Node1&#45;&gt;Node19 -->
<g id="edge42" class="edge">
<title>Node1&#45;&gt;Node19</title>
<path fill="none" stroke="midnightblue" d="M1061,-296.35C1006.92,-287.75 926.69,-273.45 858.18,-255 802.74,-240.07 740.06,-216.6 703.73,-202.32"/>
<polygon fill="midnightblue" stroke="midnightblue" points="704.8,-198.98 694.22,-198.56 702.22,-205.49 704.8,-198.98"/>
</g>
<!-- Node21 -->
<g id="node21" class="node">
<title>Node21</title>
<g id="a_node21"><a xlink:href="logger_8hpp.html" target="_top" xlink:title=" ">
<polygon fill="white" stroke="black" points="1163.18,-179.5 1163.18,-198.5 1231.18,-198.5 1231.18,-179.5 1163.18,-179.5"/>
<text text-anchor="middle" x="1197.18" y="-186.5" font-family="Helvetica,sans-Serif" font-size="10.00">logger.hpp</text>
</a>
</g>
</g>
<!-- Node1&#45;&gt;Node21 -->
<g id="edge24" class="edge">
<title>Node1&#45;&gt;Node21</title>
<path fill="none" stroke="midnightblue" d="M1132.25,-291.34C1145.82,-270.15 1171.39,-230.24 1186.07,-207.34"/>
<polygon fill="midnightblue" stroke="midnightblue" points="1189.17,-208.98 1191.62,-198.67 1183.28,-205.2 1189.17,-208.98"/>
</g>
<!-- Node22 -->
<g id="node22" class="node">
<title>Node22</title>
<g id="a_node22"><a xlink:title=" ">
<polygon fill="white" stroke="#bfbfbf" points="1375.18,-118 1375.18,-137 1443.18,-137 1443.18,-118 1375.18,-118"/>
<text text-anchor="middle" x="1409.18" y="-125" font-family="Helvetica,sans-Serif" font-size="10.00">sys/time.h</text>
</a>
</g>
</g>
<!-- Node1&#45;&gt;Node22 -->
<g id="edge45" class="edge">
<title>Node1&#45;&gt;Node22</title>
<path fill="none" stroke="midnightblue" d="M1146.1,-291.31C1199.74,-258.12 1332.95,-175.68 1386.42,-142.58"/>
<polygon fill="midnightblue" stroke="midnightblue" points="1388.5,-145.41 1395.16,-137.17 1384.81,-139.46 1388.5,-145.41"/>
</g>
<!-- Node27 -->
<g id="node27" class="node">
<title>Node27</title>
<g id="a_node27"><a xlink:href="serv__exception_8hpp.html" target="_top" xlink:title=" ">
<polygon fill="white" stroke="black" points="983.18,-235.5 983.18,-254.5 1095.18,-254.5 1095.18,-235.5 983.18,-235.5"/>
<text text-anchor="middle" x="1039.18" y="-242.5" font-family="Helvetica,sans-Serif" font-size="10.00">serv_exception.hpp</text>
</a>
</g>
</g>
<!-- Node1&#45;&gt;Node27 -->
<g id="edge33" class="edge">
<title>Node1&#45;&gt;Node27</title>
<path fill="none" stroke="midnightblue" d="M1103.27,-291.4C1090.18,-282.13 1073.09,-270.03 1059.85,-260.65"/>
<polygon fill="midnightblue" stroke="midnightblue" points="1061.58,-257.58 1051.4,-254.66 1057.54,-263.29 1061.58,-257.58"/>
</g>
<!-- Node29 -->
<g id="node29" class="node">
<title>Node29</title>
<g id="a_node29"><a xlink:title=" ">
<polygon fill="white" stroke="#bfbfbf" points="1079.68,-179.5 1079.68,-198.5 1144.68,-198.5 1144.68,-179.5 1079.68,-179.5"/>
<text text-anchor="middle" x="1112.18" y="-186.5" font-family="Helvetica,sans-Serif" font-size="10.00">exception</text>
</a>
</g>
</g>
<!-- Node1&#45;&gt;Node29 -->
<g id="edge49" class="edge">
<title>Node1&#45;&gt;Node29</title>
<path fill="none" stroke="midnightblue" d="M1121.83,-291.34C1119.85,-270.62 1116.18,-232.02 1113.98,-208.9"/>
<polygon fill="midnightblue" stroke="midnightblue" points="1117.43,-208.29 1113,-198.67 1110.47,-208.96 1117.43,-208.29"/>
</g>
<!-- Node30 -->
<g id="node30" class="node">
<title>Node30</title>
<g id="a_node30"><a xlink:title=" ">
<polygon fill="white" stroke="#bfbfbf" points="1575.68,-235.5 1575.68,-254.5 1648.68,-254.5 1648.68,-235.5 1575.68,-235.5"/>
<text text-anchor="middle" x="1612.18" y="-242.5" font-family="Helvetica,sans-Serif" font-size="10.00">sys/event.h</text>
</a>
</g>
</g>
<!-- Node1&#45;&gt;Node30 -->
<g id="edge43" class="edge">
<title>Node1&#45;&gt;Node30</title>
<path fill="none" stroke="midnightblue" d="M1185.34,-299.52C1270.39,-291.06 1427.67,-274.46 1561.18,-255 1562.62,-254.79 1564.09,-254.57 1565.57,-254.34"/>
<polygon fill="midnightblue" stroke="midnightblue" points="1566.13,-257.8 1575.45,-252.75 1565.02,-250.89 1566.13,-257.8"/>
</g>
<!-- Node31 -->
<g id="node31" class="node">
<title>Node31</title>
<g id="a_node31"><a xlink:title=" ">
<polygon fill="white" stroke="#bfbfbf" points="1666.68,-235.5 1666.68,-254.5 1743.68,-254.5 1743.68,-235.5 1666.68,-235.5"/>
<text text-anchor="middle" x="1705.18" y="-242.5" font-family="Helvetica,sans-Serif" font-size="10.00">sys/socket.h</text>
</a>
</g>
</g>
<!-- Node1&#45;&gt;Node31 -->
<g id="edge44" class="edge">
<title>Node1&#45;&gt;Node31</title>
<path fill="none" stroke="midnightblue" d="M1185.19,-301.57C1283.25,-294.93 1480.29,-279.87 1656.52,-255.12"/>
<polygon fill="midnightblue" stroke="midnightblue" points="1657.09,-258.58 1666.5,-253.71 1656.1,-251.65 1657.09,-258.58"/>
</g>
<!-- Node32 -->
<g id="node32" class="node">
<title>Node32</title>
<g id="a_node32"><a xlink:title=" ">
<polygon fill="white" stroke="#bfbfbf" points="1762.18,-235.5 1762.18,-254.5 1818.18,-254.5 1818.18,-235.5 1762.18,-235.5"/>
<text text-anchor="middle" x="1790.18" y="-242.5" font-family="Helvetica,sans-Serif" font-size="10.00">unistd.h</text>
</a>
</g>
</g>
<!-- Node1&#45;&gt;Node32 -->
<g id="edge46" class="edge">
<title>Node1&#45;&gt;Node32</title>
<path fill="none" stroke="midnightblue" d="M1185.27,-303.79C1296.93,-299.99 1539.07,-288.52 1751.88,-254.96"/>
<polygon fill="midnightblue" stroke="midnightblue" points="1752.66,-258.38 1761.99,-253.34 1751.56,-251.47 1752.66,-258.38"/>
</g>
<!-- Node33 -->
<g id="node33" class="node">
<title>Node33</title>
<g id="a_node33"><a xlink:title=" ">
<polygon fill="white" stroke="#bfbfbf" points="1836.18,-235.5 1836.18,-254.5 1900.18,-254.5 1900.18,-235.5 1836.18,-235.5"/>
<text text-anchor="middle" x="1868.18" y="-242.5" font-family="Helvetica,sans-Serif" font-size="10.00">algorithm</text>
</a>
</g>
</g>
<!-- Node1&#45;&gt;Node33 -->
<g id="edge47" class="edge">
<title>Node1&#45;&gt;Node33</title>
<path fill="none" stroke="midnightblue" d="M1185.18,-304.06C1306.51,-300.59 1583.89,-289.43 1825.98,-254.96"/>
<polygon fill="midnightblue" stroke="midnightblue" points="1826.63,-258.41 1836.03,-253.52 1825.63,-251.48 1826.63,-258.41"/>
</g>
<!-- Node2&#45;&gt;Node3 -->
<g id="edge2" class="edge">
<title>Node2&#45;&gt;Node3</title>
<path fill="none" stroke="midnightblue" d="M522.97,-235.8C583.36,-226.23 683.21,-210.42 748.34,-200.11"/>
<polygon fill="midnightblue" stroke="midnightblue" points="749.16,-203.52 758.49,-198.5 748.06,-196.61 749.16,-203.52"/>
</g>
<!-- Node2&#45;&gt;Node5 -->
<g id="edge16" class="edge">
<title>Node2&#45;&gt;Node5</title>
<path fill="none" stroke="midnightblue" d="M419.62,-237.46C369.65,-230.18 298.38,-217.03 277.18,-199 246.7,-173.1 226.94,-141.29 254.18,-112 292.05,-71.27 671.97,-66.98 816.64,-66.83"/>
<polygon fill="midnightblue" stroke="midnightblue" points="816.64,-70.33 826.64,-66.83 816.64,-63.33 816.64,-70.33"/>
</g>
<!-- Node2&#45;&gt;Node13 -->
<g id="edge18" class="edge">
<title>Node2&#45;&gt;Node13</title>
<path fill="none" stroke="midnightblue" d="M470.77,-235.3C469.68,-221.67 465.7,-195.15 451.18,-179 433.83,-159.72 407.87,-147.53 384.72,-139.97"/>
<polygon fill="midnightblue" stroke="midnightblue" points="385.58,-136.58 375,-137.01 383.54,-143.27 385.58,-136.58"/>
</g>
<!-- Node16 -->
<g id="node16" class="node">
<title>Node16</title>
<g id="a_node16"><a xlink:href="task__base_8hpp.html" target="_top" xlink:title=" ">
<polygon fill="white" stroke="black" points="286.68,-179.5 286.68,-198.5 373.68,-198.5 373.68,-179.5 286.68,-179.5"/>
<text text-anchor="middle" x="330.18" y="-186.5" font-family="Helvetica,sans-Serif" font-size="10.00">task_base.hpp</text>
</a>
</g>
</g>
<!-- Node2&#45;&gt;Node16 -->
<g id="edge17" class="edge">
<title>Node2&#45;&gt;Node16</title>
<path fill="none" stroke="midnightblue" d="M448.83,-235.44C425.42,-226.48 388.44,-212.31 361.99,-202.18"/>
<polygon fill="midnightblue" stroke="midnightblue" points="363,-198.82 352.41,-198.52 360.5,-205.36 363,-198.82"/>
</g>
<!-- Node2&#45;&gt;Node17 -->
<g id="edge19" class="edge">
<title>Node2&#45;&gt;Node17</title>
<path fill="none" stroke="midnightblue" d="M420.15,-235.44C363.16,-225.89 270.94,-210.42 210.18,-200.23"/>
<polygon fill="midnightblue" stroke="midnightblue" points="210.4,-196.72 199.96,-198.52 209.24,-203.62 210.4,-196.72"/>
</g>
<!-- Node2&#45;&gt;Node18 -->
<g id="edge20" class="edge">
<title>Node2&#45;&gt;Node18</title>
<path fill="none" stroke="midnightblue" d="M484.03,-235.32C496.39,-226.98 515.31,-214.21 529.91,-204.35"/>
<polygon fill="midnightblue" stroke="midnightblue" points="532.02,-207.15 538.35,-198.65 528.11,-201.35 532.02,-207.15"/>
</g>
<!-- Node2&#45;&gt;Node19 -->
<g id="edge21" class="edge">
<title>Node2&#45;&gt;Node19</title>
<path fill="none" stroke="midnightblue" d="M503.18,-235.44C537.9,-226.16 593.46,-211.31 631.55,-201.13"/>
<polygon fill="midnightblue" stroke="midnightblue" points="632.56,-204.48 641.32,-198.52 630.75,-197.72 632.56,-204.48"/>
</g>
<!-- Node20 -->
<g id="node20" class="node">
<title>Node20</title>
<g id="a_node20"><a xlink:title=" ">
<polygon fill="white" stroke="#bfbfbf" points="391.68,-179.5 391.68,-198.5 442.68,-198.5 442.68,-179.5 391.68,-179.5"/>
<text text-anchor="middle" x="417.18" y="-186.5" font-family="Helvetica,sans-Serif" font-size="10.00">csignal</text>
</a>
</g>
</g>
<!-- Node2&#45;&gt;Node20 -->
<g id="edge22" class="edge">
<title>Node2&#45;&gt;Node20</title>
<path fill="none" stroke="midnightblue" d="M462.26,-235.08C454.39,-227.22 442.74,-215.57 433.26,-206.08"/>
<polygon fill="midnightblue" stroke="midnightblue" points="435.47,-203.35 425.93,-198.75 430.52,-208.3 435.47,-203.35"/>
</g>
<!-- Node4 -->
<g id="node4" class="node">
<title>Node4</title>
<g id="a_node4"><a xlink:href="byte__buffer_8hpp.html" target="_top" xlink:title=" ">
<polygon fill="white" stroke="black" points="765.18,-118 765.18,-137 857.18,-137 857.18,-118 765.18,-118"/>
<text text-anchor="middle" x="811.18" y="-125" font-family="Helvetica,sans-Serif" font-size="10.00">byte_buffer.hpp</text>
</a>
</g>
</g>
<!-- Node3&#45;&gt;Node4 -->
<g id="edge3" class="edge">
<title>Node3&#45;&gt;Node4</title>
<path fill="none" stroke="midnightblue" d="M812.03,-179.48C811.89,-171.08 811.67,-157.98 811.49,-147.16"/>
<polygon fill="midnightblue" stroke="midnightblue" points="814.99,-146.95 811.32,-137.01 807.99,-147.07 814.99,-146.95"/>
</g>
<!-- Node3&#45;&gt;Node5 -->
<g id="edge11" class="edge">
<title>Node3&#45;&gt;Node5</title>
<path fill="none" stroke="midnightblue" d="M794.67,-179.46C781.39,-171.92 764.1,-159.53 756.18,-143 750.22,-130.58 748.39,-123.37 756.18,-112 769.89,-91.97 793.91,-80.86 816.56,-74.69"/>
<polygon fill="midnightblue" stroke="midnightblue" points="817.6,-78.04 826.48,-72.26 815.93,-71.24 817.6,-78.04"/>
</g>
<!-- Node12 -->
<g id="node12" class="node">
<title>Node12</title>
<g id="a_node12"><a xlink:title=" ">
<polygon fill="white" stroke="#bfbfbf" points="421.18,-112.5 421.18,-142.5 559.18,-142.5 559.18,-112.5 421.18,-112.5"/>
<text text-anchor="start" x="429.18" y="-130.5" font-family="Helvetica,sans-Serif" font-size="10.00">smart_ptr/enable_shared</text>
<text text-anchor="middle" x="490.18" y="-119.5" font-family="Helvetica,sans-Serif" font-size="10.00">_from_this.hpp</text>
</a>
</g>
</g>
<!-- Node3&#45;&gt;Node12 -->
<g id="edge12" class="edge">
<title>Node3&#45;&gt;Node12</title>
<path fill="none" stroke="midnightblue" d="M765.85,-179.48C718.88,-170.83 643.8,-157 569.5,-143.24"/>
<polygon fill="midnightblue" stroke="midnightblue" points="569.97,-139.77 559.5,-141.39 568.69,-146.65 569.97,-139.77"/>
</g>
<!-- Node3&#45;&gt;Node13 -->
<g id="edge13" class="edge">
<title>Node3&#45;&gt;Node13</title>
<path fill="none" stroke="midnightblue" d="M743.27,-180.04C740.2,-179.69 737.16,-179.34 734.18,-179 591.09,-162.75 554.64,-164.01 412.18,-143 403.85,-141.77 395.05,-140.32 386.48,-138.81"/>
<polygon fill="midnightblue" stroke="midnightblue" points="387.01,-135.35 376.55,-137.03 385.77,-142.24 387.01,-135.35"/>
</g>
<!-- Node14 -->
<g id="node14" class="node">
<title>Node14</title>
<g id="a_node14"><a xlink:title=" ">
<polygon fill="white" stroke="#bfbfbf" points="577.18,-118 577.18,-137 709.18,-137 709.18,-118 577.18,-118"/>
<text text-anchor="middle" x="643.18" y="-125" font-family="Helvetica,sans-Serif" font-size="10.00">smart_ptr/weak_ptr.hpp</text>
</a>
</g>
</g>
<!-- Node3&#45;&gt;Node14 -->
<g id="edge14" class="edge">
<title>Node3&#45;&gt;Node14</title>
<path fill="none" stroke="midnightblue" d="M787.96,-179.48C758.85,-169.22 709.81,-151.96 676.97,-140.4"/>
<polygon fill="midnightblue" stroke="midnightblue" points="677.94,-137.03 667.34,-137.01 675.61,-143.63 677.94,-137.03"/>
</g>
<!-- Node3&#45;&gt;Node15 -->
<g id="edge15" class="edge">
<title>Node3&#45;&gt;Node15</title>
<path fill="none" stroke="midnightblue" d="M824.35,-179.48C837.99,-169.93 860.31,-154.31 876.65,-142.87"/>
<polygon fill="midnightblue" stroke="midnightblue" points="878.83,-145.61 885.02,-137.01 874.82,-139.88 878.83,-145.61"/>
</g>
<!-- Node4&#45;&gt;Node5 -->
<g id="edge4" class="edge">
<title>Node4&#45;&gt;Node5</title>
<path fill="none" stroke="midnightblue" d="M819.92,-117.98C829.34,-108.78 844.54,-93.96 856.12,-82.66"/>
<polygon fill="midnightblue" stroke="midnightblue" points="858.74,-85 863.45,-75.51 853.85,-79.99 858.74,-85"/>
</g>
<!-- Node4&#45;&gt;Node10 -->
<g id="edge9" class="edge">
<title>Node4&#45;&gt;Node10</title>
<path fill="none" stroke="midnightblue" d="M840.11,-118C848.46,-115.78 857.63,-113.58 866.18,-112 1006.41,-86.14 1176,-73.57 1248.94,-69.05"/>
<polygon fill="midnightblue" stroke="midnightblue" points="1249.22,-72.54 1258.99,-68.44 1248.8,-65.55 1249.22,-72.54"/>
</g>
<!-- Node11 -->
<g id="node11" class="node">
<title>Node11</title>
<g id="a_node11"><a xlink:title=" ">
<polygon fill="white" stroke="#bfbfbf" points="967.18,-56.5 967.18,-75.5 1017.18,-75.5 1017.18,-56.5 967.18,-56.5"/>
<text text-anchor="middle" x="992.18" y="-63.5" font-family="Helvetica,sans-Serif" font-size="10.00">cstring</text>
</a>
</g>
</g>
<!-- Node4&#45;&gt;Node11 -->
<g id="edge10" class="edge">
<title>Node4&#45;&gt;Node11</title>
<path fill="none" stroke="midnightblue" d="M837.11,-117.98C868.69,-107.59 922.17,-90.01 957.33,-78.46"/>
<polygon fill="midnightblue" stroke="midnightblue" points="958.76,-81.67 967.16,-75.22 956.57,-75.02 958.76,-81.67"/>
</g>
<!-- Node6 -->
<g id="node6" class="node">
<title>Node6</title>
<g id="a_node6"><a xlink:title=" ">
<polygon fill="white" stroke="#bfbfbf" points="819.68,-0.5 819.68,-19.5 866.68,-19.5 866.68,-0.5 819.68,-0.5"/>
<text text-anchor="middle" x="843.18" y="-7.5" font-family="Helvetica,sans-Serif" font-size="10.00">deque</text>
</a>
</g>
</g>
<!-- Node5&#45;&gt;Node6 -->
<g id="edge5" class="edge">
<title>Node5&#45;&gt;Node6</title>
<path fill="none" stroke="midnightblue" d="M867.39,-56.08C863.42,-48.69 857.65,-37.95 852.74,-28.81"/>
<polygon fill="midnightblue" stroke="midnightblue" points="855.69,-26.91 847.88,-19.75 849.52,-30.22 855.69,-26.91"/>
</g>
<!-- Node5&#45;&gt;Node7 -->
<g id="edge6" class="edge">
<title>Node5&#45;&gt;Node7</title>
<path fill="none" stroke="midnightblue" d="M918.03,-57.88C990.81,-46.59 1130.7,-24.88 1191.16,-15.5"/>
<polygon fill="midnightblue" stroke="midnightblue" points="1191.82,-18.94 1201.16,-13.95 1190.74,-12.03 1191.82,-18.94"/>
</g>
<!-- Node8 -->
<g id="node8" class="node">
<title>Node8</title>
<g id="a_node8"><a xlink:title=" ">
<polygon fill="white" stroke="#bfbfbf" points="885.18,-0.5 885.18,-19.5 917.18,-19.5 917.18,-0.5 885.18,-0.5"/>
<text text-anchor="middle" x="901.18" y="-7.5" font-family="Helvetica,sans-Serif" font-size="10.00">set</text>
</a>
</g>
</g>
<!-- Node5&#45;&gt;Node8 -->
<g id="edge7" class="edge">
<title>Node5&#45;&gt;Node8</title>
<path fill="none" stroke="midnightblue" d="M876.96,-56.08C880.93,-48.69 886.7,-37.95 891.61,-28.81"/>
<polygon fill="midnightblue" stroke="midnightblue" points="894.83,-30.22 896.48,-19.75 888.66,-26.91 894.83,-30.22"/>
</g>
<!-- Node5&#45;&gt;Node9 -->
<g id="edge8" class="edge">
<title>Node5&#45;&gt;Node9</title>
<path fill="none" stroke="midnightblue" d="M917.7,-60.19C930.76,-58.82 945.03,-57.34 958.18,-56 1115.83,-39.97 1304.24,-21.64 1380.08,-14.3"/>
<polygon fill="midnightblue" stroke="midnightblue" points="1380.82,-17.74 1390.43,-13.29 1380.14,-10.77 1380.82,-17.74"/>
</g>
<!-- Node21&#45;&gt;Node5 -->
<g id="edge25" class="edge">
<title>Node21&#45;&gt;Node5</title>
<path fill="none" stroke="midnightblue" d="M1162.87,-179.5C1131.17,-171.3 1082.95,-157.95 1042.18,-143 989.96,-123.85 931.16,-96.12 898.2,-79.99"/>
<polygon fill="midnightblue" stroke="midnightblue" points="899.74,-76.85 889.23,-75.57 896.65,-83.13 899.74,-76.85"/>
</g>
<!-- Node21&#45;&gt;Node10 -->
<g id="edge32" class="edge">
<title>Node21&#45;&gt;Node10</title>
<path fill="none" stroke="midnightblue" d="M1218.06,-179.48C1233.61,-172.08 1254.14,-159.89 1266.18,-143 1278.23,-126.08 1282.66,-102.29 1284.28,-85.86"/>
<polygon fill="midnightblue" stroke="midnightblue" points="1287.77,-86.06 1285.01,-75.83 1280.79,-85.55 1287.77,-86.06"/>
</g>
<!-- Node21&#45;&gt;Node15 -->
<g id="edge31" class="edge">
<title>Node21&#45;&gt;Node15</title>
<path fill="none" stroke="midnightblue" d="M1162.92,-180.79C1159.96,-180.18 1157.02,-179.58 1154.18,-179 1143.15,-176.76 995.57,-147.8 929.16,-134.77"/>
<polygon fill="midnightblue" stroke="midnightblue" points="929.72,-131.32 919.24,-132.83 928.38,-138.19 929.72,-131.32"/>
</g>
<!-- Node21&#45;&gt;Node22 -->
<g id="edge26" class="edge">
<title>Node21&#45;&gt;Node22</title>
<path fill="none" stroke="midnightblue" d="M1231.35,-179.6C1265.61,-171 1319.81,-156.98 1366.18,-143 1369.1,-142.12 1372.12,-141.17 1375.15,-140.2"/>
<polygon fill="midnightblue" stroke="midnightblue" points="1376.3,-143.51 1384.71,-137.06 1374.11,-136.86 1376.3,-143.51"/>
</g>
<!-- Node23 -->
<g id="node23" class="node">
<title>Node23</title>
<g id="a_node23"><a xlink:title=" ">
<polygon fill="white" stroke="#bfbfbf" points="1203.68,-118 1203.68,-137 1256.68,-137 1256.68,-118 1203.68,-118"/>
<text text-anchor="middle" x="1230.18" y="-125" font-family="Helvetica,sans-Serif" font-size="10.00">cstdarg</text>
</a>
</g>
</g>
<!-- Node21&#45;&gt;Node23 -->
<g id="edge27" class="edge">
<title>Node21&#45;&gt;Node23</title>
<path fill="none" stroke="midnightblue" d="M1201.9,-179.48C1206.76,-170.73 1214.44,-156.87 1220.58,-145.81"/>
<polygon fill="midnightblue" stroke="midnightblue" points="1223.67,-147.45 1225.46,-137.01 1217.55,-144.06 1223.67,-147.45"/>
</g>
<!-- Node24 -->
<g id="node24" class="node">
<title>Node24</title>
<g id="a_node24"><a xlink:title=" ">
<polygon fill="white" stroke="#bfbfbf" points="1313.18,-118 1313.18,-137 1357.18,-137 1357.18,-118 1313.18,-118"/>
<text text-anchor="middle" x="1335.18" y="-125" font-family="Helvetica,sans-Serif" font-size="10.00">ctime</text>
</a>
</g>
</g>
<!-- Node21&#45;&gt;Node24 -->
<g id="edge28" class="edge">
<title>Node21&#45;&gt;Node24</title>
<path fill="none" stroke="midnightblue" d="M1216.95,-179.48C1240.31,-169.4 1279.39,-152.55 1306.18,-141"/>
<polygon fill="midnightblue" stroke="midnightblue" points="1307.64,-144.18 1315.44,-137.01 1304.87,-137.75 1307.64,-144.18"/>
</g>
<!-- Node25 -->
<g id="node25" class="node">
<title>Node25</title>
<g id="a_node25"><a xlink:title=" ">
<polygon fill="white" stroke="#bfbfbf" points="1051.18,-118 1051.18,-137 1111.18,-137 1111.18,-118 1051.18,-118"/>
<text text-anchor="middle" x="1081.18" y="-125" font-family="Helvetica,sans-Serif" font-size="10.00">iostream</text>
</a>
</g>
</g>
<!-- Node21&#45;&gt;Node25 -->
<g id="edge29" class="edge">
<title>Node21&#45;&gt;Node25</title>
<path fill="none" stroke="midnightblue" d="M1180.56,-179.48C1161.26,-169.58 1129.22,-153.14 1106.74,-141.62"/>
<polygon fill="midnightblue" stroke="midnightblue" points="1108.26,-138.46 1097.76,-137.01 1105.06,-144.69 1108.26,-138.46"/>
</g>
<!-- Node26 -->
<g id="node26" class="node">
<title>Node26</title>
<g id="a_node26"><a xlink:title=" ">
<polygon fill="white" stroke="#bfbfbf" points="1129.18,-118 1129.18,-137 1185.18,-137 1185.18,-118 1129.18,-118"/>
<text text-anchor="middle" x="1157.18" y="-125" font-family="Helvetica,sans-Serif" font-size="10.00">sstream</text>
</a>
</g>
</g>
<!-- Node21&#45;&gt;Node26 -->
<g id="edge30" class="edge">
<title>Node21&#45;&gt;Node26</title>
<path fill="none" stroke="midnightblue" d="M1191.44,-179.48C1185.5,-170.64 1176.06,-156.59 1168.59,-145.48"/>
<polygon fill="midnightblue" stroke="midnightblue" points="1171.38,-143.36 1162.9,-137.01 1165.57,-147.26 1171.38,-143.36"/>
</g>
<!-- Node27&#45;&gt;Node5 -->
<g id="edge34" class="edge">
<title>Node27&#45;&gt;Node5</title>
<path fill="none" stroke="midnightblue" d="M1018.87,-235.36C1003.04,-227.75 981.41,-215.34 967.18,-199 939.34,-167.05 954.08,-145.54 928.18,-112 919.03,-100.16 906.16,-89.54 895.07,-81.59"/>
<polygon fill="midnightblue" stroke="midnightblue" points="896.88,-78.59 886.66,-75.82 892.92,-84.36 896.88,-78.59"/>
</g>
<!-- Node27&#45;&gt;Node11 -->
<g id="edge36" class="edge">
<title>Node27&#45;&gt;Node11</title>
<path fill="none" stroke="midnightblue" d="M1038.9,-235.48C1038.34,-222.96 1036.74,-198.91 1032.18,-179 1024.33,-144.75 1009.24,-106.55 1000.01,-84.78"/>
<polygon fill="midnightblue" stroke="midnightblue" points="1003.18,-83.3 996,-75.51 996.75,-86.07 1003.18,-83.3"/>
</g>
<!-- Node28 -->
<g id="node28" class="node">
<title>Node28</title>
<g id="a_node28"><a xlink:title=" ">
<polygon fill="white" stroke="#bfbfbf" points="975.68,-179.5 975.68,-198.5 1022.68,-198.5 1022.68,-179.5 975.68,-179.5"/>
<text text-anchor="middle" x="999.18" y="-186.5" font-family="Helvetica,sans-Serif" font-size="10.00">cerrno</text>
</a>
</g>
</g>
<!-- Node27&#45;&gt;Node28 -->
<g id="edge35" class="edge">
<title>Node27&#45;&gt;Node28</title>
<path fill="none" stroke="midnightblue" d="M1032.57,-235.08C1026.92,-227.46 1018.63,-216.26 1011.72,-206.94"/>
<polygon fill="midnightblue" stroke="midnightblue" points="1014.42,-204.7 1005.66,-198.75 1008.8,-208.87 1014.42,-204.7"/>
</g>
<!-- Node27&#45;&gt;Node29 -->
<g id="edge37" class="edge">
<title>Node27&#45;&gt;Node29</title>
<path fill="none" stroke="midnightblue" d="M1050.9,-235.32C1062.01,-227.11 1078.92,-214.6 1092.16,-204.81"/>
<polygon fill="midnightblue" stroke="midnightblue" points="1094.28,-207.59 1100.23,-198.83 1090.11,-201.97 1094.28,-207.59"/>
</g>
</g>
</svg>
