<?xml version="1.0" encoding="UTF-8" standalone="no"?>
<!DOCTYPE svg PUBLIC "-//W3C//DTD SVG 1.1//EN"
 "http://www.w3.org/Graphics/SVG/1.1/DTD/svg11.dtd">
<!-- Generated by graphviz version 2.43.0 (0)
 -->
<!-- Title: includes/libserv/event_channel_base.cpp Pages: 1 -->
<svg width="2267pt" height="330pt"
 viewBox="0.00 0.00 2267.00 330.00" xmlns="http://www.w3.org/2000/svg" xmlns:xlink="http://www.w3.org/1999/xlink">
<g id="graph0" class="graph" transform="scale(1 1) rotate(0) translate(4 326)">
<title>includes/libserv/event_channel_base.cpp</title>
<polygon fill="white" stroke="transparent" points="-4,4 -4,-326 2263,-326 2263,4 -4,4"/>
<!-- Node1 -->
<g id="node1" class="node">
<title>Node1</title>
<g id="a_node1"><a xlink:title=" ">
<polygon fill="#bfbfbf" stroke="black" points="737.5,-291.5 737.5,-321.5 861.5,-321.5 861.5,-291.5 737.5,-291.5"/>
<text text-anchor="start" x="745.5" y="-309.5" font-family="Helvetica,sans-Serif" font-size="10.00">includes/libserv/event</text>
<text text-anchor="middle" x="799.5" y="-298.5" font-family="Helvetica,sans-Serif" font-size="10.00">_channel_base.cpp</text>
</a>
</g>
</g>
<!-- Node2 -->
<g id="node2" class="node">
<title>Node2</title>
<g id="a_node2"><a xlink:href="event__channel__base_8hpp.html" target="_top" xlink:title=" ">
<polygon fill="white" stroke="black" points="534,-179.5 534,-198.5 671,-198.5 671,-179.5 534,-179.5"/>
<text text-anchor="middle" x="602.5" y="-186.5" font-family="Helvetica,sans-Serif" font-size="10.00">event_channel_base.hpp</text>
</a>
</g>
</g>
<!-- Node1&#45;&gt;Node2 -->
<g id="edge1" class="edge">
<title>Node1&#45;&gt;Node2</title>
<path fill="none" stroke="midnightblue" d="M761.63,-291.47C738.87,-282.38 709.72,-269.54 685.5,-255 661.18,-240.4 635.89,-219.65 619.71,-205.55"/>
<polygon fill="midnightblue" stroke="midnightblue" points="621.95,-202.86 612.14,-198.86 617.31,-208.1 621.95,-202.86"/>
</g>
<!-- Node3 -->
<g id="node3" class="node">
<title>Node3</title>
<g id="a_node3"><a xlink:href="byte__buffer_8hpp.html" target="_top" xlink:title=" ">
<polygon fill="white" stroke="black" points="709.5,-118 709.5,-137 801.5,-137 801.5,-118 709.5,-118"/>
<text text-anchor="middle" x="755.5" y="-125" font-family="Helvetica,sans-Serif" font-size="10.00">byte_buffer.hpp</text>
</a>
</g>
</g>
<!-- Node1&#45;&gt;Node3 -->
<g id="edge15" class="edge">
<title>Node1&#45;&gt;Node3</title>
<path fill="none" stroke="midnightblue" d="M780.77,-291.26C770.25,-282.13 757.98,-269.33 751.5,-255 735.5,-219.59 743.51,-172.74 750,-147.15"/>
<polygon fill="midnightblue" stroke="midnightblue" points="753.43,-147.86 752.69,-137.29 746.68,-146.02 753.43,-147.86"/>
</g>
<!-- Node4 -->
<g id="node4" class="node">
<title>Node4</title>
<g id="a_node4"><a xlink:href="serv__types_8hpp.html" target="_top" xlink:title=" ">
<polygon fill="white" stroke="black" points="1182,-56.5 1182,-75.5 1273,-75.5 1273,-56.5 1182,-56.5"/>
<text text-anchor="middle" x="1227.5" y="-63.5" font-family="Helvetica,sans-Serif" font-size="10.00">serv_types.hpp</text>
</a>
</g>
</g>
<!-- Node1&#45;&gt;Node4 -->
<g id="edge45" class="edge">
<title>Node1&#45;&gt;Node4</title>
<path fill="none" stroke="midnightblue" d="M861.63,-305.29C1010.71,-303.33 1381.93,-289.29 1457.5,-199 1463.21,-192.18 1462.92,-186.05 1457.5,-179 1419.67,-129.76 1377.41,-171.99 1322.5,-143 1303.83,-133.14 1302.9,-125.3 1286.5,-112 1273.74,-101.66 1259.06,-90.45 1247.53,-81.81"/>
<polygon fill="midnightblue" stroke="midnightblue" points="1249.52,-78.93 1239.41,-75.76 1245.34,-84.55 1249.52,-78.93"/>
</g>
<!-- Node9 -->
<g id="node9" class="node">
<title>Node9</title>
<g id="a_node9"><a xlink:title=" ">
<polygon fill="white" stroke="#bfbfbf" points="443.5,-56.5 443.5,-75.5 495.5,-75.5 495.5,-56.5 443.5,-56.5"/>
<text text-anchor="middle" x="469.5" y="-63.5" font-family="Helvetica,sans-Serif" font-size="10.00">cassert</text>
</a>
</g>
</g>
<!-- Node1&#45;&gt;Node9 -->
<g id="edge66" class="edge">
<title>Node1&#45;&gt;Node9</title>
<path fill="none" stroke="midnightblue" d="M737.46,-305.25C646.37,-303.45 471.83,-294.55 329.5,-255 215.7,-223.38 152.03,-242.57 88.5,-143 81.09,-131.38 79.35,-122.3 88.5,-112 111.22,-86.44 342.68,-72.93 433.35,-68.59"/>
<polygon fill="midnightblue" stroke="midnightblue" points="433.61,-72.08 443.44,-68.11 433.28,-65.08 433.61,-72.08"/>
</g>
<!-- Node12 -->
<g id="node12" class="node">
<title>Node12</title>
<g id="a_node12"><a xlink:title=" ">
<polygon fill="white" stroke="#bfbfbf" points="0,-56.5 0,-75.5 139,-75.5 139,-56.5 0,-56.5"/>
<text text-anchor="middle" x="69.5" y="-63.5" font-family="Helvetica,sans-Serif" font-size="10.00">smart_ptr/shared_ptr.hpp</text>
</a>
</g>
</g>
<!-- Node1&#45;&gt;Node12 -->
<g id="edge65" class="edge">
<title>Node1&#45;&gt;Node12</title>
<path fill="none" stroke="midnightblue" d="M737.05,-302.67C610.15,-296.48 326.27,-280.22 232.5,-255 175.66,-239.71 156.32,-238.29 112.5,-199 90.82,-179.56 87.98,-170.53 78.5,-143 72.02,-124.2 70.04,-101.4 69.52,-85.71"/>
<polygon fill="midnightblue" stroke="midnightblue" points="73.02,-85.64 69.35,-75.7 66.02,-85.76 73.02,-85.64"/>
</g>
<!-- Node14 -->
<g id="node14" class="node">
<title>Node14</title>
<g id="a_node14"><a xlink:title=" ">
<polygon fill="white" stroke="#bfbfbf" points="819.5,-118 819.5,-137 863.5,-137 863.5,-118 819.5,-118"/>
<text text-anchor="middle" x="841.5" y="-125" font-family="Helvetica,sans-Serif" font-size="10.00">string</text>
</a>
</g>
</g>
<!-- Node1&#45;&gt;Node14 -->
<g id="edge70" class="edge">
<title>Node1&#45;&gt;Node14</title>
<path fill="none" stroke="midnightblue" d="M787.44,-291.49C768.23,-267.36 734.93,-216.9 756.5,-179 759.91,-173.01 792.52,-154.64 816.34,-141.8"/>
<polygon fill="midnightblue" stroke="midnightblue" points="818.1,-144.82 825.27,-137.02 814.8,-138.65 818.1,-144.82"/>
</g>
<!-- Node15 -->
<g id="node15" class="node">
<title>Node15</title>
<g id="a_node15"><a xlink:href="event__handler__base_8hpp.html" target="_top" xlink:title=" ">
<polygon fill="white" stroke="black" points="97.5,-118 97.5,-137 233.5,-137 233.5,-118 97.5,-118"/>
<text text-anchor="middle" x="165.5" y="-125" font-family="Helvetica,sans-Serif" font-size="10.00">event_handler_base.hpp</text>
</a>
</g>
</g>
<!-- Node1&#45;&gt;Node15 -->
<g id="edge16" class="edge">
<title>Node1&#45;&gt;Node15</title>
<path fill="none" stroke="midnightblue" d="M737.28,-304.94C630.24,-301.59 406.92,-284 242.5,-199 216.72,-185.67 193.07,-161.44 178.97,-145.16"/>
<polygon fill="midnightblue" stroke="midnightblue" points="181.62,-142.87 172.51,-137.47 176.26,-147.37 181.62,-142.87"/>
</g>
<!-- Node17 -->
<g id="node17" class="node">
<title>Node17</title>
<g id="a_node17"><a xlink:href="event__layer_8hpp.html" target="_top" xlink:title=" ">
<polygon fill="white" stroke="black" points="252,-179.5 252,-198.5 347,-198.5 347,-179.5 252,-179.5"/>
<text text-anchor="middle" x="299.5" y="-186.5" font-family="Helvetica,sans-Serif" font-size="10.00">event_layer.hpp</text>
</a>
</g>
</g>
<!-- Node1&#45;&gt;Node17 -->
<g id="edge20" class="edge">
<title>Node1&#45;&gt;Node17</title>
<path fill="none" stroke="midnightblue" d="M738.69,-291.45C637.6,-268.1 437.11,-221.79 346.23,-200.79"/>
<polygon fill="midnightblue" stroke="midnightblue" points="347.01,-197.38 336.48,-198.54 345.44,-204.2 347.01,-197.38"/>
</g>
<!-- Node18 -->
<g id="node18" class="node">
<title>Node18</title>
<g id="a_node18"><a xlink:href="event__worker_8hpp.html" target="_top" xlink:title=" ">
<polygon fill="white" stroke="black" points="1032,-235.5 1032,-254.5 1135,-254.5 1135,-235.5 1032,-235.5"/>
<text text-anchor="middle" x="1083.5" y="-242.5" font-family="Helvetica,sans-Serif" font-size="10.00">event_worker.hpp</text>
</a>
</g>
</g>
<!-- Node1&#45;&gt;Node18 -->
<g id="edge27" class="edge">
<title>Node1&#45;&gt;Node18</title>
<path fill="none" stroke="midnightblue" d="M861.83,-292.44C913.2,-281.68 985.14,-266.61 1032.97,-256.59"/>
<polygon fill="midnightblue" stroke="midnightblue" points="1033.73,-260 1042.8,-254.53 1032.29,-253.15 1033.73,-260"/>
</g>
<!-- Node24 -->
<g id="node24" class="node">
<title>Node24</title>
<g id="a_node24"><a xlink:href="logger_8hpp.html" target="_top" xlink:title=" ">
<polygon fill="white" stroke="black" points="765.5,-179.5 765.5,-198.5 833.5,-198.5 833.5,-179.5 765.5,-179.5"/>
<text text-anchor="middle" x="799.5" y="-186.5" font-family="Helvetica,sans-Serif" font-size="10.00">logger.hpp</text>
</a>
</g>
</g>
<!-- Node1&#45;&gt;Node24 -->
<g id="edge36" class="edge">
<title>Node1&#45;&gt;Node24</title>
<path fill="none" stroke="midnightblue" d="M799.5,-291.34C799.5,-270.62 799.5,-232.02 799.5,-208.9"/>
<polygon fill="midnightblue" stroke="midnightblue" points="803,-208.67 799.5,-198.67 796,-208.67 803,-208.67"/>
</g>
<!-- Node29 -->
<g id="node29" class="node">
<title>Node29</title>
<g id="a_node29"><a xlink:title=" ">
<polygon fill="white" stroke="#bfbfbf" points="1331.5,-118 1331.5,-137 1387.5,-137 1387.5,-118 1331.5,-118"/>
<text text-anchor="middle" x="1359.5" y="-125" font-family="Helvetica,sans-Serif" font-size="10.00">sstream</text>
</a>
</g>
</g>
<!-- Node1&#45;&gt;Node29 -->
<g id="edge68" class="edge">
<title>Node1&#45;&gt;Node29</title>
<path fill="none" stroke="midnightblue" d="M861.55,-305.82C1026.91,-306.03 1468.59,-302.13 1512.5,-255 1535.53,-230.29 1532.66,-206.1 1512.5,-179 1479.26,-134.33 1444.75,-162.24 1392.5,-143 1390.84,-142.39 1389.15,-141.74 1387.46,-141.06"/>
<polygon fill="midnightblue" stroke="midnightblue" points="1388.41,-137.67 1377.84,-137.03 1385.71,-144.13 1388.41,-137.67"/>
</g>
<!-- Node30 -->
<g id="node30" class="node">
<title>Node30</title>
<g id="a_node30"><a xlink:href="socket__utils_8hpp.html" target="_top" xlink:title=" ">
<polygon fill="white" stroke="black" points="1602,-179.5 1602,-198.5 1697,-198.5 1697,-179.5 1602,-179.5"/>
<text text-anchor="middle" x="1649.5" y="-186.5" font-family="Helvetica,sans-Serif" font-size="10.00">socket_utils.hpp</text>
</a>
</g>
</g>
<!-- Node1&#45;&gt;Node30 -->
<g id="edge46" class="edge">
<title>Node1&#45;&gt;Node30</title>
<path fill="none" stroke="midnightblue" d="M861.64,-305.37C1017.84,-304.38 1423.45,-297.68 1550.5,-255 1582.28,-244.33 1613.73,-220.89 1632.39,-205.27"/>
<polygon fill="midnightblue" stroke="midnightblue" points="1634.71,-207.89 1640.01,-198.72 1630.15,-202.58 1634.71,-207.89"/>
</g>
<!-- Node40 -->
<g id="node40" class="node">
<title>Node40</title>
<g id="a_node40"><a xlink:title=" ">
<polygon fill="white" stroke="#bfbfbf" points="2194,-118 2194,-137 2259,-137 2259,-118 2194,-118"/>
<text text-anchor="middle" x="2226.5" y="-125" font-family="Helvetica,sans-Serif" font-size="10.00">stdexcept</text>
</a>
</g>
</g>
<!-- Node1&#45;&gt;Node40 -->
<g id="edge69" class="edge">
<title>Node1&#45;&gt;Node40</title>
<path fill="none" stroke="midnightblue" d="M861.56,-304.04C994.55,-300.35 1316.69,-288.45 1584.5,-255 1854.12,-221.33 1923.07,-213.4 2185.5,-143 2188.47,-142.2 2191.53,-141.29 2194.57,-140.33"/>
<polygon fill="midnightblue" stroke="midnightblue" points="2195.78,-143.62 2204.14,-137.12 2193.55,-136.98 2195.78,-143.62"/>
</g>
<!-- Node41 -->
<g id="node41" class="node">
<title>Node41</title>
<g id="a_node41"><a xlink:title=" ">
<polygon fill="white" stroke="#bfbfbf" points="1754,-235.5 1754,-254.5 1907,-254.5 1907,-235.5 1754,-235.5"/>
<text text-anchor="middle" x="1830.5" y="-242.5" font-family="Helvetica,sans-Serif" font-size="10.00">smart_ptr/make_shared.hpp</text>
</a>
</g>
</g>
<!-- Node1&#45;&gt;Node41 -->
<g id="edge64" class="edge">
<title>Node1&#45;&gt;Node41</title>
<path fill="none" stroke="midnightblue" d="M861.71,-303.13C1012.43,-297.16 1409.11,-280.2 1739.5,-255 1740.79,-254.9 1742.09,-254.8 1743.4,-254.7"/>
<polygon fill="midnightblue" stroke="midnightblue" points="1743.89,-258.17 1753.57,-253.85 1743.31,-251.19 1743.89,-258.17"/>
</g>
<!-- Node42 -->
<g id="node42" class="node">
<title>Node42</title>
<g id="a_node42"><a xlink:title=" ">
<polygon fill="white" stroke="#bfbfbf" points="1925.5,-235.5 1925.5,-254.5 1981.5,-254.5 1981.5,-235.5 1925.5,-235.5"/>
<text text-anchor="middle" x="1953.5" y="-242.5" font-family="Helvetica,sans-Serif" font-size="10.00">iomanip</text>
</a>
</g>
</g>
<!-- Node1&#45;&gt;Node42 -->
<g id="edge67" class="edge">
<title>Node1&#45;&gt;Node42</title>
<path fill="none" stroke="midnightblue" d="M861.8,-304.27C1062.39,-300.06 1690.97,-284.91 1915.28,-254.84"/>
<polygon fill="midnightblue" stroke="midnightblue" points="1915.9,-258.29 1925.33,-253.45 1914.94,-251.36 1915.9,-258.29"/>
</g>
<!-- Node2&#45;&gt;Node3 -->
<g id="edge2" class="edge">
<title>Node2&#45;&gt;Node3</title>
<path fill="none" stroke="midnightblue" d="M624.42,-179.48C650.55,-169.31 694.41,-152.26 724.13,-140.7"/>
<polygon fill="midnightblue" stroke="midnightblue" points="725.57,-143.9 733.62,-137.01 723.03,-137.37 725.57,-143.9"/>
</g>
<!-- Node2&#45;&gt;Node4 -->
<g id="edge10" class="edge">
<title>Node2&#45;&gt;Node4</title>
<path fill="none" stroke="midnightblue" d="M614.56,-179.18C626.76,-170.21 646.09,-155.84 662.5,-143 679.67,-129.57 680.3,-120.18 700.5,-112 784.77,-77.88 1054,-69.62 1171.62,-67.63"/>
<polygon fill="midnightblue" stroke="midnightblue" points="1171.91,-71.12 1181.85,-67.46 1171.79,-64.13 1171.91,-71.12"/>
</g>
<!-- Node11 -->
<g id="node11" class="node">
<title>Node11</title>
<g id="a_node11"><a xlink:title=" ">
<polygon fill="white" stroke="#bfbfbf" points="515.5,-112.5 515.5,-142.5 653.5,-142.5 653.5,-112.5 515.5,-112.5"/>
<text text-anchor="start" x="523.5" y="-130.5" font-family="Helvetica,sans-Serif" font-size="10.00">smart_ptr/enable_shared</text>
<text text-anchor="middle" x="584.5" y="-119.5" font-family="Helvetica,sans-Serif" font-size="10.00">_from_this.hpp</text>
</a>
</g>
</g>
<!-- Node2&#45;&gt;Node11 -->
<g id="edge11" class="edge">
<title>Node2&#45;&gt;Node11</title>
<path fill="none" stroke="midnightblue" d="M599.92,-179.48C597.78,-172.4 594.63,-161.97 591.73,-152.39"/>
<polygon fill="midnightblue" stroke="midnightblue" points="594.99,-151.08 588.74,-142.52 588.29,-153.11 594.99,-151.08"/>
</g>
<!-- Node2&#45;&gt;Node12 -->
<g id="edge12" class="edge">
<title>Node2&#45;&gt;Node12</title>
<path fill="none" stroke="midnightblue" d="M580.35,-179.45C560.36,-171.31 530.5,-158.09 506.5,-143 488.05,-131.4 488.59,-120.45 468.5,-112 412.67,-88.51 248.77,-76.17 149.26,-70.67"/>
<polygon fill="midnightblue" stroke="midnightblue" points="149.41,-67.18 139.24,-70.13 149.03,-74.17 149.41,-67.18"/>
</g>
<!-- Node13 -->
<g id="node13" class="node">
<title>Node13</title>
<g id="a_node13"><a xlink:title=" ">
<polygon fill="white" stroke="#bfbfbf" points="327.5,-118 327.5,-137 459.5,-137 459.5,-118 327.5,-118"/>
<text text-anchor="middle" x="393.5" y="-125" font-family="Helvetica,sans-Serif" font-size="10.00">smart_ptr/weak_ptr.hpp</text>
</a>
</g>
</g>
<!-- Node2&#45;&gt;Node13 -->
<g id="edge13" class="edge">
<title>Node2&#45;&gt;Node13</title>
<path fill="none" stroke="midnightblue" d="M572.56,-179.48C535.93,-169.05 473.8,-151.36 433.22,-139.81"/>
<polygon fill="midnightblue" stroke="midnightblue" points="433.97,-136.38 423.39,-137.01 432.05,-143.11 433.97,-136.38"/>
</g>
<!-- Node2&#45;&gt;Node14 -->
<g id="edge14" class="edge">
<title>Node2&#45;&gt;Node14</title>
<path fill="none" stroke="midnightblue" d="M658.15,-179.46C700.58,-172.12 760.09,-160 810.5,-143 812.16,-142.44 813.86,-141.81 815.55,-141.15"/>
<polygon fill="midnightblue" stroke="midnightblue" points="817.27,-144.22 825.05,-137.03 814.48,-137.8 817.27,-144.22"/>
</g>
<!-- Node3&#45;&gt;Node4 -->
<g id="edge3" class="edge">
<title>Node3&#45;&gt;Node4</title>
<path fill="none" stroke="midnightblue" d="M784.72,-117.93C792.99,-115.73 802.05,-113.56 810.5,-112 938.48,-88.36 1091.01,-75.8 1171.43,-70.36"/>
<polygon fill="midnightblue" stroke="midnightblue" points="1172.08,-73.83 1181.82,-69.68 1171.61,-66.84 1172.08,-73.83"/>
</g>
<!-- Node3&#45;&gt;Node9 -->
<g id="edge8" class="edge">
<title>Node3&#45;&gt;Node9</title>
<path fill="none" stroke="midnightblue" d="M709.08,-117.93C660.65,-108.81 582.31,-93.59 505.66,-76.18"/>
<polygon fill="midnightblue" stroke="midnightblue" points="506.37,-72.75 495.84,-73.93 504.81,-79.57 506.37,-72.75"/>
</g>
<!-- Node10 -->
<g id="node10" class="node">
<title>Node10</title>
<g id="a_node10"><a xlink:title=" ">
<polygon fill="white" stroke="#bfbfbf" points="1953.5,-56.5 1953.5,-75.5 2003.5,-75.5 2003.5,-56.5 1953.5,-56.5"/>
<text text-anchor="middle" x="1978.5" y="-63.5" font-family="Helvetica,sans-Serif" font-size="10.00">cstring</text>
</a>
</g>
</g>
<!-- Node3&#45;&gt;Node10 -->
<g id="edge9" class="edge">
<title>Node3&#45;&gt;Node10</title>
<path fill="none" stroke="midnightblue" d="M782.95,-117.96C791.67,-115.6 801.41,-113.32 810.5,-112 1306.19,-39.74 1443.75,-147.55 1943.39,-75.78"/>
<polygon fill="midnightblue" stroke="midnightblue" points="1943.99,-79.23 1953.38,-74.33 1942.98,-72.3 1943.99,-79.23"/>
</g>
<!-- Node5 -->
<g id="node5" class="node">
<title>Node5</title>
<g id="a_node5"><a xlink:title=" ">
<polygon fill="white" stroke="#bfbfbf" points="1116,-0.5 1116,-19.5 1163,-19.5 1163,-0.5 1116,-0.5"/>
<text text-anchor="middle" x="1139.5" y="-7.5" font-family="Helvetica,sans-Serif" font-size="10.00">deque</text>
</a>
</g>
</g>
<!-- Node4&#45;&gt;Node5 -->
<g id="edge4" class="edge">
<title>Node4&#45;&gt;Node5</title>
<path fill="none" stroke="midnightblue" d="M1213.36,-56.32C1199.63,-47.9 1178.56,-34.97 1162.44,-25.07"/>
<polygon fill="midnightblue" stroke="midnightblue" points="1163.96,-21.9 1153.6,-19.65 1160.3,-27.87 1163.96,-21.9"/>
</g>
<!-- Node6 -->
<g id="node6" class="node">
<title>Node6</title>
<g id="a_node6"><a xlink:title=" ">
<polygon fill="white" stroke="#bfbfbf" points="1181.5,-0.5 1181.5,-19.5 1219.5,-19.5 1219.5,-0.5 1181.5,-0.5"/>
<text text-anchor="middle" x="1200.5" y="-7.5" font-family="Helvetica,sans-Serif" font-size="10.00">map</text>
</a>
</g>
</g>
<!-- Node4&#45;&gt;Node6 -->
<g id="edge5" class="edge">
<title>Node4&#45;&gt;Node6</title>
<path fill="none" stroke="midnightblue" d="M1223.04,-56.08C1219.35,-48.69 1213.98,-37.95 1209.41,-28.81"/>
<polygon fill="midnightblue" stroke="midnightblue" points="1212.48,-27.13 1204.88,-19.75 1206.22,-30.26 1212.48,-27.13"/>
</g>
<!-- Node7 -->
<g id="node7" class="node">
<title>Node7</title>
<g id="a_node7"><a xlink:title=" ">
<polygon fill="white" stroke="#bfbfbf" points="1237.5,-0.5 1237.5,-19.5 1269.5,-19.5 1269.5,-0.5 1237.5,-0.5"/>
<text text-anchor="middle" x="1253.5" y="-7.5" font-family="Helvetica,sans-Serif" font-size="10.00">set</text>
</a>
</g>
</g>
<!-- Node4&#45;&gt;Node7 -->
<g id="edge6" class="edge">
<title>Node4&#45;&gt;Node7</title>
<path fill="none" stroke="midnightblue" d="M1231.79,-56.08C1235.35,-48.69 1240.52,-37.95 1244.92,-28.81"/>
<polygon fill="midnightblue" stroke="midnightblue" points="1248.1,-30.28 1249.29,-19.75 1241.79,-27.24 1248.1,-30.28"/>
</g>
<!-- Node8 -->
<g id="node8" class="node">
<title>Node8</title>
<g id="a_node8"><a xlink:title=" ">
<polygon fill="white" stroke="#bfbfbf" points="1288,-0.5 1288,-19.5 1335,-19.5 1335,-0.5 1288,-0.5"/>
<text text-anchor="middle" x="1311.5" y="-7.5" font-family="Helvetica,sans-Serif" font-size="10.00">vector</text>
</a>
</g>
</g>
<!-- Node4&#45;&gt;Node8 -->
<g id="edge7" class="edge">
<title>Node4&#45;&gt;Node8</title>
<path fill="none" stroke="midnightblue" d="M1241,-56.32C1254.1,-47.9 1274.21,-34.97 1289.61,-25.07"/>
<polygon fill="midnightblue" stroke="midnightblue" points="1291.52,-28.01 1298.04,-19.65 1287.73,-22.12 1291.52,-28.01"/>
</g>
<!-- Node15&#45;&gt;Node4 -->
<g id="edge17" class="edge">
<title>Node15&#45;&gt;Node4</title>
<path fill="none" stroke="midnightblue" d="M228.93,-117.96C247.17,-115.75 267.1,-113.55 285.5,-112 621.28,-83.73 1026.01,-71.83 1171.79,-68.25"/>
<polygon fill="midnightblue" stroke="midnightblue" points="1171.93,-71.75 1181.84,-68.01 1171.76,-64.75 1171.93,-71.75"/>
</g>
<!-- Node15&#45;&gt;Node12 -->
<g id="edge18" class="edge">
<title>Node15&#45;&gt;Node12</title>
<path fill="none" stroke="midnightblue" d="M151.75,-117.98C136.13,-108.3 110.44,-92.37 91.92,-80.89"/>
<polygon fill="midnightblue" stroke="midnightblue" points="93.57,-77.8 83.23,-75.51 89.88,-83.75 93.57,-77.8"/>
</g>
<!-- Node16 -->
<g id="node16" class="node">
<title>Node16</title>
<g id="a_node16"><a xlink:title=" ">
<polygon fill="white" stroke="#bfbfbf" points="514,-56.5 514,-75.5 579,-75.5 579,-56.5 514,-56.5"/>
<text text-anchor="middle" x="546.5" y="-63.5" font-family="Helvetica,sans-Serif" font-size="10.00">exception</text>
</a>
</g>
</g>
<!-- Node15&#45;&gt;Node16 -->
<g id="edge19" class="edge">
<title>Node15&#45;&gt;Node16</title>
<path fill="none" stroke="midnightblue" d="M212.28,-117.93C223.79,-115.9 236.08,-113.81 247.5,-112 358.3,-94.45 389.25,-95.99 504.1,-75.95"/>
<polygon fill="midnightblue" stroke="midnightblue" points="504.75,-79.39 513.99,-74.21 503.53,-72.5 504.75,-79.39"/>
</g>
<!-- Node17&#45;&gt;Node4 -->
<g id="edge22" class="edge">
<title>Node17&#45;&gt;Node4</title>
<path fill="none" stroke="midnightblue" d="M298.69,-179.23C297.72,-163.04 298.32,-128.57 318.5,-112 351.55,-84.86 978.92,-71.44 1171.66,-67.94"/>
<polygon fill="midnightblue" stroke="midnightblue" points="1171.91,-71.44 1181.85,-67.76 1171.79,-64.44 1171.91,-71.44"/>
</g>
<!-- Node17&#45;&gt;Node12 -->
<g id="edge23" class="edge">
<title>Node17&#45;&gt;Node12</title>
<path fill="none" stroke="midnightblue" d="M251.82,-183.66C196.93,-177.7 111.4,-165.12 88.5,-143 73.17,-128.2 69.49,-103.05 68.94,-85.76"/>
<polygon fill="midnightblue" stroke="midnightblue" points="72.44,-85.72 68.94,-75.72 65.44,-85.72 72.44,-85.72"/>
</g>
<!-- Node17&#45;&gt;Node13 -->
<g id="edge24" class="edge">
<title>Node17&#45;&gt;Node13</title>
<path fill="none" stroke="midnightblue" d="M312.97,-179.48C328.18,-169.84 353.19,-154.02 371.3,-142.55"/>
<polygon fill="midnightblue" stroke="midnightblue" points="373.48,-145.31 380.06,-137.01 369.74,-139.4 373.48,-145.31"/>
</g>
<!-- Node17&#45;&gt;Node14 -->
<g id="edge26" class="edge">
<title>Node17&#45;&gt;Node14</title>
<path fill="none" stroke="midnightblue" d="M347.34,-185.92C457.02,-180.8 723.85,-166.3 810.5,-143 812.44,-142.48 814.4,-141.84 816.35,-141.13"/>
<polygon fill="midnightblue" stroke="midnightblue" points="817.97,-144.25 825.81,-137.13 815.24,-137.8 817.97,-144.25"/>
</g>
<!-- Node17&#45;&gt;Node15 -->
<g id="edge21" class="edge">
<title>Node17&#45;&gt;Node15</title>
<path fill="none" stroke="midnightblue" d="M280.3,-179.48C257.71,-169.45 220,-152.7 194,-141.15"/>
<polygon fill="midnightblue" stroke="midnightblue" points="195.22,-137.87 184.66,-137.01 192.38,-144.27 195.22,-137.87"/>
</g>
<!-- Node17&#45;&gt;Node16 -->
<g id="edge25" class="edge">
<title>Node17&#45;&gt;Node16</title>
<path fill="none" stroke="midnightblue" d="M293.9,-179.32C284.7,-163.88 269,-131.43 285.5,-112 315.68,-76.46 441.2,-84.14 503.77,-75.76"/>
<polygon fill="midnightblue" stroke="midnightblue" points="504.65,-79.16 513.97,-74.13 503.55,-72.25 504.65,-79.16"/>
</g>
<!-- Node18&#45;&gt;Node2 -->
<g id="edge28" class="edge">
<title>Node18&#45;&gt;Node2</title>
<path fill="none" stroke="midnightblue" d="M1031.57,-238.17C947.25,-228.7 780.08,-209.94 681.13,-198.83"/>
<polygon fill="midnightblue" stroke="midnightblue" points="681.51,-195.35 671.18,-197.71 680.73,-202.3 681.51,-195.35"/>
</g>
<!-- Node18&#45;&gt;Node4 -->
<g id="edge29" class="edge">
<title>Node18&#45;&gt;Node4</title>
<path fill="none" stroke="midnightblue" d="M1135.34,-241.22C1229.68,-235.62 1421.58,-221.58 1441.5,-199 1447.38,-192.33 1447.01,-185.97 1441.5,-179 1398.44,-124.55 1348.34,-179.85 1289.5,-143 1266.12,-128.36 1247.5,-101.81 1236.98,-84.29"/>
<polygon fill="midnightblue" stroke="midnightblue" points="1240.01,-82.54 1231.99,-75.62 1233.95,-86.03 1240.01,-82.54"/>
</g>
<!-- Node18&#45;&gt;Node12 -->
<g id="edge31" class="edge">
<title>Node18&#45;&gt;Node12</title>
<path fill="none" stroke="midnightblue" d="M1031.86,-242.99C873.32,-239.61 395.16,-227.29 242.5,-199 163.04,-184.27 117.04,-208.36 69.5,-143 57.52,-126.53 59.99,-102.29 63.84,-85.63"/>
<polygon fill="midnightblue" stroke="midnightblue" points="67.34,-86.07 66.56,-75.51 60.58,-84.25 67.34,-86.07"/>
</g>
<!-- Node19 -->
<g id="node19" class="node">
<title>Node19</title>
<g id="a_node19"><a xlink:href="task__base_8hpp.html" target="_top" xlink:title=" ">
<polygon fill="white" stroke="black" points="1345,-179.5 1345,-198.5 1432,-198.5 1432,-179.5 1345,-179.5"/>
<text text-anchor="middle" x="1388.5" y="-186.5" font-family="Helvetica,sans-Serif" font-size="10.00">task_base.hpp</text>
</a>
</g>
</g>
<!-- Node18&#45;&gt;Node19 -->
<g id="edge30" class="edge">
<title>Node18&#45;&gt;Node19</title>
<path fill="none" stroke="midnightblue" d="M1131.83,-235.44C1187.13,-225.65 1277.44,-209.66 1334.87,-199.49"/>
<polygon fill="midnightblue" stroke="midnightblue" points="1335.61,-202.92 1344.85,-197.73 1334.39,-196.03 1335.61,-202.92"/>
</g>
<!-- Node20 -->
<g id="node20" class="node">
<title>Node20</title>
<g id="a_node20"><a xlink:title=" ">
<polygon fill="white" stroke="#bfbfbf" points="851.5,-179.5 851.5,-198.5 1013.5,-198.5 1013.5,-179.5 851.5,-179.5"/>
<text text-anchor="middle" x="932.5" y="-186.5" font-family="Helvetica,sans-Serif" font-size="10.00">thread/condition_variable.hpp</text>
</a>
</g>
</g>
<!-- Node18&#45;&gt;Node20 -->
<g id="edge32" class="edge">
<title>Node18&#45;&gt;Node20</title>
<path fill="none" stroke="midnightblue" d="M1059.57,-235.44C1034.28,-226.4 994.2,-212.06 965.82,-201.92"/>
<polygon fill="midnightblue" stroke="midnightblue" points="966.91,-198.59 956.31,-198.52 964.55,-205.18 966.91,-198.59"/>
</g>
<!-- Node21 -->
<g id="node21" class="node">
<title>Node21</title>
<g id="a_node21"><a xlink:title=" ">
<polygon fill="white" stroke="#bfbfbf" points="1031.5,-179.5 1031.5,-198.5 1135.5,-198.5 1135.5,-179.5 1031.5,-179.5"/>
<text text-anchor="middle" x="1083.5" y="-186.5" font-family="Helvetica,sans-Serif" font-size="10.00">thread/mutex.hpp</text>
</a>
</g>
</g>
<!-- Node18&#45;&gt;Node21 -->
<g id="edge33" class="edge">
<title>Node18&#45;&gt;Node21</title>
<path fill="none" stroke="midnightblue" d="M1083.5,-235.08C1083.5,-228.01 1083.5,-217.86 1083.5,-208.99"/>
<polygon fill="midnightblue" stroke="midnightblue" points="1087,-208.75 1083.5,-198.75 1080,-208.75 1087,-208.75"/>
</g>
<!-- Node22 -->
<g id="node22" class="node">
<title>Node22</title>
<g id="a_node22"><a xlink:title=" ">
<polygon fill="white" stroke="#bfbfbf" points="1153.5,-179.5 1153.5,-198.5 1257.5,-198.5 1257.5,-179.5 1153.5,-179.5"/>
<text text-anchor="middle" x="1205.5" y="-186.5" font-family="Helvetica,sans-Serif" font-size="10.00">thread/thread.hpp</text>
</a>
</g>
</g>
<!-- Node18&#45;&gt;Node22 -->
<g id="edge34" class="edge">
<title>Node18&#45;&gt;Node22</title>
<path fill="none" stroke="midnightblue" d="M1102.83,-235.44C1122.82,-226.6 1154.24,-212.69 1177.06,-202.59"/>
<polygon fill="midnightblue" stroke="midnightblue" points="1178.53,-205.76 1186.26,-198.52 1175.7,-199.36 1178.53,-205.76"/>
</g>
<!-- Node23 -->
<g id="node23" class="node">
<title>Node23</title>
<g id="a_node23"><a xlink:title=" ">
<polygon fill="white" stroke="#bfbfbf" points="1276,-179.5 1276,-198.5 1327,-198.5 1327,-179.5 1276,-179.5"/>
<text text-anchor="middle" x="1301.5" y="-186.5" font-family="Helvetica,sans-Serif" font-size="10.00">csignal</text>
</a>
</g>
</g>
<!-- Node18&#45;&gt;Node23 -->
<g id="edge35" class="edge">
<title>Node18&#45;&gt;Node23</title>
<path fill="none" stroke="midnightblue" d="M1118.61,-235.48C1153.45,-227 1208.65,-213.51 1265.93,-199.12"/>
<polygon fill="midnightblue" stroke="midnightblue" points="1267.05,-202.45 1275.89,-196.62 1265.34,-195.66 1267.05,-202.45"/>
</g>
<!-- Node24&#45;&gt;Node4 -->
<g id="edge37" class="edge">
<title>Node24&#45;&gt;Node4</title>
<path fill="none" stroke="midnightblue" d="M833.71,-180.49C836.67,-179.95 839.64,-179.44 842.5,-179 923.28,-166.61 1146.63,-196.39 1208.5,-143 1224.72,-129.01 1228.17,-103.46 1228.43,-85.88"/>
<polygon fill="midnightblue" stroke="midnightblue" points="1231.92,-85.61 1228.24,-75.68 1224.93,-85.74 1231.92,-85.61"/>
</g>
<!-- Node24&#45;&gt;Node9 -->
<g id="edge44" class="edge">
<title>Node24&#45;&gt;Node9</title>
<path fill="none" stroke="midnightblue" d="M825.71,-179.41C842.35,-172.44 862.56,-160.81 872.5,-143 879.22,-130.97 881.76,-122.21 872.5,-112 819.24,-53.28 601.5,-87.65 505.75,-75.72"/>
<polygon fill="midnightblue" stroke="midnightblue" points="506.19,-72.24 495.78,-74.22 505.15,-79.17 506.19,-72.24"/>
</g>
<!-- Node24&#45;&gt;Node14 -->
<g id="edge43" class="edge">
<title>Node24&#45;&gt;Node14</title>
<path fill="none" stroke="midnightblue" d="M805.52,-179.48C811.76,-170.64 821.67,-156.59 829.52,-145.48"/>
<polygon fill="midnightblue" stroke="midnightblue" points="832.59,-147.2 835.49,-137.01 826.87,-143.16 832.59,-147.2"/>
</g>
<!-- Node25 -->
<g id="node25" class="node">
<title>Node25</title>
<g id="a_node25"><a xlink:title=" ">
<polygon fill="white" stroke="#bfbfbf" points="997.5,-118 997.5,-137 1065.5,-137 1065.5,-118 997.5,-118"/>
<text text-anchor="middle" x="1031.5" y="-125" font-family="Helvetica,sans-Serif" font-size="10.00">sys/time.h</text>
</a>
</g>
</g>
<!-- Node24&#45;&gt;Node25 -->
<g id="edge38" class="edge">
<title>Node24&#45;&gt;Node25</title>
<path fill="none" stroke="midnightblue" d="M833.54,-180.88C871.57,-172.7 934.84,-158.4 988.5,-143 991.51,-142.14 994.62,-141.19 997.72,-140.21"/>
<polygon fill="midnightblue" stroke="midnightblue" points="999.09,-143.45 1007.52,-137.02 996.92,-136.79 999.09,-143.45"/>
</g>
<!-- Node26 -->
<g id="node26" class="node">
<title>Node26</title>
<g id="a_node26"><a xlink:title=" ">
<polygon fill="white" stroke="#bfbfbf" points="1084,-118 1084,-137 1137,-137 1137,-118 1084,-118"/>
<text text-anchor="middle" x="1110.5" y="-125" font-family="Helvetica,sans-Serif" font-size="10.00">cstdarg</text>
</a>
</g>
</g>
<!-- Node24&#45;&gt;Node26 -->
<g id="edge39" class="edge">
<title>Node24&#45;&gt;Node26</title>
<path fill="none" stroke="midnightblue" d="M833.74,-180.67C836.7,-180.08 839.65,-179.52 842.5,-179 945.16,-160.31 973.89,-170.67 1074.5,-143 1077,-142.31 1079.56,-141.5 1082.11,-140.62"/>
<polygon fill="midnightblue" stroke="midnightblue" points="1083.6,-143.81 1091.72,-137.01 1081.13,-137.26 1083.6,-143.81"/>
</g>
<!-- Node27 -->
<g id="node27" class="node">
<title>Node27</title>
<g id="a_node27"><a xlink:title=" ">
<polygon fill="white" stroke="#bfbfbf" points="1155.5,-118 1155.5,-137 1199.5,-137 1199.5,-118 1155.5,-118"/>
<text text-anchor="middle" x="1177.5" y="-125" font-family="Helvetica,sans-Serif" font-size="10.00">ctime</text>
</a>
</g>
</g>
<!-- Node24&#45;&gt;Node27 -->
<g id="edge40" class="edge">
<title>Node24&#45;&gt;Node27</title>
<path fill="none" stroke="midnightblue" d="M833.72,-180.55C836.68,-179.99 839.64,-179.47 842.5,-179 976.77,-157.04 1015.66,-180.3 1146.5,-143 1148.43,-142.45 1150.39,-141.79 1152.33,-141.07"/>
<polygon fill="midnightblue" stroke="midnightblue" points="1153.96,-144.18 1161.79,-137.03 1151.22,-137.74 1153.96,-144.18"/>
</g>
<!-- Node28 -->
<g id="node28" class="node">
<title>Node28</title>
<g id="a_node28"><a xlink:title=" ">
<polygon fill="white" stroke="#bfbfbf" points="919.5,-118 919.5,-137 979.5,-137 979.5,-118 919.5,-118"/>
<text text-anchor="middle" x="949.5" y="-125" font-family="Helvetica,sans-Serif" font-size="10.00">iostream</text>
</a>
</g>
</g>
<!-- Node24&#45;&gt;Node28 -->
<g id="edge41" class="edge">
<title>Node24&#45;&gt;Node28</title>
<path fill="none" stroke="midnightblue" d="M820.99,-179.48C846.61,-169.31 889.61,-152.26 918.74,-140.7"/>
<polygon fill="midnightblue" stroke="midnightblue" points="920.04,-143.95 928.05,-137.01 917.46,-137.44 920.04,-143.95"/>
</g>
<!-- Node24&#45;&gt;Node29 -->
<g id="edge42" class="edge">
<title>Node24&#45;&gt;Node29</title>
<path fill="none" stroke="midnightblue" d="M833.7,-180.47C836.67,-179.93 839.63,-179.43 842.5,-179 1018.6,-152.72 1064.45,-161.86 1241.5,-143 1268.2,-140.16 1298.23,-136.46 1321.31,-133.51"/>
<polygon fill="midnightblue" stroke="midnightblue" points="1321.92,-136.96 1331.4,-132.21 1321.03,-130.02 1321.92,-136.96"/>
</g>
<!-- Node30&#45;&gt;Node4 -->
<g id="edge52" class="edge">
<title>Node30&#45;&gt;Node4</title>
<path fill="none" stroke="midnightblue" d="M1601.72,-184.54C1556.72,-179.8 1488.36,-168.71 1434.5,-143 1414.83,-133.61 1415.91,-121.92 1396.5,-112 1360.97,-93.85 1317.39,-82.48 1283.38,-75.7"/>
<polygon fill="midnightblue" stroke="midnightblue" points="1283.63,-72.19 1273.15,-73.75 1282.32,-79.06 1283.63,-72.19"/>
</g>
<!-- Node30&#45;&gt;Node10 -->
<g id="edge60" class="edge">
<title>Node30&#45;&gt;Node10</title>
<path fill="none" stroke="midnightblue" d="M1697.21,-180.95C1702.04,-180.28 1706.86,-179.62 1711.5,-179 1777.84,-170.19 1966.1,-193.07 2010.5,-143 2025.71,-125.85 2009.38,-100.43 1995.01,-83.79"/>
<polygon fill="midnightblue" stroke="midnightblue" points="1997.19,-80.98 1987.85,-75.98 1992.03,-85.71 1997.19,-80.98"/>
</g>
<!-- Node30&#45;&gt;Node14 -->
<g id="edge63" class="edge">
<title>Node30&#45;&gt;Node14</title>
<path fill="none" stroke="midnightblue" d="M1601.98,-186.02C1460.76,-179.98 1045.05,-161.13 910.5,-143 898.43,-141.37 885.31,-138.82 873.79,-136.31"/>
<polygon fill="midnightblue" stroke="midnightblue" points="874.26,-132.82 863.73,-134.04 872.71,-139.65 874.26,-132.82"/>
</g>
<!-- Node30&#45;&gt;Node29 -->
<g id="edge61" class="edge">
<title>Node30&#45;&gt;Node29</title>
<path fill="none" stroke="midnightblue" d="M1601.95,-181.58C1551.68,-174.28 1470.29,-161 1401.5,-143 1398.46,-142.21 1395.33,-141.3 1392.21,-140.33"/>
<polygon fill="midnightblue" stroke="midnightblue" points="1393.01,-136.91 1382.41,-137.12 1390.82,-143.56 1393.01,-136.91"/>
</g>
<!-- Node31 -->
<g id="node31" class="node">
<title>Node31</title>
<g id="a_node31"><a xlink:href="serv__exception_8hpp.html" target="_top" xlink:title=" ">
<polygon fill="white" stroke="black" points="1889.5,-118 1889.5,-137 2001.5,-137 2001.5,-118 1889.5,-118"/>
<text text-anchor="middle" x="1945.5" y="-125" font-family="Helvetica,sans-Serif" font-size="10.00">serv_exception.hpp</text>
</a>
</g>
</g>
<!-- Node30&#45;&gt;Node31 -->
<g id="edge47" class="edge">
<title>Node30&#45;&gt;Node31</title>
<path fill="none" stroke="midnightblue" d="M1695.16,-179.48C1741.81,-170.69 1816.31,-156.41 1880.5,-143 1886.23,-141.8 1892.23,-140.51 1898.18,-139.21"/>
<polygon fill="midnightblue" stroke="midnightblue" points="1899.06,-142.6 1908.07,-137.03 1897.55,-135.77 1899.06,-142.6"/>
</g>
<!-- Node33 -->
<g id="node33" class="node">
<title>Node33</title>
<g id="a_node33"><a xlink:title=" ">
<polygon fill="white" stroke="#bfbfbf" points="2058,-118 2058,-137 2105,-137 2105,-118 2058,-118"/>
<text text-anchor="middle" x="2081.5" y="-125" font-family="Helvetica,sans-Serif" font-size="10.00">fcntl.h</text>
</a>
</g>
</g>
<!-- Node30&#45;&gt;Node33 -->
<g id="edge53" class="edge">
<title>Node30&#45;&gt;Node33</title>
<path fill="none" stroke="midnightblue" d="M1697.2,-180.9C1702.03,-180.23 1706.86,-179.59 1711.5,-179 1858.74,-160.34 1899.2,-177.74 2043.5,-143 2046.49,-142.28 2049.57,-141.38 2052.61,-140.39"/>
<polygon fill="midnightblue" stroke="midnightblue" points="2053.84,-143.67 2062.08,-137.01 2051.49,-137.08 2053.84,-143.67"/>
</g>
<!-- Node34 -->
<g id="node34" class="node">
<title>Node34</title>
<g id="a_node34"><a xlink:title=" ">
<polygon fill="white" stroke="#bfbfbf" points="2123,-118 2123,-137 2176,-137 2176,-118 2123,-118"/>
<text text-anchor="middle" x="2149.5" y="-125" font-family="Helvetica,sans-Serif" font-size="10.00">netdb.h</text>
</a>
</g>
</g>
<!-- Node30&#45;&gt;Node34 -->
<g id="edge54" class="edge">
<title>Node30&#45;&gt;Node34</title>
<path fill="none" stroke="midnightblue" d="M1697.19,-180.81C1702.02,-180.16 1706.85,-179.54 1711.5,-179 1890.1,-158.08 1939.87,-185.91 2114.5,-143 2117.01,-142.38 2119.58,-141.61 2122.13,-140.75"/>
<polygon fill="midnightblue" stroke="midnightblue" points="2123.59,-143.94 2131.69,-137.1 2121.1,-137.4 2123.59,-143.94"/>
</g>
<!-- Node35 -->
<g id="node35" class="node">
<title>Node35</title>
<g id="a_node35"><a xlink:title=" ">
<polygon fill="white" stroke="#bfbfbf" points="1443.5,-118 1443.5,-137 1515.5,-137 1515.5,-118 1443.5,-118"/>
<text text-anchor="middle" x="1479.5" y="-125" font-family="Helvetica,sans-Serif" font-size="10.00">netinet/in.h</text>
</a>
</g>
</g>
<!-- Node30&#45;&gt;Node35 -->
<g id="edge55" class="edge">
<title>Node30&#45;&gt;Node35</title>
<path fill="none" stroke="midnightblue" d="M1625.14,-179.48C1595.86,-169.22 1546.53,-151.96 1513.5,-140.4"/>
<polygon fill="midnightblue" stroke="midnightblue" points="1514.41,-137.01 1503.81,-137.01 1512.09,-143.62 1514.41,-137.01"/>
</g>
<!-- Node36 -->
<g id="node36" class="node">
<title>Node36</title>
<g id="a_node36"><a xlink:title=" ">
<polygon fill="white" stroke="#bfbfbf" points="1533.5,-118 1533.5,-137 1611.5,-137 1611.5,-118 1533.5,-118"/>
<text text-anchor="middle" x="1572.5" y="-125" font-family="Helvetica,sans-Serif" font-size="10.00">netinet/tcp.h</text>
</a>
</g>
</g>
<!-- Node30&#45;&gt;Node36 -->
<g id="edge56" class="edge">
<title>Node30&#45;&gt;Node36</title>
<path fill="none" stroke="midnightblue" d="M1638.47,-179.48C1626.23,-170.02 1606.27,-154.6 1591.51,-143.19"/>
<polygon fill="midnightblue" stroke="midnightblue" points="1593.56,-140.35 1583.51,-137.01 1589.28,-145.89 1593.56,-140.35"/>
</g>
<!-- Node37 -->
<g id="node37" class="node">
<title>Node37</title>
<g id="a_node37"><a xlink:title=" ">
<polygon fill="white" stroke="#bfbfbf" points="1630,-118 1630,-137 1707,-137 1707,-118 1630,-118"/>
<text text-anchor="middle" x="1668.5" y="-125" font-family="Helvetica,sans-Serif" font-size="10.00">sys/socket.h</text>
</a>
</g>
</g>
<!-- Node30&#45;&gt;Node37 -->
<g id="edge57" class="edge">
<title>Node30&#45;&gt;Node37</title>
<path fill="none" stroke="midnightblue" d="M1652.22,-179.48C1654.93,-170.99 1659.17,-157.7 1662.65,-146.82"/>
<polygon fill="midnightblue" stroke="midnightblue" points="1666.07,-147.6 1665.78,-137.01 1659.41,-145.47 1666.07,-147.6"/>
</g>
<!-- Node38 -->
<g id="node38" class="node">
<title>Node38</title>
<g id="a_node38"><a xlink:title=" ">
<polygon fill="white" stroke="#bfbfbf" points="1725.5,-118 1725.5,-137 1797.5,-137 1797.5,-118 1725.5,-118"/>
<text text-anchor="middle" x="1761.5" y="-125" font-family="Helvetica,sans-Serif" font-size="10.00">sys/types.h</text>
</a>
</g>
</g>
<!-- Node30&#45;&gt;Node38 -->
<g id="edge58" class="edge">
<title>Node30&#45;&gt;Node38</title>
<path fill="none" stroke="midnightblue" d="M1665.55,-179.48C1684.09,-169.62 1714.84,-153.29 1736.52,-141.77"/>
<polygon fill="midnightblue" stroke="midnightblue" points="1738.29,-144.79 1745.48,-137.01 1735.01,-138.61 1738.29,-144.79"/>
</g>
<!-- Node39 -->
<g id="node39" class="node">
<title>Node39</title>
<g id="a_node39"><a xlink:title=" ">
<polygon fill="white" stroke="#bfbfbf" points="1815.5,-118 1815.5,-137 1871.5,-137 1871.5,-118 1815.5,-118"/>
<text text-anchor="middle" x="1843.5" y="-125" font-family="Helvetica,sans-Serif" font-size="10.00">unistd.h</text>
</a>
</g>
</g>
<!-- Node30&#45;&gt;Node39 -->
<g id="edge59" class="edge">
<title>Node30&#45;&gt;Node39</title>
<path fill="none" stroke="midnightblue" d="M1682.56,-179.5C1714.52,-171.05 1764.2,-157.32 1806.5,-143 1808.62,-142.28 1810.8,-141.51 1812.99,-140.71"/>
<polygon fill="midnightblue" stroke="midnightblue" points="1814.38,-143.93 1822.49,-137.13 1811.9,-137.39 1814.38,-143.93"/>
</g>
<!-- Node30&#45;&gt;Node40 -->
<g id="edge62" class="edge">
<title>Node30&#45;&gt;Node40</title>
<path fill="none" stroke="midnightblue" d="M1697.19,-180.74C1702.01,-180.11 1706.85,-179.51 1711.5,-179 1921.5,-155.81 1978.77,-186.6 2185.5,-143 2188.93,-142.28 2192.46,-141.34 2195.95,-140.29"/>
<polygon fill="midnightblue" stroke="midnightblue" points="2197.13,-143.58 2205.53,-137.11 2194.93,-136.94 2197.13,-143.58"/>
</g>
<!-- Node31&#45;&gt;Node4 -->
<g id="edge48" class="edge">
<title>Node31&#45;&gt;Node4</title>
<path fill="none" stroke="midnightblue" d="M1911.61,-117.93C1901.64,-115.68 1890.68,-113.48 1880.5,-112 1661.03,-80.14 1396.69,-70.71 1283.43,-68.02"/>
<polygon fill="midnightblue" stroke="midnightblue" points="1283.35,-64.52 1273.27,-67.79 1283.19,-71.51 1283.35,-64.52"/>
</g>
<!-- Node31&#45;&gt;Node10 -->
<g id="edge50" class="edge">
<title>Node31&#45;&gt;Node10</title>
<path fill="none" stroke="midnightblue" d="M1950.23,-117.98C1955.08,-109.23 1962.77,-95.37 1968.9,-84.31"/>
<polygon fill="midnightblue" stroke="midnightblue" points="1971.99,-85.95 1973.78,-75.51 1965.87,-82.56 1971.99,-85.95"/>
</g>
<!-- Node31&#45;&gt;Node16 -->
<g id="edge51" class="edge">
<title>Node31&#45;&gt;Node16</title>
<path fill="none" stroke="midnightblue" d="M1912.64,-117.93C1902.41,-115.59 1891.05,-113.34 1880.5,-112 1621.92,-79.09 787.57,-69.27 589.14,-67.37"/>
<polygon fill="midnightblue" stroke="midnightblue" points="589.14,-63.87 579.1,-67.28 589.07,-70.87 589.14,-63.87"/>
</g>
<!-- Node32 -->
<g id="node32" class="node">
<title>Node32</title>
<g id="a_node32"><a xlink:title=" ">
<polygon fill="white" stroke="#bfbfbf" points="1888,-56.5 1888,-75.5 1935,-75.5 1935,-56.5 1888,-56.5"/>
<text text-anchor="middle" x="1911.5" y="-63.5" font-family="Helvetica,sans-Serif" font-size="10.00">cerrno</text>
</a>
</g>
</g>
<!-- Node31&#45;&gt;Node32 -->
<g id="edge49" class="edge">
<title>Node31&#45;&gt;Node32</title>
<path fill="none" stroke="midnightblue" d="M1940.63,-117.98C1935.63,-109.23 1927.71,-95.37 1921.39,-84.31"/>
<polygon fill="midnightblue" stroke="midnightblue" points="1924.36,-82.46 1916.36,-75.51 1918.28,-85.93 1924.36,-82.46"/>
</g>
</g>
</svg>
