<?xml version="1.0" encoding="UTF-8" standalone="no"?>
<!DOCTYPE svg PUBLIC "-//W3C//DTD SVG 1.1//EN"
 "http://www.w3.org/Graphics/SVG/1.1/DTD/svg11.dtd">
<!-- Generated by graphviz version 2.43.0 (0)
 -->
<!-- Title: includes/libserv/event_worker.epoll.cpp Pages: 1 -->
<!--zoomable 330 -->
<svg id="main" version="1.1" xmlns="http://www.w3.org/2000/svg" xmlns:xlink="http://www.w3.org/1999/xlink" xml:space="preserve" onload="init(evt)">
<style type="text/css"><![CDATA[
.edge:hover path { stroke: red; }
.edge:hover polygon { stroke: red; fill: red; }
]]></style>
<script type="text/javascript"><![CDATA[
var edges = document.getElementsByTagName('g');
if (edges && edges.length) {
  for (var i=0;i<edges.length;i++) {
    if (edges[i].id.substr(0,4)=='edge') {
      edges[i].setAttribute('class','edge');
    }
  }
}
]]></script>
        <defs>
                <circle id="rim" cx="0" cy="0" r="7"/>
                <circle id="rim2" cx="0" cy="0" r="3.5"/>
                <g id="zoomPlus">
                        <use xlink:href="#rim" fill="#404040">
                                <set attributeName="fill" to="#808080" begin="zoomplus.mouseover" end="zoomplus.mouseout"/>
                        </use>
                        <path d="M-4,0h8M0,-4v8" fill="none" stroke="white" stroke-width="1.5" pointer-events="none"/>
                </g>
                <g id="zoomMin">
                        <use xlink:href="#rim" fill="#404040">
                                <set attributeName="fill" to="#808080" begin="zoomminus.mouseover" end="zoomminus.mouseout"/>
                        </use>
                        <path d="M-4,0h8" fill="none" stroke="white" stroke-width="1.5" pointer-events="none"/>
                </g>
                <g id="dirArrow">
                        <path fill="none" stroke="white" stroke-width="1.5" d="M0,-3.0v7 M-2.5,-0.5L0,-3.0L2.5,-0.5"/>
                </g>
               <g id="resetDef">
                       <use xlink:href="#rim2" fill="#404040">
                               <set attributeName="fill" to="#808080" begin="reset.mouseover" end="reset.mouseout"/>
                       </use>
               </g>
        </defs>

<script type="text/javascript">
var viewWidth = 1832;
var viewHeight = 330;
var sectionId = 'dynsection-0';
</script>
<script xlink:href="svgpan.js"/>
<svg id="graph" class="graph">
<g id="viewport">
<title>includes/libserv/event_worker.epoll.cpp</title>
<polygon fill="white" stroke="transparent" points="-4,4 -4,-326 1828,-326 1828,4 -4,4"/>
<!-- Node1 -->
<g id="node1" class="node">
<title>Node1</title>
<g id="a_node1"><a xlink:title=" ">
<polygon fill="#bfbfbf" stroke="black" points="1030,-291.5 1030,-321.5 1154,-321.5 1154,-291.5 1030,-291.5"/>
<text text-anchor="start" x="1038" y="-309.5" font-family="Helvetica,sans-Serif" font-size="10.00">includes/libserv/event</text>
<text text-anchor="middle" x="1092" y="-298.5" font-family="Helvetica,sans-Serif" font-size="10.00">_worker.epoll.cpp</text>
</a>
</g>
</g>
<!-- Node2 -->
<g id="node2" class="node">
<title>Node2</title>
<g id="a_node2"><a xlink:href="event__worker_8hpp.html" target="_top" xlink:title=" ">
<polygon fill="white" stroke="black" points="1080.5,-235.5 1080.5,-254.5 1183.5,-254.5 1183.5,-235.5 1080.5,-235.5"/>
<text text-anchor="middle" x="1132" y="-242.5" font-family="Helvetica,sans-Serif" font-size="10.00">event_worker.hpp</text>
</a>
</g>
</g>
<!-- Node1&#45;&gt;Node2 -->
<g id="edge1" class="edge">
<title>Node1&#45;&gt;Node2</title>
<path fill="none" stroke="midnightblue" d="M1101.48,-291.4C1107.17,-282.93 1114.45,-272.1 1120.48,-263.14"/>
<polygon fill="midnightblue" stroke="midnightblue" points="1123.51,-264.91 1126.18,-254.66 1117.7,-261 1123.51,-264.91"/>
</g>
<!-- Node3 -->
<g id="node3" class="node">
<title>Node3</title>
<g id="a_node3"><a xlink:href="event__channel__base_8hpp.html" target="_top" xlink:title=" ">
<polygon fill="white" stroke="black" points="826.5,-179.5 826.5,-198.5 963.5,-198.5 963.5,-179.5 826.5,-179.5"/>
<text text-anchor="middle" x="895" y="-186.5" font-family="Helvetica,sans-Serif" font-size="10.00">event_channel_base.hpp</text>
</a>
</g>
</g>
<!-- Node1&#45;&gt;Node3 -->
<g id="edge23" class="edge">
<title>Node1&#45;&gt;Node3</title>
<path fill="none" stroke="midnightblue" d="M1065.62,-291.49C1047.12,-281.55 1021.88,-267.76 1000,-255 970.96,-238.06 938.11,-217.49 917,-204.09"/>
<polygon fill="midnightblue" stroke="midnightblue" points="918.77,-201.06 908.45,-198.64 915.01,-206.97 918.77,-201.06"/>
</g>
<!-- Node5 -->
<g id="node5" class="node">
<title>Node5</title>
<g id="a_node5"><a xlink:href="serv__types_8hpp.html" target="_top" xlink:title=" ">
<polygon fill="white" stroke="black" points="602.5,-56.5 602.5,-75.5 693.5,-75.5 693.5,-56.5 602.5,-56.5"/>
<text text-anchor="middle" x="648" y="-63.5" font-family="Helvetica,sans-Serif" font-size="10.00">serv_types.hpp</text>
</a>
</g>
</g>
<!-- Node1&#45;&gt;Node5 -->
<g id="edge36" class="edge">
<title>Node1&#45;&gt;Node5</title>
<path fill="none" stroke="midnightblue" d="M1082.12,-291.38C1073.28,-276.9 1062.88,-253.89 1071,-235 1098.49,-171.04 1215.06,-163.31 1168,-112 1137.13,-78.35 832.45,-69.79 704.31,-67.67"/>
<polygon fill="midnightblue" stroke="midnightblue" points="703.99,-64.17 693.94,-67.51 703.88,-71.17 703.99,-64.17"/>
</g>
<!-- Node7 -->
<g id="node7" class="node">
<title>Node7</title>
<g id="a_node7"><a xlink:title=" ">
<polygon fill="white" stroke="#bfbfbf" points="126,-0.5 126,-19.5 164,-19.5 164,-0.5 126,-0.5"/>
<text text-anchor="middle" x="145" y="-7.5" font-family="Helvetica,sans-Serif" font-size="10.00">map</text>
</a>
</g>
</g>
<!-- Node1&#45;&gt;Node7 -->
<g id="edge49" class="edge">
<title>Node1&#45;&gt;Node7</title>
<path fill="none" stroke="midnightblue" d="M1029.66,-304.08C826.98,-299.21 194.76,-282.01 107,-255 53.82,-238.63 0,-245.64 0,-190 0,-190 0,-190 0,-126.5 0,-67.78 73.66,-34.09 115.98,-19.58"/>
<polygon fill="midnightblue" stroke="midnightblue" points="117.33,-22.82 125.75,-16.38 115.15,-16.17 117.33,-22.82"/>
</g>
<!-- Node9 -->
<g id="node9" class="node">
<title>Node9</title>
<g id="a_node9"><a xlink:title=" ">
<polygon fill="white" stroke="#bfbfbf" points="414.5,-0.5 414.5,-19.5 461.5,-19.5 461.5,-0.5 414.5,-0.5"/>
<text text-anchor="middle" x="438" y="-7.5" font-family="Helvetica,sans-Serif" font-size="10.00">vector</text>
</a>
</g>
</g>
<!-- Node1&#45;&gt;Node9 -->
<g id="edge51" class="edge">
<title>Node1&#45;&gt;Node9</title>
<path fill="none" stroke="midnightblue" d="M1029.61,-305.26C803.19,-303.55 38,-290.38 38,-190 38,-190 38,-190 38,-126.5 38,-50.47 308.1,-21.4 404.4,-13.45"/>
<polygon fill="midnightblue" stroke="midnightblue" points="404.78,-16.94 414.47,-12.65 404.22,-9.96 404.78,-16.94"/>
</g>
<!-- Node10 -->
<g id="node10" class="node">
<title>Node10</title>
<g id="a_node10"><a xlink:title=" ">
<polygon fill="white" stroke="#bfbfbf" points="436,-56.5 436,-75.5 488,-75.5 488,-56.5 436,-56.5"/>
<text text-anchor="middle" x="462" y="-63.5" font-family="Helvetica,sans-Serif" font-size="10.00">cassert</text>
</a>
</g>
</g>
<!-- Node1&#45;&gt;Node10 -->
<g id="edge47" class="edge">
<title>Node1&#45;&gt;Node10</title>
<path fill="none" stroke="midnightblue" d="M1029.77,-305.26C911.34,-303.85 658.64,-295.97 583,-255 514.99,-218.16 479.54,-124.77 467.17,-85.18"/>
<polygon fill="midnightblue" stroke="midnightblue" points="470.51,-84.11 464.29,-75.53 463.8,-86.12 470.51,-84.11"/>
</g>
<!-- Node13 -->
<g id="node13" class="node">
<title>Node13</title>
<g id="a_node13"><a xlink:title=" ">
<polygon fill="white" stroke="#bfbfbf" points="1020.5,-118 1020.5,-137 1159.5,-137 1159.5,-118 1020.5,-118"/>
<text text-anchor="middle" x="1090" y="-125" font-family="Helvetica,sans-Serif" font-size="10.00">smart_ptr/shared_ptr.hpp</text>
</a>
</g>
</g>
<!-- Node1&#45;&gt;Node13 -->
<g id="edge37" class="edge">
<title>Node1&#45;&gt;Node13</title>
<path fill="none" stroke="midnightblue" d="M1069.63,-291.35C1057.83,-282.5 1044.49,-269.95 1038,-255 1024.55,-224.01 1024.85,-210.11 1038,-179 1044.09,-164.59 1056.53,-152.27 1067.71,-143.4"/>
<polygon fill="midnightblue" stroke="midnightblue" points="1069.96,-146.09 1075.89,-137.32 1065.78,-140.48 1069.96,-146.09"/>
</g>
<!-- Node15 -->
<g id="node15" class="node">
<title>Node15</title>
<g id="a_node15"><a xlink:title=" ">
<polygon fill="white" stroke="#bfbfbf" points="390,-118 390,-137 434,-137 434,-118 390,-118"/>
<text text-anchor="middle" x="412" y="-125" font-family="Helvetica,sans-Serif" font-size="10.00">string</text>
</a>
</g>
</g>
<!-- Node1&#45;&gt;Node15 -->
<g id="edge50" class="edge">
<title>Node1&#45;&gt;Node15</title>
<path fill="none" stroke="midnightblue" d="M1029.96,-304.61C877.28,-301.85 492.4,-291.34 448,-255 415.7,-228.56 411.17,-175.37 411.22,-147.12"/>
<polygon fill="midnightblue" stroke="midnightblue" points="414.73,-147.08 411.45,-137 407.73,-146.92 414.73,-147.08"/>
</g>
<!-- Node17 -->
<g id="node17" class="node">
<title>Node17</title>
<g id="a_node17"><a xlink:title=" ">
<polygon fill="white" stroke="#bfbfbf" points="1331,-179.5 1331,-198.5 1493,-198.5 1493,-179.5 1331,-179.5"/>
<text text-anchor="middle" x="1412" y="-186.5" font-family="Helvetica,sans-Serif" font-size="10.00">thread/condition_variable.hpp</text>
</a>
</g>
</g>
<!-- Node1&#45;&gt;Node17 -->
<g id="edge38" class="edge">
<title>Node1&#45;&gt;Node17</title>
<path fill="none" stroke="midnightblue" d="M1120.07,-291.37C1158.57,-272.06 1224.31,-239.3 1236,-235 1276.14,-220.22 1323.14,-208.47 1358.47,-200.69"/>
<polygon fill="midnightblue" stroke="midnightblue" points="1359.54,-204.04 1368.57,-198.5 1358.06,-197.2 1359.54,-204.04"/>
</g>
<!-- Node18 -->
<g id="node18" class="node">
<title>Node18</title>
<g id="a_node18"><a xlink:title=" ">
<polygon fill="white" stroke="#bfbfbf" points="1511,-179.5 1511,-198.5 1615,-198.5 1615,-179.5 1511,-179.5"/>
<text text-anchor="middle" x="1563" y="-186.5" font-family="Helvetica,sans-Serif" font-size="10.00">thread/mutex.hpp</text>
</a>
</g>
</g>
<!-- Node1&#45;&gt;Node18 -->
<g id="edge39" class="edge">
<title>Node1&#45;&gt;Node18</title>
<path fill="none" stroke="midnightblue" d="M1132.13,-291.48C1159.58,-281.71 1196.71,-268.11 1229,-255 1249.28,-246.77 1253,-241.18 1274,-235 1284.79,-231.82 1419.07,-211.49 1500.74,-199.27"/>
<polygon fill="midnightblue" stroke="midnightblue" points="1501.54,-202.69 1510.92,-197.75 1500.51,-195.76 1501.54,-202.69"/>
</g>
<!-- Node19 -->
<g id="node19" class="node">
<title>Node19</title>
<g id="a_node19"><a xlink:title=" ">
<polygon fill="white" stroke="#bfbfbf" points="1633,-179.5 1633,-198.5 1737,-198.5 1737,-179.5 1633,-179.5"/>
<text text-anchor="middle" x="1685" y="-186.5" font-family="Helvetica,sans-Serif" font-size="10.00">thread/thread.hpp</text>
</a>
</g>
</g>
<!-- Node1&#45;&gt;Node19 -->
<g id="edge40" class="edge">
<title>Node1&#45;&gt;Node19</title>
<path fill="none" stroke="midnightblue" d="M1148.02,-291.46C1182.23,-282.31 1226.64,-269.43 1265,-255 1284.73,-247.58 1287.71,-240.71 1308,-235 1440.88,-197.6 1481.92,-216.38 1622.48,-199.13"/>
<polygon fill="midnightblue" stroke="midnightblue" points="1623.29,-202.55 1632.77,-197.82 1622.41,-195.61 1623.29,-202.55"/>
</g>
<!-- Node21 -->
<g id="node21" class="node">
<title>Node21</title>
<g id="a_node21"><a xlink:href="logger_8hpp.html" target="_top" xlink:title=" ">
<polygon fill="white" stroke="black" points="254,-179.5 254,-198.5 322,-198.5 322,-179.5 254,-179.5"/>
<text text-anchor="middle" x="288" y="-186.5" font-family="Helvetica,sans-Serif" font-size="10.00">logger.hpp</text>
</a>
</g>
</g>
<!-- Node1&#45;&gt;Node21 -->
<g id="edge24" class="edge">
<title>Node1&#45;&gt;Node21</title>
<path fill="none" stroke="midnightblue" d="M1029.9,-304.38C883.47,-301.2 520.2,-289.93 404,-255 367.47,-244.02 329.77,-220.13 307.63,-204.58"/>
<polygon fill="midnightblue" stroke="midnightblue" points="309.57,-201.66 299.41,-198.68 305.49,-207.35 309.57,-201.66"/>
</g>
<!-- Node26 -->
<g id="node26" class="node">
<title>Node26</title>
<g id="a_node26"><a xlink:href="serv__exception_8hpp.html" target="_top" xlink:title=" ">
<polygon fill="white" stroke="black" points="592,-235.5 592,-254.5 704,-254.5 704,-235.5 592,-235.5"/>
<text text-anchor="middle" x="648" y="-242.5" font-family="Helvetica,sans-Serif" font-size="10.00">serv_exception.hpp</text>
</a>
</g>
</g>
<!-- Node1&#45;&gt;Node26 -->
<g id="edge31" class="edge">
<title>Node1&#45;&gt;Node26</title>
<path fill="none" stroke="midnightblue" d="M1029.8,-297.16C946.55,-286.01 799.52,-266.3 714.26,-254.88"/>
<polygon fill="midnightblue" stroke="midnightblue" points="714.55,-251.39 704.17,-253.53 713.62,-258.32 714.55,-251.39"/>
</g>
<!-- Node28 -->
<g id="node28" class="node">
<title>Node28</title>
<g id="a_node28"><a xlink:title=" ">
<polygon fill="white" stroke="#bfbfbf" points="699.5,-179.5 699.5,-198.5 764.5,-198.5 764.5,-179.5 699.5,-179.5"/>
<text text-anchor="middle" x="732" y="-186.5" font-family="Helvetica,sans-Serif" font-size="10.00">exception</text>
</a>
</g>
</g>
<!-- Node1&#45;&gt;Node28 -->
<g id="edge48" class="edge">
<title>Node1&#45;&gt;Node28</title>
<path fill="none" stroke="midnightblue" d="M1048.22,-291.45C976.39,-268.41 834.87,-223 768.27,-201.64"/>
<polygon fill="midnightblue" stroke="midnightblue" points="769.22,-198.26 758.63,-198.54 767.08,-204.93 769.22,-198.26"/>
</g>
<!-- Node29 -->
<g id="node29" class="node">
<title>Node29</title>
<g id="a_node29"><a xlink:title=" ">
<polygon fill="white" stroke="#bfbfbf" points="1316.5,-235.5 1316.5,-254.5 1385.5,-254.5 1385.5,-235.5 1316.5,-235.5"/>
<text text-anchor="middle" x="1351" y="-242.5" font-family="Helvetica,sans-Serif" font-size="10.00">sys/epoll.h</text>
</a>
</g>
</g>
<!-- Node1&#45;&gt;Node29 -->
<g id="edge41" class="edge">
<title>Node1&#45;&gt;Node29</title>
<path fill="none" stroke="midnightblue" d="M1153.05,-291.47C1200.03,-280.68 1263.86,-266.02 1306.2,-256.29"/>
<polygon fill="midnightblue" stroke="midnightblue" points="1307.24,-259.64 1316.21,-253.99 1305.68,-252.82 1307.24,-259.64"/>
</g>
<!-- Node30 -->
<g id="node30" class="node">
<title>Node30</title>
<g id="a_node30"><a xlink:title=" ">
<polygon fill="white" stroke="#bfbfbf" points="1403.5,-235.5 1403.5,-254.5 1486.5,-254.5 1486.5,-235.5 1403.5,-235.5"/>
<text text-anchor="middle" x="1445" y="-242.5" font-family="Helvetica,sans-Serif" font-size="10.00">sys/eventfd.h</text>
</a>
</g>
</g>
<!-- Node1&#45;&gt;Node30 -->
<g id="edge42" class="edge">
<title>Node1&#45;&gt;Node30</title>
<path fill="none" stroke="midnightblue" d="M1154.13,-295.39C1213.19,-285.72 1304.8,-270.58 1393.32,-255.28"/>
<polygon fill="midnightblue" stroke="midnightblue" points="1394.01,-258.71 1403.27,-253.55 1392.81,-251.81 1394.01,-258.71"/>
</g>
<!-- Node31 -->
<g id="node31" class="node">
<title>Node31</title>
<g id="a_node31"><a xlink:title=" ">
<polygon fill="white" stroke="#bfbfbf" points="1504.5,-235.5 1504.5,-254.5 1581.5,-254.5 1581.5,-235.5 1504.5,-235.5"/>
<text text-anchor="middle" x="1543" y="-242.5" font-family="Helvetica,sans-Serif" font-size="10.00">sys/socket.h</text>
</a>
</g>
</g>
<!-- Node1&#45;&gt;Node31 -->
<g id="edge43" class="edge">
<title>Node1&#45;&gt;Node31</title>
<path fill="none" stroke="midnightblue" d="M1154.12,-299C1231.49,-290.62 1367.96,-274.92 1494.08,-255.22"/>
<polygon fill="midnightblue" stroke="midnightblue" points="1494.97,-258.63 1504.31,-253.62 1493.88,-251.71 1494.97,-258.63"/>
</g>
<!-- Node32 -->
<g id="node32" class="node">
<title>Node32</title>
<g id="a_node32"><a xlink:title=" ">
<polygon fill="white" stroke="#bfbfbf" points="1600,-235.5 1600,-254.5 1668,-254.5 1668,-235.5 1600,-235.5"/>
<text text-anchor="middle" x="1634" y="-242.5" font-family="Helvetica,sans-Serif" font-size="10.00">sys/time.h</text>
</a>
</g>
</g>
<!-- Node1&#45;&gt;Node32 -->
<g id="edge44" class="edge">
<title>Node1&#45;&gt;Node32</title>
<path fill="none" stroke="midnightblue" d="M1154.11,-301.33C1246.82,-294.64 1427.02,-279.84 1589.6,-255.07"/>
<polygon fill="midnightblue" stroke="midnightblue" points="1590.44,-258.48 1599.79,-253.5 1589.38,-251.56 1590.44,-258.48"/>
</g>
<!-- Node33 -->
<g id="node33" class="node">
<title>Node33</title>
<g id="a_node33"><a xlink:title=" ">
<polygon fill="white" stroke="#bfbfbf" points="1686,-235.5 1686,-254.5 1742,-254.5 1742,-235.5 1686,-235.5"/>
<text text-anchor="middle" x="1714" y="-242.5" font-family="Helvetica,sans-Serif" font-size="10.00">unistd.h</text>
</a>
</g>
</g>
<!-- Node1&#45;&gt;Node33 -->
<g id="edge45" class="edge">
<title>Node1&#45;&gt;Node33</title>
<path fill="none" stroke="midnightblue" d="M1154.29,-303.24C1259.8,-298.74 1480.42,-286.37 1675.65,-254.98"/>
<polygon fill="midnightblue" stroke="midnightblue" points="1676.5,-258.39 1685.81,-253.33 1675.38,-251.48 1676.5,-258.39"/>
</g>
<!-- Node34 -->
<g id="node34" class="node">
<title>Node34</title>
<g id="a_node34"><a xlink:title=" ">
<polygon fill="white" stroke="#bfbfbf" points="1760,-235.5 1760,-254.5 1824,-254.5 1824,-235.5 1760,-235.5"/>
<text text-anchor="middle" x="1792" y="-242.5" font-family="Helvetica,sans-Serif" font-size="10.00">algorithm</text>
</a>
</g>
</g>
<!-- Node1&#45;&gt;Node34 -->
<g id="edge46" class="edge">
<title>Node1&#45;&gt;Node34</title>
<path fill="none" stroke="midnightblue" d="M1154.1,-303.63C1269.62,-299.52 1525.41,-287.47 1749.86,-254.97"/>
<polygon fill="midnightblue" stroke="midnightblue" points="1750.46,-258.41 1759.85,-253.5 1749.45,-251.49 1750.46,-258.41"/>
</g>
<!-- Node2&#45;&gt;Node3 -->
<g id="edge2" class="edge">
<title>Node2&#45;&gt;Node3</title>
<path fill="none" stroke="midnightblue" d="M1094.45,-235.44C1053.19,-226.04 986.86,-210.93 942.13,-200.74"/>
<polygon fill="midnightblue" stroke="midnightblue" points="942.91,-197.33 932.38,-198.52 941.35,-204.15 942.91,-197.33"/>
</g>
<!-- Node2&#45;&gt;Node5 -->
<g id="edge16" class="edge">
<title>Node2&#45;&gt;Node5</title>
<path fill="none" stroke="midnightblue" d="M1132.01,-235.18C1132.45,-221.85 1134.94,-196.29 1147,-179 1163.71,-155.04 1188.11,-168.7 1202,-143 1208.55,-130.88 1211.34,-122.13 1202,-112 1168.69,-75.87 837.65,-68.75 703.76,-67.34"/>
<polygon fill="midnightblue" stroke="midnightblue" points="703.74,-63.84 693.71,-67.25 703.67,-70.84 703.74,-63.84"/>
</g>
<!-- Node2&#45;&gt;Node13 -->
<g id="edge18" class="edge">
<title>Node2&#45;&gt;Node13</title>
<path fill="none" stroke="midnightblue" d="M1128.41,-235.43C1124.68,-226.41 1118.73,-211.78 1114,-199 1107.49,-181.41 1100.66,-161.13 1095.95,-146.84"/>
<polygon fill="midnightblue" stroke="midnightblue" points="1099.24,-145.65 1092.81,-137.23 1092.59,-147.83 1099.24,-145.65"/>
</g>
<!-- Node16 -->
<g id="node16" class="node">
<title>Node16</title>
<g id="a_node16"><a xlink:href="task__base_8hpp.html" target="_top" xlink:title=" ">
<polygon fill="white" stroke="black" points="1156.5,-179.5 1156.5,-198.5 1243.5,-198.5 1243.5,-179.5 1156.5,-179.5"/>
<text text-anchor="middle" x="1200" y="-186.5" font-family="Helvetica,sans-Serif" font-size="10.00">task_base.hpp</text>
</a>
</g>
</g>
<!-- Node2&#45;&gt;Node16 -->
<g id="edge17" class="edge">
<title>Node2&#45;&gt;Node16</title>
<path fill="none" stroke="midnightblue" d="M1142.93,-235.32C1153.17,-227.18 1168.72,-214.84 1181,-205.09"/>
<polygon fill="midnightblue" stroke="midnightblue" points="1183.22,-207.79 1188.88,-198.83 1178.87,-202.31 1183.22,-207.79"/>
</g>
<!-- Node2&#45;&gt;Node17 -->
<g id="edge19" class="edge">
<title>Node2&#45;&gt;Node17</title>
<path fill="none" stroke="midnightblue" d="M1176.37,-235.44C1225.62,-225.94 1305.13,-210.61 1357.97,-200.42"/>
<polygon fill="midnightblue" stroke="midnightblue" points="1358.68,-203.85 1367.84,-198.52 1357.36,-196.97 1358.68,-203.85"/>
</g>
<!-- Node2&#45;&gt;Node18 -->
<g id="edge20" class="edge">
<title>Node2&#45;&gt;Node18</title>
<path fill="none" stroke="midnightblue" d="M1183.53,-238.15C1253.11,-230.16 1381.24,-215.13 1500.71,-199.15"/>
<polygon fill="midnightblue" stroke="midnightblue" points="1501.32,-202.6 1510.77,-197.8 1500.39,-195.66 1501.32,-202.6"/>
</g>
<!-- Node2&#45;&gt;Node19 -->
<g id="edge21" class="edge">
<title>Node2&#45;&gt;Node19</title>
<path fill="none" stroke="midnightblue" d="M1183.81,-240.21C1271.76,-233.57 1456.12,-218.74 1622.36,-199.14"/>
<polygon fill="midnightblue" stroke="midnightblue" points="1623.26,-202.55 1632.78,-197.9 1622.44,-195.6 1623.26,-202.55"/>
</g>
<!-- Node20 -->
<g id="node20" class="node">
<title>Node20</title>
<g id="a_node20"><a xlink:title=" ">
<polygon fill="white" stroke="#bfbfbf" points="1261.5,-179.5 1261.5,-198.5 1312.5,-198.5 1312.5,-179.5 1261.5,-179.5"/>
<text text-anchor="middle" x="1287" y="-186.5" font-family="Helvetica,sans-Serif" font-size="10.00">csignal</text>
</a>
</g>
</g>
<!-- Node2&#45;&gt;Node20 -->
<g id="edge22" class="edge">
<title>Node2&#45;&gt;Node20</title>
<path fill="none" stroke="midnightblue" d="M1156.56,-235.44C1182.52,-226.4 1223.67,-212.06 1252.8,-201.92"/>
<polygon fill="midnightblue" stroke="midnightblue" points="1254.26,-205.11 1262.55,-198.52 1251.96,-198.5 1254.26,-205.11"/>
</g>
<!-- Node4 -->
<g id="node4" class="node">
<title>Node4</title>
<g id="a_node4"><a xlink:href="byte__buffer_8hpp.html" target="_top" xlink:title=" ">
<polygon fill="white" stroke="black" points="528,-118 528,-137 620,-137 620,-118 528,-118"/>
<text text-anchor="middle" x="574" y="-125" font-family="Helvetica,sans-Serif" font-size="10.00">byte_buffer.hpp</text>
</a>
</g>
</g>
<!-- Node3&#45;&gt;Node4 -->
<g id="edge3" class="edge">
<title>Node3&#45;&gt;Node4</title>
<path fill="none" stroke="midnightblue" d="M849.01,-179.48C791.2,-168.76 692.05,-150.38 629.92,-138.87"/>
<polygon fill="midnightblue" stroke="midnightblue" points="630.38,-135.39 619.91,-137.01 629.1,-142.27 630.38,-135.39"/>
</g>
<!-- Node3&#45;&gt;Node5 -->
<g id="edge11" class="edge">
<title>Node3&#45;&gt;Node5</title>
<path fill="none" stroke="midnightblue" d="M826.32,-183.21C788.05,-177.85 741.01,-166.59 705,-143 682.86,-128.49 666.07,-102.3 656.63,-84.78"/>
<polygon fill="midnightblue" stroke="midnightblue" points="659.61,-82.92 651.94,-75.62 653.39,-86.12 659.61,-82.92"/>
</g>
<!-- Node12 -->
<g id="node12" class="node">
<title>Node12</title>
<g id="a_node12"><a xlink:title=" ">
<polygon fill="white" stroke="#bfbfbf" points="714,-112.5 714,-142.5 852,-142.5 852,-112.5 714,-112.5"/>
<text text-anchor="start" x="722" y="-130.5" font-family="Helvetica,sans-Serif" font-size="10.00">smart_ptr/enable_shared</text>
<text text-anchor="middle" x="783" y="-119.5" font-family="Helvetica,sans-Serif" font-size="10.00">_from_this.hpp</text>
</a>
</g>
</g>
<!-- Node3&#45;&gt;Node12 -->
<g id="edge12" class="edge">
<title>Node3&#45;&gt;Node12</title>
<path fill="none" stroke="midnightblue" d="M878.95,-179.48C863.22,-171.12 838.7,-158.09 818.39,-147.3"/>
<polygon fill="midnightblue" stroke="midnightblue" points="819.87,-144.12 809.4,-142.52 816.59,-150.31 819.87,-144.12"/>
</g>
<!-- Node3&#45;&gt;Node13 -->
<g id="edge13" class="edge">
<title>Node3&#45;&gt;Node13</title>
<path fill="none" stroke="midnightblue" d="M922.94,-179.48C956.97,-169.09 1014.58,-151.51 1052.46,-139.95"/>
<polygon fill="midnightblue" stroke="midnightblue" points="1053.57,-143.28 1062.11,-137.01 1051.53,-136.58 1053.57,-143.28"/>
</g>
<!-- Node14 -->
<g id="node14" class="node">
<title>Node14</title>
<g id="a_node14"><a xlink:title=" ">
<polygon fill="white" stroke="#bfbfbf" points="870,-118 870,-137 1002,-137 1002,-118 870,-118"/>
<text text-anchor="middle" x="936" y="-125" font-family="Helvetica,sans-Serif" font-size="10.00">smart_ptr/weak_ptr.hpp</text>
</a>
</g>
</g>
<!-- Node3&#45;&gt;Node14 -->
<g id="edge14" class="edge">
<title>Node3&#45;&gt;Node14</title>
<path fill="none" stroke="midnightblue" d="M900.87,-179.48C906.96,-170.64 916.64,-156.59 924.3,-145.48"/>
<polygon fill="midnightblue" stroke="midnightblue" points="927.34,-147.23 930.14,-137.01 921.58,-143.26 927.34,-147.23"/>
</g>
<!-- Node3&#45;&gt;Node15 -->
<g id="edge15" class="edge">
<title>Node3&#45;&gt;Node15</title>
<path fill="none" stroke="midnightblue" d="M826.35,-180.11C750.94,-171.37 626.28,-156.69 519,-143 493.87,-139.79 465.44,-135.93 444.21,-133"/>
<polygon fill="midnightblue" stroke="midnightblue" points="444.5,-129.51 434.12,-131.6 443.54,-136.44 444.5,-129.51"/>
</g>
<!-- Node4&#45;&gt;Node5 -->
<g id="edge4" class="edge">
<title>Node4&#45;&gt;Node5</title>
<path fill="none" stroke="midnightblue" d="M584.6,-117.98C596.25,-108.61 615.19,-93.38 629.33,-82.01"/>
<polygon fill="midnightblue" stroke="midnightblue" points="631.82,-84.5 637.42,-75.51 627.43,-79.05 631.82,-84.5"/>
</g>
<!-- Node4&#45;&gt;Node10 -->
<g id="edge9" class="edge">
<title>Node4&#45;&gt;Node10</title>
<path fill="none" stroke="midnightblue" d="M557.95,-117.98C539.41,-108.12 508.66,-91.79 486.98,-80.27"/>
<polygon fill="midnightblue" stroke="midnightblue" points="488.49,-77.11 478.02,-75.51 485.21,-83.29 488.49,-77.11"/>
</g>
<!-- Node11 -->
<g id="node11" class="node">
<title>Node11</title>
<g id="a_node11"><a xlink:title=" ">
<polygon fill="white" stroke="#bfbfbf" points="520,-56.5 520,-75.5 570,-75.5 570,-56.5 520,-56.5"/>
<text text-anchor="middle" x="545" y="-63.5" font-family="Helvetica,sans-Serif" font-size="10.00">cstring</text>
</a>
</g>
</g>
<!-- Node4&#45;&gt;Node11 -->
<g id="edge10" class="edge">
<title>Node4&#45;&gt;Node11</title>
<path fill="none" stroke="midnightblue" d="M569.85,-117.98C565.62,-109.32 558.96,-95.65 553.6,-84.65"/>
<polygon fill="midnightblue" stroke="midnightblue" points="556.67,-82.96 549.15,-75.51 550.38,-86.03 556.67,-82.96"/>
</g>
<!-- Node6 -->
<g id="node6" class="node">
<title>Node6</title>
<g id="a_node6"><a xlink:title=" ">
<polygon fill="white" stroke="#bfbfbf" points="595.5,-0.5 595.5,-19.5 642.5,-19.5 642.5,-0.5 595.5,-0.5"/>
<text text-anchor="middle" x="619" y="-7.5" font-family="Helvetica,sans-Serif" font-size="10.00">deque</text>
</a>
</g>
</g>
<!-- Node5&#45;&gt;Node6 -->
<g id="edge5" class="edge">
<title>Node5&#45;&gt;Node6</title>
<path fill="none" stroke="midnightblue" d="M643.21,-56.08C639.24,-48.69 633.47,-37.95 628.57,-28.81"/>
<polygon fill="midnightblue" stroke="midnightblue" points="631.51,-26.91 623.7,-19.75 625.35,-30.22 631.51,-26.91"/>
</g>
<!-- Node5&#45;&gt;Node7 -->
<g id="edge6" class="edge">
<title>Node5&#45;&gt;Node7</title>
<path fill="none" stroke="midnightblue" d="M602.37,-58.88C594.58,-57.88 586.56,-56.88 579,-56 426.88,-38.2 244.34,-20.45 174.31,-13.77"/>
<polygon fill="midnightblue" stroke="midnightblue" points="174.34,-10.26 164.06,-12.79 173.68,-17.23 174.34,-10.26"/>
</g>
<!-- Node8 -->
<g id="node8" class="node">
<title>Node8</title>
<g id="a_node8"><a xlink:title=" ">
<polygon fill="white" stroke="#bfbfbf" points="661,-0.5 661,-19.5 693,-19.5 693,-0.5 661,-0.5"/>
<text text-anchor="middle" x="677" y="-7.5" font-family="Helvetica,sans-Serif" font-size="10.00">set</text>
</a>
</g>
</g>
<!-- Node5&#45;&gt;Node8 -->
<g id="edge7" class="edge">
<title>Node5&#45;&gt;Node8</title>
<path fill="none" stroke="midnightblue" d="M652.79,-56.08C656.76,-48.69 662.53,-37.95 667.43,-28.81"/>
<polygon fill="midnightblue" stroke="midnightblue" points="670.65,-30.22 672.3,-19.75 664.49,-26.91 670.65,-30.22"/>
</g>
<!-- Node5&#45;&gt;Node9 -->
<g id="edge8" class="edge">
<title>Node5&#45;&gt;Node9</title>
<path fill="none" stroke="midnightblue" d="M614.72,-56.44C575.55,-46.37 510.86,-29.74 471.56,-19.63"/>
<polygon fill="midnightblue" stroke="midnightblue" points="472.23,-16.19 461.67,-17.09 470.48,-22.97 472.23,-16.19"/>
</g>
<!-- Node21&#45;&gt;Node10 -->
<g id="edge30" class="edge">
<title>Node21&#45;&gt;Node10</title>
<path fill="none" stroke="midnightblue" d="M287.57,-179.41C287.27,-163.81 288.98,-130.71 307,-112 337.92,-79.9 390.24,-70.32 425.45,-67.66"/>
<polygon fill="midnightblue" stroke="midnightblue" points="426.01,-71.13 435.78,-67.04 425.59,-64.15 426.01,-71.13"/>
</g>
<!-- Node21&#45;&gt;Node15 -->
<g id="edge29" class="edge">
<title>Node21&#45;&gt;Node15</title>
<path fill="none" stroke="midnightblue" d="M305.77,-179.48C326.48,-169.53 360.95,-152.99 384.99,-141.46"/>
<polygon fill="midnightblue" stroke="midnightblue" points="386.77,-144.49 394.27,-137.01 383.74,-138.18 386.77,-144.49"/>
</g>
<!-- Node22 -->
<g id="node22" class="node">
<title>Node22</title>
<g id="a_node22"><a xlink:title=" ">
<polygon fill="white" stroke="#bfbfbf" points="66.5,-118 66.5,-137 119.5,-137 119.5,-118 66.5,-118"/>
<text text-anchor="middle" x="93" y="-125" font-family="Helvetica,sans-Serif" font-size="10.00">cstdarg</text>
</a>
</g>
</g>
<!-- Node21&#45;&gt;Node22 -->
<g id="edge25" class="edge">
<title>Node21&#45;&gt;Node22</title>
<path fill="none" stroke="midnightblue" d="M253.87,-179.47C221.45,-171.11 171.48,-157.52 129,-143 126.88,-142.27 124.7,-141.49 122.51,-140.68"/>
<polygon fill="midnightblue" stroke="midnightblue" points="123.63,-137.36 113.04,-137.01 121.1,-143.89 123.63,-137.36"/>
</g>
<!-- Node23 -->
<g id="node23" class="node">
<title>Node23</title>
<g id="a_node23"><a xlink:title=" ">
<polygon fill="white" stroke="#bfbfbf" points="138,-118 138,-137 182,-137 182,-118 138,-118"/>
<text text-anchor="middle" x="160" y="-125" font-family="Helvetica,sans-Serif" font-size="10.00">ctime</text>
</a>
</g>
</g>
<!-- Node21&#45;&gt;Node23 -->
<g id="edge26" class="edge">
<title>Node21&#45;&gt;Node23</title>
<path fill="none" stroke="midnightblue" d="M269.4,-179.39C249.86,-170.35 218.26,-155.7 191,-143 189.85,-142.46 188.67,-141.92 187.49,-141.36"/>
<polygon fill="midnightblue" stroke="midnightblue" points="188.9,-138.16 178.35,-137.1 185.93,-144.5 188.9,-138.16"/>
</g>
<!-- Node24 -->
<g id="node24" class="node">
<title>Node24</title>
<g id="a_node24"><a xlink:title=" ">
<polygon fill="white" stroke="#bfbfbf" points="200,-118 200,-137 260,-137 260,-118 200,-118"/>
<text text-anchor="middle" x="230" y="-125" font-family="Helvetica,sans-Serif" font-size="10.00">iostream</text>
</a>
</g>
</g>
<!-- Node21&#45;&gt;Node24 -->
<g id="edge27" class="edge">
<title>Node21&#45;&gt;Node24</title>
<path fill="none" stroke="midnightblue" d="M279.69,-179.48C270.82,-170.37 256.55,-155.74 245.58,-144.48"/>
<polygon fill="midnightblue" stroke="midnightblue" points="247.78,-141.73 238.29,-137.01 242.77,-146.61 247.78,-141.73"/>
</g>
<!-- Node25 -->
<g id="node25" class="node">
<title>Node25</title>
<g id="a_node25"><a xlink:title=" ">
<polygon fill="white" stroke="#bfbfbf" points="316,-118 316,-137 372,-137 372,-118 316,-118"/>
<text text-anchor="middle" x="344" y="-125" font-family="Helvetica,sans-Serif" font-size="10.00">sstream</text>
</a>
</g>
</g>
<!-- Node21&#45;&gt;Node25 -->
<g id="edge28" class="edge">
<title>Node21&#45;&gt;Node25</title>
<path fill="none" stroke="midnightblue" d="M296.02,-179.48C304.59,-170.37 318.36,-155.74 328.96,-144.48"/>
<polygon fill="midnightblue" stroke="midnightblue" points="331.69,-146.69 335.99,-137.01 326.59,-141.89 331.69,-146.69"/>
</g>
<!-- Node26&#45;&gt;Node5 -->
<g id="edge32" class="edge">
<title>Node26&#45;&gt;Node5</title>
<path fill="none" stroke="midnightblue" d="M648,-235.46C648,-208.43 648,-124.24 648,-86.11"/>
<polygon fill="midnightblue" stroke="midnightblue" points="651.5,-85.87 648,-75.87 644.5,-85.87 651.5,-85.87"/>
</g>
<!-- Node26&#45;&gt;Node11 -->
<g id="edge34" class="edge">
<title>Node26&#45;&gt;Node11</title>
<path fill="none" stroke="midnightblue" d="M625.34,-235.49C593.03,-221.83 535.78,-191.52 519,-143 514.5,-129.98 515.43,-125.31 519,-112 521.65,-102.1 527.07,-92.13 532.27,-84.1"/>
<polygon fill="midnightblue" stroke="midnightblue" points="535.29,-85.89 538.11,-75.68 529.54,-81.91 535.29,-85.89"/>
</g>
<!-- Node27 -->
<g id="node27" class="node">
<title>Node27</title>
<g id="a_node27"><a xlink:title=" ">
<polygon fill="white" stroke="#bfbfbf" points="572.5,-179.5 572.5,-198.5 619.5,-198.5 619.5,-179.5 572.5,-179.5"/>
<text text-anchor="middle" x="596" y="-186.5" font-family="Helvetica,sans-Serif" font-size="10.00">cerrno</text>
</a>
</g>
</g>
<!-- Node26&#45;&gt;Node27 -->
<g id="edge33" class="edge">
<title>Node26&#45;&gt;Node27</title>
<path fill="none" stroke="midnightblue" d="M639.41,-235.08C631.84,-227.22 620.62,-215.57 611.49,-206.08"/>
<polygon fill="midnightblue" stroke="midnightblue" points="613.88,-203.53 604.43,-198.75 608.84,-208.38 613.88,-203.53"/>
</g>
<!-- Node26&#45;&gt;Node28 -->
<g id="edge35" class="edge">
<title>Node26&#45;&gt;Node28</title>
<path fill="none" stroke="midnightblue" d="M661.5,-235.32C674.6,-226.9 694.71,-213.97 710.11,-204.07"/>
<polygon fill="midnightblue" stroke="midnightblue" points="712.02,-207.01 718.54,-198.65 708.23,-201.12 712.02,-207.01"/>
</g>
</g>
</svg>
        <g id="navigator" transform="translate(0 0)" fill="#404254">
                <rect fill="#f2f5e9" fill-opacity="0.5" stroke="#606060" stroke-width=".5" x="0" y="0" width="60" height="60"/>
                <use id="zoomplus" xlink:href="#zoomPlus" x="17" y="9" onmousedown="handleZoom(evt,'in')"/>
                <use id="zoomminus" xlink:href="#zoomMin" x="42" y="9" onmousedown="handleZoom(evt,'out')"/>
                <use id="reset" xlink:href="#resetDef" x="30" y="36" onmousedown="handleReset()"/>
                <g id="arrowUp" xlink:href="#dirArrow" transform="translate(30 24)" onmousedown="handlePan(0,-1)">
                  <use xlink:href="#rim" fill="#404040">
                        <set attributeName="fill" to="#808080" begin="arrowUp.mouseover" end="arrowUp.mouseout"/>
                  </use>
                  <path fill="none" stroke="white" stroke-width="1.5" d="M0,-3.0v7 M-2.5,-0.5L0,-3.0L2.5,-0.5"/>
                </g>
                <g id="arrowRight" xlink:href="#dirArrow" transform="rotate(90) translate(36 -43)" onmousedown="handlePan(1,0)">
                  <use xlink:href="#rim" fill="#404040">
                        <set attributeName="fill" to="#808080" begin="arrowRight.mouseover" end="arrowRight.mouseout"/>
                  </use>
                  <path fill="none" stroke="white" stroke-width="1.5" d="M0,-3.0v7 M-2.5,-0.5L0,-3.0L2.5,-0.5"/>
                </g>
                <g id="arrowDown" xlink:href="#dirArrow" transform="rotate(180) translate(-30 -48)" onmousedown="handlePan(0,1)">
                  <use xlink:href="#rim" fill="#404040">
                        <set attributeName="fill" to="#808080" begin="arrowDown.mouseover" end="arrowDown.mouseout"/>
                  </use>
                  <path fill="none" stroke="white" stroke-width="1.5" d="M0,-3.0v7 M-2.5,-0.5L0,-3.0L2.5,-0.5"/>
                </g>
                <g id="arrowLeft" xlink:href="#dirArrow" transform="rotate(270) translate(-36 17)" onmousedown="handlePan(-1,0)">
                  <use xlink:href="#rim" fill="#404040">
                        <set attributeName="fill" to="#808080" begin="arrowLeft.mouseover" end="arrowLeft.mouseout"/>
                  </use>
                  <path fill="none" stroke="white" stroke-width="1.5" d="M0,-3.0v7 M-2.5,-0.5L0,-3.0L2.5,-0.5"/>
                </g>
        </g>
        <svg viewBox="0 0 15 15" width="100%" height="30px" preserveAspectRatio="xMaxYMin meet">
         <g id="arrow_out" transform="scale(0.3 0.3)">
          <a xlink:href="event__worker_8epoll_8cpp__incl_org.svg" target="_base">
           <rect id="button" ry="5" rx="5" y="6" x="6" height="38" width="38"
                fill="#f2f5e9" fill-opacity="0.5" stroke="#606060" stroke-width="1.0"/>
           <path id="arrow"
             d="M 11.500037,31.436501 C 11.940474,20.09759 22.043105,11.32322 32.158766,21.979434 L 37.068811,17.246167 C 37.068811,17.246167 37.088388,32 37.088388,32 L 22.160133,31.978069 C 22.160133,31.978069 26.997745,27.140456 26.997745,27.140456 C 18.528582,18.264221 13.291696,25.230495 11.500037,31.436501 z"
             style="fill:#404040;"/>
          </a>
         </g>
        </svg>
</svg>
