<?xml version="1.0" encoding="UTF-8" standalone="no"?>
<!DOCTYPE svg PUBLIC "-//W3C//DTD SVG 1.1//EN"
 "http://www.w3.org/Graphics/SVG/1.1/DTD/svg11.dtd">
<!-- Generated by graphviz version 2.43.0 (0)
 -->
<!-- Title: Graphical Class Hierarchy Pages: 1 -->
<svg width="671pt" height="199pt"
 viewBox="0.00 0.00 671.00 199.00" xmlns="http://www.w3.org/2000/svg" xmlns:xlink="http://www.w3.org/1999/xlink">
<g id="graph0" class="graph" transform="scale(1 1) rotate(0) translate(4 195)">
<title>Graphical Class Hierarchy</title>
<polygon fill="white" stroke="transparent" points="-4,4 -4,-195 667,-195 667,4 -4,4"/>
<!-- Node18 -->
<g id="node1" class="node">
<title>Node18</title>
<g id="a_node1"><a xlink:title=" ">
<polygon fill="white" stroke="#bfbfbf" points="0,-95.5 0,-114.5 152,-114.5 152,-95.5 0,-95.5"/>
<text text-anchor="middle" x="76" y="-102.5" font-family="Helvetica,sans-Serif" font-size="10.00">ft::enable_shared_from_this</text>
</a>
</g>
</g>
<!-- Node0 -->
<g id="node2" class="node">
<title>Node0</title>
<g id="a_node2"><a xlink:href="classft_1_1irc_1_1bot.html" target="_top" xlink:title=" ">
<polygon fill="white" stroke="black" points="234,-171.5 234,-190.5 297,-190.5 297,-171.5 234,-171.5"/>
<text text-anchor="middle" x="265.5" y="-178.5" font-family="Helvetica,sans-Serif" font-size="10.00">ft::irc::bot</text>
</a>
</g>
</g>
<!-- Node18&#45;&gt;Node0 -->
<g id="edge1" class="edge">
<title>Node18&#45;&gt;Node0</title>
<path fill="none" stroke="midnightblue" d="M101.32,-119.57C123.33,-132.24 156.94,-150.35 188,-162 202.73,-167.53 219.67,-171.92 233.85,-175.09"/>
<polygon fill="midnightblue" stroke="midnightblue" points="103.05,-116.53 92.65,-114.51 99.52,-122.57 103.05,-116.53"/>
</g>
<!-- Node20 -->
<g id="node3" class="node">
<title>Node20</title>
<g id="a_node3"><a xlink:href="classft_1_1irc_1_1channel.html" target="_top" xlink:title=" ">
<polygon fill="white" stroke="black" points="222.5,-133.5 222.5,-152.5 308.5,-152.5 308.5,-133.5 222.5,-133.5"/>
<text text-anchor="middle" x="265.5" y="-140.5" font-family="Helvetica,sans-Serif" font-size="10.00">ft::irc::channel</text>
</a>
</g>
</g>
<!-- Node18&#45;&gt;Node20 -->
<g id="edge2" class="edge">
<title>Node18&#45;&gt;Node20</title>
<path fill="none" stroke="midnightblue" d="M134.12,-116.58C162.54,-122.34 196.28,-129.17 222.32,-134.45"/>
<polygon fill="midnightblue" stroke="midnightblue" points="134.81,-113.15 124.31,-114.59 133.42,-120.01 134.81,-113.15"/>
</g>
<!-- Node21 -->
<g id="node4" class="node">
<title>Node21</title>
<g id="a_node4"><a xlink:href="classft_1_1irc_1_1server.html" target="_top" xlink:title=" ">
<polygon fill="white" stroke="black" points="226.5,-95.5 226.5,-114.5 304.5,-114.5 304.5,-95.5 226.5,-95.5"/>
<text text-anchor="middle" x="265.5" y="-102.5" font-family="Helvetica,sans-Serif" font-size="10.00">ft::irc::server</text>
</a>
</g>
</g>
<!-- Node18&#45;&gt;Node21 -->
<g id="edge3" class="edge">
<title>Node18&#45;&gt;Node21</title>
<path fill="none" stroke="midnightblue" d="M162.41,-105C184.82,-105 207.86,-105 226.38,-105"/>
<polygon fill="midnightblue" stroke="midnightblue" points="162.18,-101.5 152.18,-105 162.18,-108.5 162.18,-101.5"/>
</g>
<!-- Node22 -->
<g id="node5" class="node">
<title>Node22</title>
<g id="a_node5"><a xlink:href="classft_1_1irc_1_1user.html" target="_top" xlink:title=" ">
<polygon fill="white" stroke="black" points="231.5,-57.5 231.5,-76.5 299.5,-76.5 299.5,-57.5 231.5,-57.5"/>
<text text-anchor="middle" x="265.5" y="-64.5" font-family="Helvetica,sans-Serif" font-size="10.00">ft::irc::user</text>
</a>
</g>
</g>
<!-- Node18&#45;&gt;Node22 -->
<g id="edge4" class="edge">
<title>Node18&#45;&gt;Node22</title>
<path fill="none" stroke="midnightblue" d="M134.38,-93.37C166.18,-86.93 204.57,-79.15 231.38,-73.71"/>
<polygon fill="midnightblue" stroke="midnightblue" points="133.42,-89.99 124.31,-95.41 134.81,-96.85 133.42,-89.99"/>
</g>
<!-- Node23 -->
<g id="node6" class="node">
<title>Node23</title>
<g id="a_node6"><a xlink:href="classft_1_1serv_1_1event__channel__base.html" target="_top" xlink:title=" ">
<polygon fill="white" stroke="black" points="188,-19.5 188,-38.5 343,-38.5 343,-19.5 188,-19.5"/>
<text text-anchor="middle" x="265.5" y="-26.5" font-family="Helvetica,sans-Serif" font-size="10.00">ft::serv::event_channel_base</text>
</a>
</g>
</g>
<!-- Node18&#45;&gt;Node23 -->
<g id="edge5" class="edge">
<title>Node18&#45;&gt;Node23</title>
<path fill="none" stroke="midnightblue" d="M101.32,-90.43C123.33,-77.76 156.94,-59.65 188,-48 197.74,-44.35 208.44,-41.19 218.67,-38.55"/>
<polygon fill="midnightblue" stroke="midnightblue" points="99.52,-87.43 92.65,-95.49 103.05,-93.47 99.52,-87.43"/>
</g>
<!-- Node24 -->
<g id="node7" class="node">
<title>Node24</title>
<g id="a_node7"><a xlink:href="classft_1_1serv_1_1server__channel.html" target="_top" xlink:title=" ">
<polygon fill="white" stroke="black" points="381,-38.5 381,-57.5 511,-57.5 511,-38.5 381,-38.5"/>
<text text-anchor="middle" x="446" y="-45.5" font-family="Helvetica,sans-Serif" font-size="10.00">ft::serv::server_channel</text>
</a>
</g>
</g>
<!-- Node23&#45;&gt;Node24 -->
<g id="edge6" class="edge">
<title>Node23&#45;&gt;Node24</title>
<path fill="none" stroke="midnightblue" d="M353.3,-38.24C362.61,-39.23 371.95,-40.22 380.93,-41.18"/>
<polygon fill="midnightblue" stroke="midnightblue" points="353.55,-34.75 343.24,-37.17 352.81,-41.71 353.55,-34.75"/>
</g>
<!-- Node25 -->
<g id="node8" class="node">
<title>Node25</title>
<g id="a_node8"><a xlink:href="classft_1_1serv_1_1stream__channel.html" target="_top" xlink:title=" ">
<polygon fill="white" stroke="black" points="379,-0.5 379,-19.5 513,-19.5 513,-0.5 379,-0.5"/>
<text text-anchor="middle" x="446" y="-7.5" font-family="Helvetica,sans-Serif" font-size="10.00">ft::serv::stream_channel</text>
</a>
</g>
</g>
<!-- Node23&#45;&gt;Node25 -->
<g id="edge7" class="edge">
<title>Node23&#45;&gt;Node25</title>
<path fill="none" stroke="midnightblue" d="M353.33,-19.76C361.96,-18.84 370.63,-17.92 378.99,-17.03"/>
<polygon fill="midnightblue" stroke="midnightblue" points="352.81,-16.29 343.24,-20.83 353.55,-23.25 352.81,-16.29"/>
</g>
<!-- Node26 -->
<g id="node9" class="node">
<title>Node26</title>
<g id="a_node9"><a xlink:href="classft_1_1serv_1_1file__channel.html" target="_top" xlink:title=" ">
<polygon fill="white" stroke="black" points="549,-0.5 549,-19.5 663,-19.5 663,-0.5 549,-0.5"/>
<text text-anchor="middle" x="606" y="-7.5" font-family="Helvetica,sans-Serif" font-size="10.00">ft::serv::file_channel</text>
</a>
</g>
</g>
<!-- Node25&#45;&gt;Node26 -->
<g id="edge8" class="edge">
<title>Node25&#45;&gt;Node26</title>
<path fill="none" stroke="midnightblue" d="M523.15,-10C531.76,-10 540.41,-10 548.7,-10"/>
<polygon fill="midnightblue" stroke="midnightblue" points="523.09,-6.5 513.09,-10 523.09,-13.5 523.09,-6.5"/>
</g>
</g>
</svg>
