<?xml version="1.0" encoding="UTF-8" standalone="no"?>
<!DOCTYPE svg PUBLIC "-//W3C//DTD SVG 1.1//EN"
 "http://www.w3.org/Graphics/SVG/1.1/DTD/svg11.dtd">
<!-- Generated by graphviz version 2.43.0 (0)
 -->
<!-- Title: Graphical Class Hierarchy Pages: 1 -->
<svg width="426pt" height="821pt"
 viewBox="0.00 0.00 426.00 820.50" xmlns="http://www.w3.org/2000/svg" xmlns:xlink="http://www.w3.org/1999/xlink">
<g id="graph0" class="graph" transform="scale(1 1) rotate(0) translate(4 816.5)">
<title>Graphical Class Hierarchy</title>
<polygon fill="white" stroke="transparent" points="-4,4 -4,-816.5 422,-816.5 422,4 -4,4"/>
<!-- Node0 -->
<g id="node1" class="node">
<title>Node0</title>
<g id="a_node1"><a xlink:href="classft_1_1irc_1_1processor__base.html" target="_top" xlink:title=" ">
<polygon fill="white" stroke="black" points="0,-399 0,-418 123,-418 123,-399 0,-399"/>
<text text-anchor="middle" x="61.5" y="-406" font-family="Helvetica,sans-Serif" font-size="10.00">ft::irc::processor_base</text>
</a>
</g>
</g>
<!-- Node1 -->
<g id="node2" class="node">
<title>Node1</title>
<g id="a_node2"><a xlink:href="classft_1_1irc_1_1processor__away.html" target="_top" xlink:title=" ">
<polygon fill="white" stroke="black" points="160,-793 160,-812 286,-812 286,-793 160,-793"/>
<text text-anchor="middle" x="223" y="-800" font-family="Helvetica,sans-Serif" font-size="10.00">ft::irc::processor_away</text>
</a>
</g>
</g>
<!-- Node0&#45;&gt;Node1 -->
<g id="edge1" class="edge">
<title>Node0&#45;&gt;Node1</title>
<path fill="none" stroke="midnightblue" d="M65.03,-428.37C74.3,-498.18 108.51,-730.9 159,-783.5 162.72,-787.37 167.19,-790.47 172.03,-792.93"/>
<polygon fill="midnightblue" stroke="midnightblue" points="68.48,-427.74 63.72,-418.28 61.54,-428.65 68.48,-427.74"/>
</g>
<!-- Node2 -->
<g id="node3" class="node">
<title>Node2</title>
<g id="a_node3"><a xlink:href="classft_1_1irc_1_1processor__cap.html" target="_top" xlink:title=" ">
<polygon fill="white" stroke="black" points="164.5,-755 164.5,-774 281.5,-774 281.5,-755 164.5,-755"/>
<text text-anchor="middle" x="223" y="-762" font-family="Helvetica,sans-Serif" font-size="10.00">ft::irc::processor_cap</text>
</a>
</g>
</g>
<!-- Node0&#45;&gt;Node2 -->
<g id="edge2" class="edge">
<title>Node0&#45;&gt;Node2</title>
<path fill="none" stroke="midnightblue" d="M62.04,-428.39C61.81,-485.98 69.25,-654.49 159,-745.5 162.85,-749.4 167.47,-752.51 172.44,-754.99"/>
<polygon fill="midnightblue" stroke="midnightblue" points="65.54,-428.18 62.17,-418.13 58.54,-428.09 65.54,-428.18"/>
</g>
<!-- Node3 -->
<g id="node4" class="node">
<title>Node3</title>
<g id="a_node4"><a xlink:href="classft_1_1irc_1_1processor__invite.html" target="_top" xlink:title=" ">
<polygon fill="white" stroke="black" points="175.5,-705.5 175.5,-735.5 270.5,-735.5 270.5,-705.5 175.5,-705.5"/>
<text text-anchor="start" x="183.5" y="-723.5" font-family="Helvetica,sans-Serif" font-size="10.00">ft::irc::processor</text>
<text text-anchor="middle" x="223" y="-712.5" font-family="Helvetica,sans-Serif" font-size="10.00">_invite</text>
</a>
</g>
</g>
<!-- Node0&#45;&gt;Node3 -->
<g id="edge3" class="edge">
<title>Node0&#45;&gt;Node3</title>
<path fill="none" stroke="midnightblue" d="M63.58,-428.13C67.42,-479.06 84.53,-616.94 159,-695.5 163.61,-700.37 169.3,-704.31 175.34,-707.49"/>
<polygon fill="midnightblue" stroke="midnightblue" points="67.07,-427.87 62.92,-418.13 60.09,-428.34 67.07,-427.87"/>
</g>
<!-- Node4 -->
<g id="node5" class="node">
<title>Node4</title>
<g id="a_node5"><a xlink:href="classft_1_1irc_1_1processor__join.html" target="_top" xlink:title=" ">
<polygon fill="white" stroke="black" points="164,-667 164,-686 282,-686 282,-667 164,-667"/>
<text text-anchor="middle" x="223" y="-674" font-family="Helvetica,sans-Serif" font-size="10.00">ft::irc::processor_join</text>
</a>
</g>
</g>
<!-- Node0&#45;&gt;Node4 -->
<g id="edge4" class="edge">
<title>Node0&#45;&gt;Node4</title>
<path fill="none" stroke="midnightblue" d="M64.33,-428.03C69.77,-474.71 90.02,-593.62 159,-657.5 163.19,-661.38 168.15,-664.47 173.41,-666.93"/>
<polygon fill="midnightblue" stroke="midnightblue" points="67.81,-427.6 63.27,-418.03 60.85,-428.34 67.81,-427.6"/>
</g>
<!-- Node5 -->
<g id="node6" class="node">
<title>Node5</title>
<g id="a_node6"><a xlink:href="classft_1_1irc_1_1processor__kick.html" target="_top" xlink:title=" ">
<polygon fill="white" stroke="black" points="163,-629 163,-648 283,-648 283,-629 163,-629"/>
<text text-anchor="middle" x="223" y="-636" font-family="Helvetica,sans-Serif" font-size="10.00">ft::irc::processor_kick</text>
</a>
</g>
</g>
<!-- Node0&#45;&gt;Node5 -->
<g id="edge5" class="edge">
<title>Node0&#45;&gt;Node5</title>
<path fill="none" stroke="midnightblue" d="M65.88,-428.1C74.08,-469.66 98.94,-567.1 159,-619.5 163.48,-623.41 168.73,-626.51 174.27,-628.97"/>
<polygon fill="midnightblue" stroke="midnightblue" points="69.3,-427.35 64.03,-418.15 62.42,-428.63 69.3,-427.35"/>
</g>
<!-- Node6 -->
<g id="node7" class="node">
<title>Node6</title>
<g id="a_node7"><a xlink:href="classft_1_1irc_1_1processor__kill.html" target="_top" xlink:title=" ">
<polygon fill="white" stroke="black" points="165.5,-591 165.5,-610 280.5,-610 280.5,-591 165.5,-591"/>
<text text-anchor="middle" x="223" y="-598" font-family="Helvetica,sans-Serif" font-size="10.00">ft::irc::processor_kill</text>
</a>
</g>
</g>
<!-- Node0&#45;&gt;Node6 -->
<g id="edge6" class="edge">
<title>Node0&#45;&gt;Node6</title>
<path fill="none" stroke="midnightblue" d="M67.91,-427.7C78.96,-463.39 107.52,-540.08 159,-581.5 163.81,-585.37 169.39,-588.45 175.21,-590.9"/>
<polygon fill="midnightblue" stroke="midnightblue" points="71.24,-426.62 65.04,-418.02 64.53,-428.61 71.24,-426.62"/>
</g>
<!-- Node7 -->
<g id="node8" class="node">
<title>Node7</title>
<g id="a_node8"><a xlink:href="classft_1_1irc_1_1processor__list.html" target="_top" xlink:title=" ">
<polygon fill="white" stroke="black" points="165.5,-553 165.5,-572 280.5,-572 280.5,-553 165.5,-553"/>
<text text-anchor="middle" x="223" y="-560" font-family="Helvetica,sans-Serif" font-size="10.00">ft::irc::processor_list</text>
</a>
</g>
</g>
<!-- Node0&#45;&gt;Node7 -->
<g id="edge7" class="edge">
<title>Node0&#45;&gt;Node7</title>
<path fill="none" stroke="midnightblue" d="M71.11,-427.29C85.33,-456.24 116.43,-511.65 159,-542.5 164.95,-546.81 171.86,-550.21 178.88,-552.9"/>
<polygon fill="midnightblue" stroke="midnightblue" points="74.26,-425.75 66.8,-418.23 67.94,-428.76 74.26,-425.75"/>
</g>
<!-- Node8 -->
<g id="node9" class="node">
<title>Node8</title>
<g id="a_node9"><a xlink:href="classft_1_1irc_1_1processor__message__base.html" target="_top" xlink:title=" ">
<polygon fill="white" stroke="black" points="175.5,-503.5 175.5,-533.5 270.5,-533.5 270.5,-503.5 175.5,-503.5"/>
<text text-anchor="start" x="183.5" y="-521.5" font-family="Helvetica,sans-Serif" font-size="10.00">ft::irc::processor</text>
<text text-anchor="middle" x="223" y="-510.5" font-family="Helvetica,sans-Serif" font-size="10.00">_message_base</text>
</a>
</g>
</g>
<!-- Node0&#45;&gt;Node8 -->
<g id="edge8" class="edge">
<title>Node0&#45;&gt;Node8</title>
<path fill="none" stroke="midnightblue" d="M78.34,-425.61C96.39,-444.32 127.5,-474.19 159,-493.5 165.02,-497.19 171.68,-500.52 178.35,-503.47"/>
<polygon fill="midnightblue" stroke="midnightblue" points="80.65,-422.96 71.22,-418.12 75.57,-427.78 80.65,-422.96"/>
</g>
<!-- Node11 -->
<g id="node12" class="node">
<title>Node11</title>
<g id="a_node12"><a xlink:href="classft_1_1irc_1_1processor__mode.html" target="_top" xlink:title=" ">
<polygon fill="white" stroke="black" points="159,-465 159,-484 287,-484 287,-465 159,-465"/>
<text text-anchor="middle" x="223" y="-472" font-family="Helvetica,sans-Serif" font-size="10.00">ft::irc::processor_mode</text>
</a>
</g>
</g>
<!-- Node0&#45;&gt;Node11 -->
<g id="edge11" class="edge">
<title>Node0&#45;&gt;Node11</title>
<path fill="none" stroke="midnightblue" d="M89.68,-422.69C108.78,-432.35 135.08,-445.05 159,-454.5 168.61,-458.29 179.24,-461.89 189,-464.96"/>
<polygon fill="midnightblue" stroke="midnightblue" points="91.16,-419.52 80.67,-418.08 87.98,-425.75 91.16,-419.52"/>
</g>
<!-- Node12 -->
<g id="node13" class="node">
<title>Node12</title>
<g id="a_node13"><a xlink:href="classft_1_1irc_1_1processor__names.html" target="_top" xlink:title=" ">
<polygon fill="white" stroke="black" points="175.5,-415.5 175.5,-445.5 270.5,-445.5 270.5,-415.5 175.5,-415.5"/>
<text text-anchor="start" x="183.5" y="-433.5" font-family="Helvetica,sans-Serif" font-size="10.00">ft::irc::processor</text>
<text text-anchor="middle" x="223" y="-422.5" font-family="Helvetica,sans-Serif" font-size="10.00">_names</text>
</a>
</g>
</g>
<!-- Node0&#45;&gt;Node12 -->
<g id="edge12" class="edge">
<title>Node0&#45;&gt;Node12</title>
<path fill="none" stroke="midnightblue" d="M133.48,-418.29C147.66,-420.25 162.2,-422.25 175.31,-424.06"/>
<polygon fill="midnightblue" stroke="midnightblue" points="133.64,-414.78 123.26,-416.88 132.68,-421.71 133.64,-414.78"/>
</g>
<!-- Node13 -->
<g id="node14" class="node">
<title>Node13</title>
<g id="a_node14"><a xlink:href="classft_1_1irc_1_1processor__nick.html" target="_top" xlink:title=" ">
<polygon fill="white" stroke="black" points="163,-377 163,-396 283,-396 283,-377 163,-377"/>
<text text-anchor="middle" x="223" y="-384" font-family="Helvetica,sans-Serif" font-size="10.00">ft::irc::processor_nick</text>
</a>
</g>
</g>
<!-- Node0&#45;&gt;Node13 -->
<g id="edge13" class="edge">
<title>Node0&#45;&gt;Node13</title>
<path fill="none" stroke="midnightblue" d="M133.45,-398.71C143.32,-397.35 153.37,-395.97 162.99,-394.64"/>
<polygon fill="midnightblue" stroke="midnightblue" points="132.68,-395.29 123.26,-400.12 133.64,-402.22 132.68,-395.29"/>
</g>
<!-- Node14 -->
<g id="node15" class="node">
<title>Node14</title>
<g id="a_node15"><a xlink:href="classft_1_1irc_1_1processor__oper.html" target="_top" xlink:title=" ">
<polygon fill="white" stroke="black" points="162,-339 162,-358 284,-358 284,-339 162,-339"/>
<text text-anchor="middle" x="223" y="-346" font-family="Helvetica,sans-Serif" font-size="10.00">ft::irc::processor_oper</text>
</a>
</g>
</g>
<!-- Node0&#45;&gt;Node14 -->
<g id="edge14" class="edge">
<title>Node0&#45;&gt;Node14</title>
<path fill="none" stroke="midnightblue" d="M92.59,-394.72C111.46,-386.32 136.41,-375.68 159,-367.5 168.24,-364.16 178.38,-360.91 187.77,-358.08"/>
<polygon fill="midnightblue" stroke="midnightblue" points="91.01,-391.59 83.32,-398.87 93.88,-397.97 91.01,-391.59"/>
</g>
<!-- Node15 -->
<g id="node16" class="node">
<title>Node15</title>
<g id="a_node16"><a xlink:href="classft_1_1irc_1_1processor__part.html" target="_top" xlink:title=" ">
<polygon fill="white" stroke="black" points="163.5,-301 163.5,-320 282.5,-320 282.5,-301 163.5,-301"/>
<text text-anchor="middle" x="223" y="-308" font-family="Helvetica,sans-Serif" font-size="10.00">ft::irc::processor_part</text>
</a>
</g>
</g>
<!-- Node0&#45;&gt;Node15 -->
<g id="edge15" class="edge">
<title>Node0&#45;&gt;Node15</title>
<path fill="none" stroke="midnightblue" d="M79.11,-391.38C97.24,-373.59 127.85,-346.1 159,-329.5 166.06,-325.74 173.97,-322.62 181.73,-320.06"/>
<polygon fill="midnightblue" stroke="midnightblue" points="76.3,-389.24 71.7,-398.79 81.25,-394.19 76.3,-389.24"/>
</g>
<!-- Node16 -->
<g id="node17" class="node">
<title>Node16</title>
<g id="a_node17"><a xlink:href="classft_1_1irc_1_1processor__pass.html" target="_top" xlink:title=" ">
<polygon fill="white" stroke="black" points="162,-263 162,-282 284,-282 284,-263 162,-263"/>
<text text-anchor="middle" x="223" y="-270" font-family="Helvetica,sans-Serif" font-size="10.00">ft::irc::processor_pass</text>
</a>
</g>
</g>
<!-- Node0&#45;&gt;Node16 -->
<g id="edge16" class="edge">
<title>Node0&#45;&gt;Node16</title>
<path fill="none" stroke="midnightblue" d="M72.99,-389.86C88.49,-364 119.93,-317.49 159,-291.5 164.8,-287.64 171.42,-284.54 178.13,-282.06"/>
<polygon fill="midnightblue" stroke="midnightblue" points="69.86,-388.28 67.85,-398.68 75.91,-391.8 69.86,-388.28"/>
</g>
<!-- Node17 -->
<g id="node18" class="node">
<title>Node17</title>
<g id="a_node18"><a xlink:href="classft_1_1irc_1_1processor__quit.html" target="_top" xlink:title=" ">
<polygon fill="white" stroke="black" points="163.5,-225 163.5,-244 282.5,-244 282.5,-225 163.5,-225"/>
<text text-anchor="middle" x="223" y="-232" font-family="Helvetica,sans-Serif" font-size="10.00">ft::irc::processor_quit</text>
</a>
</g>
</g>
<!-- Node0&#45;&gt;Node17 -->
<g id="edge17" class="edge">
<title>Node0&#45;&gt;Node17</title>
<path fill="none" stroke="midnightblue" d="M69.34,-389.05C81.89,-356.18 111.74,-289.68 159,-253.5 164.08,-249.61 169.95,-246.51 176.03,-244.05"/>
<polygon fill="midnightblue" stroke="midnightblue" points="65.91,-388.22 65.74,-398.82 72.48,-390.64 65.91,-388.22"/>
</g>
<!-- Node18 -->
<g id="node19" class="node">
<title>Node18</title>
<g id="a_node19"><a xlink:href="classft_1_1irc_1_1processor__topic.html" target="_top" xlink:title=" ">
<polygon fill="white" stroke="black" points="175.5,-175.5 175.5,-205.5 270.5,-205.5 270.5,-175.5 175.5,-175.5"/>
<text text-anchor="start" x="183.5" y="-193.5" font-family="Helvetica,sans-Serif" font-size="10.00">ft::irc::processor</text>
<text text-anchor="middle" x="223" y="-182.5" font-family="Helvetica,sans-Serif" font-size="10.00">_topic</text>
</a>
</g>
</g>
<!-- Node0&#45;&gt;Node18 -->
<g id="edge18" class="edge">
<title>Node0&#45;&gt;Node18</title>
<path fill="none" stroke="midnightblue" d="M67.19,-389.13C77.42,-350.82 105.24,-264.83 159,-215.5 163.77,-211.12 169.4,-207.47 175.29,-204.44"/>
<polygon fill="midnightblue" stroke="midnightblue" points="63.76,-388.44 64.67,-399 70.54,-390.18 63.76,-388.44"/>
</g>
<!-- Node19 -->
<g id="node20" class="node">
<title>Node19</title>
<g id="a_node20"><a xlink:href="classft_1_1irc_1_1processor__user.html" target="_top" xlink:title=" ">
<polygon fill="white" stroke="black" points="162.5,-137 162.5,-156 283.5,-156 283.5,-137 162.5,-137"/>
<text text-anchor="middle" x="223" y="-144" font-family="Helvetica,sans-Serif" font-size="10.00">ft::irc::processor_user</text>
</a>
</g>
</g>
<!-- Node0&#45;&gt;Node19 -->
<g id="edge19" class="edge">
<title>Node0&#45;&gt;Node19</title>
<path fill="none" stroke="midnightblue" d="M64.56,-388.83C70.45,-342.84 91.5,-227.49 159,-165.5 163.21,-161.64 168.17,-158.56 173.44,-156.1"/>
<polygon fill="midnightblue" stroke="midnightblue" points="61.07,-388.61 63.38,-398.95 68.02,-389.43 61.07,-388.61"/>
</g>
<!-- Node20 -->
<g id="node21" class="node">
<title>Node20</title>
<g id="a_node21"><a xlink:href="classft_1_1irc_1_1processor__who.html" target="_top" xlink:title=" ">
<polygon fill="white" stroke="black" points="163,-99 163,-118 283,-118 283,-99 163,-99"/>
<text text-anchor="middle" x="223" y="-106" font-family="Helvetica,sans-Serif" font-size="10.00">ft::irc::processor_who</text>
</a>
</g>
</g>
<!-- Node0&#45;&gt;Node20 -->
<g id="edge20" class="edge">
<title>Node0&#45;&gt;Node20</title>
<path fill="none" stroke="midnightblue" d="M63.37,-388.59C66.69,-337.57 82.64,-201.02 159,-127.5 163.03,-123.62 167.83,-120.53 172.95,-118.06"/>
<polygon fill="midnightblue" stroke="midnightblue" points="59.86,-388.7 62.8,-398.88 66.85,-389.09 59.86,-388.7"/>
</g>
<!-- Node21 -->
<g id="node22" class="node">
<title>Node21</title>
<g id="a_node22"><a xlink:href="classft_1_1irc_1_1processor__whois.html" target="_top" xlink:title=" ">
<polygon fill="white" stroke="black" points="175.5,-49.5 175.5,-79.5 270.5,-79.5 270.5,-49.5 175.5,-49.5"/>
<text text-anchor="start" x="183.5" y="-67.5" font-family="Helvetica,sans-Serif" font-size="10.00">ft::irc::processor</text>
<text text-anchor="middle" x="223" y="-56.5" font-family="Helvetica,sans-Serif" font-size="10.00">_whois</text>
</a>
</g>
</g>
<!-- Node0&#45;&gt;Node21 -->
<g id="edge21" class="edge">
<title>Node0&#45;&gt;Node21</title>
<path fill="none" stroke="midnightblue" d="M62.8,-388.93C64.67,-334.3 77.29,-178.38 159,-89.5 163.54,-84.56 169.18,-80.58 175.21,-77.38"/>
<polygon fill="midnightblue" stroke="midnightblue" points="59.3,-388.9 62.54,-398.98 66.29,-389.08 59.3,-388.9"/>
</g>
<!-- Node22 -->
<g id="node23" class="node">
<title>Node22</title>
<g id="a_node23"><a xlink:href="classft_1_1irc_1_1processor__whowas.html" target="_top" xlink:title=" ">
<polygon fill="white" stroke="black" points="175.5,-0.5 175.5,-30.5 270.5,-30.5 270.5,-0.5 175.5,-0.5"/>
<text text-anchor="start" x="183.5" y="-18.5" font-family="Helvetica,sans-Serif" font-size="10.00">ft::irc::processor</text>
<text text-anchor="middle" x="223" y="-7.5" font-family="Helvetica,sans-Serif" font-size="10.00">_whowas</text>
</a>
</g>
</g>
<!-- Node0&#45;&gt;Node22 -->
<g id="edge22" class="edge">
<title>Node0&#45;&gt;Node22</title>
<path fill="none" stroke="midnightblue" d="M61.76,-388.67C60.6,-328.21 65.32,-143.91 159,-39.5 163.53,-34.45 169.25,-30.45 175.37,-27.29"/>
<polygon fill="midnightblue" stroke="midnightblue" points="58.26,-388.87 62.04,-398.77 65.26,-388.68 58.26,-388.87"/>
</g>
<!-- Node9 -->
<g id="node10" class="node">
<title>Node9</title>
<g id="a_node10"><a xlink:href="classft_1_1irc_1_1processor__notice.html" target="_top" xlink:title=" ">
<polygon fill="white" stroke="black" points="323,-527.5 323,-557.5 418,-557.5 418,-527.5 323,-527.5"/>
<text text-anchor="start" x="331" y="-545.5" font-family="Helvetica,sans-Serif" font-size="10.00">ft::irc::processor</text>
<text text-anchor="middle" x="370.5" y="-534.5" font-family="Helvetica,sans-Serif" font-size="10.00">_notice</text>
</a>
</g>
</g>
<!-- Node8&#45;&gt;Node9 -->
<g id="edge9" class="edge">
<title>Node8&#45;&gt;Node9</title>
<path fill="none" stroke="midnightblue" d="M280.78,-527.87C294.67,-530.16 309.39,-532.58 322.75,-534.79"/>
<polygon fill="midnightblue" stroke="midnightblue" points="281.27,-524.4 270.84,-526.23 280.14,-531.31 281.27,-524.4"/>
</g>
<!-- Node10 -->
<g id="node11" class="node">
<title>Node10</title>
<g id="a_node11"><a xlink:href="classft_1_1irc_1_1processor__privmsg.html" target="_top" xlink:title=" ">
<polygon fill="white" stroke="black" points="323,-478.5 323,-508.5 418,-508.5 418,-478.5 323,-478.5"/>
<text text-anchor="start" x="331" y="-496.5" font-family="Helvetica,sans-Serif" font-size="10.00">ft::irc::processor</text>
<text text-anchor="middle" x="370.5" y="-485.5" font-family="Helvetica,sans-Serif" font-size="10.00">_privmsg</text>
</a>
</g>
</g>
<!-- Node8&#45;&gt;Node10 -->
<g id="edge10" class="edge">
<title>Node8&#45;&gt;Node10</title>
<path fill="none" stroke="midnightblue" d="M280.78,-508.74C294.67,-506.36 309.39,-503.83 322.75,-501.53"/>
<polygon fill="midnightblue" stroke="midnightblue" points="280.1,-505.31 270.84,-510.45 281.29,-512.21 280.1,-505.31"/>
</g>
</g>
</svg>
