<?xml version="1.0" encoding="UTF-8" standalone="no"?>
<!DOCTYPE svg PUBLIC "-//W3C//DTD SVG 1.1//EN"
 "http://www.w3.org/Graphics/SVG/1.1/DTD/svg11.dtd">
<!-- Generated by graphviz version 2.43.0 (0)
 -->
<!-- Title: includes/libserv/logger.hpp Pages: 1 -->
<svg width="669pt" height="140pt"
 viewBox="0.00 0.00 668.50 140.00" xmlns="http://www.w3.org/2000/svg" xmlns:xlink="http://www.w3.org/1999/xlink">
<g id="graph0" class="graph" transform="scale(1 1) rotate(0) translate(4 136)">
<title>includes/libserv/logger.hpp</title>
<polygon fill="white" stroke="transparent" points="-4,4 -4,-136 664.5,-136 664.5,4 -4,4"/>
<!-- Node1 -->
<g id="node1" class="node">
<title>Node1</title>
<g id="a_node1"><a xlink:title=" ">
<polygon fill="#bfbfbf" stroke="black" points="316,-112.5 316,-131.5 463,-131.5 463,-112.5 316,-112.5"/>
<text text-anchor="middle" x="389.5" y="-119.5" font-family="Helvetica,sans-Serif" font-size="10.00">includes/libserv/logger.hpp</text>
</a>
</g>
</g>
<!-- Node2 -->
<g id="node2" class="node">
<title>Node2</title>
<g id="a_node2"><a xlink:href="serv__types_8hpp.html" target="_top" xlink:title=" ">
<polygon fill="white" stroke="black" points="65,-56.5 65,-75.5 156,-75.5 156,-56.5 65,-56.5"/>
<text text-anchor="middle" x="110.5" y="-63.5" font-family="Helvetica,sans-Serif" font-size="10.00">serv_types.hpp</text>
</a>
</g>
</g>
<!-- Node1&#45;&gt;Node2 -->
<g id="edge1" class="edge">
<title>Node1&#45;&gt;Node2</title>
<path fill="none" stroke="midnightblue" d="M345.29,-112.44C296.21,-102.94 216.99,-87.61 164.34,-77.42"/>
<polygon fill="midnightblue" stroke="midnightblue" points="164.98,-73.98 154.5,-75.52 163.65,-80.85 164.98,-73.98"/>
</g>
<!-- Node7 -->
<g id="node7" class="node">
<title>Node7</title>
<g id="a_node7"><a xlink:title=" ">
<polygon fill="white" stroke="#bfbfbf" points="174.5,-56.5 174.5,-75.5 242.5,-75.5 242.5,-56.5 174.5,-56.5"/>
<text text-anchor="middle" x="208.5" y="-63.5" font-family="Helvetica,sans-Serif" font-size="10.00">sys/time.h</text>
</a>
</g>
</g>
<!-- Node1&#45;&gt;Node7 -->
<g id="edge6" class="edge">
<title>Node1&#45;&gt;Node7</title>
<path fill="none" stroke="midnightblue" d="M360.82,-112.44C329.97,-103.24 280.77,-88.56 246.67,-78.39"/>
<polygon fill="midnightblue" stroke="midnightblue" points="247.63,-75.02 237.05,-75.52 245.63,-81.73 247.63,-75.02"/>
</g>
<!-- Node8 -->
<g id="node8" class="node">
<title>Node8</title>
<g id="a_node8"><a xlink:title=" ">
<polygon fill="white" stroke="#bfbfbf" points="261,-56.5 261,-75.5 314,-75.5 314,-56.5 261,-56.5"/>
<text text-anchor="middle" x="287.5" y="-63.5" font-family="Helvetica,sans-Serif" font-size="10.00">cstdarg</text>
</a>
</g>
</g>
<!-- Node1&#45;&gt;Node8 -->
<g id="edge7" class="edge">
<title>Node1&#45;&gt;Node8</title>
<path fill="none" stroke="midnightblue" d="M373.11,-112.32C356.83,-103.7 331.63,-90.36 312.78,-80.39"/>
<polygon fill="midnightblue" stroke="midnightblue" points="314.32,-77.24 303.85,-75.65 311.05,-83.43 314.32,-77.24"/>
</g>
<!-- Node9 -->
<g id="node9" class="node">
<title>Node9</title>
<g id="a_node9"><a xlink:title=" ">
<polygon fill="white" stroke="#bfbfbf" points="332.5,-56.5 332.5,-75.5 376.5,-75.5 376.5,-56.5 332.5,-56.5"/>
<text text-anchor="middle" x="354.5" y="-63.5" font-family="Helvetica,sans-Serif" font-size="10.00">ctime</text>
</a>
</g>
</g>
<!-- Node1&#45;&gt;Node9 -->
<g id="edge8" class="edge">
<title>Node1&#45;&gt;Node9</title>
<path fill="none" stroke="midnightblue" d="M383.72,-112.08C378.83,-104.53 371.67,-93.49 365.67,-84.23"/>
<polygon fill="midnightblue" stroke="midnightblue" points="368.55,-82.24 360.17,-75.75 362.67,-86.05 368.55,-82.24"/>
</g>
<!-- Node10 -->
<g id="node10" class="node">
<title>Node10</title>
<g id="a_node10"><a xlink:title=" ">
<polygon fill="white" stroke="#bfbfbf" points="394.5,-56.5 394.5,-75.5 454.5,-75.5 454.5,-56.5 394.5,-56.5"/>
<text text-anchor="middle" x="424.5" y="-63.5" font-family="Helvetica,sans-Serif" font-size="10.00">iostream</text>
</a>
</g>
</g>
<!-- Node1&#45;&gt;Node10 -->
<g id="edge9" class="edge">
<title>Node1&#45;&gt;Node10</title>
<path fill="none" stroke="midnightblue" d="M395.28,-112.08C400.17,-104.53 407.33,-93.49 413.33,-84.23"/>
<polygon fill="midnightblue" stroke="midnightblue" points="416.33,-86.05 418.83,-75.75 410.45,-82.24 416.33,-86.05"/>
</g>
<!-- Node11 -->
<g id="node11" class="node">
<title>Node11</title>
<g id="a_node11"><a xlink:title=" ">
<polygon fill="white" stroke="#bfbfbf" points="472.5,-56.5 472.5,-75.5 528.5,-75.5 528.5,-56.5 472.5,-56.5"/>
<text text-anchor="middle" x="500.5" y="-63.5" font-family="Helvetica,sans-Serif" font-size="10.00">sstream</text>
</a>
</g>
</g>
<!-- Node1&#45;&gt;Node11 -->
<g id="edge10" class="edge">
<title>Node1&#45;&gt;Node11</title>
<path fill="none" stroke="midnightblue" d="M407.33,-112.32C425.22,-103.62 452.98,-90.12 473.55,-80.11"/>
<polygon fill="midnightblue" stroke="midnightblue" points="475.25,-83.18 482.71,-75.65 472.19,-76.88 475.25,-83.18"/>
</g>
<!-- Node12 -->
<g id="node12" class="node">
<title>Node12</title>
<g id="a_node12"><a xlink:title=" ">
<polygon fill="white" stroke="#bfbfbf" points="546.5,-56.5 546.5,-75.5 590.5,-75.5 590.5,-56.5 546.5,-56.5"/>
<text text-anchor="middle" x="568.5" y="-63.5" font-family="Helvetica,sans-Serif" font-size="10.00">string</text>
</a>
</g>
</g>
<!-- Node1&#45;&gt;Node12 -->
<g id="edge11" class="edge">
<title>Node1&#45;&gt;Node12</title>
<path fill="none" stroke="midnightblue" d="M417.86,-112.44C450.2,-102.69 502.94,-86.78 536.67,-76.6"/>
<polygon fill="midnightblue" stroke="midnightblue" points="537.91,-79.88 546.48,-73.64 535.89,-73.18 537.91,-79.88"/>
</g>
<!-- Node13 -->
<g id="node13" class="node">
<title>Node13</title>
<g id="a_node13"><a xlink:title=" ">
<polygon fill="white" stroke="#bfbfbf" points="608.5,-56.5 608.5,-75.5 660.5,-75.5 660.5,-56.5 608.5,-56.5"/>
<text text-anchor="middle" x="634.5" y="-63.5" font-family="Helvetica,sans-Serif" font-size="10.00">cassert</text>
</a>
</g>
</g>
<!-- Node1&#45;&gt;Node13 -->
<g id="edge12" class="edge">
<title>Node1&#45;&gt;Node13</title>
<path fill="none" stroke="midnightblue" d="M431.85,-112.45C472.27,-104.18 535.1,-91 598.41,-76.19"/>
<polygon fill="midnightblue" stroke="midnightblue" points="599.22,-79.59 608.16,-73.9 597.62,-72.78 599.22,-79.59"/>
</g>
<!-- Node3 -->
<g id="node3" class="node">
<title>Node3</title>
<g id="a_node3"><a xlink:title=" ">
<polygon fill="white" stroke="#bfbfbf" points="0,-0.5 0,-19.5 47,-19.5 47,-0.5 0,-0.5"/>
<text text-anchor="middle" x="23.5" y="-7.5" font-family="Helvetica,sans-Serif" font-size="10.00">deque</text>
</a>
</g>
</g>
<!-- Node2&#45;&gt;Node3 -->
<g id="edge2" class="edge">
<title>Node2&#45;&gt;Node3</title>
<path fill="none" stroke="midnightblue" d="M96.52,-56.32C82.95,-47.9 62.12,-34.97 46.18,-25.07"/>
<polygon fill="midnightblue" stroke="midnightblue" points="47.79,-21.95 37.44,-19.65 44.09,-27.9 47.79,-21.95"/>
</g>
<!-- Node4 -->
<g id="node4" class="node">
<title>Node4</title>
<g id="a_node4"><a xlink:title=" ">
<polygon fill="white" stroke="#bfbfbf" points="65.5,-0.5 65.5,-19.5 103.5,-19.5 103.5,-0.5 65.5,-0.5"/>
<text text-anchor="middle" x="84.5" y="-7.5" font-family="Helvetica,sans-Serif" font-size="10.00">map</text>
</a>
</g>
</g>
<!-- Node2&#45;&gt;Node4 -->
<g id="edge3" class="edge">
<title>Node2&#45;&gt;Node4</title>
<path fill="none" stroke="midnightblue" d="M106.21,-56.08C102.65,-48.69 97.48,-37.95 93.08,-28.81"/>
<polygon fill="midnightblue" stroke="midnightblue" points="96.21,-27.24 88.71,-19.75 89.9,-30.28 96.21,-27.24"/>
</g>
<!-- Node5 -->
<g id="node5" class="node">
<title>Node5</title>
<g id="a_node5"><a xlink:title=" ">
<polygon fill="white" stroke="#bfbfbf" points="121.5,-0.5 121.5,-19.5 153.5,-19.5 153.5,-0.5 121.5,-0.5"/>
<text text-anchor="middle" x="137.5" y="-7.5" font-family="Helvetica,sans-Serif" font-size="10.00">set</text>
</a>
</g>
</g>
<!-- Node2&#45;&gt;Node5 -->
<g id="edge4" class="edge">
<title>Node2&#45;&gt;Node5</title>
<path fill="none" stroke="midnightblue" d="M114.96,-56.08C118.65,-48.69 124.02,-37.95 128.59,-28.81"/>
<polygon fill="midnightblue" stroke="midnightblue" points="131.78,-30.26 133.12,-19.75 125.52,-27.13 131.78,-30.26"/>
</g>
<!-- Node6 -->
<g id="node6" class="node">
<title>Node6</title>
<g id="a_node6"><a xlink:title=" ">
<polygon fill="white" stroke="#bfbfbf" points="172,-0.5 172,-19.5 219,-19.5 219,-0.5 172,-0.5"/>
<text text-anchor="middle" x="195.5" y="-7.5" font-family="Helvetica,sans-Serif" font-size="10.00">vector</text>
</a>
</g>
</g>
<!-- Node2&#45;&gt;Node6 -->
<g id="edge5" class="edge">
<title>Node2&#45;&gt;Node6</title>
<path fill="none" stroke="midnightblue" d="M124.16,-56.32C137.42,-47.9 157.77,-34.97 173.35,-25.07"/>
<polygon fill="midnightblue" stroke="midnightblue" points="175.31,-27.97 181.88,-19.65 171.56,-22.06 175.31,-27.97"/>
</g>
</g>
</svg>
