<?xml version="1.0" encoding="UTF-8" standalone="no"?>
<!DOCTYPE svg PUBLIC "-//W3C//DTD SVG 1.1//EN"
 "http://www.w3.org/Graphics/SVG/1.1/DTD/svg11.dtd">
<!-- Generated by graphviz version 2.43.0 (0)
 -->
<!-- Title: main Pages: 1 -->
<svg width="694pt" height="473pt"
 viewBox="0.00 0.00 694.00 472.50" xmlns="http://www.w3.org/2000/svg" xmlns:xlink="http://www.w3.org/1999/xlink">
<g id="graph0" class="graph" transform="scale(1 1) rotate(0) translate(4 468.5)">
<title>main</title>
<polygon fill="white" stroke="transparent" points="-4,4 -4,-468.5 690,-468.5 690,4 -4,4"/>
<!-- Node1 -->
<g id="node1" class="node">
<title>Node1</title>
<g id="a_node1"><a xlink:title=" ">
<polygon fill="#bfbfbf" stroke="black" points="0,-287 0,-306 41,-306 41,-287 0,-287"/>
<text text-anchor="middle" x="20.5" y="-294" font-family="Helvetica,sans-Serif" font-size="10.00">main</text>
</a>
</g>
</g>
<!-- Node2 -->
<g id="node2" class="node">
<title>Node2</title>
<g id="a_node2"><a xlink:href="namespaceft_1_1irc.html#aa1775a5000d1e48b0418ea5a01f71b87" target="_top" xlink:title=" ">
<polygon fill="white" stroke="black" points="80,-445 80,-464 196,-464 196,-445 80,-445"/>
<text text-anchor="middle" x="138" y="-452" font-family="Helvetica,sans-Serif" font-size="10.00">ft::irc::_make_server</text>
</a>
</g>
</g>
<!-- Node1&#45;&gt;Node2 -->
<g id="edge1" class="edge">
<title>Node1&#45;&gt;Node2</title>
<path fill="none" stroke="midnightblue" d="M22.54,-306.17C25.75,-331.26 37.79,-399.06 77,-435.5 78.69,-437.07 80.51,-438.51 82.43,-439.83"/>
<polygon fill="midnightblue" stroke="midnightblue" points="80.93,-443.01 91.35,-444.9 84.38,-436.92 80.93,-443.01"/>
</g>
<!-- Node3 -->
<g id="node3" class="node">
<title>Node3</title>
<g id="a_node3"><a xlink:href="main_8cpp.html#a4b8f6bfb370734d9097623adf02d499d" target="_top" xlink:title=" ">
<polygon fill="white" stroke="black" points="104,-407 104,-426 172,-426 172,-407 104,-407"/>
<text text-anchor="middle" x="138" y="-414" font-family="Helvetica,sans-Serif" font-size="10.00">_on_signal</text>
</a>
</g>
</g>
<!-- Node1&#45;&gt;Node3 -->
<g id="edge2" class="edge">
<title>Node1&#45;&gt;Node3</title>
<path fill="none" stroke="midnightblue" d="M24.62,-306.07C31.27,-325.09 48.62,-367.93 77,-392.5 82.19,-396.99 88.32,-400.7 94.65,-403.76"/>
<polygon fill="midnightblue" stroke="midnightblue" points="93.4,-407.03 103.97,-407.77 96.17,-400.6 93.4,-407.03"/>
</g>
<!-- Node4 -->
<g id="node4" class="node">
<title>Node4</title>
<g id="a_node4"><a xlink:href="structft_1_1serv_1_1logger.html#aeb3f8c326c1e3b607121cf351df5fb55" target="_top" xlink:title=" ">
<polygon fill="white" stroke="black" points="235,-369 235,-388 351,-388 351,-369 235,-369"/>
<text text-anchor="middle" x="293" y="-376" font-family="Helvetica,sans-Serif" font-size="10.00">ft::serv::logger::warn</text>
</a>
</g>
</g>
<!-- Node1&#45;&gt;Node4 -->
<g id="edge24" class="edge">
<title>Node1&#45;&gt;Node4</title>
<path fill="none" stroke="midnightblue" d="M29.84,-306.19C39.85,-317.15 57.74,-334.62 77,-343.5 123.52,-364.95 181,-373.5 224.82,-376.79"/>
<polygon fill="midnightblue" stroke="midnightblue" points="224.58,-380.29 234.8,-377.47 225.06,-373.3 224.58,-380.29"/>
</g>
<!-- Node8 -->
<g id="node8" class="node">
<title>Node8</title>
<g id="a_node8"><a xlink:href="structft_1_1serv_1_1logger.html#a27e4ab1c4bf29bd34bb166a3ecd76449" target="_top" xlink:title=" ">
<polygon fill="white" stroke="black" points="235,-331 235,-350 351,-350 351,-331 235,-331"/>
<text text-anchor="middle" x="293" y="-338" font-family="Helvetica,sans-Serif" font-size="10.00">ft::serv::logger::error</text>
</a>
</g>
</g>
<!-- Node1&#45;&gt;Node8 -->
<g id="edge7" class="edge">
<title>Node1&#45;&gt;Node8</title>
<path fill="none" stroke="midnightblue" d="M38.94,-306.18C49.6,-311.63 63.71,-318.03 77,-321.5 125.5,-334.18 182.02,-338.79 224.94,-340.31"/>
<polygon fill="midnightblue" stroke="midnightblue" points="224.88,-343.81 234.98,-340.62 225.1,-336.82 224.88,-343.81"/>
</g>
<!-- Node9 -->
<g id="node9" class="node">
<title>Node9</title>
<g id="a_node9"><a xlink:href="classft_1_1serv_1_1bootstrap.html#a9b94aedd9970843c6c049f19cebaf7fe" target="_top" xlink:title=" ">
<polygon fill="white" stroke="black" points="87,-281.5 87,-311.5 189,-311.5 189,-281.5 87,-281.5"/>
<text text-anchor="start" x="95" y="-299.5" font-family="Helvetica,sans-Serif" font-size="10.00">ft::serv::bootstrap</text>
<text text-anchor="middle" x="138" y="-288.5" font-family="Helvetica,sans-Serif" font-size="10.00">::finalize</text>
</a>
</g>
</g>
<!-- Node1&#45;&gt;Node9 -->
<g id="edge9" class="edge">
<title>Node1&#45;&gt;Node9</title>
<path fill="none" stroke="midnightblue" d="M41.09,-296.5C51.05,-296.5 63.74,-296.5 76.6,-296.5"/>
<polygon fill="midnightblue" stroke="midnightblue" points="76.91,-300 86.91,-296.5 76.91,-293 76.91,-300"/>
</g>
<!-- Node10 -->
<g id="node10" class="node">
<title>Node10</title>
<g id="a_node10"><a xlink:href="structft_1_1serv_1_1logger.html#aed47352d1c3f60ac9f99929dcc7498d5" target="_top" xlink:title=" ">
<polygon fill="white" stroke="black" points="82.5,-243 82.5,-262 193.5,-262 193.5,-243 82.5,-243"/>
<text text-anchor="middle" x="138" y="-250" font-family="Helvetica,sans-Serif" font-size="10.00">ft::serv::logger::info</text>
</a>
</g>
</g>
<!-- Node1&#45;&gt;Node10 -->
<g id="edge10" class="edge">
<title>Node1&#45;&gt;Node10</title>
<path fill="none" stroke="midnightblue" d="M41.11,-287.53C51.65,-282.83 64.94,-277.11 77,-272.5 83.41,-270.05 90.26,-267.61 96.97,-265.31"/>
<polygon fill="midnightblue" stroke="midnightblue" points="98.24,-268.57 106.6,-262.07 96.01,-261.94 98.24,-268.57"/>
</g>
<!-- Node11 -->
<g id="node11" class="node">
<title>Node11</title>
<g id="a_node11"><a xlink:href="classft_1_1serv_1_1bootstrap.html#aa6e5ff5dc242e571b22a4625e4ad8f5f" target="_top" xlink:title=" ">
<polygon fill="white" stroke="black" points="87,-193.5 87,-223.5 189,-223.5 189,-193.5 87,-193.5"/>
<text text-anchor="start" x="95" y="-211.5" font-family="Helvetica,sans-Serif" font-size="10.00">ft::serv::bootstrap</text>
<text text-anchor="middle" x="138" y="-200.5" font-family="Helvetica,sans-Serif" font-size="10.00">::set_success</text>
</a>
</g>
</g>
<!-- Node1&#45;&gt;Node11 -->
<g id="edge12" class="edge">
<title>Node1&#45;&gt;Node11</title>
<path fill="none" stroke="midnightblue" d="M27.94,-286.73C37.32,-273.17 55.91,-248.61 77,-233.5 79.53,-231.69 82.22,-229.97 84.99,-228.36"/>
<polygon fill="midnightblue" stroke="midnightblue" points="86.88,-231.32 94.08,-223.54 83.6,-225.13 86.88,-231.32"/>
</g>
<!-- Node12 -->
<g id="node12" class="node">
<title>Node12</title>
<g id="a_node12"><a xlink:href="classft_1_1serv_1_1bootstrap.html#a61642849334859472e690b615dc6fdeb" target="_top" xlink:title=" ">
<polygon fill="white" stroke="black" points="87,-144.5 87,-174.5 189,-174.5 189,-144.5 87,-144.5"/>
<text text-anchor="start" x="95" y="-162.5" font-family="Helvetica,sans-Serif" font-size="10.00">ft::serv::bootstrap</text>
<text text-anchor="middle" x="138" y="-151.5" font-family="Helvetica,sans-Serif" font-size="10.00">::start_server</text>
</a>
</g>
</g>
<!-- Node1&#45;&gt;Node12 -->
<g id="edge13" class="edge">
<title>Node1&#45;&gt;Node12</title>
<path fill="none" stroke="midnightblue" d="M23.84,-286.71C29.43,-265.32 45.48,-214.02 77,-184.5 78.67,-182.93 80.46,-181.46 82.33,-180.07"/>
<polygon fill="midnightblue" stroke="midnightblue" points="84.45,-182.87 90.97,-174.52 80.67,-176.98 84.45,-182.87"/>
</g>
<!-- Node23 -->
<g id="node23" class="node">
<title>Node23</title>
<g id="a_node23"><a xlink:href="classft_1_1serv_1_1syscall__failed.html#a75eee00e267e027bb79a3de94a408bf1" target="_top" xlink:title=" ">
<polygon fill="white" stroke="black" points="77,-95.5 77,-125.5 199,-125.5 199,-95.5 77,-95.5"/>
<text text-anchor="start" x="85" y="-113.5" font-family="Helvetica,sans-Serif" font-size="10.00">ft::serv::syscall_failed</text>
<text text-anchor="middle" x="138" y="-102.5" font-family="Helvetica,sans-Serif" font-size="10.00">::what</text>
</a>
</g>
</g>
<!-- Node1&#45;&gt;Node23 -->
<g id="edge25" class="edge">
<title>Node1&#45;&gt;Node23</title>
<path fill="none" stroke="midnightblue" d="M22.15,-286.77C24.48,-259.35 34.7,-180.54 77,-135.5 78.36,-134.05 79.82,-132.68 81.36,-131.39"/>
<polygon fill="midnightblue" stroke="midnightblue" points="83.45,-134.19 89.58,-125.55 79.4,-128.48 83.45,-134.19"/>
</g>
<!-- Node3&#45;&gt;Node4 -->
<g id="edge3" class="edge">
<title>Node3&#45;&gt;Node4</title>
<path fill="none" stroke="midnightblue" d="M172.2,-408.25C193.19,-403.04 220.67,-396.21 244.02,-390.42"/>
<polygon fill="midnightblue" stroke="midnightblue" points="244.88,-393.81 253.74,-388 243.19,-387.02 244.88,-393.81"/>
</g>
<!-- Node5 -->
<g id="node5" class="node">
<title>Node5</title>
<g id="a_node5"><a xlink:href="namespaceft_1_1serv_1_1__internal.html#a4dfb80be7b817fc0ee18658f313a6274" target="_top" xlink:title=" ">
<polygon fill="white" stroke="black" points="397.5,-325.5 397.5,-355.5 495.5,-355.5 495.5,-325.5 397.5,-325.5"/>
<text text-anchor="start" x="405.5" y="-343.5" font-family="Helvetica,sans-Serif" font-size="10.00">ft::serv::_internal</text>
<text text-anchor="middle" x="446.5" y="-332.5" font-family="Helvetica,sans-Serif" font-size="10.00">::print</text>
</a>
</g>
</g>
<!-- Node4&#45;&gt;Node5 -->
<g id="edge4" class="edge">
<title>Node4&#45;&gt;Node5</title>
<path fill="none" stroke="midnightblue" d="M332.23,-368.91C349.02,-364.7 369.11,-359.66 387.67,-355.01"/>
<polygon fill="midnightblue" stroke="midnightblue" points="388.65,-358.37 397.5,-352.54 386.95,-351.58 388.65,-358.37"/>
</g>
<!-- Node6 -->
<g id="node6" class="node">
<title>Node6</title>
<g id="a_node6"><a xlink:href="namespaceft_1_1serv_1_1__internal.html#aff49349b58dc84fa69076e9cd27a1db4" target="_top" xlink:title=" ">
<polygon fill="white" stroke="black" points="542,-349.5 542,-379.5 686,-379.5 686,-349.5 542,-349.5"/>
<text text-anchor="start" x="550" y="-367.5" font-family="Helvetica,sans-Serif" font-size="10.00">ft::serv::_internal</text>
<text text-anchor="middle" x="614" y="-356.5" font-family="Helvetica,sans-Serif" font-size="10.00">::make_format_string_line</text>
</a>
</g>
</g>
<!-- Node5&#45;&gt;Node6 -->
<g id="edge5" class="edge">
<title>Node5&#45;&gt;Node6</title>
<path fill="none" stroke="midnightblue" d="M495.81,-347.51C507.07,-349.14 519.36,-350.92 531.61,-352.7"/>
<polygon fill="midnightblue" stroke="midnightblue" points="531.47,-356.21 541.87,-354.18 532.47,-349.29 531.47,-356.21"/>
</g>
<!-- Node7 -->
<g id="node7" class="node">
<title>Node7</title>
<g id="a_node7"><a xlink:href="namespaceft_1_1serv_1_1__internal.html#aad4af39d62c2b1687b0bef7a91bf6c60" target="_top" xlink:title=" ">
<polygon fill="white" stroke="black" points="562.5,-300.5 562.5,-330.5 665.5,-330.5 665.5,-300.5 562.5,-300.5"/>
<text text-anchor="start" x="570.5" y="-318.5" font-family="Helvetica,sans-Serif" font-size="10.00">ft::serv::_internal</text>
<text text-anchor="middle" x="614" y="-307.5" font-family="Helvetica,sans-Serif" font-size="10.00">::make_utc_string</text>
</a>
</g>
</g>
<!-- Node5&#45;&gt;Node7 -->
<g id="edge6" class="edge">
<title>Node5&#45;&gt;Node7</title>
<path fill="none" stroke="midnightblue" d="M495.81,-333.2C513.44,-330.54 533.61,-327.49 552.19,-324.69"/>
<polygon fill="midnightblue" stroke="midnightblue" points="552.96,-328.11 562.32,-323.16 551.91,-321.19 552.96,-328.11"/>
</g>
<!-- Node8&#45;&gt;Node5 -->
<g id="edge8" class="edge">
<title>Node8&#45;&gt;Node5</title>
<path fill="none" stroke="midnightblue" d="M351.28,-340.5C362.94,-340.5 375.23,-340.5 386.94,-340.5"/>
<polygon fill="midnightblue" stroke="midnightblue" points="387.05,-344 397.05,-340.5 387.05,-337 387.05,-344"/>
</g>
<!-- Node10&#45;&gt;Node5 -->
<g id="edge11" class="edge">
<title>Node10&#45;&gt;Node5</title>
<path fill="none" stroke="midnightblue" d="M172.09,-262C223.59,-276.79 323.61,-305.5 387.34,-323.8"/>
<polygon fill="midnightblue" stroke="midnightblue" points="386.67,-327.25 397.25,-326.65 388.6,-320.52 386.67,-327.25"/>
</g>
<!-- Node13 -->
<g id="node13" class="node">
<title>Node13</title>
<g id="a_node13"><a xlink:href="bootstrap_8cpp.html#acf03e66a45bc7cc346d17d294290c024" target="_top" xlink:title=" ">
<polygon fill="white" stroke="black" points="241,-246 241,-265 345,-265 345,-246 241,-246"/>
<text text-anchor="middle" x="293" y="-253" font-family="Helvetica,sans-Serif" font-size="10.00">_to_c_str_nullable</text>
</a>
</g>
</g>
<!-- Node12&#45;&gt;Node13 -->
<g id="edge14" class="edge">
<title>Node12&#45;&gt;Node13</title>
<path fill="none" stroke="midnightblue" d="M183.58,-174.63C189.05,-177.46 194.35,-180.74 199,-184.5 220.86,-202.18 212.51,-219.63 235,-236.5 237.51,-238.38 240.21,-240.08 243.03,-241.62"/>
<polygon fill="midnightblue" stroke="midnightblue" points="241.79,-244.9 252.32,-245.99 244.76,-238.57 241.79,-244.9"/>
</g>
<!-- Node14 -->
<g id="node14" class="node">
<title>Node14</title>
<g id="a_node14"><a xlink:href="structft_1_1serv_1_1socket__utils.html#a6ad8ff64c40ce8341bee05803ca0b2bd" target="_top" xlink:title=" ">
<polygon fill="white" stroke="black" points="236.5,-196.5 236.5,-226.5 349.5,-226.5 349.5,-196.5 236.5,-196.5"/>
<text text-anchor="start" x="244.5" y="-214.5" font-family="Helvetica,sans-Serif" font-size="10.00">ft::serv::socket_utils</text>
<text text-anchor="middle" x="293" y="-203.5" font-family="Helvetica,sans-Serif" font-size="10.00">::bind_socket</text>
</a>
</g>
</g>
<!-- Node12&#45;&gt;Node14 -->
<g id="edge15" class="edge">
<title>Node12&#45;&gt;Node14</title>
<path fill="none" stroke="midnightblue" d="M183.25,-174.54C200.38,-180.36 220.15,-187.08 238.09,-193.18"/>
<polygon fill="midnightblue" stroke="midnightblue" points="237.25,-196.59 247.85,-196.49 239.5,-189.96 237.25,-196.59"/>
</g>
<!-- Node18 -->
<g id="node18" class="node">
<title>Node18</title>
<g id="a_node18"><a xlink:href="structft_1_1serv_1_1socket__utils.html#ad0dccc18b1c71b736ffcd2328c3f3ccd" target="_top" xlink:title=" ">
<polygon fill="white" stroke="black" points="236.5,-147.5 236.5,-177.5 349.5,-177.5 349.5,-147.5 236.5,-147.5"/>
<text text-anchor="start" x="244.5" y="-165.5" font-family="Helvetica,sans-Serif" font-size="10.00">ft::serv::socket_utils</text>
<text text-anchor="middle" x="293" y="-154.5" font-family="Helvetica,sans-Serif" font-size="10.00">::close_socket</text>
</a>
</g>
</g>
<!-- Node12&#45;&gt;Node18 -->
<g id="edge19" class="edge">
<title>Node12&#45;&gt;Node18</title>
<path fill="none" stroke="midnightblue" d="M189.1,-160.48C200.94,-160.71 213.75,-160.97 226.18,-161.21"/>
<polygon fill="midnightblue" stroke="midnightblue" points="226.43,-164.71 236.5,-161.41 226.57,-157.72 226.43,-164.71"/>
</g>
<!-- Node19 -->
<g id="node19" class="node">
<title>Node19</title>
<g id="a_node19"><a xlink:href="structft_1_1serv_1_1socket__utils.html#af0c7d126407d94cc7a1b083141ff2388" target="_top" xlink:title=" ">
<polygon fill="white" stroke="black" points="236.5,-98.5 236.5,-128.5 349.5,-128.5 349.5,-98.5 236.5,-98.5"/>
<text text-anchor="start" x="244.5" y="-116.5" font-family="Helvetica,sans-Serif" font-size="10.00">ft::serv::socket_utils</text>
<text text-anchor="middle" x="293" y="-105.5" font-family="Helvetica,sans-Serif" font-size="10.00">::listen_socket</text>
</a>
</g>
</g>
<!-- Node12&#45;&gt;Node19 -->
<g id="edge20" class="edge">
<title>Node12&#45;&gt;Node19</title>
<path fill="none" stroke="midnightblue" d="M189.1,-144.44C202.91,-140.29 218.02,-135.74 232.31,-131.44"/>
<polygon fill="midnightblue" stroke="midnightblue" points="233.48,-134.75 242.05,-128.52 231.47,-128.04 233.48,-134.75"/>
</g>
<!-- Node20 -->
<g id="node20" class="node">
<title>Node20</title>
<g id="a_node20"><a xlink:href="structft_1_1serv_1_1socket__utils.html#af26c480a74e72a232aca84cd17e2de61" target="_top" xlink:title=" ">
<polygon fill="white" stroke="black" points="236.5,-49.5 236.5,-79.5 349.5,-79.5 349.5,-49.5 236.5,-49.5"/>
<text text-anchor="start" x="244.5" y="-67.5" font-family="Helvetica,sans-Serif" font-size="10.00">ft::serv::socket_utils</text>
<text text-anchor="middle" x="293" y="-56.5" font-family="Helvetica,sans-Serif" font-size="10.00">::name_socket</text>
</a>
</g>
</g>
<!-- Node12&#45;&gt;Node20 -->
<g id="edge21" class="edge">
<title>Node12&#45;&gt;Node20</title>
<path fill="none" stroke="midnightblue" d="M184.35,-144.47C189.52,-141.87 194.53,-138.89 199,-135.5 219.97,-119.6 214.18,-104.59 235,-88.5 236.76,-87.14 238.61,-85.84 240.52,-84.61"/>
<polygon fill="midnightblue" stroke="midnightblue" points="242.31,-87.61 249.22,-79.58 238.81,-81.55 242.31,-87.61"/>
</g>
<!-- Node22 -->
<g id="node22" class="node">
<title>Node22</title>
<g id="a_node22"><a xlink:href="structft_1_1serv_1_1socket__utils.html#a818575bfd7756e64e4226b85a7492bc7" target="_top" xlink:title=" ">
<polygon fill="white" stroke="black" points="236.5,-0.5 236.5,-30.5 349.5,-30.5 349.5,-0.5 236.5,-0.5"/>
<text text-anchor="start" x="244.5" y="-18.5" font-family="Helvetica,sans-Serif" font-size="10.00">ft::serv::socket_utils</text>
<text text-anchor="middle" x="293" y="-7.5" font-family="Helvetica,sans-Serif" font-size="10.00">::set_nonblocking</text>
</a>
</g>
</g>
<!-- Node12&#45;&gt;Node22 -->
<g id="edge23" class="edge">
<title>Node12&#45;&gt;Node22</title>
<path fill="none" stroke="midnightblue" d="M187.48,-144.47C191.69,-141.91 195.63,-138.95 199,-135.5 230.87,-102.93 203.43,-72.36 235,-39.5 235.92,-38.54 236.89,-37.62 237.89,-36.73"/>
<polygon fill="midnightblue" stroke="midnightblue" points="240.23,-39.36 246.21,-30.61 236.08,-33.72 240.23,-39.36"/>
</g>
<!-- Node15 -->
<g id="node15" class="node">
<title>Node15</title>
<g id="a_node15"><a xlink:href="structft_1_1serv_1_1socket__utils.html#af1553b9c3e9cdc5e38f7ecf6c10fb3c1" target="_top" xlink:title=" ">
<polygon fill="white" stroke="black" points="390,-220.5 390,-250.5 503,-250.5 503,-220.5 390,-220.5"/>
<text text-anchor="start" x="398" y="-238.5" font-family="Helvetica,sans-Serif" font-size="10.00">ft::serv::socket_utils</text>
<text text-anchor="middle" x="446.5" y="-227.5" font-family="Helvetica,sans-Serif" font-size="10.00">::forward_lookup</text>
</a>
</g>
</g>
<!-- Node14&#45;&gt;Node15 -->
<g id="edge16" class="edge">
<title>Node14&#45;&gt;Node15</title>
<path fill="none" stroke="midnightblue" d="M349.55,-220.3C359.43,-221.87 369.81,-223.51 379.94,-225.11"/>
<polygon fill="midnightblue" stroke="midnightblue" points="379.53,-228.59 389.95,-226.7 380.62,-221.68 379.53,-228.59"/>
</g>
<!-- Node17 -->
<g id="node17" class="node">
<title>Node17</title>
<g id="a_node17"><a xlink:href="structft_1_1serv_1_1socket__utils.html#a579854fb614efa2584ff58edb79974f1" target="_top" xlink:title=" ">
<polygon fill="white" stroke="black" points="387,-171.5 387,-201.5 506,-201.5 506,-171.5 387,-171.5"/>
<text text-anchor="start" x="395" y="-189.5" font-family="Helvetica,sans-Serif" font-size="10.00">ft::serv::socket_utils</text>
<text text-anchor="middle" x="446.5" y="-178.5" font-family="Helvetica,sans-Serif" font-size="10.00">::reuse_address_bind</text>
</a>
</g>
</g>
<!-- Node14&#45;&gt;Node17 -->
<g id="edge18" class="edge">
<title>Node14&#45;&gt;Node17</title>
<path fill="none" stroke="midnightblue" d="M349.55,-202.33C358.48,-200.86 367.82,-199.32 377.01,-197.8"/>
<polygon fill="midnightblue" stroke="midnightblue" points="377.6,-201.25 386.9,-196.17 376.46,-194.35 377.6,-201.25"/>
</g>
<!-- Node16 -->
<g id="node16" class="node">
<title>Node16</title>
<g id="a_node16"><a xlink:href="classft_1_1serv_1_1__internal_1_1ai__failed.html#ad3aa900794508d370ef6e1b3c104a39e" target="_top" xlink:title=" ">
<polygon fill="white" stroke="black" points="565,-220.5 565,-250.5 663,-250.5 663,-220.5 565,-220.5"/>
<text text-anchor="start" x="573" y="-238.5" font-family="Helvetica,sans-Serif" font-size="10.00">ft::serv::_internal</text>
<text text-anchor="middle" x="614" y="-227.5" font-family="Helvetica,sans-Serif" font-size="10.00">::ai_failed::error</text>
</a>
</g>
</g>
<!-- Node15&#45;&gt;Node16 -->
<g id="edge17" class="edge">
<title>Node15&#45;&gt;Node16</title>
<path fill="none" stroke="midnightblue" d="M503.07,-235.5C519.63,-235.5 537.83,-235.5 554.57,-235.5"/>
<polygon fill="midnightblue" stroke="midnightblue" points="554.78,-239 564.78,-235.5 554.78,-232 554.78,-239"/>
</g>
<!-- Node21 -->
<g id="node21" class="node">
<title>Node21</title>
<g id="a_node21"><a xlink:href="structft_1_1serv_1_1socket__utils.html#aef0594e2d9bdc8b8e15bcab89950e093" target="_top" xlink:title=" ">
<polygon fill="white" stroke="black" points="390,-49.5 390,-79.5 503,-79.5 503,-49.5 390,-49.5"/>
<text text-anchor="start" x="398" y="-67.5" font-family="Helvetica,sans-Serif" font-size="10.00">ft::serv::socket_utils</text>
<text text-anchor="middle" x="446.5" y="-56.5" font-family="Helvetica,sans-Serif" font-size="10.00">::reverse_lookup</text>
</a>
</g>
</g>
<!-- Node20&#45;&gt;Node21 -->
<g id="edge22" class="edge">
<title>Node20&#45;&gt;Node21</title>
<path fill="none" stroke="midnightblue" d="M349.55,-64.5C359.43,-64.5 369.81,-64.5 379.94,-64.5"/>
<polygon fill="midnightblue" stroke="midnightblue" points="379.95,-68 389.95,-64.5 379.95,-61 379.95,-68"/>
</g>
</g>
</svg>
