<?xml version="1.0" encoding="UTF-8" standalone="no"?>
<!DOCTYPE svg PUBLIC "-//W3C//DTD SVG 1.1//EN"
 "http://www.w3.org/Graphics/SVG/1.1/DTD/svg11.dtd">
<!-- Generated by graphviz version 2.43.0 (0)
 -->
<!-- Title: main Pages: 1 -->
<!--zoomable 259 -->
<svg id="main" version="1.1" xmlns="http://www.w3.org/2000/svg" xmlns:xlink="http://www.w3.org/1999/xlink" xml:space="preserve" onload="init(evt)">
<style type="text/css"><![CDATA[
.edge:hover path { stroke: red; }
.edge:hover polygon { stroke: red; fill: red; }
]]></style>
<script type="text/javascript"><![CDATA[
var edges = document.getElementsByTagName('g');
if (edges && edges.length) {
  for (var i=0;i<edges.length;i++) {
    if (edges[i].id.substr(0,4)=='edge') {
      edges[i].setAttribute('class','edge');
    }
  }
}
]]></script>
        <defs>
                <circle id="rim" cx="0" cy="0" r="7"/>
                <circle id="rim2" cx="0" cy="0" r="3.5"/>
                <g id="zoomPlus">
                        <use xlink:href="#rim" fill="#404040">
                                <set attributeName="fill" to="#808080" begin="zoomplus.mouseover" end="zoomplus.mouseout"/>
                        </use>
                        <path d="M-4,0h8M0,-4v8" fill="none" stroke="white" stroke-width="1.5" pointer-events="none"/>
                </g>
                <g id="zoomMin">
                        <use xlink:href="#rim" fill="#404040">
                                <set attributeName="fill" to="#808080" begin="zoomminus.mouseover" end="zoomminus.mouseout"/>
                        </use>
                        <path d="M-4,0h8" fill="none" stroke="white" stroke-width="1.5" pointer-events="none"/>
                </g>
                <g id="dirArrow">
                        <path fill="none" stroke="white" stroke-width="1.5" d="M0,-3.0v7 M-2.5,-0.5L0,-3.0L2.5,-0.5"/>
                </g>
               <g id="resetDef">
                       <use xlink:href="#rim2" fill="#404040">
                               <set attributeName="fill" to="#808080" begin="reset.mouseover" end="reset.mouseout"/>
                       </use>
               </g>
        </defs>

<script type="text/javascript">
var viewWidth = 645;
var viewHeight = 259;
var sectionId = 'dynsection-1';
</script>
<script xlink:href="svgpan.js"/>
<svg id="graph" class="graph">
<g id="viewport">
<title>main</title>
<polygon fill="white" stroke="transparent" points="-4,4 -4,-255 641,-255 641,4 -4,4"/>
<!-- Node1 -->
<g id="node1" class="node">
<title>Node1</title>
<g id="a_node1"><a xlink:title=" ">
<polygon fill="#bfbfbf" stroke="black" points="0,-104 0,-123 41,-123 41,-104 0,-104"/>
<text text-anchor="middle" x="20.5" y="-111" font-family="Helvetica,sans-Serif" font-size="10.00">main</text>
</a>
</g>
</g>
<!-- Node2 -->
<g id="node2" class="node">
<title>Node2</title>
<g id="a_node2"><a xlink:href="namespaceft_1_1irc.html#aa1775a5000d1e48b0418ea5a01f71b87" target="_top" xlink:title=" ">
<polygon fill="white" stroke="black" points="80,-148 80,-167 196,-167 196,-148 80,-148"/>
<text text-anchor="middle" x="138" y="-155" font-family="Helvetica,sans-Serif" font-size="10.00">ft::irc::_make_server</text>
</a>
</g>
</g>
<!-- Node1&#45;&gt;Node2 -->
<g id="edge1" class="edge">
<title>Node1&#45;&gt;Node2</title>
<path fill="none" stroke="midnightblue" d="M41.11,-122.47C51.65,-127.17 64.94,-132.89 77,-137.5 83.41,-139.95 90.26,-142.39 96.97,-144.69"/>
<polygon fill="midnightblue" stroke="midnightblue" points="96.01,-148.06 106.6,-147.93 98.24,-141.43 96.01,-148.06"/>
</g>
<!-- Node3 -->
<g id="node3" class="node">
<title>Node3</title>
<g id="a_node3"><a xlink:href="classft_1_1serv_1_1bootstrap.html#a61642849334859472e690b615dc6fdeb" target="_top" xlink:title=" ">
<polygon fill="white" stroke="black" points="87,-98.5 87,-128.5 189,-128.5 189,-98.5 87,-98.5"/>
<text text-anchor="start" x="95" y="-116.5" font-family="Helvetica,sans-Serif" font-size="10.00">ft::serv::bootstrap</text>
<text text-anchor="middle" x="138" y="-105.5" font-family="Helvetica,sans-Serif" font-size="10.00">::start_server</text>
</a>
</g>
</g>
<!-- Node1&#45;&gt;Node3 -->
<g id="edge2" class="edge">
<title>Node1&#45;&gt;Node3</title>
<path fill="none" stroke="midnightblue" d="M41.09,-113.5C51.05,-113.5 63.74,-113.5 76.6,-113.5"/>
<polygon fill="midnightblue" stroke="midnightblue" points="76.91,-117 86.91,-113.5 76.91,-110 76.91,-117"/>
</g>
<!-- Node13 -->
<g id="node13" class="node">
<title>Node13</title>
<g id="a_node13"><a xlink:href="classft_1_1serv_1_1syscall__failed.html#a75eee00e267e027bb79a3de94a408bf1" target="_top" xlink:title=" ">
<polygon fill="white" stroke="black" points="77,-49.5 77,-79.5 199,-79.5 199,-49.5 77,-49.5"/>
<text text-anchor="start" x="85" y="-67.5" font-family="Helvetica,sans-Serif" font-size="10.00">ft::serv::syscall_failed</text>
<text text-anchor="middle" x="138" y="-56.5" font-family="Helvetica,sans-Serif" font-size="10.00">::what</text>
</a>
</g>
</g>
<!-- Node1&#45;&gt;Node13 -->
<g id="edge12" class="edge">
<title>Node1&#45;&gt;Node13</title>
<path fill="none" stroke="midnightblue" d="M41.19,-104.38C51.76,-99.55 65.04,-93.58 77,-88.5 80.89,-86.85 84.94,-85.16 89.01,-83.48"/>
<polygon fill="midnightblue" stroke="midnightblue" points="90.55,-86.64 98.49,-79.62 87.91,-80.15 90.55,-86.64"/>
</g>
<!-- Node4 -->
<g id="node4" class="node">
<title>Node4</title>
<g id="a_node4"><a xlink:href="structft_1_1serv_1_1socket__utils.html#a6ad8ff64c40ce8341bee05803ca0b2bd" target="_top" xlink:title=" ">
<polygon fill="white" stroke="black" points="235,-196.5 235,-226.5 348,-226.5 348,-196.5 235,-196.5"/>
<text text-anchor="start" x="243" y="-214.5" font-family="Helvetica,sans-Serif" font-size="10.00">ft::serv::socket_utils</text>
<text text-anchor="middle" x="291.5" y="-203.5" font-family="Helvetica,sans-Serif" font-size="10.00">::bind_socket</text>
</a>
</g>
</g>
<!-- Node3&#45;&gt;Node4 -->
<g id="edge3" class="edge">
<title>Node3&#45;&gt;Node4</title>
<path fill="none" stroke="midnightblue" d="M183.17,-128.6C188.77,-131.45 194.21,-134.74 199,-138.5 220.25,-155.2 213.86,-170.66 235,-187.5 236.57,-188.75 238.22,-189.95 239.92,-191.09"/>
<polygon fill="midnightblue" stroke="midnightblue" points="238.41,-194.27 248.79,-196.4 242,-188.26 238.41,-194.27"/>
</g>
<!-- Node8 -->
<g id="node8" class="node">
<title>Node8</title>
<g id="a_node8"><a xlink:href="structft_1_1serv_1_1socket__utils.html#ad0dccc18b1c71b736ffcd2328c3f3ccd" target="_top" xlink:title=" ">
<polygon fill="white" stroke="black" points="235,-147.5 235,-177.5 348,-177.5 348,-147.5 235,-147.5"/>
<text text-anchor="start" x="243" y="-165.5" font-family="Helvetica,sans-Serif" font-size="10.00">ft::serv::socket_utils</text>
<text text-anchor="middle" x="291.5" y="-154.5" font-family="Helvetica,sans-Serif" font-size="10.00">::close_socket</text>
</a>
</g>
</g>
<!-- Node3&#45;&gt;Node8 -->
<g id="edge7" class="edge">
<title>Node3&#45;&gt;Node8</title>
<path fill="none" stroke="midnightblue" d="M185.69,-128.6C201.03,-133.56 218.24,-139.13 234.21,-144.29"/>
<polygon fill="midnightblue" stroke="midnightblue" points="233.37,-147.7 243.96,-147.45 235.53,-141.04 233.37,-147.7"/>
</g>
<!-- Node9 -->
<g id="node9" class="node">
<title>Node9</title>
<g id="a_node9"><a xlink:href="structft_1_1serv_1_1socket__utils.html#af0c7d126407d94cc7a1b083141ff2388" target="_top" xlink:title=" ">
<polygon fill="white" stroke="black" points="235,-98.5 235,-128.5 348,-128.5 348,-98.5 235,-98.5"/>
<text text-anchor="start" x="243" y="-116.5" font-family="Helvetica,sans-Serif" font-size="10.00">ft::serv::socket_utils</text>
<text text-anchor="middle" x="291.5" y="-105.5" font-family="Helvetica,sans-Serif" font-size="10.00">::listen_socket</text>
</a>
</g>
</g>
<!-- Node3&#45;&gt;Node9 -->
<g id="edge8" class="edge">
<title>Node3&#45;&gt;Node9</title>
<path fill="none" stroke="midnightblue" d="M189.03,-113.5C200.36,-113.5 212.56,-113.5 224.44,-113.5"/>
<polygon fill="midnightblue" stroke="midnightblue" points="224.77,-117 234.77,-113.5 224.77,-110 224.77,-117"/>
</g>
<!-- Node10 -->
<g id="node10" class="node">
<title>Node10</title>
<g id="a_node10"><a xlink:href="structft_1_1serv_1_1socket__utils.html#af26c480a74e72a232aca84cd17e2de61" target="_top" xlink:title=" ">
<polygon fill="white" stroke="black" points="235,-49.5 235,-79.5 348,-79.5 348,-49.5 235,-49.5"/>
<text text-anchor="start" x="243" y="-67.5" font-family="Helvetica,sans-Serif" font-size="10.00">ft::serv::socket_utils</text>
<text text-anchor="middle" x="291.5" y="-56.5" font-family="Helvetica,sans-Serif" font-size="10.00">::name_socket</text>
</a>
</g>
</g>
<!-- Node3&#45;&gt;Node10 -->
<g id="edge9" class="edge">
<title>Node3&#45;&gt;Node10</title>
<path fill="none" stroke="midnightblue" d="M185.69,-98.4C201.03,-93.44 218.24,-87.87 234.21,-82.71"/>
<polygon fill="midnightblue" stroke="midnightblue" points="235.53,-85.96 243.96,-79.55 233.37,-79.3 235.53,-85.96"/>
</g>
<!-- Node12 -->
<g id="node12" class="node">
<title>Node12</title>
<g id="a_node12"><a xlink:href="structft_1_1serv_1_1socket__utils.html#a818575bfd7756e64e4226b85a7492bc7" target="_top" xlink:title=" ">
<polygon fill="white" stroke="black" points="235,-0.5 235,-30.5 348,-30.5 348,-0.5 235,-0.5"/>
<text text-anchor="start" x="243" y="-18.5" font-family="Helvetica,sans-Serif" font-size="10.00">ft::serv::socket_utils</text>
<text text-anchor="middle" x="291.5" y="-7.5" font-family="Helvetica,sans-Serif" font-size="10.00">::set_nonblocking</text>
</a>
</g>
</g>
<!-- Node3&#45;&gt;Node12 -->
<g id="edge11" class="edge">
<title>Node3&#45;&gt;Node12</title>
<path fill="none" stroke="midnightblue" d="M183.17,-98.4C188.77,-95.55 194.21,-92.26 199,-88.5 220.25,-71.8 213.86,-56.34 235,-39.5 236.57,-38.25 238.22,-37.05 239.92,-35.91"/>
<polygon fill="midnightblue" stroke="midnightblue" points="242,-38.74 248.79,-30.6 238.41,-32.73 242,-38.74"/>
</g>
<!-- Node5 -->
<g id="node5" class="node">
<title>Node5</title>
<g id="a_node5"><a xlink:href="structft_1_1serv_1_1socket__utils.html#af1553b9c3e9cdc5e38f7ecf6c10fb3c1" target="_top" xlink:title=" ">
<polygon fill="white" stroke="black" points="387,-220.5 387,-250.5 500,-250.5 500,-220.5 387,-220.5"/>
<text text-anchor="start" x="395" y="-238.5" font-family="Helvetica,sans-Serif" font-size="10.00">ft::serv::socket_utils</text>
<text text-anchor="middle" x="443.5" y="-227.5" font-family="Helvetica,sans-Serif" font-size="10.00">::forward_lookup</text>
</a>
</g>
</g>
<!-- Node4&#45;&gt;Node5 -->
<g id="edge4" class="edge">
<title>Node4&#45;&gt;Node5</title>
<path fill="none" stroke="midnightblue" d="M348.35,-220.44C357.59,-221.91 367.24,-223.46 376.7,-224.97"/>
<polygon fill="midnightblue" stroke="midnightblue" points="376.42,-228.47 386.85,-226.6 377.53,-221.56 376.42,-228.47"/>
</g>
<!-- Node7 -->
<g id="node7" class="node">
<title>Node7</title>
<g id="a_node7"><a xlink:href="structft_1_1serv_1_1socket__utils.html#a579854fb614efa2584ff58edb79974f1" target="_top" xlink:title=" ">
<polygon fill="white" stroke="black" points="384,-171.5 384,-201.5 503,-201.5 503,-171.5 384,-171.5"/>
<text text-anchor="start" x="392" y="-189.5" font-family="Helvetica,sans-Serif" font-size="10.00">ft::serv::socket_utils</text>
<text text-anchor="middle" x="443.5" y="-178.5" font-family="Helvetica,sans-Serif" font-size="10.00">::reuse_address_bind</text>
</a>
</g>
</g>
<!-- Node4&#45;&gt;Node7 -->
<g id="edge6" class="edge">
<title>Node4&#45;&gt;Node7</title>
<path fill="none" stroke="midnightblue" d="M348.35,-202.19C356.68,-200.8 365.33,-199.36 373.88,-197.94"/>
<polygon fill="midnightblue" stroke="midnightblue" points="374.55,-201.37 383.84,-196.28 373.4,-194.47 374.55,-201.37"/>
</g>
<!-- Node6 -->
<g id="node6" class="node">
<title>Node6</title>
<g id="a_node6"><a xlink:href="classft_1_1serv_1_1__internal_1_1ai__failed.html#ad3aa900794508d370ef6e1b3c104a39e" target="_top" xlink:title=" ">
<polygon fill="white" stroke="black" points="539,-220.5 539,-250.5 637,-250.5 637,-220.5 539,-220.5"/>
<text text-anchor="start" x="547" y="-238.5" font-family="Helvetica,sans-Serif" font-size="10.00">ft::serv::_internal</text>
<text text-anchor="middle" x="588" y="-227.5" font-family="Helvetica,sans-Serif" font-size="10.00">::ai_failed::error</text>
</a>
</g>
</g>
<!-- Node5&#45;&gt;Node6 -->
<g id="edge5" class="edge">
<title>Node5&#45;&gt;Node6</title>
<path fill="none" stroke="midnightblue" d="M500,-235.5C509.41,-235.5 519.21,-235.5 528.69,-235.5"/>
<polygon fill="midnightblue" stroke="midnightblue" points="528.82,-239 538.82,-235.5 528.82,-232 528.82,-239"/>
</g>
<!-- Node11 -->
<g id="node11" class="node">
<title>Node11</title>
<g id="a_node11"><a xlink:href="structft_1_1serv_1_1socket__utils.html#aef0594e2d9bdc8b8e15bcab89950e093" target="_top" xlink:title=" ">
<polygon fill="white" stroke="black" points="387,-49.5 387,-79.5 500,-79.5 500,-49.5 387,-49.5"/>
<text text-anchor="start" x="395" y="-67.5" font-family="Helvetica,sans-Serif" font-size="10.00">ft::serv::socket_utils</text>
<text text-anchor="middle" x="443.5" y="-56.5" font-family="Helvetica,sans-Serif" font-size="10.00">::reverse_lookup</text>
</a>
</g>
</g>
<!-- Node10&#45;&gt;Node11 -->
<g id="edge10" class="edge">
<title>Node10&#45;&gt;Node11</title>
<path fill="none" stroke="midnightblue" d="M348.35,-64.5C357.59,-64.5 367.24,-64.5 376.7,-64.5"/>
<polygon fill="midnightblue" stroke="midnightblue" points="376.85,-68 386.85,-64.5 376.85,-61 376.85,-68"/>
</g>
</g>
</svg>
        <g id="navigator" transform="translate(0 0)" fill="#404254">
                <rect fill="#f2f5e9" fill-opacity="0.5" stroke="#606060" stroke-width=".5" x="0" y="0" width="60" height="60"/>
                <use id="zoomplus" xlink:href="#zoomPlus" x="17" y="9" onmousedown="handleZoom(evt,'in')"/>
                <use id="zoomminus" xlink:href="#zoomMin" x="42" y="9" onmousedown="handleZoom(evt,'out')"/>
                <use id="reset" xlink:href="#resetDef" x="30" y="36" onmousedown="handleReset()"/>
                <g id="arrowUp" xlink:href="#dirArrow" transform="translate(30 24)" onmousedown="handlePan(0,-1)">
                  <use xlink:href="#rim" fill="#404040">
                        <set attributeName="fill" to="#808080" begin="arrowUp.mouseover" end="arrowUp.mouseout"/>
                  </use>
                  <path fill="none" stroke="white" stroke-width="1.5" d="M0,-3.0v7 M-2.5,-0.5L0,-3.0L2.5,-0.5"/>
                </g>
                <g id="arrowRight" xlink:href="#dirArrow" transform="rotate(90) translate(36 -43)" onmousedown="handlePan(1,0)">
                  <use xlink:href="#rim" fill="#404040">
                        <set attributeName="fill" to="#808080" begin="arrowRight.mouseover" end="arrowRight.mouseout"/>
                  </use>
                  <path fill="none" stroke="white" stroke-width="1.5" d="M0,-3.0v7 M-2.5,-0.5L0,-3.0L2.5,-0.5"/>
                </g>
                <g id="arrowDown" xlink:href="#dirArrow" transform="rotate(180) translate(-30 -48)" onmousedown="handlePan(0,1)">
                  <use xlink:href="#rim" fill="#404040">
                        <set attributeName="fill" to="#808080" begin="arrowDown.mouseover" end="arrowDown.mouseout"/>
                  </use>
                  <path fill="none" stroke="white" stroke-width="1.5" d="M0,-3.0v7 M-2.5,-0.5L0,-3.0L2.5,-0.5"/>
                </g>
                <g id="arrowLeft" xlink:href="#dirArrow" transform="rotate(270) translate(-36 17)" onmousedown="handlePan(-1,0)">
                  <use xlink:href="#rim" fill="#404040">
                        <set attributeName="fill" to="#808080" begin="arrowLeft.mouseover" end="arrowLeft.mouseout"/>
                  </use>
                  <path fill="none" stroke="white" stroke-width="1.5" d="M0,-3.0v7 M-2.5,-0.5L0,-3.0L2.5,-0.5"/>
                </g>
        </g>
        <svg viewBox="0 0 15 15" width="100%" height="30px" preserveAspectRatio="xMaxYMin meet">
         <g id="arrow_out" transform="scale(0.3 0.3)">
          <a xlink:href="main_8cpp_a0ddf1224851353fc92bfbff6f499fa97_cgraph_org.svg" target="_base">
           <rect id="button" ry="5" rx="5" y="6" x="6" height="38" width="38"
                fill="#f2f5e9" fill-opacity="0.5" stroke="#606060" stroke-width="1.0"/>
           <path id="arrow"
             d="M 11.500037,31.436501 C 11.940474,20.09759 22.043105,11.32322 32.158766,21.979434 L 37.068811,17.246167 C 37.068811,17.246167 37.088388,32 37.088388,32 L 22.160133,31.978069 C 22.160133,31.978069 26.997745,27.140456 26.997745,27.140456 C 18.528582,18.264221 13.291696,25.230495 11.500037,31.436501 z"
             style="fill:#404040;"/>
          </a>
         </g>
        </svg>
</svg>
