<?xml version="1.0" encoding="UTF-8" standalone="no"?>
<!DOCTYPE svg PUBLIC "-//W3C//DTD SVG 1.1//EN"
 "http://www.w3.org/Graphics/SVG/1.1/DTD/svg11.dtd">
<!-- Generated by graphviz version 2.43.0 (0)
 -->
<!-- Title: main Pages: 1 -->
<!--zoomable 540 -->
<svg id="main" version="1.1" xmlns="http://www.w3.org/2000/svg" xmlns:xlink="http://www.w3.org/1999/xlink" xml:space="preserve" onload="init(evt)">
<style type="text/css"><![CDATA[
.edge:hover path { stroke: red; }
.edge:hover polygon { stroke: red; fill: red; }
]]></style>
<script type="text/javascript"><![CDATA[
var edges = document.getElementsByTagName('g');
if (edges && edges.length) {
  for (var i=0;i<edges.length;i++) {
    if (edges[i].id.substr(0,4)=='edge') {
      edges[i].setAttribute('class','edge');
    }
  }
}
]]></script>
        <defs>
                <circle id="rim" cx="0" cy="0" r="7"/>
                <circle id="rim2" cx="0" cy="0" r="3.5"/>
                <g id="zoomPlus">
                        <use xlink:href="#rim" fill="#404040">
                                <set attributeName="fill" to="#808080" begin="zoomplus.mouseover" end="zoomplus.mouseout"/>
                        </use>
                        <path d="M-4,0h8M0,-4v8" fill="none" stroke="white" stroke-width="1.5" pointer-events="none"/>
                </g>
                <g id="zoomMin">
                        <use xlink:href="#rim" fill="#404040">
                                <set attributeName="fill" to="#808080" begin="zoomminus.mouseover" end="zoomminus.mouseout"/>
                        </use>
                        <path d="M-4,0h8" fill="none" stroke="white" stroke-width="1.5" pointer-events="none"/>
                </g>
                <g id="dirArrow">
                        <path fill="none" stroke="white" stroke-width="1.5" d="M0,-3.0v7 M-2.5,-0.5L0,-3.0L2.5,-0.5"/>
                </g>
               <g id="resetDef">
                       <use xlink:href="#rim2" fill="#404040">
                               <set attributeName="fill" to="#808080" begin="reset.mouseover" end="reset.mouseout"/>
                       </use>
               </g>
        </defs>

<script type="text/javascript">
var viewWidth = 695;
var viewHeight = 540;
var sectionId = 'dynsection-2';
</script>
<script xlink:href="svgpan.js"/>
<svg id="graph" class="graph">
<g id="viewport">
<title>main</title>
<polygon fill="white" stroke="transparent" points="-4,4 -4,-535.5 691,-535.5 691,4 -4,4"/>
<!-- Node1 -->
<g id="node1" class="node">
<title>Node1</title>
<g id="a_node1"><a xlink:title=" ">
<polygon fill="#bfbfbf" stroke="black" points="0,-348 0,-367 41,-367 41,-348 0,-348"/>
<text text-anchor="middle" x="20.5" y="-355" font-family="Helvetica,sans-Serif" font-size="10.00">main</text>
</a>
</g>
</g>
<!-- Node2 -->
<g id="node2" class="node">
<title>Node2</title>
<g id="a_node2"><a xlink:href="namespaceft_1_1irc.html#aa1775a5000d1e48b0418ea5a01f71b87" target="_top" xlink:title=" ">
<polygon fill="white" stroke="black" points="80,-512 80,-531 196,-531 196,-512 80,-512"/>
<text text-anchor="middle" x="138" y="-519" font-family="Helvetica,sans-Serif" font-size="10.00">ft::irc::_make_server</text>
</a>
</g>
</g>
<!-- Node1&#45;&gt;Node2 -->
<g id="edge1" class="edge">
<title>Node1&#45;&gt;Node2</title>
<path fill="none" stroke="midnightblue" d="M22.36,-367.2C25.17,-393.04 36.4,-464.22 77,-502.5 78.68,-504.08 80.49,-505.53 82.4,-506.87"/>
<polygon fill="midnightblue" stroke="midnightblue" points="80.88,-510.03 91.3,-511.96 84.36,-503.95 80.88,-510.03"/>
</g>
<!-- Node3 -->
<g id="node3" class="node">
<title>Node3</title>
<g id="a_node3"><a xlink:href="main_8cpp.html#a4b8f6bfb370734d9097623adf02d499d" target="_top" xlink:title=" ">
<polygon fill="white" stroke="black" points="104,-474 104,-493 172,-493 172,-474 104,-474"/>
<text text-anchor="middle" x="138" y="-481" font-family="Helvetica,sans-Serif" font-size="10.00">_on_signal</text>
</a>
</g>
</g>
<!-- Node1&#45;&gt;Node3 -->
<g id="edge2" class="edge">
<title>Node1&#45;&gt;Node3</title>
<path fill="none" stroke="midnightblue" d="M23.79,-367.06C29.27,-387.9 45.14,-437.69 77,-464.5 81.99,-468.7 87.92,-471.98 94.08,-474.53"/>
<polygon fill="midnightblue" stroke="midnightblue" points="93.24,-477.95 103.84,-477.97 95.57,-471.34 93.24,-477.95"/>
</g>
<!-- Node4 -->
<g id="node4" class="node">
<title>Node4</title>
<g id="a_node4"><a xlink:href="structft_1_1serv_1_1logger.html#a27e4ab1c4bf29bd34bb166a3ecd76449" target="_top" xlink:title=" ">
<polygon fill="white" stroke="black" points="235.5,-385 235.5,-404 351.5,-404 351.5,-385 235.5,-385"/>
<text text-anchor="middle" x="293.5" y="-392" font-family="Helvetica,sans-Serif" font-size="10.00">ft::serv::logger::error</text>
</a>
</g>
</g>
<!-- Node1&#45;&gt;Node4 -->
<g id="edge3" class="edge">
<title>Node1&#45;&gt;Node4</title>
<path fill="none" stroke="midnightblue" d="M41.26,-359.29C74.09,-362.35 141.93,-369.11 199,-377.5 210.24,-379.15 222.19,-381.15 233.66,-383.18"/>
<polygon fill="midnightblue" stroke="midnightblue" points="233.13,-386.64 243.59,-384.96 234.37,-379.75 233.13,-386.64"/>
</g>
<!-- Node8 -->
<g id="node8" class="node">
<title>Node8</title>
<g id="a_node8"><a xlink:href="classft_1_1serv_1_1bootstrap.html#a9b94aedd9970843c6c049f19cebaf7fe" target="_top" xlink:title=" ">
<polygon fill="white" stroke="black" points="87,-386.5 87,-416.5 189,-416.5 189,-386.5 87,-386.5"/>
<text text-anchor="start" x="95" y="-404.5" font-family="Helvetica,sans-Serif" font-size="10.00">ft::serv::bootstrap</text>
<text text-anchor="middle" x="138" y="-393.5" font-family="Helvetica,sans-Serif" font-size="10.00">::finalize</text>
</a>
</g>
</g>
<!-- Node1&#45;&gt;Node8 -->
<g id="edge7" class="edge">
<title>Node1&#45;&gt;Node8</title>
<path fill="none" stroke="midnightblue" d="M41.09,-364.96C53.9,-369.84 71.23,-376.45 87.64,-382.7"/>
<polygon fill="midnightblue" stroke="midnightblue" points="86.57,-386.03 97.16,-386.32 89.06,-379.49 86.57,-386.03"/>
</g>
<!-- Node9 -->
<g id="node9" class="node">
<title>Node9</title>
<g id="a_node9"><a xlink:href="structft_1_1serv_1_1logger.html#aed47352d1c3f60ac9f99929dcc7498d5" target="_top" xlink:title=" ">
<polygon fill="white" stroke="black" points="82.5,-260 82.5,-279 193.5,-279 193.5,-260 82.5,-260"/>
<text text-anchor="middle" x="138" y="-267" font-family="Helvetica,sans-Serif" font-size="10.00">ft::serv::logger::info</text>
</a>
</g>
</g>
<!-- Node1&#45;&gt;Node9 -->
<g id="edge8" class="edge">
<title>Node1&#45;&gt;Node9</title>
<path fill="none" stroke="midnightblue" d="M26.66,-347.99C35.2,-333.13 53.65,-304.47 77,-288.5 79.88,-286.53 82.98,-284.75 86.2,-283.15"/>
<polygon fill="midnightblue" stroke="midnightblue" points="87.72,-286.31 95.49,-279.11 84.92,-279.89 87.72,-286.31"/>
</g>
<!-- Node10 -->
<g id="node10" class="node">
<title>Node10</title>
<g id="a_node10"><a xlink:href="classft_1_1serv_1_1bootstrap.html#aa6e5ff5dc242e571b22a4625e4ad8f5f" target="_top" xlink:title=" ">
<polygon fill="white" stroke="black" points="87,-298.5 87,-328.5 189,-328.5 189,-298.5 87,-298.5"/>
<text text-anchor="start" x="95" y="-316.5" font-family="Helvetica,sans-Serif" font-size="10.00">ft::serv::bootstrap</text>
<text text-anchor="middle" x="138" y="-305.5" font-family="Helvetica,sans-Serif" font-size="10.00">::set_success</text>
</a>
</g>
</g>
<!-- Node1&#45;&gt;Node10 -->
<g id="edge10" class="edge">
<title>Node1&#45;&gt;Node10</title>
<path fill="none" stroke="midnightblue" d="M41.09,-350.04C53.9,-345.16 71.23,-338.55 87.64,-332.3"/>
<polygon fill="midnightblue" stroke="midnightblue" points="89.06,-335.51 97.16,-328.68 86.57,-328.97 89.06,-335.51"/>
</g>
<!-- Node11 -->
<g id="node11" class="node">
<title>Node11</title>
<g id="a_node11"><a xlink:href="classft_1_1serv_1_1bootstrap.html#a61642849334859472e690b615dc6fdeb" target="_top" xlink:title=" ">
<polygon fill="white" stroke="black" points="87,-210.5 87,-240.5 189,-240.5 189,-210.5 87,-210.5"/>
<text text-anchor="start" x="95" y="-228.5" font-family="Helvetica,sans-Serif" font-size="10.00">ft::serv::bootstrap</text>
<text text-anchor="middle" x="138" y="-217.5" font-family="Helvetica,sans-Serif" font-size="10.00">::start_server</text>
</a>
</g>
</g>
<!-- Node1&#45;&gt;Node11 -->
<g id="edge11" class="edge">
<title>Node1&#45;&gt;Node11</title>
<path fill="none" stroke="midnightblue" d="M24.06,-347.83C29.98,-327.22 46.5,-278.55 77,-250.5 78.69,-248.95 80.48,-247.49 82.36,-246.11"/>
<polygon fill="midnightblue" stroke="midnightblue" points="84.48,-248.91 91.04,-240.59 80.72,-243 84.48,-248.91"/>
</g>
<!-- Node23 -->
<g id="node23" class="node">
<title>Node23</title>
<g id="a_node23"><a xlink:href="structft_1_1serv_1_1logger.html#aeb3f8c326c1e3b607121cf351df5fb55" target="_top" xlink:title=" ">
<polygon fill="white" stroke="black" points="80,-436 80,-455 196,-455 196,-436 80,-436"/>
<text text-anchor="middle" x="138" y="-443" font-family="Helvetica,sans-Serif" font-size="10.00">ft::serv::logger::warn</text>
</a>
</g>
</g>
<!-- Node1&#45;&gt;Node23 -->
<g id="edge24" class="edge">
<title>Node1&#45;&gt;Node23</title>
<path fill="none" stroke="midnightblue" d="M26.66,-367.01C35.2,-381.87 53.65,-410.53 77,-426.5 79.88,-428.47 82.98,-430.25 86.2,-431.85"/>
<polygon fill="midnightblue" stroke="midnightblue" points="84.92,-435.11 95.49,-435.89 87.72,-428.69 84.92,-435.11"/>
</g>
<!-- Node24 -->
<g id="node24" class="node">
<title>Node24</title>
<g id="a_node24"><a xlink:href="classft_1_1serv_1_1syscall__failed.html#a75eee00e267e027bb79a3de94a408bf1" target="_top" xlink:title=" ">
<polygon fill="white" stroke="black" points="77,-161.5 77,-191.5 199,-191.5 199,-161.5 77,-161.5"/>
<text text-anchor="start" x="85" y="-179.5" font-family="Helvetica,sans-Serif" font-size="10.00">ft::serv::syscall_failed</text>
<text text-anchor="middle" x="138" y="-168.5" font-family="Helvetica,sans-Serif" font-size="10.00">::what</text>
</a>
</g>
</g>
<!-- Node1&#45;&gt;Node24 -->
<g id="edge26" class="edge">
<title>Node1&#45;&gt;Node24</title>
<path fill="none" stroke="midnightblue" d="M22.19,-347.97C24.64,-321.15 35.15,-244.09 77,-200.5 77.92,-199.54 78.88,-198.63 79.88,-197.74"/>
<polygon fill="midnightblue" stroke="midnightblue" points="82.18,-200.39 88.16,-191.65 78.03,-194.76 82.18,-200.39"/>
</g>
<!-- Node5 -->
<g id="node5" class="node">
<title>Node5</title>
<g id="a_node5"><a xlink:href="namespaceft_1_1serv_1_1__internal.html#a4dfb80be7b817fc0ee18658f313a6274" target="_top" xlink:title=" ">
<polygon fill="white" stroke="black" points="398.5,-360.5 398.5,-390.5 496.5,-390.5 496.5,-360.5 398.5,-360.5"/>
<text text-anchor="start" x="406.5" y="-378.5" font-family="Helvetica,sans-Serif" font-size="10.00">ft::serv::_internal</text>
<text text-anchor="middle" x="447.5" y="-367.5" font-family="Helvetica,sans-Serif" font-size="10.00">::print</text>
</a>
</g>
</g>
<!-- Node4&#45;&gt;Node5 -->
<g id="edge4" class="edge">
<title>Node4&#45;&gt;Node5</title>
<path fill="none" stroke="midnightblue" d="M351.53,-387.37C363.51,-385.87 376.16,-384.29 388.18,-382.79"/>
<polygon fill="midnightblue" stroke="midnightblue" points="388.62,-386.26 398.11,-381.55 387.75,-379.32 388.62,-386.26"/>
</g>
<!-- Node6 -->
<g id="node6" class="node">
<title>Node6</title>
<g id="a_node6"><a xlink:href="namespaceft_1_1serv_1_1__internal.html#aff49349b58dc84fa69076e9cd27a1db4" target="_top" xlink:title=" ">
<polygon fill="white" stroke="black" points="543,-335.5 543,-365.5 687,-365.5 687,-335.5 543,-335.5"/>
<text text-anchor="start" x="551" y="-353.5" font-family="Helvetica,sans-Serif" font-size="10.00">ft::serv::_internal</text>
<text text-anchor="middle" x="615" y="-342.5" font-family="Helvetica,sans-Serif" font-size="10.00">::make_format_string_line</text>
</a>
</g>
</g>
<!-- Node5&#45;&gt;Node6 -->
<g id="edge5" class="edge">
<title>Node5&#45;&gt;Node6</title>
<path fill="none" stroke="midnightblue" d="M496.81,-368.2C508.18,-366.48 520.61,-364.61 532.98,-362.74"/>
<polygon fill="midnightblue" stroke="midnightblue" points="533.5,-366.2 542.87,-361.25 532.46,-359.28 533.5,-366.2"/>
</g>
<!-- Node7 -->
<g id="node7" class="node">
<title>Node7</title>
<g id="a_node7"><a xlink:href="namespaceft_1_1serv_1_1__internal.html#aad4af39d62c2b1687b0bef7a91bf6c60" target="_top" xlink:title=" ">
<polygon fill="white" stroke="black" points="563.5,-384.5 563.5,-414.5 666.5,-414.5 666.5,-384.5 563.5,-384.5"/>
<text text-anchor="start" x="571.5" y="-402.5" font-family="Helvetica,sans-Serif" font-size="10.00">ft::serv::_internal</text>
<text text-anchor="middle" x="615" y="-391.5" font-family="Helvetica,sans-Serif" font-size="10.00">::make_utc_string</text>
</a>
</g>
</g>
<!-- Node5&#45;&gt;Node7 -->
<g id="edge6" class="edge">
<title>Node5&#45;&gt;Node7</title>
<path fill="none" stroke="midnightblue" d="M496.81,-382.51C514.44,-385.06 534.61,-387.99 553.19,-390.68"/>
<polygon fill="midnightblue" stroke="midnightblue" points="552.92,-394.18 563.32,-392.15 553.93,-387.25 552.92,-394.18"/>
</g>
<!-- Node9&#45;&gt;Node5 -->
<g id="edge9" class="edge">
<title>Node9&#45;&gt;Node5</title>
<path fill="none" stroke="midnightblue" d="M180.97,-279.02C187.34,-281.51 193.58,-284.62 199,-288.5 220.96,-304.24 212.07,-323.2 235,-337.5 281.11,-366.25 343.22,-374.58 388.19,-376.43"/>
<polygon fill="midnightblue" stroke="midnightblue" points="388.27,-379.93 398.37,-376.75 388.49,-372.94 388.27,-379.93"/>
</g>
<!-- Node12 -->
<g id="node12" class="node">
<title>Node12</title>
<g id="a_node12"><a xlink:href="bootstrap_8cpp.html#acf03e66a45bc7cc346d17d294290c024" target="_top" xlink:title=" ">
<polygon fill="white" stroke="black" points="241.5,-221 241.5,-240 345.5,-240 345.5,-221 241.5,-221"/>
<text text-anchor="middle" x="293.5" y="-228" font-family="Helvetica,sans-Serif" font-size="10.00">_to_c_str_nullable</text>
</a>
</g>
</g>
<!-- Node11&#45;&gt;Node12 -->
<g id="edge12" class="edge">
<title>Node11&#45;&gt;Node12</title>
<path fill="none" stroke="midnightblue" d="M189.26,-227.14C202.7,-227.57 217.37,-228.05 231.33,-228.51"/>
<polygon fill="midnightblue" stroke="midnightblue" points="231.23,-232.01 241.34,-228.83 231.46,-225.01 231.23,-232.01"/>
</g>
<!-- Node13 -->
<g id="node13" class="node">
<title>Node13</title>
<g id="a_node13"><a xlink:href="structft_1_1serv_1_1socket__utils.html#a6ad8ff64c40ce8341bee05803ca0b2bd" target="_top" xlink:title=" ">
<polygon fill="white" stroke="black" points="237,-24.5 237,-54.5 350,-54.5 350,-24.5 237,-24.5"/>
<text text-anchor="start" x="245" y="-42.5" font-family="Helvetica,sans-Serif" font-size="10.00">ft::serv::socket_utils</text>
<text text-anchor="middle" x="293.5" y="-31.5" font-family="Helvetica,sans-Serif" font-size="10.00">::bind_socket</text>
</a>
</g>
</g>
<!-- Node11&#45;&gt;Node13 -->
<g id="edge13" class="edge">
<title>Node11&#45;&gt;Node13</title>
<path fill="none" stroke="midnightblue" d="M187.29,-210.35C191.65,-207.59 195.67,-204.33 199,-200.5 240.35,-153.02 193.67,-110.99 235,-63.5 235.75,-62.64 236.53,-61.82 237.34,-61.02"/>
<polygon fill="midnightblue" stroke="midnightblue" points="239.76,-63.57 245.39,-54.59 235.39,-58.1 239.76,-63.57"/>
</g>
<!-- Node17 -->
<g id="node17" class="node">
<title>Node17</title>
<g id="a_node17"><a xlink:href="structft_1_1serv_1_1socket__utils.html#ad0dccc18b1c71b736ffcd2328c3f3ccd" target="_top" xlink:title=" ">
<polygon fill="white" stroke="black" points="237,-122.5 237,-152.5 350,-152.5 350,-122.5 237,-122.5"/>
<text text-anchor="start" x="245" y="-140.5" font-family="Helvetica,sans-Serif" font-size="10.00">ft::serv::socket_utils</text>
<text text-anchor="middle" x="293.5" y="-129.5" font-family="Helvetica,sans-Serif" font-size="10.00">::close_socket</text>
</a>
</g>
</g>
<!-- Node11&#45;&gt;Node17 -->
<g id="edge17" class="edge">
<title>Node11&#45;&gt;Node17</title>
<path fill="none" stroke="midnightblue" d="M181.53,-210.5C187.62,-207.58 193.64,-204.25 199,-200.5 218.33,-186.98 215.67,-175.02 235,-161.5 236.91,-160.16 238.9,-158.88 240.95,-157.66"/>
<polygon fill="midnightblue" stroke="midnightblue" points="243.1,-160.48 250.24,-152.64 239.77,-154.32 243.1,-160.48"/>
</g>
<!-- Node18 -->
<g id="node18" class="node">
<title>Node18</title>
<g id="a_node18"><a xlink:href="structft_1_1serv_1_1socket__utils.html#af0c7d126407d94cc7a1b083141ff2388" target="_top" xlink:title=" ">
<polygon fill="white" stroke="black" points="237,-73.5 237,-103.5 350,-103.5 350,-73.5 237,-73.5"/>
<text text-anchor="start" x="245" y="-91.5" font-family="Helvetica,sans-Serif" font-size="10.00">ft::serv::socket_utils</text>
<text text-anchor="middle" x="293.5" y="-80.5" font-family="Helvetica,sans-Serif" font-size="10.00">::listen_socket</text>
</a>
</g>
</g>
<!-- Node11&#45;&gt;Node18 -->
<g id="edge18" class="edge">
<title>Node11&#45;&gt;Node18</title>
<path fill="none" stroke="midnightblue" d="M185.9,-210.42C190.69,-207.62 195.18,-204.34 199,-200.5 228.78,-170.52 205.23,-142.49 235,-112.5 235.94,-111.55 236.93,-110.64 237.95,-109.76"/>
<polygon fill="midnightblue" stroke="midnightblue" points="240.34,-112.35 246.41,-103.67 236.25,-106.67 240.34,-112.35"/>
</g>
<!-- Node19 -->
<g id="node19" class="node">
<title>Node19</title>
<g id="a_node19"><a xlink:href="structft_1_1serv_1_1socket__utils.html#af26c480a74e72a232aca84cd17e2de61" target="_top" xlink:title=" ">
<polygon fill="white" stroke="black" points="237,-171.5 237,-201.5 350,-201.5 350,-171.5 237,-171.5"/>
<text text-anchor="start" x="245" y="-189.5" font-family="Helvetica,sans-Serif" font-size="10.00">ft::serv::socket_utils</text>
<text text-anchor="middle" x="293.5" y="-178.5" font-family="Helvetica,sans-Serif" font-size="10.00">::name_socket</text>
</a>
</g>
</g>
<!-- Node11&#45;&gt;Node19 -->
<g id="edge19" class="edge">
<title>Node11&#45;&gt;Node19</title>
<path fill="none" stroke="midnightblue" d="M189.26,-212.73C201.27,-209.68 214.26,-206.38 226.84,-203.18"/>
<polygon fill="midnightblue" stroke="midnightblue" points="227.99,-206.5 236.82,-200.65 226.26,-199.72 227.99,-206.5"/>
</g>
<!-- Node21 -->
<g id="node21" class="node">
<title>Node21</title>
<g id="a_node21"><a xlink:href="structft_1_1serv_1_1socket__utils.html#a818575bfd7756e64e4226b85a7492bc7" target="_top" xlink:title=" ">
<polygon fill="white" stroke="black" points="237,-259.5 237,-289.5 350,-289.5 350,-259.5 237,-259.5"/>
<text text-anchor="start" x="245" y="-277.5" font-family="Helvetica,sans-Serif" font-size="10.00">ft::serv::socket_utils</text>
<text text-anchor="middle" x="293.5" y="-266.5" font-family="Helvetica,sans-Serif" font-size="10.00">::set_nonblocking</text>
</a>
</g>
</g>
<!-- Node11&#45;&gt;Node21 -->
<g id="edge21" class="edge">
<title>Node11&#45;&gt;Node21</title>
<path fill="none" stroke="midnightblue" d="M186.31,-240.6C201.85,-245.56 219.28,-251.13 235.46,-256.29"/>
<polygon fill="midnightblue" stroke="midnightblue" points="234.76,-259.74 245.35,-259.45 236.89,-253.07 234.76,-259.74"/>
</g>
<!-- Node22 -->
<g id="node22" class="node">
<title>Node22</title>
<g id="a_node22"><a xlink:href="structft_1_1serv_1_1logger.html#af77e51bd1d1172d9ebff34eb9fe1db6a" target="_top" xlink:title=" ">
<polygon fill="white" stroke="black" points="235,-309 235,-328 352,-328 352,-309 235,-309"/>
<text text-anchor="middle" x="293.5" y="-316" font-family="Helvetica,sans-Serif" font-size="10.00">ft::serv::logger::trace</text>
</a>
</g>
</g>
<!-- Node11&#45;&gt;Node22 -->
<g id="edge22" class="edge">
<title>Node11&#45;&gt;Node22</title>
<path fill="none" stroke="midnightblue" d="M183.13,-240.64C188.74,-243.48 194.19,-246.76 199,-250.5 220.05,-266.87 213.47,-282.77 235,-298.5 238.22,-300.85 241.74,-302.95 245.4,-304.81"/>
<polygon fill="midnightblue" stroke="midnightblue" points="244.15,-308.08 254.71,-308.96 247,-301.69 244.15,-308.08"/>
</g>
<!-- Node14 -->
<g id="node14" class="node">
<title>Node14</title>
<g id="a_node14"><a xlink:href="structft_1_1serv_1_1socket__utils.html#af1553b9c3e9cdc5e38f7ecf6c10fb3c1" target="_top" xlink:title=" ">
<polygon fill="white" stroke="black" points="391,-0.5 391,-30.5 504,-30.5 504,-0.5 391,-0.5"/>
<text text-anchor="start" x="399" y="-18.5" font-family="Helvetica,sans-Serif" font-size="10.00">ft::serv::socket_utils</text>
<text text-anchor="middle" x="447.5" y="-7.5" font-family="Helvetica,sans-Serif" font-size="10.00">::forward_lookup</text>
</a>
</g>
</g>
<!-- Node13&#45;&gt;Node14 -->
<g id="edge14" class="edge">
<title>Node13&#45;&gt;Node14</title>
<path fill="none" stroke="midnightblue" d="M350.24,-30.7C360.15,-29.13 370.56,-27.49 380.72,-25.89"/>
<polygon fill="midnightblue" stroke="midnightblue" points="381.44,-29.32 390.77,-24.3 380.35,-22.4 381.44,-29.32"/>
</g>
<!-- Node16 -->
<g id="node16" class="node">
<title>Node16</title>
<g id="a_node16"><a xlink:href="structft_1_1serv_1_1socket__utils.html#a579854fb614efa2584ff58edb79974f1" target="_top" xlink:title=" ">
<polygon fill="white" stroke="black" points="388,-49.5 388,-79.5 507,-79.5 507,-49.5 388,-49.5"/>
<text text-anchor="start" x="396" y="-67.5" font-family="Helvetica,sans-Serif" font-size="10.00">ft::serv::socket_utils</text>
<text text-anchor="middle" x="447.5" y="-56.5" font-family="Helvetica,sans-Serif" font-size="10.00">::reuse_address_bind</text>
</a>
</g>
</g>
<!-- Node13&#45;&gt;Node16 -->
<g id="edge16" class="edge">
<title>Node13&#45;&gt;Node16</title>
<path fill="none" stroke="midnightblue" d="M350.24,-48.67C359.26,-50.15 368.69,-51.7 377.97,-53.23"/>
<polygon fill="midnightblue" stroke="midnightblue" points="377.53,-56.7 387.96,-54.87 378.66,-49.8 377.53,-56.7"/>
</g>
<!-- Node15 -->
<g id="node15" class="node">
<title>Node15</title>
<g id="a_node15"><a xlink:href="classft_1_1serv_1_1__internal_1_1ai__failed.html#ad3aa900794508d370ef6e1b3c104a39e" target="_top" xlink:title=" ">
<polygon fill="white" stroke="black" points="566,-0.5 566,-30.5 664,-30.5 664,-0.5 566,-0.5"/>
<text text-anchor="start" x="574" y="-18.5" font-family="Helvetica,sans-Serif" font-size="10.00">ft::serv::_internal</text>
<text text-anchor="middle" x="615" y="-7.5" font-family="Helvetica,sans-Serif" font-size="10.00">::ai_failed::error</text>
</a>
</g>
</g>
<!-- Node14&#45;&gt;Node15 -->
<g id="edge15" class="edge">
<title>Node14&#45;&gt;Node15</title>
<path fill="none" stroke="midnightblue" d="M504.07,-15.5C520.63,-15.5 538.83,-15.5 555.57,-15.5"/>
<polygon fill="midnightblue" stroke="midnightblue" points="555.78,-19 565.78,-15.5 555.78,-12 555.78,-19"/>
</g>
<!-- Node20 -->
<g id="node20" class="node">
<title>Node20</title>
<g id="a_node20"><a xlink:href="structft_1_1serv_1_1socket__utils.html#aef0594e2d9bdc8b8e15bcab89950e093" target="_top" xlink:title=" ">
<polygon fill="white" stroke="black" points="391,-171.5 391,-201.5 504,-201.5 504,-171.5 391,-171.5"/>
<text text-anchor="start" x="399" y="-189.5" font-family="Helvetica,sans-Serif" font-size="10.00">ft::serv::socket_utils</text>
<text text-anchor="middle" x="447.5" y="-178.5" font-family="Helvetica,sans-Serif" font-size="10.00">::reverse_lookup</text>
</a>
</g>
</g>
<!-- Node19&#45;&gt;Node20 -->
<g id="edge20" class="edge">
<title>Node19&#45;&gt;Node20</title>
<path fill="none" stroke="midnightblue" d="M350.24,-186.5C360.15,-186.5 370.56,-186.5 380.72,-186.5"/>
<polygon fill="midnightblue" stroke="midnightblue" points="380.77,-190 390.77,-186.5 380.77,-183 380.77,-190"/>
</g>
<!-- Node22&#45;&gt;Node5 -->
<g id="edge23" class="edge">
<title>Node22&#45;&gt;Node5</title>
<path fill="none" stroke="midnightblue" d="M319.94,-328.04C340.85,-335.88 371.1,-347.23 396.78,-356.86"/>
<polygon fill="midnightblue" stroke="midnightblue" points="395.78,-360.22 406.38,-360.45 398.24,-353.66 395.78,-360.22"/>
</g>
<!-- Node23&#45;&gt;Node5 -->
<g id="edge25" class="edge">
<title>Node23&#45;&gt;Node5</title>
<path fill="none" stroke="midnightblue" d="M196.25,-440.56C239.57,-435.94 300.22,-427.59 352,-413.5 369.83,-408.65 388.85,-401.43 405.11,-394.58"/>
<polygon fill="midnightblue" stroke="midnightblue" points="406.54,-397.77 414.34,-390.61 403.77,-391.34 406.54,-397.77"/>
</g>
</g>
</svg>
        <g id="navigator" transform="translate(0 0)" fill="#404254">
                <rect fill="#f2f5e9" fill-opacity="0.5" stroke="#606060" stroke-width=".5" x="0" y="0" width="60" height="60"/>
                <use id="zoomplus" xlink:href="#zoomPlus" x="17" y="9" onmousedown="handleZoom(evt,'in')"/>
                <use id="zoomminus" xlink:href="#zoomMin" x="42" y="9" onmousedown="handleZoom(evt,'out')"/>
                <use id="reset" xlink:href="#resetDef" x="30" y="36" onmousedown="handleReset()"/>
                <g id="arrowUp" xlink:href="#dirArrow" transform="translate(30 24)" onmousedown="handlePan(0,-1)">
                  <use xlink:href="#rim" fill="#404040">
                        <set attributeName="fill" to="#808080" begin="arrowUp.mouseover" end="arrowUp.mouseout"/>
                  </use>
                  <path fill="none" stroke="white" stroke-width="1.5" d="M0,-3.0v7 M-2.5,-0.5L0,-3.0L2.5,-0.5"/>
                </g>
                <g id="arrowRight" xlink:href="#dirArrow" transform="rotate(90) translate(36 -43)" onmousedown="handlePan(1,0)">
                  <use xlink:href="#rim" fill="#404040">
                        <set attributeName="fill" to="#808080" begin="arrowRight.mouseover" end="arrowRight.mouseout"/>
                  </use>
                  <path fill="none" stroke="white" stroke-width="1.5" d="M0,-3.0v7 M-2.5,-0.5L0,-3.0L2.5,-0.5"/>
                </g>
                <g id="arrowDown" xlink:href="#dirArrow" transform="rotate(180) translate(-30 -48)" onmousedown="handlePan(0,1)">
                  <use xlink:href="#rim" fill="#404040">
                        <set attributeName="fill" to="#808080" begin="arrowDown.mouseover" end="arrowDown.mouseout"/>
                  </use>
                  <path fill="none" stroke="white" stroke-width="1.5" d="M0,-3.0v7 M-2.5,-0.5L0,-3.0L2.5,-0.5"/>
                </g>
                <g id="arrowLeft" xlink:href="#dirArrow" transform="rotate(270) translate(-36 17)" onmousedown="handlePan(-1,0)">
                  <use xlink:href="#rim" fill="#404040">
                        <set attributeName="fill" to="#808080" begin="arrowLeft.mouseover" end="arrowLeft.mouseout"/>
                  </use>
                  <path fill="none" stroke="white" stroke-width="1.5" d="M0,-3.0v7 M-2.5,-0.5L0,-3.0L2.5,-0.5"/>
                </g>
        </g>
        <svg viewBox="0 0 15 15" width="100%" height="30px" preserveAspectRatio="xMaxYMin meet">
         <g id="arrow_out" transform="scale(0.3 0.3)">
          <a xlink:href="main_8cpp_a0ddf1224851353fc92bfbff6f499fa97_cgraph_org.svg" target="_base">
           <rect id="button" ry="5" rx="5" y="6" x="6" height="38" width="38"
                fill="#f2f5e9" fill-opacity="0.5" stroke="#606060" stroke-width="1.0"/>
           <path id="arrow"
             d="M 11.500037,31.436501 C 11.940474,20.09759 22.043105,11.32322 32.158766,21.979434 L 37.068811,17.246167 C 37.068811,17.246167 37.088388,32 37.088388,32 L 22.160133,31.978069 C 22.160133,31.978069 26.997745,27.140456 26.997745,27.140456 C 18.528582,18.264221 13.291696,25.230495 11.500037,31.436501 z"
             style="fill:#404040;"/>
          </a>
         </g>
        </svg>
</svg>
