<?xml version="1.0" encoding="UTF-8" standalone="no"?>
<!DOCTYPE svg PUBLIC "-//W3C//DTD SVG 1.1//EN"
 "http://www.w3.org/Graphics/SVG/1.1/DTD/svg11.dtd">
<!-- Generated by graphviz version 2.43.0 (0)
 -->
<!-- Title: main Pages: 1 -->
<!--zoomable 471 -->
<svg id="main" version="1.1" xmlns="http://www.w3.org/2000/svg" xmlns:xlink="http://www.w3.org/1999/xlink" xml:space="preserve" onload="init(evt)">
<style type="text/css"><![CDATA[
.edge:hover path { stroke: red; }
.edge:hover polygon { stroke: red; fill: red; }
]]></style>
<script type="text/javascript"><![CDATA[
var edges = document.getElementsByTagName('g');
if (edges && edges.length) {
  for (var i=0;i<edges.length;i++) {
    if (edges[i].id.substr(0,4)=='edge') {
      edges[i].setAttribute('class','edge');
    }
  }
}
]]></script>
        <defs>
                <circle id="rim" cx="0" cy="0" r="7"/>
                <circle id="rim2" cx="0" cy="0" r="3.5"/>
                <g id="zoomPlus">
                        <use xlink:href="#rim" fill="#404040">
                                <set attributeName="fill" to="#808080" begin="zoomplus.mouseover" end="zoomplus.mouseout"/>
                        </use>
                        <path d="M-4,0h8M0,-4v8" fill="none" stroke="white" stroke-width="1.5" pointer-events="none"/>
                </g>
                <g id="zoomMin">
                        <use xlink:href="#rim" fill="#404040">
                                <set attributeName="fill" to="#808080" begin="zoomminus.mouseover" end="zoomminus.mouseout"/>
                        </use>
                        <path d="M-4,0h8" fill="none" stroke="white" stroke-width="1.5" pointer-events="none"/>
                </g>
                <g id="dirArrow">
                        <path fill="none" stroke="white" stroke-width="1.5" d="M0,-3.0v7 M-2.5,-0.5L0,-3.0L2.5,-0.5"/>
                </g>
               <g id="resetDef">
                       <use xlink:href="#rim2" fill="#404040">
                               <set attributeName="fill" to="#808080" begin="reset.mouseover" end="reset.mouseout"/>
                       </use>
               </g>
        </defs>

<script type="text/javascript">
var viewWidth = 695;
var viewHeight = 471;
var sectionId = 'dynsection-3';
</script>
<script xlink:href="svgpan.js"/>
<svg id="graph" class="graph">
<g id="viewport">
<title>main</title>
<polygon fill="white" stroke="transparent" points="-4,4 -4,-466.5 691,-466.5 691,4 -4,4"/>
<!-- Node1 -->
<g id="node1" class="node">
<title>Node1</title>
<g id="a_node1"><a xlink:title=" ">
<polygon fill="#bfbfbf" stroke="black" points="0,-285 0,-304 41,-304 41,-285 0,-285"/>
<text text-anchor="middle" x="20.5" y="-292" font-family="Helvetica,sans-Serif" font-size="10.00">main</text>
</a>
</g>
</g>
<!-- Node2 -->
<g id="node2" class="node">
<title>Node2</title>
<g id="a_node2"><a xlink:href="namespaceft_1_1irc.html#aa1775a5000d1e48b0418ea5a01f71b87" target="_top" xlink:title=" ">
<polygon fill="white" stroke="black" points="80,-443 80,-462 196,-462 196,-443 80,-443"/>
<text text-anchor="middle" x="138" y="-450" font-family="Helvetica,sans-Serif" font-size="10.00">ft::irc::_make_server</text>
</a>
</g>
</g>
<!-- Node1&#45;&gt;Node2 -->
<g id="edge1" class="edge">
<title>Node1&#45;&gt;Node2</title>
<path fill="none" stroke="midnightblue" d="M22.54,-304.17C25.75,-329.26 37.79,-397.06 77,-433.5 78.69,-435.07 80.51,-436.51 82.43,-437.83"/>
<polygon fill="midnightblue" stroke="midnightblue" points="80.93,-441.01 91.35,-442.9 84.38,-434.92 80.93,-441.01"/>
</g>
<!-- Node3 -->
<g id="node3" class="node">
<title>Node3</title>
<g id="a_node3"><a xlink:href="main_8cpp.html#a4b8f6bfb370734d9097623adf02d499d" target="_top" xlink:title=" ">
<polygon fill="white" stroke="black" points="104,-367 104,-386 172,-386 172,-367 104,-367"/>
<text text-anchor="middle" x="138" y="-374" font-family="Helvetica,sans-Serif" font-size="10.00">_on_signal</text>
</a>
</g>
</g>
<!-- Node1&#45;&gt;Node3 -->
<g id="edge2" class="edge">
<title>Node1&#45;&gt;Node3</title>
<path fill="none" stroke="midnightblue" d="M28.75,-304.36C38.49,-317.01 56.9,-338.93 77,-352.5 82.87,-356.47 89.5,-359.94 96.15,-362.91"/>
<polygon fill="midnightblue" stroke="midnightblue" points="95.25,-366.33 105.83,-366.92 97.93,-359.86 95.25,-366.33"/>
</g>
<!-- Node4 -->
<g id="node4" class="node">
<title>Node4</title>
<g id="a_node4"><a xlink:href="structft_1_1serv_1_1logger.html#aeb3f8c326c1e3b607121cf351df5fb55" target="_top" xlink:title=" ">
<polygon fill="white" stroke="black" points="235.5,-361 235.5,-380 351.5,-380 351.5,-361 235.5,-361"/>
<text text-anchor="middle" x="293.5" y="-368" font-family="Helvetica,sans-Serif" font-size="10.00">ft::serv::logger::warn</text>
</a>
</g>
</g>
<!-- Node1&#45;&gt;Node4 -->
<g id="edge26" class="edge">
<title>Node1&#45;&gt;Node4</title>
<path fill="none" stroke="midnightblue" d="M41.22,-304.01C51.68,-308.8 64.85,-314.44 77,-318.5 128.64,-335.76 189.03,-349.82 232.71,-358.95"/>
<polygon fill="midnightblue" stroke="midnightblue" points="232.1,-362.4 242.61,-360.99 233.52,-355.54 232.1,-362.4"/>
</g>
<!-- Node8 -->
<g id="node8" class="node">
<title>Node8</title>
<g id="a_node8"><a xlink:href="structft_1_1serv_1_1logger.html#a27e4ab1c4bf29bd34bb166a3ecd76449" target="_top" xlink:title=" ">
<polygon fill="white" stroke="black" points="80,-241 80,-260 196,-260 196,-241 80,-241"/>
<text text-anchor="middle" x="138" y="-248" font-family="Helvetica,sans-Serif" font-size="10.00">ft::serv::logger::error</text>
</a>
</g>
</g>
<!-- Node1&#45;&gt;Node8 -->
<g id="edge7" class="edge">
<title>Node1&#45;&gt;Node8</title>
<path fill="none" stroke="midnightblue" d="M41.04,-285.02C51.57,-280.09 64.86,-274.14 77,-269.5 82.62,-267.35 88.61,-265.25 94.53,-263.27"/>
<polygon fill="midnightblue" stroke="midnightblue" points="95.95,-266.49 104.38,-260.07 93.78,-259.83 95.95,-266.49"/>
</g>
<!-- Node9 -->
<g id="node9" class="node">
<title>Node9</title>
<g id="a_node9"><a xlink:href="classft_1_1serv_1_1bootstrap.html#a9b94aedd9970843c6c049f19cebaf7fe" target="_top" xlink:title=" ">
<polygon fill="white" stroke="black" points="87,-279.5 87,-309.5 189,-309.5 189,-279.5 87,-279.5"/>
<text text-anchor="start" x="95" y="-297.5" font-family="Helvetica,sans-Serif" font-size="10.00">ft::serv::bootstrap</text>
<text text-anchor="middle" x="138" y="-286.5" font-family="Helvetica,sans-Serif" font-size="10.00">::finalize</text>
</a>
</g>
</g>
<!-- Node1&#45;&gt;Node9 -->
<g id="edge9" class="edge">
<title>Node1&#45;&gt;Node9</title>
<path fill="none" stroke="midnightblue" d="M41.09,-294.5C51.05,-294.5 63.74,-294.5 76.6,-294.5"/>
<polygon fill="midnightblue" stroke="midnightblue" points="76.91,-298 86.91,-294.5 76.91,-291 76.91,-298"/>
</g>
<!-- Node10 -->
<g id="node10" class="node">
<title>Node10</title>
<g id="a_node10"><a xlink:href="structft_1_1serv_1_1logger.html#aed47352d1c3f60ac9f99929dcc7498d5" target="_top" xlink:title=" ">
<polygon fill="white" stroke="black" points="82.5,-405 82.5,-424 193.5,-424 193.5,-405 82.5,-405"/>
<text text-anchor="middle" x="138" y="-412" font-family="Helvetica,sans-Serif" font-size="10.00">ft::serv::logger::info</text>
</a>
</g>
</g>
<!-- Node1&#45;&gt;Node10 -->
<g id="edge10" class="edge">
<title>Node1&#45;&gt;Node10</title>
<path fill="none" stroke="midnightblue" d="M24.13,-304.14C30.09,-324.16 46.54,-370.49 77,-395.5 79.14,-397.26 81.45,-398.86 83.87,-400.31"/>
<polygon fill="midnightblue" stroke="midnightblue" points="82.51,-403.54 93.02,-404.94 85.68,-397.3 82.51,-403.54"/>
</g>
<!-- Node11 -->
<g id="node11" class="node">
<title>Node11</title>
<g id="a_node11"><a xlink:href="classft_1_1serv_1_1bootstrap.html#aa6e5ff5dc242e571b22a4625e4ad8f5f" target="_top" xlink:title=" ">
<polygon fill="white" stroke="black" points="87,-191.5 87,-221.5 189,-221.5 189,-191.5 87,-191.5"/>
<text text-anchor="start" x="95" y="-209.5" font-family="Helvetica,sans-Serif" font-size="10.00">ft::serv::bootstrap</text>
<text text-anchor="middle" x="138" y="-198.5" font-family="Helvetica,sans-Serif" font-size="10.00">::set_success</text>
</a>
</g>
</g>
<!-- Node1&#45;&gt;Node11 -->
<g id="edge12" class="edge">
<title>Node1&#45;&gt;Node11</title>
<path fill="none" stroke="midnightblue" d="M27.94,-284.73C37.32,-271.17 55.91,-246.61 77,-231.5 79.53,-229.69 82.22,-227.97 84.99,-226.36"/>
<polygon fill="midnightblue" stroke="midnightblue" points="86.88,-229.32 94.08,-221.54 83.6,-223.13 86.88,-229.32"/>
</g>
<!-- Node12 -->
<g id="node12" class="node">
<title>Node12</title>
<g id="a_node12"><a xlink:href="classft_1_1serv_1_1bootstrap.html#a61642849334859472e690b615dc6fdeb" target="_top" xlink:title=" ">
<polygon fill="white" stroke="black" points="87,-142.5 87,-172.5 189,-172.5 189,-142.5 87,-142.5"/>
<text text-anchor="start" x="95" y="-160.5" font-family="Helvetica,sans-Serif" font-size="10.00">ft::serv::bootstrap</text>
<text text-anchor="middle" x="138" y="-149.5" font-family="Helvetica,sans-Serif" font-size="10.00">::start_server</text>
</a>
</g>
</g>
<!-- Node1&#45;&gt;Node12 -->
<g id="edge13" class="edge">
<title>Node1&#45;&gt;Node12</title>
<path fill="none" stroke="midnightblue" d="M23.7,-284.91C29.1,-263.47 44.94,-211.21 77,-181.5 78.27,-180.32 79.61,-179.2 81,-178.12"/>
<polygon fill="midnightblue" stroke="midnightblue" points="83.04,-180.97 89.46,-172.54 79.18,-175.13 83.04,-180.97"/>
</g>
<!-- Node24 -->
<g id="node24" class="node">
<title>Node24</title>
<g id="a_node24"><a xlink:href="classft_1_1serv_1_1syscall__failed.html#a75eee00e267e027bb79a3de94a408bf1" target="_top" xlink:title=" ">
<polygon fill="white" stroke="black" points="77,-93.5 77,-123.5 199,-123.5 199,-93.5 77,-93.5"/>
<text text-anchor="start" x="85" y="-111.5" font-family="Helvetica,sans-Serif" font-size="10.00">ft::serv::syscall_failed</text>
<text text-anchor="middle" x="138" y="-100.5" font-family="Helvetica,sans-Serif" font-size="10.00">::what</text>
</a>
</g>
</g>
<!-- Node1&#45;&gt;Node24 -->
<g id="edge27" class="edge">
<title>Node1&#45;&gt;Node24</title>
<path fill="none" stroke="midnightblue" d="M22.1,-284.68C24.29,-257.01 34.19,-177.53 77,-132.5 77.91,-131.54 78.87,-130.62 79.86,-129.73"/>
<polygon fill="midnightblue" stroke="midnightblue" points="82.17,-132.38 88.12,-123.62 78,-126.75 82.17,-132.38"/>
</g>
<!-- Node3&#45;&gt;Node4 -->
<g id="edge3" class="edge">
<title>Node3&#45;&gt;Node4</title>
<path fill="none" stroke="midnightblue" d="M172.31,-375.2C187.86,-374.59 206.95,-373.84 225.31,-373.13"/>
<polygon fill="midnightblue" stroke="midnightblue" points="225.55,-376.62 235.4,-372.73 225.27,-369.63 225.55,-376.62"/>
</g>
<!-- Node5 -->
<g id="node5" class="node">
<title>Node5</title>
<g id="a_node5"><a xlink:href="namespaceft_1_1serv_1_1__internal.html#a4dfb80be7b817fc0ee18658f313a6274" target="_top" xlink:title=" ">
<polygon fill="white" stroke="black" points="398.5,-336.5 398.5,-366.5 496.5,-366.5 496.5,-336.5 398.5,-336.5"/>
<text text-anchor="start" x="406.5" y="-354.5" font-family="Helvetica,sans-Serif" font-size="10.00">ft::serv::_internal</text>
<text text-anchor="middle" x="447.5" y="-343.5" font-family="Helvetica,sans-Serif" font-size="10.00">::print</text>
</a>
</g>
</g>
<!-- Node4&#45;&gt;Node5 -->
<g id="edge4" class="edge">
<title>Node4&#45;&gt;Node5</title>
<path fill="none" stroke="midnightblue" d="M351.53,-363.37C363.51,-361.87 376.16,-360.29 388.18,-358.79"/>
<polygon fill="midnightblue" stroke="midnightblue" points="388.62,-362.26 398.11,-357.55 387.75,-355.32 388.62,-362.26"/>
</g>
<!-- Node6 -->
<g id="node6" class="node">
<title>Node6</title>
<g id="a_node6"><a xlink:href="namespaceft_1_1serv_1_1__internal.html#aff49349b58dc84fa69076e9cd27a1db4" target="_top" xlink:title=" ">
<polygon fill="white" stroke="black" points="543,-311.5 543,-341.5 687,-341.5 687,-311.5 543,-311.5"/>
<text text-anchor="start" x="551" y="-329.5" font-family="Helvetica,sans-Serif" font-size="10.00">ft::serv::_internal</text>
<text text-anchor="middle" x="615" y="-318.5" font-family="Helvetica,sans-Serif" font-size="10.00">::make_format_string_line</text>
</a>
</g>
</g>
<!-- Node5&#45;&gt;Node6 -->
<g id="edge5" class="edge">
<title>Node5&#45;&gt;Node6</title>
<path fill="none" stroke="midnightblue" d="M496.81,-344.2C508.18,-342.48 520.61,-340.61 532.98,-338.74"/>
<polygon fill="midnightblue" stroke="midnightblue" points="533.5,-342.2 542.87,-337.25 532.46,-335.28 533.5,-342.2"/>
</g>
<!-- Node7 -->
<g id="node7" class="node">
<title>Node7</title>
<g id="a_node7"><a xlink:href="namespaceft_1_1serv_1_1__internal.html#aad4af39d62c2b1687b0bef7a91bf6c60" target="_top" xlink:title=" ">
<polygon fill="white" stroke="black" points="563.5,-360.5 563.5,-390.5 666.5,-390.5 666.5,-360.5 563.5,-360.5"/>
<text text-anchor="start" x="571.5" y="-378.5" font-family="Helvetica,sans-Serif" font-size="10.00">ft::serv::_internal</text>
<text text-anchor="middle" x="615" y="-367.5" font-family="Helvetica,sans-Serif" font-size="10.00">::make_utc_string</text>
</a>
</g>
</g>
<!-- Node5&#45;&gt;Node7 -->
<g id="edge6" class="edge">
<title>Node5&#45;&gt;Node7</title>
<path fill="none" stroke="midnightblue" d="M496.81,-358.51C514.44,-361.06 534.61,-363.99 553.19,-366.68"/>
<polygon fill="midnightblue" stroke="midnightblue" points="552.92,-370.18 563.32,-368.15 553.93,-363.25 552.92,-370.18"/>
</g>
<!-- Node8&#45;&gt;Node5 -->
<g id="edge8" class="edge">
<title>Node8&#45;&gt;Node5</title>
<path fill="none" stroke="midnightblue" d="M180.17,-260.03C186.78,-262.52 193.3,-265.64 199,-269.5 219.91,-283.68 213.22,-300.7 235,-313.5 281.7,-340.95 343.46,-349.49 388.17,-351.73"/>
<polygon fill="midnightblue" stroke="midnightblue" points="388.16,-355.24 398.3,-352.15 388.45,-348.24 388.16,-355.24"/>
</g>
<!-- Node10&#45;&gt;Node5 -->
<g id="edge11" class="edge">
<title>Node10&#45;&gt;Node5</title>
<path fill="none" stroke="midnightblue" d="M193.56,-412.09C237.03,-409.21 299.14,-402.97 352,-389.5 370.05,-384.9 389.24,-377.65 405.58,-370.71"/>
<polygon fill="midnightblue" stroke="midnightblue" points="407.07,-373.88 414.85,-366.69 404.28,-367.47 407.07,-373.88"/>
</g>
<!-- Node13 -->
<g id="node13" class="node">
<title>Node13</title>
<g id="a_node13"><a xlink:href="bootstrap_8cpp.html#acf03e66a45bc7cc346d17d294290c024" target="_top" xlink:title=" ">
<polygon fill="white" stroke="black" points="241.5,-148 241.5,-167 345.5,-167 345.5,-148 241.5,-148"/>
<text text-anchor="middle" x="293.5" y="-155" font-family="Helvetica,sans-Serif" font-size="10.00">_to_c_str_nullable</text>
</a>
</g>
</g>
<!-- Node12&#45;&gt;Node13 -->
<g id="edge14" class="edge">
<title>Node12&#45;&gt;Node13</title>
<path fill="none" stroke="midnightblue" d="M189.26,-157.5C202.7,-157.5 217.37,-157.5 231.33,-157.5"/>
<polygon fill="midnightblue" stroke="midnightblue" points="231.34,-161 241.34,-157.5 231.34,-154 231.34,-161"/>
</g>
<!-- Node14 -->
<g id="node14" class="node">
<title>Node14</title>
<g id="a_node14"><a xlink:href="structft_1_1serv_1_1socket__utils.html#a6ad8ff64c40ce8341bee05803ca0b2bd" target="_top" xlink:title=" ">
<polygon fill="white" stroke="black" points="237,-98.5 237,-128.5 350,-128.5 350,-98.5 237,-98.5"/>
<text text-anchor="start" x="245" y="-116.5" font-family="Helvetica,sans-Serif" font-size="10.00">ft::serv::socket_utils</text>
<text text-anchor="middle" x="293.5" y="-105.5" font-family="Helvetica,sans-Serif" font-size="10.00">::bind_socket</text>
</a>
</g>
</g>
<!-- Node12&#45;&gt;Node14 -->
<g id="edge15" class="edge">
<title>Node12&#45;&gt;Node14</title>
<path fill="none" stroke="midnightblue" d="M189.26,-143.09C202.35,-139.34 216.61,-135.25 230.23,-131.35"/>
<polygon fill="midnightblue" stroke="midnightblue" points="231.37,-134.66 240.02,-128.54 229.44,-127.94 231.37,-134.66"/>
</g>
<!-- Node18 -->
<g id="node18" class="node">
<title>Node18</title>
<g id="a_node18"><a xlink:href="structft_1_1serv_1_1socket__utils.html#ad0dccc18b1c71b736ffcd2328c3f3ccd" target="_top" xlink:title=" ">
<polygon fill="white" stroke="black" points="237,-49.5 237,-79.5 350,-79.5 350,-49.5 237,-49.5"/>
<text text-anchor="start" x="245" y="-67.5" font-family="Helvetica,sans-Serif" font-size="10.00">ft::serv::socket_utils</text>
<text text-anchor="middle" x="293.5" y="-56.5" font-family="Helvetica,sans-Serif" font-size="10.00">::close_socket</text>
</a>
</g>
</g>
<!-- Node12&#45;&gt;Node18 -->
<g id="edge19" class="edge">
<title>Node12&#45;&gt;Node18</title>
<path fill="none" stroke="midnightblue" d="M182.36,-142.48C188.21,-139.59 193.93,-136.27 199,-132.5 219.27,-117.41 214.74,-103.59 235,-88.5 236.83,-87.13 238.75,-85.83 240.74,-84.59"/>
<polygon fill="midnightblue" stroke="midnightblue" points="242.74,-87.48 249.75,-79.53 239.31,-81.37 242.74,-87.48"/>
</g>
<!-- Node19 -->
<g id="node19" class="node">
<title>Node19</title>
<g id="a_node19"><a xlink:href="structft_1_1serv_1_1socket__utils.html#af0c7d126407d94cc7a1b083141ff2388" target="_top" xlink:title=" ">
<polygon fill="white" stroke="black" points="237,-0.5 237,-30.5 350,-30.5 350,-0.5 237,-0.5"/>
<text text-anchor="start" x="245" y="-18.5" font-family="Helvetica,sans-Serif" font-size="10.00">ft::serv::socket_utils</text>
<text text-anchor="middle" x="293.5" y="-7.5" font-family="Helvetica,sans-Serif" font-size="10.00">::listen_socket</text>
</a>
</g>
</g>
<!-- Node12&#45;&gt;Node19 -->
<g id="edge20" class="edge">
<title>Node12&#45;&gt;Node19</title>
<path fill="none" stroke="midnightblue" d="M185.97,-142.49C190.75,-139.68 195.22,-136.38 199,-132.5 229.94,-100.76 204.07,-71.25 235,-39.5 235.93,-38.54 236.91,-37.62 237.93,-36.73"/>
<polygon fill="midnightblue" stroke="midnightblue" points="240.32,-39.32 246.35,-30.6 236.2,-33.66 240.32,-39.32"/>
</g>
<!-- Node20 -->
<g id="node20" class="node">
<title>Node20</title>
<g id="a_node20"><a xlink:href="structft_1_1serv_1_1socket__utils.html#af26c480a74e72a232aca84cd17e2de61" target="_top" xlink:title=" ">
<polygon fill="white" stroke="black" points="237,-186.5 237,-216.5 350,-216.5 350,-186.5 237,-186.5"/>
<text text-anchor="start" x="245" y="-204.5" font-family="Helvetica,sans-Serif" font-size="10.00">ft::serv::socket_utils</text>
<text text-anchor="middle" x="293.5" y="-193.5" font-family="Helvetica,sans-Serif" font-size="10.00">::name_socket</text>
</a>
</g>
</g>
<!-- Node12&#45;&gt;Node20 -->
<g id="edge21" class="edge">
<title>Node12&#45;&gt;Node20</title>
<path fill="none" stroke="midnightblue" d="M189.26,-171.91C202.35,-175.66 216.61,-179.75 230.23,-183.65"/>
<polygon fill="midnightblue" stroke="midnightblue" points="229.44,-187.06 240.02,-186.46 231.37,-180.34 229.44,-187.06"/>
</g>
<!-- Node22 -->
<g id="node22" class="node">
<title>Node22</title>
<g id="a_node22"><a xlink:href="structft_1_1serv_1_1socket__utils.html#a818575bfd7756e64e4226b85a7492bc7" target="_top" xlink:title=" ">
<polygon fill="white" stroke="black" points="237,-235.5 237,-265.5 350,-265.5 350,-235.5 237,-235.5"/>
<text text-anchor="start" x="245" y="-253.5" font-family="Helvetica,sans-Serif" font-size="10.00">ft::serv::socket_utils</text>
<text text-anchor="middle" x="293.5" y="-242.5" font-family="Helvetica,sans-Serif" font-size="10.00">::set_nonblocking</text>
</a>
</g>
</g>
<!-- Node12&#45;&gt;Node22 -->
<g id="edge23" class="edge">
<title>Node12&#45;&gt;Node22</title>
<path fill="none" stroke="midnightblue" d="M183.93,-172.51C189.23,-175.13 194.39,-178.12 199,-181.5 219.37,-196.44 214.85,-210.26 235,-225.5 237.32,-227.25 239.78,-228.92 242.33,-230.48"/>
<polygon fill="midnightblue" stroke="midnightblue" points="240.81,-233.64 251.25,-235.45 244.22,-227.53 240.81,-233.64"/>
</g>
<!-- Node23 -->
<g id="node23" class="node">
<title>Node23</title>
<g id="a_node23"><a xlink:href="structft_1_1serv_1_1logger.html#af77e51bd1d1172d9ebff34eb9fe1db6a" target="_top" xlink:title=" ">
<polygon fill="white" stroke="black" points="235,-285 235,-304 352,-304 352,-285 235,-285"/>
<text text-anchor="middle" x="293.5" y="-292" font-family="Helvetica,sans-Serif" font-size="10.00">ft::serv::logger::trace</text>
</a>
</g>
</g>
<!-- Node12&#45;&gt;Node23 -->
<g id="edge24" class="edge">
<title>Node12&#45;&gt;Node23</title>
<path fill="none" stroke="midnightblue" d="M187.45,-172.57C191.66,-175.11 195.61,-178.07 199,-181.5 230.16,-213.02 203.12,-243.71 235,-274.5 237.1,-276.53 239.42,-278.36 241.89,-280"/>
<polygon fill="midnightblue" stroke="midnightblue" points="240.28,-283.11 250.72,-284.89 243.67,-276.99 240.28,-283.11"/>
</g>
<!-- Node15 -->
<g id="node15" class="node">
<title>Node15</title>
<g id="a_node15"><a xlink:href="structft_1_1serv_1_1socket__utils.html#af1553b9c3e9cdc5e38f7ecf6c10fb3c1" target="_top" xlink:title=" ">
<polygon fill="white" stroke="black" points="391,-69.5 391,-99.5 504,-99.5 504,-69.5 391,-69.5"/>
<text text-anchor="start" x="399" y="-87.5" font-family="Helvetica,sans-Serif" font-size="10.00">ft::serv::socket_utils</text>
<text text-anchor="middle" x="447.5" y="-76.5" font-family="Helvetica,sans-Serif" font-size="10.00">::forward_lookup</text>
</a>
</g>
</g>
<!-- Node14&#45;&gt;Node15 -->
<g id="edge16" class="edge">
<title>Node14&#45;&gt;Node15</title>
<path fill="none" stroke="midnightblue" d="M350.24,-102.87C360.15,-100.97 370.56,-98.99 380.72,-97.05"/>
<polygon fill="midnightblue" stroke="midnightblue" points="381.6,-100.44 390.77,-95.13 380.29,-93.57 381.6,-100.44"/>
</g>
<!-- Node17 -->
<g id="node17" class="node">
<title>Node17</title>
<g id="a_node17"><a xlink:href="structft_1_1serv_1_1socket__utils.html#a579854fb614efa2584ff58edb79974f1" target="_top" xlink:title=" ">
<polygon fill="white" stroke="black" points="388,-118.5 388,-148.5 507,-148.5 507,-118.5 388,-118.5"/>
<text text-anchor="start" x="396" y="-136.5" font-family="Helvetica,sans-Serif" font-size="10.00">ft::serv::socket_utils</text>
<text text-anchor="middle" x="447.5" y="-125.5" font-family="Helvetica,sans-Serif" font-size="10.00">::reuse_address_bind</text>
</a>
</g>
</g>
<!-- Node14&#45;&gt;Node17 -->
<g id="edge18" class="edge">
<title>Node14&#45;&gt;Node17</title>
<path fill="none" stroke="midnightblue" d="M350.24,-120.83C359.26,-122.02 368.69,-123.26 377.97,-124.48"/>
<polygon fill="midnightblue" stroke="midnightblue" points="377.59,-127.96 387.96,-125.8 378.5,-121.02 377.59,-127.96"/>
</g>
<!-- Node16 -->
<g id="node16" class="node">
<title>Node16</title>
<g id="a_node16"><a xlink:href="classft_1_1serv_1_1__internal_1_1ai__failed.html#ad3aa900794508d370ef6e1b3c104a39e" target="_top" xlink:title=" ">
<polygon fill="white" stroke="black" points="566,-69.5 566,-99.5 664,-99.5 664,-69.5 566,-69.5"/>
<text text-anchor="start" x="574" y="-87.5" font-family="Helvetica,sans-Serif" font-size="10.00">ft::serv::_internal</text>
<text text-anchor="middle" x="615" y="-76.5" font-family="Helvetica,sans-Serif" font-size="10.00">::ai_failed::error</text>
</a>
</g>
</g>
<!-- Node15&#45;&gt;Node16 -->
<g id="edge17" class="edge">
<title>Node15&#45;&gt;Node16</title>
<path fill="none" stroke="midnightblue" d="M504.07,-84.5C520.63,-84.5 538.83,-84.5 555.57,-84.5"/>
<polygon fill="midnightblue" stroke="midnightblue" points="555.78,-88 565.78,-84.5 555.78,-81 555.78,-88"/>
</g>
<!-- Node21 -->
<g id="node21" class="node">
<title>Node21</title>
<g id="a_node21"><a xlink:href="structft_1_1serv_1_1socket__utils.html#aef0594e2d9bdc8b8e15bcab89950e093" target="_top" xlink:title=" ">
<polygon fill="white" stroke="black" points="391,-186.5 391,-216.5 504,-216.5 504,-186.5 391,-186.5"/>
<text text-anchor="start" x="399" y="-204.5" font-family="Helvetica,sans-Serif" font-size="10.00">ft::serv::socket_utils</text>
<text text-anchor="middle" x="447.5" y="-193.5" font-family="Helvetica,sans-Serif" font-size="10.00">::reverse_lookup</text>
</a>
</g>
</g>
<!-- Node20&#45;&gt;Node21 -->
<g id="edge22" class="edge">
<title>Node20&#45;&gt;Node21</title>
<path fill="none" stroke="midnightblue" d="M350.24,-201.5C360.15,-201.5 370.56,-201.5 380.72,-201.5"/>
<polygon fill="midnightblue" stroke="midnightblue" points="380.77,-205 390.77,-201.5 380.77,-198 380.77,-205"/>
</g>
<!-- Node23&#45;&gt;Node5 -->
<g id="edge25" class="edge">
<title>Node23&#45;&gt;Node5</title>
<path fill="none" stroke="midnightblue" d="M319.94,-304.04C340.85,-311.88 371.1,-323.23 396.78,-332.86"/>
<polygon fill="midnightblue" stroke="midnightblue" points="395.78,-336.22 406.38,-336.45 398.24,-329.66 395.78,-336.22"/>
</g>
</g>
</svg>
        <g id="navigator" transform="translate(0 0)" fill="#404254">
                <rect fill="#f2f5e9" fill-opacity="0.5" stroke="#606060" stroke-width=".5" x="0" y="0" width="60" height="60"/>
                <use id="zoomplus" xlink:href="#zoomPlus" x="17" y="9" onmousedown="handleZoom(evt,'in')"/>
                <use id="zoomminus" xlink:href="#zoomMin" x="42" y="9" onmousedown="handleZoom(evt,'out')"/>
                <use id="reset" xlink:href="#resetDef" x="30" y="36" onmousedown="handleReset()"/>
                <g id="arrowUp" xlink:href="#dirArrow" transform="translate(30 24)" onmousedown="handlePan(0,-1)">
                  <use xlink:href="#rim" fill="#404040">
                        <set attributeName="fill" to="#808080" begin="arrowUp.mouseover" end="arrowUp.mouseout"/>
                  </use>
                  <path fill="none" stroke="white" stroke-width="1.5" d="M0,-3.0v7 M-2.5,-0.5L0,-3.0L2.5,-0.5"/>
                </g>
                <g id="arrowRight" xlink:href="#dirArrow" transform="rotate(90) translate(36 -43)" onmousedown="handlePan(1,0)">
                  <use xlink:href="#rim" fill="#404040">
                        <set attributeName="fill" to="#808080" begin="arrowRight.mouseover" end="arrowRight.mouseout"/>
                  </use>
                  <path fill="none" stroke="white" stroke-width="1.5" d="M0,-3.0v7 M-2.5,-0.5L0,-3.0L2.5,-0.5"/>
                </g>
                <g id="arrowDown" xlink:href="#dirArrow" transform="rotate(180) translate(-30 -48)" onmousedown="handlePan(0,1)">
                  <use xlink:href="#rim" fill="#404040">
                        <set attributeName="fill" to="#808080" begin="arrowDown.mouseover" end="arrowDown.mouseout"/>
                  </use>
                  <path fill="none" stroke="white" stroke-width="1.5" d="M0,-3.0v7 M-2.5,-0.5L0,-3.0L2.5,-0.5"/>
                </g>
                <g id="arrowLeft" xlink:href="#dirArrow" transform="rotate(270) translate(-36 17)" onmousedown="handlePan(-1,0)">
                  <use xlink:href="#rim" fill="#404040">
                        <set attributeName="fill" to="#808080" begin="arrowLeft.mouseover" end="arrowLeft.mouseout"/>
                  </use>
                  <path fill="none" stroke="white" stroke-width="1.5" d="M0,-3.0v7 M-2.5,-0.5L0,-3.0L2.5,-0.5"/>
                </g>
        </g>
        <svg viewBox="0 0 15 15" width="100%" height="30px" preserveAspectRatio="xMaxYMin meet">
         <g id="arrow_out" transform="scale(0.3 0.3)">
          <a xlink:href="main_8cpp_a0ddf1224851353fc92bfbff6f499fa97_cgraph_org.svg" target="_base">
           <rect id="button" ry="5" rx="5" y="6" x="6" height="38" width="38"
                fill="#f2f5e9" fill-opacity="0.5" stroke="#606060" stroke-width="1.0"/>
           <path id="arrow"
             d="M 11.500037,31.436501 C 11.940474,20.09759 22.043105,11.32322 32.158766,21.979434 L 37.068811,17.246167 C 37.068811,17.246167 37.088388,32 37.088388,32 L 22.160133,31.978069 C 22.160133,31.978069 26.997745,27.140456 26.997745,27.140456 C 18.528582,18.264221 13.291696,25.230495 11.500037,31.436501 z"
             style="fill:#404040;"/>
          </a>
         </g>
        </svg>
</svg>
