<?xml version="1.0" encoding="UTF-8" standalone="no"?>
<!DOCTYPE svg PUBLIC "-//W3C//DTD SVG 1.1//EN"
 "http://www.w3.org/Graphics/SVG/1.1/DTD/svg11.dtd">
<!-- Generated by graphviz version 2.43.0 (0)
 -->
<!-- Title: message.hpp Pages: 1 -->
<svg width="1519pt" height="308pt"
 viewBox="0.00 0.00 1519.00 308.00" xmlns="http://www.w3.org/2000/svg" xmlns:xlink="http://www.w3.org/1999/xlink">
<g id="graph0" class="graph" transform="scale(1 1) rotate(0) translate(4 304)">
<title>message.hpp</title>
<polygon fill="white" stroke="transparent" points="-4,4 -4,-304 1515,-304 1515,4 -4,4"/>
<!-- Node1 -->
<g id="node1" class="node">
<title>Node1</title>
<g id="a_node1"><a xlink:title=" ">
<polygon fill="#bfbfbf" stroke="black" points="700.5,-280.5 700.5,-299.5 782.5,-299.5 782.5,-280.5 700.5,-280.5"/>
<text text-anchor="middle" x="741.5" y="-287.5" font-family="Helvetica,sans-Serif" font-size="10.00">message.hpp</text>
</a>
</g>
</g>
<!-- Node2 -->
<g id="node2" class="node">
<title>Node2</title>
<g id="a_node2"><a xlink:href="channel_8cpp.html" target="_top" xlink:title=" ">
<polygon fill="white" stroke="black" points="1436,-112.5 1436,-131.5 1511,-131.5 1511,-112.5 1436,-112.5"/>
<text text-anchor="middle" x="1473.5" y="-119.5" font-family="Helvetica,sans-Serif" font-size="10.00">channel.cpp</text>
</a>
</g>
</g>
<!-- Node1&#45;&gt;Node2 -->
<g id="edge1" class="edge">
<title>Node1&#45;&gt;Node2</title>
<path fill="none" stroke="midnightblue" d="M792.93,-289.7C883.35,-289.74 1076.07,-284.5 1232.5,-244 1326.77,-219.59 1426.95,-154.97 1461.2,-131.59"/>
<polygon fill="midnightblue" stroke="midnightblue" points="792.69,-286.2 782.68,-289.67 792.67,-293.2 792.69,-286.2"/>
</g>
<!-- Node3 -->
<g id="node3" class="node">
<title>Node3</title>
<g id="a_node3"><a xlink:href="client__handler_8hpp.html" target="_top" xlink:title=" ">
<polygon fill="white" stroke="black" points="394.5,-112.5 394.5,-131.5 500.5,-131.5 500.5,-112.5 394.5,-112.5"/>
<text text-anchor="middle" x="447.5" y="-119.5" font-family="Helvetica,sans-Serif" font-size="10.00">client_handler.hpp</text>
</a>
</g>
</g>
<!-- Node1&#45;&gt;Node3 -->
<g id="edge2" class="edge">
<title>Node1&#45;&gt;Node3</title>
<path fill="none" stroke="midnightblue" d="M690.26,-284.57C628.08,-276.39 524.37,-253.24 466.5,-188 452.14,-171.82 448.61,-145.32 447.76,-131.69"/>
<polygon fill="midnightblue" stroke="midnightblue" points="689.9,-288.06 700.25,-285.81 690.75,-281.11 689.9,-288.06"/>
</g>
<!-- Node6 -->
<g id="node6" class="node">
<title>Node6</title>
<g id="a_node6"><a xlink:href="message_8cpp.html" target="_top" xlink:title=" ">
<polygon fill="white" stroke="black" points="300,-224.5 300,-243.5 381,-243.5 381,-224.5 300,-224.5"/>
<text text-anchor="middle" x="340.5" y="-231.5" font-family="Helvetica,sans-Serif" font-size="10.00">message.cpp</text>
</a>
</g>
</g>
<!-- Node1&#45;&gt;Node6 -->
<g id="edge5" class="edge">
<title>Node1&#45;&gt;Node6</title>
<path fill="none" stroke="midnightblue" d="M690.47,-282.9C622.91,-274.69 500.11,-259.36 395.5,-244 390.81,-243.31 385.9,-242.56 381.03,-241.79"/>
<polygon fill="midnightblue" stroke="midnightblue" points="690.08,-286.37 700.43,-284.1 690.92,-279.42 690.08,-286.37"/>
</g>
<!-- Node7 -->
<g id="node7" class="node">
<title>Node7</title>
<g id="a_node7"><a xlink:href="message__decoder_8hpp.html" target="_top" xlink:title=" ">
<polygon fill="white" stroke="black" points="0,-168.5 0,-187.5 125,-187.5 125,-168.5 0,-168.5"/>
<text text-anchor="middle" x="62.5" y="-175.5" font-family="Helvetica,sans-Serif" font-size="10.00">message_decoder.hpp</text>
</a>
</g>
</g>
<!-- Node1&#45;&gt;Node7 -->
<g id="edge6" class="edge">
<title>Node1&#45;&gt;Node7</title>
<path fill="none" stroke="midnightblue" d="M690.25,-288.16C600.99,-285.82 411.59,-277.04 255.5,-244 190.64,-230.27 117.26,-201.78 82.63,-187.52"/>
<polygon fill="midnightblue" stroke="midnightblue" points="690.29,-291.66 700.38,-288.4 690.47,-284.66 690.29,-291.66"/>
</g>
<!-- Node10 -->
<g id="node10" class="node">
<title>Node10</title>
<g id="a_node10"><a xlink:href="message__encoder_8hpp.html" target="_top" xlink:title=" ">
<polygon fill="white" stroke="black" points="294,-168.5 294,-187.5 419,-187.5 419,-168.5 294,-168.5"/>
<text text-anchor="middle" x="356.5" y="-175.5" font-family="Helvetica,sans-Serif" font-size="10.00">message_encoder.hpp</text>
</a>
</g>
</g>
<!-- Node1&#45;&gt;Node10 -->
<g id="edge10" class="edge">
<title>Node1&#45;&gt;Node10</title>
<path fill="none" stroke="midnightblue" d="M690.04,-284.92C614.65,-278.37 478.27,-264.16 433.5,-244 403.83,-230.64 376.63,-202.38 363.97,-187.93"/>
<polygon fill="midnightblue" stroke="midnightblue" points="690,-288.43 700.26,-285.8 690.6,-281.46 690,-288.43"/>
</g>
<!-- Node11 -->
<g id="node11" class="node">
<title>Node11</title>
<g id="a_node11"><a xlink:href="processor_8hpp.html" target="_top" xlink:title=" ">
<polygon fill="white" stroke="black" points="629.5,-168.5 629.5,-187.5 713.5,-187.5 713.5,-168.5 629.5,-168.5"/>
<text text-anchor="middle" x="671.5" y="-175.5" font-family="Helvetica,sans-Serif" font-size="10.00">processor.hpp</text>
</a>
</g>
</g>
<!-- Node1&#45;&gt;Node11 -->
<g id="edge13" class="edge">
<title>Node1&#45;&gt;Node11</title>
<path fill="none" stroke="midnightblue" d="M730.45,-271.64C715.25,-247.74 688.45,-205.63 676.97,-187.59"/>
<polygon fill="midnightblue" stroke="midnightblue" points="727.69,-273.81 736.01,-280.37 733.59,-270.05 727.69,-273.81"/>
</g>
<!-- Node13 -->
<g id="node13" class="node">
<title>Node13</title>
<g id="a_node13"><a xlink:href="processor__channel_8hpp.html" target="_top" xlink:title=" ">
<polygon fill="white" stroke="black" points="1129.5,-112.5 1129.5,-131.5 1257.5,-131.5 1257.5,-112.5 1129.5,-112.5"/>
<text text-anchor="middle" x="1193.5" y="-119.5" font-family="Helvetica,sans-Serif" font-size="10.00">processor_channel.hpp</text>
</a>
</g>
</g>
<!-- Node1&#45;&gt;Node13 -->
<g id="edge25" class="edge">
<title>Node1&#45;&gt;Node13</title>
<path fill="none" stroke="midnightblue" d="M792.95,-286.42C847.57,-282.29 935.62,-271.59 1006.5,-244 1080.73,-215.1 1156.58,-154.36 1183.38,-131.74"/>
<polygon fill="midnightblue" stroke="midnightblue" points="792.55,-282.94 782.82,-287.14 793.04,-289.93 792.55,-282.94"/>
</g>
<!-- Node14 -->
<g id="node14" class="node">
<title>Node14</title>
<g id="a_node14"><a xlink:href="processor__misc_8hpp.html" target="_top" xlink:title=" ">
<polygon fill="white" stroke="black" points="557,-112.5 557,-131.5 670,-131.5 670,-112.5 557,-112.5"/>
<text text-anchor="middle" x="613.5" y="-119.5" font-family="Helvetica,sans-Serif" font-size="10.00">processor_misc.hpp</text>
</a>
</g>
</g>
<!-- Node1&#45;&gt;Node14 -->
<g id="edge26" class="edge">
<title>Node1&#45;&gt;Node14</title>
<path fill="none" stroke="midnightblue" d="M743.82,-270.3C745.96,-244.46 745.89,-197.68 722.5,-168 707.48,-148.95 683.01,-137.89 661.06,-131.51"/>
<polygon fill="midnightblue" stroke="midnightblue" points="740.34,-269.96 742.79,-280.27 747.3,-270.68 740.34,-269.96"/>
</g>
<!-- Node15 -->
<g id="node15" class="node">
<title>Node15</title>
<g id="a_node15"><a xlink:href="processor__register_8hpp.html" target="_top" xlink:title=" ">
<polygon fill="white" stroke="black" points="946,-112.5 946,-131.5 1073,-131.5 1073,-112.5 946,-112.5"/>
<text text-anchor="middle" x="1009.5" y="-119.5" font-family="Helvetica,sans-Serif" font-size="10.00">processor_register.hpp</text>
</a>
</g>
</g>
<!-- Node1&#45;&gt;Node15 -->
<g id="edge27" class="edge">
<title>Node1&#45;&gt;Node15</title>
<path fill="none" stroke="midnightblue" d="M792.69,-289.67C863.22,-287.39 987.13,-271.04 1036.5,-188 1047.74,-169.09 1029.83,-144.64 1018.2,-131.79"/>
<polygon fill="midnightblue" stroke="midnightblue" points="792.6,-286.17 782.69,-289.91 792.77,-293.17 792.6,-286.17"/>
</g>
<!-- Node16 -->
<g id="node16" class="node">
<title>Node16</title>
<g id="a_node16"><a xlink:href="processor__send__message_8hpp.html" target="_top" xlink:title=" ">
<polygon fill="white" stroke="black" points="688,-112.5 688,-131.5 851,-131.5 851,-112.5 688,-112.5"/>
<text text-anchor="middle" x="769.5" y="-119.5" font-family="Helvetica,sans-Serif" font-size="10.00">processor_send_message.hpp</text>
</a>
</g>
</g>
<!-- Node1&#45;&gt;Node16 -->
<g id="edge28" class="edge">
<title>Node1&#45;&gt;Node16</title>
<path fill="none" stroke="midnightblue" d="M747.96,-270.95C750.65,-262.81 753.59,-253.02 755.5,-244 764.29,-202.41 767.91,-151.54 769.06,-131.6"/>
<polygon fill="midnightblue" stroke="midnightblue" points="744.62,-269.9 744.67,-280.5 751.24,-272.19 744.62,-269.9"/>
</g>
<!-- Node17 -->
<g id="node17" class="node">
<title>Node17</title>
<g id="a_node17"><a xlink:href="reply_8cpp.html" target="_top" xlink:title=" ">
<polygon fill="white" stroke="black" points="475.5,-168.5 475.5,-187.5 535.5,-187.5 535.5,-168.5 475.5,-168.5"/>
<text text-anchor="middle" x="505.5" y="-175.5" font-family="Helvetica,sans-Serif" font-size="10.00">reply.cpp</text>
</a>
</g>
</g>
<!-- Node1&#45;&gt;Node17 -->
<g id="edge29" class="edge">
<title>Node1&#45;&gt;Node17</title>
<path fill="none" stroke="midnightblue" d="M713.65,-276.02C664.85,-253.27 565.12,-206.79 523.93,-187.59"/>
<polygon fill="midnightblue" stroke="midnightblue" points="712.44,-279.32 722.98,-280.37 715.4,-272.97 712.44,-279.32"/>
</g>
<!-- Node18 -->
<g id="node18" class="node">
<title>Node18</title>
<g id="a_node18"><a xlink:href="reply_8hpp.html" target="_top" xlink:title=" ">
<polygon fill="white" stroke="black" points="863,-224.5 863,-243.5 924,-243.5 924,-224.5 863,-224.5"/>
<text text-anchor="middle" x="893.5" y="-231.5" font-family="Helvetica,sans-Serif" font-size="10.00">reply.hpp</text>
</a>
</g>
</g>
<!-- Node1&#45;&gt;Node18 -->
<g id="edge30" class="edge">
<title>Node1&#45;&gt;Node18</title>
<path fill="none" stroke="midnightblue" d="M775.17,-277.04C803.77,-266.88 844.11,-252.55 869.53,-243.52"/>
<polygon fill="midnightblue" stroke="midnightblue" points="773.84,-273.8 765.58,-280.44 776.18,-280.39 773.84,-273.8"/>
</g>
<!-- Node20 -->
<g id="node20" class="node">
<title>Node20</title>
<g id="a_node20"><a xlink:href="server_8cpp.html" target="_top" xlink:title=" ">
<polygon fill="white" stroke="black" points="1276,-112.5 1276,-131.5 1343,-131.5 1343,-112.5 1276,-112.5"/>
<text text-anchor="middle" x="1309.5" y="-119.5" font-family="Helvetica,sans-Serif" font-size="10.00">server.cpp</text>
</a>
</g>
</g>
<!-- Node1&#45;&gt;Node20 -->
<g id="edge59" class="edge">
<title>Node1&#45;&gt;Node20</title>
<path fill="none" stroke="midnightblue" d="M792.95,-285.95C913.8,-277.8 1211.1,-251.62 1284.5,-188 1301.49,-173.27 1306.99,-145.63 1308.73,-131.62"/>
<polygon fill="midnightblue" stroke="midnightblue" points="792.59,-282.47 782.84,-286.62 793.05,-289.45 792.59,-282.47"/>
</g>
<!-- Node21 -->
<g id="node21" class="node">
<title>Node21</title>
<g id="a_node21"><a xlink:href="user_8cpp.html" target="_top" xlink:title=" ">
<polygon fill="white" stroke="black" points="1361,-112.5 1361,-131.5 1418,-131.5 1418,-112.5 1361,-112.5"/>
<text text-anchor="middle" x="1389.5" y="-119.5" font-family="Helvetica,sans-Serif" font-size="10.00">user.cpp</text>
</a>
</g>
</g>
<!-- Node1&#45;&gt;Node21 -->
<g id="edge63" class="edge">
<title>Node1&#45;&gt;Node21</title>
<path fill="none" stroke="midnightblue" d="M792.73,-288.82C876.45,-287.42 1047.19,-279.92 1186.5,-244 1247.81,-228.19 1264.16,-222.12 1317.5,-188 1343.6,-171.3 1369.38,-145.03 1381.81,-131.57"/>
<polygon fill="midnightblue" stroke="midnightblue" points="792.67,-285.32 782.72,-288.96 792.77,-292.32 792.67,-285.32"/>
</g>
<!-- Node23 -->
<g id="node23" class="node">
<title>Node23</title>
<g id="a_node23"><a xlink:href="string__line__encoder_8hpp.html" target="_top" xlink:title=" ">
<polygon fill="white" stroke="black" points="143.5,-168.5 143.5,-187.5 275.5,-187.5 275.5,-168.5 143.5,-168.5"/>
<text text-anchor="middle" x="209.5" y="-175.5" font-family="Helvetica,sans-Serif" font-size="10.00">string_line_encoder.hpp</text>
</a>
</g>
</g>
<!-- Node1&#45;&gt;Node23 -->
<g id="edge60" class="edge">
<title>Node1&#45;&gt;Node23</title>
<path fill="none" stroke="midnightblue" d="M690.2,-287.54C587.81,-284.02 361.8,-273.13 290.5,-244 259.12,-231.18 230.15,-202.13 216.97,-187.61"/>
<polygon fill="midnightblue" stroke="midnightblue" points="690.19,-291.04 700.3,-287.87 690.43,-284.04 690.19,-291.04"/>
</g>
<!-- Node4 -->
<g id="node4" class="node">
<title>Node4</title>
<g id="a_node4"><a xlink:href="server__handler_8hpp.html" target="_top" xlink:title=" ">
<polygon fill="white" stroke="black" points="197.5,-56.5 197.5,-75.5 307.5,-75.5 307.5,-56.5 197.5,-56.5"/>
<text text-anchor="middle" x="252.5" y="-63.5" font-family="Helvetica,sans-Serif" font-size="10.00">server_handler.hpp</text>
</a>
</g>
</g>
<!-- Node3&#45;&gt;Node4 -->
<g id="edge3" class="edge">
<title>Node3&#45;&gt;Node4</title>
<path fill="none" stroke="midnightblue" d="M406.69,-109.7C369.89,-99.51 316.57,-84.74 283.25,-75.52"/>
<polygon fill="midnightblue" stroke="midnightblue" points="406.03,-113.15 416.6,-112.44 407.9,-106.4 406.03,-113.15"/>
</g>
<!-- Node5 -->
<g id="node5" class="node">
<title>Node5</title>
<g id="a_node5"><a xlink:href="main_8cpp.html" target="_top" xlink:title=" ">
<polygon fill="white" stroke="black" points="645.5,-0.5 645.5,-19.5 707.5,-19.5 707.5,-0.5 645.5,-0.5"/>
<text text-anchor="middle" x="676.5" y="-7.5" font-family="Helvetica,sans-Serif" font-size="10.00">main.cpp</text>
</a>
</g>
</g>
<!-- Node4&#45;&gt;Node5 -->
<g id="edge4" class="edge">
<title>Node4&#45;&gt;Node5</title>
<path fill="none" stroke="midnightblue" d="M317.6,-55.87C445.24,-38.98 584.24,-22.08 645.18,-14.75"/>
<polygon fill="midnightblue" stroke="midnightblue" points="317.1,-52.41 307.65,-57.19 318.02,-59.34 317.1,-52.41"/>
</g>
<!-- Node7&#45;&gt;Node4 -->
<g id="edge9" class="edge">
<title>Node7&#45;&gt;Node4</title>
<path fill="none" stroke="midnightblue" d="M86.16,-163.3C125.88,-140.3 204.84,-94.59 237.66,-75.59"/>
<polygon fill="midnightblue" stroke="midnightblue" points="84.31,-160.33 77.41,-168.37 87.82,-166.39 84.31,-160.33"/>
</g>
<!-- Node8 -->
<g id="node8" class="node">
<title>Node8</title>
<g id="a_node8"><a xlink:href="bot__handler_8hpp.html" target="_top" xlink:title=" ">
<polygon fill="white" stroke="black" points="281,-112.5 281,-131.5 376,-131.5 376,-112.5 281,-112.5"/>
<text text-anchor="middle" x="328.5" y="-119.5" font-family="Helvetica,sans-Serif" font-size="10.00">bot_handler.hpp</text>
</a>
</g>
</g>
<!-- Node7&#45;&gt;Node8 -->
<g id="edge7" class="edge">
<title>Node7&#45;&gt;Node8</title>
<path fill="none" stroke="midnightblue" d="M114.67,-166.41C164.94,-156.2 240.03,-140.96 286.55,-131.52"/>
<polygon fill="midnightblue" stroke="midnightblue" points="113.75,-163.02 104.65,-168.44 115.14,-169.88 113.75,-163.02"/>
</g>
<!-- Node9 -->
<g id="node9" class="node">
<title>Node9</title>
<g id="a_node9"><a xlink:href="bot__main_8cpp.html" target="_top" xlink:title=" ">
<polygon fill="white" stroke="black" points="326,-56.5 326,-75.5 409,-75.5 409,-56.5 326,-56.5"/>
<text text-anchor="middle" x="367.5" y="-63.5" font-family="Helvetica,sans-Serif" font-size="10.00">bot_main.cpp</text>
</a>
</g>
</g>
<!-- Node8&#45;&gt;Node9 -->
<g id="edge8" class="edge">
<title>Node8&#45;&gt;Node9</title>
<path fill="none" stroke="midnightblue" d="M340.88,-103.86C347.64,-94.5 355.71,-83.33 361.18,-75.75"/>
<polygon fill="midnightblue" stroke="midnightblue" points="337.96,-101.93 334.94,-112.08 343.63,-106.03 337.96,-101.93"/>
</g>
<!-- Node10&#45;&gt;Node4 -->
<g id="edge12" class="edge">
<title>Node10&#45;&gt;Node4</title>
<path fill="none" stroke="midnightblue" d="M318.39,-164.54C301.87,-157.39 283.59,-146.82 271.5,-132 257.83,-115.24 253.99,-88.99 252.92,-75.55"/>
<polygon fill="midnightblue" stroke="midnightblue" points="317.26,-167.86 327.85,-168.36 319.89,-161.37 317.26,-167.86"/>
</g>
<!-- Node10&#45;&gt;Node8 -->
<g id="edge11" class="edge">
<title>Node10&#45;&gt;Node8</title>
<path fill="none" stroke="midnightblue" d="M347.16,-158.98C342.41,-149.82 336.84,-139.09 333.04,-131.75"/>
<polygon fill="midnightblue" stroke="midnightblue" points="344.17,-160.82 351.88,-168.08 350.38,-157.59 344.17,-160.82"/>
</g>
<!-- Node11&#45;&gt;Node3 -->
<g id="edge15" class="edge">
<title>Node11&#45;&gt;Node3</title>
<path fill="none" stroke="midnightblue" d="M626.24,-166.09C583.92,-155.89 521.59,-140.86 482.83,-131.52"/>
<polygon fill="midnightblue" stroke="midnightblue" points="625.46,-169.5 636.01,-168.44 627.11,-162.7 625.46,-169.5"/>
</g>
<!-- Node11&#45;&gt;Node8 -->
<g id="edge14" class="edge">
<title>Node11&#45;&gt;Node8</title>
<path fill="none" stroke="midnightblue" d="M619.43,-168.82C562.11,-159.8 467.23,-144.88 385.5,-132 382.43,-131.52 379.27,-131.02 376.09,-130.52"/>
<polygon fill="midnightblue" stroke="midnightblue" points="618.92,-172.28 629.34,-170.37 620,-165.36 618.92,-172.28"/>
</g>
<!-- Node12 -->
<g id="node12" class="node">
<title>Node12</title>
<g id="a_node12"><a xlink:href="processor_8cpp.html" target="_top" xlink:title=" ">
<polygon fill="white" stroke="black" points="783,-56.5 783,-75.5 866,-75.5 866,-56.5 783,-56.5"/>
<text text-anchor="middle" x="824.5" y="-63.5" font-family="Helvetica,sans-Serif" font-size="10.00">processor.cpp</text>
</a>
</g>
</g>
<!-- Node11&#45;&gt;Node12 -->
<g id="edge16" class="edge">
<title>Node11&#45;&gt;Node12</title>
<path fill="none" stroke="midnightblue" d="M619.35,-168.28C575.63,-158.74 523.97,-140.85 548.5,-112 578.1,-77.18 713.41,-69.24 782.96,-67.47"/>
<polygon fill="midnightblue" stroke="midnightblue" points="618.88,-171.76 629.38,-170.36 620.3,-164.9 618.88,-171.76"/>
</g>
<!-- Node11&#45;&gt;Node13 -->
<g id="edge17" class="edge">
<title>Node11&#45;&gt;Node13</title>
<path fill="none" stroke="midnightblue" d="M723.85,-171.58C820.09,-161.63 1024.78,-140.45 1129.26,-129.65"/>
<polygon fill="midnightblue" stroke="midnightblue" points="723.36,-168.12 713.78,-172.63 724.08,-175.08 723.36,-168.12"/>
</g>
<!-- Node11&#45;&gt;Node14 -->
<g id="edge19" class="edge">
<title>Node11&#45;&gt;Node14</title>
<path fill="none" stroke="midnightblue" d="M654.59,-161.25C644.3,-151.67 631.53,-139.79 622.99,-131.83"/>
<polygon fill="midnightblue" stroke="midnightblue" points="652.48,-164.07 662.18,-168.32 657.25,-158.95 652.48,-164.07"/>
</g>
<!-- Node11&#45;&gt;Node15 -->
<g id="edge21" class="edge">
<title>Node11&#45;&gt;Node15</title>
<path fill="none" stroke="midnightblue" d="M723.76,-168.65C786.93,-158.56 892.65,-141.67 956.25,-131.51"/>
<polygon fill="midnightblue" stroke="midnightblue" points="722.95,-165.24 713.62,-170.27 724.05,-172.15 722.95,-165.24"/>
</g>
<!-- Node11&#45;&gt;Node16 -->
<g id="edge23" class="edge">
<title>Node11&#45;&gt;Node16</title>
<path fill="none" stroke="midnightblue" d="M696.09,-163.45C714.18,-153.48 738.23,-140.23 753.79,-131.65"/>
<polygon fill="midnightblue" stroke="midnightblue" points="694.31,-160.43 687.25,-168.32 697.69,-166.56 694.31,-160.43"/>
</g>
<!-- Node13&#45;&gt;Node12 -->
<g id="edge18" class="edge">
<title>Node13&#45;&gt;Node12</title>
<path fill="none" stroke="midnightblue" d="M1125.08,-110.99C1049.14,-99.87 929.02,-82.3 866.09,-73.09"/>
<polygon fill="midnightblue" stroke="midnightblue" points="1124.63,-114.46 1135.03,-112.44 1125.64,-107.53 1124.63,-114.46"/>
</g>
<!-- Node14&#45;&gt;Node12 -->
<g id="edge20" class="edge">
<title>Node14&#45;&gt;Node12</title>
<path fill="none" stroke="midnightblue" d="M656.64,-109.96C696.49,-99.76 754.86,-84.82 791.22,-75.52"/>
<polygon fill="midnightblue" stroke="midnightblue" points="655.75,-106.57 646.93,-112.44 657.49,-113.35 655.75,-106.57"/>
</g>
<!-- Node15&#45;&gt;Node12 -->
<g id="edge22" class="edge">
<title>Node15&#45;&gt;Node12</title>
<path fill="none" stroke="midnightblue" d="M970.33,-109.57C935.43,-99.38 885.15,-84.7 853.68,-75.52"/>
<polygon fill="midnightblue" stroke="midnightblue" points="969.61,-113 980.19,-112.44 971.57,-106.28 969.61,-113"/>
</g>
<!-- Node16&#45;&gt;Node12 -->
<g id="edge24" class="edge">
<title>Node16&#45;&gt;Node12</title>
<path fill="none" stroke="midnightblue" d="M785.79,-105C795.54,-95.43 807.55,-83.64 815.59,-75.75"/>
<polygon fill="midnightblue" stroke="midnightblue" points="783.27,-102.58 778.58,-112.08 788.17,-107.57 783.27,-102.58"/>
</g>
<!-- Node18&#45;&gt;Node2 -->
<g id="edge32" class="edge">
<title>Node18&#45;&gt;Node2</title>
<path fill="none" stroke="midnightblue" d="M934.25,-232.56C1010.62,-230.89 1179.99,-223.15 1317.5,-188 1370.66,-174.41 1429.39,-145.99 1457.2,-131.66"/>
<polygon fill="midnightblue" stroke="midnightblue" points="934.03,-229.07 924.1,-232.76 934.17,-236.06 934.03,-229.07"/>
</g>
<!-- Node18&#45;&gt;Node3 -->
<g id="edge39" class="edge">
<title>Node18&#45;&gt;Node3</title>
<path fill="none" stroke="midnightblue" d="M852.78,-229.77C798.73,-224.7 700.75,-212.77 620.5,-188 600.36,-181.78 597.04,-175.9 577.5,-168 542.52,-153.85 501.2,-140.03 474.69,-131.51"/>
<polygon fill="midnightblue" stroke="midnightblue" points="852.71,-233.28 862.99,-230.69 853.35,-226.3 852.71,-233.28"/>
</g>
<!-- Node18&#45;&gt;Node8 -->
<g id="edge31" class="edge">
<title>Node18&#45;&gt;Node8</title>
<path fill="none" stroke="midnightblue" d="M852.85,-232.38C791.47,-230.32 672.21,-221.84 577.5,-188 561.35,-182.23 560.46,-174.28 544.5,-168 514.47,-156.18 430.4,-140.42 376.43,-131.03"/>
<polygon fill="midnightblue" stroke="midnightblue" points="852.81,-235.88 862.91,-232.68 853.02,-228.89 852.81,-235.88"/>
</g>
<!-- Node18&#45;&gt;Node12 -->
<g id="edge40" class="edge">
<title>Node18&#45;&gt;Node12</title>
<path fill="none" stroke="midnightblue" d="M890.82,-214.27C886.79,-189.73 877.71,-145.84 860.5,-112 853.33,-97.91 841.3,-84.07 833.14,-75.54"/>
<polygon fill="midnightblue" stroke="midnightblue" points="887.4,-215 892.38,-224.35 894.32,-213.94 887.4,-215"/>
</g>
<!-- Node18&#45;&gt;Node13 -->
<g id="edge41" class="edge">
<title>Node18&#45;&gt;Node13</title>
<path fill="none" stroke="midnightblue" d="M933.06,-221.57C961.94,-212.98 1001.93,-200.57 1036.5,-188 1086.96,-169.65 1145.02,-144.54 1174.38,-131.56"/>
<polygon fill="midnightblue" stroke="midnightblue" points="931.93,-218.25 923.33,-224.44 933.91,-224.96 931.93,-218.25"/>
</g>
<!-- Node18&#45;&gt;Node14 -->
<g id="edge42" class="edge">
<title>Node18&#45;&gt;Node14</title>
<path fill="none" stroke="midnightblue" d="M868,-219.73C840.64,-205.79 795.69,-183.75 755.5,-168 718.06,-153.33 673.71,-139.87 644.66,-131.58"/>
<polygon fill="midnightblue" stroke="midnightblue" points="866.75,-223.02 877.24,-224.47 869.94,-216.79 866.75,-223.02"/>
</g>
<!-- Node18&#45;&gt;Node15 -->
<g id="edge43" class="edge">
<title>Node18&#45;&gt;Node15</title>
<path fill="none" stroke="midnightblue" d="M906.78,-216.06C917.83,-202.43 934.3,-183.13 950.5,-168 965.38,-154.11 984.36,-140.22 996.72,-131.63"/>
<polygon fill="midnightblue" stroke="midnightblue" points="903.87,-214.09 900.37,-224.09 909.34,-218.46 903.87,-214.09"/>
</g>
<!-- Node18&#45;&gt;Node16 -->
<g id="edge44" class="edge">
<title>Node18&#45;&gt;Node16</title>
<path fill="none" stroke="midnightblue" d="M879.24,-216.46C867.14,-202.82 849,-183.3 831.5,-168 815.68,-154.17 795.77,-140.27 782.85,-131.65"/>
<polygon fill="midnightblue" stroke="midnightblue" points="876.72,-218.89 885.94,-224.1 881.98,-214.27 876.72,-218.89"/>
</g>
<!-- Node18&#45;&gt;Node17 -->
<g id="edge45" class="edge">
<title>Node18&#45;&gt;Node17</title>
<path fill="none" stroke="midnightblue" d="M852.37,-228.58C787.7,-221.43 658.38,-206.23 549.5,-188 545.04,-187.25 540.34,-186.38 535.74,-185.48"/>
<polygon fill="midnightblue" stroke="midnightblue" points="852.23,-232.09 862.55,-229.7 853,-225.13 852.23,-232.09"/>
</g>
<!-- Node19 -->
<g id="node19" class="node">
<title>Node19</title>
<g id="a_node19"><a xlink:href="channel_8hpp.html" target="_top" xlink:title=" ">
<polygon fill="white" stroke="black" points="1199.5,-168.5 1199.5,-187.5 1275.5,-187.5 1275.5,-168.5 1199.5,-168.5"/>
<text text-anchor="middle" x="1237.5" y="-175.5" font-family="Helvetica,sans-Serif" font-size="10.00">channel.hpp</text>
</a>
</g>
</g>
<!-- Node18&#45;&gt;Node19 -->
<g id="edge33" class="edge">
<title>Node18&#45;&gt;Node19</title>
<path fill="none" stroke="midnightblue" d="M934.2,-226.61C1001.23,-216.09 1133.92,-195.26 1199.28,-185"/>
<polygon fill="midnightblue" stroke="midnightblue" points="933.36,-223.2 924.03,-228.21 934.45,-230.11 933.36,-223.2"/>
</g>
<!-- Node18&#45;&gt;Node21 -->
<g id="edge58" class="edge">
<title>Node18&#45;&gt;Node21</title>
<path fill="none" stroke="midnightblue" d="M934.47,-230.56C1021.18,-225.02 1220.53,-210.23 1284.5,-188 1322.57,-174.77 1361.35,-145.92 1379.27,-131.52"/>
<polygon fill="midnightblue" stroke="midnightblue" points="933.99,-227.08 924.23,-231.2 934.43,-234.07 933.99,-227.08"/>
</g>
<!-- Node22 -->
<g id="node22" class="node">
<title>Node22</title>
<g id="a_node22"><a xlink:href="server_8hpp.html" target="_top" xlink:title=" ">
<polygon fill="white" stroke="black" points="959.5,-168.5 959.5,-187.5 1027.5,-187.5 1027.5,-168.5 959.5,-168.5"/>
<text text-anchor="middle" x="993.5" y="-175.5" font-family="Helvetica,sans-Serif" font-size="10.00">server.hpp</text>
</a>
</g>
</g>
<!-- Node18&#45;&gt;Node22 -->
<g id="edge46" class="edge">
<title>Node18&#45;&gt;Node22</title>
<path fill="none" stroke="midnightblue" d="M918.59,-219.45C937.05,-209.48 961.6,-196.23 977.47,-187.65"/>
<polygon fill="midnightblue" stroke="midnightblue" points="916.7,-216.49 909.57,-224.32 920.03,-222.65 916.7,-216.49"/>
</g>
<!-- Node19&#45;&gt;Node2 -->
<g id="edge34" class="edge">
<title>Node19&#45;&gt;Node2</title>
<path fill="none" stroke="midnightblue" d="M1284.91,-166.15C1329.5,-155.95 1395.35,-140.88 1436.28,-131.52"/>
<polygon fill="midnightblue" stroke="midnightblue" points="1283.86,-162.8 1274.89,-168.44 1285.42,-169.62 1283.86,-162.8"/>
</g>
<!-- Node19&#45;&gt;Node13 -->
<g id="edge35" class="edge">
<title>Node19&#45;&gt;Node13</title>
<path fill="none" stroke="midnightblue" d="M1223.77,-160.14C1216.1,-150.74 1206.87,-139.4 1200.63,-131.75"/>
<polygon fill="midnightblue" stroke="midnightblue" points="1221.2,-162.54 1230.23,-168.08 1226.63,-158.12 1221.2,-162.54"/>
</g>
<!-- Node19&#45;&gt;Node16 -->
<g id="edge36" class="edge">
<title>Node19&#45;&gt;Node16</title>
<path fill="none" stroke="midnightblue" d="M1189.15,-171.42C1107.06,-161.95 939.96,-142.67 843.22,-131.51"/>
<polygon fill="midnightblue" stroke="midnightblue" points="1188.87,-174.91 1199.2,-172.58 1189.67,-167.96 1188.87,-174.91"/>
</g>
<!-- Node19&#45;&gt;Node20 -->
<g id="edge37" class="edge">
<title>Node19&#45;&gt;Node20</title>
<path fill="none" stroke="midnightblue" d="M1257.37,-162.1C1270.32,-152.38 1286.8,-140.03 1297.72,-131.83"/>
<polygon fill="midnightblue" stroke="midnightblue" points="1254.97,-159.52 1249.07,-168.32 1259.17,-165.12 1254.97,-159.52"/>
</g>
<!-- Node19&#45;&gt;Node21 -->
<g id="edge38" class="edge">
<title>Node19&#45;&gt;Node21</title>
<path fill="none" stroke="midnightblue" d="M1271.17,-165.04C1299.77,-154.88 1340.11,-140.55 1365.53,-131.52"/>
<polygon fill="midnightblue" stroke="midnightblue" points="1269.84,-161.8 1261.58,-168.44 1272.18,-168.39 1269.84,-161.8"/>
</g>
<!-- Node22&#45;&gt;Node2 -->
<g id="edge48" class="edge">
<title>Node22&#45;&gt;Node2</title>
<path fill="none" stroke="midnightblue" d="M1037.71,-173.74C1116.37,-167.64 1285.71,-153.18 1427.5,-132 1430.24,-131.59 1433.06,-131.13 1435.89,-130.64"/>
<polygon fill="midnightblue" stroke="midnightblue" points="1037.38,-170.25 1027.67,-174.51 1037.91,-177.23 1037.38,-170.25"/>
</g>
<!-- Node22&#45;&gt;Node3 -->
<g id="edge49" class="edge">
<title>Node22&#45;&gt;Node3</title>
<path fill="none" stroke="midnightblue" d="M949.32,-172.63C849.74,-162.78 608.11,-138.88 500.6,-128.25"/>
<polygon fill="midnightblue" stroke="midnightblue" points="949.05,-176.12 959.35,-173.62 949.74,-169.15 949.05,-176.12"/>
</g>
<!-- Node22&#45;&gt;Node4 -->
<g id="edge56" class="edge">
<title>Node22&#45;&gt;Node4</title>
<path fill="none" stroke="midnightblue" d="M971.69,-163.02C946.17,-147.47 902.08,-123.08 860.5,-112 626.36,-49.63 557.53,-100.89 316.5,-76 313.6,-75.7 310.63,-75.37 307.63,-75.01"/>
<polygon fill="midnightblue" stroke="midnightblue" points="969.87,-166.01 980.22,-168.31 973.56,-160.06 969.87,-166.01"/>
</g>
<!-- Node22&#45;&gt;Node5 -->
<g id="edge50" class="edge">
<title>Node22&#45;&gt;Node5</title>
<path fill="none" stroke="midnightblue" d="M1033.67,-165.22C1064.96,-153.96 1100.31,-135.27 1082.5,-112 1036.31,-51.65 794.38,-22.48 707.55,-13.84"/>
<polygon fill="midnightblue" stroke="midnightblue" points="1032.49,-161.93 1024.16,-168.48 1034.75,-168.55 1032.49,-161.93"/>
</g>
<!-- Node22&#45;&gt;Node8 -->
<g id="edge47" class="edge">
<title>Node22&#45;&gt;Node8</title>
<path fill="none" stroke="midnightblue" d="M949.39,-174.99C849.01,-170.14 595.96,-156.36 385.5,-132 382.41,-131.64 379.24,-131.24 376.05,-130.81"/>
<polygon fill="midnightblue" stroke="midnightblue" points="949.3,-178.49 959.46,-175.47 949.64,-171.5 949.3,-178.49"/>
</g>
<!-- Node22&#45;&gt;Node13 -->
<g id="edge51" class="edge">
<title>Node22&#45;&gt;Node13</title>
<path fill="none" stroke="midnightblue" d="M1034.87,-165.83C1072.64,-155.63 1127.64,-140.78 1161.96,-131.52"/>
<polygon fill="midnightblue" stroke="midnightblue" points="1033.93,-162.46 1025.19,-168.44 1035.76,-169.22 1033.93,-162.46"/>
</g>
<!-- Node22&#45;&gt;Node14 -->
<g id="edge52" class="edge">
<title>Node22&#45;&gt;Node14</title>
<path fill="none" stroke="midnightblue" d="M949.32,-170.72C880.16,-160.89 746.37,-141.88 670.19,-131.06"/>
<polygon fill="midnightblue" stroke="midnightblue" points="949.05,-174.22 959.44,-172.16 950.04,-167.29 949.05,-174.22"/>
</g>
<!-- Node22&#45;&gt;Node15 -->
<g id="edge53" class="edge">
<title>Node22&#45;&gt;Node15</title>
<path fill="none" stroke="midnightblue" d="M999.01,-158.4C1001.69,-149.36 1004.78,-138.94 1006.91,-131.75"/>
<polygon fill="midnightblue" stroke="midnightblue" points="995.63,-157.5 996.14,-168.08 1002.34,-159.49 995.63,-157.5"/>
</g>
<!-- Node22&#45;&gt;Node16 -->
<g id="edge54" class="edge">
<title>Node22&#45;&gt;Node16</title>
<path fill="none" stroke="midnightblue" d="M949.74,-166.45C907.45,-156.26 844.19,-141 804.95,-131.55"/>
<polygon fill="midnightblue" stroke="midnightblue" points="948.94,-169.86 959.48,-168.8 950.58,-163.05 948.94,-169.86"/>
</g>
<!-- Node22&#45;&gt;Node20 -->
<g id="edge55" class="edge">
<title>Node22&#45;&gt;Node20</title>
<path fill="none" stroke="midnightblue" d="M1037.56,-170.33C1091.62,-162.02 1185.99,-147.05 1266.5,-132 1269.5,-131.44 1272.61,-130.83 1275.73,-130.21"/>
<polygon fill="midnightblue" stroke="midnightblue" points="1036.98,-166.88 1027.63,-171.86 1038.05,-173.8 1036.98,-166.88"/>
</g>
<!-- Node22&#45;&gt;Node21 -->
<g id="edge57" class="edge">
<title>Node22&#45;&gt;Node21</title>
<path fill="none" stroke="midnightblue" d="M1037.95,-173.07C1106.03,-166.69 1240.05,-152.65 1352.5,-132 1355.23,-131.5 1358.06,-130.92 1360.89,-130.3"/>
<polygon fill="midnightblue" stroke="midnightblue" points="1037.24,-169.62 1027.6,-174.03 1037.88,-176.59 1037.24,-169.62"/>
</g>
<!-- Node23&#45;&gt;Node4 -->
<g id="edge62" class="edge">
<title>Node23&#45;&gt;Node4</title>
<path fill="none" stroke="midnightblue" d="M216.54,-159C225.92,-135 242.15,-93.47 249.14,-75.59"/>
<polygon fill="midnightblue" stroke="midnightblue" points="213.26,-157.78 212.87,-168.37 219.77,-160.33 213.26,-157.78"/>
</g>
<!-- Node23&#45;&gt;Node8 -->
<g id="edge61" class="edge">
<title>Node23&#45;&gt;Node8</title>
<path fill="none" stroke="midnightblue" d="M237.64,-164.23C259.9,-154.13 290.36,-140.31 309.73,-131.52"/>
<polygon fill="midnightblue" stroke="midnightblue" points="236.02,-161.12 228.36,-168.44 238.91,-167.5 236.02,-161.12"/>
</g>
</g>
</svg>
