<?xml version="1.0" encoding="UTF-8" standalone="no"?>
<!DOCTYPE svg PUBLIC "-//W3C//DTD SVG 1.1//EN"
 "http://www.w3.org/Graphics/SVG/1.1/DTD/svg11.dtd">
<!-- Generated by graphviz version 2.43.0 (0)
 -->
<!-- Title: message_decoder.hpp Pages: 1 -->
<svg width="232pt" height="140pt"
 viewBox="0.00 0.00 231.50 140.00" xmlns="http://www.w3.org/2000/svg" xmlns:xlink="http://www.w3.org/1999/xlink">
<g id="graph0" class="graph" transform="scale(1 1) rotate(0) translate(4 136)">
<title>message_decoder.hpp</title>
<polygon fill="white" stroke="transparent" points="-4,4 -4,-136 227.5,-136 227.5,4 -4,4"/>
<!-- Node1 -->
<g id="node1" class="node">
<title>Node1</title>
<g id="a_node1"><a xlink:title=" ">
<polygon fill="#bfbfbf" stroke="black" points="45,-112.5 45,-131.5 170,-131.5 170,-112.5 45,-112.5"/>
<text text-anchor="middle" x="107.5" y="-119.5" font-family="Helvetica,sans-Serif" font-size="10.00">message_decoder.hpp</text>
</a>
</g>
</g>
<!-- Node2 -->
<g id="node2" class="node">
<title>Node2</title>
<g id="a_node2"><a xlink:href="bot__handler_8hpp.html" target="_top" xlink:title=" ">
<polygon fill="white" stroke="black" points="0,-56.5 0,-75.5 95,-75.5 95,-56.5 0,-56.5"/>
<text text-anchor="middle" x="47.5" y="-63.5" font-family="Helvetica,sans-Serif" font-size="10.00">bot_handler.hpp</text>
</a>
</g>
</g>
<!-- Node1&#45;&gt;Node2 -->
<g id="edge1" class="edge">
<title>Node1&#45;&gt;Node2</title>
<path fill="none" stroke="midnightblue" d="M90.32,-105.54C79.62,-95.91 66.24,-83.87 57.32,-75.83"/>
<polygon fill="midnightblue" stroke="midnightblue" points="88.09,-108.24 97.86,-112.32 92.77,-103.03 88.09,-108.24"/>
</g>
<!-- Node4 -->
<g id="node4" class="node">
<title>Node4</title>
<g id="a_node4"><a xlink:href="server__handler_8hpp.html" target="_top" xlink:title=" ">
<polygon fill="white" stroke="black" points="113.5,-56.5 113.5,-75.5 223.5,-75.5 223.5,-56.5 113.5,-56.5"/>
<text text-anchor="middle" x="168.5" y="-63.5" font-family="Helvetica,sans-Serif" font-size="10.00">server_handler.hpp</text>
</a>
</g>
</g>
<!-- Node1&#45;&gt;Node4 -->
<g id="edge3" class="edge">
<title>Node1&#45;&gt;Node4</title>
<path fill="none" stroke="midnightblue" d="M124.97,-105.54C135.84,-95.91 149.44,-83.87 158.52,-75.83"/>
<polygon fill="midnightblue" stroke="midnightblue" points="122.47,-103.07 117.3,-112.32 127.11,-108.32 122.47,-103.07"/>
</g>
<!-- Node3 -->
<g id="node3" class="node">
<title>Node3</title>
<g id="a_node3"><a xlink:href="bot__main_8cpp.html" target="_top" xlink:title=" ">
<polygon fill="white" stroke="black" points="6,-0.5 6,-19.5 89,-19.5 89,-0.5 6,-0.5"/>
<text text-anchor="middle" x="47.5" y="-7.5" font-family="Helvetica,sans-Serif" font-size="10.00">bot_main.cpp</text>
</a>
</g>
</g>
<!-- Node2&#45;&gt;Node3 -->
<g id="edge2" class="edge">
<title>Node2&#45;&gt;Node3</title>
<path fill="none" stroke="midnightblue" d="M47.5,-45.8C47.5,-36.91 47.5,-26.78 47.5,-19.75"/>
<polygon fill="midnightblue" stroke="midnightblue" points="44,-46.08 47.5,-56.08 51,-46.08 44,-46.08"/>
</g>
<!-- Node5 -->
<g id="node5" class="node">
<title>Node5</title>
<g id="a_node5"><a xlink:href="main_8cpp.html" target="_top" xlink:title=" ">
<polygon fill="white" stroke="black" points="137.5,-0.5 137.5,-19.5 199.5,-19.5 199.5,-0.5 137.5,-0.5"/>
<text text-anchor="middle" x="168.5" y="-7.5" font-family="Helvetica,sans-Serif" font-size="10.00">main.cpp</text>
</a>
</g>
</g>
<!-- Node4&#45;&gt;Node5 -->
<g id="edge4" class="edge">
<title>Node4&#45;&gt;Node5</title>
<path fill="none" stroke="midnightblue" d="M168.5,-45.8C168.5,-36.91 168.5,-26.78 168.5,-19.75"/>
<polygon fill="midnightblue" stroke="midnightblue" points="165,-46.08 168.5,-56.08 172,-46.08 165,-46.08"/>
</g>
</g>
</svg>
