<?xml version="1.0" encoding="UTF-8" standalone="no"?>
<!DOCTYPE svg PUBLIC "-//W3C//DTD SVG 1.1//EN"
 "http://www.w3.org/Graphics/SVG/1.1/DTD/svg11.dtd">
<!-- Generated by graphviz version 2.43.0 (0)
 -->
<!-- Title: message.hpp Pages: 1 -->
<!--zoomable 308 -->
<svg id="main" version="1.1" xmlns="http://www.w3.org/2000/svg" xmlns:xlink="http://www.w3.org/1999/xlink" xml:space="preserve" onload="init(evt)">
<style type="text/css"><![CDATA[
.edge:hover path { stroke: red; }
.edge:hover polygon { stroke: red; fill: red; }
]]></style>
<script type="text/javascript"><![CDATA[
var edges = document.getElementsByTagName('g');
if (edges && edges.length) {
  for (var i=0;i<edges.length;i++) {
    if (edges[i].id.substr(0,4)=='edge') {
      edges[i].setAttribute('class','edge');
    }
  }
}
]]></script>
        <defs>
                <circle id="rim" cx="0" cy="0" r="7"/>
                <circle id="rim2" cx="0" cy="0" r="3.5"/>
                <g id="zoomPlus">
                        <use xlink:href="#rim" fill="#404040">
                                <set attributeName="fill" to="#808080" begin="zoomplus.mouseover" end="zoomplus.mouseout"/>
                        </use>
                        <path d="M-4,0h8M0,-4v8" fill="none" stroke="white" stroke-width="1.5" pointer-events="none"/>
                </g>
                <g id="zoomMin">
                        <use xlink:href="#rim" fill="#404040">
                                <set attributeName="fill" to="#808080" begin="zoomminus.mouseover" end="zoomminus.mouseout"/>
                        </use>
                        <path d="M-4,0h8" fill="none" stroke="white" stroke-width="1.5" pointer-events="none"/>
                </g>
                <g id="dirArrow">
                        <path fill="none" stroke="white" stroke-width="1.5" d="M0,-3.0v7 M-2.5,-0.5L0,-3.0L2.5,-0.5"/>
                </g>
               <g id="resetDef">
                       <use xlink:href="#rim2" fill="#404040">
                               <set attributeName="fill" to="#808080" begin="reset.mouseover" end="reset.mouseout"/>
                       </use>
               </g>
        </defs>

<script type="text/javascript">
var viewWidth = 1343;
var viewHeight = 308;
var sectionId = 'dynsection-1';
</script>
<script xlink:href="svgpan.js"/>
<svg id="graph" class="graph">
<g id="viewport">
<title>message.hpp</title>
<polygon fill="white" stroke="transparent" points="-4,4 -4,-304 1339.29,-304 1339.29,4 -4,4"/>
<!-- Node1 -->
<g id="node1" class="node">
<title>Node1</title>
<g id="a_node1"><a xlink:title=" ">
<polygon fill="#bfbfbf" stroke="black" points="561.79,-280.5 561.79,-299.5 643.79,-299.5 643.79,-280.5 561.79,-280.5"/>
<text text-anchor="middle" x="602.79" y="-287.5" font-family="Helvetica,sans-Serif" font-size="10.00">message.hpp</text>
</a>
</g>
</g>
<!-- Node2 -->
<g id="node2" class="node">
<title>Node2</title>
<g id="a_node2"><a xlink:href="bot_8cpp.html" target="_top" xlink:title=" ">
<polygon fill="white" stroke="black" points="222.29,-168.5 222.29,-187.5 275.29,-187.5 275.29,-168.5 222.29,-168.5"/>
<text text-anchor="middle" x="248.79" y="-175.5" font-family="Helvetica,sans-Serif" font-size="10.00">bot.cpp</text>
</a>
</g>
</g>
<!-- Node1&#45;&gt;Node2 -->
<g id="edge1" class="edge">
<title>Node1&#45;&gt;Node2</title>
<path fill="none" stroke="midnightblue" d="M551.28,-283.04C504.72,-276.66 434.81,-264.56 376.79,-244 358.8,-237.63 355.77,-232.71 338.79,-224 313.61,-211.08 284.25,-196.49 266.09,-187.52"/>
<polygon fill="midnightblue" stroke="midnightblue" points="551.05,-286.54 561.42,-284.4 551.97,-279.61 551.05,-286.54"/>
</g>
<!-- Node3 -->
<g id="node3" class="node">
<title>Node3</title>
<g id="a_node3"><a xlink:href="channel_8cpp.html" target="_top" xlink:title=" ">
<polygon fill="white" stroke="black" points="1151.29,-112.5 1151.29,-131.5 1226.29,-131.5 1226.29,-112.5 1151.29,-112.5"/>
<text text-anchor="middle" x="1188.79" y="-119.5" font-family="Helvetica,sans-Serif" font-size="10.00">channel.cpp</text>
</a>
</g>
</g>
<!-- Node1&#45;&gt;Node3 -->
<g id="edge2" class="edge">
<title>Node1&#45;&gt;Node3</title>
<path fill="none" stroke="midnightblue" d="M654.27,-287.02C757.64,-282.54 986.9,-269.93 1060.79,-244 1103.82,-228.89 1114.59,-220.31 1146.79,-188 1164.05,-170.68 1177.99,-145.13 1184.61,-131.81"/>
<polygon fill="midnightblue" stroke="midnightblue" points="653.91,-283.53 644.07,-287.45 654.21,-290.52 653.91,-283.53"/>
</g>
<!-- Node4 -->
<g id="node4" class="node">
<title>Node4</title>
<g id="a_node4"><a xlink:href="client__handler_8hpp.html" target="_top" xlink:title=" ">
<polygon fill="white" stroke="black" points="184.79,-112.5 184.79,-131.5 290.79,-131.5 290.79,-112.5 184.79,-112.5"/>
<text text-anchor="middle" x="237.79" y="-119.5" font-family="Helvetica,sans-Serif" font-size="10.00">client_handler.hpp</text>
</a>
</g>
</g>
<!-- Node1&#45;&gt;Node4 -->
<g id="edge3" class="edge">
<title>Node1&#45;&gt;Node4</title>
<path fill="none" stroke="midnightblue" d="M551.36,-288.98C414.46,-288.38 49.02,-283.11 12.79,-244 -43.44,-183.33 101.67,-146.84 184.61,-131.5"/>
<polygon fill="midnightblue" stroke="midnightblue" points="551.57,-292.48 561.59,-289.01 551.6,-285.48 551.57,-292.48"/>
</g>
<!-- Node7 -->
<g id="node7" class="node">
<title>Node7</title>
<g id="a_node7"><a xlink:href="message_8cpp.html" target="_top" xlink:title=" ">
<polygon fill="white" stroke="black" points="1254.29,-224.5 1254.29,-243.5 1335.29,-243.5 1335.29,-224.5 1254.29,-224.5"/>
<text text-anchor="middle" x="1294.79" y="-231.5" font-family="Helvetica,sans-Serif" font-size="10.00">message.cpp</text>
</a>
</g>
</g>
<!-- Node1&#45;&gt;Node7 -->
<g id="edge6" class="edge">
<title>Node1&#45;&gt;Node7</title>
<path fill="none" stroke="midnightblue" d="M653.9,-286.98C762.21,-282.35 1022.7,-269.38 1239.79,-244 1244.4,-243.46 1249.22,-242.81 1254,-242.1"/>
<polygon fill="midnightblue" stroke="midnightblue" points="653.74,-283.48 643.9,-287.4 654.03,-290.48 653.74,-283.48"/>
</g>
<!-- Node8 -->
<g id="node8" class="node">
<title>Node8</title>
<g id="a_node8"><a xlink:href="message__decoder_8hpp.html" target="_top" xlink:title=" ">
<polygon fill="white" stroke="black" points="22.29,-224.5 22.29,-243.5 147.29,-243.5 147.29,-224.5 22.29,-224.5"/>
<text text-anchor="middle" x="84.79" y="-231.5" font-family="Helvetica,sans-Serif" font-size="10.00">message_decoder.hpp</text>
</a>
</g>
</g>
<!-- Node1&#45;&gt;Node8 -->
<g id="edge7" class="edge">
<title>Node1&#45;&gt;Node8</title>
<path fill="none" stroke="midnightblue" d="M551.65,-284.03C469.45,-275.98 302.83,-259.44 161.79,-244 157.1,-243.49 152.26,-242.95 147.39,-242.4"/>
<polygon fill="midnightblue" stroke="midnightblue" points="551.43,-287.52 561.73,-285.01 552.11,-280.56 551.43,-287.52"/>
</g>
<!-- Node9 -->
<g id="node9" class="node">
<title>Node9</title>
<g id="a_node9"><a xlink:href="message__encoder_8hpp.html" target="_top" xlink:title=" ">
<polygon fill="white" stroke="black" points="204.29,-224.5 204.29,-243.5 329.29,-243.5 329.29,-224.5 204.29,-224.5"/>
<text text-anchor="middle" x="266.79" y="-231.5" font-family="Helvetica,sans-Serif" font-size="10.00">message_encoder.hpp</text>
</a>
</g>
</g>
<!-- Node1&#45;&gt;Node9 -->
<g id="edge10" class="edge">
<title>Node1&#45;&gt;Node9</title>
<path fill="none" stroke="midnightblue" d="M551.54,-280.76C488.91,-270.7 383.45,-253.75 319.96,-243.55"/>
<polygon fill="midnightblue" stroke="midnightblue" points="551.16,-284.25 561.59,-282.38 552.27,-277.34 551.16,-284.25"/>
</g>
<!-- Node10 -->
<g id="node10" class="node">
<title>Node10</title>
<g id="a_node10"><a xlink:href="processor_8hpp.html" target="_top" xlink:title=" ">
<polygon fill="white" stroke="black" points="437.79,-168.5 437.79,-187.5 521.79,-187.5 521.79,-168.5 437.79,-168.5"/>
<text text-anchor="middle" x="479.79" y="-175.5" font-family="Helvetica,sans-Serif" font-size="10.00">processor.hpp</text>
</a>
</g>
</g>
<!-- Node1&#45;&gt;Node10 -->
<g id="edge13" class="edge">
<title>Node1&#45;&gt;Node10</title>
<path fill="none" stroke="midnightblue" d="M585.47,-273.51C559.18,-250.01 510.1,-206.11 489.39,-187.59"/>
<polygon fill="midnightblue" stroke="midnightblue" points="583.35,-276.31 593.13,-280.37 588.01,-271.09 583.35,-276.31"/>
</g>
<!-- Node12 -->
<g id="node12" class="node">
<title>Node12</title>
<g id="a_node12"><a xlink:href="processor__channel_8hpp.html" target="_top" xlink:title=" ">
<polygon fill="white" stroke="black" points="662.79,-112.5 662.79,-131.5 790.79,-131.5 790.79,-112.5 662.79,-112.5"/>
<text text-anchor="middle" x="726.79" y="-119.5" font-family="Helvetica,sans-Serif" font-size="10.00">processor_channel.hpp</text>
</a>
</g>
</g>
<!-- Node1&#45;&gt;Node12 -->
<g id="edge24" class="edge">
<title>Node1&#45;&gt;Node12</title>
<path fill="none" stroke="midnightblue" d="M615.66,-271.76C641.93,-236.59 700.88,-157.68 720.39,-131.57"/>
<polygon fill="midnightblue" stroke="midnightblue" points="612.63,-269.97 609.45,-280.08 618.24,-274.16 612.63,-269.97"/>
</g>
<!-- Node13 -->
<g id="node13" class="node">
<title>Node13</title>
<g id="a_node13"><a xlink:href="processor__misc_8hpp.html" target="_top" xlink:title=" ">
<polygon fill="white" stroke="black" points="493.29,-112.5 493.29,-131.5 606.29,-131.5 606.29,-112.5 493.29,-112.5"/>
<text text-anchor="middle" x="549.79" y="-119.5" font-family="Helvetica,sans-Serif" font-size="10.00">processor_misc.hpp</text>
</a>
</g>
</g>
<!-- Node1&#45;&gt;Node13 -->
<g id="edge25" class="edge">
<title>Node1&#45;&gt;Node13</title>
<path fill="none" stroke="midnightblue" d="M596.85,-270.39C585.41,-234.59 560.75,-157.34 552.52,-131.57"/>
<polygon fill="midnightblue" stroke="midnightblue" points="593.56,-271.61 599.94,-280.08 600.23,-269.48 593.56,-271.61"/>
</g>
<!-- Node14 -->
<g id="node14" class="node">
<title>Node14</title>
<g id="a_node14"><a xlink:href="processor__register_8hpp.html" target="_top" xlink:title=" ">
<polygon fill="white" stroke="black" points="309.29,-112.5 309.29,-131.5 436.29,-131.5 436.29,-112.5 309.29,-112.5"/>
<text text-anchor="middle" x="372.79" y="-119.5" font-family="Helvetica,sans-Serif" font-size="10.00">processor_register.hpp</text>
</a>
</g>
</g>
<!-- Node1&#45;&gt;Node14 -->
<g id="edge26" class="edge">
<title>Node1&#45;&gt;Node14</title>
<path fill="none" stroke="midnightblue" d="M551.21,-287.07C446.97,-282.64 219.11,-270.05 195.79,-244 180.18,-226.58 192.38,-187.99 212.79,-168 228.5,-152.6 282.27,-139.58 323.18,-131.57"/>
<polygon fill="midnightblue" stroke="midnightblue" points="551.36,-290.58 561.5,-287.5 551.65,-283.59 551.36,-290.58"/>
</g>
<!-- Node15 -->
<g id="node15" class="node">
<title>Node15</title>
<g id="a_node15"><a xlink:href="processor__send__message_8hpp.html" target="_top" xlink:title=" ">
<polygon fill="white" stroke="black" points="885.29,-112.5 885.29,-131.5 1048.29,-131.5 1048.29,-112.5 885.29,-112.5"/>
<text text-anchor="middle" x="966.79" y="-119.5" font-family="Helvetica,sans-Serif" font-size="10.00">processor_send_message.hpp</text>
</a>
</g>
</g>
<!-- Node1&#45;&gt;Node15 -->
<g id="edge27" class="edge">
<title>Node1&#45;&gt;Node15</title>
<path fill="none" stroke="midnightblue" d="M644.43,-277.67C672.43,-269.53 709.9,-257.62 741.79,-244 807.25,-216.03 820.08,-201.7 882.79,-168 906.39,-155.31 933.76,-140.66 950.68,-131.61"/>
<polygon fill="midnightblue" stroke="midnightblue" points="643.22,-274.37 634.57,-280.49 645.15,-281.1 643.22,-274.37"/>
</g>
<!-- Node16 -->
<g id="node16" class="node">
<title>Node16</title>
<g id="a_node16"><a xlink:href="reply_8cpp.html" target="_top" xlink:title=" ">
<polygon fill="white" stroke="black" points="1061.79,-168.5 1061.79,-187.5 1121.79,-187.5 1121.79,-168.5 1061.79,-168.5"/>
<text text-anchor="middle" x="1091.79" y="-175.5" font-family="Helvetica,sans-Serif" font-size="10.00">reply.cpp</text>
</a>
</g>
</g>
<!-- Node1&#45;&gt;Node16 -->
<g id="edge28" class="edge">
<title>Node1&#45;&gt;Node16</title>
<path fill="none" stroke="midnightblue" d="M654.07,-282.68C709.6,-275.36 800.6,-261.95 877.79,-244 947.56,-227.77 1027.92,-201.17 1067.36,-187.58"/>
<polygon fill="midnightblue" stroke="midnightblue" points="653.58,-279.21 644.12,-283.98 654.49,-286.15 653.58,-279.21"/>
</g>
<!-- Node17 -->
<g id="node17" class="node">
<title>Node17</title>
<g id="a_node17"><a xlink:href="reply_8hpp.html" target="_top" xlink:title=" ">
<polygon fill="white" stroke="black" points="671.29,-224.5 671.29,-243.5 732.29,-243.5 732.29,-224.5 671.29,-224.5"/>
<text text-anchor="middle" x="701.79" y="-231.5" font-family="Helvetica,sans-Serif" font-size="10.00">reply.hpp</text>
</a>
</g>
</g>
<!-- Node1&#45;&gt;Node17 -->
<g id="edge29" class="edge">
<title>Node1&#45;&gt;Node17</title>
<path fill="none" stroke="midnightblue" d="M627.62,-275.45C645.9,-265.48 670.2,-252.23 685.92,-243.65"/>
<polygon fill="midnightblue" stroke="midnightblue" points="625.79,-272.46 618.69,-280.32 629.15,-278.61 625.79,-272.46"/>
</g>
<!-- Node19 -->
<g id="node19" class="node">
<title>Node19</title>
<g id="a_node19"><a xlink:href="server_8cpp.html" target="_top" xlink:title=" ">
<polygon fill="white" stroke="black" points="1066.29,-112.5 1066.29,-131.5 1133.29,-131.5 1133.29,-112.5 1066.29,-112.5"/>
<text text-anchor="middle" x="1099.79" y="-119.5" font-family="Helvetica,sans-Serif" font-size="10.00">server.cpp</text>
</a>
</g>
</g>
<!-- Node1&#45;&gt;Node19 -->
<g id="edge57" class="edge">
<title>Node1&#45;&gt;Node19</title>
<path fill="none" stroke="midnightblue" d="M654.21,-287.48C775.47,-282.67 1073.39,-263.27 1130.79,-188 1144.58,-169.91 1123.09,-144.69 1109.52,-131.62"/>
<polygon fill="midnightblue" stroke="midnightblue" points="653.93,-283.99 644.07,-287.86 654.2,-290.98 653.93,-283.99"/>
</g>
<!-- Node20 -->
<g id="node20" class="node">
<title>Node20</title>
<g id="a_node20"><a xlink:href="user_8cpp.html" target="_top" xlink:title=" ">
<polygon fill="white" stroke="black" points="1244.29,-112.5 1244.29,-131.5 1301.29,-131.5 1301.29,-112.5 1244.29,-112.5"/>
<text text-anchor="middle" x="1272.79" y="-119.5" font-family="Helvetica,sans-Serif" font-size="10.00">user.cpp</text>
</a>
</g>
</g>
<!-- Node1&#45;&gt;Node20 -->
<g id="edge61" class="edge">
<title>Node1&#45;&gt;Node20</title>
<path fill="none" stroke="midnightblue" d="M653.93,-287.58C763.08,-284.04 1015.48,-272.89 1095.79,-244 1168.29,-217.92 1239.27,-154.9 1263.78,-131.74"/>
<polygon fill="midnightblue" stroke="midnightblue" points="653.7,-284.09 643.82,-287.9 653.92,-291.09 653.7,-284.09"/>
</g>
<!-- Node22 -->
<g id="node22" class="node">
<title>Node22</title>
<g id="a_node22"><a xlink:href="string__line__encoder_8hpp.html" target="_top" xlink:title=" ">
<polygon fill="white" stroke="black" points="385.79,-224.5 385.79,-243.5 517.79,-243.5 517.79,-224.5 385.79,-224.5"/>
<text text-anchor="middle" x="451.79" y="-231.5" font-family="Helvetica,sans-Serif" font-size="10.00">string_line_encoder.hpp</text>
</a>
</g>
</g>
<!-- Node1&#45;&gt;Node22 -->
<g id="edge58" class="edge">
<title>Node1&#45;&gt;Node22</title>
<path fill="none" stroke="midnightblue" d="M569.34,-277.04C540.93,-266.88 500.85,-252.55 475.6,-243.52"/>
<polygon fill="midnightblue" stroke="midnightblue" points="568.26,-280.37 578.86,-280.44 570.62,-273.78 568.26,-280.37"/>
</g>
<!-- Node5 -->
<g id="node5" class="node">
<title>Node5</title>
<g id="a_node5"><a xlink:href="server__handler_8hpp.html" target="_top" xlink:title=" ">
<polygon fill="white" stroke="black" points="142.79,-56.5 142.79,-75.5 252.79,-75.5 252.79,-56.5 142.79,-56.5"/>
<text text-anchor="middle" x="197.79" y="-63.5" font-family="Helvetica,sans-Serif" font-size="10.00">server_handler.hpp</text>
</a>
</g>
</g>
<!-- Node4&#45;&gt;Node5 -->
<g id="edge4" class="edge">
<title>Node4&#45;&gt;Node5</title>
<path fill="none" stroke="midnightblue" d="M225.09,-103.86C218.16,-94.5 209.88,-83.33 204.27,-75.75"/>
<polygon fill="midnightblue" stroke="midnightblue" points="222.42,-106.13 231.18,-112.08 228.04,-101.96 222.42,-106.13"/>
</g>
<!-- Node6 -->
<g id="node6" class="node">
<title>Node6</title>
<g id="a_node6"><a xlink:href="main_8cpp.html" target="_top" xlink:title=" ">
<polygon fill="white" stroke="black" points="495.79,-0.5 495.79,-19.5 557.79,-19.5 557.79,-0.5 495.79,-0.5"/>
<text text-anchor="middle" x="526.79" y="-7.5" font-family="Helvetica,sans-Serif" font-size="10.00">main.cpp</text>
</a>
</g>
</g>
<!-- Node5&#45;&gt;Node6 -->
<g id="edge5" class="edge">
<title>Node5&#45;&gt;Node6</title>
<path fill="none" stroke="midnightblue" d="M259.97,-54.79C330.25,-43.26 441.83,-24.94 495.69,-16.1"/>
<polygon fill="midnightblue" stroke="midnightblue" points="259.22,-51.37 249.92,-56.44 260.35,-58.28 259.22,-51.37"/>
</g>
<!-- Node8&#45;&gt;Node2 -->
<g id="edge8" class="edge">
<title>Node8&#45;&gt;Node2</title>
<path fill="none" stroke="midnightblue" d="M120.31,-221.3C151.21,-211.13 195.26,-196.62 222.92,-187.52"/>
<polygon fill="midnightblue" stroke="midnightblue" points="119.18,-217.99 110.77,-224.44 121.37,-224.64 119.18,-217.99"/>
</g>
<!-- Node8&#45;&gt;Node5 -->
<g id="edge9" class="edge">
<title>Node8&#45;&gt;Node5</title>
<path fill="none" stroke="midnightblue" d="M89.42,-214.53C96.44,-189.33 111.66,-143.68 136.79,-112 149.13,-96.43 168.14,-83.57 181.65,-75.64"/>
<polygon fill="midnightblue" stroke="midnightblue" points="86.02,-213.7 86.84,-224.26 92.79,-215.5 86.02,-213.7"/>
</g>
<!-- Node9&#45;&gt;Node2 -->
<g id="edge11" class="edge">
<title>Node9&#45;&gt;Node2</title>
<path fill="none" stroke="midnightblue" d="M260.58,-214.4C257.57,-205.36 254.1,-194.94 251.7,-187.75"/>
<polygon fill="midnightblue" stroke="midnightblue" points="257.33,-215.7 263.81,-224.08 263.97,-213.49 257.33,-215.7"/>
</g>
<!-- Node9&#45;&gt;Node5 -->
<g id="edge12" class="edge">
<title>Node9&#45;&gt;Node5</title>
<path fill="none" stroke="midnightblue" d="M238.94,-219.77C208.85,-203.75 162.57,-173.64 142.79,-132 131.75,-108.77 161.12,-87.09 181.07,-75.58"/>
<polygon fill="midnightblue" stroke="midnightblue" points="237.59,-223.01 248.08,-224.48 240.79,-216.79 237.59,-223.01"/>
</g>
<!-- Node10&#45;&gt;Node4 -->
<g id="edge14" class="edge">
<title>Node10&#45;&gt;Node4</title>
<path fill="none" stroke="midnightblue" d="M431.46,-166.22C385.74,-156.01 318.01,-140.9 275.95,-131.52"/>
<polygon fill="midnightblue" stroke="midnightblue" points="430.92,-169.68 441.44,-168.44 432.44,-162.85 430.92,-169.68"/>
</g>
<!-- Node11 -->
<g id="node11" class="node">
<title>Node11</title>
<g id="a_node11"><a xlink:href="processor_8cpp.html" target="_top" xlink:title=" ">
<polygon fill="white" stroke="black" points="550.29,-56.5 550.29,-75.5 633.29,-75.5 633.29,-56.5 550.29,-56.5"/>
<text text-anchor="middle" x="591.79" y="-63.5" font-family="Helvetica,sans-Serif" font-size="10.00">processor.cpp</text>
</a>
</g>
</g>
<!-- Node10&#45;&gt;Node11 -->
<g id="edge15" class="edge">
<title>Node10&#45;&gt;Node11</title>
<path fill="none" stroke="midnightblue" d="M476.38,-158.5C474.86,-144.45 475.17,-125.33 484.79,-112 499.99,-90.91 527.04,-79.65 550.14,-73.67"/>
<polygon fill="midnightblue" stroke="midnightblue" points="472.93,-159.1 477.86,-168.48 479.86,-158.07 472.93,-159.1"/>
</g>
<!-- Node10&#45;&gt;Node12 -->
<g id="edge16" class="edge">
<title>Node10&#45;&gt;Node12</title>
<path fill="none" stroke="midnightblue" d="M528.81,-166.28C575.49,-156.08 644.82,-140.92 687.83,-131.52"/>
<polygon fill="midnightblue" stroke="midnightblue" points="527.95,-162.89 518.92,-168.44 529.44,-169.73 527.95,-162.89"/>
</g>
<!-- Node10&#45;&gt;Node13 -->
<g id="edge18" class="edge">
<title>Node10&#45;&gt;Node13</title>
<path fill="none" stroke="midnightblue" d="M499.1,-162.1C511.7,-152.38 527.71,-140.03 538.33,-131.83"/>
<polygon fill="midnightblue" stroke="midnightblue" points="496.81,-159.44 491.03,-168.32 501.09,-164.99 496.81,-159.44"/>
</g>
<!-- Node10&#45;&gt;Node14 -->
<g id="edge20" class="edge">
<title>Node10&#45;&gt;Node14</title>
<path fill="none" stroke="midnightblue" d="M453.48,-163.73C433.67,-153.73 407.08,-140.31 389.93,-131.65"/>
<polygon fill="midnightblue" stroke="midnightblue" points="452.09,-166.94 462.59,-168.32 455.24,-160.69 452.09,-166.94"/>
</g>
<!-- Node10&#45;&gt;Node15 -->
<g id="edge22" class="edge">
<title>Node10&#45;&gt;Node15</title>
<path fill="none" stroke="midnightblue" d="M532.21,-171.19C618.26,-161.65 789.84,-142.62 889.74,-131.54"/>
<polygon fill="midnightblue" stroke="midnightblue" points="531.71,-167.72 522.15,-172.3 532.48,-174.68 531.71,-167.72"/>
</g>
<!-- Node12&#45;&gt;Node11 -->
<g id="edge17" class="edge">
<title>Node12&#45;&gt;Node11</title>
<path fill="none" stroke="midnightblue" d="M695.88,-108.64C670.55,-98.5 635.35,-84.43 613.08,-75.52"/>
<polygon fill="midnightblue" stroke="midnightblue" points="694.81,-111.98 705.39,-112.44 697.41,-105.48 694.81,-111.98"/>
</g>
<!-- Node13&#45;&gt;Node11 -->
<g id="edge19" class="edge">
<title>Node13&#45;&gt;Node11</title>
<path fill="none" stroke="midnightblue" d="M562.9,-104.14C570.21,-94.74 579.03,-83.4 584.98,-75.75"/>
<polygon fill="midnightblue" stroke="midnightblue" points="560.1,-102.04 556.72,-112.08 565.62,-106.34 560.1,-102.04"/>
</g>
<!-- Node14&#45;&gt;Node11 -->
<g id="edge21" class="edge">
<title>Node14&#45;&gt;Node11</title>
<path fill="none" stroke="midnightblue" d="M417.3,-110.02C458.67,-99.82 519.43,-84.84 557.25,-75.52"/>
<polygon fill="midnightblue" stroke="midnightblue" points="416.36,-106.65 407.49,-112.44 418.03,-113.45 416.36,-106.65"/>
</g>
<!-- Node15&#45;&gt;Node11 -->
<g id="edge23" class="edge">
<title>Node15&#45;&gt;Node11</title>
<path fill="none" stroke="midnightblue" d="M897.22,-110.98C819.83,-99.84 697.31,-82.2 633.51,-73.01"/>
<polygon fill="midnightblue" stroke="midnightblue" points="896.97,-114.48 907.37,-112.44 897.97,-107.55 896.97,-114.48"/>
</g>
<!-- Node17&#45;&gt;Node2 -->
<g id="edge30" class="edge">
<title>Node17&#45;&gt;Node2</title>
<path fill="none" stroke="midnightblue" d="M661.05,-228.14C569.94,-217.28 351.7,-191.27 275.55,-182.19"/>
<polygon fill="midnightblue" stroke="midnightblue" points="660.66,-231.62 671.01,-229.33 661.49,-224.67 660.66,-231.62"/>
</g>
<!-- Node17&#45;&gt;Node3 -->
<g id="edge31" class="edge">
<title>Node17&#45;&gt;Node3</title>
<path fill="none" stroke="midnightblue" d="M742.8,-229.81C797.25,-224.78 895.95,-212.9 976.79,-188 996.93,-181.8 999.97,-175.18 1019.79,-168 1063.89,-152.01 1116.31,-138.93 1150.95,-131.07"/>
<polygon fill="midnightblue" stroke="midnightblue" points="742.17,-226.35 732.52,-230.72 742.79,-233.32 742.17,-226.35"/>
</g>
<!-- Node17&#45;&gt;Node4 -->
<g id="edge38" class="edge">
<title>Node17&#45;&gt;Node4</title>
<path fill="none" stroke="midnightblue" d="M660.66,-229.88C602.13,-224.76 491.78,-212.59 400.79,-188 346.08,-173.22 284.82,-145.6 255.41,-131.61"/>
<polygon fill="midnightblue" stroke="midnightblue" points="660.71,-233.4 670.97,-230.76 661.3,-226.42 660.71,-233.4"/>
</g>
<!-- Node17&#45;&gt;Node11 -->
<g id="edge39" class="edge">
<title>Node17&#45;&gt;Node11</title>
<path fill="none" stroke="midnightblue" d="M690.06,-215.31C666.61,-179.92 614.69,-101.56 597.46,-75.57"/>
<polygon fill="midnightblue" stroke="midnightblue" points="687.43,-217.67 695.87,-224.08 693.27,-213.81 687.43,-217.67"/>
</g>
<!-- Node17&#45;&gt;Node12 -->
<g id="edge40" class="edge">
<title>Node17&#45;&gt;Node12</title>
<path fill="none" stroke="midnightblue" d="M706.03,-214.35C711.5,-190.25 720.81,-149.31 724.83,-131.59"/>
<polygon fill="midnightblue" stroke="midnightblue" points="702.55,-213.84 703.75,-224.37 709.38,-215.39 702.55,-213.84"/>
</g>
<!-- Node17&#45;&gt;Node13 -->
<g id="edge41" class="edge">
<title>Node17&#45;&gt;Node13</title>
<path fill="none" stroke="midnightblue" d="M681.63,-218.42C649.49,-195.15 587.58,-150.35 561.66,-131.59"/>
<polygon fill="midnightblue" stroke="midnightblue" points="679.71,-221.34 689.86,-224.37 683.81,-215.67 679.71,-221.34"/>
</g>
<!-- Node17&#45;&gt;Node14 -->
<g id="edge42" class="edge">
<title>Node17&#45;&gt;Node14</title>
<path fill="none" stroke="midnightblue" d="M661.01,-229.7C594.91,-223.79 467.85,-209.93 428.79,-188 404.63,-174.44 386.01,-146.27 377.64,-131.88"/>
<polygon fill="midnightblue" stroke="midnightblue" points="660.8,-233.2 671.07,-230.58 661.41,-226.22 660.8,-233.2"/>
</g>
<!-- Node17&#45;&gt;Node15 -->
<g id="edge43" class="edge">
<title>Node17&#45;&gt;Node15</title>
<path fill="none" stroke="midnightblue" d="M731.77,-220.44C752.83,-211.54 781.62,-199.24 806.79,-188 826.03,-179.4 830.38,-176.23 849.79,-168 881.84,-154.4 919.53,-140.22 943.29,-131.5"/>
<polygon fill="midnightblue" stroke="midnightblue" points="730.24,-217.28 722.39,-224.39 732.96,-223.73 730.24,-217.28"/>
</g>
<!-- Node17&#45;&gt;Node16 -->
<g id="edge44" class="edge">
<title>Node17&#45;&gt;Node16</title>
<path fill="none" stroke="midnightblue" d="M742.65,-228.66C807.53,-221.54 937.99,-206.34 1047.79,-188 1052.25,-187.25 1056.94,-186.39 1061.54,-185.49"/>
<polygon fill="midnightblue" stroke="midnightblue" points="742.01,-225.21 732.44,-229.77 742.76,-232.16 742.01,-225.21"/>
</g>
<!-- Node18 -->
<g id="node18" class="node">
<title>Node18</title>
<g id="a_node18"><a xlink:href="channel_8hpp.html" target="_top" xlink:title=" ">
<polygon fill="white" stroke="black" points="891.79,-168.5 891.79,-187.5 967.79,-187.5 967.79,-168.5 891.79,-168.5"/>
<text text-anchor="middle" x="929.79" y="-175.5" font-family="Helvetica,sans-Serif" font-size="10.00">channel.hpp</text>
</a>
</g>
</g>
<!-- Node17&#45;&gt;Node18 -->
<g id="edge32" class="edge">
<title>Node17&#45;&gt;Node18</title>
<path fill="none" stroke="midnightblue" d="M742.36,-223.39C785.27,-213.23 852.32,-197.35 893.52,-187.59"/>
<polygon fill="midnightblue" stroke="midnightblue" points="741.46,-220.01 732.54,-225.72 743.07,-226.82 741.46,-220.01"/>
</g>
<!-- Node17&#45;&gt;Node20 -->
<g id="edge56" class="edge">
<title>Node17&#45;&gt;Node20</title>
<path fill="none" stroke="midnightblue" d="M742.61,-231.09C802.75,-227.39 918.14,-216.86 1011.79,-188 1031.16,-182.03 1033.57,-174.46 1052.79,-168 1131.36,-141.61 1154.83,-149.8 1235.79,-132 1238.5,-131.4 1241.32,-130.76 1244.13,-130.1"/>
<polygon fill="midnightblue" stroke="midnightblue" points="742.17,-227.61 732.39,-231.69 742.58,-234.6 742.17,-227.61"/>
</g>
<!-- Node21 -->
<g id="node21" class="node">
<title>Node21</title>
<g id="a_node21"><a xlink:href="server_8hpp.html" target="_top" xlink:title=" ">
<polygon fill="white" stroke="black" points="729.79,-168.5 729.79,-187.5 797.79,-187.5 797.79,-168.5 729.79,-168.5"/>
<text text-anchor="middle" x="763.79" y="-175.5" font-family="Helvetica,sans-Serif" font-size="10.00">server.hpp</text>
</a>
</g>
</g>
<!-- Node17&#45;&gt;Node21 -->
<g id="edge45" class="edge">
<title>Node17&#45;&gt;Node21</title>
<path fill="none" stroke="midnightblue" d="M719.54,-217.54C730.59,-207.91 744.42,-195.87 753.64,-187.83"/>
<polygon fill="midnightblue" stroke="midnightblue" points="716.99,-215.12 711.75,-224.32 721.59,-220.4 716.99,-215.12"/>
</g>
<!-- Node18&#45;&gt;Node3 -->
<g id="edge33" class="edge">
<title>Node18&#45;&gt;Node3</title>
<path fill="none" stroke="midnightblue" d="M977.95,-166.96C1028.07,-156.51 1105.49,-140.37 1151.25,-130.83"/>
<polygon fill="midnightblue" stroke="midnightblue" points="977.08,-163.56 968,-169.03 978.51,-170.42 977.08,-163.56"/>
</g>
<!-- Node18&#45;&gt;Node12 -->
<g id="edge34" class="edge">
<title>Node18&#45;&gt;Node12</title>
<path fill="none" stroke="midnightblue" d="M887.79,-165.83C849.46,-155.63 793.63,-140.78 758.8,-131.52"/>
<polygon fill="midnightblue" stroke="midnightblue" points="887.06,-169.26 897.62,-168.44 888.86,-162.49 887.06,-169.26"/>
</g>
<!-- Node18&#45;&gt;Node15 -->
<g id="edge35" class="edge">
<title>Node18&#45;&gt;Node15</title>
<path fill="none" stroke="midnightblue" d="M941.73,-159.57C948.1,-150.27 955.65,-139.25 960.79,-131.75"/>
<polygon fill="midnightblue" stroke="midnightblue" points="938.66,-157.86 935.9,-168.08 944.44,-161.81 938.66,-157.86"/>
</g>
<!-- Node18&#45;&gt;Node19 -->
<g id="edge36" class="edge">
<title>Node18&#45;&gt;Node19</title>
<path fill="none" stroke="midnightblue" d="M966.61,-165.3C998.64,-155.13 1044.3,-140.62 1072.97,-131.52"/>
<polygon fill="midnightblue" stroke="midnightblue" points="965.19,-162.08 956.72,-168.44 967.31,-168.75 965.19,-162.08"/>
</g>
<!-- Node18&#45;&gt;Node20 -->
<g id="edge37" class="edge">
<title>Node18&#45;&gt;Node20</title>
<path fill="none" stroke="midnightblue" d="M978.17,-171.29C1038.69,-163.83 1145.36,-149.61 1235.79,-132 1238.51,-131.47 1241.34,-130.87 1244.16,-130.24"/>
<polygon fill="midnightblue" stroke="midnightblue" points="977.64,-167.83 968.14,-172.52 978.49,-174.78 977.64,-167.83"/>
</g>
<!-- Node21&#45;&gt;Node3 -->
<g id="edge46" class="edge">
<title>Node21&#45;&gt;Node3</title>
<path fill="none" stroke="midnightblue" d="M808.22,-172.82C879.16,-165.89 1022.31,-150.91 1142.79,-132 1145.52,-131.57 1148.34,-131.1 1151.17,-130.6"/>
<polygon fill="midnightblue" stroke="midnightblue" points="807.49,-169.37 797.88,-173.82 808.17,-176.34 807.49,-169.37"/>
</g>
<!-- Node21&#45;&gt;Node4 -->
<g id="edge47" class="edge">
<title>Node21&#45;&gt;Node4</title>
<path fill="none" stroke="midnightblue" d="M719.74,-173.38C637.36,-166.47 454.39,-150.43 300.79,-132 297.6,-131.62 294.34,-131.21 291.04,-130.78"/>
<polygon fill="midnightblue" stroke="midnightblue" points="719.49,-176.88 729.75,-174.22 720.07,-169.9 719.49,-176.88"/>
</g>
<!-- Node21&#45;&gt;Node5 -->
<g id="edge54" class="edge">
<title>Node21&#45;&gt;Node5</title>
<path fill="none" stroke="midnightblue" d="M782.29,-161.7C797.15,-147.62 813.46,-126.74 799.79,-112 781.32,-92.1 398.2,-74.93 252.95,-69.11"/>
<polygon fill="midnightblue" stroke="midnightblue" points="779.94,-159.11 774.82,-168.38 784.6,-164.33 779.94,-159.11"/>
</g>
<!-- Node21&#45;&gt;Node6 -->
<g id="edge48" class="edge">
<title>Node21&#45;&gt;Node6</title>
<path fill="none" stroke="midnightblue" d="M787.97,-163C807.13,-150.08 828.7,-130.19 815.79,-112 755.8,-27.49 619.51,-13.12 557.97,-11.08"/>
<polygon fill="midnightblue" stroke="midnightblue" points="786.03,-160.09 779.47,-168.42 789.79,-165.99 786.03,-160.09"/>
</g>
<!-- Node21&#45;&gt;Node12 -->
<g id="edge49" class="edge">
<title>Node21&#45;&gt;Node12</title>
<path fill="none" stroke="midnightblue" d="M751.84,-159.57C745.47,-150.27 737.92,-139.25 732.78,-131.75"/>
<polygon fill="midnightblue" stroke="midnightblue" points="749.14,-161.81 757.68,-168.08 754.91,-157.86 749.14,-161.81"/>
</g>
<!-- Node21&#45;&gt;Node13 -->
<g id="edge50" class="edge">
<title>Node21&#45;&gt;Node13</title>
<path fill="none" stroke="midnightblue" d="M720.03,-165.96C679.61,-155.76 620.41,-140.82 583.54,-131.52"/>
<polygon fill="midnightblue" stroke="midnightblue" points="719.32,-169.39 729.88,-168.44 721.04,-162.6 719.32,-169.39"/>
</g>
<!-- Node21&#45;&gt;Node14 -->
<g id="edge51" class="edge">
<title>Node21&#45;&gt;Node14</title>
<path fill="none" stroke="midnightblue" d="M719.57,-170.89C649.82,-161.26 514.04,-142.51 434.65,-131.54"/>
<polygon fill="midnightblue" stroke="midnightblue" points="719.39,-174.4 729.77,-172.3 720.34,-167.47 719.39,-174.4"/>
</g>
<!-- Node21&#45;&gt;Node15 -->
<g id="edge52" class="edge">
<title>Node21&#45;&gt;Node15</title>
<path fill="none" stroke="midnightblue" d="M805.78,-165.83C844.11,-155.63 899.94,-140.78 934.77,-131.52"/>
<polygon fill="midnightblue" stroke="midnightblue" points="804.72,-162.49 795.95,-168.44 806.52,-169.26 804.72,-162.49"/>
</g>
<!-- Node21&#45;&gt;Node19 -->
<g id="edge53" class="edge">
<title>Node21&#45;&gt;Node19</title>
<path fill="none" stroke="midnightblue" d="M808.06,-171.06C865.72,-163.12 969.57,-148.19 1057.79,-132 1060.43,-131.52 1063.15,-130.99 1065.89,-130.44"/>
<polygon fill="midnightblue" stroke="midnightblue" points="807.28,-167.63 797.85,-172.45 808.23,-174.57 807.28,-167.63"/>
</g>
<!-- Node21&#45;&gt;Node20 -->
<g id="edge55" class="edge">
<title>Node21&#45;&gt;Node20</title>
<path fill="none" stroke="midnightblue" d="M808.29,-173.58C909.44,-165.67 1154.15,-145.75 1235.79,-132 1238.52,-131.54 1241.36,-130.99 1244.19,-130.39"/>
<polygon fill="midnightblue" stroke="midnightblue" points="807.8,-170.11 798.1,-174.37 808.34,-177.09 807.8,-170.11"/>
</g>
<!-- Node22&#45;&gt;Node2 -->
<g id="edge59" class="edge">
<title>Node22&#45;&gt;Node2</title>
<path fill="none" stroke="midnightblue" d="M409.79,-221.83C369.38,-211.08 309.5,-195.15 275.3,-186.05"/>
<polygon fill="midnightblue" stroke="midnightblue" points="409.06,-225.26 419.62,-224.44 410.86,-218.49 409.06,-225.26"/>
</g>
<!-- Node22&#45;&gt;Node5 -->
<g id="edge60" class="edge">
<title>Node22&#45;&gt;Node5</title>
<path fill="none" stroke="midnightblue" d="M420.46,-220.71C375.88,-203.22 298.02,-172.76 284.79,-168 236.78,-150.74 205.67,-173.35 175.79,-132 163.08,-114.43 179.56,-88.99 190.15,-75.75"/>
<polygon fill="midnightblue" stroke="midnightblue" points="419.38,-224.04 429.97,-224.43 421.94,-217.52 419.38,-224.04"/>
</g>
</g>
</svg>
        <g id="navigator" transform="translate(0 0)" fill="#404254">
                <rect fill="#f2f5e9" fill-opacity="0.5" stroke="#606060" stroke-width=".5" x="0" y="0" width="60" height="60"/>
                <use id="zoomplus" xlink:href="#zoomPlus" x="17" y="9" onmousedown="handleZoom(evt,'in')"/>
                <use id="zoomminus" xlink:href="#zoomMin" x="42" y="9" onmousedown="handleZoom(evt,'out')"/>
                <use id="reset" xlink:href="#resetDef" x="30" y="36" onmousedown="handleReset()"/>
                <g id="arrowUp" xlink:href="#dirArrow" transform="translate(30 24)" onmousedown="handlePan(0,-1)">
                  <use xlink:href="#rim" fill="#404040">
                        <set attributeName="fill" to="#808080" begin="arrowUp.mouseover" end="arrowUp.mouseout"/>
                  </use>
                  <path fill="none" stroke="white" stroke-width="1.5" d="M0,-3.0v7 M-2.5,-0.5L0,-3.0L2.5,-0.5"/>
                </g>
                <g id="arrowRight" xlink:href="#dirArrow" transform="rotate(90) translate(36 -43)" onmousedown="handlePan(1,0)">
                  <use xlink:href="#rim" fill="#404040">
                        <set attributeName="fill" to="#808080" begin="arrowRight.mouseover" end="arrowRight.mouseout"/>
                  </use>
                  <path fill="none" stroke="white" stroke-width="1.5" d="M0,-3.0v7 M-2.5,-0.5L0,-3.0L2.5,-0.5"/>
                </g>
                <g id="arrowDown" xlink:href="#dirArrow" transform="rotate(180) translate(-30 -48)" onmousedown="handlePan(0,1)">
                  <use xlink:href="#rim" fill="#404040">
                        <set attributeName="fill" to="#808080" begin="arrowDown.mouseover" end="arrowDown.mouseout"/>
                  </use>
                  <path fill="none" stroke="white" stroke-width="1.5" d="M0,-3.0v7 M-2.5,-0.5L0,-3.0L2.5,-0.5"/>
                </g>
                <g id="arrowLeft" xlink:href="#dirArrow" transform="rotate(270) translate(-36 17)" onmousedown="handlePan(-1,0)">
                  <use xlink:href="#rim" fill="#404040">
                        <set attributeName="fill" to="#808080" begin="arrowLeft.mouseover" end="arrowLeft.mouseout"/>
                  </use>
                  <path fill="none" stroke="white" stroke-width="1.5" d="M0,-3.0v7 M-2.5,-0.5L0,-3.0L2.5,-0.5"/>
                </g>
        </g>
        <svg viewBox="0 0 15 15" width="100%" height="30px" preserveAspectRatio="xMaxYMin meet">
         <g id="arrow_out" transform="scale(0.3 0.3)">
          <a xlink:href="message_8hpp__dep__incl_org.svg" target="_base">
           <rect id="button" ry="5" rx="5" y="6" x="6" height="38" width="38"
                fill="#f2f5e9" fill-opacity="0.5" stroke="#606060" stroke-width="1.0"/>
           <path id="arrow"
             d="M 11.500037,31.436501 C 11.940474,20.09759 22.043105,11.32322 32.158766,21.979434 L 37.068811,17.246167 C 37.068811,17.246167 37.088388,32 37.088388,32 L 22.160133,31.978069 C 22.160133,31.978069 26.997745,27.140456 26.997745,27.140456 C 18.528582,18.264221 13.291696,25.230495 11.500037,31.436501 z"
             style="fill:#404040;"/>
          </a>
         </g>
        </svg>
</svg>
