<?xml version="1.0" encoding="UTF-8" standalone="no"?>
<!DOCTYPE svg PUBLIC "-//W3C//DTD SVG 1.1//EN"
 "http://www.w3.org/Graphics/SVG/1.1/DTD/svg11.dtd">
<!-- Generated by graphviz version 2.43.0 (0)
 -->
<!-- Title: message.hpp Pages: 1 -->
<svg width="1608pt" height="308pt"
 viewBox="0.00 0.00 1608.00 308.00" xmlns="http://www.w3.org/2000/svg" xmlns:xlink="http://www.w3.org/1999/xlink">
<g id="graph0" class="graph" transform="scale(1 1) rotate(0) translate(4 304)">
<title>message.hpp</title>
<polygon fill="white" stroke="transparent" points="-4,4 -4,-304 1604,-304 1604,4 -4,4"/>
<!-- Node1 -->
<g id="node1" class="node">
<title>Node1</title>
<g id="a_node1"><a xlink:title=" ">
<polygon fill="#bfbfbf" stroke="black" points="811.5,-280.5 811.5,-299.5 893.5,-299.5 893.5,-280.5 811.5,-280.5"/>
<text text-anchor="middle" x="852.5" y="-287.5" font-family="Helvetica,sans-Serif" font-size="10.00">message.hpp</text>
</a>
</g>
</g>
<!-- Node2 -->
<g id="node2" class="node">
<title>Node2</title>
<g id="a_node2"><a xlink:href="channel_8cpp.html" target="_top" xlink:title=" ">
<polygon fill="white" stroke="black" points="1423,-112.5 1423,-131.5 1498,-131.5 1498,-112.5 1423,-112.5"/>
<text text-anchor="middle" x="1460.5" y="-119.5" font-family="Helvetica,sans-Serif" font-size="10.00">channel.cpp</text>
</a>
</g>
</g>
<!-- Node1&#45;&gt;Node2 -->
<g id="edge1" class="edge">
<title>Node1&#45;&gt;Node2</title>
<path fill="none" stroke="midnightblue" d="M903.89,-287.25C1009.96,-283.14 1249.63,-271.07 1326.5,-244 1369.17,-228.97 1378.51,-218.96 1411.5,-188 1430.25,-170.4 1447.11,-144.97 1455.29,-131.74"/>
<polygon fill="midnightblue" stroke="midnightblue" points="903.61,-283.76 893.75,-287.64 903.88,-290.76 903.61,-283.76"/>
</g>
<!-- Node3 -->
<g id="node3" class="node">
<title>Node3</title>
<g id="a_node3"><a xlink:href="client__handler_8hpp.html" target="_top" xlink:title=" ">
<polygon fill="white" stroke="black" points="460.5,-112.5 460.5,-131.5 566.5,-131.5 566.5,-112.5 460.5,-112.5"/>
<text text-anchor="middle" x="513.5" y="-119.5" font-family="Helvetica,sans-Serif" font-size="10.00">client_handler.hpp</text>
</a>
</g>
</g>
<!-- Node1&#45;&gt;Node3 -->
<g id="edge2" class="edge">
<title>Node1&#45;&gt;Node3</title>
<path fill="none" stroke="midnightblue" d="M801.22,-279.1C742.28,-265.85 644.67,-238 574.5,-188 551.31,-171.47 529.94,-145.13 519.76,-131.61"/>
<polygon fill="midnightblue" stroke="midnightblue" points="800.53,-282.53 811.05,-281.26 802.03,-275.69 800.53,-282.53"/>
</g>
<!-- Node6 -->
<g id="node6" class="node">
<title>Node6</title>
<g id="a_node6"><a xlink:href="message_8cpp.html" target="_top" xlink:title=" ">
<polygon fill="white" stroke="black" points="1519,-224.5 1519,-243.5 1600,-243.5 1600,-224.5 1519,-224.5"/>
<text text-anchor="middle" x="1559.5" y="-231.5" font-family="Helvetica,sans-Serif" font-size="10.00">message.cpp</text>
</a>
</g>
</g>
<!-- Node1&#45;&gt;Node6 -->
<g id="edge5" class="edge">
<title>Node1&#45;&gt;Node6</title>
<path fill="none" stroke="midnightblue" d="M904,-287.08C1014.37,-282.61 1281.76,-269.85 1504.5,-244 1509.11,-243.46 1513.93,-242.81 1518.71,-242.11"/>
<polygon fill="midnightblue" stroke="midnightblue" points="903.67,-283.59 893.82,-287.49 903.95,-290.59 903.67,-283.59"/>
</g>
<!-- Node7 -->
<g id="node7" class="node">
<title>Node7</title>
<g id="a_node7"><a xlink:href="message__decoder_8hpp.html" target="_top" xlink:title=" ">
<polygon fill="white" stroke="black" points="0,-168.5 0,-187.5 125,-187.5 125,-168.5 0,-168.5"/>
<text text-anchor="middle" x="62.5" y="-175.5" font-family="Helvetica,sans-Serif" font-size="10.00">message_decoder.hpp</text>
</a>
</g>
</g>
<!-- Node1&#45;&gt;Node7 -->
<g id="edge6" class="edge">
<title>Node1&#45;&gt;Node7</title>
<path fill="none" stroke="midnightblue" d="M801.23,-286.91C708.7,-282.59 507.85,-270.78 340.5,-244 249.22,-229.39 143.39,-201.57 92.66,-187.54"/>
<polygon fill="midnightblue" stroke="midnightblue" points="801.29,-290.41 811.44,-287.37 801.61,-283.42 801.29,-290.41"/>
</g>
<!-- Node10 -->
<g id="node10" class="node">
<title>Node10</title>
<g id="a_node10"><a xlink:href="message__encoder_8hpp.html" target="_top" xlink:title=" ">
<polygon fill="white" stroke="black" points="143,-168.5 143,-187.5 268,-187.5 268,-168.5 143,-168.5"/>
<text text-anchor="middle" x="205.5" y="-175.5" font-family="Helvetica,sans-Serif" font-size="10.00">message_encoder.hpp</text>
</a>
</g>
</g>
<!-- Node1&#45;&gt;Node10 -->
<g id="edge10" class="edge">
<title>Node1&#45;&gt;Node10</title>
<path fill="none" stroke="midnightblue" d="M800.76,-286.71C719.52,-282.41 557.39,-271.01 422.5,-244 350.58,-229.6 268.28,-201.68 228.9,-187.59"/>
<polygon fill="midnightblue" stroke="midnightblue" points="801.04,-290.23 811.21,-287.25 801.4,-283.24 801.04,-290.23"/>
</g>
<!-- Node11 -->
<g id="node11" class="node">
<title>Node11</title>
<g id="a_node11"><a xlink:href="processor_8hpp.html" target="_top" xlink:title=" ">
<polygon fill="white" stroke="black" points="626.5,-168.5 626.5,-187.5 710.5,-187.5 710.5,-168.5 626.5,-168.5"/>
<text text-anchor="middle" x="668.5" y="-175.5" font-family="Helvetica,sans-Serif" font-size="10.00">processor.hpp</text>
</a>
</g>
</g>
<!-- Node1&#45;&gt;Node11 -->
<g id="edge13" class="edge">
<title>Node1&#45;&gt;Node11</title>
<path fill="none" stroke="midnightblue" d="M801.71,-277.72C776.98,-270.65 747.67,-259.81 724.5,-244 701.86,-228.55 682.84,-201.73 673.93,-187.87"/>
<polygon fill="midnightblue" stroke="midnightblue" points="801.07,-281.18 811.64,-280.43 802.92,-274.42 801.07,-281.18"/>
</g>
<!-- Node13 -->
<g id="node13" class="node">
<title>Node13</title>
<g id="a_node13"><a xlink:href="processor__channel_8hpp.html" target="_top" xlink:title=" ">
<polygon fill="white" stroke="black" points="934.5,-112.5 934.5,-131.5 1062.5,-131.5 1062.5,-112.5 934.5,-112.5"/>
<text text-anchor="middle" x="998.5" y="-119.5" font-family="Helvetica,sans-Serif" font-size="10.00">processor_channel.hpp</text>
</a>
</g>
</g>
<!-- Node1&#45;&gt;Node13 -->
<g id="edge27" class="edge">
<title>Node1&#45;&gt;Node13</title>
<path fill="none" stroke="midnightblue" d="M867.27,-272.21C898,-237.26 967.9,-157.79 990.96,-131.57"/>
<polygon fill="midnightblue" stroke="midnightblue" points="864.33,-270.25 860.35,-280.08 869.58,-274.88 864.33,-270.25"/>
</g>
<!-- Node14 -->
<g id="node14" class="node">
<title>Node14</title>
<g id="a_node14"><a xlink:href="processor__misc_8hpp.html" target="_top" xlink:title=" ">
<polygon fill="white" stroke="black" points="329,-112.5 329,-131.5 442,-131.5 442,-112.5 329,-112.5"/>
<text text-anchor="middle" x="385.5" y="-119.5" font-family="Helvetica,sans-Serif" font-size="10.00">processor_misc.hpp</text>
</a>
</g>
</g>
<!-- Node1&#45;&gt;Node14 -->
<g id="edge28" class="edge">
<title>Node1&#45;&gt;Node14</title>
<path fill="none" stroke="midnightblue" d="M801.3,-282.03C756.72,-275.1 690.76,-262.78 635.5,-244 541.68,-212.11 437.39,-153.45 399.89,-131.55"/>
<polygon fill="midnightblue" stroke="midnightblue" points="800.9,-285.51 811.31,-283.55 801.95,-278.59 800.9,-285.51"/>
</g>
<!-- Node15 -->
<g id="node15" class="node">
<title>Node15</title>
<g id="a_node15"><a xlink:href="processor__register_8hpp.html" target="_top" xlink:title=" ">
<polygon fill="white" stroke="black" points="751,-112.5 751,-131.5 878,-131.5 878,-112.5 751,-112.5"/>
<text text-anchor="middle" x="814.5" y="-119.5" font-family="Helvetica,sans-Serif" font-size="10.00">processor_register.hpp</text>
</a>
</g>
</g>
<!-- Node1&#45;&gt;Node15 -->
<g id="edge29" class="edge">
<title>Node1&#45;&gt;Node15</title>
<path fill="none" stroke="midnightblue" d="M848.13,-269.93C839.89,-233.92 822.34,-157.23 816.46,-131.57"/>
<polygon fill="midnightblue" stroke="midnightblue" points="844.81,-271.11 850.46,-280.08 851.64,-269.55 844.81,-271.11"/>
</g>
<!-- Node16 -->
<g id="node16" class="node">
<title>Node16</title>
<g id="a_node16"><a xlink:href="processor__send__message_8hpp.html" target="_top" xlink:title=" ">
<polygon fill="white" stroke="black" points="1157,-112.5 1157,-131.5 1320,-131.5 1320,-112.5 1157,-112.5"/>
<text text-anchor="middle" x="1238.5" y="-119.5" font-family="Helvetica,sans-Serif" font-size="10.00">processor_send_message.hpp</text>
</a>
</g>
</g>
<!-- Node1&#45;&gt;Node16 -->
<g id="edge30" class="edge">
<title>Node1&#45;&gt;Node16</title>
<path fill="none" stroke="midnightblue" d="M895.79,-277.78C925.2,-269.64 964.75,-257.69 998.5,-244 1067.39,-216.06 1081.07,-201.37 1147.5,-168 1173.01,-155.18 1202.68,-140.57 1221.02,-131.56"/>
<polygon fill="midnightblue" stroke="midnightblue" points="894.56,-274.49 885.83,-280.49 896.4,-281.24 894.56,-274.49"/>
</g>
<!-- Node17 -->
<g id="node17" class="node">
<title>Node17</title>
<g id="a_node17"><a xlink:href="processor__user_8hpp.html" target="_top" xlink:title=" ">
<polygon fill="white" stroke="black" points="622.5,-112.5 622.5,-131.5 732.5,-131.5 732.5,-112.5 622.5,-112.5"/>
<text text-anchor="middle" x="677.5" y="-119.5" font-family="Helvetica,sans-Serif" font-size="10.00">processor_user.hpp</text>
</a>
</g>
</g>
<!-- Node1&#45;&gt;Node17 -->
<g id="edge31" class="edge">
<title>Node1&#45;&gt;Node17</title>
<path fill="none" stroke="midnightblue" d="M835.73,-273.09C799.38,-238.62 714.41,-158.01 686.53,-131.57"/>
<polygon fill="midnightblue" stroke="midnightblue" points="833.43,-275.73 843.09,-280.08 838.24,-270.65 833.43,-275.73"/>
</g>
<!-- Node18 -->
<g id="node18" class="node">
<title>Node18</title>
<g id="a_node18"><a xlink:href="reply_8cpp.html" target="_top" xlink:title=" ">
<polygon fill="white" stroke="black" points="1326.5,-168.5 1326.5,-187.5 1386.5,-187.5 1386.5,-168.5 1326.5,-168.5"/>
<text text-anchor="middle" x="1356.5" y="-175.5" font-family="Helvetica,sans-Serif" font-size="10.00">reply.cpp</text>
</a>
</g>
</g>
<!-- Node1&#45;&gt;Node18 -->
<g id="edge32" class="edge">
<title>Node1&#45;&gt;Node18</title>
<path fill="none" stroke="midnightblue" d="M903.72,-283.27C962,-276.24 1059.79,-262.88 1142.5,-244 1212.53,-228.01 1293.1,-201.19 1332.41,-187.54"/>
<polygon fill="midnightblue" stroke="midnightblue" points="903.18,-279.81 893.67,-284.47 904.01,-286.76 903.18,-279.81"/>
</g>
<!-- Node19 -->
<g id="node19" class="node">
<title>Node19</title>
<g id="a_node19"><a xlink:href="reply_8hpp.html" target="_top" xlink:title=" ">
<polygon fill="white" stroke="black" points="928,-224.5 928,-243.5 989,-243.5 989,-224.5 928,-224.5"/>
<text text-anchor="middle" x="958.5" y="-231.5" font-family="Helvetica,sans-Serif" font-size="10.00">reply.hpp</text>
</a>
</g>
</g>
<!-- Node1&#45;&gt;Node19 -->
<g id="edge33" class="edge">
<title>Node1&#45;&gt;Node19</title>
<path fill="none" stroke="midnightblue" d="M878.56,-275.73C898.18,-265.73 924.53,-252.31 941.51,-243.65"/>
<polygon fill="midnightblue" stroke="midnightblue" points="876.85,-272.67 869.53,-280.32 880.03,-278.9 876.85,-272.67"/>
</g>
<!-- Node21 -->
<g id="node21" class="node">
<title>Node21</title>
<g id="a_node21"><a xlink:href="server_8cpp.html" target="_top" xlink:title=" ">
<polygon fill="white" stroke="black" points="1338,-112.5 1338,-131.5 1405,-131.5 1405,-112.5 1338,-112.5"/>
<text text-anchor="middle" x="1371.5" y="-119.5" font-family="Helvetica,sans-Serif" font-size="10.00">server.cpp</text>
</a>
</g>
</g>
<!-- Node1&#45;&gt;Node21 -->
<g id="edge62" class="edge">
<title>Node1&#45;&gt;Node21</title>
<path fill="none" stroke="midnightblue" d="M904.06,-287.79C1027.91,-283.66 1336.32,-265.61 1395.5,-188 1408.77,-170.59 1391.04,-145.08 1379.68,-131.79"/>
<polygon fill="midnightblue" stroke="midnightblue" points="903.59,-284.3 893.71,-288.12 903.82,-291.3 903.59,-284.3"/>
</g>
<!-- Node22 -->
<g id="node22" class="node">
<title>Node22</title>
<g id="a_node22"><a xlink:href="user_8cpp.html" target="_top" xlink:title=" ">
<polygon fill="white" stroke="black" points="1516,-112.5 1516,-131.5 1573,-131.5 1573,-112.5 1516,-112.5"/>
<text text-anchor="middle" x="1544.5" y="-119.5" font-family="Helvetica,sans-Serif" font-size="10.00">user.cpp</text>
</a>
</g>
</g>
<!-- Node1&#45;&gt;Node22 -->
<g id="edge66" class="edge">
<title>Node1&#45;&gt;Node22</title>
<path fill="none" stroke="midnightblue" d="M903.69,-287.66C1015.45,-284.22 1277.95,-273.2 1361.5,-244 1435.93,-217.99 1509.64,-154.93 1535.13,-131.74"/>
<polygon fill="midnightblue" stroke="midnightblue" points="903.57,-284.16 893.68,-287.96 903.78,-291.16 903.57,-284.16"/>
</g>
<!-- Node24 -->
<g id="node24" class="node">
<title>Node24</title>
<g id="a_node24"><a xlink:href="string__line__encoder_8hpp.html" target="_top" xlink:title=" ">
<polygon fill="white" stroke="black" points="286.5,-168.5 286.5,-187.5 418.5,-187.5 418.5,-168.5 286.5,-168.5"/>
<text text-anchor="middle" x="352.5" y="-175.5" font-family="Helvetica,sans-Serif" font-size="10.00">string_line_encoder.hpp</text>
</a>
</g>
</g>
<!-- Node1&#45;&gt;Node24 -->
<g id="edge63" class="edge">
<title>Node1&#45;&gt;Node24</title>
<path fill="none" stroke="midnightblue" d="M801.2,-289.15C726.61,-288.01 584.67,-280.62 470.5,-244 428.85,-230.64 385.09,-202.12 364.52,-187.71"/>
<polygon fill="midnightblue" stroke="midnightblue" points="801.22,-292.66 811.26,-289.28 801.31,-285.66 801.22,-292.66"/>
</g>
<!-- Node4 -->
<g id="node4" class="node">
<title>Node4</title>
<g id="a_node4"><a xlink:href="server__handler_8hpp.html" target="_top" xlink:title=" ">
<polygon fill="white" stroke="black" points="132.5,-56.5 132.5,-75.5 242.5,-75.5 242.5,-56.5 132.5,-56.5"/>
<text text-anchor="middle" x="187.5" y="-63.5" font-family="Helvetica,sans-Serif" font-size="10.00">server_handler.hpp</text>
</a>
</g>
</g>
<!-- Node3&#45;&gt;Node4 -->
<g id="edge3" class="edge">
<title>Node3&#45;&gt;Node4</title>
<path fill="none" stroke="midnightblue" d="M451.87,-110.79C390.27,-100.59 296.64,-85.08 238.91,-75.52"/>
<polygon fill="midnightblue" stroke="midnightblue" points="451.41,-114.26 461.84,-112.44 452.55,-107.36 451.41,-114.26"/>
</g>
<!-- Node5 -->
<g id="node5" class="node">
<title>Node5</title>
<g id="a_node5"><a xlink:href="main_8cpp.html" target="_top" xlink:title=" ">
<polygon fill="white" stroke="black" points="626.5,-0.5 626.5,-19.5 688.5,-19.5 688.5,-0.5 626.5,-0.5"/>
<text text-anchor="middle" x="657.5" y="-7.5" font-family="Helvetica,sans-Serif" font-size="10.00">main.cpp</text>
</a>
</g>
</g>
<!-- Node4&#45;&gt;Node5 -->
<g id="edge4" class="edge">
<title>Node4&#45;&gt;Node5</title>
<path fill="none" stroke="midnightblue" d="M252.68,-55.88C398.63,-37.67 559.87,-20.9 626.39,-14.13"/>
<polygon fill="midnightblue" stroke="midnightblue" points="252.13,-52.42 242.64,-57.14 253,-59.37 252.13,-52.42"/>
</g>
<!-- Node7&#45;&gt;Node4 -->
<g id="edge9" class="edge">
<title>Node7&#45;&gt;Node4</title>
<path fill="none" stroke="midnightblue" d="M80.1,-161.51C106.81,-138.01 156.69,-94.11 177.74,-75.59"/>
<polygon fill="midnightblue" stroke="midnightblue" points="77.5,-159.13 72.31,-168.37 82.13,-164.39 77.5,-159.13"/>
</g>
<!-- Node8 -->
<g id="node8" class="node">
<title>Node8</title>
<g id="a_node8"><a xlink:href="bot__handler_8hpp.html" target="_top" xlink:title=" ">
<polygon fill="white" stroke="black" points="216,-112.5 216,-131.5 311,-131.5 311,-112.5 216,-112.5"/>
<text text-anchor="middle" x="263.5" y="-119.5" font-family="Helvetica,sans-Serif" font-size="10.00">bot_handler.hpp</text>
</a>
</g>
</g>
<!-- Node7&#45;&gt;Node8 -->
<g id="edge7" class="edge">
<title>Node7&#45;&gt;Node8</title>
<path fill="none" stroke="midnightblue" d="M104.08,-165.83C142.03,-155.63 197.31,-140.78 231.8,-131.52"/>
<polygon fill="midnightblue" stroke="midnightblue" points="103.1,-162.47 94.35,-168.44 104.91,-169.23 103.1,-162.47"/>
</g>
<!-- Node9 -->
<g id="node9" class="node">
<title>Node9</title>
<g id="a_node9"><a xlink:href="bot__main_8cpp.html" target="_top" xlink:title=" ">
<polygon fill="white" stroke="black" points="261,-56.5 261,-75.5 344,-75.5 344,-56.5 261,-56.5"/>
<text text-anchor="middle" x="302.5" y="-63.5" font-family="Helvetica,sans-Serif" font-size="10.00">bot_main.cpp</text>
</a>
</g>
</g>
<!-- Node8&#45;&gt;Node9 -->
<g id="edge8" class="edge">
<title>Node8&#45;&gt;Node9</title>
<path fill="none" stroke="midnightblue" d="M275.88,-103.86C282.64,-94.5 290.71,-83.33 296.18,-75.75"/>
<polygon fill="midnightblue" stroke="midnightblue" points="272.96,-101.93 269.94,-112.08 278.63,-106.03 272.96,-101.93"/>
</g>
<!-- Node10&#45;&gt;Node4 -->
<g id="edge12" class="edge">
<title>Node10&#45;&gt;Node4</title>
<path fill="none" stroke="midnightblue" d="M190.05,-160.55C183.6,-152.57 176.84,-142.46 173.5,-132 167.18,-112.21 176.67,-88.11 182.86,-75.55"/>
<polygon fill="midnightblue" stroke="midnightblue" points="187.56,-163.02 196.75,-168.29 192.85,-158.44 187.56,-163.02"/>
</g>
<!-- Node10&#45;&gt;Node8 -->
<g id="edge11" class="edge">
<title>Node10&#45;&gt;Node8</title>
<path fill="none" stroke="midnightblue" d="M222.41,-161.25C232.7,-151.67 245.47,-139.79 254.01,-131.83"/>
<polygon fill="midnightblue" stroke="midnightblue" points="219.75,-158.95 214.82,-168.32 224.52,-164.07 219.75,-158.95"/>
</g>
<!-- Node11&#45;&gt;Node3 -->
<g id="edge15" class="edge">
<title>Node11&#45;&gt;Node3</title>
<path fill="none" stroke="midnightblue" d="M634.17,-165.04C605,-154.88 563.86,-140.55 537.95,-131.52"/>
<polygon fill="midnightblue" stroke="midnightblue" points="633.34,-168.46 643.94,-168.44 635.65,-161.85 633.34,-168.46"/>
</g>
<!-- Node11&#45;&gt;Node8 -->
<g id="edge14" class="edge">
<title>Node11&#45;&gt;Node8</title>
<path fill="none" stroke="midnightblue" d="M616.19,-170.77C547.88,-162.52 424.6,-147.22 319.5,-132 316.77,-131.6 313.97,-131.19 311.14,-130.76"/>
<polygon fill="midnightblue" stroke="midnightblue" points="615.92,-174.26 626.27,-171.99 616.76,-167.31 615.92,-174.26"/>
</g>
<!-- Node12 -->
<g id="node12" class="node">
<title>Node12</title>
<g id="a_node12"><a xlink:href="processor_8cpp.html" target="_top" xlink:title=" ">
<polygon fill="white" stroke="black" points="773,-56.5 773,-75.5 856,-75.5 856,-56.5 773,-56.5"/>
<text text-anchor="middle" x="814.5" y="-63.5" font-family="Helvetica,sans-Serif" font-size="10.00">processor.cpp</text>
</a>
</g>
</g>
<!-- Node11&#45;&gt;Node12 -->
<g id="edge16" class="edge">
<title>Node11&#45;&gt;Node12</title>
<path fill="none" stroke="midnightblue" d="M642.91,-163C622.38,-149.95 599.17,-129.89 613.5,-112 633.06,-87.58 719.8,-75.52 772.74,-70.33"/>
<polygon fill="midnightblue" stroke="midnightblue" points="641.34,-166.14 651.71,-168.29 644.95,-160.14 641.34,-166.14"/>
</g>
<!-- Node11&#45;&gt;Node13 -->
<g id="edge17" class="edge">
<title>Node11&#45;&gt;Node13</title>
<path fill="none" stroke="midnightblue" d="M720.55,-168.48C782.26,-158.38 884.52,-141.65 946.3,-131.54"/>
<polygon fill="midnightblue" stroke="midnightblue" points="719.93,-165.04 710.63,-170.11 721.06,-171.95 719.93,-165.04"/>
</g>
<!-- Node11&#45;&gt;Node14 -->
<g id="edge19" class="edge">
<title>Node11&#45;&gt;Node14</title>
<path fill="none" stroke="midnightblue" d="M616.48,-167.07C563.03,-156.88 480.71,-141.17 430.13,-131.52"/>
<polygon fill="midnightblue" stroke="midnightblue" points="615.96,-170.54 626.44,-168.97 617.27,-163.66 615.96,-170.54"/>
</g>
<!-- Node11&#45;&gt;Node15 -->
<g id="edge21" class="edge">
<title>Node11&#45;&gt;Node15</title>
<path fill="none" stroke="midnightblue" d="M701.2,-164.91C728.65,-154.75 767.17,-140.51 791.47,-131.52"/>
<polygon fill="midnightblue" stroke="midnightblue" points="699.8,-161.69 691.63,-168.44 702.23,-168.26 699.8,-161.69"/>
</g>
<!-- Node11&#45;&gt;Node16 -->
<g id="edge23" class="edge">
<title>Node11&#45;&gt;Node16</title>
<path fill="none" stroke="midnightblue" d="M721.01,-172.03C820.68,-162.58 1037.93,-142 1156.79,-130.74"/>
<polygon fill="midnightblue" stroke="midnightblue" points="720.5,-168.56 710.88,-172.99 721.16,-175.53 720.5,-168.56"/>
</g>
<!-- Node11&#45;&gt;Node17 -->
<g id="edge25" class="edge">
<title>Node11&#45;&gt;Node17</title>
<path fill="none" stroke="midnightblue" d="M671.65,-158.1C673.14,-149.14 674.86,-138.86 676.04,-131.75"/>
<polygon fill="midnightblue" stroke="midnightblue" points="668.18,-157.64 669.99,-168.08 675.08,-158.79 668.18,-157.64"/>
</g>
<!-- Node13&#45;&gt;Node12 -->
<g id="edge18" class="edge">
<title>Node13&#45;&gt;Node12</title>
<path fill="none" stroke="midnightblue" d="M959.55,-109.57C924.84,-99.38 874.82,-84.7 843.52,-75.52"/>
<polygon fill="midnightblue" stroke="midnightblue" points="958.76,-112.99 969.34,-112.44 960.73,-106.27 958.76,-112.99"/>
</g>
<!-- Node14&#45;&gt;Node12 -->
<g id="edge20" class="edge">
<title>Node14&#45;&gt;Node12</title>
<path fill="none" stroke="midnightblue" d="M452,-111.95C575.04,-95.98 707.1,-79.92 772.83,-72"/>
<polygon fill="midnightblue" stroke="midnightblue" points="451.48,-108.49 442.02,-113.25 452.39,-115.43 451.48,-108.49"/>
</g>
<!-- Node15&#45;&gt;Node12 -->
<g id="edge22" class="edge">
<title>Node15&#45;&gt;Node12</title>
<path fill="none" stroke="midnightblue" d="M814.5,-101.8C814.5,-92.91 814.5,-82.78 814.5,-75.75"/>
<polygon fill="midnightblue" stroke="midnightblue" points="811,-102.08 814.5,-112.08 818,-102.08 811,-102.08"/>
</g>
<!-- Node16&#45;&gt;Node12 -->
<g id="edge24" class="edge">
<title>Node16&#45;&gt;Node12</title>
<path fill="none" stroke="midnightblue" d="M1161.19,-111.15C1071.43,-99.72 926.69,-81.29 856.02,-72.29"/>
<polygon fill="midnightblue" stroke="midnightblue" points="1160.95,-114.65 1171.32,-112.44 1161.84,-107.71 1160.95,-114.65"/>
</g>
<!-- Node17&#45;&gt;Node12 -->
<g id="edge26" class="edge">
<title>Node17&#45;&gt;Node12</title>
<path fill="none" stroke="midnightblue" d="M708.52,-108.77C734.26,-98.63 770.19,-84.47 792.89,-75.52"/>
<polygon fill="midnightblue" stroke="midnightblue" points="707.23,-105.52 699.21,-112.44 709.79,-112.03 707.23,-105.52"/>
</g>
<!-- Node19&#45;&gt;Node2 -->
<g id="edge35" class="edge">
<title>Node19&#45;&gt;Node2</title>
<path fill="none" stroke="midnightblue" d="M999.46,-230.07C1055.23,-225.28 1157.69,-213.61 1241.5,-188 1261.66,-181.84 1264.65,-175.09 1284.5,-168 1331.13,-151.35 1386.76,-138.2 1422.82,-130.52"/>
<polygon fill="midnightblue" stroke="midnightblue" points="998.96,-226.6 989.28,-230.91 999.54,-233.58 998.96,-226.6"/>
</g>
<!-- Node19&#45;&gt;Node3 -->
<g id="edge42" class="edge">
<title>Node19&#45;&gt;Node3</title>
<path fill="none" stroke="midnightblue" d="M917.55,-233.14C852.17,-232.16 721.04,-225.2 617.5,-188 580.03,-174.54 541.81,-146.06 523.93,-131.69"/>
<polygon fill="midnightblue" stroke="midnightblue" points="917.8,-236.65 927.84,-233.26 917.88,-229.65 917.8,-236.65"/>
</g>
<!-- Node19&#45;&gt;Node8 -->
<g id="edge34" class="edge">
<title>Node19&#45;&gt;Node8</title>
<path fill="none" stroke="midnightblue" d="M917.67,-231.26C837.51,-227.35 654.12,-215.9 502.5,-188 497.29,-187.04 358.57,-149.07 294.9,-131.61"/>
<polygon fill="midnightblue" stroke="midnightblue" points="917.68,-234.77 927.84,-231.74 918.01,-227.77 917.68,-234.77"/>
</g>
<!-- Node19&#45;&gt;Node12 -->
<g id="edge43" class="edge">
<title>Node19&#45;&gt;Node12</title>
<path fill="none" stroke="midnightblue" d="M951.09,-215.02C939.98,-189.71 917.02,-143.19 886.5,-112 871.04,-96.2 848.98,-83.46 833.36,-75.63"/>
<polygon fill="midnightblue" stroke="midnightblue" points="947.97,-216.63 955.11,-224.46 954.41,-213.89 947.97,-216.63"/>
</g>
<!-- Node19&#45;&gt;Node13 -->
<g id="edge44" class="edge">
<title>Node19&#45;&gt;Node13</title>
<path fill="none" stroke="midnightblue" d="M965.16,-214.67C973.91,-190.62 988.9,-149.39 995.38,-131.59"/>
<polygon fill="midnightblue" stroke="midnightblue" points="961.77,-213.77 961.64,-224.37 968.35,-216.17 961.77,-213.77"/>
</g>
<!-- Node19&#45;&gt;Node14 -->
<g id="edge45" class="edge">
<title>Node19&#45;&gt;Node14</title>
<path fill="none" stroke="midnightblue" d="M917.49,-231.08C846.73,-227.14 697.45,-216 574.5,-188 511.4,-173.63 439.93,-145.7 405.77,-131.59"/>
<polygon fill="midnightblue" stroke="midnightblue" points="917.58,-234.59 927.76,-231.64 917.96,-227.6 917.58,-234.59"/>
</g>
<!-- Node19&#45;&gt;Node15 -->
<g id="edge46" class="edge">
<title>Node19&#45;&gt;Node15</title>
<path fill="none" stroke="midnightblue" d="M939.02,-218.12C908.45,-194.77 850.2,-150.27 825.75,-131.59"/>
<polygon fill="midnightblue" stroke="midnightblue" points="937.13,-221.08 947.2,-224.37 941.38,-215.52 937.13,-221.08"/>
</g>
<!-- Node19&#45;&gt;Node16 -->
<g id="edge47" class="edge">
<title>Node19&#45;&gt;Node16</title>
<path fill="none" stroke="midnightblue" d="M990.66,-220.75C1013.38,-211.96 1044.48,-199.65 1071.5,-188 1090.85,-179.65 1095.02,-176.05 1114.5,-168 1147.94,-154.18 1187.34,-140.28 1212.6,-131.66"/>
<polygon fill="midnightblue" stroke="midnightblue" points="989.24,-217.55 981.17,-224.41 991.76,-224.08 989.24,-217.55"/>
</g>
<!-- Node19&#45;&gt;Node17 -->
<g id="edge48" class="edge">
<title>Node19&#45;&gt;Node17</title>
<path fill="none" stroke="midnightblue" d="M926.79,-220.59C869.22,-198.05 748.9,-150.95 699.45,-131.59"/>
<polygon fill="midnightblue" stroke="midnightblue" points="925.86,-223.98 936.45,-224.37 928.41,-217.46 925.86,-223.98"/>
</g>
<!-- Node19&#45;&gt;Node18 -->
<g id="edge49" class="edge">
<title>Node19&#45;&gt;Node18</title>
<path fill="none" stroke="midnightblue" d="M999.4,-228.81C1065.46,-221.82 1199.66,-206.69 1312.5,-188 1316.96,-187.26 1321.66,-186.4 1326.26,-185.5"/>
<polygon fill="midnightblue" stroke="midnightblue" points="998.97,-225.34 989.39,-229.86 999.7,-232.3 998.97,-225.34"/>
</g>
<!-- Node20 -->
<g id="node20" class="node">
<title>Node20</title>
<g id="a_node20"><a xlink:href="channel_8hpp.html" target="_top" xlink:title=" ">
<polygon fill="white" stroke="black" points="1156.5,-168.5 1156.5,-187.5 1232.5,-187.5 1232.5,-168.5 1156.5,-168.5"/>
<text text-anchor="middle" x="1194.5" y="-175.5" font-family="Helvetica,sans-Serif" font-size="10.00">channel.hpp</text>
</a>
</g>
</g>
<!-- Node19&#45;&gt;Node20 -->
<g id="edge36" class="edge">
<title>Node19&#45;&gt;Node20</title>
<path fill="none" stroke="midnightblue" d="M999.22,-223.68C1043.59,-213.53 1113.97,-197.43 1157.02,-187.58"/>
<polygon fill="midnightblue" stroke="midnightblue" points="998.32,-220.3 989.35,-225.94 999.88,-227.12 998.32,-220.3"/>
</g>
<!-- Node19&#45;&gt;Node22 -->
<g id="edge61" class="edge">
<title>Node19&#45;&gt;Node22</title>
<path fill="none" stroke="midnightblue" d="M999.51,-231.29C1060.96,-227.82 1179.99,-217.56 1276.5,-188 1295.89,-182.06 1298.26,-174.39 1317.5,-168 1399.07,-140.92 1423.49,-150.16 1507.5,-132 1510.21,-131.41 1513.03,-130.78 1515.85,-130.12"/>
<polygon fill="midnightblue" stroke="midnightblue" points="999.24,-227.8 989.44,-231.82 999.62,-234.79 999.24,-227.8"/>
</g>
<!-- Node23 -->
<g id="node23" class="node">
<title>Node23</title>
<g id="a_node23"><a xlink:href="server_8hpp.html" target="_top" xlink:title=" ">
<polygon fill="white" stroke="black" points="994.5,-168.5 994.5,-187.5 1062.5,-187.5 1062.5,-168.5 994.5,-168.5"/>
<text text-anchor="middle" x="1028.5" y="-175.5" font-family="Helvetica,sans-Serif" font-size="10.00">server.hpp</text>
</a>
</g>
</g>
<!-- Node19&#45;&gt;Node23 -->
<g id="edge50" class="edge">
<title>Node19&#45;&gt;Node23</title>
<path fill="none" stroke="midnightblue" d="M977.81,-218.1C990.41,-208.38 1006.43,-196.03 1017.05,-187.83"/>
<polygon fill="midnightblue" stroke="midnightblue" points="975.53,-215.44 969.75,-224.32 979.8,-220.99 975.53,-215.44"/>
</g>
<!-- Node20&#45;&gt;Node2 -->
<g id="edge37" class="edge">
<title>Node20&#45;&gt;Node2</title>
<path fill="none" stroke="midnightblue" d="M1242.55,-167.25C1294.31,-156.74 1375.59,-140.24 1422.89,-130.64"/>
<polygon fill="midnightblue" stroke="midnightblue" points="1241.72,-163.84 1232.61,-169.26 1243.11,-170.7 1241.72,-163.84"/>
</g>
<!-- Node20&#45;&gt;Node13 -->
<g id="edge38" class="edge">
<title>Node20&#45;&gt;Node13</title>
<path fill="none" stroke="midnightblue" d="M1153.48,-165.7C1116.49,-155.51 1062.9,-140.74 1029.41,-131.52"/>
<polygon fill="midnightblue" stroke="midnightblue" points="1152.87,-169.16 1163.44,-168.44 1154.73,-162.41 1152.87,-169.16"/>
</g>
<!-- Node20&#45;&gt;Node16 -->
<g id="edge39" class="edge">
<title>Node20&#45;&gt;Node16</title>
<path fill="none" stroke="midnightblue" d="M1208.23,-160.14C1215.9,-150.74 1225.13,-139.4 1231.37,-131.75"/>
<polygon fill="midnightblue" stroke="midnightblue" points="1205.37,-158.12 1201.77,-168.08 1210.8,-162.54 1205.37,-158.12"/>
</g>
<!-- Node20&#45;&gt;Node21 -->
<g id="edge40" class="edge">
<title>Node20&#45;&gt;Node21</title>
<path fill="none" stroke="midnightblue" d="M1232.4,-165.44C1265.78,-155.26 1313.6,-140.66 1343.59,-131.52"/>
<polygon fill="midnightblue" stroke="midnightblue" points="1231.09,-162.18 1222.55,-168.44 1233.13,-168.87 1231.09,-162.18"/>
</g>
<!-- Node20&#45;&gt;Node22 -->
<g id="edge41" class="edge">
<title>Node20&#45;&gt;Node22</title>
<path fill="none" stroke="midnightblue" d="M1242.98,-171.49C1304.7,-164.14 1414.51,-149.95 1507.5,-132 1510.23,-131.47 1513.05,-130.88 1515.88,-130.25"/>
<polygon fill="midnightblue" stroke="midnightblue" points="1242.28,-168.05 1232.76,-172.7 1243.1,-175 1242.28,-168.05"/>
</g>
<!-- Node23&#45;&gt;Node2 -->
<g id="edge52" class="edge">
<title>Node23&#45;&gt;Node2</title>
<path fill="none" stroke="midnightblue" d="M1072.75,-172.96C1144.66,-166.15 1291.24,-151.21 1414.5,-132 1417.23,-131.57 1420.05,-131.1 1422.89,-130.6"/>
<polygon fill="midnightblue" stroke="midnightblue" points="1072.33,-169.49 1062.7,-173.91 1072.98,-176.46 1072.33,-169.49"/>
</g>
<!-- Node23&#45;&gt;Node3 -->
<g id="edge53" class="edge">
<title>Node23&#45;&gt;Node3</title>
<path fill="none" stroke="midnightblue" d="M984.23,-172.36C889.72,-162.45 668.57,-139.26 566.65,-128.57"/>
<polygon fill="midnightblue" stroke="midnightblue" points="984,-175.85 994.31,-173.42 984.73,-168.89 984,-175.85"/>
</g>
<!-- Node23&#45;&gt;Node4 -->
<g id="edge59" class="edge">
<title>Node23&#45;&gt;Node4</title>
<path fill="none" stroke="midnightblue" d="M1049.6,-162.08C1066.83,-148.16 1086.13,-127.29 1071.5,-112 1039.97,-79.06 296.91,-80.18 251.5,-76 248.59,-75.73 245.62,-75.43 242.62,-75.09"/>
<polygon fill="midnightblue" stroke="midnightblue" points="1047.29,-159.45 1041.47,-168.31 1051.54,-165.01 1047.29,-159.45"/>
</g>
<!-- Node23&#45;&gt;Node5 -->
<g id="edge54" class="edge">
<title>Node23&#45;&gt;Node5</title>
<path fill="none" stroke="midnightblue" d="M1055.64,-163.3C1077.37,-150.49 1102.02,-130.61 1087.5,-112 1037.86,-48.36 779.12,-21.09 688.72,-13.41"/>
<polygon fill="midnightblue" stroke="midnightblue" points="1053.65,-160.4 1046.63,-168.33 1057.07,-166.51 1053.65,-160.4"/>
</g>
<!-- Node23&#45;&gt;Node8 -->
<g id="edge51" class="edge">
<title>Node23&#45;&gt;Node8</title>
<path fill="none" stroke="midnightblue" d="M984.24,-175.67C872.51,-171.98 570.05,-160.02 319.5,-132 316.76,-131.69 313.95,-131.35 311.12,-130.97"/>
<polygon fill="midnightblue" stroke="midnightblue" points="984.35,-179.17 994.45,-176 984.57,-172.18 984.35,-179.17"/>
</g>
<!-- Node23&#45;&gt;Node13 -->
<g id="edge55" class="edge">
<title>Node23&#45;&gt;Node13</title>
<path fill="none" stroke="midnightblue" d="M1018.65,-159.27C1013.53,-150.05 1007.48,-139.17 1003.36,-131.75"/>
<polygon fill="midnightblue" stroke="midnightblue" points="1015.63,-161.04 1023.55,-168.08 1021.75,-157.64 1015.63,-161.04"/>
</g>
<!-- Node23&#45;&gt;Node15 -->
<g id="edge56" class="edge">
<title>Node23&#45;&gt;Node15</title>
<path fill="none" stroke="midnightblue" d="M984.74,-165.96C944.33,-155.76 885.13,-140.82 848.25,-131.52"/>
<polygon fill="midnightblue" stroke="midnightblue" points="984.04,-169.39 994.59,-168.44 985.75,-162.6 984.04,-169.39"/>
</g>
<!-- Node23&#45;&gt;Node16 -->
<g id="edge57" class="edge">
<title>Node23&#45;&gt;Node16</title>
<path fill="none" stroke="midnightblue" d="M1071.69,-165.89C1111.35,-155.7 1169.27,-140.8 1205.38,-131.52"/>
<polygon fill="midnightblue" stroke="midnightblue" points="1070.59,-162.56 1061.78,-168.44 1072.33,-169.34 1070.59,-162.56"/>
</g>
<!-- Node23&#45;&gt;Node21 -->
<g id="edge58" class="edge">
<title>Node23&#45;&gt;Node21</title>
<path fill="none" stroke="midnightblue" d="M1072.99,-171.24C1131.86,-163.41 1238.77,-148.49 1329.5,-132 1332.14,-131.52 1334.87,-131 1337.61,-130.45"/>
<polygon fill="midnightblue" stroke="midnightblue" points="1072.38,-167.79 1062.92,-172.57 1073.3,-174.73 1072.38,-167.79"/>
</g>
<!-- Node23&#45;&gt;Node22 -->
<g id="edge60" class="edge">
<title>Node23&#45;&gt;Node22</title>
<path fill="none" stroke="midnightblue" d="M1072.62,-173.68C1174.61,-165.87 1424.38,-145.94 1507.5,-132 1510.24,-131.54 1513.07,-130.99 1515.9,-130.39"/>
<polygon fill="midnightblue" stroke="midnightblue" points="1072.35,-170.19 1062.64,-174.44 1072.88,-177.17 1072.35,-170.19"/>
</g>
<!-- Node24&#45;&gt;Node4 -->
<g id="edge65" class="edge">
<title>Node24&#45;&gt;Node4</title>
<path fill="none" stroke="midnightblue" d="M299.4,-166.18C263.28,-157.82 219.73,-145.43 206.5,-132 191.32,-116.59 188.14,-89.75 187.56,-75.88"/>
<polygon fill="midnightblue" stroke="midnightblue" points="298.83,-169.64 309.36,-168.43 300.37,-162.81 298.83,-169.64"/>
</g>
<!-- Node24&#45;&gt;Node8 -->
<g id="edge64" class="edge">
<title>Node24&#45;&gt;Node8</title>
<path fill="none" stroke="midnightblue" d="M329.26,-162.9C312.94,-153 291.63,-140.07 277.76,-131.65"/>
<polygon fill="midnightblue" stroke="midnightblue" points="327.84,-166.13 338.2,-168.32 331.47,-160.14 327.84,-166.13"/>
</g>
</g>
</svg>
