<?xml version="1.0" encoding="UTF-8" standalone="no"?>
<!DOCTYPE svg PUBLIC "-//W3C//DTD SVG 1.1//EN"
 "http://www.w3.org/Graphics/SVG/1.1/DTD/svg11.dtd">
<!-- Generated by graphviz version 2.43.0 (0)
 -->
<!-- Title: ft::irc::_internal::_to_lower Pages: 1 -->
<!--zoomable 483 -->
<svg id="main" version="1.1" xmlns="http://www.w3.org/2000/svg" xmlns:xlink="http://www.w3.org/1999/xlink" xml:space="preserve" onload="init(evt)">
<style type="text/css"><![CDATA[
.edge:hover path { stroke: red; }
.edge:hover polygon { stroke: red; fill: red; }
]]></style>
<script type="text/javascript"><![CDATA[
var edges = document.getElementsByTagName('g');
if (edges && edges.length) {
  for (var i=0;i<edges.length;i++) {
    if (edges[i].id.substr(0,4)=='edge') {
      edges[i].setAttribute('class','edge');
    }
  }
}
]]></script>
        <defs>
                <circle id="rim" cx="0" cy="0" r="7"/>
                <circle id="rim2" cx="0" cy="0" r="3.5"/>
                <g id="zoomPlus">
                        <use xlink:href="#rim" fill="#404040">
                                <set attributeName="fill" to="#808080" begin="zoomplus.mouseover" end="zoomplus.mouseout"/>
                        </use>
                        <path d="M-4,0h8M0,-4v8" fill="none" stroke="white" stroke-width="1.5" pointer-events="none"/>
                </g>
                <g id="zoomMin">
                        <use xlink:href="#rim" fill="#404040">
                                <set attributeName="fill" to="#808080" begin="zoomminus.mouseover" end="zoomminus.mouseout"/>
                        </use>
                        <path d="M-4,0h8" fill="none" stroke="white" stroke-width="1.5" pointer-events="none"/>
                </g>
                <g id="dirArrow">
                        <path fill="none" stroke="white" stroke-width="1.5" d="M0,-3.0v7 M-2.5,-0.5L0,-3.0L2.5,-0.5"/>
                </g>
               <g id="resetDef">
                       <use xlink:href="#rim2" fill="#404040">
                               <set attributeName="fill" to="#808080" begin="reset.mouseover" end="reset.mouseout"/>
                       </use>
               </g>
        </defs>

<script type="text/javascript">
var viewWidth = 934;
var viewHeight = 483;
var sectionId = 'dynsection-4';
</script>
<script xlink:href="svgpan.js"/>
<svg id="graph" class="graph">
<g id="viewport">
<title>ft::irc::_internal::_to_lower</title>
<polygon fill="white" stroke="transparent" points="-4,4 -4,-478.5 930,-478.5 930,4 -4,4"/>
<!-- Node1 -->
<g id="node1" class="node">
<title>Node1</title>
<g id="a_node1"><a xlink:title=" ">
<polygon fill="#bfbfbf" stroke="black" points="836,-373.5 836,-403.5 926,-403.5 926,-373.5 836,-373.5"/>
<text text-anchor="start" x="844" y="-391.5" font-family="Helvetica,sans-Serif" font-size="10.00">ft::irc::_internal</text>
<text text-anchor="middle" x="881" y="-380.5" font-family="Helvetica,sans-Serif" font-size="10.00">::_to_lower</text>
</a>
</g>
</g>
<!-- Node2 -->
<g id="node2" class="node">
<title>Node2</title>
<g id="a_node2"><a xlink:href="structft_1_1irc_1_1string__utils.html#a367a22012cc0d2d25959ac3f4e5d33a9" target="_top" xlink:title=" ">
<polygon fill="white" stroke="black" points="699,-373.5 699,-403.5 800,-403.5 800,-373.5 699,-373.5"/>
<text text-anchor="start" x="707" y="-391.5" font-family="Helvetica,sans-Serif" font-size="10.00">ft::irc::string_utils</text>
<text text-anchor="middle" x="749.5" y="-380.5" font-family="Helvetica,sans-Serif" font-size="10.00">::to_lower</text>
</a>
</g>
</g>
<!-- Node1&#45;&gt;Node2 -->
<g id="edge1" class="edge">
<title>Node1&#45;&gt;Node2</title>
<path fill="none" stroke="midnightblue" d="M825.68,-388.5C817.26,-388.5 808.6,-388.5 800.29,-388.5"/>
<polygon fill="midnightblue" stroke="midnightblue" points="825.8,-392 835.8,-388.5 825.8,-385 825.8,-392"/>
</g>
<!-- Node3 -->
<g id="node3" class="node">
<title>Node3</title>
<g id="a_node3"><a xlink:href="classft_1_1irc_1_1user.html#af02e786035bc1122895f36f9db8f2c9a" target="_top" xlink:title=" ">
<polygon fill="white" stroke="black" points="343,-439 343,-458 478,-458 478,-439 343,-439"/>
<text text-anchor="middle" x="410.5" y="-446" font-family="Helvetica,sans-Serif" font-size="10.00">ft::irc::user::change_nick</text>
</a>
</g>
</g>
<!-- Node2&#45;&gt;Node3 -->
<g id="edge2" class="edge">
<title>Node2&#45;&gt;Node3</title>
<path fill="none" stroke="midnightblue" d="M688.82,-402.22C680.18,-404.07 671.37,-405.89 663,-407.5 599.79,-419.67 527.19,-431.25 476.29,-438.98"/>
<polygon fill="midnightblue" stroke="midnightblue" points="689.84,-405.58 698.87,-400.03 688.35,-398.74 689.84,-405.58"/>
</g>
<!-- Node5 -->
<g id="node5" class="node">
<title>Node5</title>
<g id="a_node5"><a xlink:href="classft_1_1irc_1_1server.html#ab534369c5d538fbf60852889a7d8127b" target="_top" xlink:title=" ">
<polygon fill="white" stroke="black" points="523,-455 523,-474 654,-474 654,-455 523,-455"/>
<text text-anchor="middle" x="588.5" y="-462" font-family="Helvetica,sans-Serif" font-size="10.00">ft::irc::server::hold_nick</text>
</a>
</g>
</g>
<!-- Node2&#45;&gt;Node5 -->
<g id="edge4" class="edge">
<title>Node2&#45;&gt;Node5</title>
<path fill="none" stroke="midnightblue" d="M718.38,-409.18C702.41,-419.52 682.18,-431.68 663,-440.5 650.68,-446.16 636.64,-451.09 624.16,-454.99"/>
<polygon fill="midnightblue" stroke="midnightblue" points="720.35,-412.07 726.78,-403.65 716.5,-406.22 720.35,-412.07"/>
</g>
<!-- Node6 -->
<g id="node6" class="node">
<title>Node6</title>
<g id="a_node6"><a xlink:href="structft_1_1irc_1_1string__utils.html#abd73422cb93e7f7f26cfd59a221933a2" target="_top" xlink:title=" ">
<polygon fill="white" stroke="black" points="538,-208.5 538,-238.5 639,-238.5 639,-208.5 538,-208.5"/>
<text text-anchor="start" x="546" y="-226.5" font-family="Helvetica,sans-Serif" font-size="10.00">ft::irc::string_utils</text>
<text text-anchor="middle" x="588.5" y="-215.5" font-family="Helvetica,sans-Serif" font-size="10.00">::is_same</text>
</a>
</g>
</g>
<!-- Node2&#45;&gt;Node6 -->
<g id="edge6" class="edge">
<title>Node2&#45;&gt;Node6</title>
<path fill="none" stroke="midnightblue" d="M726.47,-365.64C693.49,-331.41 632.15,-267.76 604.14,-238.69"/>
<polygon fill="midnightblue" stroke="midnightblue" points="724.37,-368.5 733.83,-373.27 729.41,-363.64 724.37,-368.5"/>
</g>
<!-- Node18 -->
<g id="node18" class="node">
<title>Node18</title>
<g id="a_node18"><a xlink:href="structft_1_1irc_1_1string__utils.html#a4d870ac385b6f7fcdacaa1b071810876" target="_top" xlink:title=" ">
<polygon fill="white" stroke="black" points="514,-80.5 514,-110.5 663,-110.5 663,-80.5 514,-80.5"/>
<text text-anchor="start" x="522" y="-98.5" font-family="Helvetica,sans-Serif" font-size="10.00">ft::irc::string_utils</text>
<text text-anchor="middle" x="588.5" y="-87.5" font-family="Helvetica,sans-Serif" font-size="10.00">::match_mask_ignore_case</text>
</a>
</g>
</g>
<!-- Node2&#45;&gt;Node18 -->
<g id="edge23" class="edge">
<title>Node2&#45;&gt;Node18</title>
<path fill="none" stroke="midnightblue" d="M739.12,-363.9C724.71,-327.11 695.39,-256.06 663,-199.5 643.99,-166.31 617.11,-130.48 601.67,-110.74"/>
<polygon fill="midnightblue" stroke="midnightblue" points="735.9,-365.26 742.78,-373.32 742.42,-362.73 735.9,-365.26"/>
</g>
<!-- Node20 -->
<g id="node20" class="node">
<title>Node20</title>
<g id="a_node20"><a xlink:href="classft_1_1irc_1_1server.html#a2f4c8826af7867f18ed67c1b9dabf65f" target="_top" xlink:title=" ">
<polygon fill="white" stroke="black" points="515.5,-379 515.5,-398 661.5,-398 661.5,-379 515.5,-379"/>
<text text-anchor="middle" x="588.5" y="-386" font-family="Helvetica,sans-Serif" font-size="10.00">ft::irc::server::release_nick</text>
</a>
</g>
</g>
<!-- Node2&#45;&gt;Node20 -->
<g id="edge25" class="edge">
<title>Node2&#45;&gt;Node20</title>
<path fill="none" stroke="midnightblue" d="M688.5,-388.5C679.72,-388.5 670.61,-388.5 661.61,-388.5"/>
<polygon fill="midnightblue" stroke="midnightblue" points="688.63,-392 698.63,-388.5 688.63,-385 688.63,-392"/>
</g>
<!-- Node4 -->
<g id="node4" class="node">
<title>Node4</title>
<g id="a_node4"><a xlink:href="classft_1_1irc_1_1processor__nick.html#a7a2f0f709488328c04b6ccf0c41ce78e" target="_top" xlink:title=" ">
<polygon fill="white" stroke="black" points="176.5,-433.5 176.5,-463.5 271.5,-463.5 271.5,-433.5 176.5,-433.5"/>
<text text-anchor="start" x="184.5" y="-451.5" font-family="Helvetica,sans-Serif" font-size="10.00">ft::irc::processor</text>
<text text-anchor="middle" x="224" y="-440.5" font-family="Helvetica,sans-Serif" font-size="10.00">_nick::execute</text>
</a>
</g>
</g>
<!-- Node3&#45;&gt;Node4 -->
<g id="edge3" class="edge">
<title>Node3&#45;&gt;Node4</title>
<path fill="none" stroke="midnightblue" d="M332.79,-448.5C312.01,-448.5 290.14,-448.5 271.57,-448.5"/>
<polygon fill="midnightblue" stroke="midnightblue" points="332.89,-452 342.89,-448.5 332.89,-445 332.89,-452"/>
</g>
<!-- Node5&#45;&gt;Node3 -->
<g id="edge5" class="edge">
<title>Node5&#45;&gt;Node3</title>
<path fill="none" stroke="midnightblue" d="M512.91,-457.72C501.34,-456.67 489.47,-455.59 478.09,-454.55"/>
<polygon fill="midnightblue" stroke="midnightblue" points="512.69,-461.21 522.96,-458.63 513.32,-454.24 512.69,-461.21"/>
</g>
<!-- Node7 -->
<g id="node7" class="node">
<title>Node7</title>
<g id="a_node7"><a xlink:href="classft_1_1irc_1_1channel.html#a88a071511ae42d2faa2ff45d6d6f4abf" target="_top" xlink:title=" ">
<polygon fill="white" stroke="black" points="355.5,-302 355.5,-321 465.5,-321 465.5,-302 355.5,-302"/>
<text text-anchor="middle" x="410.5" y="-309" font-family="Helvetica,sans-Serif" font-size="10.00">ft::irc::channel::ban</text>
</a>
</g>
</g>
<!-- Node6&#45;&gt;Node7 -->
<g id="edge7" class="edge">
<title>Node6&#45;&gt;Node7</title>
<path fill="none" stroke="midnightblue" d="M559.2,-244.5C537.8,-259.57 507.21,-279.45 478,-292.5 469.78,-296.17 460.67,-299.33 451.89,-301.95"/>
<polygon fill="midnightblue" stroke="midnightblue" points="561.39,-247.23 567.49,-238.57 557.32,-241.54 561.39,-247.23"/>
</g>
<!-- Node10 -->
<g id="node10" class="node">
<title>Node10</title>
<g id="a_node10"><a xlink:href="classft_1_1irc_1_1bot.html#aef50e26ad9e418841745fec737a929e1" target="_top" xlink:title=" ">
<polygon fill="white" stroke="black" points="367,-164.5 367,-194.5 454,-194.5 454,-164.5 367,-164.5"/>
<text text-anchor="start" x="375" y="-182.5" font-family="Helvetica,sans-Serif" font-size="10.00">ft::irc::bot::find</text>
<text text-anchor="middle" x="410.5" y="-171.5" font-family="Helvetica,sans-Serif" font-size="10.00">_channels</text>
</a>
</g>
</g>
<!-- Node6&#45;&gt;Node10 -->
<g id="edge10" class="edge">
<title>Node6&#45;&gt;Node10</title>
<path fill="none" stroke="midnightblue" d="M527.75,-208.56C503.58,-202.52 476.23,-195.68 454.13,-190.16"/>
<polygon fill="midnightblue" stroke="midnightblue" points="526.99,-211.98 537.54,-211.01 528.68,-205.19 526.99,-211.98"/>
</g>
<!-- Node11 -->
<g id="node11" class="node">
<title>Node11</title>
<g id="a_node11"><a xlink:href="classft_1_1irc_1_1bot.html#a0b595213781ed0e5aaf1d48fdb602d98" target="_top" xlink:title=" ">
<polygon fill="white" stroke="black" points="164.5,-107 164.5,-126 283.5,-126 283.5,-107 164.5,-107"/>
<text text-anchor="middle" x="224" y="-114" font-family="Helvetica,sans-Serif" font-size="10.00">ft::irc::bot::on_packet</text>
</a>
</g>
</g>
<!-- Node6&#45;&gt;Node11 -->
<g id="edge17" class="edge">
<title>Node6&#45;&gt;Node11</title>
<path fill="none" stroke="midnightblue" d="M560.38,-202.31C539.15,-186.84 508.25,-166.69 478,-155.5 414.12,-131.87 336.06,-122.55 283.68,-118.88"/>
<polygon fill="midnightblue" stroke="midnightblue" points="558.46,-205.24 568.57,-208.4 562.64,-199.62 558.46,-205.24"/>
</g>
<!-- Node13 -->
<g id="node13" class="node">
<title>Node13</title>
<g id="a_node13"><a xlink:href="classft_1_1irc_1_1bot.html#a8cdd94dface1cee6c920a6fba82c1624" target="_top" xlink:title=" ">
<polygon fill="white" stroke="black" points="353.5,-88 353.5,-107 467.5,-107 467.5,-88 353.5,-88"/>
<text text-anchor="middle" x="410.5" y="-95" font-family="Helvetica,sans-Serif" font-size="10.00">ft::irc::bot::is_inviter</text>
</a>
</g>
</g>
<!-- Node6&#45;&gt;Node13 -->
<g id="edge13" class="edge">
<title>Node6&#45;&gt;Node13</title>
<path fill="none" stroke="midnightblue" d="M568.21,-200.8C547.81,-178.03 513.7,-143.3 478,-121.5 468.26,-115.55 456.82,-110.76 446.2,-107.06"/>
<polygon fill="midnightblue" stroke="midnightblue" points="565.59,-203.12 574.83,-208.31 570.84,-198.5 565.59,-203.12"/>
</g>
<!-- Node14 -->
<g id="node14" class="node">
<title>Node14</title>
<g id="a_node14"><a xlink:href="classft_1_1irc_1_1channel.html#ad30281781ad94941df6db1284869a73b" target="_top" xlink:title=" ">
<polygon fill="white" stroke="black" points="348,-252.5 348,-282.5 473,-282.5 473,-252.5 348,-252.5"/>
<text text-anchor="start" x="356" y="-270.5" font-family="Helvetica,sans-Serif" font-size="10.00">ft::irc::channel::modify</text>
<text text-anchor="middle" x="410.5" y="-259.5" font-family="Helvetica,sans-Serif" font-size="10.00">_member_mode</text>
</a>
</g>
</g>
<!-- Node6&#45;&gt;Node14 -->
<g id="edge15" class="edge">
<title>Node6&#45;&gt;Node14</title>
<path fill="none" stroke="midnightblue" d="M527.69,-238.45C509.58,-242.98 489.7,-247.95 471.58,-252.48"/>
<polygon fill="midnightblue" stroke="midnightblue" points="528.68,-241.81 537.54,-235.99 526.99,-235.02 528.68,-241.81"/>
</g>
<!-- Node15 -->
<g id="node15" class="node">
<title>Node15</title>
<g id="a_node15"><a xlink:href="structft_1_1irc_1_1user_1_1pred__equals__nick.html#aa4bfdd8756482385798ed7fd8197f1e1" target="_top" xlink:title=" ">
<polygon fill="white" stroke="black" points="343.5,-340.5 343.5,-370.5 477.5,-370.5 477.5,-340.5 343.5,-340.5"/>
<text text-anchor="start" x="351.5" y="-358.5" font-family="Helvetica,sans-Serif" font-size="10.00">ft::irc::user::pred</text>
<text text-anchor="middle" x="410.5" y="-347.5" font-family="Helvetica,sans-Serif" font-size="10.00">_equals_nick::operator()</text>
</a>
</g>
</g>
<!-- Node6&#45;&gt;Node15 -->
<g id="edge18" class="edge">
<title>Node6&#45;&gt;Node15</title>
<path fill="none" stroke="midnightblue" d="M569.05,-246.48C548.87,-270.31 514.51,-307.27 478,-330.5 472.17,-334.21 465.71,-337.49 459.18,-340.36"/>
<polygon fill="midnightblue" stroke="midnightblue" points="571.86,-248.57 575.57,-238.64 566.48,-244.09 571.86,-248.57"/>
</g>
<!-- Node16 -->
<g id="node16" class="node">
<title>Node16</title>
<g id="a_node16"><a xlink:href="classft_1_1irc_1_1channel.html#aa7b5a547c4ff51772b8a1a6c81f61a8c" target="_top" xlink:title=" ">
<polygon fill="white" stroke="black" points="349.5,-214 349.5,-233 471.5,-233 471.5,-214 349.5,-214"/>
<text text-anchor="middle" x="410.5" y="-221" font-family="Helvetica,sans-Serif" font-size="10.00">ft::irc::channel::unban</text>
</a>
</g>
</g>
<!-- Node6&#45;&gt;Node16 -->
<g id="edge19" class="edge">
<title>Node6&#45;&gt;Node16</title>
<path fill="none" stroke="midnightblue" d="M527.43,-223.5C509.4,-223.5 489.62,-223.5 471.58,-223.5"/>
<polygon fill="midnightblue" stroke="midnightblue" points="527.54,-227 537.54,-223.5 527.54,-220 527.54,-227"/>
</g>
<!-- Node17 -->
<g id="node17" class="node">
<title>Node17</title>
<g id="a_node17"><a xlink:href="classft_1_1irc_1_1bot.html#a6bea4a41bf2e963f84660531719b1515" target="_top" xlink:title=" ">
<polygon fill="white" stroke="black" points="346.5,-50 346.5,-69 474.5,-69 474.5,-50 346.5,-50"/>
<text text-anchor="middle" x="410.5" y="-57" font-family="Helvetica,sans-Serif" font-size="10.00">ft::irc::bot::update_nick</text>
</a>
</g>
</g>
<!-- Node6&#45;&gt;Node17 -->
<g id="edge21" class="edge">
<title>Node6&#45;&gt;Node17</title>
<path fill="none" stroke="midnightblue" d="M570.78,-199.69C543.25,-160.74 490.19,-86.86 478,-78.5 472.36,-74.63 465.93,-71.54 459.35,-69.08"/>
<polygon fill="midnightblue" stroke="midnightblue" points="568.25,-202.18 576.88,-208.33 573.97,-198.14 568.25,-202.18"/>
</g>
<!-- Node8 -->
<g id="node8" class="node">
<title>Node8</title>
<g id="a_node8"><a xlink:href="classft_1_1irc_1_1processor__mode.html#a78f0436f90fe62dc8e35152d98eff680" target="_top" xlink:title=" ">
<polygon fill="white" stroke="black" points="141,-252.5 141,-282.5 307,-282.5 307,-252.5 141,-252.5"/>
<text text-anchor="start" x="149" y="-270.5" font-family="Helvetica,sans-Serif" font-size="10.00">ft::irc::processor</text>
<text text-anchor="middle" x="224" y="-259.5" font-family="Helvetica,sans-Serif" font-size="10.00">_mode::update_channel_mode</text>
</a>
</g>
</g>
<!-- Node7&#45;&gt;Node8 -->
<g id="edge8" class="edge">
<title>Node7&#45;&gt;Node8</title>
<path fill="none" stroke="midnightblue" d="M359.67,-299.62C337.66,-294.37 311.53,-288.14 288.17,-282.57"/>
<polygon fill="midnightblue" stroke="midnightblue" points="358.93,-303.04 369.47,-301.95 360.55,-296.23 358.93,-303.04"/>
</g>
<!-- Node9 -->
<g id="node9" class="node">
<title>Node9</title>
<g id="a_node9"><a xlink:href="classft_1_1irc_1_1processor__mode.html#ad013987a789be47379c13f61364135a6" target="_top" xlink:title=" ">
<polygon fill="white" stroke="black" points="5,-252.5 5,-282.5 100,-282.5 100,-252.5 5,-252.5"/>
<text text-anchor="start" x="13" y="-270.5" font-family="Helvetica,sans-Serif" font-size="10.00">ft::irc::processor</text>
<text text-anchor="middle" x="52.5" y="-259.5" font-family="Helvetica,sans-Serif" font-size="10.00">_mode::execute</text>
</a>
</g>
</g>
<!-- Node8&#45;&gt;Node9 -->
<g id="edge9" class="edge">
<title>Node8&#45;&gt;Node9</title>
<path fill="none" stroke="midnightblue" d="M130.69,-267.5C120.24,-267.5 109.94,-267.5 100.44,-267.5"/>
<polygon fill="midnightblue" stroke="midnightblue" points="130.73,-271 140.73,-267.5 130.73,-264 130.73,-271"/>
</g>
<!-- Node10&#45;&gt;Node11 -->
<g id="edge11" class="edge">
<title>Node10&#45;&gt;Node11</title>
<path fill="none" stroke="midnightblue" d="M356.96,-161.56C323.11,-150 280.45,-135.43 252.95,-126.04"/>
<polygon fill="midnightblue" stroke="midnightblue" points="356.11,-164.97 366.71,-164.89 358.38,-158.34 356.11,-164.97"/>
</g>
<!-- Node12 -->
<g id="node12" class="node">
<title>Node12</title>
<g id="a_node12"><a xlink:href="classft_1_1irc_1_1bot__handler.html#a0723185e483ae21fa0f2116ca05165fe" target="_top" xlink:title=" ">
<polygon fill="white" stroke="black" points="0,-101.5 0,-131.5 105,-131.5 105,-101.5 0,-101.5"/>
<text text-anchor="start" x="8" y="-119.5" font-family="Helvetica,sans-Serif" font-size="10.00">ft::irc::bot_handler</text>
<text text-anchor="middle" x="52.5" y="-108.5" font-family="Helvetica,sans-Serif" font-size="10.00">::on_read</text>
</a>
</g>
</g>
<!-- Node11&#45;&gt;Node12 -->
<g id="edge12" class="edge">
<title>Node11&#45;&gt;Node12</title>
<path fill="none" stroke="midnightblue" d="M154.13,-116.5C137.77,-116.5 120.58,-116.5 105.14,-116.5"/>
<polygon fill="midnightblue" stroke="midnightblue" points="154.19,-120 164.19,-116.5 154.19,-113 154.19,-120"/>
</g>
<!-- Node13&#45;&gt;Node11 -->
<g id="edge14" class="edge">
<title>Node13&#45;&gt;Node11</title>
<path fill="none" stroke="midnightblue" d="M343.38,-104.31C323.89,-106.32 302.71,-108.5 283.72,-110.45"/>
<polygon fill="midnightblue" stroke="midnightblue" points="343.8,-107.78 353.39,-103.28 343.09,-100.82 343.8,-107.78"/>
</g>
<!-- Node14&#45;&gt;Node8 -->
<g id="edge16" class="edge">
<title>Node14&#45;&gt;Node8</title>
<path fill="none" stroke="midnightblue" d="M337.6,-267.5C327.67,-267.5 317.41,-267.5 307.31,-267.5"/>
<polygon fill="midnightblue" stroke="midnightblue" points="337.81,-271 347.81,-267.5 337.81,-264 337.81,-271"/>
</g>
<!-- Node16&#45;&gt;Node8 -->
<g id="edge20" class="edge">
<title>Node16&#45;&gt;Node8</title>
<path fill="none" stroke="midnightblue" d="M359.67,-235.38C337.66,-240.63 311.53,-246.86 288.17,-252.43"/>
<polygon fill="midnightblue" stroke="midnightblue" points="360.55,-238.77 369.47,-233.05 358.93,-231.96 360.55,-238.77"/>
</g>
<!-- Node17&#45;&gt;Node11 -->
<g id="edge22" class="edge">
<title>Node17&#45;&gt;Node11</title>
<path fill="none" stroke="midnightblue" d="M365.54,-71.84C358.01,-74.01 350.27,-76.29 343,-78.5 312.52,-87.76 277.85,-99.01 254.01,-106.86"/>
<polygon fill="midnightblue" stroke="midnightblue" points="366.62,-75.17 375.26,-69.05 364.69,-68.44 366.62,-75.17"/>
</g>
<!-- Node19 -->
<g id="node19" class="node">
<title>Node19</title>
<g id="a_node19"><a xlink:href="classft_1_1irc_1_1channel.html#a167149fa7b382fa3986d794b298706ce" target="_top" xlink:title=" ">
<polygon fill="white" stroke="black" points="360.5,-0.5 360.5,-30.5 460.5,-30.5 460.5,-0.5 360.5,-0.5"/>
<text text-anchor="start" x="368.5" y="-18.5" font-family="Helvetica,sans-Serif" font-size="10.00">ft::irc::channel::is</text>
<text text-anchor="middle" x="410.5" y="-7.5" font-family="Helvetica,sans-Serif" font-size="10.00">_banned</text>
</a>
</g>
</g>
<!-- Node18&#45;&gt;Node19 -->
<g id="edge24" class="edge">
<title>Node18&#45;&gt;Node19</title>
<path fill="none" stroke="midnightblue" d="M550.62,-75.75C529.6,-64.8 502.62,-51.27 478,-40.5 470.2,-37.09 461.78,-33.7 453.63,-30.57"/>
<polygon fill="midnightblue" stroke="midnightblue" points="549.05,-78.88 559.53,-80.42 552.3,-72.68 549.05,-78.88"/>
</g>
<!-- Node20&#45;&gt;Node3 -->
<g id="edge26" class="edge">
<title>Node20&#45;&gt;Node3</title>
<path fill="none" stroke="midnightblue" d="M545.62,-401.17C535.2,-404.6 524.11,-408.48 514,-412.5 497.56,-419.04 494.56,-423.27 478,-429.5 468.78,-432.97 458.65,-436.16 449.13,-438.9"/>
<polygon fill="midnightblue" stroke="midnightblue" points="546.91,-404.43 555.35,-398.03 544.76,-397.77 546.91,-404.43"/>
</g>
<!-- Node21 -->
<g id="node21" class="node">
<title>Node21</title>
<g id="a_node21"><a xlink:href="classft_1_1irc_1_1user.html#af2aa8fcafc015de38938ccccfed4b1c9" target="_top" xlink:title=" ">
<polygon fill="white" stroke="black" points="348.5,-389.5 348.5,-419.5 472.5,-419.5 472.5,-389.5 348.5,-389.5"/>
<text text-anchor="start" x="356.5" y="-407.5" font-family="Helvetica,sans-Serif" font-size="10.00">ft::irc::user::deregister</text>
<text text-anchor="middle" x="410.5" y="-396.5" font-family="Helvetica,sans-Serif" font-size="10.00">_from_server</text>
</a>
</g>
</g>
<!-- Node20&#45;&gt;Node21 -->
<g id="edge27" class="edge">
<title>Node20&#45;&gt;Node21</title>
<path fill="none" stroke="midnightblue" d="M505.32,-395.97C494.28,-396.97 483.11,-397.99 472.52,-398.95"/>
<polygon fill="midnightblue" stroke="midnightblue" points="505.76,-399.45 515.41,-395.05 505.13,-392.47 505.76,-399.45"/>
</g>
</g>
</svg>
        <g id="navigator" transform="translate(0 0)" fill="#404254">
                <rect fill="#f2f5e9" fill-opacity="0.5" stroke="#606060" stroke-width=".5" x="0" y="0" width="60" height="60"/>
                <use id="zoomplus" xlink:href="#zoomPlus" x="17" y="9" onmousedown="handleZoom(evt,'in')"/>
                <use id="zoomminus" xlink:href="#zoomMin" x="42" y="9" onmousedown="handleZoom(evt,'out')"/>
                <use id="reset" xlink:href="#resetDef" x="30" y="36" onmousedown="handleReset()"/>
                <g id="arrowUp" xlink:href="#dirArrow" transform="translate(30 24)" onmousedown="handlePan(0,-1)">
                  <use xlink:href="#rim" fill="#404040">
                        <set attributeName="fill" to="#808080" begin="arrowUp.mouseover" end="arrowUp.mouseout"/>
                  </use>
                  <path fill="none" stroke="white" stroke-width="1.5" d="M0,-3.0v7 M-2.5,-0.5L0,-3.0L2.5,-0.5"/>
                </g>
                <g id="arrowRight" xlink:href="#dirArrow" transform="rotate(90) translate(36 -43)" onmousedown="handlePan(1,0)">
                  <use xlink:href="#rim" fill="#404040">
                        <set attributeName="fill" to="#808080" begin="arrowRight.mouseover" end="arrowRight.mouseout"/>
                  </use>
                  <path fill="none" stroke="white" stroke-width="1.5" d="M0,-3.0v7 M-2.5,-0.5L0,-3.0L2.5,-0.5"/>
                </g>
                <g id="arrowDown" xlink:href="#dirArrow" transform="rotate(180) translate(-30 -48)" onmousedown="handlePan(0,1)">
                  <use xlink:href="#rim" fill="#404040">
                        <set attributeName="fill" to="#808080" begin="arrowDown.mouseover" end="arrowDown.mouseout"/>
                  </use>
                  <path fill="none" stroke="white" stroke-width="1.5" d="M0,-3.0v7 M-2.5,-0.5L0,-3.0L2.5,-0.5"/>
                </g>
                <g id="arrowLeft" xlink:href="#dirArrow" transform="rotate(270) translate(-36 17)" onmousedown="handlePan(-1,0)">
                  <use xlink:href="#rim" fill="#404040">
                        <set attributeName="fill" to="#808080" begin="arrowLeft.mouseover" end="arrowLeft.mouseout"/>
                  </use>
                  <path fill="none" stroke="white" stroke-width="1.5" d="M0,-3.0v7 M-2.5,-0.5L0,-3.0L2.5,-0.5"/>
                </g>
        </g>
        <svg viewBox="0 0 15 15" width="100%" height="30px" preserveAspectRatio="xMaxYMin meet">
         <g id="arrow_out" transform="scale(0.3 0.3)">
          <a xlink:href="namespaceft_1_1irc_1_1__internal_aa76c3a369f64725f8b2b52b2131c1111_icgraph_org.svg" target="_base">
           <rect id="button" ry="5" rx="5" y="6" x="6" height="38" width="38"
                fill="#f2f5e9" fill-opacity="0.5" stroke="#606060" stroke-width="1.0"/>
           <path id="arrow"
             d="M 11.500037,31.436501 C 11.940474,20.09759 22.043105,11.32322 32.158766,21.979434 L 37.068811,17.246167 C 37.068811,17.246167 37.088388,32 37.088388,32 L 22.160133,31.978069 C 22.160133,31.978069 26.997745,27.140456 26.997745,27.140456 C 18.528582,18.264221 13.291696,25.230495 11.500037,31.436501 z"
             style="fill:#404040;"/>
          </a>
         </g>
        </svg>
</svg>
