<?xml version="1.0" encoding="UTF-8" standalone="no"?>
<!DOCTYPE svg PUBLIC "-//W3C//DTD SVG 1.1//EN"
 "http://www.w3.org/Graphics/SVG/1.1/DTD/svg11.dtd">
<!-- Generated by graphviz version 2.43.0 (0)
 -->
<!-- Title: ft::serv::_internal::make_utc_string Pages: 1 -->
<svg width="838pt" height="891pt"
 viewBox="0.00 0.00 838.00 891.00" xmlns="http://www.w3.org/2000/svg" xmlns:xlink="http://www.w3.org/1999/xlink">
<g id="graph0" class="graph" transform="scale(1 1) rotate(0) translate(4 887)">
<title>ft::serv::_internal::make_utc_string</title>
<polygon fill="white" stroke="transparent" points="-4,4 -4,-887 834,-887 834,4 -4,4"/>
<!-- Node1 -->
<g id="node1" class="node">
<title>Node1</title>
<g id="a_node1"><a xlink:title=" ">
<polygon fill="#bfbfbf" stroke="black" points="727,-235.5 727,-265.5 830,-265.5 830,-235.5 727,-235.5"/>
<text text-anchor="start" x="735" y="-253.5" font-family="Helvetica,sans-Serif" font-size="10.00">ft::serv::_internal</text>
<text text-anchor="middle" x="778.5" y="-242.5" font-family="Helvetica,sans-Serif" font-size="10.00">::make_utc_string</text>
</a>
</g>
</g>
<!-- Node2 -->
<g id="node2" class="node">
<title>Node2</title>
<g id="a_node2"><a xlink:href="namespaceft_1_1serv_1_1__internal.html#a4dfb80be7b817fc0ee18658f313a6274" target="_top" xlink:title=" ">
<polygon fill="white" stroke="black" points="593,-235.5 593,-265.5 691,-265.5 691,-235.5 593,-235.5"/>
<text text-anchor="start" x="601" y="-253.5" font-family="Helvetica,sans-Serif" font-size="10.00">ft::serv::_internal</text>
<text text-anchor="middle" x="642" y="-242.5" font-family="Helvetica,sans-Serif" font-size="10.00">::print</text>
</a>
</g>
</g>
<!-- Node1&#45;&gt;Node2 -->
<g id="edge1" class="edge">
<title>Node1&#45;&gt;Node2</title>
<path fill="none" stroke="midnightblue" d="M716.45,-250.5C708,-250.5 699.43,-250.5 691.25,-250.5"/>
<polygon fill="midnightblue" stroke="midnightblue" points="716.65,-254 726.65,-250.5 716.65,-247 716.65,-254"/>
</g>
<!-- Node3 -->
<g id="node3" class="node">
<title>Node3</title>
<g id="a_node3"><a xlink:href="structft_1_1serv_1_1logger.html#a83649a4f3bb804c8fed6dfd130de5ee6" target="_top" xlink:title=" ">
<polygon fill="white" stroke="black" points="435,-613 435,-632 557,-632 557,-613 435,-613"/>
<text text-anchor="middle" x="496" y="-620" font-family="Helvetica,sans-Serif" font-size="10.00">ft::serv::logger::debug</text>
</a>
</g>
</g>
<!-- Node2&#45;&gt;Node3 -->
<g id="edge2" class="edge">
<title>Node2&#45;&gt;Node3</title>
<path fill="none" stroke="midnightblue" d="M631.55,-274.91C603.16,-348.24 519.44,-564.52 500.74,-612.85"/>
<polygon fill="midnightblue" stroke="midnightblue" points="634.83,-276.13 635.18,-265.54 628.3,-273.61 634.83,-276.13"/>
</g>
<!-- Node14 -->
<g id="node14" class="node">
<title>Node14</title>
<g id="a_node14"><a xlink:href="structft_1_1serv_1_1logger.html#a27e4ab1c4bf29bd34bb166a3ecd76449" target="_top" xlink:title=" ">
<polygon fill="white" stroke="black" points="438,-175 438,-194 554,-194 554,-175 438,-175"/>
<text text-anchor="middle" x="496" y="-182" font-family="Helvetica,sans-Serif" font-size="10.00">ft::serv::logger::error</text>
</a>
</g>
</g>
<!-- Node2&#45;&gt;Node14 -->
<g id="edge13" class="edge">
<title>Node2&#45;&gt;Node14</title>
<path fill="none" stroke="midnightblue" d="M598.85,-231.18C572.22,-218.98 538.97,-203.74 517.85,-194.06"/>
<polygon fill="midnightblue" stroke="midnightblue" points="597.41,-234.37 607.96,-235.36 600.33,-228.01 597.41,-234.37"/>
</g>
<!-- Node18 -->
<g id="node18" class="node">
<title>Node18</title>
<g id="a_node18"><a xlink:href="structft_1_1serv_1_1logger.html#aed47352d1c3f60ac9f99929dcc7498d5" target="_top" xlink:title=" ">
<polygon fill="white" stroke="black" points="440.5,-329 440.5,-348 551.5,-348 551.5,-329 440.5,-329"/>
<text text-anchor="middle" x="496" y="-336" font-family="Helvetica,sans-Serif" font-size="10.00">ft::serv::logger::info</text>
</a>
</g>
</g>
<!-- Node2&#45;&gt;Node18 -->
<g id="edge17" class="edge">
<title>Node2&#45;&gt;Node18</title>
<path fill="none" stroke="midnightblue" d="M607.41,-271.03C577.51,-289.3 535.13,-315.2 512.56,-328.99"/>
<polygon fill="midnightblue" stroke="midnightblue" points="609.54,-273.83 616.25,-265.63 605.89,-267.86 609.54,-273.83"/>
</g>
<!-- Node21 -->
<g id="node21" class="node">
<title>Node21</title>
<g id="a_node21"><a xlink:href="structft_1_1serv_1_1logger.html#af77e51bd1d1172d9ebff34eb9fe1db6a" target="_top" xlink:title=" ">
<polygon fill="white" stroke="black" points="437.5,-55 437.5,-74 554.5,-74 554.5,-55 437.5,-55"/>
<text text-anchor="middle" x="496" y="-62" font-family="Helvetica,sans-Serif" font-size="10.00">ft::serv::logger::trace</text>
</a>
</g>
</g>
<!-- Node2&#45;&gt;Node21 -->
<g id="edge20" class="edge">
<title>Node2&#45;&gt;Node21</title>
<path fill="none" stroke="midnightblue" d="M622.96,-227.2C591.18,-186.15 526.51,-102.62 504.52,-74.21"/>
<polygon fill="midnightblue" stroke="midnightblue" points="620.33,-229.51 629.22,-235.28 625.86,-225.23 620.33,-229.51"/>
</g>
<!-- Node24 -->
<g id="node24" class="node">
<title>Node24</title>
<g id="a_node24"><a xlink:href="structft_1_1serv_1_1logger.html#aeb3f8c326c1e3b607121cf351df5fb55" target="_top" xlink:title=" ">
<polygon fill="white" stroke="black" points="438,-241 438,-260 554,-260 554,-241 438,-241"/>
<text text-anchor="middle" x="496" y="-248" font-family="Helvetica,sans-Serif" font-size="10.00">ft::serv::logger::warn</text>
</a>
</g>
</g>
<!-- Node2&#45;&gt;Node24 -->
<g id="edge23" class="edge">
<title>Node2&#45;&gt;Node24</title>
<path fill="none" stroke="midnightblue" d="M582.63,-250.5C573.25,-250.5 563.55,-250.5 554.2,-250.5"/>
<polygon fill="midnightblue" stroke="midnightblue" points="582.65,-254 592.65,-250.5 582.65,-247 582.65,-254"/>
</g>
<!-- Node4 -->
<g id="node4" class="node">
<title>Node4</title>
<g id="a_node4"><a xlink:href="classft_1_1irc_1_1bot__handler.html#a4f6f0c2ea6bf628048019d6793978658" target="_top" xlink:title=" ">
<polygon fill="white" stroke="black" points="276,-460.5 276,-490.5 381,-490.5 381,-460.5 276,-460.5"/>
<text text-anchor="start" x="284" y="-478.5" font-family="Helvetica,sans-Serif" font-size="10.00">ft::irc::bot_handler</text>
<text text-anchor="middle" x="328.5" y="-467.5" font-family="Helvetica,sans-Serif" font-size="10.00">::on_active</text>
</a>
</g>
</g>
<!-- Node3&#45;&gt;Node4 -->
<g id="edge3" class="edge">
<title>Node3&#45;&gt;Node4</title>
<path fill="none" stroke="midnightblue" d="M484.82,-603.74C469.52,-577.18 438.16,-528.73 399,-500.5 393.59,-496.6 387.51,-493.25 381.26,-490.4"/>
<polygon fill="midnightblue" stroke="midnightblue" points="481.94,-605.75 489.88,-612.76 488.04,-602.32 481.94,-605.75"/>
</g>
<!-- Node5 -->
<g id="node5" class="node">
<title>Node5</title>
<g id="a_node5"><a xlink:href="classft_1_1irc_1_1client__handler.html#ae807a3999b5bc11f686ecbd8c9c78972" target="_top" xlink:title=" ">
<polygon fill="white" stroke="black" points="270.5,-411.5 270.5,-441.5 386.5,-441.5 386.5,-411.5 270.5,-411.5"/>
<text text-anchor="start" x="278.5" y="-429.5" font-family="Helvetica,sans-Serif" font-size="10.00">ft::irc::client_handler</text>
<text text-anchor="middle" x="328.5" y="-418.5" font-family="Helvetica,sans-Serif" font-size="10.00">::on_active</text>
</a>
</g>
</g>
<!-- Node3&#45;&gt;Node5 -->
<g id="edge4" class="edge">
<title>Node3&#45;&gt;Node5</title>
<path fill="none" stroke="midnightblue" d="M489.22,-603.27C477.71,-568.19 448.7,-493.55 399,-451.5 394.5,-447.69 389.37,-444.44 383.98,-441.68"/>
<polygon fill="midnightblue" stroke="midnightblue" points="485.88,-604.33 492.23,-612.81 492.55,-602.22 485.88,-604.33"/>
</g>
<!-- Node6 -->
<g id="node6" class="node">
<title>Node6</title>
<g id="a_node6"><a xlink:href="classft_1_1irc_1_1bot__handler.html#a8601fbf1c9aa32d1e28e421f86969f08" target="_top" xlink:title=" ">
<polygon fill="white" stroke="black" points="276,-852.5 276,-882.5 381,-882.5 381,-852.5 276,-852.5"/>
<text text-anchor="start" x="284" y="-870.5" font-family="Helvetica,sans-Serif" font-size="10.00">ft::irc::bot_handler</text>
<text text-anchor="middle" x="328.5" y="-859.5" font-family="Helvetica,sans-Serif" font-size="10.00">::on_error</text>
</a>
</g>
</g>
<!-- Node3&#45;&gt;Node6 -->
<g id="edge5" class="edge">
<title>Node3&#45;&gt;Node6</title>
<path fill="none" stroke="midnightblue" d="M491.95,-641.95C484.26,-684.57 460.15,-786.9 399,-843.5 393.85,-848.27 387.7,-852.1 381.23,-855.17"/>
<polygon fill="midnightblue" stroke="midnightblue" points="495.41,-642.48 493.63,-632.03 488.51,-641.31 495.41,-642.48"/>
</g>
<!-- Node7 -->
<g id="node7" class="node">
<title>Node7</title>
<g id="a_node7"><a xlink:href="classft_1_1irc_1_1client__handler.html#a3b07923a033637234fc01fa98e15e5ac" target="_top" xlink:title=" ">
<polygon fill="white" stroke="black" points="270.5,-803.5 270.5,-833.5 386.5,-833.5 386.5,-803.5 270.5,-803.5"/>
<text text-anchor="start" x="278.5" y="-821.5" font-family="Helvetica,sans-Serif" font-size="10.00">ft::irc::client_handler</text>
<text text-anchor="middle" x="328.5" y="-810.5" font-family="Helvetica,sans-Serif" font-size="10.00">::on_error</text>
</a>
</g>
</g>
<!-- Node3&#45;&gt;Node7 -->
<g id="edge6" class="edge">
<title>Node3&#45;&gt;Node7</title>
<path fill="none" stroke="midnightblue" d="M489.3,-641.9C477.94,-677.29 449.14,-752.52 399,-794.5 394.89,-797.94 390.26,-800.9 385.38,-803.44"/>
<polygon fill="midnightblue" stroke="midnightblue" points="492.67,-642.87 492.27,-632.28 485.98,-640.8 492.67,-642.87"/>
</g>
<!-- Node8 -->
<g id="node8" class="node">
<title>Node8</title>
<g id="a_node8"><a xlink:href="classft_1_1irc_1_1bot__handler.html#aecb8db90a61c13e042161885226a2cae" target="_top" xlink:title=" ">
<polygon fill="white" stroke="black" points="276,-754.5 276,-784.5 381,-784.5 381,-754.5 276,-754.5"/>
<text text-anchor="start" x="284" y="-772.5" font-family="Helvetica,sans-Serif" font-size="10.00">ft::irc::bot_handler</text>
<text text-anchor="middle" x="328.5" y="-761.5" font-family="Helvetica,sans-Serif" font-size="10.00">::on_inactive</text>
</a>
</g>
</g>
<!-- Node3&#45;&gt;Node8 -->
<g id="edge7" class="edge">
<title>Node3&#45;&gt;Node8</title>
<path fill="none" stroke="midnightblue" d="M485.13,-641.09C470.02,-667.86 438.68,-717.16 399,-745.5 393.6,-749.36 387.52,-752.64 381.27,-755.42"/>
<polygon fill="midnightblue" stroke="midnightblue" points="488.37,-642.47 490.11,-632.02 482.23,-639.1 488.37,-642.47"/>
</g>
<!-- Node9 -->
<g id="node9" class="node">
<title>Node9</title>
<g id="a_node9"><a xlink:href="classft_1_1irc_1_1client__handler.html#a0ba3f1dea9ac297d7fd80844e2fb8827" target="_top" xlink:title=" ">
<polygon fill="white" stroke="black" points="270.5,-705.5 270.5,-735.5 386.5,-735.5 386.5,-705.5 270.5,-705.5"/>
<text text-anchor="start" x="278.5" y="-723.5" font-family="Helvetica,sans-Serif" font-size="10.00">ft::irc::client_handler</text>
<text text-anchor="middle" x="328.5" y="-712.5" font-family="Helvetica,sans-Serif" font-size="10.00">::on_inactive</text>
</a>
</g>
</g>
<!-- Node3&#45;&gt;Node9 -->
<g id="edge8" class="edge">
<title>Node3&#45;&gt;Node9</title>
<path fill="none" stroke="midnightblue" d="M477.28,-639.04C458.89,-655.47 428.71,-680.47 399,-696.5 392.93,-699.77 386.33,-702.73 379.7,-705.36"/>
<polygon fill="midnightblue" stroke="midnightblue" points="479.8,-641.47 484.85,-632.15 475.1,-636.29 479.8,-641.47"/>
</g>
<!-- Node10 -->
<g id="node10" class="node">
<title>Node10</title>
<g id="a_node10"><a xlink:href="classft_1_1irc_1_1client__handler.html#a239d2ec2a936d74893455a83468669b3" target="_top" xlink:title=" ">
<polygon fill="white" stroke="black" points="270.5,-656.5 270.5,-686.5 386.5,-686.5 386.5,-656.5 270.5,-656.5"/>
<text text-anchor="start" x="278.5" y="-674.5" font-family="Helvetica,sans-Serif" font-size="10.00">ft::irc::client_handler</text>
<text text-anchor="middle" x="328.5" y="-663.5" font-family="Helvetica,sans-Serif" font-size="10.00">::on_read</text>
</a>
</g>
</g>
<!-- Node3&#45;&gt;Node10 -->
<g id="edge9" class="edge">
<title>Node3&#45;&gt;Node10</title>
<path fill="none" stroke="midnightblue" d="M452.94,-634.95C430.83,-641.5 403.57,-649.57 380.29,-656.46"/>
<polygon fill="midnightblue" stroke="midnightblue" points="454.1,-638.26 462.7,-632.06 452.11,-631.55 454.1,-638.26"/>
</g>
<!-- Node11 -->
<g id="node11" class="node">
<title>Node11</title>
<g id="a_node11"><a xlink:href="classft_1_1irc_1_1bot__handler.html#a0723185e483ae21fa0f2116ca05165fe" target="_top" xlink:title=" ">
<polygon fill="white" stroke="black" points="276,-607.5 276,-637.5 381,-637.5 381,-607.5 276,-607.5"/>
<text text-anchor="start" x="284" y="-625.5" font-family="Helvetica,sans-Serif" font-size="10.00">ft::irc::bot_handler</text>
<text text-anchor="middle" x="328.5" y="-614.5" font-family="Helvetica,sans-Serif" font-size="10.00">::on_read</text>
</a>
</g>
</g>
<!-- Node3&#45;&gt;Node11 -->
<g id="edge10" class="edge">
<title>Node3&#45;&gt;Node11</title>
<path fill="none" stroke="midnightblue" d="M424.77,-622.5C410.16,-622.5 395.01,-622.5 381.21,-622.5"/>
<polygon fill="midnightblue" stroke="midnightblue" points="424.78,-626 434.78,-622.5 424.78,-619 424.78,-626"/>
</g>
<!-- Node12 -->
<g id="node12" class="node">
<title>Node12</title>
<g id="a_node12"><a xlink:href="classft_1_1irc_1_1bot__handler.html#ade7f7f56f6f75d9f88c5acb3b21595c0" target="_top" xlink:title=" ">
<polygon fill="white" stroke="black" points="272,-558.5 272,-588.5 385,-588.5 385,-558.5 272,-558.5"/>
<text text-anchor="start" x="280" y="-576.5" font-family="Helvetica,sans-Serif" font-size="10.00">ft::irc::bot_handler</text>
<text text-anchor="middle" x="328.5" y="-565.5" font-family="Helvetica,sans-Serif" font-size="10.00">::on_read_complete</text>
</a>
</g>
</g>
<!-- Node3&#45;&gt;Node12 -->
<g id="edge11" class="edge">
<title>Node3&#45;&gt;Node12</title>
<path fill="none" stroke="midnightblue" d="M452.94,-610.05C430.83,-603.5 403.57,-595.43 380.29,-588.54"/>
<polygon fill="midnightblue" stroke="midnightblue" points="452.11,-613.45 462.7,-612.94 454.1,-606.74 452.11,-613.45"/>
</g>
<!-- Node13 -->
<g id="node13" class="node">
<title>Node13</title>
<g id="a_node13"><a xlink:href="classft_1_1irc_1_1client__handler.html#a843168d000d5190f84860c4d2ae09eea" target="_top" xlink:title=" ">
<polygon fill="white" stroke="black" points="270.5,-509.5 270.5,-539.5 386.5,-539.5 386.5,-509.5 270.5,-509.5"/>
<text text-anchor="start" x="278.5" y="-527.5" font-family="Helvetica,sans-Serif" font-size="10.00">ft::irc::client_handler</text>
<text text-anchor="middle" x="328.5" y="-516.5" font-family="Helvetica,sans-Serif" font-size="10.00">::on_read_complete</text>
</a>
</g>
</g>
<!-- Node3&#45;&gt;Node13 -->
<g id="edge12" class="edge">
<title>Node3&#45;&gt;Node13</title>
<path fill="none" stroke="midnightblue" d="M476.89,-606.02C458.41,-589.88 428.36,-565.45 399,-549.5 392.24,-545.83 384.83,-542.5 377.45,-539.56"/>
<polygon fill="midnightblue" stroke="midnightblue" points="474.72,-608.77 484.52,-612.79 479.37,-603.53 474.72,-608.77"/>
</g>
<!-- Node15 -->
<g id="node15" class="node">
<title>Node15</title>
<g id="a_node15"><a xlink:href="bot__main_8cpp.html#a0ddf1224851353fc92bfbff6f499fa97" target="_top" xlink:title=" ">
<polygon fill="white" stroke="black" points="308,-197 308,-216 349,-216 349,-197 308,-197"/>
<text text-anchor="middle" x="328.5" y="-204" font-family="Helvetica,sans-Serif" font-size="10.00">main</text>
</a>
</g>
</g>
<!-- Node14&#45;&gt;Node15 -->
<g id="edge14" class="edge">
<title>Node14&#45;&gt;Node15</title>
<path fill="none" stroke="midnightblue" d="M427.31,-193.5C399.07,-197.25 368.41,-201.33 349.08,-203.9"/>
<polygon fill="midnightblue" stroke="midnightblue" points="428.13,-196.92 437.58,-192.13 427.21,-189.98 428.13,-196.92"/>
</g>
<!-- Node16 -->
<g id="node16" class="node">
<title>Node16</title>
<g id="a_node16"><a xlink:href="classft_1_1serv_1_1event__channel__base.html#a6c98e1bb4e38623ccd214e7f82459745" target="_top" xlink:title=" ">
<polygon fill="white" stroke="black" points="265,-147.5 265,-177.5 392,-177.5 392,-147.5 265,-147.5"/>
<text text-anchor="start" x="273" y="-165.5" font-family="Helvetica,sans-Serif" font-size="10.00">ft::serv::event_channel</text>
<text text-anchor="middle" x="328.5" y="-154.5" font-family="Helvetica,sans-Serif" font-size="10.00">_base::trigger_read</text>
</a>
</g>
</g>
<!-- Node14&#45;&gt;Node16 -->
<g id="edge15" class="edge">
<title>Node14&#45;&gt;Node16</title>
<path fill="none" stroke="midnightblue" d="M427.46,-175.52C415.8,-173.97 403.71,-172.37 392.19,-170.83"/>
<polygon fill="midnightblue" stroke="midnightblue" points="427.21,-179.02 437.58,-176.87 428.13,-172.08 427.21,-179.02"/>
</g>
<!-- Node17 -->
<g id="node17" class="node">
<title>Node17</title>
<g id="a_node17"><a xlink:href="classft_1_1serv_1_1event__channel__base.html#af388c3a275fd09564efdd71de019afbf" target="_top" xlink:title=" ">
<polygon fill="white" stroke="black" points="265,-98.5 265,-128.5 392,-128.5 392,-98.5 265,-98.5"/>
<text text-anchor="start" x="273" y="-116.5" font-family="Helvetica,sans-Serif" font-size="10.00">ft::serv::event_channel</text>
<text text-anchor="middle" x="328.5" y="-105.5" font-family="Helvetica,sans-Serif" font-size="10.00">_base::trigger_write</text>
</a>
</g>
</g>
<!-- Node14&#45;&gt;Node17 -->
<g id="edge16" class="edge">
<title>Node14&#45;&gt;Node17</title>
<path fill="none" stroke="midnightblue" d="M468.28,-170.32C449.24,-160.49 422.89,-147.43 399,-137.5 391.57,-134.41 383.59,-131.39 375.78,-128.59"/>
<polygon fill="midnightblue" stroke="midnightblue" points="466.77,-173.48 477.26,-174.99 470,-167.27 466.77,-173.48"/>
</g>
<!-- Node19 -->
<g id="node19" class="node">
<title>Node19</title>
<g id="a_node19"><a xlink:href="main_8cpp.html#a0ddf1224851353fc92bfbff6f499fa97" target="_top" xlink:title=" ">
<polygon fill="white" stroke="black" points="169.5,-329 169.5,-348 210.5,-348 210.5,-329 169.5,-329"/>
<text text-anchor="middle" x="190" y="-336" font-family="Helvetica,sans-Serif" font-size="10.00">main</text>
</a>
</g>
</g>
<!-- Node18&#45;&gt;Node19 -->
<g id="edge18" class="edge">
<title>Node18&#45;&gt;Node19</title>
<path fill="none" stroke="midnightblue" d="M456.22,-351C438.91,-355.96 418.14,-361.05 399,-363.5 336.84,-371.46 319.67,-374.63 258,-363.5 241.51,-360.52 223.78,-353.73 210.7,-347.98"/>
<polygon fill="midnightblue" stroke="midnightblue" points="457.37,-354.31 465.97,-348.12 455.39,-347.6 457.37,-354.31"/>
</g>
<!-- Node20 -->
<g id="node20" class="node">
<title>Node20</title>
<g id="a_node20"><a xlink:href="classft_1_1serv_1_1event__worker__group.html#a0295f04840f4b8cbbd90163ac9fc5418" target="_top" xlink:title=" ">
<polygon fill="white" stroke="black" points="267.5,-323.5 267.5,-353.5 389.5,-353.5 389.5,-323.5 267.5,-323.5"/>
<text text-anchor="start" x="275.5" y="-341.5" font-family="Helvetica,sans-Serif" font-size="10.00">ft::serv::event_worker</text>
<text text-anchor="middle" x="328.5" y="-330.5" font-family="Helvetica,sans-Serif" font-size="10.00">_group::shutdown_all</text>
</a>
</g>
</g>
<!-- Node18&#45;&gt;Node20 -->
<g id="edge19" class="edge">
<title>Node18&#45;&gt;Node20</title>
<path fill="none" stroke="midnightblue" d="M430.25,-338.5C416.83,-338.5 402.75,-338.5 389.51,-338.5"/>
<polygon fill="midnightblue" stroke="midnightblue" points="430.35,-342 440.35,-338.5 430.35,-335 430.35,-342"/>
</g>
<!-- Node22 -->
<g id="node22" class="node">
<title>Node22</title>
<g id="a_node22"><a xlink:href="classbyte__buffer__dump__logger__handler.html#a9eb414dfefb69775ed811bde88f7dc66" target="_top" xlink:title=" ">
<polygon fill="white" stroke="black" points="258,-49.5 258,-79.5 399,-79.5 399,-49.5 258,-49.5"/>
<text text-anchor="start" x="266" y="-67.5" font-family="Helvetica,sans-Serif" font-size="10.00">byte_buffer_dump_logger</text>
<text text-anchor="middle" x="328.5" y="-56.5" font-family="Helvetica,sans-Serif" font-size="10.00">_handler::on_read</text>
</a>
</g>
</g>
<!-- Node21&#45;&gt;Node22 -->
<g id="edge21" class="edge">
<title>Node21&#45;&gt;Node22</title>
<path fill="none" stroke="midnightblue" d="M426.87,-64.5C417.67,-64.5 408.23,-64.5 399.01,-64.5"/>
<polygon fill="midnightblue" stroke="midnightblue" points="427.12,-68 437.12,-64.5 427.12,-61 427.12,-68"/>
</g>
<!-- Node23 -->
<g id="node23" class="node">
<title>Node23</title>
<g id="a_node23"><a xlink:href="classbyte__buffer__dump__logger__handler.html#a59ea4ac74be0b6b4a018633945961794" target="_top" xlink:title=" ">
<polygon fill="white" stroke="black" points="258,-0.5 258,-30.5 399,-30.5 399,-0.5 258,-0.5"/>
<text text-anchor="start" x="266" y="-18.5" font-family="Helvetica,sans-Serif" font-size="10.00">byte_buffer_dump_logger</text>
<text text-anchor="middle" x="328.5" y="-7.5" font-family="Helvetica,sans-Serif" font-size="10.00">_handler::on_write</text>
</a>
</g>
</g>
<!-- Node21&#45;&gt;Node23 -->
<g id="edge22" class="edge">
<title>Node21&#45;&gt;Node23</title>
<path fill="none" stroke="midnightblue" d="M452.94,-52.05C430.83,-45.5 403.57,-37.43 380.29,-30.54"/>
<polygon fill="midnightblue" stroke="midnightblue" points="452.11,-55.45 462.7,-54.94 454.1,-48.74 452.11,-55.45"/>
</g>
<!-- Node24&#45;&gt;Node15 -->
<g id="edge29" class="edge">
<title>Node24&#45;&gt;Node15</title>
<path fill="none" stroke="midnightblue" d="M449.25,-238.34C416.43,-229.61 373.83,-218.29 349.29,-211.76"/>
<polygon fill="midnightblue" stroke="midnightblue" points="448.53,-241.77 459.09,-240.95 450.32,-235 448.53,-241.77"/>
</g>
<!-- Node25 -->
<g id="node25" class="node">
<title>Node25</title>
<g id="a_node25"><a xlink:href="main_8cpp.html#a4b8f6bfb370734d9097623adf02d499d" target="_top" xlink:title=" ">
<polygon fill="white" stroke="black" points="294.5,-285 294.5,-304 362.5,-304 362.5,-285 294.5,-285"/>
<text text-anchor="middle" x="328.5" y="-292" font-family="Helvetica,sans-Serif" font-size="10.00">_on_signal</text>
</a>
</g>
</g>
<!-- Node24&#45;&gt;Node25 -->
<g id="edge24" class="edge">
<title>Node24&#45;&gt;Node25</title>
<path fill="none" stroke="midnightblue" d="M449.3,-262.65C421.79,-269.96 387.4,-279.11 362.53,-285.72"/>
<polygon fill="midnightblue" stroke="midnightblue" points="450.32,-266 459.09,-260.05 448.53,-259.23 450.32,-266"/>
</g>
<!-- Node26 -->
<g id="node26" class="node">
<title>Node26</title>
<g id="a_node26"><a xlink:href="classft_1_1serv_1_1event__worker.html#a3a53967547f82f9bfa578cee9fafb416" target="_top" xlink:title=" ">
<polygon fill="white" stroke="black" points="267.5,-235.5 267.5,-265.5 389.5,-265.5 389.5,-235.5 267.5,-235.5"/>
<text text-anchor="start" x="275.5" y="-253.5" font-family="Helvetica,sans-Serif" font-size="10.00">ft::serv::event_worker</text>
<text text-anchor="middle" x="328.5" y="-242.5" font-family="Helvetica,sans-Serif" font-size="10.00">::loop</text>
</a>
</g>
</g>
<!-- Node24&#45;&gt;Node26 -->
<g id="edge26" class="edge">
<title>Node24&#45;&gt;Node26</title>
<path fill="none" stroke="midnightblue" d="M427.25,-250.5C414.78,-250.5 401.85,-250.5 389.63,-250.5"/>
<polygon fill="midnightblue" stroke="midnightblue" points="427.58,-254 437.58,-250.5 427.58,-247 427.58,-254"/>
</g>
<!-- Node25&#45;&gt;Node19 -->
<g id="edge25" class="edge">
<title>Node25&#45;&gt;Node19</title>
<path fill="none" stroke="midnightblue" d="M284.71,-306.35C275.85,-308.93 266.59,-311.73 258,-314.5 241.89,-319.7 223.83,-326.21 210.53,-331.13"/>
<polygon fill="midnightblue" stroke="midnightblue" points="285.85,-309.66 294.49,-303.53 283.91,-302.94 285.85,-309.66"/>
</g>
<!-- Node27 -->
<g id="node27" class="node">
<title>Node27</title>
<g id="a_node27"><a xlink:href="event__worker__group_8cpp.html#ad74a2b88b0a09afdd296adaddf5c2824" target="_top" xlink:title=" ">
<polygon fill="white" stroke="black" points="158,-241 158,-260 222,-260 222,-241 158,-241"/>
<text text-anchor="middle" x="190" y="-248" font-family="Helvetica,sans-Serif" font-size="10.00">_run_loop</text>
</a>
</g>
</g>
<!-- Node26&#45;&gt;Node27 -->
<g id="edge27" class="edge">
<title>Node26&#45;&gt;Node27</title>
<path fill="none" stroke="midnightblue" d="M256.97,-250.5C244.74,-250.5 232.6,-250.5 222.14,-250.5"/>
<polygon fill="midnightblue" stroke="midnightblue" points="257.23,-254 267.23,-250.5 257.23,-247 257.23,-254"/>
</g>
<!-- Node28 -->
<g id="node28" class="node">
<title>Node28</title>
<g id="a_node28"><a xlink:href="classft_1_1serv_1_1event__worker__group.html#a38691f464474653f2050bc99ea55b6d8" target="_top" xlink:title=" ">
<polygon fill="white" stroke="black" points="0,-235.5 0,-265.5 122,-265.5 122,-235.5 0,-235.5"/>
<text text-anchor="start" x="8" y="-253.5" font-family="Helvetica,sans-Serif" font-size="10.00">ft::serv::event_worker</text>
<text text-anchor="middle" x="61" y="-242.5" font-family="Helvetica,sans-Serif" font-size="10.00">_group::put_worker</text>
</a>
</g>
</g>
<!-- Node27&#45;&gt;Node28 -->
<g id="edge28" class="edge">
<title>Node27&#45;&gt;Node28</title>
<path fill="none" stroke="midnightblue" d="M147.84,-250.5C139.6,-250.5 130.77,-250.5 122.04,-250.5"/>
<polygon fill="midnightblue" stroke="midnightblue" points="147.93,-254 157.93,-250.5 147.93,-247 147.93,-254"/>
</g>
</g>
</svg>
