<?xml version="1.0" encoding="UTF-8" standalone="no"?>
<!DOCTYPE svg PUBLIC "-//W3C//DTD SVG 1.1//EN"
 "http://www.w3.org/Graphics/SVG/1.1/DTD/svg11.dtd">
<!-- Generated by graphviz version 2.43.0 (0)
 -->
<!-- Title: ft::serv::_internal::make_utc_string Pages: 1 -->
<!--zoomable 1216 -->
<svg id="main" version="1.1" xmlns="http://www.w3.org/2000/svg" xmlns:xlink="http://www.w3.org/1999/xlink" xml:space="preserve" onload="init(evt)">
<style type="text/css"><![CDATA[
.edge:hover path { stroke: red; }
.edge:hover polygon { stroke: red; fill: red; }
]]></style>
<script type="text/javascript"><![CDATA[
var edges = document.getElementsByTagName('g');
if (edges && edges.length) {
  for (var i=0;i<edges.length;i++) {
    if (edges[i].id.substr(0,4)=='edge') {
      edges[i].setAttribute('class','edge');
    }
  }
}
]]></script>
        <defs>
                <circle id="rim" cx="0" cy="0" r="7"/>
                <circle id="rim2" cx="0" cy="0" r="3.5"/>
                <g id="zoomPlus">
                        <use xlink:href="#rim" fill="#404040">
                                <set attributeName="fill" to="#808080" begin="zoomplus.mouseover" end="zoomplus.mouseout"/>
                        </use>
                        <path d="M-4,0h8M0,-4v8" fill="none" stroke="white" stroke-width="1.5" pointer-events="none"/>
                </g>
                <g id="zoomMin">
                        <use xlink:href="#rim" fill="#404040">
                                <set attributeName="fill" to="#808080" begin="zoomminus.mouseover" end="zoomminus.mouseout"/>
                        </use>
                        <path d="M-4,0h8" fill="none" stroke="white" stroke-width="1.5" pointer-events="none"/>
                </g>
                <g id="dirArrow">
                        <path fill="none" stroke="white" stroke-width="1.5" d="M0,-3.0v7 M-2.5,-0.5L0,-3.0L2.5,-0.5"/>
                </g>
               <g id="resetDef">
                       <use xlink:href="#rim2" fill="#404040">
                               <set attributeName="fill" to="#808080" begin="reset.mouseover" end="reset.mouseout"/>
                       </use>
               </g>
        </defs>

<script type="text/javascript">
var viewWidth = 856;
var viewHeight = 1216;
var sectionId = 'dynsection-1';
</script>
<script xlink:href="svgpan.js"/>
<svg id="graph" class="graph">
<g id="viewport">
<title>ft::serv::_internal::make_utc_string</title>
<polygon fill="white" stroke="transparent" points="-4,4 -4,-1212.2 852,-1212.2 852,4 -4,4"/>
<!-- Node1 -->
<g id="node1" class="node">
<title>Node1</title>
<g id="a_node1"><a xlink:title=" ">
<polygon fill="#bfbfbf" stroke="black" points="745,-452.7 745,-482.7 848,-482.7 848,-452.7 745,-452.7"/>
<text text-anchor="start" x="753" y="-470.7" font-family="Helvetica,sans-Serif" font-size="10.00">ft::serv::_internal</text>
<text text-anchor="middle" x="796.5" y="-459.7" font-family="Helvetica,sans-Serif" font-size="10.00">::make_utc_string</text>
</a>
</g>
</g>
<!-- Node2 -->
<g id="node2" class="node">
<title>Node2</title>
<g id="a_node2"><a xlink:href="namespaceft_1_1serv_1_1__internal.html#a4dfb80be7b817fc0ee18658f313a6274" target="_top" xlink:title=" ">
<polygon fill="white" stroke="black" points="611,-452.7 611,-482.7 709,-482.7 709,-452.7 611,-452.7"/>
<text text-anchor="start" x="619" y="-470.7" font-family="Helvetica,sans-Serif" font-size="10.00">ft::serv::_internal</text>
<text text-anchor="middle" x="660" y="-459.7" font-family="Helvetica,sans-Serif" font-size="10.00">::print</text>
</a>
</g>
</g>
<!-- Node1&#45;&gt;Node2 -->
<g id="edge1" class="edge">
<title>Node1&#45;&gt;Node2</title>
<path fill="none" stroke="midnightblue" d="M734.45,-467.7C726,-467.7 717.43,-467.7 709.25,-467.7"/>
<polygon fill="midnightblue" stroke="midnightblue" points="734.65,-471.2 744.65,-467.7 734.65,-464.2 734.65,-471.2"/>
</g>
<!-- Node3 -->
<g id="node3" class="node">
<title>Node3</title>
<g id="a_node3"><a xlink:href="structft_1_1serv_1_1logger.html#a83649a4f3bb804c8fed6dfd130de5ee6" target="_top" xlink:title=" ">
<polygon fill="white" stroke="black" points="453,-938.2 453,-957.2 575,-957.2 575,-938.2 453,-938.2"/>
<text text-anchor="middle" x="514" y="-945.2" font-family="Helvetica,sans-Serif" font-size="10.00">ft::serv::logger::debug</text>
</a>
</g>
</g>
<!-- Node2&#45;&gt;Node3 -->
<g id="edge2" class="edge">
<title>Node2&#45;&gt;Node3</title>
<path fill="none" stroke="midnightblue" d="M651.52,-492.63C624.85,-581.53 535.06,-880.82 517.86,-938.16"/>
<polygon fill="midnightblue" stroke="midnightblue" points="654.93,-493.44 654.45,-482.86 648.23,-491.43 654.93,-493.44"/>
</g>
<!-- Node14 -->
<g id="node14" class="node">
<title>Node14</title>
<g id="a_node14"><a xlink:href="structft_1_1serv_1_1logger.html#a27e4ab1c4bf29bd34bb166a3ecd76449" target="_top" xlink:title=" ">
<polygon fill="white" stroke="black" points="456,-63.2 456,-82.2 572,-82.2 572,-63.2 456,-63.2"/>
<text text-anchor="middle" x="514" y="-70.2" font-family="Helvetica,sans-Serif" font-size="10.00">ft::serv::logger::error</text>
</a>
</g>
</g>
<!-- Node2&#45;&gt;Node14 -->
<g id="edge13" class="edge">
<title>Node2&#45;&gt;Node14</title>
<path fill="none" stroke="midnightblue" d="M653.09,-442.83C641.05,-393.57 611.66,-280.52 575,-189.7 558.34,-148.42 532.25,-102.14 520.76,-82.43"/>
<polygon fill="midnightblue" stroke="midnightblue" points="649.71,-443.71 655.46,-452.61 656.51,-442.06 649.71,-443.71"/>
</g>
<!-- Node18 -->
<g id="node18" class="node">
<title>Node18</title>
<g id="a_node18"><a xlink:href="structft_1_1serv_1_1logger.html#aed47352d1c3f60ac9f99929dcc7498d5" target="_top" xlink:title=" ">
<polygon fill="white" stroke="black" points="458.5,-597.2 458.5,-616.2 569.5,-616.2 569.5,-597.2 458.5,-597.2"/>
<text text-anchor="middle" x="514" y="-604.2" font-family="Helvetica,sans-Serif" font-size="10.00">ft::serv::logger::info</text>
</a>
</g>
</g>
<!-- Node2&#45;&gt;Node18 -->
<g id="edge17" class="edge">
<title>Node2&#45;&gt;Node18</title>
<path fill="none" stroke="midnightblue" d="M635.76,-490.14C603.84,-520.94 547.82,-575.02 525.05,-597"/>
<polygon fill="midnightblue" stroke="midnightblue" points="638.55,-492.3 643.32,-482.84 633.69,-487.27 638.55,-492.3"/>
</g>
<!-- Node20 -->
<g id="node20" class="node">
<title>Node20</title>
<g id="a_node20"><a xlink:href="structft_1_1serv_1_1logger.html#af77e51bd1d1172d9ebff34eb9fe1db6a" target="_top" xlink:title=" ">
<polygon fill="white" stroke="black" points="455.5,-458.2 455.5,-477.2 572.5,-477.2 572.5,-458.2 455.5,-458.2"/>
<text text-anchor="middle" x="514" y="-465.2" font-family="Helvetica,sans-Serif" font-size="10.00">ft::serv::logger::trace</text>
</a>
</g>
</g>
<!-- Node2&#45;&gt;Node20 -->
<g id="edge19" class="edge">
<title>Node2&#45;&gt;Node20</title>
<path fill="none" stroke="midnightblue" d="M600.47,-467.7C591.31,-467.7 581.85,-467.7 572.7,-467.7"/>
<polygon fill="midnightblue" stroke="midnightblue" points="600.65,-471.2 610.65,-467.7 600.65,-464.2 600.65,-471.2"/>
</g>
<!-- Node30 -->
<g id="node30" class="node">
<title>Node30</title>
<g id="a_node30"><a xlink:href="structft_1_1serv_1_1logger.html#aeb3f8c326c1e3b607121cf351df5fb55" target="_top" xlink:title=" ">
<polygon fill="white" stroke="black" points="456,-199.2 456,-218.2 572,-218.2 572,-199.2 456,-199.2"/>
<text text-anchor="middle" x="514" y="-206.2" font-family="Helvetica,sans-Serif" font-size="10.00">ft::serv::logger::warn</text>
</a>
</g>
</g>
<!-- Node2&#45;&gt;Node30 -->
<g id="edge31" class="edge">
<title>Node2&#45;&gt;Node30</title>
<path fill="none" stroke="midnightblue" d="M645.62,-443.63C615.03,-388.61 541.06,-255.57 520.42,-218.46"/>
<polygon fill="midnightblue" stroke="midnightblue" points="642.72,-445.61 650.64,-452.65 648.84,-442.21 642.72,-445.61"/>
</g>
<!-- Node4 -->
<g id="node4" class="node">
<title>Node4</title>
<g id="a_node4"><a xlink:href="classft_1_1irc_1_1bot__handler.html#a4f6f0c2ea6bf628048019d6793978658" target="_top" xlink:title=" ">
<polygon fill="white" stroke="black" points="285,-1079.7 285,-1109.7 390,-1109.7 390,-1079.7 285,-1079.7"/>
<text text-anchor="start" x="293" y="-1097.7" font-family="Helvetica,sans-Serif" font-size="10.00">ft::irc::bot_handler</text>
<text text-anchor="middle" x="337.5" y="-1086.7" font-family="Helvetica,sans-Serif" font-size="10.00">::on_active</text>
</a>
</g>
</g>
<!-- Node3&#45;&gt;Node4 -->
<g id="edge3" class="edge">
<title>Node3&#45;&gt;Node4</title>
<path fill="none" stroke="midnightblue" d="M503.26,-966.48C488.32,-993.48 457.18,-1043.07 417,-1070.7 409.01,-1076.19 399.73,-1080.46 390.41,-1083.76"/>
<polygon fill="midnightblue" stroke="midnightblue" points="506.53,-967.79 508.19,-957.32 500.37,-964.47 506.53,-967.79"/>
</g>
<!-- Node5 -->
<g id="node5" class="node">
<title>Node5</title>
<g id="a_node5"><a xlink:href="classft_1_1irc_1_1client__handler.html#ae807a3999b5bc11f686ecbd8c9c78972" target="_top" xlink:title=" ">
<polygon fill="white" stroke="black" points="279.5,-1030.7 279.5,-1060.7 395.5,-1060.7 395.5,-1030.7 279.5,-1030.7"/>
<text text-anchor="start" x="287.5" y="-1048.7" font-family="Helvetica,sans-Serif" font-size="10.00">ft::irc::client_handler</text>
<text text-anchor="middle" x="337.5" y="-1037.7" font-family="Helvetica,sans-Serif" font-size="10.00">::on_active</text>
</a>
</g>
</g>
<!-- Node3&#45;&gt;Node5 -->
<g id="edge4" class="edge">
<title>Node3&#45;&gt;Node5</title>
<path fill="none" stroke="midnightblue" d="M495.69,-964.19C477.42,-980.8 447.16,-1006.12 417,-1021.7 410.29,-1025.16 402.99,-1028.22 395.64,-1030.9"/>
<polygon fill="midnightblue" stroke="midnightblue" points="498.23,-966.61 503.19,-957.24 493.48,-961.47 498.23,-966.61"/>
</g>
<!-- Node6 -->
<g id="node6" class="node">
<title>Node6</title>
<g id="a_node6"><a xlink:href="classft_1_1irc_1_1bot__handler.html#a8601fbf1c9aa32d1e28e421f86969f08" target="_top" xlink:title=" ">
<polygon fill="white" stroke="black" points="285,-981.7 285,-1011.7 390,-1011.7 390,-981.7 285,-981.7"/>
<text text-anchor="start" x="293" y="-999.7" font-family="Helvetica,sans-Serif" font-size="10.00">ft::irc::bot_handler</text>
<text text-anchor="middle" x="337.5" y="-988.7" font-family="Helvetica,sans-Serif" font-size="10.00">::on_error</text>
</a>
</g>
</g>
<!-- Node3&#45;&gt;Node6 -->
<g id="edge5" class="edge">
<title>Node3&#45;&gt;Node6</title>
<path fill="none" stroke="midnightblue" d="M469.03,-960.04C445.01,-966.79 415.13,-975.18 390.01,-982.23"/>
<polygon fill="midnightblue" stroke="midnightblue" points="470.26,-963.34 478.94,-957.26 468.37,-956.6 470.26,-963.34"/>
</g>
<!-- Node7 -->
<g id="node7" class="node">
<title>Node7</title>
<g id="a_node7"><a xlink:href="classft_1_1irc_1_1client__handler.html#a3b07923a033637234fc01fa98e15e5ac" target="_top" xlink:title=" ">
<polygon fill="white" stroke="black" points="279.5,-932.7 279.5,-962.7 395.5,-962.7 395.5,-932.7 279.5,-932.7"/>
<text text-anchor="start" x="287.5" y="-950.7" font-family="Helvetica,sans-Serif" font-size="10.00">ft::irc::client_handler</text>
<text text-anchor="middle" x="337.5" y="-939.7" font-family="Helvetica,sans-Serif" font-size="10.00">::on_error</text>
</a>
</g>
</g>
<!-- Node3&#45;&gt;Node7 -->
<g id="edge6" class="edge">
<title>Node3&#45;&gt;Node7</title>
<path fill="none" stroke="midnightblue" d="M442.8,-947.7C427.16,-947.7 410.76,-947.7 395.72,-947.7"/>
<polygon fill="midnightblue" stroke="midnightblue" points="442.95,-951.2 452.95,-947.7 442.95,-944.2 442.95,-951.2"/>
</g>
<!-- Node8 -->
<g id="node8" class="node">
<title>Node8</title>
<g id="a_node8"><a xlink:href="classft_1_1irc_1_1bot__handler.html#aecb8db90a61c13e042161885226a2cae" target="_top" xlink:title=" ">
<polygon fill="white" stroke="black" points="285,-883.7 285,-913.7 390,-913.7 390,-883.7 285,-883.7"/>
<text text-anchor="start" x="293" y="-901.7" font-family="Helvetica,sans-Serif" font-size="10.00">ft::irc::bot_handler</text>
<text text-anchor="middle" x="337.5" y="-890.7" font-family="Helvetica,sans-Serif" font-size="10.00">::on_inactive</text>
</a>
</g>
</g>
<!-- Node3&#45;&gt;Node8 -->
<g id="edge7" class="edge">
<title>Node3&#45;&gt;Node8</title>
<path fill="none" stroke="midnightblue" d="M469.03,-935.35C445.01,-928.61 415.13,-920.21 390.01,-913.16"/>
<polygon fill="midnightblue" stroke="midnightblue" points="468.37,-938.8 478.94,-938.13 470.26,-932.06 468.37,-938.8"/>
</g>
<!-- Node9 -->
<g id="node9" class="node">
<title>Node9</title>
<g id="a_node9"><a xlink:href="classft_1_1irc_1_1client__handler.html#a0ba3f1dea9ac297d7fd80844e2fb8827" target="_top" xlink:title=" ">
<polygon fill="white" stroke="black" points="279.5,-834.7 279.5,-864.7 395.5,-864.7 395.5,-834.7 279.5,-834.7"/>
<text text-anchor="start" x="287.5" y="-852.7" font-family="Helvetica,sans-Serif" font-size="10.00">ft::irc::client_handler</text>
<text text-anchor="middle" x="337.5" y="-841.7" font-family="Helvetica,sans-Serif" font-size="10.00">::on_inactive</text>
</a>
</g>
</g>
<!-- Node3&#45;&gt;Node9 -->
<g id="edge8" class="edge">
<title>Node3&#45;&gt;Node9</title>
<path fill="none" stroke="midnightblue" d="M495.31,-931.25C476.96,-914.93 446.81,-890.19 417,-874.7 409.77,-870.94 401.86,-867.61 393.94,-864.72"/>
<polygon fill="midnightblue" stroke="midnightblue" points="493.11,-933.98 502.87,-938.09 497.81,-928.78 493.11,-933.98"/>
</g>
<!-- Node10 -->
<g id="node10" class="node">
<title>Node10</title>
<g id="a_node10"><a xlink:href="classft_1_1irc_1_1client__handler.html#a239d2ec2a936d74893455a83468669b3" target="_top" xlink:title=" ">
<polygon fill="white" stroke="black" points="279.5,-785.7 279.5,-815.7 395.5,-815.7 395.5,-785.7 279.5,-785.7"/>
<text text-anchor="start" x="287.5" y="-803.7" font-family="Helvetica,sans-Serif" font-size="10.00">ft::irc::client_handler</text>
<text text-anchor="middle" x="337.5" y="-792.7" font-family="Helvetica,sans-Serif" font-size="10.00">::on_read</text>
</a>
</g>
</g>
<!-- Node3&#45;&gt;Node10 -->
<g id="edge9" class="edge">
<title>Node3&#45;&gt;Node10</title>
<path fill="none" stroke="midnightblue" d="M503.18,-929.14C488.13,-902.43 456.87,-853.34 417,-825.7 410.54,-821.22 403.22,-817.51 395.73,-814.44"/>
<polygon fill="midnightblue" stroke="midnightblue" points="500.27,-931.1 508.14,-938.18 506.41,-927.73 500.27,-931.1"/>
</g>
<!-- Node11 -->
<g id="node11" class="node">
<title>Node11</title>
<g id="a_node11"><a xlink:href="classft_1_1irc_1_1bot__handler.html#a0723185e483ae21fa0f2116ca05165fe" target="_top" xlink:title=" ">
<polygon fill="white" stroke="black" points="285,-736.7 285,-766.7 390,-766.7 390,-736.7 285,-736.7"/>
<text text-anchor="start" x="293" y="-754.7" font-family="Helvetica,sans-Serif" font-size="10.00">ft::irc::bot_handler</text>
<text text-anchor="middle" x="337.5" y="-743.7" font-family="Helvetica,sans-Serif" font-size="10.00">::on_read</text>
</a>
</g>
</g>
<!-- Node3&#45;&gt;Node11 -->
<g id="edge10" class="edge">
<title>Node3&#45;&gt;Node11</title>
<path fill="none" stroke="midnightblue" d="M507.36,-928.29C496.1,-892.92 467.47,-817.82 417,-776.7 409.24,-770.37 399.85,-765.64 390.31,-762.1"/>
<polygon fill="midnightblue" stroke="midnightblue" points="504.03,-929.37 510.31,-937.91 510.73,-927.32 504.03,-929.37"/>
</g>
<!-- Node12 -->
<g id="node12" class="node">
<title>Node12</title>
<g id="a_node12"><a xlink:href="classft_1_1irc_1_1bot__handler.html#ade7f7f56f6f75d9f88c5acb3b21595c0" target="_top" xlink:title=" ">
<polygon fill="white" stroke="black" points="281,-1177.7 281,-1207.7 394,-1207.7 394,-1177.7 281,-1177.7"/>
<text text-anchor="start" x="289" y="-1195.7" font-family="Helvetica,sans-Serif" font-size="10.00">ft::irc::bot_handler</text>
<text text-anchor="middle" x="337.5" y="-1184.7" font-family="Helvetica,sans-Serif" font-size="10.00">::on_read_complete</text>
</a>
</g>
</g>
<!-- Node3&#45;&gt;Node12 -->
<g id="edge11" class="edge">
<title>Node3&#45;&gt;Node12</title>
<path fill="none" stroke="midnightblue" d="M510.1,-967.31C502.71,-1010.26 479.16,-1113.2 417,-1168.7 410.41,-1174.58 402.41,-1179.02 394.06,-1182.38"/>
<polygon fill="midnightblue" stroke="midnightblue" points="513.57,-967.74 511.71,-957.31 506.66,-966.63 513.57,-967.74"/>
</g>
<!-- Node13 -->
<g id="node13" class="node">
<title>Node13</title>
<g id="a_node13"><a xlink:href="classft_1_1irc_1_1client__handler.html#a843168d000d5190f84860c4d2ae09eea" target="_top" xlink:title=" ">
<polygon fill="white" stroke="black" points="279.5,-1128.7 279.5,-1158.7 395.5,-1158.7 395.5,-1128.7 279.5,-1128.7"/>
<text text-anchor="start" x="287.5" y="-1146.7" font-family="Helvetica,sans-Serif" font-size="10.00">ft::irc::client_handler</text>
<text text-anchor="middle" x="337.5" y="-1135.7" font-family="Helvetica,sans-Serif" font-size="10.00">::on_read_complete</text>
</a>
</g>
</g>
<!-- Node3&#45;&gt;Node13 -->
<g id="edge12" class="edge">
<title>Node3&#45;&gt;Node13</title>
<path fill="none" stroke="midnightblue" d="M507.44,-967.27C496.31,-1002.94 467.88,-1078.62 417,-1119.7 410.68,-1124.8 403.28,-1128.82 395.6,-1131.99"/>
<polygon fill="midnightblue" stroke="midnightblue" points="510.83,-968.16 510.35,-957.57 504.13,-966.15 510.83,-968.16"/>
</g>
<!-- Node15 -->
<g id="node15" class="node">
<title>Node15</title>
<g id="a_node15"><a xlink:href="bot__main_8cpp.html#a0ddf1224851353fc92bfbff6f499fa97" target="_top" xlink:title=" ">
<polygon fill="white" stroke="black" points="169.5,-180.2 169.5,-199.2 210.5,-199.2 210.5,-180.2 169.5,-180.2"/>
<text text-anchor="middle" x="190" y="-187.2" font-family="Helvetica,sans-Serif" font-size="10.00">main</text>
</a>
</g>
</g>
<!-- Node14&#45;&gt;Node15 -->
<g id="edge14" class="edge">
<title>Node14&#45;&gt;Node15</title>
<path fill="none" stroke="midnightblue" d="M490.38,-57.63C442.27,-27.64 328.43,32.11 258,-22.7 206.62,-62.68 257.15,-109.89 222,-164.7 218.12,-170.75 212.27,-176.01 206.7,-180.13"/>
<polygon fill="midnightblue" stroke="midnightblue" points="488.78,-60.76 499.1,-63.19 492.55,-54.86 488.78,-60.76"/>
</g>
<!-- Node16 -->
<g id="node16" class="node">
<title>Node16</title>
<g id="a_node16"><a xlink:href="classft_1_1serv_1_1event__channel__base.html#a6c98e1bb4e38623ccd214e7f82459745" target="_top" xlink:title=" ">
<polygon fill="white" stroke="black" points="274,-81.7 274,-111.7 401,-111.7 401,-81.7 274,-81.7"/>
<text text-anchor="start" x="282" y="-99.7" font-family="Helvetica,sans-Serif" font-size="10.00">ft::serv::event_channel</text>
<text text-anchor="middle" x="337.5" y="-88.7" font-family="Helvetica,sans-Serif" font-size="10.00">_base::trigger_read</text>
</a>
</g>
</g>
<!-- Node14&#45;&gt;Node16 -->
<g id="edge15" class="edge">
<title>Node14&#45;&gt;Node16</title>
<path fill="none" stroke="midnightblue" d="M445.85,-81.93C431.17,-83.95 415.69,-86.08 401.19,-88.08"/>
<polygon fill="midnightblue" stroke="midnightblue" points="446.43,-85.39 455.86,-80.56 445.48,-78.45 446.43,-85.39"/>
</g>
<!-- Node17 -->
<g id="node17" class="node">
<title>Node17</title>
<g id="a_node17"><a xlink:href="classft_1_1serv_1_1event__channel__base.html#af388c3a275fd09564efdd71de019afbf" target="_top" xlink:title=" ">
<polygon fill="white" stroke="black" points="274,-32.7 274,-62.7 401,-62.7 401,-32.7 274,-32.7"/>
<text text-anchor="start" x="282" y="-50.7" font-family="Helvetica,sans-Serif" font-size="10.00">ft::serv::event_channel</text>
<text text-anchor="middle" x="337.5" y="-39.7" font-family="Helvetica,sans-Serif" font-size="10.00">_base::trigger_write</text>
</a>
</g>
</g>
<!-- Node14&#45;&gt;Node17 -->
<g id="edge16" class="edge">
<title>Node14&#45;&gt;Node17</title>
<path fill="none" stroke="midnightblue" d="M445.85,-63.08C431.17,-60.97 415.69,-58.76 401.19,-56.68"/>
<polygon fill="midnightblue" stroke="midnightblue" points="445.47,-66.56 455.86,-64.51 446.46,-59.63 445.47,-66.56"/>
</g>
<!-- Node19 -->
<g id="node19" class="node">
<title>Node19</title>
<g id="a_node19"><a xlink:href="main_8cpp.html#a0ddf1224851353fc92bfbff6f499fa97" target="_top" xlink:title=" ">
<polygon fill="white" stroke="black" points="169.5,-360.2 169.5,-379.2 210.5,-379.2 210.5,-360.2 169.5,-360.2"/>
<text text-anchor="middle" x="190" y="-367.2" font-family="Helvetica,sans-Serif" font-size="10.00">main</text>
</a>
</g>
</g>
<!-- Node18&#45;&gt;Node19 -->
<g id="edge18" class="edge">
<title>Node18&#45;&gt;Node19</title>
<path fill="none" stroke="midnightblue" d="M499.54,-623.96C482.73,-643.97 451.91,-675.82 417,-688.7 350.7,-713.16 312.86,-733.24 258,-688.7 208.13,-648.22 194.02,-428.71 191.46,-379.49"/>
<polygon fill="midnightblue" stroke="midnightblue" points="502.25,-626.17 505.85,-616.21 496.83,-621.75 502.25,-626.17"/>
</g>
<!-- Node21 -->
<g id="node21" class="node">
<title>Node21</title>
<g id="a_node21"><a xlink:href="classft_1_1serv_1_1event__worker.html#ae8652d54965b7a2d1fb24e8dacb91aa4" target="_top" xlink:title=" ">
<polygon fill="white" stroke="black" points="276.5,-256.7 276.5,-286.7 398.5,-286.7 398.5,-256.7 276.5,-256.7"/>
<text text-anchor="start" x="284.5" y="-274.7" font-family="Helvetica,sans-Serif" font-size="10.00">ft::serv::event_worker</text>
<text text-anchor="middle" x="337.5" y="-263.7" font-family="Helvetica,sans-Serif" font-size="10.00">::add_channel</text>
</a>
</g>
</g>
<!-- Node20&#45;&gt;Node21 -->
<g id="edge20" class="edge">
<title>Node20&#45;&gt;Node21</title>
<path fill="none" stroke="midnightblue" d="M507.36,-448.29C496.1,-412.92 467.47,-337.82 417,-296.7 411.57,-292.27 405.34,-288.62 398.82,-285.62"/>
<polygon fill="midnightblue" stroke="midnightblue" points="504.03,-449.37 510.31,-457.91 510.73,-447.32 504.03,-449.37"/>
</g>
<!-- Node22 -->
<g id="node22" class="node">
<title>Node22</title>
<g id="a_node22"><a xlink:href="classft_1_1serv_1_1event__channel__base.html#a9589a9878558c0ca96afc4fdde596299" target="_top" xlink:title=" ">
<polygon fill="white" stroke="black" points="262,-648.7 262,-678.7 413,-678.7 413,-648.7 262,-648.7"/>
<text text-anchor="start" x="270" y="-666.7" font-family="Helvetica,sans-Serif" font-size="10.00">ft::serv::event_channel</text>
<text text-anchor="middle" x="337.5" y="-655.7" font-family="Helvetica,sans-Serif" font-size="10.00">_base::event_channel_base</text>
</a>
</g>
</g>
<!-- Node20&#45;&gt;Node22 -->
<g id="edge21" class="edge">
<title>Node20&#45;&gt;Node22</title>
<path fill="none" stroke="midnightblue" d="M503.43,-486.68C481.87,-529.13 430.36,-628.91 417,-639.7 412.79,-643.1 408.09,-646.02 403.16,-648.53"/>
<polygon fill="midnightblue" stroke="midnightblue" points="506.61,-488.15 508,-477.65 500.36,-484.99 506.61,-488.15"/>
</g>
<!-- Node23 -->
<g id="node23" class="node">
<title>Node23</title>
<g id="a_node23"><a xlink:href="classft_1_1serv_1_1event__worker.html#a0f1852580e219d4f0703969f0a7d117e" target="_top" xlink:title=" ">
<polygon fill="white" stroke="black" points="276.5,-599.7 276.5,-629.7 398.5,-629.7 398.5,-599.7 276.5,-599.7"/>
<text text-anchor="start" x="284.5" y="-617.7" font-family="Helvetica,sans-Serif" font-size="10.00">ft::serv::event_worker</text>
<text text-anchor="middle" x="337.5" y="-606.7" font-family="Helvetica,sans-Serif" font-size="10.00">::event_worker</text>
</a>
</g>
</g>
<!-- Node20&#45;&gt;Node23 -->
<g id="edge22" class="edge">
<title>Node20&#45;&gt;Node23</title>
<path fill="none" stroke="midnightblue" d="M503.26,-486.48C488.32,-513.48 457.18,-563.07 417,-590.7 411.36,-594.57 405.08,-597.84 398.59,-600.59"/>
<polygon fill="midnightblue" stroke="midnightblue" points="506.53,-487.79 508.19,-477.32 500.37,-484.47 506.53,-487.79"/>
</g>
<!-- Node24 -->
<g id="node24" class="node">
<title>Node24</title>
<g id="a_node24"><a xlink:href="classft_1_1serv_1_1event__worker.html#a7268987f90a6ac08d16c867cb5f4eb50" target="_top" xlink:title=" ">
<polygon fill="white" stroke="black" points="276.5,-550.7 276.5,-580.7 398.5,-580.7 398.5,-550.7 276.5,-550.7"/>
<text text-anchor="start" x="284.5" y="-568.7" font-family="Helvetica,sans-Serif" font-size="10.00">ft::serv::event_worker</text>
<text text-anchor="middle" x="337.5" y="-557.7" font-family="Helvetica,sans-Serif" font-size="10.00">::remove_channel</text>
</a>
</g>
</g>
<!-- Node20&#45;&gt;Node24 -->
<g id="edge23" class="edge">
<title>Node20&#45;&gt;Node24</title>
<path fill="none" stroke="midnightblue" d="M495.69,-484.19C477.42,-500.8 447.16,-526.12 417,-541.7 410.54,-545.03 403.54,-547.99 396.47,-550.59"/>
<polygon fill="midnightblue" stroke="midnightblue" points="498.23,-486.61 503.19,-477.24 493.48,-481.47 498.23,-486.61"/>
</g>
<!-- Node25 -->
<g id="node25" class="node">
<title>Node25</title>
<g id="a_node25"><a xlink:href="classft_1_1serv_1_1bootstrap.html#acd923d6b838022038f437dad3e58abf0" target="_top" xlink:title=" ">
<polygon fill="white" stroke="black" points="286.5,-305.7 286.5,-335.7 388.5,-335.7 388.5,-305.7 286.5,-305.7"/>
<text text-anchor="start" x="294.5" y="-323.7" font-family="Helvetica,sans-Serif" font-size="10.00">ft::serv::bootstrap</text>
<text text-anchor="middle" x="337.5" y="-312.7" font-family="Helvetica,sans-Serif" font-size="10.00">::start_client</text>
</a>
</g>
</g>
<!-- Node20&#45;&gt;Node25 -->
<g id="edge24" class="edge">
<title>Node20&#45;&gt;Node25</title>
<path fill="none" stroke="midnightblue" d="M503.18,-449.14C488.13,-422.43 456.87,-373.34 417,-345.7 408.54,-339.83 398.62,-335.29 388.75,-331.78"/>
<polygon fill="midnightblue" stroke="midnightblue" points="500.27,-451.1 508.14,-458.18 506.41,-447.73 500.27,-451.1"/>
</g>
<!-- Node26 -->
<g id="node26" class="node">
<title>Node26</title>
<g id="a_node26"><a xlink:href="classft_1_1serv_1_1bootstrap.html#a61642849334859472e690b615dc6fdeb" target="_top" xlink:title=" ">
<polygon fill="white" stroke="black" points="286.5,-354.7 286.5,-384.7 388.5,-384.7 388.5,-354.7 286.5,-354.7"/>
<text text-anchor="start" x="294.5" y="-372.7" font-family="Helvetica,sans-Serif" font-size="10.00">ft::serv::bootstrap</text>
<text text-anchor="middle" x="337.5" y="-361.7" font-family="Helvetica,sans-Serif" font-size="10.00">::start_server</text>
</a>
</g>
</g>
<!-- Node20&#45;&gt;Node26 -->
<g id="edge26" class="edge">
<title>Node20&#45;&gt;Node26</title>
<path fill="none" stroke="midnightblue" d="M495.31,-451.25C476.96,-434.93 446.81,-410.19 417,-394.7 408.12,-390.08 398.22,-386.12 388.53,-382.8"/>
<polygon fill="midnightblue" stroke="midnightblue" points="493.11,-453.98 502.87,-458.09 497.81,-448.78 493.11,-453.98"/>
</g>
<!-- Node27 -->
<g id="node27" class="node">
<title>Node27</title>
<g id="a_node27"><a xlink:href="classft_1_1serv_1_1event__worker.html#af201dee7d75d0d570759255454b16d36" target="_top" xlink:title=" ">
<polygon fill="white" stroke="black" points="276.5,-501.7 276.5,-531.7 398.5,-531.7 398.5,-501.7 276.5,-501.7"/>
<text text-anchor="start" x="284.5" y="-519.7" font-family="Helvetica,sans-Serif" font-size="10.00">ft::serv::event_worker</text>
<text text-anchor="middle" x="337.5" y="-508.7" font-family="Helvetica,sans-Serif" font-size="10.00">::watch_ability</text>
</a>
</g>
</g>
<!-- Node20&#45;&gt;Node27 -->
<g id="edge28" class="edge">
<title>Node20&#45;&gt;Node27</title>
<path fill="none" stroke="midnightblue" d="M469.28,-479.98C445.86,-486.55 416.81,-494.71 392.05,-501.66"/>
<polygon fill="midnightblue" stroke="midnightblue" points="470.26,-483.34 478.94,-477.26 468.37,-476.6 470.26,-483.34"/>
</g>
<!-- Node28 -->
<g id="node28" class="node">
<title>Node28</title>
<g id="a_node28"><a xlink:href="classft_1_1serv_1_1event__channel__base.html#a2e000442bfc11477841b18812af8f9cf" target="_top" xlink:title=" ">
<polygon fill="white" stroke="black" points="258,-452.7 258,-482.7 417,-482.7 417,-452.7 258,-452.7"/>
<text text-anchor="start" x="266" y="-470.7" font-family="Helvetica,sans-Serif" font-size="10.00">ft::serv::event_channel</text>
<text text-anchor="middle" x="337.5" y="-459.7" font-family="Helvetica,sans-Serif" font-size="10.00">_base::~event_channel_base</text>
</a>
</g>
</g>
<!-- Node20&#45;&gt;Node28 -->
<g id="edge29" class="edge">
<title>Node20&#45;&gt;Node28</title>
<path fill="none" stroke="midnightblue" d="M445.19,-467.7C436.03,-467.7 426.57,-467.7 417.24,-467.7"/>
<polygon fill="midnightblue" stroke="midnightblue" points="445.38,-471.2 455.38,-467.7 445.38,-464.2 445.38,-471.2"/>
</g>
<!-- Node29 -->
<g id="node29" class="node">
<title>Node29</title>
<g id="a_node29"><a xlink:href="classft_1_1serv_1_1event__worker.html#ae01991e7942bc0607e9aad83de156833" target="_top" xlink:title=" ">
<polygon fill="white" stroke="black" points="276.5,-403.7 276.5,-433.7 398.5,-433.7 398.5,-403.7 276.5,-403.7"/>
<text text-anchor="start" x="284.5" y="-421.7" font-family="Helvetica,sans-Serif" font-size="10.00">ft::serv::event_worker</text>
<text text-anchor="middle" x="337.5" y="-410.7" font-family="Helvetica,sans-Serif" font-size="10.00">::~event_worker</text>
</a>
</g>
</g>
<!-- Node20&#45;&gt;Node29 -->
<g id="edge30" class="edge">
<title>Node20&#45;&gt;Node29</title>
<path fill="none" stroke="midnightblue" d="M469.28,-455.42C445.86,-448.84 416.81,-440.69 392.05,-433.74"/>
<polygon fill="midnightblue" stroke="midnightblue" points="468.37,-458.8 478.94,-458.13 470.26,-452.06 468.37,-458.8"/>
</g>
<!-- Node25&#45;&gt;Node15 -->
<g id="edge25" class="edge">
<title>Node25&#45;&gt;Node15</title>
<path fill="none" stroke="midnightblue" d="M276.42,-307.34C269.85,-304.45 263.55,-300.95 258,-296.7 223.38,-270.16 202.1,-220.23 194.34,-199.3"/>
<polygon fill="midnightblue" stroke="midnightblue" points="275.58,-310.77 286.17,-311.14 278.12,-304.25 275.58,-310.77"/>
</g>
<!-- Node26&#45;&gt;Node19 -->
<g id="edge27" class="edge">
<title>Node26&#45;&gt;Node19</title>
<path fill="none" stroke="midnightblue" d="M276.2,-369.7C252.83,-369.7 227.69,-369.7 210.83,-369.7"/>
<polygon fill="midnightblue" stroke="midnightblue" points="276.43,-373.2 286.43,-369.7 276.43,-366.2 276.43,-373.2"/>
</g>
<!-- Node30&#45;&gt;Node15 -->
<g id="edge37" class="edge">
<title>Node30&#45;&gt;Node15</title>
<path fill="none" stroke="midnightblue" d="M445.6,-204.72C371.27,-200.34 256.16,-193.54 210.56,-190.85"/>
<polygon fill="midnightblue" stroke="midnightblue" points="445.62,-208.23 455.8,-205.32 446.03,-201.24 445.62,-208.23"/>
</g>
<!-- Node31 -->
<g id="node31" class="node">
<title>Node31</title>
<g id="a_node31"><a xlink:href="main_8cpp.html#a4b8f6bfb370734d9097623adf02d499d" target="_top" xlink:title=" ">
<polygon fill="white" stroke="black" points="303.5,-218.2 303.5,-237.2 371.5,-237.2 371.5,-218.2 303.5,-218.2"/>
<text text-anchor="middle" x="337.5" y="-225.2" font-family="Helvetica,sans-Serif" font-size="10.00">_on_signal</text>
</a>
</g>
</g>
<!-- Node30&#45;&gt;Node31 -->
<g id="edge32" class="edge">
<title>Node30&#45;&gt;Node31</title>
<path fill="none" stroke="midnightblue" d="M445.87,-216.01C420.41,-218.78 392.52,-221.82 371.56,-224.1"/>
<polygon fill="midnightblue" stroke="midnightblue" points="446.3,-219.48 455.86,-214.92 445.54,-212.52 446.3,-219.48"/>
</g>
<!-- Node32 -->
<g id="node32" class="node">
<title>Node32</title>
<g id="a_node32"><a xlink:href="classft_1_1serv_1_1event__worker.html#a3a53967547f82f9bfa578cee9fafb416" target="_top" xlink:title=" ">
<polygon fill="white" stroke="black" points="276.5,-130.7 276.5,-160.7 398.5,-160.7 398.5,-130.7 276.5,-130.7"/>
<text text-anchor="start" x="284.5" y="-148.7" font-family="Helvetica,sans-Serif" font-size="10.00">ft::serv::event_worker</text>
<text text-anchor="middle" x="337.5" y="-137.7" font-family="Helvetica,sans-Serif" font-size="10.00">::loop</text>
</a>
</g>
</g>
<!-- Node30&#45;&gt;Node32 -->
<g id="edge34" class="edge">
<title>Node30&#45;&gt;Node32</title>
<path fill="none" stroke="midnightblue" d="M477.04,-195.72C448.91,-185.56 409.74,-171.42 380.23,-160.76"/>
<polygon fill="midnightblue" stroke="midnightblue" points="475.9,-199.03 486.5,-199.13 478.28,-192.44 475.9,-199.03"/>
</g>
<!-- Node31&#45;&gt;Node19 -->
<g id="edge33" class="edge">
<title>Node31&#45;&gt;Node19</title>
<path fill="none" stroke="midnightblue" d="M293.16,-232.18C280.86,-235.11 268.08,-239.89 258,-247.7 219.22,-277.74 199.81,-336.85 193.44,-360.04"/>
<polygon fill="midnightblue" stroke="midnightblue" points="294.21,-235.54 303.32,-230.14 292.82,-228.68 294.21,-235.54"/>
</g>
<!-- Node33 -->
<g id="node33" class="node">
<title>Node33</title>
<g id="a_node33"><a xlink:href="event__worker__group_8cpp.html#ad74a2b88b0a09afdd296adaddf5c2824" target="_top" xlink:title=" ">
<polygon fill="white" stroke="black" points="158,-136.2 158,-155.2 222,-155.2 222,-136.2 158,-136.2"/>
<text text-anchor="middle" x="190" y="-143.2" font-family="Helvetica,sans-Serif" font-size="10.00">_run_loop</text>
</a>
</g>
</g>
<!-- Node32&#45;&gt;Node33 -->
<g id="edge35" class="edge">
<title>Node32&#45;&gt;Node33</title>
<path fill="none" stroke="midnightblue" d="M266.35,-145.7C250.87,-145.7 235.22,-145.7 222.23,-145.7"/>
<polygon fill="midnightblue" stroke="midnightblue" points="266.48,-149.2 276.48,-145.7 266.48,-142.2 266.48,-149.2"/>
</g>
<!-- Node34 -->
<g id="node34" class="node">
<title>Node34</title>
<g id="a_node34"><a xlink:href="classft_1_1serv_1_1event__worker__group.html#a38691f464474653f2050bc99ea55b6d8" target="_top" xlink:title=" ">
<polygon fill="white" stroke="black" points="0,-130.7 0,-160.7 122,-160.7 122,-130.7 0,-130.7"/>
<text text-anchor="start" x="8" y="-148.7" font-family="Helvetica,sans-Serif" font-size="10.00">ft::serv::event_worker</text>
<text text-anchor="middle" x="61" y="-137.7" font-family="Helvetica,sans-Serif" font-size="10.00">_group::put_worker</text>
</a>
</g>
</g>
<!-- Node33&#45;&gt;Node34 -->
<g id="edge36" class="edge">
<title>Node33&#45;&gt;Node34</title>
<path fill="none" stroke="midnightblue" d="M147.84,-145.7C139.6,-145.7 130.77,-145.7 122.04,-145.7"/>
<polygon fill="midnightblue" stroke="midnightblue" points="147.93,-149.2 157.93,-145.7 147.93,-142.2 147.93,-149.2"/>
</g>
</g>
</svg>
        <g id="navigator" transform="translate(0 0)" fill="#404254">
                <rect fill="#f2f5e9" fill-opacity="0.5" stroke="#606060" stroke-width=".5" x="0" y="0" width="60" height="60"/>
                <use id="zoomplus" xlink:href="#zoomPlus" x="17" y="9" onmousedown="handleZoom(evt,'in')"/>
                <use id="zoomminus" xlink:href="#zoomMin" x="42" y="9" onmousedown="handleZoom(evt,'out')"/>
                <use id="reset" xlink:href="#resetDef" x="30" y="36" onmousedown="handleReset()"/>
                <g id="arrowUp" xlink:href="#dirArrow" transform="translate(30 24)" onmousedown="handlePan(0,-1)">
                  <use xlink:href="#rim" fill="#404040">
                        <set attributeName="fill" to="#808080" begin="arrowUp.mouseover" end="arrowUp.mouseout"/>
                  </use>
                  <path fill="none" stroke="white" stroke-width="1.5" d="M0,-3.0v7 M-2.5,-0.5L0,-3.0L2.5,-0.5"/>
                </g>
                <g id="arrowRight" xlink:href="#dirArrow" transform="rotate(90) translate(36 -43)" onmousedown="handlePan(1,0)">
                  <use xlink:href="#rim" fill="#404040">
                        <set attributeName="fill" to="#808080" begin="arrowRight.mouseover" end="arrowRight.mouseout"/>
                  </use>
                  <path fill="none" stroke="white" stroke-width="1.5" d="M0,-3.0v7 M-2.5,-0.5L0,-3.0L2.5,-0.5"/>
                </g>
                <g id="arrowDown" xlink:href="#dirArrow" transform="rotate(180) translate(-30 -48)" onmousedown="handlePan(0,1)">
                  <use xlink:href="#rim" fill="#404040">
                        <set attributeName="fill" to="#808080" begin="arrowDown.mouseover" end="arrowDown.mouseout"/>
                  </use>
                  <path fill="none" stroke="white" stroke-width="1.5" d="M0,-3.0v7 M-2.5,-0.5L0,-3.0L2.5,-0.5"/>
                </g>
                <g id="arrowLeft" xlink:href="#dirArrow" transform="rotate(270) translate(-36 17)" onmousedown="handlePan(-1,0)">
                  <use xlink:href="#rim" fill="#404040">
                        <set attributeName="fill" to="#808080" begin="arrowLeft.mouseover" end="arrowLeft.mouseout"/>
                  </use>
                  <path fill="none" stroke="white" stroke-width="1.5" d="M0,-3.0v7 M-2.5,-0.5L0,-3.0L2.5,-0.5"/>
                </g>
        </g>
        <svg viewBox="0 0 15 15" width="100%" height="30px" preserveAspectRatio="xMaxYMin meet">
         <g id="arrow_out" transform="scale(0.3 0.3)">
          <a xlink:href="namespaceft_1_1serv_1_1__internal_aad4af39d62c2b1687b0bef7a91bf6c60_icgraph_org.svg" target="_base">
           <rect id="button" ry="5" rx="5" y="6" x="6" height="38" width="38"
                fill="#f2f5e9" fill-opacity="0.5" stroke="#606060" stroke-width="1.0"/>
           <path id="arrow"
             d="M 11.500037,31.436501 C 11.940474,20.09759 22.043105,11.32322 32.158766,21.979434 L 37.068811,17.246167 C 37.068811,17.246167 37.088388,32 37.088388,32 L 22.160133,31.978069 C 22.160133,31.978069 26.997745,27.140456 26.997745,27.140456 C 18.528582,18.264221 13.291696,25.230495 11.500037,31.436501 z"
             style="fill:#404040;"/>
          </a>
         </g>
        </svg>
</svg>
