<?xml version="1.0" encoding="UTF-8" standalone="no"?>
<!DOCTYPE svg PUBLIC "-//W3C//DTD SVG 1.1//EN"
 "http://www.w3.org/Graphics/SVG/1.1/DTD/svg11.dtd">
<!-- Generated by graphviz version 2.43.0 (0)
 -->
<!-- Title: ft::irc::_internal::_to_lower Pages: 1 -->
<svg width="1089pt" height="482pt"
 viewBox="0.00 0.00 1089.00 481.50" xmlns="http://www.w3.org/2000/svg" xmlns:xlink="http://www.w3.org/1999/xlink">
<g id="graph0" class="graph" transform="scale(1 1) rotate(0) translate(4 477.5)">
<title>ft::irc::_internal::_to_lower</title>
<polygon fill="white" stroke="transparent" points="-4,4 -4,-477.5 1085,-477.5 1085,4 -4,4"/>
<!-- Node1 -->
<g id="node1" class="node">
<title>Node1</title>
<g id="a_node1"><a xlink:title=" ">
<polygon fill="#bfbfbf" stroke="black" points="991,-372.5 991,-402.5 1081,-402.5 1081,-372.5 991,-372.5"/>
<text text-anchor="start" x="999" y="-390.5" font-family="Helvetica,sans-Serif" font-size="10.00">ft::irc::_internal</text>
<text text-anchor="middle" x="1036" y="-379.5" font-family="Helvetica,sans-Serif" font-size="10.00">::_to_lower</text>
</a>
</g>
</g>
<!-- Node2 -->
<g id="node2" class="node">
<title>Node2</title>
<g id="a_node2"><a xlink:href="structft_1_1irc_1_1string__utils.html#a367a22012cc0d2d25959ac3f4e5d33a9" target="_top" xlink:title=" ">
<polygon fill="white" stroke="black" points="854,-372.5 854,-402.5 955,-402.5 955,-372.5 854,-372.5"/>
<text text-anchor="start" x="862" y="-390.5" font-family="Helvetica,sans-Serif" font-size="10.00">ft::irc::string_utils</text>
<text text-anchor="middle" x="904.5" y="-379.5" font-family="Helvetica,sans-Serif" font-size="10.00">::to_lower</text>
</a>
</g>
</g>
<!-- Node1&#45;&gt;Node2 -->
<g id="edge1" class="edge">
<title>Node1&#45;&gt;Node2</title>
<path fill="none" stroke="midnightblue" d="M980.68,-387.5C972.26,-387.5 963.6,-387.5 955.29,-387.5"/>
<polygon fill="midnightblue" stroke="midnightblue" points="980.8,-391 990.8,-387.5 980.8,-384 980.8,-391"/>
</g>
<!-- Node3 -->
<g id="node3" class="node">
<title>Node3</title>
<g id="a_node3"><a xlink:href="classft_1_1irc_1_1user.html#af02e786035bc1122895f36f9db8f2c9a" target="_top" xlink:title=" ">
<polygon fill="white" stroke="black" points="498,-438 498,-457 633,-457 633,-438 498,-438"/>
<text text-anchor="middle" x="565.5" y="-445" font-family="Helvetica,sans-Serif" font-size="10.00">ft::irc::user::change_nick</text>
</a>
</g>
</g>
<!-- Node2&#45;&gt;Node3 -->
<g id="edge2" class="edge">
<title>Node2&#45;&gt;Node3</title>
<path fill="none" stroke="midnightblue" d="M843.82,-401.22C835.18,-403.07 826.37,-404.89 818,-406.5 754.79,-418.67 682.19,-430.25 631.29,-437.98"/>
<polygon fill="midnightblue" stroke="midnightblue" points="844.84,-404.58 853.87,-399.03 843.35,-397.74 844.84,-404.58"/>
</g>
<!-- Node5 -->
<g id="node5" class="node">
<title>Node5</title>
<g id="a_node5"><a xlink:href="classft_1_1irc_1_1server.html#ab534369c5d538fbf60852889a7d8127b" target="_top" xlink:title=" ">
<polygon fill="white" stroke="black" points="678,-454 678,-473 809,-473 809,-454 678,-454"/>
<text text-anchor="middle" x="743.5" y="-461" font-family="Helvetica,sans-Serif" font-size="10.00">ft::irc::server::hold_nick</text>
</a>
</g>
</g>
<!-- Node2&#45;&gt;Node5 -->
<g id="edge4" class="edge">
<title>Node2&#45;&gt;Node5</title>
<path fill="none" stroke="midnightblue" d="M873.38,-408.18C857.41,-418.52 837.18,-430.68 818,-439.5 805.68,-445.16 791.64,-450.09 779.16,-453.99"/>
<polygon fill="midnightblue" stroke="midnightblue" points="875.35,-411.07 881.78,-402.65 871.5,-405.22 875.35,-411.07"/>
</g>
<!-- Node6 -->
<g id="node6" class="node">
<title>Node6</title>
<g id="a_node6"><a xlink:href="structft_1_1irc_1_1string__utils.html#abd73422cb93e7f7f26cfd59a221933a2" target="_top" xlink:title=" ">
<polygon fill="white" stroke="black" points="693,-207.5 693,-237.5 794,-237.5 794,-207.5 693,-207.5"/>
<text text-anchor="start" x="701" y="-225.5" font-family="Helvetica,sans-Serif" font-size="10.00">ft::irc::string_utils</text>
<text text-anchor="middle" x="743.5" y="-214.5" font-family="Helvetica,sans-Serif" font-size="10.00">::is_same</text>
</a>
</g>
</g>
<!-- Node2&#45;&gt;Node6 -->
<g id="edge6" class="edge">
<title>Node2&#45;&gt;Node6</title>
<path fill="none" stroke="midnightblue" d="M881.47,-364.64C848.49,-330.41 787.15,-266.76 759.14,-237.69"/>
<polygon fill="midnightblue" stroke="midnightblue" points="879.37,-367.5 888.83,-372.27 884.41,-362.64 879.37,-367.5"/>
</g>
<!-- Node22 -->
<g id="node22" class="node">
<title>Node22</title>
<g id="a_node22"><a xlink:href="structft_1_1irc_1_1string__utils.html#a4d870ac385b6f7fcdacaa1b071810876" target="_top" xlink:title=" ">
<polygon fill="white" stroke="black" points="669,-79.5 669,-109.5 818,-109.5 818,-79.5 669,-79.5"/>
<text text-anchor="start" x="677" y="-97.5" font-family="Helvetica,sans-Serif" font-size="10.00">ft::irc::string_utils</text>
<text text-anchor="middle" x="743.5" y="-86.5" font-family="Helvetica,sans-Serif" font-size="10.00">::match_mask_ignore_case</text>
</a>
</g>
</g>
<!-- Node2&#45;&gt;Node22 -->
<g id="edge28" class="edge">
<title>Node2&#45;&gt;Node22</title>
<path fill="none" stroke="midnightblue" d="M894.12,-362.9C879.71,-326.11 850.39,-255.06 818,-198.5 798.99,-165.31 772.11,-129.48 756.67,-109.74"/>
<polygon fill="midnightblue" stroke="midnightblue" points="890.9,-364.26 897.78,-372.32 897.42,-361.73 890.9,-364.26"/>
</g>
<!-- Node24 -->
<g id="node24" class="node">
<title>Node24</title>
<g id="a_node24"><a xlink:href="classft_1_1irc_1_1server.html#a2f4c8826af7867f18ed67c1b9dabf65f" target="_top" xlink:title=" ">
<polygon fill="white" stroke="black" points="670.5,-378 670.5,-397 816.5,-397 816.5,-378 670.5,-378"/>
<text text-anchor="middle" x="743.5" y="-385" font-family="Helvetica,sans-Serif" font-size="10.00">ft::irc::server::release_nick</text>
</a>
</g>
</g>
<!-- Node2&#45;&gt;Node24 -->
<g id="edge30" class="edge">
<title>Node2&#45;&gt;Node24</title>
<path fill="none" stroke="midnightblue" d="M843.5,-387.5C834.72,-387.5 825.61,-387.5 816.61,-387.5"/>
<polygon fill="midnightblue" stroke="midnightblue" points="843.63,-391 853.63,-387.5 843.63,-384 843.63,-391"/>
</g>
<!-- Node4 -->
<g id="node4" class="node">
<title>Node4</title>
<g id="a_node4"><a xlink:href="classft_1_1irc_1_1processor__nick.html#a7a2f0f709488328c04b6ccf0c41ce78e" target="_top" xlink:title=" ">
<polygon fill="white" stroke="black" points="331.5,-432.5 331.5,-462.5 426.5,-462.5 426.5,-432.5 331.5,-432.5"/>
<text text-anchor="start" x="339.5" y="-450.5" font-family="Helvetica,sans-Serif" font-size="10.00">ft::irc::processor</text>
<text text-anchor="middle" x="379" y="-439.5" font-family="Helvetica,sans-Serif" font-size="10.00">_nick::execute</text>
</a>
</g>
</g>
<!-- Node3&#45;&gt;Node4 -->
<g id="edge3" class="edge">
<title>Node3&#45;&gt;Node4</title>
<path fill="none" stroke="midnightblue" d="M487.79,-447.5C467.01,-447.5 445.14,-447.5 426.57,-447.5"/>
<polygon fill="midnightblue" stroke="midnightblue" points="487.89,-451 497.89,-447.5 487.89,-444 487.89,-451"/>
</g>
<!-- Node5&#45;&gt;Node3 -->
<g id="edge5" class="edge">
<title>Node5&#45;&gt;Node3</title>
<path fill="none" stroke="midnightblue" d="M667.91,-456.72C656.34,-455.67 644.47,-454.59 633.09,-453.55"/>
<polygon fill="midnightblue" stroke="midnightblue" points="667.69,-460.21 677.96,-457.63 668.32,-453.24 667.69,-460.21"/>
</g>
<!-- Node7 -->
<g id="node7" class="node">
<title>Node7</title>
<g id="a_node7"><a xlink:href="classft_1_1irc_1_1channel.html#a88a071511ae42d2faa2ff45d6d6f4abf" target="_top" xlink:title=" ">
<polygon fill="white" stroke="black" points="510.5,-301 510.5,-320 620.5,-320 620.5,-301 510.5,-301"/>
<text text-anchor="middle" x="565.5" y="-308" font-family="Helvetica,sans-Serif" font-size="10.00">ft::irc::channel::ban</text>
</a>
</g>
</g>
<!-- Node6&#45;&gt;Node7 -->
<g id="edge7" class="edge">
<title>Node6&#45;&gt;Node7</title>
<path fill="none" stroke="midnightblue" d="M714.2,-243.5C692.8,-258.57 662.21,-278.45 633,-291.5 624.78,-295.17 615.67,-298.33 606.89,-300.95"/>
<polygon fill="midnightblue" stroke="midnightblue" points="716.39,-246.23 722.49,-237.57 712.32,-240.54 716.39,-246.23"/>
</g>
<!-- Node10 -->
<g id="node10" class="node">
<title>Node10</title>
<g id="a_node10"><a xlink:href="classft_1_1irc_1_1bot.html#af0797d5cc3b307629e5967bfcdd21c3a" target="_top" xlink:title=" ">
<polygon fill="white" stroke="black" points="520,-49.5 520,-79.5 611,-79.5 611,-49.5 520,-49.5"/>
<text text-anchor="start" x="528" y="-67.5" font-family="Helvetica,sans-Serif" font-size="10.00">ft::irc::bot::find</text>
<text text-anchor="middle" x="565.5" y="-56.5" font-family="Helvetica,sans-Serif" font-size="10.00">_own_channels</text>
</a>
</g>
</g>
<!-- Node6&#45;&gt;Node10 -->
<g id="edge10" class="edge">
<title>Node6&#45;&gt;Node10</title>
<path fill="none" stroke="midnightblue" d="M727.07,-198.79C707.86,-170.79 672.69,-124.26 633,-94.5 625.3,-88.72 616.31,-83.73 607.48,-79.57"/>
<polygon fill="midnightblue" stroke="midnightblue" points="724.24,-200.85 732.74,-207.19 730.05,-196.94 724.24,-200.85"/>
</g>
<!-- Node14 -->
<g id="node14" class="node">
<title>Node14</title>
<g id="a_node14"><a xlink:href="classft_1_1irc_1_1bot.html#aa5023ae6a16be90f32f2d9188dd44af3" target="_top" xlink:title=" ">
<polygon fill="white" stroke="black" points="509,-137 509,-156 622,-156 622,-137 509,-137"/>
<text text-anchor="middle" x="565.5" y="-144" font-family="Helvetica,sans-Serif" font-size="10.00">ft::irc::bot::is_owner</text>
</a>
</g>
</g>
<!-- Node6&#45;&gt;Node14 -->
<g id="edge14" class="edge">
<title>Node6&#45;&gt;Node14</title>
<path fill="none" stroke="midnightblue" d="M708.17,-202.34C687,-190.5 659.02,-175.86 633,-165.5 624.08,-161.94 614.24,-158.76 604.92,-156.05"/>
<polygon fill="midnightblue" stroke="midnightblue" points="706.66,-205.51 717.09,-207.4 710.11,-199.42 706.66,-205.51"/>
</g>
<!-- Node15 -->
<g id="node15" class="node">
<title>Node15</title>
<g id="a_node15"><a xlink:href="classft_1_1irc_1_1bot.html#aaffa46673180d49934480ec84b9ed18e" target="_top" xlink:title=" ">
<polygon fill="white" stroke="black" points="325.5,-99 325.5,-118 432.5,-118 432.5,-99 325.5,-99"/>
<text text-anchor="middle" x="379" y="-106" font-family="Helvetica,sans-Serif" font-size="10.00">ft::irc::bot::on_kick</text>
</a>
</g>
</g>
<!-- Node6&#45;&gt;Node15 -->
<g id="edge21" class="edge">
<title>Node6&#45;&gt;Node15</title>
<path fill="none" stroke="midnightblue" d="M723.98,-199.49C704.15,-176.73 670.45,-143.1 633,-127.5 567.95,-100.39 485.38,-99.75 432.61,-103.08"/>
<polygon fill="midnightblue" stroke="midnightblue" points="721.5,-201.97 730.64,-207.33 726.83,-197.44 721.5,-201.97"/>
</g>
<!-- Node17 -->
<g id="node17" class="node">
<title>Node17</title>
<g id="a_node17"><a xlink:href="classft_1_1irc_1_1channel.html#ad30281781ad94941df6db1284869a73b" target="_top" xlink:title=" ">
<polygon fill="white" stroke="black" points="503,-251.5 503,-281.5 628,-281.5 628,-251.5 503,-251.5"/>
<text text-anchor="start" x="511" y="-269.5" font-family="Helvetica,sans-Serif" font-size="10.00">ft::irc::channel::modify</text>
<text text-anchor="middle" x="565.5" y="-258.5" font-family="Helvetica,sans-Serif" font-size="10.00">_member_mode</text>
</a>
</g>
</g>
<!-- Node6&#45;&gt;Node17 -->
<g id="edge19" class="edge">
<title>Node6&#45;&gt;Node17</title>
<path fill="none" stroke="midnightblue" d="M682.69,-237.45C664.58,-241.98 644.7,-246.95 626.58,-251.48"/>
<polygon fill="midnightblue" stroke="midnightblue" points="683.68,-240.81 692.54,-234.99 681.99,-234.02 683.68,-240.81"/>
</g>
<!-- Node18 -->
<g id="node18" class="node">
<title>Node18</title>
<g id="a_node18"><a xlink:href="structft_1_1irc_1_1user_1_1pred__equals__nick.html#aa4bfdd8756482385798ed7fd8197f1e1" target="_top" xlink:title=" ">
<polygon fill="white" stroke="black" points="498.5,-339.5 498.5,-369.5 632.5,-369.5 632.5,-339.5 498.5,-339.5"/>
<text text-anchor="start" x="506.5" y="-357.5" font-family="Helvetica,sans-Serif" font-size="10.00">ft::irc::user::pred</text>
<text text-anchor="middle" x="565.5" y="-346.5" font-family="Helvetica,sans-Serif" font-size="10.00">_equals_nick::operator()</text>
</a>
</g>
</g>
<!-- Node6&#45;&gt;Node18 -->
<g id="edge22" class="edge">
<title>Node6&#45;&gt;Node18</title>
<path fill="none" stroke="midnightblue" d="M724.05,-245.48C703.87,-269.31 669.51,-306.27 633,-329.5 627.17,-333.21 620.71,-336.49 614.18,-339.36"/>
<polygon fill="midnightblue" stroke="midnightblue" points="726.86,-247.57 730.57,-237.64 721.48,-243.09 726.86,-247.57"/>
</g>
<!-- Node19 -->
<g id="node19" class="node">
<title>Node19</title>
<g id="a_node19"><a xlink:href="classft_1_1irc_1_1channel.html#aa7b5a547c4ff51772b8a1a6c81f61a8c" target="_top" xlink:title=" ">
<polygon fill="white" stroke="black" points="504.5,-213 504.5,-232 626.5,-232 626.5,-213 504.5,-213"/>
<text text-anchor="middle" x="565.5" y="-220" font-family="Helvetica,sans-Serif" font-size="10.00">ft::irc::channel::unban</text>
</a>
</g>
</g>
<!-- Node6&#45;&gt;Node19 -->
<g id="edge23" class="edge">
<title>Node6&#45;&gt;Node19</title>
<path fill="none" stroke="midnightblue" d="M682.43,-222.5C664.4,-222.5 644.62,-222.5 626.58,-222.5"/>
<polygon fill="midnightblue" stroke="midnightblue" points="682.54,-226 692.54,-222.5 682.54,-219 682.54,-226"/>
</g>
<!-- Node20 -->
<g id="node20" class="node">
<title>Node20</title>
<g id="a_node20"><a xlink:href="classft_1_1irc_1_1bot.html#a6bea4a41bf2e963f84660531719b1515" target="_top" xlink:title=" ">
<polygon fill="white" stroke="black" points="501.5,-175 501.5,-194 629.5,-194 629.5,-175 501.5,-175"/>
<text text-anchor="middle" x="565.5" y="-182" font-family="Helvetica,sans-Serif" font-size="10.00">ft::irc::bot::update_nick</text>
</a>
</g>
</g>
<!-- Node6&#45;&gt;Node20 -->
<g id="edge25" class="edge">
<title>Node6&#45;&gt;Node20</title>
<path fill="none" stroke="midnightblue" d="M682.63,-209.57C659.02,-204.48 632.39,-198.73 610.59,-194.02"/>
<polygon fill="midnightblue" stroke="midnightblue" points="682.02,-213.02 692.54,-211.71 683.5,-206.18 682.02,-213.02"/>
</g>
<!-- Node8 -->
<g id="node8" class="node">
<title>Node8</title>
<g id="a_node8"><a xlink:href="classft_1_1irc_1_1processor__mode.html#a78f0436f90fe62dc8e35152d98eff680" target="_top" xlink:title=" ">
<polygon fill="white" stroke="black" points="296,-251.5 296,-281.5 462,-281.5 462,-251.5 296,-251.5"/>
<text text-anchor="start" x="304" y="-269.5" font-family="Helvetica,sans-Serif" font-size="10.00">ft::irc::processor</text>
<text text-anchor="middle" x="379" y="-258.5" font-family="Helvetica,sans-Serif" font-size="10.00">_mode::update_channel_mode</text>
</a>
</g>
</g>
<!-- Node7&#45;&gt;Node8 -->
<g id="edge8" class="edge">
<title>Node7&#45;&gt;Node8</title>
<path fill="none" stroke="midnightblue" d="M514.67,-298.62C492.66,-293.37 466.53,-287.14 443.17,-281.57"/>
<polygon fill="midnightblue" stroke="midnightblue" points="513.93,-302.04 524.47,-300.95 515.55,-295.23 513.93,-302.04"/>
</g>
<!-- Node9 -->
<g id="node9" class="node">
<title>Node9</title>
<g id="a_node9"><a xlink:href="classft_1_1irc_1_1processor__mode.html#ad013987a789be47379c13f61364135a6" target="_top" xlink:title=" ">
<polygon fill="white" stroke="black" points="153,-251.5 153,-281.5 248,-281.5 248,-251.5 153,-251.5"/>
<text text-anchor="start" x="161" y="-269.5" font-family="Helvetica,sans-Serif" font-size="10.00">ft::irc::processor</text>
<text text-anchor="middle" x="200.5" y="-258.5" font-family="Helvetica,sans-Serif" font-size="10.00">_mode::execute</text>
</a>
</g>
</g>
<!-- Node8&#45;&gt;Node9 -->
<g id="edge9" class="edge">
<title>Node8&#45;&gt;Node9</title>
<path fill="none" stroke="midnightblue" d="M285.95,-266.5C272.88,-266.5 259.91,-266.5 248.21,-266.5"/>
<polygon fill="midnightblue" stroke="midnightblue" points="285.95,-270 295.95,-266.5 285.95,-263 285.95,-270"/>
</g>
<!-- Node11 -->
<g id="node11" class="node">
<title>Node11</title>
<g id="a_node11"><a xlink:href="classft_1_1irc_1_1bot.html#afaa3557fd9c3562f2a81095c9f917360" target="_top" xlink:title=" ">
<polygon fill="white" stroke="black" points="326.5,-58 326.5,-77 431.5,-77 431.5,-58 326.5,-58"/>
<text text-anchor="middle" x="379" y="-65" font-family="Helvetica,sans-Serif" font-size="10.00">ft::irc::bot::on_quit</text>
</a>
</g>
</g>
<!-- Node10&#45;&gt;Node11 -->
<g id="edge11" class="edge">
<title>Node10&#45;&gt;Node11</title>
<path fill="none" stroke="midnightblue" d="M509.57,-65.39C484.93,-65.79 456.02,-66.26 431.77,-66.66"/>
<polygon fill="midnightblue" stroke="midnightblue" points="509.9,-68.89 519.84,-65.23 509.78,-61.89 509.9,-68.89"/>
</g>
<!-- Node12 -->
<g id="node12" class="node">
<title>Node12</title>
<g id="a_node12"><a xlink:href="classft_1_1irc_1_1bot.html#a0b595213781ed0e5aaf1d48fdb602d98" target="_top" xlink:title=" ">
<polygon fill="white" stroke="black" points="141,-118 141,-137 260,-137 260,-118 141,-118"/>
<text text-anchor="middle" x="200.5" y="-125" font-family="Helvetica,sans-Serif" font-size="10.00">ft::irc::bot::on_packet</text>
</a>
</g>
</g>
<!-- Node11&#45;&gt;Node12 -->
<g id="edge12" class="edge">
<title>Node11&#45;&gt;Node12</title>
<path fill="none" stroke="midnightblue" d="M328.73,-79.69C317.88,-82.66 306.49,-86 296,-89.5 270.51,-98.01 241.97,-109.81 222.99,-118"/>
<polygon fill="midnightblue" stroke="midnightblue" points="329.75,-83.04 338.51,-77.07 327.94,-76.28 329.75,-83.04"/>
</g>
<!-- Node13 -->
<g id="node13" class="node">
<title>Node13</title>
<g id="a_node13"><a xlink:href="classft_1_1irc_1_1bot__handler.html#a0723185e483ae21fa0f2116ca05165fe" target="_top" xlink:title=" ">
<polygon fill="white" stroke="black" points="0,-112.5 0,-142.5 105,-142.5 105,-112.5 0,-112.5"/>
<text text-anchor="start" x="8" y="-130.5" font-family="Helvetica,sans-Serif" font-size="10.00">ft::irc::bot_handler</text>
<text text-anchor="middle" x="52.5" y="-119.5" font-family="Helvetica,sans-Serif" font-size="10.00">::on_read</text>
</a>
</g>
</g>
<!-- Node12&#45;&gt;Node13 -->
<g id="edge13" class="edge">
<title>Node12&#45;&gt;Node13</title>
<path fill="none" stroke="midnightblue" d="M130.96,-127.5C122.38,-127.5 113.72,-127.5 105.46,-127.5"/>
<polygon fill="midnightblue" stroke="midnightblue" points="130.96,-131 140.96,-127.5 130.96,-124 130.96,-131"/>
</g>
<!-- Node14&#45;&gt;Node15 -->
<g id="edge15" class="edge">
<title>Node14&#45;&gt;Node15</title>
<path fill="none" stroke="midnightblue" d="M508.13,-134.89C481.89,-129.49 451.06,-123.14 426.22,-118.02"/>
<polygon fill="midnightblue" stroke="midnightblue" points="507.44,-138.32 517.94,-136.91 508.85,-131.47 507.44,-138.32"/>
</g>
<!-- Node16 -->
<g id="node16" class="node">
<title>Node16</title>
<g id="a_node16"><a xlink:href="classft_1_1irc_1_1bot.html#adb61ddab4c1cb4fc70bec293666bed90" target="_top" xlink:title=" ">
<polygon fill="white" stroke="black" points="326,-137 326,-156 432,-156 432,-137 326,-137"/>
<text text-anchor="middle" x="379" y="-144" font-family="Helvetica,sans-Serif" font-size="10.00">ft::irc::bot::on_part</text>
</a>
</g>
</g>
<!-- Node14&#45;&gt;Node16 -->
<g id="edge17" class="edge">
<title>Node14&#45;&gt;Node16</title>
<path fill="none" stroke="midnightblue" d="M498.68,-146.5C476.78,-146.5 452.72,-146.5 432.02,-146.5"/>
<polygon fill="midnightblue" stroke="midnightblue" points="498.89,-150 508.89,-146.5 498.89,-143 498.89,-150"/>
</g>
<!-- Node15&#45;&gt;Node12 -->
<g id="edge16" class="edge">
<title>Node15&#45;&gt;Node12</title>
<path fill="none" stroke="midnightblue" d="M314.78,-115.31C297.02,-117.22 277.78,-119.29 260.28,-121.17"/>
<polygon fill="midnightblue" stroke="midnightblue" points="315.48,-118.75 325.04,-114.2 314.73,-111.79 315.48,-118.75"/>
</g>
<!-- Node16&#45;&gt;Node12 -->
<g id="edge18" class="edge">
<title>Node16&#45;&gt;Node12</title>
<path fill="none" stroke="midnightblue" d="M315.86,-139.81C297.79,-137.86 278.11,-135.75 260.25,-133.82"/>
<polygon fill="midnightblue" stroke="midnightblue" points="315.68,-143.31 326,-140.9 316.43,-136.35 315.68,-143.31"/>
</g>
<!-- Node17&#45;&gt;Node8 -->
<g id="edge20" class="edge">
<title>Node17&#45;&gt;Node8</title>
<path fill="none" stroke="midnightblue" d="M492.6,-266.5C482.67,-266.5 472.41,-266.5 462.31,-266.5"/>
<polygon fill="midnightblue" stroke="midnightblue" points="492.81,-270 502.81,-266.5 492.81,-263 492.81,-270"/>
</g>
<!-- Node19&#45;&gt;Node8 -->
<g id="edge24" class="edge">
<title>Node19&#45;&gt;Node8</title>
<path fill="none" stroke="midnightblue" d="M514.67,-234.38C492.66,-239.63 466.53,-245.86 443.17,-251.43"/>
<polygon fill="midnightblue" stroke="midnightblue" points="515.55,-237.77 524.47,-232.05 513.93,-230.96 515.55,-237.77"/>
</g>
<!-- Node21 -->
<g id="node21" class="node">
<title>Node21</title>
<g id="a_node21"><a xlink:href="classft_1_1irc_1_1bot.html#ac44a6bb9edd7bde3e8e4e45121914ae6" target="_top" xlink:title=" ">
<polygon fill="white" stroke="black" points="325.5,-175 325.5,-194 432.5,-194 432.5,-175 325.5,-175"/>
<text text-anchor="middle" x="379" y="-182" font-family="Helvetica,sans-Serif" font-size="10.00">ft::irc::bot::on_nick</text>
</a>
</g>
</g>
<!-- Node20&#45;&gt;Node21 -->
<g id="edge26" class="edge">
<title>Node20&#45;&gt;Node21</title>
<path fill="none" stroke="midnightblue" d="M491.18,-184.5C471.64,-184.5 450.92,-184.5 432.73,-184.5"/>
<polygon fill="midnightblue" stroke="midnightblue" points="491.26,-188 501.26,-184.5 491.26,-181 491.26,-188"/>
</g>
<!-- Node21&#45;&gt;Node12 -->
<g id="edge27" class="edge">
<title>Node21&#45;&gt;Node12</title>
<path fill="none" stroke="midnightblue" d="M321.32,-172.58C312.78,-170.43 304.11,-168.05 296,-165.5 270.19,-157.38 241.48,-145.39 222.55,-137.06"/>
<polygon fill="midnightblue" stroke="midnightblue" points="320.72,-176.03 331.26,-174.99 322.37,-169.23 320.72,-176.03"/>
</g>
<!-- Node23 -->
<g id="node23" class="node">
<title>Node23</title>
<g id="a_node23"><a xlink:href="classft_1_1irc_1_1channel.html#a167149fa7b382fa3986d794b298706ce" target="_top" xlink:title=" ">
<polygon fill="white" stroke="black" points="515.5,-0.5 515.5,-30.5 615.5,-30.5 615.5,-0.5 515.5,-0.5"/>
<text text-anchor="start" x="523.5" y="-18.5" font-family="Helvetica,sans-Serif" font-size="10.00">ft::irc::channel::is</text>
<text text-anchor="middle" x="565.5" y="-7.5" font-family="Helvetica,sans-Serif" font-size="10.00">_banned</text>
</a>
</g>
</g>
<!-- Node22&#45;&gt;Node23 -->
<g id="edge29" class="edge">
<title>Node22&#45;&gt;Node23</title>
<path fill="none" stroke="midnightblue" d="M705.67,-74.62C684.67,-63.64 657.69,-50.11 633,-39.5 625.78,-36.4 618.02,-33.35 610.43,-30.52"/>
<polygon fill="midnightblue" stroke="midnightblue" points="704.1,-77.75 714.58,-79.32 707.36,-71.56 704.1,-77.75"/>
</g>
<!-- Node24&#45;&gt;Node3 -->
<g id="edge31" class="edge">
<title>Node24&#45;&gt;Node3</title>
<path fill="none" stroke="midnightblue" d="M700.62,-400.17C690.2,-403.6 679.11,-407.48 669,-411.5 652.56,-418.04 649.56,-422.27 633,-428.5 623.78,-431.97 613.65,-435.16 604.13,-437.9"/>
<polygon fill="midnightblue" stroke="midnightblue" points="701.91,-403.43 710.35,-397.03 699.76,-396.77 701.91,-403.43"/>
</g>
<!-- Node25 -->
<g id="node25" class="node">
<title>Node25</title>
<g id="a_node25"><a xlink:href="classft_1_1irc_1_1user.html#af2aa8fcafc015de38938ccccfed4b1c9" target="_top" xlink:title=" ">
<polygon fill="white" stroke="black" points="503.5,-388.5 503.5,-418.5 627.5,-418.5 627.5,-388.5 503.5,-388.5"/>
<text text-anchor="start" x="511.5" y="-406.5" font-family="Helvetica,sans-Serif" font-size="10.00">ft::irc::user::deregister</text>
<text text-anchor="middle" x="565.5" y="-395.5" font-family="Helvetica,sans-Serif" font-size="10.00">_from_server</text>
</a>
</g>
</g>
<!-- Node24&#45;&gt;Node25 -->
<g id="edge32" class="edge">
<title>Node24&#45;&gt;Node25</title>
<path fill="none" stroke="midnightblue" d="M660.32,-394.97C649.28,-395.97 638.11,-396.99 627.52,-397.95"/>
<polygon fill="midnightblue" stroke="midnightblue" points="660.76,-398.45 670.41,-394.05 660.13,-391.47 660.76,-398.45"/>
</g>
</g>
</svg>
