<?xml version="1.0" encoding="UTF-8" standalone="no"?>
<!DOCTYPE svg PUBLIC "-//W3C//DTD SVG 1.1//EN"
 "http://www.w3.org/Graphics/SVG/1.1/DTD/svg11.dtd">
<!-- Generated by graphviz version 2.43.0 (0)
 -->
<!-- Title: ft::serv::_internal::make_format_string_line Pages: 1 -->
<svg width="976pt" height="1605pt"
 viewBox="0.00 0.00 976.00 1605.00" xmlns="http://www.w3.org/2000/svg" xmlns:xlink="http://www.w3.org/1999/xlink">
<g id="graph0" class="graph" transform="scale(1 1) rotate(0) translate(4 1601)">
<title>ft::serv::_internal::make_format_string_line</title>
<polygon fill="white" stroke="transparent" points="-4,4 -4,-1601 972,-1601 972,4 -4,4"/>
<!-- Node1 -->
<g id="node1" class="node">
<title>Node1</title>
<g id="a_node1"><a xlink:title=" ">
<polygon fill="#bfbfbf" stroke="black" points="824,-573.5 824,-603.5 968,-603.5 968,-573.5 824,-573.5"/>
<text text-anchor="start" x="832" y="-591.5" font-family="Helvetica,sans-Serif" font-size="10.00">ft::serv::_internal</text>
<text text-anchor="middle" x="896" y="-580.5" font-family="Helvetica,sans-Serif" font-size="10.00">::make_format_string_line</text>
</a>
</g>
</g>
<!-- Node2 -->
<g id="node2" class="node">
<title>Node2</title>
<g id="a_node2"><a xlink:href="namespaceft_1_1serv_1_1__internal.html#a4dfb80be7b817fc0ee18658f313a6274" target="_top" xlink:title=" ">
<polygon fill="white" stroke="black" points="690,-573.5 690,-603.5 788,-603.5 788,-573.5 690,-573.5"/>
<text text-anchor="start" x="698" y="-591.5" font-family="Helvetica,sans-Serif" font-size="10.00">ft::serv::_internal</text>
<text text-anchor="middle" x="739" y="-580.5" font-family="Helvetica,sans-Serif" font-size="10.00">::print</text>
</a>
</g>
</g>
<!-- Node1&#45;&gt;Node2 -->
<g id="edge1" class="edge">
<title>Node1&#45;&gt;Node2</title>
<path fill="none" stroke="midnightblue" d="M813.62,-588.5C804.91,-588.5 796.27,-588.5 788.13,-588.5"/>
<polygon fill="midnightblue" stroke="midnightblue" points="813.85,-592 823.85,-588.5 813.85,-585 813.85,-592"/>
</g>
<!-- Node3 -->
<g id="node3" class="node">
<title>Node3</title>
<g id="a_node3"><a xlink:href="structft_1_1serv_1_1logger.html#a83649a4f3bb804c8fed6dfd130de5ee6" target="_top" xlink:title=" ">
<polygon fill="white" stroke="black" points="532,-1013 532,-1032 654,-1032 654,-1013 532,-1013"/>
<text text-anchor="middle" x="593" y="-1020" font-family="Helvetica,sans-Serif" font-size="10.00">ft::serv::logger::debug</text>
</a>
</g>
</g>
<!-- Node2&#45;&gt;Node3 -->
<g id="edge2" class="edge">
<title>Node2&#45;&gt;Node3</title>
<path fill="none" stroke="midnightblue" d="M729.79,-613.26C702.4,-695.78 614.97,-959.29 597.18,-1012.92"/>
<polygon fill="midnightblue" stroke="midnightblue" points="733.13,-614.29 732.96,-603.69 726.49,-612.08 733.13,-614.29"/>
</g>
<!-- Node43 -->
<g id="node32" class="node">
<title>Node43</title>
<g id="a_node32"><a xlink:href="structft_1_1serv_1_1logger.html#a27e4ab1c4bf29bd34bb166a3ecd76449" target="_top" xlink:title=" ">
<polygon fill="white" stroke="black" points="535,-639 535,-658 651,-658 651,-639 535,-639"/>
<text text-anchor="middle" x="593" y="-646" font-family="Helvetica,sans-Serif" font-size="10.00">ft::serv::logger::error</text>
</a>
</g>
</g>
<!-- Node2&#45;&gt;Node43 -->
<g id="edge32" class="edge">
<title>Node2&#45;&gt;Node43</title>
<path fill="none" stroke="midnightblue" d="M692.3,-607.54C667.14,-618.02 637.03,-630.57 616.82,-638.99"/>
<polygon fill="midnightblue" stroke="midnightblue" points="693.78,-610.72 701.66,-603.64 691.09,-604.26 693.78,-610.72"/>
</g>
<!-- Node47 -->
<g id="node36" class="node">
<title>Node47</title>
<g id="a_node36"><a xlink:href="structft_1_1serv_1_1logger.html#aed47352d1c3f60ac9f99929dcc7498d5" target="_top" xlink:title=" ">
<polygon fill="white" stroke="black" points="537.5,-579 537.5,-598 648.5,-598 648.5,-579 537.5,-579"/>
<text text-anchor="middle" x="593" y="-586" font-family="Helvetica,sans-Serif" font-size="10.00">ft::serv::logger::info</text>
</a>
</g>
</g>
<!-- Node2&#45;&gt;Node47 -->
<g id="edge36" class="edge">
<title>Node2&#45;&gt;Node47</title>
<path fill="none" stroke="midnightblue" d="M679.59,-588.5C669.38,-588.5 658.79,-588.5 648.68,-588.5"/>
<polygon fill="midnightblue" stroke="midnightblue" points="679.65,-592 689.65,-588.5 679.65,-585 679.65,-592"/>
</g>
<!-- Node49 -->
<g id="node38" class="node">
<title>Node49</title>
<g id="a_node38"><a xlink:href="structft_1_1serv_1_1logger.html#af77e51bd1d1172d9ebff34eb9fe1db6a" target="_top" xlink:title=" ">
<polygon fill="white" stroke="black" points="534.5,-339 534.5,-358 651.5,-358 651.5,-339 534.5,-339"/>
<text text-anchor="middle" x="593" y="-346" font-family="Helvetica,sans-Serif" font-size="10.00">ft::serv::logger::trace</text>
</a>
</g>
</g>
<!-- Node2&#45;&gt;Node49 -->
<g id="edge38" class="edge">
<title>Node2&#45;&gt;Node49</title>
<path fill="none" stroke="midnightblue" d="M723.72,-564.7C692.79,-513.16 620.74,-393.06 599.8,-358.17"/>
<polygon fill="midnightblue" stroke="midnightblue" points="720.85,-566.71 728.99,-573.49 726.85,-563.11 720.85,-566.71"/>
</g>
<!-- Node60 -->
<g id="node49" class="node">
<title>Node60</title>
<g id="a_node49"><a xlink:href="structft_1_1serv_1_1logger.html#aeb3f8c326c1e3b607121cf351df5fb55" target="_top" xlink:title=" ">
<polygon fill="white" stroke="black" points="535,-72 535,-91 651,-91 651,-72 535,-72"/>
<text text-anchor="middle" x="593" y="-79" font-family="Helvetica,sans-Serif" font-size="10.00">ft::serv::logger::warn</text>
</a>
</g>
</g>
<!-- Node2&#45;&gt;Node60 -->
<g id="edge51" class="edge">
<title>Node2&#45;&gt;Node60</title>
<path fill="none" stroke="midnightblue" d="M730.88,-563.44C704.62,-470.98 613.8,-151.21 596.77,-91.24"/>
<polygon fill="midnightblue" stroke="midnightblue" points="727.59,-564.66 733.69,-573.33 734.32,-562.75 727.59,-564.66"/>
</g>
<!-- Node4 -->
<g id="node4" class="node">
<title>Node4</title>
<g id="a_node4"><a xlink:href="classft_1_1irc_1_1bot__handler.html#a4f6f0c2ea6bf628048019d6793978658" target="_top" xlink:title=" ">
<polygon fill="white" stroke="black" points="364,-1081.5 364,-1111.5 469,-1111.5 469,-1081.5 364,-1081.5"/>
<text text-anchor="start" x="372" y="-1099.5" font-family="Helvetica,sans-Serif" font-size="10.00">ft::irc::bot_handler</text>
<text text-anchor="middle" x="416.5" y="-1088.5" font-family="Helvetica,sans-Serif" font-size="10.00">::on_active</text>
</a>
</g>
</g>
<!-- Node3&#45;&gt;Node4 -->
<g id="edge3" class="edge">
<title>Node3&#45;&gt;Node4</title>
<path fill="none" stroke="midnightblue" d="M566.88,-1037.21C547.86,-1047.94 520.85,-1062.33 496,-1072.5 487.43,-1076.01 478.15,-1079.28 469.07,-1082.21"/>
<polygon fill="midnightblue" stroke="midnightblue" points="568.84,-1040.12 575.79,-1032.12 565.37,-1034.04 568.84,-1040.12"/>
</g>
<!-- Node5 -->
<g id="node5" class="node">
<title>Node5</title>
<g id="a_node5"><a xlink:href="classft_1_1irc_1_1client__handler.html#ae807a3999b5bc11f686ecbd8c9c78972" target="_top" xlink:title=" ">
<polygon fill="white" stroke="black" points="358.5,-1032.5 358.5,-1062.5 474.5,-1062.5 474.5,-1032.5 358.5,-1032.5"/>
<text text-anchor="start" x="366.5" y="-1050.5" font-family="Helvetica,sans-Serif" font-size="10.00">ft::irc::client_handler</text>
<text text-anchor="middle" x="416.5" y="-1039.5" font-family="Helvetica,sans-Serif" font-size="10.00">::on_active</text>
</a>
</g>
</g>
<!-- Node3&#45;&gt;Node5 -->
<g id="edge4" class="edge">
<title>Node3&#45;&gt;Node5</title>
<path fill="none" stroke="midnightblue" d="M521.8,-1032.56C506.16,-1034.8 489.76,-1037.15 474.72,-1039.3"/>
<polygon fill="midnightblue" stroke="midnightblue" points="522.54,-1035.99 531.95,-1031.1 521.55,-1029.06 522.54,-1035.99"/>
</g>
<!-- Node6 -->
<g id="node6" class="node">
<title>Node6</title>
<g id="a_node6"><a xlink:href="classft_1_1irc_1_1bot__handler.html#a8601fbf1c9aa32d1e28e421f86969f08" target="_top" xlink:title=" ">
<polygon fill="white" stroke="black" points="364,-983.5 364,-1013.5 469,-1013.5 469,-983.5 364,-983.5"/>
<text text-anchor="start" x="372" y="-1001.5" font-family="Helvetica,sans-Serif" font-size="10.00">ft::irc::bot_handler</text>
<text text-anchor="middle" x="416.5" y="-990.5" font-family="Helvetica,sans-Serif" font-size="10.00">::on_error</text>
</a>
</g>
</g>
<!-- Node3&#45;&gt;Node6 -->
<g id="edge5" class="edge">
<title>Node3&#45;&gt;Node6</title>
<path fill="none" stroke="midnightblue" d="M521.75,-1012.84C504.2,-1010.42 485.69,-1007.88 469.23,-1005.61"/>
<polygon fill="midnightblue" stroke="midnightblue" points="521.56,-1016.35 531.95,-1014.24 522.52,-1009.41 521.56,-1016.35"/>
</g>
<!-- Node7 -->
<g id="node7" class="node">
<title>Node7</title>
<g id="a_node7"><a xlink:href="classft_1_1irc_1_1client__handler.html#a3b07923a033637234fc01fa98e15e5ac" target="_top" xlink:title=" ">
<polygon fill="white" stroke="black" points="358.5,-934.5 358.5,-964.5 474.5,-964.5 474.5,-934.5 358.5,-934.5"/>
<text text-anchor="start" x="366.5" y="-952.5" font-family="Helvetica,sans-Serif" font-size="10.00">ft::irc::client_handler</text>
<text text-anchor="middle" x="416.5" y="-941.5" font-family="Helvetica,sans-Serif" font-size="10.00">::on_error</text>
</a>
</g>
</g>
<!-- Node3&#45;&gt;Node7 -->
<g id="edge6" class="edge">
<title>Node3&#45;&gt;Node7</title>
<path fill="none" stroke="midnightblue" d="M565.74,-1007.98C546.73,-997.81 520.22,-984.34 496,-974.5 487.39,-971 478.09,-967.67 469,-964.64"/>
<polygon fill="midnightblue" stroke="midnightblue" points="564.22,-1011.14 574.69,-1012.82 567.55,-1004.98 564.22,-1011.14"/>
</g>
<!-- Node8 -->
<g id="node8" class="node">
<title>Node8</title>
<g id="a_node8"><a xlink:href="classft_1_1irc_1_1bot__handler.html#aecb8db90a61c13e042161885226a2cae" target="_top" xlink:title=" ">
<polygon fill="white" stroke="black" points="364,-885.5 364,-915.5 469,-915.5 469,-885.5 364,-885.5"/>
<text text-anchor="start" x="372" y="-903.5" font-family="Helvetica,sans-Serif" font-size="10.00">ft::irc::bot_handler</text>
<text text-anchor="middle" x="416.5" y="-892.5" font-family="Helvetica,sans-Serif" font-size="10.00">::on_inactive</text>
</a>
</g>
</g>
<!-- Node3&#45;&gt;Node8 -->
<g id="edge7" class="edge">
<title>Node3&#45;&gt;Node8</title>
<path fill="none" stroke="midnightblue" d="M578.82,-1004.66C561.92,-982.99 530.63,-946.71 496,-925.5 487.83,-920.5 478.56,-916.4 469.32,-913.08"/>
<polygon fill="midnightblue" stroke="midnightblue" points="576.11,-1006.88 584.96,-1012.71 581.68,-1002.64 576.11,-1006.88"/>
</g>
<!-- Node9 -->
<g id="node9" class="node">
<title>Node9</title>
<g id="a_node9"><a xlink:href="classft_1_1irc_1_1client__handler.html#a0ba3f1dea9ac297d7fd80844e2fb8827" target="_top" xlink:title=" ">
<polygon fill="white" stroke="black" points="358.5,-836.5 358.5,-866.5 474.5,-866.5 474.5,-836.5 358.5,-836.5"/>
<text text-anchor="start" x="366.5" y="-854.5" font-family="Helvetica,sans-Serif" font-size="10.00">ft::irc::client_handler</text>
<text text-anchor="middle" x="416.5" y="-843.5" font-family="Helvetica,sans-Serif" font-size="10.00">::on_inactive</text>
</a>
</g>
</g>
<!-- Node3&#45;&gt;Node9 -->
<g id="edge8" class="edge">
<title>Node3&#45;&gt;Node9</title>
<path fill="none" stroke="midnightblue" d="M584.47,-1003.36C571.26,-972.2 540.96,-910.59 496,-876.5 489.62,-871.66 482.27,-867.74 474.69,-864.57"/>
<polygon fill="midnightblue" stroke="midnightblue" points="581.26,-1004.75 588.29,-1012.67 587.74,-1002.09 581.26,-1004.75"/>
</g>
<!-- Node10 -->
<g id="node10" class="node">
<title>Node10</title>
<g id="a_node10"><a xlink:href="classft_1_1irc_1_1client__handler.html#a239d2ec2a936d74893455a83468669b3" target="_top" xlink:title=" ">
<polygon fill="white" stroke="black" points="0,-917.5 0,-947.5 116,-947.5 116,-917.5 0,-917.5"/>
<text text-anchor="start" x="8" y="-935.5" font-family="Helvetica,sans-Serif" font-size="10.00">ft::irc::client_handler</text>
<text text-anchor="middle" x="58" y="-924.5" font-family="Helvetica,sans-Serif" font-size="10.00">::on_read</text>
</a>
</g>
</g>
<!-- Node3&#45;&gt;Node10 -->
<g id="edge9" class="edge">
<title>Node3&#45;&gt;Node10</title>
<path fill="none" stroke="midnightblue" d="M588.24,-1002.99C579.53,-963.36 554.11,-873.31 496,-827.5 426.23,-772.49 389.3,-793.34 301,-783.5 235.19,-776.17 209.91,-751.38 152,-783.5 99.47,-812.64 72.71,-885.16 63.17,-917.05"/>
<polygon fill="midnightblue" stroke="midnightblue" points="584.85,-1003.88 590.3,-1012.96 591.7,-1002.46 584.85,-1003.88"/>
</g>
<!-- Node11 -->
<g id="node11" class="node">
<title>Node11</title>
<g id="a_node11"><a xlink:href="classft_1_1irc_1_1bot__handler.html#a0723185e483ae21fa0f2116ca05165fe" target="_top" xlink:title=" ">
<polygon fill="white" stroke="black" points="364,-1277.5 364,-1307.5 469,-1307.5 469,-1277.5 364,-1277.5"/>
<text text-anchor="start" x="372" y="-1295.5" font-family="Helvetica,sans-Serif" font-size="10.00">ft::irc::bot_handler</text>
<text text-anchor="middle" x="416.5" y="-1284.5" font-family="Helvetica,sans-Serif" font-size="10.00">::on_read</text>
</a>
</g>
</g>
<!-- Node3&#45;&gt;Node11 -->
<g id="edge10" class="edge">
<title>Node3&#45;&gt;Node11</title>
<path fill="none" stroke="midnightblue" d="M590.08,-1042.09C584.48,-1088.4 564.01,-1205.43 496,-1268.5 488.48,-1275.48 478.98,-1280.43 469.2,-1283.94"/>
<polygon fill="midnightblue" stroke="midnightblue" points="593.56,-1042.48 591.18,-1032.15 586.6,-1041.71 593.56,-1042.48"/>
</g>
<!-- Node12 -->
<g id="node12" class="node">
<title>Node12</title>
<g id="a_node12"><a xlink:href="classft_1_1irc_1_1bot__handler.html#ade7f7f56f6f75d9f88c5acb3b21595c0" target="_top" xlink:title=" ">
<polygon fill="white" stroke="black" points="360,-1228.5 360,-1258.5 473,-1258.5 473,-1228.5 360,-1228.5"/>
<text text-anchor="start" x="368" y="-1246.5" font-family="Helvetica,sans-Serif" font-size="10.00">ft::irc::bot_handler</text>
<text text-anchor="middle" x="416.5" y="-1235.5" font-family="Helvetica,sans-Serif" font-size="10.00">::on_read_complete</text>
</a>
</g>
</g>
<!-- Node3&#45;&gt;Node12 -->
<g id="edge11" class="edge">
<title>Node3&#45;&gt;Node12</title>
<path fill="none" stroke="midnightblue" d="M587.88,-1042.4C578.63,-1082.06 552.46,-1171.26 496,-1219.5 489.39,-1225.15 481.47,-1229.47 473.25,-1232.77"/>
<polygon fill="midnightblue" stroke="midnightblue" points="591.35,-1042.92 590.09,-1032.4 584.52,-1041.4 591.35,-1042.92"/>
</g>
<!-- Node13 -->
<g id="node13" class="node">
<title>Node13</title>
<g id="a_node13"><a xlink:href="classft_1_1irc_1_1client__handler.html#a843168d000d5190f84860c4d2ae09eea" target="_top" xlink:title=" ">
<polygon fill="white" stroke="black" points="358.5,-1179.5 358.5,-1209.5 474.5,-1209.5 474.5,-1179.5 358.5,-1179.5"/>
<text text-anchor="start" x="366.5" y="-1197.5" font-family="Helvetica,sans-Serif" font-size="10.00">ft::irc::client_handler</text>
<text text-anchor="middle" x="416.5" y="-1186.5" font-family="Helvetica,sans-Serif" font-size="10.00">::on_read_complete</text>
</a>
</g>
</g>
<!-- Node3&#45;&gt;Node13 -->
<g id="edge12" class="edge">
<title>Node3&#45;&gt;Node13</title>
<path fill="none" stroke="midnightblue" d="M584.78,-1041.51C571.84,-1073.03 541.7,-1136.04 496,-1170.5 489.63,-1175.3 482.29,-1179.16 474.71,-1182.24"/>
<polygon fill="midnightblue" stroke="midnightblue" points="588.07,-1042.7 588.51,-1032.11 581.56,-1040.12 588.07,-1042.7"/>
</g>
<!-- Node14 -->
<g id="node14" class="node">
<title>Node14</title>
<g id="a_node14"><a xlink:href="classft_1_1irc_1_1user.html#a1db558d6d694ca943224c2440fe36c50" target="_top" xlink:title=" ">
<polygon fill="white" stroke="red" points="367.5,-1130.5 367.5,-1160.5 465.5,-1160.5 465.5,-1130.5 367.5,-1130.5"/>
<text text-anchor="start" x="375.5" y="-1148.5" font-family="Helvetica,sans-Serif" font-size="10.00">ft::irc::user::send</text>
<text text-anchor="middle" x="416.5" y="-1137.5" font-family="Helvetica,sans-Serif" font-size="10.00">_message</text>
</a>
</g>
</g>
<!-- Node3&#45;&gt;Node14 -->
<g id="edge13" class="edge">
<title>Node3&#45;&gt;Node14</title>
<path fill="none" stroke="midnightblue" d="M579.2,-1040.44C562.49,-1062.6 531.19,-1099.99 496,-1121.5 486.76,-1127.15 476.09,-1131.56 465.65,-1134.97"/>
<polygon fill="midnightblue" stroke="midnightblue" points="582.14,-1042.36 585.25,-1032.23 576.5,-1038.21 582.14,-1042.36"/>
</g>
<!-- Node15 -->
<g id="node15" class="node">
<title>Node15</title>
<g id="a_node15"><a xlink:href="classft_1_1irc_1_1server.html#a773440405607167a9478a54fd8ab90f3" target="_top" xlink:title=" ">
<polygon fill="white" stroke="red" points="152,-1136 152,-1155 301,-1155 301,-1136 152,-1136"/>
<text text-anchor="middle" x="226.5" y="-1143" font-family="Helvetica,sans-Serif" font-size="10.00">ft::irc::server::broadcast_all</text>
</a>
</g>
</g>
<!-- Node14&#45;&gt;Node15 -->
<g id="edge14" class="edge">
<title>Node14&#45;&gt;Node15</title>
<path fill="none" stroke="midnightblue" d="M356.96,-1145.5C339.35,-1145.5 319.78,-1145.5 301.31,-1145.5"/>
<polygon fill="midnightblue" stroke="midnightblue" points="357.09,-1149 367.09,-1145.5 357.09,-1142 357.09,-1149"/>
</g>
<!-- Node17 -->
<g id="node16" class="node">
<title>Node17</title>
<g id="a_node16"><a xlink:href="classft_1_1irc_1_1processor__dictionary.html#a50bd8e9f89f6f6a911f5495272cd7d41" target="_top" xlink:title=" ">
<polygon fill="white" stroke="black" points="169.5,-1086.5 169.5,-1116.5 283.5,-1116.5 283.5,-1086.5 169.5,-1086.5"/>
<text text-anchor="start" x="177.5" y="-1104.5" font-family="Helvetica,sans-Serif" font-size="10.00">ft::irc::processor</text>
<text text-anchor="middle" x="226.5" y="-1093.5" font-family="Helvetica,sans-Serif" font-size="10.00">_dictionary::execute</text>
</a>
</g>
</g>
<!-- Node14&#45;&gt;Node17 -->
<g id="edge15" class="edge">
<title>Node14&#45;&gt;Node17</title>
<path fill="none" stroke="midnightblue" d="M357.28,-1131.87C333.87,-1126.39 306.97,-1120.1 283.75,-1114.67"/>
<polygon fill="midnightblue" stroke="midnightblue" points="356.55,-1135.3 367.09,-1134.17 358.15,-1128.48 356.55,-1135.3"/>
</g>
<!-- Node18 -->
<g id="node17" class="node">
<title>Node18</title>
<g id="a_node17"><a xlink:href="classft_1_1irc_1_1processor__join.html#a7005b0403c1e6e10aa6f6f05339df357" target="_top" xlink:title=" ">
<polygon fill="white" stroke="black" points="179,-1037.5 179,-1067.5 274,-1067.5 274,-1037.5 179,-1037.5"/>
<text text-anchor="start" x="187" y="-1055.5" font-family="Helvetica,sans-Serif" font-size="10.00">ft::irc::processor</text>
<text text-anchor="middle" x="226.5" y="-1044.5" font-family="Helvetica,sans-Serif" font-size="10.00">_join::execute</text>
</a>
</g>
</g>
<!-- Node14&#45;&gt;Node18 -->
<g id="edge17" class="edge">
<title>Node14&#45;&gt;Node18</title>
<path fill="none" stroke="midnightblue" d="M357.51,-1132.09C350.3,-1129.19 343.27,-1125.7 337,-1121.5 316.02,-1107.42 321.76,-1091.9 301,-1077.5 292.92,-1071.89 283.47,-1067.45 274.09,-1063.96"/>
<polygon fill="midnightblue" stroke="midnightblue" points="356.81,-1135.56 367.4,-1135.67 359.19,-1128.97 356.81,-1135.56"/>
</g>
<!-- Node19 -->
<g id="node18" class="node">
<title>Node19</title>
<g id="a_node18"><a xlink:href="classft_1_1irc_1_1processor__part.html#a4075107cb360cd04c0a11a9904104ad0" target="_top" xlink:title=" ">
<polygon fill="white" stroke="black" points="179,-988.5 179,-1018.5 274,-1018.5 274,-988.5 179,-988.5"/>
<text text-anchor="start" x="187" y="-1006.5" font-family="Helvetica,sans-Serif" font-size="10.00">ft::irc::processor</text>
<text text-anchor="middle" x="226.5" y="-995.5" font-family="Helvetica,sans-Serif" font-size="10.00">_part::execute</text>
</a>
</g>
</g>
<!-- Node14&#45;&gt;Node19 -->
<g id="edge18" class="edge">
<title>Node14&#45;&gt;Node19</title>
<path fill="none" stroke="midnightblue" d="M357.96,-1134.67C350.29,-1131.38 343.01,-1127.09 337,-1121.5 304.54,-1091.32 332.98,-1059.18 301,-1028.5 293.51,-1021.32 283.88,-1016.19 274.07,-1012.54"/>
<polygon fill="midnightblue" stroke="midnightblue" points="356.86,-1137.99 367.45,-1138.21 359.31,-1131.43 356.86,-1137.99"/>
</g>
<!-- Node20 -->
<g id="node19" class="node">
<title>Node20</title>
<g id="a_node19"><a xlink:href="classft_1_1irc_1_1processor__mode.html#ad013987a789be47379c13f61364135a6" target="_top" xlink:title=" ">
<polygon fill="white" stroke="black" points="179,-939.5 179,-969.5 274,-969.5 274,-939.5 179,-939.5"/>
<text text-anchor="start" x="187" y="-957.5" font-family="Helvetica,sans-Serif" font-size="10.00">ft::irc::processor</text>
<text text-anchor="middle" x="226.5" y="-946.5" font-family="Helvetica,sans-Serif" font-size="10.00">_mode::execute</text>
</a>
</g>
</g>
<!-- Node14&#45;&gt;Node20 -->
<g id="edge19" class="edge">
<title>Node14&#45;&gt;Node20</title>
<path fill="none" stroke="midnightblue" d="M357.61,-1135.43C349.92,-1132.04 342.73,-1127.52 337,-1121.5 292.09,-1074.36 345.17,-1027.33 301,-979.5 293.87,-971.78 284.26,-966.44 274.34,-962.75"/>
<polygon fill="midnightblue" stroke="midnightblue" points="356.58,-1138.78 367.17,-1139.04 359.05,-1132.23 356.58,-1138.78"/>
</g>
<!-- Node21 -->
<g id="node20" class="node">
<title>Node21</title>
<g id="a_node20"><a xlink:href="classft_1_1irc_1_1processor__topic.html#ae4eec2a7267b66791a72bbab1d4842c0" target="_top" xlink:title=" ">
<polygon fill="white" stroke="black" points="179,-890.5 179,-920.5 274,-920.5 274,-890.5 179,-890.5"/>
<text text-anchor="start" x="187" y="-908.5" font-family="Helvetica,sans-Serif" font-size="10.00">ft::irc::processor</text>
<text text-anchor="middle" x="226.5" y="-897.5" font-family="Helvetica,sans-Serif" font-size="10.00">_topic::execute</text>
</a>
</g>
</g>
<!-- Node14&#45;&gt;Node21 -->
<g id="edge20" class="edge">
<title>Node14&#45;&gt;Node21</title>
<path fill="none" stroke="midnightblue" d="M357.81,-1135.98C349.96,-1132.52 342.67,-1127.83 337,-1121.5 279.38,-1057.14 357.61,-995.75 301,-930.5 294.02,-922.46 284.35,-917 274.31,-913.29"/>
<polygon fill="midnightblue" stroke="midnightblue" points="356.62,-1139.27 367.21,-1139.51 359.08,-1132.72 356.62,-1139.27"/>
</g>
<!-- Node22 -->
<g id="node21" class="node">
<title>Node22</title>
<g id="a_node21"><a xlink:href="classft_1_1irc_1_1processor__invite.html#a558fbe35293f4a0783af9a50f7146eeb" target="_top" xlink:title=" ">
<polygon fill="white" stroke="black" points="179,-841.5 179,-871.5 274,-871.5 274,-841.5 179,-841.5"/>
<text text-anchor="start" x="187" y="-859.5" font-family="Helvetica,sans-Serif" font-size="10.00">ft::irc::processor</text>
<text text-anchor="middle" x="226.5" y="-848.5" font-family="Helvetica,sans-Serif" font-size="10.00">_invite::execute</text>
</a>
</g>
</g>
<!-- Node14&#45;&gt;Node22 -->
<g id="edge21" class="edge">
<title>Node14&#45;&gt;Node22</title>
<path fill="none" stroke="midnightblue" d="M357.88,-1136.29C349.95,-1132.79 342.62,-1128.02 337,-1121.5 266.57,-1039.81 370.15,-964.28 301,-881.5 294.09,-873.22 284.32,-867.68 274.15,-863.97"/>
<polygon fill="midnightblue" stroke="midnightblue" points="356.8,-1139.62 367.39,-1139.83 359.25,-1133.06 356.8,-1139.62"/>
</g>
<!-- Node23 -->
<g id="node22" class="node">
<title>Node23</title>
<g id="a_node22"><a xlink:href="classft_1_1irc_1_1processor__kick.html#ac453ac8376e577bb0a2b4f074fe9be1b" target="_top" xlink:title=" ">
<polygon fill="white" stroke="black" points="179,-792.5 179,-822.5 274,-822.5 274,-792.5 179,-792.5"/>
<text text-anchor="start" x="187" y="-810.5" font-family="Helvetica,sans-Serif" font-size="10.00">ft::irc::processor</text>
<text text-anchor="middle" x="226.5" y="-799.5" font-family="Helvetica,sans-Serif" font-size="10.00">_kick::execute</text>
</a>
</g>
</g>
<!-- Node14&#45;&gt;Node23 -->
<g id="edge22" class="edge">
<title>Node14&#45;&gt;Node23</title>
<path fill="none" stroke="midnightblue" d="M357.74,-1136.41C349.83,-1132.9 342.54,-1128.09 337,-1121.5 253.71,-1022.42 382.73,-932.87 301,-832.5 294.19,-824.14 284.46,-818.56 274.3,-814.85"/>
<polygon fill="midnightblue" stroke="midnightblue" points="356.65,-1139.74 367.24,-1139.97 359.1,-1133.19 356.65,-1139.74"/>
</g>
<!-- Node24 -->
<g id="node23" class="node">
<title>Node24</title>
<g id="a_node23"><a xlink:href="classft_1_1irc_1_1processor__ping.html#a4402a5267561a504a1fb35b233fa63e5" target="_top" xlink:title=" ">
<polygon fill="white" stroke="black" points="179,-1566.5 179,-1596.5 274,-1596.5 274,-1566.5 179,-1566.5"/>
<text text-anchor="start" x="187" y="-1584.5" font-family="Helvetica,sans-Serif" font-size="10.00">ft::irc::processor</text>
<text text-anchor="middle" x="226.5" y="-1573.5" font-family="Helvetica,sans-Serif" font-size="10.00">_ping::execute</text>
</a>
</g>
</g>
<!-- Node14&#45;&gt;Node24 -->
<g id="edge23" class="edge">
<title>Node14&#45;&gt;Node24</title>
<path fill="none" stroke="midnightblue" d="M358.07,-1154.95C349.97,-1158.6 342.54,-1163.62 337,-1170.5 282.85,-1237.79 354.9,-1490.01 301,-1557.5 294.21,-1566 284.36,-1571.52 274.07,-1575.1"/>
<polygon fill="midnightblue" stroke="midnightblue" points="359.32,-1158.22 367.42,-1151.38 356.83,-1151.68 359.32,-1158.22"/>
</g>
<!-- Node25 -->
<g id="node24" class="node">
<title>Node25</title>
<g id="a_node24"><a xlink:href="classft_1_1irc_1_1processor__kill.html#a3f41c93c4c3a85ccb4b034c5a185208a" target="_top" xlink:title=" ">
<polygon fill="white" stroke="black" points="179,-1517.5 179,-1547.5 274,-1547.5 274,-1517.5 179,-1517.5"/>
<text text-anchor="start" x="187" y="-1535.5" font-family="Helvetica,sans-Serif" font-size="10.00">ft::irc::processor</text>
<text text-anchor="middle" x="226.5" y="-1524.5" font-family="Helvetica,sans-Serif" font-size="10.00">_kill::execute</text>
</a>
</g>
</g>
<!-- Node14&#45;&gt;Node25 -->
<g id="edge24" class="edge">
<title>Node14&#45;&gt;Node25</title>
<path fill="none" stroke="midnightblue" d="M357.6,-1155.26C349.71,-1158.88 342.46,-1163.81 337,-1170.5 241.5,-1287.56 396.07,-1391.09 301,-1508.5 294.24,-1516.85 284.53,-1522.32 274.37,-1525.9"/>
<polygon fill="midnightblue" stroke="midnightblue" points="359.03,-1158.46 367.09,-1151.58 356.5,-1151.93 359.03,-1158.46"/>
</g>
<!-- Node26 -->
<g id="node25" class="node">
<title>Node26</title>
<g id="a_node25"><a xlink:href="classft_1_1irc_1_1processor__away.html#aa27e728b610738f26ae7264183da2808" target="_top" xlink:title=" ">
<polygon fill="white" stroke="black" points="179,-1468.5 179,-1498.5 274,-1498.5 274,-1468.5 179,-1468.5"/>
<text text-anchor="start" x="187" y="-1486.5" font-family="Helvetica,sans-Serif" font-size="10.00">ft::irc::processor</text>
<text text-anchor="middle" x="226.5" y="-1475.5" font-family="Helvetica,sans-Serif" font-size="10.00">_away::execute</text>
</a>
</g>
</g>
<!-- Node14&#45;&gt;Node26 -->
<g id="edge25" class="edge">
<title>Node14&#45;&gt;Node26</title>
<path fill="none" stroke="midnightblue" d="M357.71,-1155.35C349.8,-1158.96 342.52,-1163.86 337,-1170.5 254.29,-1270.06 383.35,-1359.64 301,-1459.5 294.17,-1467.79 284.43,-1473.24 274.27,-1476.81"/>
<polygon fill="midnightblue" stroke="midnightblue" points="359.14,-1158.55 367.21,-1151.68 356.62,-1152.02 359.14,-1158.55"/>
</g>
<!-- Node27 -->
<g id="node26" class="node">
<title>Node27</title>
<g id="a_node26"><a xlink:href="classft_1_1irc_1_1processor__cap.html#a4998cdde699dff092c9437b7416fdd14" target="_top" xlink:title=" ">
<polygon fill="white" stroke="black" points="179,-1419.5 179,-1449.5 274,-1449.5 274,-1419.5 179,-1419.5"/>
<text text-anchor="start" x="187" y="-1437.5" font-family="Helvetica,sans-Serif" font-size="10.00">ft::irc::processor</text>
<text text-anchor="middle" x="226.5" y="-1426.5" font-family="Helvetica,sans-Serif" font-size="10.00">_cap::execute</text>
</a>
</g>
</g>
<!-- Node14&#45;&gt;Node27 -->
<g id="edge26" class="edge">
<title>Node14&#45;&gt;Node27</title>
<path fill="none" stroke="midnightblue" d="M357.85,-1155.47C349.93,-1159.06 342.6,-1163.93 337,-1170.5 267.05,-1252.6 370.65,-1328.15 301,-1410.5 294.07,-1418.7 284.29,-1424.12 274.12,-1427.69"/>
<polygon fill="midnightblue" stroke="midnightblue" points="359.29,-1158.67 367.36,-1151.81 356.77,-1152.13 359.29,-1158.67"/>
</g>
<!-- Node28 -->
<g id="node27" class="node">
<title>Node28</title>
<g id="a_node27"><a xlink:href="classft_1_1irc_1_1processor__who.html#afb5ab4f978577c99dc8d5f3ad0333940" target="_top" xlink:title=" ">
<polygon fill="white" stroke="black" points="179,-1370.5 179,-1400.5 274,-1400.5 274,-1370.5 179,-1370.5"/>
<text text-anchor="start" x="187" y="-1388.5" font-family="Helvetica,sans-Serif" font-size="10.00">ft::irc::processor</text>
<text text-anchor="middle" x="226.5" y="-1377.5" font-family="Helvetica,sans-Serif" font-size="10.00">_who::execute</text>
</a>
</g>
</g>
<!-- Node14&#45;&gt;Node28 -->
<g id="edge27" class="edge">
<title>Node14&#45;&gt;Node28</title>
<path fill="none" stroke="midnightblue" d="M357.78,-1155.78C349.94,-1159.34 342.65,-1164.11 337,-1170.5 279.76,-1235.19 358.01,-1296.6 301,-1361.5 294,-1369.47 284.32,-1374.8 274.29,-1378.37"/>
<polygon fill="midnightblue" stroke="midnightblue" points="359.12,-1159.02 367.18,-1152.14 356.59,-1152.49 359.12,-1159.02"/>
</g>
<!-- Node29 -->
<g id="node28" class="node">
<title>Node29</title>
<g id="a_node28"><a xlink:href="classft_1_1irc_1_1processor__whois.html#ab3ab1120535d17e7fb21f01fd8bad8fd" target="_top" xlink:title=" ">
<polygon fill="white" stroke="black" points="179,-1321.5 179,-1351.5 274,-1351.5 274,-1321.5 179,-1321.5"/>
<text text-anchor="start" x="187" y="-1339.5" font-family="Helvetica,sans-Serif" font-size="10.00">ft::irc::processor</text>
<text text-anchor="middle" x="226.5" y="-1328.5" font-family="Helvetica,sans-Serif" font-size="10.00">_whois::execute</text>
</a>
</g>
</g>
<!-- Node14&#45;&gt;Node29 -->
<g id="edge28" class="edge">
<title>Node14&#45;&gt;Node29</title>
<path fill="none" stroke="midnightblue" d="M357.59,-1156.34C349.9,-1159.83 342.72,-1164.43 337,-1170.5 292.36,-1217.9 345.46,-1264.94 301,-1312.5 293.85,-1320.15 284.23,-1325.36 274.32,-1328.92"/>
<polygon fill="midnightblue" stroke="midnightblue" points="359.1,-1159.51 367.15,-1152.61 356.56,-1152.98 359.1,-1159.51"/>
</g>
<!-- Node30 -->
<g id="node29" class="node">
<title>Node30</title>
<g id="a_node29"><a xlink:href="classft_1_1irc_1_1processor__pass.html#a8b0f8638123bb81ce8f4e493e43b45a0" target="_top" xlink:title=" ">
<polygon fill="white" stroke="black" points="179,-1272.5 179,-1302.5 274,-1302.5 274,-1272.5 179,-1272.5"/>
<text text-anchor="start" x="187" y="-1290.5" font-family="Helvetica,sans-Serif" font-size="10.00">ft::irc::processor</text>
<text text-anchor="middle" x="226.5" y="-1279.5" font-family="Helvetica,sans-Serif" font-size="10.00">_pass::execute</text>
</a>
</g>
</g>
<!-- Node14&#45;&gt;Node30 -->
<g id="edge29" class="edge">
<title>Node14&#45;&gt;Node30</title>
<path fill="none" stroke="midnightblue" d="M357.94,-1157.1C350.27,-1160.49 343,-1164.86 337,-1170.5 304.72,-1200.87 333.17,-1233.01 301,-1263.5 293.5,-1270.61 283.86,-1275.61 274.05,-1279.14"/>
<polygon fill="midnightblue" stroke="midnightblue" points="359.36,-1160.31 367.43,-1153.45 356.84,-1153.78 359.36,-1160.31"/>
</g>
<!-- Node31 -->
<g id="node30" class="node">
<title>Node31</title>
<g id="a_node30"><a xlink:href="classft_1_1irc_1_1processor__nick.html#a7a2f0f709488328c04b6ccf0c41ce78e" target="_top" xlink:title=" ">
<polygon fill="white" stroke="black" points="179,-1223.5 179,-1253.5 274,-1253.5 274,-1223.5 179,-1223.5"/>
<text text-anchor="start" x="187" y="-1241.5" font-family="Helvetica,sans-Serif" font-size="10.00">ft::irc::processor</text>
<text text-anchor="middle" x="226.5" y="-1230.5" font-family="Helvetica,sans-Serif" font-size="10.00">_nick::execute</text>
</a>
</g>
</g>
<!-- Node14&#45;&gt;Node31 -->
<g id="edge30" class="edge">
<title>Node14&#45;&gt;Node31</title>
<path fill="none" stroke="midnightblue" d="M358,-1159.5C350.61,-1162.52 343.41,-1166.15 337,-1170.5 316.1,-1184.7 321.85,-1200.23 301,-1214.5 292.91,-1220.04 283.46,-1224.37 274.08,-1227.73"/>
<polygon fill="midnightblue" stroke="midnightblue" points="359.25,-1162.77 367.4,-1156 356.8,-1156.21 359.25,-1162.77"/>
</g>
<!-- Node32 -->
<g id="node31" class="node">
<title>Node32</title>
<g id="a_node31"><a xlink:href="classft_1_1irc_1_1processor__user.html#aa42b3fdd743060d5f9afaaff5e46e28f" target="_top" xlink:title=" ">
<polygon fill="white" stroke="black" points="179,-1174.5 179,-1204.5 274,-1204.5 274,-1174.5 179,-1174.5"/>
<text text-anchor="start" x="187" y="-1192.5" font-family="Helvetica,sans-Serif" font-size="10.00">ft::irc::processor</text>
<text text-anchor="middle" x="226.5" y="-1181.5" font-family="Helvetica,sans-Serif" font-size="10.00">_user::execute</text>
</a>
</g>
</g>
<!-- Node14&#45;&gt;Node32 -->
<g id="edge31" class="edge">
<title>Node14&#45;&gt;Node32</title>
<path fill="none" stroke="midnightblue" d="M357.1,-1159.17C330.4,-1165.42 299.22,-1172.71 274.13,-1178.59"/>
<polygon fill="midnightblue" stroke="midnightblue" points="358.15,-1162.52 367.09,-1156.83 356.55,-1155.7 358.15,-1162.52"/>
</g>
<!-- Node17&#45;&gt;Node10 -->
<g id="edge16" class="edge">
<title>Node17&#45;&gt;Node10</title>
<path fill="none" stroke="midnightblue" d="M160.27,-1083.05C157.38,-1081.36 154.6,-1079.51 152,-1077.5 106.1,-1042.02 76.36,-977.04 64.65,-947.65"/>
<polygon fill="midnightblue" stroke="midnightblue" points="158.76,-1086.21 169.25,-1087.69 161.98,-1079.99 158.76,-1086.21"/>
</g>
<!-- Node44 -->
<g id="node33" class="node">
<title>Node44</title>
<g id="a_node33"><a xlink:href="bot_8cpp.html#a0ddf1224851353fc92bfbff6f499fa97" target="_top" xlink:title=" ">
<polygon fill="white" stroke="black" points="206,-143 206,-162 247,-162 247,-143 206,-143"/>
<text text-anchor="middle" x="226.5" y="-150" font-family="Helvetica,sans-Serif" font-size="10.00">main</text>
</a>
</g>
</g>
<!-- Node43&#45;&gt;Node44 -->
<g id="edge33" class="edge">
<title>Node43&#45;&gt;Node44</title>
<path fill="none" stroke="midnightblue" d="M524.72,-644.96C467.09,-638.3 385.88,-619.72 337,-568.5 277.57,-506.24 236.39,-218.84 228.77,-162.21"/>
<polygon fill="midnightblue" stroke="midnightblue" points="524.52,-648.45 534.83,-646.03 525.25,-641.49 524.52,-648.45"/>
</g>
<!-- Node45 -->
<g id="node34" class="node">
<title>Node45</title>
<g id="a_node34"><a xlink:href="classft_1_1serv_1_1event__channel__base.html#a6c98e1bb4e38623ccd214e7f82459745" target="_top" xlink:title=" ">
<polygon fill="white" stroke="black" points="353,-704.5 353,-734.5 480,-734.5 480,-704.5 353,-704.5"/>
<text text-anchor="start" x="361" y="-722.5" font-family="Helvetica,sans-Serif" font-size="10.00">ft::serv::event_channel</text>
<text text-anchor="middle" x="416.5" y="-711.5" font-family="Helvetica,sans-Serif" font-size="10.00">_base::trigger_read</text>
</a>
</g>
</g>
<!-- Node43&#45;&gt;Node45 -->
<g id="edge34" class="edge">
<title>Node43&#45;&gt;Node45</title>
<path fill="none" stroke="midnightblue" d="M565.74,-662.77C546.72,-672.74 520.22,-685.94 496,-695.5 487.91,-698.69 479.22,-701.73 470.68,-704.49"/>
<polygon fill="midnightblue" stroke="midnightblue" points="567.49,-665.8 574.68,-658.02 564.21,-659.61 567.49,-665.8"/>
</g>
<!-- Node46 -->
<g id="node35" class="node">
<title>Node46</title>
<g id="a_node35"><a xlink:href="classft_1_1serv_1_1event__channel__base.html#af388c3a275fd09564efdd71de019afbf" target="_top" xlink:title=" ">
<polygon fill="white" stroke="black" points="353,-655.5 353,-685.5 480,-685.5 480,-655.5 353,-655.5"/>
<text text-anchor="start" x="361" y="-673.5" font-family="Helvetica,sans-Serif" font-size="10.00">ft::serv::event_channel</text>
<text text-anchor="middle" x="416.5" y="-662.5" font-family="Helvetica,sans-Serif" font-size="10.00">_base::trigger_write</text>
</a>
</g>
</g>
<!-- Node43&#45;&gt;Node46 -->
<g id="edge35" class="edge">
<title>Node43&#45;&gt;Node46</title>
<path fill="none" stroke="midnightblue" d="M524.85,-656.97C510.17,-658.82 494.69,-660.77 480.19,-662.6"/>
<polygon fill="midnightblue" stroke="midnightblue" points="525.38,-660.43 534.86,-655.7 524.5,-653.48 525.38,-660.43"/>
</g>
<!-- Node48 -->
<g id="node37" class="node">
<title>Node48</title>
<g id="a_node37"><a xlink:href="main_8cpp.html#a0ddf1224851353fc92bfbff6f499fa97" target="_top" xlink:title=" ">
<polygon fill="white" stroke="black" points="206,-557 206,-576 247,-576 247,-557 206,-557"/>
<text text-anchor="middle" x="226.5" y="-564" font-family="Helvetica,sans-Serif" font-size="10.00">main</text>
</a>
</g>
</g>
<!-- Node47&#45;&gt;Node48 -->
<g id="edge37" class="edge">
<title>Node47&#45;&gt;Node48</title>
<path fill="none" stroke="midnightblue" d="M527.44,-584.6C443.01,-579.51 299.72,-570.86 247.39,-567.7"/>
<polygon fill="midnightblue" stroke="midnightblue" points="527.24,-588.1 537.43,-585.21 527.66,-581.11 527.24,-588.1"/>
</g>
<!-- Node50 -->
<g id="node39" class="node">
<title>Node50</title>
<g id="a_node39"><a xlink:href="classft_1_1serv_1_1event__worker.html#ae8652d54965b7a2d1fb24e8dacb91aa4" target="_top" xlink:title=" ">
<polygon fill="white" stroke="black" points="355.5,-480.5 355.5,-510.5 477.5,-510.5 477.5,-480.5 355.5,-480.5"/>
<text text-anchor="start" x="363.5" y="-498.5" font-family="Helvetica,sans-Serif" font-size="10.00">ft::serv::event_worker</text>
<text text-anchor="middle" x="416.5" y="-487.5" font-family="Helvetica,sans-Serif" font-size="10.00">::add_channel</text>
</a>
</g>
</g>
<!-- Node49&#45;&gt;Node50 -->
<g id="edge39" class="edge">
<title>Node49&#45;&gt;Node50</title>
<path fill="none" stroke="midnightblue" d="M582.18,-367.06C567.13,-393.77 535.87,-442.86 496,-470.5 490.36,-474.41 484.07,-477.74 477.58,-480.55"/>
<polygon fill="midnightblue" stroke="midnightblue" points="585.41,-368.47 587.14,-358.01 579.27,-365.1 585.41,-368.47"/>
</g>
<!-- Node51 -->
<g id="node40" class="node">
<title>Node51</title>
<g id="a_node40"><a xlink:href="classft_1_1serv_1_1event__channel__base.html#a9589a9878558c0ca96afc4fdde596299" target="_top" xlink:title=" ">
<polygon fill="white" stroke="black" points="341,-431.5 341,-461.5 492,-461.5 492,-431.5 341,-431.5"/>
<text text-anchor="start" x="349" y="-449.5" font-family="Helvetica,sans-Serif" font-size="10.00">ft::serv::event_channel</text>
<text text-anchor="middle" x="416.5" y="-438.5" font-family="Helvetica,sans-Serif" font-size="10.00">_base::event_channel_base</text>
</a>
</g>
</g>
<!-- Node49&#45;&gt;Node51 -->
<g id="edge40" class="edge">
<title>Node49&#45;&gt;Node51</title>
<path fill="none" stroke="midnightblue" d="M574.31,-364.95C555.96,-381.27 525.81,-406.01 496,-421.5 488.77,-425.26 480.86,-428.58 472.94,-431.48"/>
<polygon fill="midnightblue" stroke="midnightblue" points="576.81,-367.41 581.87,-358.11 572.11,-362.22 576.81,-367.41"/>
</g>
<!-- Node52 -->
<g id="node41" class="node">
<title>Node52</title>
<g id="a_node41"><a xlink:href="classft_1_1serv_1_1event__worker.html#a0f1852580e219d4f0703969f0a7d117e" target="_top" xlink:title=" ">
<polygon fill="white" stroke="black" points="355.5,-382.5 355.5,-412.5 477.5,-412.5 477.5,-382.5 355.5,-382.5"/>
<text text-anchor="start" x="363.5" y="-400.5" font-family="Helvetica,sans-Serif" font-size="10.00">ft::serv::event_worker</text>
<text text-anchor="middle" x="416.5" y="-389.5" font-family="Helvetica,sans-Serif" font-size="10.00">::event_worker</text>
</a>
</g>
</g>
<!-- Node49&#45;&gt;Node52 -->
<g id="edge41" class="edge">
<title>Node49&#45;&gt;Node52</title>
<path fill="none" stroke="midnightblue" d="M548.28,-360.78C524.86,-367.35 495.81,-375.51 471.05,-382.46"/>
<polygon fill="midnightblue" stroke="midnightblue" points="549.26,-364.14 557.94,-358.06 547.37,-357.4 549.26,-364.14"/>
</g>
<!-- Node53 -->
<g id="node42" class="node">
<title>Node53</title>
<g id="a_node42"><a xlink:href="classft_1_1serv_1_1event__worker.html#ad207c630e203c7737687a31ea0230f8c" target="_top" xlink:title=" ">
<polygon fill="white" stroke="black" points="355.5,-88.5 355.5,-118.5 477.5,-118.5 477.5,-88.5 355.5,-88.5"/>
<text text-anchor="start" x="363.5" y="-106.5" font-family="Helvetica,sans-Serif" font-size="10.00">ft::serv::event_worker</text>
<text text-anchor="middle" x="416.5" y="-95.5" font-family="Helvetica,sans-Serif" font-size="10.00">::process_events</text>
</a>
</g>
</g>
<!-- Node49&#45;&gt;Node53 -->
<g id="edge42" class="edge">
<title>Node49&#45;&gt;Node53</title>
<path fill="none" stroke="midnightblue" d="M589.1,-328.89C581.71,-285.94 558.16,-183 496,-127.5 490.68,-122.75 484.45,-118.95 477.86,-115.89"/>
<polygon fill="midnightblue" stroke="midnightblue" points="585.66,-329.57 590.71,-338.88 592.57,-328.46 585.66,-329.57"/>
</g>
<!-- Node54 -->
<g id="node43" class="node">
<title>Node54</title>
<g id="a_node43"><a xlink:href="classft_1_1serv_1_1event__worker.html#a7268987f90a6ac08d16c867cb5f4eb50" target="_top" xlink:title=" ">
<polygon fill="white" stroke="black" points="355.5,-333.5 355.5,-363.5 477.5,-363.5 477.5,-333.5 355.5,-333.5"/>
<text text-anchor="start" x="363.5" y="-351.5" font-family="Helvetica,sans-Serif" font-size="10.00">ft::serv::event_worker</text>
<text text-anchor="middle" x="416.5" y="-340.5" font-family="Helvetica,sans-Serif" font-size="10.00">::remove_channel</text>
</a>
</g>
</g>
<!-- Node49&#45;&gt;Node54 -->
<g id="edge43" class="edge">
<title>Node49&#45;&gt;Node54</title>
<path fill="none" stroke="midnightblue" d="M523.98,-348.5C508.73,-348.5 492.66,-348.5 477.75,-348.5"/>
<polygon fill="midnightblue" stroke="midnightblue" points="524.38,-352 534.38,-348.5 524.38,-345 524.38,-352"/>
</g>
<!-- Node55 -->
<g id="node44" class="node">
<title>Node55</title>
<g id="a_node44"><a xlink:href="classft_1_1serv_1_1bootstrap.html#acd923d6b838022038f437dad3e58abf0" target="_top" xlink:title=" ">
<polygon fill="white" stroke="black" points="365.5,-137.5 365.5,-167.5 467.5,-167.5 467.5,-137.5 365.5,-137.5"/>
<text text-anchor="start" x="373.5" y="-155.5" font-family="Helvetica,sans-Serif" font-size="10.00">ft::serv::bootstrap</text>
<text text-anchor="middle" x="416.5" y="-144.5" font-family="Helvetica,sans-Serif" font-size="10.00">::start_client</text>
</a>
</g>
</g>
<!-- Node49&#45;&gt;Node55 -->
<g id="edge44" class="edge">
<title>Node49&#45;&gt;Node55</title>
<path fill="none" stroke="midnightblue" d="M586.44,-328.92C575.31,-293.25 546.88,-217.58 496,-176.5 487.79,-169.88 477.77,-165.08 467.67,-161.6"/>
<polygon fill="midnightblue" stroke="midnightblue" points="583.13,-330.05 589.35,-338.63 589.83,-328.04 583.13,-330.05"/>
</g>
<!-- Node56 -->
<g id="node45" class="node">
<title>Node56</title>
<g id="a_node45"><a xlink:href="classft_1_1serv_1_1bootstrap.html#a61642849334859472e690b615dc6fdeb" target="_top" xlink:title=" ">
<polygon fill="white" stroke="black" points="365.5,-529.5 365.5,-559.5 467.5,-559.5 467.5,-529.5 365.5,-529.5"/>
<text text-anchor="start" x="373.5" y="-547.5" font-family="Helvetica,sans-Serif" font-size="10.00">ft::serv::bootstrap</text>
<text text-anchor="middle" x="416.5" y="-536.5" font-family="Helvetica,sans-Serif" font-size="10.00">::start_server</text>
</a>
</g>
</g>
<!-- Node49&#45;&gt;Node56 -->
<g id="edge46" class="edge">
<title>Node49&#45;&gt;Node56</title>
<path fill="none" stroke="midnightblue" d="M586.36,-367.91C575.1,-403.28 546.47,-478.37 496,-519.5 487.8,-526.19 477.77,-531.1 467.67,-534.7"/>
<polygon fill="midnightblue" stroke="midnightblue" points="589.73,-368.87 589.31,-358.29 583.03,-366.83 589.73,-368.87"/>
</g>
<!-- Node57 -->
<g id="node46" class="node">
<title>Node57</title>
<g id="a_node46"><a xlink:href="classft_1_1serv_1_1event__worker.html#af201dee7d75d0d570759255454b16d36" target="_top" xlink:title=" ">
<polygon fill="white" stroke="black" points="355.5,-284.5 355.5,-314.5 477.5,-314.5 477.5,-284.5 355.5,-284.5"/>
<text text-anchor="start" x="363.5" y="-302.5" font-family="Helvetica,sans-Serif" font-size="10.00">ft::serv::event_worker</text>
<text text-anchor="middle" x="416.5" y="-291.5" font-family="Helvetica,sans-Serif" font-size="10.00">::watch_ability</text>
</a>
</g>
</g>
<!-- Node49&#45;&gt;Node57 -->
<g id="edge48" class="edge">
<title>Node49&#45;&gt;Node57</title>
<path fill="none" stroke="midnightblue" d="M548.28,-336.22C524.86,-329.65 495.81,-321.49 471.05,-314.54"/>
<polygon fill="midnightblue" stroke="midnightblue" points="547.37,-339.6 557.94,-338.94 549.26,-332.86 547.37,-339.6"/>
</g>
<!-- Node58 -->
<g id="node47" class="node">
<title>Node58</title>
<g id="a_node47"><a xlink:href="classft_1_1serv_1_1event__channel__base.html#a2e000442bfc11477841b18812af8f9cf" target="_top" xlink:title=" ">
<polygon fill="white" stroke="black" points="337,-235.5 337,-265.5 496,-265.5 496,-235.5 337,-235.5"/>
<text text-anchor="start" x="345" y="-253.5" font-family="Helvetica,sans-Serif" font-size="10.00">ft::serv::event_channel</text>
<text text-anchor="middle" x="416.5" y="-242.5" font-family="Helvetica,sans-Serif" font-size="10.00">_base::~event_channel_base</text>
</a>
</g>
</g>
<!-- Node49&#45;&gt;Node58 -->
<g id="edge49" class="edge">
<title>Node49&#45;&gt;Node58</title>
<path fill="none" stroke="midnightblue" d="M574.69,-332.01C556.42,-315.4 526.16,-290.07 496,-274.5 489.54,-271.17 482.54,-268.21 475.47,-265.61"/>
<polygon fill="midnightblue" stroke="midnightblue" points="572.48,-334.73 582.19,-338.96 577.23,-329.59 572.48,-334.73"/>
</g>
<!-- Node59 -->
<g id="node48" class="node">
<title>Node59</title>
<g id="a_node48"><a xlink:href="classft_1_1serv_1_1event__worker.html#ae01991e7942bc0607e9aad83de156833" target="_top" xlink:title=" ">
<polygon fill="white" stroke="black" points="355.5,-186.5 355.5,-216.5 477.5,-216.5 477.5,-186.5 355.5,-186.5"/>
<text text-anchor="start" x="363.5" y="-204.5" font-family="Helvetica,sans-Serif" font-size="10.00">ft::serv::event_worker</text>
<text text-anchor="middle" x="416.5" y="-193.5" font-family="Helvetica,sans-Serif" font-size="10.00">::~event_worker</text>
</a>
</g>
</g>
<!-- Node49&#45;&gt;Node59 -->
<g id="edge50" class="edge">
<title>Node49&#45;&gt;Node59</title>
<path fill="none" stroke="midnightblue" d="M582.26,-329.72C567.32,-302.72 536.18,-253.13 496,-225.5 490.36,-221.62 484.08,-218.36 477.59,-215.61"/>
<polygon fill="midnightblue" stroke="midnightblue" points="579.37,-331.72 587.19,-338.87 585.53,-328.41 579.37,-331.72"/>
</g>
<!-- Node55&#45;&gt;Node44 -->
<g id="edge45" class="edge">
<title>Node55&#45;&gt;Node44</title>
<path fill="none" stroke="midnightblue" d="M354.88,-152.5C317.74,-152.5 272.61,-152.5 247.26,-152.5"/>
<polygon fill="midnightblue" stroke="midnightblue" points="355.12,-156 365.12,-152.5 355.12,-149 355.12,-156"/>
</g>
<!-- Node56&#45;&gt;Node48 -->
<g id="edge47" class="edge">
<title>Node56&#45;&gt;Node48</title>
<path fill="none" stroke="midnightblue" d="M354.88,-551.59C317.74,-555.94 272.61,-561.22 247.26,-564.19"/>
<polygon fill="midnightblue" stroke="midnightblue" points="355.59,-555.03 365.12,-550.4 354.78,-548.08 355.59,-555.03"/>
</g>
<!-- Node60&#45;&gt;Node44 -->
<g id="edge53" class="edge">
<title>Node60&#45;&gt;Node44</title>
<path fill="none" stroke="midnightblue" d="M530.69,-70.51C478.09,-63.48 400.9,-58.93 337,-78.5 295.32,-91.26 255.19,-125.84 237.27,-142.83"/>
<polygon fill="midnightblue" stroke="midnightblue" points="530.48,-74.02 540.87,-71.94 531.46,-67.09 530.48,-74.02"/>
</g>
<!-- Node60&#45;&gt;Node53 -->
<g id="edge54" class="edge">
<title>Node60&#45;&gt;Node53</title>
<path fill="none" stroke="midnightblue" d="M524.83,-89.97C509.34,-91.92 492.95,-93.99 477.77,-95.9"/>
<polygon fill="midnightblue" stroke="midnightblue" points="525.38,-93.43 534.86,-88.7 524.5,-86.48 525.38,-93.43"/>
</g>
<!-- Node61 -->
<g id="node50" class="node">
<title>Node61</title>
<g id="a_node50"><a xlink:href="classft_1_1serv_1_1event__worker.html#a3a53967547f82f9bfa578cee9fafb416" target="_top" xlink:title=" ">
<polygon fill="white" stroke="red" points="355.5,-0.5 355.5,-30.5 477.5,-30.5 477.5,-0.5 355.5,-0.5"/>
<text text-anchor="start" x="363.5" y="-18.5" font-family="Helvetica,sans-Serif" font-size="10.00">ft::serv::event_worker</text>
<text text-anchor="middle" x="416.5" y="-7.5" font-family="Helvetica,sans-Serif" font-size="10.00">::loop</text>
</a>
</g>
</g>
<!-- Node60&#45;&gt;Node61 -->
<g id="edge52" class="edge">
<title>Node60&#45;&gt;Node61</title>
<path fill="none" stroke="midnightblue" d="M556.99,-68.26C528.23,-57.38 487.47,-41.97 457.44,-30.61"/>
<polygon fill="midnightblue" stroke="midnightblue" points="556.03,-71.64 566.63,-71.9 558.51,-65.09 556.03,-71.64"/>
</g>
</g>
</svg>
