<?xml version="1.0" encoding="UTF-8" standalone="no"?>
<!DOCTYPE svg PUBLIC "-//W3C//DTD SVG 1.1//EN"
 "http://www.w3.org/Graphics/SVG/1.1/DTD/svg11.dtd">
<!-- Generated by graphviz version 2.43.0 (0)
 -->
<!-- Title: processor.hpp Pages: 1 -->
<svg width="998pt" height="196pt"
 viewBox="0.00 0.00 997.50 196.00" xmlns="http://www.w3.org/2000/svg" xmlns:xlink="http://www.w3.org/1999/xlink">
<g id="graph0" class="graph" transform="scale(1 1) rotate(0) translate(4 192)">
<title>processor.hpp</title>
<polygon fill="white" stroke="transparent" points="-4,4 -4,-192 993.5,-192 993.5,4 -4,4"/>
<!-- Node1 -->
<g id="node1" class="node">
<title>Node1</title>
<g id="a_node1"><a xlink:title=" ">
<polygon fill="#bfbfbf" stroke="black" points="366.5,-168.5 366.5,-187.5 450.5,-187.5 450.5,-168.5 366.5,-168.5"/>
<text text-anchor="middle" x="408.5" y="-175.5" font-family="Helvetica,sans-Serif" font-size="10.00">processor.hpp</text>
</a>
</g>
</g>
<!-- Node2 -->
<g id="node2" class="node">
<title>Node2</title>
<g id="a_node2"><a xlink:href="bot__handler_8hpp.html" target="_top" xlink:title=" ">
<polygon fill="white" stroke="black" points="0,-112.5 0,-131.5 95,-131.5 95,-112.5 0,-112.5"/>
<text text-anchor="middle" x="47.5" y="-119.5" font-family="Helvetica,sans-Serif" font-size="10.00">bot_handler.hpp</text>
</a>
</g>
</g>
<!-- Node1&#45;&gt;Node2 -->
<g id="edge1" class="edge">
<title>Node1&#45;&gt;Node2</title>
<path fill="none" stroke="midnightblue" d="M356.1,-169.4C295.5,-160.57 192.74,-145.5 104.5,-132 101.43,-131.53 98.27,-131.04 95.08,-130.55"/>
<polygon fill="midnightblue" stroke="midnightblue" points="355.79,-172.89 366.19,-170.87 356.79,-165.96 355.79,-172.89"/>
</g>
<!-- Node4 -->
<g id="node4" class="node">
<title>Node4</title>
<g id="a_node4"><a xlink:href="client__handler_8hpp.html" target="_top" xlink:title=" ">
<polygon fill="white" stroke="black" points="113.5,-112.5 113.5,-131.5 219.5,-131.5 219.5,-112.5 113.5,-112.5"/>
<text text-anchor="middle" x="166.5" y="-119.5" font-family="Helvetica,sans-Serif" font-size="10.00">client_handler.hpp</text>
</a>
</g>
</g>
<!-- Node1&#45;&gt;Node4 -->
<g id="edge3" class="edge">
<title>Node1&#45;&gt;Node4</title>
<path fill="none" stroke="midnightblue" d="M360.18,-166.22C314.45,-156.01 246.72,-140.9 204.67,-131.52"/>
<polygon fill="midnightblue" stroke="midnightblue" points="359.63,-169.68 370.15,-168.44 361.16,-162.85 359.63,-169.68"/>
</g>
<!-- Node7 -->
<g id="node7" class="node">
<title>Node7</title>
<g id="a_node7"><a xlink:href="processor_8cpp.html" target="_top" xlink:title=" ">
<polygon fill="white" stroke="black" points="506,-56.5 506,-75.5 589,-75.5 589,-56.5 506,-56.5"/>
<text text-anchor="middle" x="547.5" y="-63.5" font-family="Helvetica,sans-Serif" font-size="10.00">processor.cpp</text>
</a>
</g>
</g>
<!-- Node1&#45;&gt;Node7 -->
<g id="edge6" class="edge">
<title>Node1&#45;&gt;Node7</title>
<path fill="none" stroke="midnightblue" d="M356.43,-171.1C304.86,-163.2 237.48,-146.04 266.5,-112 296.75,-76.52 435.15,-68.9 505.78,-67.34"/>
<polygon fill="midnightblue" stroke="midnightblue" points="356.1,-174.59 366.5,-172.56 357.1,-167.67 356.1,-174.59"/>
</g>
<!-- Node8 -->
<g id="node8" class="node">
<title>Node8</title>
<g id="a_node8"><a xlink:href="processor__channel_8hpp.html" target="_top" xlink:title=" ">
<polygon fill="white" stroke="black" points="275.5,-112.5 275.5,-131.5 403.5,-131.5 403.5,-112.5 275.5,-112.5"/>
<text text-anchor="middle" x="339.5" y="-119.5" font-family="Helvetica,sans-Serif" font-size="10.00">processor_channel.hpp</text>
</a>
</g>
</g>
<!-- Node1&#45;&gt;Node8 -->
<g id="edge7" class="edge">
<title>Node1&#45;&gt;Node8</title>
<path fill="none" stroke="midnightblue" d="M389.46,-162.1C377.04,-152.38 361.26,-140.03 350.79,-131.83"/>
<polygon fill="midnightblue" stroke="midnightblue" points="387.38,-164.92 397.41,-168.32 391.7,-159.4 387.38,-164.92"/>
</g>
<!-- Node9 -->
<g id="node9" class="node">
<title>Node9</title>
<g id="a_node9"><a xlink:href="processor__misc_8hpp.html" target="_top" xlink:title=" ">
<polygon fill="white" stroke="black" points="422,-112.5 422,-131.5 535,-131.5 535,-112.5 422,-112.5"/>
<text text-anchor="middle" x="478.5" y="-119.5" font-family="Helvetica,sans-Serif" font-size="10.00">processor_misc.hpp</text>
</a>
</g>
</g>
<!-- Node1&#45;&gt;Node9 -->
<g id="edge9" class="edge">
<title>Node1&#45;&gt;Node9</title>
<path fill="none" stroke="midnightblue" d="M427.81,-162.1C440.41,-152.38 456.43,-140.03 467.05,-131.83"/>
<polygon fill="midnightblue" stroke="midnightblue" points="425.53,-159.44 419.75,-168.32 429.8,-164.99 425.53,-159.44"/>
</g>
<!-- Node10 -->
<g id="node10" class="node">
<title>Node10</title>
<g id="a_node10"><a xlink:href="processor__register_8hpp.html" target="_top" xlink:title=" ">
<polygon fill="white" stroke="black" points="553,-112.5 553,-131.5 680,-131.5 680,-112.5 553,-112.5"/>
<text text-anchor="middle" x="616.5" y="-119.5" font-family="Helvetica,sans-Serif" font-size="10.00">processor_register.hpp</text>
</a>
</g>
</g>
<!-- Node1&#45;&gt;Node10 -->
<g id="edge11" class="edge">
<title>Node1&#45;&gt;Node10</title>
<path fill="none" stroke="midnightblue" d="M451.28,-165.89C490.56,-155.7 547.93,-140.8 583.7,-131.52"/>
<polygon fill="midnightblue" stroke="midnightblue" points="450.26,-162.54 441.46,-168.44 452.02,-169.32 450.26,-162.54"/>
</g>
<!-- Node11 -->
<g id="node11" class="node">
<title>Node11</title>
<g id="a_node11"><a xlink:href="processor__send__message_8hpp.html" target="_top" xlink:title=" ">
<polygon fill="white" stroke="black" points="698,-112.5 698,-131.5 861,-131.5 861,-112.5 698,-112.5"/>
<text text-anchor="middle" x="779.5" y="-119.5" font-family="Helvetica,sans-Serif" font-size="10.00">processor_send_message.hpp</text>
</a>
</g>
</g>
<!-- Node1&#45;&gt;Node11 -->
<g id="edge13" class="edge">
<title>Node1&#45;&gt;Node11</title>
<path fill="none" stroke="midnightblue" d="M460.84,-169.38C529.42,-159.4 649.35,-141.94 720.9,-131.53"/>
<polygon fill="midnightblue" stroke="midnightblue" points="460.09,-165.95 450.7,-170.86 461.1,-172.88 460.09,-165.95"/>
</g>
<!-- Node12 -->
<g id="node12" class="node">
<title>Node12</title>
<g id="a_node12"><a xlink:href="processor__user_8hpp.html" target="_top" xlink:title=" ">
<polygon fill="white" stroke="black" points="879.5,-112.5 879.5,-131.5 989.5,-131.5 989.5,-112.5 879.5,-112.5"/>
<text text-anchor="middle" x="934.5" y="-119.5" font-family="Helvetica,sans-Serif" font-size="10.00">processor_user.hpp</text>
</a>
</g>
</g>
<!-- Node1&#45;&gt;Node12 -->
<g id="edge15" class="edge">
<title>Node1&#45;&gt;Node12</title>
<path fill="none" stroke="midnightblue" d="M460.6,-172.65C546.24,-165.35 722.09,-149.66 870.5,-132 873.4,-131.66 876.37,-131.29 879.36,-130.91"/>
<polygon fill="midnightblue" stroke="midnightblue" points="460.27,-169.17 450.61,-173.5 460.87,-176.14 460.27,-169.17"/>
</g>
<!-- Node3 -->
<g id="node3" class="node">
<title>Node3</title>
<g id="a_node3"><a xlink:href="bot__main_8cpp.html" target="_top" xlink:title=" ">
<polygon fill="white" stroke="black" points="6,-56.5 6,-75.5 89,-75.5 89,-56.5 6,-56.5"/>
<text text-anchor="middle" x="47.5" y="-63.5" font-family="Helvetica,sans-Serif" font-size="10.00">bot_main.cpp</text>
</a>
</g>
</g>
<!-- Node2&#45;&gt;Node3 -->
<g id="edge2" class="edge">
<title>Node2&#45;&gt;Node3</title>
<path fill="none" stroke="midnightblue" d="M47.5,-101.8C47.5,-92.91 47.5,-82.78 47.5,-75.75"/>
<polygon fill="midnightblue" stroke="midnightblue" points="44,-102.08 47.5,-112.08 51,-102.08 44,-102.08"/>
</g>
<!-- Node5 -->
<g id="node5" class="node">
<title>Node5</title>
<g id="a_node5"><a xlink:href="server__handler_8hpp.html" target="_top" xlink:title=" ">
<polygon fill="white" stroke="black" points="111.5,-56.5 111.5,-75.5 221.5,-75.5 221.5,-56.5 111.5,-56.5"/>
<text text-anchor="middle" x="166.5" y="-63.5" font-family="Helvetica,sans-Serif" font-size="10.00">server_handler.hpp</text>
</a>
</g>
</g>
<!-- Node4&#45;&gt;Node5 -->
<g id="edge4" class="edge">
<title>Node4&#45;&gt;Node5</title>
<path fill="none" stroke="midnightblue" d="M166.5,-101.8C166.5,-92.91 166.5,-82.78 166.5,-75.75"/>
<polygon fill="midnightblue" stroke="midnightblue" points="163,-102.08 166.5,-112.08 170,-102.08 163,-102.08"/>
</g>
<!-- Node6 -->
<g id="node6" class="node">
<title>Node6</title>
<g id="a_node6"><a xlink:href="main_8cpp.html" target="_top" xlink:title=" ">
<polygon fill="white" stroke="black" points="135.5,-0.5 135.5,-19.5 197.5,-19.5 197.5,-0.5 135.5,-0.5"/>
<text text-anchor="middle" x="166.5" y="-7.5" font-family="Helvetica,sans-Serif" font-size="10.00">main.cpp</text>
</a>
</g>
</g>
<!-- Node5&#45;&gt;Node6 -->
<g id="edge5" class="edge">
<title>Node5&#45;&gt;Node6</title>
<path fill="none" stroke="midnightblue" d="M166.5,-45.8C166.5,-36.91 166.5,-26.78 166.5,-19.75"/>
<polygon fill="midnightblue" stroke="midnightblue" points="163,-46.08 166.5,-56.08 170,-46.08 163,-46.08"/>
</g>
<!-- Node8&#45;&gt;Node7 -->
<g id="edge8" class="edge">
<title>Node8&#45;&gt;Node7</title>
<path fill="none" stroke="midnightblue" d="M382.28,-109.89C421.56,-99.7 478.93,-84.8 514.7,-75.52"/>
<polygon fill="midnightblue" stroke="midnightblue" points="381.26,-106.54 372.46,-112.44 383.02,-113.32 381.26,-106.54"/>
</g>
<!-- Node9&#45;&gt;Node7 -->
<g id="edge10" class="edge">
<title>Node9&#45;&gt;Node7</title>
<path fill="none" stroke="midnightblue" d="M497.54,-106.1C509.96,-96.38 525.74,-84.03 536.21,-75.83"/>
<polygon fill="midnightblue" stroke="midnightblue" points="495.3,-103.4 489.59,-112.32 499.62,-108.92 495.3,-103.4"/>
</g>
<!-- Node10&#45;&gt;Node7 -->
<g id="edge12" class="edge">
<title>Node10&#45;&gt;Node7</title>
<path fill="none" stroke="midnightblue" d="M597.46,-106.1C585.04,-96.38 569.26,-84.03 558.79,-75.83"/>
<polygon fill="midnightblue" stroke="midnightblue" points="595.38,-108.92 605.41,-112.32 599.7,-103.4 595.38,-108.92"/>
</g>
<!-- Node11&#45;&gt;Node7 -->
<g id="edge14" class="edge">
<title>Node11&#45;&gt;Node7</title>
<path fill="none" stroke="midnightblue" d="M732.9,-110.15C689.06,-99.95 624.32,-84.88 584.09,-75.52"/>
<polygon fill="midnightblue" stroke="midnightblue" points="732.21,-113.59 742.74,-112.44 733.79,-106.77 732.21,-113.59"/>
</g>
<!-- Node12&#45;&gt;Node7 -->
<g id="edge16" class="edge">
<title>Node12&#45;&gt;Node7</title>
<path fill="none" stroke="midnightblue" d="M869.34,-111.84C762.29,-96.86 648.7,-81.06 589.06,-72.77"/>
<polygon fill="midnightblue" stroke="midnightblue" points="868.95,-115.32 879.34,-113.24 869.92,-108.39 868.95,-115.32"/>
</g>
</g>
</svg>
