<?xml version="1.0" encoding="UTF-8" standalone="no"?>
<!DOCTYPE svg PUBLIC "-//W3C//DTD SVG 1.1//EN"
 "http://www.w3.org/Graphics/SVG/1.1/DTD/svg11.dtd">
<!-- Generated by graphviz version 2.43.0 (0)
 -->
<!-- Title: reply.hpp Pages: 1 -->
<svg width="1192pt" height="252pt"
 viewBox="0.00 0.00 1191.75 252.00" xmlns="http://www.w3.org/2000/svg" xmlns:xlink="http://www.w3.org/1999/xlink">
<g id="graph0" class="graph" transform="scale(1 1) rotate(0) translate(4 248)">
<title>reply.hpp</title>
<polygon fill="white" stroke="transparent" points="-4,4 -4,-248 1187.75,-248 1187.75,4 -4,4"/>
<!-- Node1 -->
<g id="node1" class="node">
<title>Node1</title>
<g id="a_node1"><a xlink:title=" ">
<polygon fill="#bfbfbf" stroke="black" points="544.25,-224.5 544.25,-243.5 605.25,-243.5 605.25,-224.5 544.25,-224.5"/>
<text text-anchor="middle" x="574.75" y="-231.5" font-family="Helvetica,sans-Serif" font-size="10.00">reply.hpp</text>
</a>
</g>
</g>
<!-- Node2 -->
<g id="node2" class="node">
<title>Node2</title>
<g id="a_node2"><a xlink:href="bot__handler_8hpp.html" target="_top" xlink:title=" ">
<polygon fill="white" stroke="black" points="29.25,-112.5 29.25,-131.5 124.25,-131.5 124.25,-112.5 29.25,-112.5"/>
<text text-anchor="middle" x="76.75" y="-119.5" font-family="Helvetica,sans-Serif" font-size="10.00">bot_handler.hpp</text>
</a>
</g>
</g>
<!-- Node1&#45;&gt;Node2 -->
<g id="edge1" class="edge">
<title>Node1&#45;&gt;Node2</title>
<path fill="none" stroke="midnightblue" d="M534.11,-225.1C489.72,-216.38 416.56,-201.76 353.75,-188 266.41,-168.87 164.1,-144.3 111.65,-131.54"/>
<polygon fill="midnightblue" stroke="midnightblue" points="533.45,-228.54 543.94,-227.03 534.8,-221.67 533.45,-228.54"/>
</g>
<!-- Node4 -->
<g id="node4" class="node">
<title>Node4</title>
<g id="a_node4"><a xlink:href="channel_8cpp.html" target="_top" xlink:title=" ">
<polygon fill="white" stroke="black" points="555.25,-112.5 555.25,-131.5 630.25,-131.5 630.25,-112.5 555.25,-112.5"/>
<text text-anchor="middle" x="592.75" y="-119.5" font-family="Helvetica,sans-Serif" font-size="10.00">channel.cpp</text>
</a>
</g>
</g>
<!-- Node1&#45;&gt;Node4 -->
<g id="edge3" class="edge">
<title>Node1&#45;&gt;Node4</title>
<path fill="none" stroke="midnightblue" d="M577.8,-214.35C581.74,-190.25 588.44,-149.31 591.34,-131.59"/>
<polygon fill="midnightblue" stroke="midnightblue" points="574.32,-213.93 576.16,-224.37 581.23,-215.06 574.32,-213.93"/>
</g>
<!-- Node5 -->
<g id="node5" class="node">
<title>Node5</title>
<g id="a_node5"><a xlink:href="channel_8hpp.html" target="_top" xlink:title=" ">
<polygon fill="white" stroke="black" points="467.75,-168.5 467.75,-187.5 543.75,-187.5 543.75,-168.5 467.75,-168.5"/>
<text text-anchor="middle" x="505.75" y="-175.5" font-family="Helvetica,sans-Serif" font-size="10.00">channel.hpp</text>
</a>
</g>
</g>
<!-- Node1&#45;&gt;Node5 -->
<g id="edge4" class="edge">
<title>Node1&#45;&gt;Node5</title>
<path fill="none" stroke="midnightblue" d="M555.71,-218.1C543.29,-208.38 527.5,-196.03 517.04,-187.83"/>
<polygon fill="midnightblue" stroke="midnightblue" points="553.63,-220.92 563.66,-224.32 557.94,-215.4 553.63,-220.92"/>
</g>
<!-- Node6 -->
<g id="node6" class="node">
<title>Node6</title>
<g id="a_node6"><a xlink:href="processor__channel_8hpp.html" target="_top" xlink:title=" ">
<polygon fill="white" stroke="black" points="142.75,-112.5 142.75,-131.5 270.75,-131.5 270.75,-112.5 142.75,-112.5"/>
<text text-anchor="middle" x="206.75" y="-119.5" font-family="Helvetica,sans-Serif" font-size="10.00">processor_channel.hpp</text>
</a>
</g>
</g>
<!-- Node1&#45;&gt;Node6 -->
<g id="edge16" class="edge">
<title>Node1&#45;&gt;Node6</title>
<path fill="none" stroke="midnightblue" d="M536.26,-221.55C505.74,-212.46 462.01,-199.43 423.75,-188 356.11,-167.79 276.64,-143.97 235.18,-131.53"/>
<polygon fill="midnightblue" stroke="midnightblue" points="535.49,-224.97 546.08,-224.47 537.49,-218.26 535.49,-224.97"/>
</g>
<!-- Node7 -->
<g id="node7" class="node">
<title>Node7</title>
<g id="a_node7"><a xlink:href="processor_8cpp.html" target="_top" xlink:title=" ">
<polygon fill="white" stroke="black" points="247.25,-56.5 247.25,-75.5 330.25,-75.5 330.25,-56.5 247.25,-56.5"/>
<text text-anchor="middle" x="288.75" y="-63.5" font-family="Helvetica,sans-Serif" font-size="10.00">processor.cpp</text>
</a>
</g>
</g>
<!-- Node1&#45;&gt;Node7 -->
<g id="edge15" class="edge">
<title>Node1&#45;&gt;Node7</title>
<path fill="none" stroke="midnightblue" d="M533.88,-231.92C415.33,-228.48 77.21,-216.27 36.75,-188 7.48,-167.56 -12.39,-139.19 10.75,-112 25.88,-94.22 173.18,-77.92 247.01,-70.79"/>
<polygon fill="midnightblue" stroke="midnightblue" points="533.9,-235.43 544,-232.21 534.1,-228.43 533.9,-235.43"/>
</g>
<!-- Node8 -->
<g id="node8" class="node">
<title>Node8</title>
<g id="a_node8"><a xlink:href="processor__send__message_8hpp.html" target="_top" xlink:title=" ">
<polygon fill="white" stroke="black" points="289.25,-112.5 289.25,-131.5 452.25,-131.5 452.25,-112.5 289.25,-112.5"/>
<text text-anchor="middle" x="370.75" y="-119.5" font-family="Helvetica,sans-Serif" font-size="10.00">processor_send_message.hpp</text>
</a>
</g>
</g>
<!-- Node1&#45;&gt;Node8 -->
<g id="edge21" class="edge">
<title>Node1&#45;&gt;Node8</title>
<path fill="none" stroke="midnightblue" d="M537.11,-221.25C513.85,-213.3 483.75,-201.76 458.75,-188 428.13,-171.15 396.06,-144.94 380.45,-131.53"/>
<polygon fill="midnightblue" stroke="midnightblue" points="536.04,-224.59 546.63,-224.44 538.26,-217.95 536.04,-224.59"/>
</g>
<!-- Node10 -->
<g id="node10" class="node">
<title>Node10</title>
<g id="a_node10"><a xlink:href="user_8cpp.html" target="_top" xlink:title=" ">
<polygon fill="white" stroke="black" points="648.25,-112.5 648.25,-131.5 705.25,-131.5 705.25,-112.5 648.25,-112.5"/>
<text text-anchor="middle" x="676.75" y="-119.5" font-family="Helvetica,sans-Serif" font-size="10.00">user.cpp</text>
</a>
</g>
</g>
<!-- Node1&#45;&gt;Node10 -->
<g id="edge37" class="edge">
<title>Node1&#45;&gt;Node10</title>
<path fill="none" stroke="midnightblue" d="M588.59,-216.62C599.96,-203.32 616.6,-184.18 631.75,-168 643.83,-155.1 658.39,-140.75 667.61,-131.8"/>
<polygon fill="midnightblue" stroke="midnightblue" points="585.77,-214.54 581.95,-224.43 591.1,-219.08 585.77,-214.54"/>
</g>
<!-- Node11 -->
<g id="node11" class="node">
<title>Node11</title>
<g id="a_node11"><a xlink:href="client__handler_8hpp.html" target="_top" xlink:title=" ">
<polygon fill="white" stroke="black" points="1077.75,-112.5 1077.75,-131.5 1183.75,-131.5 1183.75,-112.5 1077.75,-112.5"/>
<text text-anchor="middle" x="1130.75" y="-119.5" font-family="Helvetica,sans-Serif" font-size="10.00">client_handler.hpp</text>
</a>
</g>
</g>
<!-- Node1&#45;&gt;Node11 -->
<g id="edge12" class="edge">
<title>Node1&#45;&gt;Node11</title>
<path fill="none" stroke="midnightblue" d="M615.16,-227.16C658.53,-220.28 729.08,-207.28 787.75,-188 808.16,-181.3 811.15,-174.1 831.75,-168 837.61,-166.26 993.21,-143.24 1077.56,-130.81"/>
<polygon fill="midnightblue" stroke="midnightblue" points="614.62,-223.7 605.28,-228.7 615.7,-230.62 614.62,-223.7"/>
</g>
<!-- Node14 -->
<g id="node14" class="node">
<title>Node14</title>
<g id="a_node14"><a xlink:href="processor__misc_8hpp.html" target="_top" xlink:title=" ">
<polygon fill="white" stroke="black" points="762.25,-112.5 762.25,-131.5 875.25,-131.5 875.25,-112.5 762.25,-112.5"/>
<text text-anchor="middle" x="818.75" y="-119.5" font-family="Helvetica,sans-Serif" font-size="10.00">processor_misc.hpp</text>
</a>
</g>
</g>
<!-- Node1&#45;&gt;Node14 -->
<g id="edge17" class="edge">
<title>Node1&#45;&gt;Node14</title>
<path fill="none" stroke="midnightblue" d="M615.35,-223.33C644.58,-215.63 684.55,-203.56 717.75,-188 752.49,-171.71 789.47,-145.26 807.52,-131.67"/>
<polygon fill="midnightblue" stroke="midnightblue" points="614.29,-219.98 605.48,-225.87 616.04,-226.76 614.29,-219.98"/>
</g>
<!-- Node15 -->
<g id="node15" class="node">
<title>Node15</title>
<g id="a_node15"><a xlink:href="processor__register_8hpp.html" target="_top" xlink:title=" ">
<polygon fill="white" stroke="black" points="932.25,-112.5 932.25,-131.5 1059.25,-131.5 1059.25,-112.5 932.25,-112.5"/>
<text text-anchor="middle" x="995.75" y="-119.5" font-family="Helvetica,sans-Serif" font-size="10.00">processor_register.hpp</text>
</a>
</g>
</g>
<!-- Node1&#45;&gt;Node15 -->
<g id="edge19" class="edge">
<title>Node1&#45;&gt;Node15</title>
<path fill="none" stroke="midnightblue" d="M615.26,-224.07C650.79,-215.87 703.68,-202.77 748.75,-188 771.49,-180.54 775.9,-175.13 798.75,-168 849.32,-152.22 908.77,-139.4 949.03,-131.54"/>
<polygon fill="midnightblue" stroke="midnightblue" points="614.23,-220.71 605.26,-226.35 615.79,-227.54 614.23,-220.71"/>
</g>
<!-- Node16 -->
<g id="node16" class="node">
<title>Node16</title>
<g id="a_node16"><a xlink:href="processor__user_8hpp.html" target="_top" xlink:title=" ">
<polygon fill="white" stroke="black" points="45.75,-168.5 45.75,-187.5 155.75,-187.5 155.75,-168.5 45.75,-168.5"/>
<text text-anchor="middle" x="100.75" y="-175.5" font-family="Helvetica,sans-Serif" font-size="10.00">processor_user.hpp</text>
</a>
</g>
</g>
<!-- Node1&#45;&gt;Node16 -->
<g id="edge22" class="edge">
<title>Node1&#45;&gt;Node16</title>
<path fill="none" stroke="midnightblue" d="M533.96,-228.35C448.87,-218.66 252.36,-196.27 156.02,-185.3"/>
<polygon fill="midnightblue" stroke="midnightblue" points="533.68,-231.84 544.01,-229.5 534.47,-224.89 533.68,-231.84"/>
</g>
<!-- Node17 -->
<g id="node17" class="node">
<title>Node17</title>
<g id="a_node17"><a xlink:href="reply_8cpp.html" target="_top" xlink:title=" ">
<polygon fill="white" stroke="black" points="840.75,-168.5 840.75,-187.5 900.75,-187.5 900.75,-168.5 840.75,-168.5"/>
<text text-anchor="middle" x="870.75" y="-175.5" font-family="Helvetica,sans-Serif" font-size="10.00">reply.cpp</text>
</a>
</g>
</g>
<!-- Node1&#45;&gt;Node17 -->
<g id="edge24" class="edge">
<title>Node1&#45;&gt;Node17</title>
<path fill="none" stroke="midnightblue" d="M615.5,-226.05C665.38,-217.46 752.38,-202.24 826.75,-188 831.19,-187.15 835.88,-186.22 840.47,-185.3"/>
<polygon fill="midnightblue" stroke="midnightblue" points="614.7,-222.63 605.44,-227.77 615.89,-229.53 614.7,-222.63"/>
</g>
<!-- Node18 -->
<g id="node18" class="node">
<title>Node18</title>
<g id="a_node18"><a xlink:href="server_8hpp.html" target="_top" xlink:title=" ">
<polygon fill="white" stroke="black" points="640.75,-168.5 640.75,-187.5 708.75,-187.5 708.75,-168.5 640.75,-168.5"/>
<text text-anchor="middle" x="674.75" y="-175.5" font-family="Helvetica,sans-Serif" font-size="10.00">server.hpp</text>
</a>
</g>
</g>
<!-- Node1&#45;&gt;Node18 -->
<g id="edge25" class="edge">
<title>Node1&#45;&gt;Node18</title>
<path fill="none" stroke="midnightblue" d="M599.84,-219.45C618.3,-209.48 642.84,-196.23 658.72,-187.65"/>
<polygon fill="midnightblue" stroke="midnightblue" points="597.95,-216.49 590.81,-224.32 601.28,-222.65 597.95,-216.49"/>
</g>
<!-- Node3 -->
<g id="node3" class="node">
<title>Node3</title>
<g id="a_node3"><a xlink:href="bot__main_8cpp.html" target="_top" xlink:title=" ">
<polygon fill="white" stroke="black" points="35.25,-56.5 35.25,-75.5 118.25,-75.5 118.25,-56.5 35.25,-56.5"/>
<text text-anchor="middle" x="76.75" y="-63.5" font-family="Helvetica,sans-Serif" font-size="10.00">bot_main.cpp</text>
</a>
</g>
</g>
<!-- Node2&#45;&gt;Node3 -->
<g id="edge2" class="edge">
<title>Node2&#45;&gt;Node3</title>
<path fill="none" stroke="midnightblue" d="M76.75,-101.8C76.75,-92.91 76.75,-82.78 76.75,-75.75"/>
<polygon fill="midnightblue" stroke="midnightblue" points="73.25,-102.08 76.75,-112.08 80.25,-102.08 73.25,-102.08"/>
</g>
<!-- Node5&#45;&gt;Node4 -->
<g id="edge5" class="edge">
<title>Node5&#45;&gt;Node4</title>
<path fill="none" stroke="midnightblue" d="M528.46,-162.9C544.42,-153 565.25,-140.07 578.8,-131.65"/>
<polygon fill="midnightblue" stroke="midnightblue" points="526.38,-160.08 519.73,-168.32 530.07,-166.02 526.38,-160.08"/>
</g>
<!-- Node5&#45;&gt;Node6 -->
<g id="edge6" class="edge">
<title>Node5&#45;&gt;Node6</title>
<path fill="none" stroke="midnightblue" d="M457.55,-168.3C401.53,-158.18 309.68,-141.59 254.04,-131.54"/>
<polygon fill="midnightblue" stroke="midnightblue" points="457.11,-171.77 467.58,-170.11 458.36,-164.88 457.11,-171.77"/>
</g>
<!-- Node5&#45;&gt;Node8 -->
<g id="edge8" class="edge">
<title>Node5&#45;&gt;Node8</title>
<path fill="none" stroke="midnightblue" d="M474.84,-164.64C449.51,-154.5 414.32,-140.43 392.04,-131.52"/>
<polygon fill="midnightblue" stroke="midnightblue" points="473.77,-167.98 484.36,-168.44 476.37,-161.48 473.77,-167.98"/>
</g>
<!-- Node9 -->
<g id="node9" class="node">
<title>Node9</title>
<g id="a_node9"><a xlink:href="server_8cpp.html" target="_top" xlink:title=" ">
<polygon fill="white" stroke="black" points="470.25,-112.5 470.25,-131.5 537.25,-131.5 537.25,-112.5 470.25,-112.5"/>
<text text-anchor="middle" x="503.75" y="-119.5" font-family="Helvetica,sans-Serif" font-size="10.00">server.cpp</text>
</a>
</g>
</g>
<!-- Node5&#45;&gt;Node9 -->
<g id="edge10" class="edge">
<title>Node5&#45;&gt;Node9</title>
<path fill="none" stroke="midnightblue" d="M505.04,-157.8C504.71,-148.91 504.33,-138.78 504.07,-131.75"/>
<polygon fill="midnightblue" stroke="midnightblue" points="501.55,-158.22 505.42,-168.08 508.55,-157.96 501.55,-158.22"/>
</g>
<!-- Node5&#45;&gt;Node10 -->
<g id="edge11" class="edge">
<title>Node5&#45;&gt;Node10</title>
<path fill="none" stroke="midnightblue" d="M542.78,-165.3C575.01,-155.13 620.94,-140.62 649.78,-131.52"/>
<polygon fill="midnightblue" stroke="midnightblue" points="541.33,-162.09 532.84,-168.44 543.43,-168.77 541.33,-162.09"/>
</g>
<!-- Node6&#45;&gt;Node7 -->
<g id="edge7" class="edge">
<title>Node6&#45;&gt;Node7</title>
<path fill="none" stroke="midnightblue" d="M228.58,-106.62C243.56,-96.76 262.95,-83.99 275.61,-75.65"/>
<polygon fill="midnightblue" stroke="midnightblue" points="226.35,-103.9 219.92,-112.32 230.2,-109.75 226.35,-103.9"/>
</g>
<!-- Node8&#45;&gt;Node7 -->
<g id="edge9" class="edge">
<title>Node8&#45;&gt;Node7</title>
<path fill="none" stroke="midnightblue" d="M348.92,-106.62C333.94,-96.76 314.55,-83.99 301.89,-75.65"/>
<polygon fill="midnightblue" stroke="midnightblue" points="347.3,-109.75 357.57,-112.32 351.15,-103.9 347.3,-109.75"/>
</g>
<!-- Node12 -->
<g id="node12" class="node">
<title>Node12</title>
<g id="a_node12"><a xlink:href="server__handler_8hpp.html" target="_top" xlink:title=" ">
<polygon fill="white" stroke="black" points="848.75,-56.5 848.75,-75.5 958.75,-75.5 958.75,-56.5 848.75,-56.5"/>
<text text-anchor="middle" x="903.75" y="-63.5" font-family="Helvetica,sans-Serif" font-size="10.00">server_handler.hpp</text>
</a>
</g>
</g>
<!-- Node11&#45;&gt;Node12 -->
<g id="edge13" class="edge">
<title>Node11&#45;&gt;Node12</title>
<path fill="none" stroke="midnightblue" d="M1084.88,-110.09C1041.99,-99.89 978.83,-84.86 939.55,-75.52"/>
<polygon fill="midnightblue" stroke="midnightblue" points="1084.24,-113.53 1094.78,-112.44 1085.86,-106.72 1084.24,-113.53"/>
</g>
<!-- Node13 -->
<g id="node13" class="node">
<title>Node13</title>
<g id="a_node13"><a xlink:href="main_8cpp.html" target="_top" xlink:title=" ">
<polygon fill="white" stroke="black" points="787.75,-0.5 787.75,-19.5 849.75,-19.5 849.75,-0.5 787.75,-0.5"/>
<text text-anchor="middle" x="818.75" y="-7.5" font-family="Helvetica,sans-Serif" font-size="10.00">main.cpp</text>
</a>
</g>
</g>
<!-- Node12&#45;&gt;Node13 -->
<g id="edge14" class="edge">
<title>Node12&#45;&gt;Node13</title>
<path fill="none" stroke="midnightblue" d="M881.55,-50.9C865.97,-41 845.62,-28.07 832.37,-19.65"/>
<polygon fill="midnightblue" stroke="midnightblue" points="879.77,-53.92 890.09,-56.32 883.53,-48.01 879.77,-53.92"/>
</g>
<!-- Node14&#45;&gt;Node7 -->
<g id="edge18" class="edge">
<title>Node14&#45;&gt;Node7</title>
<path fill="none" stroke="midnightblue" d="M751.96,-114.2C641,-102.89 421.86,-80.56 330.38,-71.24"/>
<polygon fill="midnightblue" stroke="midnightblue" points="751.73,-117.69 762.03,-115.22 752.44,-110.73 751.73,-117.69"/>
</g>
<!-- Node15&#45;&gt;Node7 -->
<g id="edge20" class="edge">
<title>Node15&#45;&gt;Node7</title>
<path fill="none" stroke="midnightblue" d="M921.78,-114.95C909.42,-113.95 896.72,-112.94 884.75,-112 676.55,-95.7 427.37,-77.22 330.3,-70.06"/>
<polygon fill="midnightblue" stroke="midnightblue" points="921.82,-118.46 932.07,-115.78 922.38,-111.48 921.82,-118.46"/>
</g>
<!-- Node16&#45;&gt;Node7 -->
<g id="edge23" class="edge">
<title>Node16&#45;&gt;Node7</title>
<path fill="none" stroke="midnightblue" d="M64.68,-164.69C35.38,-152.77 1.64,-133.39 19.75,-112 48.39,-78.17 179.05,-69.75 247.16,-67.67"/>
<polygon fill="midnightblue" stroke="midnightblue" points="63.78,-168.09 74.37,-168.44 66.31,-161.57 63.78,-168.09"/>
</g>
<!-- Node18&#45;&gt;Node2 -->
<g id="edge26" class="edge">
<title>Node18&#45;&gt;Node2</title>
<path fill="none" stroke="midnightblue" d="M630.53,-173.74C519.25,-165.48 229.72,-143.55 133.75,-132 130.66,-131.63 127.49,-131.22 124.3,-130.78"/>
<polygon fill="midnightblue" stroke="midnightblue" points="630.49,-177.25 640.72,-174.5 631.01,-170.27 630.49,-177.25"/>
</g>
<!-- Node18&#45;&gt;Node4 -->
<g id="edge27" class="edge">
<title>Node18&#45;&gt;Node4</title>
<path fill="none" stroke="midnightblue" d="M652.92,-162.62C637.94,-152.76 618.55,-139.99 605.89,-131.65"/>
<polygon fill="midnightblue" stroke="midnightblue" points="651.3,-165.75 661.57,-168.32 655.15,-159.9 651.3,-165.75"/>
</g>
<!-- Node18&#45;&gt;Node6 -->
<g id="edge30" class="edge">
<title>Node18&#45;&gt;Node6</title>
<path fill="none" stroke="midnightblue" d="M630.45,-172.09C557.37,-163.96 406.97,-147.09 279.75,-132 276.83,-131.65 273.85,-131.3 270.84,-130.94"/>
<polygon fill="midnightblue" stroke="midnightblue" points="630.33,-175.6 640.66,-173.22 631.1,-168.64 630.33,-175.6"/>
</g>
<!-- Node18&#45;&gt;Node8 -->
<g id="edge33" class="edge">
<title>Node18&#45;&gt;Node8</title>
<path fill="none" stroke="midnightblue" d="M630.41,-169.12C573.94,-159.09 476.72,-141.82 418.61,-131.5"/>
<polygon fill="midnightblue" stroke="midnightblue" points="630.01,-172.61 640.47,-170.91 631.23,-165.72 630.01,-172.61"/>
</g>
<!-- Node18&#45;&gt;Node9 -->
<g id="edge34" class="edge">
<title>Node18&#45;&gt;Node9</title>
<path fill="none" stroke="midnightblue" d="M637.71,-165.3C605.49,-155.13 559.56,-140.62 530.72,-131.52"/>
<polygon fill="midnightblue" stroke="midnightblue" points="637.06,-168.77 647.65,-168.44 639.17,-162.09 637.06,-168.77"/>
</g>
<!-- Node18&#45;&gt;Node10 -->
<g id="edge36" class="edge">
<title>Node18&#45;&gt;Node10</title>
<path fill="none" stroke="midnightblue" d="M675.46,-157.8C675.79,-148.91 676.16,-138.78 676.42,-131.75"/>
<polygon fill="midnightblue" stroke="midnightblue" points="671.95,-157.96 675.08,-168.08 678.95,-158.22 671.95,-157.96"/>
</g>
<!-- Node18&#45;&gt;Node11 -->
<g id="edge28" class="edge">
<title>Node18&#45;&gt;Node11</title>
<path fill="none" stroke="midnightblue" d="M718.97,-172.39C791.92,-164.69 942.01,-148.43 1068.75,-132 1071.66,-131.62 1074.65,-131.22 1077.66,-130.81"/>
<polygon fill="midnightblue" stroke="midnightblue" points="718.36,-168.94 708.78,-173.47 719.1,-175.9 718.36,-168.94"/>
</g>
<!-- Node18&#45;&gt;Node12 -->
<g id="edge35" class="edge">
<title>Node18&#45;&gt;Node12</title>
<path fill="none" stroke="midnightblue" d="M718.9,-172.83C773.19,-166.84 861.08,-154 884.75,-132 900.77,-117.11 903.54,-89.55 903.86,-75.58"/>
<polygon fill="midnightblue" stroke="midnightblue" points="718.42,-169.37 708.85,-173.91 719.16,-176.33 718.42,-169.37"/>
</g>
<!-- Node18&#45;&gt;Node13 -->
<g id="edge29" class="edge">
<title>Node18&#45;&gt;Node13</title>
<path fill="none" stroke="midnightblue" d="M689.35,-160.71C696.96,-152.18 706.39,-141.56 714.75,-132 751.39,-90.08 794.61,-39.39 811.48,-19.55"/>
<polygon fill="midnightblue" stroke="midnightblue" points="686.52,-158.62 682.46,-168.41 691.73,-163.29 686.52,-158.62"/>
</g>
<!-- Node18&#45;&gt;Node14 -->
<g id="edge31" class="edge">
<title>Node18&#45;&gt;Node14</title>
<path fill="none" stroke="midnightblue" d="M707,-164.91C734.07,-154.75 772.06,-140.51 796.04,-131.52"/>
<polygon fill="midnightblue" stroke="midnightblue" points="705.7,-161.66 697.57,-168.44 708.16,-168.21 705.7,-161.66"/>
</g>
<!-- Node18&#45;&gt;Node15 -->
<g id="edge32" class="edge">
<title>Node18&#45;&gt;Node15</title>
<path fill="none" stroke="midnightblue" d="M718.94,-169.57C778.07,-159.62 882.69,-142.02 944.99,-131.54"/>
<polygon fill="midnightblue" stroke="midnightblue" points="718.08,-166.16 708.8,-171.27 719.24,-173.06 718.08,-166.16"/>
</g>
</g>
</svg>
