<?xml version="1.0" encoding="UTF-8" standalone="no"?>
<!DOCTYPE svg PUBLIC "-//W3C//DTD SVG 1.1//EN"
 "http://www.w3.org/Graphics/SVG/1.1/DTD/svg11.dtd">
<!-- Generated by graphviz version 2.43.0 (0)
 -->
<!-- Title: reply.hpp Pages: 1 -->
<!--zoomable 252 -->
<svg id="main" version="1.1" xmlns="http://www.w3.org/2000/svg" xmlns:xlink="http://www.w3.org/1999/xlink" xml:space="preserve" onload="init(evt)">
<style type="text/css"><![CDATA[
.edge:hover path { stroke: red; }
.edge:hover polygon { stroke: red; fill: red; }
]]></style>
<script type="text/javascript"><![CDATA[
var edges = document.getElementsByTagName('g');
if (edges && edges.length) {
  for (var i=0;i<edges.length;i++) {
    if (edges[i].id.substr(0,4)=='edge') {
      edges[i].setAttribute('class','edge');
    }
  }
}
]]></script>
        <defs>
                <circle id="rim" cx="0" cy="0" r="7"/>
                <circle id="rim2" cx="0" cy="0" r="3.5"/>
                <g id="zoomPlus">
                        <use xlink:href="#rim" fill="#404040">
                                <set attributeName="fill" to="#808080" begin="zoomplus.mouseover" end="zoomplus.mouseout"/>
                        </use>
                        <path d="M-4,0h8M0,-4v8" fill="none" stroke="white" stroke-width="1.5" pointer-events="none"/>
                </g>
                <g id="zoomMin">
                        <use xlink:href="#rim" fill="#404040">
                                <set attributeName="fill" to="#808080" begin="zoomminus.mouseover" end="zoomminus.mouseout"/>
                        </use>
                        <path d="M-4,0h8" fill="none" stroke="white" stroke-width="1.5" pointer-events="none"/>
                </g>
                <g id="dirArrow">
                        <path fill="none" stroke="white" stroke-width="1.5" d="M0,-3.0v7 M-2.5,-0.5L0,-3.0L2.5,-0.5"/>
                </g>
               <g id="resetDef">
                       <use xlink:href="#rim2" fill="#404040">
                               <set attributeName="fill" to="#808080" begin="reset.mouseover" end="reset.mouseout"/>
                       </use>
               </g>
        </defs>

<script type="text/javascript">
var viewWidth = 1158;
var viewHeight = 252;
var sectionId = 'dynsection-1';
</script>
<script xlink:href="svgpan.js"/>
<svg id="graph" class="graph">
<g id="viewport">
<title>reply.hpp</title>
<polygon fill="white" stroke="transparent" points="-4,4 -4,-248 1153.5,-248 1153.5,4 -4,4"/>
<!-- Node1 -->
<g id="node1" class="node">
<title>Node1</title>
<g id="a_node1"><a xlink:title=" ">
<polygon fill="#bfbfbf" stroke="black" points="479,-224.5 479,-243.5 540,-243.5 540,-224.5 479,-224.5"/>
<text text-anchor="middle" x="509.5" y="-231.5" font-family="Helvetica,sans-Serif" font-size="10.00">reply.hpp</text>
</a>
</g>
</g>
<!-- Node2 -->
<g id="node2" class="node">
<title>Node2</title>
<g id="a_node2"><a xlink:href="bot_8cpp.html" target="_top" xlink:title=" ">
<polygon fill="white" stroke="black" points="0,-168.5 0,-187.5 53,-187.5 53,-168.5 0,-168.5"/>
<text text-anchor="middle" x="26.5" y="-175.5" font-family="Helvetica,sans-Serif" font-size="10.00">bot.cpp</text>
</a>
</g>
</g>
<!-- Node1&#45;&gt;Node2 -->
<g id="edge1" class="edge">
<title>Node1&#45;&gt;Node2</title>
<path fill="none" stroke="midnightblue" d="M468.41,-230.4C390.06,-225.08 214.07,-211.47 67.5,-188 62.89,-187.26 58.03,-186.33 53.32,-185.35"/>
<polygon fill="midnightblue" stroke="midnightblue" points="468.59,-233.92 478.8,-231.09 469.05,-226.93 468.59,-233.92"/>
</g>
<!-- Node3 -->
<g id="node3" class="node">
<title>Node3</title>
<g id="a_node3"><a xlink:href="channel_8cpp.html" target="_top" xlink:title=" ">
<polygon fill="white" stroke="black" points="366,-112.5 366,-131.5 441,-131.5 441,-112.5 366,-112.5"/>
<text text-anchor="middle" x="403.5" y="-119.5" font-family="Helvetica,sans-Serif" font-size="10.00">channel.cpp</text>
</a>
</g>
</g>
<!-- Node1&#45;&gt;Node3 -->
<g id="edge2" class="edge">
<title>Node1&#45;&gt;Node3</title>
<path fill="none" stroke="midnightblue" d="M474.95,-220.28C459.01,-212.93 440.91,-202.28 428.5,-188 413.91,-171.21 407.38,-144.98 404.86,-131.55"/>
<polygon fill="midnightblue" stroke="midnightblue" points="473.96,-223.67 484.53,-224.43 476.75,-217.25 473.96,-223.67"/>
</g>
<!-- Node4 -->
<g id="node4" class="node">
<title>Node4</title>
<g id="a_node4"><a xlink:href="channel_8hpp.html" target="_top" xlink:title=" ">
<polygon fill="white" stroke="black" points="437.5,-168.5 437.5,-187.5 513.5,-187.5 513.5,-168.5 437.5,-168.5"/>
<text text-anchor="middle" x="475.5" y="-175.5" font-family="Helvetica,sans-Serif" font-size="10.00">channel.hpp</text>
</a>
</g>
</g>
<!-- Node1&#45;&gt;Node4 -->
<g id="edge3" class="edge">
<title>Node1&#45;&gt;Node4</title>
<path fill="none" stroke="midnightblue" d="M498.52,-215.57C492.67,-206.27 485.73,-195.25 481.01,-187.75"/>
<polygon fill="midnightblue" stroke="midnightblue" points="495.6,-217.49 503.89,-224.08 501.52,-213.76 495.6,-217.49"/>
</g>
<!-- Node5 -->
<g id="node5" class="node">
<title>Node5</title>
<g id="a_node5"><a xlink:href="processor__channel_8hpp.html" target="_top" xlink:title=" ">
<polygon fill="white" stroke="black" points="544.5,-112.5 544.5,-131.5 672.5,-131.5 672.5,-112.5 544.5,-112.5"/>
<text text-anchor="middle" x="608.5" y="-119.5" font-family="Helvetica,sans-Serif" font-size="10.00">processor_channel.hpp</text>
</a>
</g>
</g>
<!-- Node1&#45;&gt;Node5 -->
<g id="edge15" class="edge">
<title>Node1&#45;&gt;Node5</title>
<path fill="none" stroke="midnightblue" d="M522.82,-216.6C533.77,-203.29 549.81,-184.15 564.5,-168 576.27,-155.07 590.51,-140.72 599.54,-131.78"/>
<polygon fill="midnightblue" stroke="midnightblue" points="520.05,-214.46 516.43,-224.42 525.47,-218.89 520.05,-214.46"/>
</g>
<!-- Node6 -->
<g id="node6" class="node">
<title>Node6</title>
<g id="a_node6"><a xlink:href="processor_8cpp.html" target="_top" xlink:title=" ">
<polygon fill="white" stroke="black" points="567,-56.5 567,-75.5 650,-75.5 650,-56.5 567,-56.5"/>
<text text-anchor="middle" x="608.5" y="-63.5" font-family="Helvetica,sans-Serif" font-size="10.00">processor.cpp</text>
</a>
</g>
</g>
<!-- Node1&#45;&gt;Node6 -->
<g id="edge14" class="edge">
<title>Node1&#45;&gt;Node6</title>
<path fill="none" stroke="midnightblue" d="M468.56,-233.76C345.58,-234.81 -5.65,-227.97 100.5,-112 131.77,-77.83 451.32,-69.46 566.99,-67.54"/>
<polygon fill="midnightblue" stroke="midnightblue" points="468.75,-237.26 478.71,-233.65 468.67,-230.26 468.75,-237.26"/>
</g>
<!-- Node7 -->
<g id="node7" class="node">
<title>Node7</title>
<g id="a_node7"><a xlink:href="processor__send__message_8hpp.html" target="_top" xlink:title=" ">
<polygon fill="white" stroke="black" points="110,-112.5 110,-131.5 273,-131.5 273,-112.5 110,-112.5"/>
<text text-anchor="middle" x="191.5" y="-119.5" font-family="Helvetica,sans-Serif" font-size="10.00">processor_send_message.hpp</text>
</a>
</g>
</g>
<!-- Node1&#45;&gt;Node7 -->
<g id="edge20" class="edge">
<title>Node1&#45;&gt;Node7</title>
<path fill="none" stroke="midnightblue" d="M474.54,-221.16C447.92,-212.13 410.38,-199.35 377.5,-188 319.46,-167.97 251.37,-144.07 215.85,-131.58"/>
<polygon fill="midnightblue" stroke="midnightblue" points="473.58,-224.53 484.18,-224.43 475.83,-217.9 473.58,-224.53"/>
</g>
<!-- Node9 -->
<g id="node9" class="node">
<title>Node9</title>
<g id="a_node9"><a xlink:href="user_8cpp.html" target="_top" xlink:title=" ">
<polygon fill="white" stroke="black" points="291,-112.5 291,-131.5 348,-131.5 348,-112.5 291,-112.5"/>
<text text-anchor="middle" x="319.5" y="-119.5" font-family="Helvetica,sans-Serif" font-size="10.00">user.cpp</text>
</a>
</g>
</g>
<!-- Node1&#45;&gt;Node9 -->
<g id="edge33" class="edge">
<title>Node1&#45;&gt;Node9</title>
<path fill="none" stroke="midnightblue" d="M478.86,-220.43C459.42,-212.06 433.97,-200.36 412.5,-188 381.43,-170.12 347.53,-144.81 330.53,-131.67"/>
<polygon fill="midnightblue" stroke="midnightblue" points="477.58,-223.69 488.15,-224.38 480.31,-217.25 477.58,-223.69"/>
</g>
<!-- Node10 -->
<g id="node10" class="node">
<title>Node10</title>
<g id="a_node10"><a xlink:href="client__handler_8hpp.html" target="_top" xlink:title=" ">
<polygon fill="white" stroke="black" points="1043.5,-112.5 1043.5,-131.5 1149.5,-131.5 1149.5,-112.5 1043.5,-112.5"/>
<text text-anchor="middle" x="1096.5" y="-119.5" font-family="Helvetica,sans-Serif" font-size="10.00">client_handler.hpp</text>
</a>
</g>
</g>
<!-- Node1&#45;&gt;Node10 -->
<g id="edge11" class="edge">
<title>Node1&#45;&gt;Node10</title>
<path fill="none" stroke="midnightblue" d="M550.25,-227.67C607.3,-220.01 714.14,-204.93 804.5,-188 897.92,-170.5 1006.99,-144.8 1061.6,-131.57"/>
<polygon fill="midnightblue" stroke="midnightblue" points="549.64,-224.22 540.19,-229.01 550.57,-231.16 549.64,-224.22"/>
</g>
<!-- Node13 -->
<g id="node13" class="node">
<title>Node13</title>
<g id="a_node13"><a xlink:href="processor__misc_8hpp.html" target="_top" xlink:title=" ">
<polygon fill="white" stroke="black" points="767,-112.5 767,-131.5 880,-131.5 880,-112.5 767,-112.5"/>
<text text-anchor="middle" x="823.5" y="-119.5" font-family="Helvetica,sans-Serif" font-size="10.00">processor_misc.hpp</text>
</a>
</g>
</g>
<!-- Node1&#45;&gt;Node13 -->
<g id="edge16" class="edge">
<title>Node1&#45;&gt;Node13</title>
<path fill="none" stroke="midnightblue" d="M549.75,-221.63C578.21,-213.23 617.1,-201.04 650.5,-188 670.13,-180.34 673.96,-175.9 693.5,-168 728.48,-153.85 769.8,-140.03 796.31,-131.51"/>
<polygon fill="midnightblue" stroke="midnightblue" points="548.76,-218.27 540.14,-224.44 550.72,-224.99 548.76,-218.27"/>
</g>
<!-- Node14 -->
<g id="node14" class="node">
<title>Node14</title>
<g id="a_node14"><a xlink:href="processor__register_8hpp.html" target="_top" xlink:title=" ">
<polygon fill="white" stroke="black" points="898,-112.5 898,-131.5 1025,-131.5 1025,-112.5 898,-112.5"/>
<text text-anchor="middle" x="961.5" y="-119.5" font-family="Helvetica,sans-Serif" font-size="10.00">processor_register.hpp</text>
</a>
</g>
</g>
<!-- Node1&#45;&gt;Node14 -->
<g id="edge18" class="edge">
<title>Node1&#45;&gt;Node14</title>
<path fill="none" stroke="midnightblue" d="M550.39,-225.21C586.76,-217.67 641.06,-204.91 686.5,-188 705.13,-181.07 707.67,-174.37 726.5,-168 759.35,-156.88 849.35,-141.12 907.95,-131.5"/>
<polygon fill="midnightblue" stroke="midnightblue" points="549.27,-221.87 540.17,-227.29 550.67,-228.73 549.27,-221.87"/>
</g>
<!-- Node15 -->
<g id="node15" class="node">
<title>Node15</title>
<g id="a_node15"><a xlink:href="reply_8cpp.html" target="_top" xlink:title=" ">
<polygon fill="white" stroke="black" points="735.5,-168.5 735.5,-187.5 795.5,-187.5 795.5,-168.5 735.5,-168.5"/>
<text text-anchor="middle" x="765.5" y="-175.5" font-family="Helvetica,sans-Serif" font-size="10.00">reply.cpp</text>
</a>
</g>
</g>
<!-- Node1&#45;&gt;Node15 -->
<g id="edge21" class="edge">
<title>Node1&#45;&gt;Node15</title>
<path fill="none" stroke="midnightblue" d="M549.91,-224.48C601.39,-213.62 689.17,-195.1 735.24,-185.38"/>
<polygon fill="midnightblue" stroke="midnightblue" points="549.19,-221.05 540.13,-226.54 550.63,-227.9 549.19,-221.05"/>
</g>
<!-- Node16 -->
<g id="node16" class="node">
<title>Node16</title>
<g id="a_node16"><a xlink:href="server_8hpp.html" target="_top" xlink:title=" ">
<polygon fill="white" stroke="black" points="573.5,-168.5 573.5,-187.5 641.5,-187.5 641.5,-168.5 573.5,-168.5"/>
<text text-anchor="middle" x="607.5" y="-175.5" font-family="Helvetica,sans-Serif" font-size="10.00">server.hpp</text>
</a>
</g>
</g>
<!-- Node1&#45;&gt;Node16 -->
<g id="edge22" class="edge">
<title>Node1&#45;&gt;Node16</title>
<path fill="none" stroke="midnightblue" d="M534.09,-219.45C552.18,-209.48 576.23,-196.23 591.79,-187.65"/>
<polygon fill="midnightblue" stroke="midnightblue" points="532.31,-216.43 525.25,-224.32 535.69,-222.56 532.31,-216.43"/>
</g>
<!-- Node4&#45;&gt;Node3 -->
<g id="edge4" class="edge">
<title>Node4&#45;&gt;Node3</title>
<path fill="none" stroke="midnightblue" d="M455.63,-162.1C442.68,-152.38 426.2,-140.03 415.28,-131.83"/>
<polygon fill="midnightblue" stroke="midnightblue" points="453.83,-165.12 463.93,-168.32 458.03,-159.52 453.83,-165.12"/>
</g>
<!-- Node4&#45;&gt;Node5 -->
<g id="edge5" class="edge">
<title>Node4&#45;&gt;Node5</title>
<path fill="none" stroke="midnightblue" d="M505.95,-164.64C530.91,-154.5 565.58,-140.43 587.52,-131.52"/>
<polygon fill="midnightblue" stroke="midnightblue" points="504.52,-161.44 496.57,-168.44 507.16,-167.92 504.52,-161.44"/>
</g>
<!-- Node4&#45;&gt;Node7 -->
<g id="edge7" class="edge">
<title>Node4&#45;&gt;Node7</title>
<path fill="none" stroke="midnightblue" d="M427.58,-167.89C374.16,-157.73 288.42,-141.43 236.3,-131.52"/>
<polygon fill="midnightblue" stroke="midnightblue" points="427.02,-171.34 437.49,-169.77 428.32,-164.47 427.02,-171.34"/>
</g>
<!-- Node8 -->
<g id="node8" class="node">
<title>Node8</title>
<g id="a_node8"><a xlink:href="server_8cpp.html" target="_top" xlink:title=" ">
<polygon fill="white" stroke="black" points="459,-112.5 459,-131.5 526,-131.5 526,-112.5 459,-112.5"/>
<text text-anchor="middle" x="492.5" y="-119.5" font-family="Helvetica,sans-Serif" font-size="10.00">server.cpp</text>
</a>
</g>
</g>
<!-- Node4&#45;&gt;Node8 -->
<g id="edge9" class="edge">
<title>Node4&#45;&gt;Node8</title>
<path fill="none" stroke="midnightblue" d="M481.36,-158.4C484.2,-149.36 487.48,-138.94 489.75,-131.75"/>
<polygon fill="midnightblue" stroke="midnightblue" points="477.97,-157.49 478.31,-168.08 484.65,-159.6 477.97,-157.49"/>
</g>
<!-- Node4&#45;&gt;Node9 -->
<g id="edge10" class="edge">
<title>Node4&#45;&gt;Node9</title>
<path fill="none" stroke="midnightblue" d="M441.33,-165.17C411.96,-155 370.3,-140.59 344.1,-131.52"/>
<polygon fill="midnightblue" stroke="midnightblue" points="440.19,-168.48 450.78,-168.44 442.48,-161.86 440.19,-168.48"/>
</g>
<!-- Node5&#45;&gt;Node6 -->
<g id="edge6" class="edge">
<title>Node5&#45;&gt;Node6</title>
<path fill="none" stroke="midnightblue" d="M608.5,-101.8C608.5,-92.91 608.5,-82.78 608.5,-75.75"/>
<polygon fill="midnightblue" stroke="midnightblue" points="605,-102.08 608.5,-112.08 612,-102.08 605,-102.08"/>
</g>
<!-- Node7&#45;&gt;Node6 -->
<g id="edge8" class="edge">
<title>Node7&#45;&gt;Node6</title>
<path fill="none" stroke="midnightblue" d="M267.49,-111.16C355.4,-99.78 496.98,-81.44 566.81,-72.4"/>
<polygon fill="midnightblue" stroke="midnightblue" points="267.04,-107.69 257.57,-112.44 267.94,-114.63 267.04,-107.69"/>
</g>
<!-- Node11 -->
<g id="node11" class="node">
<title>Node11</title>
<g id="a_node11"><a xlink:href="server__handler_8hpp.html" target="_top" xlink:title=" ">
<polygon fill="white" stroke="black" points="728.5,-56.5 728.5,-75.5 838.5,-75.5 838.5,-56.5 728.5,-56.5"/>
<text text-anchor="middle" x="783.5" y="-63.5" font-family="Helvetica,sans-Serif" font-size="10.00">server_handler.hpp</text>
</a>
</g>
</g>
<!-- Node10&#45;&gt;Node11 -->
<g id="edge12" class="edge">
<title>Node10&#45;&gt;Node11</title>
<path fill="none" stroke="midnightblue" d="M1036.96,-110.73C977.81,-100.52 888.17,-85.06 832.86,-75.52"/>
<polygon fill="midnightblue" stroke="midnightblue" points="1036.45,-114.19 1046.9,-112.44 1037.64,-107.29 1036.45,-114.19"/>
</g>
<!-- Node12 -->
<g id="node12" class="node">
<title>Node12</title>
<g id="a_node12"><a xlink:href="main_8cpp.html" target="_top" xlink:title=" ">
<polygon fill="white" stroke="black" points="710.5,-0.5 710.5,-19.5 772.5,-19.5 772.5,-0.5 710.5,-0.5"/>
<text text-anchor="middle" x="741.5" y="-7.5" font-family="Helvetica,sans-Serif" font-size="10.00">main.cpp</text>
</a>
</g>
</g>
<!-- Node11&#45;&gt;Node12 -->
<g id="edge13" class="edge">
<title>Node11&#45;&gt;Node12</title>
<path fill="none" stroke="midnightblue" d="M770.39,-48.14C763.07,-38.74 754.26,-27.4 748.31,-19.75"/>
<polygon fill="midnightblue" stroke="midnightblue" points="767.66,-50.34 776.56,-56.08 773.19,-46.04 767.66,-50.34"/>
</g>
<!-- Node13&#45;&gt;Node6 -->
<g id="edge17" class="edge">
<title>Node13&#45;&gt;Node6</title>
<path fill="none" stroke="midnightblue" d="M779.54,-109.96C738.93,-99.76 679.46,-84.82 642.41,-75.52"/>
<polygon fill="midnightblue" stroke="midnightblue" points="778.88,-113.4 789.43,-112.44 780.59,-106.61 778.88,-113.4"/>
</g>
<!-- Node14&#45;&gt;Node6 -->
<g id="edge19" class="edge">
<title>Node14&#45;&gt;Node6</title>
<path fill="none" stroke="midnightblue" d="M895.26,-110.87C823.29,-99.86 710.54,-82.61 650.09,-73.36"/>
<polygon fill="midnightblue" stroke="midnightblue" points="895.15,-114.39 905.57,-112.44 896.21,-107.47 895.15,-114.39"/>
</g>
<!-- Node16&#45;&gt;Node3 -->
<g id="edge23" class="edge">
<title>Node16&#45;&gt;Node3</title>
<path fill="none" stroke="midnightblue" d="M565.3,-165.83C526.78,-155.63 470.68,-140.78 435.67,-131.52"/>
<polygon fill="midnightblue" stroke="midnightblue" points="564.61,-169.27 575.18,-168.44 566.4,-162.5 564.61,-169.27"/>
</g>
<!-- Node16&#45;&gt;Node5 -->
<g id="edge26" class="edge">
<title>Node16&#45;&gt;Node5</title>
<path fill="none" stroke="midnightblue" d="M607.86,-157.8C608.02,-148.91 608.21,-138.78 608.34,-131.75"/>
<polygon fill="midnightblue" stroke="midnightblue" points="604.35,-158.02 607.67,-168.08 611.35,-158.15 604.35,-158.02"/>
</g>
<!-- Node16&#45;&gt;Node7 -->
<g id="edge29" class="edge">
<title>Node16&#45;&gt;Node7</title>
<path fill="none" stroke="midnightblue" d="M563.17,-171.25C489.74,-161.71 342.5,-142.6 257.03,-131.51"/>
<polygon fill="midnightblue" stroke="midnightblue" points="563.09,-174.76 573.46,-172.58 563.99,-167.82 563.09,-174.76"/>
</g>
<!-- Node16&#45;&gt;Node8 -->
<g id="edge30" class="edge">
<title>Node16&#45;&gt;Node8</title>
<path fill="none" stroke="midnightblue" d="M580.02,-164.1C558.53,-154.01 529.28,-140.27 510.64,-131.52"/>
<polygon fill="midnightblue" stroke="midnightblue" points="578.74,-167.36 589.28,-168.44 581.71,-161.02 578.74,-167.36"/>
</g>
<!-- Node16&#45;&gt;Node9 -->
<g id="edge32" class="edge">
<title>Node16&#45;&gt;Node9</title>
<path fill="none" stroke="midnightblue" d="M563.39,-169.93C513.13,-161.68 428.63,-147.22 356.5,-132 353.78,-131.43 350.96,-130.8 348.14,-130.15"/>
<polygon fill="midnightblue" stroke="midnightblue" points="562.84,-173.39 573.27,-171.55 563.96,-166.48 562.84,-173.39"/>
</g>
<!-- Node16&#45;&gt;Node10 -->
<g id="edge24" class="edge">
<title>Node16&#45;&gt;Node10</title>
<path fill="none" stroke="midnightblue" d="M651.96,-172.89C729.66,-165.59 895.16,-149.45 1034.5,-132 1037.41,-131.64 1040.4,-131.25 1043.42,-130.84"/>
<polygon fill="midnightblue" stroke="midnightblue" points="651.22,-169.45 641.59,-173.86 651.88,-176.42 651.22,-169.45"/>
</g>
<!-- Node16&#45;&gt;Node11 -->
<g id="edge31" class="edge">
<title>Node16&#45;&gt;Node11</title>
<path fill="none" stroke="midnightblue" d="M644.9,-165.01C666.23,-157.28 692.92,-146.04 714.5,-132 739.88,-115.49 764.42,-89.13 776.22,-75.61"/>
<polygon fill="midnightblue" stroke="midnightblue" points="643.49,-161.8 635.21,-168.42 645.81,-168.4 643.49,-161.8"/>
</g>
<!-- Node16&#45;&gt;Node12 -->
<g id="edge25" class="edge">
<title>Node16&#45;&gt;Node12</title>
<path fill="none" stroke="midnightblue" d="M637.12,-163.92C651.88,-156.26 669.16,-145.45 681.5,-132 682.56,-130.84 723.78,-47.07 737.27,-19.61"/>
<polygon fill="midnightblue" stroke="midnightblue" points="635.28,-160.92 627.87,-168.49 638.38,-167.2 635.28,-160.92"/>
</g>
<!-- Node16&#45;&gt;Node13 -->
<g id="edge27" class="edge">
<title>Node16&#45;&gt;Node13</title>
<path fill="none" stroke="midnightblue" d="M651.66,-165.96C692.46,-155.76 752.21,-140.82 789.43,-131.52"/>
<polygon fill="midnightblue" stroke="midnightblue" points="650.58,-162.62 641.73,-168.44 652.28,-169.41 650.58,-162.62"/>
</g>
<!-- Node16&#45;&gt;Node14 -->
<g id="edge28" class="edge">
<title>Node16&#45;&gt;Node14</title>
<path fill="none" stroke="midnightblue" d="M651.98,-170.21C716.33,-160.4 835.34,-142.25 905.55,-131.53"/>
<polygon fill="midnightblue" stroke="midnightblue" points="651.12,-166.81 641.76,-171.77 652.18,-173.73 651.12,-166.81"/>
</g>
</g>
</svg>
        <g id="navigator" transform="translate(0 0)" fill="#404254">
                <rect fill="#f2f5e9" fill-opacity="0.5" stroke="#606060" stroke-width=".5" x="0" y="0" width="60" height="60"/>
                <use id="zoomplus" xlink:href="#zoomPlus" x="17" y="9" onmousedown="handleZoom(evt,'in')"/>
                <use id="zoomminus" xlink:href="#zoomMin" x="42" y="9" onmousedown="handleZoom(evt,'out')"/>
                <use id="reset" xlink:href="#resetDef" x="30" y="36" onmousedown="handleReset()"/>
                <g id="arrowUp" xlink:href="#dirArrow" transform="translate(30 24)" onmousedown="handlePan(0,-1)">
                  <use xlink:href="#rim" fill="#404040">
                        <set attributeName="fill" to="#808080" begin="arrowUp.mouseover" end="arrowUp.mouseout"/>
                  </use>
                  <path fill="none" stroke="white" stroke-width="1.5" d="M0,-3.0v7 M-2.5,-0.5L0,-3.0L2.5,-0.5"/>
                </g>
                <g id="arrowRight" xlink:href="#dirArrow" transform="rotate(90) translate(36 -43)" onmousedown="handlePan(1,0)">
                  <use xlink:href="#rim" fill="#404040">
                        <set attributeName="fill" to="#808080" begin="arrowRight.mouseover" end="arrowRight.mouseout"/>
                  </use>
                  <path fill="none" stroke="white" stroke-width="1.5" d="M0,-3.0v7 M-2.5,-0.5L0,-3.0L2.5,-0.5"/>
                </g>
                <g id="arrowDown" xlink:href="#dirArrow" transform="rotate(180) translate(-30 -48)" onmousedown="handlePan(0,1)">
                  <use xlink:href="#rim" fill="#404040">
                        <set attributeName="fill" to="#808080" begin="arrowDown.mouseover" end="arrowDown.mouseout"/>
                  </use>
                  <path fill="none" stroke="white" stroke-width="1.5" d="M0,-3.0v7 M-2.5,-0.5L0,-3.0L2.5,-0.5"/>
                </g>
                <g id="arrowLeft" xlink:href="#dirArrow" transform="rotate(270) translate(-36 17)" onmousedown="handlePan(-1,0)">
                  <use xlink:href="#rim" fill="#404040">
                        <set attributeName="fill" to="#808080" begin="arrowLeft.mouseover" end="arrowLeft.mouseout"/>
                  </use>
                  <path fill="none" stroke="white" stroke-width="1.5" d="M0,-3.0v7 M-2.5,-0.5L0,-3.0L2.5,-0.5"/>
                </g>
        </g>
        <svg viewBox="0 0 15 15" width="100%" height="30px" preserveAspectRatio="xMaxYMin meet">
         <g id="arrow_out" transform="scale(0.3 0.3)">
          <a xlink:href="reply_8hpp__dep__incl_org.svg" target="_base">
           <rect id="button" ry="5" rx="5" y="6" x="6" height="38" width="38"
                fill="#f2f5e9" fill-opacity="0.5" stroke="#606060" stroke-width="1.0"/>
           <path id="arrow"
             d="M 11.500037,31.436501 C 11.940474,20.09759 22.043105,11.32322 32.158766,21.979434 L 37.068811,17.246167 C 37.068811,17.246167 37.088388,32 37.088388,32 L 22.160133,31.978069 C 22.160133,31.978069 26.997745,27.140456 26.997745,27.140456 C 18.528582,18.264221 13.291696,25.230495 11.500037,31.436501 z"
             style="fill:#404040;"/>
          </a>
         </g>
        </svg>
</svg>
