<?xml version="1.0" encoding="UTF-8" standalone="no"?>
<!DOCTYPE svg PUBLIC "-//W3C//DTD SVG 1.1//EN"
 "http://www.w3.org/Graphics/SVG/1.1/DTD/svg11.dtd">
<!-- Generated by graphviz version 2.43.0 (0)
 -->
<!-- Title: reply.hpp Pages: 1 -->
<!--zoomable 252 -->
<svg id="main" version="1.1" xmlns="http://www.w3.org/2000/svg" xmlns:xlink="http://www.w3.org/1999/xlink" xml:space="preserve" onload="init(evt)">
<style type="text/css"><![CDATA[
.edge:hover path { stroke: red; }
.edge:hover polygon { stroke: red; fill: red; }
]]></style>
<script type="text/javascript"><![CDATA[
var edges = document.getElementsByTagName('g');
if (edges && edges.length) {
  for (var i=0;i<edges.length;i++) {
    if (edges[i].id.substr(0,4)=='edge') {
      edges[i].setAttribute('class','edge');
    }
  }
}
]]></script>
        <defs>
                <circle id="rim" cx="0" cy="0" r="7"/>
                <circle id="rim2" cx="0" cy="0" r="3.5"/>
                <g id="zoomPlus">
                        <use xlink:href="#rim" fill="#404040">
                                <set attributeName="fill" to="#808080" begin="zoomplus.mouseover" end="zoomplus.mouseout"/>
                        </use>
                        <path d="M-4,0h8M0,-4v8" fill="none" stroke="white" stroke-width="1.5" pointer-events="none"/>
                </g>
                <g id="zoomMin">
                        <use xlink:href="#rim" fill="#404040">
                                <set attributeName="fill" to="#808080" begin="zoomminus.mouseover" end="zoomminus.mouseout"/>
                        </use>
                        <path d="M-4,0h8" fill="none" stroke="white" stroke-width="1.5" pointer-events="none"/>
                </g>
                <g id="dirArrow">
                        <path fill="none" stroke="white" stroke-width="1.5" d="M0,-3.0v7 M-2.5,-0.5L0,-3.0L2.5,-0.5"/>
                </g>
               <g id="resetDef">
                       <use xlink:href="#rim2" fill="#404040">
                               <set attributeName="fill" to="#808080" begin="reset.mouseover" end="reset.mouseout"/>
                       </use>
               </g>
        </defs>

<script type="text/javascript">
var viewWidth = 1281;
var viewHeight = 252;
var sectionId = 'dynsection-1';
</script>
<script xlink:href="svgpan.js"/>
<svg id="graph" class="graph">
<g id="viewport">
<title>reply.hpp</title>
<polygon fill="white" stroke="transparent" points="-4,4 -4,-248 1277,-248 1277,4 -4,4"/>
<!-- Node1 -->
<g id="node1" class="node">
<title>Node1</title>
<g id="a_node1"><a xlink:title=" ">
<polygon fill="#bfbfbf" stroke="black" points="517.5,-224.5 517.5,-243.5 578.5,-243.5 578.5,-224.5 517.5,-224.5"/>
<text text-anchor="middle" x="548" y="-231.5" font-family="Helvetica,sans-Serif" font-size="10.00">reply.hpp</text>
</a>
</g>
</g>
<!-- Node2 -->
<g id="node2" class="node">
<title>Node2</title>
<g id="a_node2"><a xlink:href="bot__handler_8hpp.html" target="_top" xlink:title=" ">
<polygon fill="white" stroke="black" points="251.5,-112.5 251.5,-131.5 346.5,-131.5 346.5,-112.5 251.5,-112.5"/>
<text text-anchor="middle" x="299" y="-119.5" font-family="Helvetica,sans-Serif" font-size="10.00">bot_handler.hpp</text>
</a>
</g>
</g>
<!-- Node1&#45;&gt;Node2 -->
<g id="edge1" class="edge">
<title>Node1&#45;&gt;Node2</title>
<path fill="none" stroke="midnightblue" d="M519.26,-220.3C468,-197.66 362.09,-150.87 318.45,-131.59"/>
<polygon fill="midnightblue" stroke="midnightblue" points="517.9,-223.53 528.46,-224.37 520.73,-217.13 517.9,-223.53"/>
</g>
<!-- Node4 -->
<g id="node4" class="node">
<title>Node4</title>
<g id="a_node4"><a xlink:href="channel_8cpp.html" target="_top" xlink:title=" ">
<polygon fill="white" stroke="black" points="364.5,-112.5 364.5,-131.5 439.5,-131.5 439.5,-112.5 364.5,-112.5"/>
<text text-anchor="middle" x="402" y="-119.5" font-family="Helvetica,sans-Serif" font-size="10.00">channel.cpp</text>
</a>
</g>
</g>
<!-- Node1&#45;&gt;Node4 -->
<g id="edge3" class="edge">
<title>Node1&#45;&gt;Node4</title>
<path fill="none" stroke="midnightblue" d="M528.25,-218.12C497.26,-194.77 438.19,-150.27 413.4,-131.59"/>
<polygon fill="midnightblue" stroke="midnightblue" points="526.45,-221.15 536.54,-224.37 530.66,-215.56 526.45,-221.15"/>
</g>
<!-- Node5 -->
<g id="node5" class="node">
<title>Node5</title>
<g id="a_node5"><a xlink:href="channel_8hpp.html" target="_top" xlink:title=" ">
<polygon fill="white" stroke="black" points="576,-168.5 576,-187.5 652,-187.5 652,-168.5 576,-168.5"/>
<text text-anchor="middle" x="614" y="-175.5" font-family="Helvetica,sans-Serif" font-size="10.00">channel.hpp</text>
</a>
</g>
</g>
<!-- Node1&#45;&gt;Node5 -->
<g id="edge4" class="edge">
<title>Node1&#45;&gt;Node5</title>
<path fill="none" stroke="midnightblue" d="M566.55,-217.82C578.38,-208.15 593.29,-195.95 603.2,-187.83"/>
<polygon fill="midnightblue" stroke="midnightblue" points="564.13,-215.28 558.6,-224.32 568.56,-220.7 564.13,-215.28"/>
</g>
<!-- Node6 -->
<g id="node6" class="node">
<title>Node6</title>
<g id="a_node6"><a xlink:href="processor__channel_8hpp.html" target="_top" xlink:title=" ">
<polygon fill="white" stroke="black" points="799,-112.5 799,-131.5 927,-131.5 927,-112.5 799,-112.5"/>
<text text-anchor="middle" x="863" y="-119.5" font-family="Helvetica,sans-Serif" font-size="10.00">processor_channel.hpp</text>
</a>
</g>
</g>
<!-- Node1&#45;&gt;Node6 -->
<g id="edge16" class="edge">
<title>Node1&#45;&gt;Node6</title>
<path fill="none" stroke="midnightblue" d="M588.69,-229.55C633.96,-224.62 708.56,-213.19 768,-188 802.22,-173.49 836.87,-145.75 853.25,-131.67"/>
<polygon fill="midnightblue" stroke="midnightblue" points="588.25,-226.08 578.66,-230.59 588.97,-233.04 588.25,-226.08"/>
</g>
<!-- Node7 -->
<g id="node7" class="node">
<title>Node7</title>
<g id="a_node7"><a xlink:href="processor_8cpp.html" target="_top" xlink:title=" ">
<polygon fill="white" stroke="black" points="465.5,-56.5 465.5,-75.5 548.5,-75.5 548.5,-56.5 465.5,-56.5"/>
<text text-anchor="middle" x="507" y="-63.5" font-family="Helvetica,sans-Serif" font-size="10.00">processor.cpp</text>
</a>
</g>
</g>
<!-- Node1&#45;&gt;Node7 -->
<g id="edge15" class="edge">
<title>Node1&#45;&gt;Node7</title>
<path fill="none" stroke="midnightblue" d="M506.91,-233.62C438.36,-232.12 302.26,-217.84 242,-132 236.89,-124.72 236.26,-118.79 242,-112 270.11,-78.71 398.23,-70.04 465.49,-67.79"/>
<polygon fill="midnightblue" stroke="midnightblue" points="507.26,-237.12 517.31,-233.75 507.36,-230.12 507.26,-237.12"/>
</g>
<!-- Node8 -->
<g id="node8" class="node">
<title>Node8</title>
<g id="a_node8"><a xlink:href="processor__send__message_8hpp.html" target="_top" xlink:title=" ">
<polygon fill="white" stroke="black" points="532.5,-112.5 532.5,-131.5 695.5,-131.5 695.5,-112.5 532.5,-112.5"/>
<text text-anchor="middle" x="614" y="-119.5" font-family="Helvetica,sans-Serif" font-size="10.00">processor_send_message.hpp</text>
</a>
</g>
</g>
<!-- Node1&#45;&gt;Node8 -->
<g id="edge21" class="edge">
<title>Node1&#45;&gt;Node8</title>
<path fill="none" stroke="midnightblue" d="M550.78,-214.35C553.42,-200.76 558.32,-182.29 567,-168 576.03,-153.13 591.2,-139.87 601.86,-131.66"/>
<polygon fill="midnightblue" stroke="midnightblue" points="547.29,-213.98 549.06,-224.43 554.19,-215.16 547.29,-213.98"/>
</g>
<!-- Node10 -->
<g id="node10" class="node">
<title>Node10</title>
<g id="a_node10"><a xlink:href="user_8cpp.html" target="_top" xlink:title=" ">
<polygon fill="white" stroke="black" points="457.5,-112.5 457.5,-131.5 514.5,-131.5 514.5,-112.5 457.5,-112.5"/>
<text text-anchor="middle" x="486" y="-119.5" font-family="Helvetica,sans-Serif" font-size="10.00">user.cpp</text>
</a>
</g>
</g>
<!-- Node1&#45;&gt;Node10 -->
<g id="edge36" class="edge">
<title>Node1&#45;&gt;Node10</title>
<path fill="none" stroke="midnightblue" d="M538.22,-215.64C524.75,-191.74 501.01,-149.63 490.84,-131.59"/>
<polygon fill="midnightblue" stroke="midnightblue" points="535.18,-217.38 543.13,-224.37 541.27,-213.94 535.18,-217.38"/>
</g>
<!-- Node11 -->
<g id="node11" class="node">
<title>Node11</title>
<g id="a_node11"><a xlink:href="client__handler_8hpp.html" target="_top" xlink:title=" ">
<polygon fill="white" stroke="black" points="1167,-112.5 1167,-131.5 1273,-131.5 1273,-112.5 1167,-112.5"/>
<text text-anchor="middle" x="1220" y="-119.5" font-family="Helvetica,sans-Serif" font-size="10.00">client_handler.hpp</text>
</a>
</g>
</g>
<!-- Node1&#45;&gt;Node11 -->
<g id="edge12" class="edge">
<title>Node1&#45;&gt;Node11</title>
<path fill="none" stroke="midnightblue" d="M588.68,-230.2C645.49,-225.5 751.37,-213.88 838,-188 858.58,-181.85 861.34,-173.9 882,-168 1000.95,-134.03 1035.45,-148.89 1158,-132 1160.91,-131.6 1163.89,-131.18 1166.91,-130.76"/>
<polygon fill="midnightblue" stroke="midnightblue" points="588.35,-226.71 578.66,-231 588.91,-233.69 588.35,-226.71"/>
</g>
<!-- Node14 -->
<g id="node14" class="node">
<title>Node14</title>
<g id="a_node14"><a xlink:href="processor__misc_8hpp.html" target="_top" xlink:title=" ">
<polygon fill="white" stroke="black" points="128.5,-168.5 128.5,-187.5 241.5,-187.5 241.5,-168.5 128.5,-168.5"/>
<text text-anchor="middle" x="185" y="-175.5" font-family="Helvetica,sans-Serif" font-size="10.00">processor_misc.hpp</text>
</a>
</g>
</g>
<!-- Node1&#45;&gt;Node14 -->
<g id="edge17" class="edge">
<title>Node1&#45;&gt;Node14</title>
<path fill="none" stroke="midnightblue" d="M507.12,-226.92C442.24,-217.27 315.5,-198.41 241.82,-187.45"/>
<polygon fill="midnightblue" stroke="midnightblue" points="506.96,-230.43 517.36,-228.44 507.99,-223.51 506.96,-230.43"/>
</g>
<!-- Node15 -->
<g id="node15" class="node">
<title>Node15</title>
<g id="a_node15"><a xlink:href="processor__register_8hpp.html" target="_top" xlink:title=" ">
<polygon fill="white" stroke="black" points="1021.5,-112.5 1021.5,-131.5 1148.5,-131.5 1148.5,-112.5 1021.5,-112.5"/>
<text text-anchor="middle" x="1085" y="-119.5" font-family="Helvetica,sans-Serif" font-size="10.00">processor_register.hpp</text>
</a>
</g>
</g>
<!-- Node1&#45;&gt;Node15 -->
<g id="edge19" class="edge">
<title>Node1&#45;&gt;Node15</title>
<path fill="none" stroke="midnightblue" d="M588.89,-228.39C639.25,-222.1 727.07,-209.14 800,-188 822.59,-181.45 826.45,-174.68 849,-168 906.59,-150.94 974.06,-138.84 1022.08,-131.51"/>
<polygon fill="midnightblue" stroke="midnightblue" points="588.23,-224.95 578.73,-229.63 589.08,-231.89 588.23,-224.95"/>
</g>
<!-- Node16 -->
<g id="node16" class="node">
<title>Node16</title>
<g id="a_node16"><a xlink:href="processor__user_8hpp.html" target="_top" xlink:title=" ">
<polygon fill="white" stroke="black" points="0,-168.5 0,-187.5 110,-187.5 110,-168.5 0,-168.5"/>
<text text-anchor="middle" x="55" y="-175.5" font-family="Helvetica,sans-Serif" font-size="10.00">processor_user.hpp</text>
</a>
</g>
</g>
<!-- Node1&#45;&gt;Node16 -->
<g id="edge22" class="edge">
<title>Node1&#45;&gt;Node16</title>
<path fill="none" stroke="midnightblue" d="M507.12,-229.2C430.77,-221.98 261.34,-205.47 119,-188 116.1,-187.64 113.14,-187.27 110.14,-186.88"/>
<polygon fill="midnightblue" stroke="midnightblue" points="506.98,-232.7 517.27,-230.15 507.64,-225.73 506.98,-232.7"/>
</g>
<!-- Node17 -->
<g id="node17" class="node">
<title>Node17</title>
<g id="a_node17"><a xlink:href="reply_8cpp.html" target="_top" xlink:title=" ">
<polygon fill="white" stroke="black" points="891,-168.5 891,-187.5 951,-187.5 951,-168.5 891,-168.5"/>
<text text-anchor="middle" x="921" y="-175.5" font-family="Helvetica,sans-Serif" font-size="10.00">reply.cpp</text>
</a>
</g>
</g>
<!-- Node1&#45;&gt;Node17 -->
<g id="edge24" class="edge">
<title>Node1&#45;&gt;Node17</title>
<path fill="none" stroke="midnightblue" d="M589.17,-228.25C651.59,-220.85 773.85,-205.58 877,-188 881.46,-187.24 886.15,-186.36 890.75,-185.46"/>
<polygon fill="midnightblue" stroke="midnightblue" points="588.47,-224.81 578.95,-229.46 589.29,-231.76 588.47,-224.81"/>
</g>
<!-- Node18 -->
<g id="node18" class="node">
<title>Node18</title>
<g id="a_node18"><a xlink:href="server_8hpp.html" target="_top" xlink:title=" ">
<polygon fill="white" stroke="black" points="691,-168.5 691,-187.5 759,-187.5 759,-168.5 691,-168.5"/>
<text text-anchor="middle" x="725" y="-175.5" font-family="Helvetica,sans-Serif" font-size="10.00">server.hpp</text>
</a>
</g>
</g>
<!-- Node1&#45;&gt;Node18 -->
<g id="edge25" class="edge">
<title>Node1&#45;&gt;Node18</title>
<path fill="none" stroke="midnightblue" d="M585.9,-221.44C619.28,-211.26 667.1,-196.66 697.09,-187.52"/>
<polygon fill="midnightblue" stroke="midnightblue" points="584.59,-218.18 576.05,-224.44 586.63,-224.87 584.59,-218.18"/>
</g>
<!-- Node3 -->
<g id="node3" class="node">
<title>Node3</title>
<g id="a_node3"><a xlink:href="bot__main_8cpp.html" target="_top" xlink:title=" ">
<polygon fill="white" stroke="black" points="257.5,-56.5 257.5,-75.5 340.5,-75.5 340.5,-56.5 257.5,-56.5"/>
<text text-anchor="middle" x="299" y="-63.5" font-family="Helvetica,sans-Serif" font-size="10.00">bot_main.cpp</text>
</a>
</g>
</g>
<!-- Node2&#45;&gt;Node3 -->
<g id="edge2" class="edge">
<title>Node2&#45;&gt;Node3</title>
<path fill="none" stroke="midnightblue" d="M299,-101.8C299,-92.91 299,-82.78 299,-75.75"/>
<polygon fill="midnightblue" stroke="midnightblue" points="295.5,-102.08 299,-112.08 302.5,-102.08 295.5,-102.08"/>
</g>
<!-- Node5&#45;&gt;Node4 -->
<g id="edge5" class="edge">
<title>Node5&#45;&gt;Node4</title>
<path fill="none" stroke="midnightblue" d="M570.65,-165.96C530.61,-155.76 471.97,-140.82 435.43,-131.52"/>
<polygon fill="midnightblue" stroke="midnightblue" points="569.85,-169.37 580.41,-168.44 571.58,-162.58 569.85,-169.37"/>
</g>
<!-- Node5&#45;&gt;Node6 -->
<g id="edge6" class="edge">
<title>Node5&#45;&gt;Node6</title>
<path fill="none" stroke="midnightblue" d="M662.04,-166.58C709.08,-156.38 779.89,-141.02 823.68,-131.53"/>
<polygon fill="midnightblue" stroke="midnightblue" points="661.12,-163.2 652.09,-168.74 662.6,-170.04 661.12,-163.2"/>
</g>
<!-- Node5&#45;&gt;Node8 -->
<g id="edge8" class="edge">
<title>Node5&#45;&gt;Node8</title>
<path fill="none" stroke="midnightblue" d="M614,-157.8C614,-148.91 614,-138.78 614,-131.75"/>
<polygon fill="midnightblue" stroke="midnightblue" points="610.5,-158.08 614,-168.08 617.5,-158.08 610.5,-158.08"/>
</g>
<!-- Node9 -->
<g id="node9" class="node">
<title>Node9</title>
<g id="a_node9"><a xlink:href="server_8cpp.html" target="_top" xlink:title=" ">
<polygon fill="white" stroke="black" points="713.5,-112.5 713.5,-131.5 780.5,-131.5 780.5,-112.5 713.5,-112.5"/>
<text text-anchor="middle" x="747" y="-119.5" font-family="Helvetica,sans-Serif" font-size="10.00">server.cpp</text>
</a>
</g>
</g>
<!-- Node5&#45;&gt;Node9 -->
<g id="edge10" class="edge">
<title>Node5&#45;&gt;Node9</title>
<path fill="none" stroke="midnightblue" d="M644.45,-164.64C669.41,-154.5 704.08,-140.43 726.02,-131.52"/>
<polygon fill="midnightblue" stroke="midnightblue" points="643.02,-161.44 635.07,-168.44 645.66,-167.92 643.02,-161.44"/>
</g>
<!-- Node5&#45;&gt;Node10 -->
<g id="edge11" class="edge">
<title>Node5&#45;&gt;Node10</title>
<path fill="none" stroke="midnightblue" d="M584.38,-164.5C560.38,-154.38 527.22,-140.39 506.19,-131.52"/>
<polygon fill="midnightblue" stroke="midnightblue" points="583.14,-167.78 593.72,-168.44 585.86,-161.33 583.14,-167.78"/>
</g>
<!-- Node6&#45;&gt;Node7 -->
<g id="edge7" class="edge">
<title>Node6&#45;&gt;Node7</title>
<path fill="none" stroke="midnightblue" d="M796.62,-110.93C723.97,-99.91 609.71,-82.58 548.68,-73.32"/>
<polygon fill="midnightblue" stroke="midnightblue" points="796.18,-114.4 806.59,-112.44 797.23,-107.48 796.18,-114.4"/>
</g>
<!-- Node8&#45;&gt;Node7 -->
<g id="edge9" class="edge">
<title>Node8&#45;&gt;Node7</title>
<path fill="none" stroke="midnightblue" d="M587.7,-107.73C567.89,-97.73 541.29,-84.31 524.15,-75.65"/>
<polygon fill="midnightblue" stroke="midnightblue" points="586.3,-110.94 596.81,-112.32 589.46,-104.69 586.3,-110.94"/>
</g>
<!-- Node12 -->
<g id="node12" class="node">
<title>Node12</title>
<g id="a_node12"><a xlink:href="server__handler_8hpp.html" target="_top" xlink:title=" ">
<polygon fill="white" stroke="black" points="983,-56.5 983,-75.5 1093,-75.5 1093,-56.5 983,-56.5"/>
<text text-anchor="middle" x="1038" y="-63.5" font-family="Helvetica,sans-Serif" font-size="10.00">server_handler.hpp</text>
</a>
</g>
</g>
<!-- Node11&#45;&gt;Node12 -->
<g id="edge13" class="edge">
<title>Node11&#45;&gt;Node12</title>
<path fill="none" stroke="midnightblue" d="M1181.47,-109.57C1147.14,-99.38 1097.67,-84.7 1066.7,-75.52"/>
<polygon fill="midnightblue" stroke="midnightblue" points="1180.58,-112.95 1191.16,-112.44 1182.57,-106.24 1180.58,-112.95"/>
</g>
<!-- Node13 -->
<g id="node13" class="node">
<title>Node13</title>
<g id="a_node13"><a xlink:href="main_8cpp.html" target="_top" xlink:title=" ">
<polygon fill="white" stroke="black" points="965,-0.5 965,-19.5 1027,-19.5 1027,-0.5 965,-0.5"/>
<text text-anchor="middle" x="996" y="-7.5" font-family="Helvetica,sans-Serif" font-size="10.00">main.cpp</text>
</a>
</g>
</g>
<!-- Node12&#45;&gt;Node13 -->
<g id="edge14" class="edge">
<title>Node12&#45;&gt;Node13</title>
<path fill="none" stroke="midnightblue" d="M1024.89,-48.14C1017.57,-38.74 1008.76,-27.4 1002.81,-19.75"/>
<polygon fill="midnightblue" stroke="midnightblue" points="1022.16,-50.34 1031.06,-56.08 1027.69,-46.04 1022.16,-50.34"/>
</g>
<!-- Node14&#45;&gt;Node7 -->
<g id="edge18" class="edge">
<title>Node14&#45;&gt;Node7</title>
<path fill="none" stroke="midnightblue" d="M186.83,-158.12C189.31,-143.27 195.18,-123.26 209,-112 247.54,-80.61 393.02,-71.03 465.48,-68.17"/>
<polygon fill="midnightblue" stroke="midnightblue" points="183.33,-157.88 185.51,-168.25 190.27,-158.78 183.33,-157.88"/>
</g>
<!-- Node15&#45;&gt;Node7 -->
<g id="edge20" class="edge">
<title>Node15&#45;&gt;Node7</title>
<path fill="none" stroke="midnightblue" d="M1011.43,-114.13C888.67,-102.66 645.95,-79.98 548.72,-70.9"/>
<polygon fill="midnightblue" stroke="midnightblue" points="1011.21,-117.62 1021.49,-115.07 1011.86,-110.65 1011.21,-117.62"/>
</g>
<!-- Node16&#45;&gt;Node7 -->
<g id="edge23" class="edge">
<title>Node16&#45;&gt;Node7</title>
<path fill="none" stroke="midnightblue" d="M77.93,-163.36C104.28,-148.33 149.28,-124.62 191,-112 286.61,-83.09 404.24,-72.58 465.48,-68.89"/>
<polygon fill="midnightblue" stroke="midnightblue" points="76.01,-160.43 69.11,-168.47 79.51,-166.49 76.01,-160.43"/>
</g>
<!-- Node18&#45;&gt;Node2 -->
<g id="edge26" class="edge">
<title>Node18&#45;&gt;Node2</title>
<path fill="none" stroke="midnightblue" d="M680.64,-170.63C674.06,-169.72 667.35,-168.82 661,-168 525.63,-150.5 491.22,-150.65 356,-132 352.92,-131.58 349.76,-131.12 346.57,-130.65"/>
<polygon fill="midnightblue" stroke="midnightblue" points="680.42,-174.13 690.81,-172.05 681.39,-167.2 680.42,-174.13"/>
</g>
<!-- Node18&#45;&gt;Node4 -->
<g id="edge27" class="edge">
<title>Node18&#45;&gt;Node4</title>
<path fill="none" stroke="midnightblue" d="M680.94,-170.2C626.41,-161.7 530.74,-146.49 449,-132 445.97,-131.46 442.84,-130.89 439.69,-130.31"/>
<polygon fill="midnightblue" stroke="midnightblue" points="680.54,-173.68 690.96,-171.76 681.61,-166.76 680.54,-173.68"/>
</g>
<!-- Node18&#45;&gt;Node6 -->
<g id="edge30" class="edge">
<title>Node18&#45;&gt;Node6</title>
<path fill="none" stroke="midnightblue" d="M756.25,-164.77C782.17,-154.63 818.36,-140.47 841.24,-131.52"/>
<polygon fill="midnightblue" stroke="midnightblue" points="754.9,-161.54 746.87,-168.44 757.45,-168.06 754.9,-161.54"/>
</g>
<!-- Node18&#45;&gt;Node8 -->
<g id="edge32" class="edge">
<title>Node18&#45;&gt;Node8</title>
<path fill="none" stroke="midnightblue" d="M697.99,-163.86C677.41,-153.85 649.66,-140.35 631.79,-131.65"/>
<polygon fill="midnightblue" stroke="midnightblue" points="696.64,-167.1 707.17,-168.32 699.7,-160.8 696.64,-167.1"/>
</g>
<!-- Node18&#45;&gt;Node9 -->
<g id="edge33" class="edge">
<title>Node18&#45;&gt;Node9</title>
<path fill="none" stroke="midnightblue" d="M732.46,-158.69C736.17,-149.59 740.48,-139.01 743.43,-131.75"/>
<polygon fill="midnightblue" stroke="midnightblue" points="729.16,-157.5 728.63,-168.08 735.65,-160.14 729.16,-157.5"/>
</g>
<!-- Node18&#45;&gt;Node10 -->
<g id="edge35" class="edge">
<title>Node18&#45;&gt;Node10</title>
<path fill="none" stroke="midnightblue" d="M680.95,-167.3C640.2,-158.29 577.97,-144.43 524,-132 520.96,-131.3 517.79,-130.56 514.63,-129.82"/>
<polygon fill="midnightblue" stroke="midnightblue" points="680.31,-170.74 690.83,-169.48 681.82,-163.91 680.31,-170.74"/>
</g>
<!-- Node18&#45;&gt;Node11 -->
<g id="edge28" class="edge">
<title>Node18&#45;&gt;Node11</title>
<path fill="none" stroke="midnightblue" d="M769.01,-173.02C847.34,-165.81 1016.06,-149.67 1158,-132 1160.91,-131.64 1163.9,-131.25 1166.92,-130.85"/>
<polygon fill="midnightblue" stroke="midnightblue" points="768.65,-169.54 759.02,-173.94 769.29,-176.51 768.65,-169.54"/>
</g>
<!-- Node18&#45;&gt;Node12 -->
<g id="edge34" class="edge">
<title>Node18&#45;&gt;Node12</title>
<path fill="none" stroke="midnightblue" d="M769.43,-171.86C829.97,-164.35 934.77,-149.35 969,-132 996.31,-118.17 1020.36,-90.12 1031.47,-75.82"/>
<polygon fill="midnightblue" stroke="midnightblue" points="768.89,-168.4 759.39,-173.09 769.74,-175.35 768.89,-168.4"/>
</g>
<!-- Node18&#45;&gt;Node13 -->
<g id="edge29" class="edge">
<title>Node18&#45;&gt;Node13</title>
<path fill="none" stroke="midnightblue" d="M769.26,-169.67C827.18,-159.76 922.92,-142.16 936,-132 937.24,-131.04 978.33,-47.13 991.78,-19.62"/>
<polygon fill="midnightblue" stroke="midnightblue" points="768.53,-166.25 759.26,-171.37 769.7,-173.15 768.53,-166.25"/>
</g>
<!-- Node18&#45;&gt;Node15 -->
<g id="edge31" class="edge">
<title>Node18&#45;&gt;Node15</title>
<path fill="none" stroke="midnightblue" d="M769.15,-170.38C834.35,-160.6 956.38,-142.29 1028.18,-131.52"/>
<polygon fill="midnightblue" stroke="midnightblue" points="768.56,-166.93 759.19,-171.87 769.6,-173.85 768.56,-166.93"/>
</g>
</g>
</svg>
        <g id="navigator" transform="translate(0 0)" fill="#404254">
                <rect fill="#f2f5e9" fill-opacity="0.5" stroke="#606060" stroke-width=".5" x="0" y="0" width="60" height="60"/>
                <use id="zoomplus" xlink:href="#zoomPlus" x="17" y="9" onmousedown="handleZoom(evt,'in')"/>
                <use id="zoomminus" xlink:href="#zoomMin" x="42" y="9" onmousedown="handleZoom(evt,'out')"/>
                <use id="reset" xlink:href="#resetDef" x="30" y="36" onmousedown="handleReset()"/>
                <g id="arrowUp" xlink:href="#dirArrow" transform="translate(30 24)" onmousedown="handlePan(0,-1)">
                  <use xlink:href="#rim" fill="#404040">
                        <set attributeName="fill" to="#808080" begin="arrowUp.mouseover" end="arrowUp.mouseout"/>
                  </use>
                  <path fill="none" stroke="white" stroke-width="1.5" d="M0,-3.0v7 M-2.5,-0.5L0,-3.0L2.5,-0.5"/>
                </g>
                <g id="arrowRight" xlink:href="#dirArrow" transform="rotate(90) translate(36 -43)" onmousedown="handlePan(1,0)">
                  <use xlink:href="#rim" fill="#404040">
                        <set attributeName="fill" to="#808080" begin="arrowRight.mouseover" end="arrowRight.mouseout"/>
                  </use>
                  <path fill="none" stroke="white" stroke-width="1.5" d="M0,-3.0v7 M-2.5,-0.5L0,-3.0L2.5,-0.5"/>
                </g>
                <g id="arrowDown" xlink:href="#dirArrow" transform="rotate(180) translate(-30 -48)" onmousedown="handlePan(0,1)">
                  <use xlink:href="#rim" fill="#404040">
                        <set attributeName="fill" to="#808080" begin="arrowDown.mouseover" end="arrowDown.mouseout"/>
                  </use>
                  <path fill="none" stroke="white" stroke-width="1.5" d="M0,-3.0v7 M-2.5,-0.5L0,-3.0L2.5,-0.5"/>
                </g>
                <g id="arrowLeft" xlink:href="#dirArrow" transform="rotate(270) translate(-36 17)" onmousedown="handlePan(-1,0)">
                  <use xlink:href="#rim" fill="#404040">
                        <set attributeName="fill" to="#808080" begin="arrowLeft.mouseover" end="arrowLeft.mouseout"/>
                  </use>
                  <path fill="none" stroke="white" stroke-width="1.5" d="M0,-3.0v7 M-2.5,-0.5L0,-3.0L2.5,-0.5"/>
                </g>
        </g>
        <svg viewBox="0 0 15 15" width="100%" height="30px" preserveAspectRatio="xMaxYMin meet">
         <g id="arrow_out" transform="scale(0.3 0.3)">
          <a xlink:href="reply_8hpp__dep__incl_org.svg" target="_base">
           <rect id="button" ry="5" rx="5" y="6" x="6" height="38" width="38"
                fill="#f2f5e9" fill-opacity="0.5" stroke="#606060" stroke-width="1.0"/>
           <path id="arrow"
             d="M 11.500037,31.436501 C 11.940474,20.09759 22.043105,11.32322 32.158766,21.979434 L 37.068811,17.246167 C 37.068811,17.246167 37.088388,32 37.088388,32 L 22.160133,31.978069 C 22.160133,31.978069 26.997745,27.140456 26.997745,27.140456 C 18.528582,18.264221 13.291696,25.230495 11.500037,31.436501 z"
             style="fill:#404040;"/>
          </a>
         </g>
        </svg>
</svg>
