<?xml version="1.0" encoding="UTF-8" standalone="no"?>
<!DOCTYPE svg PUBLIC "-//W3C//DTD SVG 1.1//EN"
 "http://www.w3.org/Graphics/SVG/1.1/DTD/svg11.dtd">
<!-- Generated by graphviz version 2.43.0 (0)
 -->
<!-- Title: server.hpp Pages: 1 -->
<svg width="1028pt" height="196pt"
 viewBox="0.00 0.00 1028.00 196.00" xmlns="http://www.w3.org/2000/svg" xmlns:xlink="http://www.w3.org/1999/xlink">
<g id="graph0" class="graph" transform="scale(1 1) rotate(0) translate(4 192)">
<title>server.hpp</title>
<polygon fill="white" stroke="transparent" points="-4,4 -4,-192 1024,-192 1024,4 -4,4"/>
<!-- Node1 -->
<g id="node1" class="node">
<title>Node1</title>
<g id="a_node1"><a xlink:title=" ">
<polygon fill="#bfbfbf" stroke="black" points="389.5,-168.5 389.5,-187.5 457.5,-187.5 457.5,-168.5 389.5,-168.5"/>
<text text-anchor="middle" x="423.5" y="-175.5" font-family="Helvetica,sans-Serif" font-size="10.00">server.hpp</text>
</a>
</g>
</g>
<!-- Node2 -->
<g id="node2" class="node">
<title>Node2</title>
<g id="a_node2"><a xlink:href="bot__handler_8hpp.html" target="_top" xlink:title=" ">
<polygon fill="white" stroke="black" points="0,-112.5 0,-131.5 95,-131.5 95,-112.5 0,-112.5"/>
<text text-anchor="middle" x="47.5" y="-119.5" font-family="Helvetica,sans-Serif" font-size="10.00">bot_handler.hpp</text>
</a>
</g>
</g>
<!-- Node1&#45;&gt;Node2 -->
<g id="edge1" class="edge">
<title>Node1&#45;&gt;Node2</title>
<path fill="none" stroke="midnightblue" d="M379.2,-171.05C317.4,-162.69 201.83,-146.81 103.5,-132 100.77,-131.59 97.97,-131.16 95.15,-130.72"/>
<polygon fill="midnightblue" stroke="midnightblue" points="378.99,-174.55 389.37,-172.42 379.93,-167.62 378.99,-174.55"/>
</g>
<!-- Node4 -->
<g id="node4" class="node">
<title>Node4</title>
<g id="a_node4"><a xlink:href="channel_8cpp.html" target="_top" xlink:title=" ">
<polygon fill="white" stroke="black" points="113,-112.5 113,-131.5 188,-131.5 188,-112.5 113,-112.5"/>
<text text-anchor="middle" x="150.5" y="-119.5" font-family="Helvetica,sans-Serif" font-size="10.00">channel.cpp</text>
</a>
</g>
</g>
<!-- Node1&#45;&gt;Node4 -->
<g id="edge3" class="edge">
<title>Node1&#45;&gt;Node4</title>
<path fill="none" stroke="midnightblue" d="M379.34,-168.27C326.23,-157.76 237.99,-140.31 188.02,-130.42"/>
<polygon fill="midnightblue" stroke="midnightblue" points="378.99,-171.76 389.48,-170.27 380.35,-164.9 378.99,-171.76"/>
</g>
<!-- Node5 -->
<g id="node5" class="node">
<title>Node5</title>
<g id="a_node5"><a xlink:href="client__handler_8hpp.html" target="_top" xlink:title=" ">
<polygon fill="white" stroke="black" points="205.5,-112.5 205.5,-131.5 311.5,-131.5 311.5,-112.5 205.5,-112.5"/>
<text text-anchor="middle" x="258.5" y="-119.5" font-family="Helvetica,sans-Serif" font-size="10.00">client_handler.hpp</text>
</a>
</g>
</g>
<!-- Node1&#45;&gt;Node5 -->
<g id="edge4" class="edge">
<title>Node1&#45;&gt;Node5</title>
<path fill="none" stroke="midnightblue" d="M387.76,-165.3C356.67,-155.13 312.35,-140.62 284.52,-131.52"/>
<polygon fill="midnightblue" stroke="midnightblue" points="386.76,-168.66 397.36,-168.44 388.94,-162.01 386.76,-168.66"/>
</g>
<!-- Node6 -->
<g id="node6" class="node">
<title>Node6</title>
<g id="a_node6"><a xlink:href="server__handler_8hpp.html" target="_top" xlink:title=" ">
<polygon fill="white" stroke="black" points="239.5,-56.5 239.5,-75.5 349.5,-75.5 349.5,-56.5 239.5,-56.5"/>
<text text-anchor="middle" x="294.5" y="-63.5" font-family="Helvetica,sans-Serif" font-size="10.00">server_handler.hpp</text>
</a>
</g>
</g>
<!-- Node1&#45;&gt;Node6 -->
<g id="edge15" class="edge">
<title>Node1&#45;&gt;Node6</title>
<path fill="none" stroke="midnightblue" d="M402.93,-162.45C391.14,-153.89 376.2,-142.69 363.5,-132 340.83,-112.93 315.93,-88.54 303.14,-75.74"/>
<polygon fill="midnightblue" stroke="midnightblue" points="401.08,-165.43 411.24,-168.42 405.16,-159.74 401.08,-165.43"/>
</g>
<!-- Node7 -->
<g id="node7" class="node">
<title>Node7</title>
<g id="a_node7"><a xlink:href="main_8cpp.html" target="_top" xlink:title=" ">
<polygon fill="white" stroke="black" points="304.5,-0.5 304.5,-19.5 366.5,-19.5 366.5,-0.5 304.5,-0.5"/>
<text text-anchor="middle" x="335.5" y="-7.5" font-family="Helvetica,sans-Serif" font-size="10.00">main.cpp</text>
</a>
</g>
</g>
<!-- Node1&#45;&gt;Node7 -->
<g id="edge7" class="edge">
<title>Node1&#45;&gt;Node7</title>
<path fill="none" stroke="midnightblue" d="M412.73,-159.75C407.65,-151.45 401.6,-141.3 396.5,-132 378.33,-98.9 375.54,-89.7 358.5,-56 352.09,-43.32 344.58,-28.66 339.93,-19.62"/>
<polygon fill="midnightblue" stroke="midnightblue" points="409.89,-161.82 418.13,-168.49 415.85,-158.14 409.89,-161.82"/>
</g>
<!-- Node8 -->
<g id="node8" class="node">
<title>Node8</title>
<g id="a_node8"><a xlink:href="processor__channel_8hpp.html" target="_top" xlink:title=" ">
<polygon fill="white" stroke="black" points="405.5,-112.5 405.5,-131.5 533.5,-131.5 533.5,-112.5 405.5,-112.5"/>
<text text-anchor="middle" x="469.5" y="-119.5" font-family="Helvetica,sans-Serif" font-size="10.00">processor_channel.hpp</text>
</a>
</g>
</g>
<!-- Node1&#45;&gt;Node8 -->
<g id="edge8" class="edge">
<title>Node1&#45;&gt;Node8</title>
<path fill="none" stroke="midnightblue" d="M437.61,-160.43C445.68,-150.97 455.46,-139.48 462.05,-131.75"/>
<polygon fill="midnightblue" stroke="midnightblue" points="434.92,-158.2 431.1,-168.08 440.25,-162.74 434.92,-158.2"/>
</g>
<!-- Node10 -->
<g id="node10" class="node">
<title>Node10</title>
<g id="a_node10"><a xlink:href="processor__register_8hpp.html" target="_top" xlink:title=" ">
<polygon fill="white" stroke="black" points="552,-112.5 552,-131.5 679,-131.5 679,-112.5 552,-112.5"/>
<text text-anchor="middle" x="615.5" y="-119.5" font-family="Helvetica,sans-Serif" font-size="10.00">processor_register.hpp</text>
</a>
</g>
</g>
<!-- Node1&#45;&gt;Node10 -->
<g id="edge10" class="edge">
<title>Node1&#45;&gt;Node10</title>
<path fill="none" stroke="midnightblue" d="M463.68,-165.7C499.92,-155.51 552.41,-140.74 585.22,-131.52"/>
<polygon fill="midnightblue" stroke="midnightblue" points="462.6,-162.37 453.92,-168.44 464.5,-169.11 462.6,-162.37"/>
</g>
<!-- Node11 -->
<g id="node11" class="node">
<title>Node11</title>
<g id="a_node11"><a xlink:href="processor__send__message_8hpp.html" target="_top" xlink:title=" ">
<polygon fill="white" stroke="black" points="697,-112.5 697,-131.5 860,-131.5 860,-112.5 697,-112.5"/>
<text text-anchor="middle" x="778.5" y="-119.5" font-family="Helvetica,sans-Serif" font-size="10.00">processor_send_message.hpp</text>
</a>
</g>
</g>
<!-- Node1&#45;&gt;Node11 -->
<g id="edge12" class="edge">
<title>Node1&#45;&gt;Node11</title>
<path fill="none" stroke="midnightblue" d="M467.78,-170.26C532.29,-160.45 652.08,-142.23 722.59,-131.5"/>
<polygon fill="midnightblue" stroke="midnightblue" points="466.9,-166.86 457.54,-171.82 467.95,-173.78 466.9,-166.86"/>
</g>
<!-- Node12 -->
<g id="node12" class="node">
<title>Node12</title>
<g id="a_node12"><a xlink:href="server_8cpp.html" target="_top" xlink:title=" ">
<polygon fill="white" stroke="black" points="878,-112.5 878,-131.5 945,-131.5 945,-112.5 878,-112.5"/>
<text text-anchor="middle" x="911.5" y="-119.5" font-family="Helvetica,sans-Serif" font-size="10.00">server.cpp</text>
</a>
</g>
</g>
<!-- Node1&#45;&gt;Node12 -->
<g id="edge14" class="edge">
<title>Node1&#45;&gt;Node12</title>
<path fill="none" stroke="midnightblue" d="M467.75,-174.16C548.12,-168.65 723.27,-154.97 869.5,-132 872.15,-131.58 874.89,-131.11 877.63,-130.59"/>
<polygon fill="midnightblue" stroke="midnightblue" points="467.25,-170.69 457.51,-174.86 467.73,-177.67 467.25,-170.69"/>
</g>
<!-- Node13 -->
<g id="node13" class="node">
<title>Node13</title>
<g id="a_node13"><a xlink:href="user_8cpp.html" target="_top" xlink:title=" ">
<polygon fill="white" stroke="black" points="963,-112.5 963,-131.5 1020,-131.5 1020,-112.5 963,-112.5"/>
<text text-anchor="middle" x="991.5" y="-119.5" font-family="Helvetica,sans-Serif" font-size="10.00">user.cpp</text>
</a>
</g>
</g>
<!-- Node1&#45;&gt;Node13 -->
<g id="edge16" class="edge">
<title>Node1&#45;&gt;Node13</title>
<path fill="none" stroke="midnightblue" d="M467.58,-175.56C558.93,-172.07 775.35,-161.2 954.5,-132 957.24,-131.55 960.08,-131.01 962.91,-130.42"/>
<polygon fill="midnightblue" stroke="midnightblue" points="467.44,-172.06 457.58,-175.93 467.7,-179.06 467.44,-172.06"/>
</g>
<!-- Node3 -->
<g id="node3" class="node">
<title>Node3</title>
<g id="a_node3"><a xlink:href="bot__main_8cpp.html" target="_top" xlink:title=" ">
<polygon fill="white" stroke="black" points="6,-56.5 6,-75.5 89,-75.5 89,-56.5 6,-56.5"/>
<text text-anchor="middle" x="47.5" y="-63.5" font-family="Helvetica,sans-Serif" font-size="10.00">bot_main.cpp</text>
</a>
</g>
</g>
<!-- Node2&#45;&gt;Node3 -->
<g id="edge2" class="edge">
<title>Node2&#45;&gt;Node3</title>
<path fill="none" stroke="midnightblue" d="M47.5,-101.8C47.5,-92.91 47.5,-82.78 47.5,-75.75"/>
<polygon fill="midnightblue" stroke="midnightblue" points="44,-102.08 47.5,-112.08 51,-102.08 44,-102.08"/>
</g>
<!-- Node5&#45;&gt;Node6 -->
<g id="edge5" class="edge">
<title>Node5&#45;&gt;Node6</title>
<path fill="none" stroke="midnightblue" d="M270.12,-103.57C276.32,-94.27 283.67,-83.25 288.67,-75.75"/>
<polygon fill="midnightblue" stroke="midnightblue" points="267.08,-101.82 264.44,-112.08 272.9,-105.7 267.08,-101.82"/>
</g>
<!-- Node6&#45;&gt;Node7 -->
<g id="edge6" class="edge">
<title>Node6&#45;&gt;Node7</title>
<path fill="none" stroke="midnightblue" d="M307.52,-47.86C314.62,-38.5 323.1,-27.33 328.86,-19.75"/>
<polygon fill="midnightblue" stroke="midnightblue" points="304.53,-46 301.27,-56.08 310.11,-50.24 304.53,-46"/>
</g>
<!-- Node9 -->
<g id="node9" class="node">
<title>Node9</title>
<g id="a_node9"><a xlink:href="processor_8cpp.html" target="_top" xlink:title=" ">
<polygon fill="white" stroke="black" points="574,-56.5 574,-75.5 657,-75.5 657,-56.5 574,-56.5"/>
<text text-anchor="middle" x="615.5" y="-63.5" font-family="Helvetica,sans-Serif" font-size="10.00">processor.cpp</text>
</a>
</g>
</g>
<!-- Node8&#45;&gt;Node9 -->
<g id="edge9" class="edge">
<title>Node8&#45;&gt;Node9</title>
<path fill="none" stroke="midnightblue" d="M502.2,-108.91C529.65,-98.75 568.17,-84.51 592.47,-75.52"/>
<polygon fill="midnightblue" stroke="midnightblue" points="500.8,-105.69 492.63,-112.44 503.23,-112.26 500.8,-105.69"/>
</g>
<!-- Node10&#45;&gt;Node9 -->
<g id="edge11" class="edge">
<title>Node10&#45;&gt;Node9</title>
<path fill="none" stroke="midnightblue" d="M615.5,-101.8C615.5,-92.91 615.5,-82.78 615.5,-75.75"/>
<polygon fill="midnightblue" stroke="midnightblue" points="612,-102.08 615.5,-112.08 619,-102.08 612,-102.08"/>
</g>
<!-- Node11&#45;&gt;Node9 -->
<g id="edge13" class="edge">
<title>Node11&#45;&gt;Node9</title>
<path fill="none" stroke="midnightblue" d="M742.8,-109.17C712.1,-99 668.58,-84.59 641.21,-75.52"/>
<polygon fill="midnightblue" stroke="midnightblue" points="742.08,-112.62 752.67,-112.44 744.28,-105.98 742.08,-112.62"/>
</g>
</g>
</svg>
