<?xml version="1.0" encoding="UTF-8" standalone="no"?>
<!DOCTYPE svg PUBLIC "-//W3C//DTD SVG 1.1//EN"
 "http://www.w3.org/Graphics/SVG/1.1/DTD/svg11.dtd">
<!-- Generated by graphviz version 2.43.0 (0)
 -->
<!-- Title: includes/libserv/server_channel.cpp Pages: 1 -->
<!--zoomable 386 -->
<svg id="main" version="1.1" xmlns="http://www.w3.org/2000/svg" xmlns:xlink="http://www.w3.org/1999/xlink" xml:space="preserve" onload="init(evt)">
<style type="text/css"><![CDATA[
.edge:hover path { stroke: red; }
.edge:hover polygon { stroke: red; fill: red; }
]]></style>
<script type="text/javascript"><![CDATA[
var edges = document.getElementsByTagName('g');
if (edges && edges.length) {
  for (var i=0;i<edges.length;i++) {
    if (edges[i].id.substr(0,4)=='edge') {
      edges[i].setAttribute('class','edge');
    }
  }
}
]]></script>
        <defs>
                <circle id="rim" cx="0" cy="0" r="7"/>
                <circle id="rim2" cx="0" cy="0" r="3.5"/>
                <g id="zoomPlus">
                        <use xlink:href="#rim" fill="#404040">
                                <set attributeName="fill" to="#808080" begin="zoomplus.mouseover" end="zoomplus.mouseout"/>
                        </use>
                        <path d="M-4,0h8M0,-4v8" fill="none" stroke="white" stroke-width="1.5" pointer-events="none"/>
                </g>
                <g id="zoomMin">
                        <use xlink:href="#rim" fill="#404040">
                                <set attributeName="fill" to="#808080" begin="zoomminus.mouseover" end="zoomminus.mouseout"/>
                        </use>
                        <path d="M-4,0h8" fill="none" stroke="white" stroke-width="1.5" pointer-events="none"/>
                </g>
                <g id="dirArrow">
                        <path fill="none" stroke="white" stroke-width="1.5" d="M0,-3.0v7 M-2.5,-0.5L0,-3.0L2.5,-0.5"/>
                </g>
               <g id="resetDef">
                       <use xlink:href="#rim2" fill="#404040">
                               <set attributeName="fill" to="#808080" begin="reset.mouseover" end="reset.mouseout"/>
                       </use>
               </g>
        </defs>

<script type="text/javascript">
var viewWidth = 2695;
var viewHeight = 386;
var sectionId = 'dynsection-0';
</script>
<script xlink:href="svgpan.js"/>
<svg id="graph" class="graph">
<g id="viewport">
<title>includes/libserv/server_channel.cpp</title>
<polygon fill="white" stroke="transparent" points="-4,4 -4,-382 2691.08,-382 2691.08,4 -4,4"/>
<!-- Node1 -->
<g id="node1" class="node">
<title>Node1</title>
<g id="a_node1"><a xlink:title=" ">
<polygon fill="#bfbfbf" stroke="black" points="1251.08,-347.5 1251.08,-377.5 1378.08,-377.5 1378.08,-347.5 1251.08,-347.5"/>
<text text-anchor="start" x="1259.08" y="-365.5" font-family="Helvetica,sans-Serif" font-size="10.00">includes/libserv/server</text>
<text text-anchor="middle" x="1314.58" y="-354.5" font-family="Helvetica,sans-Serif" font-size="10.00">_channel.cpp</text>
</a>
</g>
</g>
<!-- Node2 -->
<g id="node2" class="node">
<title>Node2</title>
<g id="a_node2"><a xlink:href="server__channel_8hpp.html" target="_top" xlink:title=" ">
<polygon fill="white" stroke="black" points="1106.58,-235.5 1106.58,-254.5 1218.58,-254.5 1218.58,-235.5 1106.58,-235.5"/>
<text text-anchor="middle" x="1162.58" y="-242.5" font-family="Helvetica,sans-Serif" font-size="10.00">server_channel.hpp</text>
</a>
</g>
</g>
<!-- Node1&#45;&gt;Node2 -->
<g id="edge1" class="edge">
<title>Node1&#45;&gt;Node2</title>
<path fill="none" stroke="midnightblue" d="M1295.94,-347.34C1267.06,-325.39 1211.76,-283.37 1182.25,-260.95"/>
<polygon fill="midnightblue" stroke="midnightblue" points="1184.06,-257.93 1173.98,-254.67 1179.83,-263.51 1184.06,-257.93"/>
</g>
<!-- Node3 -->
<g id="node3" class="node">
<title>Node3</title>
<g id="a_node3"><a xlink:href="event__channel__base_8hpp.html" target="_top" xlink:title=" ">
<polygon fill="white" stroke="black" points="997.08,-179.5 997.08,-198.5 1134.08,-198.5 1134.08,-179.5 997.08,-179.5"/>
<text text-anchor="middle" x="1065.58" y="-186.5" font-family="Helvetica,sans-Serif" font-size="10.00">event_channel_base.hpp</text>
</a>
</g>
</g>
<!-- Node1&#45;&gt;Node3 -->
<g id="edge19" class="edge">
<title>Node1&#45;&gt;Node3</title>
<path fill="none" stroke="midnightblue" d="M1264.6,-347.38C1216.61,-331.63 1144.64,-302.01 1097.58,-255 1084.53,-241.97 1075.93,-222.54 1070.96,-208.32"/>
<polygon fill="midnightblue" stroke="midnightblue" points="1074.25,-207.1 1067.86,-198.65 1067.58,-209.24 1074.25,-207.1"/>
</g>
<!-- Node5 -->
<g id="node5" class="node">
<title>Node5</title>
<g id="a_node5"><a xlink:href="serv__types_8hpp.html" target="_top" xlink:title=" ">
<polygon fill="white" stroke="black" points="1282.08,-56.5 1282.08,-75.5 1373.08,-75.5 1373.08,-56.5 1282.08,-56.5"/>
<text text-anchor="middle" x="1327.58" y="-63.5" font-family="Helvetica,sans-Serif" font-size="10.00">serv_types.hpp</text>
</a>
</g>
</g>
<!-- Node1&#45;&gt;Node5 -->
<g id="edge50" class="edge">
<title>Node1&#45;&gt;Node5</title>
<path fill="none" stroke="midnightblue" d="M1250.77,-358.99C995.63,-348.57 62.58,-306.3 62.58,-246 62.58,-246 62.58,-246 62.58,-188 62.58,-172.3 -231.66,-190.87 459.58,-112 539.82,-102.84 1092.93,-77.53 1271.86,-69.49"/>
<polygon fill="midnightblue" stroke="midnightblue" points="1272.02,-72.98 1281.86,-69.04 1271.71,-65.99 1272.02,-72.98"/>
</g>
<!-- Node13 -->
<g id="node13" class="node">
<title>Node13</title>
<g id="a_node13"><a xlink:title=" ">
<polygon fill="white" stroke="#bfbfbf" points="706.08,-118 706.08,-137 845.08,-137 845.08,-118 706.08,-118"/>
<text text-anchor="middle" x="775.58" y="-125" font-family="Helvetica,sans-Serif" font-size="10.00">smart_ptr/shared_ptr.hpp</text>
</a>
</g>
</g>
<!-- Node1&#45;&gt;Node13 -->
<g id="edge72" class="edge">
<title>Node1&#45;&gt;Node13</title>
<path fill="none" stroke="midnightblue" d="M1258.13,-347.44C1223.96,-338.33 1179.75,-325.49 1141.58,-311 1032.65,-269.66 1008.4,-251.85 904.58,-199 867.47,-180.11 825.26,-156.66 799.53,-142.14"/>
<polygon fill="midnightblue" stroke="midnightblue" points="800.94,-138.92 790.52,-137.04 797.49,-145.01 800.94,-138.92"/>
</g>
<!-- Node15 -->
<g id="node15" class="node">
<title>Node15</title>
<g id="a_node15"><a xlink:title=" ">
<polygon fill="white" stroke="#bfbfbf" points="1355.58,-118 1355.58,-137 1399.58,-137 1399.58,-118 1355.58,-118"/>
<text text-anchor="middle" x="1377.58" y="-125" font-family="Helvetica,sans-Serif" font-size="10.00">string</text>
</a>
</g>
</g>
<!-- Node1&#45;&gt;Node15 -->
<g id="edge74" class="edge">
<title>Node1&#45;&gt;Node15</title>
<path fill="none" stroke="midnightblue" d="M1308.72,-347.19C1299.86,-323.47 1285.2,-274.66 1296.58,-235 1307.38,-197.32 1339.14,-163.04 1359.53,-144.05"/>
<polygon fill="midnightblue" stroke="midnightblue" points="1362.15,-146.4 1367.22,-137.1 1357.46,-141.2 1362.15,-146.4"/>
</g>
<!-- Node16 -->
<g id="node16" class="node">
<title>Node16</title>
<g id="a_node16"><a xlink:href="event__layer_8hpp.html" target="_top" xlink:title=" ">
<polygon fill="white" stroke="black" points="1305.08,-235.5 1305.08,-254.5 1400.08,-254.5 1400.08,-235.5 1305.08,-235.5"/>
<text text-anchor="middle" x="1352.58" y="-242.5" font-family="Helvetica,sans-Serif" font-size="10.00">event_layer.hpp</text>
</a>
</g>
</g>
<!-- Node1&#45;&gt;Node16 -->
<g id="edge20" class="edge">
<title>Node1&#45;&gt;Node16</title>
<path fill="none" stroke="midnightblue" d="M1319.24,-347.34C1326.11,-326.43 1338.98,-287.31 1346.57,-264.27"/>
<polygon fill="midnightblue" stroke="midnightblue" points="1349.92,-265.26 1349.72,-254.67 1343.27,-263.07 1349.92,-265.26"/>
</g>
<!-- Node19 -->
<g id="node19" class="node">
<title>Node19</title>
<g id="a_node19"><a xlink:href="event__worker__group_8hpp.html" target="_top" xlink:title=" ">
<polygon fill="white" stroke="black" points="670.08,-291.5 670.08,-310.5 807.08,-310.5 807.08,-291.5 670.08,-291.5"/>
<text text-anchor="middle" x="738.58" y="-298.5" font-family="Helvetica,sans-Serif" font-size="10.00">event_worker_group.hpp</text>
</a>
</g>
</g>
<!-- Node1&#45;&gt;Node19 -->
<g id="edge30" class="edge">
<title>Node1&#45;&gt;Node19</title>
<path fill="none" stroke="midnightblue" d="M1251.01,-354.93C1145.08,-343.99 932.7,-322.05 817.41,-310.14"/>
<polygon fill="midnightblue" stroke="midnightblue" points="817.55,-306.64 807.24,-309.09 816.83,-313.6 817.55,-306.64"/>
</g>
<!-- Node26 -->
<g id="node26" class="node">
<title>Node26</title>
<g id="a_node26"><a xlink:href="serv__exception_8hpp.html" target="_top" xlink:title=" ">
<polygon fill="white" stroke="black" points="2491.58,-179.5 2491.58,-198.5 2603.58,-198.5 2603.58,-179.5 2491.58,-179.5"/>
<text text-anchor="middle" x="2547.58" y="-186.5" font-family="Helvetica,sans-Serif" font-size="10.00">serv_exception.hpp</text>
</a>
</g>
</g>
<!-- Node1&#45;&gt;Node26 -->
<g id="edge45" class="edge">
<title>Node1&#45;&gt;Node26</title>
<path fill="none" stroke="midnightblue" d="M1378.13,-353.13C1452.57,-343.27 1579.57,-326.31 1688.58,-311 1859.37,-287.02 1907.31,-304.33 2072.58,-255 2092.77,-248.97 2095.26,-240.6 2115.58,-235 2265.9,-193.55 2309.51,-215.41 2464.58,-199 2469.98,-198.43 2475.58,-197.83 2481.21,-197.23"/>
<polygon fill="midnightblue" stroke="midnightblue" points="2481.76,-200.69 2491.32,-196.14 2481.01,-193.73 2481.76,-200.69"/>
</g>
<!-- Node28 -->
<g id="node28" class="node">
<title>Node28</title>
<g id="a_node28"><a xlink:href="socket__utils_8hpp.html" target="_top" xlink:title=" ">
<polygon fill="white" stroke="black" points="1968.08,-235.5 1968.08,-254.5 2063.08,-254.5 2063.08,-235.5 1968.08,-235.5"/>
<text text-anchor="middle" x="2015.58" y="-242.5" font-family="Helvetica,sans-Serif" font-size="10.00">socket_utils.hpp</text>
</a>
</g>
</g>
<!-- Node1&#45;&gt;Node28 -->
<g id="edge51" class="edge">
<title>Node1&#45;&gt;Node28</title>
<path fill="none" stroke="midnightblue" d="M1378.33,-351C1513.72,-328.69 1828.12,-276.89 1957.93,-255.5"/>
<polygon fill="midnightblue" stroke="midnightblue" points="1958.76,-258.91 1968.06,-253.83 1957.62,-252 1958.76,-258.91"/>
</g>
<!-- Node38 -->
<g id="node38" class="node">
<title>Node38</title>
<g id="a_node38"><a xlink:title=" ">
<polygon fill="white" stroke="#bfbfbf" points="2622.08,-179.5 2622.08,-198.5 2687.08,-198.5 2687.08,-179.5 2622.08,-179.5"/>
<text text-anchor="middle" x="2654.58" y="-186.5" font-family="Helvetica,sans-Serif" font-size="10.00">stdexcept</text>
</a>
</g>
</g>
<!-- Node1&#45;&gt;Node38 -->
<g id="edge73" class="edge">
<title>Node1&#45;&gt;Node38</title>
<path fill="none" stroke="midnightblue" d="M1378.21,-355.68C1471.91,-346.95 1652.44,-329.5 1805.58,-311 2161.82,-267.97 2254.31,-261.97 2612.21,-198.95"/>
<polygon fill="midnightblue" stroke="midnightblue" points="2612.82,-202.4 2622.06,-197.21 2611.61,-195.5 2612.82,-202.4"/>
</g>
<!-- Node39 -->
<g id="node39" class="node">
<title>Node39</title>
<g id="a_node39"><a xlink:href="stream__channel_8hpp.html" target="_top" xlink:title=" ">
<polygon fill="white" stroke="black" points="1486.58,-235.5 1486.58,-254.5 1602.58,-254.5 1602.58,-235.5 1486.58,-235.5"/>
<text text-anchor="middle" x="1544.58" y="-242.5" font-family="Helvetica,sans-Serif" font-size="10.00">stream_channel.hpp</text>
</a>
</g>
</g>
<!-- Node1&#45;&gt;Node39 -->
<g id="edge66" class="edge">
<title>Node1&#45;&gt;Node39</title>
<path fill="none" stroke="midnightblue" d="M1342.78,-347.34C1387.72,-324.77 1474.95,-280.97 1518.51,-259.09"/>
<polygon fill="midnightblue" stroke="midnightblue" points="1520.24,-262.14 1527.61,-254.52 1517.1,-255.88 1520.24,-262.14"/>
</g>
<!-- Node40 -->
<g id="node40" class="node">
<title>Node40</title>
<g id="a_node40"><a xlink:title=" ">
<polygon fill="white" stroke="#bfbfbf" points="2158.08,-291.5 2158.08,-310.5 2311.08,-310.5 2311.08,-291.5 2158.08,-291.5"/>
<text text-anchor="middle" x="2234.58" y="-298.5" font-family="Helvetica,sans-Serif" font-size="10.00">smart_ptr/make_shared.hpp</text>
</a>
</g>
</g>
<!-- Node1&#45;&gt;Node40 -->
<g id="edge71" class="edge">
<title>Node1&#45;&gt;Node40</title>
<path fill="none" stroke="midnightblue" d="M1378.34,-358.44C1517.42,-351.58 1858.45,-333.78 2143.58,-311 2144.87,-310.9 2146.17,-310.79 2147.48,-310.68"/>
<polygon fill="midnightblue" stroke="midnightblue" points="2147.97,-314.15 2157.64,-309.81 2147.38,-307.18 2147.97,-314.15"/>
</g>
<!-- Node2&#45;&gt;Node3 -->
<g id="edge2" class="edge">
<title>Node2&#45;&gt;Node3</title>
<path fill="none" stroke="midnightblue" d="M1146.99,-235.32C1131.58,-226.74 1107.76,-213.49 1089.87,-203.52"/>
<polygon fill="midnightblue" stroke="midnightblue" points="1091.56,-200.46 1081.12,-198.65 1088.16,-206.58 1091.56,-200.46"/>
</g>
<!-- Node2&#45;&gt;Node5 -->
<g id="edge16" class="edge">
<title>Node2&#45;&gt;Node5</title>
<path fill="none" stroke="midnightblue" d="M1168.94,-235.35C1179.29,-221.79 1201.01,-195.37 1224.58,-179 1257.94,-155.83 1282.24,-173.92 1308.58,-143 1322.19,-127.02 1326.29,-102.67 1327.41,-85.86"/>
<polygon fill="midnightblue" stroke="midnightblue" points="1330.91,-85.75 1327.78,-75.63 1323.92,-85.49 1330.91,-85.75"/>
</g>
<!-- Node2&#45;&gt;Node13 -->
<g id="edge17" class="edge">
<title>Node2&#45;&gt;Node13</title>
<path fill="none" stroke="midnightblue" d="M1111.53,-235.42C1069.04,-227.7 1007.22,-215.1 954.58,-199 931.69,-192 926.83,-187.81 904.58,-179 871.26,-165.82 833.04,-150.88 806.9,-140.69"/>
<polygon fill="midnightblue" stroke="midnightblue" points="808.1,-137.4 797.51,-137.03 805.55,-143.92 808.1,-137.4"/>
</g>
<!-- Node2&#45;&gt;Node15 -->
<g id="edge18" class="edge">
<title>Node2&#45;&gt;Node15</title>
<path fill="none" stroke="midnightblue" d="M1174.5,-235.33C1192.86,-222.2 1229.42,-196.9 1262.58,-179 1277.85,-170.75 1318.61,-153.23 1347.25,-141.16"/>
<polygon fill="midnightblue" stroke="midnightblue" points="1348.95,-144.24 1356.81,-137.14 1346.23,-137.79 1348.95,-144.24"/>
</g>
<!-- Node4 -->
<g id="node4" class="node">
<title>Node4</title>
<g id="a_node4"><a xlink:href="byte__buffer_8hpp.html" target="_top" xlink:title=" ">
<polygon fill="white" stroke="black" points="1019.58,-118 1019.58,-137 1111.58,-137 1111.58,-118 1019.58,-118"/>
<text text-anchor="middle" x="1065.58" y="-125" font-family="Helvetica,sans-Serif" font-size="10.00">byte_buffer.hpp</text>
</a>
</g>
</g>
<!-- Node3&#45;&gt;Node4 -->
<g id="edge3" class="edge">
<title>Node3&#45;&gt;Node4</title>
<path fill="none" stroke="midnightblue" d="M1065.58,-179.48C1065.58,-171.08 1065.58,-157.98 1065.58,-147.16"/>
<polygon fill="midnightblue" stroke="midnightblue" points="1069.08,-147.01 1065.58,-137.01 1062.08,-147.01 1069.08,-147.01"/>
</g>
<!-- Node3&#45;&gt;Node5 -->
<g id="edge11" class="edge">
<title>Node3&#45;&gt;Node5</title>
<path fill="none" stroke="midnightblue" d="M1076.2,-179.3C1100.55,-159.38 1158.28,-112.15 1158.58,-112 1194.1,-93.84 1237.68,-82.46 1271.69,-75.69"/>
<polygon fill="midnightblue" stroke="midnightblue" points="1272.75,-79.05 1281.92,-73.74 1271.44,-72.18 1272.75,-79.05"/>
</g>
<!-- Node12 -->
<g id="node12" class="node">
<title>Node12</title>
<g id="a_node12"><a xlink:title=" ">
<polygon fill="white" stroke="#bfbfbf" points="863.58,-112.5 863.58,-142.5 1001.58,-142.5 1001.58,-112.5 863.58,-112.5"/>
<text text-anchor="start" x="871.58" y="-130.5" font-family="Helvetica,sans-Serif" font-size="10.00">smart_ptr/enable_shared</text>
<text text-anchor="middle" x="932.58" y="-119.5" font-family="Helvetica,sans-Serif" font-size="10.00">_from_this.hpp</text>
</a>
</g>
</g>
<!-- Node3&#45;&gt;Node12 -->
<g id="edge12" class="edge">
<title>Node3&#45;&gt;Node12</title>
<path fill="none" stroke="midnightblue" d="M1046.52,-179.48C1027.5,-170.96 997.67,-157.62 973.3,-146.72"/>
<polygon fill="midnightblue" stroke="midnightblue" points="974.48,-143.41 963.92,-142.52 971.62,-149.8 974.48,-143.41"/>
</g>
<!-- Node3&#45;&gt;Node13 -->
<g id="edge13" class="edge">
<title>Node3&#45;&gt;Node13</title>
<path fill="none" stroke="midnightblue" d="M1024.03,-179.48C972.13,-168.83 883.33,-150.61 827.14,-139.08"/>
<polygon fill="midnightblue" stroke="midnightblue" points="827.55,-135.59 817.05,-137.01 826.14,-142.45 827.55,-135.59"/>
</g>
<!-- Node14 -->
<g id="node14" class="node">
<title>Node14</title>
<g id="a_node14"><a xlink:title=" ">
<polygon fill="white" stroke="#bfbfbf" points="1167.58,-118 1167.58,-137 1299.58,-137 1299.58,-118 1167.58,-118"/>
<text text-anchor="middle" x="1233.58" y="-125" font-family="Helvetica,sans-Serif" font-size="10.00">smart_ptr/weak_ptr.hpp</text>
</a>
</g>
</g>
<!-- Node3&#45;&gt;Node14 -->
<g id="edge14" class="edge">
<title>Node3&#45;&gt;Node14</title>
<path fill="none" stroke="midnightblue" d="M1089.65,-179.48C1118.59,-169.22 1167.34,-151.96 1199.98,-140.4"/>
<polygon fill="midnightblue" stroke="midnightblue" points="1201.29,-143.65 1209.55,-137.01 1198.96,-137.05 1201.29,-143.65"/>
</g>
<!-- Node3&#45;&gt;Node15 -->
<g id="edge15" class="edge">
<title>Node3&#45;&gt;Node15</title>
<path fill="none" stroke="midnightblue" d="M1113.59,-179.46C1162.66,-170.65 1241.02,-156.35 1308.58,-143 1320.62,-140.62 1333.82,-137.88 1345.42,-135.43"/>
<polygon fill="midnightblue" stroke="midnightblue" points="1346.49,-138.78 1355.54,-133.27 1345.03,-131.93 1346.49,-138.78"/>
</g>
<!-- Node4&#45;&gt;Node5 -->
<g id="edge4" class="edge">
<title>Node4&#45;&gt;Node5</title>
<path fill="none" stroke="midnightblue" d="M1100.45,-117.96C1108.68,-115.98 1117.43,-113.89 1125.58,-112 1177.68,-99.9 1237.5,-86.65 1278.44,-77.69"/>
<polygon fill="midnightblue" stroke="midnightblue" points="1279.41,-81.06 1288.43,-75.5 1277.91,-74.22 1279.41,-81.06"/>
</g>
<!-- Node10 -->
<g id="node10" class="node">
<title>Node10</title>
<g id="a_node10"><a xlink:title=" ">
<polygon fill="white" stroke="#bfbfbf" points="1039.58,-56.5 1039.58,-75.5 1091.58,-75.5 1091.58,-56.5 1039.58,-56.5"/>
<text text-anchor="middle" x="1065.58" y="-63.5" font-family="Helvetica,sans-Serif" font-size="10.00">cassert</text>
</a>
</g>
</g>
<!-- Node4&#45;&gt;Node10 -->
<g id="edge9" class="edge">
<title>Node4&#45;&gt;Node10</title>
<path fill="none" stroke="midnightblue" d="M1065.58,-117.98C1065.58,-109.58 1065.58,-96.48 1065.58,-85.66"/>
<polygon fill="midnightblue" stroke="midnightblue" points="1069.08,-85.51 1065.58,-75.51 1062.08,-85.51 1069.08,-85.51"/>
</g>
<!-- Node11 -->
<g id="node11" class="node">
<title>Node11</title>
<g id="a_node11"><a xlink:title=" ">
<polygon fill="white" stroke="#bfbfbf" points="2438.58,-56.5 2438.58,-75.5 2488.58,-75.5 2488.58,-56.5 2438.58,-56.5"/>
<text text-anchor="middle" x="2463.58" y="-63.5" font-family="Helvetica,sans-Serif" font-size="10.00">cstring</text>
</a>
</g>
</g>
<!-- Node4&#45;&gt;Node11 -->
<g id="edge10" class="edge">
<title>Node4&#45;&gt;Node11</title>
<path fill="none" stroke="midnightblue" d="M1111.8,-118.17C1126.68,-115.79 1143.28,-113.45 1158.58,-112 1660.52,-64.39 2275.32,-65.54 2428,-66.66"/>
<polygon fill="midnightblue" stroke="midnightblue" points="2428.16,-70.16 2438.19,-66.74 2428.21,-63.16 2428.16,-70.16"/>
</g>
<!-- Node6 -->
<g id="node6" class="node">
<title>Node6</title>
<g id="a_node6"><a xlink:title=" ">
<polygon fill="white" stroke="#bfbfbf" points="1217.08,-0.5 1217.08,-19.5 1264.08,-19.5 1264.08,-0.5 1217.08,-0.5"/>
<text text-anchor="middle" x="1240.58" y="-7.5" font-family="Helvetica,sans-Serif" font-size="10.00">deque</text>
</a>
</g>
</g>
<!-- Node5&#45;&gt;Node6 -->
<g id="edge5" class="edge">
<title>Node5&#45;&gt;Node6</title>
<path fill="none" stroke="midnightblue" d="M1313.6,-56.32C1300.03,-47.9 1279.2,-34.97 1263.25,-25.07"/>
<polygon fill="midnightblue" stroke="midnightblue" points="1264.86,-21.95 1254.52,-19.65 1261.17,-27.9 1264.86,-21.95"/>
</g>
<!-- Node7 -->
<g id="node7" class="node">
<title>Node7</title>
<g id="a_node7"><a xlink:title=" ">
<polygon fill="white" stroke="#bfbfbf" points="1282.58,-0.5 1282.58,-19.5 1320.58,-19.5 1320.58,-0.5 1282.58,-0.5"/>
<text text-anchor="middle" x="1301.58" y="-7.5" font-family="Helvetica,sans-Serif" font-size="10.00">map</text>
</a>
</g>
</g>
<!-- Node5&#45;&gt;Node7 -->
<g id="edge6" class="edge">
<title>Node5&#45;&gt;Node7</title>
<path fill="none" stroke="midnightblue" d="M1323.28,-56.08C1319.72,-48.69 1314.55,-37.95 1310.15,-28.81"/>
<polygon fill="midnightblue" stroke="midnightblue" points="1313.28,-27.24 1305.79,-19.75 1306.97,-30.28 1313.28,-27.24"/>
</g>
<!-- Node8 -->
<g id="node8" class="node">
<title>Node8</title>
<g id="a_node8"><a xlink:title=" ">
<polygon fill="white" stroke="#bfbfbf" points="1338.58,-0.5 1338.58,-19.5 1370.58,-19.5 1370.58,-0.5 1338.58,-0.5"/>
<text text-anchor="middle" x="1354.58" y="-7.5" font-family="Helvetica,sans-Serif" font-size="10.00">set</text>
</a>
</g>
</g>
<!-- Node5&#45;&gt;Node8 -->
<g id="edge7" class="edge">
<title>Node5&#45;&gt;Node8</title>
<path fill="none" stroke="midnightblue" d="M1332.03,-56.08C1335.73,-48.69 1341.1,-37.95 1345.67,-28.81"/>
<polygon fill="midnightblue" stroke="midnightblue" points="1348.86,-30.26 1350.2,-19.75 1342.6,-27.13 1348.86,-30.26"/>
</g>
<!-- Node9 -->
<g id="node9" class="node">
<title>Node9</title>
<g id="a_node9"><a xlink:title=" ">
<polygon fill="white" stroke="#bfbfbf" points="1389.08,-0.5 1389.08,-19.5 1436.08,-19.5 1436.08,-0.5 1389.08,-0.5"/>
<text text-anchor="middle" x="1412.58" y="-7.5" font-family="Helvetica,sans-Serif" font-size="10.00">vector</text>
</a>
</g>
</g>
<!-- Node5&#45;&gt;Node9 -->
<g id="edge8" class="edge">
<title>Node5&#45;&gt;Node9</title>
<path fill="none" stroke="midnightblue" d="M1341.23,-56.32C1354.49,-47.9 1374.84,-34.97 1390.42,-25.07"/>
<polygon fill="midnightblue" stroke="midnightblue" points="1392.39,-27.97 1398.95,-19.65 1388.64,-22.06 1392.39,-27.97"/>
</g>
<!-- Node16&#45;&gt;Node5 -->
<g id="edge25" class="edge">
<title>Node16&#45;&gt;Node5</title>
<path fill="none" stroke="midnightblue" d="M1353.66,-235.44C1355.59,-222.45 1360.54,-197.33 1371.58,-179 1383.41,-159.34 1399.65,-164.14 1408.58,-143 1413.94,-130.31 1415.56,-123.87 1408.58,-112 1399.66,-96.84 1383.59,-86.43 1368.1,-79.46"/>
<polygon fill="midnightblue" stroke="midnightblue" points="1369.18,-76.12 1358.6,-75.56 1366.52,-82.6 1369.18,-76.12"/>
</g>
<!-- Node16&#45;&gt;Node13 -->
<g id="edge26" class="edge">
<title>Node16&#45;&gt;Node13</title>
<path fill="none" stroke="midnightblue" d="M1304.95,-239.94C1220.1,-232.4 1046.19,-215.52 987.58,-199 966.9,-193.17 963.68,-186.55 943.58,-179 901.8,-163.31 852.8,-149.03 818.54,-139.7"/>
<polygon fill="midnightblue" stroke="midnightblue" points="819.41,-136.31 808.85,-137.08 817.59,-143.06 819.41,-136.31"/>
</g>
<!-- Node16&#45;&gt;Node14 -->
<g id="edge27" class="edge">
<title>Node16&#45;&gt;Node14</title>
<path fill="none" stroke="midnightblue" d="M1343.63,-235.32C1323.73,-216 1275.55,-169.24 1250.04,-144.48"/>
<polygon fill="midnightblue" stroke="midnightblue" points="1252.24,-141.74 1242.62,-137.28 1247.36,-146.76 1252.24,-141.74"/>
</g>
<!-- Node16&#45;&gt;Node15 -->
<g id="edge29" class="edge">
<title>Node16&#45;&gt;Node15</title>
<path fill="none" stroke="midnightblue" d="M1347.83,-235.41C1341.51,-222.81 1331.87,-198.67 1338.58,-179 1343.06,-165.86 1352.49,-153.49 1360.96,-144.28"/>
<polygon fill="midnightblue" stroke="midnightblue" points="1363.53,-146.66 1368.01,-137.06 1358.52,-141.77 1363.53,-146.66"/>
</g>
<!-- Node17 -->
<g id="node17" class="node">
<title>Node17</title>
<g id="a_node17"><a xlink:href="event__handler__base_8hpp.html" target="_top" xlink:title=" ">
<polygon fill="white" stroke="black" points="1380.58,-179.5 1380.58,-198.5 1516.58,-198.5 1516.58,-179.5 1380.58,-179.5"/>
<text text-anchor="middle" x="1448.58" y="-186.5" font-family="Helvetica,sans-Serif" font-size="10.00">event_handler_base.hpp</text>
</a>
</g>
</g>
<!-- Node16&#45;&gt;Node17 -->
<g id="edge21" class="edge">
<title>Node16&#45;&gt;Node17</title>
<path fill="none" stroke="midnightblue" d="M1368,-235.32C1383.12,-226.82 1406.39,-213.73 1424.05,-203.8"/>
<polygon fill="midnightblue" stroke="midnightblue" points="1426.19,-206.61 1433.19,-198.65 1422.76,-200.51 1426.19,-206.61"/>
</g>
<!-- Node18 -->
<g id="node18" class="node">
<title>Node18</title>
<g id="a_node18"><a xlink:title=" ">
<polygon fill="white" stroke="#bfbfbf" points="1527.08,-118 1527.08,-137 1592.08,-137 1592.08,-118 1527.08,-118"/>
<text text-anchor="middle" x="1559.58" y="-125" font-family="Helvetica,sans-Serif" font-size="10.00">exception</text>
</a>
</g>
</g>
<!-- Node16&#45;&gt;Node18 -->
<g id="edge28" class="edge">
<title>Node16&#45;&gt;Node18</title>
<path fill="none" stroke="midnightblue" d="M1400.4,-242.26C1438.17,-238.58 1490.21,-228.07 1525.58,-199 1541.61,-185.82 1550.62,-163.27 1555.27,-147.22"/>
<polygon fill="midnightblue" stroke="midnightblue" points="1558.71,-147.91 1557.83,-137.35 1551.93,-146.15 1558.71,-147.91"/>
</g>
<!-- Node17&#45;&gt;Node5 -->
<g id="edge22" class="edge">
<title>Node17&#45;&gt;Node5</title>
<path fill="none" stroke="midnightblue" d="M1450.43,-179.47C1453.22,-164.25 1456.68,-132.14 1441.58,-112 1427.57,-93.32 1404.64,-82.39 1383,-75.99"/>
<polygon fill="midnightblue" stroke="midnightblue" points="1383.75,-72.57 1373.18,-73.36 1381.93,-79.33 1383.75,-72.57"/>
</g>
<!-- Node17&#45;&gt;Node13 -->
<g id="edge23" class="edge">
<title>Node17&#45;&gt;Node13</title>
<path fill="none" stroke="midnightblue" d="M1380.19,-185.18C1269.42,-180.07 1044.07,-167.5 854.58,-143 845.73,-141.86 836.38,-140.38 827.32,-138.81"/>
<polygon fill="midnightblue" stroke="midnightblue" points="827.73,-135.32 817.27,-137.01 826.49,-142.21 827.73,-135.32"/>
</g>
<!-- Node17&#45;&gt;Node18 -->
<g id="edge24" class="edge">
<title>Node17&#45;&gt;Node18</title>
<path fill="none" stroke="midnightblue" d="M1464.48,-179.48C1482.86,-169.62 1513.33,-153.29 1534.82,-141.77"/>
<polygon fill="midnightblue" stroke="midnightblue" points="1536.54,-144.82 1543.7,-137.01 1533.23,-138.65 1536.54,-144.82"/>
</g>
<!-- Node19&#45;&gt;Node3 -->
<g id="edge31" class="edge">
<title>Node19&#45;&gt;Node3</title>
<path fill="none" stroke="midnightblue" d="M763.96,-291.46C821.91,-271.97 964.03,-224.16 1030.38,-201.84"/>
<polygon fill="midnightblue" stroke="midnightblue" points="1031.62,-205.12 1039.98,-198.61 1029.39,-198.48 1031.62,-205.12"/>
</g>
<!-- Node19&#45;&gt;Node5 -->
<g id="edge41" class="edge">
<title>Node19&#45;&gt;Node5</title>
<path fill="none" stroke="midnightblue" d="M738.27,-291.2C737.32,-270.83 733.5,-219.11 718.58,-179 707.65,-149.63 675.22,-134.94 696.58,-112 706.34,-101.52 1119.57,-78.22 1271.92,-69.97"/>
<polygon fill="midnightblue" stroke="midnightblue" points="1272.21,-73.46 1282,-69.42 1271.83,-66.47 1272.21,-73.46"/>
</g>
<!-- Node19&#45;&gt;Node13 -->
<g id="edge42" class="edge">
<title>Node19&#45;&gt;Node13</title>
<path fill="none" stroke="midnightblue" d="M741.57,-291.46C744.65,-282.47 749.42,-267.87 752.58,-255 761.86,-217.2 769.17,-172.2 772.88,-147.35"/>
<polygon fill="midnightblue" stroke="midnightblue" points="776.39,-147.57 774.37,-137.17 769.46,-146.55 776.39,-147.57"/>
</g>
<!-- Node20 -->
<g id="node20" class="node">
<title>Node20</title>
<g id="a_node20"><a xlink:href="event__worker_8hpp.html" target="_top" xlink:title=" ">
<polygon fill="white" stroke="black" points="508.08,-235.5 508.08,-254.5 611.08,-254.5 611.08,-235.5 508.08,-235.5"/>
<text text-anchor="middle" x="559.58" y="-242.5" font-family="Helvetica,sans-Serif" font-size="10.00">event_worker.hpp</text>
</a>
</g>
</g>
<!-- Node19&#45;&gt;Node20 -->
<g id="edge32" class="edge">
<title>Node19&#45;&gt;Node20</title>
<path fill="none" stroke="midnightblue" d="M710.21,-291.44C679.84,-282.28 631.47,-267.69 597.76,-257.52"/>
<polygon fill="midnightblue" stroke="midnightblue" points="598.39,-254.05 587.81,-254.52 596.37,-260.76 598.39,-254.05"/>
</g>
<!-- Node23 -->
<g id="node23" class="node">
<title>Node23</title>
<g id="a_node23"><a xlink:title=" ">
<polygon fill="white" stroke="#bfbfbf" points="90.58,-179.5 90.58,-198.5 194.58,-198.5 194.58,-179.5 90.58,-179.5"/>
<text text-anchor="middle" x="142.58" y="-186.5" font-family="Helvetica,sans-Serif" font-size="10.00">thread/mutex.hpp</text>
</a>
</g>
</g>
<!-- Node19&#45;&gt;Node23 -->
<g id="edge43" class="edge">
<title>Node19&#45;&gt;Node23</title>
<path fill="none" stroke="midnightblue" d="M670.02,-292.26C604.82,-284.46 504.13,-271.26 417.58,-255 334.23,-239.34 238.06,-215.19 184.38,-201.16"/>
<polygon fill="midnightblue" stroke="midnightblue" points="185.11,-197.73 174.55,-198.58 183.33,-204.5 185.11,-197.73"/>
</g>
<!-- Node24 -->
<g id="node24" class="node">
<title>Node24</title>
<g id="a_node24"><a xlink:title=" ">
<polygon fill="white" stroke="#bfbfbf" points="212.58,-179.5 212.58,-198.5 316.58,-198.5 316.58,-179.5 212.58,-179.5"/>
<text text-anchor="middle" x="264.58" y="-186.5" font-family="Helvetica,sans-Serif" font-size="10.00">thread/thread.hpp</text>
</a>
</g>
</g>
<!-- Node19&#45;&gt;Node24 -->
<g id="edge44" class="edge">
<title>Node19&#45;&gt;Node24</title>
<path fill="none" stroke="midnightblue" d="M685.87,-291.45C637.06,-283.22 562.58,-269.86 498.58,-255 428.7,-238.78 348.35,-215.41 302.31,-201.56"/>
<polygon fill="midnightblue" stroke="midnightblue" points="303.06,-198.13 292.47,-198.58 301.03,-204.83 303.06,-198.13"/>
</g>
<!-- Node20&#45;&gt;Node3 -->
<g id="edge33" class="edge">
<title>Node20&#45;&gt;Node3</title>
<path fill="none" stroke="midnightblue" d="M611.35,-238.47C700.2,-228.99 882.23,-209.57 986.87,-198.4"/>
<polygon fill="midnightblue" stroke="midnightblue" points="987.49,-201.85 997.06,-197.31 986.75,-194.89 987.49,-201.85"/>
</g>
<!-- Node20&#45;&gt;Node5 -->
<g id="edge34" class="edge">
<title>Node20&#45;&gt;Node5</title>
<path fill="none" stroke="midnightblue" d="M507.79,-239.31C455.92,-233.42 381.3,-221.26 363.58,-199 358.04,-192.05 358.02,-185.94 363.58,-179 420.79,-107.59 1075.08,-76.72 1271.9,-69.01"/>
<polygon fill="midnightblue" stroke="midnightblue" points="1272.16,-72.51 1282.02,-68.62 1271.89,-65.51 1272.16,-72.51"/>
</g>
<!-- Node20&#45;&gt;Node13 -->
<g id="edge36" class="edge">
<title>Node20&#45;&gt;Node13</title>
<path fill="none" stroke="midnightblue" d="M611.26,-237.57C644.12,-231.6 686.37,-220.25 718.58,-199 739.03,-185.5 755.69,-162.35 765.6,-146.27"/>
<polygon fill="midnightblue" stroke="midnightblue" points="768.81,-147.72 770.87,-137.33 762.78,-144.17 768.81,-147.72"/>
</g>
<!-- Node21 -->
<g id="node21" class="node">
<title>Node21</title>
<g id="a_node21"><a xlink:href="task__base_8hpp.html" target="_top" xlink:title=" ">
<polygon fill="white" stroke="black" points="373.08,-179.5 373.08,-198.5 460.08,-198.5 460.08,-179.5 373.08,-179.5"/>
<text text-anchor="middle" x="416.58" y="-186.5" font-family="Helvetica,sans-Serif" font-size="10.00">task_base.hpp</text>
</a>
</g>
</g>
<!-- Node20&#45;&gt;Node21 -->
<g id="edge35" class="edge">
<title>Node20&#45;&gt;Node21</title>
<path fill="none" stroke="midnightblue" d="M536.92,-235.44C513.17,-226.48 475.67,-212.31 448.84,-202.18"/>
<polygon fill="midnightblue" stroke="midnightblue" points="449.72,-198.77 439.13,-198.52 447.25,-205.32 449.72,-198.77"/>
</g>
<!-- Node22 -->
<g id="node22" class="node">
<title>Node22</title>
<g id="a_node22"><a xlink:title=" ">
<polygon fill="white" stroke="#bfbfbf" points="478.58,-179.5 478.58,-198.5 640.58,-198.5 640.58,-179.5 478.58,-179.5"/>
<text text-anchor="middle" x="559.58" y="-186.5" font-family="Helvetica,sans-Serif" font-size="10.00">thread/condition_variable.hpp</text>
</a>
</g>
</g>
<!-- Node20&#45;&gt;Node22 -->
<g id="edge37" class="edge">
<title>Node20&#45;&gt;Node22</title>
<path fill="none" stroke="midnightblue" d="M559.58,-235.08C559.58,-228.01 559.58,-217.86 559.58,-208.99"/>
<polygon fill="midnightblue" stroke="midnightblue" points="563.08,-208.75 559.58,-198.75 556.08,-208.75 563.08,-208.75"/>
</g>
<!-- Node20&#45;&gt;Node23 -->
<g id="edge38" class="edge">
<title>Node20&#45;&gt;Node23</title>
<path fill="none" stroke="midnightblue" d="M507.95,-237.81C440.61,-229.67 318.88,-214.69 204.77,-199.14"/>
<polygon fill="midnightblue" stroke="midnightblue" points="205.19,-195.67 194.81,-197.78 204.24,-202.6 205.19,-195.67"/>
</g>
<!-- Node20&#45;&gt;Node24 -->
<g id="edge39" class="edge">
<title>Node20&#45;&gt;Node24</title>
<path fill="none" stroke="midnightblue" d="M512.83,-235.44C460.83,-225.92 376.82,-210.55 321.15,-200.36"/>
<polygon fill="midnightblue" stroke="midnightblue" points="321.57,-196.87 311.1,-198.52 320.31,-203.76 321.57,-196.87"/>
</g>
<!-- Node25 -->
<g id="node25" class="node">
<title>Node25</title>
<g id="a_node25"><a xlink:title=" ">
<polygon fill="white" stroke="#bfbfbf" points="659.08,-179.5 659.08,-198.5 710.08,-198.5 710.08,-179.5 659.08,-179.5"/>
<text text-anchor="middle" x="684.58" y="-186.5" font-family="Helvetica,sans-Serif" font-size="10.00">csignal</text>
</a>
</g>
</g>
<!-- Node20&#45;&gt;Node25 -->
<g id="edge40" class="edge">
<title>Node20&#45;&gt;Node25</title>
<path fill="none" stroke="midnightblue" d="M579.38,-235.44C599.86,-226.6 632.06,-212.69 655.44,-202.59"/>
<polygon fill="midnightblue" stroke="midnightblue" points="657.07,-205.7 664.86,-198.52 654.29,-199.27 657.07,-205.7"/>
</g>
<!-- Node26&#45;&gt;Node5 -->
<g id="edge46" class="edge">
<title>Node26&#45;&gt;Node5</title>
<path fill="none" stroke="midnightblue" d="M2491.43,-182.41C2364.91,-169.83 2047.87,-138.3 1782.58,-112 1638.54,-97.72 1468.86,-80.95 1383.14,-72.49"/>
<polygon fill="midnightblue" stroke="midnightblue" points="1383.4,-69 1373.11,-71.5 1382.71,-75.96 1383.4,-69"/>
</g>
<!-- Node26&#45;&gt;Node11 -->
<g id="edge48" class="edge">
<title>Node26&#45;&gt;Node11</title>
<path fill="none" stroke="midnightblue" d="M2558.01,-179.37C2574.33,-164.81 2602.46,-134.73 2586.58,-112 2566.91,-83.87 2527.67,-73.26 2498.77,-69.3"/>
<polygon fill="midnightblue" stroke="midnightblue" points="2498.99,-65.8 2488.65,-68.12 2498.18,-72.76 2498.99,-65.8"/>
</g>
<!-- Node26&#45;&gt;Node18 -->
<g id="edge49" class="edge">
<title>Node26&#45;&gt;Node18</title>
<path fill="none" stroke="midnightblue" d="M2491.47,-182.79C2476.26,-181.46 2459.79,-180.1 2444.58,-179 2120.97,-155.63 1730.16,-136.5 1602.3,-130.48"/>
<polygon fill="midnightblue" stroke="midnightblue" points="1602.3,-126.98 1592.15,-130 1601.97,-133.97 1602.3,-126.98"/>
</g>
<!-- Node27 -->
<g id="node27" class="node">
<title>Node27</title>
<g id="a_node27"><a xlink:title=" ">
<polygon fill="white" stroke="#bfbfbf" points="2530.08,-118 2530.08,-137 2577.08,-137 2577.08,-118 2530.08,-118"/>
<text text-anchor="middle" x="2553.58" y="-125" font-family="Helvetica,sans-Serif" font-size="10.00">cerrno</text>
</a>
</g>
</g>
<!-- Node26&#45;&gt;Node27 -->
<g id="edge47" class="edge">
<title>Node26&#45;&gt;Node27</title>
<path fill="none" stroke="midnightblue" d="M2548.44,-179.48C2549.28,-171.08 2550.6,-157.98 2551.69,-147.16"/>
<polygon fill="midnightblue" stroke="midnightblue" points="2555.2,-147.31 2552.72,-137.01 2548.23,-146.61 2555.2,-147.31"/>
</g>
<!-- Node28&#45;&gt;Node5 -->
<g id="edge53" class="edge">
<title>Node28&#45;&gt;Node5</title>
<path fill="none" stroke="midnightblue" d="M1968.03,-238.55C1921.37,-232.28 1848.68,-220.04 1788.58,-199 1748.9,-185.11 1660.55,-125.03 1620.58,-112 1540.56,-85.92 1443.2,-74.79 1383.31,-70.16"/>
<polygon fill="midnightblue" stroke="midnightblue" points="1383.54,-66.67 1373.31,-69.42 1383.02,-73.65 1383.54,-66.67"/>
</g>
<!-- Node28&#45;&gt;Node11 -->
<g id="edge62" class="edge">
<title>Node28&#45;&gt;Node11</title>
<path fill="none" stroke="midnightblue" d="M2063.27,-236.85C2068.1,-236.19 2072.93,-235.56 2077.58,-235 2158.92,-225.11 2385.34,-255.62 2444.58,-199 2475.31,-169.62 2471.73,-114.48 2467.25,-85.64"/>
<polygon fill="midnightblue" stroke="midnightblue" points="2470.67,-84.91 2465.49,-75.67 2463.78,-86.13 2470.67,-84.91"/>
</g>
<!-- Node28&#45;&gt;Node15 -->
<g id="edge65" class="edge">
<title>Node28&#45;&gt;Node15</title>
<path fill="none" stroke="midnightblue" d="M1968.01,-239.62C1915.01,-233.86 1827.21,-221.71 1754.58,-199 1734.46,-192.71 1731.76,-185.08 1711.58,-179 1655.36,-162.06 1482.77,-140.73 1410.23,-132.23"/>
<polygon fill="midnightblue" stroke="midnightblue" points="1410.21,-128.71 1399.88,-131.03 1409.41,-135.66 1410.21,-128.71"/>
</g>
<!-- Node28&#45;&gt;Node26 -->
<g id="edge52" class="edge">
<title>Node28&#45;&gt;Node26</title>
<path fill="none" stroke="midnightblue" d="M2063.27,-236.81C2068.1,-236.16 2072.93,-235.55 2077.58,-235 2254.85,-214.17 2300.14,-218.38 2477.58,-199 2478.84,-198.86 2480.12,-198.72 2481.41,-198.57"/>
<polygon fill="midnightblue" stroke="midnightblue" points="2481.91,-202.04 2491.43,-197.41 2481.1,-195.09 2481.91,-202.04"/>
</g>
<!-- Node29 -->
<g id="node29" class="node">
<title>Node29</title>
<g id="a_node29"><a xlink:title=" ">
<polygon fill="white" stroke="#bfbfbf" points="1797.08,-179.5 1797.08,-198.5 1844.08,-198.5 1844.08,-179.5 1797.08,-179.5"/>
<text text-anchor="middle" x="1820.58" y="-186.5" font-family="Helvetica,sans-Serif" font-size="10.00">fcntl.h</text>
</a>
</g>
</g>
<!-- Node28&#45;&gt;Node29 -->
<g id="edge54" class="edge">
<title>Node28&#45;&gt;Node29</title>
<path fill="none" stroke="midnightblue" d="M1984.68,-235.44C1949.04,-225.58 1890.68,-209.41 1854.01,-199.26"/>
<polygon fill="midnightblue" stroke="midnightblue" points="1854.85,-195.86 1844.28,-196.56 1852.98,-202.6 1854.85,-195.86"/>
</g>
<!-- Node30 -->
<g id="node30" class="node">
<title>Node30</title>
<g id="a_node30"><a xlink:title=" ">
<polygon fill="white" stroke="#bfbfbf" points="1862.08,-179.5 1862.08,-198.5 1915.08,-198.5 1915.08,-179.5 1862.08,-179.5"/>
<text text-anchor="middle" x="1888.58" y="-186.5" font-family="Helvetica,sans-Serif" font-size="10.00">netdb.h</text>
</a>
</g>
</g>
<!-- Node28&#45;&gt;Node30 -->
<g id="edge55" class="edge">
<title>Node28&#45;&gt;Node30</title>
<path fill="none" stroke="midnightblue" d="M1995.45,-235.44C1974.55,-226.56 1941.64,-212.56 1917.86,-202.45"/>
<polygon fill="midnightblue" stroke="midnightblue" points="1919.18,-199.21 1908.61,-198.52 1916.44,-205.65 1919.18,-199.21"/>
</g>
<!-- Node31 -->
<g id="node31" class="node">
<title>Node31</title>
<g id="a_node31"><a xlink:title=" ">
<polygon fill="white" stroke="#bfbfbf" points="1933.58,-179.5 1933.58,-198.5 2005.58,-198.5 2005.58,-179.5 1933.58,-179.5"/>
<text text-anchor="middle" x="1969.58" y="-186.5" font-family="Helvetica,sans-Serif" font-size="10.00">netinet/in.h</text>
</a>
</g>
</g>
<!-- Node28&#45;&gt;Node31 -->
<g id="edge56" class="edge">
<title>Node28&#45;&gt;Node31</title>
<path fill="none" stroke="midnightblue" d="M2007.98,-235.08C2001.35,-227.3 1991.55,-215.8 1983.52,-206.37"/>
<polygon fill="midnightblue" stroke="midnightblue" points="1986.18,-204.09 1977.03,-198.75 1980.85,-208.63 1986.18,-204.09"/>
</g>
<!-- Node32 -->
<g id="node32" class="node">
<title>Node32</title>
<g id="a_node32"><a xlink:title=" ">
<polygon fill="white" stroke="#bfbfbf" points="2023.58,-179.5 2023.58,-198.5 2101.58,-198.5 2101.58,-179.5 2023.58,-179.5"/>
<text text-anchor="middle" x="2062.58" y="-186.5" font-family="Helvetica,sans-Serif" font-size="10.00">netinet/tcp.h</text>
</a>
</g>
</g>
<!-- Node28&#45;&gt;Node32 -->
<g id="edge57" class="edge">
<title>Node28&#45;&gt;Node32</title>
<path fill="none" stroke="midnightblue" d="M2023.34,-235.08C2030.11,-227.3 2040.12,-215.8 2048.33,-206.37"/>
<polygon fill="midnightblue" stroke="midnightblue" points="2051.03,-208.59 2054.96,-198.75 2045.75,-204 2051.03,-208.59"/>
</g>
<!-- Node33 -->
<g id="node33" class="node">
<title>Node33</title>
<g id="a_node33"><a xlink:title=" ">
<polygon fill="white" stroke="#bfbfbf" points="2120.08,-179.5 2120.08,-198.5 2197.08,-198.5 2197.08,-179.5 2120.08,-179.5"/>
<text text-anchor="middle" x="2158.58" y="-186.5" font-family="Helvetica,sans-Serif" font-size="10.00">sys/socket.h</text>
</a>
</g>
</g>
<!-- Node28&#45;&gt;Node33 -->
<g id="edge58" class="edge">
<title>Node28&#45;&gt;Node33</title>
<path fill="none" stroke="midnightblue" d="M2038.23,-235.44C2061.98,-226.48 2099.48,-212.31 2126.31,-202.18"/>
<polygon fill="midnightblue" stroke="midnightblue" points="2127.9,-205.32 2136.02,-198.52 2125.43,-198.77 2127.9,-205.32"/>
</g>
<!-- Node34 -->
<g id="node34" class="node">
<title>Node34</title>
<g id="a_node34"><a xlink:title=" ">
<polygon fill="white" stroke="#bfbfbf" points="2215.58,-179.5 2215.58,-198.5 2287.58,-198.5 2287.58,-179.5 2215.58,-179.5"/>
<text text-anchor="middle" x="2251.58" y="-186.5" font-family="Helvetica,sans-Serif" font-size="10.00">sys/types.h</text>
</a>
</g>
</g>
<!-- Node28&#45;&gt;Node34 -->
<g id="edge59" class="edge">
<title>Node28&#45;&gt;Node34</title>
<path fill="none" stroke="midnightblue" d="M2052.97,-235.44C2094.33,-225.98 2160.99,-210.73 2205.53,-200.54"/>
<polygon fill="midnightblue" stroke="midnightblue" points="2206.55,-203.89 2215.52,-198.25 2204.99,-197.07 2206.55,-203.89"/>
</g>
<!-- Node35 -->
<g id="node35" class="node">
<title>Node35</title>
<g id="a_node35"><a xlink:title=" ">
<polygon fill="white" stroke="#bfbfbf" points="2305.58,-179.5 2305.58,-198.5 2361.58,-198.5 2361.58,-179.5 2305.58,-179.5"/>
<text text-anchor="middle" x="2333.58" y="-186.5" font-family="Helvetica,sans-Serif" font-size="10.00">unistd.h</text>
</a>
</g>
</g>
<!-- Node28&#45;&gt;Node35 -->
<g id="edge60" class="edge">
<title>Node28&#45;&gt;Node35</title>
<path fill="none" stroke="midnightblue" d="M2063.08,-236.86C2127.11,-227.17 2238.78,-209.97 2295.43,-199.07"/>
<polygon fill="midnightblue" stroke="midnightblue" points="2296.21,-202.48 2305.35,-197.11 2294.86,-195.62 2296.21,-202.48"/>
</g>
<!-- Node36 -->
<g id="node36" class="node">
<title>Node36</title>
<g id="a_node36"><a xlink:title=" ">
<polygon fill="white" stroke="#bfbfbf" points="1649.08,-179.5 1649.08,-198.5 1702.08,-198.5 1702.08,-179.5 1649.08,-179.5"/>
<text text-anchor="middle" x="1675.58" y="-186.5" font-family="Helvetica,sans-Serif" font-size="10.00">cstddef</text>
</a>
</g>
</g>
<!-- Node28&#45;&gt;Node36 -->
<g id="edge61" class="edge">
<title>Node28&#45;&gt;Node36</title>
<path fill="none" stroke="midnightblue" d="M1968.03,-237.84C1908.91,-229.95 1804.98,-215.34 1716.58,-199 1715.29,-198.76 1713.97,-198.51 1712.65,-198.25"/>
<polygon fill="midnightblue" stroke="midnightblue" points="1712.93,-194.74 1702.43,-196.16 1711.53,-201.6 1712.93,-194.74"/>
</g>
<!-- Node37 -->
<g id="node37" class="node">
<title>Node37</title>
<g id="a_node37"><a xlink:title=" ">
<polygon fill="white" stroke="#bfbfbf" points="2379.58,-179.5 2379.58,-198.5 2435.58,-198.5 2435.58,-179.5 2379.58,-179.5"/>
<text text-anchor="middle" x="2407.58" y="-186.5" font-family="Helvetica,sans-Serif" font-size="10.00">sstream</text>
</a>
</g>
</g>
<!-- Node28&#45;&gt;Node37 -->
<g id="edge63" class="edge">
<title>Node28&#45;&gt;Node37</title>
<path fill="none" stroke="midnightblue" d="M2063.29,-236.97C2068.11,-236.29 2072.94,-235.62 2077.58,-235 2204.44,-218 2239.79,-222.32 2369.45,-199.02"/>
<polygon fill="midnightblue" stroke="midnightblue" points="2370.15,-202.45 2379.37,-197.22 2368.9,-195.56 2370.15,-202.45"/>
</g>
<!-- Node28&#45;&gt;Node38 -->
<g id="edge64" class="edge">
<title>Node28&#45;&gt;Node38</title>
<path fill="none" stroke="midnightblue" d="M2063.12,-239.55C2079.71,-238.04 2098.46,-236.39 2115.58,-235 2333.08,-217.34 2391.62,-229.9 2611.71,-198.92"/>
<polygon fill="midnightblue" stroke="midnightblue" points="2612.23,-202.38 2621.64,-197.51 2611.25,-195.45 2612.23,-202.38"/>
</g>
<!-- Node39&#45;&gt;Node3 -->
<g id="edge67" class="edge">
<title>Node39&#45;&gt;Node3</title>
<path fill="none" stroke="midnightblue" d="M1486.32,-237.43C1400.59,-227.77 1240.26,-209.69 1144.19,-198.86"/>
<polygon fill="midnightblue" stroke="midnightblue" points="1144.56,-195.38 1134.23,-197.74 1143.78,-202.34 1144.56,-195.38"/>
</g>
<!-- Node39&#45;&gt;Node5 -->
<g id="edge68" class="edge">
<title>Node39&#45;&gt;Node5</title>
<path fill="none" stroke="midnightblue" d="M1554.06,-235.35C1577.67,-212.78 1634.86,-151.2 1601.58,-112 1574.18,-79.73 1455.43,-70.56 1383.56,-67.98"/>
<polygon fill="midnightblue" stroke="midnightblue" points="1383.42,-64.47 1373.31,-67.65 1383.19,-71.47 1383.42,-64.47"/>
</g>
<!-- Node39&#45;&gt;Node15 -->
<g id="edge70" class="edge">
<title>Node39&#45;&gt;Node15</title>
<path fill="none" stroke="midnightblue" d="M1544.46,-235.18C1543.8,-221.37 1540.53,-194.63 1525.58,-179 1495.01,-147.05 1443.43,-135.31 1409.95,-131"/>
<polygon fill="midnightblue" stroke="midnightblue" points="1410.09,-127.49 1399.76,-129.85 1409.3,-134.45 1410.09,-127.49"/>
</g>
<!-- Node39&#45;&gt;Node36 -->
<g id="edge69" class="edge">
<title>Node39&#45;&gt;Node36</title>
<path fill="none" stroke="midnightblue" d="M1565.33,-235.44C1586.89,-226.56 1620.84,-212.56 1645.37,-202.45"/>
<polygon fill="midnightblue" stroke="midnightblue" points="1647,-205.56 1654.92,-198.52 1644.34,-199.09 1647,-205.56"/>
</g>
</g>
</svg>
        <g id="navigator" transform="translate(0 0)" fill="#404254">
                <rect fill="#f2f5e9" fill-opacity="0.5" stroke="#606060" stroke-width=".5" x="0" y="0" width="60" height="60"/>
                <use id="zoomplus" xlink:href="#zoomPlus" x="17" y="9" onmousedown="handleZoom(evt,'in')"/>
                <use id="zoomminus" xlink:href="#zoomMin" x="42" y="9" onmousedown="handleZoom(evt,'out')"/>
                <use id="reset" xlink:href="#resetDef" x="30" y="36" onmousedown="handleReset()"/>
                <g id="arrowUp" xlink:href="#dirArrow" transform="translate(30 24)" onmousedown="handlePan(0,-1)">
                  <use xlink:href="#rim" fill="#404040">
                        <set attributeName="fill" to="#808080" begin="arrowUp.mouseover" end="arrowUp.mouseout"/>
                  </use>
                  <path fill="none" stroke="white" stroke-width="1.5" d="M0,-3.0v7 M-2.5,-0.5L0,-3.0L2.5,-0.5"/>
                </g>
                <g id="arrowRight" xlink:href="#dirArrow" transform="rotate(90) translate(36 -43)" onmousedown="handlePan(1,0)">
                  <use xlink:href="#rim" fill="#404040">
                        <set attributeName="fill" to="#808080" begin="arrowRight.mouseover" end="arrowRight.mouseout"/>
                  </use>
                  <path fill="none" stroke="white" stroke-width="1.5" d="M0,-3.0v7 M-2.5,-0.5L0,-3.0L2.5,-0.5"/>
                </g>
                <g id="arrowDown" xlink:href="#dirArrow" transform="rotate(180) translate(-30 -48)" onmousedown="handlePan(0,1)">
                  <use xlink:href="#rim" fill="#404040">
                        <set attributeName="fill" to="#808080" begin="arrowDown.mouseover" end="arrowDown.mouseout"/>
                  </use>
                  <path fill="none" stroke="white" stroke-width="1.5" d="M0,-3.0v7 M-2.5,-0.5L0,-3.0L2.5,-0.5"/>
                </g>
                <g id="arrowLeft" xlink:href="#dirArrow" transform="rotate(270) translate(-36 17)" onmousedown="handlePan(-1,0)">
                  <use xlink:href="#rim" fill="#404040">
                        <set attributeName="fill" to="#808080" begin="arrowLeft.mouseover" end="arrowLeft.mouseout"/>
                  </use>
                  <path fill="none" stroke="white" stroke-width="1.5" d="M0,-3.0v7 M-2.5,-0.5L0,-3.0L2.5,-0.5"/>
                </g>
        </g>
        <svg viewBox="0 0 15 15" width="100%" height="30px" preserveAspectRatio="xMaxYMin meet">
         <g id="arrow_out" transform="scale(0.3 0.3)">
          <a xlink:href="server__channel_8cpp__incl_org.svg" target="_base">
           <rect id="button" ry="5" rx="5" y="6" x="6" height="38" width="38"
                fill="#f2f5e9" fill-opacity="0.5" stroke="#606060" stroke-width="1.0"/>
           <path id="arrow"
             d="M 11.500037,31.436501 C 11.940474,20.09759 22.043105,11.32322 32.158766,21.979434 L 37.068811,17.246167 C 37.068811,17.246167 37.088388,32 37.088388,32 L 22.160133,31.978069 C 22.160133,31.978069 26.997745,27.140456 26.997745,27.140456 C 18.528582,18.264221 13.291696,25.230495 11.500037,31.436501 z"
             style="fill:#404040;"/>
          </a>
         </g>
        </svg>
</svg>
