<?xml version="1.0" encoding="UTF-8" standalone="no"?>
<!DOCTYPE svg PUBLIC "-//W3C//DTD SVG 1.1//EN"
 "http://www.w3.org/Graphics/SVG/1.1/DTD/svg11.dtd">
<!-- Generated by graphviz version 2.43.0 (0)
 -->
<!-- Title: includes/libserv/server_channel.cpp Pages: 1 -->
<!--zoomable 386 -->
<svg id="main" version="1.1" xmlns="http://www.w3.org/2000/svg" xmlns:xlink="http://www.w3.org/1999/xlink" xml:space="preserve" onload="init(evt)">
<style type="text/css"><![CDATA[
.edge:hover path { stroke: red; }
.edge:hover polygon { stroke: red; fill: red; }
]]></style>
<script type="text/javascript"><![CDATA[
var edges = document.getElementsByTagName('g');
if (edges && edges.length) {
  for (var i=0;i<edges.length;i++) {
    if (edges[i].id.substr(0,4)=='edge') {
      edges[i].setAttribute('class','edge');
    }
  }
}
]]></script>
        <defs>
                <circle id="rim" cx="0" cy="0" r="7"/>
                <circle id="rim2" cx="0" cy="0" r="3.5"/>
                <g id="zoomPlus">
                        <use xlink:href="#rim" fill="#404040">
                                <set attributeName="fill" to="#808080" begin="zoomplus.mouseover" end="zoomplus.mouseout"/>
                        </use>
                        <path d="M-4,0h8M0,-4v8" fill="none" stroke="white" stroke-width="1.5" pointer-events="none"/>
                </g>
                <g id="zoomMin">
                        <use xlink:href="#rim" fill="#404040">
                                <set attributeName="fill" to="#808080" begin="zoomminus.mouseover" end="zoomminus.mouseout"/>
                        </use>
                        <path d="M-4,0h8" fill="none" stroke="white" stroke-width="1.5" pointer-events="none"/>
                </g>
                <g id="dirArrow">
                        <path fill="none" stroke="white" stroke-width="1.5" d="M0,-3.0v7 M-2.5,-0.5L0,-3.0L2.5,-0.5"/>
                </g>
               <g id="resetDef">
                       <use xlink:href="#rim2" fill="#404040">
                               <set attributeName="fill" to="#808080" begin="reset.mouseover" end="reset.mouseout"/>
                       </use>
               </g>
        </defs>

<script type="text/javascript">
var viewWidth = 2576;
var viewHeight = 386;
var sectionId = 'dynsection-0';
</script>
<script xlink:href="svgpan.js"/>
<svg id="graph" class="graph">
<g id="viewport">
<title>includes/libserv/server_channel.cpp</title>
<polygon fill="white" stroke="transparent" points="-4,4 -4,-382 2571.5,-382 2571.5,4 -4,4"/>
<!-- Node1 -->
<g id="node1" class="node">
<title>Node1</title>
<g id="a_node1"><a xlink:title=" ">
<polygon fill="#bfbfbf" stroke="black" points="1355.5,-347.5 1355.5,-377.5 1482.5,-377.5 1482.5,-347.5 1355.5,-347.5"/>
<text text-anchor="start" x="1363.5" y="-365.5" font-family="Helvetica,sans-Serif" font-size="10.00">includes/libserv/server</text>
<text text-anchor="middle" x="1419" y="-354.5" font-family="Helvetica,sans-Serif" font-size="10.00">_channel.cpp</text>
</a>
</g>
</g>
<!-- Node2 -->
<g id="node2" class="node">
<title>Node2</title>
<g id="a_node2"><a xlink:href="server__channel_8hpp.html" target="_top" xlink:title=" ">
<polygon fill="white" stroke="black" points="1281,-235.5 1281,-254.5 1393,-254.5 1393,-235.5 1281,-235.5"/>
<text text-anchor="middle" x="1337" y="-242.5" font-family="Helvetica,sans-Serif" font-size="10.00">server_channel.hpp</text>
</a>
</g>
</g>
<!-- Node1&#45;&gt;Node2 -->
<g id="edge1" class="edge">
<title>Node1&#45;&gt;Node2</title>
<path fill="none" stroke="midnightblue" d="M1408.95,-347.34C1393.83,-326.05 1365.32,-285.89 1349.09,-263.03"/>
<polygon fill="midnightblue" stroke="midnightblue" points="1351.8,-260.8 1343.15,-254.67 1346.09,-264.85 1351.8,-260.8"/>
</g>
<!-- Node5 -->
<g id="node5" class="node">
<title>Node5</title>
<g id="a_node5"><a xlink:href="serv__types_8hpp.html" target="_top" xlink:title=" ">
<polygon fill="white" stroke="black" points="1145.5,-56.5 1145.5,-75.5 1236.5,-75.5 1236.5,-56.5 1145.5,-56.5"/>
<text text-anchor="middle" x="1191" y="-63.5" font-family="Helvetica,sans-Serif" font-size="10.00">serv_types.hpp</text>
</a>
</g>
</g>
<!-- Node1&#45;&gt;Node5 -->
<g id="edge44" class="edge">
<title>Node1&#45;&gt;Node5</title>
<path fill="none" stroke="midnightblue" d="M1355.27,-359.7C1079.16,-351.49 0,-314.98 0,-246 0,-246 0,-246 0,-188 0,-116.03 73.55,-130.9 143,-112 238.8,-85.93 931.93,-71.62 1135.14,-67.95"/>
<polygon fill="midnightblue" stroke="midnightblue" points="1135.36,-71.45 1145.29,-67.77 1135.23,-64.45 1135.36,-71.45"/>
</g>
<!-- Node13 -->
<g id="node13" class="node">
<title>Node13</title>
<g id="a_node13"><a xlink:title=" ">
<polygon fill="white" stroke="#bfbfbf" points="775.5,-118 775.5,-137 914.5,-137 914.5,-118 775.5,-118"/>
<text text-anchor="middle" x="845" y="-125" font-family="Helvetica,sans-Serif" font-size="10.00">smart_ptr/shared_ptr.hpp</text>
</a>
</g>
</g>
<!-- Node1&#45;&gt;Node13 -->
<g id="edge69" class="edge">
<title>Node1&#45;&gt;Node13</title>
<path fill="none" stroke="midnightblue" d="M1362.52,-347.49C1323.51,-337.67 1270.47,-324.01 1224,-311 1063.86,-266.18 983.76,-317.41 867,-199 853.38,-185.19 848.18,-163.08 846.2,-147.31"/>
<polygon fill="midnightblue" stroke="midnightblue" points="849.66,-146.78 845.25,-137.15 842.69,-147.43 849.66,-146.78"/>
</g>
<!-- Node15 -->
<g id="node15" class="node">
<title>Node15</title>
<g id="a_node15"><a xlink:title=" ">
<polygon fill="white" stroke="#bfbfbf" points="1467,-118 1467,-137 1511,-137 1511,-118 1467,-118"/>
<text text-anchor="middle" x="1489" y="-125" font-family="Helvetica,sans-Serif" font-size="10.00">string</text>
</a>
</g>
</g>
<!-- Node1&#45;&gt;Node15 -->
<g id="edge71" class="edge">
<title>Node1&#45;&gt;Node15</title>
<path fill="none" stroke="midnightblue" d="M1443.03,-347.34C1481.59,-322.92 1555.32,-268.73 1579,-199 1581.86,-190.58 1583.49,-186.67 1579,-179 1578.06,-177.39 1540.25,-156.5 1513.94,-142.1"/>
<polygon fill="midnightblue" stroke="midnightblue" points="1515.31,-138.86 1504.86,-137.13 1511.96,-145 1515.31,-138.86"/>
</g>
<!-- Node16 -->
<g id="node16" class="node">
<title>Node16</title>
<g id="a_node16"><a xlink:href="event__layer_8hpp.html" target="_top" xlink:title=" ">
<polygon fill="white" stroke="black" points="1047.5,-235.5 1047.5,-254.5 1142.5,-254.5 1142.5,-235.5 1047.5,-235.5"/>
<text text-anchor="middle" x="1095" y="-242.5" font-family="Helvetica,sans-Serif" font-size="10.00">event_layer.hpp</text>
</a>
</g>
</g>
<!-- Node1&#45;&gt;Node16 -->
<g id="edge19" class="edge">
<title>Node1&#45;&gt;Node16</title>
<path fill="none" stroke="midnightblue" d="M1379.6,-347.45C1315.22,-324.5 1188.63,-279.38 1128.38,-257.9"/>
<polygon fill="midnightblue" stroke="midnightblue" points="1129.56,-254.6 1118.96,-254.54 1127.21,-261.2 1129.56,-254.6"/>
</g>
<!-- Node19 -->
<g id="node19" class="node">
<title>Node19</title>
<g id="a_node19"><a xlink:href="event__worker__group_8hpp.html" target="_top" xlink:title=" ">
<polygon fill="white" stroke="black" points="422.5,-291.5 422.5,-310.5 559.5,-310.5 559.5,-291.5 422.5,-291.5"/>
<text text-anchor="middle" x="491" y="-298.5" font-family="Helvetica,sans-Serif" font-size="10.00">event_worker_group.hpp</text>
</a>
</g>
</g>
<!-- Node1&#45;&gt;Node19 -->
<g id="edge29" class="edge">
<title>Node1&#45;&gt;Node19</title>
<path fill="none" stroke="midnightblue" d="M1355.21,-357.41C1190.32,-346.84 750.23,-318.62 569.82,-307.05"/>
<polygon fill="midnightblue" stroke="midnightblue" points="569.81,-303.55 559.61,-306.4 569.36,-310.53 569.81,-303.55"/>
</g>
<!-- Node26 -->
<g id="node26" class="node">
<title>Node26</title>
<g id="a_node26"><a xlink:href="socket__utils_8hpp.html" target="_top" xlink:title=" ">
<polygon fill="white" stroke="black" points="1973.5,-179.5 1973.5,-198.5 2068.5,-198.5 2068.5,-179.5 1973.5,-179.5"/>
<text text-anchor="middle" x="2021" y="-186.5" font-family="Helvetica,sans-Serif" font-size="10.00">socket_utils.hpp</text>
</a>
</g>
</g>
<!-- Node1&#45;&gt;Node26 -->
<g id="edge45" class="edge">
<title>Node1&#45;&gt;Node26</title>
<path fill="none" stroke="midnightblue" d="M1482.64,-347.92C1525.82,-338.39 1584.11,-324.91 1635,-311 1765.81,-275.26 1918.89,-224.6 1986.22,-201.86"/>
<polygon fill="midnightblue" stroke="midnightblue" points="1987.55,-205.1 1995.9,-198.58 1985.31,-198.47 1987.55,-205.1"/>
</g>
<!-- Node37 -->
<g id="node37" class="node">
<title>Node37</title>
<g id="a_node37"><a xlink:title=" ">
<polygon fill="white" stroke="#bfbfbf" points="2502.5,-118 2502.5,-137 2567.5,-137 2567.5,-118 2502.5,-118"/>
<text text-anchor="middle" x="2535" y="-125" font-family="Helvetica,sans-Serif" font-size="10.00">stdexcept</text>
</a>
</g>
</g>
<!-- Node1&#45;&gt;Node37 -->
<g id="edge70" class="edge">
<title>Node1&#45;&gt;Node37</title>
<path fill="none" stroke="midnightblue" d="M1482.53,-349.63C1536.04,-339.57 1614.58,-324.64 1683,-311 2043.57,-239.13 2138.51,-240.52 2493,-143 2496.03,-142.17 2499.15,-141.23 2502.27,-140.25"/>
<polygon fill="midnightblue" stroke="midnightblue" points="2503.66,-143.48 2512.06,-137.01 2501.47,-136.83 2503.66,-143.48"/>
</g>
<!-- Node38 -->
<g id="node38" class="node">
<title>Node38</title>
<g id="a_node38"><a xlink:href="stream__channel_8hpp.html" target="_top" xlink:title=" ">
<polygon fill="white" stroke="black" points="1411,-235.5 1411,-254.5 1527,-254.5 1527,-235.5 1411,-235.5"/>
<text text-anchor="middle" x="1469" y="-242.5" font-family="Helvetica,sans-Serif" font-size="10.00">stream_channel.hpp</text>
</a>
</g>
</g>
<!-- Node1&#45;&gt;Node38 -->
<g id="edge63" class="edge">
<title>Node1&#45;&gt;Node38</title>
<path fill="none" stroke="midnightblue" d="M1425.13,-347.34C1434.22,-326.34 1451.27,-286.96 1461.23,-263.96"/>
<polygon fill="midnightblue" stroke="midnightblue" points="1464.49,-265.24 1465.25,-254.67 1458.06,-262.46 1464.49,-265.24"/>
</g>
<!-- Node40 -->
<g id="node40" class="node">
<title>Node40</title>
<g id="a_node40"><a xlink:title=" ">
<polygon fill="white" stroke="#bfbfbf" points="2125.5,-291.5 2125.5,-310.5 2278.5,-310.5 2278.5,-291.5 2125.5,-291.5"/>
<text text-anchor="middle" x="2202" y="-298.5" font-family="Helvetica,sans-Serif" font-size="10.00">smart_ptr/make_shared.hpp</text>
</a>
</g>
</g>
<!-- Node1&#45;&gt;Node40 -->
<g id="edge68" class="edge">
<title>Node1&#45;&gt;Node40</title>
<path fill="none" stroke="midnightblue" d="M1482.96,-357.38C1605.11,-349.4 1879.97,-330.85 2111,-311 2112.29,-310.89 2113.59,-310.78 2114.9,-310.66"/>
<polygon fill="midnightblue" stroke="midnightblue" points="2115.41,-314.13 2125.06,-309.75 2114.79,-307.16 2115.41,-314.13"/>
</g>
<!-- Node3 -->
<g id="node3" class="node">
<title>Node3</title>
<g id="a_node3"><a xlink:href="event__channel__base_8hpp.html" target="_top" xlink:title=" ">
<polygon fill="white" stroke="black" points="1197.5,-179.5 1197.5,-198.5 1334.5,-198.5 1334.5,-179.5 1197.5,-179.5"/>
<text text-anchor="middle" x="1266" y="-186.5" font-family="Helvetica,sans-Serif" font-size="10.00">event_channel_base.hpp</text>
</a>
</g>
</g>
<!-- Node2&#45;&gt;Node3 -->
<g id="edge2" class="edge">
<title>Node2&#45;&gt;Node3</title>
<path fill="none" stroke="midnightblue" d="M1325.59,-235.32C1314.89,-227.18 1298.66,-214.84 1285.84,-205.09"/>
<polygon fill="midnightblue" stroke="midnightblue" points="1287.69,-202.1 1277.61,-198.83 1283.46,-207.67 1287.69,-202.1"/>
</g>
<!-- Node2&#45;&gt;Node5 -->
<g id="edge16" class="edge">
<title>Node2&#45;&gt;Node5</title>
<path fill="none" stroke="midnightblue" d="M1342.63,-235.21C1356.51,-212.31 1389.2,-149.99 1360,-112 1352.72,-102.52 1290.47,-87.68 1243.62,-77.66"/>
<polygon fill="midnightblue" stroke="midnightblue" points="1244.09,-74.18 1233.58,-75.54 1242.64,-81.03 1244.09,-74.18"/>
</g>
<!-- Node2&#45;&gt;Node13 -->
<g id="edge17" class="edge">
<title>Node2&#45;&gt;Node13</title>
<path fill="none" stroke="midnightblue" d="M1280.99,-239.88C1175.27,-231.81 953.98,-213.46 922,-199 895.28,-186.92 871.58,-161.95 857.75,-145.2"/>
<polygon fill="midnightblue" stroke="midnightblue" points="860.43,-142.95 851.46,-137.31 854.96,-147.31 860.43,-142.95"/>
</g>
<!-- Node2&#45;&gt;Node15 -->
<g id="edge18" class="edge">
<title>Node2&#45;&gt;Node15</title>
<path fill="none" stroke="midnightblue" d="M1354.47,-235.45C1370.78,-227.12 1395.47,-213.61 1415,-199 1437.06,-182.5 1459.58,-160.08 1473.89,-145"/>
<polygon fill="midnightblue" stroke="midnightblue" points="1476.67,-147.15 1480.94,-137.45 1471.55,-142.37 1476.67,-147.15"/>
</g>
<!-- Node4 -->
<g id="node4" class="node">
<title>Node4</title>
<g id="a_node4"><a xlink:href="byte__buffer_8hpp.html" target="_top" xlink:title=" ">
<polygon fill="white" stroke="black" points="1567,-118 1567,-137 1659,-137 1659,-118 1567,-118"/>
<text text-anchor="middle" x="1613" y="-125" font-family="Helvetica,sans-Serif" font-size="10.00">byte_buffer.hpp</text>
</a>
</g>
</g>
<!-- Node3&#45;&gt;Node4 -->
<g id="edge3" class="edge">
<title>Node3&#45;&gt;Node4</title>
<path fill="none" stroke="midnightblue" d="M1315.72,-179.48C1379.62,-168.52 1490.27,-149.55 1557.05,-138.09"/>
<polygon fill="midnightblue" stroke="midnightblue" points="1557.71,-141.53 1566.98,-136.39 1556.53,-134.63 1557.71,-141.53"/>
</g>
<!-- Node3&#45;&gt;Node5 -->
<g id="edge11" class="edge">
<title>Node3&#45;&gt;Node5</title>
<path fill="none" stroke="midnightblue" d="M1295.12,-179.44C1312.64,-172.62 1333.52,-161.14 1344,-143 1350.89,-131.07 1352.25,-123.03 1344,-112 1337.45,-103.25 1280.81,-88.18 1238.34,-77.92"/>
<polygon fill="midnightblue" stroke="midnightblue" points="1238.97,-74.47 1228.43,-75.54 1237.34,-81.28 1238.97,-74.47"/>
</g>
<!-- Node12 -->
<g id="node12" class="node">
<title>Node12</title>
<g id="a_node12"><a xlink:title=" ">
<polygon fill="white" stroke="#bfbfbf" points="1197,-112.5 1197,-142.5 1335,-142.5 1335,-112.5 1197,-112.5"/>
<text text-anchor="start" x="1205" y="-130.5" font-family="Helvetica,sans-Serif" font-size="10.00">smart_ptr/enable_shared</text>
<text text-anchor="middle" x="1266" y="-119.5" font-family="Helvetica,sans-Serif" font-size="10.00">_from_this.hpp</text>
</a>
</g>
</g>
<!-- Node3&#45;&gt;Node12 -->
<g id="edge12" class="edge">
<title>Node3&#45;&gt;Node12</title>
<path fill="none" stroke="midnightblue" d="M1266,-179.48C1266,-172.47 1266,-162.19 1266,-152.7"/>
<polygon fill="midnightblue" stroke="midnightblue" points="1269.5,-152.52 1266,-142.52 1262.5,-152.52 1269.5,-152.52"/>
</g>
<!-- Node3&#45;&gt;Node13 -->
<g id="edge13" class="edge">
<title>Node3&#45;&gt;Node13</title>
<path fill="none" stroke="midnightblue" d="M1205.68,-179.48C1128.93,-168.63 996.6,-149.93 915.34,-138.44"/>
<polygon fill="midnightblue" stroke="midnightblue" points="915.6,-134.94 905.21,-137.01 914.62,-141.87 915.6,-134.94"/>
</g>
<!-- Node14 -->
<g id="node14" class="node">
<title>Node14</title>
<g id="a_node14"><a xlink:title=" ">
<polygon fill="white" stroke="#bfbfbf" points="1047,-118 1047,-137 1179,-137 1179,-118 1047,-118"/>
<text text-anchor="middle" x="1113" y="-125" font-family="Helvetica,sans-Serif" font-size="10.00">smart_ptr/weak_ptr.hpp</text>
</a>
</g>
</g>
<!-- Node3&#45;&gt;Node14 -->
<g id="edge14" class="edge">
<title>Node3&#45;&gt;Node14</title>
<path fill="none" stroke="midnightblue" d="M1244.08,-179.48C1217.95,-169.31 1174.09,-152.26 1144.37,-140.7"/>
<polygon fill="midnightblue" stroke="midnightblue" points="1145.47,-137.37 1134.88,-137.01 1142.93,-143.9 1145.47,-137.37"/>
</g>
<!-- Node3&#45;&gt;Node15 -->
<g id="edge15" class="edge">
<title>Node3&#45;&gt;Node15</title>
<path fill="none" stroke="midnightblue" d="M1297.95,-179.48C1340.34,-168.16 1414.74,-148.31 1457.1,-137.01"/>
<polygon fill="midnightblue" stroke="midnightblue" points="1458.13,-140.36 1466.89,-134.4 1456.33,-133.6 1458.13,-140.36"/>
</g>
<!-- Node4&#45;&gt;Node5 -->
<g id="edge4" class="edge">
<title>Node4&#45;&gt;Node5</title>
<path fill="none" stroke="midnightblue" d="M1580.77,-117.95C1571.82,-115.79 1562.07,-113.62 1553,-112 1420.51,-88.34 1383.19,-95 1246.65,-76.17"/>
<polygon fill="midnightblue" stroke="midnightblue" points="1247.03,-72.69 1236.64,-74.77 1246.06,-79.62 1247.03,-72.69"/>
</g>
<!-- Node10 -->
<g id="node10" class="node">
<title>Node10</title>
<g id="a_node10"><a xlink:title=" ">
<polygon fill="white" stroke="#bfbfbf" points="1587,-56.5 1587,-75.5 1639,-75.5 1639,-56.5 1587,-56.5"/>
<text text-anchor="middle" x="1613" y="-63.5" font-family="Helvetica,sans-Serif" font-size="10.00">cassert</text>
</a>
</g>
</g>
<!-- Node4&#45;&gt;Node10 -->
<g id="edge9" class="edge">
<title>Node4&#45;&gt;Node10</title>
<path fill="none" stroke="midnightblue" d="M1613,-117.98C1613,-109.58 1613,-96.48 1613,-85.66"/>
<polygon fill="midnightblue" stroke="midnightblue" points="1616.5,-85.51 1613,-75.51 1609.5,-85.51 1616.5,-85.51"/>
</g>
<!-- Node11 -->
<g id="node11" class="node">
<title>Node11</title>
<g id="a_node11"><a xlink:title=" ">
<polygon fill="white" stroke="#bfbfbf" points="1927,-56.5 1927,-75.5 1977,-75.5 1977,-56.5 1927,-56.5"/>
<text text-anchor="middle" x="1952" y="-63.5" font-family="Helvetica,sans-Serif" font-size="10.00">cstring</text>
</a>
</g>
</g>
<!-- Node4&#45;&gt;Node11 -->
<g id="edge10" class="edge">
<title>Node4&#45;&gt;Node11</title>
<path fill="none" stroke="midnightblue" d="M1643.38,-117.99C1651.65,-115.85 1660.63,-113.68 1669,-112 1775.52,-90.58 1806.69,-97.89 1916.98,-76"/>
<polygon fill="midnightblue" stroke="midnightblue" points="1917.72,-79.42 1926.83,-74.01 1916.33,-72.56 1917.72,-79.42"/>
</g>
<!-- Node6 -->
<g id="node6" class="node">
<title>Node6</title>
<g id="a_node6"><a xlink:title=" ">
<polygon fill="white" stroke="#bfbfbf" points="1080.5,-0.5 1080.5,-19.5 1127.5,-19.5 1127.5,-0.5 1080.5,-0.5"/>
<text text-anchor="middle" x="1104" y="-7.5" font-family="Helvetica,sans-Serif" font-size="10.00">deque</text>
</a>
</g>
</g>
<!-- Node5&#45;&gt;Node6 -->
<g id="edge5" class="edge">
<title>Node5&#45;&gt;Node6</title>
<path fill="none" stroke="midnightblue" d="M1177.02,-56.32C1163.45,-47.9 1142.62,-34.97 1126.68,-25.07"/>
<polygon fill="midnightblue" stroke="midnightblue" points="1128.29,-21.95 1117.94,-19.65 1124.59,-27.9 1128.29,-21.95"/>
</g>
<!-- Node7 -->
<g id="node7" class="node">
<title>Node7</title>
<g id="a_node7"><a xlink:title=" ">
<polygon fill="white" stroke="#bfbfbf" points="1146,-0.5 1146,-19.5 1184,-19.5 1184,-0.5 1146,-0.5"/>
<text text-anchor="middle" x="1165" y="-7.5" font-family="Helvetica,sans-Serif" font-size="10.00">map</text>
</a>
</g>
</g>
<!-- Node5&#45;&gt;Node7 -->
<g id="edge6" class="edge">
<title>Node5&#45;&gt;Node7</title>
<path fill="none" stroke="midnightblue" d="M1186.71,-56.08C1183.15,-48.69 1177.98,-37.95 1173.58,-28.81"/>
<polygon fill="midnightblue" stroke="midnightblue" points="1176.71,-27.24 1169.21,-19.75 1170.4,-30.28 1176.71,-27.24"/>
</g>
<!-- Node8 -->
<g id="node8" class="node">
<title>Node8</title>
<g id="a_node8"><a xlink:title=" ">
<polygon fill="white" stroke="#bfbfbf" points="1202,-0.5 1202,-19.5 1234,-19.5 1234,-0.5 1202,-0.5"/>
<text text-anchor="middle" x="1218" y="-7.5" font-family="Helvetica,sans-Serif" font-size="10.00">set</text>
</a>
</g>
</g>
<!-- Node5&#45;&gt;Node8 -->
<g id="edge7" class="edge">
<title>Node5&#45;&gt;Node8</title>
<path fill="none" stroke="midnightblue" d="M1195.46,-56.08C1199.15,-48.69 1204.52,-37.95 1209.09,-28.81"/>
<polygon fill="midnightblue" stroke="midnightblue" points="1212.28,-30.26 1213.62,-19.75 1206.02,-27.13 1212.28,-30.26"/>
</g>
<!-- Node9 -->
<g id="node9" class="node">
<title>Node9</title>
<g id="a_node9"><a xlink:title=" ">
<polygon fill="white" stroke="#bfbfbf" points="1252.5,-0.5 1252.5,-19.5 1299.5,-19.5 1299.5,-0.5 1252.5,-0.5"/>
<text text-anchor="middle" x="1276" y="-7.5" font-family="Helvetica,sans-Serif" font-size="10.00">vector</text>
</a>
</g>
</g>
<!-- Node5&#45;&gt;Node9 -->
<g id="edge8" class="edge">
<title>Node5&#45;&gt;Node9</title>
<path fill="none" stroke="midnightblue" d="M1204.66,-56.32C1217.92,-47.9 1238.27,-34.97 1253.85,-25.07"/>
<polygon fill="midnightblue" stroke="midnightblue" points="1255.81,-27.97 1262.38,-19.65 1252.06,-22.06 1255.81,-27.97"/>
</g>
<!-- Node16&#45;&gt;Node5 -->
<g id="edge24" class="edge">
<title>Node16&#45;&gt;Node5</title>
<path fill="none" stroke="midnightblue" d="M1093.95,-235.42C1092.05,-222.41 1087.16,-197.26 1076,-179 1063.87,-159.15 1047.19,-164.37 1038,-143 1032.56,-130.34 1029.75,-123.03 1038,-112 1049.88,-96.13 1096.34,-83.93 1134.98,-76.27"/>
<polygon fill="midnightblue" stroke="midnightblue" points="1135.96,-79.64 1145.12,-74.32 1134.64,-72.77 1135.96,-79.64"/>
</g>
<!-- Node16&#45;&gt;Node13 -->
<g id="edge25" class="edge">
<title>Node16&#45;&gt;Node13</title>
<path fill="none" stroke="midnightblue" d="M1047.48,-243.87C1002.81,-241.53 935.98,-232.11 889,-199 870.81,-186.18 858.57,-163.22 851.71,-146.99"/>
<polygon fill="midnightblue" stroke="midnightblue" points="854.89,-145.5 847.97,-137.47 848.37,-148.06 854.89,-145.5"/>
</g>
<!-- Node16&#45;&gt;Node14 -->
<g id="edge26" class="edge">
<title>Node16&#45;&gt;Node14</title>
<path fill="none" stroke="midnightblue" d="M1098.45,-235.2C1101.78,-226.24 1106.67,-211.88 1109,-199 1112.14,-181.68 1113.01,-161.6 1113.18,-147.32"/>
<polygon fill="midnightblue" stroke="midnightblue" points="1116.68,-147.27 1113.19,-137.26 1109.68,-147.26 1116.68,-147.27"/>
</g>
<!-- Node16&#45;&gt;Node15 -->
<g id="edge28" class="edge">
<title>Node16&#45;&gt;Node15</title>
<path fill="none" stroke="midnightblue" d="M1142.76,-239.3C1193.6,-233.4 1275.93,-221.23 1344,-199 1388.99,-184.31 1437.79,-158.27 1465.76,-142.29"/>
<polygon fill="midnightblue" stroke="midnightblue" points="1467.84,-145.12 1474.74,-137.08 1464.33,-139.07 1467.84,-145.12"/>
</g>
<!-- Node17 -->
<g id="node17" class="node">
<title>Node17</title>
<g id="a_node17"><a xlink:href="event__handler__base_8hpp.html" target="_top" xlink:title=" ">
<polygon fill="white" stroke="black" points="931,-179.5 931,-198.5 1067,-198.5 1067,-179.5 931,-179.5"/>
<text text-anchor="middle" x="999" y="-186.5" font-family="Helvetica,sans-Serif" font-size="10.00">event_handler_base.hpp</text>
</a>
</g>
</g>
<!-- Node16&#45;&gt;Node17 -->
<g id="edge20" class="edge">
<title>Node16&#45;&gt;Node17</title>
<path fill="none" stroke="midnightblue" d="M1079.58,-235.32C1064.46,-226.82 1041.18,-213.73 1023.53,-203.8"/>
<polygon fill="midnightblue" stroke="midnightblue" points="1024.82,-200.51 1014.39,-198.65 1021.39,-206.61 1024.82,-200.51"/>
</g>
<!-- Node18 -->
<g id="node18" class="node">
<title>Node18</title>
<g id="a_node18"><a xlink:title=" ">
<polygon fill="white" stroke="#bfbfbf" points="1254.5,-56.5 1254.5,-75.5 1319.5,-75.5 1319.5,-56.5 1254.5,-56.5"/>
<text text-anchor="middle" x="1287" y="-63.5" font-family="Helvetica,sans-Serif" font-size="10.00">exception</text>
</a>
</g>
</g>
<!-- Node16&#45;&gt;Node18 -->
<g id="edge27" class="edge">
<title>Node16&#45;&gt;Node18</title>
<path fill="none" stroke="midnightblue" d="M1047.2,-241.12C937.06,-232.85 681.14,-203.48 766,-112 800.7,-74.59 1158.59,-82.76 1244.06,-75.59"/>
<polygon fill="midnightblue" stroke="midnightblue" points="1244.5,-79.07 1254.06,-74.5 1243.74,-72.11 1244.5,-79.07"/>
</g>
<!-- Node17&#45;&gt;Node5 -->
<g id="edge21" class="edge">
<title>Node17&#45;&gt;Node5</title>
<path fill="none" stroke="midnightblue" d="M989.82,-179.17C975.2,-164.05 949.95,-132.82 967,-112 987.88,-86.51 1076,-75.15 1135.29,-70.32"/>
<polygon fill="midnightblue" stroke="midnightblue" points="1135.58,-73.81 1145.28,-69.54 1135.04,-66.83 1135.58,-73.81"/>
</g>
<!-- Node17&#45;&gt;Node13 -->
<g id="edge22" class="edge">
<title>Node17&#45;&gt;Node13</title>
<path fill="none" stroke="midnightblue" d="M976.94,-179.48C950.63,-169.31 906.49,-152.26 876.58,-140.7"/>
<polygon fill="midnightblue" stroke="midnightblue" points="877.61,-137.35 867.02,-137.01 875.09,-143.88 877.61,-137.35"/>
</g>
<!-- Node17&#45;&gt;Node18 -->
<g id="edge23" class="edge">
<title>Node17&#45;&gt;Node18</title>
<path fill="none" stroke="midnightblue" d="M1000.79,-179.29C1004.6,-163.19 1015.07,-128.88 1038,-112 1110.71,-58.49 1150.63,-91.42 1244.59,-75.88"/>
<polygon fill="midnightblue" stroke="midnightblue" points="1245.24,-79.32 1254.47,-74.1 1244,-72.43 1245.24,-79.32"/>
</g>
<!-- Node19&#45;&gt;Node3 -->
<g id="edge30" class="edge">
<title>Node19&#45;&gt;Node3</title>
<path fill="none" stroke="midnightblue" d="M559.68,-299.16C705.56,-296.75 1041.88,-287.71 1151,-255 1187.3,-244.12 1224.65,-220.2 1246.57,-204.62"/>
<polygon fill="midnightblue" stroke="midnightblue" points="1248.68,-207.41 1254.71,-198.7 1244.56,-201.75 1248.68,-207.41"/>
</g>
<!-- Node19&#45;&gt;Node5 -->
<g id="edge40" class="edge">
<title>Node19&#45;&gt;Node5</title>
<path fill="none" stroke="midnightblue" d="M422.28,-292.82C287.95,-277.41 7.77,-237.7 57,-179 127.01,-95.53 916.07,-72.78 1134.98,-68.06"/>
<polygon fill="midnightblue" stroke="midnightblue" points="1135.35,-71.55 1145.27,-67.84 1135.2,-64.55 1135.35,-71.55"/>
</g>
<!-- Node19&#45;&gt;Node13 -->
<g id="edge41" class="edge">
<title>Node19&#45;&gt;Node13</title>
<path fill="none" stroke="midnightblue" d="M514.14,-291.46C557.28,-275.28 652.51,-238.21 729,-199 763.1,-181.52 800.68,-157.8 823.56,-142.83"/>
<polygon fill="midnightblue" stroke="midnightblue" points="825.71,-145.6 832.13,-137.17 821.86,-139.75 825.71,-145.6"/>
</g>
<!-- Node20 -->
<g id="node20" class="node">
<title>Node20</title>
<g id="a_node20"><a xlink:href="event__worker_8hpp.html" target="_top" xlink:title=" ">
<polygon fill="white" stroke="black" points="439.5,-235.5 439.5,-254.5 542.5,-254.5 542.5,-235.5 439.5,-235.5"/>
<text text-anchor="middle" x="491" y="-242.5" font-family="Helvetica,sans-Serif" font-size="10.00">event_worker.hpp</text>
</a>
</g>
</g>
<!-- Node19&#45;&gt;Node20 -->
<g id="edge31" class="edge">
<title>Node19&#45;&gt;Node20</title>
<path fill="none" stroke="midnightblue" d="M491,-291.08C491,-284.01 491,-273.86 491,-264.99"/>
<polygon fill="midnightblue" stroke="midnightblue" points="494.5,-264.75 491,-254.75 487.5,-264.75 494.5,-264.75"/>
</g>
<!-- Node23 -->
<g id="node23" class="node">
<title>Node23</title>
<g id="a_node23"><a xlink:title=" ">
<polygon fill="white" stroke="#bfbfbf" points="66,-179.5 66,-198.5 170,-198.5 170,-179.5 66,-179.5"/>
<text text-anchor="middle" x="118" y="-186.5" font-family="Helvetica,sans-Serif" font-size="10.00">thread/mutex.hpp</text>
</a>
</g>
</g>
<!-- Node19&#45;&gt;Node23 -->
<g id="edge42" class="edge">
<title>Node19&#45;&gt;Node23</title>
<path fill="none" stroke="midnightblue" d="M462.04,-291.46C395.59,-271.86 232.1,-223.65 156.94,-201.48"/>
<polygon fill="midnightblue" stroke="midnightblue" points="157.52,-198.01 146.94,-198.53 155.54,-204.72 157.52,-198.01"/>
</g>
<!-- Node24 -->
<g id="node24" class="node">
<title>Node24</title>
<g id="a_node24"><a xlink:title=" ">
<polygon fill="white" stroke="#bfbfbf" points="188,-179.5 188,-198.5 292,-198.5 292,-179.5 188,-179.5"/>
<text text-anchor="middle" x="240" y="-186.5" font-family="Helvetica,sans-Serif" font-size="10.00">thread/thread.hpp</text>
</a>
</g>
</g>
<!-- Node19&#45;&gt;Node24 -->
<g id="edge43" class="edge">
<title>Node19&#45;&gt;Node24</title>
<path fill="none" stroke="midnightblue" d="M471.3,-291.37C427.22,-272.05 320.46,-225.26 268.86,-202.65"/>
<polygon fill="midnightblue" stroke="midnightblue" points="270.17,-199.4 259.6,-198.59 267.36,-205.81 270.17,-199.4"/>
</g>
<!-- Node20&#45;&gt;Node3 -->
<g id="edge32" class="edge">
<title>Node20&#45;&gt;Node3</title>
<path fill="none" stroke="midnightblue" d="M542.75,-240.39C675.5,-231.14 1028.76,-206.53 1187.19,-195.49"/>
<polygon fill="midnightblue" stroke="midnightblue" points="1187.61,-198.97 1197.34,-194.78 1187.12,-191.99 1187.61,-198.97"/>
</g>
<!-- Node20&#45;&gt;Node5 -->
<g id="edge33" class="edge">
<title>Node20&#45;&gt;Node5</title>
<path fill="none" stroke="midnightblue" d="M439.39,-239.39C383.91,-232.46 307.61,-215.98 339,-179 390.79,-117.98 954.38,-80.56 1135.38,-70.05"/>
<polygon fill="midnightblue" stroke="midnightblue" points="1135.7,-73.54 1145.49,-69.47 1135.3,-66.55 1135.7,-73.54"/>
</g>
<!-- Node20&#45;&gt;Node13 -->
<g id="edge35" class="edge">
<title>Node20&#45;&gt;Node13</title>
<path fill="none" stroke="midnightblue" d="M542.89,-235.62C584.2,-228.19 643.15,-215.89 693,-199 696.19,-197.92 774.55,-161.4 817.47,-141.36"/>
<polygon fill="midnightblue" stroke="midnightblue" points="818.98,-144.52 826.56,-137.12 816.02,-138.18 818.98,-144.52"/>
</g>
<!-- Node21 -->
<g id="node21" class="node">
<title>Node21</title>
<g id="a_node21"><a xlink:href="task__base_8hpp.html" target="_top" xlink:title=" ">
<polygon fill="white" stroke="black" points="597.5,-179.5 597.5,-198.5 684.5,-198.5 684.5,-179.5 597.5,-179.5"/>
<text text-anchor="middle" x="641" y="-186.5" font-family="Helvetica,sans-Serif" font-size="10.00">task_base.hpp</text>
</a>
</g>
</g>
<!-- Node20&#45;&gt;Node21 -->
<g id="edge34" class="edge">
<title>Node20&#45;&gt;Node21</title>
<path fill="none" stroke="midnightblue" d="M514.77,-235.44C539.89,-226.4 579.71,-212.06 607.9,-201.92"/>
<polygon fill="midnightblue" stroke="midnightblue" points="609.12,-205.2 617.34,-198.52 606.75,-198.61 609.12,-205.2"/>
</g>
<!-- Node22 -->
<g id="node22" class="node">
<title>Node22</title>
<g id="a_node22"><a xlink:title=" ">
<polygon fill="white" stroke="#bfbfbf" points="348,-179.5 348,-198.5 510,-198.5 510,-179.5 348,-179.5"/>
<text text-anchor="middle" x="429" y="-186.5" font-family="Helvetica,sans-Serif" font-size="10.00">thread/condition_variable.hpp</text>
</a>
</g>
</g>
<!-- Node20&#45;&gt;Node22 -->
<g id="edge36" class="edge">
<title>Node20&#45;&gt;Node22</title>
<path fill="none" stroke="midnightblue" d="M481.04,-235.32C471.87,-227.34 458.06,-215.31 446.97,-205.65"/>
<polygon fill="midnightblue" stroke="midnightblue" points="448.98,-202.76 439.14,-198.83 444.38,-208.04 448.98,-202.76"/>
</g>
<!-- Node20&#45;&gt;Node23 -->
<g id="edge37" class="edge">
<title>Node20&#45;&gt;Node23</title>
<path fill="none" stroke="midnightblue" d="M439.37,-236.61C379.55,-228.03 277.7,-213.38 180.26,-199.18"/>
<polygon fill="midnightblue" stroke="midnightblue" points="180.64,-195.7 170.24,-197.72 179.63,-202.63 180.64,-195.7"/>
</g>
<!-- Node20&#45;&gt;Node24 -->
<g id="edge38" class="edge">
<title>Node20&#45;&gt;Node24</title>
<path fill="none" stroke="midnightblue" d="M451.23,-235.44C407.44,-226.02 336.99,-210.87 289.62,-200.68"/>
<polygon fill="midnightblue" stroke="midnightblue" points="290.1,-197.2 279.59,-198.52 288.63,-204.04 290.1,-197.2"/>
</g>
<!-- Node25 -->
<g id="node25" class="node">
<title>Node25</title>
<g id="a_node25"><a xlink:title=" ">
<polygon fill="white" stroke="#bfbfbf" points="528.5,-179.5 528.5,-198.5 579.5,-198.5 579.5,-179.5 528.5,-179.5"/>
<text text-anchor="middle" x="554" y="-186.5" font-family="Helvetica,sans-Serif" font-size="10.00">csignal</text>
</a>
</g>
</g>
<!-- Node20&#45;&gt;Node25 -->
<g id="edge39" class="edge">
<title>Node20&#45;&gt;Node25</title>
<path fill="none" stroke="midnightblue" d="M501.12,-235.32C510.53,-227.26 524.74,-215.08 536.07,-205.37"/>
<polygon fill="midnightblue" stroke="midnightblue" points="538.38,-208 543.69,-198.83 533.82,-202.68 538.38,-208"/>
</g>
<!-- Node26&#45;&gt;Node5 -->
<g id="edge51" class="edge">
<title>Node26&#45;&gt;Node5</title>
<path fill="none" stroke="midnightblue" d="M1973.41,-186.85C1870.86,-183.82 1632.3,-173.59 1558,-143 1537.85,-134.7 1540.01,-120.63 1520,-112 1409.8,-64.47 1369.08,-92.56 1246.77,-76.16"/>
<polygon fill="midnightblue" stroke="midnightblue" points="1247.04,-72.66 1236.65,-74.72 1246.06,-79.59 1247.04,-72.66"/>
</g>
<!-- Node26&#45;&gt;Node11 -->
<g id="edge59" class="edge">
<title>Node26&#45;&gt;Node11</title>
<path fill="none" stroke="midnightblue" d="M2068.75,-181.21C2091.95,-175.25 2117.83,-164.04 2132,-143 2139.7,-131.57 2140.48,-122.86 2132,-112 2114.4,-89.46 2034.61,-76.54 1987.38,-70.74"/>
<polygon fill="midnightblue" stroke="midnightblue" points="1987.6,-67.24 1977.26,-69.54 1986.78,-74.19 1987.6,-67.24"/>
</g>
<!-- Node26&#45;&gt;Node15 -->
<g id="edge62" class="edge">
<title>Node26&#45;&gt;Node15</title>
<path fill="none" stroke="midnightblue" d="M1973.41,-188.27C1884.18,-187.76 1686.17,-181.88 1525,-143 1522.33,-142.36 1519.6,-141.55 1516.89,-140.65"/>
<polygon fill="midnightblue" stroke="midnightblue" points="1517.94,-137.3 1507.34,-137.09 1515.49,-143.86 1517.94,-137.3"/>
</g>
<!-- Node27 -->
<g id="node27" class="node">
<title>Node27</title>
<g id="a_node27"><a xlink:href="serv__exception_8hpp.html" target="_top" xlink:title=" ">
<polygon fill="white" stroke="black" points="1863,-118 1863,-137 1975,-137 1975,-118 1863,-118"/>
<text text-anchor="middle" x="1919" y="-125" font-family="Helvetica,sans-Serif" font-size="10.00">serv_exception.hpp</text>
</a>
</g>
</g>
<!-- Node26&#45;&gt;Node27 -->
<g id="edge46" class="edge">
<title>Node26&#45;&gt;Node27</title>
<path fill="none" stroke="midnightblue" d="M2006.39,-179.48C1989.65,-169.71 1962,-153.58 1942.28,-142.08"/>
<polygon fill="midnightblue" stroke="midnightblue" points="1943.99,-139.02 1933.59,-137.01 1940.46,-145.07 1943.99,-139.02"/>
</g>
<!-- Node29 -->
<g id="node29" class="node">
<title>Node29</title>
<g id="a_node29"><a xlink:title=" ">
<polygon fill="white" stroke="#bfbfbf" points="2179.5,-118 2179.5,-137 2226.5,-137 2226.5,-118 2179.5,-118"/>
<text text-anchor="middle" x="2203" y="-125" font-family="Helvetica,sans-Serif" font-size="10.00">fcntl.h</text>
</a>
</g>
</g>
<!-- Node26&#45;&gt;Node29 -->
<g id="edge52" class="edge">
<title>Node26&#45;&gt;Node29</title>
<path fill="none" stroke="midnightblue" d="M2050.13,-179.47C2079.34,-170.78 2125.53,-156.68 2165,-143 2167.25,-142.22 2169.57,-141.39 2171.9,-140.55"/>
<polygon fill="midnightblue" stroke="midnightblue" points="2173.23,-143.78 2181.38,-137.01 2170.79,-137.22 2173.23,-143.78"/>
</g>
<!-- Node30 -->
<g id="node30" class="node">
<title>Node30</title>
<g id="a_node30"><a xlink:title=" ">
<polygon fill="white" stroke="#bfbfbf" points="2244.5,-118 2244.5,-137 2297.5,-137 2297.5,-118 2244.5,-118"/>
<text text-anchor="middle" x="2271" y="-125" font-family="Helvetica,sans-Serif" font-size="10.00">netdb.h</text>
</a>
</g>
</g>
<!-- Node26&#45;&gt;Node30 -->
<g id="edge53" class="edge">
<title>Node26&#45;&gt;Node30</title>
<path fill="none" stroke="midnightblue" d="M2068.62,-180.66C2112.62,-173.26 2179.52,-160.44 2236,-143 2238.14,-142.34 2240.34,-141.59 2242.53,-140.8"/>
<polygon fill="midnightblue" stroke="midnightblue" points="2243.93,-144.02 2251.98,-137.13 2241.39,-137.49 2243.93,-144.02"/>
</g>
<!-- Node31 -->
<g id="node31" class="node">
<title>Node31</title>
<g id="a_node31"><a xlink:title=" ">
<polygon fill="white" stroke="#bfbfbf" points="2316,-118 2316,-137 2388,-137 2388,-118 2316,-118"/>
<text text-anchor="middle" x="2352" y="-125" font-family="Helvetica,sans-Serif" font-size="10.00">netinet/in.h</text>
</a>
</g>
</g>
<!-- Node26&#45;&gt;Node31 -->
<g id="edge54" class="edge">
<title>Node26&#45;&gt;Node31</title>
<path fill="none" stroke="midnightblue" d="M2068.66,-180.92C2143.97,-169.66 2284.29,-148.41 2307,-143 2310.65,-142.13 2314.43,-141.11 2318.17,-140.02"/>
<polygon fill="midnightblue" stroke="midnightblue" points="2319.38,-143.31 2327.91,-137.03 2317.32,-136.62 2319.38,-143.31"/>
</g>
<!-- Node32 -->
<g id="node32" class="node">
<title>Node32</title>
<g id="a_node32"><a xlink:title=" ">
<polygon fill="white" stroke="#bfbfbf" points="2406,-118 2406,-137 2484,-137 2484,-118 2406,-118"/>
<text text-anchor="middle" x="2445" y="-125" font-family="Helvetica,sans-Serif" font-size="10.00">netinet/tcp.h</text>
</a>
</g>
</g>
<!-- Node26&#45;&gt;Node32 -->
<g id="edge55" class="edge">
<title>Node26&#45;&gt;Node32</title>
<path fill="none" stroke="midnightblue" d="M2068.71,-180.93C2073.53,-180.26 2078.36,-179.6 2083,-179 2222.3,-160.91 2259.44,-171.42 2397,-143 2401.22,-142.13 2405.6,-141.05 2409.93,-139.88"/>
<polygon fill="midnightblue" stroke="midnightblue" points="2411.17,-143.17 2419.81,-137.04 2409.23,-136.44 2411.17,-143.17"/>
</g>
<!-- Node33 -->
<g id="node33" class="node">
<title>Node33</title>
<g id="a_node33"><a xlink:title=" ">
<polygon fill="white" stroke="#bfbfbf" points="1677.5,-118 1677.5,-137 1754.5,-137 1754.5,-118 1677.5,-118"/>
<text text-anchor="middle" x="1716" y="-125" font-family="Helvetica,sans-Serif" font-size="10.00">sys/socket.h</text>
</a>
</g>
</g>
<!-- Node26&#45;&gt;Node33 -->
<g id="edge56" class="edge">
<title>Node26&#45;&gt;Node33</title>
<path fill="none" stroke="midnightblue" d="M1973.28,-181.4C1921.42,-173.81 1836.27,-160.18 1764,-143 1760.11,-142.08 1756.07,-141.02 1752.06,-139.9"/>
<polygon fill="midnightblue" stroke="midnightblue" points="1752.83,-136.48 1742.25,-137.05 1750.88,-143.2 1752.83,-136.48"/>
</g>
<!-- Node34 -->
<g id="node34" class="node">
<title>Node34</title>
<g id="a_node34"><a xlink:title=" ">
<polygon fill="white" stroke="#bfbfbf" points="1773,-118 1773,-137 1845,-137 1845,-118 1773,-118"/>
<text text-anchor="middle" x="1809" y="-125" font-family="Helvetica,sans-Serif" font-size="10.00">sys/types.h</text>
</a>
</g>
</g>
<!-- Node26&#45;&gt;Node34 -->
<g id="edge57" class="edge">
<title>Node26&#45;&gt;Node34</title>
<path fill="none" stroke="midnightblue" d="M1987.28,-179.43C1953.45,-170.71 1899.93,-156.58 1854,-143 1851.03,-142.12 1847.95,-141.19 1844.87,-140.23"/>
<polygon fill="midnightblue" stroke="midnightblue" points="1845.7,-136.82 1835.11,-137.15 1843.59,-143.5 1845.7,-136.82"/>
</g>
<!-- Node35 -->
<g id="node35" class="node">
<title>Node35</title>
<g id="a_node35"><a xlink:title=" ">
<polygon fill="white" stroke="#bfbfbf" points="1993,-118 1993,-137 2049,-137 2049,-118 1993,-118"/>
<text text-anchor="middle" x="2021" y="-125" font-family="Helvetica,sans-Serif" font-size="10.00">unistd.h</text>
</a>
</g>
</g>
<!-- Node26&#45;&gt;Node35 -->
<g id="edge58" class="edge">
<title>Node26&#45;&gt;Node35</title>
<path fill="none" stroke="midnightblue" d="M2021,-179.48C2021,-171.08 2021,-157.98 2021,-147.16"/>
<polygon fill="midnightblue" stroke="midnightblue" points="2024.5,-147.01 2021,-137.01 2017.5,-147.01 2024.5,-147.01"/>
</g>
<!-- Node36 -->
<g id="node36" class="node">
<title>Node36</title>
<g id="a_node36"><a xlink:title=" ">
<polygon fill="white" stroke="#bfbfbf" points="2067,-118 2067,-137 2123,-137 2123,-118 2067,-118"/>
<text text-anchor="middle" x="2095" y="-125" font-family="Helvetica,sans-Serif" font-size="10.00">sstream</text>
</a>
</g>
</g>
<!-- Node26&#45;&gt;Node36 -->
<g id="edge60" class="edge">
<title>Node26&#45;&gt;Node36</title>
<path fill="none" stroke="midnightblue" d="M2031.6,-179.48C2043.25,-170.11 2062.19,-154.88 2076.33,-143.51"/>
<polygon fill="midnightblue" stroke="midnightblue" points="2078.82,-146 2084.42,-137.01 2074.43,-140.55 2078.82,-146"/>
</g>
<!-- Node26&#45;&gt;Node37 -->
<g id="edge61" class="edge">
<title>Node26&#45;&gt;Node37</title>
<path fill="none" stroke="midnightblue" d="M2068.69,-180.8C2073.52,-180.15 2078.35,-179.54 2083,-179 2264.7,-157.85 2314.1,-181.13 2493,-143 2496.5,-142.25 2500.11,-141.3 2503.68,-140.24"/>
<polygon fill="midnightblue" stroke="midnightblue" points="2505.06,-143.48 2513.49,-137.06 2502.9,-136.82 2505.06,-143.48"/>
</g>
<!-- Node27&#45;&gt;Node5 -->
<g id="edge47" class="edge">
<title>Node27&#45;&gt;Node5</title>
<path fill="none" stroke="midnightblue" d="M1885.45,-117.94C1875.4,-115.67 1864.31,-113.44 1854,-112 1588.76,-74.82 1516.2,-105.56 1246.7,-76.07"/>
<polygon fill="midnightblue" stroke="midnightblue" points="1246.94,-72.58 1236.62,-74.95 1246.17,-79.54 1246.94,-72.58"/>
</g>
<!-- Node27&#45;&gt;Node11 -->
<g id="edge49" class="edge">
<title>Node27&#45;&gt;Node11</title>
<path fill="none" stroke="midnightblue" d="M1923.73,-117.98C1928.58,-109.23 1936.27,-95.37 1942.4,-84.31"/>
<polygon fill="midnightblue" stroke="midnightblue" points="1945.49,-85.95 1947.28,-75.51 1939.37,-82.56 1945.49,-85.95"/>
</g>
<!-- Node27&#45;&gt;Node18 -->
<g id="edge50" class="edge">
<title>Node27&#45;&gt;Node18</title>
<path fill="none" stroke="midnightblue" d="M1885.1,-117.99C1875.13,-115.75 1864.18,-113.53 1854,-112 1659.64,-82.76 1424.76,-71.78 1329.86,-68.35"/>
<polygon fill="midnightblue" stroke="midnightblue" points="1329.9,-64.85 1319.78,-67.99 1329.65,-71.84 1329.9,-64.85"/>
</g>
<!-- Node28 -->
<g id="node28" class="node">
<title>Node28</title>
<g id="a_node28"><a xlink:title=" ">
<polygon fill="white" stroke="#bfbfbf" points="1861.5,-56.5 1861.5,-75.5 1908.5,-75.5 1908.5,-56.5 1861.5,-56.5"/>
<text text-anchor="middle" x="1885" y="-63.5" font-family="Helvetica,sans-Serif" font-size="10.00">cerrno</text>
</a>
</g>
</g>
<!-- Node27&#45;&gt;Node28 -->
<g id="edge48" class="edge">
<title>Node27&#45;&gt;Node28</title>
<path fill="none" stroke="midnightblue" d="M1914.13,-117.98C1909.13,-109.23 1901.21,-95.37 1894.89,-84.31"/>
<polygon fill="midnightblue" stroke="midnightblue" points="1897.86,-82.46 1889.86,-75.51 1891.78,-85.93 1897.86,-82.46"/>
</g>
<!-- Node38&#45;&gt;Node3 -->
<g id="edge64" class="edge">
<title>Node38&#45;&gt;Node3</title>
<path fill="none" stroke="midnightblue" d="M1436.83,-235.44C1401.94,-226.16 1346.11,-211.31 1307.83,-201.13"/>
<polygon fill="midnightblue" stroke="midnightblue" points="1308.58,-197.7 1298.02,-198.52 1306.78,-204.47 1308.58,-197.7"/>
</g>
<!-- Node38&#45;&gt;Node5 -->
<g id="edge65" class="edge">
<title>Node38&#45;&gt;Node5</title>
<path fill="none" stroke="midnightblue" d="M1465.7,-235.27C1456.22,-211.42 1426.5,-144.75 1379,-112 1367.8,-104.28 1295.33,-88.28 1243.72,-77.59"/>
<polygon fill="midnightblue" stroke="midnightblue" points="1244.2,-74.11 1233.7,-75.53 1242.79,-80.97 1244.2,-74.11"/>
</g>
<!-- Node38&#45;&gt;Node15 -->
<g id="edge67" class="edge">
<title>Node38&#45;&gt;Node15</title>
<path fill="none" stroke="midnightblue" d="M1510.05,-235.38C1529.96,-228.92 1552.09,-217.81 1564,-199 1579.04,-175.23 1547.22,-154.03 1520.48,-141.23"/>
<polygon fill="midnightblue" stroke="midnightblue" points="1521.87,-138.02 1511.32,-137.07 1518.98,-144.39 1521.87,-138.02"/>
</g>
<!-- Node39 -->
<g id="node39" class="node">
<title>Node39</title>
<g id="a_node39"><a xlink:title=" ">
<polygon fill="white" stroke="#bfbfbf" points="1505.5,-179.5 1505.5,-198.5 1554.5,-198.5 1554.5,-179.5 1505.5,-179.5"/>
<text text-anchor="middle" x="1530" y="-186.5" font-family="Helvetica,sans-Serif" font-size="10.00">cstdlib</text>
</a>
</g>
</g>
<!-- Node38&#45;&gt;Node39 -->
<g id="edge66" class="edge">
<title>Node38&#45;&gt;Node39</title>
<path fill="none" stroke="midnightblue" d="M1478.8,-235.32C1487.82,-227.34 1501.41,-215.31 1512.32,-205.65"/>
<polygon fill="midnightblue" stroke="midnightblue" points="1514.85,-208.08 1520.02,-198.83 1510.21,-202.84 1514.85,-208.08"/>
</g>
</g>
</svg>
        <g id="navigator" transform="translate(0 0)" fill="#404254">
                <rect fill="#f2f5e9" fill-opacity="0.5" stroke="#606060" stroke-width=".5" x="0" y="0" width="60" height="60"/>
                <use id="zoomplus" xlink:href="#zoomPlus" x="17" y="9" onmousedown="handleZoom(evt,'in')"/>
                <use id="zoomminus" xlink:href="#zoomMin" x="42" y="9" onmousedown="handleZoom(evt,'out')"/>
                <use id="reset" xlink:href="#resetDef" x="30" y="36" onmousedown="handleReset()"/>
                <g id="arrowUp" xlink:href="#dirArrow" transform="translate(30 24)" onmousedown="handlePan(0,-1)">
                  <use xlink:href="#rim" fill="#404040">
                        <set attributeName="fill" to="#808080" begin="arrowUp.mouseover" end="arrowUp.mouseout"/>
                  </use>
                  <path fill="none" stroke="white" stroke-width="1.5" d="M0,-3.0v7 M-2.5,-0.5L0,-3.0L2.5,-0.5"/>
                </g>
                <g id="arrowRight" xlink:href="#dirArrow" transform="rotate(90) translate(36 -43)" onmousedown="handlePan(1,0)">
                  <use xlink:href="#rim" fill="#404040">
                        <set attributeName="fill" to="#808080" begin="arrowRight.mouseover" end="arrowRight.mouseout"/>
                  </use>
                  <path fill="none" stroke="white" stroke-width="1.5" d="M0,-3.0v7 M-2.5,-0.5L0,-3.0L2.5,-0.5"/>
                </g>
                <g id="arrowDown" xlink:href="#dirArrow" transform="rotate(180) translate(-30 -48)" onmousedown="handlePan(0,1)">
                  <use xlink:href="#rim" fill="#404040">
                        <set attributeName="fill" to="#808080" begin="arrowDown.mouseover" end="arrowDown.mouseout"/>
                  </use>
                  <path fill="none" stroke="white" stroke-width="1.5" d="M0,-3.0v7 M-2.5,-0.5L0,-3.0L2.5,-0.5"/>
                </g>
                <g id="arrowLeft" xlink:href="#dirArrow" transform="rotate(270) translate(-36 17)" onmousedown="handlePan(-1,0)">
                  <use xlink:href="#rim" fill="#404040">
                        <set attributeName="fill" to="#808080" begin="arrowLeft.mouseover" end="arrowLeft.mouseout"/>
                  </use>
                  <path fill="none" stroke="white" stroke-width="1.5" d="M0,-3.0v7 M-2.5,-0.5L0,-3.0L2.5,-0.5"/>
                </g>
        </g>
        <svg viewBox="0 0 15 15" width="100%" height="30px" preserveAspectRatio="xMaxYMin meet">
         <g id="arrow_out" transform="scale(0.3 0.3)">
          <a xlink:href="server__channel_8cpp__incl_org.svg" target="_base">
           <rect id="button" ry="5" rx="5" y="6" x="6" height="38" width="38"
                fill="#f2f5e9" fill-opacity="0.5" stroke="#606060" stroke-width="1.0"/>
           <path id="arrow"
             d="M 11.500037,31.436501 C 11.940474,20.09759 22.043105,11.32322 32.158766,21.979434 L 37.068811,17.246167 C 37.068811,17.246167 37.088388,32 37.088388,32 L 22.160133,31.978069 C 22.160133,31.978069 26.997745,27.140456 26.997745,27.140456 C 18.528582,18.264221 13.291696,25.230495 11.500037,31.436501 z"
             style="fill:#404040;"/>
          </a>
         </g>
        </svg>
</svg>
