<?xml version="1.0" encoding="UTF-8" standalone="no"?>
<!DOCTYPE svg PUBLIC "-//W3C//DTD SVG 1.1//EN"
 "http://www.w3.org/Graphics/SVG/1.1/DTD/svg11.dtd">
<!-- Generated by graphviz version 2.43.0 (0)
 -->
<!-- Title: server.hpp Pages: 1 -->
<svg width="1159pt" height="196pt"
 viewBox="0.00 0.00 1159.00 196.00" xmlns="http://www.w3.org/2000/svg" xmlns:xlink="http://www.w3.org/1999/xlink">
<g id="graph0" class="graph" transform="scale(1 1) rotate(0) translate(4 192)">
<title>server.hpp</title>
<polygon fill="white" stroke="transparent" points="-4,4 -4,-192 1155,-192 1155,4 -4,4"/>
<!-- Node1 -->
<g id="node1" class="node">
<title>Node1</title>
<g id="a_node1"><a xlink:title=" ">
<polygon fill="#bfbfbf" stroke="black" points="435.5,-168.5 435.5,-187.5 503.5,-187.5 503.5,-168.5 435.5,-168.5"/>
<text text-anchor="middle" x="469.5" y="-175.5" font-family="Helvetica,sans-Serif" font-size="10.00">server.hpp</text>
</a>
</g>
</g>
<!-- Node2 -->
<g id="node2" class="node">
<title>Node2</title>
<g id="a_node2"><a xlink:href="bot__handler_8hpp.html" target="_top" xlink:title=" ">
<polygon fill="white" stroke="black" points="0,-112.5 0,-131.5 95,-131.5 95,-112.5 0,-112.5"/>
<text text-anchor="middle" x="47.5" y="-119.5" font-family="Helvetica,sans-Serif" font-size="10.00">bot_handler.hpp</text>
</a>
</g>
</g>
<!-- Node1&#45;&gt;Node2 -->
<g id="edge1" class="edge">
<title>Node1&#45;&gt;Node2</title>
<path fill="none" stroke="midnightblue" d="M425.33,-172.1C356.48,-164.35 219.41,-148.43 103.5,-132 100.77,-131.61 97.97,-131.2 95.14,-130.78"/>
<polygon fill="midnightblue" stroke="midnightblue" points="425.06,-175.59 435.38,-173.23 425.84,-168.64 425.06,-175.59"/>
</g>
<!-- Node4 -->
<g id="node4" class="node">
<title>Node4</title>
<g id="a_node4"><a xlink:href="channel_8cpp.html" target="_top" xlink:title=" ">
<polygon fill="white" stroke="black" points="113,-112.5 113,-131.5 188,-131.5 188,-112.5 113,-112.5"/>
<text text-anchor="middle" x="150.5" y="-119.5" font-family="Helvetica,sans-Serif" font-size="10.00">channel.cpp</text>
</a>
</g>
</g>
<!-- Node1&#45;&gt;Node4 -->
<g id="edge3" class="edge">
<title>Node1&#45;&gt;Node4</title>
<path fill="none" stroke="midnightblue" d="M425.47,-170.16C371.45,-161.66 277.11,-146.53 196.5,-132 193.78,-131.51 190.97,-130.99 188.14,-130.46"/>
<polygon fill="midnightblue" stroke="midnightblue" points="424.97,-173.62 435.4,-171.71 426.06,-166.71 424.97,-173.62"/>
</g>
<!-- Node5 -->
<g id="node5" class="node">
<title>Node5</title>
<g id="a_node5"><a xlink:href="client__handler_8hpp.html" target="_top" xlink:title=" ">
<polygon fill="white" stroke="black" points="205.5,-112.5 205.5,-131.5 311.5,-131.5 311.5,-112.5 205.5,-112.5"/>
<text text-anchor="middle" x="258.5" y="-119.5" font-family="Helvetica,sans-Serif" font-size="10.00">client_handler.hpp</text>
</a>
</g>
</g>
<!-- Node1&#45;&gt;Node5 -->
<g id="edge4" class="edge">
<title>Node1&#45;&gt;Node5</title>
<path fill="none" stroke="midnightblue" d="M426.36,-165.96C386.51,-155.76 328.14,-140.82 291.78,-131.52"/>
<polygon fill="midnightblue" stroke="midnightblue" points="425.51,-169.35 436.07,-168.44 427.25,-162.57 425.51,-169.35"/>
</g>
<!-- Node6 -->
<g id="node6" class="node">
<title>Node6</title>
<g id="a_node6"><a xlink:href="server__handler_8hpp.html" target="_top" xlink:title=" ">
<polygon fill="white" stroke="black" points="239.5,-56.5 239.5,-75.5 349.5,-75.5 349.5,-56.5 239.5,-56.5"/>
<text text-anchor="middle" x="294.5" y="-63.5" font-family="Helvetica,sans-Serif" font-size="10.00">server_handler.hpp</text>
</a>
</g>
</g>
<!-- Node1&#45;&gt;Node6 -->
<g id="edge17" class="edge">
<title>Node1&#45;&gt;Node6</title>
<path fill="none" stroke="midnightblue" d="M432.45,-164.95C411.33,-157.2 384.89,-145.97 363.5,-132 338.15,-115.44 313.59,-89.11 301.79,-75.6"/>
<polygon fill="midnightblue" stroke="midnightblue" points="431.45,-168.31 442.05,-168.37 433.8,-161.72 431.45,-168.31"/>
</g>
<!-- Node7 -->
<g id="node7" class="node">
<title>Node7</title>
<g id="a_node7"><a xlink:href="main_8cpp.html" target="_top" xlink:title=" ">
<polygon fill="white" stroke="black" points="304.5,-0.5 304.5,-19.5 366.5,-19.5 366.5,-0.5 304.5,-0.5"/>
<text text-anchor="middle" x="335.5" y="-7.5" font-family="Helvetica,sans-Serif" font-size="10.00">main.cpp</text>
</a>
</g>
</g>
<!-- Node1&#45;&gt;Node7 -->
<g id="edge7" class="edge">
<title>Node1&#45;&gt;Node7</title>
<path fill="none" stroke="midnightblue" d="M440.3,-163.82C425.75,-156.14 408.7,-145.34 396.5,-132 371.01,-104.14 375.54,-89.7 358.5,-56 352.09,-43.32 344.58,-28.66 339.93,-19.62"/>
<polygon fill="midnightblue" stroke="midnightblue" points="438.92,-167.05 449.43,-168.41 442.06,-160.79 438.92,-167.05"/>
</g>
<!-- Node8 -->
<g id="node8" class="node">
<title>Node8</title>
<g id="a_node8"><a xlink:href="processor__channel_8hpp.html" target="_top" xlink:title=" ">
<polygon fill="white" stroke="black" points="405.5,-112.5 405.5,-131.5 533.5,-131.5 533.5,-112.5 405.5,-112.5"/>
<text text-anchor="middle" x="469.5" y="-119.5" font-family="Helvetica,sans-Serif" font-size="10.00">processor_channel.hpp</text>
</a>
</g>
</g>
<!-- Node1&#45;&gt;Node8 -->
<g id="edge8" class="edge">
<title>Node1&#45;&gt;Node8</title>
<path fill="none" stroke="midnightblue" d="M469.5,-157.8C469.5,-148.91 469.5,-138.78 469.5,-131.75"/>
<polygon fill="midnightblue" stroke="midnightblue" points="466,-158.08 469.5,-168.08 473,-158.08 466,-158.08"/>
</g>
<!-- Node10 -->
<g id="node10" class="node">
<title>Node10</title>
<g id="a_node10"><a xlink:href="processor__misc_8hpp.html" target="_top" xlink:title=" ">
<polygon fill="white" stroke="black" points="552,-112.5 552,-131.5 665,-131.5 665,-112.5 552,-112.5"/>
<text text-anchor="middle" x="608.5" y="-119.5" font-family="Helvetica,sans-Serif" font-size="10.00">processor_misc.hpp</text>
</a>
</g>
</g>
<!-- Node1&#45;&gt;Node10 -->
<g id="edge10" class="edge">
<title>Node1&#45;&gt;Node10</title>
<path fill="none" stroke="midnightblue" d="M500.98,-164.77C527.09,-154.63 563.54,-140.47 586.58,-131.52"/>
<polygon fill="midnightblue" stroke="midnightblue" points="499.58,-161.56 491.52,-168.44 502.11,-168.08 499.58,-161.56"/>
</g>
<!-- Node11 -->
<g id="node11" class="node">
<title>Node11</title>
<g id="a_node11"><a xlink:href="processor__register_8hpp.html" target="_top" xlink:title=" ">
<polygon fill="white" stroke="black" points="683,-112.5 683,-131.5 810,-131.5 810,-112.5 683,-112.5"/>
<text text-anchor="middle" x="746.5" y="-119.5" font-family="Helvetica,sans-Serif" font-size="10.00">processor_register.hpp</text>
</a>
</g>
</g>
<!-- Node1&#45;&gt;Node11 -->
<g id="edge12" class="edge">
<title>Node1&#45;&gt;Node11</title>
<path fill="none" stroke="midnightblue" d="M513.65,-168.39C565.53,-158.28 651.07,-141.6 702.76,-131.53"/>
<polygon fill="midnightblue" stroke="midnightblue" points="512.89,-164.98 503.74,-170.32 514.23,-171.85 512.89,-164.98"/>
</g>
<!-- Node12 -->
<g id="node12" class="node">
<title>Node12</title>
<g id="a_node12"><a xlink:href="processor__send__message_8hpp.html" target="_top" xlink:title=" ">
<polygon fill="white" stroke="black" points="828,-112.5 828,-131.5 991,-131.5 991,-112.5 828,-112.5"/>
<text text-anchor="middle" x="909.5" y="-119.5" font-family="Helvetica,sans-Serif" font-size="10.00">processor_send_message.hpp</text>
</a>
</g>
</g>
<!-- Node1&#45;&gt;Node12 -->
<g id="edge14" class="edge">
<title>Node1&#45;&gt;Node12</title>
<path fill="none" stroke="midnightblue" d="M513.93,-171.55C590.63,-162.13 748.44,-142.77 839.85,-131.55"/>
<polygon fill="midnightblue" stroke="midnightblue" points="513.16,-168.12 503.66,-172.81 514.01,-175.06 513.16,-168.12"/>
</g>
<!-- Node13 -->
<g id="node13" class="node">
<title>Node13</title>
<g id="a_node13"><a xlink:href="server_8cpp.html" target="_top" xlink:title=" ">
<polygon fill="white" stroke="black" points="1009,-112.5 1009,-131.5 1076,-131.5 1076,-112.5 1009,-112.5"/>
<text text-anchor="middle" x="1042.5" y="-119.5" font-family="Helvetica,sans-Serif" font-size="10.00">server.cpp</text>
</a>
</g>
</g>
<!-- Node1&#45;&gt;Node13 -->
<g id="edge16" class="edge">
<title>Node1&#45;&gt;Node13</title>
<path fill="none" stroke="midnightblue" d="M513.79,-175.14C605.19,-170.9 821.15,-158.71 1000.5,-132 1003.16,-131.6 1005.89,-131.14 1008.64,-130.64"/>
<polygon fill="midnightblue" stroke="midnightblue" points="513.36,-171.66 503.53,-175.61 513.68,-178.65 513.36,-171.66"/>
</g>
<!-- Node14 -->
<g id="node14" class="node">
<title>Node14</title>
<g id="a_node14"><a xlink:href="user_8cpp.html" target="_top" xlink:title=" ">
<polygon fill="white" stroke="black" points="1094,-112.5 1094,-131.5 1151,-131.5 1151,-112.5 1094,-112.5"/>
<text text-anchor="middle" x="1122.5" y="-119.5" font-family="Helvetica,sans-Serif" font-size="10.00">user.cpp</text>
</a>
</g>
</g>
<!-- Node1&#45;&gt;Node14 -->
<g id="edge18" class="edge">
<title>Node1&#45;&gt;Node14</title>
<path fill="none" stroke="midnightblue" d="M514,-176.27C615.79,-174.06 873.21,-165.34 1085.5,-132 1088.24,-131.57 1091.08,-131.04 1093.91,-130.45"/>
<polygon fill="midnightblue" stroke="midnightblue" points="513.71,-172.78 503.78,-176.48 513.85,-179.78 513.71,-172.78"/>
</g>
<!-- Node3 -->
<g id="node3" class="node">
<title>Node3</title>
<g id="a_node3"><a xlink:href="bot__main_8cpp.html" target="_top" xlink:title=" ">
<polygon fill="white" stroke="black" points="6,-56.5 6,-75.5 89,-75.5 89,-56.5 6,-56.5"/>
<text text-anchor="middle" x="47.5" y="-63.5" font-family="Helvetica,sans-Serif" font-size="10.00">bot_main.cpp</text>
</a>
</g>
</g>
<!-- Node2&#45;&gt;Node3 -->
<g id="edge2" class="edge">
<title>Node2&#45;&gt;Node3</title>
<path fill="none" stroke="midnightblue" d="M47.5,-101.8C47.5,-92.91 47.5,-82.78 47.5,-75.75"/>
<polygon fill="midnightblue" stroke="midnightblue" points="44,-102.08 47.5,-112.08 51,-102.08 44,-102.08"/>
</g>
<!-- Node5&#45;&gt;Node6 -->
<g id="edge5" class="edge">
<title>Node5&#45;&gt;Node6</title>
<path fill="none" stroke="midnightblue" d="M270.12,-103.57C276.32,-94.27 283.67,-83.25 288.67,-75.75"/>
<polygon fill="midnightblue" stroke="midnightblue" points="267.08,-101.82 264.44,-112.08 272.9,-105.7 267.08,-101.82"/>
</g>
<!-- Node6&#45;&gt;Node7 -->
<g id="edge6" class="edge">
<title>Node6&#45;&gt;Node7</title>
<path fill="none" stroke="midnightblue" d="M307.52,-47.86C314.62,-38.5 323.1,-27.33 328.86,-19.75"/>
<polygon fill="midnightblue" stroke="midnightblue" points="304.53,-46 301.27,-56.08 310.11,-50.24 304.53,-46"/>
</g>
<!-- Node9 -->
<g id="node9" class="node">
<title>Node9</title>
<g id="a_node9"><a xlink:href="processor_8cpp.html" target="_top" xlink:title=" ">
<polygon fill="white" stroke="black" points="636,-56.5 636,-75.5 719,-75.5 719,-56.5 636,-56.5"/>
<text text-anchor="middle" x="677.5" y="-63.5" font-family="Helvetica,sans-Serif" font-size="10.00">processor.cpp</text>
</a>
</g>
</g>
<!-- Node8&#45;&gt;Node9 -->
<g id="edge9" class="edge">
<title>Node8&#45;&gt;Node9</title>
<path fill="none" stroke="midnightblue" d="M512.28,-109.89C551.56,-99.7 608.93,-84.8 644.7,-75.52"/>
<polygon fill="midnightblue" stroke="midnightblue" points="511.26,-106.54 502.46,-112.44 513.02,-113.32 511.26,-106.54"/>
</g>
<!-- Node10&#45;&gt;Node9 -->
<g id="edge11" class="edge">
<title>Node10&#45;&gt;Node9</title>
<path fill="none" stroke="midnightblue" d="M627.54,-106.1C639.96,-96.38 655.74,-84.03 666.21,-75.83"/>
<polygon fill="midnightblue" stroke="midnightblue" points="625.3,-103.4 619.59,-112.32 629.62,-108.92 625.3,-103.4"/>
</g>
<!-- Node11&#45;&gt;Node9 -->
<g id="edge13" class="edge">
<title>Node11&#45;&gt;Node9</title>
<path fill="none" stroke="midnightblue" d="M727.46,-106.1C715.04,-96.38 699.26,-84.03 688.79,-75.83"/>
<polygon fill="midnightblue" stroke="midnightblue" points="725.38,-108.92 735.41,-112.32 729.7,-103.4 725.38,-108.92"/>
</g>
<!-- Node12&#45;&gt;Node9 -->
<g id="edge15" class="edge">
<title>Node12&#45;&gt;Node9</title>
<path fill="none" stroke="midnightblue" d="M862.9,-110.15C819.06,-99.95 754.32,-84.88 714.09,-75.52"/>
<polygon fill="midnightblue" stroke="midnightblue" points="862.21,-113.59 872.74,-112.44 863.79,-106.77 862.21,-113.59"/>
</g>
</g>
</svg>
