<?xml version="1.0" encoding="UTF-8" standalone="no"?>
<!DOCTYPE svg PUBLIC "-//W3C//DTD SVG 1.1//EN"
 "http://www.w3.org/Graphics/SVG/1.1/DTD/svg11.dtd">
<!-- Generated by graphviz version 2.43.0 (0)
 -->
<!-- Title: includes/libserv/stream_channel.hpp Pages: 1 -->
<!--zoomable 274 -->
<svg id="main" version="1.1" xmlns="http://www.w3.org/2000/svg" xmlns:xlink="http://www.w3.org/1999/xlink" xml:space="preserve" onload="init(evt)">
<style type="text/css"><![CDATA[
.edge:hover path { stroke: red; }
.edge:hover polygon { stroke: red; fill: red; }
]]></style>
<script type="text/javascript"><![CDATA[
var edges = document.getElementsByTagName('g');
if (edges && edges.length) {
  for (var i=0;i<edges.length;i++) {
    if (edges[i].id.substr(0,4)=='edge') {
      edges[i].setAttribute('class','edge');
    }
  }
}
]]></script>
        <defs>
                <circle id="rim" cx="0" cy="0" r="7"/>
                <circle id="rim2" cx="0" cy="0" r="3.5"/>
                <g id="zoomPlus">
                        <use xlink:href="#rim" fill="#404040">
                                <set attributeName="fill" to="#808080" begin="zoomplus.mouseover" end="zoomplus.mouseout"/>
                        </use>
                        <path d="M-4,0h8M0,-4v8" fill="none" stroke="white" stroke-width="1.5" pointer-events="none"/>
                </g>
                <g id="zoomMin">
                        <use xlink:href="#rim" fill="#404040">
                                <set attributeName="fill" to="#808080" begin="zoomminus.mouseover" end="zoomminus.mouseout"/>
                        </use>
                        <path d="M-4,0h8" fill="none" stroke="white" stroke-width="1.5" pointer-events="none"/>
                </g>
                <g id="dirArrow">
                        <path fill="none" stroke="white" stroke-width="1.5" d="M0,-3.0v7 M-2.5,-0.5L0,-3.0L2.5,-0.5"/>
                </g>
               <g id="resetDef">
                       <use xlink:href="#rim2" fill="#404040">
                               <set attributeName="fill" to="#808080" begin="reset.mouseover" end="reset.mouseout"/>
                       </use>
               </g>
        </defs>

<script type="text/javascript">
var viewWidth = 781;
var viewHeight = 274;
var sectionId = 'dynsection-0';
</script>
<script xlink:href="svgpan.js"/>
<svg id="graph" class="graph">
<g id="viewport">
<title>includes/libserv/stream_channel.hpp</title>
<polygon fill="white" stroke="transparent" points="-4,4 -4,-270 776.5,-270 776.5,4 -4,4"/>
<!-- Node1 -->
<g id="node1" class="node">
<title>Node1</title>
<g id="a_node1"><a xlink:title=" ">
<polygon fill="#bfbfbf" stroke="black" points="394,-235.5 394,-265.5 525,-265.5 525,-235.5 394,-235.5"/>
<text text-anchor="start" x="402" y="-253.5" font-family="Helvetica,sans-Serif" font-size="10.00">includes/libserv/stream</text>
<text text-anchor="middle" x="459.5" y="-242.5" font-family="Helvetica,sans-Serif" font-size="10.00">_channel.hpp</text>
</a>
</g>
</g>
<!-- Node2 -->
<g id="node2" class="node">
<title>Node2</title>
<g id="a_node2"><a xlink:href="event__channel__base_8hpp.html" target="_top" xlink:title=" ">
<polygon fill="white" stroke="black" points="343,-179.5 343,-198.5 480,-198.5 480,-179.5 343,-179.5"/>
<text text-anchor="middle" x="411.5" y="-186.5" font-family="Helvetica,sans-Serif" font-size="10.00">event_channel_base.hpp</text>
</a>
</g>
</g>
<!-- Node1&#45;&gt;Node2 -->
<g id="edge1" class="edge">
<title>Node1&#45;&gt;Node2</title>
<path fill="none" stroke="midnightblue" d="M448.12,-235.4C441.15,-226.75 432.19,-215.64 424.87,-206.58"/>
<polygon fill="midnightblue" stroke="midnightblue" points="427.49,-204.24 418.48,-198.66 422.04,-208.64 427.49,-204.24"/>
</g>
<!-- Node4 -->
<g id="node4" class="node">
<title>Node4</title>
<g id="a_node4"><a xlink:href="serv__types_8hpp.html" target="_top" xlink:title=" ">
<polygon fill="white" stroke="black" points="65,-56.5 65,-75.5 156,-75.5 156,-56.5 65,-56.5"/>
<text text-anchor="middle" x="110.5" y="-63.5" font-family="Helvetica,sans-Serif" font-size="10.00">serv_types.hpp</text>
</a>
</g>
</g>
<!-- Node1&#45;&gt;Node4 -->
<g id="edge15" class="edge">
<title>Node1&#45;&gt;Node4</title>
<path fill="none" stroke="midnightblue" d="M393.93,-248.98C315.67,-244.52 186.94,-224.29 119.5,-143 106.4,-127.21 105.83,-102.83 107.44,-85.96"/>
<polygon fill="midnightblue" stroke="midnightblue" points="110.96,-86.04 108.77,-75.68 104.01,-85.14 110.96,-86.04"/>
</g>
<!-- Node14 -->
<g id="node14" class="node">
<title>Node14</title>
<g id="a_node14"><a xlink:title=" ">
<polygon fill="white" stroke="#bfbfbf" points="728.5,-118 728.5,-137 772.5,-137 772.5,-118 728.5,-118"/>
<text text-anchor="middle" x="750.5" y="-125" font-family="Helvetica,sans-Serif" font-size="10.00">string</text>
</a>
</g>
</g>
<!-- Node1&#45;&gt;Node14 -->
<g id="edge17" class="edge">
<title>Node1&#45;&gt;Node14</title>
<path fill="none" stroke="midnightblue" d="M469.15,-235.34C481.08,-219 502.98,-192.65 528.5,-179 604.67,-138.25 637.28,-169.51 719.5,-143 721.17,-142.46 722.87,-141.85 724.57,-141.2"/>
<polygon fill="midnightblue" stroke="midnightblue" points="726.27,-144.28 734.08,-137.12 723.51,-137.85 726.27,-144.28"/>
</g>
<!-- Node15 -->
<g id="node15" class="node">
<title>Node15</title>
<g id="a_node15"><a xlink:title=" ">
<polygon fill="white" stroke="#bfbfbf" points="537,-179.5 537,-198.5 590,-198.5 590,-179.5 537,-179.5"/>
<text text-anchor="middle" x="563.5" y="-186.5" font-family="Helvetica,sans-Serif" font-size="10.00">cstddef</text>
</a>
</g>
</g>
<!-- Node1&#45;&gt;Node15 -->
<g id="edge16" class="edge">
<title>Node1&#45;&gt;Node15</title>
<path fill="none" stroke="midnightblue" d="M484.15,-235.4C500.82,-225.86 522.73,-213.32 539.31,-203.84"/>
<polygon fill="midnightblue" stroke="midnightblue" points="541.43,-206.66 548.37,-198.66 537.95,-200.59 541.43,-206.66"/>
</g>
<!-- Node3 -->
<g id="node3" class="node">
<title>Node3</title>
<g id="a_node3"><a xlink:href="byte__buffer_8hpp.html" target="_top" xlink:title=" ">
<polygon fill="white" stroke="black" points="154.5,-118 154.5,-137 246.5,-137 246.5,-118 154.5,-118"/>
<text text-anchor="middle" x="200.5" y="-125" font-family="Helvetica,sans-Serif" font-size="10.00">byte_buffer.hpp</text>
</a>
</g>
</g>
<!-- Node2&#45;&gt;Node3 -->
<g id="edge2" class="edge">
<title>Node2&#45;&gt;Node3</title>
<path fill="none" stroke="midnightblue" d="M381.27,-179.48C344.21,-169.03 281.31,-151.29 240.34,-139.73"/>
<polygon fill="midnightblue" stroke="midnightblue" points="241.25,-136.35 230.68,-137.01 239.35,-143.09 241.25,-136.35"/>
</g>
<!-- Node2&#45;&gt;Node4 -->
<g id="edge10" class="edge">
<title>Node2&#45;&gt;Node4</title>
<path fill="none" stroke="midnightblue" d="M342.75,-183.61C274.45,-177.99 175.67,-166.1 145.5,-143 127.25,-129.03 118.19,-103.29 113.93,-85.67"/>
<polygon fill="midnightblue" stroke="midnightblue" points="117.31,-84.75 111.82,-75.7 110.46,-86.2 117.31,-84.75"/>
</g>
<!-- Node11 -->
<g id="node11" class="node">
<title>Node11</title>
<g id="a_node11"><a xlink:title=" ">
<polygon fill="white" stroke="#bfbfbf" points="264.5,-112.5 264.5,-142.5 402.5,-142.5 402.5,-112.5 264.5,-112.5"/>
<text text-anchor="start" x="272.5" y="-130.5" font-family="Helvetica,sans-Serif" font-size="10.00">smart_ptr/enable_shared</text>
<text text-anchor="middle" x="333.5" y="-119.5" font-family="Helvetica,sans-Serif" font-size="10.00">_from_this.hpp</text>
</a>
</g>
</g>
<!-- Node2&#45;&gt;Node11 -->
<g id="edge11" class="edge">
<title>Node2&#45;&gt;Node11</title>
<path fill="none" stroke="midnightblue" d="M400.32,-179.48C389.86,-171.49 373.82,-159.25 360.07,-148.77"/>
<polygon fill="midnightblue" stroke="midnightblue" points="361.96,-145.81 351.88,-142.52 357.71,-151.37 361.96,-145.81"/>
</g>
<!-- Node12 -->
<g id="node12" class="node">
<title>Node12</title>
<g id="a_node12"><a xlink:title=" ">
<polygon fill="white" stroke="#bfbfbf" points="421,-118 421,-137 560,-137 560,-118 421,-118"/>
<text text-anchor="middle" x="490.5" y="-125" font-family="Helvetica,sans-Serif" font-size="10.00">smart_ptr/shared_ptr.hpp</text>
</a>
</g>
</g>
<!-- Node2&#45;&gt;Node12 -->
<g id="edge12" class="edge">
<title>Node2&#45;&gt;Node12</title>
<path fill="none" stroke="midnightblue" d="M422.82,-179.48C435.37,-170.02 455.85,-154.6 471,-143.19"/>
<polygon fill="midnightblue" stroke="midnightblue" points="473.32,-145.82 479.2,-137.01 469.11,-140.23 473.32,-145.82"/>
</g>
<!-- Node13 -->
<g id="node13" class="node">
<title>Node13</title>
<g id="a_node13"><a xlink:title=" ">
<polygon fill="white" stroke="#bfbfbf" points="578.5,-118 578.5,-137 710.5,-137 710.5,-118 578.5,-118"/>
<text text-anchor="middle" x="644.5" y="-125" font-family="Helvetica,sans-Serif" font-size="10.00">smart_ptr/weak_ptr.hpp</text>
</a>
</g>
</g>
<!-- Node2&#45;&gt;Node13 -->
<g id="edge13" class="edge">
<title>Node2&#45;&gt;Node13</title>
<path fill="none" stroke="midnightblue" d="M444.88,-179.48C486.06,-168.96 556.15,-151.06 601.37,-139.51"/>
<polygon fill="midnightblue" stroke="midnightblue" points="602.36,-142.87 611.18,-137.01 600.62,-136.09 602.36,-142.87"/>
</g>
<!-- Node2&#45;&gt;Node14 -->
<g id="edge14" class="edge">
<title>Node2&#45;&gt;Node14</title>
<path fill="none" stroke="midnightblue" d="M480.25,-180.32C556.96,-171.34 676.02,-156.04 719.5,-143 721.38,-142.44 723.29,-141.78 725.19,-141.06"/>
<polygon fill="midnightblue" stroke="midnightblue" points="726.62,-144.25 734.44,-137.1 723.87,-137.81 726.62,-144.25"/>
</g>
<!-- Node3&#45;&gt;Node4 -->
<g id="edge3" class="edge">
<title>Node3&#45;&gt;Node4</title>
<path fill="none" stroke="midnightblue" d="M187.61,-117.98C173.04,-108.34 149.1,-92.52 131.75,-81.05"/>
<polygon fill="midnightblue" stroke="midnightblue" points="133.64,-78.1 123.37,-75.51 129.78,-83.94 133.64,-78.1"/>
</g>
<!-- Node9 -->
<g id="node9" class="node">
<title>Node9</title>
<g id="a_node9"><a xlink:title=" ">
<polygon fill="white" stroke="#bfbfbf" points="174.5,-56.5 174.5,-75.5 226.5,-75.5 226.5,-56.5 174.5,-56.5"/>
<text text-anchor="middle" x="200.5" y="-63.5" font-family="Helvetica,sans-Serif" font-size="10.00">cassert</text>
</a>
</g>
</g>
<!-- Node3&#45;&gt;Node9 -->
<g id="edge8" class="edge">
<title>Node3&#45;&gt;Node9</title>
<path fill="none" stroke="midnightblue" d="M200.5,-117.98C200.5,-109.58 200.5,-96.48 200.5,-85.66"/>
<polygon fill="midnightblue" stroke="midnightblue" points="204,-85.51 200.5,-75.51 197,-85.51 204,-85.51"/>
</g>
<!-- Node10 -->
<g id="node10" class="node">
<title>Node10</title>
<g id="a_node10"><a xlink:title=" ">
<polygon fill="white" stroke="#bfbfbf" points="244.5,-56.5 244.5,-75.5 294.5,-75.5 294.5,-56.5 244.5,-56.5"/>
<text text-anchor="middle" x="269.5" y="-63.5" font-family="Helvetica,sans-Serif" font-size="10.00">cstring</text>
</a>
</g>
</g>
<!-- Node3&#45;&gt;Node10 -->
<g id="edge9" class="edge">
<title>Node3&#45;&gt;Node10</title>
<path fill="none" stroke="midnightblue" d="M210.39,-117.98C221.15,-108.7 238.57,-93.67 251.72,-82.33"/>
<polygon fill="midnightblue" stroke="midnightblue" points="254.34,-84.69 259.63,-75.51 249.77,-79.39 254.34,-84.69"/>
</g>
<!-- Node5 -->
<g id="node5" class="node">
<title>Node5</title>
<g id="a_node5"><a xlink:title=" ">
<polygon fill="white" stroke="#bfbfbf" points="0,-0.5 0,-19.5 47,-19.5 47,-0.5 0,-0.5"/>
<text text-anchor="middle" x="23.5" y="-7.5" font-family="Helvetica,sans-Serif" font-size="10.00">deque</text>
</a>
</g>
</g>
<!-- Node4&#45;&gt;Node5 -->
<g id="edge4" class="edge">
<title>Node4&#45;&gt;Node5</title>
<path fill="none" stroke="midnightblue" d="M96.52,-56.32C82.95,-47.9 62.12,-34.97 46.18,-25.07"/>
<polygon fill="midnightblue" stroke="midnightblue" points="47.79,-21.95 37.44,-19.65 44.09,-27.9 47.79,-21.95"/>
</g>
<!-- Node6 -->
<g id="node6" class="node">
<title>Node6</title>
<g id="a_node6"><a xlink:title=" ">
<polygon fill="white" stroke="#bfbfbf" points="65.5,-0.5 65.5,-19.5 103.5,-19.5 103.5,-0.5 65.5,-0.5"/>
<text text-anchor="middle" x="84.5" y="-7.5" font-family="Helvetica,sans-Serif" font-size="10.00">map</text>
</a>
</g>
</g>
<!-- Node4&#45;&gt;Node6 -->
<g id="edge5" class="edge">
<title>Node4&#45;&gt;Node6</title>
<path fill="none" stroke="midnightblue" d="M106.21,-56.08C102.65,-48.69 97.48,-37.95 93.08,-28.81"/>
<polygon fill="midnightblue" stroke="midnightblue" points="96.21,-27.24 88.71,-19.75 89.9,-30.28 96.21,-27.24"/>
</g>
<!-- Node7 -->
<g id="node7" class="node">
<title>Node7</title>
<g id="a_node7"><a xlink:title=" ">
<polygon fill="white" stroke="#bfbfbf" points="121.5,-0.5 121.5,-19.5 153.5,-19.5 153.5,-0.5 121.5,-0.5"/>
<text text-anchor="middle" x="137.5" y="-7.5" font-family="Helvetica,sans-Serif" font-size="10.00">set</text>
</a>
</g>
</g>
<!-- Node4&#45;&gt;Node7 -->
<g id="edge6" class="edge">
<title>Node4&#45;&gt;Node7</title>
<path fill="none" stroke="midnightblue" d="M114.96,-56.08C118.65,-48.69 124.02,-37.95 128.59,-28.81"/>
<polygon fill="midnightblue" stroke="midnightblue" points="131.78,-30.26 133.12,-19.75 125.52,-27.13 131.78,-30.26"/>
</g>
<!-- Node8 -->
<g id="node8" class="node">
<title>Node8</title>
<g id="a_node8"><a xlink:title=" ">
<polygon fill="white" stroke="#bfbfbf" points="172,-0.5 172,-19.5 219,-19.5 219,-0.5 172,-0.5"/>
<text text-anchor="middle" x="195.5" y="-7.5" font-family="Helvetica,sans-Serif" font-size="10.00">vector</text>
</a>
</g>
</g>
<!-- Node4&#45;&gt;Node8 -->
<g id="edge7" class="edge">
<title>Node4&#45;&gt;Node8</title>
<path fill="none" stroke="midnightblue" d="M124.16,-56.32C137.42,-47.9 157.77,-34.97 173.35,-25.07"/>
<polygon fill="midnightblue" stroke="midnightblue" points="175.31,-27.97 181.88,-19.65 171.56,-22.06 175.31,-27.97"/>
</g>
</g>
</svg>
        <g id="navigator" transform="translate(0 0)" fill="#404254">
                <rect fill="#f2f5e9" fill-opacity="0.5" stroke="#606060" stroke-width=".5" x="0" y="0" width="60" height="60"/>
                <use id="zoomplus" xlink:href="#zoomPlus" x="17" y="9" onmousedown="handleZoom(evt,'in')"/>
                <use id="zoomminus" xlink:href="#zoomMin" x="42" y="9" onmousedown="handleZoom(evt,'out')"/>
                <use id="reset" xlink:href="#resetDef" x="30" y="36" onmousedown="handleReset()"/>
                <g id="arrowUp" xlink:href="#dirArrow" transform="translate(30 24)" onmousedown="handlePan(0,-1)">
                  <use xlink:href="#rim" fill="#404040">
                        <set attributeName="fill" to="#808080" begin="arrowUp.mouseover" end="arrowUp.mouseout"/>
                  </use>
                  <path fill="none" stroke="white" stroke-width="1.5" d="M0,-3.0v7 M-2.5,-0.5L0,-3.0L2.5,-0.5"/>
                </g>
                <g id="arrowRight" xlink:href="#dirArrow" transform="rotate(90) translate(36 -43)" onmousedown="handlePan(1,0)">
                  <use xlink:href="#rim" fill="#404040">
                        <set attributeName="fill" to="#808080" begin="arrowRight.mouseover" end="arrowRight.mouseout"/>
                  </use>
                  <path fill="none" stroke="white" stroke-width="1.5" d="M0,-3.0v7 M-2.5,-0.5L0,-3.0L2.5,-0.5"/>
                </g>
                <g id="arrowDown" xlink:href="#dirArrow" transform="rotate(180) translate(-30 -48)" onmousedown="handlePan(0,1)">
                  <use xlink:href="#rim" fill="#404040">
                        <set attributeName="fill" to="#808080" begin="arrowDown.mouseover" end="arrowDown.mouseout"/>
                  </use>
                  <path fill="none" stroke="white" stroke-width="1.5" d="M0,-3.0v7 M-2.5,-0.5L0,-3.0L2.5,-0.5"/>
                </g>
                <g id="arrowLeft" xlink:href="#dirArrow" transform="rotate(270) translate(-36 17)" onmousedown="handlePan(-1,0)">
                  <use xlink:href="#rim" fill="#404040">
                        <set attributeName="fill" to="#808080" begin="arrowLeft.mouseover" end="arrowLeft.mouseout"/>
                  </use>
                  <path fill="none" stroke="white" stroke-width="1.5" d="M0,-3.0v7 M-2.5,-0.5L0,-3.0L2.5,-0.5"/>
                </g>
        </g>
        <svg viewBox="0 0 15 15" width="100%" height="30px" preserveAspectRatio="xMaxYMin meet">
         <g id="arrow_out" transform="scale(0.3 0.3)">
          <a xlink:href="stream__channel_8hpp__incl_org.svg" target="_base">
           <rect id="button" ry="5" rx="5" y="6" x="6" height="38" width="38"
                fill="#f2f5e9" fill-opacity="0.5" stroke="#606060" stroke-width="1.0"/>
           <path id="arrow"
             d="M 11.500037,31.436501 C 11.940474,20.09759 22.043105,11.32322 32.158766,21.979434 L 37.068811,17.246167 C 37.068811,17.246167 37.088388,32 37.088388,32 L 22.160133,31.978069 C 22.160133,31.978069 26.997745,27.140456 26.997745,27.140456 C 18.528582,18.264221 13.291696,25.230495 11.500037,31.436501 z"
             style="fill:#404040;"/>
          </a>
         </g>
        </svg>
</svg>
