<?xml version="1.0" encoding="UTF-8" standalone="no"?>
<!DOCTYPE svg PUBLIC "-//W3C//DTD SVG 1.1//EN"
 "http://www.w3.org/Graphics/SVG/1.1/DTD/svg11.dtd">
<!-- Generated by graphviz version 2.43.0 (0)
 -->
<!-- Title: includes/libserv/stream_channel.cpp Pages: 1 -->
<svg width="2687pt" height="386pt"
 viewBox="0.00 0.00 2686.53 386.00" xmlns="http://www.w3.org/2000/svg" xmlns:xlink="http://www.w3.org/1999/xlink">
<g id="graph0" class="graph" transform="scale(1 1) rotate(0) translate(4 382)">
<title>includes/libserv/stream_channel.cpp</title>
<polygon fill="white" stroke="transparent" points="-4,4 -4,-382 2682.53,-382 2682.53,4 -4,4"/>
<!-- Node1 -->
<g id="node1" class="node">
<title>Node1</title>
<g id="a_node1"><a xlink:title=" ">
<polygon fill="#bfbfbf" stroke="black" points="1074.53,-347.5 1074.53,-377.5 1205.53,-377.5 1205.53,-347.5 1074.53,-347.5"/>
<text text-anchor="start" x="1082.53" y="-365.5" font-family="Helvetica,sans-Serif" font-size="10.00">includes/libserv/stream</text>
<text text-anchor="middle" x="1140.03" y="-354.5" font-family="Helvetica,sans-Serif" font-size="10.00">_channel.cpp</text>
</a>
</g>
</g>
<!-- Node2 -->
<g id="node2" class="node">
<title>Node2</title>
<g id="a_node2"><a xlink:href="stream__channel_8hpp.html" target="_top" xlink:title=" ">
<polygon fill="white" stroke="black" points="1082.03,-235.5 1082.03,-254.5 1198.03,-254.5 1198.03,-235.5 1082.03,-235.5"/>
<text text-anchor="middle" x="1140.03" y="-242.5" font-family="Helvetica,sans-Serif" font-size="10.00">stream_channel.hpp</text>
</a>
</g>
</g>
<!-- Node1&#45;&gt;Node2 -->
<g id="edge1" class="edge">
<title>Node1&#45;&gt;Node2</title>
<path fill="none" stroke="midnightblue" d="M1140.03,-347.34C1140.03,-326.62 1140.03,-288.02 1140.03,-264.9"/>
<polygon fill="midnightblue" stroke="midnightblue" points="1143.53,-264.67 1140.03,-254.67 1136.53,-264.67 1143.53,-264.67"/>
</g>
<!-- Node4 -->
<g id="node4" class="node">
<title>Node4</title>
<g id="a_node4"><a xlink:href="byte__buffer_8hpp.html" target="_top" xlink:title=" ">
<polygon fill="white" stroke="black" points="1024.03,-118 1024.03,-137 1116.03,-137 1116.03,-118 1024.03,-118"/>
<text text-anchor="middle" x="1070.03" y="-125" font-family="Helvetica,sans-Serif" font-size="10.00">byte_buffer.hpp</text>
</a>
</g>
</g>
<!-- Node1&#45;&gt;Node4 -->
<g id="edge19" class="edge">
<title>Node1&#45;&gt;Node4</title>
<path fill="none" stroke="midnightblue" d="M1127.46,-347.25C1111.32,-327.93 1084.06,-291.6 1073.03,-255 1061.87,-217.97 1064.64,-172.05 1067.46,-146.98"/>
<polygon fill="midnightblue" stroke="midnightblue" points="1070.93,-147.39 1068.71,-137.03 1063.99,-146.52 1070.93,-147.39"/>
</g>
<!-- Node5 -->
<g id="node5" class="node">
<title>Node5</title>
<g id="a_node5"><a xlink:href="serv__types_8hpp.html" target="_top" xlink:title=" ">
<polygon fill="white" stroke="black" points="1184.53,-56.5 1184.53,-75.5 1275.53,-75.5 1275.53,-56.5 1184.53,-56.5"/>
<text text-anchor="middle" x="1230.03" y="-63.5" font-family="Helvetica,sans-Serif" font-size="10.00">serv_types.hpp</text>
</a>
</g>
</g>
<!-- Node1&#45;&gt;Node5 -->
<g id="edge45" class="edge">
<title>Node1&#45;&gt;Node5</title>
<path fill="none" stroke="midnightblue" d="M1074.28,-352.52C1014,-340.14 934.03,-311.4 934.03,-246 934.03,-246 934.03,-246 934.03,-188 934.03,-153.18 927.39,-135.55 953.03,-112 987.98,-79.9 1111.86,-83.58 1174.2,-76.05"/>
<polygon fill="midnightblue" stroke="midnightblue" points="1174.95,-79.48 1184.37,-74.63 1173.98,-72.55 1174.95,-79.48"/>
</g>
<!-- Node13 -->
<g id="node13" class="node">
<title>Node13</title>
<g id="a_node13"><a xlink:title=" ">
<polygon fill="white" stroke="#bfbfbf" points="2008.53,-56.5 2008.53,-75.5 2147.53,-75.5 2147.53,-56.5 2008.53,-56.5"/>
<text text-anchor="middle" x="2078.03" y="-63.5" font-family="Helvetica,sans-Serif" font-size="10.00">smart_ptr/shared_ptr.hpp</text>
</a>
</g>
</g>
<!-- Node1&#45;&gt;Node13 -->
<g id="edge65" class="edge">
<title>Node1&#45;&gt;Node13</title>
<path fill="none" stroke="midnightblue" d="M1205.73,-361.11C1365.85,-359.51 1788.83,-351.47 2139.03,-311 2299.67,-292.43 2497.03,-407.71 2497.03,-246 2497.03,-246 2497.03,-246 2497.03,-188 2497.03,-146.82 2479.3,-133.25 2444.03,-112 2397.31,-83.86 2250.69,-73.25 2157.81,-69.29"/>
<polygon fill="midnightblue" stroke="midnightblue" points="2157.74,-65.79 2147.6,-68.88 2157.45,-72.78 2157.74,-65.79"/>
</g>
<!-- Node15 -->
<g id="node15" class="node">
<title>Node15</title>
<g id="a_node15"><a xlink:title=" ">
<polygon fill="white" stroke="#bfbfbf" points="962.03,-118 962.03,-137 1006.03,-137 1006.03,-118 962.03,-118"/>
<text text-anchor="middle" x="984.03" y="-125" font-family="Helvetica,sans-Serif" font-size="10.00">string</text>
</a>
</g>
</g>
<!-- Node1&#45;&gt;Node15 -->
<g id="edge66" class="edge">
<title>Node1&#45;&gt;Node15</title>
<path fill="none" stroke="midnightblue" d="M1121.41,-347.4C1109.74,-337.95 1094.91,-324.76 1084.03,-311 1040.96,-256.53 1006.19,-180.98 991.54,-146.71"/>
<polygon fill="midnightblue" stroke="midnightblue" points="994.61,-144.97 987.5,-137.11 988.15,-147.68 994.61,-144.97"/>
</g>
<!-- Node17 -->
<g id="node17" class="node">
<title>Node17</title>
<g id="a_node17"><a xlink:href="event__layer_8hpp.html" target="_top" xlink:title=" ">
<polygon fill="white" stroke="black" points="1210.53,-179.5 1210.53,-198.5 1305.53,-198.5 1305.53,-179.5 1210.53,-179.5"/>
<text text-anchor="middle" x="1258.03" y="-186.5" font-family="Helvetica,sans-Serif" font-size="10.00">event_layer.hpp</text>
</a>
</g>
</g>
<!-- Node1&#45;&gt;Node17 -->
<g id="edge20" class="edge">
<title>Node1&#45;&gt;Node17</title>
<path fill="none" stroke="midnightblue" d="M1149.68,-347.47C1171.22,-316.17 1223.1,-240.76 1246.38,-206.93"/>
<polygon fill="midnightblue" stroke="midnightblue" points="1249.35,-208.78 1252.14,-198.56 1243.59,-204.81 1249.35,-208.78"/>
</g>
<!-- Node20 -->
<g id="node20" class="node">
<title>Node20</title>
<g id="a_node20"><a xlink:href="event__worker__group_8hpp.html" target="_top" xlink:title=" ">
<polygon fill="white" stroke="black" points="1992.53,-291.5 1992.53,-310.5 2129.53,-310.5 2129.53,-291.5 1992.53,-291.5"/>
<text text-anchor="middle" x="2061.03" y="-298.5" font-family="Helvetica,sans-Serif" font-size="10.00">event_worker_group.hpp</text>
</a>
</g>
</g>
<!-- Node1&#45;&gt;Node20 -->
<g id="edge30" class="edge">
<title>Node1&#45;&gt;Node20</title>
<path fill="none" stroke="midnightblue" d="M1205.89,-357.24C1371.38,-346.55 1804.06,-318.6 1982.42,-307.08"/>
<polygon fill="midnightblue" stroke="midnightblue" points="1982.77,-310.56 1992.52,-306.43 1982.31,-303.58 1982.77,-310.56"/>
</g>
<!-- Node27 -->
<g id="node27" class="node">
<title>Node27</title>
<g id="a_node27"><a xlink:href="socket__utils_8hpp.html" target="_top" xlink:title=" ">
<polygon fill="white" stroke="black" points="422.53,-179.5 422.53,-198.5 517.53,-198.5 517.53,-179.5 422.53,-179.5"/>
<text text-anchor="middle" x="470.03" y="-186.5" font-family="Helvetica,sans-Serif" font-size="10.00">socket_utils.hpp</text>
</a>
</g>
</g>
<!-- Node1&#45;&gt;Node27 -->
<g id="edge46" class="edge">
<title>Node1&#45;&gt;Node27</title>
<path fill="none" stroke="midnightblue" d="M1075.86,-347.43C1031.9,-337.63 972.31,-324.03 920.03,-311 768.08,-273.15 588.65,-223.36 510.16,-201.33"/>
<polygon fill="midnightblue" stroke="midnightblue" points="510.79,-197.87 500.21,-198.53 508.89,-204.61 510.79,-197.87"/>
</g>
<!-- Node39 -->
<g id="node39" class="node">
<title>Node39</title>
<g id="a_node39"><a xlink:title=" ">
<polygon fill="white" stroke="#bfbfbf" points="2525.53,-291.5 2525.53,-310.5 2678.53,-310.5 2678.53,-291.5 2525.53,-291.5"/>
<text text-anchor="middle" x="2602.03" y="-298.5" font-family="Helvetica,sans-Serif" font-size="10.00">smart_ptr/make_shared.hpp</text>
</a>
</g>
</g>
<!-- Node1&#45;&gt;Node39 -->
<g id="edge64" class="edge">
<title>Node1&#45;&gt;Node39</title>
<path fill="none" stroke="midnightblue" d="M1205.74,-360.52C1403.38,-357.26 2009.62,-345 2511.03,-311 2512.32,-310.91 2513.62,-310.82 2514.93,-310.73"/>
<polygon fill="midnightblue" stroke="midnightblue" points="2515.4,-314.2 2525.1,-309.95 2514.86,-307.22 2515.4,-314.2"/>
</g>
<!-- Node3 -->
<g id="node3" class="node">
<title>Node3</title>
<g id="a_node3"><a xlink:href="event__channel__base_8hpp.html" target="_top" xlink:title=" ">
<polygon fill="white" stroke="black" points="1531.53,-179.5 1531.53,-198.5 1668.53,-198.5 1668.53,-179.5 1531.53,-179.5"/>
<text text-anchor="middle" x="1600.03" y="-186.5" font-family="Helvetica,sans-Serif" font-size="10.00">event_channel_base.hpp</text>
</a>
</g>
</g>
<!-- Node2&#45;&gt;Node3 -->
<g id="edge2" class="edge">
<title>Node2&#45;&gt;Node3</title>
<path fill="none" stroke="midnightblue" d="M1198.29,-237.16C1280.19,-227.55 1429.61,-210.01 1521.33,-199.24"/>
<polygon fill="midnightblue" stroke="midnightblue" points="1521.87,-202.7 1531.4,-198.06 1521.06,-195.75 1521.87,-202.7"/>
</g>
<!-- Node2&#45;&gt;Node5 -->
<g id="edge16" class="edge">
<title>Node2&#45;&gt;Node5</title>
<path fill="none" stroke="midnightblue" d="M1144.44,-235.38C1149.08,-226.32 1156.58,-211.67 1163.03,-199 1183.84,-158.14 1208.19,-110.12 1221.03,-84.76"/>
<polygon fill="midnightblue" stroke="midnightblue" points="1224.25,-86.16 1225.65,-75.65 1218.01,-82.99 1224.25,-86.16"/>
</g>
<!-- Node2&#45;&gt;Node15 -->
<g id="edge18" class="edge">
<title>Node2&#45;&gt;Node15</title>
<path fill="none" stroke="midnightblue" d="M1128.3,-235.32C1101.88,-215.75 1037.4,-168.02 1004.33,-143.53"/>
<polygon fill="midnightblue" stroke="midnightblue" points="1006.01,-140.42 995.89,-137.28 1001.84,-146.05 1006.01,-140.42"/>
</g>
<!-- Node16 -->
<g id="node16" class="node">
<title>Node16</title>
<g id="a_node16"><a xlink:title=" ">
<polygon fill="white" stroke="#bfbfbf" points="1104.53,-179.5 1104.53,-198.5 1153.53,-198.5 1153.53,-179.5 1104.53,-179.5"/>
<text text-anchor="middle" x="1129.03" y="-186.5" font-family="Helvetica,sans-Serif" font-size="10.00">cstdlib</text>
</a>
</g>
</g>
<!-- Node2&#45;&gt;Node16 -->
<g id="edge17" class="edge">
<title>Node2&#45;&gt;Node16</title>
<path fill="none" stroke="midnightblue" d="M1138.21,-235.08C1136.75,-227.93 1134.66,-217.64 1132.84,-208.69"/>
<polygon fill="midnightblue" stroke="midnightblue" points="1136.24,-207.85 1130.81,-198.75 1129.38,-209.25 1136.24,-207.85"/>
</g>
<!-- Node3&#45;&gt;Node4 -->
<g id="edge3" class="edge">
<title>Node3&#45;&gt;Node4</title>
<path fill="none" stroke="midnightblue" d="M1531.28,-180.28C1425.24,-168.38 1223.81,-145.76 1126.05,-134.79"/>
<polygon fill="midnightblue" stroke="midnightblue" points="1126.4,-131.31 1116.07,-133.67 1125.62,-138.26 1126.4,-131.31"/>
</g>
<!-- Node3&#45;&gt;Node5 -->
<g id="edge11" class="edge">
<title>Node3&#45;&gt;Node5</title>
<path fill="none" stroke="midnightblue" d="M1600.72,-179.38C1601.47,-163.42 1600.55,-129.35 1581.03,-112 1538.46,-74.16 1373.44,-67.53 1285.67,-66.75"/>
<polygon fill="midnightblue" stroke="midnightblue" points="1285.64,-63.25 1275.62,-66.68 1285.59,-70.25 1285.64,-63.25"/>
</g>
<!-- Node12 -->
<g id="node12" class="node">
<title>Node12</title>
<g id="a_node12"><a xlink:title=" ">
<polygon fill="white" stroke="#bfbfbf" points="1628.03,-112.5 1628.03,-142.5 1766.03,-142.5 1766.03,-112.5 1628.03,-112.5"/>
<text text-anchor="start" x="1636.03" y="-130.5" font-family="Helvetica,sans-Serif" font-size="10.00">smart_ptr/enable_shared</text>
<text text-anchor="middle" x="1697.03" y="-119.5" font-family="Helvetica,sans-Serif" font-size="10.00">_from_this.hpp</text>
</a>
</g>
</g>
<!-- Node3&#45;&gt;Node12 -->
<g id="edge12" class="edge">
<title>Node3&#45;&gt;Node12</title>
<path fill="none" stroke="midnightblue" d="M1613.93,-179.48C1627.31,-171.27 1648.03,-158.56 1665.43,-147.88"/>
<polygon fill="midnightblue" stroke="midnightblue" points="1667.47,-150.74 1674.17,-142.52 1663.81,-144.77 1667.47,-150.74"/>
</g>
<!-- Node3&#45;&gt;Node13 -->
<g id="edge13" class="edge">
<title>Node3&#45;&gt;Node13</title>
<path fill="none" stroke="midnightblue" d="M1633.64,-179.49C1718.22,-158.08 1939.83,-101.98 2034.32,-78.06"/>
<polygon fill="midnightblue" stroke="midnightblue" points="2035.3,-81.43 2044.13,-75.58 2033.58,-74.64 2035.3,-81.43"/>
</g>
<!-- Node14 -->
<g id="node14" class="node">
<title>Node14</title>
<g id="a_node14"><a xlink:title=" ">
<polygon fill="white" stroke="#bfbfbf" points="1440.03,-118 1440.03,-137 1572.03,-137 1572.03,-118 1440.03,-118"/>
<text text-anchor="middle" x="1506.03" y="-125" font-family="Helvetica,sans-Serif" font-size="10.00">smart_ptr/weak_ptr.hpp</text>
</a>
</g>
</g>
<!-- Node3&#45;&gt;Node14 -->
<g id="edge14" class="edge">
<title>Node3&#45;&gt;Node14</title>
<path fill="none" stroke="midnightblue" d="M1586.56,-179.48C1571.34,-169.84 1546.34,-154.02 1528.23,-142.55"/>
<polygon fill="midnightblue" stroke="midnightblue" points="1529.79,-139.4 1519.47,-137.01 1526.05,-145.31 1529.79,-139.4"/>
</g>
<!-- Node3&#45;&gt;Node15 -->
<g id="edge15" class="edge">
<title>Node3&#45;&gt;Node15</title>
<path fill="none" stroke="midnightblue" d="M1531.3,-185.81C1398.38,-181.06 1110.77,-168.18 1015.03,-143 1013.05,-142.48 1011.03,-141.83 1009.04,-141.11"/>
<polygon fill="midnightblue" stroke="midnightblue" points="1009.96,-137.7 999.39,-137.02 1007.23,-144.14 1009.96,-137.7"/>
</g>
<!-- Node4&#45;&gt;Node5 -->
<g id="edge4" class="edge">
<title>Node4&#45;&gt;Node5</title>
<path fill="none" stroke="midnightblue" d="M1092.95,-117.98C1120.4,-107.77 1166.54,-90.61 1197.63,-79.05"/>
<polygon fill="midnightblue" stroke="midnightblue" points="1198.99,-82.28 1207.15,-75.51 1196.55,-75.71 1198.99,-82.28"/>
</g>
<!-- Node10 -->
<g id="node10" class="node">
<title>Node10</title>
<g id="a_node10"><a xlink:title=" ">
<polygon fill="white" stroke="#bfbfbf" points="1031.03,-56.5 1031.03,-75.5 1083.03,-75.5 1083.03,-56.5 1031.03,-56.5"/>
<text text-anchor="middle" x="1057.03" y="-63.5" font-family="Helvetica,sans-Serif" font-size="10.00">cassert</text>
</a>
</g>
</g>
<!-- Node4&#45;&gt;Node10 -->
<g id="edge9" class="edge">
<title>Node4&#45;&gt;Node10</title>
<path fill="none" stroke="midnightblue" d="M1068.17,-117.98C1066.31,-109.49 1063.41,-96.2 1061.03,-85.32"/>
<polygon fill="midnightblue" stroke="midnightblue" points="1064.44,-84.53 1058.89,-75.51 1057.6,-86.03 1064.44,-84.53"/>
</g>
<!-- Node11 -->
<g id="node11" class="node">
<title>Node11</title>
<g id="a_node11"><a xlink:title=" ">
<polygon fill="white" stroke="#bfbfbf" points="628.03,-56.5 628.03,-75.5 678.03,-75.5 678.03,-56.5 628.03,-56.5"/>
<text text-anchor="middle" x="653.03" y="-63.5" font-family="Helvetica,sans-Serif" font-size="10.00">cstring</text>
</a>
</g>
</g>
<!-- Node4&#45;&gt;Node11 -->
<g id="edge10" class="edge">
<title>Node4&#45;&gt;Node11</title>
<path fill="none" stroke="midnightblue" d="M1040.51,-117.94C1032.31,-115.77 1023.37,-113.61 1015.03,-112 896.34,-89.08 753.4,-75.32 688.35,-69.81"/>
<polygon fill="midnightblue" stroke="midnightblue" points="688.48,-66.31 678.23,-68.96 687.9,-73.28 688.48,-66.31"/>
</g>
<!-- Node6 -->
<g id="node6" class="node">
<title>Node6</title>
<g id="a_node6"><a xlink:title=" ">
<polygon fill="white" stroke="#bfbfbf" points="1118.53,-0.5 1118.53,-19.5 1165.53,-19.5 1165.53,-0.5 1118.53,-0.5"/>
<text text-anchor="middle" x="1142.03" y="-7.5" font-family="Helvetica,sans-Serif" font-size="10.00">deque</text>
</a>
</g>
</g>
<!-- Node5&#45;&gt;Node6 -->
<g id="edge5" class="edge">
<title>Node5&#45;&gt;Node6</title>
<path fill="none" stroke="midnightblue" d="M1215.89,-56.32C1202.16,-47.9 1181.09,-34.97 1164.96,-25.07"/>
<polygon fill="midnightblue" stroke="midnightblue" points="1166.49,-21.9 1156.13,-19.65 1162.82,-27.87 1166.49,-21.9"/>
</g>
<!-- Node7 -->
<g id="node7" class="node">
<title>Node7</title>
<g id="a_node7"><a xlink:title=" ">
<polygon fill="white" stroke="#bfbfbf" points="1184.03,-0.5 1184.03,-19.5 1222.03,-19.5 1222.03,-0.5 1184.03,-0.5"/>
<text text-anchor="middle" x="1203.03" y="-7.5" font-family="Helvetica,sans-Serif" font-size="10.00">map</text>
</a>
</g>
</g>
<!-- Node5&#45;&gt;Node7 -->
<g id="edge6" class="edge">
<title>Node5&#45;&gt;Node7</title>
<path fill="none" stroke="midnightblue" d="M1225.57,-56.08C1221.87,-48.69 1216.51,-37.95 1211.93,-28.81"/>
<polygon fill="midnightblue" stroke="midnightblue" points="1215.01,-27.13 1207.4,-19.75 1208.75,-30.26 1215.01,-27.13"/>
</g>
<!-- Node8 -->
<g id="node8" class="node">
<title>Node8</title>
<g id="a_node8"><a xlink:title=" ">
<polygon fill="white" stroke="#bfbfbf" points="1240.03,-0.5 1240.03,-19.5 1272.03,-19.5 1272.03,-0.5 1240.03,-0.5"/>
<text text-anchor="middle" x="1256.03" y="-7.5" font-family="Helvetica,sans-Serif" font-size="10.00">set</text>
</a>
</g>
</g>
<!-- Node5&#45;&gt;Node8 -->
<g id="edge7" class="edge">
<title>Node5&#45;&gt;Node8</title>
<path fill="none" stroke="midnightblue" d="M1234.32,-56.08C1237.88,-48.69 1243.05,-37.95 1247.45,-28.81"/>
<polygon fill="midnightblue" stroke="midnightblue" points="1250.63,-30.28 1251.82,-19.75 1244.32,-27.24 1250.63,-30.28"/>
</g>
<!-- Node9 -->
<g id="node9" class="node">
<title>Node9</title>
<g id="a_node9"><a xlink:title=" ">
<polygon fill="white" stroke="#bfbfbf" points="1290.53,-0.5 1290.53,-19.5 1337.53,-19.5 1337.53,-0.5 1290.53,-0.5"/>
<text text-anchor="middle" x="1314.03" y="-7.5" font-family="Helvetica,sans-Serif" font-size="10.00">vector</text>
</a>
</g>
</g>
<!-- Node5&#45;&gt;Node9 -->
<g id="edge8" class="edge">
<title>Node5&#45;&gt;Node9</title>
<path fill="none" stroke="midnightblue" d="M1243.52,-56.32C1256.63,-47.9 1276.74,-34.97 1292.14,-25.07"/>
<polygon fill="midnightblue" stroke="midnightblue" points="1294.05,-28.01 1300.57,-19.65 1290.26,-22.12 1294.05,-28.01"/>
</g>
<!-- Node17&#45;&gt;Node5 -->
<g id="edge25" class="edge">
<title>Node17&#45;&gt;Node5</title>
<path fill="none" stroke="midnightblue" d="M1253.48,-179.3C1249.05,-170.42 1242.5,-156.12 1239.03,-143 1233.99,-123.96 1231.77,-101.49 1230.79,-85.95"/>
<polygon fill="midnightblue" stroke="midnightblue" points="1234.27,-85.39 1230.26,-75.58 1227.28,-85.75 1234.27,-85.39"/>
</g>
<!-- Node17&#45;&gt;Node13 -->
<g id="edge26" class="edge">
<title>Node17&#45;&gt;Node13</title>
<path fill="none" stroke="midnightblue" d="M1295.33,-179.47C1323.31,-172.16 1361.97,-160.09 1393.03,-143 1412.12,-132.49 1410.76,-120.02 1431.03,-112 1532.09,-72 1848.7,-66.74 1998.27,-66.57"/>
<polygon fill="midnightblue" stroke="midnightblue" points="1998.31,-70.07 2008.31,-66.57 1998.31,-63.07 1998.31,-70.07"/>
</g>
<!-- Node17&#45;&gt;Node14 -->
<g id="edge27" class="edge">
<title>Node17&#45;&gt;Node14</title>
<path fill="none" stroke="midnightblue" d="M1293.56,-179.48C1337.57,-168.92 1412.62,-150.91 1460.73,-139.37"/>
<polygon fill="midnightblue" stroke="midnightblue" points="1461.65,-142.75 1470.56,-137.01 1460.02,-135.94 1461.65,-142.75"/>
</g>
<!-- Node17&#45;&gt;Node15 -->
<g id="edge29" class="edge">
<title>Node17&#45;&gt;Node15</title>
<path fill="none" stroke="midnightblue" d="M1210.11,-182.78C1160.45,-176.53 1081.01,-164.16 1015.03,-143 1013.36,-142.46 1011.66,-141.86 1009.96,-141.21"/>
<polygon fill="midnightblue" stroke="midnightblue" points="1011.02,-137.85 1000.45,-137.13 1008.26,-144.28 1011.02,-137.85"/>
</g>
<!-- Node18 -->
<g id="node18" class="node">
<title>Node18</title>
<g id="a_node18"><a xlink:href="event__handler__base_8hpp.html" target="_top" xlink:title=" ">
<polygon fill="white" stroke="black" points="1248.03,-118 1248.03,-137 1384.03,-137 1384.03,-118 1248.03,-118"/>
<text text-anchor="middle" x="1316.03" y="-125" font-family="Helvetica,sans-Serif" font-size="10.00">event_handler_base.hpp</text>
</a>
</g>
</g>
<!-- Node17&#45;&gt;Node18 -->
<g id="edge21" class="edge">
<title>Node17&#45;&gt;Node18</title>
<path fill="none" stroke="midnightblue" d="M1266.34,-179.48C1275.21,-170.37 1289.47,-155.74 1300.45,-144.48"/>
<polygon fill="midnightblue" stroke="midnightblue" points="1303.26,-146.61 1307.73,-137.01 1298.25,-141.73 1303.26,-146.61"/>
</g>
<!-- Node19 -->
<g id="node19" class="node">
<title>Node19</title>
<g id="a_node19"><a xlink:title=" ">
<polygon fill="white" stroke="#bfbfbf" points="1101.53,-56.5 1101.53,-75.5 1166.53,-75.5 1166.53,-56.5 1101.53,-56.5"/>
<text text-anchor="middle" x="1134.03" y="-63.5" font-family="Helvetica,sans-Serif" font-size="10.00">exception</text>
</a>
</g>
</g>
<!-- Node17&#45;&gt;Node19 -->
<g id="edge28" class="edge">
<title>Node17&#45;&gt;Node19</title>
<path fill="none" stroke="midnightblue" d="M1249.11,-179.3C1228.38,-159.07 1176.68,-108.62 1150.21,-82.79"/>
<polygon fill="midnightblue" stroke="midnightblue" points="1152.47,-80.1 1142.87,-75.62 1147.58,-85.11 1152.47,-80.1"/>
</g>
<!-- Node18&#45;&gt;Node5 -->
<g id="edge22" class="edge">
<title>Node18&#45;&gt;Node5</title>
<path fill="none" stroke="midnightblue" d="M1303.71,-117.98C1289.91,-108.43 1267.33,-92.81 1250.8,-81.37"/>
<polygon fill="midnightblue" stroke="midnightblue" points="1252.54,-78.32 1242.33,-75.51 1248.56,-84.08 1252.54,-78.32"/>
</g>
<!-- Node18&#45;&gt;Node13 -->
<g id="edge23" class="edge">
<title>Node18&#45;&gt;Node13</title>
<path fill="none" stroke="midnightblue" d="M1359.3,-117.94C1371.76,-115.72 1385.4,-113.53 1398.03,-112 1614.17,-85.82 1870.93,-74.02 1998.24,-69.46"/>
<polygon fill="midnightblue" stroke="midnightblue" points="1998.42,-72.96 2008.29,-69.11 1998.18,-65.96 1998.42,-72.96"/>
</g>
<!-- Node18&#45;&gt;Node19 -->
<g id="edge24" class="edge">
<title>Node18&#45;&gt;Node19</title>
<path fill="none" stroke="midnightblue" d="M1289.95,-117.98C1258.46,-107.68 1205.33,-90.31 1169.97,-78.75"/>
<polygon fill="midnightblue" stroke="midnightblue" points="1170.65,-75.29 1160.06,-75.51 1168.47,-81.94 1170.65,-75.29"/>
</g>
<!-- Node20&#45;&gt;Node3 -->
<g id="edge31" class="edge">
<title>Node20&#45;&gt;Node3</title>
<path fill="none" stroke="midnightblue" d="M1992.33,-297.12C1924.59,-292.78 1818.77,-281.96 1731.03,-255 1690.79,-242.64 1647.72,-219.02 1622.36,-203.91"/>
<polygon fill="midnightblue" stroke="midnightblue" points="1623.92,-200.77 1613.56,-198.58 1620.3,-206.76 1623.92,-200.77"/>
</g>
<!-- Node20&#45;&gt;Node5 -->
<g id="edge41" class="edge">
<title>Node20&#45;&gt;Node5</title>
<path fill="none" stroke="midnightblue" d="M1992.37,-292.9C1930.62,-282.76 1842.14,-258.21 1792.03,-199 1766.58,-168.93 1804.38,-138.28 1775.03,-112 1739.13,-79.86 1417.46,-70.4 1285.81,-67.86"/>
<polygon fill="midnightblue" stroke="midnightblue" points="1285.61,-64.35 1275.55,-67.66 1285.48,-71.35 1285.61,-64.35"/>
</g>
<!-- Node20&#45;&gt;Node13 -->
<g id="edge42" class="edge">
<title>Node20&#45;&gt;Node13</title>
<path fill="none" stroke="midnightblue" d="M2129.92,-291.68C2228.64,-278.18 2402.6,-247.96 2440.03,-199 2516.27,-99.26 2286.19,-74.82 2157.93,-68.88"/>
<polygon fill="midnightblue" stroke="midnightblue" points="2157.89,-65.37 2147.74,-68.43 2157.58,-72.36 2157.89,-65.37"/>
</g>
<!-- Node21 -->
<g id="node21" class="node">
<title>Node21</title>
<g id="a_node21"><a xlink:href="event__worker_8hpp.html" target="_top" xlink:title=" ">
<polygon fill="white" stroke="black" points="2009.53,-235.5 2009.53,-254.5 2112.53,-254.5 2112.53,-235.5 2009.53,-235.5"/>
<text text-anchor="middle" x="2061.03" y="-242.5" font-family="Helvetica,sans-Serif" font-size="10.00">event_worker.hpp</text>
</a>
</g>
</g>
<!-- Node20&#45;&gt;Node21 -->
<g id="edge32" class="edge">
<title>Node20&#45;&gt;Node21</title>
<path fill="none" stroke="midnightblue" d="M2061.03,-291.08C2061.03,-284.01 2061.03,-273.86 2061.03,-264.99"/>
<polygon fill="midnightblue" stroke="midnightblue" points="2064.53,-264.75 2061.03,-254.75 2057.53,-264.75 2064.53,-264.75"/>
</g>
<!-- Node24 -->
<g id="node24" class="node">
<title>Node24</title>
<g id="a_node24"><a xlink:title=" ">
<polygon fill="white" stroke="#bfbfbf" points="2205.03,-179.5 2205.03,-198.5 2309.03,-198.5 2309.03,-179.5 2205.03,-179.5"/>
<text text-anchor="middle" x="2257.03" y="-186.5" font-family="Helvetica,sans-Serif" font-size="10.00">thread/mutex.hpp</text>
</a>
</g>
</g>
<!-- Node20&#45;&gt;Node24 -->
<g id="edge43" class="edge">
<title>Node20&#45;&gt;Node24</title>
<path fill="none" stroke="midnightblue" d="M2076.41,-291.37C2110.4,-272.29 2192.13,-226.42 2232.96,-203.51"/>
<polygon fill="midnightblue" stroke="midnightblue" points="2234.71,-206.54 2241.72,-198.59 2231.29,-200.43 2234.71,-206.54"/>
</g>
<!-- Node25 -->
<g id="node25" class="node">
<title>Node25</title>
<g id="a_node25"><a xlink:title=" ">
<polygon fill="white" stroke="#bfbfbf" points="2327.03,-179.5 2327.03,-198.5 2431.03,-198.5 2431.03,-179.5 2327.03,-179.5"/>
<text text-anchor="middle" x="2379.03" y="-186.5" font-family="Helvetica,sans-Serif" font-size="10.00">thread/thread.hpp</text>
</a>
</g>
</g>
<!-- Node20&#45;&gt;Node25 -->
<g id="edge44" class="edge">
<title>Node20&#45;&gt;Node25</title>
<path fill="none" stroke="midnightblue" d="M2085.72,-291.46C2141.96,-272.01 2279.71,-224.36 2344.4,-201.98"/>
<polygon fill="midnightblue" stroke="midnightblue" points="2345.83,-205.19 2354.14,-198.61 2343.54,-198.57 2345.83,-205.19"/>
</g>
<!-- Node21&#45;&gt;Node3 -->
<g id="edge33" class="edge">
<title>Node21&#45;&gt;Node3</title>
<path fill="none" stroke="midnightblue" d="M2009.49,-237.96C1929.12,-228.55 1773.4,-210.31 1678.87,-199.23"/>
<polygon fill="midnightblue" stroke="midnightblue" points="1679.12,-195.74 1668.78,-198.05 1678.31,-202.69 1679.12,-195.74"/>
</g>
<!-- Node21&#45;&gt;Node5 -->
<g id="edge34" class="edge">
<title>Node21&#45;&gt;Node5</title>
<path fill="none" stroke="midnightblue" d="M2009.31,-242.56C1941.7,-239.47 1828.85,-229.71 1803.03,-199 1778.11,-169.35 1834.33,-140.43 1808.03,-112 1773.05,-74.2 1424.56,-68.08 1286.21,-67.14"/>
<polygon fill="midnightblue" stroke="midnightblue" points="1285.85,-63.64 1275.83,-67.08 1285.81,-70.64 1285.85,-63.64"/>
</g>
<!-- Node21&#45;&gt;Node13 -->
<g id="edge36" class="edge">
<title>Node21&#45;&gt;Node13</title>
<path fill="none" stroke="midnightblue" d="M2103.42,-235.45C2123.61,-229.02 2145.94,-217.93 2158.03,-199 2184.79,-157.09 2130.73,-106.59 2098.95,-81.96"/>
<polygon fill="midnightblue" stroke="midnightblue" points="2100.76,-78.95 2090.66,-75.74 2096.55,-84.54 2100.76,-78.95"/>
</g>
<!-- Node22 -->
<g id="node22" class="node">
<title>Node22</title>
<g id="a_node22"><a xlink:href="task__base_8hpp.html" target="_top" xlink:title=" ">
<polygon fill="white" stroke="black" points="1811.53,-179.5 1811.53,-198.5 1898.53,-198.5 1898.53,-179.5 1811.53,-179.5"/>
<text text-anchor="middle" x="1855.03" y="-186.5" font-family="Helvetica,sans-Serif" font-size="10.00">task_base.hpp</text>
</a>
</g>
</g>
<!-- Node21&#45;&gt;Node22 -->
<g id="edge35" class="edge">
<title>Node21&#45;&gt;Node22</title>
<path fill="none" stroke="midnightblue" d="M2028.39,-235.44C1992.98,-226.16 1936.32,-211.31 1897.48,-201.13"/>
<polygon fill="midnightblue" stroke="midnightblue" points="1898.08,-197.67 1887.52,-198.52 1896.3,-204.44 1898.08,-197.67"/>
</g>
<!-- Node23 -->
<g id="node23" class="node">
<title>Node23</title>
<g id="a_node23"><a xlink:title=" ">
<polygon fill="white" stroke="#bfbfbf" points="1917.03,-179.5 1917.03,-198.5 2079.03,-198.5 2079.03,-179.5 1917.03,-179.5"/>
<text text-anchor="middle" x="1998.03" y="-186.5" font-family="Helvetica,sans-Serif" font-size="10.00">thread/condition_variable.hpp</text>
</a>
</g>
</g>
<!-- Node21&#45;&gt;Node23 -->
<g id="edge37" class="edge">
<title>Node21&#45;&gt;Node23</title>
<path fill="none" stroke="midnightblue" d="M2050.91,-235.32C2041.5,-227.26 2027.28,-215.08 2015.96,-205.37"/>
<polygon fill="midnightblue" stroke="midnightblue" points="2018.21,-202.68 2008.33,-198.83 2013.65,-208 2018.21,-202.68"/>
</g>
<!-- Node21&#45;&gt;Node24 -->
<g id="edge38" class="edge">
<title>Node21&#45;&gt;Node24</title>
<path fill="none" stroke="midnightblue" d="M2092.09,-235.44C2125.63,-226.2 2179.23,-211.44 2216.17,-201.26"/>
<polygon fill="midnightblue" stroke="midnightblue" points="2217.41,-204.55 2226.12,-198.52 2215.55,-197.8 2217.41,-204.55"/>
</g>
<!-- Node21&#45;&gt;Node25 -->
<g id="edge39" class="edge">
<title>Node21&#45;&gt;Node25</title>
<path fill="none" stroke="midnightblue" d="M2111.42,-235.44C2167.7,-225.89 2258.78,-210.42 2318.79,-200.23"/>
<polygon fill="midnightblue" stroke="midnightblue" points="2319.6,-203.64 2328.88,-198.52 2318.43,-196.74 2319.6,-203.64"/>
</g>
<!-- Node26 -->
<g id="node26" class="node">
<title>Node26</title>
<g id="a_node26"><a xlink:title=" ">
<polygon fill="white" stroke="#bfbfbf" points="2097.53,-179.5 2097.53,-198.5 2148.53,-198.5 2148.53,-179.5 2097.53,-179.5"/>
<text text-anchor="middle" x="2123.03" y="-186.5" font-family="Helvetica,sans-Serif" font-size="10.00">csignal</text>
</a>
</g>
</g>
<!-- Node21&#45;&gt;Node26 -->
<g id="edge40" class="edge">
<title>Node21&#45;&gt;Node26</title>
<path fill="none" stroke="midnightblue" d="M2070.99,-235.32C2080.16,-227.34 2093.97,-215.31 2105.06,-205.65"/>
<polygon fill="midnightblue" stroke="midnightblue" points="2107.64,-208.04 2112.89,-198.83 2103.05,-202.76 2107.64,-208.04"/>
</g>
<!-- Node27&#45;&gt;Node5 -->
<g id="edge52" class="edge">
<title>Node27&#45;&gt;Node5</title>
<path fill="none" stroke="midnightblue" d="M517.54,-185.71C610.16,-180.75 811.45,-167.46 876.03,-143 898.4,-134.53 897.78,-120.8 920.03,-112 1023.84,-70.93 1060.39,-92.16 1174.22,-76.19"/>
<polygon fill="midnightblue" stroke="midnightblue" points="1174.99,-79.61 1184.38,-74.69 1173.97,-72.69 1174.99,-79.61"/>
</g>
<!-- Node27&#45;&gt;Node11 -->
<g id="edge60" class="edge">
<title>Node27&#45;&gt;Node11</title>
<path fill="none" stroke="midnightblue" d="M422.25,-186.91C309.57,-183.86 34.57,-173.35 7.03,-143 -2.23,-132.8 -2.42,-122.02 7.03,-112 53.68,-62.52 550.84,-86.52 618.03,-76 618.13,-75.98 618.23,-75.97 618.33,-75.95"/>
<polygon fill="midnightblue" stroke="midnightblue" points="618.77,-79.43 627.91,-74.08 617.43,-72.56 618.77,-79.43"/>
</g>
<!-- Node27&#45;&gt;Node15 -->
<g id="edge63" class="edge">
<title>Node27&#45;&gt;Node15</title>
<path fill="none" stroke="midnightblue" d="M517.74,-184.56C598.69,-178.4 768,-164.13 910.03,-143 923.82,-140.95 938.95,-138.09 951.91,-135.46"/>
<polygon fill="midnightblue" stroke="midnightblue" points="952.7,-138.87 961.78,-133.41 951.27,-132.02 952.7,-138.87"/>
</g>
<!-- Node28 -->
<g id="node28" class="node">
<title>Node28</title>
<g id="a_node28"><a xlink:href="serv__exception_8hpp.html" target="_top" xlink:title=" ">
<polygon fill="white" stroke="black" points="564.03,-118 564.03,-137 676.03,-137 676.03,-118 564.03,-118"/>
<text text-anchor="middle" x="620.03" y="-125" font-family="Helvetica,sans-Serif" font-size="10.00">serv_exception.hpp</text>
</a>
</g>
</g>
<!-- Node27&#45;&gt;Node28 -->
<g id="edge47" class="edge">
<title>Node27&#45;&gt;Node28</title>
<path fill="none" stroke="midnightblue" d="M491.52,-179.48C517.14,-169.31 560.14,-152.26 589.27,-140.7"/>
<polygon fill="midnightblue" stroke="midnightblue" points="590.57,-143.95 598.58,-137.01 587.99,-137.44 590.57,-143.95"/>
</g>
<!-- Node30 -->
<g id="node30" class="node">
<title>Node30</title>
<g id="a_node30"><a xlink:title=" ">
<polygon fill="white" stroke="#bfbfbf" points="337.53,-118 337.53,-137 384.53,-137 384.53,-118 337.53,-118"/>
<text text-anchor="middle" x="361.03" y="-125" font-family="Helvetica,sans-Serif" font-size="10.00">fcntl.h</text>
</a>
</g>
</g>
<!-- Node27&#45;&gt;Node30 -->
<g id="edge53" class="edge">
<title>Node27&#45;&gt;Node30</title>
<path fill="none" stroke="midnightblue" d="M454.41,-179.48C436.44,-169.67 406.71,-153.43 385.62,-141.92"/>
<polygon fill="midnightblue" stroke="midnightblue" points="387.07,-138.73 376.62,-137.01 383.72,-144.87 387.07,-138.73"/>
</g>
<!-- Node31 -->
<g id="node31" class="node">
<title>Node31</title>
<g id="a_node31"><a xlink:title=" ">
<polygon fill="white" stroke="#bfbfbf" points="402.53,-118 402.53,-137 455.53,-137 455.53,-118 402.53,-118"/>
<text text-anchor="middle" x="429.03" y="-125" font-family="Helvetica,sans-Serif" font-size="10.00">netdb.h</text>
</a>
</g>
</g>
<!-- Node27&#45;&gt;Node31 -->
<g id="edge54" class="edge">
<title>Node27&#45;&gt;Node31</title>
<path fill="none" stroke="midnightblue" d="M464.15,-179.48C458.07,-170.64 448.38,-156.59 440.73,-145.48"/>
<polygon fill="midnightblue" stroke="midnightblue" points="443.45,-143.26 434.89,-137.01 437.68,-147.23 443.45,-143.26"/>
</g>
<!-- Node32 -->
<g id="node32" class="node">
<title>Node32</title>
<g id="a_node32"><a xlink:title=" ">
<polygon fill="white" stroke="#bfbfbf" points="474.03,-118 474.03,-137 546.03,-137 546.03,-118 474.03,-118"/>
<text text-anchor="middle" x="510.03" y="-125" font-family="Helvetica,sans-Serif" font-size="10.00">netinet/in.h</text>
</a>
</g>
</g>
<!-- Node27&#45;&gt;Node32 -->
<g id="edge55" class="edge">
<title>Node27&#45;&gt;Node32</title>
<path fill="none" stroke="midnightblue" d="M475.76,-179.48C481.7,-170.64 491.15,-156.59 498.62,-145.48"/>
<polygon fill="midnightblue" stroke="midnightblue" points="501.63,-147.26 504.31,-137.01 495.82,-143.36 501.63,-147.26"/>
</g>
<!-- Node33 -->
<g id="node33" class="node">
<title>Node33</title>
<g id="a_node33"><a xlink:title=" ">
<polygon fill="white" stroke="#bfbfbf" points="694.03,-118 694.03,-137 772.03,-137 772.03,-118 694.03,-118"/>
<text text-anchor="middle" x="733.03" y="-125" font-family="Helvetica,sans-Serif" font-size="10.00">netinet/tcp.h</text>
</a>
</g>
</g>
<!-- Node27&#45;&gt;Node33 -->
<g id="edge56" class="edge">
<title>Node27&#45;&gt;Node33</title>
<path fill="none" stroke="midnightblue" d="M516.43,-179.5C560.16,-171.2 627.38,-157.71 685.03,-143 688.7,-142.06 692.52,-141.02 696.32,-139.95"/>
<polygon fill="midnightblue" stroke="midnightblue" points="697.62,-143.21 706.23,-137.04 695.65,-136.49 697.62,-143.21"/>
</g>
<!-- Node34 -->
<g id="node34" class="node">
<title>Node34</title>
<g id="a_node34"><a xlink:title=" ">
<polygon fill="white" stroke="#bfbfbf" points="790.53,-118 790.53,-137 867.53,-137 867.53,-118 790.53,-118"/>
<text text-anchor="middle" x="829.03" y="-125" font-family="Helvetica,sans-Serif" font-size="10.00">sys/socket.h</text>
</a>
</g>
</g>
<!-- Node27&#45;&gt;Node34 -->
<g id="edge57" class="edge">
<title>Node27&#45;&gt;Node34</title>
<path fill="none" stroke="midnightblue" d="M517.58,-183.36C578.94,-176.86 688.76,-163.49 781.03,-143 785.14,-142.09 789.41,-141 793.64,-139.84"/>
<polygon fill="midnightblue" stroke="midnightblue" points="794.67,-143.18 803.31,-137.04 792.73,-136.46 794.67,-143.18"/>
</g>
<!-- Node35 -->
<g id="node35" class="node">
<title>Node35</title>
<g id="a_node35"><a xlink:title=" ">
<polygon fill="white" stroke="#bfbfbf" points="16.03,-118 16.03,-137 88.03,-137 88.03,-118 16.03,-118"/>
<text text-anchor="middle" x="52.03" y="-125" font-family="Helvetica,sans-Serif" font-size="10.00">sys/types.h</text>
</a>
</g>
</g>
<!-- Node27&#45;&gt;Node35 -->
<g id="edge58" class="edge">
<title>Node27&#45;&gt;Node35</title>
<path fill="none" stroke="midnightblue" d="M422.44,-185.19C351.06,-180.31 212.35,-168.29 97.03,-143 93.17,-142.15 89.17,-141.11 85.22,-139.98"/>
<polygon fill="midnightblue" stroke="midnightblue" points="86.2,-136.62 75.62,-137.04 84.15,-143.31 86.2,-136.62"/>
</g>
<!-- Node36 -->
<g id="node36" class="node">
<title>Node36</title>
<g id="a_node36"><a xlink:title=" ">
<polygon fill="white" stroke="#bfbfbf" points="106.03,-118 106.03,-137 162.03,-137 162.03,-118 106.03,-118"/>
<text text-anchor="middle" x="134.03" y="-125" font-family="Helvetica,sans-Serif" font-size="10.00">unistd.h</text>
</a>
</g>
</g>
<!-- Node27&#45;&gt;Node36 -->
<g id="edge59" class="edge">
<title>Node27&#45;&gt;Node36</title>
<path fill="none" stroke="midnightblue" d="M422.49,-184.16C362.94,-178.59 258.12,-166.3 171.03,-143 168.37,-142.29 165.64,-141.45 162.93,-140.53"/>
<polygon fill="midnightblue" stroke="midnightblue" points="163.93,-137.17 153.34,-137.01 161.52,-143.74 163.93,-137.17"/>
</g>
<!-- Node37 -->
<g id="node37" class="node">
<title>Node37</title>
<g id="a_node37"><a xlink:title=" ">
<polygon fill="white" stroke="#bfbfbf" points="180.03,-118 180.03,-137 236.03,-137 236.03,-118 180.03,-118"/>
<text text-anchor="middle" x="208.03" y="-125" font-family="Helvetica,sans-Serif" font-size="10.00">sstream</text>
</a>
</g>
</g>
<!-- Node27&#45;&gt;Node37 -->
<g id="edge61" class="edge">
<title>Node27&#45;&gt;Node37</title>
<path fill="none" stroke="midnightblue" d="M422.47,-180.99C376.52,-173.63 305.23,-160.67 245.03,-143 242.6,-142.29 240.1,-141.48 237.61,-140.62"/>
<polygon fill="midnightblue" stroke="midnightblue" points="238.75,-137.31 228.16,-137.13 236.33,-143.88 238.75,-137.31"/>
</g>
<!-- Node38 -->
<g id="node38" class="node">
<title>Node38</title>
<g id="a_node38"><a xlink:title=" ">
<polygon fill="white" stroke="#bfbfbf" points="254.53,-118 254.53,-137 319.53,-137 319.53,-118 254.53,-118"/>
<text text-anchor="middle" x="287.03" y="-125" font-family="Helvetica,sans-Serif" font-size="10.00">stdexcept</text>
</a>
</g>
</g>
<!-- Node27&#45;&gt;Node38 -->
<g id="edge62" class="edge">
<title>Node27&#45;&gt;Node38</title>
<path fill="none" stroke="midnightblue" d="M442.19,-179.47C413.49,-170.62 367.51,-156.23 328.03,-143 325.59,-142.18 323.07,-141.32 320.53,-140.45"/>
<polygon fill="midnightblue" stroke="midnightblue" points="321.43,-137.06 310.83,-137.07 319.12,-143.67 321.43,-137.06"/>
</g>
<!-- Node28&#45;&gt;Node5 -->
<g id="edge48" class="edge">
<title>Node28&#45;&gt;Node5</title>
<path fill="none" stroke="midnightblue" d="M653.93,-117.95C663.89,-115.71 674.85,-113.5 685.03,-112 898.22,-80.58 957,-101.36 1174.27,-76.1"/>
<polygon fill="midnightblue" stroke="midnightblue" points="1174.89,-79.56 1184.41,-74.91 1174.06,-72.6 1174.89,-79.56"/>
</g>
<!-- Node28&#45;&gt;Node11 -->
<g id="edge50" class="edge">
<title>Node28&#45;&gt;Node11</title>
<path fill="none" stroke="midnightblue" d="M624.76,-117.98C629.61,-109.23 637.29,-95.37 643.43,-84.31"/>
<polygon fill="midnightblue" stroke="midnightblue" points="646.52,-85.95 648.31,-75.51 640.4,-82.56 646.52,-85.95"/>
</g>
<!-- Node28&#45;&gt;Node19 -->
<g id="edge51" class="edge">
<title>Node28&#45;&gt;Node19</title>
<path fill="none" stroke="midnightblue" d="M654.28,-117.98C664.15,-115.76 674.97,-113.56 685.03,-112 861.24,-84.67 910.69,-102.41 1091,-75.96"/>
<polygon fill="midnightblue" stroke="midnightblue" points="1091.71,-79.4 1101.08,-74.46 1090.68,-72.47 1091.71,-79.4"/>
</g>
<!-- Node29 -->
<g id="node29" class="node">
<title>Node29</title>
<g id="a_node29"><a xlink:title=" ">
<polygon fill="white" stroke="#bfbfbf" points="562.53,-56.5 562.53,-75.5 609.53,-75.5 609.53,-56.5 562.53,-56.5"/>
<text text-anchor="middle" x="586.03" y="-63.5" font-family="Helvetica,sans-Serif" font-size="10.00">cerrno</text>
</a>
</g>
</g>
<!-- Node28&#45;&gt;Node29 -->
<g id="edge49" class="edge">
<title>Node28&#45;&gt;Node29</title>
<path fill="none" stroke="midnightblue" d="M615.16,-117.98C610.16,-109.23 602.24,-95.37 595.92,-84.31"/>
<polygon fill="midnightblue" stroke="midnightblue" points="598.89,-82.46 590.89,-75.51 592.81,-85.93 598.89,-82.46"/>
</g>
</g>
</svg>
