<?xml version="1.0" encoding="UTF-8" standalone="no"?>
<!DOCTYPE svg PUBLIC "-//W3C//DTD SVG 1.1//EN"
 "http://www.w3.org/Graphics/SVG/1.1/DTD/svg11.dtd">
<!-- Generated by graphviz version 2.43.0 (0)
 -->
<!-- Title: includes/libserv/stream_channel.cpp Pages: 1 -->
<svg width="1228pt" height="330pt"
 viewBox="0.00 0.00 1227.50 330.00" xmlns="http://www.w3.org/2000/svg" xmlns:xlink="http://www.w3.org/1999/xlink">
<g id="graph0" class="graph" transform="scale(1 1) rotate(0) translate(4 326)">
<title>includes/libserv/stream_channel.cpp</title>
<polygon fill="white" stroke="transparent" points="-4,4 -4,-326 1223.5,-326 1223.5,4 -4,4"/>
<!-- Node1 -->
<g id="node1" class="node">
<title>Node1</title>
<g id="a_node1"><a xlink:title=" ">
<polygon fill="#bfbfbf" stroke="black" points="504.5,-291.5 504.5,-321.5 635.5,-321.5 635.5,-291.5 504.5,-291.5"/>
<text text-anchor="start" x="512.5" y="-309.5" font-family="Helvetica,sans-Serif" font-size="10.00">includes/libserv/stream</text>
<text text-anchor="middle" x="570" y="-298.5" font-family="Helvetica,sans-Serif" font-size="10.00">_channel.cpp</text>
</a>
</g>
</g>
<!-- Node2 -->
<g id="node2" class="node">
<title>Node2</title>
<g id="a_node2"><a xlink:href="stream__channel_8hpp.html" target="_top" xlink:title=" ">
<polygon fill="white" stroke="black" points="469,-235.5 469,-254.5 585,-254.5 585,-235.5 469,-235.5"/>
<text text-anchor="middle" x="527" y="-242.5" font-family="Helvetica,sans-Serif" font-size="10.00">stream_channel.hpp</text>
</a>
</g>
</g>
<!-- Node1&#45;&gt;Node2 -->
<g id="edge1" class="edge">
<title>Node1&#45;&gt;Node2</title>
<path fill="none" stroke="midnightblue" d="M559.81,-291.4C553.63,-282.84 545.7,-271.87 539.18,-262.86"/>
<polygon fill="midnightblue" stroke="midnightblue" points="541.95,-260.71 533.26,-254.66 536.28,-264.81 541.95,-260.71"/>
</g>
<!-- Node3 -->
<g id="node3" class="node">
<title>Node3</title>
<g id="a_node3"><a xlink:href="event__channel__base_8hpp.html" target="_top" xlink:title=" ">
<polygon fill="white" stroke="black" points="354.5,-179.5 354.5,-198.5 491.5,-198.5 491.5,-179.5 354.5,-179.5"/>
<text text-anchor="middle" x="423" y="-186.5" font-family="Helvetica,sans-Serif" font-size="10.00">event_channel_base.hpp</text>
</a>
</g>
</g>
<!-- Node1&#45;&gt;Node3 -->
<g id="edge20" class="edge">
<title>Node1&#45;&gt;Node3</title>
<path fill="none" stroke="midnightblue" d="M523.41,-291.49C502.24,-283.38 477.97,-271.47 460,-255 445.96,-242.14 435.87,-222.68 429.8,-208.41"/>
<polygon fill="midnightblue" stroke="midnightblue" points="432.89,-206.71 425.95,-198.7 426.39,-209.29 432.89,-206.71"/>
</g>
<!-- Node4 -->
<g id="node4" class="node">
<title>Node4</title>
<g id="a_node4"><a xlink:href="byte__buffer_8hpp.html" target="_top" xlink:title=" ">
<polygon fill="white" stroke="black" points="0,-118 0,-137 92,-137 92,-118 0,-118"/>
<text text-anchor="middle" x="46" y="-125" font-family="Helvetica,sans-Serif" font-size="10.00">byte_buffer.hpp</text>
</a>
</g>
</g>
<!-- Node1&#45;&gt;Node4 -->
<g id="edge19" class="edge">
<title>Node1&#45;&gt;Node4</title>
<path fill="none" stroke="midnightblue" d="M504.11,-306.05C391.57,-305.75 168.4,-299.38 106,-255 69.79,-229.25 54.7,-175.77 49.03,-147.29"/>
<polygon fill="midnightblue" stroke="midnightblue" points="52.41,-146.31 47.19,-137.08 45.52,-147.55 52.41,-146.31"/>
</g>
<!-- Node5 -->
<g id="node5" class="node">
<title>Node5</title>
<g id="a_node5"><a xlink:href="serv__types_8hpp.html" target="_top" xlink:title=" ">
<polygon fill="white" stroke="black" points="243.5,-56.5 243.5,-75.5 334.5,-75.5 334.5,-56.5 243.5,-56.5"/>
<text text-anchor="middle" x="289" y="-63.5" font-family="Helvetica,sans-Serif" font-size="10.00">serv_types.hpp</text>
</a>
</g>
</g>
<!-- Node1&#45;&gt;Node5 -->
<g id="edge36" class="edge">
<title>Node1&#45;&gt;Node5</title>
<path fill="none" stroke="midnightblue" d="M504.47,-303.22C405.12,-295.76 219.45,-265.25 139,-143 131.43,-131.49 130.78,-123.05 139,-112 150.55,-96.48 195.59,-84.31 233.34,-76.56"/>
<polygon fill="midnightblue" stroke="midnightblue" points="234.13,-79.97 243.25,-74.59 232.76,-73.11 234.13,-79.97"/>
</g>
<!-- Node13 -->
<g id="node13" class="node">
<title>Node13</title>
<g id="a_node13"><a xlink:title=" ">
<polygon fill="white" stroke="#bfbfbf" points="923.5,-56.5 923.5,-75.5 1062.5,-75.5 1062.5,-56.5 923.5,-56.5"/>
<text text-anchor="middle" x="993" y="-63.5" font-family="Helvetica,sans-Serif" font-size="10.00">smart_ptr/shared_ptr.hpp</text>
</a>
</g>
</g>
<!-- Node1&#45;&gt;Node13 -->
<g id="edge38" class="edge">
<title>Node1&#45;&gt;Node13</title>
<path fill="none" stroke="midnightblue" d="M635.84,-300.23C729.58,-288.89 899.39,-253.41 983,-143 995.4,-126.62 996.48,-102.36 995.39,-85.68"/>
<polygon fill="midnightblue" stroke="midnightblue" points="998.85,-85.14 994.39,-75.53 991.88,-85.82 998.85,-85.14"/>
</g>
<!-- Node15 -->
<g id="node15" class="node">
<title>Node15</title>
<g id="a_node15"><a xlink:title=" ">
<polygon fill="white" stroke="#bfbfbf" points="698,-118 698,-137 742,-137 742,-118 698,-118"/>
<text text-anchor="middle" x="720" y="-125" font-family="Helvetica,sans-Serif" font-size="10.00">string</text>
</a>
</g>
</g>
<!-- Node1&#45;&gt;Node15 -->
<g id="edge40" class="edge">
<title>Node1&#45;&gt;Node15</title>
<path fill="none" stroke="midnightblue" d="M582.02,-291.31C609.45,-258.95 676.55,-179.78 705.88,-145.16"/>
<polygon fill="midnightblue" stroke="midnightblue" points="708.68,-147.27 712.48,-137.37 703.34,-142.74 708.68,-147.27"/>
</g>
<!-- Node16 -->
<g id="node16" class="node">
<title>Node16</title>
<g id="a_node16"><a xlink:title=" ">
<polygon fill="white" stroke="#bfbfbf" points="586.5,-179.5 586.5,-198.5 639.5,-198.5 639.5,-179.5 586.5,-179.5"/>
<text text-anchor="middle" x="613" y="-186.5" font-family="Helvetica,sans-Serif" font-size="10.00">cstddef</text>
</a>
</g>
</g>
<!-- Node1&#45;&gt;Node16 -->
<g id="edge39" class="edge">
<title>Node1&#45;&gt;Node16</title>
<path fill="none" stroke="midnightblue" d="M577.56,-291.18C582.63,-281.21 589.23,-267.52 594,-255 599.89,-239.55 605.04,-221.46 608.49,-208.29"/>
<polygon fill="midnightblue" stroke="midnightblue" points="611.89,-209.11 610.96,-198.56 605.11,-207.39 611.89,-209.11"/>
</g>
<!-- Node17 -->
<g id="node17" class="node">
<title>Node17</title>
<g id="a_node17"><a xlink:href="event__layer_8hpp.html" target="_top" xlink:title=" ">
<polygon fill="white" stroke="black" points="722.5,-179.5 722.5,-198.5 817.5,-198.5 817.5,-179.5 722.5,-179.5"/>
<text text-anchor="middle" x="770" y="-186.5" font-family="Helvetica,sans-Serif" font-size="10.00">event_layer.hpp</text>
</a>
</g>
</g>
<!-- Node1&#45;&gt;Node17 -->
<g id="edge21" class="edge">
<title>Node1&#45;&gt;Node17</title>
<path fill="none" stroke="midnightblue" d="M614.8,-291.46C639.41,-282.76 669.94,-270.33 695,-255 717.82,-241.04 740.54,-220.11 754.9,-205.79"/>
<polygon fill="midnightblue" stroke="midnightblue" points="757.45,-208.19 761.96,-198.61 752.45,-203.29 757.45,-208.19"/>
</g>
<!-- Node20 -->
<g id="node20" class="node">
<title>Node20</title>
<g id="a_node20"><a xlink:href="serv__exception_8hpp.html" target="_top" xlink:title=" ">
<polygon fill="white" stroke="black" points="148,-118 148,-137 260,-137 260,-118 148,-118"/>
<text text-anchor="middle" x="204" y="-125" font-family="Helvetica,sans-Serif" font-size="10.00">serv_exception.hpp</text>
</a>
</g>
</g>
<!-- Node1&#45;&gt;Node20 -->
<g id="edge31" class="edge">
<title>Node1&#45;&gt;Node20</title>
<path fill="none" stroke="midnightblue" d="M530.23,-291.48C504.22,-281.96 469.69,-268.66 440,-255 360.08,-218.22 269.34,-166.68 227.46,-142.31"/>
<polygon fill="midnightblue" stroke="midnightblue" points="228.99,-139.15 218.59,-137.13 225.46,-145.2 228.99,-139.15"/>
</g>
<!-- Node22 -->
<g id="node22" class="node">
<title>Node22</title>
<g id="a_node22"><a xlink:title=" ">
<polygon fill="white" stroke="#bfbfbf" points="1066.5,-235.5 1066.5,-254.5 1219.5,-254.5 1219.5,-235.5 1066.5,-235.5"/>
<text text-anchor="middle" x="1143" y="-242.5" font-family="Helvetica,sans-Serif" font-size="10.00">smart_ptr/make_shared.hpp</text>
</a>
</g>
</g>
<!-- Node1&#45;&gt;Node22 -->
<g id="edge37" class="edge">
<title>Node1&#45;&gt;Node22</title>
<path fill="none" stroke="midnightblue" d="M635.73,-298.67C739.31,-287.92 940.58,-267.02 1056.02,-255.03"/>
<polygon fill="midnightblue" stroke="midnightblue" points="1056.65,-258.49 1066.23,-253.97 1055.93,-251.52 1056.65,-258.49"/>
</g>
<!-- Node2&#45;&gt;Node3 -->
<g id="edge2" class="edge">
<title>Node2&#45;&gt;Node3</title>
<path fill="none" stroke="midnightblue" d="M510.29,-235.32C493.69,-226.7 468,-213.36 448.78,-203.39"/>
<polygon fill="midnightblue" stroke="midnightblue" points="450.16,-200.16 439.67,-198.65 446.93,-206.37 450.16,-200.16"/>
</g>
<!-- Node2&#45;&gt;Node5 -->
<g id="edge16" class="edge">
<title>Node2&#45;&gt;Node5</title>
<path fill="none" stroke="midnightblue" d="M528.2,-235.47C530.95,-212.12 535.1,-146.6 501,-112 479.56,-90.24 400.01,-77.98 344.7,-71.92"/>
<polygon fill="midnightblue" stroke="midnightblue" points="344.99,-68.43 334.68,-70.86 344.26,-75.39 344.99,-68.43"/>
</g>
<!-- Node2&#45;&gt;Node15 -->
<g id="edge18" class="edge">
<title>Node2&#45;&gt;Node15</title>
<path fill="none" stroke="midnightblue" d="M531.7,-235.05C539.48,-221.08 556.36,-194.11 578,-179 620.52,-149.31 640.75,-162.02 689,-143 690.42,-142.44 691.86,-141.85 693.31,-141.24"/>
<polygon fill="midnightblue" stroke="midnightblue" points="695.08,-144.28 702.79,-137.01 692.23,-137.89 695.08,-144.28"/>
</g>
<!-- Node2&#45;&gt;Node16 -->
<g id="edge17" class="edge">
<title>Node2&#45;&gt;Node16</title>
<path fill="none" stroke="midnightblue" d="M540.82,-235.32C554.23,-226.9 574.82,-213.97 590.59,-204.07"/>
<polygon fill="midnightblue" stroke="midnightblue" points="592.61,-206.94 599.22,-198.65 588.89,-201.01 592.61,-206.94"/>
</g>
<!-- Node3&#45;&gt;Node4 -->
<g id="edge3" class="edge">
<title>Node3&#45;&gt;Node4</title>
<path fill="none" stroke="midnightblue" d="M368.99,-179.48C298.15,-168.3 174.46,-148.77 102.44,-137.41"/>
<polygon fill="midnightblue" stroke="midnightblue" points="102.63,-133.89 92.21,-135.79 101.54,-140.81 102.63,-133.89"/>
</g>
<!-- Node3&#45;&gt;Node5 -->
<g id="edge11" class="edge">
<title>Node3&#45;&gt;Node5</title>
<path fill="none" stroke="midnightblue" d="M378.21,-179.48C355.54,-173.02 329.24,-161.89 312,-143 297.65,-127.28 292.25,-102.88 290.21,-85.99"/>
<polygon fill="midnightblue" stroke="midnightblue" points="293.67,-85.33 289.28,-75.69 286.7,-85.97 293.67,-85.33"/>
</g>
<!-- Node12 -->
<g id="node12" class="node">
<title>Node12</title>
<g id="a_node12"><a xlink:title=" ">
<polygon fill="white" stroke="#bfbfbf" points="354,-112.5 354,-142.5 492,-142.5 492,-112.5 354,-112.5"/>
<text text-anchor="start" x="362" y="-130.5" font-family="Helvetica,sans-Serif" font-size="10.00">smart_ptr/enable_shared</text>
<text text-anchor="middle" x="423" y="-119.5" font-family="Helvetica,sans-Serif" font-size="10.00">_from_this.hpp</text>
</a>
</g>
</g>
<!-- Node3&#45;&gt;Node12 -->
<g id="edge12" class="edge">
<title>Node3&#45;&gt;Node12</title>
<path fill="none" stroke="midnightblue" d="M423,-179.48C423,-172.47 423,-162.19 423,-152.7"/>
<polygon fill="midnightblue" stroke="midnightblue" points="426.5,-152.52 423,-142.52 419.5,-152.52 426.5,-152.52"/>
</g>
<!-- Node3&#45;&gt;Node13 -->
<g id="edge13" class="edge">
<title>Node3&#45;&gt;Node13</title>
<path fill="none" stroke="midnightblue" d="M393.88,-179.44C376.36,-172.62 355.48,-161.14 345,-143 338.11,-131.07 335.57,-122.05 345,-112 387.89,-66.28 845.54,-81.3 908,-76 909.73,-75.85 911.48,-75.7 913.24,-75.54"/>
<polygon fill="midnightblue" stroke="midnightblue" points="913.81,-79.01 923.44,-74.6 913.16,-72.04 913.81,-79.01"/>
</g>
<!-- Node14 -->
<g id="node14" class="node">
<title>Node14</title>
<g id="a_node14"><a xlink:title=" ">
<polygon fill="white" stroke="#bfbfbf" points="548,-118 548,-137 680,-137 680,-118 548,-118"/>
<text text-anchor="middle" x="614" y="-125" font-family="Helvetica,sans-Serif" font-size="10.00">smart_ptr/weak_ptr.hpp</text>
</a>
</g>
</g>
<!-- Node3&#45;&gt;Node14 -->
<g id="edge14" class="edge">
<title>Node3&#45;&gt;Node14</title>
<path fill="none" stroke="midnightblue" d="M450.37,-179.48C483.55,-169.14 539.65,-151.66 576.76,-140.1"/>
<polygon fill="midnightblue" stroke="midnightblue" points="578.18,-143.32 586.69,-137.01 576.1,-136.64 578.18,-143.32"/>
</g>
<!-- Node3&#45;&gt;Node15 -->
<g id="edge15" class="edge">
<title>Node3&#45;&gt;Node15</title>
<path fill="none" stroke="midnightblue" d="M491.7,-181.53C546.12,-175.19 623.61,-163.41 689,-143 690.87,-142.42 692.78,-141.74 694.67,-141.01"/>
<polygon fill="midnightblue" stroke="midnightblue" points="696.12,-144.2 703.92,-137.03 693.35,-137.77 696.12,-144.2"/>
</g>
<!-- Node4&#45;&gt;Node5 -->
<g id="edge4" class="edge">
<title>Node4&#45;&gt;Node5</title>
<path fill="none" stroke="midnightblue" d="M80.82,-117.98C123.85,-107.44 197.17,-89.49 244.31,-77.94"/>
<polygon fill="midnightblue" stroke="midnightblue" points="245.37,-81.29 254.25,-75.51 243.7,-74.49 245.37,-81.29"/>
</g>
<!-- Node10 -->
<g id="node10" class="node">
<title>Node10</title>
<g id="a_node10"><a xlink:title=" ">
<polygon fill="white" stroke="#bfbfbf" points="20,-56.5 20,-75.5 72,-75.5 72,-56.5 20,-56.5"/>
<text text-anchor="middle" x="46" y="-63.5" font-family="Helvetica,sans-Serif" font-size="10.00">cassert</text>
</a>
</g>
</g>
<!-- Node4&#45;&gt;Node10 -->
<g id="edge9" class="edge">
<title>Node4&#45;&gt;Node10</title>
<path fill="none" stroke="midnightblue" d="M46,-117.98C46,-109.58 46,-96.48 46,-85.66"/>
<polygon fill="midnightblue" stroke="midnightblue" points="49.5,-85.51 46,-75.51 42.5,-85.51 49.5,-85.51"/>
</g>
<!-- Node11 -->
<g id="node11" class="node">
<title>Node11</title>
<g id="a_node11"><a xlink:title=" ">
<polygon fill="white" stroke="#bfbfbf" points="101,-56.5 101,-75.5 151,-75.5 151,-56.5 101,-56.5"/>
<text text-anchor="middle" x="126" y="-63.5" font-family="Helvetica,sans-Serif" font-size="10.00">cstring</text>
</a>
</g>
</g>
<!-- Node4&#45;&gt;Node11 -->
<g id="edge10" class="edge">
<title>Node4&#45;&gt;Node11</title>
<path fill="none" stroke="midnightblue" d="M57.46,-117.98C70.17,-108.52 90.91,-93.1 106.25,-81.69"/>
<polygon fill="midnightblue" stroke="midnightblue" points="108.62,-84.29 114.56,-75.51 104.45,-78.67 108.62,-84.29"/>
</g>
<!-- Node6 -->
<g id="node6" class="node">
<title>Node6</title>
<g id="a_node6"><a xlink:title=" ">
<polygon fill="white" stroke="#bfbfbf" points="177.5,-0.5 177.5,-19.5 224.5,-19.5 224.5,-0.5 177.5,-0.5"/>
<text text-anchor="middle" x="201" y="-7.5" font-family="Helvetica,sans-Serif" font-size="10.00">deque</text>
</a>
</g>
</g>
<!-- Node5&#45;&gt;Node6 -->
<g id="edge5" class="edge">
<title>Node5&#45;&gt;Node6</title>
<path fill="none" stroke="midnightblue" d="M274.86,-56.32C261.13,-47.9 240.06,-34.97 223.94,-25.07"/>
<polygon fill="midnightblue" stroke="midnightblue" points="225.46,-21.9 215.1,-19.65 221.8,-27.87 225.46,-21.9"/>
</g>
<!-- Node7 -->
<g id="node7" class="node">
<title>Node7</title>
<g id="a_node7"><a xlink:title=" ">
<polygon fill="white" stroke="#bfbfbf" points="243,-0.5 243,-19.5 281,-19.5 281,-0.5 243,-0.5"/>
<text text-anchor="middle" x="262" y="-7.5" font-family="Helvetica,sans-Serif" font-size="10.00">map</text>
</a>
</g>
</g>
<!-- Node5&#45;&gt;Node7 -->
<g id="edge6" class="edge">
<title>Node5&#45;&gt;Node7</title>
<path fill="none" stroke="midnightblue" d="M284.54,-56.08C280.85,-48.69 275.48,-37.95 270.91,-28.81"/>
<polygon fill="midnightblue" stroke="midnightblue" points="273.98,-27.13 266.38,-19.75 267.72,-30.26 273.98,-27.13"/>
</g>
<!-- Node8 -->
<g id="node8" class="node">
<title>Node8</title>
<g id="a_node8"><a xlink:title=" ">
<polygon fill="white" stroke="#bfbfbf" points="299,-0.5 299,-19.5 331,-19.5 331,-0.5 299,-0.5"/>
<text text-anchor="middle" x="315" y="-7.5" font-family="Helvetica,sans-Serif" font-size="10.00">set</text>
</a>
</g>
</g>
<!-- Node5&#45;&gt;Node8 -->
<g id="edge7" class="edge">
<title>Node5&#45;&gt;Node8</title>
<path fill="none" stroke="midnightblue" d="M293.29,-56.08C296.85,-48.69 302.02,-37.95 306.42,-28.81"/>
<polygon fill="midnightblue" stroke="midnightblue" points="309.6,-30.28 310.79,-19.75 303.29,-27.24 309.6,-30.28"/>
</g>
<!-- Node9 -->
<g id="node9" class="node">
<title>Node9</title>
<g id="a_node9"><a xlink:title=" ">
<polygon fill="white" stroke="#bfbfbf" points="349.5,-0.5 349.5,-19.5 396.5,-19.5 396.5,-0.5 349.5,-0.5"/>
<text text-anchor="middle" x="373" y="-7.5" font-family="Helvetica,sans-Serif" font-size="10.00">vector</text>
</a>
</g>
</g>
<!-- Node5&#45;&gt;Node9 -->
<g id="edge8" class="edge">
<title>Node5&#45;&gt;Node9</title>
<path fill="none" stroke="midnightblue" d="M302.5,-56.32C315.6,-47.9 335.71,-34.97 351.11,-25.07"/>
<polygon fill="midnightblue" stroke="midnightblue" points="353.02,-28.01 359.54,-19.65 349.23,-22.12 353.02,-28.01"/>
</g>
<!-- Node17&#45;&gt;Node5 -->
<g id="edge26" class="edge">
<title>Node17&#45;&gt;Node5</title>
<path fill="none" stroke="midnightblue" d="M770.74,-179.32C771.58,-163.28 770.78,-129.05 751,-112 720.78,-85.95 460.88,-73.28 344.7,-68.87"/>
<polygon fill="midnightblue" stroke="midnightblue" points="344.71,-65.37 334.59,-68.49 344.45,-72.36 344.71,-65.37"/>
</g>
<!-- Node17&#45;&gt;Node13 -->
<g id="edge27" class="edge">
<title>Node17&#45;&gt;Node13</title>
<path fill="none" stroke="midnightblue" d="M817.87,-188C859.51,-185.57 919.26,-175.93 959,-143 976.53,-128.47 985.36,-103.06 989.56,-85.64"/>
<polygon fill="midnightblue" stroke="midnightblue" points="993.05,-86.06 991.69,-75.55 986.2,-84.61 993.05,-86.06"/>
</g>
<!-- Node17&#45;&gt;Node14 -->
<g id="edge28" class="edge">
<title>Node17&#45;&gt;Node14</title>
<path fill="none" stroke="midnightblue" d="M747.65,-179.48C721.01,-169.31 676.29,-152.26 645.99,-140.7"/>
<polygon fill="midnightblue" stroke="midnightblue" points="646.9,-137.3 636.31,-137.01 644.41,-143.84 646.9,-137.3"/>
</g>
<!-- Node17&#45;&gt;Node15 -->
<g id="edge30" class="edge">
<title>Node17&#45;&gt;Node15</title>
<path fill="none" stroke="midnightblue" d="M762.84,-179.48C755.26,-170.46 743.13,-156.02 733.71,-144.81"/>
<polygon fill="midnightblue" stroke="midnightblue" points="736.26,-142.41 727.15,-137.01 730.9,-146.92 736.26,-142.41"/>
</g>
<!-- Node18 -->
<g id="node18" class="node">
<title>Node18</title>
<g id="a_node18"><a xlink:href="event__handler__base_8hpp.html" target="_top" xlink:title=" ">
<polygon fill="white" stroke="black" points="798,-118 798,-137 934,-137 934,-118 798,-118"/>
<text text-anchor="middle" x="866" y="-125" font-family="Helvetica,sans-Serif" font-size="10.00">event_handler_base.hpp</text>
</a>
</g>
</g>
<!-- Node17&#45;&gt;Node18 -->
<g id="edge22" class="edge">
<title>Node17&#45;&gt;Node18</title>
<path fill="none" stroke="midnightblue" d="M783.75,-179.48C799.37,-169.8 825.06,-153.87 843.58,-142.39"/>
<polygon fill="midnightblue" stroke="midnightblue" points="845.62,-145.25 852.27,-137.01 841.93,-139.3 845.62,-145.25"/>
</g>
<!-- Node19 -->
<g id="node19" class="node">
<title>Node19</title>
<g id="a_node19"><a xlink:title=" ">
<polygon fill="white" stroke="#bfbfbf" points="833.5,-56.5 833.5,-75.5 898.5,-75.5 898.5,-56.5 833.5,-56.5"/>
<text text-anchor="middle" x="866" y="-63.5" font-family="Helvetica,sans-Serif" font-size="10.00">exception</text>
</a>
</g>
</g>
<!-- Node17&#45;&gt;Node19 -->
<g id="edge29" class="edge">
<title>Node17&#45;&gt;Node19</title>
<path fill="none" stroke="midnightblue" d="M817.9,-182.11C863.63,-175.39 927.77,-162.7 943,-143 951.43,-132.1 949.86,-123.95 943,-112 934.38,-96.99 918.61,-86.5 903.57,-79.46"/>
<polygon fill="midnightblue" stroke="midnightblue" points="904.94,-76.24 894.37,-75.51 902.18,-82.67 904.94,-76.24"/>
</g>
<!-- Node18&#45;&gt;Node5 -->
<g id="edge23" class="edge">
<title>Node18&#45;&gt;Node5</title>
<path fill="none" stroke="midnightblue" d="M821.85,-117.99C809.62,-115.82 796.32,-113.65 784,-112 625.26,-90.79 436.51,-76.68 344.7,-70.53"/>
<polygon fill="midnightblue" stroke="midnightblue" points="344.74,-67.02 334.53,-69.85 344.27,-74 344.74,-67.02"/>
</g>
<!-- Node18&#45;&gt;Node13 -->
<g id="edge24" class="edge">
<title>Node18&#45;&gt;Node13</title>
<path fill="none" stroke="midnightblue" d="M884.2,-117.98C905.51,-107.99 941.03,-91.35 965.66,-79.81"/>
<polygon fill="midnightblue" stroke="midnightblue" points="967.27,-82.92 974.84,-75.51 964.3,-76.58 967.27,-82.92"/>
</g>
<!-- Node18&#45;&gt;Node19 -->
<g id="edge25" class="edge">
<title>Node18&#45;&gt;Node19</title>
<path fill="none" stroke="midnightblue" d="M866,-117.98C866,-109.58 866,-96.48 866,-85.66"/>
<polygon fill="midnightblue" stroke="midnightblue" points="869.5,-85.51 866,-75.51 862.5,-85.51 869.5,-85.51"/>
</g>
<!-- Node20&#45;&gt;Node5 -->
<g id="edge32" class="edge">
<title>Node20&#45;&gt;Node5</title>
<path fill="none" stroke="midnightblue" d="M216.18,-117.98C229.81,-108.43 252.13,-92.81 268.47,-81.37"/>
<polygon fill="midnightblue" stroke="midnightblue" points="270.66,-84.11 276.84,-75.51 266.64,-78.38 270.66,-84.11"/>
</g>
<!-- Node20&#45;&gt;Node11 -->
<g id="edge34" class="edge">
<title>Node20&#45;&gt;Node11</title>
<path fill="none" stroke="midnightblue" d="M192.82,-117.98C180.43,-108.52 160.21,-93.1 145.25,-81.69"/>
<polygon fill="midnightblue" stroke="midnightblue" points="147.23,-78.79 137.15,-75.51 142.98,-84.36 147.23,-78.79"/>
</g>
<!-- Node20&#45;&gt;Node19 -->
<g id="edge35" class="edge">
<title>Node20&#45;&gt;Node19</title>
<path fill="none" stroke="midnightblue" d="M260.27,-118.38C276.9,-116.13 295.17,-113.81 312,-112 502.31,-91.51 730.3,-75.76 823.33,-69.7"/>
<polygon fill="midnightblue" stroke="midnightblue" points="823.72,-73.18 833.47,-69.04 823.27,-66.2 823.72,-73.18"/>
</g>
<!-- Node21 -->
<g id="node21" class="node">
<title>Node21</title>
<g id="a_node21"><a xlink:title=" ">
<polygon fill="white" stroke="#bfbfbf" points="178.5,-56.5 178.5,-75.5 225.5,-75.5 225.5,-56.5 178.5,-56.5"/>
<text text-anchor="middle" x="202" y="-63.5" font-family="Helvetica,sans-Serif" font-size="10.00">cerrno</text>
</a>
</g>
</g>
<!-- Node20&#45;&gt;Node21 -->
<g id="edge33" class="edge">
<title>Node20&#45;&gt;Node21</title>
<path fill="none" stroke="midnightblue" d="M203.71,-117.98C203.43,-109.58 202.99,-96.48 202.63,-85.66"/>
<polygon fill="midnightblue" stroke="midnightblue" points="206.12,-85.39 202.29,-75.51 199.12,-85.62 206.12,-85.39"/>
</g>
</g>
</svg>
