<?xml version="1.0" encoding="UTF-8" standalone="no"?>
<!DOCTYPE svg PUBLIC "-//W3C//DTD SVG 1.1//EN"
 "http://www.w3.org/Graphics/SVG/1.1/DTD/svg11.dtd">
<!-- Generated by graphviz version 2.43.0 (0)
 -->
<!-- Title: ft::serv::logger::trace Pages: 1 -->
<!--zoomable 480 -->
<svg id="main" version="1.1" xmlns="http://www.w3.org/2000/svg" xmlns:xlink="http://www.w3.org/1999/xlink" xml:space="preserve" onload="init(evt)">
<style type="text/css"><![CDATA[
.edge:hover path { stroke: red; }
.edge:hover polygon { stroke: red; fill: red; }
]]></style>
<script type="text/javascript"><![CDATA[
var edges = document.getElementsByTagName('g');
if (edges && edges.length) {
  for (var i=0;i<edges.length;i++) {
    if (edges[i].id.substr(0,4)=='edge') {
      edges[i].setAttribute('class','edge');
    }
  }
}
]]></script>
        <defs>
                <circle id="rim" cx="0" cy="0" r="7"/>
                <circle id="rim2" cx="0" cy="0" r="3.5"/>
                <g id="zoomPlus">
                        <use xlink:href="#rim" fill="#404040">
                                <set attributeName="fill" to="#808080" begin="zoomplus.mouseover" end="zoomplus.mouseout"/>
                        </use>
                        <path d="M-4,0h8M0,-4v8" fill="none" stroke="white" stroke-width="1.5" pointer-events="none"/>
                </g>
                <g id="zoomMin">
                        <use xlink:href="#rim" fill="#404040">
                                <set attributeName="fill" to="#808080" begin="zoomminus.mouseover" end="zoomminus.mouseout"/>
                        </use>
                        <path d="M-4,0h8" fill="none" stroke="white" stroke-width="1.5" pointer-events="none"/>
                </g>
                <g id="dirArrow">
                        <path fill="none" stroke="white" stroke-width="1.5" d="M0,-3.0v7 M-2.5,-0.5L0,-3.0L2.5,-0.5"/>
                </g>
               <g id="resetDef">
                       <use xlink:href="#rim2" fill="#404040">
                               <set attributeName="fill" to="#808080" begin="reset.mouseover" end="reset.mouseout"/>
                       </use>
               </g>
        </defs>

<script type="text/javascript">
var viewWidth = 397;
var viewHeight = 480;
var sectionId = 'dynsection-7';
</script>
<script xlink:href="svgpan.js"/>
<svg id="graph" class="graph">
<g id="viewport">
<title>ft::serv::logger::trace</title>
<polygon fill="white" stroke="transparent" points="-4,4 -4,-476 393,-476 393,4 -4,4"/>
<!-- Node1 -->
<g id="node1" class="node">
<title>Node1</title>
<g id="a_node1"><a xlink:title=" ">
<polygon fill="#bfbfbf" stroke="black" points="272,-226 272,-245 389,-245 389,-226 272,-226"/>
<text text-anchor="middle" x="330.5" y="-233" font-family="Helvetica,sans-Serif" font-size="10.00">ft::serv::logger::trace</text>
</a>
</g>
</g>
<!-- Node2 -->
<g id="node2" class="node">
<title>Node2</title>
<g id="a_node2"><a xlink:href="classft_1_1serv_1_1event__worker.html#ae8652d54965b7a2d1fb24e8dacb91aa4" target="_top" xlink:title=" ">
<polygon fill="white" stroke="black" points="95.5,-441.5 95.5,-471.5 217.5,-471.5 217.5,-441.5 95.5,-441.5"/>
<text text-anchor="start" x="103.5" y="-459.5" font-family="Helvetica,sans-Serif" font-size="10.00">ft::serv::event_worker</text>
<text text-anchor="middle" x="156.5" y="-448.5" font-family="Helvetica,sans-Serif" font-size="10.00">::add_channel</text>
</a>
</g>
</g>
<!-- Node1&#45;&gt;Node2 -->
<g id="edge1" class="edge">
<title>Node1&#45;&gt;Node2</title>
<path fill="none" stroke="midnightblue" d="M325.65,-255.39C316.93,-295.03 291.93,-384.21 236,-432.5 230.61,-437.16 224.33,-440.91 217.71,-443.93"/>
<polygon fill="midnightblue" stroke="midnightblue" points="329.12,-255.9 327.73,-245.39 322.26,-254.47 329.12,-255.9"/>
</g>
<!-- Node3 -->
<g id="node3" class="node">
<title>Node3</title>
<g id="a_node3"><a xlink:href="classft_1_1serv_1_1event__channel__base.html#a9589a9878558c0ca96afc4fdde596299" target="_top" xlink:title=" ">
<polygon fill="white" stroke="black" points="81,-392.5 81,-422.5 232,-422.5 232,-392.5 81,-392.5"/>
<text text-anchor="start" x="89" y="-410.5" font-family="Helvetica,sans-Serif" font-size="10.00">ft::serv::event_channel</text>
<text text-anchor="middle" x="156.5" y="-399.5" font-family="Helvetica,sans-Serif" font-size="10.00">_base::event_channel_base</text>
</a>
</g>
</g>
<!-- Node1&#45;&gt;Node3 -->
<g id="edge2" class="edge">
<title>Node1&#45;&gt;Node3</title>
<path fill="none" stroke="midnightblue" d="M322.6,-254.51C310.2,-286.02 281.14,-349.04 236,-383.5 231.47,-386.96 226.44,-389.92 221.17,-392.46"/>
<polygon fill="midnightblue" stroke="midnightblue" points="325.89,-255.7 326.17,-245.11 319.35,-253.22 325.89,-255.7"/>
</g>
<!-- Node4 -->
<g id="node4" class="node">
<title>Node4</title>
<g id="a_node4"><a xlink:href="classft_1_1serv_1_1event__worker.html#a0f1852580e219d4f0703969f0a7d117e" target="_top" xlink:title=" ">
<polygon fill="white" stroke="black" points="95.5,-343.5 95.5,-373.5 217.5,-373.5 217.5,-343.5 95.5,-343.5"/>
<text text-anchor="start" x="103.5" y="-361.5" font-family="Helvetica,sans-Serif" font-size="10.00">ft::serv::event_worker</text>
<text text-anchor="middle" x="156.5" y="-350.5" font-family="Helvetica,sans-Serif" font-size="10.00">::event_worker</text>
</a>
</g>
</g>
<!-- Node1&#45;&gt;Node4 -->
<g id="edge3" class="edge">
<title>Node1&#45;&gt;Node4</title>
<path fill="none" stroke="midnightblue" d="M317.14,-253.45C300.98,-275.63 270.61,-313.03 236,-334.5 230.31,-338.03 224.06,-341.08 217.65,-343.69"/>
<polygon fill="midnightblue" stroke="midnightblue" points="320.04,-255.42 322.99,-245.24 314.34,-251.36 320.04,-255.42"/>
</g>
<!-- Node5 -->
<g id="node5" class="node">
<title>Node5</title>
<g id="a_node5"><a xlink:href="classft_1_1serv_1_1event__worker.html#ad207c630e203c7737687a31ea0230f8c" target="_top" xlink:title=" ">
<polygon fill="white" stroke="black" points="95.5,-294.5 95.5,-324.5 217.5,-324.5 217.5,-294.5 95.5,-294.5"/>
<text text-anchor="start" x="103.5" y="-312.5" font-family="Helvetica,sans-Serif" font-size="10.00">ft::serv::event_worker</text>
<text text-anchor="middle" x="156.5" y="-301.5" font-family="Helvetica,sans-Serif" font-size="10.00">::process_events</text>
</a>
</g>
</g>
<!-- Node1&#45;&gt;Node5 -->
<g id="edge4" class="edge">
<title>Node1&#45;&gt;Node5</title>
<path fill="none" stroke="midnightblue" d="M305.09,-250.25C286.58,-261.01 260.28,-275.41 236,-285.5 228.24,-288.73 219.88,-291.74 211.62,-294.47"/>
<polygon fill="midnightblue" stroke="midnightblue" points="306.91,-253.24 313.75,-245.15 303.36,-247.21 306.91,-253.24"/>
</g>
<!-- Node6 -->
<g id="node6" class="node">
<title>Node6</title>
<g id="a_node6"><a xlink:href="classft_1_1serv_1_1event__worker.html#a7268987f90a6ac08d16c867cb5f4eb50" target="_top" xlink:title=" ">
<polygon fill="white" stroke="black" points="95.5,-245.5 95.5,-275.5 217.5,-275.5 217.5,-245.5 95.5,-245.5"/>
<text text-anchor="start" x="103.5" y="-263.5" font-family="Helvetica,sans-Serif" font-size="10.00">ft::serv::event_worker</text>
<text text-anchor="middle" x="156.5" y="-252.5" font-family="Helvetica,sans-Serif" font-size="10.00">::remove_channel</text>
</a>
</g>
</g>
<!-- Node1&#45;&gt;Node6 -->
<g id="edge5" class="edge">
<title>Node1&#45;&gt;Node6</title>
<path fill="none" stroke="midnightblue" d="M261.82,-245.34C247.27,-247.45 231.99,-249.67 217.75,-251.74"/>
<polygon fill="midnightblue" stroke="midnightblue" points="262.36,-248.8 271.75,-243.89 261.35,-241.87 262.36,-248.8"/>
</g>
<!-- Node7 -->
<g id="node7" class="node">
<title>Node7</title>
<g id="a_node7"><a xlink:href="classft_1_1serv_1_1bootstrap.html#acd923d6b838022038f437dad3e58abf0" target="_top" xlink:title=" ">
<polygon fill="white" stroke="black" points="105.5,-196.5 105.5,-226.5 207.5,-226.5 207.5,-196.5 105.5,-196.5"/>
<text text-anchor="start" x="113.5" y="-214.5" font-family="Helvetica,sans-Serif" font-size="10.00">ft::serv::bootstrap</text>
<text text-anchor="middle" x="156.5" y="-203.5" font-family="Helvetica,sans-Serif" font-size="10.00">::start_client</text>
</a>
</g>
</g>
<!-- Node1&#45;&gt;Node7 -->
<g id="edge6" class="edge">
<title>Node1&#45;&gt;Node7</title>
<path fill="none" stroke="midnightblue" d="M261.59,-226.02C243.59,-223.51 224.48,-220.85 207.61,-218.49"/>
<polygon fill="midnightblue" stroke="midnightblue" points="261.36,-229.53 271.75,-227.44 262.33,-222.59 261.36,-229.53"/>
</g>
<!-- Node9 -->
<g id="node9" class="node">
<title>Node9</title>
<g id="a_node9"><a xlink:href="classft_1_1serv_1_1bootstrap.html#a61642849334859472e690b615dc6fdeb" target="_top" xlink:title=" ">
<polygon fill="white" stroke="black" points="105.5,-147.5 105.5,-177.5 207.5,-177.5 207.5,-147.5 105.5,-147.5"/>
<text text-anchor="start" x="113.5" y="-165.5" font-family="Helvetica,sans-Serif" font-size="10.00">ft::serv::bootstrap</text>
<text text-anchor="middle" x="156.5" y="-154.5" font-family="Helvetica,sans-Serif" font-size="10.00">::start_server</text>
</a>
</g>
</g>
<!-- Node1&#45;&gt;Node9 -->
<g id="edge8" class="edge">
<title>Node1&#45;&gt;Node9</title>
<path fill="none" stroke="midnightblue" d="M304.05,-220.98C285.55,-210.78 259.7,-197.28 236,-187.5 227.01,-183.79 217.26,-180.29 207.78,-177.14"/>
<polygon fill="midnightblue" stroke="midnightblue" points="302.57,-224.16 313.01,-225.97 305.98,-218.04 302.57,-224.16"/>
</g>
<!-- Node11 -->
<g id="node11" class="node">
<title>Node11</title>
<g id="a_node11"><a xlink:href="classft_1_1serv_1_1event__worker.html#af201dee7d75d0d570759255454b16d36" target="_top" xlink:title=" ">
<polygon fill="white" stroke="black" points="95.5,-98.5 95.5,-128.5 217.5,-128.5 217.5,-98.5 95.5,-98.5"/>
<text text-anchor="start" x="103.5" y="-116.5" font-family="Helvetica,sans-Serif" font-size="10.00">ft::serv::event_worker</text>
<text text-anchor="middle" x="156.5" y="-105.5" font-family="Helvetica,sans-Serif" font-size="10.00">::watch_ability</text>
</a>
</g>
</g>
<!-- Node1&#45;&gt;Node11 -->
<g id="edge10" class="edge">
<title>Node1&#45;&gt;Node11</title>
<path fill="none" stroke="midnightblue" d="M316.77,-217.65C300.41,-195.96 270.05,-159.66 236,-138.5 229.8,-134.65 222.96,-131.34 215.98,-128.51"/>
<polygon fill="midnightblue" stroke="midnightblue" points="313.95,-219.73 322.7,-225.7 319.59,-215.58 313.95,-219.73"/>
</g>
<!-- Node12 -->
<g id="node12" class="node">
<title>Node12</title>
<g id="a_node12"><a xlink:href="classft_1_1serv_1_1event__channel__base.html#a2e000442bfc11477841b18812af8f9cf" target="_top" xlink:title=" ">
<polygon fill="white" stroke="black" points="77,-49.5 77,-79.5 236,-79.5 236,-49.5 77,-49.5"/>
<text text-anchor="start" x="85" y="-67.5" font-family="Helvetica,sans-Serif" font-size="10.00">ft::serv::event_channel</text>
<text text-anchor="middle" x="156.5" y="-56.5" font-family="Helvetica,sans-Serif" font-size="10.00">_base::~event_channel_base</text>
</a>
</g>
</g>
<!-- Node1&#45;&gt;Node12 -->
<g id="edge11" class="edge">
<title>Node1&#45;&gt;Node12</title>
<path fill="none" stroke="midnightblue" d="M322.31,-216.36C309.64,-185.2 280.4,-123.59 236,-89.5 231.01,-85.67 225.41,-82.41 219.57,-79.65"/>
<polygon fill="midnightblue" stroke="midnightblue" points="319.05,-217.64 325.97,-225.67 325.57,-215.08 319.05,-217.64"/>
</g>
<!-- Node13 -->
<g id="node13" class="node">
<title>Node13</title>
<g id="a_node13"><a xlink:href="classft_1_1serv_1_1event__worker.html#ae01991e7942bc0607e9aad83de156833" target="_top" xlink:title=" ">
<polygon fill="white" stroke="black" points="95.5,-0.5 95.5,-30.5 217.5,-30.5 217.5,-0.5 95.5,-0.5"/>
<text text-anchor="start" x="103.5" y="-18.5" font-family="Helvetica,sans-Serif" font-size="10.00">ft::serv::event_worker</text>
<text text-anchor="middle" x="156.5" y="-7.5" font-family="Helvetica,sans-Serif" font-size="10.00">::~event_worker</text>
</a>
</g>
</g>
<!-- Node1&#45;&gt;Node13 -->
<g id="edge12" class="edge">
<title>Node1&#45;&gt;Node13</title>
<path fill="none" stroke="midnightblue" d="M325.54,-215.86C316.62,-176.72 291.29,-88.6 236,-40.5 230.6,-35.81 224.32,-31.99 217.71,-28.89"/>
<polygon fill="midnightblue" stroke="midnightblue" points="322.14,-216.7 327.67,-225.73 328.98,-215.22 322.14,-216.7"/>
</g>
<!-- Node8 -->
<g id="node8" class="node">
<title>Node8</title>
<g id="a_node8"><a xlink:href="bot_8cpp.html#a0ddf1224851353fc92bfbff6f499fa97" target="_top" xlink:title=" ">
<polygon fill="white" stroke="black" points="0,-202 0,-221 41,-221 41,-202 0,-202"/>
<text text-anchor="middle" x="20.5" y="-209" font-family="Helvetica,sans-Serif" font-size="10.00">main</text>
</a>
</g>
</g>
<!-- Node7&#45;&gt;Node8 -->
<g id="edge7" class="edge">
<title>Node7&#45;&gt;Node8</title>
<path fill="none" stroke="midnightblue" d="M95.16,-211.5C75.73,-211.5 55.53,-211.5 41.22,-211.5"/>
<polygon fill="midnightblue" stroke="midnightblue" points="95.22,-215 105.22,-211.5 95.22,-208 95.22,-215"/>
</g>
<!-- Node10 -->
<g id="node10" class="node">
<title>Node10</title>
<g id="a_node10"><a xlink:href="main_8cpp.html#a0ddf1224851353fc92bfbff6f499fa97" target="_top" xlink:title=" ">
<polygon fill="white" stroke="black" points="0,-153 0,-172 41,-172 41,-153 0,-153"/>
<text text-anchor="middle" x="20.5" y="-160" font-family="Helvetica,sans-Serif" font-size="10.00">main</text>
</a>
</g>
</g>
<!-- Node9&#45;&gt;Node10 -->
<g id="edge9" class="edge">
<title>Node9&#45;&gt;Node10</title>
<path fill="none" stroke="midnightblue" d="M95.16,-162.5C75.73,-162.5 55.53,-162.5 41.22,-162.5"/>
<polygon fill="midnightblue" stroke="midnightblue" points="95.22,-166 105.22,-162.5 95.22,-159 95.22,-166"/>
</g>
</g>
</svg>
        <g id="navigator" transform="translate(0 0)" fill="#404254">
                <rect fill="#f2f5e9" fill-opacity="0.5" stroke="#606060" stroke-width=".5" x="0" y="0" width="60" height="60"/>
                <use id="zoomplus" xlink:href="#zoomPlus" x="17" y="9" onmousedown="handleZoom(evt,'in')"/>
                <use id="zoomminus" xlink:href="#zoomMin" x="42" y="9" onmousedown="handleZoom(evt,'out')"/>
                <use id="reset" xlink:href="#resetDef" x="30" y="36" onmousedown="handleReset()"/>
                <g id="arrowUp" xlink:href="#dirArrow" transform="translate(30 24)" onmousedown="handlePan(0,-1)">
                  <use xlink:href="#rim" fill="#404040">
                        <set attributeName="fill" to="#808080" begin="arrowUp.mouseover" end="arrowUp.mouseout"/>
                  </use>
                  <path fill="none" stroke="white" stroke-width="1.5" d="M0,-3.0v7 M-2.5,-0.5L0,-3.0L2.5,-0.5"/>
                </g>
                <g id="arrowRight" xlink:href="#dirArrow" transform="rotate(90) translate(36 -43)" onmousedown="handlePan(1,0)">
                  <use xlink:href="#rim" fill="#404040">
                        <set attributeName="fill" to="#808080" begin="arrowRight.mouseover" end="arrowRight.mouseout"/>
                  </use>
                  <path fill="none" stroke="white" stroke-width="1.5" d="M0,-3.0v7 M-2.5,-0.5L0,-3.0L2.5,-0.5"/>
                </g>
                <g id="arrowDown" xlink:href="#dirArrow" transform="rotate(180) translate(-30 -48)" onmousedown="handlePan(0,1)">
                  <use xlink:href="#rim" fill="#404040">
                        <set attributeName="fill" to="#808080" begin="arrowDown.mouseover" end="arrowDown.mouseout"/>
                  </use>
                  <path fill="none" stroke="white" stroke-width="1.5" d="M0,-3.0v7 M-2.5,-0.5L0,-3.0L2.5,-0.5"/>
                </g>
                <g id="arrowLeft" xlink:href="#dirArrow" transform="rotate(270) translate(-36 17)" onmousedown="handlePan(-1,0)">
                  <use xlink:href="#rim" fill="#404040">
                        <set attributeName="fill" to="#808080" begin="arrowLeft.mouseover" end="arrowLeft.mouseout"/>
                  </use>
                  <path fill="none" stroke="white" stroke-width="1.5" d="M0,-3.0v7 M-2.5,-0.5L0,-3.0L2.5,-0.5"/>
                </g>
        </g>
        <svg viewBox="0 0 15 15" width="100%" height="30px" preserveAspectRatio="xMaxYMin meet">
         <g id="arrow_out" transform="scale(0.3 0.3)">
          <a xlink:href="structft_1_1serv_1_1logger_af77e51bd1d1172d9ebff34eb9fe1db6a_icgraph_org.svg" target="_base">
           <rect id="button" ry="5" rx="5" y="6" x="6" height="38" width="38"
                fill="#f2f5e9" fill-opacity="0.5" stroke="#606060" stroke-width="1.0"/>
           <path id="arrow"
             d="M 11.500037,31.436501 C 11.940474,20.09759 22.043105,11.32322 32.158766,21.979434 L 37.068811,17.246167 C 37.068811,17.246167 37.088388,32 37.088388,32 L 22.160133,31.978069 C 22.160133,31.978069 26.997745,27.140456 26.997745,27.140456 C 18.528582,18.264221 13.291696,25.230495 11.500037,31.436501 z"
             style="fill:#404040;"/>
          </a>
         </g>
        </svg>
</svg>
