<?xml version="1.0" encoding="UTF-8" standalone="no"?>
<!DOCTYPE svg PUBLIC "-//W3C//DTD SVG 1.1//EN"
 "http://www.w3.org/Graphics/SVG/1.1/DTD/svg11.dtd">
<!-- Generated by graphviz version 2.43.0 (0)
 -->
<!-- Title: ft::irc::channel::ban_info Pages: 1 -->
<svg width="142pt" height="117pt"
 viewBox="0.00 0.00 142.00 117.00" xmlns="http://www.w3.org/2000/svg" xmlns:xlink="http://www.w3.org/1999/xlink">
<g id="graph0" class="graph" transform="scale(1 1) rotate(0) translate(4 113)">
<title>ft::irc::channel::ban_info</title>
<polygon fill="white" stroke="transparent" points="-4,4 -4,-113 138,-113 138,4 -4,4"/>
<!-- Node1 -->
<g id="node1" class="node">
<title>Node1</title>
<g id="a_node1"><a xlink:title=" ">
<polygon fill="#bfbfbf" stroke="black" points="0,-0.5 0,-19.5 134,-19.5 134,-0.5 0,-0.5"/>
<text text-anchor="middle" x="67" y="-7.5" font-family="Helvetica,sans-Serif" font-size="10.00">ft::irc::channel::ban_info</text>
</a>
</g>
</g>
<!-- Node2 -->
<g id="node2" class="node">
<title>Node2</title>
<g id="a_node2"><a xlink:title=" ">
<polygon fill="white" stroke="#bfbfbf" points="45,-89.5 45,-108.5 89,-108.5 89,-89.5 45,-89.5"/>
<text text-anchor="middle" x="67" y="-96.5" font-family="Helvetica,sans-Serif" font-size="10.00">string</text>
</a>
</g>
</g>
<!-- Node2&#45;&gt;Node1 -->
<g id="edge1" class="edge">
<title>Node2&#45;&gt;Node1</title>
<path fill="none" stroke="#9a32cd" stroke-dasharray="5,2" d="M67,-79.19C67,-60.74 67,-33.41 67,-19.62"/>
<polygon fill="#9a32cd" stroke="#9a32cd" points="63.5,-79.34 67,-89.34 70.5,-79.34 63.5,-79.34"/>
<text text-anchor="middle" x="91.5" y="-63" font-family="Helvetica,sans-Serif" font-size="10.00"> host</text>
<text text-anchor="middle" x="91.5" y="-52" font-family="Helvetica,sans-Serif" font-size="10.00">name</text>
<text text-anchor="middle" x="91.5" y="-41" font-family="Helvetica,sans-Serif" font-size="10.00">username</text>
</g>
</g>
</svg>
