<?xml version="1.0" encoding="UTF-8" standalone="no"?>
<!DOCTYPE svg PUBLIC "-//W3C//DTD SVG 1.1//EN"
 "http://www.w3.org/Graphics/SVG/1.1/DTD/svg11.dtd">
<!-- Generated by graphviz version 2.43.0 (0)
 -->
<!-- Title: ft::irc::make_reply::replicate Pages: 1 -->
<svg width="287pt" height="382pt"
 viewBox="0.00 0.00 287.00 382.00" xmlns="http://www.w3.org/2000/svg" xmlns:xlink="http://www.w3.org/1999/xlink">
<g id="graph0" class="graph" transform="scale(1 1) rotate(0) translate(4 378)">
<title>ft::irc::make_reply::replicate</title>
<polygon fill="white" stroke="transparent" points="-4,4 -4,-378 283,-378 283,4 -4,4"/>
<!-- Node1 -->
<g id="node1" class="node">
<title>Node1</title>
<g id="a_node1"><a xlink:title=" ">
<polygon fill="#bfbfbf" stroke="black" points="175,-171.5 175,-201.5 279,-201.5 279,-171.5 175,-171.5"/>
<text text-anchor="start" x="183" y="-189.5" font-family="Helvetica,sans-Serif" font-size="10.00">ft::irc::make_reply</text>
<text text-anchor="middle" x="227" y="-178.5" font-family="Helvetica,sans-Serif" font-size="10.00">::replicate</text>
</a>
</g>
</g>
<!-- Node2 -->
<g id="node2" class="node">
<title>Node2</title>
<g id="a_node2"><a xlink:href="classft_1_1irc_1_1processor__join.html#a7005b0403c1e6e10aa6f6f05339df357" target="_top" xlink:title=" ">
<polygon fill="white" stroke="black" points="22,-343.5 22,-373.5 117,-373.5 117,-343.5 22,-343.5"/>
<text text-anchor="start" x="30" y="-361.5" font-family="Helvetica,sans-Serif" font-size="10.00">ft::irc::processor</text>
<text text-anchor="middle" x="69.5" y="-350.5" font-family="Helvetica,sans-Serif" font-size="10.00">_join::execute</text>
</a>
</g>
</g>
<!-- Node1&#45;&gt;Node2 -->
<g id="edge1" class="edge">
<title>Node1&#45;&gt;Node2</title>
<path fill="none" stroke="midnightblue" d="M217.49,-211.59C205.17,-244.34 179.3,-301.36 139,-334.5 132.58,-339.78 124.91,-343.94 117.07,-347.19"/>
<polygon fill="midnightblue" stroke="midnightblue" points="220.9,-212.47 221.02,-201.88 214.32,-210.08 220.9,-212.47"/>
</g>
<!-- Node3 -->
<g id="node3" class="node">
<title>Node3</title>
<g id="a_node3"><a xlink:href="classft_1_1irc_1_1processor__part.html#a4075107cb360cd04c0a11a9904104ad0" target="_top" xlink:title=" ">
<polygon fill="white" stroke="black" points="22,-294.5 22,-324.5 117,-324.5 117,-294.5 22,-294.5"/>
<text text-anchor="start" x="30" y="-312.5" font-family="Helvetica,sans-Serif" font-size="10.00">ft::irc::processor</text>
<text text-anchor="middle" x="69.5" y="-301.5" font-family="Helvetica,sans-Serif" font-size="10.00">_part::execute</text>
</a>
</g>
</g>
<!-- Node1&#45;&gt;Node3 -->
<g id="edge2" class="edge">
<title>Node1&#45;&gt;Node3</title>
<path fill="none" stroke="midnightblue" d="M210.49,-210.32C194.86,-232.59 168.84,-265.37 139,-285.5 132.31,-290.01 124.69,-293.76 117.01,-296.86"/>
<polygon fill="midnightblue" stroke="midnightblue" points="213.58,-212 216.34,-201.77 207.8,-208.04 213.58,-212"/>
</g>
<!-- Node4 -->
<g id="node4" class="node">
<title>Node4</title>
<g id="a_node4"><a xlink:href="classft_1_1irc_1_1processor__topic.html#ae4eec2a7267b66791a72bbab1d4842c0" target="_top" xlink:title=" ">
<polygon fill="white" stroke="black" points="22,-245.5 22,-275.5 117,-275.5 117,-245.5 22,-245.5"/>
<text text-anchor="start" x="30" y="-263.5" font-family="Helvetica,sans-Serif" font-size="10.00">ft::irc::processor</text>
<text text-anchor="middle" x="69.5" y="-252.5" font-family="Helvetica,sans-Serif" font-size="10.00">_topic::execute</text>
</a>
</g>
</g>
<!-- Node1&#45;&gt;Node4 -->
<g id="edge3" class="edge">
<title>Node1&#45;&gt;Node4</title>
<path fill="none" stroke="midnightblue" d="M193.65,-207C177.59,-216.68 157.67,-227.95 139,-236.5 132.01,-239.7 124.46,-242.74 117.02,-245.51"/>
<polygon fill="midnightblue" stroke="midnightblue" points="195.92,-209.72 202.63,-201.51 192.27,-203.74 195.92,-209.72"/>
</g>
<!-- Node5 -->
<g id="node5" class="node">
<title>Node5</title>
<g id="a_node5"><a xlink:href="classft_1_1irc_1_1processor__invite.html#a558fbe35293f4a0783af9a50f7146eeb" target="_top" xlink:title=" ">
<polygon fill="white" stroke="black" points="22,-196.5 22,-226.5 117,-226.5 117,-196.5 22,-196.5"/>
<text text-anchor="start" x="30" y="-214.5" font-family="Helvetica,sans-Serif" font-size="10.00">ft::irc::processor</text>
<text text-anchor="middle" x="69.5" y="-203.5" font-family="Helvetica,sans-Serif" font-size="10.00">_invite::execute</text>
</a>
</g>
</g>
<!-- Node1&#45;&gt;Node5 -->
<g id="edge4" class="edge">
<title>Node1&#45;&gt;Node5</title>
<path fill="none" stroke="midnightblue" d="M164.45,-196.4C148.67,-198.93 131.96,-201.62 117.07,-204.01"/>
<polygon fill="midnightblue" stroke="midnightblue" points="165.33,-199.8 174.65,-194.76 164.22,-192.89 165.33,-199.8"/>
</g>
<!-- Node6 -->
<g id="node6" class="node">
<title>Node6</title>
<g id="a_node6"><a xlink:href="classft_1_1irc_1_1processor__kick.html#ac453ac8376e577bb0a2b4f074fe9be1b" target="_top" xlink:title=" ">
<polygon fill="white" stroke="black" points="22,-147.5 22,-177.5 117,-177.5 117,-147.5 22,-147.5"/>
<text text-anchor="start" x="30" y="-165.5" font-family="Helvetica,sans-Serif" font-size="10.00">ft::irc::processor</text>
<text text-anchor="middle" x="69.5" y="-154.5" font-family="Helvetica,sans-Serif" font-size="10.00">_kick::execute</text>
</a>
</g>
</g>
<!-- Node1&#45;&gt;Node6 -->
<g id="edge5" class="edge">
<title>Node1&#45;&gt;Node6</title>
<path fill="none" stroke="midnightblue" d="M164.45,-177C148.67,-174.56 131.96,-171.99 117.07,-169.69"/>
<polygon fill="midnightblue" stroke="midnightblue" points="164.24,-180.51 174.65,-178.57 165.3,-173.59 164.24,-180.51"/>
</g>
<!-- Node7 -->
<g id="node7" class="node">
<title>Node7</title>
<g id="a_node7"><a xlink:href="classft_1_1irc_1_1processor__kill.html#a3f41c93c4c3a85ccb4b034c5a185208a" target="_top" xlink:title=" ">
<polygon fill="white" stroke="black" points="22,-98.5 22,-128.5 117,-128.5 117,-98.5 22,-98.5"/>
<text text-anchor="start" x="30" y="-116.5" font-family="Helvetica,sans-Serif" font-size="10.00">ft::irc::processor</text>
<text text-anchor="middle" x="69.5" y="-105.5" font-family="Helvetica,sans-Serif" font-size="10.00">_kill::execute</text>
</a>
</g>
</g>
<!-- Node1&#45;&gt;Node7 -->
<g id="edge6" class="edge">
<title>Node1&#45;&gt;Node7</title>
<path fill="none" stroke="midnightblue" d="M192.13,-166.22C176.29,-157.15 156.98,-146.68 139,-138.5 131.28,-134.99 122.91,-131.6 114.76,-128.51"/>
<polygon fill="midnightblue" stroke="midnightblue" points="190.62,-169.39 201.02,-171.37 194.13,-163.33 190.62,-169.39"/>
</g>
<!-- Node8 -->
<g id="node8" class="node">
<title>Node8</title>
<g id="a_node8"><a xlink:href="classft_1_1irc_1_1processor__nick.html#a7a2f0f709488328c04b6ccf0c41ce78e" target="_top" xlink:title=" ">
<polygon fill="white" stroke="black" points="22,-49.5 22,-79.5 117,-79.5 117,-49.5 22,-49.5"/>
<text text-anchor="start" x="30" y="-67.5" font-family="Helvetica,sans-Serif" font-size="10.00">ft::irc::processor</text>
<text text-anchor="middle" x="69.5" y="-56.5" font-family="Helvetica,sans-Serif" font-size="10.00">_nick::execute</text>
</a>
</g>
</g>
<!-- Node1&#45;&gt;Node8 -->
<g id="edge7" class="edge">
<title>Node1&#45;&gt;Node8</title>
<path fill="none" stroke="midnightblue" d="M210.06,-162.9C194.29,-141.15 168.31,-109.33 139,-89.5 132.39,-85.03 124.89,-81.25 117.33,-78.08"/>
<polygon fill="midnightblue" stroke="midnightblue" points="207.34,-165.12 215.98,-171.26 213.06,-161.07 207.34,-165.12"/>
</g>
<!-- Node9 -->
<g id="node9" class="node">
<title>Node9</title>
<g id="a_node9"><a xlink:href="classft_1_1irc_1_1processor__message__base.html#ab3fba6f27483543b9c7a559fd2e1402b" target="_top" xlink:title=" ">
<polygon fill="white" stroke="black" points="0,-0.5 0,-30.5 139,-30.5 139,-0.5 0,-0.5"/>
<text text-anchor="start" x="8" y="-18.5" font-family="Helvetica,sans-Serif" font-size="10.00">ft::irc::processor</text>
<text text-anchor="middle" x="69.5" y="-7.5" font-family="Helvetica,sans-Serif" font-size="10.00">_message_base::execute</text>
</a>
</g>
</g>
<!-- Node1&#45;&gt;Node9 -->
<g id="edge8" class="edge">
<title>Node1&#45;&gt;Node9</title>
<path fill="none" stroke="midnightblue" d="M217.34,-161.82C204.84,-129.6 178.78,-73.45 139,-40.5 134.32,-36.62 128.99,-33.32 123.41,-30.52"/>
<polygon fill="midnightblue" stroke="midnightblue" points="214.13,-163.25 220.92,-171.38 220.69,-160.79 214.13,-163.25"/>
</g>
</g>
</svg>
