<?xml version="1.0" encoding="UTF-8" standalone="no"?>
<!DOCTYPE svg PUBLIC "-//W3C//DTD SVG 1.1//EN"
 "http://www.w3.org/Graphics/SVG/1.1/DTD/svg11.dtd">
<!-- Generated by graphviz version 2.43.0 (0)
 -->
<!-- Title: ft::irc::string_utils::is_same Pages: 1 -->
<svg width="622pt" height="276pt"
 viewBox="0.00 0.00 622.00 275.67" xmlns="http://www.w3.org/2000/svg" xmlns:xlink="http://www.w3.org/1999/xlink">
<g id="graph0" class="graph" transform="scale(1 1) rotate(0) translate(4 271.67)">
<title>ft::irc::string_utils::is_same</title>
<polygon fill="white" stroke="transparent" points="-4,4 -4,-271.67 618,-271.67 618,4 -4,4"/>
<!-- Node1 -->
<g id="node1" class="node">
<title>Node1</title>
<g id="a_node1"><a xlink:title=" ">
<polygon fill="#bfbfbf" stroke="black" points="513,-137 513,-167 614,-167 614,-137 513,-137"/>
<text text-anchor="start" x="521" y="-155" font-family="Helvetica,sans-Serif" font-size="10.00">ft::irc::string_utils</text>
<text text-anchor="middle" x="563.5" y="-144" font-family="Helvetica,sans-Serif" font-size="10.00">::is_same</text>
</a>
</g>
</g>
<!-- Node2 -->
<g id="node2" class="node">
<title>Node2</title>
<g id="a_node2"><a xlink:href="classft_1_1irc_1_1bot.html#aef50e26ad9e418841745fec737a929e1" target="_top" xlink:title=" ">
<polygon fill="white" stroke="black" points="366.5,-137 366.5,-167 453.5,-167 453.5,-137 366.5,-137"/>
<text text-anchor="start" x="374.5" y="-155" font-family="Helvetica,sans-Serif" font-size="10.00">ft::irc::bot::find</text>
<text text-anchor="middle" x="410" y="-144" font-family="Helvetica,sans-Serif" font-size="10.00">_channels</text>
</a>
</g>
</g>
<!-- Node1&#45;&gt;Node2 -->
<g id="edge1" class="edge">
<title>Node1&#45;&gt;Node2</title>
<path fill="none" stroke="midnightblue" d="M502.82,-152C486.37,-152 468.87,-152 453.6,-152"/>
<polygon fill="midnightblue" stroke="midnightblue" points="502.89,-155.5 512.89,-152 502.89,-148.5 502.89,-155.5"/>
</g>
<!-- Node3 -->
<g id="node3" class="node">
<title>Node3</title>
<g id="a_node3"><a xlink:href="classft_1_1irc_1_1bot.html#a0b595213781ed0e5aaf1d48fdb602d98" target="_top" xlink:title=" ">
<polygon fill="white" stroke="black" points="164.5,-205.5 164.5,-224.5 283.5,-224.5 283.5,-205.5 164.5,-205.5"/>
<text text-anchor="middle" x="224" y="-212.5" font-family="Helvetica,sans-Serif" font-size="10.00">ft::irc::bot::on_packet</text>
</a>
</g>
</g>
<!-- Node1&#45;&gt;Node3 -->
<g id="edge9" class="edge">
<title>Node1&#45;&gt;Node3</title>
<path fill="none" stroke="midnightblue" d="M550.15,-176.32C536.17,-200.86 510.86,-237.3 477,-253 396.12,-290.5 286.44,-245.43 243.4,-224.53"/>
<polygon fill="midnightblue" stroke="midnightblue" points="553.38,-177.71 555.12,-167.25 547.24,-174.35 553.38,-177.71"/>
</g>
<!-- Node5 -->
<g id="node5" class="node">
<title>Node5</title>
<g id="a_node5"><a xlink:href="classft_1_1irc_1_1bot.html#a8cdd94dface1cee6c920a6fba82c1624" target="_top" xlink:title=" ">
<polygon fill="white" stroke="black" points="353,-224.5 353,-243.5 467,-243.5 467,-224.5 353,-224.5"/>
<text text-anchor="middle" x="410" y="-231.5" font-family="Helvetica,sans-Serif" font-size="10.00">ft::irc::bot::is_inviter</text>
</a>
</g>
</g>
<!-- Node1&#45;&gt;Node5 -->
<g id="edge4" class="edge">
<title>Node1&#45;&gt;Node5</title>
<path fill="none" stroke="midnightblue" d="M537.74,-173.94C521.45,-187.41 499.11,-204.11 477,-215 469.41,-218.74 460.95,-221.87 452.69,-224.43"/>
<polygon fill="midnightblue" stroke="midnightblue" points="540.3,-176.37 545.68,-167.24 535.78,-171.02 540.3,-176.37"/>
</g>
<!-- Node6 -->
<g id="node6" class="node">
<title>Node6</title>
<g id="a_node6"><a xlink:href="classft_1_1irc_1_1channel.html#ad30281781ad94941df6db1284869a73b" target="_top" xlink:title=" ">
<polygon fill="white" stroke="black" points="347.5,-39 347.5,-69 472.5,-69 472.5,-39 347.5,-39"/>
<text text-anchor="start" x="355.5" y="-57" font-family="Helvetica,sans-Serif" font-size="10.00">ft::irc::channel::modify</text>
<text text-anchor="middle" x="410" y="-46" font-family="Helvetica,sans-Serif" font-size="10.00">_member_mode</text>
</a>
</g>
</g>
<!-- Node1&#45;&gt;Node6 -->
<g id="edge6" class="edge">
<title>Node1&#45;&gt;Node6</title>
<path fill="none" stroke="midnightblue" d="M540.56,-129.51C524.19,-113.72 500.67,-93.01 477,-79 470.78,-75.32 463.92,-72.01 457.05,-69.09"/>
<polygon fill="midnightblue" stroke="midnightblue" points="538.4,-132.29 547.98,-136.81 543.31,-127.3 538.4,-132.29"/>
</g>
<!-- Node9 -->
<g id="node9" class="node">
<title>Node9</title>
<g id="a_node9"><a xlink:href="structft_1_1irc_1_1user_1_1pred__equals__nick.html#aa4bfdd8756482385798ed7fd8197f1e1" target="_top" xlink:title=" ">
<polygon fill="white" stroke="black" points="343,-88 343,-118 477,-118 477,-88 343,-88"/>
<text text-anchor="start" x="351" y="-106" font-family="Helvetica,sans-Serif" font-size="10.00">ft::irc::user::pred</text>
<text text-anchor="middle" x="410" y="-95" font-family="Helvetica,sans-Serif" font-size="10.00">_equals_nick::operator()</text>
</a>
</g>
</g>
<!-- Node1&#45;&gt;Node9 -->
<g id="edge10" class="edge">
<title>Node1&#45;&gt;Node9</title>
<path fill="none" stroke="midnightblue" d="M506.05,-133.74C490.07,-128.57 472.86,-123.01 457.54,-118.05"/>
<polygon fill="midnightblue" stroke="midnightblue" points="505.22,-137.15 515.81,-136.9 507.37,-130.49 505.22,-137.15"/>
</g>
<!-- Node10 -->
<g id="node10" class="node">
<title>Node10</title>
<g id="a_node10"><a xlink:href="classft_1_1irc_1_1channel.html#aa7b5a547c4ff51772b8a1a6c81f61a8c" target="_top" xlink:title=" ">
<polygon fill="white" stroke="black" points="349,-0.5 349,-19.5 471,-19.5 471,-0.5 349,-0.5"/>
<text text-anchor="middle" x="410" y="-7.5" font-family="Helvetica,sans-Serif" font-size="10.00">ft::irc::channel::unban</text>
</a>
</g>
</g>
<!-- Node1&#45;&gt;Node10 -->
<g id="edge11" class="edge">
<title>Node1&#45;&gt;Node10</title>
<path fill="none" stroke="midnightblue" d="M551.77,-127.5C538.29,-99.56 512.55,-54.48 477,-29 471.57,-25.11 465.36,-22.01 458.97,-19.55"/>
<polygon fill="midnightblue" stroke="midnightblue" points="548.62,-129.02 556.02,-136.6 554.96,-126.06 548.62,-129.02"/>
</g>
<!-- Node11 -->
<g id="node11" class="node">
<title>Node11</title>
<g id="a_node11"><a xlink:href="classft_1_1irc_1_1bot.html#a6bea4a41bf2e963f84660531719b1515" target="_top" xlink:title=" ">
<polygon fill="white" stroke="black" points="346,-186.5 346,-205.5 474,-205.5 474,-186.5 346,-186.5"/>
<text text-anchor="middle" x="410" y="-193.5" font-family="Helvetica,sans-Serif" font-size="10.00">ft::irc::bot::update_nick</text>
</a>
</g>
</g>
<!-- Node1&#45;&gt;Node11 -->
<g id="edge13" class="edge">
<title>Node1&#45;&gt;Node11</title>
<path fill="none" stroke="midnightblue" d="M503.02,-169.43C494.3,-171.97 485.42,-174.56 477,-177 466.35,-180.09 454.73,-183.44 444.25,-186.46"/>
<polygon fill="midnightblue" stroke="midnightblue" points="504.16,-172.74 512.78,-166.58 502.2,-166.02 504.16,-172.74"/>
</g>
<!-- Node2&#45;&gt;Node3 -->
<g id="edge2" class="edge">
<title>Node2&#45;&gt;Node3</title>
<path fill="none" stroke="midnightblue" d="M356.61,-169.94C322.85,-181.5 280.3,-196.07 252.87,-205.46"/>
<polygon fill="midnightblue" stroke="midnightblue" points="358,-173.16 366.32,-166.61 355.73,-166.54 358,-173.16"/>
</g>
<!-- Node4 -->
<g id="node4" class="node">
<title>Node4</title>
<g id="a_node4"><a xlink:href="classft_1_1irc_1_1bot__handler.html#a0723185e483ae21fa0f2116ca05165fe" target="_top" xlink:title=" ">
<polygon fill="white" stroke="black" points="0,-200 0,-230 105,-230 105,-200 0,-200"/>
<text text-anchor="start" x="8" y="-218" font-family="Helvetica,sans-Serif" font-size="10.00">ft::irc::bot_handler</text>
<text text-anchor="middle" x="52.5" y="-207" font-family="Helvetica,sans-Serif" font-size="10.00">::on_read</text>
</a>
</g>
</g>
<!-- Node3&#45;&gt;Node4 -->
<g id="edge3" class="edge">
<title>Node3&#45;&gt;Node4</title>
<path fill="none" stroke="midnightblue" d="M154.13,-215C137.77,-215 120.58,-215 105.14,-215"/>
<polygon fill="midnightblue" stroke="midnightblue" points="154.19,-218.5 164.19,-215 154.19,-211.5 154.19,-218.5"/>
</g>
<!-- Node5&#45;&gt;Node3 -->
<g id="edge5" class="edge">
<title>Node5&#45;&gt;Node3</title>
<path fill="none" stroke="midnightblue" d="M342.59,-227.14C323.35,-225.16 302.47,-223 283.73,-221.06"/>
<polygon fill="midnightblue" stroke="midnightblue" points="342.49,-230.65 352.79,-228.2 343.21,-223.69 342.49,-230.65"/>
</g>
<!-- Node7 -->
<g id="node7" class="node">
<title>Node7</title>
<g id="a_node7"><a xlink:href="classft_1_1irc_1_1processor__mode.html#a78f0436f90fe62dc8e35152d98eff680" target="_top" xlink:title=" ">
<polygon fill="white" stroke="black" points="141,-17 141,-47 307,-47 307,-17 141,-17"/>
<text text-anchor="start" x="149" y="-35" font-family="Helvetica,sans-Serif" font-size="10.00">ft::irc::processor</text>
<text text-anchor="middle" x="224" y="-24" font-family="Helvetica,sans-Serif" font-size="10.00">_mode::update_channel_mode</text>
</a>
</g>
</g>
<!-- Node6&#45;&gt;Node7 -->
<g id="edge7" class="edge">
<title>Node6&#45;&gt;Node7</title>
<path fill="none" stroke="midnightblue" d="M337.29,-45.43C327.39,-44.24 317.16,-43.02 307.08,-41.81"/>
<polygon fill="midnightblue" stroke="midnightblue" points="337.13,-48.93 347.47,-46.64 337.96,-41.98 337.13,-48.93"/>
</g>
<!-- Node8 -->
<g id="node8" class="node">
<title>Node8</title>
<g id="a_node8"><a xlink:href="classft_1_1irc_1_1processor__mode.html#ad013987a789be47379c13f61364135a6" target="_top" xlink:title=" ">
<polygon fill="white" stroke="black" points="5,-17 5,-47 100,-47 100,-17 5,-17"/>
<text text-anchor="start" x="13" y="-35" font-family="Helvetica,sans-Serif" font-size="10.00">ft::irc::processor</text>
<text text-anchor="middle" x="52.5" y="-24" font-family="Helvetica,sans-Serif" font-size="10.00">_mode::execute</text>
</a>
</g>
</g>
<!-- Node7&#45;&gt;Node8 -->
<g id="edge8" class="edge">
<title>Node7&#45;&gt;Node8</title>
<path fill="none" stroke="midnightblue" d="M130.69,-32C120.24,-32 109.94,-32 100.44,-32"/>
<polygon fill="midnightblue" stroke="midnightblue" points="130.73,-35.5 140.73,-32 130.73,-28.5 130.73,-35.5"/>
</g>
<!-- Node10&#45;&gt;Node7 -->
<g id="edge12" class="edge">
<title>Node10&#45;&gt;Node7</title>
<path fill="none" stroke="midnightblue" d="M338.6,-18.42C328.3,-19.65 317.62,-20.93 307.11,-22.18"/>
<polygon fill="midnightblue" stroke="midnightblue" points="339.24,-21.87 348.75,-17.2 338.41,-14.92 339.24,-21.87"/>
</g>
<!-- Node11&#45;&gt;Node3 -->
<g id="edge14" class="edge">
<title>Node11&#45;&gt;Node3</title>
<path fill="none" stroke="midnightblue" d="M335.85,-203.55C318.52,-205.34 300.25,-207.23 283.65,-208.94"/>
<polygon fill="midnightblue" stroke="midnightblue" points="336.35,-207.02 345.94,-202.51 335.63,-200.06 336.35,-207.02"/>
</g>
</g>
</svg>
