<?xml version="1.0" encoding="UTF-8" standalone="no"?>
<!DOCTYPE svg PUBLIC "-//W3C//DTD SVG 1.1//EN"
 "http://www.w3.org/Graphics/SVG/1.1/DTD/svg11.dtd">
<!-- Generated by graphviz version 2.43.0 (0)
 -->
<!-- Title: ft::irc::string_utils::is_same Pages: 1 -->
<svg width="612pt" height="176pt"
 viewBox="0.00 0.00 612.00 175.50" xmlns="http://www.w3.org/2000/svg" xmlns:xlink="http://www.w3.org/1999/xlink">
<g id="graph0" class="graph" transform="scale(1 1) rotate(0) translate(4 171.5)">
<title>ft::irc::string_utils::is_same</title>
<polygon fill="white" stroke="transparent" points="-4,4 -4,-171.5 608,-171.5 608,4 -4,4"/>
<!-- Node1 -->
<g id="node1" class="node">
<title>Node1</title>
<g id="a_node1"><a xlink:title=" ">
<polygon fill="#bfbfbf" stroke="black" points="503,-63 503,-93 604,-93 604,-63 503,-63"/>
<text text-anchor="start" x="511" y="-81" font-family="Helvetica,sans-Serif" font-size="10.00">ft::irc::string_utils</text>
<text text-anchor="middle" x="553.5" y="-70" font-family="Helvetica,sans-Serif" font-size="10.00">::is_same</text>
</a>
</g>
</g>
<!-- Node2 -->
<g id="node2" class="node">
<title>Node2</title>
<g id="a_node2"><a xlink:href="classft_1_1irc_1_1channel.html#a167149fa7b382fa3986d794b298706ce" target="_top" xlink:title=" ">
<polygon fill="white" stroke="black" points="350,-137 350,-167 450,-167 450,-137 350,-137"/>
<text text-anchor="start" x="358" y="-155" font-family="Helvetica,sans-Serif" font-size="10.00">ft::irc::channel::is</text>
<text text-anchor="middle" x="400" y="-144" font-family="Helvetica,sans-Serif" font-size="10.00">_banned</text>
</a>
</g>
</g>
<!-- Node1&#45;&gt;Node2 -->
<g id="edge1" class="edge">
<title>Node1&#45;&gt;Node2</title>
<path fill="none" stroke="midnightblue" d="M520.37,-98.64C504.65,-108.26 485.22,-119.45 467,-128 460.27,-131.16 453,-134.18 445.83,-136.94"/>
<polygon fill="midnightblue" stroke="midnightblue" points="522.51,-101.44 529.17,-93.19 518.82,-95.49 522.51,-101.44"/>
</g>
<!-- Node3 -->
<g id="node3" class="node">
<title>Node3</title>
<g id="a_node3"><a xlink:href="classft_1_1irc_1_1channel.html#ad30281781ad94941df6db1284869a73b" target="_top" xlink:title=" ">
<polygon fill="white" stroke="black" points="337.5,-88 337.5,-118 462.5,-118 462.5,-88 337.5,-88"/>
<text text-anchor="start" x="345.5" y="-106" font-family="Helvetica,sans-Serif" font-size="10.00">ft::irc::channel::modify</text>
<text text-anchor="middle" x="400" y="-95" font-family="Helvetica,sans-Serif" font-size="10.00">_member_mode</text>
</a>
</g>
</g>
<!-- Node1&#45;&gt;Node3 -->
<g id="edge2" class="edge">
<title>Node1&#45;&gt;Node3</title>
<path fill="none" stroke="midnightblue" d="M492.75,-87.86C482.85,-89.49 472.58,-91.19 462.64,-92.83"/>
<polygon fill="midnightblue" stroke="midnightblue" points="493.6,-91.27 502.89,-86.19 492.46,-84.36 493.6,-91.27"/>
</g>
<!-- Node6 -->
<g id="node6" class="node">
<title>Node6</title>
<g id="a_node6"><a xlink:href="structft_1_1irc_1_1user_1_1pred__equals__nick.html#aa4bfdd8756482385798ed7fd8197f1e1" target="_top" xlink:title=" ">
<polygon fill="white" stroke="black" points="333,-39 333,-69 467,-69 467,-39 333,-39"/>
<text text-anchor="start" x="341" y="-57" font-family="Helvetica,sans-Serif" font-size="10.00">ft::irc::user::pred</text>
<text text-anchor="middle" x="400" y="-46" font-family="Helvetica,sans-Serif" font-size="10.00">_equals_nick::operator()</text>
</a>
</g>
</g>
<!-- Node1&#45;&gt;Node6 -->
<g id="edge5" class="edge">
<title>Node1&#45;&gt;Node6</title>
<path fill="none" stroke="midnightblue" d="M492.82,-68.55C484.42,-67.22 475.75,-65.84 467.24,-64.49"/>
<polygon fill="midnightblue" stroke="midnightblue" points="492.47,-72.03 502.89,-70.14 493.56,-65.12 492.47,-72.03"/>
</g>
<!-- Node7 -->
<g id="node7" class="node">
<title>Node7</title>
<g id="a_node7"><a xlink:href="classft_1_1irc_1_1channel.html#aa7b5a547c4ff51772b8a1a6c81f61a8c" target="_top" xlink:title=" ">
<polygon fill="white" stroke="black" points="339,-0.5 339,-19.5 461,-19.5 461,-0.5 339,-0.5"/>
<text text-anchor="middle" x="400" y="-7.5" font-family="Helvetica,sans-Serif" font-size="10.00">ft::irc::channel::unban</text>
</a>
</g>
</g>
<!-- Node1&#45;&gt;Node7 -->
<g id="edge6" class="edge">
<title>Node1&#45;&gt;Node7</title>
<path fill="none" stroke="midnightblue" d="M520.13,-57.63C504.49,-48.36 485.2,-37.76 467,-30 457.64,-26.01 447.22,-22.46 437.47,-19.51"/>
<polygon fill="midnightblue" stroke="midnightblue" points="518.52,-60.74 528.89,-62.9 522.13,-54.74 518.52,-60.74"/>
</g>
<!-- Node4 -->
<g id="node4" class="node">
<title>Node4</title>
<g id="a_node4"><a xlink:href="classft_1_1irc_1_1processor__mode.html#a78f0436f90fe62dc8e35152d98eff680" target="_top" xlink:title=" ">
<polygon fill="white" stroke="black" points="131,-41 131,-71 297,-71 297,-41 131,-41"/>
<text text-anchor="start" x="139" y="-59" font-family="Helvetica,sans-Serif" font-size="10.00">ft::irc::processor</text>
<text text-anchor="middle" x="214" y="-48" font-family="Helvetica,sans-Serif" font-size="10.00">_mode::update_channel_mode</text>
</a>
</g>
</g>
<!-- Node3&#45;&gt;Node4 -->
<g id="edge3" class="edge">
<title>Node3&#45;&gt;Node4</title>
<path fill="none" stroke="midnightblue" d="M330.39,-85.48C311.79,-80.72 291.81,-75.62 273.8,-71.02"/>
<polygon fill="midnightblue" stroke="midnightblue" points="329.72,-88.92 340.28,-88 331.45,-82.13 329.72,-88.92"/>
</g>
<!-- Node5 -->
<g id="node5" class="node">
<title>Node5</title>
<g id="a_node5"><a xlink:href="classft_1_1irc_1_1processor__mode.html#ad013987a789be47379c13f61364135a6" target="_top" xlink:title=" ">
<polygon fill="white" stroke="black" points="0,-41 0,-71 95,-71 95,-41 0,-41"/>
<text text-anchor="start" x="8" y="-59" font-family="Helvetica,sans-Serif" font-size="10.00">ft::irc::processor</text>
<text text-anchor="middle" x="47.5" y="-48" font-family="Helvetica,sans-Serif" font-size="10.00">_mode::execute</text>
</a>
</g>
</g>
<!-- Node4&#45;&gt;Node5 -->
<g id="edge4" class="edge">
<title>Node4&#45;&gt;Node5</title>
<path fill="none" stroke="midnightblue" d="M120.47,-56C111.76,-56 103.2,-56 95.2,-56"/>
<polygon fill="midnightblue" stroke="midnightblue" points="120.75,-59.5 130.75,-56 120.75,-52.5 120.75,-59.5"/>
</g>
<!-- Node7&#45;&gt;Node4 -->
<g id="edge7" class="edge">
<title>Node7&#45;&gt;Node4</title>
<path fill="none" stroke="midnightblue" d="M350.94,-22.02C327.77,-27.81 299.74,-34.81 275.17,-40.96"/>
<polygon fill="midnightblue" stroke="midnightblue" points="352.02,-25.35 360.88,-19.53 350.32,-18.56 352.02,-25.35"/>
</g>
</g>
</svg>
