<?xml version="1.0" encoding="UTF-8" standalone="no"?>
<!DOCTYPE svg PUBLIC "-//W3C//DTD SVG 1.1//EN"
 "http://www.w3.org/Graphics/SVG/1.1/DTD/svg11.dtd">
<!-- Generated by graphviz version 2.43.0 (0)
 -->
<!-- Title: ft::serv::socket_utils::reverse_lookup Pages: 1 -->
<svg width="513pt" height="137pt"
 viewBox="0.00 0.00 513.00 137.00" xmlns="http://www.w3.org/2000/svg" xmlns:xlink="http://www.w3.org/1999/xlink">
<g id="graph0" class="graph" transform="scale(1 1) rotate(0) translate(4 133)">
<title>ft::serv::socket_utils::reverse_lookup</title>
<polygon fill="white" stroke="transparent" points="-4,4 -4,-133 509,-133 509,4 -4,4"/>
<!-- Node1 -->
<g id="node1" class="node">
<title>Node1</title>
<g id="a_node1"><a xlink:title=" ">
<polygon fill="#bfbfbf" stroke="black" points="392,-73.5 392,-103.5 505,-103.5 505,-73.5 392,-73.5"/>
<text text-anchor="start" x="400" y="-91.5" font-family="Helvetica,sans-Serif" font-size="10.00">ft::serv::socket_utils</text>
<text text-anchor="middle" x="448.5" y="-80.5" font-family="Helvetica,sans-Serif" font-size="10.00">::reverse_lookup</text>
</a>
</g>
</g>
<!-- Node2 -->
<g id="node2" class="node">
<title>Node2</title>
<g id="a_node2"><a xlink:href="structft_1_1serv_1_1socket__utils.html#afdfe771bbccb2ec1af3e5eb44233469d" target="_top" xlink:title=" ">
<polygon fill="white" stroke="black" points="243,-98.5 243,-128.5 356,-128.5 356,-98.5 243,-98.5"/>
<text text-anchor="start" x="251" y="-116.5" font-family="Helvetica,sans-Serif" font-size="10.00">ft::serv::socket_utils</text>
<text text-anchor="middle" x="299.5" y="-105.5" font-family="Helvetica,sans-Serif" font-size="10.00">::accept_socket</text>
</a>
</g>
</g>
<!-- Node1&#45;&gt;Node2 -->
<g id="edge1" class="edge">
<title>Node1&#45;&gt;Node2</title>
<path fill="none" stroke="midnightblue" d="M381.92,-99.65C373.32,-101.12 364.57,-102.6 356.15,-104.04"/>
<polygon fill="midnightblue" stroke="midnightblue" points="382.65,-103.08 391.93,-97.95 381.48,-96.18 382.65,-103.08"/>
</g>
<!-- Node4 -->
<g id="node4" class="node">
<title>Node4</title>
<g id="a_node4"><a xlink:href="structft_1_1serv_1_1socket__utils.html#af26c480a74e72a232aca84cd17e2de61" target="_top" xlink:title=" ">
<polygon fill="white" stroke="black" points="243,-49.5 243,-79.5 356,-79.5 356,-49.5 243,-49.5"/>
<text text-anchor="start" x="251" y="-67.5" font-family="Helvetica,sans-Serif" font-size="10.00">ft::serv::socket_utils</text>
<text text-anchor="middle" x="299.5" y="-56.5" font-family="Helvetica,sans-Serif" font-size="10.00">::name_socket</text>
</a>
</g>
</g>
<!-- Node1&#45;&gt;Node4 -->
<g id="edge3" class="edge">
<title>Node1&#45;&gt;Node4</title>
<path fill="none" stroke="midnightblue" d="M381.92,-77.79C373.32,-76.39 364.57,-74.96 356.15,-73.59"/>
<polygon fill="midnightblue" stroke="midnightblue" points="381.49,-81.27 391.93,-79.43 382.62,-74.36 381.49,-81.27"/>
</g>
<!-- Node3 -->
<g id="node3" class="node">
<title>Node3</title>
<g id="a_node3"><a xlink:href="classft_1_1serv_1_1server__channel.html#a6721bda28cd2b3649985d19cbd407416" target="_top" xlink:title=" ">
<polygon fill="white" stroke="black" points="77,-98.5 77,-128.5 207,-128.5 207,-98.5 77,-98.5"/>
<text text-anchor="start" x="85" y="-116.5" font-family="Helvetica,sans-Serif" font-size="10.00">ft::serv::server_channel</text>
<text text-anchor="middle" x="142" y="-105.5" font-family="Helvetica,sans-Serif" font-size="10.00">::begin_read</text>
</a>
</g>
</g>
<!-- Node2&#45;&gt;Node3 -->
<g id="edge2" class="edge">
<title>Node2&#45;&gt;Node3</title>
<path fill="none" stroke="midnightblue" d="M232.6,-113.5C224.13,-113.5 215.48,-113.5 207.04,-113.5"/>
<polygon fill="midnightblue" stroke="midnightblue" points="232.8,-117 242.8,-113.5 232.8,-110 232.8,-117"/>
</g>
<!-- Node5 -->
<g id="node5" class="node">
<title>Node5</title>
<g id="a_node5"><a xlink:href="classft_1_1serv_1_1bootstrap.html#acd923d6b838022038f437dad3e58abf0" target="_top" xlink:title=" ">
<polygon fill="white" stroke="black" points="91,-49.5 91,-79.5 193,-79.5 193,-49.5 91,-49.5"/>
<text text-anchor="start" x="99" y="-67.5" font-family="Helvetica,sans-Serif" font-size="10.00">ft::serv::bootstrap</text>
<text text-anchor="middle" x="142" y="-56.5" font-family="Helvetica,sans-Serif" font-size="10.00">::start_client</text>
</a>
</g>
</g>
<!-- Node4&#45;&gt;Node5 -->
<g id="edge4" class="edge">
<title>Node4&#45;&gt;Node5</title>
<path fill="none" stroke="midnightblue" d="M232.78,-64.5C219.51,-64.5 205.77,-64.5 193.14,-64.5"/>
<polygon fill="midnightblue" stroke="midnightblue" points="232.8,-68 242.8,-64.5 232.8,-61 232.8,-68"/>
</g>
<!-- Node7 -->
<g id="node7" class="node">
<title>Node7</title>
<g id="a_node7"><a xlink:href="classft_1_1serv_1_1bootstrap.html#a61642849334859472e690b615dc6fdeb" target="_top" xlink:title=" ">
<polygon fill="white" stroke="black" points="91,-0.5 91,-30.5 193,-30.5 193,-0.5 91,-0.5"/>
<text text-anchor="start" x="99" y="-18.5" font-family="Helvetica,sans-Serif" font-size="10.00">ft::serv::bootstrap</text>
<text text-anchor="middle" x="142" y="-7.5" font-family="Helvetica,sans-Serif" font-size="10.00">::start_server</text>
</a>
</g>
</g>
<!-- Node4&#45;&gt;Node7 -->
<g id="edge6" class="edge">
<title>Node4&#45;&gt;Node7</title>
<path fill="none" stroke="midnightblue" d="M241.02,-46.39C224.49,-41.18 206.64,-35.55 190.77,-30.55"/>
<polygon fill="midnightblue" stroke="midnightblue" points="239.99,-49.73 250.58,-49.4 242.09,-43.05 239.99,-49.73"/>
</g>
<!-- Node6 -->
<g id="node6" class="node">
<title>Node6</title>
<g id="a_node6"><a xlink:href="bot_8cpp.html#a0ddf1224851353fc92bfbff6f499fa97" target="_top" xlink:title=" ">
<polygon fill="white" stroke="black" points="0,-55 0,-74 41,-74 41,-55 0,-55"/>
<text text-anchor="middle" x="20.5" y="-62" font-family="Helvetica,sans-Serif" font-size="10.00">main</text>
</a>
</g>
</g>
<!-- Node5&#45;&gt;Node6 -->
<g id="edge5" class="edge">
<title>Node5&#45;&gt;Node6</title>
<path fill="none" stroke="midnightblue" d="M80.35,-64.5C66.13,-64.5 51.97,-64.5 41.11,-64.5"/>
<polygon fill="midnightblue" stroke="midnightblue" points="80.67,-68 90.67,-64.5 80.67,-61 80.67,-68"/>
</g>
<!-- Node8 -->
<g id="node8" class="node">
<title>Node8</title>
<g id="a_node8"><a xlink:href="main_8cpp.html#a0ddf1224851353fc92bfbff6f499fa97" target="_top" xlink:title=" ">
<polygon fill="white" stroke="black" points="0,-6 0,-25 41,-25 41,-6 0,-6"/>
<text text-anchor="middle" x="20.5" y="-13" font-family="Helvetica,sans-Serif" font-size="10.00">main</text>
</a>
</g>
</g>
<!-- Node7&#45;&gt;Node8 -->
<g id="edge7" class="edge">
<title>Node7&#45;&gt;Node8</title>
<path fill="none" stroke="midnightblue" d="M80.35,-15.5C66.13,-15.5 51.97,-15.5 41.11,-15.5"/>
<polygon fill="midnightblue" stroke="midnightblue" points="80.67,-19 90.67,-15.5 80.67,-12 80.67,-19"/>
</g>
</g>
</svg>
