<?xml version="1.0" encoding="UTF-8" standalone="no"?>
<!DOCTYPE svg PUBLIC "-//W3C//DTD SVG 1.1//EN"
 "http://www.w3.org/Graphics/SVG/1.1/DTD/svg11.dtd">
<!-- Generated by graphviz version 2.43.0 (0)
 -->
<!-- Title: ft::irc::string_utils::is_same Pages: 1 -->
<svg width="622pt" height="302pt"
 viewBox="0.00 0.00 622.00 302.00" xmlns="http://www.w3.org/2000/svg" xmlns:xlink="http://www.w3.org/1999/xlink">
<g id="graph0" class="graph" transform="scale(1 1) rotate(0) translate(4 298)">
<title>ft::irc::string_utils::is_same</title>
<polygon fill="white" stroke="transparent" points="-4,4 -4,-298 618,-298 618,4 -4,4"/>
<!-- Node1 -->
<g id="node1" class="node">
<title>Node1</title>
<g id="a_node1"><a xlink:title=" ">
<polygon fill="#bfbfbf" stroke="black" points="513,-132 513,-162 614,-162 614,-132 513,-132"/>
<text text-anchor="start" x="521" y="-150" font-family="Helvetica,sans-Serif" font-size="10.00">ft::irc::string_utils</text>
<text text-anchor="middle" x="563.5" y="-139" font-family="Helvetica,sans-Serif" font-size="10.00">::is_same</text>
</a>
</g>
</g>
<!-- Node2 -->
<g id="node2" class="node">
<title>Node2</title>
<g id="a_node2"><a xlink:href="classft_1_1irc_1_1bot.html#aef50e26ad9e418841745fec737a929e1" target="_top" xlink:title=" ">
<polygon fill="white" stroke="black" points="366.5,-176 366.5,-206 453.5,-206 453.5,-176 366.5,-176"/>
<text text-anchor="start" x="374.5" y="-194" font-family="Helvetica,sans-Serif" font-size="10.00">ft::irc::bot::find</text>
<text text-anchor="middle" x="410" y="-183" font-family="Helvetica,sans-Serif" font-size="10.00">_channels</text>
</a>
</g>
</g>
<!-- Node1&#45;&gt;Node2 -->
<g id="edge1" class="edge">
<title>Node1&#45;&gt;Node2</title>
<path fill="none" stroke="midnightblue" d="M503.28,-164.2C486.7,-169.01 469.01,-174.15 453.6,-178.63"/>
<polygon fill="midnightblue" stroke="midnightblue" points="504.27,-167.56 512.89,-161.41 502.31,-160.84 504.27,-167.56"/>
</g>
<!-- Node5 -->
<g id="node5" class="node">
<title>Node5</title>
<g id="a_node5"><a xlink:href="classft_1_1irc_1_1channel.html#a167149fa7b382fa3986d794b298706ce" target="_top" xlink:title=" ">
<polygon fill="white" stroke="black" points="360,-225 360,-255 460,-255 460,-225 360,-225"/>
<text text-anchor="start" x="368" y="-243" font-family="Helvetica,sans-Serif" font-size="10.00">ft::irc::channel::is</text>
<text text-anchor="middle" x="410" y="-232" font-family="Helvetica,sans-Serif" font-size="10.00">_banned</text>
</a>
</g>
</g>
<!-- Node1&#45;&gt;Node5 -->
<g id="edge4" class="edge">
<title>Node1&#45;&gt;Node5</title>
<path fill="none" stroke="midnightblue" d="M539.49,-169.1C523.1,-183.92 499.98,-203.03 477,-216 471.16,-219.3 464.78,-222.28 458.37,-224.94"/>
<polygon fill="midnightblue" stroke="midnightblue" points="541.98,-171.57 546.96,-162.22 537.24,-166.42 541.98,-171.57"/>
</g>
<!-- Node6 -->
<g id="node6" class="node">
<title>Node6</title>
<g id="a_node6"><a xlink:href="classft_1_1irc_1_1bot.html#ae656abc057f855c98beeb52da4d30f0f" target="_top" xlink:title=" ">
<polygon fill="white" stroke="black" points="353,-137.5 353,-156.5 467,-156.5 467,-137.5 353,-137.5"/>
<text text-anchor="middle" x="410" y="-144.5" font-family="Helvetica,sans-Serif" font-size="10.00">ft::irc::bot::is_inviter</text>
</a>
</g>
</g>
<!-- Node1&#45;&gt;Node6 -->
<g id="edge5" class="edge">
<title>Node1&#45;&gt;Node6</title>
<path fill="none" stroke="midnightblue" d="M502.72,-147C490.96,-147 478.65,-147 467.02,-147"/>
<polygon fill="midnightblue" stroke="midnightblue" points="502.89,-150.5 512.89,-147 502.89,-143.5 502.89,-150.5"/>
</g>
<!-- Node7 -->
<g id="node7" class="node">
<title>Node7</title>
<g id="a_node7"><a xlink:href="classft_1_1irc_1_1channel.html#ad30281781ad94941df6db1284869a73b" target="_top" xlink:title=" ">
<polygon fill="white" stroke="black" points="347.5,-39 347.5,-69 472.5,-69 472.5,-39 347.5,-39"/>
<text text-anchor="start" x="355.5" y="-57" font-family="Helvetica,sans-Serif" font-size="10.00">ft::irc::channel::modify</text>
<text text-anchor="middle" x="410" y="-46" font-family="Helvetica,sans-Serif" font-size="10.00">_member_mode</text>
</a>
</g>
</g>
<!-- Node1&#45;&gt;Node7 -->
<g id="edge7" class="edge">
<title>Node1&#45;&gt;Node7</title>
<path fill="none" stroke="midnightblue" d="M539.07,-125.06C522.65,-110.55 499.67,-91.89 477,-79 470.61,-75.37 463.59,-72.06 456.58,-69.13"/>
<polygon fill="midnightblue" stroke="midnightblue" points="536.8,-127.73 546.58,-131.81 541.48,-122.52 536.8,-127.73"/>
</g>
<!-- Node10 -->
<g id="node10" class="node">
<title>Node10</title>
<g id="a_node10"><a xlink:href="structft_1_1irc_1_1user_1_1pred__equals__nick.html#aa4bfdd8756482385798ed7fd8197f1e1" target="_top" xlink:title=" ">
<polygon fill="white" stroke="black" points="343,-88 343,-118 477,-118 477,-88 343,-88"/>
<text text-anchor="start" x="351" y="-106" font-family="Helvetica,sans-Serif" font-size="10.00">ft::irc::user::pred</text>
<text text-anchor="middle" x="410" y="-95" font-family="Helvetica,sans-Serif" font-size="10.00">_equals_nick::operator()</text>
</a>
</g>
</g>
<!-- Node1&#45;&gt;Node10 -->
<g id="edge10" class="edge">
<title>Node1&#45;&gt;Node10</title>
<path fill="none" stroke="midnightblue" d="M502.92,-129.7C489.66,-125.85 475.71,-121.79 462.8,-118.04"/>
<polygon fill="midnightblue" stroke="midnightblue" points="502.31,-133.16 512.89,-132.59 504.27,-126.44 502.31,-133.16"/>
</g>
<!-- Node11 -->
<g id="node11" class="node">
<title>Node11</title>
<g id="a_node11"><a xlink:href="classft_1_1irc_1_1channel.html#aa7b5a547c4ff51772b8a1a6c81f61a8c" target="_top" xlink:title=" ">
<polygon fill="white" stroke="black" points="349,-0.5 349,-19.5 471,-19.5 471,-0.5 349,-0.5"/>
<text text-anchor="middle" x="410" y="-7.5" font-family="Helvetica,sans-Serif" font-size="10.00">ft::irc::channel::unban</text>
</a>
</g>
</g>
<!-- Node1&#45;&gt;Node11 -->
<g id="edge11" class="edge">
<title>Node1&#45;&gt;Node11</title>
<path fill="none" stroke="midnightblue" d="M551.11,-122.71C537.29,-95.86 511.49,-53.21 477,-29 471.44,-25.1 465.08,-21.99 458.56,-19.52"/>
<polygon fill="midnightblue" stroke="midnightblue" points="548.06,-124.44 555.65,-131.83 554.32,-121.32 548.06,-124.44"/>
</g>
<!-- Node12 -->
<g id="node12" class="node">
<title>Node12</title>
<g id="a_node12"><a xlink:href="classft_1_1irc_1_1bot.html#a6bea4a41bf2e963f84660531719b1515" target="_top" xlink:title=" ">
<polygon fill="white" stroke="black" points="346,-274.5 346,-293.5 474,-293.5 474,-274.5 346,-274.5"/>
<text text-anchor="middle" x="410" y="-281.5" font-family="Helvetica,sans-Serif" font-size="10.00">ft::irc::bot::update_nick</text>
</a>
</g>
</g>
<!-- Node1&#45;&gt;Node12 -->
<g id="edge13" class="edge">
<title>Node1&#45;&gt;Node12</title>
<path fill="none" stroke="midnightblue" d="M551.11,-171.29C537.29,-198.14 511.49,-240.79 477,-265 471.44,-268.9 465.08,-272.01 458.56,-274.48"/>
<polygon fill="midnightblue" stroke="midnightblue" points="554.32,-172.68 555.65,-162.17 548.06,-169.56 554.32,-172.68"/>
</g>
<!-- Node3 -->
<g id="node3" class="node">
<title>Node3</title>
<g id="a_node3"><a xlink:href="classft_1_1irc_1_1bot.html#a0b595213781ed0e5aaf1d48fdb602d98" target="_top" xlink:title=" ">
<polygon fill="white" stroke="black" points="164.5,-181.5 164.5,-200.5 283.5,-200.5 283.5,-181.5 164.5,-181.5"/>
<text text-anchor="middle" x="224" y="-188.5" font-family="Helvetica,sans-Serif" font-size="10.00">ft::irc::bot::on_packet</text>
</a>
</g>
</g>
<!-- Node2&#45;&gt;Node3 -->
<g id="edge2" class="edge">
<title>Node2&#45;&gt;Node3</title>
<path fill="none" stroke="midnightblue" d="M356.23,-191C333.6,-191 307.08,-191 283.82,-191"/>
<polygon fill="midnightblue" stroke="midnightblue" points="356.32,-194.5 366.32,-191 356.32,-187.5 356.32,-194.5"/>
</g>
<!-- Node4 -->
<g id="node4" class="node">
<title>Node4</title>
<g id="a_node4"><a xlink:href="classft_1_1irc_1_1bot__handler.html#a0723185e483ae21fa0f2116ca05165fe" target="_top" xlink:title=" ">
<polygon fill="white" stroke="black" points="0,-176 0,-206 105,-206 105,-176 0,-176"/>
<text text-anchor="start" x="8" y="-194" font-family="Helvetica,sans-Serif" font-size="10.00">ft::irc::bot_handler</text>
<text text-anchor="middle" x="52.5" y="-183" font-family="Helvetica,sans-Serif" font-size="10.00">::on_read</text>
</a>
</g>
</g>
<!-- Node3&#45;&gt;Node4 -->
<g id="edge3" class="edge">
<title>Node3&#45;&gt;Node4</title>
<path fill="none" stroke="midnightblue" d="M154.13,-191C137.77,-191 120.58,-191 105.14,-191"/>
<polygon fill="midnightblue" stroke="midnightblue" points="154.19,-194.5 164.19,-191 154.19,-187.5 154.19,-194.5"/>
</g>
<!-- Node6&#45;&gt;Node3 -->
<g id="edge6" class="edge">
<title>Node6&#45;&gt;Node3</title>
<path fill="none" stroke="midnightblue" d="M359.33,-158.88C329.7,-165.96 292.56,-174.84 264.85,-181.47"/>
<polygon fill="midnightblue" stroke="midnightblue" points="360.16,-162.28 369.07,-156.55 358.53,-155.47 360.16,-162.28"/>
</g>
<!-- Node8 -->
<g id="node8" class="node">
<title>Node8</title>
<g id="a_node8"><a xlink:href="classft_1_1irc_1_1processor__mode.html#a78f0436f90fe62dc8e35152d98eff680" target="_top" xlink:title=" ">
<polygon fill="white" stroke="black" points="141,-17 141,-47 307,-47 307,-17 141,-17"/>
<text text-anchor="start" x="149" y="-35" font-family="Helvetica,sans-Serif" font-size="10.00">ft::irc::processor</text>
<text text-anchor="middle" x="224" y="-24" font-family="Helvetica,sans-Serif" font-size="10.00">_mode::update_channel_mode</text>
</a>
</g>
</g>
<!-- Node7&#45;&gt;Node8 -->
<g id="edge8" class="edge">
<title>Node7&#45;&gt;Node8</title>
<path fill="none" stroke="midnightblue" d="M337.29,-45.43C327.39,-44.24 317.16,-43.02 307.08,-41.81"/>
<polygon fill="midnightblue" stroke="midnightblue" points="337.13,-48.93 347.47,-46.64 337.96,-41.98 337.13,-48.93"/>
</g>
<!-- Node9 -->
<g id="node9" class="node">
<title>Node9</title>
<g id="a_node9"><a xlink:href="classft_1_1irc_1_1processor__mode.html#ad013987a789be47379c13f61364135a6" target="_top" xlink:title=" ">
<polygon fill="white" stroke="black" points="5,-17 5,-47 100,-47 100,-17 5,-17"/>
<text text-anchor="start" x="13" y="-35" font-family="Helvetica,sans-Serif" font-size="10.00">ft::irc::processor</text>
<text text-anchor="middle" x="52.5" y="-24" font-family="Helvetica,sans-Serif" font-size="10.00">_mode::execute</text>
</a>
</g>
</g>
<!-- Node8&#45;&gt;Node9 -->
<g id="edge9" class="edge">
<title>Node8&#45;&gt;Node9</title>
<path fill="none" stroke="midnightblue" d="M130.69,-32C120.24,-32 109.94,-32 100.44,-32"/>
<polygon fill="midnightblue" stroke="midnightblue" points="130.73,-35.5 140.73,-32 130.73,-28.5 130.73,-35.5"/>
</g>
<!-- Node11&#45;&gt;Node8 -->
<g id="edge12" class="edge">
<title>Node11&#45;&gt;Node8</title>
<path fill="none" stroke="midnightblue" d="M338.6,-18.42C328.3,-19.65 317.62,-20.93 307.11,-22.18"/>
<polygon fill="midnightblue" stroke="midnightblue" points="339.24,-21.87 348.75,-17.2 338.41,-14.92 339.24,-21.87"/>
</g>
<!-- Node12&#45;&gt;Node3 -->
<g id="edge14" class="edge">
<title>Node12&#45;&gt;Node3</title>
<path fill="none" stroke="midnightblue" d="M359.04,-271.24C353.55,-269.36 348.1,-267.28 343,-265 302.16,-246.75 258.72,-216.23 237.77,-200.71"/>
<polygon fill="midnightblue" stroke="midnightblue" points="358.33,-274.69 368.92,-274.41 360.47,-268.02 358.33,-274.69"/>
</g>
</g>
</svg>
