<?xml version="1.0" encoding="UTF-8" standalone="no"?>
<!DOCTYPE svg PUBLIC "-//W3C//DTD SVG 1.1//EN"
 "http://www.w3.org/Graphics/SVG/1.1/DTD/svg11.dtd">
<!-- Generated by graphviz version 2.43.0 (0)
 -->
<!-- Title: ft::serv::logger::debug Pages: 1 -->
<!--zoomable 1227 -->
<svg id="main" version="1.1" xmlns="http://www.w3.org/2000/svg" xmlns:xlink="http://www.w3.org/1999/xlink" xml:space="preserve" onload="init(evt)">
<style type="text/css"><![CDATA[
.edge:hover path { stroke: red; }
.edge:hover polygon { stroke: red; fill: red; }
]]></style>
<script type="text/javascript"><![CDATA[
var edges = document.getElementsByTagName('g');
if (edges && edges.length) {
  for (var i=0;i<edges.length;i++) {
    if (edges[i].id.substr(0,4)=='edge') {
      edges[i].setAttribute('class','edge');
    }
  }
}
]]></script>
        <defs>
                <circle id="rim" cx="0" cy="0" r="7"/>
                <circle id="rim2" cx="0" cy="0" r="3.5"/>
                <g id="zoomPlus">
                        <use xlink:href="#rim" fill="#404040">
                                <set attributeName="fill" to="#808080" begin="zoomplus.mouseover" end="zoomplus.mouseout"/>
                        </use>
                        <path d="M-4,0h8M0,-4v8" fill="none" stroke="white" stroke-width="1.5" pointer-events="none"/>
                </g>
                <g id="zoomMin">
                        <use xlink:href="#rim" fill="#404040">
                                <set attributeName="fill" to="#808080" begin="zoomminus.mouseover" end="zoomminus.mouseout"/>
                        </use>
                        <path d="M-4,0h8" fill="none" stroke="white" stroke-width="1.5" pointer-events="none"/>
                </g>
                <g id="dirArrow">
                        <path fill="none" stroke="white" stroke-width="1.5" d="M0,-3.0v7 M-2.5,-0.5L0,-3.0L2.5,-0.5"/>
                </g>
               <g id="resetDef">
                       <use xlink:href="#rim2" fill="#404040">
                               <set attributeName="fill" to="#808080" begin="reset.mouseover" end="reset.mouseout"/>
                       </use>
               </g>
        </defs>

<script type="text/javascript">
var viewWidth = 800;
var viewHeight = 1227;
var sectionId = 'dynsection-1';
</script>
<script xlink:href="svgpan.js"/>
<svg id="graph" class="graph">
<g id="viewport">
<title>ft::serv::logger::debug</title>
<polygon fill="white" stroke="transparent" points="-4,4 -4,-1223 796,-1223 796,4 -4,4"/>
<!-- Node1 -->
<g id="node1" class="node">
<title>Node1</title>
<g id="a_node1"><a xlink:title=" ">
<polygon fill="#bfbfbf" stroke="black" points="670,-949 670,-968 792,-968 792,-949 670,-949"/>
<text text-anchor="middle" x="731" y="-956" font-family="Helvetica,sans-Serif" font-size="10.00">ft::serv::logger::debug</text>
</a>
</g>
</g>
<!-- Node2 -->
<g id="node2" class="node">
<title>Node2</title>
<g id="a_node2"><a xlink:href="classft_1_1irc_1_1bot__handler.html#a4f6f0c2ea6bf628048019d6793978658" target="_top" xlink:title=" ">
<polygon fill="white" stroke="black" points="523.5,-1188.5 523.5,-1218.5 628.5,-1218.5 628.5,-1188.5 523.5,-1188.5"/>
<text text-anchor="start" x="531.5" y="-1206.5" font-family="Helvetica,sans-Serif" font-size="10.00">ft::irc::bot_handler</text>
<text text-anchor="middle" x="576" y="-1195.5" font-family="Helvetica,sans-Serif" font-size="10.00">::on_active</text>
</a>
</g>
</g>
<!-- Node1&#45;&gt;Node2 -->
<g id="edge1" class="edge">
<title>Node1&#45;&gt;Node2</title>
<path fill="none" stroke="midnightblue" d="M726.55,-978.24C718.19,-1020.62 692.98,-1121.18 634,-1179.5 630.56,-1182.9 626.58,-1185.84 622.33,-1188.39"/>
<polygon fill="midnightblue" stroke="midnightblue" points="730.01,-978.82 728.41,-968.35 723.13,-977.53 730.01,-978.82"/>
</g>
<!-- Node3 -->
<g id="node3" class="node">
<title>Node3</title>
<g id="a_node3"><a xlink:href="classft_1_1irc_1_1client__handler.html#ae807a3999b5bc11f686ecbd8c9c78972" target="_top" xlink:title=" ">
<polygon fill="white" stroke="black" points="518,-1139.5 518,-1169.5 634,-1169.5 634,-1139.5 518,-1139.5"/>
<text text-anchor="start" x="526" y="-1157.5" font-family="Helvetica,sans-Serif" font-size="10.00">ft::irc::client_handler</text>
<text text-anchor="middle" x="576" y="-1146.5" font-family="Helvetica,sans-Serif" font-size="10.00">::on_active</text>
</a>
</g>
</g>
<!-- Node1&#45;&gt;Node3 -->
<g id="edge2" class="edge">
<title>Node1&#45;&gt;Node3</title>
<path fill="none" stroke="midnightblue" d="M723.88,-978.04C711.97,-1013.1 682.51,-1087.07 634,-1130.5 630.24,-1133.87 625.94,-1136.8 621.42,-1139.36"/>
<polygon fill="midnightblue" stroke="midnightblue" points="727.34,-978.71 727.13,-968.11 720.69,-976.53 727.34,-978.71"/>
</g>
<!-- Node4 -->
<g id="node4" class="node">
<title>Node4</title>
<g id="a_node4"><a xlink:href="classft_1_1irc_1_1bot__handler.html#a8601fbf1c9aa32d1e28e421f86969f08" target="_top" xlink:title=" ">
<polygon fill="white" stroke="black" points="523.5,-1090.5 523.5,-1120.5 628.5,-1120.5 628.5,-1090.5 523.5,-1090.5"/>
<text text-anchor="start" x="531.5" y="-1108.5" font-family="Helvetica,sans-Serif" font-size="10.00">ft::irc::bot_handler</text>
<text text-anchor="middle" x="576" y="-1097.5" font-family="Helvetica,sans-Serif" font-size="10.00">::on_error</text>
</a>
</g>
</g>
<!-- Node1&#45;&gt;Node4 -->
<g id="edge3" class="edge">
<title>Node1&#45;&gt;Node4</title>
<path fill="none" stroke="midnightblue" d="M719.65,-977.14C704.14,-1003.57 672.53,-1052.01 634,-1081.5 629.65,-1084.83 624.77,-1087.78 619.75,-1090.38"/>
<polygon fill="midnightblue" stroke="midnightblue" points="722.85,-978.59 724.79,-968.17 716.78,-975.11 722.85,-978.59"/>
</g>
<!-- Node5 -->
<g id="node5" class="node">
<title>Node5</title>
<g id="a_node5"><a xlink:href="classft_1_1irc_1_1client__handler.html#a3b07923a033637234fc01fa98e15e5ac" target="_top" xlink:title=" ">
<polygon fill="white" stroke="black" points="518,-1041.5 518,-1071.5 634,-1071.5 634,-1041.5 518,-1041.5"/>
<text text-anchor="start" x="526" y="-1059.5" font-family="Helvetica,sans-Serif" font-size="10.00">ft::irc::client_handler</text>
<text text-anchor="middle" x="576" y="-1048.5" font-family="Helvetica,sans-Serif" font-size="10.00">::on_error</text>
</a>
</g>
</g>
<!-- Node1&#45;&gt;Node5 -->
<g id="edge4" class="edge">
<title>Node1&#45;&gt;Node5</title>
<path fill="none" stroke="midnightblue" d="M711.75,-974.89C693.15,-991.01 663.01,-1015.59 634,-1032.5 628.53,-1035.69 622.55,-1038.68 616.59,-1041.4"/>
<polygon fill="midnightblue" stroke="midnightblue" points="714.23,-977.37 719.43,-968.14 709.61,-972.11 714.23,-977.37"/>
</g>
<!-- Node6 -->
<g id="node6" class="node">
<title>Node6</title>
<g id="a_node6"><a xlink:href="classft_1_1irc_1_1bot__handler.html#aecb8db90a61c13e042161885226a2cae" target="_top" xlink:title=" ">
<polygon fill="white" stroke="black" points="523.5,-992.5 523.5,-1022.5 628.5,-1022.5 628.5,-992.5 523.5,-992.5"/>
<text text-anchor="start" x="531.5" y="-1010.5" font-family="Helvetica,sans-Serif" font-size="10.00">ft::irc::bot_handler</text>
<text text-anchor="middle" x="576" y="-999.5" font-family="Helvetica,sans-Serif" font-size="10.00">::on_inactive</text>
</a>
</g>
</g>
<!-- Node1&#45;&gt;Node6 -->
<g id="edge5" class="edge">
<title>Node1&#45;&gt;Node6</title>
<path fill="none" stroke="midnightblue" d="M690.56,-971.13C670.22,-977.64 645.28,-985.63 623.95,-992.46"/>
<polygon fill="midnightblue" stroke="midnightblue" points="691.68,-974.45 700.14,-968.06 689.55,-967.78 691.68,-974.45"/>
</g>
<!-- Node7 -->
<g id="node7" class="node">
<title>Node7</title>
<g id="a_node7"><a xlink:href="classft_1_1irc_1_1client__handler.html#a0ba3f1dea9ac297d7fd80844e2fb8827" target="_top" xlink:title=" ">
<polygon fill="white" stroke="black" points="518,-943.5 518,-973.5 634,-973.5 634,-943.5 518,-943.5"/>
<text text-anchor="start" x="526" y="-961.5" font-family="Helvetica,sans-Serif" font-size="10.00">ft::irc::client_handler</text>
<text text-anchor="middle" x="576" y="-950.5" font-family="Helvetica,sans-Serif" font-size="10.00">::on_inactive</text>
</a>
</g>
</g>
<!-- Node1&#45;&gt;Node7 -->
<g id="edge6" class="edge">
<title>Node1&#45;&gt;Node7</title>
<path fill="none" stroke="midnightblue" d="M659.7,-958.5C651.21,-958.5 642.62,-958.5 634.36,-958.5"/>
<polygon fill="midnightblue" stroke="midnightblue" points="659.97,-962 669.97,-958.5 659.97,-955 659.97,-962"/>
</g>
<!-- Node8 -->
<g id="node8" class="node">
<title>Node8</title>
<g id="a_node8"><a xlink:href="classft_1_1irc_1_1client__handler.html#a239d2ec2a936d74893455a83468669b3" target="_top" xlink:title=" ">
<polygon fill="white" stroke="black" points="156,-1058.5 156,-1088.5 272,-1088.5 272,-1058.5 156,-1058.5"/>
<text text-anchor="start" x="164" y="-1076.5" font-family="Helvetica,sans-Serif" font-size="10.00">ft::irc::client_handler</text>
<text text-anchor="middle" x="214" y="-1065.5" font-family="Helvetica,sans-Serif" font-size="10.00">::on_read</text>
</a>
</g>
</g>
<!-- Node1&#45;&gt;Node8 -->
<g id="edge7" class="edge">
<title>Node1&#45;&gt;Node8</title>
<path fill="none" stroke="midnightblue" d="M703.17,-944.46C659.34,-923.69 571.9,-891.62 518,-934.5 462.32,-978.8 537.68,-1046.2 482,-1090.5 414.21,-1144.43 303.49,-1110.76 248.36,-1088.5"/>
<polygon fill="midnightblue" stroke="midnightblue" points="701.81,-947.69 712.33,-948.94 704.88,-941.4 701.81,-947.69"/>
</g>
<!-- Node9 -->
<g id="node9" class="node">
<title>Node9</title>
<g id="a_node9"><a xlink:href="classft_1_1irc_1_1bot__handler.html#a0723185e483ae21fa0f2116ca05165fe" target="_top" xlink:title=" ">
<polygon fill="white" stroke="black" points="523.5,-587.5 523.5,-617.5 628.5,-617.5 628.5,-587.5 523.5,-587.5"/>
<text text-anchor="start" x="531.5" y="-605.5" font-family="Helvetica,sans-Serif" font-size="10.00">ft::irc::bot_handler</text>
<text text-anchor="middle" x="576" y="-594.5" font-family="Helvetica,sans-Serif" font-size="10.00">::on_read</text>
</a>
</g>
</g>
<!-- Node1&#45;&gt;Node9 -->
<g id="edge8" class="edge">
<title>Node1&#45;&gt;Node9</title>
<path fill="none" stroke="midnightblue" d="M729.82,-938.71C728.27,-882.79 716.48,-721.57 634,-627.5 630.65,-623.68 626.61,-620.42 622.25,-617.65"/>
<polygon fill="midnightblue" stroke="midnightblue" points="726.32,-938.78 730.01,-948.71 733.32,-938.65 726.32,-938.78"/>
</g>
<!-- Node10 -->
<g id="node10" class="node">
<title>Node10</title>
<g id="a_node10"><a xlink:href="classft_1_1irc_1_1bot__handler.html#ade7f7f56f6f75d9f88c5acb3b21595c0" target="_top" xlink:title=" ">
<polygon fill="white" stroke="black" points="519.5,-538.5 519.5,-568.5 632.5,-568.5 632.5,-538.5 519.5,-538.5"/>
<text text-anchor="start" x="527.5" y="-556.5" font-family="Helvetica,sans-Serif" font-size="10.00">ft::irc::bot_handler</text>
<text text-anchor="middle" x="576" y="-545.5" font-family="Helvetica,sans-Serif" font-size="10.00">::on_read_complete</text>
</a>
</g>
</g>
<!-- Node1&#45;&gt;Node10 -->
<g id="edge9" class="edge">
<title>Node1&#45;&gt;Node10</title>
<path fill="none" stroke="midnightblue" d="M730.72,-938.71C731.89,-877.51 727.34,-688.77 634,-578.5 630.72,-574.62 626.72,-571.33 622.38,-568.53"/>
<polygon fill="midnightblue" stroke="midnightblue" points="727.22,-938.81 730.45,-948.9 734.22,-939 727.22,-938.81"/>
</g>
<!-- Node11 -->
<g id="node11" class="node">
<title>Node11</title>
<g id="a_node11"><a xlink:href="classft_1_1irc_1_1client__handler.html#a843168d000d5190f84860c4d2ae09eea" target="_top" xlink:title=" ">
<polygon fill="white" stroke="black" points="518,-489.5 518,-519.5 634,-519.5 634,-489.5 518,-489.5"/>
<text text-anchor="start" x="526" y="-507.5" font-family="Helvetica,sans-Serif" font-size="10.00">ft::irc::client_handler</text>
<text text-anchor="middle" x="576" y="-496.5" font-family="Helvetica,sans-Serif" font-size="10.00">::on_read_complete</text>
</a>
</g>
</g>
<!-- Node1&#45;&gt;Node11 -->
<g id="edge10" class="edge">
<title>Node1&#45;&gt;Node11</title>
<path fill="none" stroke="midnightblue" d="M727.97,-938.99C719.82,-863.87 687.29,-594.23 634,-529.5 630.84,-525.66 626.98,-522.4 622.76,-519.62"/>
<polygon fill="midnightblue" stroke="midnightblue" points="724.5,-939.4 729.04,-948.97 731.46,-938.66 724.5,-939.4"/>
</g>
<!-- Node12 -->
<g id="node12" class="node">
<title>Node12</title>
<g id="a_node12"><a xlink:href="classft_1_1irc_1_1user.html#a1db558d6d694ca943224c2440fe36c50" target="_top" xlink:title=" ">
<polygon fill="white" stroke="black" points="527,-636.5 527,-666.5 625,-666.5 625,-636.5 527,-636.5"/>
<text text-anchor="start" x="535" y="-654.5" font-family="Helvetica,sans-Serif" font-size="10.00">ft::irc::user::send</text>
<text text-anchor="middle" x="576" y="-643.5" font-family="Helvetica,sans-Serif" font-size="10.00">_message</text>
</a>
</g>
</g>
<!-- Node1&#45;&gt;Node12 -->
<g id="edge11" class="edge">
<title>Node1&#45;&gt;Node12</title>
<path fill="none" stroke="midnightblue" d="M720.71,-939.85C692.79,-883.84 610.05,-717.82 584.56,-666.67"/>
<polygon fill="midnightblue" stroke="midnightblue" points="717.66,-941.59 725.25,-948.98 723.93,-938.46 717.66,-941.59"/>
</g>
<!-- Node13 -->
<g id="node13" class="node">
<title>Node13</title>
<g id="a_node13"><a xlink:href="classft_1_1irc_1_1server.html#a773440405607167a9478a54fd8ab90f3" target="_top" xlink:title=" ">
<polygon fill="white" stroke="black" points="333,-974 333,-993 482,-993 482,-974 333,-974"/>
<text text-anchor="middle" x="407.5" y="-981" font-family="Helvetica,sans-Serif" font-size="10.00">ft::irc::server::broadcast_all</text>
</a>
</g>
</g>
<!-- Node12&#45;&gt;Node13 -->
<g id="edge12" class="edge">
<title>Node12&#45;&gt;Node13</title>
<path fill="none" stroke="midnightblue" d="M570.52,-676.51C558.27,-742.34 522.41,-918.17 482,-959.5 475.81,-965.83 467.92,-970.5 459.63,-973.93"/>
<polygon fill="midnightblue" stroke="midnightblue" points="573.98,-677.05 572.34,-666.58 567.1,-675.79 573.98,-677.05"/>
</g>
<!-- Node14 -->
<g id="node14" class="node">
<title>Node14</title>
<g id="a_node14"><a xlink:href="classft_1_1irc_1_1processor__oper.html#a941691cbab81d134cb4ffc30bd270d04" target="_top" xlink:title=" ">
<polygon fill="white" stroke="black" points="166.5,-998.5 166.5,-1028.5 261.5,-1028.5 261.5,-998.5 166.5,-998.5"/>
<text text-anchor="start" x="174.5" y="-1016.5" font-family="Helvetica,sans-Serif" font-size="10.00">ft::irc::processor</text>
<text text-anchor="middle" x="214" y="-1005.5" font-family="Helvetica,sans-Serif" font-size="10.00">_oper::execute</text>
</a>
</g>
</g>
<!-- Node12&#45;&gt;Node14 -->
<g id="edge31" class="edge">
<title>Node12&#45;&gt;Node14</title>
<path fill="none" stroke="midnightblue" d="M569.24,-676.48C551.02,-754.96 495.12,-991.97 482,-1002.5 419.5,-1052.67 319.77,-1040.14 261.52,-1026.69"/>
<polygon fill="midnightblue" stroke="midnightblue" points="572.7,-677.03 571.55,-666.5 565.88,-675.45 572.7,-677.03"/>
</g>
<!-- Node15 -->
<g id="node15" class="node">
<title>Node15</title>
<g id="a_node15"><a xlink:href="classft_1_1irc_1_1processor__dictionary.html#a50bd8e9f89f6f6a911f5495272cd7d41" target="_top" xlink:title=" ">
<polygon fill="white" stroke="black" points="350.5,-1050.5 350.5,-1080.5 464.5,-1080.5 464.5,-1050.5 350.5,-1050.5"/>
<text text-anchor="start" x="358.5" y="-1068.5" font-family="Helvetica,sans-Serif" font-size="10.00">ft::irc::processor</text>
<text text-anchor="middle" x="407.5" y="-1057.5" font-family="Helvetica,sans-Serif" font-size="10.00">_dictionary::execute</text>
</a>
</g>
</g>
<!-- Node12&#45;&gt;Node15 -->
<g id="edge14" class="edge">
<title>Node12&#45;&gt;Node15</title>
<path fill="none" stroke="midnightblue" d="M569.22,-676.7C549.84,-761.04 488.03,-1028.49 482,-1035.5 476.7,-1041.66 469.93,-1046.58 462.67,-1050.5"/>
<polygon fill="midnightblue" stroke="midnightblue" points="572.69,-677.24 571.52,-666.71 565.87,-675.67 572.69,-677.24"/>
</g>
<!-- Node16 -->
<g id="node16" class="node">
<title>Node16</title>
<g id="a_node16"><a xlink:href="classft_1_1irc_1_1processor__join.html#a7005b0403c1e6e10aa6f6f05339df357" target="_top" xlink:title=" ">
<polygon fill="white" stroke="black" points="166.5,-930.5 166.5,-960.5 261.5,-960.5 261.5,-930.5 166.5,-930.5"/>
<text text-anchor="start" x="174.5" y="-948.5" font-family="Helvetica,sans-Serif" font-size="10.00">ft::irc::processor</text>
<text text-anchor="middle" x="214" y="-937.5" font-family="Helvetica,sans-Serif" font-size="10.00">_join::execute</text>
</a>
</g>
</g>
<!-- Node12&#45;&gt;Node16 -->
<g id="edge16" class="edge">
<title>Node12&#45;&gt;Node16</title>
<path fill="none" stroke="midnightblue" d="M575.04,-676.63C573.62,-732.11 561.64,-864.97 482,-926.5 448.72,-952.21 329.03,-951.07 261.75,-948.18"/>
<polygon fill="midnightblue" stroke="midnightblue" points="578.54,-676.67 575.2,-666.61 571.54,-676.56 578.54,-676.67"/>
</g>
<!-- Node17 -->
<g id="node17" class="node">
<title>Node17</title>
<g id="a_node17"><a xlink:href="classft_1_1irc_1_1processor__part.html#a4075107cb360cd04c0a11a9904104ad0" target="_top" xlink:title=" ">
<polygon fill="white" stroke="black" points="360,-837.5 360,-867.5 455,-867.5 455,-837.5 360,-837.5"/>
<text text-anchor="start" x="368" y="-855.5" font-family="Helvetica,sans-Serif" font-size="10.00">ft::irc::processor</text>
<text text-anchor="middle" x="407.5" y="-844.5" font-family="Helvetica,sans-Serif" font-size="10.00">_part::execute</text>
</a>
</g>
</g>
<!-- Node12&#45;&gt;Node17 -->
<g id="edge17" class="edge">
<title>Node12&#45;&gt;Node17</title>
<path fill="none" stroke="midnightblue" d="M567.3,-676.91C554.95,-713.71 527.38,-781.88 482,-822.5 474.3,-829.39 464.8,-834.82 455.22,-839.05"/>
<polygon fill="midnightblue" stroke="midnightblue" points="570.77,-677.58 570.52,-666.98 564.11,-675.42 570.77,-677.58"/>
</g>
<!-- Node18 -->
<g id="node18" class="node">
<title>Node18</title>
<g id="a_node18"><a xlink:href="classft_1_1irc_1_1processor__mode.html#ad013987a789be47379c13f61364135a6" target="_top" xlink:title=" ">
<polygon fill="white" stroke="black" points="0,-749.5 0,-779.5 95,-779.5 95,-749.5 0,-749.5"/>
<text text-anchor="start" x="8" y="-767.5" font-family="Helvetica,sans-Serif" font-size="10.00">ft::irc::processor</text>
<text text-anchor="middle" x="47.5" y="-756.5" font-family="Helvetica,sans-Serif" font-size="10.00">_mode::execute</text>
</a>
</g>
</g>
<!-- Node12&#45;&gt;Node18 -->
<g id="edge18" class="edge">
<title>Node12&#45;&gt;Node18</title>
<path fill="none" stroke="midnightblue" d="M566.57,-676.53C554,-709.38 526.88,-765.62 482,-789.5 351.72,-858.81 167.21,-807.5 87.58,-779.52"/>
<polygon fill="midnightblue" stroke="midnightblue" points="570,-677.36 570.15,-666.77 563.42,-674.95 570,-677.36"/>
</g>
<!-- Node19 -->
<g id="node19" class="node">
<title>Node19</title>
<g id="a_node19"><a xlink:href="classft_1_1irc_1_1processor__topic.html#ae4eec2a7267b66791a72bbab1d4842c0" target="_top" xlink:title=" ">
<polygon fill="white" stroke="black" points="360,-661.5 360,-691.5 455,-691.5 455,-661.5 360,-661.5"/>
<text text-anchor="start" x="368" y="-679.5" font-family="Helvetica,sans-Serif" font-size="10.00">ft::irc::processor</text>
<text text-anchor="middle" x="407.5" y="-668.5" font-family="Helvetica,sans-Serif" font-size="10.00">_topic::execute</text>
</a>
</g>
</g>
<!-- Node12&#45;&gt;Node19 -->
<g id="edge19" class="edge">
<title>Node12&#45;&gt;Node19</title>
<path fill="none" stroke="midnightblue" d="M516.82,-660.24C496.62,-663.27 474.26,-666.63 455.12,-669.5"/>
<polygon fill="midnightblue" stroke="midnightblue" points="517.47,-663.68 526.84,-658.73 516.43,-656.75 517.47,-663.68"/>
</g>
<!-- Node20 -->
<g id="node20" class="node">
<title>Node20</title>
<g id="a_node20"><a xlink:href="classft_1_1irc_1_1processor__invite.html#a558fbe35293f4a0783af9a50f7146eeb" target="_top" xlink:title=" ">
<polygon fill="white" stroke="black" points="360,-612.5 360,-642.5 455,-642.5 455,-612.5 360,-612.5"/>
<text text-anchor="start" x="368" y="-630.5" font-family="Helvetica,sans-Serif" font-size="10.00">ft::irc::processor</text>
<text text-anchor="middle" x="407.5" y="-619.5" font-family="Helvetica,sans-Serif" font-size="10.00">_invite::execute</text>
</a>
</g>
</g>
<!-- Node12&#45;&gt;Node20 -->
<g id="edge20" class="edge">
<title>Node12&#45;&gt;Node20</title>
<path fill="none" stroke="midnightblue" d="M516.82,-643.11C496.62,-640.2 474.26,-636.98 455.12,-634.22"/>
<polygon fill="midnightblue" stroke="midnightblue" points="516.44,-646.6 526.84,-644.56 517.44,-639.67 516.44,-646.6"/>
</g>
<!-- Node21 -->
<g id="node21" class="node">
<title>Node21</title>
<g id="a_node21"><a xlink:href="classft_1_1irc_1_1processor__kick.html#ac453ac8376e577bb0a2b4f074fe9be1b" target="_top" xlink:title=" ">
<polygon fill="white" stroke="black" points="360,-563.5 360,-593.5 455,-593.5 455,-563.5 360,-563.5"/>
<text text-anchor="start" x="368" y="-581.5" font-family="Helvetica,sans-Serif" font-size="10.00">ft::irc::processor</text>
<text text-anchor="middle" x="407.5" y="-570.5" font-family="Helvetica,sans-Serif" font-size="10.00">_kick::execute</text>
</a>
</g>
</g>
<!-- Node12&#45;&gt;Node21 -->
<g id="edge21" class="edge">
<title>Node12&#45;&gt;Node21</title>
<path fill="none" stroke="midnightblue" d="M527.39,-632.26C524.18,-630.72 521.02,-629.13 518,-627.5 501.06,-618.39 499.25,-612 482,-603.5 473.54,-599.33 464.21,-595.57 455.12,-592.31"/>
<polygon fill="midnightblue" stroke="midnightblue" points="525.97,-635.46 536.51,-636.47 528.9,-629.1 525.97,-635.46"/>
</g>
<!-- Node22 -->
<g id="node22" class="node">
<title>Node22</title>
<g id="a_node22"><a xlink:href="classft_1_1irc_1_1processor__ping.html#a4402a5267561a504a1fb35b233fa63e5" target="_top" xlink:title=" ">
<polygon fill="white" stroke="black" points="360,-514.5 360,-544.5 455,-544.5 455,-514.5 360,-514.5"/>
<text text-anchor="start" x="368" y="-532.5" font-family="Helvetica,sans-Serif" font-size="10.00">ft::irc::processor</text>
<text text-anchor="middle" x="407.5" y="-521.5" font-family="Helvetica,sans-Serif" font-size="10.00">_ping::execute</text>
</a>
</g>
</g>
<!-- Node12&#45;&gt;Node22 -->
<g id="edge22" class="edge">
<title>Node12&#45;&gt;Node22</title>
<path fill="none" stroke="midnightblue" d="M521.52,-630.55C520.3,-629.57 519.12,-628.56 518,-627.5 491.67,-602.69 509.19,-578.36 482,-554.5 474.4,-547.83 464.95,-542.93 455.38,-539.32"/>
<polygon fill="midnightblue" stroke="midnightblue" points="519.88,-633.66 530.12,-636.38 523.81,-627.87 519.88,-633.66"/>
</g>
<!-- Node23 -->
<g id="node23" class="node">
<title>Node23</title>
<g id="a_node23"><a xlink:href="classft_1_1irc_1_1processor__kill.html#a3f41c93c4c3a85ccb4b034c5a185208a" target="_top" xlink:title=" ">
<polygon fill="white" stroke="black" points="360,-465.5 360,-495.5 455,-495.5 455,-465.5 360,-465.5"/>
<text text-anchor="start" x="368" y="-483.5" font-family="Helvetica,sans-Serif" font-size="10.00">ft::irc::processor</text>
<text text-anchor="middle" x="407.5" y="-472.5" font-family="Helvetica,sans-Serif" font-size="10.00">_kill::execute</text>
</a>
</g>
</g>
<!-- Node12&#45;&gt;Node23 -->
<g id="edge23" class="edge">
<title>Node12&#45;&gt;Node23</title>
<path fill="none" stroke="midnightblue" d="M520.73,-630.29C519.78,-629.4 518.87,-628.47 518,-627.5 480.32,-585.36 521.15,-546.28 482,-505.5 474.72,-497.92 465.05,-492.63 455.13,-488.95"/>
<polygon fill="midnightblue" stroke="midnightblue" points="518.63,-633.09 528.68,-636.45 522.92,-627.56 518.63,-633.09"/>
</g>
<!-- Node24 -->
<g id="node24" class="node">
<title>Node24</title>
<g id="a_node24"><a xlink:href="classft_1_1irc_1_1processor__away.html#aa27e728b610738f26ae7264183da2808" target="_top" xlink:title=" ">
<polygon fill="white" stroke="black" points="360,-416.5 360,-446.5 455,-446.5 455,-416.5 360,-416.5"/>
<text text-anchor="start" x="368" y="-434.5" font-family="Helvetica,sans-Serif" font-size="10.00">ft::irc::processor</text>
<text text-anchor="middle" x="407.5" y="-423.5" font-family="Helvetica,sans-Serif" font-size="10.00">_away::execute</text>
</a>
</g>
</g>
<!-- Node12&#45;&gt;Node24 -->
<g id="edge24" class="edge">
<title>Node12&#45;&gt;Node24</title>
<path fill="none" stroke="midnightblue" d="M519.92,-629.66C519.25,-628.96 518.61,-628.24 518,-627.5 468.57,-567.59 533.52,-514.62 482,-456.5 474.94,-448.53 465.23,-443.1 455.19,-439.4"/>
<polygon fill="midnightblue" stroke="midnightblue" points="517.94,-632.57 527.85,-636.33 522.45,-627.22 517.94,-632.57"/>
</g>
<!-- Node25 -->
<g id="node25" class="node">
<title>Node25</title>
<g id="a_node25"><a xlink:href="classft_1_1irc_1_1processor__cap.html#a4998cdde699dff092c9437b7416fdd14" target="_top" xlink:title=" ">
<polygon fill="white" stroke="black" points="360,-367.5 360,-397.5 455,-397.5 455,-367.5 360,-367.5"/>
<text text-anchor="start" x="368" y="-385.5" font-family="Helvetica,sans-Serif" font-size="10.00">ft::irc::processor</text>
<text text-anchor="middle" x="407.5" y="-374.5" font-family="Helvetica,sans-Serif" font-size="10.00">_cap::execute</text>
</a>
</g>
</g>
<!-- Node12&#45;&gt;Node25 -->
<g id="edge25" class="edge">
<title>Node12&#45;&gt;Node25</title>
<path fill="none" stroke="midnightblue" d="M519.87,-629.7C519.22,-628.99 518.6,-628.26 518,-627.5 456.69,-549.67 546.02,-483.12 482,-407.5 475.03,-399.27 465.24,-393.74 455.07,-390.03"/>
<polygon fill="midnightblue" stroke="midnightblue" points="517.83,-632.57 527.68,-636.47 522.42,-627.27 517.83,-632.57"/>
</g>
<!-- Node26 -->
<g id="node26" class="node">
<title>Node26</title>
<g id="a_node26"><a xlink:href="classft_1_1irc_1_1processor__who.html#afb5ab4f978577c99dc8d5f3ad0333940" target="_top" xlink:title=" ">
<polygon fill="white" stroke="black" points="360,-318.5 360,-348.5 455,-348.5 455,-318.5 360,-318.5"/>
<text text-anchor="start" x="368" y="-336.5" font-family="Helvetica,sans-Serif" font-size="10.00">ft::irc::processor</text>
<text text-anchor="middle" x="407.5" y="-325.5" font-family="Helvetica,sans-Serif" font-size="10.00">_who::execute</text>
</a>
</g>
</g>
<!-- Node12&#45;&gt;Node26 -->
<g id="edge26" class="edge">
<title>Node12&#45;&gt;Node26</title>
<path fill="none" stroke="midnightblue" d="M519.79,-629.67C519.17,-628.97 518.57,-628.25 518,-627.5 444.75,-531.67 558.59,-451.68 482,-358.5 475.15,-350.17 465.41,-344.6 455.24,-340.89"/>
<polygon fill="midnightblue" stroke="midnightblue" points="517.51,-632.33 527.31,-636.36 522.17,-627.1 517.51,-632.33"/>
</g>
<!-- Node27 -->
<g id="node27" class="node">
<title>Node27</title>
<g id="a_node27"><a xlink:href="classft_1_1irc_1_1processor__whois.html#ab3ab1120535d17e7fb21f01fd8bad8fd" target="_top" xlink:title=" ">
<polygon fill="white" stroke="black" points="360,-269.5 360,-299.5 455,-299.5 455,-269.5 360,-269.5"/>
<text text-anchor="start" x="368" y="-287.5" font-family="Helvetica,sans-Serif" font-size="10.00">ft::irc::processor</text>
<text text-anchor="middle" x="407.5" y="-276.5" font-family="Helvetica,sans-Serif" font-size="10.00">_whois::execute</text>
</a>
</g>
</g>
<!-- Node12&#45;&gt;Node27 -->
<g id="edge27" class="edge">
<title>Node12&#45;&gt;Node27</title>
<path fill="none" stroke="midnightblue" d="M519.77,-629.69C519.15,-628.98 518.56,-628.25 518,-627.5 432.77,-513.63 571.2,-420.29 482,-309.5 475.24,-301.1 465.52,-295.51 455.36,-291.79"/>
<polygon fill="midnightblue" stroke="midnightblue" points="517.47,-632.32 527.24,-636.42 522.15,-627.12 517.47,-632.32"/>
</g>
<!-- Node28 -->
<g id="node28" class="node">
<title>Node28</title>
<g id="a_node28"><a xlink:href="classft_1_1irc_1_1processor__pass.html#a8b0f8638123bb81ce8f4e493e43b45a0" target="_top" xlink:title=" ">
<polygon fill="white" stroke="black" points="360,-220.5 360,-250.5 455,-250.5 455,-220.5 360,-220.5"/>
<text text-anchor="start" x="368" y="-238.5" font-family="Helvetica,sans-Serif" font-size="10.00">ft::irc::processor</text>
<text text-anchor="middle" x="407.5" y="-227.5" font-family="Helvetica,sans-Serif" font-size="10.00">_pass::execute</text>
</a>
</g>
</g>
<!-- Node12&#45;&gt;Node28 -->
<g id="edge28" class="edge">
<title>Node12&#45;&gt;Node28</title>
<path fill="none" stroke="midnightblue" d="M519.75,-629.7C519.14,-628.99 518.56,-628.26 518,-627.5 420.78,-495.56 583.82,-388.93 482,-260.5 475.22,-251.95 465.37,-246.3 455.07,-242.58"/>
<polygon fill="midnightblue" stroke="midnightblue" points="517.43,-632.32 527.18,-636.46 522.14,-627.14 517.43,-632.32"/>
</g>
<!-- Node29 -->
<g id="node29" class="node">
<title>Node29</title>
<g id="a_node29"><a xlink:href="classft_1_1irc_1_1processor__nick.html#a7a2f0f709488328c04b6ccf0c41ce78e" target="_top" xlink:title=" ">
<polygon fill="white" stroke="black" points="0,-157.5 0,-187.5 95,-187.5 95,-157.5 0,-157.5"/>
<text text-anchor="start" x="8" y="-175.5" font-family="Helvetica,sans-Serif" font-size="10.00">ft::irc::processor</text>
<text text-anchor="middle" x="47.5" y="-164.5" font-family="Helvetica,sans-Serif" font-size="10.00">_nick::execute</text>
</a>
</g>
</g>
<!-- Node12&#45;&gt;Node29 -->
<g id="edge29" class="edge">
<title>Node12&#45;&gt;Node29</title>
<path fill="none" stroke="midnightblue" d="M519.74,-629.71C519.13,-629 518.55,-628.26 518,-627.5 463.39,-552.48 547.5,-277.22 482,-211.5 455.1,-184.5 201.36,-175.84 95.03,-173.37"/>
<polygon fill="midnightblue" stroke="midnightblue" points="517.4,-632.31 527.14,-636.49 522.13,-627.15 517.4,-632.31"/>
</g>
<!-- Node30 -->
<g id="node30" class="node">
<title>Node30</title>
<g id="a_node30"><a xlink:href="classft_1_1irc_1_1processor__user.html#aa42b3fdd743060d5f9afaaff5e46e28f" target="_top" xlink:title=" ">
<polygon fill="white" stroke="black" points="0,-98.5 0,-128.5 95,-128.5 95,-98.5 0,-98.5"/>
<text text-anchor="start" x="8" y="-116.5" font-family="Helvetica,sans-Serif" font-size="10.00">ft::irc::processor</text>
<text text-anchor="middle" x="47.5" y="-105.5" font-family="Helvetica,sans-Serif" font-size="10.00">_user::execute</text>
</a>
</g>
</g>
<!-- Node12&#45;&gt;Node30 -->
<g id="edge30" class="edge">
<title>Node12&#45;&gt;Node30</title>
<path fill="none" stroke="midnightblue" d="M519.43,-629.36C518.94,-628.76 518.46,-628.14 518,-627.5 452.59,-536.23 563.29,-200.96 482,-123.5 427.77,-71.83 195.9,-94.45 95.34,-107.08"/>
<polygon fill="midnightblue" stroke="midnightblue" points="517.15,-632.02 526.82,-636.34 521.95,-626.93 517.15,-632.02"/>
</g>
<!-- Node31 -->
<g id="node31" class="node">
<title>Node31</title>
<g id="a_node31"><a xlink:href="classft_1_1irc_1_1processor__message__base.html#ab3fba6f27483543b9c7a559fd2e1402b" target="_top" xlink:title=" ">
<polygon fill="white" stroke="black" points="338,-44.5 338,-74.5 477,-74.5 477,-44.5 338,-44.5"/>
<text text-anchor="start" x="346" y="-62.5" font-family="Helvetica,sans-Serif" font-size="10.00">ft::irc::processor</text>
<text text-anchor="middle" x="407.5" y="-51.5" font-family="Helvetica,sans-Serif" font-size="10.00">_message_base::execute</text>
</a>
</g>
</g>
<!-- Node12&#45;&gt;Node31 -->
<g id="edge32" class="edge">
<title>Node12&#45;&gt;Node31</title>
<path fill="none" stroke="midnightblue" d="M519.43,-629.37C518.93,-628.76 518.46,-628.14 518,-627.5 448.42,-529.95 552.11,-186.67 482,-89.5 477.56,-83.35 471.64,-78.46 465.08,-74.57"/>
<polygon fill="midnightblue" stroke="midnightblue" points="517.14,-632.02 526.81,-636.35 521.95,-626.93 517.14,-632.02"/>
</g>
<!-- Node32 -->
<g id="node32" class="node">
<title>Node32</title>
<g id="a_node32"><a xlink:href="classft_1_1irc_1_1channel.html#a058c359633e6e7b0029b2feedd6320bf" target="_top" xlink:title=" ">
<polygon fill="white" stroke="black" points="350,-749.5 350,-779.5 465,-779.5 465,-749.5 350,-749.5"/>
<text text-anchor="start" x="358" y="-767.5" font-family="Helvetica,sans-Serif" font-size="10.00">ft::irc::channel::send</text>
<text text-anchor="middle" x="407.5" y="-756.5" font-family="Helvetica,sans-Serif" font-size="10.00">_ban_list</text>
</a>
</g>
</g>
<!-- Node12&#45;&gt;Node32 -->
<g id="edge33" class="edge">
<title>Node12&#45;&gt;Node32</title>
<path fill="none" stroke="midnightblue" d="M554.09,-674.02C536.28,-692.19 509.31,-717.45 482,-734.5 472.88,-740.19 462.5,-745.2 452.46,-749.41"/>
<polygon fill="midnightblue" stroke="midnightblue" points="556.71,-676.34 561.13,-666.71 551.67,-671.48 556.71,-676.34"/>
</g>
<!-- Node34 -->
<g id="node34" class="node">
<title>Node34</title>
<g id="a_node34"><a xlink:href="classft_1_1irc_1_1server.html#a3f4e06d5a9cf57441582f77b95f87135" target="_top" xlink:title=" ">
<polygon fill="white" stroke="black" points="343.5,-6 343.5,-25 471.5,-25 471.5,-6 343.5,-6"/>
<text text-anchor="middle" x="407.5" y="-13" font-family="Helvetica,sans-Serif" font-size="10.00">ft::irc::server::send_list</text>
</a>
</g>
</g>
<!-- Node12&#45;&gt;Node34 -->
<g id="edge36" class="edge">
<title>Node12&#45;&gt;Node34</title>
<path fill="none" stroke="midnightblue" d="M519.42,-629.37C518.93,-628.76 518.45,-628.14 518,-627.5 441.67,-519.78 565.96,-136.38 482,-34.5 478.9,-30.74 475.16,-27.66 471.03,-25.16"/>
<polygon fill="midnightblue" stroke="midnightblue" points="517.12,-632.02 526.78,-636.37 521.95,-626.94 517.12,-632.02"/>
</g>
<!-- Node36 -->
<g id="node36" class="node">
<title>Node36</title>
<g id="a_node36"><a xlink:href="classft_1_1irc_1_1channel.html#a5b005d44090820196503e46e45724a51" target="_top" xlink:title=" ">
<polygon fill="white" stroke="black" points="350,-886.5 350,-916.5 465,-916.5 465,-886.5 350,-886.5"/>
<text text-anchor="start" x="358" y="-904.5" font-family="Helvetica,sans-Serif" font-size="10.00">ft::irc::channel::send</text>
<text text-anchor="middle" x="407.5" y="-893.5" font-family="Helvetica,sans-Serif" font-size="10.00">_names</text>
</a>
</g>
</g>
<!-- Node12&#45;&gt;Node36 -->
<g id="edge38" class="edge">
<title>Node12&#45;&gt;Node36</title>
<path fill="none" stroke="midnightblue" d="M571.62,-676.69C564.09,-723.05 541.6,-822.2 482,-877.5 477.08,-882.07 471.28,-885.76 465.13,-888.76"/>
<polygon fill="midnightblue" stroke="midnightblue" points="575.11,-677.02 573.16,-666.6 568.19,-675.96 575.11,-677.02"/>
</g>
<!-- Node38 -->
<g id="node38" class="node">
<title>Node38</title>
<g id="a_node38"><a xlink:href="classft_1_1irc_1_1server.html#a5ecd192da409f6740de44ea8cb3b44cf" target="_top" xlink:title=" ">
<polygon fill="white" stroke="black" points="354,-132.5 354,-162.5 461,-162.5 461,-132.5 354,-132.5"/>
<text text-anchor="start" x="362" y="-150.5" font-family="Helvetica,sans-Serif" font-size="10.00">ft::irc::server::send</text>
<text text-anchor="middle" x="407.5" y="-139.5" font-family="Helvetica,sans-Serif" font-size="10.00">_welcome</text>
</a>
</g>
</g>
<!-- Node12&#45;&gt;Node38 -->
<g id="edge41" class="edge">
<title>Node12&#45;&gt;Node38</title>
<path fill="none" stroke="midnightblue" d="M519.44,-629.36C518.94,-628.76 518.46,-628.14 518,-627.5 459.22,-546.21 541.23,-258.47 482,-177.5 476.71,-170.27 469.37,-164.78 461.36,-160.61"/>
<polygon fill="midnightblue" stroke="midnightblue" points="517.17,-632.03 526.85,-636.32 521.96,-626.92 517.17,-632.03"/>
</g>
<!-- Node40 -->
<g id="node40" class="node">
<title>Node40</title>
<g id="a_node40"><a xlink:href="classft_1_1irc_1_1processor__mode.html#a4447a4030b15157ccecfe992192de4b5" target="_top" xlink:title=" ">
<polygon fill="white" stroke="black" points="139.5,-700.5 139.5,-730.5 288.5,-730.5 288.5,-700.5 139.5,-700.5"/>
<text text-anchor="start" x="147.5" y="-718.5" font-family="Helvetica,sans-Serif" font-size="10.00">ft::irc::processor</text>
<text text-anchor="middle" x="214" y="-707.5" font-family="Helvetica,sans-Serif" font-size="10.00">_mode::update_user_mode</text>
</a>
</g>
</g>
<!-- Node12&#45;&gt;Node40 -->
<g id="edge45" class="edge">
<title>Node12&#45;&gt;Node40</title>
<path fill="none" stroke="midnightblue" d="M544.99,-672.04C527.44,-682.89 504.4,-695.23 482,-701.5 418.41,-719.29 343.05,-721.63 288.64,-720.2"/>
<polygon fill="midnightblue" stroke="midnightblue" points="547.07,-674.87 553.63,-666.55 543.31,-668.96 547.07,-674.87"/>
</g>
<!-- Node13&#45;&gt;Node14 -->
<g id="edge13" class="edge">
<title>Node13&#45;&gt;Node14</title>
<path fill="none" stroke="midnightblue" d="M335.61,-994.61C310.95,-998.47 283.92,-1002.7 261.72,-1006.18"/>
<polygon fill="midnightblue" stroke="midnightblue" points="336.31,-998.04 345.65,-993.03 335.22,-991.12 336.31,-998.04"/>
</g>
<!-- Node15&#45;&gt;Node8 -->
<g id="edge15" class="edge">
<title>Node15&#45;&gt;Node8</title>
<path fill="none" stroke="midnightblue" d="M340.33,-1068.26C318.14,-1069.19 293.6,-1070.22 272.16,-1071.11"/>
<polygon fill="midnightblue" stroke="midnightblue" points="340.49,-1071.76 350.34,-1067.85 340.2,-1064.77 340.49,-1071.76"/>
</g>
<!-- Node33 -->
<g id="node33" class="node">
<title>Node33</title>
<g id="a_node33"><a xlink:href="classft_1_1irc_1_1processor__mode.html#a78f0436f90fe62dc8e35152d98eff680" target="_top" xlink:title=" ">
<polygon fill="white" stroke="black" points="131,-749.5 131,-779.5 297,-779.5 297,-749.5 131,-749.5"/>
<text text-anchor="start" x="139" y="-767.5" font-family="Helvetica,sans-Serif" font-size="10.00">ft::irc::processor</text>
<text text-anchor="middle" x="214" y="-756.5" font-family="Helvetica,sans-Serif" font-size="10.00">_mode::update_channel_mode</text>
</a>
</g>
</g>
<!-- Node32&#45;&gt;Node33 -->
<g id="edge34" class="edge">
<title>Node32&#45;&gt;Node33</title>
<path fill="none" stroke="midnightblue" d="M339.53,-764.5C325.82,-764.5 311.24,-764.5 297.08,-764.5"/>
<polygon fill="midnightblue" stroke="midnightblue" points="339.82,-768 349.82,-764.5 339.82,-761 339.82,-768"/>
</g>
<!-- Node33&#45;&gt;Node18 -->
<g id="edge35" class="edge">
<title>Node33&#45;&gt;Node18</title>
<path fill="none" stroke="midnightblue" d="M120.47,-764.5C111.76,-764.5 103.2,-764.5 95.2,-764.5"/>
<polygon fill="midnightblue" stroke="midnightblue" points="120.75,-768 130.75,-764.5 120.75,-761 120.75,-768"/>
</g>
<!-- Node35 -->
<g id="node35" class="node">
<title>Node35</title>
<g id="a_node35"><a xlink:href="classft_1_1irc_1_1processor__list.html#aa4ed52d03d87a5f03d9c6d2e53e0409b" target="_top" xlink:title=" ">
<polygon fill="white" stroke="black" points="166.5,-0.5 166.5,-30.5 261.5,-30.5 261.5,-0.5 166.5,-0.5"/>
<text text-anchor="start" x="174.5" y="-18.5" font-family="Helvetica,sans-Serif" font-size="10.00">ft::irc::processor</text>
<text text-anchor="middle" x="214" y="-7.5" font-family="Helvetica,sans-Serif" font-size="10.00">_list::execute</text>
</a>
</g>
</g>
<!-- Node34&#45;&gt;Node35 -->
<g id="edge37" class="edge">
<title>Node34&#45;&gt;Node35</title>
<path fill="none" stroke="midnightblue" d="M333.14,-15.5C309.18,-15.5 283.24,-15.5 261.79,-15.5"/>
<polygon fill="midnightblue" stroke="midnightblue" points="333.27,-19 343.27,-15.5 333.26,-12 333.27,-19"/>
</g>
<!-- Node36&#45;&gt;Node16 -->
<g id="edge39" class="edge">
<title>Node36&#45;&gt;Node16</title>
<path fill="none" stroke="midnightblue" d="M340.07,-916.76C314.18,-922.71 285.13,-929.39 261.55,-934.81"/>
<polygon fill="midnightblue" stroke="midnightblue" points="340.86,-920.17 349.82,-914.52 339.29,-913.35 340.86,-920.17"/>
</g>
<!-- Node37 -->
<g id="node37" class="node">
<title>Node37</title>
<g id="a_node37"><a xlink:href="classft_1_1irc_1_1processor__names.html#a95f660c1020ac7f26cceacd932f48f09" target="_top" xlink:title=" ">
<polygon fill="white" stroke="black" points="164.5,-881.5 164.5,-911.5 263.5,-911.5 263.5,-881.5 164.5,-881.5"/>
<text text-anchor="start" x="172.5" y="-899.5" font-family="Helvetica,sans-Serif" font-size="10.00">ft::irc::processor</text>
<text text-anchor="middle" x="214" y="-888.5" font-family="Helvetica,sans-Serif" font-size="10.00">_names::execute</text>
</a>
</g>
</g>
<!-- Node36&#45;&gt;Node37 -->
<g id="edge40" class="edge">
<title>Node36&#45;&gt;Node37</title>
<path fill="none" stroke="midnightblue" d="M339.68,-899.76C314.69,-899.1 286.81,-898.37 263.75,-897.77"/>
<polygon fill="midnightblue" stroke="midnightblue" points="339.73,-903.26 349.82,-900.02 339.92,-896.26 339.73,-903.26"/>
</g>
<!-- Node39 -->
<g id="node39" class="node">
<title>Node39</title>
<g id="a_node39"><a xlink:href="classft_1_1irc_1_1user.html#affa6016f0c81205cd3c60ea6e9706132" target="_top" xlink:title=" ">
<polygon fill="white" stroke="black" points="158,-132.5 158,-162.5 270,-162.5 270,-132.5 158,-132.5"/>
<text text-anchor="start" x="166" y="-150.5" font-family="Helvetica,sans-Serif" font-size="10.00">ft::irc::user::register</text>
<text text-anchor="middle" x="214" y="-139.5" font-family="Helvetica,sans-Serif" font-size="10.00">_to_server</text>
</a>
</g>
</g>
<!-- Node38&#45;&gt;Node39 -->
<g id="edge42" class="edge">
<title>Node38&#45;&gt;Node39</title>
<path fill="none" stroke="midnightblue" d="M343.61,-147.5C319.89,-147.5 293.1,-147.5 270.14,-147.5"/>
<polygon fill="midnightblue" stroke="midnightblue" points="343.92,-151 353.92,-147.5 343.92,-144 343.92,-151"/>
</g>
<!-- Node39&#45;&gt;Node29 -->
<g id="edge43" class="edge">
<title>Node39&#45;&gt;Node29</title>
<path fill="none" stroke="midnightblue" d="M147.58,-157.44C130.02,-160.11 111.39,-162.94 95.08,-165.42"/>
<polygon fill="midnightblue" stroke="midnightblue" points="148.41,-160.86 157.77,-155.89 147.35,-153.94 148.41,-160.86"/>
</g>
<!-- Node39&#45;&gt;Node30 -->
<g id="edge44" class="edge">
<title>Node39&#45;&gt;Node30</title>
<path fill="none" stroke="midnightblue" d="M147.58,-133.98C130.02,-130.35 111.39,-126.5 95.08,-123.13"/>
<polygon fill="midnightblue" stroke="midnightblue" points="147.26,-137.49 157.77,-136.08 148.68,-130.63 147.26,-137.49"/>
</g>
<!-- Node40&#45;&gt;Node18 -->
<g id="edge46" class="edge">
<title>Node40&#45;&gt;Node18</title>
<path fill="none" stroke="midnightblue" d="M152.56,-733.5C133.6,-739.15 112.96,-745.3 95.11,-750.62"/>
<polygon fill="midnightblue" stroke="midnightblue" points="153.72,-736.81 162.3,-730.6 151.72,-730.1 153.72,-736.81"/>
</g>
</g>
</svg>
        <g id="navigator" transform="translate(0 0)" fill="#404254">
                <rect fill="#f2f5e9" fill-opacity="0.5" stroke="#606060" stroke-width=".5" x="0" y="0" width="60" height="60"/>
                <use id="zoomplus" xlink:href="#zoomPlus" x="17" y="9" onmousedown="handleZoom(evt,'in')"/>
                <use id="zoomminus" xlink:href="#zoomMin" x="42" y="9" onmousedown="handleZoom(evt,'out')"/>
                <use id="reset" xlink:href="#resetDef" x="30" y="36" onmousedown="handleReset()"/>
                <g id="arrowUp" xlink:href="#dirArrow" transform="translate(30 24)" onmousedown="handlePan(0,-1)">
                  <use xlink:href="#rim" fill="#404040">
                        <set attributeName="fill" to="#808080" begin="arrowUp.mouseover" end="arrowUp.mouseout"/>
                  </use>
                  <path fill="none" stroke="white" stroke-width="1.5" d="M0,-3.0v7 M-2.5,-0.5L0,-3.0L2.5,-0.5"/>
                </g>
                <g id="arrowRight" xlink:href="#dirArrow" transform="rotate(90) translate(36 -43)" onmousedown="handlePan(1,0)">
                  <use xlink:href="#rim" fill="#404040">
                        <set attributeName="fill" to="#808080" begin="arrowRight.mouseover" end="arrowRight.mouseout"/>
                  </use>
                  <path fill="none" stroke="white" stroke-width="1.5" d="M0,-3.0v7 M-2.5,-0.5L0,-3.0L2.5,-0.5"/>
                </g>
                <g id="arrowDown" xlink:href="#dirArrow" transform="rotate(180) translate(-30 -48)" onmousedown="handlePan(0,1)">
                  <use xlink:href="#rim" fill="#404040">
                        <set attributeName="fill" to="#808080" begin="arrowDown.mouseover" end="arrowDown.mouseout"/>
                  </use>
                  <path fill="none" stroke="white" stroke-width="1.5" d="M0,-3.0v7 M-2.5,-0.5L0,-3.0L2.5,-0.5"/>
                </g>
                <g id="arrowLeft" xlink:href="#dirArrow" transform="rotate(270) translate(-36 17)" onmousedown="handlePan(-1,0)">
                  <use xlink:href="#rim" fill="#404040">
                        <set attributeName="fill" to="#808080" begin="arrowLeft.mouseover" end="arrowLeft.mouseout"/>
                  </use>
                  <path fill="none" stroke="white" stroke-width="1.5" d="M0,-3.0v7 M-2.5,-0.5L0,-3.0L2.5,-0.5"/>
                </g>
        </g>
        <svg viewBox="0 0 15 15" width="100%" height="30px" preserveAspectRatio="xMaxYMin meet">
         <g id="arrow_out" transform="scale(0.3 0.3)">
          <a xlink:href="structft_1_1serv_1_1logger_a83649a4f3bb804c8fed6dfd130de5ee6_icgraph_org.svg" target="_base">
           <rect id="button" ry="5" rx="5" y="6" x="6" height="38" width="38"
                fill="#f2f5e9" fill-opacity="0.5" stroke="#606060" stroke-width="1.0"/>
           <path id="arrow"
             d="M 11.500037,31.436501 C 11.940474,20.09759 22.043105,11.32322 32.158766,21.979434 L 37.068811,17.246167 C 37.068811,17.246167 37.088388,32 37.088388,32 L 22.160133,31.978069 C 22.160133,31.978069 26.997745,27.140456 26.997745,27.140456 C 18.528582,18.264221 13.291696,25.230495 11.500037,31.436501 z"
             style="fill:#404040;"/>
          </a>
         </g>
        </svg>
</svg>
