<?xml version="1.0" encoding="UTF-8" standalone="no"?>
<!DOCTYPE svg PUBLIC "-//W3C//DTD SVG 1.1//EN"
 "http://www.w3.org/Graphics/SVG/1.1/DTD/svg11.dtd">
<!-- Generated by graphviz version 2.43.0 (0)
 -->
<!-- Title: ft::serv::logger::warn Pages: 1 -->
<svg width="540pt" height="116pt"
 viewBox="0.00 0.00 540.00 116.00" xmlns="http://www.w3.org/2000/svg" xmlns:xlink="http://www.w3.org/1999/xlink">
<g id="graph0" class="graph" transform="scale(1 1) rotate(0) translate(4 112)">
<title>ft::serv::logger::warn</title>
<polygon fill="white" stroke="transparent" points="-4,4 -4,-112 536,-112 536,4 -4,4"/>
<!-- Node1 -->
<g id="node1" class="node">
<title>Node1</title>
<g id="a_node1"><a xlink:title=" ">
<polygon fill="#bfbfbf" stroke="black" points="416,-44.5 416,-63.5 532,-63.5 532,-44.5 416,-44.5"/>
<text text-anchor="middle" x="474" y="-51.5" font-family="Helvetica,sans-Serif" font-size="10.00">ft::serv::logger::warn</text>
</a>
</g>
</g>
<!-- Node2 -->
<g id="node2" class="node">
<title>Node2</title>
<g id="a_node2"><a xlink:href="main_8cpp.html#a4b8f6bfb370734d9097623adf02d499d" target="_top" xlink:title=" ">
<polygon fill="white" stroke="black" points="285,-88.5 285,-107.5 353,-107.5 353,-88.5 285,-88.5"/>
<text text-anchor="middle" x="319" y="-95.5" font-family="Helvetica,sans-Serif" font-size="10.00">_on_signal</text>
</a>
</g>
</g>
<!-- Node1&#45;&gt;Node2 -->
<g id="edge1" class="edge">
<title>Node1&#45;&gt;Node2</title>
<path fill="none" stroke="midnightblue" d="M430.09,-66.34C405.72,-73.35 375.68,-81.99 353.13,-88.47"/>
<polygon fill="midnightblue" stroke="midnightblue" points="431.16,-69.67 439.8,-63.55 429.22,-62.95 431.16,-69.67"/>
</g>
<!-- Node4 -->
<g id="node4" class="node">
<title>Node4</title>
<g id="a_node4"><a xlink:href="classft_1_1serv_1_1event__worker.html#a3a53967547f82f9bfa578cee9fafb416" target="_top" xlink:title=" ">
<polygon fill="white" stroke="black" points="258,-39 258,-69 380,-69 380,-39 258,-39"/>
<text text-anchor="start" x="266" y="-57" font-family="Helvetica,sans-Serif" font-size="10.00">ft::serv::event_worker</text>
<text text-anchor="middle" x="319" y="-46" font-family="Helvetica,sans-Serif" font-size="10.00">::loop</text>
</a>
</g>
</g>
<!-- Node1&#45;&gt;Node4 -->
<g id="edge3" class="edge">
<title>Node1&#45;&gt;Node4</title>
<path fill="none" stroke="midnightblue" d="M405.39,-54C396.94,-54 388.35,-54 380.03,-54"/>
<polygon fill="midnightblue" stroke="midnightblue" points="405.59,-57.5 415.59,-54 405.59,-50.5 405.59,-57.5"/>
</g>
<!-- Node7 -->
<g id="node7" class="node">
<title>Node7</title>
<g id="a_node7"><a xlink:href="bot__main_8cpp.html#a0ddf1224851353fc92bfbff6f499fa97" target="_top" xlink:title=" ">
<polygon fill="white" stroke="black" points="298.5,-0.5 298.5,-19.5 339.5,-19.5 339.5,-0.5 298.5,-0.5"/>
<text text-anchor="middle" x="319" y="-7.5" font-family="Helvetica,sans-Serif" font-size="10.00">main</text>
</a>
</g>
</g>
<!-- Node1&#45;&gt;Node7 -->
<g id="edge6" class="edge">
<title>Node1&#45;&gt;Node7</title>
<path fill="none" stroke="midnightblue" d="M430.09,-41.66C400.4,-33.12 362.3,-22.16 339.59,-15.63"/>
<polygon fill="midnightblue" stroke="midnightblue" points="429.22,-45.05 439.8,-44.45 431.16,-38.33 429.22,-45.05"/>
</g>
<!-- Node3 -->
<g id="node3" class="node">
<title>Node3</title>
<g id="a_node3"><a xlink:href="main_8cpp.html#a0ddf1224851353fc92bfbff6f499fa97" target="_top" xlink:title=" ">
<polygon fill="white" stroke="black" points="169.5,-88.5 169.5,-107.5 210.5,-107.5 210.5,-88.5 169.5,-88.5"/>
<text text-anchor="middle" x="190" y="-95.5" font-family="Helvetica,sans-Serif" font-size="10.00">main</text>
</a>
</g>
</g>
<!-- Node2&#45;&gt;Node3 -->
<g id="edge2" class="edge">
<title>Node2&#45;&gt;Node3</title>
<path fill="none" stroke="midnightblue" d="M274.95,-98C253.22,-98 227.91,-98 210.81,-98"/>
<polygon fill="midnightblue" stroke="midnightblue" points="274.96,-101.5 284.96,-98 274.96,-94.5 274.96,-101.5"/>
</g>
<!-- Node5 -->
<g id="node5" class="node">
<title>Node5</title>
<g id="a_node5"><a xlink:href="event__worker__group_8cpp.html#ad74a2b88b0a09afdd296adaddf5c2824" target="_top" xlink:title=" ">
<polygon fill="white" stroke="black" points="158,-44.5 158,-63.5 222,-63.5 222,-44.5 158,-44.5"/>
<text text-anchor="middle" x="190" y="-51.5" font-family="Helvetica,sans-Serif" font-size="10.00">_run_loop</text>
</a>
</g>
</g>
<!-- Node4&#45;&gt;Node5 -->
<g id="edge4" class="edge">
<title>Node4&#45;&gt;Node5</title>
<path fill="none" stroke="midnightblue" d="M247.75,-54C238.84,-54 230.11,-54 222.27,-54"/>
<polygon fill="midnightblue" stroke="midnightblue" points="247.85,-57.5 257.85,-54 247.85,-50.5 247.85,-57.5"/>
</g>
<!-- Node6 -->
<g id="node6" class="node">
<title>Node6</title>
<g id="a_node6"><a xlink:href="classft_1_1serv_1_1event__worker__group.html#a38691f464474653f2050bc99ea55b6d8" target="_top" xlink:title=" ">
<polygon fill="white" stroke="black" points="0,-39 0,-69 122,-69 122,-39 0,-39"/>
<text text-anchor="start" x="8" y="-57" font-family="Helvetica,sans-Serif" font-size="10.00">ft::serv::event_worker</text>
<text text-anchor="middle" x="61" y="-46" font-family="Helvetica,sans-Serif" font-size="10.00">_group::put_worker</text>
</a>
</g>
</g>
<!-- Node5&#45;&gt;Node6 -->
<g id="edge5" class="edge">
<title>Node5&#45;&gt;Node6</title>
<path fill="none" stroke="midnightblue" d="M147.84,-54C139.6,-54 130.77,-54 122.04,-54"/>
<polygon fill="midnightblue" stroke="midnightblue" points="147.93,-57.5 157.93,-54 147.93,-50.5 147.93,-57.5"/>
</g>
</g>
</svg>
