<?xml version="1.0" encoding="UTF-8" standalone="no"?>
<!DOCTYPE svg PUBLIC "-//W3C//DTD SVG 1.1//EN"
 "http://www.w3.org/Graphics/SVG/1.1/DTD/svg11.dtd">
<!-- Generated by graphviz version 2.43.0 (0)
 -->
<!-- Title: ft::irc::string_utils::pick_nick Pages: 1 -->
<svg width="614pt" height="256pt"
 viewBox="0.00 0.00 614.00 256.00" xmlns="http://www.w3.org/2000/svg" xmlns:xlink="http://www.w3.org/1999/xlink">
<g id="graph0" class="graph" transform="scale(1 1) rotate(0) translate(4 252)">
<title>ft::irc::string_utils::pick_nick</title>
<polygon fill="white" stroke="transparent" points="-4,4 -4,-252 610,-252 610,4 -4,4"/>
<!-- Node1 -->
<g id="node1" class="node">
<title>Node1</title>
<g id="a_node1"><a xlink:title=" ">
<polygon fill="#bfbfbf" stroke="black" points="505,-109 505,-139 606,-139 606,-109 505,-109"/>
<text text-anchor="start" x="513" y="-127" font-family="Helvetica,sans-Serif" font-size="10.00">ft::irc::string_utils</text>
<text text-anchor="middle" x="555.5" y="-116" font-family="Helvetica,sans-Serif" font-size="10.00">::pick_nick</text>
</a>
</g>
</g>
<!-- Node2 -->
<g id="node2" class="node">
<title>Node2</title>
<g id="a_node2"><a xlink:href="classft_1_1irc_1_1channel.html#a88a071511ae42d2faa2ff45d6d6f4abf" target="_top" xlink:title=" ">
<polygon fill="white" stroke="black" points="351,-228.5 351,-247.5 461,-247.5 461,-228.5 351,-228.5"/>
<text text-anchor="middle" x="406" y="-235.5" font-family="Helvetica,sans-Serif" font-size="10.00">ft::irc::channel::ban</text>
</a>
</g>
</g>
<!-- Node1&#45;&gt;Node2 -->
<g id="edge1" class="edge">
<title>Node1&#45;&gt;Node2</title>
<path fill="none" stroke="midnightblue" d="M539.05,-147.46C523.7,-169 498.27,-200.34 469,-219 463.02,-222.81 456.23,-225.9 449.39,-228.39"/>
<polygon fill="midnightblue" stroke="midnightblue" points="541.97,-149.38 544.8,-139.17 536.22,-145.39 541.97,-149.38"/>
</g>
<!-- Node5 -->
<g id="node5" class="node">
<title>Node5</title>
<g id="a_node5"><a xlink:href="classft_1_1irc_1_1bot.html#a936e0acfe2ebe64ec87b0856c11d68da" target="_top" xlink:title=" ">
<polygon fill="white" stroke="black" points="349,-152.5 349,-171.5 463,-171.5 463,-152.5 349,-152.5"/>
<text text-anchor="middle" x="406" y="-159.5" font-family="Helvetica,sans-Serif" font-size="10.00">ft::irc::bot::on_invite</text>
</a>
</g>
</g>
<!-- Node1&#45;&gt;Node5 -->
<g id="edge4" class="edge">
<title>Node1&#45;&gt;Node5</title>
<path fill="none" stroke="midnightblue" d="M494.99,-139.33C477.76,-143.77 459.46,-148.49 444.03,-152.46"/>
<polygon fill="midnightblue" stroke="midnightblue" points="496.16,-142.64 504.97,-136.76 494.42,-135.86 496.16,-142.64"/>
</g>
<!-- Node8 -->
<g id="node8" class="node">
<title>Node8</title>
<g id="a_node8"><a xlink:href="classft_1_1irc_1_1bot.html#ac44a6bb9edd7bde3e8e4e45121914ae6" target="_top" xlink:title=" ">
<polygon fill="white" stroke="black" points="352.5,-114.5 352.5,-133.5 459.5,-133.5 459.5,-114.5 352.5,-114.5"/>
<text text-anchor="middle" x="406" y="-121.5" font-family="Helvetica,sans-Serif" font-size="10.00">ft::irc::bot::on_nick</text>
</a>
</g>
</g>
<!-- Node1&#45;&gt;Node8 -->
<g id="edge7" class="edge">
<title>Node1&#45;&gt;Node8</title>
<path fill="none" stroke="midnightblue" d="M494.89,-124C483.23,-124 471.09,-124 459.68,-124"/>
<polygon fill="midnightblue" stroke="midnightblue" points="494.97,-127.5 504.97,-124 494.97,-120.5 494.97,-127.5"/>
</g>
<!-- Node9 -->
<g id="node9" class="node">
<title>Node9</title>
<g id="a_node9"><a xlink:href="classft_1_1irc_1_1bot.html#adb61ddab4c1cb4fc70bec293666bed90" target="_top" xlink:title=" ">
<polygon fill="white" stroke="black" points="353,-76.5 353,-95.5 459,-95.5 459,-76.5 353,-76.5"/>
<text text-anchor="middle" x="406" y="-83.5" font-family="Helvetica,sans-Serif" font-size="10.00">ft::irc::bot::on_part</text>
</a>
</g>
</g>
<!-- Node1&#45;&gt;Node9 -->
<g id="edge9" class="edge">
<title>Node1&#45;&gt;Node9</title>
<path fill="none" stroke="midnightblue" d="M494.99,-108.67C477.76,-104.23 459.46,-99.51 444.03,-95.54"/>
<polygon fill="midnightblue" stroke="midnightblue" points="494.42,-112.14 504.97,-111.24 496.16,-105.36 494.42,-112.14"/>
</g>
<!-- Node10 -->
<g id="node10" class="node">
<title>Node10</title>
<g id="a_node10"><a xlink:href="classft_1_1irc_1_1bot.html#a0ec513cb8cc2ce581bd105edb6563562" target="_top" xlink:title=" ">
<polygon fill="white" stroke="black" points="343,-38.5 343,-57.5 469,-57.5 469,-38.5 343,-38.5"/>
<text text-anchor="middle" x="406" y="-45.5" font-family="Helvetica,sans-Serif" font-size="10.00">ft::irc::bot::on_privmsg</text>
</a>
</g>
</g>
<!-- Node1&#45;&gt;Node10 -->
<g id="edge11" class="edge">
<title>Node1&#45;&gt;Node10</title>
<path fill="none" stroke="midnightblue" d="M527,-102.67C510.81,-90.9 489.54,-76.74 469,-67 461.27,-63.33 452.66,-60.17 444.38,-57.53"/>
<polygon fill="midnightblue" stroke="midnightblue" points="525.32,-105.78 535.43,-108.92 529.48,-100.16 525.32,-105.78"/>
</g>
<!-- Node11 -->
<g id="node11" class="node">
<title>Node11</title>
<g id="a_node11"><a xlink:href="classft_1_1irc_1_1bot.html#afaa3557fd9c3562f2a81095c9f917360" target="_top" xlink:title=" ">
<polygon fill="white" stroke="black" points="353.5,-0.5 353.5,-19.5 458.5,-19.5 458.5,-0.5 353.5,-0.5"/>
<text text-anchor="middle" x="406" y="-7.5" font-family="Helvetica,sans-Serif" font-size="10.00">ft::irc::bot::on_quit</text>
</a>
</g>
</g>
<!-- Node1&#45;&gt;Node11 -->
<g id="edge13" class="edge">
<title>Node1&#45;&gt;Node11</title>
<path fill="none" stroke="midnightblue" d="M539.05,-100.54C523.7,-79 498.27,-47.66 469,-29 463.02,-25.19 456.23,-22.1 449.39,-19.61"/>
<polygon fill="midnightblue" stroke="midnightblue" points="536.22,-102.61 544.8,-108.83 541.97,-98.62 536.22,-102.61"/>
</g>
<!-- Node12 -->
<g id="node12" class="node">
<title>Node12</title>
<g id="a_node12"><a xlink:href="classft_1_1irc_1_1channel.html#aa7b5a547c4ff51772b8a1a6c81f61a8c" target="_top" xlink:title=" ">
<polygon fill="white" stroke="black" points="345,-190.5 345,-209.5 467,-209.5 467,-190.5 345,-190.5"/>
<text text-anchor="middle" x="406" y="-197.5" font-family="Helvetica,sans-Serif" font-size="10.00">ft::irc::channel::unban</text>
</a>
</g>
</g>
<!-- Node1&#45;&gt;Node12 -->
<g id="edge15" class="edge">
<title>Node1&#45;&gt;Node12</title>
<path fill="none" stroke="midnightblue" d="M527,-145.33C510.81,-157.1 489.54,-171.26 469,-181 461.27,-184.67 452.66,-187.83 444.38,-190.47"/>
<polygon fill="midnightblue" stroke="midnightblue" points="529.48,-147.84 535.43,-139.08 525.32,-142.22 529.48,-147.84"/>
</g>
<!-- Node3 -->
<g id="node3" class="node">
<title>Node3</title>
<g id="a_node3"><a xlink:href="classft_1_1irc_1_1processor__mode.html#a78f0436f90fe62dc8e35152d98eff680" target="_top" xlink:title=" ">
<polygon fill="white" stroke="black" points="141,-204 141,-234 307,-234 307,-204 141,-204"/>
<text text-anchor="start" x="149" y="-222" font-family="Helvetica,sans-Serif" font-size="10.00">ft::irc::processor</text>
<text text-anchor="middle" x="224" y="-211" font-family="Helvetica,sans-Serif" font-size="10.00">_mode::update_channel_mode</text>
</a>
</g>
</g>
<!-- Node2&#45;&gt;Node3 -->
<g id="edge2" class="edge">
<title>Node2&#45;&gt;Node3</title>
<path fill="none" stroke="midnightblue" d="M340.77,-231.22C329.91,-230.07 318.51,-228.87 307.27,-227.68"/>
<polygon fill="midnightblue" stroke="midnightblue" points="340.68,-234.73 350.99,-232.3 341.42,-227.77 340.68,-234.73"/>
</g>
<!-- Node4 -->
<g id="node4" class="node">
<title>Node4</title>
<g id="a_node4"><a xlink:href="classft_1_1irc_1_1processor__mode.html#ad013987a789be47379c13f61364135a6" target="_top" xlink:title=" ">
<polygon fill="white" stroke="black" points="5,-204 5,-234 100,-234 100,-204 5,-204"/>
<text text-anchor="start" x="13" y="-222" font-family="Helvetica,sans-Serif" font-size="10.00">ft::irc::processor</text>
<text text-anchor="middle" x="52.5" y="-211" font-family="Helvetica,sans-Serif" font-size="10.00">_mode::execute</text>
</a>
</g>
</g>
<!-- Node3&#45;&gt;Node4 -->
<g id="edge3" class="edge">
<title>Node3&#45;&gt;Node4</title>
<path fill="none" stroke="midnightblue" d="M130.69,-219C120.24,-219 109.94,-219 100.44,-219"/>
<polygon fill="midnightblue" stroke="midnightblue" points="130.73,-222.5 140.73,-219 130.73,-215.5 130.73,-222.5"/>
</g>
<!-- Node6 -->
<g id="node6" class="node">
<title>Node6</title>
<g id="a_node6"><a xlink:href="classft_1_1irc_1_1bot.html#a0b595213781ed0e5aaf1d48fdb602d98" target="_top" xlink:title=" ">
<polygon fill="white" stroke="black" points="164.5,-76.5 164.5,-95.5 283.5,-95.5 283.5,-76.5 164.5,-76.5"/>
<text text-anchor="middle" x="224" y="-83.5" font-family="Helvetica,sans-Serif" font-size="10.00">ft::irc::bot::on_packet</text>
</a>
</g>
</g>
<!-- Node5&#45;&gt;Node6 -->
<g id="edge5" class="edge">
<title>Node5&#45;&gt;Node6</title>
<path fill="none" stroke="midnightblue" d="M360.62,-149.3C354.65,-147.33 348.64,-145.21 343,-143 306.36,-128.63 265.35,-107.65 242.61,-95.56"/>
<polygon fill="midnightblue" stroke="midnightblue" points="359.98,-152.77 370.57,-152.47 362.1,-146.1 359.98,-152.77"/>
</g>
<!-- Node7 -->
<g id="node7" class="node">
<title>Node7</title>
<g id="a_node7"><a xlink:href="classft_1_1irc_1_1bot__handler.html#a0723185e483ae21fa0f2116ca05165fe" target="_top" xlink:title=" ">
<polygon fill="white" stroke="black" points="0,-71 0,-101 105,-101 105,-71 0,-71"/>
<text text-anchor="start" x="8" y="-89" font-family="Helvetica,sans-Serif" font-size="10.00">ft::irc::bot_handler</text>
<text text-anchor="middle" x="52.5" y="-78" font-family="Helvetica,sans-Serif" font-size="10.00">::on_read</text>
</a>
</g>
</g>
<!-- Node6&#45;&gt;Node7 -->
<g id="edge6" class="edge">
<title>Node6&#45;&gt;Node7</title>
<path fill="none" stroke="midnightblue" d="M154.13,-86C137.77,-86 120.58,-86 105.14,-86"/>
<polygon fill="midnightblue" stroke="midnightblue" points="154.19,-89.5 164.19,-86 154.19,-82.5 154.19,-89.5"/>
</g>
<!-- Node8&#45;&gt;Node6 -->
<g id="edge8" class="edge">
<title>Node8&#45;&gt;Node6</title>
<path fill="none" stroke="midnightblue" d="M349.67,-112.32C324.14,-106.93 294.22,-100.61 270.09,-95.52"/>
<polygon fill="midnightblue" stroke="midnightblue" points="349.07,-115.77 359.58,-114.41 350.52,-108.92 349.07,-115.77"/>
</g>
<!-- Node9&#45;&gt;Node6 -->
<g id="edge10" class="edge">
<title>Node9&#45;&gt;Node6</title>
<path fill="none" stroke="midnightblue" d="M342.79,-86C323.6,-86 302.53,-86 283.59,-86"/>
<polygon fill="midnightblue" stroke="midnightblue" points="342.94,-89.5 352.94,-86 342.94,-82.5 342.94,-89.5"/>
</g>
<!-- Node10&#45;&gt;Node6 -->
<g id="edge12" class="edge">
<title>Node10&#45;&gt;Node6</title>
<path fill="none" stroke="midnightblue" d="M349.67,-59.68C324.14,-65.07 294.22,-71.39 270.09,-76.48"/>
<polygon fill="midnightblue" stroke="midnightblue" points="350.52,-63.08 359.58,-57.59 349.07,-56.23 350.52,-63.08"/>
</g>
<!-- Node11&#45;&gt;Node6 -->
<g id="edge14" class="edge">
<title>Node11&#45;&gt;Node6</title>
<path fill="none" stroke="midnightblue" d="M360.62,-22.7C354.65,-24.67 348.64,-26.79 343,-29 306.36,-43.37 265.35,-64.35 242.61,-76.44"/>
<polygon fill="midnightblue" stroke="midnightblue" points="362.1,-25.9 370.57,-19.53 359.98,-19.23 362.1,-25.9"/>
</g>
<!-- Node12&#45;&gt;Node3 -->
<g id="edge16" class="edge">
<title>Node12&#45;&gt;Node3</title>
<path fill="none" stroke="midnightblue" d="M334.76,-207.41C325.73,-208.37 316.43,-209.35 307.23,-210.32"/>
<polygon fill="midnightblue" stroke="midnightblue" points="335.24,-210.88 344.81,-206.35 334.5,-203.92 335.24,-210.88"/>
</g>
</g>
</svg>
