<?xml version="1.0" encoding="UTF-8" standalone="no"?>
<!DOCTYPE svg PUBLIC "-//W3C//DTD SVG 1.1//EN"
 "http://www.w3.org/Graphics/SVG/1.1/DTD/svg11.dtd">
<!-- Generated by graphviz version 2.43.0 (0)
 -->
<!-- Title: ft::irc::string_utils::is_same Pages: 1 -->
<!--zoomable 320 -->
<svg id="main" version="1.1" xmlns="http://www.w3.org/2000/svg" xmlns:xlink="http://www.w3.org/1999/xlink" xml:space="preserve" onload="init(evt)">
<style type="text/css"><![CDATA[
.edge:hover path { stroke: red; }
.edge:hover polygon { stroke: red; fill: red; }
]]></style>
<script type="text/javascript"><![CDATA[
var edges = document.getElementsByTagName('g');
if (edges && edges.length) {
  for (var i=0;i<edges.length;i++) {
    if (edges[i].id.substr(0,4)=='edge') {
      edges[i].setAttribute('class','edge');
    }
  }
}
]]></script>
        <defs>
                <circle id="rim" cx="0" cy="0" r="7"/>
                <circle id="rim2" cx="0" cy="0" r="3.5"/>
                <g id="zoomPlus">
                        <use xlink:href="#rim" fill="#404040">
                                <set attributeName="fill" to="#808080" begin="zoomplus.mouseover" end="zoomplus.mouseout"/>
                        </use>
                        <path d="M-4,0h8M0,-4v8" fill="none" stroke="white" stroke-width="1.5" pointer-events="none"/>
                </g>
                <g id="zoomMin">
                        <use xlink:href="#rim" fill="#404040">
                                <set attributeName="fill" to="#808080" begin="zoomminus.mouseover" end="zoomminus.mouseout"/>
                        </use>
                        <path d="M-4,0h8" fill="none" stroke="white" stroke-width="1.5" pointer-events="none"/>
                </g>
                <g id="dirArrow">
                        <path fill="none" stroke="white" stroke-width="1.5" d="M0,-3.0v7 M-2.5,-0.5L0,-3.0L2.5,-0.5"/>
                </g>
               <g id="resetDef">
                       <use xlink:href="#rim2" fill="#404040">
                               <set attributeName="fill" to="#808080" begin="reset.mouseover" end="reset.mouseout"/>
                       </use>
               </g>
        </defs>

<script type="text/javascript">
var viewWidth = 777;
var viewHeight = 320;
var sectionId = 'dynsection-1';
</script>
<script xlink:href="svgpan.js"/>
<svg id="graph" class="graph">
<g id="viewport">
<title>ft::irc::string_utils::is_same</title>
<polygon fill="white" stroke="transparent" points="-4,4 -4,-315.56 773,-315.56 773,4 -4,4"/>
<!-- Node1 -->
<g id="node1" class="node">
<title>Node1</title>
<g id="a_node1"><a xlink:title=" ">
<polygon fill="#bfbfbf" stroke="black" points="668,-139.06 668,-169.06 769,-169.06 769,-139.06 668,-139.06"/>
<text text-anchor="start" x="676" y="-157.06" font-family="Helvetica,sans-Serif" font-size="10.00">ft::irc::string_utils</text>
<text text-anchor="middle" x="718.5" y="-146.06" font-family="Helvetica,sans-Serif" font-size="10.00">::is_same</text>
</a>
</g>
</g>
<!-- Node2 -->
<g id="node2" class="node">
<title>Node2</title>
<g id="a_node2"><a xlink:href="classft_1_1irc_1_1channel.html#a88a071511ae42d2faa2ff45d6d6f4abf" target="_top" xlink:title=" ">
<polygon fill="white" stroke="black" points="510,-204.56 510,-223.56 620,-223.56 620,-204.56 510,-204.56"/>
<text text-anchor="middle" x="565" y="-211.56" font-family="Helvetica,sans-Serif" font-size="10.00">ft::irc::channel::ban</text>
</a>
</g>
</g>
<!-- Node1&#45;&gt;Node2 -->
<g id="edge1" class="edge">
<title>Node1&#45;&gt;Node2</title>
<path fill="none" stroke="midnightblue" d="M679.87,-173.78C665.17,-181.04 648.03,-188.96 632,-195.06 622.86,-198.54 612.81,-201.74 603.36,-204.48"/>
<polygon fill="midnightblue" stroke="midnightblue" points="681.76,-176.75 689.13,-169.14 678.63,-170.49 681.76,-176.75"/>
</g>
<!-- Node5 -->
<g id="node5" class="node">
<title>Node5</title>
<g id="a_node5"><a xlink:href="classft_1_1irc_1_1bot.html#af0797d5cc3b307629e5967bfcdd21c3a" target="_top" xlink:title=" ">
<polygon fill="white" stroke="black" points="519.5,-117.06 519.5,-147.06 610.5,-147.06 610.5,-117.06 519.5,-117.06"/>
<text text-anchor="start" x="527.5" y="-135.06" font-family="Helvetica,sans-Serif" font-size="10.00">ft::irc::bot::find</text>
<text text-anchor="middle" x="565" y="-124.06" font-family="Helvetica,sans-Serif" font-size="10.00">_own_channels</text>
</a>
</g>
</g>
<!-- Node1&#45;&gt;Node5 -->
<g id="edge4" class="edge">
<title>Node1&#45;&gt;Node5</title>
<path fill="none" stroke="midnightblue" d="M657.74,-145.38C642.03,-143.1 625.36,-140.68 610.6,-138.54"/>
<polygon fill="midnightblue" stroke="midnightblue" points="657.49,-148.89 667.89,-146.86 658.5,-141.96 657.49,-148.89"/>
</g>
<!-- Node9 -->
<g id="node9" class="node">
<title>Node9</title>
<g id="a_node9"><a xlink:href="classft_1_1irc_1_1bot.html#aa5023ae6a16be90f32f2d9188dd44af3" target="_top" xlink:title=" ">
<polygon fill="white" stroke="black" points="508.5,-29.56 508.5,-48.56 621.5,-48.56 621.5,-29.56 508.5,-29.56"/>
<text text-anchor="middle" x="565" y="-36.56" font-family="Helvetica,sans-Serif" font-size="10.00">ft::irc::bot::is_owner</text>
</a>
</g>
</g>
<!-- Node1&#45;&gt;Node9 -->
<g id="edge8" class="edge">
<title>Node1&#45;&gt;Node9</title>
<path fill="none" stroke="midnightblue" d="M702.06,-130.58C686.72,-109.02 661.3,-77.68 632,-59.06 625.23,-54.76 617.48,-51.34 609.73,-48.63"/>
<polygon fill="midnightblue" stroke="midnightblue" points="699.24,-132.65 707.81,-138.88 704.99,-128.67 699.24,-132.65"/>
</g>
<!-- Node10 -->
<g id="node10" class="node">
<title>Node10</title>
<g id="a_node10"><a xlink:href="classft_1_1irc_1_1bot.html#aaffa46673180d49934480ec84b9ed18e" target="_top" xlink:title=" ">
<polygon fill="white" stroke="black" points="325.5,-29.56 325.5,-48.56 432.5,-48.56 432.5,-29.56 325.5,-29.56"/>
<text text-anchor="middle" x="379" y="-36.56" font-family="Helvetica,sans-Serif" font-size="10.00">ft::irc::bot::on_kick</text>
</a>
</g>
</g>
<!-- Node1&#45;&gt;Node10 -->
<g id="edge15" class="edge">
<title>Node1&#45;&gt;Node10</title>
<path fill="none" stroke="midnightblue" d="M709.97,-129.31C698.77,-97.4 674.36,-43.28 632,-20.06 556.79,21.17 449.48,-11.66 402.97,-29.47"/>
<polygon fill="midnightblue" stroke="midnightblue" points="706.66,-130.44 713.14,-138.82 713.3,-128.22 706.66,-130.44"/>
</g>
<!-- Node12 -->
<g id="node12" class="node">
<title>Node12</title>
<g id="a_node12"><a xlink:href="classft_1_1irc_1_1channel.html#ad30281781ad94941df6db1284869a73b" target="_top" xlink:title=" ">
<polygon fill="white" stroke="black" points="502.5,-281.06 502.5,-311.06 627.5,-311.06 627.5,-281.06 502.5,-281.06"/>
<text text-anchor="start" x="510.5" y="-299.06" font-family="Helvetica,sans-Serif" font-size="10.00">ft::irc::channel::modify</text>
<text text-anchor="middle" x="565" y="-288.06" font-family="Helvetica,sans-Serif" font-size="10.00">_member_mode</text>
</a>
</g>
</g>
<!-- Node1&#45;&gt;Node12 -->
<g id="edge13" class="edge">
<title>Node1&#45;&gt;Node12</title>
<path fill="none" stroke="midnightblue" d="M705.46,-178.06C691.2,-204.25 665.15,-245.81 632,-271.06 627.03,-274.85 621.42,-278.12 615.62,-280.93"/>
<polygon fill="midnightblue" stroke="midnightblue" points="708.58,-179.64 710.17,-169.16 702.4,-176.36 708.58,-179.64"/>
</g>
<!-- Node13 -->
<g id="node13" class="node">
<title>Node13</title>
<g id="a_node13"><a xlink:href="structft_1_1irc_1_1user_1_1pred__equals__nick.html#aa4bfdd8756482385798ed7fd8197f1e1" target="_top" xlink:title=" ">
<polygon fill="white" stroke="black" points="498,-68.06 498,-98.06 632,-98.06 632,-68.06 498,-68.06"/>
<text text-anchor="start" x="506" y="-86.06" font-family="Helvetica,sans-Serif" font-size="10.00">ft::irc::user::pred</text>
<text text-anchor="middle" x="565" y="-75.06" font-family="Helvetica,sans-Serif" font-size="10.00">_equals_nick::operator()</text>
</a>
</g>
</g>
<!-- Node1&#45;&gt;Node13 -->
<g id="edge16" class="edge">
<title>Node1&#45;&gt;Node13</title>
<path fill="none" stroke="midnightblue" d="M682.31,-133.78C667.07,-125.35 648.89,-115.76 632,-108.06 624.42,-104.61 616.21,-101.22 608.24,-98.11"/>
<polygon fill="midnightblue" stroke="midnightblue" points="680.94,-137.03 691.38,-138.85 684.36,-130.92 680.94,-137.03"/>
</g>
<!-- Node14 -->
<g id="node14" class="node">
<title>Node14</title>
<g id="a_node14"><a xlink:href="classft_1_1irc_1_1channel.html#aa7b5a547c4ff51772b8a1a6c81f61a8c" target="_top" xlink:title=" ">
<polygon fill="white" stroke="black" points="504,-242.56 504,-261.56 626,-261.56 626,-242.56 504,-242.56"/>
<text text-anchor="middle" x="565" y="-249.56" font-family="Helvetica,sans-Serif" font-size="10.00">ft::irc::channel::unban</text>
</a>
</g>
</g>
<!-- Node1&#45;&gt;Node14 -->
<g id="edge17" class="edge">
<title>Node1&#45;&gt;Node14</title>
<path fill="none" stroke="midnightblue" d="M698.41,-176.75C682.37,-194.46 657.96,-218.44 632,-233.06 625.25,-236.87 617.67,-239.96 610.12,-242.47"/>
<polygon fill="midnightblue" stroke="midnightblue" points="701.17,-178.92 705.17,-169.11 695.92,-174.28 701.17,-178.92"/>
</g>
<!-- Node15 -->
<g id="node15" class="node">
<title>Node15</title>
<g id="a_node15"><a xlink:href="classft_1_1irc_1_1bot.html#a6bea4a41bf2e963f84660531719b1515" target="_top" xlink:title=" ">
<polygon fill="white" stroke="black" points="501,-166.56 501,-185.56 629,-185.56 629,-166.56 501,-166.56"/>
<text text-anchor="middle" x="565" y="-173.56" font-family="Helvetica,sans-Serif" font-size="10.00">ft::irc::bot::update_nick</text>
</a>
</g>
</g>
<!-- Node1&#45;&gt;Node15 -->
<g id="edge19" class="edge">
<title>Node1&#45;&gt;Node15</title>
<path fill="none" stroke="midnightblue" d="M657.87,-162.72C648.47,-164.09 638.73,-165.5 629.26,-166.88"/>
<polygon fill="midnightblue" stroke="midnightblue" points="658.5,-166.17 667.89,-161.27 657.49,-159.24 658.5,-166.17"/>
</g>
<!-- Node3 -->
<g id="node3" class="node">
<title>Node3</title>
<g id="a_node3"><a xlink:href="classft_1_1irc_1_1processor__mode.html#a78f0436f90fe62dc8e35152d98eff680" target="_top" xlink:title=" ">
<polygon fill="white" stroke="black" points="296,-237.06 296,-267.06 462,-267.06 462,-237.06 296,-237.06"/>
<text text-anchor="start" x="304" y="-255.06" font-family="Helvetica,sans-Serif" font-size="10.00">ft::irc::processor</text>
<text text-anchor="middle" x="379" y="-244.06" font-family="Helvetica,sans-Serif" font-size="10.00">_mode::update_channel_mode</text>
</a>
</g>
</g>
<!-- Node2&#45;&gt;Node3 -->
<g id="edge2" class="edge">
<title>Node2&#45;&gt;Node3</title>
<path fill="none" stroke="midnightblue" d="M507.65,-225.7C490.38,-229.27 471.13,-233.24 452.92,-237"/>
<polygon fill="midnightblue" stroke="midnightblue" points="508.48,-229.1 517.57,-223.65 507.07,-222.25 508.48,-229.1"/>
</g>
<!-- Node4 -->
<g id="node4" class="node">
<title>Node4</title>
<g id="a_node4"><a xlink:href="classft_1_1irc_1_1processor__mode.html#ad013987a789be47379c13f61364135a6" target="_top" xlink:title=" ">
<polygon fill="white" stroke="black" points="153,-237.06 153,-267.06 248,-267.06 248,-237.06 153,-237.06"/>
<text text-anchor="start" x="161" y="-255.06" font-family="Helvetica,sans-Serif" font-size="10.00">ft::irc::processor</text>
<text text-anchor="middle" x="200.5" y="-244.06" font-family="Helvetica,sans-Serif" font-size="10.00">_mode::execute</text>
</a>
</g>
</g>
<!-- Node3&#45;&gt;Node4 -->
<g id="edge3" class="edge">
<title>Node3&#45;&gt;Node4</title>
<path fill="none" stroke="midnightblue" d="M285.95,-252.06C272.88,-252.06 259.91,-252.06 248.21,-252.06"/>
<polygon fill="midnightblue" stroke="midnightblue" points="285.95,-255.56 295.95,-252.06 285.95,-248.56 285.95,-255.56"/>
</g>
<!-- Node6 -->
<g id="node6" class="node">
<title>Node6</title>
<g id="a_node6"><a xlink:href="classft_1_1irc_1_1bot.html#afaa3557fd9c3562f2a81095c9f917360" target="_top" xlink:title=" ">
<polygon fill="white" stroke="black" points="326.5,-114.56 326.5,-133.56 431.5,-133.56 431.5,-114.56 326.5,-114.56"/>
<text text-anchor="middle" x="379" y="-121.56" font-family="Helvetica,sans-Serif" font-size="10.00">ft::irc::bot::on_quit</text>
</a>
</g>
</g>
<!-- Node5&#45;&gt;Node6 -->
<g id="edge5" class="edge">
<title>Node5&#45;&gt;Node6</title>
<path fill="none" stroke="midnightblue" d="M509.21,-129.68C484.64,-128.61 455.81,-127.36 431.63,-126.31"/>
<polygon fill="midnightblue" stroke="midnightblue" points="509.32,-133.19 519.46,-130.13 509.62,-126.19 509.32,-133.19"/>
</g>
<!-- Node7 -->
<g id="node7" class="node">
<title>Node7</title>
<g id="a_node7"><a xlink:href="classft_1_1irc_1_1bot.html#a0b595213781ed0e5aaf1d48fdb602d98" target="_top" xlink:title=" ">
<polygon fill="white" stroke="black" points="141,-93.56 141,-112.56 260,-112.56 260,-93.56 141,-93.56"/>
<text text-anchor="middle" x="200.5" y="-100.56" font-family="Helvetica,sans-Serif" font-size="10.00">ft::irc::bot::on_packet</text>
</a>
</g>
</g>
<!-- Node6&#45;&gt;Node7 -->
<g id="edge6" class="edge">
<title>Node6&#45;&gt;Node7</title>
<path fill="none" stroke="midnightblue" d="M316.53,-116.75C298.26,-114.58 278.31,-112.2 260.23,-110.05"/>
<polygon fill="midnightblue" stroke="midnightblue" points="316.13,-120.23 326.47,-117.93 316.96,-113.27 316.13,-120.23"/>
</g>
<!-- Node8 -->
<g id="node8" class="node">
<title>Node8</title>
<g id="a_node8"><a xlink:href="classft_1_1irc_1_1bot__handler.html#a0723185e483ae21fa0f2116ca05165fe" target="_top" xlink:title=" ">
<polygon fill="white" stroke="black" points="0,-88.06 0,-118.06 105,-118.06 105,-88.06 0,-88.06"/>
<text text-anchor="start" x="8" y="-106.06" font-family="Helvetica,sans-Serif" font-size="10.00">ft::irc::bot_handler</text>
<text text-anchor="middle" x="52.5" y="-95.06" font-family="Helvetica,sans-Serif" font-size="10.00">::on_read</text>
</a>
</g>
</g>
<!-- Node7&#45;&gt;Node8 -->
<g id="edge7" class="edge">
<title>Node7&#45;&gt;Node8</title>
<path fill="none" stroke="midnightblue" d="M130.96,-103.06C122.38,-103.06 113.72,-103.06 105.46,-103.06"/>
<polygon fill="midnightblue" stroke="midnightblue" points="130.96,-106.56 140.96,-103.06 130.96,-99.56 130.96,-106.56"/>
</g>
<!-- Node9&#45;&gt;Node10 -->
<g id="edge9" class="edge">
<title>Node9&#45;&gt;Node10</title>
<path fill="none" stroke="midnightblue" d="M498.25,-39.06C476.72,-39.06 453.11,-39.06 432.68,-39.06"/>
<polygon fill="midnightblue" stroke="midnightblue" points="498.29,-42.56 508.29,-39.06 498.29,-35.56 498.29,-42.56"/>
</g>
<!-- Node11 -->
<g id="node11" class="node">
<title>Node11</title>
<g id="a_node11"><a xlink:href="classft_1_1irc_1_1bot.html#adb61ddab4c1cb4fc70bec293666bed90" target="_top" xlink:title=" ">
<polygon fill="white" stroke="black" points="326,-72.56 326,-91.56 432,-91.56 432,-72.56 326,-72.56"/>
<text text-anchor="middle" x="379" y="-79.56" font-family="Helvetica,sans-Serif" font-size="10.00">ft::irc::bot::on_part</text>
</a>
</g>
</g>
<!-- Node9&#45;&gt;Node11 -->
<g id="edge11" class="edge">
<title>Node9&#45;&gt;Node11</title>
<path fill="none" stroke="midnightblue" d="M513.18,-50.94C484.04,-57.75 447.97,-66.18 420.72,-72.55"/>
<polygon fill="midnightblue" stroke="midnightblue" points="514.22,-54.29 523.16,-48.61 512.63,-47.47 514.22,-54.29"/>
</g>
<!-- Node10&#45;&gt;Node7 -->
<g id="edge10" class="edge">
<title>Node10&#45;&gt;Node7</title>
<path fill="none" stroke="midnightblue" d="M332.41,-51.39C320.47,-54.89 307.68,-58.9 296,-63.06 270.16,-72.28 241.21,-84.88 222.24,-93.46"/>
<polygon fill="midnightblue" stroke="midnightblue" points="333.55,-54.7 342.19,-48.57 331.62,-47.98 333.55,-54.7"/>
</g>
<!-- Node11&#45;&gt;Node7 -->
<g id="edge12" class="edge">
<title>Node11&#45;&gt;Node7</title>
<path fill="none" stroke="midnightblue" d="M315.86,-89.46C297.79,-91.61 278.11,-93.95 260.25,-96.07"/>
<polygon fill="midnightblue" stroke="midnightblue" points="316.48,-92.91 326,-88.25 315.66,-85.96 316.48,-92.91"/>
</g>
<!-- Node12&#45;&gt;Node3 -->
<g id="edge14" class="edge">
<title>Node12&#45;&gt;Node3</title>
<path fill="none" stroke="midnightblue" d="M492.46,-278.96C476.16,-275.06 458.95,-270.94 443.04,-267.14"/>
<polygon fill="midnightblue" stroke="midnightblue" points="491.94,-282.43 502.47,-281.35 493.56,-275.62 491.94,-282.43"/>
</g>
<!-- Node14&#45;&gt;Node3 -->
<g id="edge18" class="edge">
<title>Node14&#45;&gt;Node3</title>
<path fill="none" stroke="midnightblue" d="M493.6,-252.06C483.3,-252.06 472.62,-252.06 462.11,-252.06"/>
<polygon fill="midnightblue" stroke="midnightblue" points="493.75,-255.56 503.75,-252.06 493.75,-248.56 493.75,-255.56"/>
</g>
<!-- Node16 -->
<g id="node16" class="node">
<title>Node16</title>
<g id="a_node16"><a xlink:href="classft_1_1irc_1_1bot.html#ac44a6bb9edd7bde3e8e4e45121914ae6" target="_top" xlink:title=" ">
<polygon fill="white" stroke="black" points="325.5,-159.56 325.5,-178.56 432.5,-178.56 432.5,-159.56 325.5,-159.56"/>
<text text-anchor="middle" x="379" y="-166.56" font-family="Helvetica,sans-Serif" font-size="10.00">ft::irc::bot::on_nick</text>
</a>
</g>
</g>
<!-- Node15&#45;&gt;Node16 -->
<g id="edge20" class="edge">
<title>Node15&#45;&gt;Node16</title>
<path fill="none" stroke="midnightblue" d="M490.87,-173.28C471.39,-172.54 450.73,-171.75 432.59,-171.06"/>
<polygon fill="midnightblue" stroke="midnightblue" points="490.81,-176.78 500.94,-173.66 491.08,-169.79 490.81,-176.78"/>
</g>
<!-- Node16&#45;&gt;Node7 -->
<g id="edge21" class="edge">
<title>Node16&#45;&gt;Node7</title>
<path fill="none" stroke="midnightblue" d="M335.88,-156.53C322.99,-152.48 308.84,-147.8 296,-143.06 270.43,-133.62 241.67,-121.18 222.67,-112.69"/>
<polygon fill="midnightblue" stroke="midnightblue" points="334.85,-159.88 345.44,-159.5 336.93,-153.2 334.85,-159.88"/>
</g>
</g>
</svg>
        <g id="navigator" transform="translate(0 0)" fill="#404254">
                <rect fill="#f2f5e9" fill-opacity="0.5" stroke="#606060" stroke-width=".5" x="0" y="0" width="60" height="60"/>
                <use id="zoomplus" xlink:href="#zoomPlus" x="17" y="9" onmousedown="handleZoom(evt,'in')"/>
                <use id="zoomminus" xlink:href="#zoomMin" x="42" y="9" onmousedown="handleZoom(evt,'out')"/>
                <use id="reset" xlink:href="#resetDef" x="30" y="36" onmousedown="handleReset()"/>
                <g id="arrowUp" xlink:href="#dirArrow" transform="translate(30 24)" onmousedown="handlePan(0,-1)">
                  <use xlink:href="#rim" fill="#404040">
                        <set attributeName="fill" to="#808080" begin="arrowUp.mouseover" end="arrowUp.mouseout"/>
                  </use>
                  <path fill="none" stroke="white" stroke-width="1.5" d="M0,-3.0v7 M-2.5,-0.5L0,-3.0L2.5,-0.5"/>
                </g>
                <g id="arrowRight" xlink:href="#dirArrow" transform="rotate(90) translate(36 -43)" onmousedown="handlePan(1,0)">
                  <use xlink:href="#rim" fill="#404040">
                        <set attributeName="fill" to="#808080" begin="arrowRight.mouseover" end="arrowRight.mouseout"/>
                  </use>
                  <path fill="none" stroke="white" stroke-width="1.5" d="M0,-3.0v7 M-2.5,-0.5L0,-3.0L2.5,-0.5"/>
                </g>
                <g id="arrowDown" xlink:href="#dirArrow" transform="rotate(180) translate(-30 -48)" onmousedown="handlePan(0,1)">
                  <use xlink:href="#rim" fill="#404040">
                        <set attributeName="fill" to="#808080" begin="arrowDown.mouseover" end="arrowDown.mouseout"/>
                  </use>
                  <path fill="none" stroke="white" stroke-width="1.5" d="M0,-3.0v7 M-2.5,-0.5L0,-3.0L2.5,-0.5"/>
                </g>
                <g id="arrowLeft" xlink:href="#dirArrow" transform="rotate(270) translate(-36 17)" onmousedown="handlePan(-1,0)">
                  <use xlink:href="#rim" fill="#404040">
                        <set attributeName="fill" to="#808080" begin="arrowLeft.mouseover" end="arrowLeft.mouseout"/>
                  </use>
                  <path fill="none" stroke="white" stroke-width="1.5" d="M0,-3.0v7 M-2.5,-0.5L0,-3.0L2.5,-0.5"/>
                </g>
        </g>
        <svg viewBox="0 0 15 15" width="100%" height="30px" preserveAspectRatio="xMaxYMin meet">
         <g id="arrow_out" transform="scale(0.3 0.3)">
          <a xlink:href="structft_1_1irc_1_1string__utils_abd73422cb93e7f7f26cfd59a221933a2_icgraph_org.svg" target="_base">
           <rect id="button" ry="5" rx="5" y="6" x="6" height="38" width="38"
                fill="#f2f5e9" fill-opacity="0.5" stroke="#606060" stroke-width="1.0"/>
           <path id="arrow"
             d="M 11.500037,31.436501 C 11.940474,20.09759 22.043105,11.32322 32.158766,21.979434 L 37.068811,17.246167 C 37.068811,17.246167 37.088388,32 37.088388,32 L 22.160133,31.978069 C 22.160133,31.978069 26.997745,27.140456 26.997745,27.140456 C 18.528582,18.264221 13.291696,25.230495 11.500037,31.436501 z"
             style="fill:#404040;"/>
          </a>
         </g>
        </svg>
</svg>
