<?xml version="1.0" encoding="UTF-8" standalone="no"?>
<!DOCTYPE svg PUBLIC "-//W3C//DTD SVG 1.1//EN"
 "http://www.w3.org/Graphics/SVG/1.1/DTD/svg11.dtd">
<!-- Generated by graphviz version 2.43.0 (0)
 -->
<!-- Title: ft::irc::string_utils::is_same Pages: 1 -->
<svg width="622pt" height="253pt"
 viewBox="0.00 0.00 622.00 253.00" xmlns="http://www.w3.org/2000/svg" xmlns:xlink="http://www.w3.org/1999/xlink">
<g id="graph0" class="graph" transform="scale(1 1) rotate(0) translate(4 249)">
<title>ft::irc::string_utils::is_same</title>
<polygon fill="white" stroke="transparent" points="-4,4 -4,-249 618,-249 618,4 -4,4"/>
<!-- Node1 -->
<g id="node1" class="node">
<title>Node1</title>
<g id="a_node1"><a xlink:title=" ">
<polygon fill="#bfbfbf" stroke="black" points="513,-110.5 513,-140.5 614,-140.5 614,-110.5 513,-110.5"/>
<text text-anchor="start" x="521" y="-128.5" font-family="Helvetica,sans-Serif" font-size="10.00">ft::irc::string_utils</text>
<text text-anchor="middle" x="563.5" y="-117.5" font-family="Helvetica,sans-Serif" font-size="10.00">::is_same</text>
</a>
</g>
</g>
<!-- Node2 -->
<g id="node2" class="node">
<title>Node2</title>
<g id="a_node2"><a xlink:href="classft_1_1irc_1_1bot.html#aef50e26ad9e418841745fec737a929e1" target="_top" xlink:title=" ">
<polygon fill="white" stroke="black" points="366.5,-214.5 366.5,-244.5 453.5,-244.5 453.5,-214.5 366.5,-214.5"/>
<text text-anchor="start" x="374.5" y="-232.5" font-family="Helvetica,sans-Serif" font-size="10.00">ft::irc::bot::find</text>
<text text-anchor="middle" x="410" y="-221.5" font-family="Helvetica,sans-Serif" font-size="10.00">_channels</text>
</a>
</g>
</g>
<!-- Node1&#45;&gt;Node2 -->
<g id="edge1" class="edge">
<title>Node1&#45;&gt;Node2</title>
<path fill="none" stroke="midnightblue" d="M542.5,-148.24C526.27,-165.57 502.04,-189.01 477,-204.5 469.81,-208.95 461.7,-212.81 453.69,-216.09"/>
<polygon fill="midnightblue" stroke="midnightblue" points="545.19,-150.49 549.37,-140.76 540.03,-145.75 545.19,-150.49"/>
</g>
<!-- Node5 -->
<g id="node5" class="node">
<title>Node5</title>
<g id="a_node5"><a xlink:href="classft_1_1irc_1_1bot.html#ae656abc057f855c98beeb52da4d30f0f" target="_top" xlink:title=" ">
<polygon fill="white" stroke="black" points="353,-176 353,-195 467,-195 467,-176 353,-176"/>
<text text-anchor="middle" x="410" y="-183" font-family="Helvetica,sans-Serif" font-size="10.00">ft::irc::bot::is_inviter</text>
</a>
</g>
</g>
<!-- Node1&#45;&gt;Node5 -->
<g id="edge4" class="edge">
<title>Node1&#45;&gt;Node5</title>
<path fill="none" stroke="midnightblue" d="M524.87,-145.22C510.17,-152.47 493.03,-160.4 477,-166.5 467.86,-169.98 457.81,-173.18 448.36,-175.92"/>
<polygon fill="midnightblue" stroke="midnightblue" points="526.76,-148.18 534.13,-140.57 523.63,-141.93 526.76,-148.18"/>
</g>
<!-- Node6 -->
<g id="node6" class="node">
<title>Node6</title>
<g id="a_node6"><a xlink:href="classft_1_1irc_1_1channel.html#ad30281781ad94941df6db1284869a73b" target="_top" xlink:title=" ">
<polygon fill="white" stroke="black" points="347.5,-0.5 347.5,-30.5 472.5,-30.5 472.5,-0.5 347.5,-0.5"/>
<text text-anchor="start" x="355.5" y="-18.5" font-family="Helvetica,sans-Serif" font-size="10.00">ft::irc::channel::modify</text>
<text text-anchor="middle" x="410" y="-7.5" font-family="Helvetica,sans-Serif" font-size="10.00">_member_mode</text>
</a>
</g>
</g>
<!-- Node1&#45;&gt;Node6 -->
<g id="edge6" class="edge">
<title>Node1&#45;&gt;Node6</title>
<path fill="none" stroke="midnightblue" d="M544.18,-102.53C528.15,-83.7 503.36,-57.48 477,-40.5 471.23,-36.78 464.83,-33.5 458.34,-30.63"/>
<polygon fill="midnightblue" stroke="midnightblue" points="541.61,-104.91 550.7,-110.35 546.99,-100.43 541.61,-104.91"/>
</g>
<!-- Node9 -->
<g id="node9" class="node">
<title>Node9</title>
<g id="a_node9"><a xlink:href="structft_1_1irc_1_1user_1_1pred__equals__nick.html#aa4bfdd8756482385798ed7fd8197f1e1" target="_top" xlink:title=" ">
<polygon fill="white" stroke="black" points="343,-88.5 343,-118.5 477,-118.5 477,-88.5 343,-88.5"/>
<text text-anchor="start" x="351" y="-106.5" font-family="Helvetica,sans-Serif" font-size="10.00">ft::irc::user::pred</text>
<text text-anchor="middle" x="410" y="-95.5" font-family="Helvetica,sans-Serif" font-size="10.00">_equals_nick::operator()</text>
</a>
</g>
</g>
<!-- Node1&#45;&gt;Node9 -->
<g id="edge9" class="edge">
<title>Node1&#45;&gt;Node9</title>
<path fill="none" stroke="midnightblue" d="M502.82,-116.83C494.42,-115.61 485.75,-114.36 477.24,-113.12"/>
<polygon fill="midnightblue" stroke="midnightblue" points="502.49,-120.32 512.89,-118.3 503.5,-113.4 502.49,-120.32"/>
</g>
<!-- Node10 -->
<g id="node10" class="node">
<title>Node10</title>
<g id="a_node10"><a xlink:href="classft_1_1irc_1_1channel.html#aa7b5a547c4ff51772b8a1a6c81f61a8c" target="_top" xlink:title=" ">
<polygon fill="white" stroke="black" points="349,-50 349,-69 471,-69 471,-50 349,-50"/>
<text text-anchor="middle" x="410" y="-57" font-family="Helvetica,sans-Serif" font-size="10.00">ft::irc::channel::unban</text>
</a>
</g>
</g>
<!-- Node1&#45;&gt;Node10 -->
<g id="edge10" class="edge">
<title>Node1&#45;&gt;Node10</title>
<path fill="none" stroke="midnightblue" d="M529.01,-105.48C513.54,-96.75 494.7,-86.85 477,-79.5 467.49,-75.55 456.92,-71.99 447.08,-69.02"/>
<polygon fill="midnightblue" stroke="midnightblue" points="527.29,-108.52 537.71,-110.45 530.77,-102.45 527.29,-108.52"/>
</g>
<!-- Node11 -->
<g id="node11" class="node">
<title>Node11</title>
<g id="a_node11"><a xlink:href="classft_1_1irc_1_1bot.html#a6bea4a41bf2e963f84660531719b1515" target="_top" xlink:title=" ">
<polygon fill="white" stroke="black" points="346,-138 346,-157 474,-157 474,-138 346,-138"/>
<text text-anchor="middle" x="410" y="-145" font-family="Helvetica,sans-Serif" font-size="10.00">ft::irc::bot::update_nick</text>
</a>
</g>
</g>
<!-- Node1&#45;&gt;Node11 -->
<g id="edge12" class="edge">
<title>Node1&#45;&gt;Node11</title>
<path fill="none" stroke="midnightblue" d="M502.87,-134.16C493.47,-135.52 483.73,-136.94 474.26,-138.31"/>
<polygon fill="midnightblue" stroke="midnightblue" points="503.5,-137.6 512.89,-132.7 502.49,-130.68 503.5,-137.6"/>
</g>
<!-- Node3 -->
<g id="node3" class="node">
<title>Node3</title>
<g id="a_node3"><a xlink:href="classft_1_1irc_1_1bot.html#a0b595213781ed0e5aaf1d48fdb602d98" target="_top" xlink:title=" ">
<polygon fill="white" stroke="black" points="164.5,-176 164.5,-195 283.5,-195 283.5,-176 164.5,-176"/>
<text text-anchor="middle" x="224" y="-183" font-family="Helvetica,sans-Serif" font-size="10.00">ft::irc::bot::on_packet</text>
</a>
</g>
</g>
<!-- Node2&#45;&gt;Node3 -->
<g id="edge2" class="edge">
<title>Node2&#45;&gt;Node3</title>
<path fill="none" stroke="midnightblue" d="M356.33,-216.91C327.25,-209.95 291.7,-201.45 264.93,-195.05"/>
<polygon fill="midnightblue" stroke="midnightblue" points="355.78,-220.37 366.32,-219.29 357.41,-213.57 355.78,-220.37"/>
</g>
<!-- Node4 -->
<g id="node4" class="node">
<title>Node4</title>
<g id="a_node4"><a xlink:href="classft_1_1irc_1_1bot__handler.html#a0723185e483ae21fa0f2116ca05165fe" target="_top" xlink:title=" ">
<polygon fill="white" stroke="black" points="0,-170.5 0,-200.5 105,-200.5 105,-170.5 0,-170.5"/>
<text text-anchor="start" x="8" y="-188.5" font-family="Helvetica,sans-Serif" font-size="10.00">ft::irc::bot_handler</text>
<text text-anchor="middle" x="52.5" y="-177.5" font-family="Helvetica,sans-Serif" font-size="10.00">::on_read</text>
</a>
</g>
</g>
<!-- Node3&#45;&gt;Node4 -->
<g id="edge3" class="edge">
<title>Node3&#45;&gt;Node4</title>
<path fill="none" stroke="midnightblue" d="M154.13,-185.5C137.77,-185.5 120.58,-185.5 105.14,-185.5"/>
<polygon fill="midnightblue" stroke="midnightblue" points="154.19,-189 164.19,-185.5 154.19,-182 154.19,-189"/>
</g>
<!-- Node5&#45;&gt;Node3 -->
<g id="edge5" class="edge">
<title>Node5&#45;&gt;Node3</title>
<path fill="none" stroke="midnightblue" d="M342.59,-185.5C323.35,-185.5 302.47,-185.5 283.73,-185.5"/>
<polygon fill="midnightblue" stroke="midnightblue" points="342.79,-189 352.79,-185.5 342.79,-182 342.79,-189"/>
</g>
<!-- Node7 -->
<g id="node7" class="node">
<title>Node7</title>
<g id="a_node7"><a xlink:href="classft_1_1irc_1_1processor__mode.html#a78f0436f90fe62dc8e35152d98eff680" target="_top" xlink:title=" ">
<polygon fill="white" stroke="black" points="141,-22.5 141,-52.5 307,-52.5 307,-22.5 141,-22.5"/>
<text text-anchor="start" x="149" y="-40.5" font-family="Helvetica,sans-Serif" font-size="10.00">ft::irc::processor</text>
<text text-anchor="middle" x="224" y="-29.5" font-family="Helvetica,sans-Serif" font-size="10.00">_mode::update_channel_mode</text>
</a>
</g>
</g>
<!-- Node6&#45;&gt;Node7 -->
<g id="edge7" class="edge">
<title>Node6&#45;&gt;Node7</title>
<path fill="none" stroke="midnightblue" d="M337.29,-24.07C327.39,-25.26 317.16,-26.48 307.08,-27.69"/>
<polygon fill="midnightblue" stroke="midnightblue" points="337.96,-27.52 347.47,-22.86 337.13,-20.57 337.96,-27.52"/>
</g>
<!-- Node8 -->
<g id="node8" class="node">
<title>Node8</title>
<g id="a_node8"><a xlink:href="classft_1_1irc_1_1processor__mode.html#ad013987a789be47379c13f61364135a6" target="_top" xlink:title=" ">
<polygon fill="white" stroke="black" points="5,-22.5 5,-52.5 100,-52.5 100,-22.5 5,-22.5"/>
<text text-anchor="start" x="13" y="-40.5" font-family="Helvetica,sans-Serif" font-size="10.00">ft::irc::processor</text>
<text text-anchor="middle" x="52.5" y="-29.5" font-family="Helvetica,sans-Serif" font-size="10.00">_mode::execute</text>
</a>
</g>
</g>
<!-- Node7&#45;&gt;Node8 -->
<g id="edge8" class="edge">
<title>Node7&#45;&gt;Node8</title>
<path fill="none" stroke="midnightblue" d="M130.69,-37.5C120.24,-37.5 109.94,-37.5 100.44,-37.5"/>
<polygon fill="midnightblue" stroke="midnightblue" points="130.73,-41 140.73,-37.5 130.73,-34 130.73,-41"/>
</g>
<!-- Node10&#45;&gt;Node7 -->
<g id="edge11" class="edge">
<title>Node10&#45;&gt;Node7</title>
<path fill="none" stroke="midnightblue" d="M338.6,-51.08C328.3,-49.85 317.62,-48.57 307.11,-47.32"/>
<polygon fill="midnightblue" stroke="midnightblue" points="338.41,-54.58 348.75,-52.3 339.24,-47.63 338.41,-54.58"/>
</g>
<!-- Node11&#45;&gt;Node3 -->
<g id="edge13" class="edge">
<title>Node11&#45;&gt;Node3</title>
<path fill="none" stroke="midnightblue" d="M352.44,-159.18C326.35,-164.57 295.76,-170.89 271.1,-175.98"/>
<polygon fill="midnightblue" stroke="midnightblue" points="353.48,-162.54 362.57,-157.09 352.07,-155.68 353.48,-162.54"/>
</g>
</g>
</svg>
