<?xml version="1.0" encoding="UTF-8" standalone="no"?>
<!DOCTYPE svg PUBLIC "-//W3C//DTD SVG 1.1//EN"
 "http://www.w3.org/Graphics/SVG/1.1/DTD/svg11.dtd">
<!-- Generated by graphviz version 2.43.0 (0)
 -->
<!-- Title: ft::irc::string_utils::is_same Pages: 1 -->
<svg width="612pt" height="302pt"
 viewBox="0.00 0.00 612.00 302.00" xmlns="http://www.w3.org/2000/svg" xmlns:xlink="http://www.w3.org/1999/xlink">
<g id="graph0" class="graph" transform="scale(1 1) rotate(0) translate(4 298)">
<title>ft::irc::string_utils::is_same</title>
<polygon fill="white" stroke="transparent" points="-4,4 -4,-298 608,-298 608,4 -4,4"/>
<!-- Node1 -->
<g id="node1" class="node">
<title>Node1</title>
<g id="a_node1"><a xlink:title=" ">
<polygon fill="#bfbfbf" stroke="black" points="503,-132 503,-162 604,-162 604,-132 503,-132"/>
<text text-anchor="start" x="511" y="-150" font-family="Helvetica,sans-Serif" font-size="10.00">ft::irc::string_utils</text>
<text text-anchor="middle" x="553.5" y="-139" font-family="Helvetica,sans-Serif" font-size="10.00">::is_same</text>
</a>
</g>
</g>
<!-- Node2 -->
<g id="node2" class="node">
<title>Node2</title>
<g id="a_node2"><a xlink:href="classft_1_1irc_1_1bot.html#aa86cf24bc5169f54781b1a89735fae3d" target="_top" xlink:title=" ">
<polygon fill="white" stroke="black" points="356.5,-176 356.5,-206 443.5,-206 443.5,-176 356.5,-176"/>
<text text-anchor="start" x="364.5" y="-194" font-family="Helvetica,sans-Serif" font-size="10.00">ft::irc::bot::find</text>
<text text-anchor="middle" x="400" y="-183" font-family="Helvetica,sans-Serif" font-size="10.00">_channels</text>
</a>
</g>
</g>
<!-- Node1&#45;&gt;Node2 -->
<g id="edge1" class="edge">
<title>Node1&#45;&gt;Node2</title>
<path fill="none" stroke="midnightblue" d="M493.28,-164.2C476.7,-169.01 459.01,-174.15 443.6,-178.63"/>
<polygon fill="midnightblue" stroke="midnightblue" points="494.27,-167.56 502.89,-161.41 492.31,-160.84 494.27,-167.56"/>
</g>
<!-- Node4 -->
<g id="node4" class="node">
<title>Node4</title>
<g id="a_node4"><a xlink:href="classft_1_1irc_1_1channel.html#a167149fa7b382fa3986d794b298706ce" target="_top" xlink:title=" ">
<polygon fill="white" stroke="black" points="350,-225 350,-255 450,-255 450,-225 350,-225"/>
<text text-anchor="start" x="358" y="-243" font-family="Helvetica,sans-Serif" font-size="10.00">ft::irc::channel::is</text>
<text text-anchor="middle" x="400" y="-232" font-family="Helvetica,sans-Serif" font-size="10.00">_banned</text>
</a>
</g>
</g>
<!-- Node1&#45;&gt;Node4 -->
<g id="edge3" class="edge">
<title>Node1&#45;&gt;Node4</title>
<path fill="none" stroke="midnightblue" d="M529.49,-169.1C513.1,-183.92 489.98,-203.03 467,-216 461.16,-219.3 454.78,-222.28 448.37,-224.94"/>
<polygon fill="midnightblue" stroke="midnightblue" points="531.98,-171.57 536.96,-162.22 527.24,-166.42 531.98,-171.57"/>
</g>
<!-- Node5 -->
<g id="node5" class="node">
<title>Node5</title>
<g id="a_node5"><a xlink:href="classft_1_1irc_1_1bot.html#ae656abc057f855c98beeb52da4d30f0f" target="_top" xlink:title=" ">
<polygon fill="white" stroke="black" points="343,-137.5 343,-156.5 457,-156.5 457,-137.5 343,-137.5"/>
<text text-anchor="middle" x="400" y="-144.5" font-family="Helvetica,sans-Serif" font-size="10.00">ft::irc::bot::is_inviter</text>
</a>
</g>
</g>
<!-- Node1&#45;&gt;Node5 -->
<g id="edge4" class="edge">
<title>Node1&#45;&gt;Node5</title>
<path fill="none" stroke="midnightblue" d="M492.72,-147C480.96,-147 468.65,-147 457.02,-147"/>
<polygon fill="midnightblue" stroke="midnightblue" points="492.89,-150.5 502.89,-147 492.89,-143.5 492.89,-150.5"/>
</g>
<!-- Node6 -->
<g id="node6" class="node">
<title>Node6</title>
<g id="a_node6"><a xlink:href="classft_1_1irc_1_1channel.html#ad30281781ad94941df6db1284869a73b" target="_top" xlink:title=" ">
<polygon fill="white" stroke="black" points="337.5,-39 337.5,-69 462.5,-69 462.5,-39 337.5,-39"/>
<text text-anchor="start" x="345.5" y="-57" font-family="Helvetica,sans-Serif" font-size="10.00">ft::irc::channel::modify</text>
<text text-anchor="middle" x="400" y="-46" font-family="Helvetica,sans-Serif" font-size="10.00">_member_mode</text>
</a>
</g>
</g>
<!-- Node1&#45;&gt;Node6 -->
<g id="edge6" class="edge">
<title>Node1&#45;&gt;Node6</title>
<path fill="none" stroke="midnightblue" d="M529.07,-125.06C512.65,-110.55 489.67,-91.89 467,-79 460.61,-75.37 453.59,-72.06 446.58,-69.13"/>
<polygon fill="midnightblue" stroke="midnightblue" points="526.8,-127.73 536.58,-131.81 531.48,-122.52 526.8,-127.73"/>
</g>
<!-- Node9 -->
<g id="node9" class="node">
<title>Node9</title>
<g id="a_node9"><a xlink:href="structft_1_1irc_1_1user_1_1pred__equals__nick.html#aa4bfdd8756482385798ed7fd8197f1e1" target="_top" xlink:title=" ">
<polygon fill="white" stroke="black" points="333,-88 333,-118 467,-118 467,-88 333,-88"/>
<text text-anchor="start" x="341" y="-106" font-family="Helvetica,sans-Serif" font-size="10.00">ft::irc::user::pred</text>
<text text-anchor="middle" x="400" y="-95" font-family="Helvetica,sans-Serif" font-size="10.00">_equals_nick::operator()</text>
</a>
</g>
</g>
<!-- Node1&#45;&gt;Node9 -->
<g id="edge9" class="edge">
<title>Node1&#45;&gt;Node9</title>
<path fill="none" stroke="midnightblue" d="M492.92,-129.7C479.66,-125.85 465.71,-121.79 452.8,-118.04"/>
<polygon fill="midnightblue" stroke="midnightblue" points="492.31,-133.16 502.89,-132.59 494.27,-126.44 492.31,-133.16"/>
</g>
<!-- Node10 -->
<g id="node10" class="node">
<title>Node10</title>
<g id="a_node10"><a xlink:href="classft_1_1irc_1_1channel.html#aa7b5a547c4ff51772b8a1a6c81f61a8c" target="_top" xlink:title=" ">
<polygon fill="white" stroke="black" points="339,-0.5 339,-19.5 461,-19.5 461,-0.5 339,-0.5"/>
<text text-anchor="middle" x="400" y="-7.5" font-family="Helvetica,sans-Serif" font-size="10.00">ft::irc::channel::unban</text>
</a>
</g>
</g>
<!-- Node1&#45;&gt;Node10 -->
<g id="edge10" class="edge">
<title>Node1&#45;&gt;Node10</title>
<path fill="none" stroke="midnightblue" d="M541.11,-122.71C527.29,-95.86 501.49,-53.21 467,-29 461.44,-25.1 455.08,-21.99 448.56,-19.52"/>
<polygon fill="midnightblue" stroke="midnightblue" points="538.06,-124.44 545.65,-131.83 544.32,-121.32 538.06,-124.44"/>
</g>
<!-- Node11 -->
<g id="node11" class="node">
<title>Node11</title>
<g id="a_node11"><a xlink:href="classft_1_1irc_1_1bot.html#a6bea4a41bf2e963f84660531719b1515" target="_top" xlink:title=" ">
<polygon fill="white" stroke="black" points="336,-274.5 336,-293.5 464,-293.5 464,-274.5 336,-274.5"/>
<text text-anchor="middle" x="400" y="-281.5" font-family="Helvetica,sans-Serif" font-size="10.00">ft::irc::bot::update_nick</text>
</a>
</g>
</g>
<!-- Node1&#45;&gt;Node11 -->
<g id="edge12" class="edge">
<title>Node1&#45;&gt;Node11</title>
<path fill="none" stroke="midnightblue" d="M541.11,-171.29C527.29,-198.14 501.49,-240.79 467,-265 461.44,-268.9 455.08,-272.01 448.56,-274.48"/>
<polygon fill="midnightblue" stroke="midnightblue" points="544.32,-172.68 545.65,-162.17 538.06,-169.56 544.32,-172.68"/>
</g>
<!-- Node3 -->
<g id="node3" class="node">
<title>Node3</title>
<g id="a_node3"><a xlink:href="classft_1_1irc_1_1bot__handler.html#a0723185e483ae21fa0f2116ca05165fe" target="_top" xlink:title=" ">
<polygon fill="white" stroke="black" points="161.5,-176 161.5,-206 266.5,-206 266.5,-176 161.5,-176"/>
<text text-anchor="start" x="169.5" y="-194" font-family="Helvetica,sans-Serif" font-size="10.00">ft::irc::bot_handler</text>
<text text-anchor="middle" x="214" y="-183" font-family="Helvetica,sans-Serif" font-size="10.00">::on_read</text>
</a>
</g>
</g>
<!-- Node2&#45;&gt;Node3 -->
<g id="edge2" class="edge">
<title>Node2&#45;&gt;Node3</title>
<path fill="none" stroke="midnightblue" d="M346.28,-191C321.27,-191 291.49,-191 266.62,-191"/>
<polygon fill="midnightblue" stroke="midnightblue" points="346.32,-194.5 356.32,-191 346.32,-187.5 346.32,-194.5"/>
</g>
<!-- Node5&#45;&gt;Node3 -->
<g id="edge5" class="edge">
<title>Node5&#45;&gt;Node3</title>
<path fill="none" stroke="midnightblue" d="M349.22,-158.9C323.67,-165.01 292.57,-172.45 266.74,-178.63"/>
<polygon fill="midnightblue" stroke="midnightblue" points="350.16,-162.28 359.07,-156.55 348.53,-155.47 350.16,-162.28"/>
</g>
<!-- Node7 -->
<g id="node7" class="node">
<title>Node7</title>
<g id="a_node7"><a xlink:href="classft_1_1irc_1_1processor__mode.html#a78f0436f90fe62dc8e35152d98eff680" target="_top" xlink:title=" ">
<polygon fill="white" stroke="black" points="131,-17 131,-47 297,-47 297,-17 131,-17"/>
<text text-anchor="start" x="139" y="-35" font-family="Helvetica,sans-Serif" font-size="10.00">ft::irc::processor</text>
<text text-anchor="middle" x="214" y="-24" font-family="Helvetica,sans-Serif" font-size="10.00">_mode::update_channel_mode</text>
</a>
</g>
</g>
<!-- Node6&#45;&gt;Node7 -->
<g id="edge7" class="edge">
<title>Node6&#45;&gt;Node7</title>
<path fill="none" stroke="midnightblue" d="M327.29,-45.43C317.39,-44.24 307.16,-43.02 297.08,-41.81"/>
<polygon fill="midnightblue" stroke="midnightblue" points="327.13,-48.93 337.47,-46.64 327.96,-41.98 327.13,-48.93"/>
</g>
<!-- Node8 -->
<g id="node8" class="node">
<title>Node8</title>
<g id="a_node8"><a xlink:href="classft_1_1irc_1_1processor__mode.html#ad013987a789be47379c13f61364135a6" target="_top" xlink:title=" ">
<polygon fill="white" stroke="black" points="0,-17 0,-47 95,-47 95,-17 0,-17"/>
<text text-anchor="start" x="8" y="-35" font-family="Helvetica,sans-Serif" font-size="10.00">ft::irc::processor</text>
<text text-anchor="middle" x="47.5" y="-24" font-family="Helvetica,sans-Serif" font-size="10.00">_mode::execute</text>
</a>
</g>
</g>
<!-- Node7&#45;&gt;Node8 -->
<g id="edge8" class="edge">
<title>Node7&#45;&gt;Node8</title>
<path fill="none" stroke="midnightblue" d="M120.47,-32C111.76,-32 103.2,-32 95.2,-32"/>
<polygon fill="midnightblue" stroke="midnightblue" points="120.75,-35.5 130.75,-32 120.75,-28.5 120.75,-35.5"/>
</g>
<!-- Node10&#45;&gt;Node7 -->
<g id="edge11" class="edge">
<title>Node10&#45;&gt;Node7</title>
<path fill="none" stroke="midnightblue" d="M328.6,-18.42C318.3,-19.65 307.62,-20.93 297.11,-22.18"/>
<polygon fill="midnightblue" stroke="midnightblue" points="329.24,-21.87 338.75,-17.2 328.41,-14.92 329.24,-21.87"/>
</g>
<!-- Node11&#45;&gt;Node3 -->
<g id="edge13" class="edge">
<title>Node11&#45;&gt;Node3</title>
<path fill="none" stroke="midnightblue" d="M349.04,-271.24C343.55,-269.36 338.1,-267.28 333,-265 296.57,-248.72 258.08,-222.69 235.32,-206.23"/>
<polygon fill="midnightblue" stroke="midnightblue" points="348.33,-274.69 358.92,-274.41 350.47,-268.02 348.33,-274.69"/>
</g>
</g>
</svg>
