<?xml version="1.0" encoding="UTF-8" standalone="no"?>
<!DOCTYPE svg PUBLIC "-//W3C//DTD SVG 1.1//EN"
 "http://www.w3.org/Graphics/SVG/1.1/DTD/svg11.dtd">
<!-- Generated by graphviz version 2.43.0 (0)
 -->
<!-- Title: ft::serv::logger::warn Pages: 1 -->
<svg width="540pt" height="166pt"
 viewBox="0.00 0.00 540.00 165.50" xmlns="http://www.w3.org/2000/svg" xmlns:xlink="http://www.w3.org/1999/xlink">
<g id="graph0" class="graph" transform="scale(1 1) rotate(0) translate(4 161.5)">
<title>ft::serv::logger::warn</title>
<polygon fill="white" stroke="transparent" points="-4,4 -4,-161.5 536,-161.5 536,4 -4,4"/>
<!-- Node1 -->
<g id="node1" class="node">
<title>Node1</title>
<g id="a_node1"><a xlink:title=" ">
<polygon fill="#bfbfbf" stroke="black" points="416,-72 416,-91 532,-91 532,-72 416,-72"/>
<text text-anchor="middle" x="474" y="-79" font-family="Helvetica,sans-Serif" font-size="10.00">ft::serv::logger::warn</text>
</a>
</g>
</g>
<!-- Node2 -->
<g id="node2" class="node">
<title>Node2</title>
<g id="a_node2"><a xlink:href="main_8cpp.html#a4b8f6bfb370734d9097623adf02d499d" target="_top" xlink:title=" ">
<polygon fill="white" stroke="black" points="285,-138 285,-157 353,-157 353,-138 285,-138"/>
<text text-anchor="middle" x="319" y="-145" font-family="Helvetica,sans-Serif" font-size="10.00">_on_signal</text>
</a>
</g>
</g>
<!-- Node1&#45;&gt;Node2 -->
<g id="edge1" class="edge">
<title>Node1&#45;&gt;Node2</title>
<path fill="none" stroke="midnightblue" d="M446.57,-95.79C428.2,-105.42 402.98,-118.04 380,-127.5 370.86,-131.26 360.73,-134.85 351.44,-137.92"/>
<polygon fill="midnightblue" stroke="midnightblue" points="448.31,-98.83 455.51,-91.06 445.03,-92.64 448.31,-98.83"/>
</g>
<!-- Node4 -->
<g id="node4" class="node">
<title>Node4</title>
<g id="a_node4"><a xlink:href="classft_1_1serv_1_1event__worker.html#a3a53967547f82f9bfa578cee9fafb416" target="_top" xlink:title=" ">
<polygon fill="white" stroke="black" points="258,-88.5 258,-118.5 380,-118.5 380,-88.5 258,-88.5"/>
<text text-anchor="start" x="266" y="-106.5" font-family="Helvetica,sans-Serif" font-size="10.00">ft::serv::event_worker</text>
<text text-anchor="middle" x="319" y="-95.5" font-family="Helvetica,sans-Serif" font-size="10.00">::loop</text>
</a>
</g>
</g>
<!-- Node1&#45;&gt;Node4 -->
<g id="edge3" class="edge">
<title>Node1&#45;&gt;Node4</title>
<path fill="none" stroke="midnightblue" d="M405.67,-91.18C397.13,-92.41 388.44,-93.66 380.03,-94.87"/>
<polygon fill="midnightblue" stroke="midnightblue" points="406.19,-94.64 415.59,-89.75 405.2,-87.71 406.19,-94.64"/>
</g>
<!-- Node7 -->
<g id="node7" class="node">
<title>Node7</title>
<g id="a_node7"><a xlink:href="bot__main_8cpp.html#a0ddf1224851353fc92bfbff6f499fa97" target="_top" xlink:title=" ">
<polygon fill="white" stroke="black" points="298.5,-50 298.5,-69 339.5,-69 339.5,-50 298.5,-50"/>
<text text-anchor="middle" x="319" y="-57" font-family="Helvetica,sans-Serif" font-size="10.00">main</text>
</a>
</g>
</g>
<!-- Node1&#45;&gt;Node7 -->
<g id="edge6" class="edge">
<title>Node1&#45;&gt;Node7</title>
<path fill="none" stroke="midnightblue" d="M405.42,-71.78C381.44,-68.33 356.27,-64.72 339.52,-62.31"/>
<polygon fill="midnightblue" stroke="midnightblue" points="405.2,-75.29 415.59,-73.25 406.19,-68.36 405.2,-75.29"/>
</g>
<!-- Node8 -->
<g id="node8" class="node">
<title>Node8</title>
<g id="a_node8"><a xlink:href="classft_1_1serv_1_1event__worker.html#ad207c630e203c7737687a31ea0230f8c" target="_top" xlink:title=" ">
<polygon fill="white" stroke="black" points="258,-0.5 258,-30.5 380,-30.5 380,-0.5 258,-0.5"/>
<text text-anchor="start" x="266" y="-18.5" font-family="Helvetica,sans-Serif" font-size="10.00">ft::serv::event_worker</text>
<text text-anchor="middle" x="319" y="-7.5" font-family="Helvetica,sans-Serif" font-size="10.00">::process_events</text>
</a>
</g>
</g>
<!-- Node1&#45;&gt;Node8 -->
<g id="edge7" class="edge">
<title>Node1&#45;&gt;Node8</title>
<path fill="none" stroke="midnightblue" d="M442.17,-67.72C424.1,-59.69 400.8,-49.42 380,-40.5 372.43,-37.25 364.3,-33.83 356.54,-30.58"/>
<polygon fill="midnightblue" stroke="midnightblue" points="441.07,-71.06 451.63,-71.93 443.92,-64.67 441.07,-71.06"/>
</g>
<!-- Node3 -->
<g id="node3" class="node">
<title>Node3</title>
<g id="a_node3"><a xlink:href="main_8cpp.html#a0ddf1224851353fc92bfbff6f499fa97" target="_top" xlink:title=" ">
<polygon fill="white" stroke="black" points="169.5,-138 169.5,-157 210.5,-157 210.5,-138 169.5,-138"/>
<text text-anchor="middle" x="190" y="-145" font-family="Helvetica,sans-Serif" font-size="10.00">main</text>
</a>
</g>
</g>
<!-- Node2&#45;&gt;Node3 -->
<g id="edge2" class="edge">
<title>Node2&#45;&gt;Node3</title>
<path fill="none" stroke="midnightblue" d="M274.95,-147.5C253.22,-147.5 227.91,-147.5 210.81,-147.5"/>
<polygon fill="midnightblue" stroke="midnightblue" points="274.96,-151 284.96,-147.5 274.96,-144 274.96,-151"/>
</g>
<!-- Node5 -->
<g id="node5" class="node">
<title>Node5</title>
<g id="a_node5"><a xlink:href="event__worker__group_8cpp.html#ad74a2b88b0a09afdd296adaddf5c2824" target="_top" xlink:title=" ">
<polygon fill="white" stroke="black" points="158,-94 158,-113 222,-113 222,-94 158,-94"/>
<text text-anchor="middle" x="190" y="-101" font-family="Helvetica,sans-Serif" font-size="10.00">_run_loop</text>
</a>
</g>
</g>
<!-- Node4&#45;&gt;Node5 -->
<g id="edge4" class="edge">
<title>Node4&#45;&gt;Node5</title>
<path fill="none" stroke="midnightblue" d="M247.75,-103.5C238.84,-103.5 230.11,-103.5 222.27,-103.5"/>
<polygon fill="midnightblue" stroke="midnightblue" points="247.85,-107 257.85,-103.5 247.85,-100 247.85,-107"/>
</g>
<!-- Node6 -->
<g id="node6" class="node">
<title>Node6</title>
<g id="a_node6"><a xlink:href="classft_1_1serv_1_1event__worker__group.html#a38691f464474653f2050bc99ea55b6d8" target="_top" xlink:title=" ">
<polygon fill="white" stroke="black" points="0,-88.5 0,-118.5 122,-118.5 122,-88.5 0,-88.5"/>
<text text-anchor="start" x="8" y="-106.5" font-family="Helvetica,sans-Serif" font-size="10.00">ft::serv::event_worker</text>
<text text-anchor="middle" x="61" y="-95.5" font-family="Helvetica,sans-Serif" font-size="10.00">_group::put_worker</text>
</a>
</g>
</g>
<!-- Node5&#45;&gt;Node6 -->
<g id="edge5" class="edge">
<title>Node5&#45;&gt;Node6</title>
<path fill="none" stroke="midnightblue" d="M147.84,-103.5C139.6,-103.5 130.77,-103.5 122.04,-103.5"/>
<polygon fill="midnightblue" stroke="midnightblue" points="147.93,-107 157.93,-103.5 147.93,-100 147.93,-107"/>
</g>
</g>
</svg>
