<?xml version="1.0" encoding="UTF-8" standalone="no"?>
<!DOCTYPE svg PUBLIC "-//W3C//DTD SVG 1.1//EN"
 "http://www.w3.org/Graphics/SVG/1.1/DTD/svg11.dtd">
<!-- Generated by graphviz version 2.43.0 (0)
 -->
<!-- Title: ft::irc::string_utils::to_lower Pages: 1 -->
<!--zoomable 407 -->
<svg id="main" version="1.1" xmlns="http://www.w3.org/2000/svg" xmlns:xlink="http://www.w3.org/1999/xlink" xml:space="preserve" onload="init(evt)">
<style type="text/css"><![CDATA[
.edge:hover path { stroke: red; }
.edge:hover polygon { stroke: red; fill: red; }
]]></style>
<script type="text/javascript"><![CDATA[
var edges = document.getElementsByTagName('g');
if (edges && edges.length) {
  for (var i=0;i<edges.length;i++) {
    if (edges[i].id.substr(0,4)=='edge') {
      edges[i].setAttribute('class','edge');
    }
  }
}
]]></script>
        <defs>
                <circle id="rim" cx="0" cy="0" r="7"/>
                <circle id="rim2" cx="0" cy="0" r="3.5"/>
                <g id="zoomPlus">
                        <use xlink:href="#rim" fill="#404040">
                                <set attributeName="fill" to="#808080" begin="zoomplus.mouseover" end="zoomplus.mouseout"/>
                        </use>
                        <path d="M-4,0h8M0,-4v8" fill="none" stroke="white" stroke-width="1.5" pointer-events="none"/>
                </g>
                <g id="zoomMin">
                        <use xlink:href="#rim" fill="#404040">
                                <set attributeName="fill" to="#808080" begin="zoomminus.mouseover" end="zoomminus.mouseout"/>
                        </use>
                        <path d="M-4,0h8" fill="none" stroke="white" stroke-width="1.5" pointer-events="none"/>
                </g>
                <g id="dirArrow">
                        <path fill="none" stroke="white" stroke-width="1.5" d="M0,-3.0v7 M-2.5,-0.5L0,-3.0L2.5,-0.5"/>
                </g>
               <g id="resetDef">
                       <use xlink:href="#rim2" fill="#404040">
                               <set attributeName="fill" to="#808080" begin="reset.mouseover" end="reset.mouseout"/>
                       </use>
               </g>
        </defs>

<script type="text/javascript">
var viewWidth = 808;
var viewHeight = 407;
var sectionId = 'dynsection-13';
</script>
<script xlink:href="svgpan.js"/>
<svg id="graph" class="graph">
<g id="viewport">
<title>ft::irc::string_utils::to_lower</title>
<polygon fill="white" stroke="transparent" points="-4,4 -4,-402.5 804,-402.5 804,4 -4,4"/>
<!-- Node1 -->
<g id="node1" class="node">
<title>Node1</title>
<g id="a_node1"><a xlink:title=" ">
<polygon fill="#bfbfbf" stroke="black" points="699,-297.5 699,-327.5 800,-327.5 800,-297.5 699,-297.5"/>
<text text-anchor="start" x="707" y="-315.5" font-family="Helvetica,sans-Serif" font-size="10.00">ft::irc::string_utils</text>
<text text-anchor="middle" x="749.5" y="-304.5" font-family="Helvetica,sans-Serif" font-size="10.00">::to_lower</text>
</a>
</g>
</g>
<!-- Node2 -->
<g id="node2" class="node">
<title>Node2</title>
<g id="a_node2"><a xlink:href="classft_1_1irc_1_1user.html#af02e786035bc1122895f36f9db8f2c9a" target="_top" xlink:title=" ">
<polygon fill="white" stroke="black" points="343,-363 343,-382 478,-382 478,-363 343,-363"/>
<text text-anchor="middle" x="410.5" y="-370" font-family="Helvetica,sans-Serif" font-size="10.00">ft::irc::user::change_nick</text>
</a>
</g>
</g>
<!-- Node1&#45;&gt;Node2 -->
<g id="edge1" class="edge">
<title>Node1&#45;&gt;Node2</title>
<path fill="none" stroke="midnightblue" d="M688.82,-326.22C680.18,-328.07 671.37,-329.89 663,-331.5 599.79,-343.67 527.19,-355.25 476.29,-362.98"/>
<polygon fill="midnightblue" stroke="midnightblue" points="689.84,-329.58 698.87,-324.03 688.35,-322.74 689.84,-329.58"/>
</g>
<!-- Node4 -->
<g id="node4" class="node">
<title>Node4</title>
<g id="a_node4"><a xlink:href="classft_1_1irc_1_1server.html#ab534369c5d538fbf60852889a7d8127b" target="_top" xlink:title=" ">
<polygon fill="white" stroke="black" points="523,-379 523,-398 654,-398 654,-379 523,-379"/>
<text text-anchor="middle" x="588.5" y="-386" font-family="Helvetica,sans-Serif" font-size="10.00">ft::irc::server::hold_nick</text>
</a>
</g>
</g>
<!-- Node1&#45;&gt;Node4 -->
<g id="edge3" class="edge">
<title>Node1&#45;&gt;Node4</title>
<path fill="none" stroke="midnightblue" d="M718.38,-333.18C702.41,-343.52 682.18,-355.68 663,-364.5 650.68,-370.16 636.64,-375.09 624.16,-378.99"/>
<polygon fill="midnightblue" stroke="midnightblue" points="720.35,-336.07 726.78,-327.65 716.5,-330.22 720.35,-336.07"/>
</g>
<!-- Node5 -->
<g id="node5" class="node">
<title>Node5</title>
<g id="a_node5"><a xlink:href="structft_1_1irc_1_1string__utils.html#abd73422cb93e7f7f26cfd59a221933a2" target="_top" xlink:title=" ">
<polygon fill="white" stroke="black" points="538,-176.5 538,-206.5 639,-206.5 639,-176.5 538,-176.5"/>
<text text-anchor="start" x="546" y="-194.5" font-family="Helvetica,sans-Serif" font-size="10.00">ft::irc::string_utils</text>
<text text-anchor="middle" x="588.5" y="-183.5" font-family="Helvetica,sans-Serif" font-size="10.00">::is_same</text>
</a>
</g>
</g>
<!-- Node1&#45;&gt;Node5 -->
<g id="edge5" class="edge">
<title>Node1&#45;&gt;Node5</title>
<path fill="none" stroke="midnightblue" d="M720.64,-291.3C688.76,-267.04 637.36,-227.92 609.32,-206.58"/>
<polygon fill="midnightblue" stroke="midnightblue" points="718.61,-294.15 728.68,-297.42 722.85,-288.58 718.61,-294.15"/>
</g>
<!-- Node16 -->
<g id="node16" class="node">
<title>Node16</title>
<g id="a_node16"><a xlink:href="structft_1_1irc_1_1string__utils.html#a4d870ac385b6f7fcdacaa1b071810876" target="_top" xlink:title=" ">
<polygon fill="white" stroke="black" points="514,-64.5 514,-94.5 663,-94.5 663,-64.5 514,-64.5"/>
<text text-anchor="start" x="522" y="-82.5" font-family="Helvetica,sans-Serif" font-size="10.00">ft::irc::string_utils</text>
<text text-anchor="middle" x="588.5" y="-71.5" font-family="Helvetica,sans-Serif" font-size="10.00">::match_mask_ignore_case</text>
</a>
</g>
</g>
<!-- Node1&#45;&gt;Node16 -->
<g id="edge19" class="edge">
<title>Node1&#45;&gt;Node16</title>
<path fill="none" stroke="midnightblue" d="M735.68,-288.05C719.88,-258.6 691.6,-208.05 663,-167.5 644.07,-140.66 619.01,-111.86 603.58,-94.78"/>
<polygon fill="midnightblue" stroke="midnightblue" points="732.75,-290 740.54,-297.18 738.93,-286.71 732.75,-290"/>
</g>
<!-- Node18 -->
<g id="node18" class="node">
<title>Node18</title>
<g id="a_node18"><a xlink:href="classft_1_1irc_1_1server.html#a2f4c8826af7867f18ed67c1b9dabf65f" target="_top" xlink:title=" ">
<polygon fill="white" stroke="black" points="515.5,-303 515.5,-322 661.5,-322 661.5,-303 515.5,-303"/>
<text text-anchor="middle" x="588.5" y="-310" font-family="Helvetica,sans-Serif" font-size="10.00">ft::irc::server::release_nick</text>
</a>
</g>
</g>
<!-- Node1&#45;&gt;Node18 -->
<g id="edge21" class="edge">
<title>Node1&#45;&gt;Node18</title>
<path fill="none" stroke="midnightblue" d="M688.5,-312.5C679.72,-312.5 670.61,-312.5 661.61,-312.5"/>
<polygon fill="midnightblue" stroke="midnightblue" points="688.63,-316 698.63,-312.5 688.63,-309 688.63,-316"/>
</g>
<!-- Node3 -->
<g id="node3" class="node">
<title>Node3</title>
<g id="a_node3"><a xlink:href="classft_1_1irc_1_1processor__nick.html#a7a2f0f709488328c04b6ccf0c41ce78e" target="_top" xlink:title=" ">
<polygon fill="white" stroke="black" points="176.5,-357.5 176.5,-387.5 271.5,-387.5 271.5,-357.5 176.5,-357.5"/>
<text text-anchor="start" x="184.5" y="-375.5" font-family="Helvetica,sans-Serif" font-size="10.00">ft::irc::processor</text>
<text text-anchor="middle" x="224" y="-364.5" font-family="Helvetica,sans-Serif" font-size="10.00">_nick::execute</text>
</a>
</g>
</g>
<!-- Node2&#45;&gt;Node3 -->
<g id="edge2" class="edge">
<title>Node2&#45;&gt;Node3</title>
<path fill="none" stroke="midnightblue" d="M332.79,-372.5C312.01,-372.5 290.14,-372.5 271.57,-372.5"/>
<polygon fill="midnightblue" stroke="midnightblue" points="332.89,-376 342.89,-372.5 332.89,-369 332.89,-376"/>
</g>
<!-- Node4&#45;&gt;Node2 -->
<g id="edge4" class="edge">
<title>Node4&#45;&gt;Node2</title>
<path fill="none" stroke="midnightblue" d="M512.91,-381.72C501.34,-380.67 489.47,-379.59 478.09,-378.55"/>
<polygon fill="midnightblue" stroke="midnightblue" points="512.69,-385.21 522.96,-382.63 513.32,-378.24 512.69,-385.21"/>
</g>
<!-- Node6 -->
<g id="node6" class="node">
<title>Node6</title>
<g id="a_node6"><a xlink:href="classft_1_1irc_1_1bot.html#aef50e26ad9e418841745fec737a929e1" target="_top" xlink:title=" ">
<polygon fill="white" stroke="black" points="367,-176.5 367,-206.5 454,-206.5 454,-176.5 367,-176.5"/>
<text text-anchor="start" x="375" y="-194.5" font-family="Helvetica,sans-Serif" font-size="10.00">ft::irc::bot::find</text>
<text text-anchor="middle" x="410.5" y="-183.5" font-family="Helvetica,sans-Serif" font-size="10.00">_channels</text>
</a>
</g>
</g>
<!-- Node5&#45;&gt;Node6 -->
<g id="edge6" class="edge">
<title>Node5&#45;&gt;Node6</title>
<path fill="none" stroke="midnightblue" d="M527.43,-191.5C503.34,-191.5 476.13,-191.5 454.13,-191.5"/>
<polygon fill="midnightblue" stroke="midnightblue" points="527.54,-195 537.54,-191.5 527.54,-188 527.54,-195"/>
</g>
<!-- Node9 -->
<g id="node9" class="node">
<title>Node9</title>
<g id="a_node9"><a xlink:href="classft_1_1irc_1_1bot.html#ae656abc057f855c98beeb52da4d30f0f" target="_top" xlink:title=" ">
<polygon fill="white" stroke="black" points="353.5,-138 353.5,-157 467.5,-157 467.5,-138 353.5,-138"/>
<text text-anchor="middle" x="410.5" y="-145" font-family="Helvetica,sans-Serif" font-size="10.00">ft::irc::bot::is_inviter</text>
</a>
</g>
</g>
<!-- Node5&#45;&gt;Node9 -->
<g id="edge9" class="edge">
<title>Node5&#45;&gt;Node9</title>
<path fill="none" stroke="midnightblue" d="M527.82,-176.58C501.93,-170.11 472.39,-162.72 449.55,-157.01"/>
<polygon fill="midnightblue" stroke="midnightblue" points="526.99,-179.98 537.54,-179.01 528.68,-173.19 526.99,-179.98"/>
</g>
<!-- Node10 -->
<g id="node10" class="node">
<title>Node10</title>
<g id="a_node10"><a xlink:href="classft_1_1irc_1_1channel.html#ad30281781ad94941df6db1284869a73b" target="_top" xlink:title=" ">
<polygon fill="white" stroke="black" points="348,-88.5 348,-118.5 473,-118.5 473,-88.5 348,-88.5"/>
<text text-anchor="start" x="356" y="-106.5" font-family="Helvetica,sans-Serif" font-size="10.00">ft::irc::channel::modify</text>
<text text-anchor="middle" x="410.5" y="-95.5" font-family="Helvetica,sans-Serif" font-size="10.00">_member_mode</text>
</a>
</g>
</g>
<!-- Node5&#45;&gt;Node10 -->
<g id="edge11" class="edge">
<title>Node5&#45;&gt;Node10</title>
<path fill="none" stroke="midnightblue" d="M555.06,-170.98C533.66,-157.9 504.73,-141.11 478,-128.5 470.64,-125.03 462.65,-121.68 454.85,-118.63"/>
<polygon fill="midnightblue" stroke="midnightblue" points="553.4,-174.06 563.75,-176.33 557.07,-168.1 553.4,-174.06"/>
</g>
<!-- Node13 -->
<g id="node13" class="node">
<title>Node13</title>
<g id="a_node13"><a xlink:href="structft_1_1irc_1_1user_1_1pred__equals__nick.html#aa4bfdd8756482385798ed7fd8197f1e1" target="_top" xlink:title=" ">
<polygon fill="white" stroke="black" points="343.5,-264.5 343.5,-294.5 477.5,-294.5 477.5,-264.5 343.5,-264.5"/>
<text text-anchor="start" x="351.5" y="-282.5" font-family="Helvetica,sans-Serif" font-size="10.00">ft::irc::user::pred</text>
<text text-anchor="middle" x="410.5" y="-271.5" font-family="Helvetica,sans-Serif" font-size="10.00">_equals_nick::operator()</text>
</a>
</g>
</g>
<!-- Node5&#45;&gt;Node13 -->
<g id="edge14" class="edge">
<title>Node5&#45;&gt;Node13</title>
<path fill="none" stroke="midnightblue" d="M555.06,-212.02C533.66,-225.1 504.73,-241.89 478,-254.5 470.64,-257.97 462.65,-261.32 454.85,-264.37"/>
<polygon fill="midnightblue" stroke="midnightblue" points="557.07,-214.9 563.75,-206.67 553.4,-208.94 557.07,-214.9"/>
</g>
<!-- Node14 -->
<g id="node14" class="node">
<title>Node14</title>
<g id="a_node14"><a xlink:href="classft_1_1irc_1_1channel.html#aa7b5a547c4ff51772b8a1a6c81f61a8c" target="_top" xlink:title=" ">
<polygon fill="white" stroke="black" points="349.5,-50 349.5,-69 471.5,-69 471.5,-50 349.5,-50"/>
<text text-anchor="middle" x="410.5" y="-57" font-family="Helvetica,sans-Serif" font-size="10.00">ft::irc::channel::unban</text>
</a>
</g>
</g>
<!-- Node5&#45;&gt;Node14 -->
<g id="edge15" class="edge">
<title>Node5&#45;&gt;Node14</title>
<path fill="none" stroke="midnightblue" d="M570.55,-168.14C550.98,-142.78 516.5,-102.81 478,-79.5 470.88,-75.19 462.77,-71.75 454.72,-69.03"/>
<polygon fill="midnightblue" stroke="midnightblue" points="568.01,-170.58 576.83,-176.45 573.59,-166.36 568.01,-170.58"/>
</g>
<!-- Node15 -->
<g id="node15" class="node">
<title>Node15</title>
<g id="a_node15"><a xlink:href="classft_1_1irc_1_1bot.html#a6bea4a41bf2e963f84660531719b1515" target="_top" xlink:title=" ">
<polygon fill="white" stroke="black" points="346.5,-226 346.5,-245 474.5,-245 474.5,-226 346.5,-226"/>
<text text-anchor="middle" x="410.5" y="-233" font-family="Helvetica,sans-Serif" font-size="10.00">ft::irc::bot::update_nick</text>
</a>
</g>
</g>
<!-- Node5&#45;&gt;Node15 -->
<g id="edge17" class="edge">
<title>Node5&#45;&gt;Node15</title>
<path fill="none" stroke="midnightblue" d="M527.82,-206.42C501.93,-212.89 472.39,-220.28 449.55,-225.99"/>
<polygon fill="midnightblue" stroke="midnightblue" points="528.68,-209.81 537.54,-203.99 526.99,-203.02 528.68,-209.81"/>
</g>
<!-- Node7 -->
<g id="node7" class="node">
<title>Node7</title>
<g id="a_node7"><a xlink:href="classft_1_1irc_1_1bot.html#a0b595213781ed0e5aaf1d48fdb602d98" target="_top" xlink:title=" ">
<polygon fill="white" stroke="black" points="164.5,-182 164.5,-201 283.5,-201 283.5,-182 164.5,-182"/>
<text text-anchor="middle" x="224" y="-189" font-family="Helvetica,sans-Serif" font-size="10.00">ft::irc::bot::on_packet</text>
</a>
</g>
</g>
<!-- Node6&#45;&gt;Node7 -->
<g id="edge7" class="edge">
<title>Node6&#45;&gt;Node7</title>
<path fill="none" stroke="midnightblue" d="M356.54,-191.5C333.75,-191.5 307.02,-191.5 283.63,-191.5"/>
<polygon fill="midnightblue" stroke="midnightblue" points="356.71,-195 366.71,-191.5 356.71,-188 356.71,-195"/>
</g>
<!-- Node8 -->
<g id="node8" class="node">
<title>Node8</title>
<g id="a_node8"><a xlink:href="classft_1_1irc_1_1bot__handler.html#a0723185e483ae21fa0f2116ca05165fe" target="_top" xlink:title=" ">
<polygon fill="white" stroke="black" points="0,-176.5 0,-206.5 105,-206.5 105,-176.5 0,-176.5"/>
<text text-anchor="start" x="8" y="-194.5" font-family="Helvetica,sans-Serif" font-size="10.00">ft::irc::bot_handler</text>
<text text-anchor="middle" x="52.5" y="-183.5" font-family="Helvetica,sans-Serif" font-size="10.00">::on_read</text>
</a>
</g>
</g>
<!-- Node7&#45;&gt;Node8 -->
<g id="edge8" class="edge">
<title>Node7&#45;&gt;Node8</title>
<path fill="none" stroke="midnightblue" d="M154.13,-191.5C137.77,-191.5 120.58,-191.5 105.14,-191.5"/>
<polygon fill="midnightblue" stroke="midnightblue" points="154.19,-195 164.19,-191.5 154.19,-188 154.19,-195"/>
</g>
<!-- Node9&#45;&gt;Node7 -->
<g id="edge10" class="edge">
<title>Node9&#45;&gt;Node7</title>
<path fill="none" stroke="midnightblue" d="M359.7,-159.38C329.98,-166.46 292.74,-175.34 264.96,-181.97"/>
<polygon fill="midnightblue" stroke="midnightblue" points="360.55,-162.77 369.47,-157.05 358.93,-155.96 360.55,-162.77"/>
</g>
<!-- Node11 -->
<g id="node11" class="node">
<title>Node11</title>
<g id="a_node11"><a xlink:href="classft_1_1irc_1_1processor__mode.html#a78f0436f90fe62dc8e35152d98eff680" target="_top" xlink:title=" ">
<polygon fill="white" stroke="black" points="141,-66.5 141,-96.5 307,-96.5 307,-66.5 141,-66.5"/>
<text text-anchor="start" x="149" y="-84.5" font-family="Helvetica,sans-Serif" font-size="10.00">ft::irc::processor</text>
<text text-anchor="middle" x="224" y="-73.5" font-family="Helvetica,sans-Serif" font-size="10.00">_mode::update_channel_mode</text>
</a>
</g>
</g>
<!-- Node10&#45;&gt;Node11 -->
<g id="edge12" class="edge">
<title>Node10&#45;&gt;Node11</title>
<path fill="none" stroke="midnightblue" d="M337.6,-94.93C327.67,-93.74 317.41,-92.52 307.31,-91.31"/>
<polygon fill="midnightblue" stroke="midnightblue" points="337.46,-98.44 347.81,-96.14 338.29,-91.48 337.46,-98.44"/>
</g>
<!-- Node12 -->
<g id="node12" class="node">
<title>Node12</title>
<g id="a_node12"><a xlink:href="classft_1_1irc_1_1processor__mode.html#ad013987a789be47379c13f61364135a6" target="_top" xlink:title=" ">
<polygon fill="white" stroke="black" points="5,-66.5 5,-96.5 100,-96.5 100,-66.5 5,-66.5"/>
<text text-anchor="start" x="13" y="-84.5" font-family="Helvetica,sans-Serif" font-size="10.00">ft::irc::processor</text>
<text text-anchor="middle" x="52.5" y="-73.5" font-family="Helvetica,sans-Serif" font-size="10.00">_mode::execute</text>
</a>
</g>
</g>
<!-- Node11&#45;&gt;Node12 -->
<g id="edge13" class="edge">
<title>Node11&#45;&gt;Node12</title>
<path fill="none" stroke="midnightblue" d="M130.69,-81.5C120.24,-81.5 109.94,-81.5 100.44,-81.5"/>
<polygon fill="midnightblue" stroke="midnightblue" points="130.73,-85 140.73,-81.5 130.73,-78 130.73,-85"/>
</g>
<!-- Node14&#45;&gt;Node11 -->
<g id="edge16" class="edge">
<title>Node14&#45;&gt;Node11</title>
<path fill="none" stroke="midnightblue" d="M339.4,-67.86C328.88,-69.11 317.95,-70.42 307.2,-71.7"/>
<polygon fill="midnightblue" stroke="midnightblue" points="339.83,-71.33 349.34,-66.67 339,-64.38 339.83,-71.33"/>
</g>
<!-- Node15&#45;&gt;Node7 -->
<g id="edge18" class="edge">
<title>Node15&#45;&gt;Node7</title>
<path fill="none" stroke="midnightblue" d="M359.7,-223.62C329.98,-216.54 292.74,-207.66 264.96,-201.03"/>
<polygon fill="midnightblue" stroke="midnightblue" points="358.93,-227.04 369.47,-225.95 360.55,-220.23 358.93,-227.04"/>
</g>
<!-- Node17 -->
<g id="node17" class="node">
<title>Node17</title>
<g id="a_node17"><a xlink:href="classft_1_1irc_1_1channel.html#a167149fa7b382fa3986d794b298706ce" target="_top" xlink:title=" ">
<polygon fill="white" stroke="black" points="360.5,-0.5 360.5,-30.5 460.5,-30.5 460.5,-0.5 360.5,-0.5"/>
<text text-anchor="start" x="368.5" y="-18.5" font-family="Helvetica,sans-Serif" font-size="10.00">ft::irc::channel::is</text>
<text text-anchor="middle" x="410.5" y="-7.5" font-family="Helvetica,sans-Serif" font-size="10.00">_banned</text>
</a>
</g>
</g>
<!-- Node16&#45;&gt;Node17 -->
<g id="edge20" class="edge">
<title>Node16&#45;&gt;Node17</title>
<path fill="none" stroke="midnightblue" d="M536.7,-61.03C510.08,-51.35 477.88,-39.64 452.81,-30.52"/>
<polygon fill="midnightblue" stroke="midnightblue" points="535.64,-64.37 546.24,-64.49 538.03,-57.79 535.64,-64.37"/>
</g>
<!-- Node18&#45;&gt;Node2 -->
<g id="edge22" class="edge">
<title>Node18&#45;&gt;Node2</title>
<path fill="none" stroke="midnightblue" d="M545.62,-325.17C535.2,-328.6 524.11,-332.48 514,-336.5 497.56,-343.04 494.56,-347.27 478,-353.5 468.78,-356.97 458.65,-360.16 449.13,-362.9"/>
<polygon fill="midnightblue" stroke="midnightblue" points="546.91,-328.43 555.35,-322.03 544.76,-321.77 546.91,-328.43"/>
</g>
<!-- Node19 -->
<g id="node19" class="node">
<title>Node19</title>
<g id="a_node19"><a xlink:href="classft_1_1irc_1_1user.html#af2aa8fcafc015de38938ccccfed4b1c9" target="_top" xlink:title=" ">
<polygon fill="white" stroke="black" points="348.5,-313.5 348.5,-343.5 472.5,-343.5 472.5,-313.5 348.5,-313.5"/>
<text text-anchor="start" x="356.5" y="-331.5" font-family="Helvetica,sans-Serif" font-size="10.00">ft::irc::user::deregister</text>
<text text-anchor="middle" x="410.5" y="-320.5" font-family="Helvetica,sans-Serif" font-size="10.00">_from_server</text>
</a>
</g>
</g>
<!-- Node18&#45;&gt;Node19 -->
<g id="edge23" class="edge">
<title>Node18&#45;&gt;Node19</title>
<path fill="none" stroke="midnightblue" d="M505.32,-319.97C494.28,-320.97 483.11,-321.99 472.52,-322.95"/>
<polygon fill="midnightblue" stroke="midnightblue" points="505.76,-323.45 515.41,-319.05 505.13,-316.47 505.76,-323.45"/>
</g>
</g>
</svg>
        <g id="navigator" transform="translate(0 0)" fill="#404254">
                <rect fill="#f2f5e9" fill-opacity="0.5" stroke="#606060" stroke-width=".5" x="0" y="0" width="60" height="60"/>
                <use id="zoomplus" xlink:href="#zoomPlus" x="17" y="9" onmousedown="handleZoom(evt,'in')"/>
                <use id="zoomminus" xlink:href="#zoomMin" x="42" y="9" onmousedown="handleZoom(evt,'out')"/>
                <use id="reset" xlink:href="#resetDef" x="30" y="36" onmousedown="handleReset()"/>
                <g id="arrowUp" xlink:href="#dirArrow" transform="translate(30 24)" onmousedown="handlePan(0,-1)">
                  <use xlink:href="#rim" fill="#404040">
                        <set attributeName="fill" to="#808080" begin="arrowUp.mouseover" end="arrowUp.mouseout"/>
                  </use>
                  <path fill="none" stroke="white" stroke-width="1.5" d="M0,-3.0v7 M-2.5,-0.5L0,-3.0L2.5,-0.5"/>
                </g>
                <g id="arrowRight" xlink:href="#dirArrow" transform="rotate(90) translate(36 -43)" onmousedown="handlePan(1,0)">
                  <use xlink:href="#rim" fill="#404040">
                        <set attributeName="fill" to="#808080" begin="arrowRight.mouseover" end="arrowRight.mouseout"/>
                  </use>
                  <path fill="none" stroke="white" stroke-width="1.5" d="M0,-3.0v7 M-2.5,-0.5L0,-3.0L2.5,-0.5"/>
                </g>
                <g id="arrowDown" xlink:href="#dirArrow" transform="rotate(180) translate(-30 -48)" onmousedown="handlePan(0,1)">
                  <use xlink:href="#rim" fill="#404040">
                        <set attributeName="fill" to="#808080" begin="arrowDown.mouseover" end="arrowDown.mouseout"/>
                  </use>
                  <path fill="none" stroke="white" stroke-width="1.5" d="M0,-3.0v7 M-2.5,-0.5L0,-3.0L2.5,-0.5"/>
                </g>
                <g id="arrowLeft" xlink:href="#dirArrow" transform="rotate(270) translate(-36 17)" onmousedown="handlePan(-1,0)">
                  <use xlink:href="#rim" fill="#404040">
                        <set attributeName="fill" to="#808080" begin="arrowLeft.mouseover" end="arrowLeft.mouseout"/>
                  </use>
                  <path fill="none" stroke="white" stroke-width="1.5" d="M0,-3.0v7 M-2.5,-0.5L0,-3.0L2.5,-0.5"/>
                </g>
        </g>
        <svg viewBox="0 0 15 15" width="100%" height="30px" preserveAspectRatio="xMaxYMin meet">
         <g id="arrow_out" transform="scale(0.3 0.3)">
          <a xlink:href="structft_1_1irc_1_1string__utils_a367a22012cc0d2d25959ac3f4e5d33a9_icgraph_org.svg" target="_base">
           <rect id="button" ry="5" rx="5" y="6" x="6" height="38" width="38"
                fill="#f2f5e9" fill-opacity="0.5" stroke="#606060" stroke-width="1.0"/>
           <path id="arrow"
             d="M 11.500037,31.436501 C 11.940474,20.09759 22.043105,11.32322 32.158766,21.979434 L 37.068811,17.246167 C 37.068811,17.246167 37.088388,32 37.088388,32 L 22.160133,31.978069 C 22.160133,31.978069 26.997745,27.140456 26.997745,27.140456 C 18.528582,18.264221 13.291696,25.230495 11.500037,31.436501 z"
             style="fill:#404040;"/>
          </a>
         </g>
        </svg>
</svg>
