<?xml version="1.0" encoding="UTF-8" standalone="no"?>
<!DOCTYPE svg PUBLIC "-//W3C//DTD SVG 1.1//EN"
 "http://www.w3.org/Graphics/SVG/1.1/DTD/svg11.dtd">
<!-- Generated by graphviz version 2.43.0 (0)
 -->
<!-- Title: ft::irc::string_utils::pick_nick Pages: 1 -->
<svg width="600pt" height="116pt"
 viewBox="0.00 0.00 600.00 116.00" xmlns="http://www.w3.org/2000/svg" xmlns:xlink="http://www.w3.org/1999/xlink">
<g id="graph0" class="graph" transform="scale(1 1) rotate(0) translate(4 112)">
<title>ft::irc::string_utils::pick_nick</title>
<polygon fill="white" stroke="transparent" points="-4,4 -4,-112 596,-112 596,4 -4,4"/>
<!-- Node1 -->
<g id="node1" class="node">
<title>Node1</title>
<g id="a_node1"><a xlink:title=" ">
<polygon fill="#bfbfbf" stroke="black" points="491,-39 491,-69 592,-69 592,-39 491,-39"/>
<text text-anchor="start" x="499" y="-57" font-family="Helvetica,sans-Serif" font-size="10.00">ft::irc::string_utils</text>
<text text-anchor="middle" x="541.5" y="-46" font-family="Helvetica,sans-Serif" font-size="10.00">::pick_nick</text>
</a>
</g>
</g>
<!-- Node2 -->
<g id="node2" class="node">
<title>Node2</title>
<g id="a_node2"><a xlink:href="classft_1_1irc_1_1channel.html#a88a071511ae42d2faa2ff45d6d6f4abf" target="_top" xlink:title=" ">
<polygon fill="white" stroke="black" points="339,-88.5 339,-107.5 449,-107.5 449,-88.5 339,-88.5"/>
<text text-anchor="middle" x="394" y="-95.5" font-family="Helvetica,sans-Serif" font-size="10.00">ft::irc::channel::ban</text>
</a>
</g>
</g>
<!-- Node1&#45;&gt;Node2 -->
<g id="edge1" class="edge">
<title>Node1&#45;&gt;Node2</title>
<path fill="none" stroke="midnightblue" d="M481.21,-71.93C462.54,-77.58 442.64,-83.59 426.67,-88.42"/>
<polygon fill="midnightblue" stroke="midnightblue" points="482.28,-75.26 490.83,-69.02 480.25,-68.56 482.28,-75.26"/>
</g>
<!-- Node5 -->
<g id="node5" class="node">
<title>Node5</title>
<g id="a_node5"><a xlink:href="classft_1_1irc_1_1bot__handler.html#a0723185e483ae21fa0f2116ca05165fe" target="_top" xlink:title=" ">
<polygon fill="white" stroke="black" points="341.5,-39 341.5,-69 446.5,-69 446.5,-39 341.5,-39"/>
<text text-anchor="start" x="349.5" y="-57" font-family="Helvetica,sans-Serif" font-size="10.00">ft::irc::bot_handler</text>
<text text-anchor="middle" x="394" y="-46" font-family="Helvetica,sans-Serif" font-size="10.00">::on_read</text>
</a>
</g>
</g>
<!-- Node1&#45;&gt;Node5 -->
<g id="edge4" class="edge">
<title>Node1&#45;&gt;Node5</title>
<path fill="none" stroke="midnightblue" d="M480.7,-54C469.49,-54 457.86,-54 446.92,-54"/>
<polygon fill="midnightblue" stroke="midnightblue" points="480.83,-57.5 490.83,-54 480.83,-50.5 480.83,-57.5"/>
</g>
<!-- Node6 -->
<g id="node6" class="node">
<title>Node6</title>
<g id="a_node6"><a xlink:href="classft_1_1irc_1_1channel.html#aa7b5a547c4ff51772b8a1a6c81f61a8c" target="_top" xlink:title=" ">
<polygon fill="white" stroke="black" points="333,-0.5 333,-19.5 455,-19.5 455,-0.5 333,-0.5"/>
<text text-anchor="middle" x="394" y="-7.5" font-family="Helvetica,sans-Serif" font-size="10.00">ft::irc::channel::unban</text>
</a>
</g>
</g>
<!-- Node1&#45;&gt;Node6 -->
<g id="edge5" class="edge">
<title>Node1&#45;&gt;Node6</title>
<path fill="none" stroke="midnightblue" d="M481.21,-36.07C462.54,-30.42 442.64,-24.41 426.67,-19.58"/>
<polygon fill="midnightblue" stroke="midnightblue" points="480.25,-39.44 490.83,-38.98 482.28,-32.74 480.25,-39.44"/>
</g>
<!-- Node3 -->
<g id="node3" class="node">
<title>Node3</title>
<g id="a_node3"><a xlink:href="classft_1_1irc_1_1processor__mode.html#a78f0436f90fe62dc8e35152d98eff680" target="_top" xlink:title=" ">
<polygon fill="white" stroke="black" points="131,-39 131,-69 297,-69 297,-39 131,-39"/>
<text text-anchor="start" x="139" y="-57" font-family="Helvetica,sans-Serif" font-size="10.00">ft::irc::processor</text>
<text text-anchor="middle" x="214" y="-46" font-family="Helvetica,sans-Serif" font-size="10.00">_mode::update_channel_mode</text>
</a>
</g>
</g>
<!-- Node2&#45;&gt;Node3 -->
<g id="edge2" class="edge">
<title>Node2&#45;&gt;Node3</title>
<path fill="none" stroke="midnightblue" d="M344.64,-86.04C323.46,-80.81 298.38,-74.61 275.95,-69.07"/>
<polygon fill="midnightblue" stroke="midnightblue" points="343.83,-89.45 354.38,-88.45 345.51,-82.66 343.83,-89.45"/>
</g>
<!-- Node4 -->
<g id="node4" class="node">
<title>Node4</title>
<g id="a_node4"><a xlink:href="classft_1_1irc_1_1processor__mode.html#ad013987a789be47379c13f61364135a6" target="_top" xlink:title=" ">
<polygon fill="white" stroke="black" points="0,-39 0,-69 95,-69 95,-39 0,-39"/>
<text text-anchor="start" x="8" y="-57" font-family="Helvetica,sans-Serif" font-size="10.00">ft::irc::processor</text>
<text text-anchor="middle" x="47.5" y="-46" font-family="Helvetica,sans-Serif" font-size="10.00">_mode::execute</text>
</a>
</g>
</g>
<!-- Node3&#45;&gt;Node4 -->
<g id="edge3" class="edge">
<title>Node3&#45;&gt;Node4</title>
<path fill="none" stroke="midnightblue" d="M120.47,-54C111.76,-54 103.2,-54 95.2,-54"/>
<polygon fill="midnightblue" stroke="midnightblue" points="120.75,-57.5 130.75,-54 120.75,-50.5 120.75,-57.5"/>
</g>
<!-- Node6&#45;&gt;Node3 -->
<g id="edge6" class="edge">
<title>Node6&#45;&gt;Node3</title>
<path fill="none" stroke="midnightblue" d="M344.64,-21.96C323.46,-27.19 298.38,-33.39 275.95,-38.93"/>
<polygon fill="midnightblue" stroke="midnightblue" points="345.51,-25.34 354.38,-19.55 343.83,-18.55 345.51,-25.34"/>
</g>
</g>
</svg>
