<?xml version="1.0" encoding="UTF-8" standalone="no"?>
<!DOCTYPE svg PUBLIC "-//W3C//DTD SVG 1.1//EN"
 "http://www.w3.org/Graphics/SVG/1.1/DTD/svg11.dtd">
<!-- Generated by graphviz version 2.43.0 (0)
 -->
<!-- Title: ft::irc::member_info Pages: 1 -->
<svg width="157pt" height="174pt"
 viewBox="0.00 0.00 157.00 174.00" xmlns="http://www.w3.org/2000/svg" xmlns:xlink="http://www.w3.org/1999/xlink">
<g id="graph0" class="graph" transform="scale(1 1) rotate(0) translate(4 170)">
<title>ft::irc::member_info</title>
<polygon fill="white" stroke="transparent" points="-4,4 -4,-170 153,-170 153,4 -4,4"/>
<!-- Node1 -->
<g id="node1" class="node">
<title>Node1</title>
<g id="a_node1"><a xlink:title=" ">
<polygon fill="#bfbfbf" stroke="black" points="1.5,-0.5 1.5,-19.5 114.5,-19.5 114.5,-0.5 1.5,-0.5"/>
<text text-anchor="middle" x="58" y="-7.5" font-family="Helvetica,sans-Serif" font-size="10.00">ft::irc::member_info</text>
</a>
</g>
</g>
<!-- Node2 -->
<g id="node2" class="node">
<title>Node2</title>
<g id="a_node2"><a xlink:title=" ">
<polygon fill="white" stroke="#bfbfbf" points="0,-78.5 0,-97.5 38,-97.5 38,-78.5 0,-78.5"/>
<text text-anchor="middle" x="19" y="-85.5" font-family="Helvetica,sans-Serif" font-size="10.00">bool</text>
</a>
</g>
</g>
<!-- Node2&#45;&gt;Node1 -->
<g id="edge1" class="edge">
<title>Node2&#45;&gt;Node1</title>
<path fill="none" stroke="#9a32cd" stroke-dasharray="5,2" d="M15.55,-68.36C14.69,-58.77 15.14,-47.19 20,-38 24.16,-30.13 31.77,-24.04 39.08,-19.65"/>
<polygon fill="#9a32cd" stroke="#9a32cd" points="12.11,-69.04 16.97,-78.45 19.04,-68.06 12.11,-69.04"/>
<text text-anchor="middle" x="47.5" y="-52" font-family="Helvetica,sans-Serif" font-size="10.00"> is_chanop</text>
<text text-anchor="middle" x="47.5" y="-41" font-family="Helvetica,sans-Serif" font-size="10.00">is_chanspk</text>
</g>
<!-- Node3 -->
<g id="node3" class="node">
<title>Node3</title>
<g id="a_node3"><a xlink:title=" ">
<polygon fill="white" stroke="#bfbfbf" points="64.5,-78.5 64.5,-97.5 129.5,-97.5 129.5,-78.5 64.5,-78.5"/>
<text text-anchor="middle" x="97" y="-85.5" font-family="Helvetica,sans-Serif" font-size="10.00">std::string</text>
</a>
</g>
</g>
<!-- Node3&#45;&gt;Node1 -->
<g id="edge2" class="edge">
<title>Node3&#45;&gt;Node1</title>
<path fill="none" stroke="#9a32cd" stroke-dasharray="5,2" d="M89.51,-68.7C85.5,-59.36 80.31,-47.91 75,-38 71.65,-31.75 67.4,-25 63.99,-19.81"/>
<polygon fill="#9a32cd" stroke="#9a32cd" points="86.37,-70.28 93.47,-78.15 92.83,-67.57 86.37,-70.28"/>
<text text-anchor="middle" x="112" y="-46.5" font-family="Helvetica,sans-Serif" font-size="10.00"> nickname</text>
</g>
<!-- Node4 -->
<g id="node4" class="node">
<title>Node4</title>
<g id="a_node4"><a xlink:title=" ">
<polygon fill="white" stroke="#bfbfbf" points="45,-135.5 45,-165.5 149,-165.5 149,-135.5 45,-135.5"/>
<text text-anchor="start" x="53" y="-153.5" font-family="Helvetica,sans-Serif" font-size="10.00">std::basic_string&lt;</text>
<text text-anchor="middle" x="97" y="-142.5" font-family="Helvetica,sans-Serif" font-size="10.00"> Char &gt;</text>
</a>
</g>
</g>
<!-- Node4&#45;&gt;Node3 -->
<g id="edge3" class="edge">
<title>Node4&#45;&gt;Node3</title>
<path fill="none" stroke="midnightblue" d="M97,-125.35C97,-115.51 97,-104.78 97,-97.54"/>
<polygon fill="midnightblue" stroke="midnightblue" points="93.5,-125.47 97,-135.47 100.5,-125.47 93.5,-125.47"/>
</g>
</g>
</svg>
