<?xml version="1.0" encoding="UTF-8" standalone="no"?>
<!DOCTYPE svg PUBLIC "-//W3C//DTD SVG 1.1//EN"
 "http://www.w3.org/Graphics/SVG/1.1/DTD/svg11.dtd">
<!-- Generated by graphviz version 2.43.0 (0)
 -->
<!-- Title: ft::irc::make_error::already_registered Pages: 1 -->
<svg width="253pt" height="88pt"
 viewBox="0.00 0.00 253.00 88.00" xmlns="http://www.w3.org/2000/svg" xmlns:xlink="http://www.w3.org/1999/xlink">
<g id="graph0" class="graph" transform="scale(1 1) rotate(0) translate(4 84)">
<title>ft::irc::make_error::already_registered</title>
<polygon fill="white" stroke="transparent" points="-4,4 -4,-84 249,-84 249,4 -4,4"/>
<!-- Node1 -->
<g id="node1" class="node">
<title>Node1</title>
<g id="a_node1"><a xlink:title=" ">
<polygon fill="#bfbfbf" stroke="black" points="131,-24.5 131,-54.5 245,-54.5 245,-24.5 131,-24.5"/>
<text text-anchor="start" x="139" y="-42.5" font-family="Helvetica,sans-Serif" font-size="10.00">ft::irc::make_error</text>
<text text-anchor="middle" x="188" y="-31.5" font-family="Helvetica,sans-Serif" font-size="10.00">::already_registered</text>
</a>
</g>
</g>
<!-- Node2 -->
<g id="node2" class="node">
<title>Node2</title>
<g id="a_node2"><a xlink:href="classft_1_1irc_1_1processor__pass.html#a8b0f8638123bb81ce8f4e493e43b45a0" target="_top" xlink:title=" ">
<polygon fill="white" stroke="black" points="0,-49.5 0,-79.5 95,-79.5 95,-49.5 0,-49.5"/>
<text text-anchor="start" x="8" y="-67.5" font-family="Helvetica,sans-Serif" font-size="10.00">ft::irc::processor</text>
<text text-anchor="middle" x="47.5" y="-56.5" font-family="Helvetica,sans-Serif" font-size="10.00">_pass::execute</text>
</a>
</g>
</g>
<!-- Node1&#45;&gt;Node2 -->
<g id="edge1" class="edge">
<title>Node1&#45;&gt;Node2</title>
<path fill="none" stroke="midnightblue" d="M120.59,-51.49C111.96,-53.05 103.27,-54.61 95.05,-56.1"/>
<polygon fill="midnightblue" stroke="midnightblue" points="121.45,-54.89 130.67,-49.67 120.2,-48 121.45,-54.89"/>
</g>
<!-- Node3 -->
<g id="node3" class="node">
<title>Node3</title>
<g id="a_node3"><a xlink:href="classft_1_1irc_1_1processor__user.html#aa42b3fdd743060d5f9afaaff5e46e28f" target="_top" xlink:title=" ">
<polygon fill="white" stroke="black" points="0,-0.5 0,-30.5 95,-30.5 95,-0.5 0,-0.5"/>
<text text-anchor="start" x="8" y="-18.5" font-family="Helvetica,sans-Serif" font-size="10.00">ft::irc::processor</text>
<text text-anchor="middle" x="47.5" y="-7.5" font-family="Helvetica,sans-Serif" font-size="10.00">_user::execute</text>
</a>
</g>
</g>
<!-- Node1&#45;&gt;Node3 -->
<g id="edge2" class="edge">
<title>Node1&#45;&gt;Node3</title>
<path fill="none" stroke="midnightblue" d="M120.59,-27.99C111.96,-26.5 103.27,-24.99 95.05,-23.57"/>
<polygon fill="midnightblue" stroke="midnightblue" points="120.22,-31.48 130.67,-29.74 121.41,-24.58 120.22,-31.48"/>
</g>
</g>
</svg>
