<?xml version="1.0" encoding="UTF-8" standalone="no"?>
<!DOCTYPE svg PUBLIC "-//W3C//DTD SVG 1.1//EN"
 "http://www.w3.org/Graphics/SVG/1.1/DTD/svg11.dtd">
<!-- Generated by graphviz version 2.43.0 (0)
 -->
<!-- Title: ft::serv::logger::debug Pages: 1 -->
<svg width="282pt" height="480pt"
 viewBox="0.00 0.00 282.00 480.00" xmlns="http://www.w3.org/2000/svg" xmlns:xlink="http://www.w3.org/1999/xlink">
<g id="graph0" class="graph" transform="scale(1 1) rotate(0) translate(4 476)">
<title>ft::serv::logger::debug</title>
<polygon fill="white" stroke="transparent" points="-4,4 -4,-476 278,-476 278,4 -4,4"/>
<!-- Node1 -->
<g id="node1" class="node">
<title>Node1</title>
<g id="a_node1"><a xlink:title=" ">
<polygon fill="#bfbfbf" stroke="black" points="152,-226 152,-245 274,-245 274,-226 152,-226"/>
<text text-anchor="middle" x="213" y="-233" font-family="Helvetica,sans-Serif" font-size="10.00">ft::serv::logger::debug</text>
</a>
</g>
</g>
<!-- Node2 -->
<g id="node2" class="node">
<title>Node2</title>
<g id="a_node2"><a xlink:href="classft_1_1irc_1_1bot__handler.html#a4f6f0c2ea6bf628048019d6793978658" target="_top" xlink:title=" ">
<polygon fill="white" stroke="black" points="5.5,-441.5 5.5,-471.5 110.5,-471.5 110.5,-441.5 5.5,-441.5"/>
<text text-anchor="start" x="13.5" y="-459.5" font-family="Helvetica,sans-Serif" font-size="10.00">ft::irc::bot_handler</text>
<text text-anchor="middle" x="58" y="-448.5" font-family="Helvetica,sans-Serif" font-size="10.00">::on_active</text>
</a>
</g>
</g>
<!-- Node1&#45;&gt;Node2 -->
<g id="edge1" class="edge">
<title>Node1&#45;&gt;Node2</title>
<path fill="none" stroke="midnightblue" d="M207.39,-255.17C197.31,-294.1 169.82,-381.56 116,-432.5 112.41,-435.9 108.27,-438.85 103.9,-441.4"/>
<polygon fill="midnightblue" stroke="midnightblue" points="210.86,-255.7 209.87,-245.15 204.07,-254.01 210.86,-255.7"/>
</g>
<!-- Node3 -->
<g id="node3" class="node">
<title>Node3</title>
<g id="a_node3"><a xlink:href="classft_1_1irc_1_1client__handler.html#ae807a3999b5bc11f686ecbd8c9c78972" target="_top" xlink:title=" ">
<polygon fill="white" stroke="black" points="0,-392.5 0,-422.5 116,-422.5 116,-392.5 0,-392.5"/>
<text text-anchor="start" x="8" y="-410.5" font-family="Helvetica,sans-Serif" font-size="10.00">ft::irc::client_handler</text>
<text text-anchor="middle" x="58" y="-399.5" font-family="Helvetica,sans-Serif" font-size="10.00">::on_active</text>
</a>
</g>
</g>
<!-- Node1&#45;&gt;Node3 -->
<g id="edge2" class="edge">
<title>Node1&#45;&gt;Node3</title>
<path fill="none" stroke="midnightblue" d="M204.18,-254.46C190.56,-285.39 159.68,-346.94 116,-383.5 111.97,-386.88 107.39,-389.84 102.62,-392.43"/>
<polygon fill="midnightblue" stroke="midnightblue" points="207.42,-255.79 208.14,-245.22 200.99,-253.03 207.42,-255.79"/>
</g>
<!-- Node4 -->
<g id="node4" class="node">
<title>Node4</title>
<g id="a_node4"><a xlink:href="classft_1_1irc_1_1bot__handler.html#a8601fbf1c9aa32d1e28e421f86969f08" target="_top" xlink:title=" ">
<polygon fill="white" stroke="black" points="5.5,-343.5 5.5,-373.5 110.5,-373.5 110.5,-343.5 5.5,-343.5"/>
<text text-anchor="start" x="13.5" y="-361.5" font-family="Helvetica,sans-Serif" font-size="10.00">ft::irc::bot_handler</text>
<text text-anchor="middle" x="58" y="-350.5" font-family="Helvetica,sans-Serif" font-size="10.00">::on_error</text>
</a>
</g>
</g>
<!-- Node1&#45;&gt;Node4 -->
<g id="edge3" class="edge">
<title>Node1&#45;&gt;Node4</title>
<path fill="none" stroke="midnightblue" d="M198.57,-253.21C181.42,-274.82 149.87,-311.34 116,-334.5 111.21,-337.77 105.91,-340.73 100.52,-343.37"/>
<polygon fill="midnightblue" stroke="midnightblue" points="201.43,-255.24 204.81,-245.2 195.9,-250.94 201.43,-255.24"/>
</g>
<!-- Node5 -->
<g id="node5" class="node">
<title>Node5</title>
<g id="a_node5"><a xlink:href="classft_1_1irc_1_1client__handler.html#a3b07923a033637234fc01fa98e15e5ac" target="_top" xlink:title=" ">
<polygon fill="white" stroke="black" points="0,-294.5 0,-324.5 116,-324.5 116,-294.5 0,-294.5"/>
<text text-anchor="start" x="8" y="-312.5" font-family="Helvetica,sans-Serif" font-size="10.00">ft::irc::client_handler</text>
<text text-anchor="middle" x="58" y="-301.5" font-family="Helvetica,sans-Serif" font-size="10.00">::on_error</text>
</a>
</g>
</g>
<!-- Node1&#45;&gt;Node5 -->
<g id="edge4" class="edge">
<title>Node1&#45;&gt;Node5</title>
<path fill="none" stroke="midnightblue" d="M185.52,-250.04C166.4,-260.35 139.86,-274.29 116,-285.5 109.59,-288.51 102.69,-291.57 95.99,-294.44"/>
<polygon fill="midnightblue" stroke="midnightblue" points="187.4,-253 194.52,-245.15 184.06,-246.84 187.4,-253"/>
</g>
<!-- Node6 -->
<g id="node6" class="node">
<title>Node6</title>
<g id="a_node6"><a xlink:href="classft_1_1irc_1_1bot__handler.html#aecb8db90a61c13e042161885226a2cae" target="_top" xlink:title=" ">
<polygon fill="white" stroke="black" points="5.5,-245.5 5.5,-275.5 110.5,-275.5 110.5,-245.5 5.5,-245.5"/>
<text text-anchor="start" x="13.5" y="-263.5" font-family="Helvetica,sans-Serif" font-size="10.00">ft::irc::bot_handler</text>
<text text-anchor="middle" x="58" y="-252.5" font-family="Helvetica,sans-Serif" font-size="10.00">::on_inactive</text>
</a>
</g>
</g>
<!-- Node1&#45;&gt;Node6 -->
<g id="edge5" class="edge">
<title>Node1&#45;&gt;Node6</title>
<path fill="none" stroke="midnightblue" d="M143.63,-246.67C132.53,-248.48 121.21,-250.33 110.61,-252.07"/>
<polygon fill="midnightblue" stroke="midnightblue" points="144.42,-250.09 153.72,-245.02 143.29,-243.18 144.42,-250.09"/>
</g>
<!-- Node7 -->
<g id="node7" class="node">
<title>Node7</title>
<g id="a_node7"><a xlink:href="classft_1_1irc_1_1client__handler.html#a0ba3f1dea9ac297d7fd80844e2fb8827" target="_top" xlink:title=" ">
<polygon fill="white" stroke="black" points="0,-196.5 0,-226.5 116,-226.5 116,-196.5 0,-196.5"/>
<text text-anchor="start" x="8" y="-214.5" font-family="Helvetica,sans-Serif" font-size="10.00">ft::irc::client_handler</text>
<text text-anchor="middle" x="58" y="-203.5" font-family="Helvetica,sans-Serif" font-size="10.00">::on_inactive</text>
</a>
</g>
</g>
<!-- Node1&#45;&gt;Node7 -->
<g id="edge6" class="edge">
<title>Node1&#45;&gt;Node7</title>
<path fill="none" stroke="midnightblue" d="M141.98,-224.52C133.4,-223.17 124.72,-221.81 116.36,-220.5"/>
<polygon fill="midnightblue" stroke="midnightblue" points="141.55,-227.99 151.97,-226.08 142.63,-221.08 141.55,-227.99"/>
</g>
<!-- Node8 -->
<g id="node8" class="node">
<title>Node8</title>
<g id="a_node8"><a xlink:href="classft_1_1irc_1_1bot__handler.html#aedea92003fa0bb10cfd7af07de267670" target="_top" xlink:title=" ">
<polygon fill="white" stroke="black" points="5.5,-147.5 5.5,-177.5 110.5,-177.5 110.5,-147.5 5.5,-147.5"/>
<text text-anchor="start" x="13.5" y="-165.5" font-family="Helvetica,sans-Serif" font-size="10.00">ft::irc::bot_handler</text>
<text text-anchor="middle" x="58" y="-154.5" font-family="Helvetica,sans-Serif" font-size="10.00">::on_read</text>
</a>
</g>
</g>
<!-- Node1&#45;&gt;Node8 -->
<g id="edge7" class="edge">
<title>Node1&#45;&gt;Node8</title>
<path fill="none" stroke="midnightblue" d="M184.34,-221.21C165.26,-211.46 139.24,-198.4 116,-187.5 108.96,-184.2 101.37,-180.77 94.09,-177.56"/>
<polygon fill="midnightblue" stroke="midnightblue" points="182.88,-224.39 193.37,-225.84 186.07,-218.16 182.88,-224.39"/>
</g>
<!-- Node9 -->
<g id="node9" class="node">
<title>Node9</title>
<g id="a_node9"><a xlink:href="classft_1_1irc_1_1client__handler.html#a239d2ec2a936d74893455a83468669b3" target="_top" xlink:title=" ">
<polygon fill="white" stroke="black" points="0,-98.5 0,-128.5 116,-128.5 116,-98.5 0,-98.5"/>
<text text-anchor="start" x="8" y="-116.5" font-family="Helvetica,sans-Serif" font-size="10.00">ft::irc::client_handler</text>
<text text-anchor="middle" x="58" y="-105.5" font-family="Helvetica,sans-Serif" font-size="10.00">::on_read</text>
</a>
</g>
</g>
<!-- Node1&#45;&gt;Node9 -->
<g id="edge8" class="edge">
<title>Node1&#45;&gt;Node9</title>
<path fill="none" stroke="midnightblue" d="M198.17,-217.93C180.83,-196.81 149.3,-161.38 116,-138.5 110.66,-134.83 104.69,-131.51 98.68,-128.57"/>
<polygon fill="midnightblue" stroke="midnightblue" points="195.5,-220.18 204.5,-225.77 200.94,-215.79 195.5,-220.18"/>
</g>
<!-- Node10 -->
<g id="node10" class="node">
<title>Node10</title>
<g id="a_node10"><a xlink:href="classft_1_1irc_1_1bot__handler.html#ade7f7f56f6f75d9f88c5acb3b21595c0" target="_top" xlink:title=" ">
<polygon fill="white" stroke="black" points="1.5,-49.5 1.5,-79.5 114.5,-79.5 114.5,-49.5 1.5,-49.5"/>
<text text-anchor="start" x="9.5" y="-67.5" font-family="Helvetica,sans-Serif" font-size="10.00">ft::irc::bot_handler</text>
<text text-anchor="middle" x="58" y="-56.5" font-family="Helvetica,sans-Serif" font-size="10.00">::on_read_complete</text>
</a>
</g>
</g>
<!-- Node1&#45;&gt;Node10 -->
<g id="edge9" class="edge">
<title>Node1&#45;&gt;Node10</title>
<path fill="none" stroke="midnightblue" d="M203.88,-216.48C189.98,-185.94 158.92,-125.74 116,-89.5 111.54,-85.74 106.43,-82.45 101.13,-79.6"/>
<polygon fill="midnightblue" stroke="midnightblue" points="200.82,-218.22 208.07,-225.95 207.22,-215.39 200.82,-218.22"/>
</g>
<!-- Node11 -->
<g id="node11" class="node">
<title>Node11</title>
<g id="a_node11"><a xlink:href="classft_1_1irc_1_1client__handler.html#a843168d000d5190f84860c4d2ae09eea" target="_top" xlink:title=" ">
<polygon fill="white" stroke="black" points="0,-0.5 0,-30.5 116,-30.5 116,-0.5 0,-0.5"/>
<text text-anchor="start" x="8" y="-18.5" font-family="Helvetica,sans-Serif" font-size="10.00">ft::irc::client_handler</text>
<text text-anchor="middle" x="58" y="-7.5" font-family="Helvetica,sans-Serif" font-size="10.00">::on_read_complete</text>
</a>
</g>
</g>
<!-- Node1&#45;&gt;Node11 -->
<g id="edge10" class="edge">
<title>Node1&#45;&gt;Node11</title>
<path fill="none" stroke="midnightblue" d="M207.27,-216.09C196.97,-177.68 169.1,-91.31 116,-40.5 112.02,-36.69 107.36,-33.41 102.45,-30.59"/>
<polygon fill="midnightblue" stroke="midnightblue" points="203.93,-217.17 209.81,-225.98 210.71,-215.43 203.93,-217.17"/>
</g>
</g>
</svg>
