<?xml version="1.0" encoding="UTF-8" standalone="no"?>
<!DOCTYPE svg PUBLIC "-//W3C//DTD SVG 1.1//EN"
 "http://www.w3.org/Graphics/SVG/1.1/DTD/svg11.dtd">
<!-- Generated by graphviz version 2.43.0 (0)
 -->
<!-- Title: ft::irc::make_reply_base Pages: 1 -->
<svg width="234pt" height="84pt"
 viewBox="0.00 0.00 233.50 84.00" xmlns="http://www.w3.org/2000/svg" xmlns:xlink="http://www.w3.org/1999/xlink">
<g id="graph0" class="graph" transform="scale(1 1) rotate(0) translate(4 80)">
<title>ft::irc::make_reply_base</title>
<polygon fill="white" stroke="transparent" points="-4,4 -4,-80 229.5,-80 229.5,4 -4,4"/>
<!-- Node1 -->
<g id="node1" class="node">
<title>Node1</title>
<g id="a_node1"><a xlink:title=" ">
<polygon fill="#bfbfbf" stroke="black" points="46,-56.5 46,-75.5 179,-75.5 179,-56.5 46,-56.5"/>
<text text-anchor="middle" x="112.5" y="-63.5" font-family="Helvetica,sans-Serif" font-size="10.00">ft::irc::make_reply_base</text>
</a>
</g>
</g>
<!-- Node2 -->
<g id="node2" class="node">
<title>Node2</title>
<g id="a_node2"><a xlink:href="structft_1_1irc_1_1make__error.html" target="_top" xlink:title=" ">
<polygon fill="white" stroke="black" points="0,-0.5 0,-19.5 103,-19.5 103,-0.5 0,-0.5"/>
<text text-anchor="middle" x="51.5" y="-7.5" font-family="Helvetica,sans-Serif" font-size="10.00">ft::irc::make_error</text>
</a>
</g>
</g>
<!-- Node1&#45;&gt;Node2 -->
<g id="edge1" class="edge">
<title>Node1&#45;&gt;Node2</title>
<path fill="none" stroke="midnightblue" d="M95.03,-49.54C84.16,-39.91 70.56,-27.87 61.48,-19.83"/>
<polygon fill="midnightblue" stroke="midnightblue" points="92.89,-52.32 102.7,-56.32 97.53,-47.07 92.89,-52.32"/>
</g>
<!-- Node3 -->
<g id="node3" class="node">
<title>Node3</title>
<g id="a_node3"><a xlink:href="structft_1_1irc_1_1make__reply.html" target="_top" xlink:title=" ">
<polygon fill="white" stroke="black" points="121.5,-0.5 121.5,-19.5 225.5,-19.5 225.5,-0.5 121.5,-0.5"/>
<text text-anchor="middle" x="173.5" y="-7.5" font-family="Helvetica,sans-Serif" font-size="10.00">ft::irc::make_reply</text>
</a>
</g>
</g>
<!-- Node1&#45;&gt;Node3 -->
<g id="edge2" class="edge">
<title>Node1&#45;&gt;Node3</title>
<path fill="none" stroke="midnightblue" d="M129.97,-49.54C140.84,-39.91 154.44,-27.87 163.52,-19.83"/>
<polygon fill="midnightblue" stroke="midnightblue" points="127.47,-47.07 122.3,-56.32 132.11,-52.32 127.47,-47.07"/>
</g>
</g>
</svg>
