<?xml version="1.0" encoding="UTF-8" standalone="no"?>
<!DOCTYPE svg PUBLIC "-//W3C//DTD SVG 1.1//EN"
 "http://www.w3.org/Graphics/SVG/1.1/DTD/svg11.dtd">
<!-- Generated by graphviz version 2.43.0 (0)
 -->
<!-- Title: ft::irc::make_reply::create Pages: 1 -->
<svg width="453pt" height="230pt"
 viewBox="0.00 0.00 453.00 230.00" xmlns="http://www.w3.org/2000/svg" xmlns:xlink="http://www.w3.org/1999/xlink">
<g id="graph0" class="graph" transform="scale(1 1) rotate(0) translate(4 226)">
<title>ft::irc::make_reply::create</title>
<polygon fill="white" stroke="transparent" points="-4,4 -4,-226 449,-226 449,4 -4,4"/>
<!-- Node1 -->
<g id="node1" class="node">
<title>Node1</title>
<g id="a_node1"><a xlink:title=" ">
<polygon fill="#bfbfbf" stroke="black" points="341,-117.5 341,-147.5 445,-147.5 445,-117.5 341,-117.5"/>
<text text-anchor="start" x="349" y="-135.5" font-family="Helvetica,sans-Serif" font-size="10.00">ft::irc::make_reply</text>
<text text-anchor="middle" x="393" y="-124.5" font-family="Helvetica,sans-Serif" font-size="10.00">::create</text>
</a>
</g>
</g>
<!-- Node2 -->
<g id="node2" class="node">
<title>Node2</title>
<g id="a_node2"><a xlink:href="classft_1_1irc_1_1processor__ping.html#a4402a5267561a504a1fb35b233fa63e5" target="_top" xlink:title=" ">
<polygon fill="white" stroke="black" points="185,-191.5 185,-221.5 280,-221.5 280,-191.5 185,-191.5"/>
<text text-anchor="start" x="193" y="-209.5" font-family="Helvetica,sans-Serif" font-size="10.00">ft::irc::processor</text>
<text text-anchor="middle" x="232.5" y="-198.5" font-family="Helvetica,sans-Serif" font-size="10.00">_ping::execute</text>
</a>
</g>
</g>
<!-- Node1&#45;&gt;Node2 -->
<g id="edge1" class="edge">
<title>Node1&#45;&gt;Node2</title>
<path fill="none" stroke="midnightblue" d="M359.7,-153.1C343.65,-162.81 323.73,-174.08 305,-182.5 297.12,-186.05 288.55,-189.36 280.17,-192.32"/>
<polygon fill="midnightblue" stroke="midnightblue" points="361.97,-155.82 368.67,-147.6 358.31,-149.85 361.97,-155.82"/>
</g>
<!-- Node3 -->
<g id="node3" class="node">
<title>Node3</title>
<g id="a_node3"><a xlink:href="classft_1_1irc_1_1processor__cap.html#a4998cdde699dff092c9437b7416fdd14" target="_top" xlink:title=" ">
<polygon fill="white" stroke="black" points="185,-142.5 185,-172.5 280,-172.5 280,-142.5 185,-142.5"/>
<text text-anchor="start" x="193" y="-160.5" font-family="Helvetica,sans-Serif" font-size="10.00">ft::irc::processor</text>
<text text-anchor="middle" x="232.5" y="-149.5" font-family="Helvetica,sans-Serif" font-size="10.00">_cap::execute</text>
</a>
</g>
</g>
<!-- Node1&#45;&gt;Node3 -->
<g id="edge2" class="edge">
<title>Node1&#45;&gt;Node3</title>
<path fill="none" stroke="midnightblue" d="M330.69,-142.17C313.89,-144.82 295.96,-147.65 280.13,-150.14"/>
<polygon fill="midnightblue" stroke="midnightblue" points="331.64,-145.56 340.98,-140.55 330.55,-138.65 331.64,-145.56"/>
</g>
<!-- Node4 -->
<g id="node4" class="node">
<title>Node4</title>
<g id="a_node4"><a xlink:href="classft_1_1irc_1_1processor__oper.html#a941691cbab81d134cb4ffc30bd270d04" target="_top" xlink:title=" ">
<polygon fill="white" stroke="black" points="185,-93.5 185,-123.5 280,-123.5 280,-93.5 185,-93.5"/>
<text text-anchor="start" x="193" y="-111.5" font-family="Helvetica,sans-Serif" font-size="10.00">ft::irc::processor</text>
<text text-anchor="middle" x="232.5" y="-100.5" font-family="Helvetica,sans-Serif" font-size="10.00">_oper::execute</text>
</a>
</g>
</g>
<!-- Node1&#45;&gt;Node4 -->
<g id="edge3" class="edge">
<title>Node1&#45;&gt;Node4</title>
<path fill="none" stroke="midnightblue" d="M330.69,-123.22C313.89,-120.67 295.96,-117.96 280.13,-115.56"/>
<polygon fill="midnightblue" stroke="midnightblue" points="330.57,-126.74 340.98,-124.77 331.61,-119.82 330.57,-126.74"/>
</g>
<!-- Node5 -->
<g id="node5" class="node">
<title>Node5</title>
<g id="a_node5"><a xlink:href="classft_1_1irc_1_1channel.html#aca8e1a04b4ef485056651f872172aa31" target="_top" xlink:title=" ">
<polygon fill="white" stroke="black" points="160,-55 160,-74 305,-74 305,-55 160,-55"/>
<text text-anchor="middle" x="232.5" y="-62" font-family="Helvetica,sans-Serif" font-size="10.00">ft::irc::channel::leave_user</text>
</a>
</g>
</g>
<!-- Node1&#45;&gt;Node5 -->
<g id="edge4" class="edge">
<title>Node1&#45;&gt;Node5</title>
<path fill="none" stroke="midnightblue" d="M359.44,-112.18C343.47,-102.83 323.68,-92.15 305,-84.5 295.1,-80.45 284.1,-76.92 273.76,-74"/>
<polygon fill="midnightblue" stroke="midnightblue" points="357.98,-115.39 368.37,-117.5 361.57,-109.38 357.98,-115.39"/>
</g>
<!-- Node6 -->
<g id="node6" class="node">
<title>Node6</title>
<g id="a_node6"><a xlink:href="classft_1_1irc_1_1user.html#af2aa8fcafc015de38938ccccfed4b1c9" target="_top" xlink:title=" ">
<polygon fill="white" stroke="black" points="0,-98.5 0,-128.5 124,-128.5 124,-98.5 0,-98.5"/>
<text text-anchor="start" x="8" y="-116.5" font-family="Helvetica,sans-Serif" font-size="10.00">ft::irc::user::deregister</text>
<text text-anchor="middle" x="62" y="-105.5" font-family="Helvetica,sans-Serif" font-size="10.00">_from_server</text>
</a>
</g>
</g>
<!-- Node5&#45;&gt;Node6 -->
<g id="edge5" class="edge">
<title>Node5&#45;&gt;Node6</title>
<path fill="none" stroke="midnightblue" d="M187.02,-76.81C178.07,-79.32 168.73,-81.98 160,-84.5 144.64,-88.95 127.94,-93.89 112.8,-98.43"/>
<polygon fill="midnightblue" stroke="midnightblue" points="188.23,-80.11 196.92,-74.04 186.34,-73.37 188.23,-80.11"/>
</g>
<!-- Node7 -->
<g id="node7" class="node">
<title>Node7</title>
<g id="a_node7"><a xlink:href="classft_1_1irc_1_1processor__part.html#a4075107cb360cd04c0a11a9904104ad0" target="_top" xlink:title=" ">
<polygon fill="white" stroke="black" points="14.5,-49.5 14.5,-79.5 109.5,-79.5 109.5,-49.5 14.5,-49.5"/>
<text text-anchor="start" x="22.5" y="-67.5" font-family="Helvetica,sans-Serif" font-size="10.00">ft::irc::processor</text>
<text text-anchor="middle" x="62" y="-56.5" font-family="Helvetica,sans-Serif" font-size="10.00">_part::execute</text>
</a>
</g>
</g>
<!-- Node5&#45;&gt;Node7 -->
<g id="edge6" class="edge">
<title>Node5&#45;&gt;Node7</title>
<path fill="none" stroke="midnightblue" d="M149.24,-64.5C135.72,-64.5 122.12,-64.5 109.86,-64.5"/>
<polygon fill="midnightblue" stroke="midnightblue" points="149.55,-68 159.55,-64.5 149.55,-61 149.55,-68"/>
</g>
<!-- Node8 -->
<g id="node8" class="node">
<title>Node8</title>
<g id="a_node8"><a xlink:href="classft_1_1irc_1_1processor__kick.html#ac453ac8376e577bb0a2b4f074fe9be1b" target="_top" xlink:title=" ">
<polygon fill="white" stroke="black" points="14.5,-0.5 14.5,-30.5 109.5,-30.5 109.5,-0.5 14.5,-0.5"/>
<text text-anchor="start" x="22.5" y="-18.5" font-family="Helvetica,sans-Serif" font-size="10.00">ft::irc::processor</text>
<text text-anchor="middle" x="62" y="-7.5" font-family="Helvetica,sans-Serif" font-size="10.00">_kick::execute</text>
</a>
</g>
</g>
<!-- Node5&#45;&gt;Node8 -->
<g id="edge7" class="edge">
<title>Node5&#45;&gt;Node8</title>
<path fill="none" stroke="midnightblue" d="M188.98,-52.13C164.75,-45.09 134.37,-36.25 109.51,-29.03"/>
<polygon fill="midnightblue" stroke="midnightblue" points="188.03,-55.5 198.61,-54.94 189.99,-48.78 188.03,-55.5"/>
</g>
</g>
</svg>
