<?xml version="1.0" encoding="UTF-8" standalone="no"?>
<!DOCTYPE svg PUBLIC "-//W3C//DTD SVG 1.1//EN"
 "http://www.w3.org/Graphics/SVG/1.1/DTD/svg11.dtd">
<!-- Generated by graphviz version 2.43.0 (0)
 -->
<!-- Title: ft::irc::make_reply::replicate Pages: 1 -->
<svg width="287pt" height="333pt"
 viewBox="0.00 0.00 287.00 333.00" xmlns="http://www.w3.org/2000/svg" xmlns:xlink="http://www.w3.org/1999/xlink">
<g id="graph0" class="graph" transform="scale(1 1) rotate(0) translate(4 329)">
<title>ft::irc::make_reply::replicate</title>
<polygon fill="white" stroke="transparent" points="-4,4 -4,-329 283,-329 283,4 -4,4"/>
<!-- Node1 -->
<g id="node1" class="node">
<title>Node1</title>
<g id="a_node1"><a xlink:title=" ">
<polygon fill="#bfbfbf" stroke="black" points="175,-147.5 175,-177.5 279,-177.5 279,-147.5 175,-147.5"/>
<text text-anchor="start" x="183" y="-165.5" font-family="Helvetica,sans-Serif" font-size="10.00">ft::irc::make_reply</text>
<text text-anchor="middle" x="227" y="-154.5" font-family="Helvetica,sans-Serif" font-size="10.00">::replicate</text>
</a>
</g>
</g>
<!-- Node2 -->
<g id="node2" class="node">
<title>Node2</title>
<g id="a_node2"><a xlink:href="classft_1_1irc_1_1processor__join.html#a7005b0403c1e6e10aa6f6f05339df357" target="_top" xlink:title=" ">
<polygon fill="white" stroke="black" points="22,-294.5 22,-324.5 117,-324.5 117,-294.5 22,-294.5"/>
<text text-anchor="start" x="30" y="-312.5" font-family="Helvetica,sans-Serif" font-size="10.00">ft::irc::processor</text>
<text text-anchor="middle" x="69.5" y="-301.5" font-family="Helvetica,sans-Serif" font-size="10.00">_join::execute</text>
</a>
</g>
</g>
<!-- Node1&#45;&gt;Node2 -->
<g id="edge1" class="edge">
<title>Node1&#45;&gt;Node2</title>
<path fill="none" stroke="midnightblue" d="M214.71,-186.65C200.64,-214.25 174.12,-259.02 139,-285.5 132.46,-290.43 124.83,-294.41 117.07,-297.59"/>
<polygon fill="midnightblue" stroke="midnightblue" points="217.86,-188.17 219.16,-177.66 211.58,-185.07 217.86,-188.17"/>
</g>
<!-- Node3 -->
<g id="node3" class="node">
<title>Node3</title>
<g id="a_node3"><a xlink:href="classft_1_1irc_1_1processor__part.html#a4075107cb360cd04c0a11a9904104ad0" target="_top" xlink:title=" ">
<polygon fill="white" stroke="black" points="22,-245.5 22,-275.5 117,-275.5 117,-245.5 22,-245.5"/>
<text text-anchor="start" x="30" y="-263.5" font-family="Helvetica,sans-Serif" font-size="10.00">ft::irc::processor</text>
<text text-anchor="middle" x="69.5" y="-252.5" font-family="Helvetica,sans-Serif" font-size="10.00">_part::execute</text>
</a>
</g>
</g>
<!-- Node1&#45;&gt;Node3 -->
<g id="edge2" class="edge">
<title>Node1&#45;&gt;Node3</title>
<path fill="none" stroke="midnightblue" d="M204.07,-185.19C187.45,-201.31 163.39,-222.51 139,-236.5 132.22,-240.39 124.71,-243.8 117.22,-246.74"/>
<polygon fill="midnightblue" stroke="midnightblue" points="206.95,-187.26 211.59,-177.73 202.03,-182.28 206.95,-187.26"/>
</g>
<!-- Node4 -->
<g id="node4" class="node">
<title>Node4</title>
<g id="a_node4"><a xlink:href="classft_1_1irc_1_1processor__topic.html#ae4eec2a7267b66791a72bbab1d4842c0" target="_top" xlink:title=" ">
<polygon fill="white" stroke="black" points="22,-196.5 22,-226.5 117,-226.5 117,-196.5 22,-196.5"/>
<text text-anchor="start" x="30" y="-214.5" font-family="Helvetica,sans-Serif" font-size="10.00">ft::irc::processor</text>
<text text-anchor="middle" x="69.5" y="-203.5" font-family="Helvetica,sans-Serif" font-size="10.00">_topic::execute</text>
</a>
</g>
</g>
<!-- Node1&#45;&gt;Node4 -->
<g id="edge3" class="edge">
<title>Node1&#45;&gt;Node4</title>
<path fill="none" stroke="midnightblue" d="M168.34,-180.67C151.48,-185.98 133.28,-191.72 117.2,-196.78"/>
<polygon fill="midnightblue" stroke="midnightblue" points="169.59,-183.95 178.08,-177.6 167.49,-177.27 169.59,-183.95"/>
</g>
<!-- Node5 -->
<g id="node5" class="node">
<title>Node5</title>
<g id="a_node5"><a xlink:href="classft_1_1irc_1_1processor__kill.html#a3f41c93c4c3a85ccb4b034c5a185208a" target="_top" xlink:title=" ">
<polygon fill="white" stroke="black" points="22,-147.5 22,-177.5 117,-177.5 117,-147.5 22,-147.5"/>
<text text-anchor="start" x="30" y="-165.5" font-family="Helvetica,sans-Serif" font-size="10.00">ft::irc::processor</text>
<text text-anchor="middle" x="69.5" y="-154.5" font-family="Helvetica,sans-Serif" font-size="10.00">_kill::execute</text>
</a>
</g>
</g>
<!-- Node1&#45;&gt;Node5 -->
<g id="edge4" class="edge">
<title>Node1&#45;&gt;Node5</title>
<path fill="none" stroke="midnightblue" d="M164.45,-162.5C148.67,-162.5 131.96,-162.5 117.07,-162.5"/>
<polygon fill="midnightblue" stroke="midnightblue" points="164.65,-166 174.65,-162.5 164.65,-159 164.65,-166"/>
</g>
<!-- Node6 -->
<g id="node6" class="node">
<title>Node6</title>
<g id="a_node6"><a xlink:href="classft_1_1irc_1_1processor__nick.html#a7a2f0f709488328c04b6ccf0c41ce78e" target="_top" xlink:title=" ">
<polygon fill="white" stroke="black" points="22,-98.5 22,-128.5 117,-128.5 117,-98.5 22,-98.5"/>
<text text-anchor="start" x="30" y="-116.5" font-family="Helvetica,sans-Serif" font-size="10.00">ft::irc::processor</text>
<text text-anchor="middle" x="69.5" y="-105.5" font-family="Helvetica,sans-Serif" font-size="10.00">_nick::execute</text>
</a>
</g>
</g>
<!-- Node1&#45;&gt;Node6 -->
<g id="edge5" class="edge">
<title>Node1&#45;&gt;Node6</title>
<path fill="none" stroke="midnightblue" d="M168.34,-144.33C151.48,-139.02 133.28,-133.28 117.2,-128.22"/>
<polygon fill="midnightblue" stroke="midnightblue" points="167.49,-147.73 178.08,-147.4 169.59,-141.05 167.49,-147.73"/>
</g>
<!-- Node7 -->
<g id="node7" class="node">
<title>Node7</title>
<g id="a_node7"><a xlink:href="classft_1_1irc_1_1processor__quit.html#a013c9c33d3e8cd471ca3de624447d359" target="_top" xlink:title=" ">
<polygon fill="white" stroke="black" points="22,-49.5 22,-79.5 117,-79.5 117,-49.5 22,-49.5"/>
<text text-anchor="start" x="30" y="-67.5" font-family="Helvetica,sans-Serif" font-size="10.00">ft::irc::processor</text>
<text text-anchor="middle" x="69.5" y="-56.5" font-family="Helvetica,sans-Serif" font-size="10.00">_quit::execute</text>
</a>
</g>
</g>
<!-- Node1&#45;&gt;Node7 -->
<g id="edge6" class="edge">
<title>Node1&#45;&gt;Node7</title>
<path fill="none" stroke="midnightblue" d="M203.65,-139.94C187,-124.12 163.06,-103.4 139,-89.5 132.2,-85.57 124.68,-82.08 117.18,-79.04"/>
<polygon fill="midnightblue" stroke="midnightblue" points="201.6,-142.82 211.21,-147.26 206.46,-137.79 201.6,-142.82"/>
</g>
<!-- Node8 -->
<g id="node8" class="node">
<title>Node8</title>
<g id="a_node8"><a xlink:href="classft_1_1irc_1_1processor__message__base.html#ab3fba6f27483543b9c7a559fd2e1402b" target="_top" xlink:title=" ">
<polygon fill="white" stroke="black" points="0,-0.5 0,-30.5 139,-30.5 139,-0.5 0,-0.5"/>
<text text-anchor="start" x="8" y="-18.5" font-family="Helvetica,sans-Serif" font-size="10.00">ft::irc::processor</text>
<text text-anchor="middle" x="69.5" y="-7.5" font-family="Helvetica,sans-Serif" font-size="10.00">_message_base::execute</text>
</a>
</g>
</g>
<!-- Node1&#45;&gt;Node8 -->
<g id="edge7" class="edge">
<title>Node1&#45;&gt;Node8</title>
<path fill="none" stroke="midnightblue" d="M214.18,-137.83C199.92,-110.48 173.47,-66.74 139,-40.5 133.96,-36.67 128.28,-33.38 122.4,-30.56"/>
<polygon fill="midnightblue" stroke="midnightblue" points="211.24,-139.77 218.88,-147.11 217.49,-136.61 211.24,-139.77"/>
</g>
</g>
</svg>
