<?xml version="1.0" encoding="UTF-8" standalone="no"?>
<!DOCTYPE svg PUBLIC "-//W3C//DTD SVG 1.1//EN"
 "http://www.w3.org/Graphics/SVG/1.1/DTD/svg11.dtd">
<!-- Generated by graphviz version 2.43.0 (0)
 -->
<!-- Title: ft::serv::socket_utils::forward_lookup Pages: 1 -->
<svg width="485pt" height="88pt"
 viewBox="0.00 0.00 485.00 88.00" xmlns="http://www.w3.org/2000/svg" xmlns:xlink="http://www.w3.org/1999/xlink">
<g id="graph0" class="graph" transform="scale(1 1) rotate(0) translate(4 84)">
<title>ft::serv::socket_utils::forward_lookup</title>
<polygon fill="white" stroke="transparent" points="-4,4 -4,-84 481,-84 481,4 -4,4"/>
<!-- Node1 -->
<g id="node1" class="node">
<title>Node1</title>
<g id="a_node1"><a xlink:title=" ">
<polygon fill="#bfbfbf" stroke="black" points="364,-24.5 364,-54.5 477,-54.5 477,-24.5 364,-24.5"/>
<text text-anchor="start" x="372" y="-42.5" font-family="Helvetica,sans-Serif" font-size="10.00">ft::serv::socket_utils</text>
<text text-anchor="middle" x="420.5" y="-31.5" font-family="Helvetica,sans-Serif" font-size="10.00">::forward_lookup</text>
</a>
</g>
</g>
<!-- Node2 -->
<g id="node2" class="node">
<title>Node2</title>
<g id="a_node2"><a xlink:href="structft_1_1serv_1_1socket__utils.html#a6ad8ff64c40ce8341bee05803ca0b2bd" target="_top" xlink:title=" ">
<polygon fill="white" stroke="black" points="215,-49.5 215,-79.5 328,-79.5 328,-49.5 215,-49.5"/>
<text text-anchor="start" x="223" y="-67.5" font-family="Helvetica,sans-Serif" font-size="10.00">ft::serv::socket_utils</text>
<text text-anchor="middle" x="271.5" y="-56.5" font-family="Helvetica,sans-Serif" font-size="10.00">::bind_socket</text>
</a>
</g>
</g>
<!-- Node1&#45;&gt;Node2 -->
<g id="edge1" class="edge">
<title>Node1&#45;&gt;Node2</title>
<path fill="none" stroke="midnightblue" d="M353.92,-50.65C345.32,-52.12 336.57,-53.6 328.15,-55.04"/>
<polygon fill="midnightblue" stroke="midnightblue" points="354.65,-54.08 363.93,-48.95 353.48,-47.18 354.65,-54.08"/>
</g>
<!-- Node5 -->
<g id="node5" class="node">
<title>Node5</title>
<g id="a_node5"><a xlink:href="structft_1_1serv_1_1socket__utils.html#a56120e0cd1c6aef9b5bef57bc37b85eb" target="_top" xlink:title=" ">
<polygon fill="white" stroke="black" points="215,-0.5 215,-30.5 328,-30.5 328,-0.5 215,-0.5"/>
<text text-anchor="start" x="223" y="-18.5" font-family="Helvetica,sans-Serif" font-size="10.00">ft::serv::socket_utils</text>
<text text-anchor="middle" x="271.5" y="-7.5" font-family="Helvetica,sans-Serif" font-size="10.00">::connect_socket</text>
</a>
</g>
</g>
<!-- Node1&#45;&gt;Node5 -->
<g id="edge4" class="edge">
<title>Node1&#45;&gt;Node5</title>
<path fill="none" stroke="midnightblue" d="M353.92,-28.79C345.32,-27.39 336.57,-25.96 328.15,-24.59"/>
<polygon fill="midnightblue" stroke="midnightblue" points="353.49,-32.27 363.93,-30.43 354.62,-25.36 353.49,-32.27"/>
</g>
<!-- Node3 -->
<g id="node3" class="node">
<title>Node3</title>
<g id="a_node3"><a xlink:href="classft_1_1serv_1_1bootstrap.html#a61642849334859472e690b615dc6fdeb" target="_top" xlink:title=" ">
<polygon fill="white" stroke="black" points="77,-49.5 77,-79.5 179,-79.5 179,-49.5 77,-49.5"/>
<text text-anchor="start" x="85" y="-67.5" font-family="Helvetica,sans-Serif" font-size="10.00">ft::serv::bootstrap</text>
<text text-anchor="middle" x="128" y="-56.5" font-family="Helvetica,sans-Serif" font-size="10.00">::start_server</text>
</a>
</g>
</g>
<!-- Node2&#45;&gt;Node3 -->
<g id="edge2" class="edge">
<title>Node2&#45;&gt;Node3</title>
<path fill="none" stroke="midnightblue" d="M204.94,-64.5C196.32,-64.5 187.6,-64.5 179.29,-64.5"/>
<polygon fill="midnightblue" stroke="midnightblue" points="204.98,-68 214.98,-64.5 204.98,-61 204.98,-68"/>
</g>
<!-- Node4 -->
<g id="node4" class="node">
<title>Node4</title>
<g id="a_node4"><a xlink:href="main_8cpp.html#a0ddf1224851353fc92bfbff6f499fa97" target="_top" xlink:title=" ">
<polygon fill="white" stroke="black" points="0,-55 0,-74 41,-74 41,-55 0,-55"/>
<text text-anchor="middle" x="20.5" y="-62" font-family="Helvetica,sans-Serif" font-size="10.00">main</text>
</a>
</g>
</g>
<!-- Node3&#45;&gt;Node4 -->
<g id="edge3" class="edge">
<title>Node3&#45;&gt;Node4</title>
<path fill="none" stroke="midnightblue" d="M66.67,-64.5C57.47,-64.5 48.59,-64.5 41.17,-64.5"/>
<polygon fill="midnightblue" stroke="midnightblue" points="66.72,-68 76.72,-64.5 66.72,-61 66.72,-68"/>
</g>
<!-- Node6 -->
<g id="node6" class="node">
<title>Node6</title>
<g id="a_node6"><a xlink:href="classft_1_1serv_1_1bootstrap.html#acd923d6b838022038f437dad3e58abf0" target="_top" xlink:title=" ">
<polygon fill="white" stroke="black" points="77,-0.5 77,-30.5 179,-30.5 179,-0.5 77,-0.5"/>
<text text-anchor="start" x="85" y="-18.5" font-family="Helvetica,sans-Serif" font-size="10.00">ft::serv::bootstrap</text>
<text text-anchor="middle" x="128" y="-7.5" font-family="Helvetica,sans-Serif" font-size="10.00">::start_client</text>
</a>
</g>
</g>
<!-- Node5&#45;&gt;Node6 -->
<g id="edge5" class="edge">
<title>Node5&#45;&gt;Node6</title>
<path fill="none" stroke="midnightblue" d="M204.94,-15.5C196.32,-15.5 187.6,-15.5 179.29,-15.5"/>
<polygon fill="midnightblue" stroke="midnightblue" points="204.98,-19 214.98,-15.5 204.98,-12 204.98,-19"/>
</g>
<!-- Node7 -->
<g id="node7" class="node">
<title>Node7</title>
<g id="a_node7"><a xlink:href="bot__main_8cpp.html#a0ddf1224851353fc92bfbff6f499fa97" target="_top" xlink:title=" ">
<polygon fill="white" stroke="black" points="0,-6 0,-25 41,-25 41,-6 0,-6"/>
<text text-anchor="middle" x="20.5" y="-13" font-family="Helvetica,sans-Serif" font-size="10.00">main</text>
</a>
</g>
</g>
<!-- Node6&#45;&gt;Node7 -->
<g id="edge6" class="edge">
<title>Node6&#45;&gt;Node7</title>
<path fill="none" stroke="midnightblue" d="M66.67,-15.5C57.47,-15.5 48.59,-15.5 41.17,-15.5"/>
<polygon fill="midnightblue" stroke="midnightblue" points="66.72,-19 76.72,-15.5 66.72,-12 66.72,-19"/>
</g>
</g>
</svg>
