<?xml version="1.0" encoding="UTF-8" standalone="no"?>
<!DOCTYPE svg PUBLIC "-//W3C//DTD SVG 1.1//EN"
 "http://www.w3.org/Graphics/SVG/1.1/DTD/svg11.dtd">
<!-- Generated by graphviz version 2.43.0 (0)
 -->
<!-- Title: user.hpp Pages: 1 -->
<svg width="872pt" height="252pt"
 viewBox="0.00 0.00 871.50 252.00" xmlns="http://www.w3.org/2000/svg" xmlns:xlink="http://www.w3.org/1999/xlink">
<g id="graph0" class="graph" transform="scale(1 1) rotate(0) translate(4 248)">
<title>user.hpp</title>
<polygon fill="white" stroke="transparent" points="-4,4 -4,-248 867.5,-248 867.5,4 -4,4"/>
<!-- Node1 -->
<g id="node1" class="node">
<title>Node1</title>
<g id="a_node1"><a xlink:title=" ">
<polygon fill="#bfbfbf" stroke="black" points="483,-224.5 483,-243.5 541,-243.5 541,-224.5 483,-224.5"/>
<text text-anchor="middle" x="512" y="-231.5" font-family="Helvetica,sans-Serif" font-size="10.00">user.hpp</text>
</a>
</g>
</g>
<!-- Node2 -->
<g id="node2" class="node">
<title>Node2</title>
<g id="a_node2"><a xlink:href="channel_8cpp.html" target="_top" xlink:title=" ">
<polygon fill="white" stroke="black" points="230.5,-168.5 230.5,-187.5 305.5,-187.5 305.5,-168.5 230.5,-168.5"/>
<text text-anchor="middle" x="268" y="-175.5" font-family="Helvetica,sans-Serif" font-size="10.00">channel.cpp</text>
</a>
</g>
</g>
<!-- Node1&#45;&gt;Node2 -->
<g id="edge1" class="edge">
<title>Node1&#45;&gt;Node2</title>
<path fill="none" stroke="midnightblue" d="M472.65,-224.29C426.57,-214.09 350.8,-197.33 305.53,-187.3"/>
<polygon fill="midnightblue" stroke="midnightblue" points="472.05,-227.74 482.57,-226.49 473.56,-220.91 472.05,-227.74"/>
</g>
<!-- Node3 -->
<g id="node3" class="node">
<title>Node3</title>
<g id="a_node3"><a xlink:href="client__handler_8hpp.html" target="_top" xlink:title=" ">
<polygon fill="white" stroke="black" points="2,-112.5 2,-131.5 108,-131.5 108,-112.5 2,-112.5"/>
<text text-anchor="middle" x="55" y="-119.5" font-family="Helvetica,sans-Serif" font-size="10.00">client_handler.hpp</text>
</a>
</g>
</g>
<!-- Node1&#45;&gt;Node3 -->
<g id="edge2" class="edge">
<title>Node1&#45;&gt;Node3</title>
<path fill="none" stroke="midnightblue" d="M472.76,-225.44C438.88,-218.17 389.05,-205.66 348,-188 332.25,-181.22 331.06,-174.01 315,-168 295.99,-160.88 178.66,-142.05 108.28,-131.14"/>
<polygon fill="midnightblue" stroke="midnightblue" points="472.23,-228.91 482.74,-227.53 473.67,-222.06 472.23,-228.91"/>
</g>
<!-- Node6 -->
<g id="node6" class="node">
<title>Node6</title>
<g id="a_node6"><a xlink:href="processor_8hpp.html" target="_top" xlink:title=" ">
<polygon fill="white" stroke="black" points="400,-168.5 400,-187.5 484,-187.5 484,-168.5 400,-168.5"/>
<text text-anchor="middle" x="442" y="-175.5" font-family="Helvetica,sans-Serif" font-size="10.00">processor.hpp</text>
</a>
</g>
</g>
<!-- Node1&#45;&gt;Node6 -->
<g id="edge5" class="edge">
<title>Node1&#45;&gt;Node6</title>
<path fill="none" stroke="midnightblue" d="M492.69,-218.1C480.09,-208.38 464.07,-196.03 453.45,-187.83"/>
<polygon fill="midnightblue" stroke="midnightblue" points="490.7,-220.99 500.75,-224.32 494.97,-215.44 490.7,-220.99"/>
</g>
<!-- Node10 -->
<g id="node10" class="node">
<title>Node10</title>
<g id="a_node10"><a xlink:href="processor__channel_8hpp.html" target="_top" xlink:title=" ">
<polygon fill="white" stroke="black" points="459,-112.5 459,-131.5 587,-131.5 587,-112.5 459,-112.5"/>
<text text-anchor="middle" x="523" y="-119.5" font-family="Helvetica,sans-Serif" font-size="10.00">processor_channel.hpp</text>
</a>
</g>
</g>
<!-- Node1&#45;&gt;Node10 -->
<g id="edge18" class="edge">
<title>Node1&#45;&gt;Node10</title>
<path fill="none" stroke="midnightblue" d="M513.87,-214.35C516.27,-190.25 520.37,-149.31 522.14,-131.59"/>
<polygon fill="midnightblue" stroke="midnightblue" points="510.38,-214.07 512.86,-224.37 517.34,-214.77 510.38,-214.07"/>
</g>
<!-- Node11 -->
<g id="node11" class="node">
<title>Node11</title>
<g id="a_node11"><a xlink:href="processor__misc_8hpp.html" target="_top" xlink:title=" ">
<polygon fill="white" stroke="black" points="605.5,-112.5 605.5,-131.5 718.5,-131.5 718.5,-112.5 605.5,-112.5"/>
<text text-anchor="middle" x="662" y="-119.5" font-family="Helvetica,sans-Serif" font-size="10.00">processor_misc.hpp</text>
</a>
</g>
</g>
<!-- Node1&#45;&gt;Node11 -->
<g id="edge19" class="edge">
<title>Node1&#45;&gt;Node11</title>
<path fill="none" stroke="midnightblue" d="M525.27,-216.19C537.01,-202.09 555.16,-182.05 574,-168 594.91,-152.41 622.01,-139.47 640.58,-131.53"/>
<polygon fill="midnightblue" stroke="midnightblue" points="522.44,-214.13 518.84,-224.1 527.87,-218.55 522.44,-214.13"/>
</g>
<!-- Node12 -->
<g id="node12" class="node">
<title>Node12</title>
<g id="a_node12"><a xlink:href="processor__register_8hpp.html" target="_top" xlink:title=" ">
<polygon fill="white" stroke="black" points="736.5,-112.5 736.5,-131.5 863.5,-131.5 863.5,-112.5 736.5,-112.5"/>
<text text-anchor="middle" x="800" y="-119.5" font-family="Helvetica,sans-Serif" font-size="10.00">processor_register.hpp</text>
</a>
</g>
</g>
<!-- Node1&#45;&gt;Node12 -->
<g id="edge20" class="edge">
<title>Node1&#45;&gt;Node12</title>
<path fill="none" stroke="midnightblue" d="M531.81,-218.32C555.03,-201.35 592.3,-174.87 608,-168 649.71,-149.74 699.91,-138.3 738.51,-131.53"/>
<polygon fill="midnightblue" stroke="midnightblue" points="529.67,-215.55 523.68,-224.3 533.81,-221.2 529.67,-215.55"/>
</g>
<!-- Node13 -->
<g id="node13" class="node">
<title>Node13</title>
<g id="a_node13"><a xlink:href="processor__send__message_8hpp.html" target="_top" xlink:title=" ">
<polygon fill="white" stroke="black" points="126.5,-112.5 126.5,-131.5 289.5,-131.5 289.5,-112.5 126.5,-112.5"/>
<text text-anchor="middle" x="208" y="-119.5" font-family="Helvetica,sans-Serif" font-size="10.00">processor_send_message.hpp</text>
</a>
</g>
</g>
<!-- Node1&#45;&gt;Node13 -->
<g id="edge21" class="edge">
<title>Node1&#45;&gt;Node13</title>
<path fill="none" stroke="midnightblue" d="M477.68,-221.06C453.31,-212.37 419.9,-200.07 391,-188 371.55,-179.88 367.63,-175.68 348,-168 310.8,-153.43 266.76,-139.86 238.15,-131.51"/>
<polygon fill="midnightblue" stroke="midnightblue" points="476.62,-224.39 487.21,-224.43 478.95,-217.79 476.62,-224.39"/>
</g>
<!-- Node14 -->
<g id="node14" class="node">
<title>Node14</title>
<g id="a_node14"><a xlink:href="server_8cpp.html" target="_top" xlink:title=" ">
<polygon fill="white" stroke="black" points="616.5,-168.5 616.5,-187.5 683.5,-187.5 683.5,-168.5 616.5,-168.5"/>
<text text-anchor="middle" x="650" y="-175.5" font-family="Helvetica,sans-Serif" font-size="10.00">server.cpp</text>
</a>
</g>
</g>
<!-- Node1&#45;&gt;Node14 -->
<g id="edge22" class="edge">
<title>Node1&#45;&gt;Node14</title>
<path fill="none" stroke="midnightblue" d="M543.25,-220.77C569.17,-210.63 605.36,-196.47 628.24,-187.52"/>
<polygon fill="midnightblue" stroke="midnightblue" points="541.9,-217.54 533.87,-224.44 544.45,-224.06 541.9,-217.54"/>
</g>
<!-- Node15 -->
<g id="node15" class="node">
<title>Node15</title>
<g id="a_node15"><a xlink:href="user_8cpp.html" target="_top" xlink:title=" ">
<polygon fill="white" stroke="black" points="701.5,-168.5 701.5,-187.5 758.5,-187.5 758.5,-168.5 701.5,-168.5"/>
<text text-anchor="middle" x="730" y="-175.5" font-family="Helvetica,sans-Serif" font-size="10.00">user.cpp</text>
</a>
</g>
</g>
<!-- Node1&#45;&gt;Node15 -->
<g id="edge23" class="edge">
<title>Node1&#45;&gt;Node15</title>
<path fill="none" stroke="midnightblue" d="M551.29,-223.27C594.53,-212.56 662.99,-195.6 701.41,-186.08"/>
<polygon fill="midnightblue" stroke="midnightblue" points="550.27,-219.92 541.4,-225.72 551.95,-226.71 550.27,-219.92"/>
</g>
<!-- Node4 -->
<g id="node4" class="node">
<title>Node4</title>
<g id="a_node4"><a xlink:href="server__handler_8hpp.html" target="_top" xlink:title=" ">
<polygon fill="white" stroke="black" points="0,-56.5 0,-75.5 110,-75.5 110,-56.5 0,-56.5"/>
<text text-anchor="middle" x="55" y="-63.5" font-family="Helvetica,sans-Serif" font-size="10.00">server_handler.hpp</text>
</a>
</g>
</g>
<!-- Node3&#45;&gt;Node4 -->
<g id="edge3" class="edge">
<title>Node3&#45;&gt;Node4</title>
<path fill="none" stroke="midnightblue" d="M55,-101.8C55,-92.91 55,-82.78 55,-75.75"/>
<polygon fill="midnightblue" stroke="midnightblue" points="51.5,-102.08 55,-112.08 58.5,-102.08 51.5,-102.08"/>
</g>
<!-- Node5 -->
<g id="node5" class="node">
<title>Node5</title>
<g id="a_node5"><a xlink:href="main_8cpp.html" target="_top" xlink:title=" ">
<polygon fill="white" stroke="black" points="24,-0.5 24,-19.5 86,-19.5 86,-0.5 24,-0.5"/>
<text text-anchor="middle" x="55" y="-7.5" font-family="Helvetica,sans-Serif" font-size="10.00">main.cpp</text>
</a>
</g>
</g>
<!-- Node4&#45;&gt;Node5 -->
<g id="edge4" class="edge">
<title>Node4&#45;&gt;Node5</title>
<path fill="none" stroke="midnightblue" d="M55,-45.8C55,-36.91 55,-26.78 55,-19.75"/>
<polygon fill="midnightblue" stroke="midnightblue" points="51.5,-46.08 55,-56.08 58.5,-46.08 51.5,-46.08"/>
</g>
<!-- Node6&#45;&gt;Node3 -->
<g id="edge8" class="edge">
<title>Node6&#45;&gt;Node3</title>
<path fill="none" stroke="midnightblue" d="M389.65,-169.86C325.4,-161.07 213.16,-145.64 117,-132 114.09,-131.59 111.11,-131.16 108.1,-130.73"/>
<polygon fill="midnightblue" stroke="midnightblue" points="389.54,-173.38 399.92,-171.26 390.48,-166.44 389.54,-173.38"/>
</g>
<!-- Node7 -->
<g id="node7" class="node">
<title>Node7</title>
<g id="a_node7"><a xlink:href="bot__handler_8hpp.html" target="_top" xlink:title=" ">
<polygon fill="white" stroke="black" points="307.5,-112.5 307.5,-131.5 402.5,-131.5 402.5,-112.5 307.5,-112.5"/>
<text text-anchor="middle" x="355" y="-119.5" font-family="Helvetica,sans-Serif" font-size="10.00">bot_handler.hpp</text>
</a>
</g>
</g>
<!-- Node6&#45;&gt;Node7 -->
<g id="edge6" class="edge">
<title>Node6&#45;&gt;Node7</title>
<path fill="none" stroke="midnightblue" d="M419.28,-162.9C403.33,-153 382.5,-140.07 368.94,-131.65"/>
<polygon fill="midnightblue" stroke="midnightblue" points="417.68,-166.02 428.02,-168.32 421.37,-160.08 417.68,-166.02"/>
</g>
<!-- Node9 -->
<g id="node9" class="node">
<title>Node9</title>
<g id="a_node9"><a xlink:href="processor_8cpp.html" target="_top" xlink:title=" ">
<polygon fill="white" stroke="black" points="481.5,-56.5 481.5,-75.5 564.5,-75.5 564.5,-56.5 481.5,-56.5"/>
<text text-anchor="middle" x="523" y="-63.5" font-family="Helvetica,sans-Serif" font-size="10.00">processor.cpp</text>
</a>
</g>
</g>
<!-- Node6&#45;&gt;Node9 -->
<g id="edge9" class="edge">
<title>Node6&#45;&gt;Node9</title>
<path fill="none" stroke="midnightblue" d="M440.16,-157.95C439.77,-144.15 441.27,-125.61 450,-112 461.26,-94.46 482.03,-82.64 498.55,-75.54"/>
<polygon fill="midnightblue" stroke="midnightblue" points="436.69,-158.46 440.82,-168.21 443.67,-158.01 436.69,-158.46"/>
</g>
<!-- Node6&#45;&gt;Node10 -->
<g id="edge10" class="edge">
<title>Node6&#45;&gt;Node10</title>
<path fill="none" stroke="midnightblue" d="M463.57,-162.62C478.36,-152.76 497.51,-139.99 510.02,-131.65"/>
<polygon fill="midnightblue" stroke="midnightblue" points="461.39,-159.86 455.01,-168.32 465.28,-165.69 461.39,-159.86"/>
</g>
<!-- Node6&#45;&gt;Node11 -->
<g id="edge12" class="edge">
<title>Node6&#45;&gt;Node11</title>
<path fill="none" stroke="midnightblue" d="M486.72,-166.02C528.28,-155.82 589.31,-140.84 627.3,-131.52"/>
<polygon fill="midnightblue" stroke="midnightblue" points="485.74,-162.66 476.86,-168.44 487.41,-169.46 485.74,-162.66"/>
</g>
<!-- Node6&#45;&gt;Node12 -->
<g id="edge14" class="edge">
<title>Node6&#45;&gt;Node12</title>
<path fill="none" stroke="midnightblue" d="M494.37,-169.1C560.9,-159.07 675.27,-141.81 743.64,-131.5"/>
<polygon fill="midnightblue" stroke="midnightblue" points="493.49,-165.69 484.12,-170.65 494.53,-172.62 493.49,-165.69"/>
</g>
<!-- Node6&#45;&gt;Node13 -->
<g id="edge16" class="edge">
<title>Node6&#45;&gt;Node13</title>
<path fill="none" stroke="midnightblue" d="M395,-166.15C350.78,-155.95 285.48,-140.88 244.9,-131.52"/>
<polygon fill="midnightblue" stroke="midnightblue" points="394.39,-169.61 404.92,-168.44 395.97,-162.78 394.39,-169.61"/>
</g>
<!-- Node8 -->
<g id="node8" class="node">
<title>Node8</title>
<g id="a_node8"><a xlink:href="bot__main_8cpp.html" target="_top" xlink:title=" ">
<polygon fill="white" stroke="black" points="313.5,-56.5 313.5,-75.5 396.5,-75.5 396.5,-56.5 313.5,-56.5"/>
<text text-anchor="middle" x="355" y="-63.5" font-family="Helvetica,sans-Serif" font-size="10.00">bot_main.cpp</text>
</a>
</g>
</g>
<!-- Node7&#45;&gt;Node8 -->
<g id="edge7" class="edge">
<title>Node7&#45;&gt;Node8</title>
<path fill="none" stroke="midnightblue" d="M355,-101.8C355,-92.91 355,-82.78 355,-75.75"/>
<polygon fill="midnightblue" stroke="midnightblue" points="351.5,-102.08 355,-112.08 358.5,-102.08 351.5,-102.08"/>
</g>
<!-- Node10&#45;&gt;Node9 -->
<g id="edge11" class="edge">
<title>Node10&#45;&gt;Node9</title>
<path fill="none" stroke="midnightblue" d="M523,-101.8C523,-92.91 523,-82.78 523,-75.75"/>
<polygon fill="midnightblue" stroke="midnightblue" points="519.5,-102.08 523,-112.08 526.5,-102.08 519.5,-102.08"/>
</g>
<!-- Node11&#45;&gt;Node9 -->
<g id="edge13" class="edge">
<title>Node11&#45;&gt;Node9</title>
<path fill="none" stroke="midnightblue" d="M630.52,-108.77C604.41,-98.63 567.96,-84.47 544.92,-75.52"/>
<polygon fill="midnightblue" stroke="midnightblue" points="629.39,-112.08 639.98,-112.44 631.92,-105.56 629.39,-112.08"/>
</g>
<!-- Node12&#45;&gt;Node9 -->
<g id="edge15" class="edge">
<title>Node12&#45;&gt;Node9</title>
<path fill="none" stroke="midnightblue" d="M746.21,-110.51C693.2,-100.18 613.32,-84.61 564.87,-75.16"/>
<polygon fill="midnightblue" stroke="midnightblue" points="745.62,-113.97 756.11,-112.44 746.96,-107.09 745.62,-113.97"/>
</g>
<!-- Node13&#45;&gt;Node9 -->
<g id="edge17" class="edge">
<title>Node13&#45;&gt;Node9</title>
<path fill="none" stroke="midnightblue" d="M268.02,-110.71C330.51,-100 426.75,-83.5 481.37,-74.14"/>
<polygon fill="midnightblue" stroke="midnightblue" points="267.18,-107.3 257.91,-112.44 268.36,-114.2 267.18,-107.3"/>
</g>
</g>
</svg>
